<?xml version="1.0" encoding="UTF-8" standalone="no"?>
<!DOCTYPE svg PUBLIC "-//W3C//DTD SVG 1.1//EN"
 "http://www.w3.org/Graphics/SVG/1.1/DTD/svg11.dtd">
<!-- Generated by graphviz version 2.43.0 (0)
 -->
<!-- Title: catena::ConcreteArrayAccessor::registerWithFactory Pages: 1 -->
<svg width="361pt" height="100pt"
 viewBox="0.00 0.00 361.00 99.50" xmlns="http://www.w3.org/2000/svg" xmlns:xlink="http://www.w3.org/1999/xlink">
<g id="graph0" class="graph" transform="scale(1 1) rotate(0) translate(4 95.5)">
<title>catena::ConcreteArrayAccessor::registerWithFactory</title>
<polygon fill="white" stroke="transparent" points="-4,4 -4,-95.5 357,-95.5 357,4 -4,4"/>
<!-- Node1 -->
<g id="node1" class="node">
<title>Node1</title>
<g id="a_node1"><a xlink:title="register a product">
<polygon fill="#bfbfbf" stroke="black" points="0,-33 0,-63 169,-63 169,-33 0,-33"/>
<text text-anchor="start" x="8" y="-51" font-family="Helvetica,sans-Serif" font-size="10.00">catena::ConcreteArrayAccessor</text>
<text text-anchor="middle" x="84.5" y="-40" font-family="Helvetica,sans-Serif" font-size="10.00">::registerWithFactory</text>
</a>
</g>
</g>
<!-- Node2 -->
<g id="node2" class="node">
<title>Node2</title>
<g id="a_node2"><a xlink:href="classcatena_1_1patterns_1_1GenericFactory.html#a31ee2959ec29c96c0be704711ab38b2d" target="_top" xlink:title=" ">
<polygon fill="white" stroke="black" points="209,-61 209,-91 349,-91 349,-61 209,-61"/>
<text text-anchor="start" x="217" y="-79" font-family="Helvetica,sans-Serif" font-size="10.00">catena::patterns::Generic</text>
<text text-anchor="middle" x="279" y="-68" font-family="Helvetica,sans-Serif" font-size="10.00">Factory::addProduct</text>
</a>
</g>
</g>
<!-- Node1&#45;&gt;Node2 -->
<g id="edge1" class="edge">
<title>Node1&#45;&gt;Node2</title>
<path fill="none" stroke="midnightblue" d="M169.09,-60.16C178.96,-61.59 189,-63.06 198.81,-64.48"/>
<polygon fill="midnightblue" stroke="midnightblue" points="198.51,-67.98 208.91,-65.95 199.52,-61.05 198.51,-67.98"/>
</g>
<!-- Node3 -->
<g id="node3" class="node">
<title>Node3</title>
<g id="a_node3"><a xlink:href="classcatena_1_1patterns_1_1Singleton.html#ad0762b8a216d6c9d4755b1a3a7706199" target="_top" xlink:title=" ">
<polygon fill="white" stroke="black" points="205,-0.5 205,-41.5 353,-41.5 353,-0.5 205,-0.5"/>
<text text-anchor="start" x="213" y="-29.5" font-family="Helvetica,sans-Serif" font-size="10.00">catena::patterns::Singleton</text>
<text text-anchor="start" x="213" y="-18.5" font-family="Helvetica,sans-Serif" font-size="10.00">&lt; GenericFactory&lt; P, K,</text>
<text text-anchor="middle" x="279" y="-7.5" font-family="Helvetica,sans-Serif" font-size="10.00"> Ms... &gt; &gt;::getInstance</text>
</a>
</g>
</g>
<!-- Node1&#45;&gt;Node3 -->
<g id="edge2" class="edge">
<title>Node1&#45;&gt;Node3</title>
<path fill="none" stroke="midnightblue" d="M169.09,-36.28C177.63,-35.08 186.29,-33.86 194.82,-32.67"/>
<polygon fill="midnightblue" stroke="midnightblue" points="195.34,-36.13 204.75,-31.27 194.36,-29.2 195.34,-36.13"/>
</g>
</g>
</svg>
