<?xml version="1.0" encoding="UTF-8" standalone="no"?>
<!DOCTYPE svg PUBLIC "-//W3C//DTD SVG 1.1//EN"
 "http://www.w3.org/Graphics/SVG/1.1/DTD/svg11.dtd">
<!-- Generated by graphviz version 2.43.0 (0)
 -->
<!-- Title: catena::DeviceModel Pages: 1 -->
<svg width="399pt" height="122pt"
 viewBox="0.00 0.00 399.00 121.50" xmlns="http://www.w3.org/2000/svg" xmlns:xlink="http://www.w3.org/1999/xlink">
<g id="graph0" class="graph" transform="scale(1 1) rotate(0) translate(4 117.5)">
<title>catena::DeviceModel</title>
<polygon fill="white" stroke="transparent" points="-4,4 -4,-117.5 395,-117.5 395,4 -4,4"/>
<!-- Node1 -->
<g id="node1" class="node">
<title>Node1</title>
<g id="a_node1"><a xlink:title="Provide access to the Catena data model that&#39;s similar to the ogscript API in DashBoard.">
<polygon fill="#bfbfbf" stroke="black" points="272,-44.5 272,-63.5 391,-63.5 391,-44.5 272,-44.5"/>
<text text-anchor="middle" x="331.5" y="-51.5" font-family="Helvetica,sans-Serif" font-size="10.00">catena::DeviceModel</text>
</a>
</g>
</g>
<!-- Node2 -->
<g id="node2" class="node">
<title>Node2</title>
<g id="a_node2"><a xlink:href="classvdk_1_1signal.html" target="_top" xlink:title=" ">
<polygon fill="white" stroke="black" points="0,-61 0,-113 141,-113 141,-61 0,-61"/>
<text text-anchor="start" x="8" y="-101" font-family="Helvetica,sans-Serif" font-size="10.00">vdk::signal&lt; void(const</text>
<text text-anchor="start" x="8" y="-90" font-family="Helvetica,sans-Serif" font-size="10.00"> catena::ParamAccessor</text>
<text text-anchor="start" x="8" y="-79" font-family="Helvetica,sans-Serif" font-size="10.00"> &amp;, ParamIndex idx, const</text>
<text text-anchor="middle" x="70.5" y="-68" font-family="Helvetica,sans-Serif" font-size="10.00"> std::string &amp;)&gt;</text>
</a>
</g>
</g>
<!-- Node2&#45;&gt;Node1 -->
<g id="edge1" class="edge">
<title>Node2&#45;&gt;Node1</title>
<path fill="none" stroke="#9a32cd" stroke-dasharray="5,2" d="M151.47,-76.81C190.26,-71.87 236.04,-66.04 271.6,-61.5"/>
<polygon fill="#9a32cd" stroke="#9a32cd" points="150.73,-73.38 141.25,-78.11 151.61,-80.32 150.73,-73.38"/>
<text text-anchor="middle" x="206.5" y="-78" font-family="Helvetica,sans-Serif" font-size="10.00"> valueSetByClient</text>
</g>
<!-- Node3 -->
<g id="node3" class="node">
<title>Node3</title>
<g id="a_node3"><a xlink:href="classvdk_1_1signal.html" target="_top" xlink:title=" ">
<polygon fill="white" stroke="black" points="4,-0.5 4,-41.5 137,-41.5 137,-0.5 4,-0.5"/>
<text text-anchor="start" x="12" y="-29.5" font-family="Helvetica,sans-Serif" font-size="10.00">vdk::signal&lt; void(const</text>
<text text-anchor="start" x="12" y="-18.5" font-family="Helvetica,sans-Serif" font-size="10.00"> catena::ParamAccessor</text>
<text text-anchor="middle" x="70.5" y="-7.5" font-family="Helvetica,sans-Serif" font-size="10.00"> &amp;, ParamIndex idx)&gt;</text>
</a>
</g>
</g>
<!-- Node3&#45;&gt;Node1 -->
<g id="edge2" class="edge">
<title>Node3&#45;&gt;Node1</title>
<path fill="none" stroke="#9a32cd" stroke-dasharray="5,2" d="M147.12,-30.64C186.93,-35.71 235.01,-41.83 271.95,-46.54"/>
<polygon fill="#9a32cd" stroke="#9a32cd" points="147.55,-27.16 137.19,-29.37 146.67,-34.11 147.55,-27.16"/>
<text text-anchor="middle" x="206.5" y="-48" font-family="Helvetica,sans-Serif" font-size="10.00"> valueSetByService</text>
</g>
</g>
</svg>
