<?xml version="1.0" encoding="UTF-8" standalone="no"?>
<!DOCTYPE svg PUBLIC "-//W3C//DTD SVG 1.1//EN"
 "http://www.w3.org/Graphics/SVG/1.1/DTD/svg11.dtd">
<!-- Generated by graphviz version 2.43.0 (0)
 -->
<!-- Title: catena::ParamAccessor::setValueAt Pages: 1 -->
<svg width="322pt" height="106pt"
 viewBox="0.00 0.00 322.00 106.00" xmlns="http://www.w3.org/2000/svg" xmlns:xlink="http://www.w3.org/1999/xlink">
<g id="graph0" class="graph" transform="scale(1 1) rotate(0) translate(4 102)">
<title>catena::ParamAccessor::setValueAt</title>
<polygon fill="white" stroke="transparent" points="-4,4 -4,-102 318,-102 318,4 -4,4"/>
<!-- Node1 -->
<g id="node1" class="node">
<title>Node1</title>
<g id="a_node1"><a xlink:title="Set the value of the stored parameter to which this object provides access.">
<polygon fill="#bfbfbf" stroke="black" points="0,-28 0,-58 130,-58 130,-28 0,-28"/>
<text text-anchor="start" x="8" y="-46" font-family="Helvetica,sans-Serif" font-size="10.00">catena::ParamAccessor</text>
<text text-anchor="middle" x="65" y="-35" font-family="Helvetica,sans-Serif" font-size="10.00">::setValueAt</text>
</a>
</g>
</g>
<!-- Node2 -->
<g id="node2" class="node">
<title>Node2</title>
<g id="a_node2"><a xlink:href="classcatena_1_1patterns_1_1Singleton.html#ad0762b8a216d6c9d4755b1a3a7706199" target="_top" xlink:title=" ">
<polygon fill="white" stroke="black" points="166,-56.5 166,-97.5 314,-97.5 314,-56.5 166,-56.5"/>
<text text-anchor="start" x="174" y="-85.5" font-family="Helvetica,sans-Serif" font-size="10.00">catena::patterns::Singleton</text>
<text text-anchor="start" x="174" y="-74.5" font-family="Helvetica,sans-Serif" font-size="10.00">&lt; Functory&lt; K, R, Ms...</text>
<text text-anchor="middle" x="240" y="-63.5" font-family="Helvetica,sans-Serif" font-size="10.00"> &gt; &gt;::getInstance</text>
</a>
</g>
</g>
<!-- Node1&#45;&gt;Node2 -->
<g id="edge1" class="edge">
<title>Node1&#45;&gt;Node2</title>
<path fill="none" stroke="midnightblue" d="M130.42,-55.66C138.7,-57.29 147.28,-58.97 155.81,-60.65"/>
<polygon fill="midnightblue" stroke="midnightblue" points="155.3,-64.12 165.79,-62.61 156.65,-57.25 155.3,-64.12"/>
</g>
<!-- Node3 -->
<g id="node3" class="node">
<title>Node3</title>
<g id="a_node3"><a xlink:href="ParamAccessor_8h.html#a605d73de73f5b8aceac80b19ef58f3ee" target="_top" xlink:title="Value::KindCase looker upper.">
<polygon fill="white" stroke="black" points="181.5,-0.5 181.5,-19.5 298.5,-19.5 298.5,-0.5 181.5,-0.5"/>
<text text-anchor="middle" x="240" y="-7.5" font-family="Helvetica,sans-Serif" font-size="10.00">catena::getKindCase</text>
</a>
</g>
</g>
<!-- Node1&#45;&gt;Node3 -->
<g id="edge2" class="edge">
<title>Node1&#45;&gt;Node3</title>
<path fill="none" stroke="midnightblue" d="M130.42,-30.71C146.34,-27.68 163.33,-24.44 179.02,-21.44"/>
<polygon fill="midnightblue" stroke="midnightblue" points="179.96,-24.82 189.13,-19.51 178.65,-17.95 179.96,-24.82"/>
</g>
<!-- Node3&#45;&gt;Node3 -->
<g id="edge3" class="edge">
<title>Node3&#45;&gt;Node3</title>
<path fill="none" stroke="midnightblue" d="M213.18,-19.76C200.13,-28.57 209.07,-38 240,-38 260.78,-38 271.63,-33.74 272.56,-28.27"/>
<polygon fill="midnightblue" stroke="midnightblue" points="275.31,-26.09 266.82,-19.76 269.51,-30.01 275.31,-26.09"/>
</g>
</g>
</svg>
