<?xml version="1.0" encoding="UTF-8" standalone="no"?>
<!DOCTYPE svg PUBLIC "-//W3C//DTD SVG 1.1//EN"
 "http://www.w3.org/Graphics/SVG/1.1/DTD/svg11.dtd">
<!-- Generated by graphviz version 2.43.0 (0)
 -->
<!-- Title: /home/runner/work/Catena/Catena/sdks/cpp/common/include/Authorization.h Pages: 1 -->
<svg width="2690pt" height="357pt"
 viewBox="0.00 0.00 2690.00 357.00" xmlns="http://www.w3.org/2000/svg" xmlns:xlink="http://www.w3.org/1999/xlink">
<g id="graph0" class="graph" transform="scale(1 1) rotate(0) translate(4 353)">
<title>/home/runner/work/Catena/Catena/sdks/cpp/common/include/Authorization.h</title>
<!-- Node1 -->
<g id="Node000001" class="node">
<title>Node1</title>
<g id="a_Node000001"><a xlink:title="Class for handling authorization information.">
<polygon fill="#999999" stroke="#666666" points="1214.5,-349 1068.5,-349 1068.5,-308 1214.5,-308 1214.5,-349"/>
<text text-anchor="start" x="1076.5" y="-337" font-family="Helvetica,sans-Serif" font-size="10.00">/home/runner/work/Catena</text>
<text text-anchor="start" x="1076.5" y="-326" font-family="Helvetica,sans-Serif" font-size="10.00">/Catena/sdks/cpp/common</text>
<text text-anchor="middle" x="1141.5" y="-315" font-family="Helvetica,sans-Serif" font-size="10.00">/include/Authorization.h</text>
</a>
</g>
</g>
<!-- Node2 -->
<g id="Node000002" class="node">
<title>Node2</title>
<g id="a_Node000002"><a xlink:href="Device_8h.html" target="_top" xlink:title="Device class definition.">
<polygon fill="white" stroke="#666666" points="820.5,-272 674.5,-272 674.5,-231 820.5,-231 820.5,-272"/>
<text text-anchor="start" x="682.5" y="-260" font-family="Helvetica,sans-Serif" font-size="10.00">/home/runner/work/Catena</text>
<text text-anchor="start" x="682.5" y="-249" font-family="Helvetica,sans-Serif" font-size="10.00">/Catena/sdks/cpp/common</text>
<text text-anchor="middle" x="747.5" y="-238" font-family="Helvetica,sans-Serif" font-size="10.00">/include/Device.h</text>
</a>
</g>
</g>
<!-- Node1&#45;&gt;Node2 -->
<g id="edge1_Node000001_Node000002" class="edge">
<title>Node1&#45;&gt;Node2</title>
<g id="a_edge1_Node000001_Node000002"><a xlink:title=" ">
<path fill="none" stroke="#63b8ff" d="M1058.15,-311.63C987.77,-298.24 887.96,-279.24 820.63,-266.42"/>
<polygon fill="#63b8ff" stroke="#63b8ff" points="1057.84,-315.14 1068.32,-313.57 1059.15,-308.26 1057.84,-315.14"/>
</a>
</g>
</g>
<!-- Node7 -->
<g id="Node000007" class="node">
<title>Node7</title>
<g id="a_Node000007"><a xlink:href="ParamWithValue_8h.html" target="_top" xlink:title="Interface for acessing parameter values.">
<polygon fill="white" stroke="#666666" points="1248,-195 1101,-195 1101,-154 1248,-154 1248,-195"/>
<text text-anchor="start" x="1109" y="-183" font-family="Helvetica,sans-Serif" font-size="10.00">/home/runner/work/Catena</text>
<text text-anchor="start" x="1109" y="-172" font-family="Helvetica,sans-Serif" font-size="10.00">/Catena/sdks/cpp/common</text>
<text text-anchor="middle" x="1174.5" y="-161" font-family="Helvetica,sans-Serif" font-size="10.00">/include/ParamWithValue.h</text>
</a>
</g>
</g>
<!-- Node1&#45;&gt;Node7 -->
<g id="edge27_Node000001_Node000007" class="edge">
<title>Node1&#45;&gt;Node7</title>
<g id="a_edge27_Node000001_Node000007"><a xlink:title=" ">
<path fill="none" stroke="#63b8ff" d="M1121.42,-299.03C1110.23,-279.45 1100.41,-253.11 1110.5,-231 1117.1,-216.55 1129.52,-204.41 1141.68,-195.21"/>
<polygon fill="#63b8ff" stroke="#63b8ff" points="1118.56,-301.06 1126.76,-307.77 1124.54,-297.41 1118.56,-301.06"/>
</a>
</g>
</g>
<!-- Node10 -->
<g id="Node000010" class="node">
<title>Node10</title>
<g id="a_Node000010"><a xlink:href="ServiceImpl_8h.html" target="_top" xlink:title="Implements Catena gRPC request handlers.">
<polygon fill="white" stroke="#666666" points="1427,-195 1266,-195 1266,-154 1427,-154 1427,-195"/>
<text text-anchor="start" x="1274" y="-183" font-family="Helvetica,sans-Serif" font-size="10.00">/home/runner/work/Catena</text>
<text text-anchor="start" x="1274" y="-172" font-family="Helvetica,sans-Serif" font-size="10.00">/Catena/sdks/cpp/connections</text>
<text text-anchor="middle" x="1346.5" y="-161" font-family="Helvetica,sans-Serif" font-size="10.00">/gRPC/include/ServiceImpl.h</text>
</a>
</g>
</g>
<!-- Node1&#45;&gt;Node10 -->
<g id="edge30_Node000001_Node000010" class="edge">
<title>Node1&#45;&gt;Node10</title>
<g id="a_edge30_Node000001_Node000010"><a xlink:title=" ">
<path fill="none" stroke="#63b8ff" d="M1216.89,-304.19C1236.81,-295.92 1257.47,-285.29 1274.5,-272 1301.7,-250.78 1323.75,-216.83 1335.99,-195.37"/>
<polygon fill="#63b8ff" stroke="#63b8ff" points="1215.49,-300.98 1207.5,-307.94 1218.09,-307.48 1215.49,-300.98"/>
</a>
</g>
</g>
<!-- Node25 -->
<g id="Node000025" class="node">
<title>Node25</title>
<g id="a_Node000025"><a xlink:href="StructInfo_8h.html" target="_top" xlink:title="Structured data serialization and deserialization to protobuf.">
<polygon fill="white" stroke="#666666" points="1265.5,-272 1119.5,-272 1119.5,-231 1265.5,-231 1265.5,-272"/>
<text text-anchor="start" x="1127.5" y="-260" font-family="Helvetica,sans-Serif" font-size="10.00">/home/runner/work/Catena</text>
<text text-anchor="start" x="1127.5" y="-249" font-family="Helvetica,sans-Serif" font-size="10.00">/Catena/sdks/cpp/common</text>
<text text-anchor="middle" x="1192.5" y="-238" font-family="Helvetica,sans-Serif" font-size="10.00">/include/StructInfo.h</text>
</a>
</g>
</g>
<!-- Node1&#45;&gt;Node25 -->
<g id="edge28_Node000001_Node000025" class="edge">
<title>Node1&#45;&gt;Node25</title>
<g id="a_edge28_Node000001_Node000025"><a xlink:title=" ">
<path fill="none" stroke="#63b8ff" d="M1160.62,-299.39C1166.8,-290.3 1173.52,-280.41 1179.19,-272.07"/>
<polygon fill="#63b8ff" stroke="#63b8ff" points="1157.63,-297.56 1154.9,-307.79 1163.42,-301.49 1157.63,-297.56"/>
</a>
</g>
</g>
<!-- Node3 -->
<g id="Node000003" class="node">
<title>Node3</title>
<g id="a_Node000003"><a xlink:href="LanguagePack_8h.html" target="_top" xlink:title="multi language support in 2 classes: LanguagePack and LanguagePacks">
<polygon fill="white" stroke="#666666" points="163.5,-195 17.5,-195 17.5,-154 163.5,-154 163.5,-195"/>
<text text-anchor="start" x="25.5" y="-183" font-family="Helvetica,sans-Serif" font-size="10.00">/home/runner/work/Catena</text>
<text text-anchor="start" x="25.5" y="-172" font-family="Helvetica,sans-Serif" font-size="10.00">/Catena/sdks/cpp/common</text>
<text text-anchor="middle" x="90.5" y="-161" font-family="Helvetica,sans-Serif" font-size="10.00">/include/LanguagePack.h</text>
</a>
</g>
</g>
<!-- Node2&#45;&gt;Node3 -->
<g id="edge2_Node000002_Node000003" class="edge">
<title>Node2&#45;&gt;Node3</title>
<g id="a_edge2_Node000002_Node000003"><a xlink:title=" ">
<path fill="none" stroke="#63b8ff" d="M664.24,-246.06C551.98,-239.25 346.15,-223.89 172.5,-195 169.62,-194.52 166.68,-194 163.72,-193.44"/>
<polygon fill="#63b8ff" stroke="#63b8ff" points="664.28,-249.57 674.47,-246.67 664.7,-242.58 664.28,-249.57"/>
</a>
</g>
</g>
<!-- Node4 -->
<g id="Node000004" class="node">
<title>Node4</title>
<g id="a_Node000004"><a xlink:href="Menu_8h.html" target="_top" xlink:title="Menus support.">
<polygon fill="white" stroke="#666666" points="327.5,-195 181.5,-195 181.5,-154 327.5,-154 327.5,-195"/>
<text text-anchor="start" x="189.5" y="-183" font-family="Helvetica,sans-Serif" font-size="10.00">/home/runner/work/Catena</text>
<text text-anchor="start" x="189.5" y="-172" font-family="Helvetica,sans-Serif" font-size="10.00">/Catena/sdks/cpp/common</text>
<text text-anchor="middle" x="254.5" y="-161" font-family="Helvetica,sans-Serif" font-size="10.00">/include/Menu.h</text>
</a>
</g>
</g>
<!-- Node2&#45;&gt;Node4 -->
<g id="edge3_Node000002_Node000004" class="edge">
<title>Node2&#45;&gt;Node4</title>
<g id="a_edge3_Node000002_Node000004"><a xlink:title=" ">
<path fill="none" stroke="#63b8ff" d="M664.23,-241.71C580.93,-232.34 449.31,-215.98 336.5,-195 333.63,-194.46 330.7,-193.89 327.75,-193.3"/>
<polygon fill="#63b8ff" stroke="#63b8ff" points="664.07,-245.21 674.4,-242.85 664.85,-238.26 664.07,-245.21"/>
</a>
</g>
</g>
<!-- Node5 -->
<g id="Node000005" class="node">
<title>Node5</title>
<g id="a_Node000005"><a xlink:href="MenuGroup_8h.html" target="_top" xlink:title="MenuGroups support.">
<polygon fill="white" stroke="#666666" points="203.5,-118 57.5,-118 57.5,-77 203.5,-77 203.5,-118"/>
<text text-anchor="start" x="65.5" y="-106" font-family="Helvetica,sans-Serif" font-size="10.00">/home/runner/work/Catena</text>
<text text-anchor="start" x="65.5" y="-95" font-family="Helvetica,sans-Serif" font-size="10.00">/Catena/sdks/cpp/common</text>
<text text-anchor="middle" x="130.5" y="-84" font-family="Helvetica,sans-Serif" font-size="10.00">/include/MenuGroup.h</text>
</a>
</g>
</g>
<!-- Node2&#45;&gt;Node5 -->
<g id="edge5_Node000002_Node000005" class="edge">
<title>Node2&#45;&gt;Node5</title>
<g id="a_edge5_Node000002_Node000005"><a xlink:title=" ">
<path fill="none" stroke="#63b8ff" d="M664.1,-250.47C480.14,-249.53 52.33,-242.24 8.5,-195 -3.89,-181.64 -1.36,-169.32 8.5,-154 19.84,-136.39 38.28,-124.3 57.44,-116.03"/>
<polygon fill="#63b8ff" stroke="#63b8ff" points="664.25,-253.97 674.27,-250.52 664.29,-246.97 664.25,-253.97"/>
</a>
</g>
</g>
<!-- Node6 -->
<g id="Node000006" class="node">
<title>Node6</title>
<g id="a_Node000006"><a xlink:href="NamedChoiceConstraint_8h.html" target="_top" xlink:title="A constraint that checks if a value is within some named choices.">
<polygon fill="white" stroke="#666666" points="746,-195 561,-195 561,-154 746,-154 746,-195"/>
<text text-anchor="start" x="569" y="-183" font-family="Helvetica,sans-Serif" font-size="10.00">/home/runner/work/Catena</text>
<text text-anchor="start" x="569" y="-172" font-family="Helvetica,sans-Serif" font-size="10.00">/Catena/sdks/cpp/common</text>
<text text-anchor="middle" x="653.5" y="-161" font-family="Helvetica,sans-Serif" font-size="10.00">/include/NamedChoiceConstraint.h</text>
</a>
</g>
</g>
<!-- Node2&#45;&gt;Node6 -->
<g id="edge6_Node000002_Node000006" class="edge">
<title>Node2&#45;&gt;Node6</title>
<g id="a_edge6_Node000002_Node000006"><a xlink:title=" ">
<path fill="none" stroke="#63b8ff" d="M714.73,-224.35C702.67,-214.73 689.24,-204.01 678.04,-195.07"/>
<polygon fill="#63b8ff" stroke="#63b8ff" points="712.81,-227.29 722.81,-230.79 717.17,-221.82 712.81,-227.29"/>
</a>
</g>
</g>
<!-- Node2&#45;&gt;Node7 -->
<g id="edge7_Node000002_Node000007" class="edge">
<title>Node2&#45;&gt;Node7</title>
<g id="a_edge7_Node000002_Node000007"><a xlink:title=" ">
<path fill="none" stroke="#63b8ff" d="M830.65,-238.77C900.5,-228.51 1002.84,-212.54 1091.5,-195 1094.55,-194.4 1097.66,-193.76 1100.8,-193.1"/>
<polygon fill="#63b8ff" stroke="#63b8ff" points="829.97,-235.33 820.58,-240.24 830.99,-242.26 829.97,-235.33"/>
</a>
</g>
</g>
<!-- Node8 -->
<g id="Node000008" class="node">
<title>Node8</title>
<g id="a_Node000008"><a xlink:href="PicklistConstraint_8h.html" target="_top" xlink:title="A constraint that checks if a value is in a list of strings.">
<polygon fill="white" stroke="#666666" points="916.5,-195 764.5,-195 764.5,-154 916.5,-154 916.5,-195"/>
<text text-anchor="start" x="772.5" y="-183" font-family="Helvetica,sans-Serif" font-size="10.00">/home/runner/work/Catena</text>
<text text-anchor="start" x="772.5" y="-172" font-family="Helvetica,sans-Serif" font-size="10.00">/Catena/sdks/cpp/common</text>
<text text-anchor="middle" x="840.5" y="-161" font-family="Helvetica,sans-Serif" font-size="10.00">/include/PicklistConstraint.h</text>
</a>
</g>
</g>
<!-- Node2&#45;&gt;Node8 -->
<g id="edge8_Node000002_Node000008" class="edge">
<title>Node2&#45;&gt;Node8</title>
<g id="a_edge8_Node000002_Node000008"><a xlink:title=" ">
<path fill="none" stroke="#63b8ff" d="M779.93,-224.35C791.86,-214.73 805.15,-204.01 816.23,-195.07"/>
<polygon fill="#63b8ff" stroke="#63b8ff" points="777.53,-221.79 771.94,-230.79 781.92,-227.24 777.53,-221.79"/>
</a>
</g>
</g>
<!-- Node9 -->
<g id="Node000009" class="node">
<title>Node9</title>
<g id="a_Node000009"><a xlink:href="RangeConstraint_8h.html" target="_top" xlink:title="A constraint that checks if a value is within a range.">
<polygon fill="white" stroke="#666666" points="1082.5,-195 934.5,-195 934.5,-154 1082.5,-154 1082.5,-195"/>
<text text-anchor="start" x="942.5" y="-183" font-family="Helvetica,sans-Serif" font-size="10.00">/home/runner/work/Catena</text>
<text text-anchor="start" x="942.5" y="-172" font-family="Helvetica,sans-Serif" font-size="10.00">/Catena/sdks/cpp/common</text>
<text text-anchor="middle" x="1008.5" y="-161" font-family="Helvetica,sans-Serif" font-size="10.00">/include/RangeConstraint.h</text>
</a>
</g>
</g>
<!-- Node2&#45;&gt;Node9 -->
<g id="edge9_Node000002_Node000009" class="edge">
<title>Node2&#45;&gt;Node9</title>
<g id="a_edge9_Node000002_Node000009"><a xlink:title=" ">
<path fill="none" stroke="#63b8ff" d="M825.06,-228.21C861.73,-217.68 905.12,-205.21 940.5,-195.04"/>
<polygon fill="#63b8ff" stroke="#63b8ff" points="824.04,-224.86 815.4,-230.99 825.98,-231.59 824.04,-224.86"/>
</a>
</g>
</g>
<!-- Node2&#45;&gt;Node10 -->
<g id="edge10_Node000002_Node000010" class="edge">
<title>Node2&#45;&gt;Node10</title>
<g id="a_edge10_Node000002_Node000010"><a xlink:title=" ">
<path fill="none" stroke="#63b8ff" d="M830.89,-244.11C932,-235.73 1107.42,-219.21 1256.5,-195 1259.5,-194.51 1262.55,-193.99 1265.63,-193.44"/>
<polygon fill="#63b8ff" stroke="#63b8ff" points="830.42,-240.63 820.74,-244.94 830.99,-247.61 830.42,-240.63"/>
</a>
</g>
</g>
<!-- Node24 -->
<g id="Node000024" class="node">
<title>Node24</title>
<g id="a_Node000024"><a xlink:href="SubscriptionManager_8h.html" target="_top" xlink:title="Centralized manager for parameter subscriptions in gRPC connections.">
<polygon fill="white" stroke="#666666" points="543,-195 346,-195 346,-154 543,-154 543,-195"/>
<text text-anchor="start" x="354" y="-183" font-family="Helvetica,sans-Serif" font-size="10.00">/home/runner/work/Catena</text>
<text text-anchor="start" x="354" y="-172" font-family="Helvetica,sans-Serif" font-size="10.00">/Catena/sdks/cpp/connections</text>
<text text-anchor="middle" x="444.5" y="-161" font-family="Helvetica,sans-Serif" font-size="10.00">/gRPC/include/SubscriptionManager.h</text>
</a>
</g>
</g>
<!-- Node2&#45;&gt;Node24 -->
<g id="edge25_Node000002_Node000024" class="edge">
<title>Node2&#45;&gt;Node24</title>
<g id="a_edge25_Node000002_Node000024"><a xlink:title=" ">
<path fill="none" stroke="#63b8ff" d="M664.37,-229.92C620.45,-219.05 566.84,-205.78 523.55,-195.06"/>
<polygon fill="#63b8ff" stroke="#63b8ff" points="663.61,-233.34 674.16,-232.34 665.29,-226.54 663.61,-233.34"/>
</a>
</g>
</g>
<!-- Node4&#45;&gt;Node5 -->
<g id="edge4_Node000004_Node000005" class="edge">
<title>Node4&#45;&gt;Node5</title>
<g id="a_edge4_Node000004_Node000005"><a xlink:title=" ">
<path fill="none" stroke="#63b8ff" d="M213.41,-148.64C197.03,-138.74 178.45,-127.5 163.03,-118.17"/>
<polygon fill="#63b8ff" stroke="#63b8ff" points="211.88,-151.81 222.25,-153.99 215.5,-145.82 211.88,-151.81"/>
</a>
</g>
</g>
<!-- Node11 -->
<g id="Node000011" class="node">
<title>Node11</title>
<g id="a_Node000011"><a xlink:href="AddLanguage_8h.html" target="_top" xlink:title="Implements Catena gRPC AddLanguage.">
<polygon fill="white" stroke="#666666" points="1659,-118 1498,-118 1498,-77 1659,-77 1659,-118"/>
<text text-anchor="start" x="1506" y="-106" font-family="Helvetica,sans-Serif" font-size="10.00">/home/runner/work/Catena</text>
<text text-anchor="start" x="1506" y="-95" font-family="Helvetica,sans-Serif" font-size="10.00">/Catena/sdks/cpp/connections</text>
<text text-anchor="middle" x="1578.5" y="-84" font-family="Helvetica,sans-Serif" font-size="10.00">/gRPC/include/AddLanguage.h</text>
</a>
</g>
</g>
<!-- Node10&#45;&gt;Node11 -->
<g id="edge11_Node000010_Node000011" class="edge">
<title>Node10&#45;&gt;Node11</title>
<g id="a_edge11_Node000010_Node000011"><a xlink:title=" ">
<path fill="none" stroke="#63b8ff" d="M1416.69,-150.81C1449.02,-140.36 1487.01,-128.08 1518.05,-118.04"/>
<polygon fill="#63b8ff" stroke="#63b8ff" points="1415.29,-147.58 1406.85,-153.99 1417.45,-154.24 1415.29,-147.58"/>
</a>
</g>
</g>
<!-- Node12 -->
<g id="Node000012" class="node">
<title>Node12</title>
<g id="a_Node000012"><a xlink:href="BasicParamInfoRequest_8h_source.html" target="_top" xlink:title=" ">
<polygon fill="white" stroke="#666666" points="1888,-118 1677,-118 1677,-77 1888,-77 1888,-118"/>
<text text-anchor="start" x="1685" y="-106" font-family="Helvetica,sans-Serif" font-size="10.00">/home/runner/work/Catena</text>
<text text-anchor="start" x="1685" y="-95" font-family="Helvetica,sans-Serif" font-size="10.00">/Catena/sdks/cpp/connections</text>
<text text-anchor="middle" x="1782.5" y="-84" font-family="Helvetica,sans-Serif" font-size="10.00">/gRPC/include/BasicParamInfoRequest.h</text>
</a>
</g>
</g>
<!-- Node10&#45;&gt;Node12 -->
<g id="edge12_Node000010_Node000012" class="edge">
<title>Node10&#45;&gt;Node12</title>
<g id="a_edge12_Node000010_Node000012"><a xlink:title=" ">
<path fill="none" stroke="#63b8ff" d="M1437.32,-157.88C1507.06,-145.88 1603.48,-129.29 1676.7,-116.7"/>
<polygon fill="#63b8ff" stroke="#63b8ff" points="1436.5,-154.47 1427.24,-159.61 1437.68,-161.37 1436.5,-154.47"/>
</a>
</g>
</g>
<!-- Node13 -->
<g id="Node000013" class="node">
<title>Node13</title>
<g id="a_Node000013"><a xlink:href="Connect_8h.html" target="_top" xlink:title="Implements Catena gRPC Connect.">
<polygon fill="white" stroke="#666666" points="472,-118 311,-118 311,-77 472,-77 472,-118"/>
<text text-anchor="start" x="319" y="-106" font-family="Helvetica,sans-Serif" font-size="10.00">/home/runner/work/Catena</text>
<text text-anchor="start" x="319" y="-95" font-family="Helvetica,sans-Serif" font-size="10.00">/Catena/sdks/cpp/connections</text>
<text text-anchor="middle" x="391.5" y="-84" font-family="Helvetica,sans-Serif" font-size="10.00">/gRPC/include/Connect.h</text>
</a>
</g>
</g>
<!-- Node10&#45;&gt;Node13 -->
<g id="edge13_Node000010_Node000013" class="edge">
<title>Node10&#45;&gt;Node13</title>
<g id="a_edge13_Node000010_Node000013"><a xlink:title=" ">
<path fill="none" stroke="#63b8ff" d="M1255.69,-154.03C912.39,-110.31 819.55,-162.68 480.5,-118 477.84,-117.65 475.13,-117.26 472.41,-116.83"/>
<polygon fill="#63b8ff" stroke="#63b8ff" points="1255.3,-157.51 1265.66,-155.32 1256.19,-150.57 1255.3,-157.51"/>
</a>
</g>
</g>
<!-- Node14 -->
<g id="Node000014" class="node">
<title>Node14</title>
<g id="a_Node000014"><a xlink:href="DeviceRequest_8h.html" target="_top" xlink:title="Implements Catena gRPC DeviceRequest.">
<polygon fill="white" stroke="#666666" points="2075,-118 1906,-118 1906,-77 2075,-77 2075,-118"/>
<text text-anchor="start" x="1914" y="-106" font-family="Helvetica,sans-Serif" font-size="10.00">/home/runner/work/Catena</text>
<text text-anchor="start" x="1914" y="-95" font-family="Helvetica,sans-Serif" font-size="10.00">/Catena/sdks/cpp/connections</text>
<text text-anchor="middle" x="1990.5" y="-84" font-family="Helvetica,sans-Serif" font-size="10.00">/gRPC/include/DeviceRequest.h</text>
</a>
</g>
</g>
<!-- Node10&#45;&gt;Node14 -->
<g id="edge14_Node000010_Node000014" class="edge">
<title>Node10&#45;&gt;Node14</title>
<g id="a_edge14_Node000010_Node000014"><a xlink:title=" ">
<path fill="none" stroke="#63b8ff" d="M1437.46,-167.23C1546.83,-159.03 1735.76,-142.71 1896.5,-118 1899.55,-117.53 1902.65,-117.03 1905.77,-116.5"/>
<polygon fill="#63b8ff" stroke="#63b8ff" points="1437.16,-163.75 1427.45,-167.98 1437.68,-170.73 1437.16,-163.75"/>
</a>
</g>
</g>
<!-- Node15 -->
<g id="Node000015" class="node">
<title>Node15</title>
<g id="a_Node000015"><a xlink:href="ExecuteCommand_8h.html" target="_top" xlink:title="Implements Catena gRPC ExecuteCommand.">
<polygon fill="white" stroke="#666666" points="2277.5,-118 2093.5,-118 2093.5,-77 2277.5,-77 2277.5,-118"/>
<text text-anchor="start" x="2101.5" y="-106" font-family="Helvetica,sans-Serif" font-size="10.00">/home/runner/work/Catena</text>
<text text-anchor="start" x="2101.5" y="-95" font-family="Helvetica,sans-Serif" font-size="10.00">/Catena/sdks/cpp/connections</text>
<text text-anchor="middle" x="2185.5" y="-84" font-family="Helvetica,sans-Serif" font-size="10.00">/gRPC/include/ExecuteCommand.h</text>
</a>
</g>
</g>
<!-- Node10&#45;&gt;Node15 -->
<g id="edge15_Node000010_Node000015" class="edge">
<title>Node10&#45;&gt;Node15</title>
<g id="a_edge15_Node000010_Node000015"><a xlink:title=" ">
<path fill="none" stroke="#63b8ff" d="M1437.46,-169.98C1576.96,-163.84 1851.92,-148.76 2083.5,-118 2086.72,-117.57 2089.99,-117.11 2093.29,-116.62"/>
<polygon fill="#63b8ff" stroke="#63b8ff" points="1437.08,-166.5 1427.24,-170.43 1437.39,-173.49 1437.08,-166.5"/>
</a>
</g>
</g>
<!-- Node16 -->
<g id="Node000016" class="node">
<title>Node16</title>
<g id="a_Node000016"><a xlink:href="ExternalObjectRequest_8h.html" target="_top" xlink:title="Implements Catena gRPC ExternalObjectRequest.">
<polygon fill="white" stroke="#666666" points="2503,-118 2296,-118 2296,-77 2503,-77 2503,-118"/>
<text text-anchor="start" x="2304" y="-106" font-family="Helvetica,sans-Serif" font-size="10.00">/home/runner/work/Catena</text>
<text text-anchor="start" x="2304" y="-95" font-family="Helvetica,sans-Serif" font-size="10.00">/Catena/sdks/cpp/connections</text>
<text text-anchor="middle" x="2399.5" y="-84" font-family="Helvetica,sans-Serif" font-size="10.00">/gRPC/include/ExternalObjectRequest.h</text>
</a>
</g>
</g>
<!-- Node10&#45;&gt;Node16 -->
<g id="edge16_Node000010_Node000016" class="edge">
<title>Node10&#45;&gt;Node16</title>
<g id="a_edge16_Node000010_Node000016"><a xlink:title=" ">
<path fill="none" stroke="#63b8ff" d="M1437.29,-171.51C1605.36,-167.09 1976.16,-153.82 2286.5,-118 2289.57,-117.65 2292.68,-117.26 2295.81,-116.86"/>
<polygon fill="#63b8ff" stroke="#63b8ff" points="1437.15,-168.02 1427.24,-171.78 1437.33,-175.01 1437.15,-168.02"/>
</a>
</g>
</g>
<!-- Node17 -->
<g id="Node000017" class="node">
<title>Node17</title>
<g id="a_Node000017"><a xlink:href="GetParam_8h.html" target="_top" xlink:title="Implements Catena gRPC GetParam.">
<polygon fill="white" stroke="#666666" points="2682,-118 2521,-118 2521,-77 2682,-77 2682,-118"/>
<text text-anchor="start" x="2529" y="-106" font-family="Helvetica,sans-Serif" font-size="10.00">/home/runner/work/Catena</text>
<text text-anchor="start" x="2529" y="-95" font-family="Helvetica,sans-Serif" font-size="10.00">/Catena/sdks/cpp/connections</text>
<text text-anchor="middle" x="2601.5" y="-84" font-family="Helvetica,sans-Serif" font-size="10.00">/gRPC/include/GetParam.h</text>
</a>
</g>
</g>
<!-- Node10&#45;&gt;Node17 -->
<g id="edge17_Node000010_Node000017" class="edge">
<title>Node10&#45;&gt;Node17</title>
<g id="a_edge17_Node000010_Node000017"><a xlink:title=" ">
<path fill="none" stroke="#63b8ff" d="M1437.15,-174.35C1633.88,-175.07 2114.35,-170.71 2512.5,-118 2515.17,-117.65 2517.87,-117.26 2520.6,-116.83"/>
<polygon fill="#63b8ff" stroke="#63b8ff" points="1437.16,-170.85 1427.14,-174.31 1437.13,-177.85 1437.16,-170.85"/>
</a>
</g>
</g>
<!-- Node18 -->
<g id="Node000018" class="node">
<title>Node18</title>
<g id="a_Node000018"><a xlink:href="GetPopulatedSlots_8h.html" target="_top" xlink:title="Implements Catena gRPC GetPopulatedSlots.">
<polygon fill="white" stroke="#666666" points="675,-118 490,-118 490,-77 675,-77 675,-118"/>
<text text-anchor="start" x="498" y="-106" font-family="Helvetica,sans-Serif" font-size="10.00">/home/runner/work/Catena</text>
<text text-anchor="start" x="498" y="-95" font-family="Helvetica,sans-Serif" font-size="10.00">/Catena/sdks/cpp/connections</text>
<text text-anchor="middle" x="582.5" y="-84" font-family="Helvetica,sans-Serif" font-size="10.00">/gRPC/include/GetPopulatedSlots.h</text>
</a>
</g>
</g>
<!-- Node10&#45;&gt;Node18 -->
<g id="edge18_Node000010_Node000018" class="edge">
<title>Node10&#45;&gt;Node18</title>
<g id="a_edge18_Node000010_Node000018"><a xlink:title=" ">
<path fill="none" stroke="#63b8ff" d="M1255.4,-153.97C1001.96,-119.7 933.29,-149.83 683.5,-118 680.76,-117.65 677.97,-117.27 675.17,-116.87"/>
<polygon fill="#63b8ff" stroke="#63b8ff" points="1255.27,-157.49 1265.65,-155.38 1256.22,-150.55 1255.27,-157.49"/>
</a>
</g>
</g>
<!-- Node19 -->
<g id="Node000019" class="node">
<title>Node19</title>
<g id="a_Node000019"><a xlink:href="GetValue_8h.html" target="_top" xlink:title="Implements Catena gRPC GetValue.">
<polygon fill="white" stroke="#666666" points="854,-118 693,-118 693,-77 854,-77 854,-118"/>
<text text-anchor="start" x="701" y="-106" font-family="Helvetica,sans-Serif" font-size="10.00">/home/runner/work/Catena</text>
<text text-anchor="start" x="701" y="-95" font-family="Helvetica,sans-Serif" font-size="10.00">/Catena/sdks/cpp/connections</text>
<text text-anchor="middle" x="773.5" y="-84" font-family="Helvetica,sans-Serif" font-size="10.00">/gRPC/include/GetValue.h</text>
</a>
</g>
</g>
<!-- Node10&#45;&gt;Node19 -->
<g id="edge19_Node000010_Node000019" class="edge">
<title>Node10&#45;&gt;Node19</title>
<g id="a_edge19_Node000010_Node000019"><a xlink:title=" ">
<path fill="none" stroke="#63b8ff" d="M1255.59,-153.97C1080.93,-127.97 1033.06,-144.37 862.5,-118 859.85,-117.59 857.15,-117.15 854.43,-116.68"/>
<polygon fill="#63b8ff" stroke="#63b8ff" points="1255.23,-157.45 1265.64,-155.49 1256.27,-150.53 1255.23,-157.45"/>
</a>
</g>
</g>
<!-- Node20 -->
<g id="Node000020" class="node">
<title>Node20</title>
<g id="a_Node000020"><a xlink:href="LanguagePackRequest_8h.html" target="_top" xlink:title="Implements Catena gRPC LanguagePackRequest.">
<polygon fill="white" stroke="#666666" points="1077,-118 872,-118 872,-77 1077,-77 1077,-118"/>
<text text-anchor="start" x="880" y="-106" font-family="Helvetica,sans-Serif" font-size="10.00">/home/runner/work/Catena</text>
<text text-anchor="start" x="880" y="-95" font-family="Helvetica,sans-Serif" font-size="10.00">/Catena/sdks/cpp/connections</text>
<text text-anchor="middle" x="974.5" y="-84" font-family="Helvetica,sans-Serif" font-size="10.00">/gRPC/include/LanguagePackRequest.h</text>
</a>
</g>
</g>
<!-- Node10&#45;&gt;Node20 -->
<g id="edge20_Node000010_Node000020" class="edge">
<title>Node10&#45;&gt;Node20</title>
<g id="a_edge20_Node000010_Node000020"><a xlink:title=" ">
<path fill="none" stroke="#63b8ff" d="M1255.5,-153.81C1190.26,-140.37 1127.15,-127.93 1076.08,-118.01"/>
<polygon fill="#63b8ff" stroke="#63b8ff" points="1255.07,-157.29 1265.57,-155.89 1256.48,-150.44 1255.07,-157.29"/>
</a>
</g>
</g>
<!-- Node21 -->
<g id="Node000021" class="node">
<title>Node21</title>
<g id="a_Node000021"><a xlink:href="ListLanguages_8h.html" target="_top" xlink:title="Implements Catena gRPC ListLanguages.">
<polygon fill="white" stroke="#666666" points="1260,-118 1095,-118 1095,-77 1260,-77 1260,-118"/>
<text text-anchor="start" x="1103" y="-106" font-family="Helvetica,sans-Serif" font-size="10.00">/home/runner/work/Catena</text>
<text text-anchor="start" x="1103" y="-95" font-family="Helvetica,sans-Serif" font-size="10.00">/Catena/sdks/cpp/connections</text>
<text text-anchor="middle" x="1177.5" y="-84" font-family="Helvetica,sans-Serif" font-size="10.00">/gRPC/include/ListLanguages.h</text>
</a>
</g>
</g>
<!-- Node10&#45;&gt;Node21 -->
<g id="edge21_Node000010_Node000021" class="edge">
<title>Node10&#45;&gt;Node21</title>
<g id="a_edge21_Node000010_Node000021"><a xlink:title=" ">
<path fill="none" stroke="#63b8ff" d="M1293.23,-149.86C1270.16,-139.62 1243.47,-127.77 1221.54,-118.04"/>
<polygon fill="#63b8ff" stroke="#63b8ff" points="1291.98,-153.13 1302.54,-153.99 1294.82,-146.73 1291.98,-153.13"/>
</a>
</g>
</g>
<!-- Node22 -->
<g id="Node000022" class="node">
<title>Node22</title>
<g id="a_Node000022"><a xlink:href="MultiSetValue_8h.html" target="_top" xlink:title="Generic CallData class for the SetValue and MultiSetValue RPCs.">
<polygon fill="white" stroke="#666666" points="1480,-118 1317,-118 1317,-77 1480,-77 1480,-118"/>
<text text-anchor="start" x="1325" y="-106" font-family="Helvetica,sans-Serif" font-size="10.00">/home/runner/work/Catena</text>
<text text-anchor="start" x="1325" y="-95" font-family="Helvetica,sans-Serif" font-size="10.00">/Catena/sdks/cpp/connections</text>
<text text-anchor="middle" x="1398.5" y="-84" font-family="Helvetica,sans-Serif" font-size="10.00">/gRPC/include/MultiSetValue.h</text>
</a>
</g>
</g>
<!-- Node10&#45;&gt;Node22 -->
<g id="edge22_Node000010_Node000022" class="edge">
<title>Node10&#45;&gt;Node22</title>
<g id="a_edge22_Node000010_Node000022"><a xlink:title=" ">
<path fill="none" stroke="#63b8ff" d="M1365.99,-145.39C1372.3,-136.3 1379.15,-126.41 1384.93,-118.07"/>
<polygon fill="#63b8ff" stroke="#63b8ff" points="1362.99,-143.58 1360.17,-153.79 1368.74,-147.57 1362.99,-143.58"/>
</a>
</g>
</g>
<!-- Node23 -->
<g id="Node000023" class="node">
<title>Node23</title>
<g id="a_Node000023"><a xlink:href="SetValue_8h.html" target="_top" xlink:title="Implements Catena gRPC SetValue.">
<polygon fill="white" stroke="#666666" points="1424,-41 1263,-41 1263,0 1424,0 1424,-41"/>
<text text-anchor="start" x="1271" y="-29" font-family="Helvetica,sans-Serif" font-size="10.00">/home/runner/work/Catena</text>
<text text-anchor="start" x="1271" y="-18" font-family="Helvetica,sans-Serif" font-size="10.00">/Catena/sdks/cpp/connections</text>
<text text-anchor="middle" x="1343.5" y="-7" font-family="Helvetica,sans-Serif" font-size="10.00">/gRPC/include/SetValue.h</text>
</a>
</g>
</g>
<!-- Node10&#45;&gt;Node23 -->
<g id="edge24_Node000010_Node000023" class="edge">
<title>Node10&#45;&gt;Node23</title>
<g id="a_edge24_Node000010_Node000023"><a xlink:title=" ">
<path fill="none" stroke="#63b8ff" d="M1321.96,-145.6C1316.07,-137.27 1310.59,-127.75 1307.5,-118 1302.01,-100.63 1302.33,-94.47 1307.5,-77 1311.35,-64 1319.3,-51.2 1326.75,-41.17"/>
<polygon fill="#63b8ff" stroke="#63b8ff" points="1319.34,-147.94 1328.17,-153.8 1324.93,-143.72 1319.34,-147.94"/>
</a>
</g>
</g>
<!-- Node22&#45;&gt;Node23 -->
<g id="edge23_Node000022_Node000023" class="edge">
<title>Node22&#45;&gt;Node23</title>
<g id="a_edge23_Node000022_Node000023"><a xlink:title=" ">
<path fill="none" stroke="#63b8ff" d="M1378.1,-68.67C1371.37,-59.5 1364.04,-49.5 1357.86,-41.07"/>
<polygon fill="#63b8ff" stroke="#63b8ff" points="1375.32,-70.8 1384.05,-76.79 1380.96,-66.66 1375.32,-70.8"/>
</a>
</g>
</g>
<!-- Node24&#45;&gt;Node13 -->
<g id="edge26_Node000024_Node000013" class="edge">
<title>Node24&#45;&gt;Node13</title>
<g id="a_edge26_Node000024_Node000013"><a xlink:title=" ">
<path fill="none" stroke="#63b8ff" d="M424.64,-145.39C418.21,-136.3 411.23,-126.41 405.34,-118.07"/>
<polygon fill="#63b8ff" stroke="#63b8ff" points="421.95,-147.65 430.58,-153.79 427.67,-143.61 421.95,-147.65"/>
</a>
</g>
</g>
<!-- Node25&#45;&gt;Node7 -->
<g id="edge29_Node000025_Node000007" class="edge">
<title>Node25&#45;&gt;Node7</title>
<g id="a_edge29_Node000025_Node000007"><a xlink:title=" ">
<path fill="none" stroke="#63b8ff" d="M1185.42,-220.98C1183.33,-212.28 1181.1,-202.98 1179.2,-195.07"/>
<polygon fill="#63b8ff" stroke="#63b8ff" points="1182.04,-221.89 1187.77,-230.79 1188.84,-220.25 1182.04,-221.89"/>
</a>
</g>
</g>
</g>
</svg>
