<?xml version="1.0" encoding="UTF-8" standalone="no"?>
<!DOCTYPE svg PUBLIC "-//W3C//DTD SVG 1.1//EN"
 "http://www.w3.org/Graphics/SVG/1.1/DTD/svg11.dtd">
<!-- Generated by graphviz version 2.43.0 (0)
 -->
<!-- Title: /home/runner/work/Catena/Catena/sdks/cpp/common/include/Authorization.h Pages: 1 -->
<!--zoomable 341 -->
<svg id="main" version="1.1" xmlns="http://www.w3.org/2000/svg" xmlns:xlink="http://www.w3.org/1999/xlink" xml:space="preserve" onload="init(evt)">
<style type="text/css"><![CDATA[
.edge:hover path { stroke: red; }
.edge:hover polygon { stroke: red; fill: red; }
]]></style>
<script type="text/javascript"><![CDATA[
var edges = document.getElementsByTagName('g');
if (edges && edges.length) {
  for (var i=0;i<edges.length;i++) {
    if (edges[i].id.substr(0,4)=='edge') {
      edges[i].setAttribute('class','edge');
    }
  }
}
]]></script>
        <defs>
                <circle id="rim" cx="0" cy="0" r="7"/>
                <circle id="rim2" cx="0" cy="0" r="3.5"/>
                <g id="zoomPlus">
                        <use xlink:href="#rim" fill="#404040">
                                <set attributeName="fill" to="#808080" begin="zoomplus.mouseover" end="zoomplus.mouseout"/>
                        </use>
                        <path d="M-4,0h8M0,-4v8" fill="none" stroke="white" stroke-width="1.5" pointer-events="none"/>
                </g>
                <g id="zoomMin">
                        <use xlink:href="#rim" fill="#404040">
                                <set attributeName="fill" to="#808080" begin="zoomminus.mouseover" end="zoomminus.mouseout"/>
                        </use>
                        <path d="M-4,0h8" fill="none" stroke="white" stroke-width="1.5" pointer-events="none"/>
                </g>
                <g id="dirArrow">
                        <path fill="none" stroke="white" stroke-width="1.5" d="M0,-3.0v7 M-2.5,-0.5L0,-3.0L2.5,-0.5"/>
                </g>
               <g id="resetDef">
                       <use xlink:href="#rim2" fill="#404040">
                               <set attributeName="fill" to="#808080" begin="reset.mouseover" end="reset.mouseout"/>
                       </use>
               </g>
        </defs>

<script type="text/javascript">
var viewWidth = 1699;
var viewHeight = 341;
var sectionId = 'dynsection-0';
</script>
<script xlink:href="svgpan.js"/>
<svg id="graph" class="graph">
<g id="viewport">
<title>/home/runner/work/Catena/Catena/sdks/cpp/common/include/Authorization.h</title>
<polygon fill="white" stroke="transparent" points="-4,4 -4,-337 1694.5,-337 1694.5,4 -4,4"/>
<!-- Node1 -->
<g id="node1" class="node">
<title>Node1</title>
<g id="a_node1"><a xlink:title="Class for handling authorization information.">
<polygon fill="#bfbfbf" stroke="black" points="621,-291.5 621,-332.5 767,-332.5 767,-291.5 621,-291.5"/>
<text text-anchor="start" x="629" y="-320.5" font-family="Helvetica,sans-Serif" font-size="10.00">/home/runner/work/Catena</text>
<text text-anchor="start" x="629" y="-309.5" font-family="Helvetica,sans-Serif" font-size="10.00">/Catena/sdks/cpp/common</text>
<text text-anchor="middle" x="694" y="-298.5" font-family="Helvetica,sans-Serif" font-size="10.00">/include/Authorization.h</text>
</a>
</g>
</g>
<!-- Node2 -->
<g id="node2" class="node">
<title>Node2</title>
<g id="a_node2"><a xlink:href="Path_8h.html" target="_top" xlink:title="Handles Path objects used to uniquely identify and access OIDs.">
<polygon fill="white" stroke="black" points="410.5,-123.5 410.5,-142.5 457.5,-142.5 457.5,-123.5 410.5,-123.5"/>
<text text-anchor="middle" x="434" y="-130.5" font-family="Helvetica,sans-Serif" font-size="10.00">Path.h</text>
</a>
</g>
</g>
<!-- Node1&#45;&gt;Node2 -->
<g id="edge1" class="edge">
<title>Node1&#45;&gt;Node2</title>
<path fill="none" stroke="midnightblue" d="M665.18,-291.38C612.38,-255.43 501.29,-179.81 454.97,-148.28"/>
<polygon fill="midnightblue" stroke="midnightblue" points="456.84,-145.32 446.61,-142.58 452.91,-151.1 456.84,-145.32"/>
</g>
<!-- Node8 -->
<g id="node8" class="node">
<title>Node8</title>
<g id="a_node8"><a xlink:href="Enums_8h.html" target="_top" xlink:title="tools for using EnumDecorators.">
<polygon fill="white" stroke="black" points="492.5,-123.5 492.5,-142.5 551.5,-142.5 551.5,-123.5 492.5,-123.5"/>
<text text-anchor="middle" x="522" y="-130.5" font-family="Helvetica,sans-Serif" font-size="10.00">Enums.h</text>
</a>
</g>
</g>
<!-- Node1&#45;&gt;Node8 -->
<g id="edge7" class="edge">
<title>Node1&#45;&gt;Node8</title>
<path fill="none" stroke="midnightblue" d="M674.94,-291.38C640.59,-256.03 568.95,-182.32 537.44,-149.89"/>
<polygon fill="midnightblue" stroke="midnightblue" points="539.82,-147.32 530.34,-142.58 534.8,-152.19 539.82,-147.32"/>
</g>
<!-- Node15 -->
<g id="node15" class="node">
<title>Node15</title>
<g id="a_node15"><a xlink:href="IParam_8h.html" target="_top" xlink:title="Interface for parameters.">
<polygon fill="white" stroke="black" points="664.5,-179.5 664.5,-198.5 723.5,-198.5 723.5,-179.5 664.5,-179.5"/>
<text text-anchor="middle" x="694" y="-186.5" font-family="Helvetica,sans-Serif" font-size="10.00">IParam.h</text>
</a>
</g>
</g>
<!-- Node1&#45;&gt;Node15 -->
<g id="edge16" class="edge">
<title>Node1&#45;&gt;Node15</title>
<path fill="none" stroke="midnightblue" d="M694,-291.29C694,-268.48 694,-231.19 694,-208.78"/>
<polygon fill="midnightblue" stroke="midnightblue" points="697.5,-208.57 694,-198.57 690.5,-208.57 697.5,-208.57"/>
</g>
<!-- Node22 -->
<g id="node22" class="node">
<title>Node22</title>
<g id="a_node22"><a xlink:href="ParamDescriptor_8h_source.html" target="_top" xlink:title=" ">
<polygon fill="white" stroke="black" points="961,-235.5 961,-254.5 1067,-254.5 1067,-235.5 961,-235.5"/>
<text text-anchor="middle" x="1014" y="-242.5" font-family="Helvetica,sans-Serif" font-size="10.00">ParamDescriptor.h</text>
</a>
</g>
</g>
<!-- Node1&#45;&gt;Node22 -->
<g id="edge26" class="edge">
<title>Node1&#45;&gt;Node22</title>
<path fill="none" stroke="midnightblue" d="M767.01,-296.17C826.45,-284.1 908.9,-267.35 961.86,-256.59"/>
<polygon fill="midnightblue" stroke="midnightblue" points="962.61,-260.01 971.72,-254.59 961.22,-253.15 962.61,-260.01"/>
</g>
<!-- Node24 -->
<g id="node24" class="node">
<title>Node24</title>
<g id="a_node24"><a xlink:title=" ">
<polygon fill="white" stroke="#bfbfbf" points="1413.5,-123.5 1413.5,-142.5 1478.5,-142.5 1478.5,-123.5 1413.5,-123.5"/>
<text text-anchor="middle" x="1446" y="-130.5" font-family="Helvetica,sans-Serif" font-size="10.00">functional</text>
</a>
</g>
</g>
<!-- Node1&#45;&gt;Node24 -->
<g id="edge52" class="edge">
<title>Node1&#45;&gt;Node24</title>
<path fill="none" stroke="midnightblue" d="M767.08,-309.04C891.14,-303.43 1148.85,-281.87 1348,-199 1378.27,-186.4 1409.12,-164.04 1427.92,-149.11"/>
<polygon fill="midnightblue" stroke="midnightblue" points="1430.32,-151.67 1435.89,-142.65 1425.92,-146.23 1430.32,-151.67"/>
</g>
<!-- Node3 -->
<g id="node3" class="node">
<title>Node3</title>
<g id="a_node3"><a xlink:title=" ">
<polygon fill="white" stroke="#bfbfbf" points="0,-67.5 0,-86.5 60,-86.5 60,-67.5 0,-67.5"/>
<text text-anchor="middle" x="30" y="-74.5" font-family="Helvetica,sans-Serif" font-size="10.00">iostream</text>
</a>
</g>
</g>
<!-- Node2&#45;&gt;Node3 -->
<g id="edge2" class="edge">
<title>Node2&#45;&gt;Node3</title>
<path fill="none" stroke="midnightblue" d="M410.39,-129.95C353.55,-124.83 204.47,-110.32 70.22,-87.05"/>
<polygon fill="midnightblue" stroke="midnightblue" points="70.62,-83.57 60.17,-85.29 69.41,-90.46 70.62,-83.57"/>
</g>
<!-- Node4 -->
<g id="node4" class="node">
<title>Node4</title>
<g id="a_node4"><a xlink:title=" ">
<polygon fill="white" stroke="#bfbfbf" points="1198,-6 1198,-25 1242,-25 1242,-6 1198,-6"/>
<text text-anchor="middle" x="1220" y="-13" font-family="Helvetica,sans-Serif" font-size="10.00">string</text>
</a>
</g>
</g>
<!-- Node2&#45;&gt;Node4 -->
<g id="edge3" class="edge">
<title>Node2&#45;&gt;Node4</title>
<path fill="none" stroke="midnightblue" d="M433.66,-123.15C433.64,-108.8 435.94,-80.68 453,-67 467.57,-55.31 1043.45,-25.44 1187.57,-18.13"/>
<polygon fill="midnightblue" stroke="midnightblue" points="1188.12,-21.61 1197.93,-17.61 1187.77,-14.62 1188.12,-21.61"/>
</g>
<!-- Node5 -->
<g id="node5" class="node">
<title>Node5</title>
<g id="a_node5"><a xlink:title=" ">
<polygon fill="white" stroke="#bfbfbf" points="757.5,-67.5 757.5,-86.5 804.5,-86.5 804.5,-67.5 757.5,-67.5"/>
<text text-anchor="middle" x="781" y="-74.5" font-family="Helvetica,sans-Serif" font-size="10.00">vector</text>
</a>
</g>
</g>
<!-- Node2&#45;&gt;Node5 -->
<g id="edge4" class="edge">
<title>Node2&#45;&gt;Node5</title>
<path fill="none" stroke="midnightblue" d="M457.89,-127.38C465.86,-125.9 474.8,-124.31 483,-123 597.16,-104.77 629.76,-110.36 747.19,-86.91"/>
<polygon fill="midnightblue" stroke="midnightblue" points="748.19,-90.28 757.3,-84.86 746.8,-83.42 748.19,-90.28"/>
</g>
<!-- Node6 -->
<g id="node6" class="node">
<title>Node6</title>
<g id="a_node6"><a xlink:title=" ">
<polygon fill="white" stroke="#bfbfbf" points="78.5,-67.5 78.5,-86.5 129.5,-86.5 129.5,-67.5 78.5,-67.5"/>
<text text-anchor="middle" x="104" y="-74.5" font-family="Helvetica,sans-Serif" font-size="10.00">variant</text>
</a>
</g>
</g>
<!-- Node2&#45;&gt;Node6 -->
<g id="edge5" class="edge">
<title>Node2&#45;&gt;Node6</title>
<path fill="none" stroke="midnightblue" d="M410.15,-129.19C361.31,-123.25 246.24,-108.37 139.51,-86.91"/>
<polygon fill="midnightblue" stroke="midnightblue" points="140.04,-83.45 129.55,-84.88 138.65,-90.31 140.04,-83.45"/>
</g>
<!-- Node7 -->
<g id="node7" class="node">
<title>Node7</title>
<g id="a_node7"><a xlink:title=" ">
<polygon fill="white" stroke="#bfbfbf" points="148,-67.5 148,-86.5 206,-86.5 206,-67.5 148,-67.5"/>
<text text-anchor="middle" x="177" y="-74.5" font-family="Helvetica,sans-Serif" font-size="10.00">memory</text>
</a>
</g>
</g>
<!-- Node2&#45;&gt;Node7 -->
<g id="edge6" class="edge">
<title>Node2&#45;&gt;Node7</title>
<path fill="none" stroke="midnightblue" d="M410.28,-127.02C365.92,-117.7 270.01,-97.54 216,-86.19"/>
<polygon fill="midnightblue" stroke="midnightblue" points="216.61,-82.75 206.11,-84.12 215.17,-89.6 216.61,-82.75"/>
</g>
<!-- Node9 -->
<g id="node9" class="node">
<title>Node9</title>
<g id="a_node9"><a xlink:href="EnumDecorator_8h.html" target="_top" xlink:title="Provides an enum with useful extra functionality.">
<polygon fill="white" stroke="black" points="262,-67.5 262,-86.5 406,-86.5 406,-67.5 262,-67.5"/>
<text text-anchor="middle" x="334" y="-74.5" font-family="Helvetica,sans-Serif" font-size="10.00">patterns/EnumDecorator.h</text>
</a>
</g>
</g>
<!-- Node8&#45;&gt;Node9 -->
<g id="edge8" class="edge">
<title>Node8&#45;&gt;Node9</title>
<path fill="none" stroke="midnightblue" d="M492.21,-123.44C460.17,-114.24 409.07,-99.56 373.65,-89.39"/>
<polygon fill="midnightblue" stroke="midnightblue" points="374.23,-85.91 363.65,-86.52 372.29,-92.64 374.23,-85.91"/>
</g>
<!-- Node11 -->
<g id="node11" class="node">
<title>Node11</title>
<g id="a_node11"><a xlink:title=" ">
<polygon fill="white" stroke="#bfbfbf" points="210,-6 210,-25 260,-25 260,-6 210,-6"/>
<text text-anchor="middle" x="235" y="-13" font-family="Helvetica,sans-Serif" font-size="10.00">cstdint</text>
</a>
</g>
</g>
<!-- Node8&#45;&gt;Node11 -->
<g id="edge15" class="edge">
<title>Node8&#45;&gt;Node11</title>
<path fill="none" stroke="midnightblue" d="M492.33,-127.14C422.6,-115.72 254.11,-88.02 253,-87 238.93,-74.07 235.2,-51.8 234.51,-35.75"/>
<polygon fill="midnightblue" stroke="midnightblue" points="238.01,-35.35 234.43,-25.38 231.01,-35.4 238.01,-35.35"/>
</g>
<!-- Node14 -->
<g id="node14" class="node">
<title>Node14</title>
<g id="a_node14"><a xlink:title=" ">
<polygon fill="white" stroke="#bfbfbf" points="462.5,-67.5 462.5,-86.5 581.5,-86.5 581.5,-67.5 462.5,-67.5"/>
<text text-anchor="middle" x="522" y="-74.5" font-family="Helvetica,sans-Serif" font-size="10.00">interface/device.pb.h</text>
</a>
</g>
</g>
<!-- Node8&#45;&gt;Node14 -->
<g id="edge14" class="edge">
<title>Node8&#45;&gt;Node14</title>
<path fill="none" stroke="midnightblue" d="M522,-123.08C522,-116.01 522,-105.86 522,-96.99"/>
<polygon fill="midnightblue" stroke="midnightblue" points="525.5,-96.75 522,-86.75 518.5,-96.75 525.5,-96.75"/>
</g>
<!-- Node9&#45;&gt;Node4 -->
<g id="edge12" class="edge">
<title>Node9&#45;&gt;Node4</title>
<path fill="none" stroke="midnightblue" d="M406.24,-68.22C410.9,-67.79 415.51,-67.38 420,-67 717.64,-42.04 1078.53,-23.44 1187.39,-18.07"/>
<polygon fill="midnightblue" stroke="midnightblue" points="1187.89,-21.55 1197.71,-17.57 1187.55,-14.56 1187.89,-21.55"/>
</g>
<!-- Node10 -->
<g id="node10" class="node">
<title>Node10</title>
<g id="a_node10"><a xlink:href="ReflectionMacros_8h_source.html" target="_top" xlink:title=" ">
<polygon fill="white" stroke="black" points="279,-6 279,-25 389,-25 389,-6 279,-6"/>
<text text-anchor="middle" x="334" y="-13" font-family="Helvetica,sans-Serif" font-size="10.00">ReflectionMacros.h</text>
</a>
</g>
</g>
<!-- Node9&#45;&gt;Node10 -->
<g id="edge9" class="edge">
<title>Node9&#45;&gt;Node10</title>
<path fill="none" stroke="midnightblue" d="M334,-67.48C334,-59.08 334,-45.98 334,-35.16"/>
<polygon fill="midnightblue" stroke="midnightblue" points="337.5,-35.01 334,-25.01 330.5,-35.01 337.5,-35.01"/>
</g>
<!-- Node9&#45;&gt;Node11 -->
<g id="edge10" class="edge">
<title>Node9&#45;&gt;Node11</title>
<path fill="none" stroke="midnightblue" d="M319.82,-67.48C303.64,-57.75 276.97,-41.73 257.86,-30.24"/>
<polygon fill="midnightblue" stroke="midnightblue" points="259.53,-27.16 249.16,-25.01 255.93,-33.16 259.53,-27.16"/>
</g>
<!-- Node12 -->
<g id="node12" class="node">
<title>Node12</title>
<g id="a_node12"><a xlink:title=" ">
<polygon fill="white" stroke="#bfbfbf" points="1293.5,-6 1293.5,-25 1386.5,-25 1386.5,-6 1293.5,-6"/>
<text text-anchor="middle" x="1340" y="-13" font-family="Helvetica,sans-Serif" font-size="10.00">unordered_map</text>
</a>
</g>
</g>
<!-- Node9&#45;&gt;Node12 -->
<g id="edge11" class="edge">
<title>Node9&#45;&gt;Node12</title>
<path fill="none" stroke="midnightblue" d="M406.03,-70.2C421.52,-69.05 437.8,-67.92 453,-67 807.38,-45.61 897.86,-67.61 1251,-31 1261.73,-29.89 1273.13,-28.32 1284.07,-26.63"/>
<polygon fill="midnightblue" stroke="midnightblue" points="1284.62,-30.09 1293.94,-25.05 1283.52,-23.18 1284.62,-30.09"/>
</g>
<!-- Node13 -->
<g id="node13" class="node">
<title>Node13</title>
<g id="a_node13"><a xlink:title=" ">
<polygon fill="white" stroke="#bfbfbf" points="798.5,-6 798.5,-25 867.5,-25 867.5,-6 798.5,-6"/>
<text text-anchor="middle" x="833" y="-13" font-family="Helvetica,sans-Serif" font-size="10.00">type_traits</text>
</a>
</g>
</g>
<!-- Node9&#45;&gt;Node13 -->
<g id="edge13" class="edge">
<title>Node9&#45;&gt;Node13</title>
<path fill="none" stroke="midnightblue" d="M405.49,-67.48C510.11,-55 701.87,-32.14 788.47,-21.81"/>
<polygon fill="midnightblue" stroke="midnightblue" points="788.98,-25.27 798.49,-20.61 788.15,-18.32 788.98,-25.27"/>
</g>
<!-- Node15&#45;&gt;Node2 -->
<g id="edge21" class="edge">
<title>Node15&#45;&gt;Node2</title>
<path fill="none" stroke="midnightblue" d="M664.43,-181.86C615.74,-171.75 519,-151.65 467.73,-141"/>
<polygon fill="midnightblue" stroke="midnightblue" points="468.31,-137.55 457.81,-138.94 466.89,-144.4 468.31,-137.55"/>
</g>
<!-- Node15&#45;&gt;Node8 -->
<g id="edge17" class="edge">
<title>Node15&#45;&gt;Node8</title>
<path fill="none" stroke="midnightblue" d="M666.75,-179.44C637.56,-170.28 591.08,-155.69 558.69,-145.52"/>
<polygon fill="midnightblue" stroke="midnightblue" points="559.72,-142.17 549.13,-142.52 557.62,-148.85 559.72,-142.17"/>
</g>
<!-- Node16 -->
<g id="node16" class="node">
<title>Node16</title>
<g id="a_node16"><a xlink:href="IConstraint_8h.html" target="_top" xlink:title="Interface for constraints.">
<polygon fill="white" stroke="black" points="966.5,-123.5 966.5,-142.5 1045.5,-142.5 1045.5,-123.5 966.5,-123.5"/>
<text text-anchor="middle" x="1006" y="-130.5" font-family="Helvetica,sans-Serif" font-size="10.00">IConstraint.h</text>
</a>
</g>
</g>
<!-- Node15&#45;&gt;Node16 -->
<g id="edge18" class="edge">
<title>Node15&#45;&gt;Node16</title>
<path fill="none" stroke="midnightblue" d="M723.63,-182.87C777.2,-173.6 890.66,-153.96 956.29,-142.6"/>
<polygon fill="midnightblue" stroke="midnightblue" points="957.13,-146.01 966.39,-140.86 955.94,-139.11 957.13,-146.01"/>
</g>
<!-- Node17 -->
<g id="node17" class="node">
<title>Node17</title>
<g id="a_node17"><a xlink:title=" ">
<polygon fill="white" stroke="#bfbfbf" points="861.5,-67.5 861.5,-86.5 980.5,-86.5 980.5,-67.5 861.5,-67.5"/>
<text text-anchor="middle" x="921" y="-74.5" font-family="Helvetica,sans-Serif" font-size="10.00">interface/param.pb.h</text>
</a>
</g>
</g>
<!-- Node15&#45;&gt;Node17 -->
<g id="edge25" class="edge">
<title>Node15&#45;&gt;Node17</title>
<path fill="none" stroke="midnightblue" d="M723.77,-187.66C763.28,-185.79 833.57,-177.41 881,-143 897.05,-131.35 908.01,-111.11 914.34,-96.3"/>
<polygon fill="midnightblue" stroke="midnightblue" points="917.72,-97.26 918.14,-86.68 911.21,-94.69 917.72,-97.26"/>
</g>
<!-- Node19 -->
<g id="node19" class="node">
<title>Node19</title>
<g id="a_node19"><a xlink:href="Status_8h.html" target="_top" xlink:title="Communicates failure status using gRPC&#39;s codes.">
<polygon fill="white" stroke="black" points="666,-123.5 666,-142.5 722,-142.5 722,-123.5 666,-123.5"/>
<text text-anchor="middle" x="694" y="-130.5" font-family="Helvetica,sans-Serif" font-size="10.00">Status.h</text>
</a>
</g>
</g>
<!-- Node15&#45;&gt;Node19 -->
<g id="edge22" class="edge">
<title>Node15&#45;&gt;Node19</title>
<path fill="none" stroke="midnightblue" d="M694,-179.08C694,-172.01 694,-161.86 694,-152.99"/>
<polygon fill="midnightblue" stroke="midnightblue" points="697.5,-152.75 694,-142.75 690.5,-152.75 697.5,-152.75"/>
</g>
<!-- Node16&#45;&gt;Node17 -->
<g id="edge19" class="edge">
<title>Node16&#45;&gt;Node17</title>
<path fill="none" stroke="midnightblue" d="M992.34,-123.32C979.08,-114.9 958.73,-101.97 943.15,-92.07"/>
<polygon fill="midnightblue" stroke="midnightblue" points="944.94,-89.06 934.62,-86.65 941.19,-94.97 944.94,-89.06"/>
</g>
<!-- Node18 -->
<g id="node18" class="node">
<title>Node18</title>
<g id="a_node18"><a xlink:title=" ">
<polygon fill="white" stroke="#bfbfbf" points="999,-67.5 999,-86.5 1135,-86.5 1135,-67.5 999,-67.5"/>
<text text-anchor="middle" x="1067" y="-74.5" font-family="Helvetica,sans-Serif" font-size="10.00">interface/constraint.pb.h</text>
</a>
</g>
</g>
<!-- Node16&#45;&gt;Node18 -->
<g id="edge20" class="edge">
<title>Node16&#45;&gt;Node18</title>
<path fill="none" stroke="midnightblue" d="M1015.8,-123.32C1024.82,-115.34 1038.41,-103.31 1049.32,-93.65"/>
<polygon fill="midnightblue" stroke="midnightblue" points="1051.85,-96.08 1057.02,-86.83 1047.21,-90.84 1051.85,-96.08"/>
</g>
<!-- Node20 -->
<g id="node20" class="node">
<title>Node20</title>
<g id="a_node20"><a xlink:title=" ">
<polygon fill="white" stroke="#bfbfbf" points="683,-67.5 683,-86.5 739,-86.5 739,-67.5 683,-67.5"/>
<text text-anchor="middle" x="711" y="-74.5" font-family="Helvetica,sans-Serif" font-size="10.00">sstream</text>
</a>
</g>
</g>
<!-- Node19&#45;&gt;Node20 -->
<g id="edge23" class="edge">
<title>Node19&#45;&gt;Node20</title>
<path fill="none" stroke="midnightblue" d="M696.81,-123.08C699.08,-115.85 702.37,-105.41 705.21,-96.4"/>
<polygon fill="midnightblue" stroke="midnightblue" points="708.58,-97.34 708.25,-86.75 701.9,-95.24 708.58,-97.34"/>
</g>
<!-- Node21 -->
<g id="node21" class="node">
<title>Node21</title>
<g id="a_node21"><a xlink:title=" ">
<polygon fill="white" stroke="#bfbfbf" points="599.5,-67.5 599.5,-86.5 664.5,-86.5 664.5,-67.5 599.5,-67.5"/>
<text text-anchor="middle" x="632" y="-74.5" font-family="Helvetica,sans-Serif" font-size="10.00">stdexcept</text>
</a>
</g>
</g>
<!-- Node19&#45;&gt;Node21 -->
<g id="edge24" class="edge">
<title>Node19&#45;&gt;Node21</title>
<path fill="none" stroke="midnightblue" d="M684.04,-123.32C674.87,-115.34 661.06,-103.31 649.97,-93.65"/>
<polygon fill="midnightblue" stroke="midnightblue" points="651.98,-90.76 642.14,-86.83 647.38,-96.04 651.98,-90.76"/>
</g>
<!-- Node22&#45;&gt;Node4 -->
<g id="edge47" class="edge">
<title>Node22&#45;&gt;Node4</title>
<path fill="none" stroke="midnightblue" d="M1067.42,-236.27C1111.4,-228.8 1169.02,-216.1 1185,-199 1227.73,-153.27 1225.8,-72.04 1222.35,-35.38"/>
<polygon fill="midnightblue" stroke="midnightblue" points="1225.8,-34.71 1221.24,-25.14 1218.84,-35.46 1225.8,-34.71"/>
</g>
<!-- Node22&#45;&gt;Node5 -->
<g id="edge46" class="edge">
<title>Node22&#45;&gt;Node5</title>
<path fill="none" stroke="midnightblue" d="M960.83,-239.21C902.49,-230.75 811.71,-207.39 771,-143 762.15,-129 766.54,-110 772,-96.16"/>
<polygon fill="midnightblue" stroke="midnightblue" points="775.32,-97.31 776.19,-86.75 768.93,-94.46 775.32,-97.31"/>
</g>
<!-- Node22&#45;&gt;Node12 -->
<g id="edge48" class="edge">
<title>Node22&#45;&gt;Node12</title>
<path fill="none" stroke="midnightblue" d="M1067.2,-241.43C1108.1,-237.24 1164.44,-226.46 1206,-199 1270.48,-156.4 1314.95,-71.6 1332.12,-34.54"/>
<polygon fill="midnightblue" stroke="midnightblue" points="1335.48,-35.6 1336.4,-25.05 1329.1,-32.73 1335.48,-35.6"/>
</g>
<!-- Node22&#45;&gt;Node13 -->
<g id="edge49" class="edge">
<title>Node22&#45;&gt;Node13</title>
<path fill="none" stroke="midnightblue" d="M1014.9,-235.33C1016.6,-222.19 1021.25,-196.88 1033,-179 1071.5,-120.44 1189.41,-120.38 1144,-67 1110.4,-27.51 956.01,-18.81 878.15,-16.96"/>
<polygon fill="midnightblue" stroke="midnightblue" points="877.77,-13.45 867.7,-16.74 877.62,-20.45 877.77,-13.45"/>
</g>
<!-- Node22&#45;&gt;Node15 -->
<g id="edge30" class="edge">
<title>Node22&#45;&gt;Node15</title>
<path fill="none" stroke="midnightblue" d="M960.98,-236C905.33,-227.46 815.36,-213.21 738,-199 736.56,-198.74 735.1,-198.46 733.62,-198.18"/>
<polygon fill="midnightblue" stroke="midnightblue" points="734.28,-194.74 723.79,-196.26 732.93,-201.61 734.28,-194.74"/>
</g>
<!-- Node22&#45;&gt;Node16 -->
<g id="edge31" class="edge">
<title>Node22&#45;&gt;Node16</title>
<path fill="none" stroke="midnightblue" d="M1010.4,-235.22C1006.94,-226.28 1001.97,-211.94 1000,-199 997.66,-183.58 999.57,-165.94 1001.84,-152.94"/>
<polygon fill="midnightblue" stroke="midnightblue" points="1005.32,-153.36 1003.82,-142.87 998.45,-152 1005.32,-153.36"/>
</g>
<!-- Node22&#45;&gt;Node17 -->
<g id="edge45" class="edge">
<title>Node22&#45;&gt;Node17</title>
<path fill="none" stroke="midnightblue" d="M1009,-235.08C994.23,-208.72 950.62,-130.88 930.89,-95.66"/>
<polygon fill="midnightblue" stroke="midnightblue" points="933.74,-93.58 925.8,-86.57 927.63,-97 933.74,-93.58"/>
</g>
<!-- Node23 -->
<g id="node23" class="node">
<title>Node23</title>
<g id="a_node23"><a xlink:href="Tags_8h.html" target="_top" xlink:title="Tags to differentiate collections with the same type for template specialization.">
<polygon fill="white" stroke="black" points="1270.5,-179.5 1270.5,-198.5 1317.5,-198.5 1317.5,-179.5 1270.5,-179.5"/>
<text text-anchor="middle" x="1294" y="-186.5" font-family="Helvetica,sans-Serif" font-size="10.00">Tags.h</text>
</a>
</g>
</g>
<!-- Node22&#45;&gt;Node23 -->
<g id="edge27" class="edge">
<title>Node22&#45;&gt;Node23</title>
<path fill="none" stroke="midnightblue" d="M1063.73,-235.48C1112.75,-226.91 1189.73,-213 1256,-199 1257.45,-198.69 1258.93,-198.37 1260.43,-198.04"/>
<polygon fill="midnightblue" stroke="midnightblue" points="1261.35,-201.42 1270.32,-195.8 1259.8,-194.6 1261.35,-201.42"/>
</g>
<!-- Node25 -->
<g id="node25" class="node">
<title>Node25</title>
<g id="a_node25"><a xlink:href="PolyglotText_8h.html" target="_top" xlink:title="Polyglot Text serialization and deserialization to protobuf.">
<polygon fill="white" stroke="black" points="1309,-123.5 1309,-142.5 1395,-142.5 1395,-123.5 1309,-123.5"/>
<text text-anchor="middle" x="1352" y="-130.5" font-family="Helvetica,sans-Serif" font-size="10.00">PolyglotText.h</text>
</a>
</g>
</g>
<!-- Node22&#45;&gt;Node25 -->
<g id="edge32" class="edge">
<title>Node22&#45;&gt;Node25</title>
<path fill="none" stroke="midnightblue" d="M1067.23,-242.71C1145.83,-239.78 1287.89,-230.19 1327,-199 1341.01,-187.83 1347.18,-167.8 1349.89,-152.92"/>
<polygon fill="midnightblue" stroke="midnightblue" points="1353.39,-153.18 1351.36,-142.78 1346.46,-152.17 1353.39,-153.18"/>
</g>
<!-- Node30 -->
<g id="node30" class="node">
<title>Node30</title>
<g id="a_node30"><a xlink:href="IsVector_8h_source.html" target="_top" xlink:title=" ">
<polygon fill="white" stroke="black" points="780,-123.5 780,-142.5 872,-142.5 872,-123.5 780,-123.5"/>
<text text-anchor="middle" x="826" y="-130.5" font-family="Helvetica,sans-Serif" font-size="10.00">meta/IsVector.h</text>
</a>
</g>
</g>
<!-- Node22&#45;&gt;Node30 -->
<g id="edge42" class="edge">
<title>Node22&#45;&gt;Node30</title>
<path fill="none" stroke="midnightblue" d="M995.03,-235.34C976.57,-226.73 947.89,-212.83 924,-199 896.39,-183.02 865.97,-162.33 846.46,-148.64"/>
<polygon fill="midnightblue" stroke="midnightblue" points="848.26,-145.62 838.07,-142.7 844.22,-151.33 848.26,-145.62"/>
</g>
<!-- Node31 -->
<g id="node31" class="node">
<title>Node31</title>
<g id="a_node31"><a xlink:title=" ">
<polygon fill="white" stroke="#bfbfbf" points="1042,-179.5 1042,-198.5 1106,-198.5 1106,-179.5 1042,-179.5"/>
<text text-anchor="middle" x="1074" y="-186.5" font-family="Helvetica,sans-Serif" font-size="10.00">algorithm</text>
</a>
</g>
</g>
<!-- Node22&#45;&gt;Node31 -->
<g id="edge50" class="edge">
<title>Node22&#45;&gt;Node31</title>
<path fill="none" stroke="midnightblue" d="M1023.64,-235.32C1032.51,-227.34 1045.87,-215.31 1056.61,-205.65"/>
<polygon fill="midnightblue" stroke="midnightblue" points="1059.09,-208.13 1064.18,-198.83 1054.41,-202.92 1059.09,-208.13"/>
</g>
<!-- Node32 -->
<g id="node32" class="node">
<title>Node32</title>
<g id="a_node32"><a xlink:title=" ">
<polygon fill="white" stroke="#bfbfbf" points="1124,-179.5 1124,-198.5 1176,-198.5 1176,-179.5 1124,-179.5"/>
<text text-anchor="middle" x="1150" y="-186.5" font-family="Helvetica,sans-Serif" font-size="10.00">cassert</text>
</a>
</g>
</g>
<!-- Node22&#45;&gt;Node32 -->
<g id="edge51" class="edge">
<title>Node22&#45;&gt;Node32</title>
<path fill="none" stroke="midnightblue" d="M1035.55,-235.44C1058.03,-226.52 1093.49,-212.44 1118.98,-202.32"/>
<polygon fill="midnightblue" stroke="midnightblue" points="1120.55,-205.46 1128.55,-198.52 1117.97,-198.95 1120.55,-205.46"/>
</g>
<!-- Node23&#45;&gt;Node4 -->
<g id="edge29" class="edge">
<title>Node23&#45;&gt;Node4</title>
<path fill="none" stroke="midnightblue" d="M1290.23,-179.26C1278.65,-152.42 1243.44,-70.82 1227.72,-34.39"/>
<polygon fill="midnightblue" stroke="midnightblue" points="1230.85,-32.81 1223.68,-25.02 1224.42,-35.59 1230.85,-32.81"/>
</g>
<!-- Node23&#45;&gt;Node24 -->
<g id="edge28" class="edge">
<title>Node23&#45;&gt;Node24</title>
<path fill="none" stroke="midnightblue" d="M1317.75,-179.56C1343.14,-170.54 1383.62,-156.16 1412.31,-145.97"/>
<polygon fill="midnightblue" stroke="midnightblue" points="1413.66,-149.2 1421.92,-142.56 1411.32,-142.61 1413.66,-149.2"/>
</g>
<!-- Node25&#45;&gt;Node4 -->
<g id="edge39" class="edge">
<title>Node25&#45;&gt;Node4</title>
<path fill="none" stroke="midnightblue" d="M1342.08,-123.32C1319.91,-103.92 1266.09,-56.83 1237.9,-32.16"/>
<polygon fill="midnightblue" stroke="midnightblue" points="1239.87,-29.23 1230.04,-25.28 1235.26,-34.5 1239.87,-29.23"/>
</g>
<!-- Node25&#45;&gt;Node12 -->
<g id="edge40" class="edge">
<title>Node25&#45;&gt;Node12</title>
<path fill="none" stroke="midnightblue" d="M1351.1,-123.32C1349.17,-104.76 1344.61,-60.84 1341.97,-35.47"/>
<polygon fill="midnightblue" stroke="midnightblue" points="1345.43,-34.87 1340.91,-25.28 1338.46,-35.59 1345.43,-34.87"/>
</g>
<!-- Node26 -->
<g id="node26" class="node">
<title>Node26</title>
<g id="a_node26"><a xlink:href="IPolyglotText_8h.html" target="_top" xlink:title="Catena&#39;s multi&#45;language text interface.">
<polygon fill="white" stroke="black" points="1531.5,-67.5 1531.5,-86.5 1620.5,-86.5 1620.5,-67.5 1531.5,-67.5"/>
<text text-anchor="middle" x="1576" y="-74.5" font-family="Helvetica,sans-Serif" font-size="10.00">IPolyglotText.h</text>
</a>
</g>
</g>
<!-- Node25&#45;&gt;Node26 -->
<g id="edge33" class="edge">
<title>Node25&#45;&gt;Node26</title>
<path fill="none" stroke="midnightblue" d="M1387.49,-123.44C1426.32,-114.08 1488.66,-99.06 1530.92,-88.87"/>
<polygon fill="midnightblue" stroke="midnightblue" points="1531.77,-92.26 1540.67,-86.52 1530.13,-85.46 1531.77,-92.26"/>
</g>
<!-- Node28 -->
<g id="node28" class="node">
<title>Node28</title>
<g id="a_node28"><a xlink:title=" ">
<polygon fill="white" stroke="#bfbfbf" points="1607.5,-6 1607.5,-25 1690.5,-25 1690.5,-6 1607.5,-6"/>
<text text-anchor="middle" x="1649" y="-13" font-family="Helvetica,sans-Serif" font-size="10.00">initializer_list</text>
</a>
</g>
</g>
<!-- Node25&#45;&gt;Node28 -->
<g id="edge41" class="edge">
<title>Node25&#45;&gt;Node28</title>
<path fill="none" stroke="midnightblue" d="M1395.09,-124.65C1398.44,-124.09 1401.78,-123.53 1405,-123 1454.96,-114.76 1592.37,-120.88 1630,-87 1644.25,-74.17 1648.29,-51.88 1649.22,-35.8"/>
<polygon fill="midnightblue" stroke="midnightblue" points="1652.72,-35.48 1649.44,-25.4 1645.73,-35.33 1652.72,-35.48"/>
</g>
<!-- Node29 -->
<g id="node29" class="node">
<title>Node29</title>
<g id="a_node29"><a xlink:title=" ">
<polygon fill="white" stroke="#bfbfbf" points="1381,-67.5 1381,-86.5 1513,-86.5 1513,-67.5 1381,-67.5"/>
<text text-anchor="middle" x="1447" y="-74.5" font-family="Helvetica,sans-Serif" font-size="10.00">interface/language.pb.h</text>
</a>
</g>
</g>
<!-- Node25&#45;&gt;Node29 -->
<g id="edge38" class="edge">
<title>Node25&#45;&gt;Node29</title>
<path fill="none" stroke="midnightblue" d="M1367.26,-123.32C1382.22,-114.82 1405.25,-101.73 1422.73,-91.8"/>
<polygon fill="midnightblue" stroke="midnightblue" points="1424.81,-94.64 1431.77,-86.65 1421.35,-88.55 1424.81,-94.64"/>
</g>
<!-- Node26&#45;&gt;Node4 -->
<g id="edge36" class="edge">
<title>Node26&#45;&gt;Node4</title>
<path fill="none" stroke="midnightblue" d="M1531.22,-68.49C1528.1,-67.98 1525,-67.48 1522,-67 1416.78,-50.24 1389.72,-50.61 1285,-31 1274.26,-28.99 1262.59,-26.49 1252.15,-24.13"/>
<polygon fill="midnightblue" stroke="midnightblue" points="1252.71,-20.67 1242.18,-21.85 1251.15,-27.49 1252.71,-20.67"/>
</g>
<!-- Node26&#45;&gt;Node12 -->
<g id="edge35" class="edge">
<title>Node26&#45;&gt;Node12</title>
<path fill="none" stroke="midnightblue" d="M1542.19,-67.48C1500.48,-56.96 1429.49,-39.06 1383.69,-27.51"/>
<polygon fill="midnightblue" stroke="midnightblue" points="1384.3,-24.06 1373.75,-25.01 1382.59,-30.85 1384.3,-24.06"/>
</g>
<!-- Node27 -->
<g id="node27" class="node">
<title>Node27</title>
<g id="a_node27"><a xlink:title=" ">
<polygon fill="white" stroke="#bfbfbf" points="1448.5,-0.5 1448.5,-30.5 1589.5,-30.5 1589.5,-0.5 1448.5,-0.5"/>
<text text-anchor="start" x="1456.5" y="-18.5" font-family="Helvetica,sans-Serif" font-size="10.00">google/protobuf/message</text>
<text text-anchor="middle" x="1519" y="-7.5" font-family="Helvetica,sans-Serif" font-size="10.00">_lite.h</text>
</a>
</g>
</g>
<!-- Node26&#45;&gt;Node27 -->
<g id="edge34" class="edge">
<title>Node26&#45;&gt;Node27</title>
<path fill="none" stroke="midnightblue" d="M1567.83,-67.48C1560.47,-59.79 1549.34,-48.17 1539.56,-37.96"/>
<polygon fill="midnightblue" stroke="midnightblue" points="1541.88,-35.32 1532.43,-30.52 1536.82,-40.17 1541.88,-35.32"/>
</g>
<!-- Node26&#45;&gt;Node28 -->
<g id="edge37" class="edge">
<title>Node26&#45;&gt;Node28</title>
<path fill="none" stroke="midnightblue" d="M1586.46,-67.48C1597.95,-58.11 1616.63,-42.88 1630.59,-31.51"/>
<polygon fill="midnightblue" stroke="midnightblue" points="1633.02,-34.04 1638.56,-25.01 1628.6,-28.61 1633.02,-34.04"/>
</g>
<!-- Node30&#45;&gt;Node5 -->
<g id="edge43" class="edge">
<title>Node30&#45;&gt;Node5</title>
<path fill="none" stroke="midnightblue" d="M818.57,-123.08C812.15,-115.38 802.69,-104.03 794.88,-94.65"/>
<polygon fill="midnightblue" stroke="midnightblue" points="797.38,-92.19 788.29,-86.75 792.01,-96.67 797.38,-92.19"/>
</g>
<!-- Node30&#45;&gt;Node13 -->
<g id="edge44" class="edge">
<title>Node30&#45;&gt;Node13</title>
<path fill="none" stroke="midnightblue" d="M826.53,-123.32C827.65,-104.76 830.31,-60.84 831.85,-35.47"/>
<polygon fill="midnightblue" stroke="midnightblue" points="835.36,-35.48 832.47,-25.28 828.37,-35.05 835.36,-35.48"/>
</g>
</g>
</svg>
        <g id="navigator" transform="translate(0 0)" fill="#404254">
                <rect fill="#f2f5e9" fill-opacity="0.5" stroke="#606060" stroke-width=".5" x="0" y="0" width="60" height="60"/>
                <use id="zoomplus" xlink:href="#zoomPlus" x="17" y="9" onmousedown="handleZoom(evt,'in')"/>
                <use id="zoomminus" xlink:href="#zoomMin" x="42" y="9" onmousedown="handleZoom(evt,'out')"/>
                <use id="reset" xlink:href="#resetDef" x="30" y="36" onmousedown="handleReset()"/>
                <g id="arrowUp" xlink:href="#dirArrow" transform="translate(30 24)" onmousedown="handlePan(0,-1)">
                  <use xlink:href="#rim" fill="#404040">
                        <set attributeName="fill" to="#808080" begin="arrowUp.mouseover" end="arrowUp.mouseout"/>
                  </use>
                  <path fill="none" stroke="white" stroke-width="1.5" d="M0,-3.0v7 M-2.5,-0.5L0,-3.0L2.5,-0.5"/>
                </g>
                <g id="arrowRight" xlink:href="#dirArrow" transform="rotate(90) translate(36 -43)" onmousedown="handlePan(1,0)">
                  <use xlink:href="#rim" fill="#404040">
                        <set attributeName="fill" to="#808080" begin="arrowRight.mouseover" end="arrowRight.mouseout"/>
                  </use>
                  <path fill="none" stroke="white" stroke-width="1.5" d="M0,-3.0v7 M-2.5,-0.5L0,-3.0L2.5,-0.5"/>
                </g>
                <g id="arrowDown" xlink:href="#dirArrow" transform="rotate(180) translate(-30 -48)" onmousedown="handlePan(0,1)">
                  <use xlink:href="#rim" fill="#404040">
                        <set attributeName="fill" to="#808080" begin="arrowDown.mouseover" end="arrowDown.mouseout"/>
                  </use>
                  <path fill="none" stroke="white" stroke-width="1.5" d="M0,-3.0v7 M-2.5,-0.5L0,-3.0L2.5,-0.5"/>
                </g>
                <g id="arrowLeft" xlink:href="#dirArrow" transform="rotate(270) translate(-36 17)" onmousedown="handlePan(-1,0)">
                  <use xlink:href="#rim" fill="#404040">
                        <set attributeName="fill" to="#808080" begin="arrowLeft.mouseover" end="arrowLeft.mouseout"/>
                  </use>
                  <path fill="none" stroke="white" stroke-width="1.5" d="M0,-3.0v7 M-2.5,-0.5L0,-3.0L2.5,-0.5"/>
                </g>
        </g>
        <svg viewBox="0 0 15 15" width="100%" height="30px" preserveAspectRatio="xMaxYMin meet">
         <g id="arrow_out" transform="scale(0.3 0.3)">
          <a xlink:href="Authorization_8h__incl_org.svg" target="_base">
           <rect id="button" ry="5" rx="5" y="6" x="6" height="38" width="38"
                fill="#f2f5e9" fill-opacity="0.5" stroke="#606060" stroke-width="1.0"/>
           <path id="arrow"
             d="M 11.500037,31.436501 C 11.940474,20.09759 22.043105,11.32322 32.158766,21.979434 L 37.068811,17.246167 C 37.068811,17.246167 37.088388,32 37.088388,32 L 22.160133,31.978069 C 22.160133,31.978069 26.997745,27.140456 26.997745,27.140456 C 18.528582,18.264221 13.291696,25.230495 11.500037,31.436501 z"
             style="fill:#404040;"/>
          </a>
         </g>
        </svg>
</svg>
