<?xml version="1.0" encoding="UTF-8" standalone="no"?>
<!DOCTYPE svg PUBLIC "-//W3C//DTD SVG 1.1//EN"
 "http://www.w3.org/Graphics/SVG/1.1/DTD/svg11.dtd">
<!-- Generated by graphviz version 2.43.0 (0)
 -->
<!-- Title: /home/runner/work/Catena/Catena/sdks/cpp/common/include/AuthzInfo.h Pages: 1 -->
<svg width="1919pt" height="397pt"
 viewBox="0.00 0.00 1918.50 397.00" xmlns="http://www.w3.org/2000/svg" xmlns:xlink="http://www.w3.org/1999/xlink">
<g id="graph0" class="graph" transform="scale(1 1) rotate(0) translate(4 393)">
<title>/home/runner/work/Catena/Catena/sdks/cpp/common/include/AuthzInfo.h</title>
<polygon fill="white" stroke="transparent" points="-4,4 -4,-393 1914.5,-393 1914.5,4 -4,4"/>
<!-- Node1 -->
<g id="node1" class="node">
<title>Node1</title>
<g id="a_node1"><a xlink:title="Class for handling authorization information.">
<polygon fill="#bfbfbf" stroke="black" points="379.5,-347.5 379.5,-388.5 525.5,-388.5 525.5,-347.5 379.5,-347.5"/>
<text text-anchor="start" x="387.5" y="-376.5" font-family="Helvetica,sans-Serif" font-size="10.00">/home/runner/work/Catena</text>
<text text-anchor="start" x="387.5" y="-365.5" font-family="Helvetica,sans-Serif" font-size="10.00">/Catena/sdks/cpp/common</text>
<text text-anchor="middle" x="452.5" y="-354.5" font-family="Helvetica,sans-Serif" font-size="10.00">/include/AuthzInfo.h</text>
</a>
</g>
</g>
<!-- Node2 -->
<g id="node2" class="node">
<title>Node2</title>
<g id="a_node2"><a xlink:href="Path_8h.html" target="_top" xlink:title="Handles Path objects used to uniquely identify and access OIDs.">
<polygon fill="white" stroke="black" points="1107,-123.5 1107,-142.5 1154,-142.5 1154,-123.5 1107,-123.5"/>
<text text-anchor="middle" x="1130.5" y="-130.5" font-family="Helvetica,sans-Serif" font-size="10.00">Path.h</text>
</a>
</g>
</g>
<!-- Node1&#45;&gt;Node2 -->
<g id="edge1" class="edge">
<title>Node1&#45;&gt;Node2</title>
<path fill="none" stroke="midnightblue" d="M491.84,-347.38C568.87,-309.69 745.76,-226.68 902.5,-179 970.04,-158.45 1051.77,-144.97 1096.73,-138.5"/>
<polygon fill="midnightblue" stroke="midnightblue" points="1097.4,-141.94 1106.81,-137.07 1096.42,-135.01 1097.4,-141.94"/>
</g>
<!-- Node8 -->
<g id="node8" class="node">
<title>Node8</title>
<g id="a_node8"><a xlink:href="Enums_8h.html" target="_top" xlink:title="tools for using EnumDecorators.">
<polygon fill="white" stroke="black" points="588,-123.5 588,-142.5 647,-142.5 647,-123.5 588,-123.5"/>
<text text-anchor="middle" x="617.5" y="-130.5" font-family="Helvetica,sans-Serif" font-size="10.00">Enums.h</text>
</a>
</g>
</g>
<!-- Node1&#45;&gt;Node8 -->
<g id="edge7" class="edge">
<title>Node1&#45;&gt;Node8</title>
<path fill="none" stroke="midnightblue" d="M443.45,-347.11C432.5,-319.84 417.93,-270.22 438.5,-235 468.4,-183.8 534.91,-156.51 577.9,-143.67"/>
<polygon fill="midnightblue" stroke="midnightblue" points="579.1,-146.96 587.75,-140.85 577.18,-140.23 579.1,-146.96"/>
</g>
<!-- Node15 -->
<g id="node15" class="node">
<title>Node15</title>
<g id="a_node15"><a xlink:href="ParamDescriptor_8h_source.html" target="_top" xlink:title=" ">
<polygon fill="white" stroke="black" points="1435.5,-291.5 1435.5,-310.5 1541.5,-310.5 1541.5,-291.5 1435.5,-291.5"/>
<text text-anchor="middle" x="1488.5" y="-298.5" font-family="Helvetica,sans-Serif" font-size="10.00">ParamDescriptor.h</text>
</a>
</g>
</g>
<!-- Node1&#45;&gt;Node15 -->
<g id="edge16" class="edge">
<title>Node1&#45;&gt;Node15</title>
<path fill="none" stroke="midnightblue" d="M525.76,-362.4C719.49,-350.25 1242.87,-317.41 1424.99,-305.98"/>
<polygon fill="midnightblue" stroke="midnightblue" points="1425.45,-309.46 1435.21,-305.34 1425.01,-302.48 1425.45,-309.46"/>
</g>
<!-- Node3 -->
<g id="node3" class="node">
<title>Node3</title>
<g id="a_node3"><a xlink:title=" ">
<polygon fill="white" stroke="#bfbfbf" points="1078.5,-67.5 1078.5,-86.5 1138.5,-86.5 1138.5,-67.5 1078.5,-67.5"/>
<text text-anchor="middle" x="1108.5" y="-74.5" font-family="Helvetica,sans-Serif" font-size="10.00">iostream</text>
</a>
</g>
</g>
<!-- Node2&#45;&gt;Node3 -->
<g id="edge2" class="edge">
<title>Node2&#45;&gt;Node3</title>
<path fill="none" stroke="midnightblue" d="M1126.87,-123.08C1123.89,-115.77 1119.57,-105.18 1115.88,-96.1"/>
<polygon fill="midnightblue" stroke="midnightblue" points="1119.08,-94.69 1112.07,-86.75 1112.6,-97.33 1119.08,-94.69"/>
</g>
<!-- Node4 -->
<g id="node4" class="node">
<title>Node4</title>
<g id="a_node4"><a xlink:title=" ">
<polygon fill="white" stroke="#bfbfbf" points="944.5,-6 944.5,-25 988.5,-25 988.5,-6 944.5,-6"/>
<text text-anchor="middle" x="966.5" y="-13" font-family="Helvetica,sans-Serif" font-size="10.00">string</text>
</a>
</g>
</g>
<!-- Node2&#45;&gt;Node4 -->
<g id="edge3" class="edge">
<title>Node2&#45;&gt;Node4</title>
<path fill="none" stroke="midnightblue" d="M1137.16,-123.08C1146.33,-109.63 1160.34,-83.91 1147.5,-67 1129.57,-43.39 1045.87,-27.85 998.82,-20.82"/>
<polygon fill="midnightblue" stroke="midnightblue" points="999.22,-17.34 988.82,-19.37 998.21,-24.27 999.22,-17.34"/>
</g>
<!-- Node5 -->
<g id="node5" class="node">
<title>Node5</title>
<g id="a_node5"><a xlink:title=" ">
<polygon fill="white" stroke="#bfbfbf" points="1391,-67.5 1391,-86.5 1438,-86.5 1438,-67.5 1391,-67.5"/>
<text text-anchor="middle" x="1414.5" y="-74.5" font-family="Helvetica,sans-Serif" font-size="10.00">vector</text>
</a>
</g>
</g>
<!-- Node2&#45;&gt;Node5 -->
<g id="edge4" class="edge">
<title>Node2&#45;&gt;Node5</title>
<path fill="none" stroke="midnightblue" d="M1154.17,-128.48C1197.24,-121.91 1291.45,-106.84 1380.75,-86.99"/>
<polygon fill="midnightblue" stroke="midnightblue" points="1381.78,-90.35 1390.77,-84.74 1380.25,-83.52 1381.78,-90.35"/>
</g>
<!-- Node6 -->
<g id="node6" class="node">
<title>Node6</title>
<g id="a_node6"><a xlink:title=" ">
<polygon fill="white" stroke="#bfbfbf" points="933,-67.5 933,-86.5 984,-86.5 984,-67.5 933,-67.5"/>
<text text-anchor="middle" x="958.5" y="-74.5" font-family="Helvetica,sans-Serif" font-size="10.00">variant</text>
</a>
</g>
</g>
<!-- Node2&#45;&gt;Node6 -->
<g id="edge5" class="edge">
<title>Node2&#45;&gt;Node6</title>
<path fill="none" stroke="midnightblue" d="M1106.94,-124.6C1077.76,-115.44 1027.77,-99.75 993.94,-89.13"/>
<polygon fill="midnightblue" stroke="midnightblue" points="994.6,-85.66 984.01,-86.01 992.5,-92.34 994.6,-85.66"/>
</g>
<!-- Node7 -->
<g id="node7" class="node">
<title>Node7</title>
<g id="a_node7"><a xlink:title=" ">
<polygon fill="white" stroke="#bfbfbf" points="1002.5,-67.5 1002.5,-86.5 1060.5,-86.5 1060.5,-67.5 1002.5,-67.5"/>
<text text-anchor="middle" x="1031.5" y="-74.5" font-family="Helvetica,sans-Serif" font-size="10.00">memory</text>
</a>
</g>
</g>
<!-- Node2&#45;&gt;Node7 -->
<g id="edge6" class="edge">
<title>Node2&#45;&gt;Node7</title>
<path fill="none" stroke="midnightblue" d="M1114.59,-123.32C1098.86,-114.74 1074.56,-101.49 1056.29,-91.52"/>
<polygon fill="midnightblue" stroke="midnightblue" points="1057.82,-88.37 1047.37,-86.65 1054.47,-94.52 1057.82,-88.37"/>
</g>
<!-- Node9 -->
<g id="node9" class="node">
<title>Node9</title>
<g id="a_node9"><a xlink:href="EnumDecorator_8h.html" target="_top" xlink:title="Provides an enum with useful extra functionality.">
<polygon fill="white" stroke="black" points="595.5,-67.5 595.5,-86.5 739.5,-86.5 739.5,-67.5 595.5,-67.5"/>
<text text-anchor="middle" x="667.5" y="-74.5" font-family="Helvetica,sans-Serif" font-size="10.00">patterns/EnumDecorator.h</text>
</a>
</g>
</g>
<!-- Node8&#45;&gt;Node9 -->
<g id="edge8" class="edge">
<title>Node8&#45;&gt;Node9</title>
<path fill="none" stroke="midnightblue" d="M625.76,-123.08C632.96,-115.3 643.61,-103.8 652.35,-94.37"/>
<polygon fill="midnightblue" stroke="midnightblue" points="655.17,-96.47 659.4,-86.75 650.03,-91.71 655.17,-96.47"/>
</g>
<!-- Node11 -->
<g id="node11" class="node">
<title>Node11</title>
<g id="a_node11"><a xlink:title=" ">
<polygon fill="white" stroke="#bfbfbf" points="543.5,-6 543.5,-25 593.5,-25 593.5,-6 543.5,-6"/>
<text text-anchor="middle" x="568.5" y="-13" font-family="Helvetica,sans-Serif" font-size="10.00">cstdint</text>
</a>
</g>
</g>
<!-- Node8&#45;&gt;Node11 -->
<g id="edge15" class="edge">
<title>Node8&#45;&gt;Node11</title>
<path fill="none" stroke="midnightblue" d="M610.08,-123.26C603.06,-114.59 592.7,-100.65 586.5,-87 578.91,-70.3 574.14,-49.87 571.43,-35.31"/>
<polygon fill="midnightblue" stroke="midnightblue" points="574.82,-34.34 569.69,-25.07 567.92,-35.52 574.82,-34.34"/>
</g>
<!-- Node14 -->
<g id="node14" class="node">
<title>Node14</title>
<g id="a_node14"><a xlink:title=" ">
<polygon fill="white" stroke="#bfbfbf" points="796,-67.5 796,-86.5 915,-86.5 915,-67.5 796,-67.5"/>
<text text-anchor="middle" x="855.5" y="-74.5" font-family="Helvetica,sans-Serif" font-size="10.00">interface/device.pb.h</text>
</a>
</g>
</g>
<!-- Node8&#45;&gt;Node14 -->
<g id="edge14" class="edge">
<title>Node8&#45;&gt;Node14</title>
<path fill="none" stroke="midnightblue" d="M647.16,-125.27C687.53,-116.11 760.22,-99.62 808.17,-88.74"/>
<polygon fill="midnightblue" stroke="midnightblue" points="809.03,-92.13 818.01,-86.51 807.48,-85.31 809.03,-92.13"/>
</g>
<!-- Node9&#45;&gt;Node4 -->
<g id="edge12" class="edge">
<title>Node9&#45;&gt;Node4</title>
<path fill="none" stroke="midnightblue" d="M710.34,-67.48C770.89,-55.43 880.16,-33.68 934.3,-22.91"/>
<polygon fill="midnightblue" stroke="midnightblue" points="935.24,-26.29 944.36,-20.91 933.87,-19.42 935.24,-26.29"/>
</g>
<!-- Node10 -->
<g id="node10" class="node">
<title>Node10</title>
<g id="a_node10"><a xlink:href="ReflectionMacros_8h_source.html" target="_top" xlink:title=" ">
<polygon fill="white" stroke="black" points="612.5,-6 612.5,-25 722.5,-25 722.5,-6 612.5,-6"/>
<text text-anchor="middle" x="667.5" y="-13" font-family="Helvetica,sans-Serif" font-size="10.00">ReflectionMacros.h</text>
</a>
</g>
</g>
<!-- Node9&#45;&gt;Node10 -->
<g id="edge9" class="edge">
<title>Node9&#45;&gt;Node10</title>
<path fill="none" stroke="midnightblue" d="M667.5,-67.48C667.5,-59.08 667.5,-45.98 667.5,-35.16"/>
<polygon fill="midnightblue" stroke="midnightblue" points="671,-35.01 667.5,-25.01 664,-35.01 671,-35.01"/>
</g>
<!-- Node9&#45;&gt;Node11 -->
<g id="edge10" class="edge">
<title>Node9&#45;&gt;Node11</title>
<path fill="none" stroke="midnightblue" d="M653.32,-67.48C637.14,-57.75 610.47,-41.73 591.36,-30.24"/>
<polygon fill="midnightblue" stroke="midnightblue" points="593.03,-27.16 582.66,-25.01 589.43,-33.16 593.03,-27.16"/>
</g>
<!-- Node12 -->
<g id="node12" class="node">
<title>Node12</title>
<g id="a_node12"><a xlink:title=" ">
<polygon fill="white" stroke="#bfbfbf" points="348,-6 348,-25 441,-25 441,-6 348,-6"/>
<text text-anchor="middle" x="394.5" y="-13" font-family="Helvetica,sans-Serif" font-size="10.00">unordered_map</text>
</a>
</g>
</g>
<!-- Node9&#45;&gt;Node12 -->
<g id="edge11" class="edge">
<title>Node9&#45;&gt;Node12</title>
<path fill="none" stroke="midnightblue" d="M628.39,-67.48C579.63,-56.85 496.29,-38.68 443.38,-27.15"/>
<polygon fill="midnightblue" stroke="midnightblue" points="444.06,-23.72 433.54,-25.01 442.57,-30.56 444.06,-23.72"/>
</g>
<!-- Node13 -->
<g id="node13" class="node">
<title>Node13</title>
<g id="a_node13"><a xlink:title=" ">
<polygon fill="white" stroke="#bfbfbf" points="1800,-6 1800,-25 1869,-25 1869,-6 1800,-6"/>
<text text-anchor="middle" x="1834.5" y="-13" font-family="Helvetica,sans-Serif" font-size="10.00">type_traits</text>
</a>
</g>
</g>
<!-- Node9&#45;&gt;Node13 -->
<g id="edge13" class="edge">
<title>Node9&#45;&gt;Node13</title>
<path fill="none" stroke="midnightblue" d="M739.5,-70.29C755.31,-69.12 771.97,-67.96 787.5,-67 1175.13,-43.12 1644.08,-23.96 1789.39,-18.25"/>
<polygon fill="midnightblue" stroke="midnightblue" points="1789.83,-21.73 1799.69,-17.84 1789.56,-14.74 1789.83,-21.73"/>
</g>
<!-- Node15&#45;&gt;Node4 -->
<g id="edge64" class="edge">
<title>Node15&#45;&gt;Node4</title>
<path fill="none" stroke="midnightblue" d="M1541.52,-297.11C1635.85,-291.42 1824.8,-277.34 1844.5,-255 1883.3,-210.99 1869.34,-176.15 1844.5,-123 1828.06,-87.84 1813.55,-81.37 1777.5,-67 1704.3,-37.83 1141.11,-21.11 998.99,-17.33"/>
<polygon fill="midnightblue" stroke="midnightblue" points="998.84,-13.82 988.75,-17.06 998.66,-20.82 998.84,-13.82"/>
</g>
<!-- Node15&#45;&gt;Node5 -->
<g id="edge63" class="edge">
<title>Node15&#45;&gt;Node5</title>
<path fill="none" stroke="midnightblue" d="M1485.6,-291.3C1474.66,-258.49 1435.79,-141.88 1420.63,-96.38"/>
<polygon fill="midnightblue" stroke="midnightblue" points="1423.94,-95.26 1417.46,-86.88 1417.3,-97.48 1423.94,-95.26"/>
</g>
<!-- Node15&#45;&gt;Node12 -->
<g id="edge65" class="edge">
<title>Node15&#45;&gt;Node12</title>
<path fill="none" stroke="midnightblue" d="M1435.28,-300.11C1294.17,-299.12 899.93,-287.95 587.5,-199 499.05,-173.82 459.54,-166.61 413.5,-87 404.2,-70.91 399.32,-50.12 396.85,-35.3"/>
<polygon fill="midnightblue" stroke="midnightblue" points="400.29,-34.69 395.39,-25.3 393.37,-35.7 400.29,-34.69"/>
</g>
<!-- Node15&#45;&gt;Node13 -->
<g id="edge66" class="edge">
<title>Node15&#45;&gt;Node13</title>
<path fill="none" stroke="midnightblue" d="M1541.8,-299.93C1635.39,-298.83 1824.42,-291.95 1877.5,-255 1904.09,-236.49 1910.5,-222.4 1910.5,-190 1910.5,-190 1910.5,-190 1910.5,-132 1910.5,-90.31 1875.52,-52.03 1853.02,-31.72"/>
<polygon fill="midnightblue" stroke="midnightblue" points="1855.23,-29 1845.39,-25.08 1850.64,-34.28 1855.23,-29"/>
</g>
<!-- Node16 -->
<g id="node16" class="node">
<title>Node16</title>
<g id="a_node16"><a xlink:href="Tags_8h.html" target="_top" xlink:title="Tags to differentiate collections with the same type for template specialization.">
<polygon fill="white" stroke="black" points="1495,-179.5 1495,-198.5 1542,-198.5 1542,-179.5 1495,-179.5"/>
<text text-anchor="middle" x="1518.5" y="-186.5" font-family="Helvetica,sans-Serif" font-size="10.00">Tags.h</text>
</a>
</g>
</g>
<!-- Node15&#45;&gt;Node16 -->
<g id="edge17" class="edge">
<title>Node15&#45;&gt;Node16</title>
<path fill="none" stroke="midnightblue" d="M1490.85,-291.37C1495.72,-273.54 1506.96,-232.3 1513.52,-208.27"/>
<polygon fill="midnightblue" stroke="midnightblue" points="1516.9,-209.16 1516.16,-198.59 1510.15,-207.32 1516.9,-209.16"/>
</g>
<!-- Node18 -->
<g id="node18" class="node">
<title>Node18</title>
<g id="a_node18"><a xlink:href="IParam_8h.html" target="_top" xlink:title="Interface for parameters.">
<polygon fill="white" stroke="black" points="1309,-179.5 1309,-198.5 1368,-198.5 1368,-179.5 1309,-179.5"/>
<text text-anchor="middle" x="1338.5" y="-186.5" font-family="Helvetica,sans-Serif" font-size="10.00">IParam.h</text>
</a>
</g>
</g>
<!-- Node15&#45;&gt;Node18 -->
<g id="edge20" class="edge">
<title>Node15&#45;&gt;Node18</title>
<path fill="none" stroke="midnightblue" d="M1476.73,-291.37C1451.1,-272.57 1390,-227.77 1358.32,-204.53"/>
<polygon fill="midnightblue" stroke="midnightblue" points="1360.35,-201.68 1350.22,-198.59 1356.21,-207.33 1360.35,-201.68"/>
</g>
<!-- Node19 -->
<g id="node19" class="node">
<title>Node19</title>
<g id="a_node19"><a xlink:href="IConstraint_8h.html" target="_top" xlink:title="Interface for constraints.">
<polygon fill="white" stroke="black" points="1608,-123.5 1608,-142.5 1687,-142.5 1687,-123.5 1608,-123.5"/>
<text text-anchor="middle" x="1647.5" y="-130.5" font-family="Helvetica,sans-Serif" font-size="10.00">IConstraint.h</text>
</a>
</g>
</g>
<!-- Node15&#45;&gt;Node19 -->
<g id="edge30" class="edge">
<title>Node15&#45;&gt;Node19</title>
<path fill="none" stroke="midnightblue" d="M1525.41,-291.49C1547.52,-284.76 1574.85,-273.37 1593.5,-255 1622.76,-226.17 1637.48,-178.68 1643.7,-152.6"/>
<polygon fill="midnightblue" stroke="midnightblue" points="1647.18,-153.07 1645.92,-142.55 1640.34,-151.56 1647.18,-153.07"/>
</g>
<!-- Node20 -->
<g id="node20" class="node">
<title>Node20</title>
<g id="a_node20"><a xlink:title=" ">
<polygon fill="white" stroke="#bfbfbf" points="1495,-67.5 1495,-86.5 1614,-86.5 1614,-67.5 1495,-67.5"/>
<text text-anchor="middle" x="1554.5" y="-74.5" font-family="Helvetica,sans-Serif" font-size="10.00">interface/param.pb.h</text>
</a>
</g>
</g>
<!-- Node15&#45;&gt;Node20 -->
<g id="edge62" class="edge">
<title>Node15&#45;&gt;Node20</title>
<path fill="none" stroke="midnightblue" d="M1495.57,-291.46C1508.91,-274.83 1537.73,-236.43 1551.5,-199 1563.24,-167.08 1562.75,-156.94 1560.5,-123 1559.93,-114.34 1558.73,-104.81 1557.56,-96.75"/>
<polygon fill="midnightblue" stroke="midnightblue" points="1560.98,-95.94 1555.99,-86.59 1554.06,-97.01 1560.98,-95.94"/>
</g>
<!-- Node25 -->
<g id="node25" class="node">
<title>Node25</title>
<g id="a_node25"><a xlink:href="Device_8h.html" target="_top" xlink:title="Device class definition.">
<polygon fill="white" stroke="black" points="1156,-235.5 1156,-254.5 1215,-254.5 1215,-235.5 1156,-235.5"/>
<text text-anchor="middle" x="1185.5" y="-242.5" font-family="Helvetica,sans-Serif" font-size="10.00">Device.h</text>
</a>
</g>
</g>
<!-- Node15&#45;&gt;Node25 -->
<g id="edge31" class="edge">
<title>Node15&#45;&gt;Node25</title>
<path fill="none" stroke="midnightblue" d="M1440.49,-291.44C1381.07,-280.85 1280.98,-263.02 1225.52,-253.13"/>
<polygon fill="midnightblue" stroke="midnightblue" points="1225.84,-249.63 1215.38,-251.32 1224.61,-256.52 1225.84,-249.63"/>
</g>
<!-- Node29 -->
<g id="node29" class="node">
<title>Node29</title>
<g id="a_node29"><a xlink:title=" ">
<polygon fill="white" stroke="#bfbfbf" points="1386.5,-179.5 1386.5,-198.5 1438.5,-198.5 1438.5,-179.5 1386.5,-179.5"/>
<text text-anchor="middle" x="1412.5" y="-186.5" font-family="Helvetica,sans-Serif" font-size="10.00">cassert</text>
</a>
</g>
</g>
<!-- Node15&#45;&gt;Node29 -->
<g id="edge68" class="edge">
<title>Node15&#45;&gt;Node29</title>
<path fill="none" stroke="midnightblue" d="M1481,-291.28C1473.47,-282.4 1461.71,-268.09 1452.5,-255 1441.56,-239.46 1430.32,-220.93 1422.56,-207.63"/>
<polygon fill="midnightblue" stroke="midnightblue" points="1425.39,-205.54 1417.35,-198.63 1419.32,-209.04 1425.39,-205.54"/>
</g>
<!-- Node31 -->
<g id="node31" class="node">
<title>Node31</title>
<g id="a_node31"><a xlink:href="PolyglotText_8h.html" target="_top" xlink:title="Polyglot Text serialization and deserialization to protobuf.">
<polygon fill="white" stroke="black" points="230.5,-123.5 230.5,-142.5 316.5,-142.5 316.5,-123.5 230.5,-123.5"/>
<text text-anchor="middle" x="273.5" y="-130.5" font-family="Helvetica,sans-Serif" font-size="10.00">PolyglotText.h</text>
</a>
</g>
</g>
<!-- Node15&#45;&gt;Node31 -->
<g id="edge49" class="edge">
<title>Node15&#45;&gt;Node31</title>
<path fill="none" stroke="midnightblue" d="M1435.28,-299.68C1258.63,-298.3 692.86,-291.08 514.5,-255 443.93,-240.73 425.96,-233 362.5,-199 336.07,-184.84 308.66,-163.66 291.36,-149.36"/>
<polygon fill="midnightblue" stroke="midnightblue" points="293.2,-146.34 283.3,-142.59 288.7,-151.7 293.2,-146.34"/>
</g>
<!-- Node36 -->
<g id="node36" class="node">
<title>Node36</title>
<g id="a_node36"><a xlink:href="IsVector_8h_source.html" target="_top" xlink:title=" ">
<polygon fill="white" stroke="black" points="1743.5,-123.5 1743.5,-142.5 1835.5,-142.5 1835.5,-123.5 1743.5,-123.5"/>
<text text-anchor="middle" x="1789.5" y="-130.5" font-family="Helvetica,sans-Serif" font-size="10.00">meta/IsVector.h</text>
</a>
</g>
</g>
<!-- Node15&#45;&gt;Node36 -->
<g id="edge59" class="edge">
<title>Node15&#45;&gt;Node36</title>
<path fill="none" stroke="midnightblue" d="M1520.22,-291.43C1567.83,-277.51 1659.14,-246.65 1724.5,-199 1743.94,-184.83 1763.02,-164.81 1775.42,-150.75"/>
<polygon fill="midnightblue" stroke="midnightblue" points="1778.34,-152.72 1782.23,-142.86 1773.05,-148.15 1778.34,-152.72"/>
</g>
<!-- Node37 -->
<g id="node37" class="node">
<title>Node37</title>
<g id="a_node37"><a xlink:title=" ">
<polygon fill="white" stroke="#bfbfbf" points="1771.5,-235.5 1771.5,-254.5 1835.5,-254.5 1835.5,-235.5 1771.5,-235.5"/>
<text text-anchor="middle" x="1803.5" y="-242.5" font-family="Helvetica,sans-Serif" font-size="10.00">algorithm</text>
</a>
</g>
</g>
<!-- Node15&#45;&gt;Node37 -->
<g id="edge67" class="edge">
<title>Node15&#45;&gt;Node37</title>
<path fill="none" stroke="midnightblue" d="M1541.66,-291.55C1595.97,-282.81 1682.72,-268.57 1757.5,-255 1758.76,-254.77 1760.04,-254.54 1761.33,-254.3"/>
<polygon fill="midnightblue" stroke="midnightblue" points="1762.17,-257.7 1771.35,-252.41 1760.87,-250.82 1762.17,-257.7"/>
</g>
<!-- Node16&#45;&gt;Node4 -->
<g id="edge19" class="edge">
<title>Node16&#45;&gt;Node4</title>
<path fill="none" stroke="midnightblue" d="M1508.96,-179.5C1499.88,-170.99 1486.33,-157.17 1477.5,-143 1458.29,-112.18 1476.42,-88.97 1447.5,-67 1411.78,-39.86 1100.55,-22.84 998.65,-17.96"/>
<polygon fill="midnightblue" stroke="midnightblue" points="998.79,-14.46 988.64,-17.49 998.46,-21.45 998.79,-14.46"/>
</g>
<!-- Node17 -->
<g id="node17" class="node">
<title>Node17</title>
<g id="a_node17"><a xlink:title=" ">
<polygon fill="white" stroke="#bfbfbf" points="1486,-123.5 1486,-142.5 1551,-142.5 1551,-123.5 1486,-123.5"/>
<text text-anchor="middle" x="1518.5" y="-130.5" font-family="Helvetica,sans-Serif" font-size="10.00">functional</text>
</a>
</g>
</g>
<!-- Node16&#45;&gt;Node17 -->
<g id="edge18" class="edge">
<title>Node16&#45;&gt;Node17</title>
<path fill="none" stroke="midnightblue" d="M1518.5,-179.08C1518.5,-172.01 1518.5,-161.86 1518.5,-152.99"/>
<polygon fill="midnightblue" stroke="midnightblue" points="1522,-152.75 1518.5,-142.75 1515,-152.75 1522,-152.75"/>
</g>
<!-- Node18&#45;&gt;Node2 -->
<g id="edge25" class="edge">
<title>Node18&#45;&gt;Node2</title>
<path fill="none" stroke="midnightblue" d="M1308.7,-180.26C1270.36,-170.31 1203.95,-153.07 1163.93,-142.68"/>
<polygon fill="midnightblue" stroke="midnightblue" points="1164.68,-139.26 1154.12,-140.13 1162.92,-146.03 1164.68,-139.26"/>
</g>
<!-- Node18&#45;&gt;Node8 -->
<g id="edge21" class="edge">
<title>Node18&#45;&gt;Node8</title>
<path fill="none" stroke="midnightblue" d="M1308.89,-185.78C1195.36,-177.28 787.67,-146.75 657.65,-137.01"/>
<polygon fill="midnightblue" stroke="midnightblue" points="657.59,-133.49 647.35,-136.24 657.07,-140.47 657.59,-133.49"/>
</g>
<!-- Node18&#45;&gt;Node19 -->
<g id="edge22" class="edge">
<title>Node18&#45;&gt;Node19</title>
<path fill="none" stroke="midnightblue" d="M1368.27,-180.93C1371.38,-180.25 1374.5,-179.6 1377.5,-179 1453.91,-163.83 1543.18,-149.64 1597.5,-141.39"/>
<polygon fill="midnightblue" stroke="midnightblue" points="1598.19,-144.82 1607.56,-139.87 1597.15,-137.9 1598.19,-144.82"/>
</g>
<!-- Node18&#45;&gt;Node20 -->
<g id="edge29" class="edge">
<title>Node18&#45;&gt;Node20</title>
<path fill="none" stroke="midnightblue" d="M1355.45,-179.37C1393.07,-160.21 1483.74,-114.04 1528.55,-91.22"/>
<polygon fill="midnightblue" stroke="midnightblue" points="1530.31,-94.25 1537.63,-86.59 1527.13,-88.01 1530.31,-94.25"/>
</g>
<!-- Node22 -->
<g id="node22" class="node">
<title>Node22</title>
<g id="a_node22"><a xlink:href="Status_8h.html" target="_top" xlink:title="Communicates failure status using gRPC&#39;s codes.">
<polygon fill="white" stroke="black" points="1232.5,-123.5 1232.5,-142.5 1288.5,-142.5 1288.5,-123.5 1232.5,-123.5"/>
<text text-anchor="middle" x="1260.5" y="-130.5" font-family="Helvetica,sans-Serif" font-size="10.00">Status.h</text>
</a>
</g>
</g>
<!-- Node18&#45;&gt;Node22 -->
<g id="edge26" class="edge">
<title>Node18&#45;&gt;Node22</title>
<path fill="none" stroke="midnightblue" d="M1325.97,-179.32C1313.91,-170.98 1295.47,-158.21 1281.23,-148.35"/>
<polygon fill="midnightblue" stroke="midnightblue" points="1283.22,-145.47 1273,-142.65 1279.23,-151.22 1283.22,-145.47"/>
</g>
<!-- Node19&#45;&gt;Node20 -->
<g id="edge23" class="edge">
<title>Node19&#45;&gt;Node20</title>
<path fill="none" stroke="midnightblue" d="M1632.56,-123.32C1617.91,-114.82 1595.37,-101.73 1578.26,-91.8"/>
<polygon fill="midnightblue" stroke="midnightblue" points="1579.81,-88.65 1569.4,-86.65 1576.3,-94.7 1579.81,-88.65"/>
</g>
<!-- Node21 -->
<g id="node21" class="node">
<title>Node21</title>
<g id="a_node21"><a xlink:title=" ">
<polygon fill="white" stroke="#bfbfbf" points="1632.5,-67.5 1632.5,-86.5 1768.5,-86.5 1768.5,-67.5 1632.5,-67.5"/>
<text text-anchor="middle" x="1700.5" y="-74.5" font-family="Helvetica,sans-Serif" font-size="10.00">interface/constraint.pb.h</text>
</a>
</g>
</g>
<!-- Node19&#45;&gt;Node21 -->
<g id="edge24" class="edge">
<title>Node19&#45;&gt;Node21</title>
<path fill="none" stroke="midnightblue" d="M1656.25,-123.08C1663.97,-115.22 1675.4,-103.57 1684.72,-94.08"/>
<polygon fill="midnightblue" stroke="midnightblue" points="1687.4,-96.34 1691.91,-86.75 1682.41,-91.44 1687.4,-96.34"/>
</g>
<!-- Node23 -->
<g id="node23" class="node">
<title>Node23</title>
<g id="a_node23"><a xlink:title=" ">
<polygon fill="white" stroke="#bfbfbf" points="1316.5,-67.5 1316.5,-86.5 1372.5,-86.5 1372.5,-67.5 1316.5,-67.5"/>
<text text-anchor="middle" x="1344.5" y="-74.5" font-family="Helvetica,sans-Serif" font-size="10.00">sstream</text>
</a>
</g>
</g>
<!-- Node22&#45;&gt;Node23 -->
<g id="edge27" class="edge">
<title>Node22&#45;&gt;Node23</title>
<path fill="none" stroke="midnightblue" d="M1274,-123.32C1287.1,-114.9 1307.21,-101.97 1322.61,-92.07"/>
<polygon fill="midnightblue" stroke="midnightblue" points="1324.52,-95.01 1331.04,-86.65 1320.73,-89.12 1324.52,-95.01"/>
</g>
<!-- Node24 -->
<g id="node24" class="node">
<title>Node24</title>
<g id="a_node24"><a xlink:title=" ">
<polygon fill="white" stroke="#bfbfbf" points="1233,-67.5 1233,-86.5 1298,-86.5 1298,-67.5 1233,-67.5"/>
<text text-anchor="middle" x="1265.5" y="-74.5" font-family="Helvetica,sans-Serif" font-size="10.00">stdexcept</text>
</a>
</g>
</g>
<!-- Node22&#45;&gt;Node24 -->
<g id="edge28" class="edge">
<title>Node22&#45;&gt;Node24</title>
<path fill="none" stroke="midnightblue" d="M1261.33,-123.08C1261.98,-116.01 1262.92,-105.86 1263.74,-96.99"/>
<polygon fill="midnightblue" stroke="midnightblue" points="1267.25,-97.03 1264.69,-86.75 1260.28,-96.39 1267.25,-97.03"/>
</g>
<!-- Node25&#45;&gt;Node2 -->
<g id="edge32" class="edge">
<title>Node25&#45;&gt;Node2</title>
<path fill="none" stroke="midnightblue" d="M1181.18,-235.37C1172.19,-217.38 1151.28,-175.55 1139.31,-151.63"/>
<polygon fill="midnightblue" stroke="midnightblue" points="1142.4,-149.97 1134.8,-142.59 1136.14,-153.1 1142.4,-149.97"/>
</g>
<!-- Node25&#45;&gt;Node4 -->
<g id="edge43" class="edge">
<title>Node25&#45;&gt;Node4</title>
<path fill="none" stroke="midnightblue" d="M1187.45,-235.29C1193.24,-207.01 1207.28,-116.74 1163.5,-67 1141.94,-42.5 1048.8,-27.05 998.7,-20.36"/>
<polygon fill="midnightblue" stroke="midnightblue" points="999.06,-16.88 988.7,-19.06 998.16,-23.82 999.06,-16.88"/>
</g>
<!-- Node25&#45;&gt;Node5 -->
<g id="edge45" class="edge">
<title>Node25&#45;&gt;Node5</title>
<path fill="none" stroke="midnightblue" d="M1197.49,-235.31C1234.59,-208.42 1347.8,-126.35 1394.27,-92.67"/>
<polygon fill="midnightblue" stroke="midnightblue" points="1396.59,-95.31 1402.63,-86.61 1392.48,-89.64 1396.59,-95.31"/>
</g>
<!-- Node25&#45;&gt;Node8 -->
<g id="edge33" class="edge">
<title>Node25&#45;&gt;Node8</title>
<path fill="none" stroke="midnightblue" d="M1155.61,-241.28C1097.29,-235.67 964.45,-221.45 854.5,-199 782.45,-184.29 699.99,-159.92 653.8,-145.57"/>
<polygon fill="midnightblue" stroke="midnightblue" points="654.82,-142.23 644.23,-142.58 652.73,-148.91 654.82,-142.23"/>
</g>
<!-- Node25&#45;&gt;Node12 -->
<g id="edge42" class="edge">
<title>Node25&#45;&gt;Node12</title>
<path fill="none" stroke="midnightblue" d="M1155.86,-242.71C1060.4,-238.35 761.85,-223.09 668.5,-199 556.08,-169.99 515.55,-168.13 432.5,-87 417.47,-72.32 406.94,-50.4 400.84,-34.91"/>
<polygon fill="midnightblue" stroke="midnightblue" points="404.07,-33.55 397.32,-25.38 397.5,-35.97 404.07,-33.55"/>
</g>
<!-- Node25&#45;&gt;Node13 -->
<g id="edge47" class="edge">
<title>Node25&#45;&gt;Node13</title>
<path fill="none" stroke="midnightblue" d="M1215.37,-242.81C1278.37,-239.77 1429.16,-229.65 1551.5,-199 1618.51,-182.21 1635.44,-175.31 1696.5,-143 1735.18,-122.53 1745.41,-116.77 1777.5,-87 1795.08,-70.69 1811.93,-48.82 1822.69,-33.79"/>
<polygon fill="midnightblue" stroke="midnightblue" points="1825.68,-35.62 1828.55,-25.42 1819.94,-31.6 1825.68,-35.62"/>
</g>
<!-- Node25&#45;&gt;Node14 -->
<g id="edge41" class="edge">
<title>Node25&#45;&gt;Node14</title>
<path fill="none" stroke="midnightblue" d="M1155.87,-242.95C1091.41,-240.09 941.12,-230.17 902.5,-199 870.89,-173.49 860.49,-123.92 857.11,-96.81"/>
<polygon fill="midnightblue" stroke="midnightblue" points="860.57,-96.29 856.04,-86.71 853.61,-97.02 860.57,-96.29"/>
</g>
<!-- Node25&#45;&gt;Node16 -->
<g id="edge39" class="edge">
<title>Node25&#45;&gt;Node16</title>
<path fill="none" stroke="midnightblue" d="M1215.05,-239.21C1276.87,-229.18 1419.51,-206.05 1484.78,-195.47"/>
<polygon fill="midnightblue" stroke="midnightblue" points="1485.63,-198.88 1494.94,-193.82 1484.51,-191.97 1485.63,-198.88"/>
</g>
<!-- Node25&#45;&gt;Node18 -->
<g id="edge35" class="edge">
<title>Node25&#45;&gt;Node18</title>
<path fill="none" stroke="midnightblue" d="M1209.74,-235.44C1235.37,-226.4 1275.99,-212.06 1304.74,-201.92"/>
<polygon fill="midnightblue" stroke="midnightblue" points="1306.11,-205.15 1314.37,-198.52 1303.78,-198.54 1306.11,-205.15"/>
</g>
<!-- Node25&#45;&gt;Node22 -->
<g id="edge40" class="edge">
<title>Node25&#45;&gt;Node22</title>
<path fill="none" stroke="midnightblue" d="M1191.98,-235.48C1198.75,-226.51 1209.6,-211.92 1218.5,-199 1229.54,-182.97 1241.53,-164.27 1249.87,-151.06"/>
<polygon fill="midnightblue" stroke="midnightblue" points="1252.87,-152.85 1255.22,-142.52 1246.94,-149.13 1252.87,-152.85"/>
</g>
<!-- Node26 -->
<g id="node26" class="node">
<title>Node26</title>
<g id="a_node26"><a xlink:title=" ">
<polygon fill="white" stroke="#bfbfbf" points="911,-179.5 911,-198.5 992,-198.5 992,-179.5 911,-179.5"/>
<text text-anchor="middle" x="951.5" y="-186.5" font-family="Helvetica,sans-Serif" font-size="10.00">vdk/signals.h</text>
</a>
</g>
</g>
<!-- Node25&#45;&gt;Node26 -->
<g id="edge34" class="edge">
<title>Node25&#45;&gt;Node26</title>
<path fill="none" stroke="midnightblue" d="M1155.86,-237.16C1116.22,-228.01 1045.49,-211.69 998.53,-200.85"/>
<polygon fill="midnightblue" stroke="midnightblue" points="999.13,-197.4 988.6,-198.56 997.56,-204.22 999.13,-197.4"/>
</g>
<!-- Node27 -->
<g id="node27" class="node">
<title>Node27</title>
<g id="a_node27"><a xlink:href="ILanguagePack_8h_source.html" target="_top" xlink:title=" ">
<polygon fill="white" stroke="black" points="441.5,-67.5 441.5,-86.5 539.5,-86.5 539.5,-67.5 441.5,-67.5"/>
<text text-anchor="middle" x="490.5" y="-74.5" font-family="Helvetica,sans-Serif" font-size="10.00">ILanguagePack.h</text>
</a>
</g>
</g>
<!-- Node25&#45;&gt;Node27 -->
<g id="edge36" class="edge">
<title>Node25&#45;&gt;Node27</title>
<path fill="none" stroke="midnightblue" d="M1155.87,-242.57C1087.53,-238.87 913.86,-227.27 771.5,-199 684.31,-181.69 659.26,-182.25 579.5,-143 552.6,-129.76 525.29,-108.38 508.15,-93.78"/>
<polygon fill="midnightblue" stroke="midnightblue" points="510.01,-90.76 500.16,-86.84 505.42,-96.05 510.01,-90.76"/>
</g>
<!-- Node28 -->
<g id="node28" class="node">
<title>Node28</title>
<g id="a_node28"><a xlink:title=" ">
<polygon fill="white" stroke="#bfbfbf" points="1010.5,-179.5 1010.5,-198.5 1058.5,-198.5 1058.5,-179.5 1010.5,-179.5"/>
<text text-anchor="middle" x="1034.5" y="-186.5" font-family="Helvetica,sans-Serif" font-size="10.00">mutex</text>
</a>
</g>
</g>
<!-- Node25&#45;&gt;Node28 -->
<g id="edge44" class="edge">
<title>Node25&#45;&gt;Node28</title>
<path fill="none" stroke="midnightblue" d="M1161.57,-235.44C1136.28,-226.4 1096.2,-212.06 1067.82,-201.92"/>
<polygon fill="midnightblue" stroke="midnightblue" points="1068.91,-198.59 1058.31,-198.52 1066.55,-205.18 1068.91,-198.59"/>
</g>
<!-- Node25&#45;&gt;Node29 -->
<g id="edge46" class="edge">
<title>Node25&#45;&gt;Node29</title>
<path fill="none" stroke="midnightblue" d="M1215.15,-237.26C1250.99,-229.06 1313.4,-214.65 1376.08,-199.31"/>
<polygon fill="midnightblue" stroke="midnightblue" points="1377.26,-202.63 1386.14,-196.84 1375.6,-195.83 1377.26,-202.63"/>
</g>
<!-- Node30 -->
<g id="node30" class="node">
<title>Node30</title>
<g id="a_node30"><a xlink:title=" ">
<polygon fill="white" stroke="#bfbfbf" points="1076.5,-179.5 1076.5,-198.5 1138.5,-198.5 1138.5,-179.5 1076.5,-179.5"/>
<text text-anchor="middle" x="1107.5" y="-186.5" font-family="Helvetica,sans-Serif" font-size="10.00">coroutine</text>
</a>
</g>
</g>
<!-- Node25&#45;&gt;Node30 -->
<g id="edge48" class="edge">
<title>Node25&#45;&gt;Node30</title>
<path fill="none" stroke="midnightblue" d="M1172.97,-235.32C1160.91,-226.98 1142.47,-214.21 1128.23,-204.35"/>
<polygon fill="midnightblue" stroke="midnightblue" points="1130.22,-201.47 1120,-198.65 1126.23,-207.22 1130.22,-201.47"/>
</g>
<!-- Node27&#45;&gt;Node4 -->
<g id="edge37" class="edge">
<title>Node27&#45;&gt;Node4</title>
<path fill="none" stroke="midnightblue" d="M539.65,-69.86C637.06,-57.68 852.26,-30.78 934.08,-20.55"/>
<polygon fill="midnightblue" stroke="midnightblue" points="934.78,-23.99 944.27,-19.28 933.91,-17.05 934.78,-23.99"/>
</g>
<!-- Node27&#45;&gt;Node12 -->
<g id="edge38" class="edge">
<title>Node27&#45;&gt;Node12</title>
<path fill="none" stroke="midnightblue" d="M476.75,-67.48C461.13,-57.8 435.44,-41.87 416.92,-30.39"/>
<polygon fill="midnightblue" stroke="midnightblue" points="418.57,-27.3 408.23,-25.01 414.88,-33.25 418.57,-27.3"/>
</g>
<!-- Node31&#45;&gt;Node4 -->
<g id="edge56" class="edge">
<title>Node31&#45;&gt;Node4</title>
<path fill="none" stroke="midnightblue" d="M316.52,-130.01C417.64,-124.98 667.99,-110.51 748.5,-87 767.2,-81.54 769.37,-74.12 787.5,-67 837.42,-47.38 897.92,-31.96 934.25,-23.55"/>
<polygon fill="midnightblue" stroke="midnightblue" points="935.3,-26.9 944.27,-21.27 933.74,-20.08 935.3,-26.9"/>
</g>
<!-- Node31&#45;&gt;Node12 -->
<g id="edge57" class="edge">
<title>Node31&#45;&gt;Node12</title>
<path fill="none" stroke="midnightblue" d="M282.59,-123.32C302.83,-104 351.82,-57.24 377.76,-32.48"/>
<polygon fill="midnightblue" stroke="midnightblue" points="380.48,-34.72 385.3,-25.28 375.65,-29.66 380.48,-34.72"/>
</g>
<!-- Node32 -->
<g id="node32" class="node">
<title>Node32</title>
<g id="a_node32"><a xlink:href="IPolyglotText_8h.html" target="_top" xlink:title="Catena&#39;s multi&#45;language text interface.">
<polygon fill="white" stroke="black" points="70,-67.5 70,-86.5 159,-86.5 159,-67.5 70,-67.5"/>
<text text-anchor="middle" x="114.5" y="-74.5" font-family="Helvetica,sans-Serif" font-size="10.00">IPolyglotText.h</text>
</a>
</g>
</g>
<!-- Node31&#45;&gt;Node32 -->
<g id="edge50" class="edge">
<title>Node31&#45;&gt;Node32</title>
<path fill="none" stroke="midnightblue" d="M248.31,-123.44C221.56,-114.36 179.1,-99.94 149.19,-89.78"/>
<polygon fill="midnightblue" stroke="midnightblue" points="150.17,-86.42 139.58,-86.52 147.92,-93.05 150.17,-86.42"/>
</g>
<!-- Node34 -->
<g id="node34" class="node">
<title>Node34</title>
<g id="a_node34"><a xlink:title=" ">
<polygon fill="white" stroke="#bfbfbf" points="0,-6 0,-25 83,-25 83,-6 0,-6"/>
<text text-anchor="middle" x="41.5" y="-13" font-family="Helvetica,sans-Serif" font-size="10.00">initializer_list</text>
</a>
</g>
</g>
<!-- Node31&#45;&gt;Node34 -->
<g id="edge58" class="edge">
<title>Node31&#45;&gt;Node34</title>
<path fill="none" stroke="midnightblue" d="M230.24,-128.16C175.23,-122.41 84.52,-109.73 60.5,-87 46.57,-73.82 42.47,-51.6 41.45,-35.62"/>
<polygon fill="midnightblue" stroke="midnightblue" points="44.93,-35.21 41.15,-25.31 37.94,-35.41 44.93,-35.21"/>
</g>
<!-- Node35 -->
<g id="node35" class="node">
<title>Node35</title>
<g id="a_node35"><a xlink:title=" ">
<polygon fill="white" stroke="#bfbfbf" points="177.5,-67.5 177.5,-86.5 309.5,-86.5 309.5,-67.5 177.5,-67.5"/>
<text text-anchor="middle" x="243.5" y="-74.5" font-family="Helvetica,sans-Serif" font-size="10.00">interface/language.pb.h</text>
</a>
</g>
</g>
<!-- Node31&#45;&gt;Node35 -->
<g id="edge55" class="edge">
<title>Node31&#45;&gt;Node35</title>
<path fill="none" stroke="midnightblue" d="M268.55,-123.08C264.4,-115.61 258.35,-104.72 253.23,-95.52"/>
<polygon fill="midnightblue" stroke="midnightblue" points="256.28,-93.79 248.36,-86.75 250.16,-97.19 256.28,-93.79"/>
</g>
<!-- Node32&#45;&gt;Node4 -->
<g id="edge53" class="edge">
<title>Node32&#45;&gt;Node4</title>
<path fill="none" stroke="midnightblue" d="M159.24,-68.18C162.37,-67.75 165.48,-67.35 168.5,-67 187.84,-64.78 786.35,-27.66 933.88,-18.52"/>
<polygon fill="midnightblue" stroke="midnightblue" points="934.33,-22 944.09,-17.89 933.89,-15.01 934.33,-22"/>
</g>
<!-- Node32&#45;&gt;Node12 -->
<g id="edge52" class="edge">
<title>Node32&#45;&gt;Node12</title>
<path fill="none" stroke="midnightblue" d="M154.62,-67.48C204.62,-56.85 290.1,-38.68 344.37,-27.15"/>
<polygon fill="midnightblue" stroke="midnightblue" points="345.4,-30.51 354.46,-25.01 343.95,-23.66 345.4,-30.51"/>
</g>
<!-- Node33 -->
<g id="node33" class="node">
<title>Node33</title>
<g id="a_node33"><a xlink:title=" ">
<polygon fill="white" stroke="#bfbfbf" points="101,-0.5 101,-30.5 242,-30.5 242,-0.5 101,-0.5"/>
<text text-anchor="start" x="109" y="-18.5" font-family="Helvetica,sans-Serif" font-size="10.00">google/protobuf/message</text>
<text text-anchor="middle" x="171.5" y="-7.5" font-family="Helvetica,sans-Serif" font-size="10.00">_lite.h</text>
</a>
</g>
</g>
<!-- Node32&#45;&gt;Node33 -->
<g id="edge51" class="edge">
<title>Node32&#45;&gt;Node33</title>
<path fill="none" stroke="midnightblue" d="M122.67,-67.48C130.03,-59.79 141.16,-48.17 150.94,-37.96"/>
<polygon fill="midnightblue" stroke="midnightblue" points="153.68,-40.17 158.07,-30.52 148.62,-35.32 153.68,-40.17"/>
</g>
<!-- Node32&#45;&gt;Node34 -->
<g id="edge54" class="edge">
<title>Node32&#45;&gt;Node34</title>
<path fill="none" stroke="midnightblue" d="M104.04,-67.48C92.55,-58.11 73.87,-42.88 59.91,-31.51"/>
<polygon fill="midnightblue" stroke="midnightblue" points="61.9,-28.61 51.94,-25.01 57.48,-34.04 61.9,-28.61"/>
</g>
<!-- Node36&#45;&gt;Node5 -->
<g id="edge60" class="edge">
<title>Node36&#45;&gt;Node5</title>
<path fill="none" stroke="midnightblue" d="M1743.14,-125.32C1666.69,-114.32 1515.94,-92.61 1448.5,-82.9"/>
<polygon fill="midnightblue" stroke="midnightblue" points="1448.81,-79.41 1438.42,-81.44 1447.82,-86.33 1448.81,-79.41"/>
</g>
<!-- Node36&#45;&gt;Node13 -->
<g id="edge61" class="edge">
<title>Node36&#45;&gt;Node13</title>
<path fill="none" stroke="midnightblue" d="M1793.81,-123.5C1798.26,-114.54 1805.29,-99.96 1810.5,-87 1817.5,-69.6 1824.27,-49.29 1828.82,-34.95"/>
<polygon fill="midnightblue" stroke="midnightblue" points="1832.2,-35.88 1831.84,-25.29 1825.52,-33.79 1832.2,-35.88"/>
</g>
</g>
</svg>
