<?xml version="1.0" encoding="UTF-8" standalone="no"?>
<!DOCTYPE svg PUBLIC "-//W3C//DTD SVG 1.1//EN"
 "http://www.w3.org/Graphics/SVG/1.1/DTD/svg11.dtd">
<!-- Generated by graphviz version 2.43.0 (0)
 -->
<!-- Title: /home/runner/work/Catena/Catena/sdks/cpp/connections/gRPC/include/CallData.h Pages: 1 -->
<svg width="3000pt" height="214pt"
 viewBox="0.00 0.00 2999.50 214.00" xmlns="http://www.w3.org/2000/svg" xmlns:xlink="http://www.w3.org/1999/xlink">
<g id="graph0" class="graph" transform="scale(1 1) rotate(0) translate(4 210)">
<title>/home/runner/work/Catena/Catena/sdks/cpp/connections/gRPC/include/CallData.h</title>
<!-- Node1 -->
<g id="Node000001" class="node">
<title>Node1</title>
<g id="a_Node000001"><a xlink:title="Base class for gRPC CallData classes which defines getJWSToken_().">
<polygon fill="#999999" stroke="#666666" points="1573.5,-206 1412.5,-206 1412.5,-165 1573.5,-165 1573.5,-206"/>
<text text-anchor="start" x="1420.5" y="-194" font-family="Helvetica,sans-Serif" font-size="10.00">/home/runner/work/Catena</text>
<text text-anchor="start" x="1420.5" y="-183" font-family="Helvetica,sans-Serif" font-size="10.00">/Catena/sdks/cpp/connections</text>
<text text-anchor="middle" x="1493" y="-172" font-family="Helvetica,sans-Serif" font-size="10.00">/gRPC/include/CallData.h</text>
</a>
</g>
</g>
<!-- Node2 -->
<g id="Node000002" class="node">
<title>Node2</title>
<g id="a_Node000002"><a xlink:href="AddLanguage_8h.html" target="_top" xlink:title="Implements the Catena AddLanguage RPC.">
<polygon fill="white" stroke="#666666" points="216,-123.5 0,-123.5 0,-82.5 216,-82.5 216,-123.5"/>
<text text-anchor="start" x="8" y="-111.5" font-family="Helvetica,sans-Serif" font-size="10.00">/home/runner/work/Catena</text>
<text text-anchor="start" x="8" y="-100.5" font-family="Helvetica,sans-Serif" font-size="10.00">/Catena/sdks/cpp/connections</text>
<text text-anchor="middle" x="108" y="-89.5" font-family="Helvetica,sans-Serif" font-size="10.00">/gRPC/include/controllers/AddLanguage.h</text>
</a>
</g>
</g>
<!-- Node1&#45;&gt;Node2 -->
<g id="edge1_Node000001_Node000002" class="edge">
<title>Node1&#45;&gt;Node2</title>
<g id="a_edge1_Node000001_Node000002"><a xlink:title=" ">
<path fill="none" stroke="#63b8ff" d="M1402.16,-182.49C1151.39,-176.64 452.98,-158.14 225,-129 213.98,-127.59 202.45,-125.68 191.11,-123.54"/>
<polygon fill="#63b8ff" stroke="#63b8ff" points="1402.25,-186 1412.33,-182.73 1402.41,-179 1402.25,-186"/>
</a>
</g>
</g>
<!-- Node4 -->
<g id="Node000004" class="node">
<title>Node4</title>
<g id="a_Node000004"><a xlink:href="connections_2gRPC_2include_2controllers_2Connect_8h.html" target="_top" xlink:title="Implements the Catena Connect RPC.">
<polygon fill="white" stroke="#666666" points="424,-123.5 234,-123.5 234,-82.5 424,-82.5 424,-123.5"/>
<text text-anchor="start" x="242" y="-111.5" font-family="Helvetica,sans-Serif" font-size="10.00">/home/runner/work/Catena</text>
<text text-anchor="start" x="242" y="-100.5" font-family="Helvetica,sans-Serif" font-size="10.00">/Catena/sdks/cpp/connections</text>
<text text-anchor="middle" x="329" y="-89.5" font-family="Helvetica,sans-Serif" font-size="10.00">/gRPC/include/controllers/Connect.h</text>
</a>
</g>
</g>
<!-- Node1&#45;&gt;Node4 -->
<g id="edge3_Node000001_Node000004" class="edge">
<title>Node1&#45;&gt;Node4</title>
<g id="a_edge3_Node000001_Node000004"><a xlink:title=" ">
<path fill="none" stroke="#63b8ff" d="M1402.23,-185.34C1218.32,-185.81 788.96,-180.66 433,-129 423.17,-127.57 412.9,-125.65 402.82,-123.5"/>
<polygon fill="#63b8ff" stroke="#63b8ff" points="1402.4,-188.84 1412.39,-185.3 1402.38,-181.84 1402.4,-188.84"/>
</a>
</g>
</g>
<!-- Node5 -->
<g id="Node000005" class="node">
<title>Node5</title>
<g id="a_Node000005"><a xlink:href="gRPC_2include_2controllers_2DeviceRequest_8h.html" target="_top" xlink:title="Implements the Catena DeviceRequest RPC.">
<polygon fill="white" stroke="#666666" points="666,-123.5 442,-123.5 442,-82.5 666,-82.5 666,-123.5"/>
<text text-anchor="start" x="450" y="-111.5" font-family="Helvetica,sans-Serif" font-size="10.00">/home/runner/work/Catena</text>
<text text-anchor="start" x="450" y="-100.5" font-family="Helvetica,sans-Serif" font-size="10.00">/Catena/sdks/cpp/connections</text>
<text text-anchor="middle" x="554" y="-89.5" font-family="Helvetica,sans-Serif" font-size="10.00">/gRPC/include/controllers/DeviceRequest.h</text>
</a>
</g>
</g>
<!-- Node1&#45;&gt;Node5 -->
<g id="edge5_Node000001_Node000005" class="edge">
<title>Node1&#45;&gt;Node5</title>
<g id="a_edge5_Node000001_Node000005"><a xlink:title=" ">
<path fill="none" stroke="#63b8ff" d="M1402.05,-182.36C1250.6,-177.91 937.46,-164.85 675,-129 664.05,-127.51 652.62,-125.6 641.33,-123.51"/>
<polygon fill="#63b8ff" stroke="#63b8ff" points="1402.13,-185.87 1412.23,-182.66 1402.33,-178.87 1402.13,-185.87"/>
</a>
</g>
</g>
<!-- Node6 -->
<g id="Node000006" class="node">
<title>Node6</title>
<g id="a_Node000006"><a xlink:href="gRPC_2include_2controllers_2ExecuteCommand_8h.html" target="_top" xlink:title="Implements the Catena ExecuteCommand RPC.">
<polygon fill="white" stroke="#666666" points="923.5,-123.5 684.5,-123.5 684.5,-82.5 923.5,-82.5 923.5,-123.5"/>
<text text-anchor="start" x="692.5" y="-111.5" font-family="Helvetica,sans-Serif" font-size="10.00">/home/runner/work/Catena</text>
<text text-anchor="start" x="692.5" y="-100.5" font-family="Helvetica,sans-Serif" font-size="10.00">/Catena/sdks/cpp/connections</text>
<text text-anchor="middle" x="804" y="-89.5" font-family="Helvetica,sans-Serif" font-size="10.00">/gRPC/include/controllers/ExecuteCommand.h</text>
</a>
</g>
</g>
<!-- Node1&#45;&gt;Node6 -->
<g id="edge7_Node000001_Node000006" class="edge">
<title>Node1&#45;&gt;Node6</title>
<g id="a_edge7_Node000001_Node000006"><a xlink:title=" ">
<path fill="none" stroke="#63b8ff" d="M1402.18,-178.16C1290.97,-169.79 1097.03,-153.22 932,-129 921.14,-127.41 909.79,-125.52 898.54,-123.5"/>
<polygon fill="#63b8ff" stroke="#63b8ff" points="1402.12,-181.67 1412.35,-178.92 1402.64,-174.69 1402.12,-181.67"/>
</a>
</g>
</g>
<!-- Node7 -->
<g id="Node000007" class="node">
<title>Node7</title>
<g id="a_Node000007"><a xlink:href="ExternalObjectRequest_8h.html" target="_top" xlink:title="Implements the Catena ExternalObjectRequest RPC.">
<polygon fill="white" stroke="#666666" points="1154.5,-129 941.5,-129 941.5,-77 1154.5,-77 1154.5,-129"/>
<text text-anchor="start" x="949.5" y="-117" font-family="Helvetica,sans-Serif" font-size="10.00">/home/runner/work/Catena</text>
<text text-anchor="start" x="949.5" y="-106" font-family="Helvetica,sans-Serif" font-size="10.00">/Catena/sdks/cpp/connections</text>
<text text-anchor="start" x="949.5" y="-95" font-family="Helvetica,sans-Serif" font-size="10.00">/gRPC/include/controllers/ExternalObject</text>
<text text-anchor="middle" x="1048" y="-84" font-family="Helvetica,sans-Serif" font-size="10.00">Request.h</text>
</a>
</g>
</g>
<!-- Node1&#45;&gt;Node7 -->
<g id="edge9_Node000001_Node000007" class="edge">
<title>Node1&#45;&gt;Node7</title>
<g id="a_edge9_Node000001_Node000007"><a xlink:title=" ">
<path fill="none" stroke="#63b8ff" d="M1402.38,-170.34C1336.19,-159.73 1244.35,-144.43 1164,-129 1160.97,-128.42 1157.89,-127.82 1154.78,-127.2"/>
<polygon fill="#63b8ff" stroke="#63b8ff" points="1401.94,-173.82 1412.37,-171.94 1403.05,-166.9 1401.94,-173.82"/>
</a>
</g>
</g>
<!-- Node8 -->
<g id="Node000008" class="node">
<title>Node8</title>
<g id="a_Node000008"><a xlink:href="gRPC_2include_2controllers_2GetParam_8h.html" target="_top" xlink:title="Implements the Catena GetParam RPC.">
<polygon fill="white" stroke="#666666" points="1371,-123.5 1173,-123.5 1173,-82.5 1371,-82.5 1371,-123.5"/>
<text text-anchor="start" x="1181" y="-111.5" font-family="Helvetica,sans-Serif" font-size="10.00">/home/runner/work/Catena</text>
<text text-anchor="start" x="1181" y="-100.5" font-family="Helvetica,sans-Serif" font-size="10.00">/Catena/sdks/cpp/connections</text>
<text text-anchor="middle" x="1272" y="-89.5" font-family="Helvetica,sans-Serif" font-size="10.00">/gRPC/include/controllers/GetParam.h</text>
</a>
</g>
</g>
<!-- Node1&#45;&gt;Node8 -->
<g id="edge11_Node000001_Node000008" class="edge">
<title>Node1&#45;&gt;Node8</title>
<g id="a_edge11_Node000001_Node000008"><a xlink:title=" ">
<path fill="none" stroke="#63b8ff" d="M1429.69,-161.44C1396.79,-149.45 1357.01,-134.97 1325.64,-123.54"/>
<polygon fill="#63b8ff" stroke="#63b8ff" points="1428.63,-164.78 1439.22,-164.91 1431.02,-158.2 1428.63,-164.78"/>
</a>
</g>
</g>
<!-- Node9 -->
<g id="Node000009" class="node">
<title>Node9</title>
<g id="a_Node000009"><a xlink:href="gRPC_2include_2controllers_2GetPopulatedSlots_8h.html" target="_top" xlink:title="Implements the Catena GetPopulatedSlots RPC.">
<polygon fill="white" stroke="#666666" points="1596.5,-129 1389.5,-129 1389.5,-77 1596.5,-77 1596.5,-129"/>
<text text-anchor="start" x="1397.5" y="-117" font-family="Helvetica,sans-Serif" font-size="10.00">/home/runner/work/Catena</text>
<text text-anchor="start" x="1397.5" y="-106" font-family="Helvetica,sans-Serif" font-size="10.00">/Catena/sdks/cpp/connections</text>
<text text-anchor="start" x="1397.5" y="-95" font-family="Helvetica,sans-Serif" font-size="10.00">/gRPC/include/controllers/GetPopulated</text>
<text text-anchor="middle" x="1493" y="-84" font-family="Helvetica,sans-Serif" font-size="10.00">Slots.h</text>
</a>
</g>
</g>
<!-- Node1&#45;&gt;Node9 -->
<g id="edge13_Node000001_Node000009" class="edge">
<title>Node1&#45;&gt;Node9</title>
<g id="a_edge13_Node000001_Node000009"><a xlink:title=" ">
<path fill="none" stroke="#63b8ff" d="M1493,-154.49C1493,-146.15 1493,-137.19 1493,-129.16"/>
<polygon fill="#63b8ff" stroke="#63b8ff" points="1489.5,-154.6 1493,-164.6 1496.5,-154.6 1489.5,-154.6"/>
</a>
</g>
</g>
<!-- Node10 -->
<g id="Node000010" class="node">
<title>Node10</title>
<g id="a_Node000010"><a xlink:href="gRPC_2include_2controllers_2GetValue_8h.html" target="_top" xlink:title="Implements the Catena GetValue RPC.">
<polygon fill="white" stroke="#666666" points="1809,-123.5 1615,-123.5 1615,-82.5 1809,-82.5 1809,-123.5"/>
<text text-anchor="start" x="1623" y="-111.5" font-family="Helvetica,sans-Serif" font-size="10.00">/home/runner/work/Catena</text>
<text text-anchor="start" x="1623" y="-100.5" font-family="Helvetica,sans-Serif" font-size="10.00">/Catena/sdks/cpp/connections</text>
<text text-anchor="middle" x="1712" y="-89.5" font-family="Helvetica,sans-Serif" font-size="10.00">/gRPC/include/controllers/GetValue.h</text>
</a>
</g>
</g>
<!-- Node1&#45;&gt;Node10 -->
<g id="edge15_Node000001_Node000010" class="edge">
<title>Node1&#45;&gt;Node10</title>
<g id="a_edge15_Node000001_Node000010"><a xlink:title=" ">
<path fill="none" stroke="#63b8ff" d="M1555.74,-161.44C1588.34,-149.45 1627.76,-134.97 1658.85,-123.54"/>
<polygon fill="#63b8ff" stroke="#63b8ff" points="1554.47,-158.18 1546.29,-164.91 1556.89,-164.75 1554.47,-158.18"/>
</a>
</g>
</g>
<!-- Node11 -->
<g id="Node000011" class="node">
<title>Node11</title>
<g id="a_Node000011"><a xlink:href="LanguagePackRequest_8h.html" target="_top" xlink:title="Implements the Catena LanguagePackRequest RPC.">
<polygon fill="white" stroke="#666666" points="2038.5,-129 1827.5,-129 1827.5,-77 2038.5,-77 2038.5,-129"/>
<text text-anchor="start" x="1835.5" y="-117" font-family="Helvetica,sans-Serif" font-size="10.00">/home/runner/work/Catena</text>
<text text-anchor="start" x="1835.5" y="-106" font-family="Helvetica,sans-Serif" font-size="10.00">/Catena/sdks/cpp/connections</text>
<text text-anchor="start" x="1835.5" y="-95" font-family="Helvetica,sans-Serif" font-size="10.00">/gRPC/include/controllers/LanguagePack</text>
<text text-anchor="middle" x="1933" y="-84" font-family="Helvetica,sans-Serif" font-size="10.00">Request.h</text>
</a>
</g>
</g>
<!-- Node1&#45;&gt;Node11 -->
<g id="edge17_Node000001_Node000011" class="edge">
<title>Node1&#45;&gt;Node11</title>
<g id="a_edge17_Node000001_Node000011"><a xlink:title=" ">
<path fill="none" stroke="#63b8ff" d="M1583.91,-170.1C1649.19,-159.48 1739.19,-144.29 1818,-129 1821.11,-128.4 1824.26,-127.78 1827.45,-127.14"/>
<polygon fill="#63b8ff" stroke="#63b8ff" points="1582.96,-166.7 1573.65,-171.76 1584.08,-173.61 1582.96,-166.7"/>
</a>
</g>
</g>
<!-- Node12 -->
<g id="Node000012" class="node">
<title>Node12</title>
<g id="a_Node000012"><a xlink:href="ListLanguages_8h.html" target="_top" xlink:title="Implements the Catena ListLanguages RPC.">
<polygon fill="white" stroke="#666666" points="2277,-123.5 2057,-123.5 2057,-82.5 2277,-82.5 2277,-123.5"/>
<text text-anchor="start" x="2065" y="-111.5" font-family="Helvetica,sans-Serif" font-size="10.00">/home/runner/work/Catena</text>
<text text-anchor="start" x="2065" y="-100.5" font-family="Helvetica,sans-Serif" font-size="10.00">/Catena/sdks/cpp/connections</text>
<text text-anchor="middle" x="2167" y="-89.5" font-family="Helvetica,sans-Serif" font-size="10.00">/gRPC/include/controllers/ListLanguages.h</text>
</a>
</g>
</g>
<!-- Node1&#45;&gt;Node12 -->
<g id="edge19_Node000001_Node000012" class="edge">
<title>Node1&#45;&gt;Node12</title>
<g id="a_edge19_Node000001_Node000012"><a xlink:title=" ">
<path fill="none" stroke="#63b8ff" d="M1583.85,-178.42C1694.08,-170.36 1885.37,-154.14 2048,-129 2058.22,-127.42 2068.89,-125.53 2079.46,-123.5"/>
<polygon fill="#63b8ff" stroke="#63b8ff" points="1583.49,-174.94 1573.76,-179.16 1583.99,-181.92 1583.49,-174.94"/>
</a>
</g>
</g>
<!-- Node13 -->
<g id="Node000013" class="node">
<title>Node13</title>
<g id="a_Node000013"><a xlink:href="gRPC_2include_2controllers_2MultiSetValue_8h.html" target="_top" xlink:title="Generic CallData class for the Catena SetValue and MultiSetValue RPCs.">
<polygon fill="white" stroke="#666666" points="2513,-123.5 2295,-123.5 2295,-82.5 2513,-82.5 2513,-123.5"/>
<text text-anchor="start" x="2303" y="-111.5" font-family="Helvetica,sans-Serif" font-size="10.00">/home/runner/work/Catena</text>
<text text-anchor="start" x="2303" y="-100.5" font-family="Helvetica,sans-Serif" font-size="10.00">/Catena/sdks/cpp/connections</text>
<text text-anchor="middle" x="2404" y="-89.5" font-family="Helvetica,sans-Serif" font-size="10.00">/gRPC/include/controllers/MultiSetValue.h</text>
</a>
</g>
</g>
<!-- Node1&#45;&gt;Node13 -->
<g id="edge21_Node000001_Node000013" class="edge">
<title>Node1&#45;&gt;Node13</title>
<g id="a_edge21_Node000001_Node000013"><a xlink:title=" ">
<path fill="none" stroke="#63b8ff" d="M1583.96,-182.24C1731.83,-177.64 2033.24,-164.45 2286,-129 2296.68,-127.5 2307.84,-125.6 2318.85,-123.5"/>
<polygon fill="#63b8ff" stroke="#63b8ff" points="1583.47,-178.75 1573.59,-182.55 1583.69,-185.75 1583.47,-178.75"/>
</a>
</g>
</g>
<!-- Node14 -->
<g id="Node000014" class="node">
<title>Node14</title>
<g id="a_Node000014"><a xlink:href="gRPC_2include_2controllers_2ParamInfoRequest_8h.html" target="_top" xlink:title="Implements the Catena ParamInfoRequest RPC.">
<polygon fill="white" stroke="#666666" points="2722.5,-129 2531.5,-129 2531.5,-77 2722.5,-77 2722.5,-129"/>
<text text-anchor="start" x="2539.5" y="-117" font-family="Helvetica,sans-Serif" font-size="10.00">/home/runner/work/Catena</text>
<text text-anchor="start" x="2539.5" y="-106" font-family="Helvetica,sans-Serif" font-size="10.00">/Catena/sdks/cpp/connections</text>
<text text-anchor="start" x="2539.5" y="-95" font-family="Helvetica,sans-Serif" font-size="10.00">/gRPC/include/controllers/ParamInfo</text>
<text text-anchor="middle" x="2627" y="-84" font-family="Helvetica,sans-Serif" font-size="10.00">Request.h</text>
</a>
</g>
</g>
<!-- Node1&#45;&gt;Node14 -->
<g id="edge23_Node000001_Node000014" class="edge">
<title>Node1&#45;&gt;Node14</title>
<g id="a_edge23_Node000001_Node000014"><a xlink:title=" ">
<path fill="none" stroke="#63b8ff" d="M1583.75,-185.06C1763.71,-184.98 2178.1,-178.8 2522,-129 2525.06,-128.56 2528.16,-128.07 2531.29,-127.54"/>
<polygon fill="#63b8ff" stroke="#63b8ff" points="1583.54,-181.56 1573.54,-185.06 1583.54,-188.56 1583.54,-181.56"/>
</a>
</g>
</g>
<!-- Node15 -->
<g id="Node000015" class="node">
<title>Node15</title>
<g id="a_Node000015"><a xlink:href="UpdateSubscriptions_8h.html" target="_top" xlink:title="Implements the Catena UpdateSubscriptions RPC.">
<polygon fill="white" stroke="#666666" points="2991.5,-123.5 2740.5,-123.5 2740.5,-82.5 2991.5,-82.5 2991.5,-123.5"/>
<text text-anchor="start" x="2748.5" y="-111.5" font-family="Helvetica,sans-Serif" font-size="10.00">/home/runner/work/Catena</text>
<text text-anchor="start" x="2748.5" y="-100.5" font-family="Helvetica,sans-Serif" font-size="10.00">/Catena/sdks/cpp/connections</text>
<text text-anchor="middle" x="2866" y="-89.5" font-family="Helvetica,sans-Serif" font-size="10.00">/gRPC/include/controllers/UpdateSubscriptions.h</text>
</a>
</g>
</g>
<!-- Node1&#45;&gt;Node15 -->
<g id="edge25_Node000001_Node000015" class="edge">
<title>Node1&#45;&gt;Node15</title>
<g id="a_edge25_Node000001_Node000015"><a xlink:title=" ">
<path fill="none" stroke="#63b8ff" d="M1583.89,-184.76C1789.25,-184.41 2304.45,-178.22 2732,-129 2744.46,-127.57 2757.5,-125.65 2770.36,-123.52"/>
<polygon fill="#63b8ff" stroke="#63b8ff" points="1583.76,-181.26 1573.76,-184.78 1583.76,-188.26 1583.76,-181.26"/>
</a>
</g>
</g>
<!-- Node3 -->
<g id="Node000003" class="node">
<title>Node3</title>
<g id="a_Node000003"><a xlink:href="gRPC_2include_2ServiceImpl_8h.html" target="_top" xlink:title="Implements Catena gRPC request handlers.">
<polygon fill="white" stroke="#666666" points="1573.5,-41 1412.5,-41 1412.5,0 1573.5,0 1573.5,-41"/>
<text text-anchor="start" x="1420.5" y="-29" font-family="Helvetica,sans-Serif" font-size="10.00">/home/runner/work/Catena</text>
<text text-anchor="start" x="1420.5" y="-18" font-family="Helvetica,sans-Serif" font-size="10.00">/Catena/sdks/cpp/connections</text>
<text text-anchor="middle" x="1493" y="-7" font-family="Helvetica,sans-Serif" font-size="10.00">/gRPC/include/ServiceImpl.h</text>
</a>
</g>
</g>
<!-- Node2&#45;&gt;Node3 -->
<g id="edge2_Node000002_Node000003" class="edge">
<title>Node2&#45;&gt;Node3</title>
<g id="a_edge2_Node000002_Node000003"><a xlink:title=" ">
<path fill="none" stroke="#63b8ff" d="M200.98,-80.67C209.07,-79.26 217.16,-78 225,-77 456.14,-47.46 1170.84,-28.85 1412.33,-23.27"/>
<polygon fill="#63b8ff" stroke="#63b8ff" points="200.33,-77.23 191.11,-82.46 201.58,-84.12 200.33,-77.23"/>
</a>
</g>
</g>
<!-- Node4&#45;&gt;Node3 -->
<g id="edge4_Node000004_Node000003" class="edge">
<title>Node4&#45;&gt;Node3</title>
<g id="a_edge4_Node000004_Node000003"><a xlink:title=" ">
<path fill="none" stroke="#63b8ff" d="M412.78,-80.47C419.59,-79.14 426.39,-77.96 433,-77 795.69,-24.37 1234.58,-20.02 1412.39,-20.7"/>
<polygon fill="#63b8ff" stroke="#63b8ff" points="411.92,-77.07 402.82,-82.5 413.31,-83.93 411.92,-77.07"/>
</a>
</g>
</g>
<!-- Node5&#45;&gt;Node3 -->
<g id="edge6_Node000005_Node000003" class="edge">
<title>Node5&#45;&gt;Node3</title>
<g id="a_edge6_Node000005_Node000003"><a xlink:title=" ">
<path fill="none" stroke="#63b8ff" d="M651.4,-80.68C659.36,-79.31 667.3,-78.05 675,-77 943.49,-40.33 1265.02,-27.51 1412.23,-23.34"/>
<polygon fill="#63b8ff" stroke="#63b8ff" points="650.55,-77.28 641.33,-82.49 651.79,-84.17 650.55,-77.28"/>
</a>
</g>
</g>
<!-- Node6&#45;&gt;Node3 -->
<g id="edge8_Node000006_Node000003" class="edge">
<title>Node6&#45;&gt;Node3</title>
<g id="a_edge8_Node000006_Node000003"><a xlink:title=" ">
<path fill="none" stroke="#63b8ff" d="M908.57,-80.74C916.49,-79.39 924.36,-78.12 932,-77 1102.19,-52.02 1303.11,-35.18 1412.35,-27.08"/>
<polygon fill="#63b8ff" stroke="#63b8ff" points="907.79,-77.32 898.54,-82.5 909,-84.22 907.79,-77.32"/>
</a>
</g>
</g>
<!-- Node7&#45;&gt;Node3 -->
<g id="edge10_Node000007_Node000003" class="edge">
<title>Node7&#45;&gt;Node3</title>
<g id="a_edge10_Node000007_Node000003"><a xlink:title=" ">
<path fill="none" stroke="#63b8ff" d="M1164.68,-76.9C1255.27,-59.66 1348,-44.33 1412.37,-34.06"/>
<polygon fill="#63b8ff" stroke="#63b8ff" points="1163.95,-73.48 1154.78,-78.8 1165.26,-80.36 1163.95,-73.48"/>
</a>
</g>
</g>
<!-- Node8&#45;&gt;Node3 -->
<g id="edge12_Node000008_Node000003" class="edge">
<title>Node8&#45;&gt;Node3</title>
<g id="a_edge12_Node000008_Node000003"><a xlink:title=" ">
<path fill="none" stroke="#63b8ff" d="M1335.31,-78.94C1368.21,-66.95 1407.99,-52.47 1439.36,-41.04"/>
<polygon fill="#63b8ff" stroke="#63b8ff" points="1333.98,-75.7 1325.78,-82.41 1336.37,-82.28 1333.98,-75.7"/>
</a>
</g>
</g>
<!-- Node9&#45;&gt;Node3 -->
<g id="edge14_Node000009_Node000003" class="edge">
<title>Node9&#45;&gt;Node3</title>
<g id="a_edge14_Node000009_Node000003"><a xlink:title=" ">
<path fill="none" stroke="#63b8ff" d="M1493,-66.87C1493,-58.05 1493,-48.9 1493,-41.15"/>
<polygon fill="#63b8ff" stroke="#63b8ff" points="1489.5,-66.97 1493,-76.97 1496.5,-66.97 1489.5,-66.97"/>
</a>
</g>
</g>
<!-- Node10&#45;&gt;Node3 -->
<g id="edge16_Node000010_Node000003" class="edge">
<title>Node10&#45;&gt;Node3</title>
<g id="a_edge16_Node000010_Node000003"><a xlink:title=" ">
<path fill="none" stroke="#63b8ff" d="M1649.26,-78.94C1616.66,-66.95 1577.24,-52.47 1546.15,-41.04"/>
<polygon fill="#63b8ff" stroke="#63b8ff" points="1648.11,-82.25 1658.71,-82.41 1650.53,-75.68 1648.11,-82.25"/>
</a>
</g>
</g>
<!-- Node11&#45;&gt;Node3 -->
<g id="edge18_Node000011_Node000003" class="edge">
<title>Node11&#45;&gt;Node3</title>
<g id="a_edge18_Node000011_Node000003"><a xlink:title=" ">
<path fill="none" stroke="#63b8ff" d="M1817.41,-76.92C1728.12,-59.75 1637.15,-44.51 1573.65,-34.24"/>
<polygon fill="#63b8ff" stroke="#63b8ff" points="1816.96,-80.4 1827.45,-78.86 1818.29,-73.53 1816.96,-80.4"/>
</a>
</g>
</g>
<!-- Node12&#45;&gt;Node3 -->
<g id="edge20_Node000012_Node000003" class="edge">
<title>Node12&#45;&gt;Node3</title>
<g id="a_edge20_Node000012_Node000003"><a xlink:title=" ">
<path fill="none" stroke="#63b8ff" d="M2069.54,-80.64C2062.27,-79.32 2055.03,-78.09 2048,-77 1880.29,-51.07 1682.1,-34.64 1573.76,-26.84"/>
<polygon fill="#63b8ff" stroke="#63b8ff" points="2068.99,-84.1 2079.46,-82.5 2070.28,-77.22 2068.99,-84.1"/>
</a>
</g>
</g>
<!-- Node13&#45;&gt;Node3 -->
<g id="edge22_Node000013_Node000003" class="edge">
<title>Node13&#45;&gt;Node3</title>
<g id="a_edge22_Node000013_Node000003"><a xlink:title=" ">
<path fill="none" stroke="#63b8ff" d="M2308.76,-80.64C2301.08,-79.28 2293.43,-78.04 2286,-77 2027.18,-40.7 1717.33,-27.74 1573.59,-23.45"/>
<polygon fill="#63b8ff" stroke="#63b8ff" points="2308.38,-84.13 2318.85,-82.5 2309.65,-77.25 2308.38,-84.13"/>
</a>
</g>
</g>
<!-- Node14&#45;&gt;Node3 -->
<g id="edge24_Node000014_Node000003" class="edge">
<title>Node14&#45;&gt;Node3</title>
<g id="a_edge24_Node000014_Node000003"><a xlink:title=" ">
<path fill="none" stroke="#63b8ff" d="M2521.26,-77.02C2163.58,-26.13 1745.98,-20.8 1573.54,-20.94"/>
<polygon fill="#63b8ff" stroke="#63b8ff" points="2520.89,-80.5 2531.29,-78.46 2521.89,-73.57 2520.89,-80.5"/>
</a>
</g>
</g>
<!-- Node15&#45;&gt;Node3 -->
<g id="edge26_Node000015_Node000003" class="edge">
<title>Node15&#45;&gt;Node3</title>
<g id="a_edge26_Node000015_Node000003"><a xlink:title=" ">
<path fill="none" stroke="#63b8ff" d="M2760.39,-80.88C2750.82,-79.39 2741.25,-78.06 2732,-77 2297.23,-26.95 1771.83,-21.39 1573.76,-21.22"/>
<polygon fill="#63b8ff" stroke="#63b8ff" points="2759.93,-84.35 2770.36,-82.48 2761.04,-77.44 2759.93,-84.35"/>
</a>
</g>
</g>
</g>
</svg>
