<?xml version="1.0" encoding="UTF-8" standalone="no"?>
<!DOCTYPE svg PUBLIC "-//W3C//DTD SVG 1.1//EN"
 "http://www.w3.org/Graphics/SVG/1.1/DTD/svg11.dtd">
<!-- Generated by graphviz version 2.43.0 (0)
 -->
<!-- Title: catena::common::IAuthorizer::writeAuthz Pages: 1 -->
<svg width="554pt" height="200pt"
 viewBox="0.00 0.00 554.00 200.00" xmlns="http://www.w3.org/2000/svg" xmlns:xlink="http://www.w3.org/1999/xlink">
<g id="graph0" class="graph" transform="scale(1 1) rotate(0) translate(4 196)">
<title>catena::common::IAuthorizer::writeAuthz</title>
<!-- Node1 -->
<g id="Node000001" class="node">
<title>Node1</title>
<g id="a_Node000001"><a xlink:title="Check if the client has write authorization for a param.">
<polygon fill="#999999" stroke="#666666" points="546,-144 388,-144 388,-114 546,-114 546,-144"/>
<text text-anchor="start" x="396" y="-132" font-family="Helvetica,sans-Serif" font-size="10.00">catena::common::IAuthorizer</text>
<text text-anchor="middle" x="467" y="-121" font-family="Helvetica,sans-Serif" font-size="10.00">::writeAuthz</text>
</a>
</g>
</g>
<!-- Node2 -->
<g id="Node000002" class="node">
<title>Node2</title>
<g id="a_Node000002"><a xlink:href="classcatena_1_1common_1_1ParamWithValue.html#ab69db9d617d3eda5e260f0ad1847ba5b" target="_top" xlink:title="Adds an empty element to the end of an array parameter.">
<polygon fill="white" stroke="#666666" points="352,-192 194,-192 194,-162 352,-162 352,-192"/>
<text text-anchor="start" x="202" y="-180" font-family="Helvetica,sans-Serif" font-size="10.00">catena::common::ParamWith</text>
<text text-anchor="middle" x="273" y="-169" font-family="Helvetica,sans-Serif" font-size="10.00">Value::addBack_</text>
</a>
</g>
</g>
<!-- Node1&#45;&gt;Node2 -->
<g id="edge1_Node000001_Node000002" class="edge">
<title>Node1&#45;&gt;Node2</title>
<g id="a_edge1_Node000001_Node000002"><a xlink:title=" ">
<path fill="none" stroke="#63b8ff" d="M395.96,-146.51C375.64,-151.59 353.65,-157.09 334.01,-162"/>
<polygon fill="#63b8ff" stroke="#63b8ff" points="396.92,-149.88 405.78,-144.06 395.23,-143.09 396.92,-149.88"/>
</a>
</g>
</g>
<!-- Node3 -->
<g id="Node000003" class="node">
<title>Node3</title>
<g id="a_Node000003"><a xlink:href="classcatena_1_1common_1_1ParamWithValue.html#adc8658bbfd6d9c4b7c8e26a244527926" target="_top" xlink:title="Removes the last element from an array parameter.">
<polygon fill="white" stroke="#666666" points="352,-144 194,-144 194,-114 352,-114 352,-144"/>
<text text-anchor="start" x="202" y="-132" font-family="Helvetica,sans-Serif" font-size="10.00">catena::common::ParamWith</text>
<text text-anchor="middle" x="273" y="-121" font-family="Helvetica,sans-Serif" font-size="10.00">Value::popBack_</text>
</a>
</g>
</g>
<!-- Node1&#45;&gt;Node3 -->
<g id="edge2_Node000001_Node000003" class="edge">
<title>Node1&#45;&gt;Node3</title>
<g id="a_edge2_Node000001_Node000003"><a xlink:title=" ">
<path fill="none" stroke="#63b8ff" d="M377.85,-129C369.23,-129 360.53,-129 352.02,-129"/>
<polygon fill="#63b8ff" stroke="#63b8ff" points="377.91,-132.5 387.91,-129 377.91,-125.5 377.91,-132.5"/>
</a>
</g>
</g>
<!-- Node4 -->
<g id="Node000004" class="node">
<title>Node4</title>
<g id="a_Node000004"><a xlink:href="namespacecatena_1_1common.html#aa1d6718b95661e20844462e2f044488a" target="_top" xlink:title=" ">
<polygon fill="white" stroke="#666666" points="349.5,-78 196.5,-78 196.5,-48 349.5,-48 349.5,-78"/>
<text text-anchor="start" x="204.5" y="-66" font-family="Helvetica,sans-Serif" font-size="10.00">catena::common::validFrom</text>
<text text-anchor="middle" x="273" y="-55" font-family="Helvetica,sans-Serif" font-size="10.00">Proto</text>
</a>
</g>
</g>
<!-- Node1&#45;&gt;Node4 -->
<g id="edge3_Node000001_Node000004" class="edge">
<title>Node1&#45;&gt;Node4</title>
<g id="a_edge3_Node000001_Node000004"><a xlink:title=" ">
<path fill="none" stroke="#63b8ff" d="M412.14,-110.48C382.37,-100.25 345.85,-87.7 317.84,-78.07"/>
<polygon fill="#63b8ff" stroke="#63b8ff" points="411.36,-113.92 421.95,-113.86 413.63,-107.3 411.36,-113.92"/>
</a>
</g>
</g>
<!-- Node4&#45;&gt;Node4 -->
<g id="edge8_Node000004_Node000004" class="edge">
<title>Node4&#45;&gt;Node4</title>
<g id="a_edge8_Node000004_Node000004"><a xlink:title=" ">
<path fill="none" stroke="#63b8ff" d="M306.61,-88.6C302.01,-92.97 290.81,-96 273,-96 243,-96 231.75,-87.41 239.25,-78.28"/>
<polygon fill="#63b8ff" stroke="#63b8ff" points="310.11,-88.32 306.75,-78.28 303.11,-88.23 310.11,-88.32"/>
</a>
</g>
</g>
<!-- Node5 -->
<g id="Node000005" class="node">
<title>Node5</title>
<g id="a_Node000005"><a xlink:href="namespacecatena_1_1common.html#a76d541652cd1d16e108a82973e7da2e9" target="_top" xlink:title=" ">
<polygon fill="white" stroke="#666666" points="155.5,-115.5 2.5,-115.5 2.5,-96.5 155.5,-96.5 155.5,-115.5"/>
<text text-anchor="middle" x="79" y="-103.5" font-family="Helvetica,sans-Serif" font-size="10.00">catena::common::fromProto</text>
</a>
</g>
</g>
<!-- Node4&#45;&gt;Node5 -->
<g id="edge4_Node000004_Node000005" class="edge">
<title>Node4&#45;&gt;Node5</title>
<g id="a_edge4_Node000004_Node000005"><a xlink:title=" ">
<path fill="none" stroke="#63b8ff" d="M194.77,-80.3C170.13,-85.82 143.76,-91.72 122.52,-96.48"/>
<polygon fill="#63b8ff" stroke="#63b8ff" points="195.85,-83.64 204.85,-78.04 194.32,-76.81 195.85,-83.64"/>
</a>
</g>
</g>
<!-- Node6 -->
<g id="Node000006" class="node">
<title>Node6</title>
<g id="a_Node000006"><a xlink:href="classcatena_1_1common_1_1ParamWithValue.html#a48f9ca039cdb8d1916fa86e77b4921e3" target="_top" xlink:title="Insert/append value to array overload of validateSetValue_.">
<polygon fill="white" stroke="#666666" points="158,-78 0,-78 0,-48 158,-48 158,-78"/>
<text text-anchor="start" x="8" y="-66" font-family="Helvetica,sans-Serif" font-size="10.00">catena::common::ParamWith</text>
<text text-anchor="middle" x="79" y="-55" font-family="Helvetica,sans-Serif" font-size="10.00">Value::validateSetValue_</text>
</a>
</g>
</g>
<!-- Node4&#45;&gt;Node6 -->
<g id="edge6_Node000004_Node000006" class="edge">
<title>Node4&#45;&gt;Node6</title>
<g id="a_edge6_Node000004_Node000006"><a xlink:title=" ">
<path fill="none" stroke="#63b8ff" d="M186.27,-63C176.88,-63 167.36,-63 158.06,-63"/>
<polygon fill="#63b8ff" stroke="#63b8ff" points="186.39,-66.5 196.39,-63 186.39,-59.5 186.39,-66.5"/>
</a>
</g>
</g>
<!-- Node7 -->
<g id="Node000007" class="node">
<title>Node7</title>
<g id="a_Node000007"><a xlink:href="classcatena_1_1common_1_1ParamWithValue.html#a18e8cf17311d8eec6cef67a666fce2d0" target="_top" xlink:title="Default overload of validateSetValue_ used in cases where type(U) == type(V).">
<polygon fill="white" stroke="#666666" points="158,-30 0,-30 0,0 158,0 158,-30"/>
<text text-anchor="start" x="8" y="-18" font-family="Helvetica,sans-Serif" font-size="10.00">catena::common::ParamWith</text>
<text text-anchor="middle" x="79" y="-7" font-family="Helvetica,sans-Serif" font-size="10.00">Value::validateSetValue_</text>
</a>
</g>
</g>
<!-- Node4&#45;&gt;Node7 -->
<g id="edge7_Node000004_Node000007" class="edge">
<title>Node4&#45;&gt;Node7</title>
<g id="a_edge7_Node000004_Node000007"><a xlink:title=" ">
<path fill="none" stroke="#63b8ff" d="M201.96,-45.49C181.64,-40.41 159.65,-34.91 140.01,-30"/>
<polygon fill="#63b8ff" stroke="#63b8ff" points="201.23,-48.91 211.78,-47.94 202.92,-42.12 201.23,-48.91"/>
</a>
</g>
</g>
<!-- Node5&#45;&gt;Node5 -->
<g id="edge5_Node000005_Node000005" class="edge">
<title>Node5&#45;&gt;Node5</title>
<g id="a_edge5_Node000005_Node000005"><a xlink:title=" ">
<path fill="none" stroke="#63b8ff" d="M114.98,-123.57C114.45,-129.12 102.46,-133.5 79,-133.5 44.87,-133.5 35.01,-124.23 49.41,-115.58"/>
<polygon fill="#63b8ff" stroke="#63b8ff" points="117.57,-121.21 108.59,-115.58 112.11,-125.58 117.57,-121.21"/>
</a>
</g>
</g>
</g>
</svg>
