<?xml version="1.0" encoding="UTF-8" standalone="no"?>
<!DOCTYPE svg PUBLIC "-//W3C//DTD SVG 1.1//EN"
 "http://www.w3.org/Graphics/SVG/1.1/DTD/svg11.dtd">
<!-- Generated by graphviz version 2.43.0 (0)
 -->
<!-- Title: catena::common::ParamDescriptor::ParamDescriptor Pages: 1 -->
<svg width="414pt" height="86pt"
 viewBox="0.00 0.00 414.00 86.00" xmlns="http://www.w3.org/2000/svg" xmlns:xlink="http://www.w3.org/1999/xlink">
<g id="graph0" class="graph" transform="scale(1 1) rotate(0) translate(4 82)">
<title>catena::common::ParamDescriptor::ParamDescriptor</title>
<!-- Node1 -->
<g id="Node000001" class="node">
<title>Node1</title>
<g id="a_Node000001"><a xlink:title="the main constructor">
<polygon fill="#999999" stroke="#666666" points="185,-54 0,-54 0,-24 185,-24 185,-54"/>
<text text-anchor="start" x="8" y="-42" font-family="Helvetica,sans-Serif" font-size="10.00">catena::common::ParamDescriptor</text>
<text text-anchor="middle" x="92.5" y="-31" font-family="Helvetica,sans-Serif" font-size="10.00">::ParamDescriptor</text>
</a>
</g>
</g>
<!-- Node2 -->
<g id="Node000002" class="node">
<title>Node2</title>
<g id="a_Node000002"><a xlink:href="classcatena_1_1common_1_1ParamDescriptor.html#acbd43f226aa1753c32bcca3612dff9ad" target="_top" xlink:title="add an item to one of the collections owned by the device">
<polygon fill="white" stroke="#666666" points="406,-78 221,-78 221,-48 406,-48 406,-78"/>
<text text-anchor="start" x="229" y="-66" font-family="Helvetica,sans-Serif" font-size="10.00">catena::common::ParamDescriptor</text>
<text text-anchor="middle" x="313.5" y="-55" font-family="Helvetica,sans-Serif" font-size="10.00">::addSubParam</text>
</a>
</g>
</g>
<!-- Node1&#45;&gt;Node2 -->
<g id="edge1_Node000001_Node000002" class="edge">
<title>Node1&#45;&gt;Node2</title>
<g id="a_edge1_Node000001_Node000002"><a xlink:title=" ">
<path fill="none" stroke="#63b8ff" d="M185.11,-49.04C193.62,-49.97 202.27,-50.92 210.86,-51.86"/>
<polygon fill="#63b8ff" stroke="#63b8ff" points="210.59,-55.35 220.91,-52.96 211.35,-48.39 210.59,-55.35"/>
</a>
</g>
</g>
<!-- Node3 -->
<g id="Node000003" class="node">
<title>Node3</title>
<g id="a_Node000003"><a xlink:href="classcatena_1_1common_1_1ParamDescriptor.html#a81457e74f713979e1335cf9ea89d2590" target="_top" xlink:title="set the parameter oid">
<polygon fill="white" stroke="#666666" points="406,-30 221,-30 221,0 406,0 406,-30"/>
<text text-anchor="start" x="229" y="-18" font-family="Helvetica,sans-Serif" font-size="10.00">catena::common::ParamDescriptor</text>
<text text-anchor="middle" x="313.5" y="-7" font-family="Helvetica,sans-Serif" font-size="10.00">::setOid</text>
</a>
</g>
</g>
<!-- Node1&#45;&gt;Node3 -->
<g id="edge2_Node000001_Node000003" class="edge">
<title>Node1&#45;&gt;Node3</title>
<g id="a_edge2_Node000001_Node000003"><a xlink:title=" ">
<path fill="none" stroke="#63b8ff" d="M185.11,-28.96C193.62,-28.03 202.27,-27.08 210.86,-26.14"/>
<polygon fill="#63b8ff" stroke="#63b8ff" points="211.35,-29.61 220.91,-25.04 210.59,-22.65 211.35,-29.61"/>
</a>
</g>
</g>
</g>
</svg>
