<?xml version="1.0" encoding="UTF-8" standalone="no"?>
<!DOCTYPE svg PUBLIC "-//W3C//DTD SVG 1.1//EN"
 "http://www.w3.org/Graphics/SVG/1.1/DTD/svg11.dtd">
<!-- Generated by graphviz version 2.43.0 (0)
 -->
<!-- Title: catena::common::IParamDescriptor::getOid Pages: 1 -->
<svg width="579pt" height="256pt"
 viewBox="0.00 0.00 579.00 256.00" xmlns="http://www.w3.org/2000/svg" xmlns:xlink="http://www.w3.org/1999/xlink">
<g id="graph0" class="graph" transform="scale(1 1) rotate(0) translate(4 252)">
<title>catena::common::IParamDescriptor::getOid</title>
<!-- Node1 -->
<g id="Node000001" class="node">
<title>Node1</title>
<g id="a_Node000001"><a xlink:title="get the parameter oid">
<polygon fill="#999999" stroke="#666666" points="571,-152 383,-152 383,-122 571,-122 571,-152"/>
<text text-anchor="start" x="391" y="-140" font-family="Helvetica,sans-Serif" font-size="10.00">catena::common::IParamDescriptor</text>
<text text-anchor="middle" x="477" y="-129" font-family="Helvetica,sans-Serif" font-size="10.00">::getOid</text>
</a>
</g>
</g>
<!-- Node2 -->
<g id="Node000002" class="node">
<title>Node2</title>
<g id="a_Node000002"><a xlink:href="classcatena_1_1common_1_1ParamWithValue.html#a13b03b7df7f5ee620e388ff75f3c2540" target="_top" xlink:title="get the parameter oid">
<polygon fill="white" stroke="#666666" points="347,-248 189,-248 189,-218 347,-218 347,-248"/>
<text text-anchor="start" x="197" y="-236" font-family="Helvetica,sans-Serif" font-size="10.00">catena::common::ParamWith</text>
<text text-anchor="middle" x="268" y="-225" font-family="Helvetica,sans-Serif" font-size="10.00">Value::getOid</text>
</a>
</g>
</g>
<!-- Node1&#45;&gt;Node2 -->
<g id="edge1_Node000001_Node000002" class="edge">
<title>Node1&#45;&gt;Node2</title>
<g id="a_edge1_Node000001_Node000002"><a xlink:title=" ">
<path fill="none" stroke="#63b8ff" d="M443.99,-157.37C418.45,-172.99 381.39,-194.31 347,-209 339.44,-212.23 331.31,-215.23 323.24,-217.93"/>
<polygon fill="#63b8ff" stroke="#63b8ff" points="445.85,-160.33 452.52,-152.1 442.17,-154.38 445.85,-160.33"/>
</a>
</g>
</g>
<!-- Node3 -->
<g id="Node000003" class="node">
<title>Node3</title>
<g id="a_Node000003"><a xlink:href="classcatena_1_1common_1_1ParamWithValue.html#aa0c849e1ec2cc180e57f860c1d04676a" target="_top" xlink:title="Construct a new ParamWithValue object and add it to the device.">
<polygon fill="white" stroke="#666666" points="347,-200 189,-200 189,-170 347,-170 347,-200"/>
<text text-anchor="start" x="197" y="-188" font-family="Helvetica,sans-Serif" font-size="10.00">catena::common::ParamWith</text>
<text text-anchor="middle" x="268" y="-177" font-family="Helvetica,sans-Serif" font-size="10.00">Value::ParamWithValue</text>
</a>
</g>
</g>
<!-- Node1&#45;&gt;Node3 -->
<g id="edge2_Node000001_Node000003" class="edge">
<title>Node1&#45;&gt;Node3</title>
<g id="a_edge2_Node000001_Node000003"><a xlink:title=" ">
<path fill="none" stroke="#63b8ff" d="M401.08,-154.37C379.01,-159.49 355.07,-165.04 333.7,-170"/>
<polygon fill="#63b8ff" stroke="#63b8ff" points="402.12,-157.72 411.07,-152.06 400.54,-150.91 402.12,-157.72"/>
</a>
</g>
</g>
<!-- Node4 -->
<g id="Node000004" class="node">
<title>Node4</title>
<g id="a_Node000004"><a xlink:href="classcatena_1_1common_1_1ParamWithValue.html#a3834efd72939b0e2dc3978025fe3a00e" target="_top" xlink:title="serialize the parameter descriptor to protobuf include both the descriptor and the value">
<polygon fill="white" stroke="#666666" points="347,-152 189,-152 189,-122 347,-122 347,-152"/>
<text text-anchor="start" x="197" y="-140" font-family="Helvetica,sans-Serif" font-size="10.00">catena::common::ParamWith</text>
<text text-anchor="middle" x="268" y="-129" font-family="Helvetica,sans-Serif" font-size="10.00">Value::toProto</text>
</a>
</g>
</g>
<!-- Node1&#45;&gt;Node4 -->
<g id="edge3_Node000001_Node000004" class="edge">
<title>Node1&#45;&gt;Node4</title>
<g id="a_edge3_Node000001_Node000004"><a xlink:title=" ">
<path fill="none" stroke="#63b8ff" d="M372.71,-137C364.12,-137 355.51,-137 347.15,-137"/>
<polygon fill="#63b8ff" stroke="#63b8ff" points="372.79,-140.5 382.79,-137 372.79,-133.5 372.79,-140.5"/>
</a>
</g>
</g>
<!-- Node5 -->
<g id="Node000005" class="node">
<title>Node5</title>
<g id="a_Node000005"><a xlink:href="namespacecatena_1_1common.html#aa45a6f4433e677dd49851d61bdee0350" target="_top" xlink:title=" ">
<polygon fill="white" stroke="#666666" points="338,-85.5 198,-85.5 198,-66.5 338,-66.5 338,-85.5"/>
<text text-anchor="middle" x="268" y="-73.5" font-family="Helvetica,sans-Serif" font-size="10.00">catena::common::toProto</text>
</a>
</g>
</g>
<!-- Node1&#45;&gt;Node5 -->
<g id="edge4_Node000001_Node000005" class="edge">
<title>Node1&#45;&gt;Node5</title>
<g id="a_edge4_Node000001_Node000005"><a xlink:title=" ">
<path fill="none" stroke="#63b8ff" d="M415.33,-119.12C378.03,-108.13 331.71,-94.48 301.3,-85.52"/>
<polygon fill="#63b8ff" stroke="#63b8ff" points="414.52,-122.53 425.1,-122 416.49,-115.82 414.52,-122.53"/>
</a>
</g>
</g>
<!-- Node6 -->
<g id="Node000006" class="node">
<title>Node6</title>
<g id="a_Node000006"><a xlink:href="namespacecatena_1_1common.html#a846f2287f628fa1adeba439f9dc37fba" target="_top" xlink:title=" ">
<polygon fill="white" stroke="#666666" points="344.5,-30 191.5,-30 191.5,0 344.5,0 344.5,-30"/>
<text text-anchor="start" x="199.5" y="-18" font-family="Helvetica,sans-Serif" font-size="10.00">catena::common::validFrom</text>
<text text-anchor="middle" x="268" y="-7" font-family="Helvetica,sans-Serif" font-size="10.00">Proto</text>
</a>
</g>
</g>
<!-- Node1&#45;&gt;Node6 -->
<g id="edge6_Node000001_Node000006" class="edge">
<title>Node1&#45;&gt;Node6</title>
<g id="a_edge6_Node000001_Node000006"><a xlink:title=" ">
<path fill="none" stroke="#63b8ff" d="M443.27,-116.39C417.35,-100.2 380.1,-77.25 347,-58 330.56,-48.44 311.91,-38.14 296.97,-30.02"/>
<polygon fill="#63b8ff" stroke="#63b8ff" points="441.61,-119.48 451.95,-121.82 445.33,-113.54 441.61,-119.48"/>
</a>
</g>
</g>
<!-- Node5&#45;&gt;Node5 -->
<g id="edge5_Node000005_Node000005" class="edge">
<title>Node5&#45;&gt;Node5</title>
<g id="a_edge5_Node000005_Node000005"><a xlink:title=" ">
<path fill="none" stroke="#63b8ff" d="M303.61,-93.57C303.09,-99.12 291.22,-103.5 268,-103.5 234.23,-103.5 224.47,-94.23 238.72,-85.58"/>
<polygon fill="#63b8ff" stroke="#63b8ff" points="306.23,-91.25 297.28,-85.58 300.75,-95.6 306.23,-91.25"/>
</a>
</g>
</g>
<!-- Node6&#45;&gt;Node6 -->
<g id="edge9_Node000006_Node000006" class="edge">
<title>Node6&#45;&gt;Node6</title>
<g id="a_edge9_Node000006_Node000006"><a xlink:title=" ">
<path fill="none" stroke="#63b8ff" d="M301.26,-40.6C296.71,-44.97 285.63,-48 268,-48 238.31,-48 227.18,-39.41 234.6,-30.28"/>
<polygon fill="#63b8ff" stroke="#63b8ff" points="304.76,-40.32 301.4,-30.28 297.76,-40.23 304.76,-40.32"/>
</a>
</g>
</g>
<!-- Node7 -->
<g id="Node000007" class="node">
<title>Node7</title>
<g id="a_Node000007"><a xlink:href="namespacecatena_1_1common.html#a5ad5f48a946620a675877d2301531370" target="_top" xlink:title=" ">
<polygon fill="white" stroke="#666666" points="153,-24.5 0,-24.5 0,-5.5 153,-5.5 153,-24.5"/>
<text text-anchor="middle" x="76.5" y="-12.5" font-family="Helvetica,sans-Serif" font-size="10.00">catena::common::fromProto</text>
</a>
</g>
</g>
<!-- Node6&#45;&gt;Node7 -->
<g id="edge7_Node000006_Node000007" class="edge">
<title>Node6&#45;&gt;Node7</title>
<g id="a_edge7_Node000006_Node000007"><a xlink:title=" ">
<path fill="none" stroke="#63b8ff" d="M181.18,-15C171.81,-15 162.33,-15 153.09,-15"/>
<polygon fill="#63b8ff" stroke="#63b8ff" points="181.29,-18.5 191.29,-15 181.29,-11.5 181.29,-18.5"/>
</a>
</g>
</g>
<!-- Node7&#45;&gt;Node7 -->
<g id="edge8_Node000007_Node000007" class="edge">
<title>Node7&#45;&gt;Node7</title>
<g id="a_edge8_Node000007_Node000007"><a xlink:title=" ">
<path fill="none" stroke="#63b8ff" d="M112.11,-32.57C111.59,-38.12 99.72,-42.5 76.5,-42.5 42.73,-42.5 32.97,-33.23 47.22,-24.58"/>
<polygon fill="#63b8ff" stroke="#63b8ff" points="114.73,-30.25 105.78,-24.58 109.25,-34.6 114.73,-30.25"/>
</a>
</g>
</g>
</g>
</svg>
