<?xml version="1.0" encoding="UTF-8" standalone="no"?>
<!DOCTYPE svg PUBLIC "-//W3C//DTD SVG 1.1//EN"
 "http://www.w3.org/Graphics/SVG/1.1/DTD/svg11.dtd">
<!-- Generated by graphviz version 2.43.0 (0)
 -->
<!-- Title: catena::common::Authorizer::writeAuthz Pages: 1 -->
<svg width="541pt" height="104pt"
 viewBox="0.00 0.00 541.00 104.00" xmlns="http://www.w3.org/2000/svg" xmlns:xlink="http://www.w3.org/1999/xlink">
<g id="graph0" class="graph" transform="scale(1 1) rotate(0) translate(4 100)">
<title>catena::common::Authorizer::writeAuthz</title>
<!-- Node1 -->
<g id="Node000001" class="node">
<title>Node1</title>
<g id="a_Node000001"><a xlink:title="Check if the client has write authorization for a param.">
<polygon fill="#999999" stroke="#666666" points="533,-63 378,-63 378,-33 533,-33 533,-63"/>
<text text-anchor="start" x="386" y="-51" font-family="Helvetica,sans-Serif" font-size="10.00">catena::common::Authorizer</text>
<text text-anchor="middle" x="455.5" y="-40" font-family="Helvetica,sans-Serif" font-size="10.00">::writeAuthz</text>
</a>
</g>
</g>
<!-- Node2 -->
<g id="Node000002" class="node">
<title>Node2</title>
<g id="a_Node000002"><a xlink:href="classcatena_1_1common_1_1Connect.html#aa0040e4b363a858cdee334dd1e36d904" target="_top" xlink:title="Sets up the authorizer object with the jwsToken and calculates connection priority.">
<polygon fill="white" stroke="#666666" points="337.5,-96 193.5,-96 193.5,-66 337.5,-66 337.5,-96"/>
<text text-anchor="start" x="201.5" y="-84" font-family="Helvetica,sans-Serif" font-size="10.00">catena::common::Connect</text>
<text text-anchor="middle" x="265.5" y="-73" font-family="Helvetica,sans-Serif" font-size="10.00">::initAuthz_</text>
</a>
</g>
</g>
<!-- Node1&#45;&gt;Node2 -->
<g id="edge1_Node000001_Node000002" class="edge">
<title>Node1&#45;&gt;Node2</title>
<g id="a_edge1_Node000001_Node000002"><a xlink:title=" ">
<path fill="none" stroke="#63b8ff" d="M367.71,-63.23C357.61,-65.01 347.4,-66.8 337.54,-68.53"/>
<polygon fill="#63b8ff" stroke="#63b8ff" points="368.52,-66.65 377.76,-61.47 367.31,-59.75 368.52,-66.65"/>
</a>
</g>
</g>
<!-- Node3 -->
<g id="Node000003" class="node">
<title>Node3</title>
<g id="a_Node000003"><a xlink:href="namespacecatena_1_1common.html#af1c59fbf2aa0f54f1e48eef6f3534241" target="_top" xlink:title=" ">
<polygon fill="white" stroke="#666666" points="342,-30 189,-30 189,0 342,0 342,-30"/>
<text text-anchor="start" x="197" y="-18" font-family="Helvetica,sans-Serif" font-size="10.00">catena::common::validFrom</text>
<text text-anchor="middle" x="265.5" y="-7" font-family="Helvetica,sans-Serif" font-size="10.00">Proto</text>
</a>
</g>
</g>
<!-- Node1&#45;&gt;Node3 -->
<g id="edge2_Node000001_Node000003" class="edge">
<title>Node1&#45;&gt;Node3</title>
<g id="a_edge2_Node000001_Node000003"><a xlink:title=" ">
<path fill="none" stroke="#63b8ff" d="M367.75,-32.77C359.18,-31.27 350.53,-29.75 342.08,-28.27"/>
<polygon fill="#63b8ff" stroke="#63b8ff" points="367.31,-36.25 377.76,-34.53 368.52,-29.35 367.31,-36.25"/>
</a>
</g>
</g>
<!-- Node3&#45;&gt;Node3 -->
<g id="edge5_Node000003_Node000003" class="edge">
<title>Node3&#45;&gt;Node3</title>
<g id="a_edge5_Node000003_Node000003"><a xlink:title=" ">
<path fill="none" stroke="#63b8ff" d="M298.41,-40.6C293.91,-44.97 282.94,-48 265.5,-48 236.12,-48 225.11,-39.41 232.45,-30.28"/>
<polygon fill="#63b8ff" stroke="#63b8ff" points="301.91,-40.32 298.55,-30.28 294.91,-40.23 301.91,-40.32"/>
</a>
</g>
</g>
<!-- Node4 -->
<g id="Node000004" class="node">
<title>Node4</title>
<g id="a_Node000004"><a xlink:href="namespacecatena_1_1common.html#a6d23bd61b79abba02698fa0c6e914895" target="_top" xlink:title=" ">
<polygon fill="white" stroke="#666666" points="153,-24.5 0,-24.5 0,-5.5 153,-5.5 153,-24.5"/>
<text text-anchor="middle" x="76.5" y="-12.5" font-family="Helvetica,sans-Serif" font-size="10.00">catena::common::fromProto</text>
</a>
</g>
</g>
<!-- Node3&#45;&gt;Node4 -->
<g id="edge3_Node000003_Node000004" class="edge">
<title>Node3&#45;&gt;Node4</title>
<g id="a_edge3_Node000003_Node000004"><a xlink:title=" ">
<path fill="none" stroke="#63b8ff" d="M178.7,-15C170.23,-15 161.67,-15 153.3,-15"/>
<polygon fill="#63b8ff" stroke="#63b8ff" points="178.98,-18.5 188.98,-15 178.98,-11.5 178.98,-18.5"/>
</a>
</g>
</g>
<!-- Node4&#45;&gt;Node4 -->
<g id="edge4_Node000004_Node000004" class="edge">
<title>Node4&#45;&gt;Node4</title>
<g id="a_edge4_Node000004_Node000004"><a xlink:title=" ">
<path fill="none" stroke="#63b8ff" d="M111.73,-32.57C111.22,-38.12 99.47,-42.5 76.5,-42.5 43.09,-42.5 33.43,-33.23 47.52,-24.58"/>
<polygon fill="#63b8ff" stroke="#63b8ff" points="114.4,-30.3 105.48,-24.58 108.89,-34.61 114.4,-30.3"/>
</a>
</g>
</g>
</g>
</svg>
