<?xml version="1.0" encoding="UTF-8" standalone="no"?>
<!DOCTYPE svg PUBLIC "-//W3C//DTD SVG 1.1//EN"
 "http://www.w3.org/Graphics/SVG/1.1/DTD/svg11.dtd">
<!-- Generated by graphviz version 2.43.0 (0)
 -->
<!-- Title: catena::common::IParamDescriptor::getSubParam Pages: 1 -->
<!--zoomable 167 -->

<svg id="main" version="1.1" xmlns="http://www.w3.org/2000/svg" xmlns:xlink="http://www.w3.org/1999/xlink" xml:space="preserve" onload="init(evt)">
<style type="text/css"><![CDATA[
.node, .edge {opacity: 0.7;}
.node.selected, .edge.selected {opacity: 1;}
.edge:hover path { stroke: red; }
.edge:hover polygon { stroke: red; fill: red; }
]]></style>

<defs>
  <circle id="rim" cx="0" cy="0" r="7"/>
  <circle id="rim2" cx="0" cy="0" r="3.5"/>
  <g id="zoomPlus">
    <use xlink:href="#rim" fill="#404040"><set attributeName="fill" to="#808080" begin="zoomplus.mouseover" end="zoomplus.mouseout"/></use>
    <path d="M-4,0h8M0,-4v8" fill="none" stroke="white" stroke-width="1.5" pointer-events="none"/>
  </g>
  <g id="zoomMin">
    <use xlink:href="#rim" fill="#404040"><set attributeName="fill" to="#808080" begin="zoomminus.mouseover" end="zoomminus.mouseout"/></use>
    <path d="M-4,0h8" fill="none" stroke="white" stroke-width="1.5" pointer-events="none"/>
  </g>
  <g id="arrowUp" transform="translate(30 24)">
    <use xlink:href="#rim"/>
    <path pointer-events="none" fill="none" stroke="white" stroke-width="1.5" d="M0,-3.0v7 M-2.5,-0.5L0,-3.0L2.5,-0.5"/>
  </g>
  <g id="arrowRight" transform="rotate(90) translate(36 -43)">
    <use xlink:href="#rim"/>
    <path pointer-events="none" fill="none" stroke="white" stroke-width="1.5" d="M0,-3.0v7 M-2.5,-0.5L0,-3.0L2.5,-0.5"/>
  </g>
  <g id="arrowDown" transform="rotate(180) translate(-30 -48)">
    <use xlink:href="#rim"/>
    <path pointer-events="none" fill="none" stroke="white" stroke-width="1.5" d="M0,-3.0v7 M-2.5,-0.5L0,-3.0L2.5,-0.5"/>
  </g>
  <g id="arrowLeft" transform="rotate(270) translate(-36 17)">
    <use xlink:href="#rim"/>
    <path pointer-events="none" fill="none" stroke="white" stroke-width="1.5" d="M0,-3.0v7 M-2.5,-0.5L0,-3.0L2.5,-0.5"/>
  </g>
  <g id="resetDef">
    <use xlink:href="#rim2" fill="#404040"><set attributeName="fill" to="#808080" begin="reset.mouseover" end="reset.mouseout"/></use>
  </g>
</defs>
<script type="application/ecmascript">
var viewWidth = 579;
var viewHeight = 167;
var sectionId = 'dynsection-7';
</script>
<script type="application/ecmascript" xlink:href="svg.min.js"/>
<svg id="graph" class="graph">
<g id="viewport">
<title>catena::common::IParamDescriptor::getSubParam</title>
<!-- Node1 -->
<g id="Node000001" class="node">
<title>Node1</title>
<g id="a_Node000001"><a xlink:title="gets a sub parameter&#39;s paramDescriptor">
<polygon fill="#999999" stroke="#666666" points="571,-115 383,-115 383,-85 571,-85 571,-115"/>
<text text-anchor="start" x="391" y="-103" font-family="Helvetica,sans-Serif" font-size="10.00">catena::common::IParamDescriptor</text>
<text text-anchor="middle" x="477" y="-92" font-family="Helvetica,sans-Serif" font-size="10.00">::getSubParam</text>
</a>
</g>
</g>
<!-- Node2 -->
<g id="Node000002" class="node">
<title>Node2</title>
<g id="a_Node000002"><a xlink:href="namespacecatena_1_1common.html#a5ad5f48a946620a675877d2301531370" target="_top" xlink:title=" ">
<polygon fill="white" stroke="#666666" points="155.5,-140.5 2.5,-140.5 2.5,-121.5 155.5,-121.5 155.5,-140.5"/>
<text text-anchor="middle" x="79" y="-128.5" font-family="Helvetica,sans-Serif" font-size="10.00">catena::common::fromProto</text>
</a>
</g>
</g>
<!-- Node1&#45;&gt;Node2 -->
<g id="edge1_Node000001_Node000002" class="edge">
<title>Node1&#45;&gt;Node2</title>
<g id="a_edge1_Node000001_Node000002"><a xlink:title=" ">
<path fill="none" stroke="#63b8ff" d="M425.08,-118.16C401.64,-125.59 373.24,-133.31 347,-137 282.95,-146 209.42,-143.41 155.76,-139.19"/>
<polygon fill="#63b8ff" stroke="#63b8ff" points="426.38,-121.42 434.81,-115 424.22,-114.76 426.38,-121.42"/>
</a>
</g>
</g>
<!-- Node3 -->
<g id="Node000003" class="node">
<title>Node3</title>
<g id="a_Node000003"><a xlink:href="namespacecatena_1_1common.html#aa45a6f4433e677dd49851d61bdee0350" target="_top" xlink:title=" ">
<polygon fill="white" stroke="#666666" points="340.5,-109.5 200.5,-109.5 200.5,-90.5 340.5,-90.5 340.5,-109.5"/>
<text text-anchor="middle" x="270.5" y="-97.5" font-family="Helvetica,sans-Serif" font-size="10.00">catena::common::toProto</text>
</a>
</g>
</g>
<!-- Node1&#45;&gt;Node3 -->
<g id="edge3_Node000001_Node000003" class="edge">
<title>Node1&#45;&gt;Node3</title>
<g id="a_edge3_Node000001_Node000003"><a xlink:title=" ">
<path fill="none" stroke="#63b8ff" d="M372.45,-100C361.71,-100 351,-100 340.78,-100"/>
<polygon fill="#63b8ff" stroke="#63b8ff" points="372.73,-103.5 382.73,-100 372.73,-96.5 372.73,-103.5"/>
</a>
</g>
</g>
<!-- Node4 -->
<g id="Node000004" class="node">
<title>Node4</title>
<g id="a_Node000004"><a xlink:href="namespacecatena_1_1common.html#a846f2287f628fa1adeba439f9dc37fba" target="_top" xlink:title=" ">
<polygon fill="white" stroke="#666666" points="347,-54 194,-54 194,-24 347,-24 347,-54"/>
<text text-anchor="start" x="202" y="-42" font-family="Helvetica,sans-Serif" font-size="10.00">catena::common::validFrom</text>
<text text-anchor="middle" x="270.5" y="-31" font-family="Helvetica,sans-Serif" font-size="10.00">Proto</text>
</a>
</g>
</g>
<!-- Node1&#45;&gt;Node4 -->
<g id="edge5_Node000001_Node000004" class="edge">
<title>Node1&#45;&gt;Node4</title>
<g id="a_edge5_Node000001_Node000004"><a xlink:title=" ">
<path fill="none" stroke="#63b8ff" d="M415.83,-82.05C385.99,-73.15 350.35,-62.52 321.95,-54.05"/>
<polygon fill="#63b8ff" stroke="#63b8ff" points="415.13,-85.5 425.71,-85 417.13,-78.79 415.13,-85.5"/>
</a>
</g>
</g>
<!-- Node2&#45;&gt;Node2 -->
<g id="edge2_Node000002_Node000002" class="edge">
<title>Node2&#45;&gt;Node2</title>
<g id="a_edge2_Node000002_Node000002"><a xlink:title=" ">
<path fill="none" stroke="#63b8ff" d="M114.61,-148.57C114.09,-154.12 102.22,-158.5 79,-158.5 45.23,-158.5 35.47,-149.23 49.72,-140.58"/>
<polygon fill="#63b8ff" stroke="#63b8ff" points="117.23,-146.25 108.28,-140.58 111.75,-150.6 117.23,-146.25"/>
</a>
</g>
</g>
<!-- Node3&#45;&gt;Node3 -->
<g id="edge4_Node000003_Node000003" class="edge">
<title>Node3&#45;&gt;Node3</title>
<g id="a_edge4_Node000003_Node000003"><a xlink:title=" ">
<path fill="none" stroke="#63b8ff" d="M306.11,-117.57C305.59,-123.12 293.72,-127.5 270.5,-127.5 236.73,-127.5 226.97,-118.23 241.22,-109.58"/>
<polygon fill="#63b8ff" stroke="#63b8ff" points="308.73,-115.25 299.78,-109.58 303.25,-119.6 308.73,-115.25"/>
</a>
</g>
</g>
<!-- Node4&#45;&gt;Node2 -->
<g id="edge6_Node000004_Node000002" class="edge">
<title>Node4&#45;&gt;Node2</title>
<g id="a_edge6_Node000004_Node000002"><a xlink:title=" ">
<path fill="none" stroke="#63b8ff" d="M229.03,-58.65C189.24,-77.97 130.16,-106.65 99.72,-121.43"/>
<polygon fill="#63b8ff" stroke="#63b8ff" points="230.74,-61.71 238.21,-54.19 227.68,-55.41 230.74,-61.71"/>
</a>
</g>
</g>
<!-- Node4&#45;&gt;Node4 -->
<g id="edge9_Node000004_Node000004" class="edge">
<title>Node4&#45;&gt;Node4</title>
<g id="a_edge9_Node000004_Node000004"><a xlink:title=" ">
<path fill="none" stroke="#63b8ff" d="M303.76,-64.6C299.21,-68.97 288.13,-72 270.5,-72 240.81,-72 229.68,-63.41 237.1,-54.28"/>
<polygon fill="#63b8ff" stroke="#63b8ff" points="307.26,-64.32 303.9,-54.28 300.26,-64.23 307.26,-64.32"/>
</a>
</g>
</g>
<!-- Node5 -->
<g id="Node000005" class="node">
<title>Node5</title>
<g id="a_Node000005"><a xlink:href="classcatena_1_1common_1_1ParamWithValue.html#a93a1437fd14b795386ca38db3db5facd" target="_top" xlink:title="Insert/append value to array overload of validateSetValue_.">
<polygon fill="white" stroke="#666666" points="158,-78 0,-78 0,-48 158,-48 158,-78"/>
<text text-anchor="start" x="8" y="-66" font-family="Helvetica,sans-Serif" font-size="10.00">catena::common::ParamWith</text>
<text text-anchor="middle" x="79" y="-55" font-family="Helvetica,sans-Serif" font-size="10.00">Value::validateSetValue_</text>
</a>
</g>
</g>
<!-- Node4&#45;&gt;Node5 -->
<g id="edge7_Node000004_Node000005" class="edge">
<title>Node4&#45;&gt;Node5</title>
<g id="a_edge7_Node000004_Node000005"><a xlink:title=" ">
<path fill="none" stroke="#63b8ff" d="M183.79,-49.85C175.22,-50.94 166.56,-52.04 158.07,-53.11"/>
<polygon fill="#63b8ff" stroke="#63b8ff" points="184.31,-53.32 193.79,-48.59 183.43,-46.37 184.31,-53.32"/>
</a>
</g>
</g>
<!-- Node6 -->
<g id="Node000006" class="node">
<title>Node6</title>
<g id="a_Node000006"><a xlink:href="classcatena_1_1common_1_1ParamWithValue.html#aa4013b24573981dcbe131d9692f81578" target="_top" xlink:title="Default overload of validateSetValue_ used in cases where type(U) == type(V).">
<polygon fill="white" stroke="#666666" points="158,-30 0,-30 0,0 158,0 158,-30"/>
<text text-anchor="start" x="8" y="-18" font-family="Helvetica,sans-Serif" font-size="10.00">catena::common::ParamWith</text>
<text text-anchor="middle" x="79" y="-7" font-family="Helvetica,sans-Serif" font-size="10.00">Value::validateSetValue_</text>
</a>
</g>
</g>
<!-- Node4&#45;&gt;Node6 -->
<g id="edge8_Node000004_Node000006" class="edge">
<title>Node4&#45;&gt;Node6</title>
<g id="a_edge8_Node000004_Node000006"><a xlink:title=" ">
<path fill="none" stroke="#63b8ff" d="M183.79,-28.15C175.22,-27.06 166.56,-25.96 158.07,-24.89"/>
<polygon fill="#63b8ff" stroke="#63b8ff" points="183.43,-31.63 193.79,-29.41 184.31,-24.68 183.43,-31.63"/>
</a>
</g>
</g>
</g>
</svg>

<g id="navigator" transform="translate(0 0)" fill="#404254">
  <rect fill="#f2f5e9" fill-opacity="0.5" stroke="#606060" stroke-width=".5" x="0" y="0" width="60" height="60"/>
  <use id="zoomplus" xlink:href="#zoomPlus" x="17" y="9" onmousedown="handleZoom(evt,'in')"/>
  <use id="zoomminus" xlink:href="#zoomMin" x="42" y="9" onmousedown="handleZoom(evt,'out')"/>
  <use id="reset" xlink:href="#resetDef" x="30" y="36" onmousedown="handleReset()"/>
   <use id="arrowup" xlink:href="#arrowUp" x="0" y="0" onmousedown="handlePan(0,-1)"/>
  <use id="arrowright" xlink:href="#arrowRight" x="0" y="0" onmousedown="handlePan(1,0)"/>
  <use id="arrowdown" xlink:href="#arrowDown" x="0" y="0" onmousedown="handlePan(0,1)"/>
  <use id="arrowleft" xlink:href="#arrowLeft" x="0" y="0" onmousedown="handlePan(-1,0)"/>
</g>
<svg viewBox="0 0 15 15" width="100%" height="30px" preserveAspectRatio="xMaxYMin meet">
 <g id="arrow_out" transform="scale(0.3 0.3)">
  <a xlink:href="classcatena_1_1common_1_1IParamDescriptor_a4ae36042fdac3f9b742f364b162e8cf5_icgraph_org.svg" target="_base">
   <rect id="button" ry="5" rx="5" y="6" x="6" height="38" width="38"
        fill="#f2f5e9" fill-opacity="0.5" stroke="#606060" stroke-width="1.0"/>
   <path id="arrow"
     d="M 11.500037,31.436501 C 11.940474,20.09759 22.043105,11.32322 32.158766,21.979434 L 37.068811,17.246167 C 37.068811,17.246167 37.088388,32 37.088388,32 L 22.160133,31.978069 C 22.160133,31.978069 26.997745,27.140456 26.997745,27.140456 C 18.528582,18.264221 13.291696,25.230495 11.500037,31.436501 z"
     style="fill:#404040;"/>
  </a>
 </g>
</svg>

<style type='text/css'>
<![CDATA[
[data-mouse-over-selected='false'] { opacity: 0.7; }
[data-mouse-over-selected='true']  { opacity: 1.0; }
]]>
</style>
<script type="application/ecmascript"><![CDATA[
document.addEventListener('DOMContentLoaded', (event) => {
  highlightEdges();
  highlightAdjacentNodes();
});
]]></script>
</svg>
