<?xml version="1.0" encoding="UTF-8" standalone="no"?>
<!DOCTYPE svg PUBLIC "-//W3C//DTD SVG 1.1//EN"
 "http://www.w3.org/Graphics/SVG/1.1/DTD/svg11.dtd">
<!-- Generated by graphviz version 2.43.0 (0)
 -->
<!-- Title: catena::REST::ICallData Pages: 1 -->
<svg width="498pt" height="273pt"
 viewBox="0.00 0.00 498.00 273.00" xmlns="http://www.w3.org/2000/svg" xmlns:xlink="http://www.w3.org/1999/xlink">

<svg id="main" version="1.1" xmlns="http://www.w3.org/2000/svg" xmlns:xlink="http://www.w3.org/1999/xlink" xml:space="preserve" onload="init(evt)">
<style type="text/css"><![CDATA[
.node, .edge {opacity: 0.7;}
.node.selected, .edge.selected {opacity: 1;}
.edge:hover path { stroke: red; }
.edge:hover polygon { stroke: red; fill: red; }
]]></style>
<script type="application/ecmascript" xlink:href="svg.min.js"/>
<svg id="graph" class="graph">
<g id="graph0" class="graph" transform="scale(1 1) rotate(0) translate(4 269)">
<title>catena::REST::ICallData</title>
<!-- Node1 -->
<g id="Node000001" class="node">
<title>Node1</title>
<g id="a_Node000001"><a xlink:title="Interface class for the REST API RPCs.">
<polygon fill="#999999" stroke="#666666" points="131,-142 0,-142 0,-123 131,-123 131,-142"/>
<text text-anchor="middle" x="65.5" y="-130" font-family="Helvetica,sans-Serif" font-size="10.00">catena::REST::ICallData</text>
</a>
</g>
</g>
<!-- Node2 -->
<g id="Node000002" class="node">
<title>Node2</title>
<g id="a_Node000002"><a xlink:href="classcatena_1_1REST_1_1Connect.html" target="_top" xlink:title="ICallData class for the Connect REST RPC.">
<polygon fill="white" stroke="#666666" points="309,-265 184,-265 184,-246 309,-246 309,-265"/>
<text text-anchor="middle" x="246.5" y="-253" font-family="Helvetica,sans-Serif" font-size="10.00">catena::REST::Connect</text>
</a>
</g>
</g>
<!-- Node1&#45;&gt;Node2 -->
<g id="edge1_Node000001_Node000002" class="edge">
<title>Node1&#45;&gt;Node2</title>
<g id="a_edge1_Node000001_Node000002"><a xlink:title=" ">
<path fill="none" stroke="#63b8ff" d="M78.59,-150.56C95.48,-174.32 128.45,-215.61 167,-237.5 173.08,-240.95 179.78,-243.74 186.62,-246"/>
<polygon fill="#63b8ff" stroke="#63b8ff" points="81.31,-148.34 72.73,-142.11 75.55,-152.32 81.31,-148.34"/>
</a>
</g>
</g>
<!-- Node3 -->
<g id="Node000003" class="node">
<title>Node3</title>
<g id="a_Node000003"><a xlink:href="classcatena_1_1REST_1_1DeviceRequest.html" target="_top" xlink:title="ICallData class for the DeviceRequest REST RPC.">
<polygon fill="white" stroke="#666666" points="326,-228 167,-228 167,-209 326,-209 326,-228"/>
<text text-anchor="middle" x="246.5" y="-216" font-family="Helvetica,sans-Serif" font-size="10.00">catena::REST::DeviceRequest</text>
</a>
</g>
</g>
<!-- Node1&#45;&gt;Node3 -->
<g id="edge2_Node000001_Node000003" class="edge">
<title>Node1&#45;&gt;Node3</title>
<g id="a_edge2_Node000001_Node000003"><a xlink:title=" ">
<path fill="none" stroke="#63b8ff" d="M86.13,-148.65C105.55,-163.85 136.68,-186.22 167,-199.5 175.73,-203.32 185.37,-206.46 194.81,-209"/>
<polygon fill="#63b8ff" stroke="#63b8ff" points="88.07,-145.72 78.07,-142.22 83.71,-151.19 88.07,-145.72"/>
</a>
</g>
</g>
<!-- Node4 -->
<g id="Node000004" class="node">
<title>Node4</title>
<g id="a_Node000004"><a xlink:href="classcatena_1_1REST_1_1GetPopulatedSlots.html" target="_top" xlink:title="ICallData class for the GetPopulatedSlots REST RPC.">
<polygon fill="white" stroke="#666666" points="322.5,-190.5 170.5,-190.5 170.5,-160.5 322.5,-160.5 322.5,-190.5"/>
<text text-anchor="start" x="178.5" y="-178.5" font-family="Helvetica,sans-Serif" font-size="10.00">catena::REST::GetPopulated</text>
<text text-anchor="middle" x="246.5" y="-167.5" font-family="Helvetica,sans-Serif" font-size="10.00">Slots</text>
</a>
</g>
</g>
<!-- Node1&#45;&gt;Node4 -->
<g id="edge3_Node000001_Node000004" class="edge">
<title>Node1&#45;&gt;Node4</title>
<g id="a_edge3_Node000001_Node000004"><a xlink:title=" ">
<path fill="none" stroke="#63b8ff" d="M116.08,-144.41C136.8,-149.39 161.11,-155.23 183.03,-160.49"/>
<polygon fill="#63b8ff" stroke="#63b8ff" points="116.77,-140.98 106.23,-142.04 115.13,-147.78 116.77,-140.98"/>
</a>
</g>
</g>
<!-- Node5 -->
<g id="Node000005" class="node">
<title>Node5</title>
<g id="a_Node000005"><a xlink:href="classcatena_1_1REST_1_1GetValue.html" target="_top" xlink:title="ICallData class for the GetValue REST RPC.">
<polygon fill="white" stroke="#666666" points="311.5,-142 181.5,-142 181.5,-123 311.5,-123 311.5,-142"/>
<text text-anchor="middle" x="246.5" y="-130" font-family="Helvetica,sans-Serif" font-size="10.00">catena::REST::GetValue</text>
</a>
</g>
</g>
<!-- Node1&#45;&gt;Node5 -->
<g id="edge4_Node000001_Node000005" class="edge">
<title>Node1&#45;&gt;Node5</title>
<g id="a_edge4_Node000001_Node000005"><a xlink:title=" ">
<path fill="none" stroke="#63b8ff" d="M141.2,-132.5C154.51,-132.5 168.28,-132.5 181.27,-132.5"/>
<polygon fill="#63b8ff" stroke="#63b8ff" points="141.12,-129 131.12,-132.5 141.12,-136 141.12,-129"/>
</a>
</g>
</g>
<!-- Node6 -->
<g id="Node000006" class="node">
<title>Node6</title>
<g id="a_Node000006"><a xlink:href="classcatena_1_1REST_1_1LanguagePackRequest.html" target="_top" xlink:title="ICallData class for the LanguagePackRequest REST RPC.">
<polygon fill="white" stroke="#666666" points="324,-104.5 169,-104.5 169,-74.5 324,-74.5 324,-104.5"/>
<text text-anchor="start" x="177" y="-92.5" font-family="Helvetica,sans-Serif" font-size="10.00">catena::REST::LanguagePack</text>
<text text-anchor="middle" x="246.5" y="-81.5" font-family="Helvetica,sans-Serif" font-size="10.00">Request</text>
</a>
</g>
</g>
<!-- Node1&#45;&gt;Node6 -->
<g id="edge5_Node000001_Node000006" class="edge">
<title>Node1&#45;&gt;Node6</title>
<g id="a_edge5_Node000001_Node000006"><a xlink:title=" ">
<path fill="none" stroke="#63b8ff" d="M116.08,-120.59C136.8,-115.61 161.11,-109.77 183.03,-104.51"/>
<polygon fill="#63b8ff" stroke="#63b8ff" points="115.13,-117.22 106.23,-122.96 116.77,-124.02 115.13,-117.22"/>
</a>
</g>
</g>
<!-- Node7 -->
<g id="Node000007" class="node">
<title>Node7</title>
<g id="a_Node000007"><a xlink:href="classcatena_1_1REST_1_1ListLanguages.html" target="_top" xlink:title="ICallData class for the ListLanguages REST RPC.">
<polygon fill="white" stroke="#666666" points="324,-56 169,-56 169,-37 324,-37 324,-56"/>
<text text-anchor="middle" x="246.5" y="-44" font-family="Helvetica,sans-Serif" font-size="10.00">catena::REST::ListLanguages</text>
</a>
</g>
</g>
<!-- Node1&#45;&gt;Node7 -->
<g id="edge6_Node000001_Node000007" class="edge">
<title>Node1&#45;&gt;Node7</title>
<g id="a_edge6_Node000001_Node000007"><a xlink:title=" ">
<path fill="none" stroke="#63b8ff" d="M86.13,-116.35C105.55,-101.15 136.68,-78.78 167,-65.5 175.73,-61.68 185.37,-58.54 194.81,-56"/>
<polygon fill="#63b8ff" stroke="#63b8ff" points="83.71,-113.81 78.07,-122.78 88.07,-119.28 83.71,-113.81"/>
</a>
</g>
</g>
<!-- Node8 -->
<g id="Node000008" class="node">
<title>Node8</title>
<g id="a_Node000008"><a xlink:href="classcatena_1_1REST_1_1MultiSetValue.html" target="_top" xlink:title="Generic ICallData class for the SetValue and MultiSetValue REST RPCs.">
<polygon fill="white" stroke="#666666" points="323,-19 170,-19 170,0 323,0 323,-19"/>
<text text-anchor="middle" x="246.5" y="-7" font-family="Helvetica,sans-Serif" font-size="10.00">catena::REST::MultiSetValue</text>
</a>
</g>
</g>
<!-- Node1&#45;&gt;Node8 -->
<g id="edge7_Node000001_Node000008" class="edge">
<title>Node1&#45;&gt;Node8</title>
<g id="a_edge7_Node000001_Node000008"><a xlink:title=" ">
<path fill="none" stroke="#63b8ff" d="M78.92,-114.33C95.98,-90.82 128.91,-50.31 167,-28.5 173.81,-24.6 181.4,-21.49 189.1,-19.03"/>
<polygon fill="#63b8ff" stroke="#63b8ff" points="75.91,-112.52 72.99,-122.71 81.63,-116.57 75.91,-112.52"/>
</a>
</g>
</g>
<!-- Node9 -->
<g id="Node000009" class="node">
<title>Node9</title>
<g id="a_Node000009"><a xlink:href="classcatena_1_1REST_1_1SetValue.html" target="_top" xlink:title="ICallData class for the SetValue REST RPC.">
<polygon fill="white" stroke="#666666" points="490,-19 362,-19 362,0 490,0 490,-19"/>
<text text-anchor="middle" x="426" y="-7" font-family="Helvetica,sans-Serif" font-size="10.00">catena::REST::SetValue</text>
</a>
</g>
</g>
<!-- Node8&#45;&gt;Node9 -->
<g id="edge8_Node000008_Node000009" class="edge">
<title>Node8&#45;&gt;Node9</title>
<g id="a_edge8_Node000008_Node000009"><a xlink:title=" ">
<path fill="none" stroke="#63b8ff" d="M333.09,-9.5C342.77,-9.5 352.51,-9.5 361.83,-9.5"/>
<polygon fill="#63b8ff" stroke="#63b8ff" points="333.03,-6 323.03,-9.5 333.03,-13 333.03,-6"/>
</a>
</g>
</g>
</g>
</svg>
</svg>

<style type='text/css'>
<![CDATA[
[data-mouse-over-selected='false'] { opacity: 0.7; }
[data-mouse-over-selected='true']  { opacity: 1.0; }
]]>
</style>
<script type="application/ecmascript"><![CDATA[
document.addEventListener('DOMContentLoaded', (event) => {
  highlightEdges();
  highlightAdjacentNodes();
});
]]></script>
</svg>
