<?xml version="1.0" encoding="UTF-8" standalone="no"?>
<!DOCTYPE svg PUBLIC "-//W3C//DTD SVG 1.1//EN"
 "http://www.w3.org/Graphics/SVG/1.1/DTD/svg11.dtd">
<!-- Generated by graphviz version 2.43.0 (0)
 -->
<!-- Title: catena::common::IConstraint Pages: 1 -->
<svg width="414pt" height="93pt"
 viewBox="0.00 0.00 413.50 93.00" xmlns="http://www.w3.org/2000/svg" xmlns:xlink="http://www.w3.org/1999/xlink">
<g id="graph0" class="graph" transform="scale(1 1) rotate(0) translate(4 89)">
<title>catena::common::IConstraint</title>
<!-- Node1 -->
<g id="Node000001" class="node">
<title>Node1</title>
<g id="a_Node000001"><a xlink:title="Interface for constraints.">
<polygon fill="#999999" stroke="#666666" points="271.5,-85 113.5,-85 113.5,-66 271.5,-66 271.5,-85"/>
<text text-anchor="middle" x="192.5" y="-73" font-family="Helvetica,sans-Serif" font-size="10.00">catena::common::IConstraint</text>
</a>
</g>
</g>
<!-- Node2 -->
<g id="Node000002" class="node">
<title>Node2</title>
<g id="a_Node000002"><a xlink:href="classcatena_1_1common_1_1NamedChoiceConstraint.html" target="_top" xlink:title="Named choice constraint, ensures a value is within a named choice.">
<polygon fill="white" stroke="#666666" points="173,-30 0,-30 0,0 173,0 173,-30"/>
<text text-anchor="start" x="8" y="-18" font-family="Helvetica,sans-Serif" font-size="10.00">catena::common::NamedChoice</text>
<text text-anchor="middle" x="86.5" y="-7" font-family="Helvetica,sans-Serif" font-size="10.00">Constraint&lt; T &gt;</text>
</a>
</g>
</g>
<!-- Node1&#45;&gt;Node2 -->
<g id="edge1_Node000001_Node000002" class="edge">
<title>Node1&#45;&gt;Node2</title>
<g id="a_edge1_Node000001_Node000002"><a xlink:title=" ">
<path fill="none" stroke="#63b8ff" d="M167.7,-60.81C150.97,-51.58 128.96,-39.43 112.08,-30.11"/>
<polygon fill="#63b8ff" stroke="#63b8ff" points="166.41,-64.1 176.86,-65.87 169.8,-57.97 166.41,-64.1"/>
</a>
</g>
</g>
<!-- Node3 -->
<g id="Node000003" class="node">
<title>Node3</title>
<g id="a_Node000003"><a xlink:href="classcatena_1_1common_1_1RangeConstraint.html" target="_top" xlink:title="Range constraint, ensures a value is within a range.">
<polygon fill="white" stroke="#666666" points="405.5,-24.5 191.5,-24.5 191.5,-5.5 405.5,-5.5 405.5,-24.5"/>
<text text-anchor="middle" x="298.5" y="-12.5" font-family="Helvetica,sans-Serif" font-size="10.00">catena::common::RangeConstraint&lt; T &gt;</text>
</a>
</g>
</g>
<!-- Node1&#45;&gt;Node3 -->
<g id="edge2_Node000001_Node000003" class="edge">
<title>Node1&#45;&gt;Node3</title>
<g id="a_edge2_Node000001_Node000003"><a xlink:title=" ">
<path fill="none" stroke="#63b8ff" d="M217.1,-60.92C237.36,-49.74 265.47,-34.23 282.8,-24.67"/>
<polygon fill="#63b8ff" stroke="#63b8ff" points="215.2,-57.97 208.14,-65.87 218.59,-64.1 215.2,-57.97"/>
</a>
</g>
</g>
</g>
</svg>
