<?xml version="1.0" encoding="UTF-8" standalone="no"?>
<!DOCTYPE svg PUBLIC "-//W3C//DTD SVG 1.1//EN"
 "http://www.w3.org/Graphics/SVG/1.1/DTD/svg11.dtd">
<!-- Generated by graphviz version 2.43.0 (0)
 -->
<!-- Title: catena::common::Device::addItem Pages: 1 -->
<svg width="373pt" height="186pt"
 viewBox="0.00 0.00 373.00 186.00" xmlns="http://www.w3.org/2000/svg" xmlns:xlink="http://www.w3.org/1999/xlink">
<g id="graph0" class="graph" transform="scale(1 1) rotate(0) translate(4 182)">
<title>catena::common::Device::addItem</title>
<polygon fill="white" stroke="transparent" points="-4,4 -4,-182 369,-182 369,4 -4,4"/>
<!-- Node1 -->
<g id="node1" class="node">
<title>Node1</title>
<g id="a_node1"><a xlink:title="add an item to one of the collections owned by the device">
<polygon fill="#bfbfbf" stroke="black" points="227,-73.5 227,-103.5 365,-103.5 365,-73.5 227,-73.5"/>
<text text-anchor="start" x="235" y="-91.5" font-family="Helvetica,sans-Serif" font-size="10.00">catena::common::Device</text>
<text text-anchor="middle" x="296" y="-80.5" font-family="Helvetica,sans-Serif" font-size="10.00">::addItem</text>
</a>
</g>
</g>
<!-- Node2 -->
<g id="node2" class="node">
<title>Node2</title>
<g id="a_node2"><a xlink:href="classcatena_1_1common_1_1MenuGroup.html#a31c179f265c82835133da762ea4308a8" target="_top" xlink:title="construct a Menu Group from a list of Menus">
<polygon fill="white" stroke="black" points="15,-147.5 15,-177.5 176,-177.5 176,-147.5 15,-147.5"/>
<text text-anchor="start" x="23" y="-165.5" font-family="Helvetica,sans-Serif" font-size="10.00">catena::common::MenuGroup</text>
<text text-anchor="middle" x="95.5" y="-154.5" font-family="Helvetica,sans-Serif" font-size="10.00">::MenuGroup</text>
</a>
</g>
</g>
<!-- Node1&#45;&gt;Node2 -->
<g id="edge1" class="edge">
<title>Node1&#45;&gt;Node2</title>
<path fill="none" stroke="midnightblue" d="M258.51,-108.25C238.91,-118.3 214.08,-130.12 191,-138.5 182.01,-141.77 172.39,-144.76 162.85,-147.44"/>
<polygon fill="midnightblue" stroke="midnightblue" points="260.14,-111.35 267.4,-103.64 256.92,-105.14 260.14,-111.35"/>
</g>
<!-- Node3 -->
<g id="node3" class="node">
<title>Node3</title>
<g id="a_node3"><a xlink:href="classcatena_1_1common_1_1NamedChoiceConstraint.html#a9a1ef25b90ea1431761bc6123bb5afc4" target="_top" xlink:title="Construct a new Named Choice Constraint object.">
<polygon fill="white" stroke="black" points="0,-98.5 0,-128.5 191,-128.5 191,-98.5 0,-98.5"/>
<text text-anchor="start" x="8" y="-116.5" font-family="Helvetica,sans-Serif" font-size="10.00">catena::common::NamedChoice</text>
<text text-anchor="middle" x="95.5" y="-105.5" font-family="Helvetica,sans-Serif" font-size="10.00">Constraint::NamedChoiceConstraint</text>
</a>
</g>
</g>
<!-- Node1&#45;&gt;Node3 -->
<g id="edge2" class="edge">
<title>Node1&#45;&gt;Node3</title>
<path fill="none" stroke="midnightblue" d="M216.8,-98.35C208.37,-99.41 199.72,-100.5 191.12,-101.58"/>
<polygon fill="midnightblue" stroke="midnightblue" points="217.48,-101.79 226.97,-97.07 216.61,-94.85 217.48,-101.79"/>
</g>
<!-- Node4 -->
<g id="node4" class="node">
<title>Node4</title>
<g id="a_node4"><a xlink:href="classcatena_1_1common_1_1ParamWithValue.html#a62863951ede871efd1fd190e136023f5" target="_top" xlink:title="Construct a new ParamWithValue object and add it to the device.">
<polygon fill="white" stroke="black" points="16.5,-49.5 16.5,-79.5 174.5,-79.5 174.5,-49.5 16.5,-49.5"/>
<text text-anchor="start" x="24.5" y="-67.5" font-family="Helvetica,sans-Serif" font-size="10.00">catena::common::ParamWith</text>
<text text-anchor="middle" x="95.5" y="-56.5" font-family="Helvetica,sans-Serif" font-size="10.00">Value::ParamWithValue</text>
</a>
</g>
</g>
<!-- Node1&#45;&gt;Node4 -->
<g id="edge3" class="edge">
<title>Node1&#45;&gt;Node4</title>
<path fill="none" stroke="midnightblue" d="M216.97,-79.07C203.07,-77.38 188.59,-75.63 174.69,-73.95"/>
<polygon fill="midnightblue" stroke="midnightblue" points="216.62,-82.55 226.97,-80.27 217.46,-75.6 216.62,-82.55"/>
</g>
<!-- Node5 -->
<g id="node5" class="node">
<title>Node5</title>
<g id="a_node5"><a xlink:href="classcatena_1_1common_1_1RangeConstraint.html#a1cba6c531a4a802d221a8b50e8697d19" target="_top" xlink:title="Construct a new Range Constraint object.">
<polygon fill="white" stroke="black" points="3,-0.5 3,-30.5 188,-30.5 188,-0.5 3,-0.5"/>
<text text-anchor="start" x="11" y="-18.5" font-family="Helvetica,sans-Serif" font-size="10.00">catena::common::RangeConstraint</text>
<text text-anchor="middle" x="95.5" y="-7.5" font-family="Helvetica,sans-Serif" font-size="10.00">::RangeConstraint</text>
</a>
</g>
</g>
<!-- Node1&#45;&gt;Node5 -->
<g id="edge4" class="edge">
<title>Node1&#45;&gt;Node5</title>
<path fill="none" stroke="midnightblue" d="M256.88,-68.97C237.49,-59.53 213.35,-48.55 191,-40.5 180.94,-36.88 170.11,-33.53 159.49,-30.53"/>
<polygon fill="midnightblue" stroke="midnightblue" points="255.47,-72.17 265.98,-73.45 258.56,-65.89 255.47,-72.17"/>
</g>
</g>
</svg>
