<?xml version="1.0" encoding="UTF-8" standalone="no"?>
<!DOCTYPE svg PUBLIC "-//W3C//DTD SVG 1.1//EN"
 "http://www.w3.org/Graphics/SVG/1.1/DTD/svg11.dtd">
<!-- Generated by graphviz version 2.43.0 (0)
 -->
<!-- Title: catena::common::IAuthorizer::readAuthz Pages: 1 -->
<svg width="554pt" height="228pt"
 viewBox="0.00 0.00 554.00 227.50" xmlns="http://www.w3.org/2000/svg" xmlns:xlink="http://www.w3.org/1999/xlink">
<g id="graph0" class="graph" transform="scale(1 1) rotate(0) translate(4 223.5)">
<title>catena::common::IAuthorizer::readAuthz</title>
<!-- Node1 -->
<g id="Node000001" class="node">
<title>Node1</title>
<g id="a_Node000001"><a xlink:title="Check if the client has read authorization for a param.">
<polygon fill="#999999" stroke="#666666" points="546,-133.5 388,-133.5 388,-103.5 546,-103.5 546,-133.5"/>
<text text-anchor="start" x="396" y="-121.5" font-family="Helvetica,sans-Serif" font-size="10.00">catena::common::IAuthorizer</text>
<text text-anchor="middle" x="467" y="-110.5" font-family="Helvetica,sans-Serif" font-size="10.00">::readAuthz</text>
</a>
</g>
</g>
<!-- Node2 -->
<g id="Node000002" class="node">
<title>Node2</title>
<g id="a_Node000002"><a xlink:href="classcatena_1_1common_1_1ParamWithValue.html#a77b784c48506b34d0672493d773b8120" target="_top" xlink:title="Gets a child parameter by name.">
<polygon fill="white" stroke="#666666" points="352,-219.5 194,-219.5 194,-189.5 352,-189.5 352,-219.5"/>
<text text-anchor="start" x="202" y="-207.5" font-family="Helvetica,sans-Serif" font-size="10.00">catena::common::ParamWith</text>
<text text-anchor="middle" x="273" y="-196.5" font-family="Helvetica,sans-Serif" font-size="10.00">Value::getParam</text>
</a>
</g>
</g>
<!-- Node1&#45;&gt;Node2 -->
<g id="edge1_Node000001_Node000002" class="edge">
<title>Node1&#45;&gt;Node2</title>
<g id="a_edge1_Node000001_Node000002"><a xlink:title=" ">
<path fill="none" stroke="#63b8ff" d="M428.81,-138.37C406.76,-149.83 378.11,-164.16 352,-175.5 340.87,-180.34 328.64,-185.12 317.24,-189.37"/>
<polygon fill="#63b8ff" stroke="#63b8ff" points="430.59,-141.39 437.82,-133.65 427.34,-135.19 430.59,-141.39"/>
</a>
</g>
</g>
<!-- Node3 -->
<g id="Node000003" class="node">
<title>Node3</title>
<g id="a_Node000003"><a xlink:href="classcatena_1_1common_1_1ParamWithValue.html#a302feec9677b9cdf1181bbfeef73eafa" target="_top" xlink:title="get the child parameter that oid points to">
<polygon fill="white" stroke="#666666" points="158,-197.5 0,-197.5 0,-167.5 158,-167.5 158,-197.5"/>
<text text-anchor="start" x="8" y="-185.5" font-family="Helvetica,sans-Serif" font-size="10.00">catena::common::ParamWith</text>
<text text-anchor="middle" x="79" y="-174.5" font-family="Helvetica,sans-Serif" font-size="10.00">Value::getParam_</text>
</a>
</g>
</g>
<!-- Node1&#45;&gt;Node3 -->
<g id="edge4_Node000001_Node000003" class="edge">
<title>Node1&#45;&gt;Node3</title>
<g id="a_edge4_Node000001_Node000003"><a xlink:title=" ">
<path fill="none" stroke="#63b8ff" d="M387.99,-135.59C375.96,-138.03 363.67,-140.42 352,-142.5 286.92,-154.12 212.65,-164.88 158.17,-172.3"/>
<polygon fill="#63b8ff" stroke="#63b8ff" points="388.92,-138.97 398.02,-133.53 387.52,-132.11 388.92,-138.97"/>
</a>
</g>
</g>
<!-- Node4 -->
<g id="Node000004" class="node">
<title>Node4</title>
<g id="a_Node000004"><a xlink:href="classcatena_1_1common_1_1ParamWithValue.html#a5cdb6705e55f98fa0985c91fda3aa0e9" target="_top" xlink:title="Specialized getParam_ for EmptyValue &#45; handles template parameters with descriptor structure.">
<polygon fill="white" stroke="#666666" points="352,-133.5 194,-133.5 194,-103.5 352,-103.5 352,-133.5"/>
<text text-anchor="start" x="202" y="-121.5" font-family="Helvetica,sans-Serif" font-size="10.00">catena::common::ParamWith</text>
<text text-anchor="middle" x="273" y="-110.5" font-family="Helvetica,sans-Serif" font-size="10.00">Value::getParam_</text>
</a>
</g>
</g>
<!-- Node1&#45;&gt;Node4 -->
<g id="edge3_Node000001_Node000004" class="edge">
<title>Node1&#45;&gt;Node4</title>
<g id="a_edge3_Node000001_Node000004"><a xlink:title=" ">
<path fill="none" stroke="#63b8ff" d="M377.85,-118.5C369.23,-118.5 360.53,-118.5 352.02,-118.5"/>
<polygon fill="#63b8ff" stroke="#63b8ff" points="377.91,-122 387.91,-118.5 377.91,-115 377.91,-122"/>
</a>
</g>
</g>
<!-- Node5 -->
<g id="Node000005" class="node">
<title>Node5</title>
<g id="a_Node000005"><a xlink:href="classcatena_1_1common_1_1ParamWithValue.html#a2a76ae1eb31c3d0cb471e4a871ec90ca" target="_top" xlink:title="Serializes the parameter descriptor to a protobuf paramInfo object.">
<polygon fill="white" stroke="#666666" points="352,-85.5 194,-85.5 194,-55.5 352,-55.5 352,-85.5"/>
<text text-anchor="start" x="202" y="-73.5" font-family="Helvetica,sans-Serif" font-size="10.00">catena::common::ParamWith</text>
<text text-anchor="middle" x="273" y="-62.5" font-family="Helvetica,sans-Serif" font-size="10.00">Value::toProto</text>
</a>
</g>
</g>
<!-- Node1&#45;&gt;Node5 -->
<g id="edge5_Node000001_Node000005" class="edge">
<title>Node1&#45;&gt;Node5</title>
<g id="a_edge5_Node000001_Node000005"><a xlink:title=" ">
<path fill="none" stroke="#63b8ff" d="M395.96,-100.99C375.64,-95.91 353.65,-90.41 334.01,-85.5"/>
<polygon fill="#63b8ff" stroke="#63b8ff" points="395.23,-104.41 405.78,-103.44 396.92,-97.62 395.23,-104.41"/>
</a>
</g>
</g>
<!-- Node6 -->
<g id="Node000006" class="node">
<title>Node6</title>
<g id="a_Node000006"><a xlink:href="namespacecatena_1_1common.html#ae60728f21704d097a8446afb0de17b11" target="_top" xlink:title=" ">
<polygon fill="white" stroke="#666666" points="343,-19 203,-19 203,0 343,0 343,-19"/>
<text text-anchor="middle" x="273" y="-7" font-family="Helvetica,sans-Serif" font-size="10.00">catena::common::toProto</text>
</a>
</g>
</g>
<!-- Node1&#45;&gt;Node6 -->
<g id="edge6_Node000001_Node000006" class="edge">
<title>Node1&#45;&gt;Node6</title>
<g id="a_edge6_Node000001_Node000006"><a xlink:title=" ">
<path fill="none" stroke="#63b8ff" d="M435.28,-97.68C412.67,-82.71 380.97,-62.44 352,-46.5 333.49,-36.31 311.7,-26.12 295.87,-19.02"/>
<polygon fill="#63b8ff" stroke="#63b8ff" points="433.51,-100.71 443.77,-103.34 437.39,-94.88 433.51,-100.71"/>
</a>
</g>
</g>
<!-- Node2&#45;&gt;Node3 -->
<g id="edge2_Node000002_Node000003" class="edge">
<title>Node2&#45;&gt;Node3</title>
<g id="a_edge2_Node000002_Node000003"><a xlink:title=" ">
<path fill="none" stroke="#63b8ff" d="M183.85,-194.4C175.23,-193.41 166.53,-192.41 158.02,-191.44"/>
<polygon fill="#63b8ff" stroke="#63b8ff" points="183.57,-197.89 193.91,-195.55 184.37,-190.94 183.57,-197.89"/>
</a>
</g>
</g>
<!-- Node6&#45;&gt;Node6 -->
<g id="edge7_Node000006_Node000006" class="edge">
<title>Node6&#45;&gt;Node6</title>
<g id="a_edge7_Node000006_Node000006"><a xlink:title=" ">
<path fill="none" stroke="#63b8ff" d="M308.98,-27.07C308.45,-32.62 296.46,-37 273,-37 238.87,-37 229.01,-27.73 243.41,-19.08"/>
<polygon fill="#63b8ff" stroke="#63b8ff" points="311.57,-24.71 302.59,-19.08 306.11,-29.08 311.57,-24.71"/>
</a>
</g>
</g>
</g>
</svg>
