<?xml version="1.0" encoding="UTF-8" standalone="no"?>
<!DOCTYPE svg PUBLIC "-//W3C//DTD SVG 1.1//EN"
 "http://www.w3.org/Graphics/SVG/1.1/DTD/svg11.dtd">
<!-- Generated by graphviz version 2.43.0 (0)
 -->
<!-- Title: catena::common::Connect::updateResponse Pages: 1 -->
<svg width="343pt" height="86pt"
 viewBox="0.00 0.00 343.00 86.00" xmlns="http://www.w3.org/2000/svg" xmlns:xlink="http://www.w3.org/1999/xlink">
<g id="graph0" class="graph" transform="scale(1 1) rotate(0) translate(4 82)">
<title>catena::common::Connect::updateResponse</title>
<!-- Node1 -->
<g id="Node000001" class="node">
<title>Node1</title>
<g id="a_Node000001"><a xlink:title="Updates the response message with a ComponentLanguagePack and handles authorization checks.">
<polygon fill="#999999" stroke="#666666" points="144,-54 0,-54 0,-24 144,-24 144,-54"/>
<text text-anchor="start" x="8" y="-42" font-family="Helvetica,sans-Serif" font-size="10.00">catena::common::Connect</text>
<text text-anchor="middle" x="72" y="-31" font-family="Helvetica,sans-Serif" font-size="10.00">::updateResponse</text>
</a>
</g>
</g>
<!-- Node2 -->
<g id="Node000002" class="node">
<title>Node2</title>
<g id="a_Node000002"><a xlink:href="classcatena_1_1common_1_1Authorizer.html#a888e960c8e58b0dc2674c05cf2085957" target="_top" xlink:title="Check if the client has the specified authorization.">
<polygon fill="white" stroke="#666666" points="335,-78 180,-78 180,-48 335,-48 335,-78"/>
<text text-anchor="start" x="188" y="-66" font-family="Helvetica,sans-Serif" font-size="10.00">catena::common::Authorizer</text>
<text text-anchor="middle" x="257.5" y="-55" font-family="Helvetica,sans-Serif" font-size="10.00">::hasAuthz</text>
</a>
</g>
</g>
<!-- Node1&#45;&gt;Node2 -->
<g id="edge1_Node000001_Node000002" class="edge">
<title>Node1&#45;&gt;Node2</title>
<g id="a_edge1_Node000001_Node000002"><a xlink:title=" ">
<path fill="none" stroke="#63b8ff" d="M144.21,-48.31C152.61,-49.41 161.25,-50.54 169.83,-51.66"/>
<polygon fill="#63b8ff" stroke="#63b8ff" points="169.49,-55.15 179.86,-52.98 170.4,-48.21 169.49,-55.15"/>
</a>
</g>
</g>
<!-- Node3 -->
<g id="Node000003" class="node">
<title>Node3</title>
<g id="a_Node000003"><a xlink:href="classcatena_1_1common_1_1Connect.html#aa1c4558577583214e76b4a359a501acb" target="_top" xlink:title="Returns true if the call has been canceled.">
<polygon fill="white" stroke="#666666" points="329.5,-30 185.5,-30 185.5,0 329.5,0 329.5,-30"/>
<text text-anchor="start" x="193.5" y="-18" font-family="Helvetica,sans-Serif" font-size="10.00">catena::common::Connect</text>
<text text-anchor="middle" x="257.5" y="-7" font-family="Helvetica,sans-Serif" font-size="10.00">::isCancelled</text>
</a>
</g>
</g>
<!-- Node1&#45;&gt;Node3 -->
<g id="edge2_Node000001_Node000003" class="edge">
<title>Node1&#45;&gt;Node3</title>
<g id="a_edge2_Node000001_Node000003"><a xlink:title=" ">
<path fill="none" stroke="#63b8ff" d="M144.21,-29.69C154.33,-28.36 164.81,-26.99 175.11,-25.65"/>
<polygon fill="#63b8ff" stroke="#63b8ff" points="175.87,-29.08 185.33,-24.31 174.96,-22.13 175.87,-29.08"/>
</a>
</g>
</g>
</g>
</svg>
