<?xml version="1.0" encoding="UTF-8" standalone="no"?>
<!DOCTYPE svg PUBLIC "-//W3C//DTD SVG 1.1//EN"
 "http://www.w3.org/Graphics/SVG/1.1/DTD/svg11.dtd">
<!-- Generated by graphviz version 2.43.0 (0)
 -->
<!-- Title: catena::common::Authorizer::readAuthz Pages: 1 -->
<svg width="357pt" height="230pt"
 viewBox="0.00 0.00 357.00 230.00" xmlns="http://www.w3.org/2000/svg" xmlns:xlink="http://www.w3.org/1999/xlink">

<svg id="main" version="1.1" xmlns="http://www.w3.org/2000/svg" xmlns:xlink="http://www.w3.org/1999/xlink" xml:space="preserve" onload="init(evt)">
<style type="text/css"><![CDATA[
.node, .edge {opacity: 0.7;}
.node.selected, .edge.selected {opacity: 1;}
.edge:hover path { stroke: red; }
.edge:hover polygon { stroke: red; fill: red; }
]]></style>
<script type="application/ecmascript" xlink:href="svg.min.js"/>
<svg id="graph" class="graph">
<g id="graph0" class="graph" transform="scale(1 1) rotate(0) translate(4 226)">
<title>catena::common::Authorizer::readAuthz</title>
<!-- Node1 -->
<g id="Node000001" class="node">
<title>Node1</title>
<g id="a_Node000001"><a xlink:title="Check if the client has read authorization.">
<polygon fill="#999999" stroke="#666666" points="349,-126 194,-126 194,-96 349,-96 349,-126"/>
<text text-anchor="start" x="202" y="-114" font-family="Helvetica,sans-Serif" font-size="10.00">catena::common::Authorizer</text>
<text text-anchor="middle" x="271.5" y="-103" font-family="Helvetica,sans-Serif" font-size="10.00">::readAuthz</text>
</a>
</g>
</g>
<!-- Node2 -->
<g id="Node000002" class="node">
<title>Node2</title>
<g id="a_Node000002"><a xlink:href="classcatena_1_1common_1_1ParamWithValue.html#a6027ca23cb1897c44d933a9f3a4dd29d" target="_top" xlink:title="deserialize the parameter value from protobuf if authorized">
<polygon fill="white" stroke="#666666" points="158,-222 0,-222 0,-192 158,-192 158,-222"/>
<text text-anchor="start" x="8" y="-210" font-family="Helvetica,sans-Serif" font-size="10.00">catena::common::ParamWith</text>
<text text-anchor="middle" x="79" y="-199" font-family="Helvetica,sans-Serif" font-size="10.00">Value::fromProto</text>
</a>
</g>
</g>
<!-- Node1&#45;&gt;Node2 -->
<g id="edge1_Node000001_Node000002" class="edge">
<title>Node1&#45;&gt;Node2</title>
<g id="a_edge1_Node000001_Node000002"><a xlink:title=" ">
<path fill="none" stroke="#63b8ff" d="M242.5,-131.97C220.45,-147.71 188.46,-168.89 158,-183 150.93,-186.28 143.3,-189.25 135.67,-191.91"/>
<polygon fill="#63b8ff" stroke="#63b8ff" points="244.67,-134.71 250.72,-126.02 240.57,-129.04 244.67,-134.71"/>
</a>
</g>
</g>
<!-- Node3 -->
<g id="Node000003" class="node">
<title>Node3</title>
<g id="a_Node000003"><a xlink:href="classcatena_1_1common_1_1ParamWithValue.html#ac9e59ebcc2bfa81da748bbe3f431437d" target="_top" xlink:title="serialize the parameter descriptor to protobuf include both the descriptor and the value">
<polygon fill="white" stroke="#666666" points="158,-174 0,-174 0,-144 158,-144 158,-174"/>
<text text-anchor="start" x="8" y="-162" font-family="Helvetica,sans-Serif" font-size="10.00">catena::common::ParamWith</text>
<text text-anchor="middle" x="79" y="-151" font-family="Helvetica,sans-Serif" font-size="10.00">Value::toProto</text>
</a>
</g>
</g>
<!-- Node1&#45;&gt;Node3 -->
<g id="edge2_Node000001_Node000003" class="edge">
<title>Node1&#45;&gt;Node3</title>
<g id="a_edge2_Node000001_Node000003"><a xlink:title=" ">
<path fill="none" stroke="#63b8ff" d="M201,-128.51C180.85,-133.59 159.03,-139.09 139.54,-144"/>
<polygon fill="#63b8ff" stroke="#63b8ff" points="201.91,-131.89 210.75,-126.06 200.2,-125.11 201.91,-131.89"/>
</a>
</g>
</g>
<!-- Node4 -->
<g id="Node000004" class="node">
<title>Node4</title>
<g id="a_Node000004"><a xlink:href="classcatena_1_1common_1_1ParamWithValue.html#ac3bed0393b165df02bd34a7520733509" target="_top" xlink:title="serialize the parameter descriptor to protobuf include both the descriptor and the value">
<polygon fill="white" stroke="#666666" points="158,-126 0,-126 0,-96 158,-96 158,-126"/>
<text text-anchor="start" x="8" y="-114" font-family="Helvetica,sans-Serif" font-size="10.00">catena::common::ParamWith</text>
<text text-anchor="middle" x="79" y="-103" font-family="Helvetica,sans-Serif" font-size="10.00">Value::toProto</text>
</a>
</g>
</g>
<!-- Node1&#45;&gt;Node4 -->
<g id="edge3_Node000001_Node000004" class="edge">
<title>Node1&#45;&gt;Node4</title>
<g id="a_edge3_Node000001_Node000004"><a xlink:title=" ">
<path fill="none" stroke="#63b8ff" d="M183.82,-111C175.23,-111 166.55,-111 158.06,-111"/>
<polygon fill="#63b8ff" stroke="#63b8ff" points="183.84,-114.5 193.84,-111 183.84,-107.5 183.84,-114.5"/>
</a>
</g>
</g>
<!-- Node5 -->
<g id="Node000005" class="node">
<title>Node5</title>
<g id="a_Node000005"><a xlink:href="classcatena_1_1common_1_1ParamWithValue.html#a3115eb76fded6e5f7380c6f4b8ad7c49" target="_top" xlink:title="serialize the parameter value to protobuf if authorized">
<polygon fill="white" stroke="#666666" points="158,-78 0,-78 0,-48 158,-48 158,-78"/>
<text text-anchor="start" x="8" y="-66" font-family="Helvetica,sans-Serif" font-size="10.00">catena::common::ParamWith</text>
<text text-anchor="middle" x="79" y="-55" font-family="Helvetica,sans-Serif" font-size="10.00">Value::toProto</text>
</a>
</g>
</g>
<!-- Node1&#45;&gt;Node5 -->
<g id="edge4_Node000001_Node000005" class="edge">
<title>Node1&#45;&gt;Node5</title>
<g id="a_edge4_Node000001_Node000005"><a xlink:title=" ">
<path fill="none" stroke="#63b8ff" d="M201,-93.49C180.85,-88.41 159.03,-82.91 139.54,-78"/>
<polygon fill="#63b8ff" stroke="#63b8ff" points="200.2,-96.89 210.75,-95.94 201.91,-90.11 200.2,-96.89"/>
</a>
</g>
</g>
<!-- Node6 -->
<g id="Node000006" class="node">
<title>Node6</title>
<g id="a_Node000006"><a xlink:href="classcatena_1_1common_1_1ParamWithValue.html#a9bdf6304d6242373d67b8ff0bd38b7c6" target="_top" xlink:title="Validates a setValue operation without changing the param&#39;s value.">
<polygon fill="white" stroke="#666666" points="158,-30 0,-30 0,0 158,0 158,-30"/>
<text text-anchor="start" x="8" y="-18" font-family="Helvetica,sans-Serif" font-size="10.00">catena::common::ParamWith</text>
<text text-anchor="middle" x="79" y="-7" font-family="Helvetica,sans-Serif" font-size="10.00">Value::validateSetValue</text>
</a>
</g>
</g>
<!-- Node1&#45;&gt;Node6 -->
<g id="edge5_Node000001_Node000006" class="edge">
<title>Node1&#45;&gt;Node6</title>
<g id="a_edge5_Node000001_Node000006"><a xlink:title=" ">
<path fill="none" stroke="#63b8ff" d="M242.5,-90.03C220.45,-74.29 188.46,-53.11 158,-39 150.93,-35.72 143.3,-32.75 135.67,-30.09"/>
<polygon fill="#63b8ff" stroke="#63b8ff" points="240.57,-92.96 250.72,-95.98 244.67,-87.29 240.57,-92.96"/>
</a>
</g>
</g>
</g>
</svg>
</svg>

<style type='text/css'>
<![CDATA[
[data-mouse-over-selected='false'] { opacity: 0.7; }
[data-mouse-over-selected='true']  { opacity: 1.0; }
]]>
</style>
<script type="application/ecmascript"><![CDATA[
document.addEventListener('DOMContentLoaded', (event) => {
  highlightEdges();
  highlightAdjacentNodes();
});
]]></script>
</svg>
