<?xml version="1.0" encoding="UTF-8" standalone="no"?>
<!DOCTYPE svg PUBLIC "-//W3C//DTD SVG 1.1//EN"
 "http://www.w3.org/Graphics/SVG/1.1/DTD/svg11.dtd">
<!-- Generated by graphviz version 2.43.0 (0)
 -->
<!-- Title: catena::common::Device::addItem Pages: 1 -->
<svg width="367pt" height="86pt"
 viewBox="0.00 0.00 367.00 86.00" xmlns="http://www.w3.org/2000/svg" xmlns:xlink="http://www.w3.org/1999/xlink">
<g id="graph0" class="graph" transform="scale(1 1) rotate(0) translate(4 82)">
<title>catena::common::Device::addItem</title>
<!-- Node1 -->
<g id="Node000001" class="node">
<title>Node1</title>
<g id="a_Node000001"><a xlink:title="add an item to one of the collections owned by the device. Overload for parameters and commands.">
<polygon fill="#999999" stroke="#666666" points="138,-54 0,-54 0,-24 138,-24 138,-54"/>
<text text-anchor="start" x="8" y="-42" font-family="Helvetica,sans-Serif" font-size="10.00">catena::common::Device</text>
<text text-anchor="middle" x="69" y="-31" font-family="Helvetica,sans-Serif" font-size="10.00">::addItem</text>
</a>
</g>
</g>
<!-- Node2 -->
<g id="Node000002" class="node">
<title>Node2</title>
<g id="a_Node000002"><a xlink:href="classcatena_1_1common_1_1IParam.html#ad8e8b3d2e2ea7ad8a6bc60af426b5e3e" target="_top" xlink:title="get the descriptor of the parameter">
<polygon fill="white" stroke="#666666" points="335.5,-78 197.5,-78 197.5,-48 335.5,-48 335.5,-78"/>
<text text-anchor="start" x="205.5" y="-66" font-family="Helvetica,sans-Serif" font-size="10.00">catena::common::IParam</text>
<text text-anchor="middle" x="266.5" y="-55" font-family="Helvetica,sans-Serif" font-size="10.00">::getDescriptor</text>
</a>
</g>
</g>
<!-- Node1&#45;&gt;Node2 -->
<g id="edge1_Node000001_Node000002" class="edge">
<title>Node1&#45;&gt;Node2</title>
<g id="a_edge1_Node000001_Node000002"><a xlink:title=" ">
<path fill="none" stroke="#63b8ff" d="M138.1,-47.36C153.98,-49.31 171.01,-51.4 187.29,-53.4"/>
<polygon fill="#63b8ff" stroke="#63b8ff" points="186.96,-56.88 197.31,-54.63 187.81,-49.94 186.96,-56.88"/>
</a>
</g>
</g>
<!-- Node3 -->
<g id="Node000003" class="node">
<title>Node3</title>
<g id="a_Node000003"><a xlink:href="classcatena_1_1common_1_1ParamDescriptor.html#a6ca1484257859b619af0472163bd11d2" target="_top" xlink:title="return true if this is a command parameter">
<polygon fill="white" stroke="#666666" points="359,-30 174,-30 174,0 359,0 359,-30"/>
<text text-anchor="start" x="182" y="-18" font-family="Helvetica,sans-Serif" font-size="10.00">catena::common::ParamDescriptor</text>
<text text-anchor="middle" x="266.5" y="-7" font-family="Helvetica,sans-Serif" font-size="10.00">::isCommand</text>
</a>
</g>
</g>
<!-- Node1&#45;&gt;Node3 -->
<g id="edge2_Node000001_Node000003" class="edge">
<title>Node1&#45;&gt;Node3</title>
<g id="a_edge2_Node000001_Node000003"><a xlink:title=" ">
<path fill="none" stroke="#63b8ff" d="M138.1,-30.64C146.42,-29.62 155.05,-28.56 163.73,-27.49"/>
<polygon fill="#63b8ff" stroke="#63b8ff" points="164.41,-30.94 173.91,-26.24 163.56,-23.99 164.41,-30.94"/>
</a>
</g>
</g>
</g>
</svg>
