<?xml version="1.0" encoding="UTF-8" standalone="no"?>
<!DOCTYPE svg PUBLIC "-//W3C//DTD SVG 1.1//EN"
 "http://www.w3.org/Graphics/SVG/1.1/DTD/svg11.dtd">
<!-- Generated by graphviz version 2.43.0 (0)
 -->
<!-- Title: catena::gRPC::ICallData Pages: 1 -->
<!--zoomable 519 -->

<svg id="main" version="1.1" xmlns="http://www.w3.org/2000/svg" xmlns:xlink="http://www.w3.org/1999/xlink" xml:space="preserve" onload="init(evt)">
<style type="text/css"><![CDATA[
.node, .edge {opacity: 0.7;}
.node.selected, .edge.selected {opacity: 1;}
.edge:hover path { stroke: red; }
.edge:hover polygon { stroke: red; fill: red; }
]]></style>

<defs>
  <circle id="rim" cx="0" cy="0" r="7"/>
  <circle id="rim2" cx="0" cy="0" r="3.5"/>
  <g id="zoomPlus">
    <use xlink:href="#rim" fill="#404040"><set attributeName="fill" to="#808080" begin="zoomplus.mouseover" end="zoomplus.mouseout"/></use>
    <path d="M-4,0h8M0,-4v8" fill="none" stroke="white" stroke-width="1.5" pointer-events="none"/>
  </g>
  <g id="zoomMin">
    <use xlink:href="#rim" fill="#404040"><set attributeName="fill" to="#808080" begin="zoomminus.mouseover" end="zoomminus.mouseout"/></use>
    <path d="M-4,0h8" fill="none" stroke="white" stroke-width="1.5" pointer-events="none"/>
  </g>
  <g id="arrowUp" transform="translate(30 24)">
    <use xlink:href="#rim"/>
    <path pointer-events="none" fill="none" stroke="white" stroke-width="1.5" d="M0,-3.0v7 M-2.5,-0.5L0,-3.0L2.5,-0.5"/>
  </g>
  <g id="arrowRight" transform="rotate(90) translate(36 -43)">
    <use xlink:href="#rim"/>
    <path pointer-events="none" fill="none" stroke="white" stroke-width="1.5" d="M0,-3.0v7 M-2.5,-0.5L0,-3.0L2.5,-0.5"/>
  </g>
  <g id="arrowDown" transform="rotate(180) translate(-30 -48)">
    <use xlink:href="#rim"/>
    <path pointer-events="none" fill="none" stroke="white" stroke-width="1.5" d="M0,-3.0v7 M-2.5,-0.5L0,-3.0L2.5,-0.5"/>
  </g>
  <g id="arrowLeft" transform="rotate(270) translate(-36 17)">
    <use xlink:href="#rim"/>
    <path pointer-events="none" fill="none" stroke="white" stroke-width="1.5" d="M0,-3.0v7 M-2.5,-0.5L0,-3.0L2.5,-0.5"/>
  </g>
  <g id="resetDef">
    <use xlink:href="#rim2" fill="#404040"><set attributeName="fill" to="#808080" begin="reset.mouseover" end="reset.mouseout"/></use>
  </g>
</defs>
<script type="application/ecmascript">
var viewWidth = 695;
var viewHeight = 519;
var sectionId = 'dynsection-0';
</script>
<script type="application/ecmascript" xlink:href="svg.min.js"/>
<svg id="graph" class="graph">
<g id="viewport">
<title>catena::gRPC::ICallData</title>
<!-- Node1 -->
<g id="Node000001" class="node">
<title>Node1</title>
<g id="a_Node000001"><a xlink:title="Interface class for gRPC CallData classes.">
<polygon fill="#999999" stroke="#666666" points="132,-265 0,-265 0,-246 132,-246 132,-265"/>
<text text-anchor="middle" x="66" y="-253" font-family="Helvetica,sans-Serif" font-size="10.00">catena::gRPC::ICallData</text>
</a>
</g>
</g>
<!-- Node2 -->
<g id="Node000002" class="node">
<title>Node2</title>
<g id="a_Node000002"><a xlink:href="classcatena_1_1gRPC_1_1CallData.html" target="_top" xlink:title="Abstract base class for the CallData classes which defines the jwsToken_ class.">
<polygon fill="white" stroke="#666666" points="297,-265 168,-265 168,-246 297,-246 297,-265"/>
<text text-anchor="middle" x="232.5" y="-253" font-family="Helvetica,sans-Serif" font-size="10.00">catena::gRPC::CallData</text>
</a>
</g>
</g>
<!-- Node1&#45;&gt;Node2 -->
<g id="edge1_Node000001_Node000002" class="edge">
<title>Node1&#45;&gt;Node2</title>
<g id="a_edge1_Node000001_Node000002"><a xlink:title=" ">
<path fill="none" stroke="#63b8ff" d="M142.04,-255.5C150.63,-255.5 159.33,-255.5 167.76,-255.5"/>
<polygon fill="#63b8ff" stroke="#63b8ff" points="142.01,-252 132.01,-255.5 142.01,-259 142.01,-252"/>
</a>
</g>
</g>
<!-- Node3 -->
<g id="Node000003" class="node">
<title>Node3</title>
<g id="a_Node000003"><a xlink:href="classcatena_1_1gRPC_1_1AddLanguage.html" target="_top" xlink:title="CallData class for the ListLanguages RPC.">
<polygon fill="white" stroke="#666666" points="503.5,-511 350.5,-511 350.5,-492 503.5,-492 503.5,-511"/>
<text text-anchor="middle" x="427" y="-499" font-family="Helvetica,sans-Serif" font-size="10.00">catena::gRPC::AddLanguage</text>
</a>
</g>
</g>
<!-- Node2&#45;&gt;Node3 -->
<g id="edge2_Node000002_Node000003" class="edge">
<title>Node2&#45;&gt;Node3</title>
<g id="a_edge2_Node000002_Node000003"><a xlink:title=" ">
<path fill="none" stroke="#63b8ff" d="M236.04,-275.21C242.86,-319.7 265.88,-428.27 333,-482.5 338.13,-486.64 343.92,-489.95 350.05,-492.59"/>
<polygon fill="#63b8ff" stroke="#63b8ff" points="239.47,-274.53 234.6,-265.12 232.54,-275.52 239.47,-274.53"/>
</a>
</g>
</g>
<!-- Node4 -->
<g id="Node000004" class="node">
<title>Node4</title>
<g id="a_Node000004"><a xlink:href="classcatena_1_1gRPC_1_1BasicParamInfoRequest.html" target="_top" xlink:title="CallData class for the BasicParamInfoRequest RPC.">
<polygon fill="white" stroke="#666666" points="499,-473.5 355,-473.5 355,-443.5 499,-443.5 499,-473.5"/>
<text text-anchor="start" x="363" y="-461.5" font-family="Helvetica,sans-Serif" font-size="10.00">catena::gRPC::BasicParam</text>
<text text-anchor="middle" x="427" y="-450.5" font-family="Helvetica,sans-Serif" font-size="10.00">InfoRequest</text>
</a>
</g>
</g>
<!-- Node2&#45;&gt;Node4 -->
<g id="edge3_Node000002_Node000004" class="edge">
<title>Node2&#45;&gt;Node4</title>
<g id="a_edge3_Node000002_Node000004"><a xlink:title=" ">
<path fill="none" stroke="#63b8ff" d="M238.74,-275.04C249.71,-312.08 278.7,-392.53 333,-434.5 339.46,-439.5 346.86,-443.46 354.6,-446.6"/>
<polygon fill="#63b8ff" stroke="#63b8ff" points="242,-273.7 235.91,-265.03 235.26,-275.61 242,-273.7"/>
</a>
</g>
</g>
<!-- Node5 -->
<g id="Node000005" class="node">
<title>Node5</title>
<g id="a_Node000005"><a xlink:href="classcatena_1_1gRPC_1_1Connect.html" target="_top" xlink:title="CallData class for the Connect RPC.">
<polygon fill="white" stroke="#666666" points="490.5,-425 363.5,-425 363.5,-406 490.5,-406 490.5,-425"/>
<text text-anchor="middle" x="427" y="-413" font-family="Helvetica,sans-Serif" font-size="10.00">catena::gRPC::Connect</text>
</a>
</g>
</g>
<!-- Node2&#45;&gt;Node5 -->
<g id="edge4_Node000002_Node000005" class="edge">
<title>Node2&#45;&gt;Node5</title>
<g id="a_edge4_Node000002_Node000005"><a xlink:title=" ">
<path fill="none" stroke="#63b8ff" d="M241.02,-274.27C254.49,-305.3 285.8,-366.89 333,-397.5 342.11,-403.41 352.7,-407.46 363.41,-410.23"/>
<polygon fill="#63b8ff" stroke="#63b8ff" points="244.23,-272.88 237.14,-265.01 237.78,-275.59 244.23,-272.88"/>
</a>
</g>
</g>
<!-- Node6 -->
<g id="Node000006" class="node">
<title>Node6</title>
<g id="a_Node000006"><a xlink:href="classcatena_1_1gRPC_1_1DeviceRequest.html" target="_top" xlink:title="CallData class for the DeviceRequest RPC.">
<polygon fill="white" stroke="#666666" points="507.5,-388 346.5,-388 346.5,-369 507.5,-369 507.5,-388"/>
<text text-anchor="middle" x="427" y="-376" font-family="Helvetica,sans-Serif" font-size="10.00">catena::gRPC::DeviceRequest</text>
</a>
</g>
</g>
<!-- Node2&#45;&gt;Node6 -->
<g id="edge5_Node000002_Node000006" class="edge">
<title>Node2&#45;&gt;Node6</title>
<g id="a_edge5_Node000002_Node000006"><a xlink:title=" ">
<path fill="none" stroke="#63b8ff" d="M245.31,-273.76C261.87,-297.74 294.32,-339.28 333,-360.5 339.2,-363.9 345.94,-366.67 352.87,-368.92"/>
<polygon fill="#63b8ff" stroke="#63b8ff" points="248.07,-271.57 239.58,-265.22 242.25,-275.48 248.07,-271.57"/>
</a>
</g>
</g>
<!-- Node7 -->
<g id="Node000007" class="node">
<title>Node7</title>
<g id="a_Node000007"><a xlink:href="classcatena_1_1gRPC_1_1ExecuteCommand.html" target="_top" xlink:title="CallData class for the ExecuteCommand RPC.">
<polygon fill="white" stroke="#666666" points="515,-351 339,-351 339,-332 515,-332 515,-351"/>
<text text-anchor="middle" x="427" y="-339" font-family="Helvetica,sans-Serif" font-size="10.00">catena::gRPC::ExecuteCommand</text>
</a>
</g>
</g>
<!-- Node2&#45;&gt;Node7 -->
<g id="edge6_Node000002_Node000007" class="edge">
<title>Node2&#45;&gt;Node7</title>
<g id="a_edge6_Node000002_Node000007"><a xlink:title=" ">
<path fill="none" stroke="#63b8ff" d="M252.49,-271.64C271.6,-287.04 302.52,-309.72 333,-322.5 342.27,-326.39 352.4,-329.5 362.46,-331.99"/>
<polygon fill="#63b8ff" stroke="#63b8ff" points="254.53,-268.79 244.58,-265.14 250.09,-274.2 254.53,-268.79"/>
</a>
</g>
</g>
<!-- Node8 -->
<g id="Node000008" class="node">
<title>Node8</title>
<g id="a_Node000008"><a xlink:href="classcatena_1_1gRPC_1_1ExternalObjectRequest.html" target="_top" xlink:title="CallData class for the ExternalObjectRequest RPC.">
<polygon fill="white" stroke="#666666" points="506.5,-313.5 347.5,-313.5 347.5,-283.5 506.5,-283.5 506.5,-313.5"/>
<text text-anchor="start" x="355.5" y="-301.5" font-family="Helvetica,sans-Serif" font-size="10.00">catena::gRPC::ExternalObject</text>
<text text-anchor="middle" x="427" y="-290.5" font-family="Helvetica,sans-Serif" font-size="10.00">Request</text>
</a>
</g>
</g>
<!-- Node2&#45;&gt;Node8 -->
<g id="edge7_Node000002_Node000008" class="edge">
<title>Node2&#45;&gt;Node8</title>
<g id="a_edge7_Node000002_Node000008"><a xlink:title=" ">
<path fill="none" stroke="#63b8ff" d="M286.22,-267.28C308.63,-272.28 335.03,-278.18 358.82,-283.49"/>
<polygon fill="#63b8ff" stroke="#63b8ff" points="286.74,-263.81 276.22,-265.04 285.22,-270.64 286.74,-263.81"/>
</a>
</g>
</g>
<!-- Node9 -->
<g id="Node000009" class="node">
<title>Node9</title>
<g id="a_Node000009"><a xlink:href="classcatena_1_1gRPC_1_1GetParam.html" target="_top" xlink:title="CallData class for the GetParam RPC.">
<polygon fill="white" stroke="#666666" points="494.5,-265 359.5,-265 359.5,-246 494.5,-246 494.5,-265"/>
<text text-anchor="middle" x="427" y="-253" font-family="Helvetica,sans-Serif" font-size="10.00">catena::gRPC::GetParam</text>
</a>
</g>
</g>
<!-- Node2&#45;&gt;Node9 -->
<g id="edge8_Node000002_Node000009" class="edge">
<title>Node2&#45;&gt;Node9</title>
<g id="a_edge8_Node000002_Node000009"><a xlink:title=" ">
<path fill="none" stroke="#63b8ff" d="M307.51,-255.5C324.52,-255.5 342.51,-255.5 359.2,-255.5"/>
<polygon fill="#63b8ff" stroke="#63b8ff" points="307.07,-252 297.07,-255.5 307.07,-259 307.07,-252"/>
</a>
</g>
</g>
<!-- Node10 -->
<g id="Node000010" class="node">
<title>Node10</title>
<g id="a_Node000010"><a xlink:href="classcatena_1_1gRPC_1_1GetPopulatedSlots.html" target="_top" xlink:title="CallData class for the GetPopulatedSlots RPC.">
<polygon fill="white" stroke="#666666" points="503.5,-227.5 350.5,-227.5 350.5,-197.5 503.5,-197.5 503.5,-227.5"/>
<text text-anchor="start" x="358.5" y="-215.5" font-family="Helvetica,sans-Serif" font-size="10.00">catena::gRPC::GetPopulated</text>
<text text-anchor="middle" x="427" y="-204.5" font-family="Helvetica,sans-Serif" font-size="10.00">Slots</text>
</a>
</g>
</g>
<!-- Node2&#45;&gt;Node10 -->
<g id="edge9_Node000002_Node000010" class="edge">
<title>Node2&#45;&gt;Node10</title>
<g id="a_edge9_Node000002_Node000010"><a xlink:title=" ">
<path fill="none" stroke="#63b8ff" d="M286.22,-243.72C308.63,-238.72 335.03,-232.82 358.82,-227.51"/>
<polygon fill="#63b8ff" stroke="#63b8ff" points="285.22,-240.36 276.22,-245.96 286.74,-247.19 285.22,-240.36"/>
</a>
</g>
</g>
<!-- Node11 -->
<g id="Node000011" class="node">
<title>Node11</title>
<g id="a_Node000011"><a xlink:href="classcatena_1_1gRPC_1_1GetValue.html" target="_top" xlink:title="CallData class for the GetValue RPC.">
<polygon fill="white" stroke="#666666" points="492.5,-179 361.5,-179 361.5,-160 492.5,-160 492.5,-179"/>
<text text-anchor="middle" x="427" y="-167" font-family="Helvetica,sans-Serif" font-size="10.00">catena::gRPC::GetValue</text>
</a>
</g>
</g>
<!-- Node2&#45;&gt;Node11 -->
<g id="edge10_Node000002_Node000011" class="edge">
<title>Node2&#45;&gt;Node11</title>
<g id="a_edge10_Node000002_Node000011"><a xlink:title=" ">
<path fill="none" stroke="#63b8ff" d="M252.49,-239.36C271.6,-223.96 302.52,-201.28 333,-188.5 342.27,-184.61 352.4,-181.5 362.46,-179.01"/>
<polygon fill="#63b8ff" stroke="#63b8ff" points="250.09,-236.8 244.58,-245.86 254.53,-242.21 250.09,-236.8"/>
</a>
</g>
</g>
<!-- Node12 -->
<g id="Node000012" class="node">
<title>Node12</title>
<g id="a_Node000012"><a xlink:href="classcatena_1_1gRPC_1_1LanguagePackRequest.html" target="_top" xlink:title="CallData class for the LanguagePackRequest RPC.">
<polygon fill="white" stroke="#666666" points="505.5,-141.5 348.5,-141.5 348.5,-111.5 505.5,-111.5 505.5,-141.5"/>
<text text-anchor="start" x="356.5" y="-129.5" font-family="Helvetica,sans-Serif" font-size="10.00">catena::gRPC::LanguagePack</text>
<text text-anchor="middle" x="427" y="-118.5" font-family="Helvetica,sans-Serif" font-size="10.00">Request</text>
</a>
</g>
</g>
<!-- Node2&#45;&gt;Node12 -->
<g id="edge11_Node000002_Node000012" class="edge">
<title>Node2&#45;&gt;Node12</title>
<g id="a_edge11_Node000002_Node000012"><a xlink:title=" ">
<path fill="none" stroke="#63b8ff" d="M245.84,-237.47C262.77,-214.12 295.43,-173.77 333,-151.5 339.47,-147.66 346.54,-144.4 353.8,-141.64"/>
<polygon fill="#63b8ff" stroke="#63b8ff" points="242.87,-235.6 239.95,-245.79 248.59,-239.65 242.87,-235.6"/>
</a>
</g>
</g>
<!-- Node13 -->
<g id="Node000013" class="node">
<title>Node13</title>
<g id="a_Node000013"><a xlink:href="classcatena_1_1gRPC_1_1ListLanguages.html" target="_top" xlink:title="CallData class for the ListLanguages RPC.">
<polygon fill="white" stroke="#666666" points="505.5,-93 348.5,-93 348.5,-74 505.5,-74 505.5,-93"/>
<text text-anchor="middle" x="427" y="-81" font-family="Helvetica,sans-Serif" font-size="10.00">catena::gRPC::ListLanguages</text>
</a>
</g>
</g>
<!-- Node2&#45;&gt;Node13 -->
<g id="edge12_Node000002_Node000013" class="edge">
<title>Node2&#45;&gt;Node13</title>
<g id="a_edge12_Node000002_Node000013"><a xlink:title=" ">
<path fill="none" stroke="#63b8ff" d="M240.29,-236.26C252.99,-203.25 283.61,-136.13 333,-102.5 338.58,-98.7 344.77,-95.62 351.21,-93.15"/>
<polygon fill="#63b8ff" stroke="#63b8ff" points="236.99,-235.1 236.8,-245.69 243.55,-237.53 236.99,-235.1"/>
</a>
</g>
</g>
<!-- Node14 -->
<g id="Node000014" class="node">
<title>Node14</title>
<g id="a_Node000014"><a xlink:href="classcatena_1_1gRPC_1_1MultiSetValue.html" target="_top" xlink:title="Generic CallData class for the SetValue and MultiSetValue RPCs.">
<polygon fill="white" stroke="#666666" points="504.5,-56 349.5,-56 349.5,-37 504.5,-37 504.5,-56"/>
<text text-anchor="middle" x="427" y="-44" font-family="Helvetica,sans-Serif" font-size="10.00">catena::gRPC::MultiSetValue</text>
</a>
</g>
</g>
<!-- Node2&#45;&gt;Node14 -->
<g id="edge13_Node000002_Node000014" class="edge">
<title>Node2&#45;&gt;Node14</title>
<g id="a_edge13_Node000002_Node000014"><a xlink:title=" ">
<path fill="none" stroke="#63b8ff" d="M237.84,-235.83C247.56,-196.71 274.92,-109.19 333,-65.5 338,-61.74 343.57,-58.67 349.43,-56.18"/>
<polygon fill="#63b8ff" stroke="#63b8ff" points="234.4,-235.17 235.51,-245.7 241.22,-236.77 234.4,-235.17"/>
</a>
</g>
</g>
<!-- Node16 -->
<g id="Node000016" class="node">
<title>Node16</title>
<g id="a_Node000016"><a xlink:href="classcatena_1_1gRPC_1_1UpdateSubscriptions.html" target="_top" xlink:title="CallData class for the UpdateSubscriptions RPC.">
<polygon fill="white" stroke="#666666" points="521,-19 333,-19 333,0 521,0 521,-19"/>
<text text-anchor="middle" x="427" y="-7" font-family="Helvetica,sans-Serif" font-size="10.00">catena::gRPC::UpdateSubscriptions</text>
</a>
</g>
</g>
<!-- Node2&#45;&gt;Node16 -->
<g id="edge15_Node000002_Node000016" class="edge">
<title>Node2&#45;&gt;Node16</title>
<g id="a_edge15_Node000002_Node000016"><a xlink:title=" ">
<path fill="none" stroke="#63b8ff" d="M236.04,-235.79C242.86,-191.3 265.88,-82.73 333,-28.5 337.74,-24.67 343.06,-21.55 348.68,-19.01"/>
<polygon fill="#63b8ff" stroke="#63b8ff" points="232.54,-235.48 234.6,-245.88 239.47,-236.47 232.54,-235.48"/>
</a>
</g>
</g>
<!-- Node15 -->
<g id="Node000015" class="node">
<title>Node15</title>
<g id="a_Node000015"><a xlink:href="classcatena_1_1gRPC_1_1SetValue.html" target="_top" xlink:title="CallData class for the SetValue RPC.">
<polygon fill="white" stroke="#666666" points="687,-56 557,-56 557,-37 687,-37 687,-56"/>
<text text-anchor="middle" x="622" y="-44" font-family="Helvetica,sans-Serif" font-size="10.00">catena::gRPC::SetValue</text>
</a>
</g>
</g>
<!-- Node14&#45;&gt;Node15 -->
<g id="edge14_Node000014_Node000015" class="edge">
<title>Node14&#45;&gt;Node15</title>
<g id="a_edge14_Node000014_Node000015"><a xlink:title=" ">
<path fill="none" stroke="#63b8ff" d="M514.82,-46.5C529,-46.5 543.46,-46.5 556.97,-46.5"/>
<polygon fill="#63b8ff" stroke="#63b8ff" points="514.56,-43 504.56,-46.5 514.56,-50 514.56,-43"/>
</a>
</g>
</g>
</g>
</svg>

<g id="navigator" transform="translate(0 0)" fill="#404254">
  <rect fill="#f2f5e9" fill-opacity="0.5" stroke="#606060" stroke-width=".5" x="0" y="0" width="60" height="60"/>
  <use id="zoomplus" xlink:href="#zoomPlus" x="17" y="9" onmousedown="handleZoom(evt,'in')"/>
  <use id="zoomminus" xlink:href="#zoomMin" x="42" y="9" onmousedown="handleZoom(evt,'out')"/>
  <use id="reset" xlink:href="#resetDef" x="30" y="36" onmousedown="handleReset()"/>
   <use id="arrowup" xlink:href="#arrowUp" x="0" y="0" onmousedown="handlePan(0,-1)"/>
  <use id="arrowright" xlink:href="#arrowRight" x="0" y="0" onmousedown="handlePan(1,0)"/>
  <use id="arrowdown" xlink:href="#arrowDown" x="0" y="0" onmousedown="handlePan(0,1)"/>
  <use id="arrowleft" xlink:href="#arrowLeft" x="0" y="0" onmousedown="handlePan(-1,0)"/>
</g>
<svg viewBox="0 0 15 15" width="100%" height="30px" preserveAspectRatio="xMaxYMin meet">
 <g id="arrow_out" transform="scale(0.3 0.3)">
  <a xlink:href="classcatena_1_1gRPC_1_1ICallData__inherit__graph_org.svg" target="_base">
   <rect id="button" ry="5" rx="5" y="6" x="6" height="38" width="38"
        fill="#f2f5e9" fill-opacity="0.5" stroke="#606060" stroke-width="1.0"/>
   <path id="arrow"
     d="M 11.500037,31.436501 C 11.940474,20.09759 22.043105,11.32322 32.158766,21.979434 L 37.068811,17.246167 C 37.068811,17.246167 37.088388,32 37.088388,32 L 22.160133,31.978069 C 22.160133,31.978069 26.997745,27.140456 26.997745,27.140456 C 18.528582,18.264221 13.291696,25.230495 11.500037,31.436501 z"
     style="fill:#404040;"/>
  </a>
 </g>
</svg>

<style type='text/css'>
<![CDATA[
[data-mouse-over-selected='false'] { opacity: 0.7; }
[data-mouse-over-selected='true']  { opacity: 1.0; }
]]>
</style>
<script type="application/ecmascript"><![CDATA[
document.addEventListener('DOMContentLoaded', (event) => {
  highlightEdges();
  highlightAdjacentNodes();
});
]]></script>
</svg>
