<?xml version="1.0" encoding="UTF-8" standalone="no"?>
<!DOCTYPE svg PUBLIC "-//W3C//DTD SVG 1.1//EN"
 "http://www.w3.org/Graphics/SVG/1.1/DTD/svg11.dtd">
<!-- Generated by graphviz version 2.43.0 (0)
 -->
<!-- Title: catena::common::ParamWithValue&lt; T &gt; Pages: 1 -->
<svg width="352pt" height="104pt"
 viewBox="0.00 0.00 352.00 104.00" xmlns="http://www.w3.org/2000/svg" xmlns:xlink="http://www.w3.org/1999/xlink">
<g id="graph0" class="graph" transform="scale(1 1) rotate(0) translate(4 100)">
<title>catena::common::ParamWithValue&lt; T &gt;</title>
<!-- Node1 -->
<g id="Node000001" class="node">
<title>Node1</title>
<g id="a_Node000001"><a xlink:title="ParamWithValue is a class that implements the IParam interface for each param type in the device mode...">
<polygon fill="#999999" stroke="#666666" points="238,-30 80,-30 80,0 238,0 238,-30"/>
<text text-anchor="start" x="88" y="-18" font-family="Helvetica,sans-Serif" font-size="10.00">catena::common::ParamWith</text>
<text text-anchor="middle" x="159" y="-7" font-family="Helvetica,sans-Serif" font-size="10.00">Value&lt; T &gt;</text>
</a>
</g>
</g>
<!-- Node2 -->
<g id="Node000002" class="node">
<title>Node2</title>
<g id="a_Node000002"><a xlink:href="classcatena_1_1common_1_1IParam.html" target="_top" xlink:title="IParam is the interface for business logic and connection logic to interact with parameters.">
<polygon fill="white" stroke="#666666" points="138,-96 0,-96 0,-77 138,-77 138,-96"/>
<text text-anchor="middle" x="69" y="-84" font-family="Helvetica,sans-Serif" font-size="10.00">catena::common::IParam</text>
</a>
</g>
</g>
<!-- Node2&#45;&gt;Node1 -->
<g id="edge1_Node000001_Node000002" class="edge">
<title>Node2&#45;&gt;Node1</title>
<g id="a_edge1_Node000001_Node000002"><a xlink:title=" ">
<path fill="none" stroke="#63b8ff" d="M88.37,-70.54C103.87,-58.57 125.47,-41.89 140.69,-30.14"/>
<polygon fill="#63b8ff" stroke="#63b8ff" points="85.81,-68.1 80.04,-76.98 90.09,-73.64 85.81,-68.1"/>
</a>
</g>
</g>
<!-- Node3 -->
<g id="Node000003" class="node">
<title>Node3</title>
<g id="a_Node000003"><a xlink:href="classcatena_1_1common_1_1IParamDescriptor.html" target="_top" xlink:title="ParamDescriptor provides information about a parameter as well as command definition and execution fu...">
<polygon fill="white" stroke="#666666" points="344,-96 156,-96 156,-77 344,-77 344,-96"/>
<text text-anchor="middle" x="250" y="-84" font-family="Helvetica,sans-Serif" font-size="10.00">catena::common::IParamDescriptor</text>
</a>
</g>
</g>
<!-- Node3&#45;&gt;Node1 -->
<g id="edge2_Node000001_Node000003" class="edge">
<title>Node3&#45;&gt;Node1</title>
<g id="a_edge2_Node000001_Node000003"><a xlink:title=" ">
<path fill="none" stroke="#9a32cd" stroke-dasharray="5,2" d="M230.86,-70.88C215.15,-58.88 193.04,-42 177.51,-30.14"/>
<polygon fill="#9a32cd" stroke="#9a32cd" points="228.77,-73.69 238.84,-76.98 233.02,-68.13 228.77,-73.69"/>
</a>
</g>
<text text-anchor="middle" x="242" y="-51" font-family="Helvetica,sans-Serif" font-size="10.00" fill="grey"> descriptor_</text>
</g>
</g>
</svg>
