<?xml version="1.0" encoding="UTF-8" standalone="no"?>
<!DOCTYPE svg PUBLIC "-//W3C//DTD SVG 1.1//EN"
 "http://www.w3.org/Graphics/SVG/1.1/DTD/svg11.dtd">
<!-- Generated by graphviz version 2.43.0 (0)
 -->
<!-- Title: catena::common::ParamWithValue::getParam_ Pages: 1 -->
<svg width="551pt" height="306pt"
 viewBox="0.00 0.00 551.00 305.50" xmlns="http://www.w3.org/2000/svg" xmlns:xlink="http://www.w3.org/1999/xlink">
<g id="graph0" class="graph" transform="scale(1 1) rotate(0) translate(4 301.5)">
<title>catena::common::ParamWithValue::getParam_</title>
<!-- Node1 -->
<g id="Node000001" class="node">
<title>Node1</title>
<g id="a_Node000001"><a xlink:title="get the child parameter that oid points to">
<polygon fill="#999999" stroke="#666666" points="158,-139.5 0,-139.5 0,-109.5 158,-109.5 158,-139.5"/>
<text text-anchor="start" x="8" y="-127.5" font-family="Helvetica,sans-Serif" font-size="10.00">catena::common::ParamWith</text>
<text text-anchor="middle" x="79" y="-116.5" font-family="Helvetica,sans-Serif" font-size="10.00">Value::getParam_</text>
</a>
</g>
</g>
<!-- Node2 -->
<g id="Node000002" class="node">
<title>Node2</title>
<g id="a_Node000002"><a xlink:href="classcatena_1_1common_1_1Path.html#a6a63446ed43392f91ddf06d98eecb53a" target="_top" xlink:title="return true if the Path is empty">
<polygon fill="white" stroke="#666666" points="350.5,-297.5 225.5,-297.5 225.5,-267.5 350.5,-267.5 350.5,-297.5"/>
<text text-anchor="start" x="233.5" y="-285.5" font-family="Helvetica,sans-Serif" font-size="10.00">catena::common::Path</text>
<text text-anchor="middle" x="288" y="-274.5" font-family="Helvetica,sans-Serif" font-size="10.00">::empty</text>
</a>
</g>
</g>
<!-- Node1&#45;&gt;Node2 -->
<g id="edge1_Node000001_Node000002" class="edge">
<title>Node1&#45;&gt;Node2</title>
<g id="a_edge1_Node000001_Node000002"><a xlink:title=" ">
<path fill="none" stroke="#63b8ff" d="M89.32,-139.65C106.63,-166.53 146.33,-222.63 194,-253.5 200.76,-257.88 208.23,-261.63 215.9,-264.84"/>
<polygon fill="#63b8ff" stroke="#63b8ff" points="214.74,-268.14 225.33,-268.49 217.27,-261.62 214.74,-268.14"/>
</a>
</g>
</g>
<!-- Node3 -->
<g id="Node000003" class="node">
<title>Node3</title>
<g id="a_Node000003"><a xlink:href="classcatena_1_1common_1_1Path.html#ac6322b03a662c484c09e83df0664ad48" target="_top" xlink:title="return a fully qualified oid">
<polygon fill="white" stroke="#666666" points="543,-184.5 418,-184.5 418,-154.5 543,-154.5 543,-184.5"/>
<text text-anchor="start" x="426" y="-172.5" font-family="Helvetica,sans-Serif" font-size="10.00">catena::common::Path</text>
<text text-anchor="middle" x="480.5" y="-161.5" font-family="Helvetica,sans-Serif" font-size="10.00">::fqoid</text>
</a>
</g>
</g>
<!-- Node1&#45;&gt;Node3 -->
<g id="edge2_Node000001_Node000003" class="edge">
<title>Node1&#45;&gt;Node3</title>
<g id="a_edge2_Node000001_Node000003"><a xlink:title=" ">
<path fill="none" stroke="#63b8ff" d="M91.67,-139.51C110.38,-162.19 149.52,-204.27 194,-220.5 272.49,-249.15 300.86,-240.44 382,-220.5 406.07,-214.58 430.79,-201.56 449.32,-190.16"/>
<polygon fill="#63b8ff" stroke="#63b8ff" points="451.31,-193.04 457.89,-184.73 447.57,-187.12 451.31,-193.04"/>
</a>
</g>
</g>
<!-- Node4 -->
<g id="Node000004" class="node">
<title>Node4</title>
<g id="a_Node000004"><a xlink:href="classcatena_1_1common_1_1Path.html#a1690b3ea621c581607cf394fbe5f0f7e" target="_top" xlink:title=" ">
<polygon fill="white" stroke="#666666" points="350.5,-211.5 225.5,-211.5 225.5,-181.5 350.5,-181.5 350.5,-211.5"/>
<text text-anchor="start" x="233.5" y="-199.5" font-family="Helvetica,sans-Serif" font-size="10.00">catena::common::Path</text>
<text text-anchor="middle" x="288" y="-188.5" font-family="Helvetica,sans-Serif" font-size="10.00">::front_as_string</text>
</a>
</g>
</g>
<!-- Node1&#45;&gt;Node4 -->
<g id="edge3_Node000001_Node000004" class="edge">
<title>Node1&#45;&gt;Node4</title>
<g id="a_edge3_Node000001_Node000004"><a xlink:title=" ">
<path fill="none" stroke="#63b8ff" d="M112.44,-139.65C134.99,-149.81 165.92,-163.02 194,-172.5 200.84,-174.81 208.03,-177.03 215.26,-179.11"/>
<polygon fill="#63b8ff" stroke="#63b8ff" points="214.52,-182.54 225.1,-181.87 216.41,-175.8 214.52,-182.54"/>
</a>
</g>
</g>
<!-- Node5 -->
<g id="Node000005" class="node">
<title>Node5</title>
<g id="a_Node000005"><a xlink:href="classcatena_1_1common_1_1Path.html#a154c0ab9589fbf11d872053e869a62ca" target="_top" xlink:title=" ">
<polygon fill="white" stroke="#666666" points="350.5,-163.5 225.5,-163.5 225.5,-133.5 350.5,-133.5 350.5,-163.5"/>
<text text-anchor="start" x="233.5" y="-151.5" font-family="Helvetica,sans-Serif" font-size="10.00">catena::common::Path</text>
<text text-anchor="middle" x="288" y="-140.5" font-family="Helvetica,sans-Serif" font-size="10.00">::front_is_string</text>
</a>
</g>
</g>
<!-- Node1&#45;&gt;Node5 -->
<g id="edge4_Node000001_Node000005" class="edge">
<title>Node1&#45;&gt;Node5</title>
<g id="a_edge4_Node000001_Node000005"><a xlink:title=" ">
<path fill="none" stroke="#63b8ff" d="M158.26,-133.57C177,-135.75 196.91,-138.06 215.34,-140.19"/>
<polygon fill="#63b8ff" stroke="#63b8ff" points="215.07,-143.68 225.41,-141.36 215.88,-136.73 215.07,-143.68"/>
</a>
</g>
</g>
<!-- Node6 -->
<g id="Node000006" class="node">
<title>Node6</title>
<g id="a_Node000006"><a xlink:href="classcatena_1_1common_1_1ParamWithValue.html#a77b784c48506b34d0672493d773b8120" target="_top" xlink:title="Gets a child parameter by following a path.">
<polygon fill="white" stroke="#666666" points="367,-115.5 209,-115.5 209,-85.5 367,-85.5 367,-115.5"/>
<text text-anchor="start" x="217" y="-103.5" font-family="Helvetica,sans-Serif" font-size="10.00">catena::common::ParamWith</text>
<text text-anchor="middle" x="288" y="-92.5" font-family="Helvetica,sans-Serif" font-size="10.00">Value::getParam</text>
</a>
</g>
</g>
<!-- Node1&#45;&gt;Node6 -->
<g id="edge5_Node000001_Node000006" class="edge">
<title>Node1&#45;&gt;Node6</title>
<g id="a_edge5_Node000001_Node000006"><a xlink:title=" ">
<path fill="none" stroke="#63b8ff" d="M153.56,-109.48C168.1,-107.54 183.51,-105.69 198.48,-104.08"/>
<polygon fill="#63b8ff" stroke="#63b8ff" points="199.18,-107.52 208.77,-103 198.46,-100.56 199.18,-107.52"/>
</a>
</g>
</g>
<!-- Node7 -->
<g id="Node000007" class="node">
<title>Node7</title>
<g id="a_Node000007"><a xlink:href="classcatena_1_1common_1_1IParamDescriptor.html#a4ae36042fdac3f9b742f364b162e8cf5" target="_top" xlink:title="gets a sub parameter&#39;s paramDescriptor">
<polygon fill="white" stroke="#666666" points="382,-67.5 194,-67.5 194,-37.5 382,-37.5 382,-67.5"/>
<text text-anchor="start" x="202" y="-55.5" font-family="Helvetica,sans-Serif" font-size="10.00">catena::common::IParamDescriptor</text>
<text text-anchor="middle" x="288" y="-44.5" font-family="Helvetica,sans-Serif" font-size="10.00">::getSubParam</text>
</a>
</g>
</g>
<!-- Node1&#45;&gt;Node7 -->
<g id="edge8_Node000001_Node000007" class="edge">
<title>Node1&#45;&gt;Node7</title>
<g id="a_edge8_Node000001_Node000007"><a xlink:title=" ">
<path fill="none" stroke="#63b8ff" d="M112.44,-109.35C134.99,-99.19 165.92,-85.98 194,-76.5 200.37,-74.35 207.04,-72.28 213.76,-70.32"/>
<polygon fill="#63b8ff" stroke="#63b8ff" points="214.93,-73.63 223.6,-67.54 213.03,-66.89 214.93,-73.63"/>
</a>
</g>
</g>
<!-- Node8 -->
<g id="Node000008" class="node">
<title>Node8</title>
<g id="a_Node000008"><a xlink:href="classcatena_1_1common_1_1Path.html#a8d8e5e7559aca13d6b49a1561c668c43" target="_top" xlink:title="pop the front of the path. Decreases the length of the path by 1 unless the path is already empty in ...">
<polygon fill="white" stroke="#666666" points="362.5,-19 213.5,-19 213.5,0 362.5,0 362.5,-19"/>
<text text-anchor="middle" x="288" y="-7" font-family="Helvetica,sans-Serif" font-size="10.00">catena::common::Path::pop</text>
</a>
</g>
</g>
<!-- Node1&#45;&gt;Node8 -->
<g id="edge9_Node000001_Node000008" class="edge">
<title>Node1&#45;&gt;Node8</title>
<g id="a_edge9_Node000001_Node000008"><a xlink:title=" ">
<path fill="none" stroke="#63b8ff" d="M93.42,-109.15C113.19,-87.57 152.31,-48.68 194,-28.5 199.01,-26.08 204.31,-23.96 209.74,-22.12"/>
<polygon fill="#63b8ff" stroke="#63b8ff" points="211.1,-25.36 219.63,-19.08 209.04,-18.67 211.1,-25.36"/>
</a>
</g>
</g>
<!-- Node6&#45;&gt;Node1 -->
<g id="edge7_Node000006_Node000001" class="edge">
<title>Node6&#45;&gt;Node1</title>
<g id="a_edge7_Node000006_Node000001"><a xlink:title=" ">
<path fill="none" stroke="#63b8ff" d="M213.41,-115.52C198.89,-117.47 183.5,-119.31 168.53,-120.92"/>
<polygon fill="#63b8ff" stroke="#63b8ff" points="167.84,-117.48 158.26,-121.99 168.57,-124.44 167.84,-117.48"/>
</a>
</g>
</g>
<!-- Node6&#45;&gt;Node3 -->
<g id="edge6_Node000006_Node000003" class="edge">
<title>Node6&#45;&gt;Node3</title>
<g id="a_edge6_Node000006_Node000003"><a xlink:title=" ">
<path fill="none" stroke="#63b8ff" d="M353.49,-115.53C363.13,-118.24 372.89,-121.25 382,-124.5 401.85,-131.58 423.19,-141.18 440.82,-149.7"/>
<polygon fill="#63b8ff" stroke="#63b8ff" points="439.69,-153.04 450.21,-154.3 442.77,-146.75 439.69,-153.04"/>
</a>
</g>
</g>
</g>
</svg>
