<?xml version="1.0" encoding="UTF-8" standalone="no"?>
<!DOCTYPE svg PUBLIC "-//W3C//DTD SVG 1.1//EN"
 "http://www.w3.org/Graphics/SVG/1.1/DTD/svg11.dtd">
<!-- Generated by graphviz version 2.43.0 (0)
 -->
<!-- Title: CatenaServiceImpl::SetValue Pages: 1 -->
<!--zoomable 199 -->

<svg id="main" version="1.1" xmlns="http://www.w3.org/2000/svg" xmlns:xlink="http://www.w3.org/1999/xlink" xml:space="preserve" onload="init(evt)">
<style type="text/css"><![CDATA[
.node, .edge {opacity: 0.7;}
.node.selected, .edge.selected {opacity: 1;}
.edge:hover path { stroke: red; }
.edge:hover polygon { stroke: red; fill: red; }
]]></style>

<defs>
  <circle id="rim" cx="0" cy="0" r="7"/>
  <circle id="rim2" cx="0" cy="0" r="3.5"/>
  <g id="zoomPlus">
    <use xlink:href="#rim" fill="#404040"><set attributeName="fill" to="#808080" begin="zoomplus.mouseover" end="zoomplus.mouseout"/></use>
    <path d="M-4,0h8M0,-4v8" fill="none" stroke="white" stroke-width="1.5" pointer-events="none"/>
  </g>
  <g id="zoomMin">
    <use xlink:href="#rim" fill="#404040"><set attributeName="fill" to="#808080" begin="zoomminus.mouseover" end="zoomminus.mouseout"/></use>
    <path d="M-4,0h8" fill="none" stroke="white" stroke-width="1.5" pointer-events="none"/>
  </g>
  <g id="arrowUp" transform="translate(30 24)">
    <use xlink:href="#rim"/>
    <path pointer-events="none" fill="none" stroke="white" stroke-width="1.5" d="M0,-3.0v7 M-2.5,-0.5L0,-3.0L2.5,-0.5"/>
  </g>
  <g id="arrowRight" transform="rotate(90) translate(36 -43)">
    <use xlink:href="#rim"/>
    <path pointer-events="none" fill="none" stroke="white" stroke-width="1.5" d="M0,-3.0v7 M-2.5,-0.5L0,-3.0L2.5,-0.5"/>
  </g>
  <g id="arrowDown" transform="rotate(180) translate(-30 -48)">
    <use xlink:href="#rim"/>
    <path pointer-events="none" fill="none" stroke="white" stroke-width="1.5" d="M0,-3.0v7 M-2.5,-0.5L0,-3.0L2.5,-0.5"/>
  </g>
  <g id="arrowLeft" transform="rotate(270) translate(-36 17)">
    <use xlink:href="#rim"/>
    <path pointer-events="none" fill="none" stroke="white" stroke-width="1.5" d="M0,-3.0v7 M-2.5,-0.5L0,-3.0L2.5,-0.5"/>
  </g>
  <g id="resetDef">
    <use xlink:href="#rim2" fill="#404040"><set attributeName="fill" to="#808080" begin="reset.mouseover" end="reset.mouseout"/></use>
  </g>
</defs>
<script type="application/ecmascript">
var viewWidth = 819;
var viewHeight = 199;
var sectionId = 'dynsection-1';
</script>
<script type="application/ecmascript" xlink:href="svg.min.js"/>
<svg id="graph" class="graph">
<g id="viewport">
<title>CatenaServiceImpl::SetValue</title>
<!-- Node1 -->
<g id="Node000001" class="node">
<title>Node1</title>
<g id="a_Node000001"><a xlink:title="CallData class for the SetValue RPC.">
<polygon fill="#999999" stroke="#666666" points="811,-104.5 696,-104.5 696,-74.5 811,-74.5 811,-104.5"/>
<text text-anchor="start" x="704" y="-92.5" font-family="Helvetica,sans-Serif" font-size="10.00">CatenaServiceImpl::</text>
<text text-anchor="middle" x="753.5" y="-81.5" font-family="Helvetica,sans-Serif" font-size="10.00">SetValue</text>
</a>
</g>
</g>
<!-- Node2 -->
<g id="Node000002" class="node">
<title>Node2</title>
<g id="a_Node000002"><a xlink:href="classCatenaServiceImpl_1_1MultiSetValue.html" target="_top" xlink:title="Generic CallData class for the SetValue and MultiSetValue RPCs.">
<polygon fill="white" stroke="#666666" points="659,-104.5 544,-104.5 544,-74.5 659,-74.5 659,-104.5"/>
<text text-anchor="start" x="552" y="-92.5" font-family="Helvetica,sans-Serif" font-size="10.00">CatenaServiceImpl::</text>
<text text-anchor="middle" x="601.5" y="-81.5" font-family="Helvetica,sans-Serif" font-size="10.00">MultiSetValue</text>
</a>
</g>
</g>
<!-- Node2&#45;&gt;Node1 -->
<g id="edge1_Node000001_Node000002" class="edge">
<title>Node2&#45;&gt;Node1</title>
<g id="a_edge1_Node000001_Node000002"><a xlink:title=" ">
<path fill="none" stroke="#63b8ff" d="M669.42,-89.5C678.19,-89.5 687.12,-89.5 695.71,-89.5"/>
<polygon fill="#63b8ff" stroke="#63b8ff" points="669.21,-86 659.21,-89.5 669.21,-93 669.21,-86"/>
</a>
</g>
</g>
<!-- Node3 -->
<g id="Node000003" class="node">
<title>Node3</title>
<g id="a_Node000003"><a xlink:href="classCatenaServiceImpl_1_1CallData.html" target="_top" xlink:title="Abstract base class for the CallData classes. Provides the proceed method.">
<polygon fill="white" stroke="#666666" points="425,-190.5 310,-190.5 310,-160.5 425,-160.5 425,-190.5"/>
<text text-anchor="start" x="318" y="-178.5" font-family="Helvetica,sans-Serif" font-size="10.00">CatenaServiceImpl::</text>
<text text-anchor="middle" x="367.5" y="-167.5" font-family="Helvetica,sans-Serif" font-size="10.00">CallData</text>
</a>
</g>
</g>
<!-- Node3&#45;&gt;Node2 -->
<g id="edge2_Node000002_Node000003" class="edge">
<title>Node3&#45;&gt;Node2</title>
<g id="a_edge2_Node000002_Node000003"><a xlink:title=" ">
<path fill="none" stroke="#63b8ff" d="M434.89,-160.74C463.46,-153.43 496.91,-143.56 526,-131.5 543.83,-124.11 562.76,-113.39 577.08,-104.64"/>
<polygon fill="#63b8ff" stroke="#63b8ff" points="433.85,-157.39 425,-163.22 435.55,-164.18 433.85,-157.39"/>
</a>
</g>
</g>
<!-- Node4 -->
<g id="Node000004" class="node">
<title>Node4</title>
<g id="a_Node000004"><a xlink:title=" ">
<polygon fill="white" stroke="#bfbfbf" points="114.5,-185 28.5,-185 28.5,-166 114.5,-166 114.5,-185"/>
<text text-anchor="middle" x="71.5" y="-173" font-family="Helvetica,sans-Serif" font-size="10.00">ServerContext</text>
</a>
</g>
</g>
<!-- Node4&#45;&gt;Node3 -->
<g id="edge3_Node000003_Node000004" class="edge">
<title>Node4&#45;&gt;Node3</title>
<g id="a_edge3_Node000003_Node000004"><a xlink:title=" ">
<path fill="none" stroke="#9a32cd" stroke-dasharray="5,2" d="M124.64,-175.5C176.64,-175.5 256.3,-175.5 309.84,-175.5"/>
<polygon fill="#9a32cd" stroke="#9a32cd" points="124.62,-172 114.62,-175.5 124.62,-179 124.62,-172"/>
</a>
</g>
<text text-anchor="middle" x="216.5" y="-178.5" font-family="Helvetica,sans-Serif" font-size="10.00" fill="grey"> context_</text>
</g>
<!-- Node5 -->
<g id="Node000005" class="node">
<title>Node5</title>
<g id="a_Node000005"><a xlink:href="classCatenaServiceImpl.html" target="_top" xlink:title="Implements Catena gRPC request handlers.">
<polygon fill="white" stroke="#666666" points="422,-142 313,-142 313,-123 422,-123 422,-142"/>
<text text-anchor="middle" x="367.5" y="-130" font-family="Helvetica,sans-Serif" font-size="10.00">CatenaServiceImpl</text>
</a>
</g>
</g>
<!-- Node5&#45;&gt;Node2 -->
<g id="edge4_Node000002_Node000005" class="edge">
<title>Node5&#45;&gt;Node2</title>
<g id="a_edge4_Node000002_Node000005"><a xlink:title=" ">
<path fill="none" stroke="#9a32cd" stroke-dasharray="5,2" d="M432.05,-121.54C460.77,-116.5 495.12,-110.35 526,-104.5 531.83,-103.39 537.92,-102.21 543.98,-101.02"/>
<polygon fill="#9a32cd" stroke="#9a32cd" points="431.38,-118.1 422.14,-123.28 432.59,-125 431.38,-118.1"/>
</a>
</g>
<text text-anchor="middle" x="494.5" y="-119.5" font-family="Helvetica,sans-Serif" font-size="10.00" fill="grey"> service_</text>
</g>
<!-- Node6 -->
<g id="Node000006" class="node">
<title>Node6</title>
<g id="a_Node000006"><a xlink:title=" ">
<polygon fill="white" stroke="#bfbfbf" points="134.5,-147.5 8.5,-147.5 8.5,-117.5 134.5,-117.5 134.5,-147.5"/>
<text text-anchor="start" x="16.5" y="-135.5" font-family="Helvetica,sans-Serif" font-size="10.00">catena::CatenaService</text>
<text text-anchor="middle" x="71.5" y="-124.5" font-family="Helvetica,sans-Serif" font-size="10.00">::AsyncService</text>
</a>
</g>
</g>
<!-- Node6&#45;&gt;Node5 -->
<g id="edge5_Node000005_Node000006" class="edge">
<title>Node6&#45;&gt;Node5</title>
<g id="a_edge5_Node000005_Node000006"><a xlink:title=" ">
<path fill="none" stroke="#63b8ff" d="M144.99,-132.5C196.87,-132.5 265.57,-132.5 312.63,-132.5"/>
<polygon fill="#63b8ff" stroke="#63b8ff" points="144.85,-129 134.85,-132.5 144.85,-136 144.85,-129"/>
</a>
</g>
</g>
<!-- Node7 -->
<g id="Node000007" class="node">
<title>Node7</title>
<g id="a_Node000007"><a xlink:href="classcatena_1_1grpc_1_1SubscriptionManager.html" target="_top" xlink:title="Class for managing parameter subscriptions in gRPC connections.">
<polygon fill="white" stroke="#666666" points="143,-99.5 0,-99.5 0,-69.5 143,-69.5 143,-99.5"/>
<text text-anchor="start" x="8" y="-87.5" font-family="Helvetica,sans-Serif" font-size="10.00">catena::grpc::Subscription</text>
<text text-anchor="middle" x="71.5" y="-76.5" font-family="Helvetica,sans-Serif" font-size="10.00">Manager</text>
</a>
</g>
</g>
<!-- Node7&#45;&gt;Node5 -->
<g id="edge6_Node000005_Node000007" class="edge">
<title>Node7&#45;&gt;Node5</title>
<g id="a_edge6_Node000005_Node000007"><a xlink:title=" ">
<path fill="none" stroke="#9a32cd" stroke-dasharray="5,2" d="M153.27,-97.69C204.1,-105.99 268.29,-116.47 312.89,-123.75"/>
<polygon fill="#9a32cd" stroke="#9a32cd" points="153.73,-94.22 143.29,-96.06 152.6,-101.12 153.73,-94.22"/>
</a>
</g>
<text text-anchor="middle" x="216.5" y="-120.5" font-family="Helvetica,sans-Serif" font-size="10.00" fill="grey"> subscriptionManager_</text>
</g>
<!-- Node8 -->
<g id="Node000008" class="node">
<title>Node8</title>
<g id="a_Node000008"><a xlink:title=" ">
<polygon fill="white" stroke="#bfbfbf" points="445,-104.5 290,-104.5 290,-74.5 445,-74.5 445,-104.5"/>
<text text-anchor="start" x="298" y="-92.5" font-family="Helvetica,sans-Serif" font-size="10.00">ServerAsyncResponseWriter</text>
<text text-anchor="middle" x="367.5" y="-81.5" font-family="Helvetica,sans-Serif" font-size="10.00">&lt; catena::Empty &gt;</text>
</a>
</g>
</g>
<!-- Node8&#45;&gt;Node2 -->
<g id="edge7_Node000002_Node000008" class="edge">
<title>Node8&#45;&gt;Node2</title>
<g id="a_edge7_Node000002_Node000008"><a xlink:title=" ">
<path fill="none" stroke="#9a32cd" stroke-dasharray="5,2" d="M455.44,-89.5C485,-89.5 517.25,-89.5 543.82,-89.5"/>
<polygon fill="#9a32cd" stroke="#9a32cd" points="455.11,-86 445.11,-89.5 455.11,-93 455.11,-86"/>
</a>
</g>
<text text-anchor="middle" x="494.5" y="-92.5" font-family="Helvetica,sans-Serif" font-size="10.00" fill="grey"> responder_</text>
</g>
<!-- Node9 -->
<g id="Node000009" class="node">
<title>Node9</title>
<g id="a_Node000009"><a xlink:href="classcatena_1_1common_1_1Device.html" target="_top" xlink:title="Implements the Device interface defined in the protobuf.">
<polygon fill="white" stroke="#666666" points="436.5,-56 298.5,-56 298.5,-37 436.5,-37 436.5,-56"/>
<text text-anchor="middle" x="367.5" y="-44" font-family="Helvetica,sans-Serif" font-size="10.00">catena::common::Device</text>
</a>
</g>
</g>
<!-- Node9&#45;&gt;Node2 -->
<g id="edge8_Node000002_Node000009" class="edge">
<title>Node9&#45;&gt;Node2</title>
<g id="a_edge8_Node000002_Node000009"><a xlink:title=" ">
<path fill="none" stroke="#9a32cd" stroke-dasharray="5,2" d="M434.13,-57.82C462.42,-62.79 495.87,-68.79 526,-74.5 531.83,-75.61 537.92,-76.79 543.98,-77.98"/>
<polygon fill="#9a32cd" stroke="#9a32cd" points="434.41,-54.32 423.95,-56.04 433.2,-61.21 434.41,-54.32"/>
</a>
</g>
<text text-anchor="middle" x="494.5" y="-77.5" font-family="Helvetica,sans-Serif" font-size="10.00" fill="grey"> dm_</text>
</g>
<!-- Node10 -->
<g id="Node000010" class="node">
<title>Node10</title>
<g id="a_Node000010"><a xlink:title=" ">
<polygon fill="white" stroke="#bfbfbf" points="391,-19 344,-19 344,0 391,0 391,-19"/>
<text text-anchor="middle" x="367.5" y="-7" font-family="Helvetica,sans-Serif" font-size="10.00">Status</text>
</a>
</g>
</g>
<!-- Node10&#45;&gt;Node2 -->
<g id="edge9_Node000002_Node000010" class="edge">
<title>Node10&#45;&gt;Node2</title>
<g id="a_edge9_Node000002_Node000010"><a xlink:title=" ">
<path fill="none" stroke="#9a32cd" stroke-dasharray="5,2" d="M401.26,-14.93C433.69,-20.91 484.37,-31.95 526,-48.5 543.7,-55.54 562.48,-65.89 576.75,-74.43"/>
<polygon fill="#9a32cd" stroke="#9a32cd" points="401.46,-11.41 391,-13.09 400.23,-18.3 401.46,-11.41"/>
</a>
</g>
<text text-anchor="middle" x="494.5" y="-51.5" font-family="Helvetica,sans-Serif" font-size="10.00" fill="grey"> errorStatus_</text>
</g>
</g>
</svg>

<g id="navigator" transform="translate(0 0)" fill="#404254">
  <rect fill="#f2f5e9" fill-opacity="0.5" stroke="#606060" stroke-width=".5" x="0" y="0" width="60" height="60"/>
  <use id="zoomplus" xlink:href="#zoomPlus" x="17" y="9" onmousedown="handleZoom(evt,'in')"/>
  <use id="zoomminus" xlink:href="#zoomMin" x="42" y="9" onmousedown="handleZoom(evt,'out')"/>
  <use id="reset" xlink:href="#resetDef" x="30" y="36" onmousedown="handleReset()"/>
   <use id="arrowup" xlink:href="#arrowUp" x="0" y="0" onmousedown="handlePan(0,-1)"/>
  <use id="arrowright" xlink:href="#arrowRight" x="0" y="0" onmousedown="handlePan(1,0)"/>
  <use id="arrowdown" xlink:href="#arrowDown" x="0" y="0" onmousedown="handlePan(0,1)"/>
  <use id="arrowleft" xlink:href="#arrowLeft" x="0" y="0" onmousedown="handlePan(-1,0)"/>
</g>
<svg viewBox="0 0 15 15" width="100%" height="30px" preserveAspectRatio="xMaxYMin meet">
 <g id="arrow_out" transform="scale(0.3 0.3)">
  <a xlink:href="classCatenaServiceImpl_1_1SetValue__coll__graph_org.svg" target="_base">
   <rect id="button" ry="5" rx="5" y="6" x="6" height="38" width="38"
        fill="#f2f5e9" fill-opacity="0.5" stroke="#606060" stroke-width="1.0"/>
   <path id="arrow"
     d="M 11.500037,31.436501 C 11.940474,20.09759 22.043105,11.32322 32.158766,21.979434 L 37.068811,17.246167 C 37.068811,17.246167 37.088388,32 37.088388,32 L 22.160133,31.978069 C 22.160133,31.978069 26.997745,27.140456 26.997745,27.140456 C 18.528582,18.264221 13.291696,25.230495 11.500037,31.436501 z"
     style="fill:#404040;"/>
  </a>
 </g>
</svg>

<style type='text/css'>
<![CDATA[
[data-mouse-over-selected='false'] { opacity: 0.7; }
[data-mouse-over-selected='true']  { opacity: 1.0; }
]]>
</style>
<script type="application/ecmascript"><![CDATA[
document.addEventListener('DOMContentLoaded', (event) => {
  highlightEdges();
  highlightAdjacentNodes();
});
]]></script>
</svg>
