<?xml version="1.0" encoding="UTF-8" standalone="no"?>
<!DOCTYPE svg PUBLIC "-//W3C//DTD SVG 1.1//EN"
 "http://www.w3.org/Graphics/SVG/1.1/DTD/svg11.dtd">
<!-- Generated by graphviz version 2.43.0 (0)
 -->
<!-- Title: catena::common::IAuthorizer::readAuthz Pages: 1 -->
<!--zoomable 228 -->

<svg id="main" version="1.1" xmlns="http://www.w3.org/2000/svg" xmlns:xlink="http://www.w3.org/1999/xlink" xml:space="preserve" onload="init(evt)">
<style type="text/css"><![CDATA[
.node, .edge {opacity: 0.7;}
.node.selected, .edge.selected {opacity: 1;}
.edge:hover path { stroke: red; }
.edge:hover polygon { stroke: red; fill: red; }
]]></style>

<defs>
  <circle id="rim" cx="0" cy="0" r="7"/>
  <circle id="rim2" cx="0" cy="0" r="3.5"/>
  <g id="zoomPlus">
    <use xlink:href="#rim" fill="#404040"><set attributeName="fill" to="#808080" begin="zoomplus.mouseover" end="zoomplus.mouseout"/></use>
    <path d="M-4,0h8M0,-4v8" fill="none" stroke="white" stroke-width="1.5" pointer-events="none"/>
  </g>
  <g id="zoomMin">
    <use xlink:href="#rim" fill="#404040"><set attributeName="fill" to="#808080" begin="zoomminus.mouseover" end="zoomminus.mouseout"/></use>
    <path d="M-4,0h8" fill="none" stroke="white" stroke-width="1.5" pointer-events="none"/>
  </g>
  <g id="arrowUp" transform="translate(30 24)">
    <use xlink:href="#rim"/>
    <path pointer-events="none" fill="none" stroke="white" stroke-width="1.5" d="M0,-3.0v7 M-2.5,-0.5L0,-3.0L2.5,-0.5"/>
  </g>
  <g id="arrowRight" transform="rotate(90) translate(36 -43)">
    <use xlink:href="#rim"/>
    <path pointer-events="none" fill="none" stroke="white" stroke-width="1.5" d="M0,-3.0v7 M-2.5,-0.5L0,-3.0L2.5,-0.5"/>
  </g>
  <g id="arrowDown" transform="rotate(180) translate(-30 -48)">
    <use xlink:href="#rim"/>
    <path pointer-events="none" fill="none" stroke="white" stroke-width="1.5" d="M0,-3.0v7 M-2.5,-0.5L0,-3.0L2.5,-0.5"/>
  </g>
  <g id="arrowLeft" transform="rotate(270) translate(-36 17)">
    <use xlink:href="#rim"/>
    <path pointer-events="none" fill="none" stroke="white" stroke-width="1.5" d="M0,-3.0v7 M-2.5,-0.5L0,-3.0L2.5,-0.5"/>
  </g>
  <g id="resetDef">
    <use xlink:href="#rim2" fill="#404040"><set attributeName="fill" to="#808080" begin="reset.mouseover" end="reset.mouseout"/></use>
  </g>
</defs>
<script type="application/ecmascript">
var viewWidth = 554;
var viewHeight = 228;
var sectionId = 'dynsection-1';
</script>
<script type="application/ecmascript" xlink:href="svg.min.js"/>
<svg id="graph" class="graph">
<g id="viewport">
<title>catena::common::IAuthorizer::readAuthz</title>
<!-- Node1 -->
<g id="Node000001" class="node">
<title>Node1</title>
<g id="a_Node000001"><a xlink:title="Check if the client has read authorization for a param.">
<polygon fill="#999999" stroke="#666666" points="546,-133.5 388,-133.5 388,-103.5 546,-103.5 546,-133.5"/>
<text text-anchor="start" x="396" y="-121.5" font-family="Helvetica,sans-Serif" font-size="10.00">catena::common::IAuthorizer</text>
<text text-anchor="middle" x="467" y="-110.5" font-family="Helvetica,sans-Serif" font-size="10.00">::readAuthz</text>
</a>
</g>
</g>
<!-- Node2 -->
<g id="Node000002" class="node">
<title>Node2</title>
<g id="a_Node000002"><a xlink:href="classcatena_1_1common_1_1ParamWithValue.html#a77b784c48506b34d0672493d773b8120" target="_top" xlink:title="Gets a child parameter by following a path.">
<polygon fill="white" stroke="#666666" points="352,-219.5 194,-219.5 194,-189.5 352,-189.5 352,-219.5"/>
<text text-anchor="start" x="202" y="-207.5" font-family="Helvetica,sans-Serif" font-size="10.00">catena::common::ParamWith</text>
<text text-anchor="middle" x="273" y="-196.5" font-family="Helvetica,sans-Serif" font-size="10.00">Value::getParam</text>
</a>
</g>
</g>
<!-- Node1&#45;&gt;Node2 -->
<g id="edge1_Node000001_Node000002" class="edge">
<title>Node1&#45;&gt;Node2</title>
<g id="a_edge1_Node000001_Node000002"><a xlink:title=" ">
<path fill="none" stroke="#63b8ff" d="M428.81,-138.37C406.76,-149.83 378.11,-164.16 352,-175.5 340.87,-180.34 328.64,-185.12 317.24,-189.37"/>
<polygon fill="#63b8ff" stroke="#63b8ff" points="430.59,-141.39 437.82,-133.65 427.34,-135.19 430.59,-141.39"/>
</a>
</g>
</g>
<!-- Node3 -->
<g id="Node000003" class="node">
<title>Node3</title>
<g id="a_Node000003"><a xlink:href="classcatena_1_1common_1_1ParamWithValue.html#a302feec9677b9cdf1181bbfeef73eafa" target="_top" xlink:title="get the child parameter that oid points to">
<polygon fill="white" stroke="#666666" points="158,-197.5 0,-197.5 0,-167.5 158,-167.5 158,-197.5"/>
<text text-anchor="start" x="8" y="-185.5" font-family="Helvetica,sans-Serif" font-size="10.00">catena::common::ParamWith</text>
<text text-anchor="middle" x="79" y="-174.5" font-family="Helvetica,sans-Serif" font-size="10.00">Value::getParam_</text>
</a>
</g>
</g>
<!-- Node1&#45;&gt;Node3 -->
<g id="edge4_Node000001_Node000003" class="edge">
<title>Node1&#45;&gt;Node3</title>
<g id="a_edge4_Node000001_Node000003"><a xlink:title=" ">
<path fill="none" stroke="#63b8ff" d="M387.99,-135.59C375.96,-138.03 363.67,-140.42 352,-142.5 286.92,-154.12 212.65,-164.88 158.17,-172.3"/>
<polygon fill="#63b8ff" stroke="#63b8ff" points="388.92,-138.97 398.02,-133.53 387.52,-132.11 388.92,-138.97"/>
</a>
</g>
</g>
<!-- Node4 -->
<g id="Node000004" class="node">
<title>Node4</title>
<g id="a_Node000004"><a xlink:href="classcatena_1_1common_1_1ParamWithValue.html#a5cdb6705e55f98fa0985c91fda3aa0e9" target="_top" xlink:title="Specialized getParam_ for EmptyValue &#45; handles template parameters with descriptor structure.">
<polygon fill="white" stroke="#666666" points="352,-133.5 194,-133.5 194,-103.5 352,-103.5 352,-133.5"/>
<text text-anchor="start" x="202" y="-121.5" font-family="Helvetica,sans-Serif" font-size="10.00">catena::common::ParamWith</text>
<text text-anchor="middle" x="273" y="-110.5" font-family="Helvetica,sans-Serif" font-size="10.00">Value::getParam_</text>
</a>
</g>
</g>
<!-- Node1&#45;&gt;Node4 -->
<g id="edge3_Node000001_Node000004" class="edge">
<title>Node1&#45;&gt;Node4</title>
<g id="a_edge3_Node000001_Node000004"><a xlink:title=" ">
<path fill="none" stroke="#63b8ff" d="M377.85,-118.5C369.23,-118.5 360.53,-118.5 352.02,-118.5"/>
<polygon fill="#63b8ff" stroke="#63b8ff" points="377.91,-122 387.91,-118.5 377.91,-115 377.91,-122"/>
</a>
</g>
</g>
<!-- Node5 -->
<g id="Node000005" class="node">
<title>Node5</title>
<g id="a_Node000005"><a xlink:href="classcatena_1_1common_1_1ParamWithValue.html#a2a76ae1eb31c3d0cb471e4a871ec90ca" target="_top" xlink:title="Serializes the parameter descriptor to a protobuf paramInfo object.">
<polygon fill="white" stroke="#666666" points="352,-85.5 194,-85.5 194,-55.5 352,-55.5 352,-85.5"/>
<text text-anchor="start" x="202" y="-73.5" font-family="Helvetica,sans-Serif" font-size="10.00">catena::common::ParamWith</text>
<text text-anchor="middle" x="273" y="-62.5" font-family="Helvetica,sans-Serif" font-size="10.00">Value::toProto</text>
</a>
</g>
</g>
<!-- Node1&#45;&gt;Node5 -->
<g id="edge5_Node000001_Node000005" class="edge">
<title>Node1&#45;&gt;Node5</title>
<g id="a_edge5_Node000001_Node000005"><a xlink:title=" ">
<path fill="none" stroke="#63b8ff" d="M395.96,-100.99C375.64,-95.91 353.65,-90.41 334.01,-85.5"/>
<polygon fill="#63b8ff" stroke="#63b8ff" points="395.23,-104.41 405.78,-103.44 396.92,-97.62 395.23,-104.41"/>
</a>
</g>
</g>
<!-- Node6 -->
<g id="Node000006" class="node">
<title>Node6</title>
<g id="a_Node000006"><a xlink:href="namespacecatena_1_1common.html#ae60728f21704d097a8446afb0de17b11" target="_top" xlink:title=" ">
<polygon fill="white" stroke="#666666" points="343,-19 203,-19 203,0 343,0 343,-19"/>
<text text-anchor="middle" x="273" y="-7" font-family="Helvetica,sans-Serif" font-size="10.00">catena::common::toProto</text>
</a>
</g>
</g>
<!-- Node1&#45;&gt;Node6 -->
<g id="edge6_Node000001_Node000006" class="edge">
<title>Node1&#45;&gt;Node6</title>
<g id="a_edge6_Node000001_Node000006"><a xlink:title=" ">
<path fill="none" stroke="#63b8ff" d="M435.28,-97.68C412.67,-82.71 380.97,-62.44 352,-46.5 333.49,-36.31 311.7,-26.12 295.87,-19.02"/>
<polygon fill="#63b8ff" stroke="#63b8ff" points="433.51,-100.71 443.77,-103.34 437.39,-94.88 433.51,-100.71"/>
</a>
</g>
</g>
<!-- Node2&#45;&gt;Node3 -->
<g id="edge2_Node000002_Node000003" class="edge">
<title>Node2&#45;&gt;Node3</title>
<g id="a_edge2_Node000002_Node000003"><a xlink:title=" ">
<path fill="none" stroke="#63b8ff" d="M183.85,-194.4C175.23,-193.41 166.53,-192.41 158.02,-191.44"/>
<polygon fill="#63b8ff" stroke="#63b8ff" points="183.57,-197.89 193.91,-195.55 184.37,-190.94 183.57,-197.89"/>
</a>
</g>
</g>
<!-- Node6&#45;&gt;Node6 -->
<g id="edge7_Node000006_Node000006" class="edge">
<title>Node6&#45;&gt;Node6</title>
<g id="a_edge7_Node000006_Node000006"><a xlink:title=" ">
<path fill="none" stroke="#63b8ff" d="M308.98,-27.07C308.45,-32.62 296.46,-37 273,-37 238.87,-37 229.01,-27.73 243.41,-19.08"/>
<polygon fill="#63b8ff" stroke="#63b8ff" points="311.57,-24.71 302.59,-19.08 306.11,-29.08 311.57,-24.71"/>
</a>
</g>
</g>
</g>
</svg>

<g id="navigator" transform="translate(0 0)" fill="#404254">
  <rect fill="#f2f5e9" fill-opacity="0.5" stroke="#606060" stroke-width=".5" x="0" y="0" width="60" height="60"/>
  <use id="zoomplus" xlink:href="#zoomPlus" x="17" y="9" onmousedown="handleZoom(evt,'in')"/>
  <use id="zoomminus" xlink:href="#zoomMin" x="42" y="9" onmousedown="handleZoom(evt,'out')"/>
  <use id="reset" xlink:href="#resetDef" x="30" y="36" onmousedown="handleReset()"/>
   <use id="arrowup" xlink:href="#arrowUp" x="0" y="0" onmousedown="handlePan(0,-1)"/>
  <use id="arrowright" xlink:href="#arrowRight" x="0" y="0" onmousedown="handlePan(1,0)"/>
  <use id="arrowdown" xlink:href="#arrowDown" x="0" y="0" onmousedown="handlePan(0,1)"/>
  <use id="arrowleft" xlink:href="#arrowLeft" x="0" y="0" onmousedown="handlePan(-1,0)"/>
</g>
<svg viewBox="0 0 15 15" width="100%" height="30px" preserveAspectRatio="xMaxYMin meet">
 <g id="arrow_out" transform="scale(0.3 0.3)">
  <a xlink:href="classcatena_1_1common_1_1IAuthorizer_acedeea5eadbebac67cb4e727c5dd762c_icgraph_org.svg" target="_base">
   <rect id="button" ry="5" rx="5" y="6" x="6" height="38" width="38"
        fill="#f2f5e9" fill-opacity="0.5" stroke="#606060" stroke-width="1.0"/>
   <path id="arrow"
     d="M 11.500037,31.436501 C 11.940474,20.09759 22.043105,11.32322 32.158766,21.979434 L 37.068811,17.246167 C 37.068811,17.246167 37.088388,32 37.088388,32 L 22.160133,31.978069 C 22.160133,31.978069 26.997745,27.140456 26.997745,27.140456 C 18.528582,18.264221 13.291696,25.230495 11.500037,31.436501 z"
     style="fill:#404040;"/>
  </a>
 </g>
</svg>

<style type='text/css'>
<![CDATA[
[data-mouse-over-selected='false'] { opacity: 0.7; }
[data-mouse-over-selected='true']  { opacity: 1.0; }
]]>
</style>
<script type="application/ecmascript"><![CDATA[
document.addEventListener('DOMContentLoaded', (event) => {
  highlightEdges();
  highlightAdjacentNodes();
});
]]></script>
</svg>
