<?xml version="1.0" encoding="UTF-8" standalone="no"?>
<!DOCTYPE svg PUBLIC "-//W3C//DTD SVG 1.1//EN"
 "http://www.w3.org/Graphics/SVG/1.1/DTD/svg11.dtd">
<!-- Generated by graphviz version 2.43.0 (0)
 -->
<!-- Title: catena::common::NamedChoiceConstraint::NamedChoiceConstraint Pages: 1 -->
<svg width="373pt" height="39pt"
 viewBox="0.00 0.00 373.00 39.00" xmlns="http://www.w3.org/2000/svg" xmlns:xlink="http://www.w3.org/1999/xlink">
<g id="graph0" class="graph" transform="scale(1 1) rotate(0) translate(4 35)">
<title>catena::common::NamedChoiceConstraint::NamedChoiceConstraint</title>
<polygon fill="white" stroke="transparent" points="-4,4 -4,-35 369,-35 369,4 -4,4"/>
<!-- Node1 -->
<g id="node1" class="node">
<title>Node1</title>
<g id="a_node1"><a xlink:title="Construct a new Named Choice Constraint object.">
<polygon fill="#bfbfbf" stroke="black" points="0,-0.5 0,-30.5 191,-30.5 191,-0.5 0,-0.5"/>
<text text-anchor="start" x="8" y="-18.5" font-family="Helvetica,sans-Serif" font-size="10.00">catena::common::NamedChoice</text>
<text text-anchor="middle" x="95.5" y="-7.5" font-family="Helvetica,sans-Serif" font-size="10.00">Constraint::NamedChoiceConstraint</text>
</a>
</g>
</g>
<!-- Node2 -->
<g id="node2" class="node">
<title>Node2</title>
<g id="a_node2"><a xlink:href="classcatena_1_1common_1_1Device.html#a507ad02cfa93ab05d32df27e6b5b7c66" target="_top" xlink:title="add an item to one of the collections owned by the device">
<polygon fill="white" stroke="black" points="227,-0.5 227,-30.5 365,-30.5 365,-0.5 227,-0.5"/>
<text text-anchor="start" x="235" y="-18.5" font-family="Helvetica,sans-Serif" font-size="10.00">catena::common::Device</text>
<text text-anchor="middle" x="296" y="-7.5" font-family="Helvetica,sans-Serif" font-size="10.00">::addItem</text>
</a>
</g>
</g>
<!-- Node1&#45;&gt;Node2 -->
<g id="edge1" class="edge">
<title>Node1&#45;&gt;Node2</title>
<path fill="none" stroke="midnightblue" d="M191.1,-15.5C199.69,-15.5 208.33,-15.5 216.75,-15.5"/>
<polygon fill="midnightblue" stroke="midnightblue" points="216.9,-19 226.9,-15.5 216.9,-12 216.9,-19"/>
</g>
</g>
</svg>
