<?xml version="1.0" encoding="UTF-8" standalone="no"?>
<!DOCTYPE svg PUBLIC "-//W3C//DTD SVG 1.1//EN"
 "http://www.w3.org/Graphics/SVG/1.1/DTD/svg11.dtd">
<!-- Generated by graphviz version 2.43.0 (0)
 -->
<!-- Title: catena::REST::ICallData Pages: 1 -->
<!--zoomable 470 -->

<svg id="main" version="1.1" xmlns="http://www.w3.org/2000/svg" xmlns:xlink="http://www.w3.org/1999/xlink" xml:space="preserve" onload="init(evt)">
<style type="text/css"><![CDATA[
.node, .edge {opacity: 0.7;}
.node.selected, .edge.selected {opacity: 1;}
.edge:hover path { stroke: red; }
.edge:hover polygon { stroke: red; fill: red; }
]]></style>

<defs>
  <circle id="rim" cx="0" cy="0" r="7"/>
  <circle id="rim2" cx="0" cy="0" r="3.5"/>
  <g id="zoomPlus">
    <use xlink:href="#rim" fill="#404040"><set attributeName="fill" to="#808080" begin="zoomplus.mouseover" end="zoomplus.mouseout"/></use>
    <path d="M-4,0h8M0,-4v8" fill="none" stroke="white" stroke-width="1.5" pointer-events="none"/>
  </g>
  <g id="zoomMin">
    <use xlink:href="#rim" fill="#404040"><set attributeName="fill" to="#808080" begin="zoomminus.mouseover" end="zoomminus.mouseout"/></use>
    <path d="M-4,0h8" fill="none" stroke="white" stroke-width="1.5" pointer-events="none"/>
  </g>
  <g id="arrowUp" transform="translate(30 24)">
    <use xlink:href="#rim"/>
    <path pointer-events="none" fill="none" stroke="white" stroke-width="1.5" d="M0,-3.0v7 M-2.5,-0.5L0,-3.0L2.5,-0.5"/>
  </g>
  <g id="arrowRight" transform="rotate(90) translate(36 -43)">
    <use xlink:href="#rim"/>
    <path pointer-events="none" fill="none" stroke="white" stroke-width="1.5" d="M0,-3.0v7 M-2.5,-0.5L0,-3.0L2.5,-0.5"/>
  </g>
  <g id="arrowDown" transform="rotate(180) translate(-30 -48)">
    <use xlink:href="#rim"/>
    <path pointer-events="none" fill="none" stroke="white" stroke-width="1.5" d="M0,-3.0v7 M-2.5,-0.5L0,-3.0L2.5,-0.5"/>
  </g>
  <g id="arrowLeft" transform="rotate(270) translate(-36 17)">
    <use xlink:href="#rim"/>
    <path pointer-events="none" fill="none" stroke="white" stroke-width="1.5" d="M0,-3.0v7 M-2.5,-0.5L0,-3.0L2.5,-0.5"/>
  </g>
  <g id="resetDef">
    <use xlink:href="#rim2" fill="#404040"><set attributeName="fill" to="#808080" begin="reset.mouseover" end="reset.mouseout"/></use>
  </g>
</defs>
<script type="application/ecmascript">
var viewWidth = 525;
var viewHeight = 470;
var sectionId = 'dynsection-0';
</script>
<script type="application/ecmascript" xlink:href="svg.min.js"/>
<svg id="graph" class="graph">
<g id="viewport">
<title>catena::REST::ICallData</title>
<!-- Node1 -->
<g id="Node000001" class="node">
<title>Node1</title>
<g id="a_Node000001"><a xlink:title="Interface class for REST API controllers.">
<polygon fill="#999999" stroke="#666666" points="131,-243 0,-243 0,-224 131,-224 131,-243"/>
<text text-anchor="middle" x="65.5" y="-231" font-family="Helvetica,sans-Serif" font-size="10.00">catena::REST::ICallData</text>
</a>
</g>
</g>
<!-- Node2 -->
<g id="Node000002" class="node">
<title>Node2</title>
<g id="a_Node000002"><a xlink:href="classcatena_1_1REST_1_1AddLanguage.html" target="_top" xlink:title="ICallData class for the AddLanguage REST controller.">
<polygon fill="white" stroke="#666666" points="336,-462 184,-462 184,-443 336,-443 336,-462"/>
<text text-anchor="middle" x="260" y="-450" font-family="Helvetica,sans-Serif" font-size="10.00">catena::REST::AddLanguage</text>
</a>
</g>
</g>
<!-- Node1&#45;&gt;Node2 -->
<g id="edge1_Node000001_Node000002" class="edge">
<title>Node1&#45;&gt;Node2</title>
<g id="a_edge1_Node000001_Node000002"><a xlink:title=" ">
<path fill="none" stroke="#63b8ff" d="M70.44,-253.34C79.62,-294.04 106.41,-387.02 167,-433.5 172.05,-437.37 177.69,-440.5 183.63,-443.03"/>
<polygon fill="#63b8ff" stroke="#63b8ff" points="73.82,-252.38 68.31,-243.33 66.97,-253.84 73.82,-252.38"/>
</a>
</g>
</g>
<!-- Node3 -->
<g id="Node000003" class="node">
<title>Node3</title>
<g id="a_Node000003"><a xlink:href="classcatena_1_1REST_1_1BasicParamInfoRequest.html" target="_top" xlink:title="ICallData class for the BasicParamInfoRequest REST controller.">
<polygon fill="white" stroke="#666666" points="331.5,-424.5 188.5,-424.5 188.5,-394.5 331.5,-394.5 331.5,-424.5"/>
<text text-anchor="start" x="196.5" y="-412.5" font-family="Helvetica,sans-Serif" font-size="10.00">catena::REST::BasicParam</text>
<text text-anchor="middle" x="260" y="-401.5" font-family="Helvetica,sans-Serif" font-size="10.00">InfoRequest</text>
</a>
</g>
</g>
<!-- Node1&#45;&gt;Node3 -->
<g id="edge2_Node000001_Node000003" class="edge">
<title>Node1&#45;&gt;Node3</title>
<g id="a_edge2_Node000001_Node000003"><a xlink:title=" ">
<path fill="none" stroke="#63b8ff" d="M73.81,-252.77C87.18,-285.3 118.68,-350.94 167,-385.5 173.44,-390.11 180.71,-393.83 188.25,-396.84"/>
<polygon fill="#63b8ff" stroke="#63b8ff" points="76.92,-251.11 69.98,-243.1 70.41,-253.69 76.92,-251.11"/>
</a>
</g>
</g>
<!-- Node4 -->
<g id="Node000004" class="node">
<title>Node4</title>
<g id="a_Node000004"><a xlink:href="classcatena_1_1REST_1_1Connect.html" target="_top" xlink:title="ICallData class for the Connect REST controller.">
<polygon fill="white" stroke="#666666" points="322.5,-376 197.5,-376 197.5,-357 322.5,-357 322.5,-376"/>
<text text-anchor="middle" x="260" y="-364" font-family="Helvetica,sans-Serif" font-size="10.00">catena::REST::Connect</text>
</a>
</g>
</g>
<!-- Node1&#45;&gt;Node4 -->
<g id="edge3_Node000001_Node000004" class="edge">
<title>Node1&#45;&gt;Node4</title>
<g id="a_edge3_Node000001_Node000004"><a xlink:title=" ">
<path fill="none" stroke="#63b8ff" d="M77.12,-251.97C93.09,-277.96 125.85,-324.78 167,-348.5 176.17,-353.78 186.61,-357.54 197.09,-360.21"/>
<polygon fill="#63b8ff" stroke="#63b8ff" points="79.97,-249.91 71.83,-243.12 73.95,-253.5 79.97,-249.91"/>
</a>
</g>
</g>
<!-- Node5 -->
<g id="Node000005" class="node">
<title>Node5</title>
<g id="a_Node000005"><a xlink:href="classcatena_1_1REST_1_1DeviceRequest.html" target="_top" xlink:title="ICallData class for the DeviceRequest REST controller.">
<polygon fill="white" stroke="#666666" points="339.5,-339 180.5,-339 180.5,-320 339.5,-320 339.5,-339"/>
<text text-anchor="middle" x="260" y="-327" font-family="Helvetica,sans-Serif" font-size="10.00">catena::REST::DeviceRequest</text>
</a>
</g>
</g>
<!-- Node1&#45;&gt;Node5 -->
<g id="edge4_Node000001_Node000005" class="edge">
<title>Node1&#45;&gt;Node5</title>
<g id="a_edge4_Node000001_Node000005"><a xlink:title=" ">
<path fill="none" stroke="#63b8ff" d="M82.87,-250.22C101.52,-268.25 133.75,-296.39 167,-311.5 174.56,-314.93 182.75,-317.72 191.04,-319.97"/>
<polygon fill="#63b8ff" stroke="#63b8ff" points="85.31,-247.72 75.74,-243.18 80.39,-252.7 85.31,-247.72"/>
</a>
</g>
</g>
<!-- Node6 -->
<g id="Node000006" class="node">
<title>Node6</title>
<g id="a_Node000006"><a xlink:href="classcatena_1_1REST_1_1ExecuteCommand.html" target="_top" xlink:title="ICallData class for the ExecuteCommand REST controller.">
<polygon fill="white" stroke="#666666" points="347,-302 173,-302 173,-283 347,-283 347,-302"/>
<text text-anchor="middle" x="260" y="-290" font-family="Helvetica,sans-Serif" font-size="10.00">catena::REST::ExecuteCommand</text>
</a>
</g>
</g>
<!-- Node1&#45;&gt;Node6 -->
<g id="edge5_Node000001_Node000006" class="edge">
<title>Node1&#45;&gt;Node6</title>
<g id="a_edge5_Node000001_Node000006"><a xlink:title=" ">
<path fill="none" stroke="#63b8ff" d="M95.85,-247.24C115.61,-256.05 142.44,-267.16 167,-274.5 177.92,-277.76 189.74,-280.58 201.16,-282.97"/>
<polygon fill="#63b8ff" stroke="#63b8ff" points="97.04,-243.94 86.49,-243 94.15,-250.32 97.04,-243.94"/>
</a>
</g>
</g>
<!-- Node7 -->
<g id="Node000007" class="node">
<title>Node7</title>
<g id="a_Node000007"><a xlink:href="classcatena_1_1REST_1_1GetParam.html" target="_top" xlink:title="ICallData class for the GetParam REST controller.">
<polygon fill="white" stroke="#666666" points="327,-265 193,-265 193,-246 327,-246 327,-265"/>
<text text-anchor="middle" x="260" y="-253" font-family="Helvetica,sans-Serif" font-size="10.00">catena::REST::GetParam</text>
</a>
</g>
</g>
<!-- Node1&#45;&gt;Node7 -->
<g id="edge6_Node000001_Node000007" class="edge">
<title>Node1&#45;&gt;Node7</title>
<g id="a_edge6_Node000001_Node000007"><a xlink:title=" ">
<path fill="none" stroke="#63b8ff" d="M141.54,-242.08C158.49,-244.01 176.35,-246.05 192.89,-247.94"/>
<polygon fill="#63b8ff" stroke="#63b8ff" points="141.47,-238.55 131.14,-240.89 140.67,-245.5 141.47,-238.55"/>
</a>
</g>
</g>
<!-- Node8 -->
<g id="Node000008" class="node">
<title>Node8</title>
<g id="a_Node000008"><a xlink:href="classcatena_1_1REST_1_1GetPopulatedSlots.html" target="_top" xlink:title="ICallData class for the GetPopulatedSlots REST controller.">
<polygon fill="white" stroke="#666666" points="336,-227.5 184,-227.5 184,-197.5 336,-197.5 336,-227.5"/>
<text text-anchor="start" x="192" y="-215.5" font-family="Helvetica,sans-Serif" font-size="10.00">catena::REST::GetPopulated</text>
<text text-anchor="middle" x="260" y="-204.5" font-family="Helvetica,sans-Serif" font-size="10.00">Slots</text>
</a>
</g>
</g>
<!-- Node1&#45;&gt;Node8 -->
<g id="edge7_Node000001_Node000008" class="edge">
<title>Node1&#45;&gt;Node8</title>
<g id="a_edge7_Node000001_Node000008"><a xlink:title=" ">
<path fill="none" stroke="#63b8ff" d="M141.2,-225.35C155.21,-223.82 169.87,-222.22 183.89,-220.69"/>
<polygon fill="#63b8ff" stroke="#63b8ff" points="140.7,-221.88 131.14,-226.45 141.46,-228.84 140.7,-221.88"/>
</a>
</g>
</g>
<!-- Node9 -->
<g id="Node000009" class="node">
<title>Node9</title>
<g id="a_Node000009"><a xlink:href="classcatena_1_1REST_1_1GetValue.html" target="_top" xlink:title="ICallData class for the GetValue REST controller.">
<polygon fill="white" stroke="#666666" points="325,-179 195,-179 195,-160 325,-160 325,-179"/>
<text text-anchor="middle" x="260" y="-167" font-family="Helvetica,sans-Serif" font-size="10.00">catena::REST::GetValue</text>
</a>
</g>
</g>
<!-- Node1&#45;&gt;Node9 -->
<g id="edge8_Node000001_Node000009" class="edge">
<title>Node1&#45;&gt;Node9</title>
<g id="a_edge8_Node000001_Node000009"><a xlink:title=" ">
<path fill="none" stroke="#63b8ff" d="M93.62,-219.42C113.49,-209.58 141.36,-196.78 167,-188.5 178.49,-184.79 191.02,-181.64 203.03,-179.03"/>
<polygon fill="#63b8ff" stroke="#63b8ff" points="91.91,-216.36 84.55,-223.97 95.06,-222.61 91.91,-216.36"/>
</a>
</g>
</g>
<!-- Node10 -->
<g id="Node000010" class="node">
<title>Node10</title>
<g id="a_Node000010"><a xlink:href="classcatena_1_1REST_1_1LanguagePackRequest.html" target="_top" xlink:title="ICallData class for the LanguagePackRequest REST controller.">
<polygon fill="white" stroke="#666666" points="337.5,-141.5 182.5,-141.5 182.5,-111.5 337.5,-111.5 337.5,-141.5"/>
<text text-anchor="start" x="190.5" y="-129.5" font-family="Helvetica,sans-Serif" font-size="10.00">catena::REST::LanguagePack</text>
<text text-anchor="middle" x="260" y="-118.5" font-family="Helvetica,sans-Serif" font-size="10.00">Request</text>
</a>
</g>
</g>
<!-- Node1&#45;&gt;Node10 -->
<g id="edge9_Node000001_Node000010" class="edge">
<title>Node1&#45;&gt;Node10</title>
<g id="a_edge9_Node000001_Node000010"><a xlink:title=" ">
<path fill="none" stroke="#63b8ff" d="M82.62,-216.64C101.27,-198.08 133.7,-168.62 167,-151.5 174.36,-147.72 182.35,-144.46 190.46,-141.66"/>
<polygon fill="#63b8ff" stroke="#63b8ff" points="80.03,-214.28 75.51,-223.86 85.02,-219.19 80.03,-214.28"/>
</a>
</g>
</g>
<!-- Node11 -->
<g id="Node000011" class="node">
<title>Node11</title>
<g id="a_Node000011"><a xlink:href="classcatena_1_1REST_1_1ListLanguages.html" target="_top" xlink:title="ICallData class for the ListLanguages REST controller.">
<polygon fill="white" stroke="#666666" points="337.5,-93 182.5,-93 182.5,-74 337.5,-74 337.5,-93"/>
<text text-anchor="middle" x="260" y="-81" font-family="Helvetica,sans-Serif" font-size="10.00">catena::REST::ListLanguages</text>
</a>
</g>
</g>
<!-- Node1&#45;&gt;Node11 -->
<g id="edge10_Node000001_Node000011" class="edge">
<title>Node1&#45;&gt;Node11</title>
<g id="a_edge10_Node000001_Node000011"><a xlink:title=" ">
<path fill="none" stroke="#63b8ff" d="M75.42,-214.6C90.16,-185.56 122.46,-130.42 167,-102.5 173.08,-98.69 179.79,-95.63 186.73,-93.17"/>
<polygon fill="#63b8ff" stroke="#63b8ff" points="72.22,-213.17 70.95,-223.69 78.5,-216.26 72.22,-213.17"/>
</a>
</g>
</g>
<!-- Node12 -->
<g id="Node000012" class="node">
<title>Node12</title>
<g id="a_Node000012"><a xlink:href="classcatena_1_1REST_1_1MultiSetValue.html" target="_top" xlink:title="ICallData class for the MultiSetValue REST controller.">
<polygon fill="white" stroke="#666666" points="336.5,-56 183.5,-56 183.5,-37 336.5,-37 336.5,-56"/>
<text text-anchor="middle" x="260" y="-44" font-family="Helvetica,sans-Serif" font-size="10.00">catena::REST::MultiSetValue</text>
</a>
</g>
</g>
<!-- Node1&#45;&gt;Node12 -->
<g id="edge11_Node000001_Node000012" class="edge">
<title>Node1&#45;&gt;Node12</title>
<g id="a_edge11_Node000001_Node000012"><a xlink:title=" ">
<path fill="none" stroke="#63b8ff" d="M72.37,-213.9C84.11,-178.28 114.02,-103.14 167,-65.5 172.32,-61.72 178.22,-58.66 184.39,-56.18"/>
<polygon fill="#63b8ff" stroke="#63b8ff" points="68.98,-213.01 69.31,-223.6 75.66,-215.12 68.98,-213.01"/>
</a>
</g>
</g>
<!-- Node14 -->
<g id="Node000014" class="node">
<title>Node14</title>
<g id="a_Node000014"><a xlink:href="classcatena_1_1REST_1_1UpdateSubscriptions.html" target="_top" xlink:title="ICallData class for the UpdateSubscriptions REST controller.">
<polygon fill="white" stroke="#666666" points="353,-19 167,-19 167,0 353,0 353,-19"/>
<text text-anchor="middle" x="260" y="-7" font-family="Helvetica,sans-Serif" font-size="10.00">catena::REST::UpdateSubscriptions</text>
</a>
</g>
</g>
<!-- Node1&#45;&gt;Node14 -->
<g id="edge13_Node000001_Node000014" class="edge">
<title>Node1&#45;&gt;Node14</title>
<g id="a_edge13_Node000001_Node000014"><a xlink:title=" ">
<path fill="none" stroke="#63b8ff" d="M70.1,-214.02C78.81,-172.78 105.01,-76.54 167,-28.5 171.9,-24.7 177.37,-21.62 183.14,-19.11"/>
<polygon fill="#63b8ff" stroke="#63b8ff" points="66.66,-213.4 68.14,-223.89 73.52,-214.77 66.66,-213.4"/>
</a>
</g>
</g>
<!-- Node13 -->
<g id="Node000013" class="node">
<title>Node13</title>
<g id="a_Node000013"><a xlink:href="classcatena_1_1REST_1_1SetValue.html" target="_top" xlink:title="ICallData class for the SetValue REST controller.">
<polygon fill="white" stroke="#666666" points="517,-56 389,-56 389,-37 517,-37 517,-56"/>
<text text-anchor="middle" x="453" y="-44" font-family="Helvetica,sans-Serif" font-size="10.00">catena::REST::SetValue</text>
</a>
</g>
</g>
<!-- Node12&#45;&gt;Node13 -->
<g id="edge12_Node000012_Node000013" class="edge">
<title>Node12&#45;&gt;Node13</title>
<g id="a_edge12_Node000012_Node000013"><a xlink:title=" ">
<path fill="none" stroke="#63b8ff" d="M346.98,-46.5C361.1,-46.5 375.5,-46.5 388.94,-46.5"/>
<polygon fill="#63b8ff" stroke="#63b8ff" points="346.76,-43 336.76,-46.5 346.76,-50 346.76,-43"/>
</a>
</g>
</g>
</g>
</svg>

<g id="navigator" transform="translate(0 0)" fill="#404254">
  <rect fill="#f2f5e9" fill-opacity="0.5" stroke="#606060" stroke-width=".5" x="0" y="0" width="60" height="60"/>
  <use id="zoomplus" xlink:href="#zoomPlus" x="17" y="9" onmousedown="handleZoom(evt,'in')"/>
  <use id="zoomminus" xlink:href="#zoomMin" x="42" y="9" onmousedown="handleZoom(evt,'out')"/>
  <use id="reset" xlink:href="#resetDef" x="30" y="36" onmousedown="handleReset()"/>
   <use id="arrowup" xlink:href="#arrowUp" x="0" y="0" onmousedown="handlePan(0,-1)"/>
  <use id="arrowright" xlink:href="#arrowRight" x="0" y="0" onmousedown="handlePan(1,0)"/>
  <use id="arrowdown" xlink:href="#arrowDown" x="0" y="0" onmousedown="handlePan(0,1)"/>
  <use id="arrowleft" xlink:href="#arrowLeft" x="0" y="0" onmousedown="handlePan(-1,0)"/>
</g>
<svg viewBox="0 0 15 15" width="100%" height="30px" preserveAspectRatio="xMaxYMin meet">
 <g id="arrow_out" transform="scale(0.3 0.3)">
  <a xlink:href="classcatena_1_1REST_1_1ICallData__inherit__graph_org.svg" target="_base">
   <rect id="button" ry="5" rx="5" y="6" x="6" height="38" width="38"
        fill="#f2f5e9" fill-opacity="0.5" stroke="#606060" stroke-width="1.0"/>
   <path id="arrow"
     d="M 11.500037,31.436501 C 11.940474,20.09759 22.043105,11.32322 32.158766,21.979434 L 37.068811,17.246167 C 37.068811,17.246167 37.088388,32 37.088388,32 L 22.160133,31.978069 C 22.160133,31.978069 26.997745,27.140456 26.997745,27.140456 C 18.528582,18.264221 13.291696,25.230495 11.500037,31.436501 z"
     style="fill:#404040;"/>
  </a>
 </g>
</svg>

<style type='text/css'>
<![CDATA[
[data-mouse-over-selected='false'] { opacity: 0.7; }
[data-mouse-over-selected='true']  { opacity: 1.0; }
]]>
</style>
<script type="application/ecmascript"><![CDATA[
document.addEventListener('DOMContentLoaded', (event) => {
  highlightEdges();
  highlightAdjacentNodes();
});
]]></script>
</svg>
