<?xml version="1.0" encoding="UTF-8" standalone="no"?>
<!DOCTYPE svg PUBLIC "-//W3C//DTD SVG 1.1//EN"
 "http://www.w3.org/Graphics/SVG/1.1/DTD/svg11.dtd">
<!-- Generated by graphviz version 2.43.0 (0)
 -->
<!-- Title: catena::gRPC::Connect Pages: 1 -->
<svg width="793pt" height="253pt"
 viewBox="0.00 0.00 793.00 252.50" xmlns="http://www.w3.org/2000/svg" xmlns:xlink="http://www.w3.org/1999/xlink">
<g id="graph0" class="graph" transform="scale(1 1) rotate(0) translate(4 248.5)">
<title>catena::gRPC::Connect</title>
<!-- Node1 -->
<g id="Node000001" class="node">
<title>Node1</title>
<g id="a_Node000001"><a xlink:title="CallData class for the Connect RPC.">
<polygon fill="#999999" stroke="#666666" points="785,-145.5 658,-145.5 658,-126.5 785,-126.5 785,-145.5"/>
<text text-anchor="middle" x="721.5" y="-133.5" font-family="Helvetica,sans-Serif" font-size="10.00">catena::gRPC::Connect</text>
</a>
</g>
</g>
<!-- Node2 -->
<g id="Node000002" class="node">
<title>Node2</title>
<g id="a_Node000002"><a xlink:href="classcatena_1_1gRPC_1_1CallData.html" target="_top" xlink:title="Abstract base class for the CallData classes which defines the jwsToken_ class.">
<polygon fill="white" stroke="#666666" points="613.5,-177.5 484.5,-177.5 484.5,-158.5 613.5,-158.5 613.5,-177.5"/>
<text text-anchor="middle" x="549" y="-165.5" font-family="Helvetica,sans-Serif" font-size="10.00">catena::gRPC::CallData</text>
</a>
</g>
</g>
<!-- Node2&#45;&gt;Node1 -->
<g id="edge1_Node000001_Node000002" class="edge">
<title>Node2&#45;&gt;Node1</title>
<g id="a_edge1_Node000001_Node000002"><a xlink:title=" ">
<path fill="none" stroke="#63b8ff" d="M610.61,-156.62C629.95,-152.99 651.14,-149.02 669.71,-145.53"/>
<polygon fill="#63b8ff" stroke="#63b8ff" points="609.88,-153.2 600.69,-158.49 611.17,-160.08 609.88,-153.2"/>
</a>
</g>
</g>
<!-- Node3 -->
<g id="Node000003" class="node">
<title>Node3</title>
<g id="a_Node000003"><a xlink:href="classcatena_1_1gRPC_1_1ICallData.html" target="_top" xlink:title="Interface class for gRPC CallData classes.">
<polygon fill="white" stroke="#666666" points="312.5,-244.5 180.5,-244.5 180.5,-225.5 312.5,-225.5 312.5,-244.5"/>
<text text-anchor="middle" x="246.5" y="-232.5" font-family="Helvetica,sans-Serif" font-size="10.00">catena::gRPC::ICallData</text>
</a>
</g>
</g>
<!-- Node3&#45;&gt;Node2 -->
<g id="edge2_Node000002_Node000003" class="edge">
<title>Node3&#45;&gt;Node2</title>
<g id="a_edge2_Node000002_Node000003"><a xlink:title=" ">
<path fill="none" stroke="#63b8ff" d="M322.69,-227.17C363.46,-221.95 414.47,-213.84 459,-202 482.82,-195.67 509.06,-185.19 526.84,-177.54"/>
<polygon fill="#63b8ff" stroke="#63b8ff" points="322.05,-223.72 312.56,-228.43 322.91,-230.67 322.05,-223.72"/>
</a>
</g>
</g>
<!-- Node4 -->
<g id="Node000004" class="node">
<title>Node4</title>
<g id="a_Node000004"><a xlink:title=" ">
<polygon fill="white" stroke="#bfbfbf" points="289.5,-207.5 203.5,-207.5 203.5,-188.5 289.5,-188.5 289.5,-207.5"/>
<text text-anchor="middle" x="246.5" y="-195.5" font-family="Helvetica,sans-Serif" font-size="10.00">ServerContext</text>
</a>
</g>
</g>
<!-- Node4&#45;&gt;Node2 -->
<g id="edge3_Node000002_Node000004" class="edge">
<title>Node4&#45;&gt;Node2</title>
<g id="a_edge3_Node000002_Node000004"><a xlink:title=" ">
<path fill="none" stroke="#9a32cd" stroke-dasharray="5,2" d="M299.81,-192.78C351.15,-187.65 429.53,-179.83 484.43,-174.35"/>
<polygon fill="#9a32cd" stroke="#9a32cd" points="299.2,-189.32 289.6,-193.8 299.9,-196.29 299.2,-189.32"/>
</a>
</g>
<text text-anchor="middle" x="403.5" y="-190" font-family="Helvetica,sans-Serif" font-size="10.00" fill="grey"> context_</text>
</g>
<!-- Node5 -->
<g id="Node000005" class="node">
<title>Node5</title>
<g id="a_Node000005"><a xlink:href="classcatena_1_1gRPC_1_1IServiceImpl.html" target="_top" xlink:title="Interface class for the gRPC API Implementation.">
<polygon fill="white" stroke="#666666" points="320.5,-170.5 172.5,-170.5 172.5,-151.5 320.5,-151.5 320.5,-170.5"/>
<text text-anchor="middle" x="246.5" y="-158.5" font-family="Helvetica,sans-Serif" font-size="10.00">catena::gRPC::IServiceImpl</text>
</a>
</g>
</g>
<!-- Node5&#45;&gt;Node2 -->
<g id="edge4_Node000002_Node000005" class="edge">
<title>Node5&#45;&gt;Node2</title>
<g id="a_edge4_Node000002_Node000005"><a xlink:title=" ">
<path fill="none" stroke="#9a32cd" stroke-dasharray="5,2" d="M331.14,-162.3C370.02,-162.97 416.87,-163.89 459,-165 467.19,-165.22 475.81,-165.47 484.32,-165.74"/>
<polygon fill="#9a32cd" stroke="#9a32cd" points="330.98,-158.79 320.92,-162.12 330.86,-165.79 330.98,-158.79"/>
</a>
</g>
<text text-anchor="middle" x="403.5" y="-168" font-family="Helvetica,sans-Serif" font-size="10.00" fill="grey"> service_</text>
</g>
<!-- Node6 -->
<g id="Node000006" class="node">
<title>Node6</title>
<g id="a_Node000006"><a xlink:title=" ">
<polygon fill="white" stroke="#bfbfbf" points="126,-176 0,-176 0,-146 126,-146 126,-176"/>
<text text-anchor="start" x="8" y="-164" font-family="Helvetica,sans-Serif" font-size="10.00">catena::CatenaService</text>
<text text-anchor="middle" x="63" y="-153" font-family="Helvetica,sans-Serif" font-size="10.00">::AsyncService</text>
</a>
</g>
</g>
<!-- Node6&#45;&gt;Node5 -->
<g id="edge5_Node000005_Node000006" class="edge">
<title>Node6&#45;&gt;Node5</title>
<g id="a_edge5_Node000005_Node000006"><a xlink:title=" ">
<path fill="none" stroke="#63b8ff" d="M136.48,-161C148.31,-161 160.58,-161 172.43,-161"/>
<polygon fill="#63b8ff" stroke="#63b8ff" points="136.21,-157.5 126.21,-161 136.21,-164.5 136.21,-157.5"/>
</a>
</g>
</g>
<!-- Node7 -->
<g id="Node000007" class="node">
<title>Node7</title>
<g id="a_Node000007"><a xlink:href="classcatena_1_1common_1_1Connect.html" target="_top" xlink:title="Pure virtual class for Connect RPCs. Contains functions for updating the response message with parame...">
<polygon fill="white" stroke="#666666" points="621,-127.5 477,-127.5 477,-108.5 621,-108.5 621,-127.5"/>
<text text-anchor="middle" x="549" y="-115.5" font-family="Helvetica,sans-Serif" font-size="10.00">catena::common::Connect</text>
</a>
</g>
</g>
<!-- Node7&#45;&gt;Node1 -->
<g id="edge6_Node000001_Node000007" class="edge">
<title>Node7&#45;&gt;Node1</title>
<g id="a_edge6_Node000001_Node000007"><a xlink:title=" ">
<path fill="none" stroke="#63b8ff" d="M631.34,-126.59C640.26,-127.53 649.23,-128.48 657.87,-129.39"/>
<polygon fill="#63b8ff" stroke="#63b8ff" points="631.63,-123.1 621.32,-125.53 630.9,-130.06 631.63,-123.1"/>
</a>
</g>
</g>
<!-- Node8 -->
<g id="Node000008" class="node">
<title>Node8</title>
<g id="a_Node000008"><a xlink:href="classcatena_1_1common_1_1IConnect.html" target="_top" xlink:title="Interface class for Connect RPCs.">
<polygon fill="white" stroke="#666666" points="320,-133.5 173,-133.5 173,-114.5 320,-114.5 320,-133.5"/>
<text text-anchor="middle" x="246.5" y="-121.5" font-family="Helvetica,sans-Serif" font-size="10.00">catena::common::IConnect</text>
</a>
</g>
</g>
<!-- Node8&#45;&gt;Node7 -->
<g id="edge7_Node000007_Node000008" class="edge">
<title>Node8&#45;&gt;Node7</title>
<g id="a_edge7_Node000007_Node000008"><a xlink:title=" ">
<path fill="none" stroke="#63b8ff" d="M330.48,-122.34C376.47,-121.42 433.04,-120.3 476.96,-119.42"/>
<polygon fill="#63b8ff" stroke="#63b8ff" points="330.17,-118.85 320.24,-122.55 330.31,-125.85 330.17,-118.85"/>
</a>
</g>
</g>
<!-- Node9 -->
<g id="Node000009" class="node">
<title>Node9</title>
<g id="a_Node000009"><a xlink:href="classcatena_1_1common_1_1Authorizer.html" target="_top" xlink:title="Class for handling authorization information.">
<polygon fill="white" stroke="#666666" points="324,-67.5 169,-67.5 169,-48.5 324,-48.5 324,-67.5"/>
<text text-anchor="middle" x="246.5" y="-55.5" font-family="Helvetica,sans-Serif" font-size="10.00">catena::common::Authorizer</text>
</a>
</g>
</g>
<!-- Node9&#45;&gt;Node7 -->
<g id="edge8_Node000007_Node000009" class="edge">
<title>Node9&#45;&gt;Node7</title>
<g id="a_edge8_Node000007_Node000009"><a xlink:title=" ">
<path fill="none" stroke="#9a32cd" stroke-dasharray="5,2" d="M304.99,-69.48C361.6,-80.78 447.07,-97.85 500.11,-108.44"/>
<polygon fill="#9a32cd" stroke="#9a32cd" points="305.61,-66.03 295.12,-67.51 304.24,-72.9 305.61,-66.03"/>
</a>
</g>
<text text-anchor="middle" x="403.5" y="-102" font-family="Helvetica,sans-Serif" font-size="10.00" fill="grey"> authz_</text>
</g>
<!-- Node9&#45;&gt;Node9 -->
<g id="edge9_Node000009_Node000009" class="edge">
<title>Node9&#45;&gt;Node9</title>
<g id="a_edge9_Node000009_Node000009"><a xlink:title=" ">
<path fill="none" stroke="#9a32cd" stroke-dasharray="5,2" d="M227.72,-77.41C229.19,-82.06 235.45,-85.5 246.5,-85.5 264.63,-85.5 269.87,-76.23 262.22,-67.58"/>
<polygon fill="#9a32cd" stroke="#9a32cd" points="231.15,-78.17 230.78,-67.58 224.46,-76.09 231.15,-78.17"/>
</a>
</g>
<text text-anchor="middle" x="246.5" y="-88.5" font-family="Helvetica,sans-Serif" font-size="10.00" fill="grey"> kAuthzDisabled</text>
</g>
<!-- Node10 -->
<g id="Node000010" class="node">
<title>Node10</title>
<g id="a_Node000010"><a xlink:href="classcatena_1_1common_1_1ISubscriptionManager.html" target="_top" xlink:title="Interface for managing parameter subscriptions in Catena.">
<polygon fill="white" stroke="#666666" points="330,-30 163,-30 163,0 330,0 330,-30"/>
<text text-anchor="start" x="171" y="-18" font-family="Helvetica,sans-Serif" font-size="10.00">catena::common::ISubscription</text>
<text text-anchor="middle" x="246.5" y="-7" font-family="Helvetica,sans-Serif" font-size="10.00">Manager</text>
</a>
</g>
</g>
<!-- Node10&#45;&gt;Node7 -->
<g id="edge10_Node000007_Node000010" class="edge">
<title>Node10&#45;&gt;Node7</title>
<g id="a_edge10_Node000007_Node000010"><a xlink:title=" ">
<path fill="none" stroke="#9a32cd" stroke-dasharray="5,2" d="M340.11,-30.51C377.8,-38.45 421.28,-49.73 459,-65 487.67,-76.61 517.99,-96.54 534.8,-108.37"/>
<polygon fill="#9a32cd" stroke="#9a32cd" points="340.65,-27.05 330.15,-28.46 339.24,-33.91 340.65,-27.05"/>
</a>
</g>
<text text-anchor="middle" x="403.5" y="-68" font-family="Helvetica,sans-Serif" font-size="10.00" fill="grey"> subscriptionManager_</text>
</g>
</g>
</svg>
