<?xml version="1.0" encoding="UTF-8" standalone="no"?>
<!DOCTYPE svg PUBLIC "-//W3C//DTD SVG 1.1//EN"
 "http://www.w3.org/Graphics/SVG/1.1/DTD/svg11.dtd">
<!-- Generated by graphviz version 2.43.0 (0)
 -->
<!-- Title: catena::REST::CatenaServiceImpl::Connect Pages: 1 -->
<svg width="639pt" height="160pt"
 viewBox="0.00 0.00 638.50 160.00" xmlns="http://www.w3.org/2000/svg" xmlns:xlink="http://www.w3.org/1999/xlink">
<g id="graph0" class="graph" transform="scale(1 1) rotate(0) translate(4 156)">
<title>catena::REST::CatenaServiceImpl::Connect</title>
<!-- Node1 -->
<g id="Node000001" class="node">
<title>Node1</title>
<g id="a_Node000001"><a xlink:title="CallData class for the Connect RPC.">
<polygon fill="#999999" stroke="#666666" points="220.5,-30 64.5,-30 64.5,0 220.5,0 220.5,-30"/>
<text text-anchor="start" x="72.5" y="-18" font-family="Helvetica,sans-Serif" font-size="10.00">catena::REST::CatenaService</text>
<text text-anchor="middle" x="142.5" y="-7" font-family="Helvetica,sans-Serif" font-size="10.00">Impl::Connect</text>
</a>
</g>
</g>
<!-- Node2 -->
<g id="Node000002" class="node">
<title>Node2</title>
<g id="a_Node000002"><a xlink:title=" ">
<polygon fill="white" stroke="#bfbfbf" points="59,-86 0,-86 0,-67 59,-67 59,-86"/>
<text text-anchor="middle" x="29.5" y="-74" font-family="Helvetica,sans-Serif" font-size="10.00">CallData</text>
</a>
</g>
</g>
<!-- Node2&#45;&gt;Node1 -->
<g id="edge1_Node000001_Node000002" class="edge">
<title>Node2&#45;&gt;Node1</title>
<g id="a_edge1_Node000001_Node000002"><a xlink:title=" ">
<path fill="none" stroke="#63b8ff" d="M54.56,-62.31C72.75,-52.73 97.32,-39.79 115.87,-30.02"/>
<polygon fill="#63b8ff" stroke="#63b8ff" points="52.91,-59.22 45.69,-66.98 56.17,-65.41 52.91,-59.22"/>
</a>
</g>
</g>
<!-- Node3 -->
<g id="Node000003" class="node">
<title>Node3</title>
<g id="a_Node000003"><a xlink:href="classcatena_1_1REST_1_1ICallData.html" target="_top" xlink:title="CallData interface class for the REST API RPCs.">
<polygon fill="white" stroke="#666666" points="208,-86 77,-86 77,-67 208,-67 208,-86"/>
<text text-anchor="middle" x="142.5" y="-74" font-family="Helvetica,sans-Serif" font-size="10.00">catena::REST::ICallData</text>
</a>
</g>
</g>
<!-- Node3&#45;&gt;Node1 -->
<g id="edge2_Node000001_Node000003" class="edge">
<title>Node3&#45;&gt;Node1</title>
<g id="a_edge2_Node000001_Node000003"><a xlink:title=" ">
<path fill="none" stroke="#63b8ff" d="M142.5,-56.73C142.5,-48.09 142.5,-38 142.5,-30.02"/>
<polygon fill="#63b8ff" stroke="#63b8ff" points="139,-56.98 142.5,-66.98 146,-56.98 139,-56.98"/>
</a>
</g>
</g>
<!-- Node4 -->
<g id="Node000004" class="node">
<title>Node4</title>
<g id="a_Node000004"><a xlink:href="classcatena_1_1common_1_1Connect.html" target="_top" xlink:title="Pure virtual class for Connect RPCs. Contains functions for updating the response message with parame...">
<polygon fill="white" stroke="#666666" points="370.5,-86 226.5,-86 226.5,-67 370.5,-67 370.5,-86"/>
<text text-anchor="middle" x="298.5" y="-74" font-family="Helvetica,sans-Serif" font-size="10.00">catena::common::Connect</text>
</a>
</g>
</g>
<!-- Node4&#45;&gt;Node1 -->
<g id="edge3_Node000001_Node000004" class="edge">
<title>Node4&#45;&gt;Node1</title>
<g id="a_edge3_Node000001_Node000004"><a xlink:title=" ">
<path fill="none" stroke="#63b8ff" d="M266.64,-63.35C241.3,-53.68 205.81,-40.15 179.27,-30.02"/>
<polygon fill="#63b8ff" stroke="#63b8ff" points="265.56,-66.68 276.15,-66.98 268.05,-60.14 265.56,-66.68"/>
</a>
</g>
</g>
<!-- Node5 -->
<g id="Node000005" class="node">
<title>Node5</title>
<g id="a_Node000005"><a xlink:href="classcatena_1_1common_1_1IConnect.html" target="_top" xlink:title="Interface class for Connect.h.">
<polygon fill="white" stroke="#666666" points="203,-152 56,-152 56,-133 203,-133 203,-152"/>
<text text-anchor="middle" x="129.5" y="-140" font-family="Helvetica,sans-Serif" font-size="10.00">catena::common::IConnect</text>
</a>
</g>
</g>
<!-- Node5&#45;&gt;Node4 -->
<g id="edge4_Node000004_Node000005" class="edge">
<title>Node5&#45;&gt;Node4</title>
<g id="a_edge4_Node000004_Node000005"><a xlink:title=" ">
<path fill="none" stroke="#63b8ff" d="M162.04,-129.18C195.44,-116.53 246.53,-97.18 275.8,-86.1"/>
<polygon fill="#63b8ff" stroke="#63b8ff" points="160.4,-126.05 152.29,-132.87 162.88,-132.6 160.4,-126.05"/>
</a>
</g>
</g>
<!-- Node6 -->
<g id="Node000006" class="node">
<title>Node6</title>
<g id="a_Node000006"><a xlink:href="classcatena_1_1common_1_1Authorizer.html" target="_top" xlink:title="Class for handling authorization information.">
<polygon fill="white" stroke="#666666" points="376,-152 221,-152 221,-133 376,-133 376,-152"/>
<text text-anchor="middle" x="298.5" y="-140" font-family="Helvetica,sans-Serif" font-size="10.00">catena::common::Authorizer</text>
</a>
</g>
</g>
<!-- Node6&#45;&gt;Node4 -->
<g id="edge5_Node000004_Node000006" class="edge">
<title>Node6&#45;&gt;Node4</title>
<g id="a_edge5_Node000004_Node000006"><a xlink:title=" ">
<path fill="none" stroke="#9a32cd" stroke-dasharray="5,2" d="M298.5,-122.58C298.5,-110.63 298.5,-95.72 298.5,-86.41"/>
<polygon fill="#9a32cd" stroke="#9a32cd" points="295,-122.87 298.5,-132.87 302,-122.87 295,-122.87"/>
</a>
</g>
<text text-anchor="middle" x="316.5" y="-107" font-family="Helvetica,sans-Serif" font-size="10.00" fill="grey"> authz_</text>
</g>
<!-- Node6&#45;&gt;Node6 -->
<g id="edge6_Node000006_Node000006" class="edge">
<title>Node6&#45;&gt;Node6</title>
<g id="a_edge6_Node000006_Node000006"><a xlink:title=" ">
<path fill="none" stroke="#9a32cd" stroke-dasharray="5,2" d="M386.11,-146.55C391.05,-145.57 394,-144.22 394,-142.5 394,-139.81 386.81,-138.03 376.07,-137.15"/>
<polygon fill="#9a32cd" stroke="#9a32cd" points="385.53,-143.1 376.07,-147.85 386.43,-150.04 385.53,-143.1"/>
</a>
</g>
<text text-anchor="middle" x="434" y="-140" font-family="Helvetica,sans-Serif" font-size="10.00" fill="grey"> kAuthzDisabled</text>
</g>
<!-- Node7 -->
<g id="Node000007" class="node">
<title>Node7</title>
<g id="a_Node000007"><a xlink:href="classcatena_1_1common_1_1Device.html" target="_top" xlink:title="Implements the Device interface defined in the protobuf.">
<polygon fill="white" stroke="#666666" points="630.5,-152 492.5,-152 492.5,-133 630.5,-133 630.5,-152"/>
<text text-anchor="middle" x="561.5" y="-140" font-family="Helvetica,sans-Serif" font-size="10.00">catena::common::Device</text>
</a>
</g>
</g>
<!-- Node7&#45;&gt;Node4 -->
<g id="edge7_Node000004_Node000007" class="edge">
<title>Node7&#45;&gt;Node4</title>
<g id="a_edge7_Node000004_Node000007"><a xlink:title=" ">
<path fill="none" stroke="#9a32cd" stroke-dasharray="5,2" d="M516.39,-130.52C464.56,-117.91 380.62,-97.48 333.49,-86.01"/>
<polygon fill="#9a32cd" stroke="#9a32cd" points="515.76,-133.97 526.3,-132.94 517.41,-127.17 515.76,-133.97"/>
</a>
</g>
<text text-anchor="middle" x="459" y="-107" font-family="Helvetica,sans-Serif" font-size="10.00" fill="grey"> dm_</text>
</g>
</g>
</svg>
