<?xml version="1.0" encoding="UTF-8" standalone="no"?>
<!DOCTYPE svg PUBLIC "-//W3C//DTD SVG 1.1//EN"
 "http://www.w3.org/Graphics/SVG/1.1/DTD/svg11.dtd">
<!-- Generated by graphviz version 2.43.0 (0)
 -->
<!-- Title: catena::patterns::EnumDecorator::value Pages: 1 -->
<svg width="400pt" height="134pt"
 viewBox="0.00 0.00 400.00 134.00" xmlns="http://www.w3.org/2000/svg" xmlns:xlink="http://www.w3.org/1999/xlink">
<g id="graph0" class="graph" transform="scale(1 1) rotate(0) translate(4 130)">
<title>catena::patterns::EnumDecorator::value</title>
<!-- Node1 -->
<g id="Node000001" class="node">
<title>Node1</title>
<g id="a_Node000001"><a xlink:title="Value accessor.">
<polygon fill="#999999" stroke="#666666" points="392,-78 214,-78 214,-48 392,-48 392,-78"/>
<text text-anchor="start" x="222" y="-66" font-family="Helvetica,sans-Serif" font-size="10.00">catena::patterns::EnumDecorator</text>
<text text-anchor="middle" x="303" y="-55" font-family="Helvetica,sans-Serif" font-size="10.00">::value</text>
</a>
</g>
</g>
<!-- Node2 -->
<g id="Node000002" class="node">
<title>Node2</title>
<g id="a_Node000002"><a xlink:href="classcatena_1_1common_1_1ParamWithValue.html#a5657a8fc5c8d8b6f21c59bc9888bd954" target="_top" xlink:title="Checks if the parameter is an array type.">
<polygon fill="white" stroke="#666666" points="168,-126 10,-126 10,-96 168,-96 168,-126"/>
<text text-anchor="start" x="18" y="-114" font-family="Helvetica,sans-Serif" font-size="10.00">catena::common::ParamWith</text>
<text text-anchor="middle" x="89" y="-103" font-family="Helvetica,sans-Serif" font-size="10.00">Value::isArrayType</text>
</a>
</g>
</g>
<!-- Node1&#45;&gt;Node2 -->
<g id="edge1_Node000001_Node000002" class="edge">
<title>Node1&#45;&gt;Node2</title>
<g id="a_edge1_Node000001_Node000002"><a xlink:title=" ">
<path fill="none" stroke="#63b8ff" d="M225.58,-80.3C202.89,-85.44 178.24,-91.02 156.26,-96"/>
<polygon fill="#63b8ff" stroke="#63b8ff" points="226.52,-83.68 235.5,-78.06 224.98,-76.85 226.52,-83.68"/>
</a>
</g>
</g>
<!-- Node3 -->
<g id="Node000003" class="node">
<title>Node3</title>
<g id="a_Node000003"><a xlink:href="classcatena_1_1patterns_1_1EnumDecorator.html#adc2bfc84e613e135d599d32320f37536" target="_top" xlink:title="Cast to the enum&#39;s underlying integral type.">
<polygon fill="white" stroke="#666666" points="178,-78 0,-78 0,-48 178,-48 178,-78"/>
<text text-anchor="start" x="8" y="-66" font-family="Helvetica,sans-Serif" font-size="10.00">catena::patterns::EnumDecorator</text>
<text text-anchor="middle" x="89" y="-55" font-family="Helvetica,sans-Serif" font-size="10.00">::operator utype</text>
</a>
</g>
</g>
<!-- Node1&#45;&gt;Node3 -->
<g id="edge2_Node000001_Node000003" class="edge">
<title>Node1&#45;&gt;Node3</title>
<g id="a_edge2_Node000001_Node000003"><a xlink:title=" ">
<path fill="none" stroke="#63b8ff" d="M203.89,-63C195.3,-63 186.64,-63 178.13,-63"/>
<polygon fill="#63b8ff" stroke="#63b8ff" points="203.93,-66.5 213.93,-63 203.93,-59.5 203.93,-66.5"/>
</a>
</g>
</g>
<!-- Node4 -->
<g id="Node000004" class="node">
<title>Node4</title>
<g id="a_Node000004"><a xlink:href="classcatena_1_1patterns_1_1EnumDecorator.html#abab665cebd403e8ee1ea4cc7b853e75d" target="_top" xlink:title="Equality operator.">
<polygon fill="white" stroke="#666666" points="178,-30 0,-30 0,0 178,0 178,-30"/>
<text text-anchor="start" x="8" y="-18" font-family="Helvetica,sans-Serif" font-size="10.00">catena::patterns::EnumDecorator</text>
<text text-anchor="middle" x="89" y="-7" font-family="Helvetica,sans-Serif" font-size="10.00">::operator==</text>
</a>
</g>
</g>
<!-- Node1&#45;&gt;Node4 -->
<g id="edge3_Node000001_Node000004" class="edge">
<title>Node1&#45;&gt;Node4</title>
<g id="a_edge3_Node000001_Node000004"><a xlink:title=" ">
<path fill="none" stroke="#63b8ff" d="M225.58,-45.7C202.89,-40.56 178.24,-34.98 156.26,-30"/>
<polygon fill="#63b8ff" stroke="#63b8ff" points="224.98,-49.15 235.5,-47.94 226.52,-42.32 224.98,-49.15"/>
</a>
</g>
</g>
</g>
</svg>
