<?xml version="1.0" encoding="UTF-8" standalone="no"?>
<!DOCTYPE svg PUBLIC "-//W3C//DTD SVG 1.1//EN"
 "http://www.w3.org/Graphics/SVG/1.1/DTD/svg11.dtd">
<!-- Generated by graphviz version 2.43.0 (0)
 -->
<!-- Title: CatenaServiceImpl::CallData Pages: 1 -->
<!--zoomable 566 -->

<svg id="main" version="1.1" xmlns="http://www.w3.org/2000/svg" xmlns:xlink="http://www.w3.org/1999/xlink" xml:space="preserve" onload="init(evt)">
<style type="text/css"><![CDATA[
.node, .edge {opacity: 0.7;}
.node.selected, .edge.selected {opacity: 1;}
.edge:hover path { stroke: red; }
.edge:hover polygon { stroke: red; fill: red; }
]]></style>

<defs>
  <circle id="rim" cx="0" cy="0" r="7"/>
  <circle id="rim2" cx="0" cy="0" r="3.5"/>
  <g id="zoomPlus">
    <use xlink:href="#rim" fill="#404040"><set attributeName="fill" to="#808080" begin="zoomplus.mouseover" end="zoomplus.mouseout"/></use>
    <path d="M-4,0h8M0,-4v8" fill="none" stroke="white" stroke-width="1.5" pointer-events="none"/>
  </g>
  <g id="zoomMin">
    <use xlink:href="#rim" fill="#404040"><set attributeName="fill" to="#808080" begin="zoomminus.mouseover" end="zoomminus.mouseout"/></use>
    <path d="M-4,0h8" fill="none" stroke="white" stroke-width="1.5" pointer-events="none"/>
  </g>
  <g id="arrowUp" transform="translate(30 24)">
    <use xlink:href="#rim"/>
    <path pointer-events="none" fill="none" stroke="white" stroke-width="1.5" d="M0,-3.0v7 M-2.5,-0.5L0,-3.0L2.5,-0.5"/>
  </g>
  <g id="arrowRight" transform="rotate(90) translate(36 -43)">
    <use xlink:href="#rim"/>
    <path pointer-events="none" fill="none" stroke="white" stroke-width="1.5" d="M0,-3.0v7 M-2.5,-0.5L0,-3.0L2.5,-0.5"/>
  </g>
  <g id="arrowDown" transform="rotate(180) translate(-30 -48)">
    <use xlink:href="#rim"/>
    <path pointer-events="none" fill="none" stroke="white" stroke-width="1.5" d="M0,-3.0v7 M-2.5,-0.5L0,-3.0L2.5,-0.5"/>
  </g>
  <g id="arrowLeft" transform="rotate(270) translate(-36 17)">
    <use xlink:href="#rim"/>
    <path pointer-events="none" fill="none" stroke="white" stroke-width="1.5" d="M0,-3.0v7 M-2.5,-0.5L0,-3.0L2.5,-0.5"/>
  </g>
  <g id="resetDef">
    <use xlink:href="#rim2" fill="#404040"><set attributeName="fill" to="#808080" begin="reset.mouseover" end="reset.mouseout"/></use>
  </g>
</defs>
<script type="application/ecmascript">
var viewWidth = 442;
var viewHeight = 566;
var sectionId = 'dynsection-0';
</script>
<script type="application/ecmascript" xlink:href="svg.min.js"/>
<svg id="graph" class="graph">
<g id="viewport">
<title>CatenaServiceImpl::CallData</title>
<!-- Node1 -->
<g id="Node000001" class="node">
<title>Node1</title>
<g id="a_Node000001"><a xlink:title="Abstract base class for the CallData classes. Provides the proceed method.">
<polygon fill="#999999" stroke="#666666" points="115,-294 0,-294 0,-264 115,-264 115,-294"/>
<text text-anchor="start" x="8" y="-282" font-family="Helvetica,sans-Serif" font-size="10.00">CatenaServiceImpl::</text>
<text text-anchor="middle" x="57.5" y="-271" font-family="Helvetica,sans-Serif" font-size="10.00">CallData</text>
</a>
</g>
</g>
<!-- Node2 -->
<g id="Node000002" class="node">
<title>Node2</title>
<g id="a_Node000002"><a xlink:href="classCatenaServiceImpl_1_1AddLanguage.html" target="_top" xlink:title="CallData class for the ListLanguages RPC.">
<polygon fill="white" stroke="#666666" points="274.5,-558 159.5,-558 159.5,-528 274.5,-528 274.5,-558"/>
<text text-anchor="start" x="167.5" y="-546" font-family="Helvetica,sans-Serif" font-size="10.00">CatenaServiceImpl::</text>
<text text-anchor="middle" x="217" y="-535" font-family="Helvetica,sans-Serif" font-size="10.00">AddLanguage</text>
</a>
</g>
</g>
<!-- Node1&#45;&gt;Node2 -->
<g id="edge1_Node000001_Node000002" class="edge">
<title>Node1&#45;&gt;Node2</title>
<g id="a_edge1_Node000001_Node000002"><a xlink:title=" ">
<path fill="none" stroke="#63b8ff" d="M61.4,-304.48C68.23,-352.84 89.64,-458.5 151,-519 154.51,-522.46 158.57,-525.43 162.9,-527.98"/>
<polygon fill="#63b8ff" stroke="#63b8ff" points="64.83,-303.73 60.06,-294.27 57.89,-304.64 64.83,-303.73"/>
</a>
</g>
</g>
<!-- Node3 -->
<g id="Node000003" class="node">
<title>Node3</title>
<g id="a_Node000003"><a xlink:href="classCatenaServiceImpl_1_1BasicParamInfoRequest.html" target="_top" xlink:title="CallData class for the BasicParamInfoRequest RPC.">
<polygon fill="white" stroke="#666666" points="283,-510 151,-510 151,-480 283,-480 283,-510"/>
<text text-anchor="start" x="159" y="-498" font-family="Helvetica,sans-Serif" font-size="10.00">CatenaServiceImpl::</text>
<text text-anchor="middle" x="217" y="-487" font-family="Helvetica,sans-Serif" font-size="10.00">BasicParamInfoRequest</text>
</a>
</g>
</g>
<!-- Node1&#45;&gt;Node3 -->
<g id="edge2_Node000001_Node000003" class="edge">
<title>Node1&#45;&gt;Node3</title>
<g id="a_edge2_Node000001_Node000003"><a xlink:title=" ">
<path fill="none" stroke="#63b8ff" d="M64.06,-303.91C74.35,-344.43 100.11,-424.74 151,-471 154.74,-474.4 159,-477.33 163.51,-479.85"/>
<polygon fill="#63b8ff" stroke="#63b8ff" points="67.43,-302.94 61.67,-294.05 60.63,-304.59 67.43,-302.94"/>
</a>
</g>
</g>
<!-- Node4 -->
<g id="Node000004" class="node">
<title>Node4</title>
<g id="a_Node000004"><a xlink:href="classCatenaServiceImpl_1_1Connect.html" target="_top" xlink:title="CallData class for the Connect RPC.">
<polygon fill="white" stroke="#666666" points="274.5,-462 159.5,-462 159.5,-432 274.5,-432 274.5,-462"/>
<text text-anchor="start" x="167.5" y="-450" font-family="Helvetica,sans-Serif" font-size="10.00">CatenaServiceImpl::</text>
<text text-anchor="middle" x="217" y="-439" font-family="Helvetica,sans-Serif" font-size="10.00">Connect</text>
</a>
</g>
</g>
<!-- Node1&#45;&gt;Node4 -->
<g id="edge3_Node000001_Node000004" class="edge">
<title>Node1&#45;&gt;Node4</title>
<g id="a_edge3_Node000001_Node000004"><a xlink:title=" ">
<path fill="none" stroke="#63b8ff" d="M68.45,-303.81C82.4,-335.64 110.66,-390.59 151,-423 155.22,-426.39 159.97,-429.33 164.92,-431.87"/>
<polygon fill="#63b8ff" stroke="#63b8ff" points="71.56,-302.18 64.43,-294.35 65.12,-304.92 71.56,-302.18"/>
</a>
</g>
</g>
<!-- Node5 -->
<g id="Node000005" class="node">
<title>Node5</title>
<g id="a_Node000005"><a xlink:href="classCatenaServiceImpl_1_1DeviceRequest.html" target="_top" xlink:title="CallData class for the DeviceRequest RPC.">
<polygon fill="white" stroke="#666666" points="274.5,-414 159.5,-414 159.5,-384 274.5,-384 274.5,-414"/>
<text text-anchor="start" x="167.5" y="-402" font-family="Helvetica,sans-Serif" font-size="10.00">CatenaServiceImpl::</text>
<text text-anchor="middle" x="217" y="-391" font-family="Helvetica,sans-Serif" font-size="10.00">DeviceRequest</text>
</a>
</g>
</g>
<!-- Node1&#45;&gt;Node5 -->
<g id="edge4_Node000001_Node000005" class="edge">
<title>Node1&#45;&gt;Node5</title>
<g id="a_edge4_Node000001_Node000005"><a xlink:title=" ">
<path fill="none" stroke="#63b8ff" d="M75.61,-301.99C92.63,-323.46 120.56,-355.1 151,-375 156.14,-378.36 161.8,-381.33 167.59,-383.93"/>
<polygon fill="#63b8ff" stroke="#63b8ff" points="78.32,-299.78 69.42,-294.03 72.79,-304.07 78.32,-299.78"/>
</a>
</g>
</g>
<!-- Node6 -->
<g id="Node000006" class="node">
<title>Node6</title>
<g id="a_Node000006"><a xlink:href="classCatenaServiceImpl_1_1ExecuteCommand.html" target="_top" xlink:title="CallData class for the ExecuteCommand RPC.">
<polygon fill="white" stroke="#666666" points="274.5,-366 159.5,-366 159.5,-336 274.5,-336 274.5,-366"/>
<text text-anchor="start" x="167.5" y="-354" font-family="Helvetica,sans-Serif" font-size="10.00">CatenaServiceImpl::</text>
<text text-anchor="middle" x="217" y="-343" font-family="Helvetica,sans-Serif" font-size="10.00">ExecuteCommand</text>
</a>
</g>
</g>
<!-- Node1&#45;&gt;Node6 -->
<g id="edge5_Node000001_Node000006" class="edge">
<title>Node1&#45;&gt;Node6</title>
<g id="a_edge5_Node000001_Node000006"><a xlink:title=" ">
<path fill="none" stroke="#63b8ff" d="M94.56,-299.05C111.46,-308.09 132.01,-318.61 151,-327 157.93,-330.06 165.39,-333.07 172.69,-335.87"/>
<polygon fill="#63b8ff" stroke="#63b8ff" points="96.05,-295.87 85.58,-294.2 92.72,-302.03 96.05,-295.87"/>
</a>
</g>
</g>
<!-- Node7 -->
<g id="Node000007" class="node">
<title>Node7</title>
<g id="a_Node000007"><a xlink:href="classCatenaServiceImpl_1_1ExternalObjectRequest.html" target="_top" xlink:title="CallData class for the ExternalObjectRequest RPC.">
<polygon fill="white" stroke="#666666" points="281,-318 153,-318 153,-288 281,-288 281,-318"/>
<text text-anchor="start" x="161" y="-306" font-family="Helvetica,sans-Serif" font-size="10.00">CatenaServiceImpl::</text>
<text text-anchor="middle" x="217" y="-295" font-family="Helvetica,sans-Serif" font-size="10.00">ExternalObjectRequest</text>
</a>
</g>
</g>
<!-- Node1&#45;&gt;Node7 -->
<g id="edge6_Node000001_Node000007" class="edge">
<title>Node1&#45;&gt;Node7</title>
<g id="a_edge6_Node000001_Node000007"><a xlink:title=" ">
<path fill="none" stroke="#63b8ff" d="M125.48,-289.21C134.54,-290.59 143.82,-292 152.82,-293.37"/>
<polygon fill="#63b8ff" stroke="#63b8ff" points="125.77,-285.71 115.36,-287.66 124.72,-292.63 125.77,-285.71"/>
</a>
</g>
</g>
<!-- Node8 -->
<g id="Node000008" class="node">
<title>Node8</title>
<g id="a_Node000008"><a xlink:href="classCatenaServiceImpl_1_1GetParam.html" target="_top" xlink:title="CallData class for the GetParam RPC.">
<polygon fill="white" stroke="#666666" points="274.5,-270 159.5,-270 159.5,-240 274.5,-240 274.5,-270"/>
<text text-anchor="start" x="167.5" y="-258" font-family="Helvetica,sans-Serif" font-size="10.00">CatenaServiceImpl::</text>
<text text-anchor="middle" x="217" y="-247" font-family="Helvetica,sans-Serif" font-size="10.00">GetParam</text>
</a>
</g>
</g>
<!-- Node1&#45;&gt;Node8 -->
<g id="edge7_Node000001_Node000008" class="edge">
<title>Node1&#45;&gt;Node8</title>
<g id="a_edge7_Node000001_Node000008"><a xlink:title=" ">
<path fill="none" stroke="#63b8ff" d="M125.26,-268.83C136.65,-267.09 148.39,-265.3 159.49,-263.61"/>
<polygon fill="#63b8ff" stroke="#63b8ff" points="124.72,-265.37 115.36,-270.34 125.77,-272.29 124.72,-265.37"/>
</a>
</g>
</g>
<!-- Node9 -->
<g id="Node000009" class="node">
<title>Node9</title>
<g id="a_Node000009"><a xlink:href="classCatenaServiceImpl_1_1GetPopulatedSlots.html" target="_top" xlink:title="CallData class for the GetPopulatedSlots RPC.">
<polygon fill="white" stroke="#666666" points="274.5,-222 159.5,-222 159.5,-192 274.5,-192 274.5,-222"/>
<text text-anchor="start" x="167.5" y="-210" font-family="Helvetica,sans-Serif" font-size="10.00">CatenaServiceImpl::</text>
<text text-anchor="middle" x="217" y="-199" font-family="Helvetica,sans-Serif" font-size="10.00">GetPopulatedSlots</text>
</a>
</g>
</g>
<!-- Node1&#45;&gt;Node9 -->
<g id="edge8_Node000001_Node000009" class="edge">
<title>Node1&#45;&gt;Node9</title>
<g id="a_edge8_Node000001_Node000009"><a xlink:title=" ">
<path fill="none" stroke="#63b8ff" d="M94.56,-258.95C111.46,-249.91 132.01,-239.39 151,-231 157.93,-227.94 165.39,-224.93 172.69,-222.13"/>
<polygon fill="#63b8ff" stroke="#63b8ff" points="92.72,-255.97 85.58,-263.8 96.05,-262.13 92.72,-255.97"/>
</a>
</g>
</g>
<!-- Node10 -->
<g id="Node000010" class="node">
<title>Node10</title>
<g id="a_Node000010"><a xlink:href="classCatenaServiceImpl_1_1GetValue.html" target="_top" xlink:title="CallData class for the GetValue RPC.">
<polygon fill="white" stroke="#666666" points="274.5,-174 159.5,-174 159.5,-144 274.5,-144 274.5,-174"/>
<text text-anchor="start" x="167.5" y="-162" font-family="Helvetica,sans-Serif" font-size="10.00">CatenaServiceImpl::</text>
<text text-anchor="middle" x="217" y="-151" font-family="Helvetica,sans-Serif" font-size="10.00">GetValue</text>
</a>
</g>
</g>
<!-- Node1&#45;&gt;Node10 -->
<g id="edge9_Node000001_Node000010" class="edge">
<title>Node1&#45;&gt;Node10</title>
<g id="a_edge9_Node000001_Node000010"><a xlink:title=" ">
<path fill="none" stroke="#63b8ff" d="M75.61,-256.01C92.63,-234.54 120.56,-202.9 151,-183 156.14,-179.64 161.8,-176.67 167.59,-174.07"/>
<polygon fill="#63b8ff" stroke="#63b8ff" points="72.79,-253.93 69.42,-263.97 78.32,-258.22 72.79,-253.93"/>
</a>
</g>
</g>
<!-- Node11 -->
<g id="Node000011" class="node">
<title>Node11</title>
<g id="a_Node000011"><a xlink:href="classCatenaServiceImpl_1_1LanguagePackRequest.html" target="_top" xlink:title="CallData class for the LanguagePackRequest RPC.">
<polygon fill="white" stroke="#666666" points="280,-126 154,-126 154,-96 280,-96 280,-126"/>
<text text-anchor="start" x="162" y="-114" font-family="Helvetica,sans-Serif" font-size="10.00">CatenaServiceImpl::</text>
<text text-anchor="middle" x="217" y="-103" font-family="Helvetica,sans-Serif" font-size="10.00">LanguagePackRequest</text>
</a>
</g>
</g>
<!-- Node1&#45;&gt;Node11 -->
<g id="edge10_Node000001_Node000011" class="edge">
<title>Node1&#45;&gt;Node11</title>
<g id="a_edge10_Node000001_Node000011"><a xlink:title=" ">
<path fill="none" stroke="#63b8ff" d="M68.45,-254.19C82.4,-222.36 110.66,-167.41 151,-135 155.22,-131.61 159.97,-128.67 164.92,-126.13"/>
<polygon fill="#63b8ff" stroke="#63b8ff" points="65.12,-253.08 64.43,-263.65 71.56,-255.82 65.12,-253.08"/>
</a>
</g>
</g>
<!-- Node12 -->
<g id="Node000012" class="node">
<title>Node12</title>
<g id="a_Node000012"><a xlink:href="classCatenaServiceImpl_1_1ListLanguages.html" target="_top" xlink:title="CallData class for the ListLanguages RPC.">
<polygon fill="white" stroke="#666666" points="274.5,-78 159.5,-78 159.5,-48 274.5,-48 274.5,-78"/>
<text text-anchor="start" x="167.5" y="-66" font-family="Helvetica,sans-Serif" font-size="10.00">CatenaServiceImpl::</text>
<text text-anchor="middle" x="217" y="-55" font-family="Helvetica,sans-Serif" font-size="10.00">ListLanguages</text>
</a>
</g>
</g>
<!-- Node1&#45;&gt;Node12 -->
<g id="edge11_Node000001_Node000012" class="edge">
<title>Node1&#45;&gt;Node12</title>
<g id="a_edge11_Node000001_Node000012"><a xlink:title=" ">
<path fill="none" stroke="#63b8ff" d="M64.06,-254.09C74.35,-213.57 100.11,-133.26 151,-87 154.74,-83.6 159,-80.67 163.51,-78.15"/>
<polygon fill="#63b8ff" stroke="#63b8ff" points="60.63,-253.41 61.67,-263.95 67.43,-255.06 60.63,-253.41"/>
</a>
</g>
</g>
<!-- Node13 -->
<g id="Node000013" class="node">
<title>Node13</title>
<g id="a_Node000013"><a xlink:href="classCatenaServiceImpl_1_1MultiSetValue.html" target="_top" xlink:title="Generic CallData class for the SetValue and MultiSetValue RPCs.">
<polygon fill="white" stroke="#666666" points="274.5,-30 159.5,-30 159.5,0 274.5,0 274.5,-30"/>
<text text-anchor="start" x="167.5" y="-18" font-family="Helvetica,sans-Serif" font-size="10.00">CatenaServiceImpl::</text>
<text text-anchor="middle" x="217" y="-7" font-family="Helvetica,sans-Serif" font-size="10.00">MultiSetValue</text>
</a>
</g>
</g>
<!-- Node1&#45;&gt;Node13 -->
<g id="edge12_Node000001_Node000013" class="edge">
<title>Node1&#45;&gt;Node13</title>
<g id="a_edge12_Node000001_Node000013"><a xlink:title=" ">
<path fill="none" stroke="#63b8ff" d="M61.4,-253.52C68.23,-205.16 89.64,-99.5 151,-39 154.51,-35.54 158.57,-32.57 162.9,-30.02"/>
<polygon fill="#63b8ff" stroke="#63b8ff" points="57.89,-253.36 60.06,-263.73 64.83,-254.27 57.89,-253.36"/>
</a>
</g>
</g>
<!-- Node14 -->
<g id="Node000014" class="node">
<title>Node14</title>
<g id="a_Node000014"><a xlink:href="classCatenaServiceImpl_1_1SetValue.html" target="_top" xlink:title="CallData class for the SetValue RPC.">
<polygon fill="white" stroke="#666666" points="434,-30 319,-30 319,0 434,0 434,-30"/>
<text text-anchor="start" x="327" y="-18" font-family="Helvetica,sans-Serif" font-size="10.00">CatenaServiceImpl::</text>
<text text-anchor="middle" x="376.5" y="-7" font-family="Helvetica,sans-Serif" font-size="10.00">SetValue</text>
</a>
</g>
</g>
<!-- Node13&#45;&gt;Node14 -->
<g id="edge13_Node000013_Node000014" class="edge">
<title>Node13&#45;&gt;Node14</title>
<g id="a_edge13_Node000013_Node000014"><a xlink:title=" ">
<path fill="none" stroke="#63b8ff" d="M285.11,-15C296.39,-15 308,-15 318.99,-15"/>
<polygon fill="#63b8ff" stroke="#63b8ff" points="284.86,-11.5 274.86,-15 284.86,-18.5 284.86,-11.5"/>
</a>
</g>
</g>
</g>
</svg>

<g id="navigator" transform="translate(0 0)" fill="#404254">
  <rect fill="#f2f5e9" fill-opacity="0.5" stroke="#606060" stroke-width=".5" x="0" y="0" width="60" height="60"/>
  <use id="zoomplus" xlink:href="#zoomPlus" x="17" y="9" onmousedown="handleZoom(evt,'in')"/>
  <use id="zoomminus" xlink:href="#zoomMin" x="42" y="9" onmousedown="handleZoom(evt,'out')"/>
  <use id="reset" xlink:href="#resetDef" x="30" y="36" onmousedown="handleReset()"/>
   <use id="arrowup" xlink:href="#arrowUp" x="0" y="0" onmousedown="handlePan(0,-1)"/>
  <use id="arrowright" xlink:href="#arrowRight" x="0" y="0" onmousedown="handlePan(1,0)"/>
  <use id="arrowdown" xlink:href="#arrowDown" x="0" y="0" onmousedown="handlePan(0,1)"/>
  <use id="arrowleft" xlink:href="#arrowLeft" x="0" y="0" onmousedown="handlePan(-1,0)"/>
</g>
<svg viewBox="0 0 15 15" width="100%" height="30px" preserveAspectRatio="xMaxYMin meet">
 <g id="arrow_out" transform="scale(0.3 0.3)">
  <a xlink:href="classCatenaServiceImpl_1_1CallData__inherit__graph_org.svg" target="_base">
   <rect id="button" ry="5" rx="5" y="6" x="6" height="38" width="38"
        fill="#f2f5e9" fill-opacity="0.5" stroke="#606060" stroke-width="1.0"/>
   <path id="arrow"
     d="M 11.500037,31.436501 C 11.940474,20.09759 22.043105,11.32322 32.158766,21.979434 L 37.068811,17.246167 C 37.068811,17.246167 37.088388,32 37.088388,32 L 22.160133,31.978069 C 22.160133,31.978069 26.997745,27.140456 26.997745,27.140456 C 18.528582,18.264221 13.291696,25.230495 11.500037,31.436501 z"
     style="fill:#404040;"/>
  </a>
 </g>
</svg>

<style type='text/css'>
<![CDATA[
[data-mouse-over-selected='false'] { opacity: 0.7; }
[data-mouse-over-selected='true']  { opacity: 1.0; }
]]>
</style>
<script type="application/ecmascript"><![CDATA[
document.addEventListener('DOMContentLoaded', (event) => {
  highlightEdges();
  highlightAdjacentNodes();
});
]]></script>
</svg>
