<?xml version="1.0" encoding="UTF-8" standalone="no"?>
<!DOCTYPE svg PUBLIC "-//W3C//DTD SVG 1.1//EN"
 "http://www.w3.org/Graphics/SVG/1.1/DTD/svg11.dtd">
<!-- Generated by graphviz version 2.43.0 (0)
 -->
<!-- Title: catena::common::ParamWithValue::fromProto Pages: 1 -->
<svg width="357pt" height="86pt"
 viewBox="0.00 0.00 357.00 86.00" xmlns="http://www.w3.org/2000/svg" xmlns:xlink="http://www.w3.org/1999/xlink">
<g id="graph0" class="graph" transform="scale(1 1) rotate(0) translate(4 82)">
<title>catena::common::ParamWithValue::fromProto</title>
<!-- Node1 -->
<g id="Node000001" class="node">
<title>Node1</title>
<g id="a_Node000001"><a xlink:title="deserialize the parameter value from protobuf if authorized">
<polygon fill="#999999" stroke="#666666" points="158,-54 0,-54 0,-24 158,-24 158,-54"/>
<text text-anchor="start" x="8" y="-42" font-family="Helvetica,sans-Serif" font-size="10.00">catena::common::ParamWith</text>
<text text-anchor="middle" x="79" y="-31" font-family="Helvetica,sans-Serif" font-size="10.00">Value::fromProto</text>
</a>
</g>
</g>
<!-- Node2 -->
<g id="Node000002" class="node">
<title>Node2</title>
<g id="a_Node000002"><a xlink:href="classcatena_1_1common_1_1Authorizer.html#a2d0c5c9888480653d5c189c102513401" target="_top" xlink:title="Check if the client has read authorization.">
<polygon fill="white" stroke="#666666" points="349,-78 194,-78 194,-48 349,-48 349,-78"/>
<text text-anchor="start" x="202" y="-66" font-family="Helvetica,sans-Serif" font-size="10.00">catena::common::Authorizer</text>
<text text-anchor="middle" x="271.5" y="-55" font-family="Helvetica,sans-Serif" font-size="10.00">::readAuthz</text>
</a>
</g>
</g>
<!-- Node1&#45;&gt;Node2 -->
<g id="edge1_Node000001_Node000002" class="edge">
<title>Node1&#45;&gt;Node2</title>
<g id="a_edge1_Node000001_Node000002"><a xlink:title=" ">
<path fill="none" stroke="#63b8ff" d="M158.03,-48.83C166.53,-49.9 175.21,-50.99 183.8,-52.08"/>
<polygon fill="#63b8ff" stroke="#63b8ff" points="183.46,-55.56 193.82,-53.34 184.34,-48.62 183.46,-55.56"/>
</a>
</g>
</g>
<!-- Node3 -->
<g id="Node000003" class="node">
<title>Node3</title>
<g id="a_Node000003"><a xlink:href="classcatena_1_1common_1_1Authorizer.html#a31559d61f0d8fba890111f7a470863f1" target="_top" xlink:title="Check if the client has write authorization.">
<polygon fill="white" stroke="#666666" points="349,-30 194,-30 194,0 349,0 349,-30"/>
<text text-anchor="start" x="202" y="-18" font-family="Helvetica,sans-Serif" font-size="10.00">catena::common::Authorizer</text>
<text text-anchor="middle" x="271.5" y="-7" font-family="Helvetica,sans-Serif" font-size="10.00">::writeAuthz</text>
</a>
</g>
</g>
<!-- Node1&#45;&gt;Node3 -->
<g id="edge2_Node000001_Node000003" class="edge">
<title>Node1&#45;&gt;Node3</title>
<g id="a_edge2_Node000001_Node000003"><a xlink:title=" ">
<path fill="none" stroke="#63b8ff" d="M158.03,-29.17C166.53,-28.1 175.21,-27.01 183.8,-25.92"/>
<polygon fill="#63b8ff" stroke="#63b8ff" points="184.34,-29.38 193.82,-24.66 183.46,-22.44 184.34,-29.38"/>
</a>
</g>
</g>
</g>
</svg>
