<?xml version="1.0" encoding="UTF-8" standalone="no"?>
<!DOCTYPE svg PUBLIC "-//W3C//DTD SVG 1.1//EN"
 "http://www.w3.org/Graphics/SVG/1.1/DTD/svg11.dtd">
<!-- Generated by graphviz version 2.43.0 (0)
 -->
<!-- Title: catena::REST::Connect Pages: 1 -->
<!--zoomable 179 -->

<svg id="main" version="1.1" xmlns="http://www.w3.org/2000/svg" xmlns:xlink="http://www.w3.org/1999/xlink" xml:space="preserve" onload="init(evt)">
<style type="text/css"><![CDATA[
.node, .edge {opacity: 0.7;}
.node.selected, .edge.selected {opacity: 1;}
.edge:hover path { stroke: red; }
.edge:hover polygon { stroke: red; fill: red; }
]]></style>

<defs>
  <circle id="rim" cx="0" cy="0" r="7"/>
  <circle id="rim2" cx="0" cy="0" r="3.5"/>
  <g id="zoomPlus">
    <use xlink:href="#rim" fill="#404040"><set attributeName="fill" to="#808080" begin="zoomplus.mouseover" end="zoomplus.mouseout"/></use>
    <path d="M-4,0h8M0,-4v8" fill="none" stroke="white" stroke-width="1.5" pointer-events="none"/>
  </g>
  <g id="zoomMin">
    <use xlink:href="#rim" fill="#404040"><set attributeName="fill" to="#808080" begin="zoomminus.mouseover" end="zoomminus.mouseout"/></use>
    <path d="M-4,0h8" fill="none" stroke="white" stroke-width="1.5" pointer-events="none"/>
  </g>
  <g id="arrowUp" transform="translate(30 24)">
    <use xlink:href="#rim"/>
    <path pointer-events="none" fill="none" stroke="white" stroke-width="1.5" d="M0,-3.0v7 M-2.5,-0.5L0,-3.0L2.5,-0.5"/>
  </g>
  <g id="arrowRight" transform="rotate(90) translate(36 -43)">
    <use xlink:href="#rim"/>
    <path pointer-events="none" fill="none" stroke="white" stroke-width="1.5" d="M0,-3.0v7 M-2.5,-0.5L0,-3.0L2.5,-0.5"/>
  </g>
  <g id="arrowDown" transform="rotate(180) translate(-30 -48)">
    <use xlink:href="#rim"/>
    <path pointer-events="none" fill="none" stroke="white" stroke-width="1.5" d="M0,-3.0v7 M-2.5,-0.5L0,-3.0L2.5,-0.5"/>
  </g>
  <g id="arrowLeft" transform="rotate(270) translate(-36 17)">
    <use xlink:href="#rim"/>
    <path pointer-events="none" fill="none" stroke="white" stroke-width="1.5" d="M0,-3.0v7 M-2.5,-0.5L0,-3.0L2.5,-0.5"/>
  </g>
  <g id="resetDef">
    <use xlink:href="#rim2" fill="#404040"><set attributeName="fill" to="#808080" begin="reset.mouseover" end="reset.mouseout"/></use>
  </g>
</defs>
<script type="application/ecmascript">
var viewWidth = 628;
var viewHeight = 179;
var sectionId = 'dynsection-1';
</script>
<script type="application/ecmascript" xlink:href="svg.min.js"/>
<svg id="graph" class="graph">
<g id="viewport">
<title>catena::REST::Connect</title>
<!-- Node1 -->
<g id="Node000001" class="node">
<title>Node1</title>
<g id="a_Node000001"><a xlink:title="ICallData class for the Connect REST controller.">
<polygon fill="#999999" stroke="#666666" points="620,-103.5 495,-103.5 495,-84.5 620,-84.5 620,-103.5"/>
<text text-anchor="middle" x="557.5" y="-91.5" font-family="Helvetica,sans-Serif" font-size="10.00">catena::REST::Connect</text>
</a>
</g>
</g>
<!-- Node2 -->
<g id="Node000002" class="node">
<title>Node2</title>
<g id="a_Node000002"><a xlink:href="classcatena_1_1REST_1_1ICallData.html" target="_top" xlink:title="Interface class for REST API controllers.">
<polygon fill="white" stroke="#666666" points="451.5,-122.5 320.5,-122.5 320.5,-103.5 451.5,-103.5 451.5,-122.5"/>
<text text-anchor="middle" x="386" y="-110.5" font-family="Helvetica,sans-Serif" font-size="10.00">catena::REST::ICallData</text>
</a>
</g>
</g>
<!-- Node2&#45;&gt;Node1 -->
<g id="edge1_Node000001_Node000002" class="edge">
<title>Node2&#45;&gt;Node1</title>
<g id="a_edge1_Node000001_Node000002"><a xlink:title=" ">
<path fill="none" stroke="#63b8ff" d="M461.67,-104.63C472.78,-103.38 484.11,-102.11 494.91,-100.9"/>
<polygon fill="#63b8ff" stroke="#63b8ff" points="461.11,-101.17 451.56,-105.76 461.89,-108.13 461.11,-101.17"/>
</a>
</g>
</g>
<!-- Node3 -->
<g id="Node000003" class="node">
<title>Node3</title>
<g id="a_Node000003"><a xlink:href="classcatena_1_1common_1_1Connect.html" target="_top" xlink:title="Pure virtual class for Connect RPCs. Contains functions for updating the response message with parame...">
<polygon fill="white" stroke="#666666" points="458,-85.5 314,-85.5 314,-66.5 458,-66.5 458,-85.5"/>
<text text-anchor="middle" x="386" y="-73.5" font-family="Helvetica,sans-Serif" font-size="10.00">catena::common::Connect</text>
</a>
</g>
</g>
<!-- Node3&#45;&gt;Node1 -->
<g id="edge2_Node000001_Node000003" class="edge">
<title>Node3&#45;&gt;Node1</title>
<g id="a_edge2_Node000001_Node000003"><a xlink:title=" ">
<path fill="none" stroke="#63b8ff" d="M468.4,-84.64C477.3,-85.59 486.25,-86.54 494.86,-87.45"/>
<polygon fill="#63b8ff" stroke="#63b8ff" points="468.71,-81.16 458.39,-83.58 467.97,-88.12 468.71,-81.16"/>
</a>
</g>
</g>
<!-- Node4 -->
<g id="Node000004" class="node">
<title>Node4</title>
<g id="a_Node000004"><a xlink:href="classcatena_1_1common_1_1IConnect.html" target="_top" xlink:title="Interface class for Connect RPCs.">
<polygon fill="white" stroke="#666666" points="157,-170.5 10,-170.5 10,-151.5 157,-151.5 157,-170.5"/>
<text text-anchor="middle" x="83.5" y="-158.5" font-family="Helvetica,sans-Serif" font-size="10.00">catena::common::IConnect</text>
</a>
</g>
</g>
<!-- Node4&#45;&gt;Node3 -->
<g id="edge3_Node000003_Node000004" class="edge">
<title>Node4&#45;&gt;Node3</title>
<g id="a_edge3_Node000003_Node000004"><a xlink:title=" ">
<path fill="none" stroke="#63b8ff" d="M141.68,-149.19C150.2,-147.24 158.85,-145.15 167,-143 225.04,-127.7 239.81,-124.11 296,-103 304.2,-99.92 305.75,-97.92 314,-95 323.86,-91.51 334.69,-88.31 344.86,-85.57"/>
<polygon fill="#63b8ff" stroke="#63b8ff" points="140.78,-145.81 131.79,-151.41 142.31,-152.64 140.78,-145.81"/>
</a>
</g>
</g>
<!-- Node5 -->
<g id="Node000005" class="node">
<title>Node5</title>
<g id="a_Node000005"><a xlink:href="classcatena_1_1common_1_1Authorizer.html" target="_top" xlink:title="Class for handling authorization information.">
<polygon fill="white" stroke="#666666" points="161,-104.5 6,-104.5 6,-85.5 161,-85.5 161,-104.5"/>
<text text-anchor="middle" x="83.5" y="-92.5" font-family="Helvetica,sans-Serif" font-size="10.00">catena::common::Authorizer</text>
</a>
</g>
</g>
<!-- Node5&#45;&gt;Node3 -->
<g id="edge4_Node000003_Node000005" class="edge">
<title>Node5&#45;&gt;Node3</title>
<g id="a_edge4_Node000003_Node000005"><a xlink:title=" ">
<path fill="none" stroke="#9a32cd" stroke-dasharray="5,2" d="M171.21,-89.52C216.49,-86.65 271.21,-83.2 313.95,-80.49"/>
<polygon fill="#9a32cd" stroke="#9a32cd" points="170.87,-86.03 161.11,-90.16 171.31,-93.02 170.87,-86.03"/>
</a>
</g>
<text text-anchor="middle" x="240.5" y="-91" font-family="Helvetica,sans-Serif" font-size="10.00" fill="grey"> authz_</text>
</g>
<!-- Node5&#45;&gt;Node5 -->
<g id="edge5_Node000005_Node000005" class="edge">
<title>Node5&#45;&gt;Node5</title>
<g id="a_edge5_Node000005_Node000005"><a xlink:title=" ">
<path fill="none" stroke="#9a32cd" stroke-dasharray="5,2" d="M54.38,-113.32C55.6,-118.51 65.3,-122.5 83.5,-122.5 111.23,-122.5 119.24,-113.23 107.54,-104.58"/>
<polygon fill="#9a32cd" stroke="#9a32cd" points="57.46,-114.99 59.46,-104.58 51.41,-111.47 57.46,-114.99"/>
</a>
</g>
<text text-anchor="middle" x="83.5" y="-125.5" font-family="Helvetica,sans-Serif" font-size="10.00" fill="grey"> kAuthzDisabled</text>
</g>
<!-- Node6 -->
<g id="Node000006" class="node">
<title>Node6</title>
<g id="a_Node000006"><a xlink:href="classcatena_1_1common_1_1IDevice.html" target="_top" xlink:title="Interface class for Device.">
<polygon fill="white" stroke="#666666" points="154,-67.5 13,-67.5 13,-48.5 154,-48.5 154,-67.5"/>
<text text-anchor="middle" x="83.5" y="-55.5" font-family="Helvetica,sans-Serif" font-size="10.00">catena::common::IDevice</text>
</a>
</g>
</g>
<!-- Node6&#45;&gt;Node3 -->
<g id="edge6_Node000003_Node000006" class="edge">
<title>Node6&#45;&gt;Node3</title>
<g id="a_edge6_Node000003_Node000006"><a xlink:title=" ">
<path fill="none" stroke="#9a32cd" stroke-dasharray="5,2" d="M164.32,-56.26C203.99,-56.13 252.6,-57.06 296,-61 309.26,-62.2 323.53,-64.26 336.67,-66.48"/>
<polygon fill="#9a32cd" stroke="#9a32cd" points="164.16,-52.76 154.18,-56.32 164.2,-59.76 164.16,-52.76"/>
</a>
</g>
<text text-anchor="middle" x="240.5" y="-64" font-family="Helvetica,sans-Serif" font-size="10.00" fill="grey"> dm_</text>
</g>
<!-- Node7 -->
<g id="Node000007" class="node">
<title>Node7</title>
<g id="a_Node000007"><a xlink:href="classcatena_1_1common_1_1ISubscriptionManager.html" target="_top" xlink:title="Interface for managing parameter subscriptions in Catena.">
<polygon fill="white" stroke="#666666" points="167,-30 0,-30 0,0 167,0 167,-30"/>
<text text-anchor="start" x="8" y="-18" font-family="Helvetica,sans-Serif" font-size="10.00">catena::common::ISubscription</text>
<text text-anchor="middle" x="83.5" y="-7" font-family="Helvetica,sans-Serif" font-size="10.00">Manager</text>
</a>
</g>
</g>
<!-- Node7&#45;&gt;Node3 -->
<g id="edge7_Node000003_Node000007" class="edge">
<title>Node7&#45;&gt;Node3</title>
<g id="a_edge7_Node000003_Node000007"><a xlink:title=" ">
<path fill="none" stroke="#9a32cd" stroke-dasharray="5,2" d="M177.58,-21.33C214.8,-25.18 257.81,-31.31 296,-41 320.46,-47.21 347.25,-58.38 364.98,-66.44"/>
<polygon fill="#9a32cd" stroke="#9a32cd" points="177.55,-17.81 167.25,-20.3 176.85,-24.78 177.55,-17.81"/>
</a>
</g>
<text text-anchor="middle" x="240.5" y="-44" font-family="Helvetica,sans-Serif" font-size="10.00" fill="grey"> subscriptionManager_</text>
</g>
</g>
</svg>

<g id="navigator" transform="translate(0 0)" fill="#404254">
  <rect fill="#f2f5e9" fill-opacity="0.5" stroke="#606060" stroke-width=".5" x="0" y="0" width="60" height="60"/>
  <use id="zoomplus" xlink:href="#zoomPlus" x="17" y="9" onmousedown="handleZoom(evt,'in')"/>
  <use id="zoomminus" xlink:href="#zoomMin" x="42" y="9" onmousedown="handleZoom(evt,'out')"/>
  <use id="reset" xlink:href="#resetDef" x="30" y="36" onmousedown="handleReset()"/>
   <use id="arrowup" xlink:href="#arrowUp" x="0" y="0" onmousedown="handlePan(0,-1)"/>
  <use id="arrowright" xlink:href="#arrowRight" x="0" y="0" onmousedown="handlePan(1,0)"/>
  <use id="arrowdown" xlink:href="#arrowDown" x="0" y="0" onmousedown="handlePan(0,1)"/>
  <use id="arrowleft" xlink:href="#arrowLeft" x="0" y="0" onmousedown="handlePan(-1,0)"/>
</g>
<svg viewBox="0 0 15 15" width="100%" height="30px" preserveAspectRatio="xMaxYMin meet">
 <g id="arrow_out" transform="scale(0.3 0.3)">
  <a xlink:href="classcatena_1_1REST_1_1Connect__coll__graph_org.svg" target="_base">
   <rect id="button" ry="5" rx="5" y="6" x="6" height="38" width="38"
        fill="#f2f5e9" fill-opacity="0.5" stroke="#606060" stroke-width="1.0"/>
   <path id="arrow"
     d="M 11.500037,31.436501 C 11.940474,20.09759 22.043105,11.32322 32.158766,21.979434 L 37.068811,17.246167 C 37.068811,17.246167 37.088388,32 37.088388,32 L 22.160133,31.978069 C 22.160133,31.978069 26.997745,27.140456 26.997745,27.140456 C 18.528582,18.264221 13.291696,25.230495 11.500037,31.436501 z"
     style="fill:#404040;"/>
  </a>
 </g>
</svg>

<style type='text/css'>
<![CDATA[
[data-mouse-over-selected='false'] { opacity: 0.7; }
[data-mouse-over-selected='true']  { opacity: 1.0; }
]]>
</style>
<script type="application/ecmascript"><![CDATA[
document.addEventListener('DOMContentLoaded', (event) => {
  highlightEdges();
  highlightAdjacentNodes();
});
]]></script>
</svg>
