<?xml version="1.0" encoding="UTF-8" standalone="no"?>
<!DOCTYPE svg PUBLIC "-//W3C//DTD SVG 1.1//EN"
 "http://www.w3.org/Graphics/SVG/1.1/DTD/svg11.dtd">
<!-- Generated by graphviz version 2.43.0 (0)
 -->
<!-- Title: catena::REST::ICallData Pages: 1 -->
<svg width="513pt" height="433pt"
 viewBox="0.00 0.00 513.00 433.00" xmlns="http://www.w3.org/2000/svg" xmlns:xlink="http://www.w3.org/1999/xlink">
<g id="graph0" class="graph" transform="scale(1 1) rotate(0) translate(4 429)">
<title>catena::REST::ICallData</title>
<!-- Node1 -->
<g id="Node000001" class="node">
<title>Node1</title>
<g id="a_Node000001"><a xlink:title="Interface class for the REST API RPCs.">
<polygon fill="#999999" stroke="#666666" points="131,-228 0,-228 0,-209 131,-209 131,-228"/>
<text text-anchor="middle" x="65.5" y="-216" font-family="Helvetica,sans-Serif" font-size="10.00">catena::REST::ICallData</text>
</a>
</g>
</g>
<!-- Node2 -->
<g id="Node000002" class="node">
<title>Node2</title>
<g id="a_Node000002"><a xlink:href="classcatena_1_1REST_1_1AddLanguage.html" target="_top" xlink:title="ICallData class for the AddLanguage REST RPC.">
<polygon fill="white" stroke="#666666" points="330,-425 178,-425 178,-406 330,-406 330,-425"/>
<text text-anchor="middle" x="254" y="-413" font-family="Helvetica,sans-Serif" font-size="10.00">catena::REST::AddLanguage</text>
</a>
</g>
</g>
<!-- Node1&#45;&gt;Node2 -->
<g id="edge1_Node000001_Node000002" class="edge">
<title>Node1&#45;&gt;Node2</title>
<g id="a_edge1_Node000001_Node000002"><a xlink:title=" ">
<path fill="none" stroke="#63b8ff" d="M71.76,-238.11C82.77,-275.25 111.94,-355.75 167,-396.5 172.16,-400.32 177.95,-403.4 184.01,-405.88"/>
<polygon fill="#63b8ff" stroke="#63b8ff" points="75,-236.74 68.91,-228.07 68.27,-238.65 75,-236.74"/>
</a>
</g>
</g>
<!-- Node3 -->
<g id="Node000003" class="node">
<title>Node3</title>
<g id="a_Node000003"><a xlink:href="classcatena_1_1REST_1_1BasicParamInfoRequest.html" target="_top" xlink:title="CallData class for the BasicParamInfoRequest REST RPC.">
<polygon fill="white" stroke="#666666" points="325.5,-387.5 182.5,-387.5 182.5,-357.5 325.5,-357.5 325.5,-387.5"/>
<text text-anchor="start" x="190.5" y="-375.5" font-family="Helvetica,sans-Serif" font-size="10.00">catena::REST::BasicParam</text>
<text text-anchor="middle" x="254" y="-364.5" font-family="Helvetica,sans-Serif" font-size="10.00">InfoRequest</text>
</a>
</g>
</g>
<!-- Node1&#45;&gt;Node3 -->
<g id="edge2_Node000001_Node000003" class="edge">
<title>Node1&#45;&gt;Node3</title>
<g id="a_edge2_Node000001_Node000003"><a xlink:title=" ">
<path fill="none" stroke="#63b8ff" d="M75.9,-237.27C91.1,-265.69 123.79,-319.42 167,-348.5 172.14,-351.96 177.78,-354.93 183.63,-357.47"/>
<polygon fill="#63b8ff" stroke="#63b8ff" points="78.81,-235.3 71.1,-228.03 72.6,-238.52 78.81,-235.3"/>
</a>
</g>
</g>
<!-- Node4 -->
<g id="Node000004" class="node">
<title>Node4</title>
<g id="a_Node000004"><a xlink:href="classcatena_1_1REST_1_1Connect.html" target="_top" xlink:title="ICallData class for the Connect REST RPC.">
<polygon fill="white" stroke="#666666" points="316.5,-339 191.5,-339 191.5,-320 316.5,-320 316.5,-339"/>
<text text-anchor="middle" x="254" y="-327" font-family="Helvetica,sans-Serif" font-size="10.00">catena::REST::Connect</text>
</a>
</g>
</g>
<!-- Node1&#45;&gt;Node4 -->
<g id="edge3_Node000001_Node000004" class="edge">
<title>Node1&#45;&gt;Node4</title>
<g id="a_edge3_Node000001_Node000004"><a xlink:title=" ">
<path fill="none" stroke="#63b8ff" d="M80.31,-236.14C98.02,-257.46 130.8,-292.81 167,-311.5 174.59,-315.42 182.98,-318.48 191.44,-320.88"/>
<polygon fill="#63b8ff" stroke="#63b8ff" points="82.9,-233.77 73.88,-228.2 77.46,-238.18 82.9,-233.77"/>
</a>
</g>
</g>
<!-- Node5 -->
<g id="Node000005" class="node">
<title>Node5</title>
<g id="a_Node000005"><a xlink:href="classcatena_1_1REST_1_1DeviceRequest.html" target="_top" xlink:title="ICallData class for the DeviceRequest REST RPC.">
<polygon fill="white" stroke="#666666" points="333.5,-302 174.5,-302 174.5,-283 333.5,-283 333.5,-302"/>
<text text-anchor="middle" x="254" y="-290" font-family="Helvetica,sans-Serif" font-size="10.00">catena::REST::DeviceRequest</text>
</a>
</g>
</g>
<!-- Node1&#45;&gt;Node5 -->
<g id="edge4_Node000001_Node000005" class="edge">
<title>Node1&#45;&gt;Node5</title>
<g id="a_edge4_Node000001_Node000005"><a xlink:title=" ">
<path fill="none" stroke="#63b8ff" d="M89.06,-233.69C108.83,-246.35 138.73,-263.95 167,-274.5 176,-277.86 185.78,-280.66 195.41,-282.97"/>
<polygon fill="#63b8ff" stroke="#63b8ff" points="90.77,-230.63 80.48,-228.1 86.95,-236.49 90.77,-230.63"/>
</a>
</g>
</g>
<!-- Node6 -->
<g id="Node000006" class="node">
<title>Node6</title>
<g id="a_Node000006"><a xlink:href="classcatena_1_1REST_1_1ExecuteCommand.html" target="_top" xlink:title=" ">
<polygon fill="white" stroke="#bfbfbf" points="341,-265 167,-265 167,-246 341,-246 341,-265"/>
<text text-anchor="middle" x="254" y="-253" font-family="Helvetica,sans-Serif" font-size="10.00">catena::REST::ExecuteCommand</text>
</a>
</g>
</g>
<!-- Node1&#45;&gt;Node6 -->
<g id="edge5_Node000001_Node000006" class="edge">
<title>Node1&#45;&gt;Node6</title>
<g id="a_edge5_Node000001_Node000006"><a xlink:title=" ">
<path fill="none" stroke="#63b8ff" d="M124.55,-230.02C150.32,-235.13 180.3,-241.08 204.81,-245.94"/>
<polygon fill="#63b8ff" stroke="#63b8ff" points="125.02,-226.54 114.53,-228.03 123.66,-233.41 125.02,-226.54"/>
</a>
</g>
</g>
<!-- Node7 -->
<g id="Node000007" class="node">
<title>Node7</title>
<g id="a_Node000007"><a xlink:href="classcatena_1_1REST_1_1GetParam.html" target="_top" xlink:title="ICallData class for the GetValue REST RPC.">
<polygon fill="white" stroke="#666666" points="321,-228 187,-228 187,-209 321,-209 321,-228"/>
<text text-anchor="middle" x="254" y="-216" font-family="Helvetica,sans-Serif" font-size="10.00">catena::REST::GetParam</text>
</a>
</g>
</g>
<!-- Node1&#45;&gt;Node7 -->
<g id="edge6_Node000001_Node000007" class="edge">
<title>Node1&#45;&gt;Node7</title>
<g id="a_edge6_Node000001_Node000007"><a xlink:title=" ">
<path fill="none" stroke="#63b8ff" d="M141.47,-218.5C156.48,-218.5 172.14,-218.5 186.83,-218.5"/>
<polygon fill="#63b8ff" stroke="#63b8ff" points="141.21,-215 131.21,-218.5 141.21,-222 141.21,-215"/>
</a>
</g>
</g>
<!-- Node8 -->
<g id="Node000008" class="node">
<title>Node8</title>
<g id="a_Node000008"><a xlink:href="classcatena_1_1REST_1_1GetPopulatedSlots.html" target="_top" xlink:title="ICallData class for the GetPopulatedSlots REST RPC.">
<polygon fill="white" stroke="#666666" points="330,-190.5 178,-190.5 178,-160.5 330,-160.5 330,-190.5"/>
<text text-anchor="start" x="186" y="-178.5" font-family="Helvetica,sans-Serif" font-size="10.00">catena::REST::GetPopulated</text>
<text text-anchor="middle" x="254" y="-167.5" font-family="Helvetica,sans-Serif" font-size="10.00">Slots</text>
</a>
</g>
</g>
<!-- Node1&#45;&gt;Node8 -->
<g id="edge7_Node000001_Node000008" class="edge">
<title>Node1&#45;&gt;Node8</title>
<g id="a_edge7_Node000001_Node000008"><a xlink:title=" ">
<path fill="none" stroke="#63b8ff" d="M117.87,-206.66C139.52,-201.66 164.97,-195.8 187.91,-190.51"/>
<polygon fill="#63b8ff" stroke="#63b8ff" points="116.85,-203.3 107.89,-208.96 118.42,-210.12 116.85,-203.3"/>
</a>
</g>
</g>
<!-- Node9 -->
<g id="Node000009" class="node">
<title>Node9</title>
<g id="a_Node000009"><a xlink:href="classcatena_1_1REST_1_1GetValue.html" target="_top" xlink:title="ICallData class for the GetValue REST RPC.">
<polygon fill="white" stroke="#666666" points="319,-142 189,-142 189,-123 319,-123 319,-142"/>
<text text-anchor="middle" x="254" y="-130" font-family="Helvetica,sans-Serif" font-size="10.00">catena::REST::GetValue</text>
</a>
</g>
</g>
<!-- Node1&#45;&gt;Node9 -->
<g id="edge8_Node000001_Node000009" class="edge">
<title>Node1&#45;&gt;Node9</title>
<g id="a_edge8_Node000001_Node000009"><a xlink:title=" ">
<path fill="none" stroke="#63b8ff" d="M85.75,-202.47C105.11,-187.16 136.38,-164.54 167,-151.5 176,-147.66 185.88,-144.56 195.63,-142.06"/>
<polygon fill="#63b8ff" stroke="#63b8ff" points="83.33,-199.93 77.74,-208.93 87.72,-205.38 83.33,-199.93"/>
</a>
</g>
</g>
<!-- Node10 -->
<g id="Node000010" class="node">
<title>Node10</title>
<g id="a_Node000010"><a xlink:href="classcatena_1_1REST_1_1LanguagePackRequest.html" target="_top" xlink:title="ICallData class for the LanguagePackRequest REST RPC.">
<polygon fill="white" stroke="#666666" points="331.5,-104.5 176.5,-104.5 176.5,-74.5 331.5,-74.5 331.5,-104.5"/>
<text text-anchor="start" x="184.5" y="-92.5" font-family="Helvetica,sans-Serif" font-size="10.00">catena::REST::LanguagePack</text>
<text text-anchor="middle" x="254" y="-81.5" font-family="Helvetica,sans-Serif" font-size="10.00">Request</text>
</a>
</g>
</g>
<!-- Node1&#45;&gt;Node10 -->
<g id="edge9_Node000001_Node000010" class="edge">
<title>Node1&#45;&gt;Node10</title>
<g id="a_edge9_Node000001_Node000010"><a xlink:title=" ">
<path fill="none" stroke="#63b8ff" d="M79.08,-200.59C96.3,-177.37 129.42,-137.17 167,-114.5 173.39,-110.65 180.41,-107.36 187.59,-104.56"/>
<polygon fill="#63b8ff" stroke="#63b8ff" points="76.12,-198.71 73.08,-208.86 81.79,-202.81 76.12,-198.71"/>
</a>
</g>
</g>
<!-- Node11 -->
<g id="Node000011" class="node">
<title>Node11</title>
<g id="a_Node000011"><a xlink:href="classcatena_1_1REST_1_1ListLanguages.html" target="_top" xlink:title="ICallData class for the ListLanguages REST RPC.">
<polygon fill="white" stroke="#666666" points="331.5,-56 176.5,-56 176.5,-37 331.5,-37 331.5,-56"/>
<text text-anchor="middle" x="254" y="-44" font-family="Helvetica,sans-Serif" font-size="10.00">catena::REST::ListLanguages</text>
</a>
</g>
</g>
<!-- Node1&#45;&gt;Node11 -->
<g id="edge10_Node000001_Node000011" class="edge">
<title>Node1&#45;&gt;Node11</title>
<g id="a_edge10_Node000001_Node000011"><a xlink:title=" ">
<path fill="none" stroke="#63b8ff" d="M73.47,-199.34C86.47,-166.45 117.65,-99.52 167,-65.5 172.54,-61.68 178.72,-58.61 185.14,-56.15"/>
<polygon fill="#63b8ff" stroke="#63b8ff" points="70.18,-198.14 69.89,-208.73 76.72,-200.64 70.18,-198.14"/>
</a>
</g>
</g>
<!-- Node12 -->
<g id="Node000012" class="node">
<title>Node12</title>
<g id="a_Node000012"><a xlink:href="classcatena_1_1REST_1_1MultiSetValue.html" target="_top" xlink:title="Generic ICallData class for the SetValue and MultiSetValue REST RPCs.">
<polygon fill="white" stroke="#666666" points="330.5,-19 177.5,-19 177.5,0 330.5,0 330.5,-19"/>
<text text-anchor="middle" x="254" y="-7" font-family="Helvetica,sans-Serif" font-size="10.00">catena::REST::MultiSetValue</text>
</a>
</g>
</g>
<!-- Node1&#45;&gt;Node12 -->
<g id="edge11_Node000001_Node000012" class="edge">
<title>Node1&#45;&gt;Node12</title>
<g id="a_edge11_Node000001_Node000012"><a xlink:title=" ">
<path fill="none" stroke="#63b8ff" d="M71.01,-198.9C81.04,-159.92 109.05,-72.63 167,-28.5 171.99,-24.7 177.58,-21.63 183.46,-19.16"/>
<polygon fill="#63b8ff" stroke="#63b8ff" points="67.58,-198.2 68.6,-208.74 74.38,-199.86 67.58,-198.2"/>
</a>
</g>
</g>
<!-- Node13 -->
<g id="Node000013" class="node">
<title>Node13</title>
<g id="a_Node000013"><a xlink:href="classcatena_1_1REST_1_1SetValue.html" target="_top" xlink:title="ICallData class for the SetValue REST RPC.">
<polygon fill="white" stroke="#666666" points="505,-19 377,-19 377,0 505,0 505,-19"/>
<text text-anchor="middle" x="441" y="-7" font-family="Helvetica,sans-Serif" font-size="10.00">catena::REST::SetValue</text>
</a>
</g>
</g>
<!-- Node12&#45;&gt;Node13 -->
<g id="edge12_Node000012_Node000013" class="edge">
<title>Node12&#45;&gt;Node13</title>
<g id="a_edge12_Node000012_Node000013"><a xlink:title=" ">
<path fill="none" stroke="#63b8ff" d="M340.69,-9.5C352.86,-9.5 365.2,-9.5 376.84,-9.5"/>
<polygon fill="#63b8ff" stroke="#63b8ff" points="340.51,-6 330.51,-9.5 340.51,-13 340.51,-6"/>
</a>
</g>
</g>
</g>
</svg>
