<?xml version="1.0" encoding="UTF-8" standalone="no"?>
<!DOCTYPE svg PUBLIC "-//W3C//DTD SVG 1.1//EN"
 "http://www.w3.org/Graphics/SVG/1.1/DTD/svg11.dtd">
<!-- Generated by graphviz version 2.43.0 (0)
 -->
<!-- Title: CatenaServiceImpl::SetValue Pages: 1 -->
<svg width="737pt" height="199pt"
 viewBox="0.00 0.00 737.00 198.50" xmlns="http://www.w3.org/2000/svg" xmlns:xlink="http://www.w3.org/1999/xlink">
<g id="graph0" class="graph" transform="scale(1 1) rotate(0) translate(4 194.5)">
<title>CatenaServiceImpl::SetValue</title>
<!-- Node1 -->
<g id="Node000001" class="node">
<title>Node1</title>
<g id="a_Node000001"><a xlink:title="CallData class for the SetValue RPC.">
<polygon fill="#999999" stroke="#666666" points="729,-104.5 614,-104.5 614,-74.5 729,-74.5 729,-104.5"/>
<text text-anchor="start" x="622" y="-92.5" font-family="Helvetica,sans-Serif" font-size="10.00">CatenaServiceImpl::</text>
<text text-anchor="middle" x="671.5" y="-81.5" font-family="Helvetica,sans-Serif" font-size="10.00">SetValue</text>
</a>
</g>
</g>
<!-- Node2 -->
<g id="Node000002" class="node">
<title>Node2</title>
<g id="a_Node000002"><a xlink:href="classCatenaServiceImpl_1_1MultiSetValue.html" target="_top" xlink:title="Generic CallData class for the SetValue and MultiSetValue RPCs.">
<polygon fill="white" stroke="#666666" points="577,-104.5 462,-104.5 462,-74.5 577,-74.5 577,-104.5"/>
<text text-anchor="start" x="470" y="-92.5" font-family="Helvetica,sans-Serif" font-size="10.00">CatenaServiceImpl::</text>
<text text-anchor="middle" x="519.5" y="-81.5" font-family="Helvetica,sans-Serif" font-size="10.00">MultiSetValue</text>
</a>
</g>
</g>
<!-- Node2&#45;&gt;Node1 -->
<g id="edge1_Node000001_Node000002" class="edge">
<title>Node2&#45;&gt;Node1</title>
<g id="a_edge1_Node000001_Node000002"><a xlink:title=" ">
<path fill="none" stroke="#63b8ff" d="M587.42,-89.5C596.19,-89.5 605.12,-89.5 613.71,-89.5"/>
<polygon fill="#63b8ff" stroke="#63b8ff" points="587.21,-86 577.21,-89.5 587.21,-93 587.21,-86"/>
</a>
</g>
</g>
<!-- Node3 -->
<g id="Node000003" class="node">
<title>Node3</title>
<g id="a_Node000003"><a xlink:href="classCatenaServiceImpl_1_1CallData.html" target="_top" xlink:title="Abstract base class for the CallData classes. Provides the proceed method.">
<polygon fill="white" stroke="#666666" points="343,-190.5 228,-190.5 228,-160.5 343,-160.5 343,-190.5"/>
<text text-anchor="start" x="236" y="-178.5" font-family="Helvetica,sans-Serif" font-size="10.00">CatenaServiceImpl::</text>
<text text-anchor="middle" x="285.5" y="-167.5" font-family="Helvetica,sans-Serif" font-size="10.00">CallData</text>
</a>
</g>
</g>
<!-- Node3&#45;&gt;Node2 -->
<g id="edge2_Node000002_Node000003" class="edge">
<title>Node3&#45;&gt;Node2</title>
<g id="a_edge2_Node000002_Node000003"><a xlink:title=" ">
<path fill="none" stroke="#63b8ff" d="M353.16,-160.01C381.64,-152.48 414.95,-142.46 444,-130.5 461.47,-123.3 480.1,-113.05 494.35,-104.6"/>
<polygon fill="#63b8ff" stroke="#63b8ff" points="352.1,-156.67 343.3,-162.56 353.86,-163.44 352.1,-156.67"/>
</a>
</g>
</g>
<!-- Node4 -->
<g id="Node000004" class="node">
<title>Node4</title>
<g id="a_Node000004"><a xlink:title=" ">
<polygon fill="white" stroke="#bfbfbf" points="106,-185 20,-185 20,-166 106,-166 106,-185"/>
<text text-anchor="middle" x="63" y="-173" font-family="Helvetica,sans-Serif" font-size="10.00">ServerContext</text>
</a>
</g>
</g>
<!-- Node4&#45;&gt;Node3 -->
<g id="edge3_Node000003_Node000004" class="edge">
<title>Node4&#45;&gt;Node3</title>
<g id="a_edge3_Node000003_Node000004"><a xlink:title=" ">
<path fill="none" stroke="#9a32cd" stroke-dasharray="5,2" d="M116.32,-175.5C149.88,-175.5 193.42,-175.5 227.8,-175.5"/>
<polygon fill="#9a32cd" stroke="#9a32cd" points="116.25,-172 106.25,-175.5 116.25,-179 116.25,-172"/>
</a>
</g>
<text text-anchor="middle" x="167" y="-178.5" font-family="Helvetica,sans-Serif" font-size="10.00" fill="grey"> context_</text>
</g>
<!-- Node5 -->
<g id="Node000005" class="node">
<title>Node5</title>
<g id="a_Node000005"><a xlink:href="classCatenaServiceImpl.html" target="_top" xlink:title="Implements Catena gRPC request handlers.">
<polygon fill="white" stroke="#666666" points="340,-142 231,-142 231,-123 340,-123 340,-142"/>
<text text-anchor="middle" x="285.5" y="-130" font-family="Helvetica,sans-Serif" font-size="10.00">CatenaServiceImpl</text>
</a>
</g>
</g>
<!-- Node5&#45;&gt;Node2 -->
<g id="edge4_Node000002_Node000005" class="edge">
<title>Node5&#45;&gt;Node2</title>
<g id="a_edge4_Node000002_Node000005"><a xlink:title=" ">
<path fill="none" stroke="#9a32cd" stroke-dasharray="5,2" d="M350.05,-121.54C378.77,-116.5 413.12,-110.35 444,-104.5 449.83,-103.39 455.92,-102.21 461.98,-101.02"/>
<polygon fill="#9a32cd" stroke="#9a32cd" points="349.38,-118.1 340.14,-123.28 350.59,-125 349.38,-118.1"/>
</a>
</g>
<text text-anchor="middle" x="412.5" y="-118.5" font-family="Helvetica,sans-Serif" font-size="10.00" fill="grey"> service_</text>
</g>
<!-- Node6 -->
<g id="Node000006" class="node">
<title>Node6</title>
<g id="a_Node000006"><a xlink:title=" ">
<polygon fill="white" stroke="#bfbfbf" points="126,-147.5 0,-147.5 0,-117.5 126,-117.5 126,-147.5"/>
<text text-anchor="start" x="8" y="-135.5" font-family="Helvetica,sans-Serif" font-size="10.00">catena::CatenaService</text>
<text text-anchor="middle" x="63" y="-124.5" font-family="Helvetica,sans-Serif" font-size="10.00">::AsyncService</text>
</a>
</g>
</g>
<!-- Node6&#45;&gt;Node5 -->
<g id="edge5_Node000005_Node000006" class="edge">
<title>Node6&#45;&gt;Node5</title>
<g id="a_edge5_Node000005_Node000006"><a xlink:title=" ">
<path fill="none" stroke="#63b8ff" d="M136.27,-132.5C167.07,-132.5 202.38,-132.5 230.81,-132.5"/>
<polygon fill="#63b8ff" stroke="#63b8ff" points="136.01,-129 126.01,-132.5 136.01,-136 136.01,-129"/>
</a>
</g>
</g>
<!-- Node7 -->
<g id="Node000007" class="node">
<title>Node7</title>
<g id="a_Node000007"><a xlink:title=" ">
<polygon fill="white" stroke="#bfbfbf" points="363,-104.5 208,-104.5 208,-74.5 363,-74.5 363,-104.5"/>
<text text-anchor="start" x="216" y="-92.5" font-family="Helvetica,sans-Serif" font-size="10.00">ServerAsyncResponseWriter</text>
<text text-anchor="middle" x="285.5" y="-81.5" font-family="Helvetica,sans-Serif" font-size="10.00">&lt; catena::Empty &gt;</text>
</a>
</g>
</g>
<!-- Node7&#45;&gt;Node2 -->
<g id="edge6_Node000002_Node000007" class="edge">
<title>Node7&#45;&gt;Node2</title>
<g id="a_edge6_Node000002_Node000007"><a xlink:title=" ">
<path fill="none" stroke="#9a32cd" stroke-dasharray="5,2" d="M373.44,-89.5C403,-89.5 435.25,-89.5 461.82,-89.5"/>
<polygon fill="#9a32cd" stroke="#9a32cd" points="373.11,-86 363.11,-89.5 373.11,-93 373.11,-86"/>
</a>
</g>
<text text-anchor="middle" x="412.5" y="-92.5" font-family="Helvetica,sans-Serif" font-size="10.00" fill="grey"> responder_</text>
</g>
<!-- Node8 -->
<g id="Node000008" class="node">
<title>Node8</title>
<g id="a_Node000008"><a xlink:href="classcatena_1_1common_1_1IDevice.html" target="_top" xlink:title="Interface class for Device.">
<polygon fill="white" stroke="#666666" points="356,-56 215,-56 215,-37 356,-37 356,-56"/>
<text text-anchor="middle" x="285.5" y="-44" font-family="Helvetica,sans-Serif" font-size="10.00">catena::common::IDevice</text>
</a>
</g>
</g>
<!-- Node8&#45;&gt;Node2 -->
<g id="edge7_Node000002_Node000008" class="edge">
<title>Node8&#45;&gt;Node2</title>
<g id="a_edge7_Node000002_Node000008"><a xlink:title=" ">
<path fill="none" stroke="#9a32cd" stroke-dasharray="5,2" d="M352.13,-57.82C380.42,-62.79 413.87,-68.79 444,-74.5 449.83,-75.61 455.92,-76.79 461.98,-77.98"/>
<polygon fill="#9a32cd" stroke="#9a32cd" points="352.41,-54.32 341.95,-56.04 351.2,-61.21 352.41,-54.32"/>
</a>
</g>
<text text-anchor="middle" x="412.5" y="-77.5" font-family="Helvetica,sans-Serif" font-size="10.00" fill="grey"> dm_</text>
</g>
<!-- Node9 -->
<g id="Node000009" class="node">
<title>Node9</title>
<g id="a_Node000009"><a xlink:title=" ">
<polygon fill="white" stroke="#bfbfbf" points="309,-19 262,-19 262,0 309,0 309,-19"/>
<text text-anchor="middle" x="285.5" y="-7" font-family="Helvetica,sans-Serif" font-size="10.00">Status</text>
</a>
</g>
</g>
<!-- Node9&#45;&gt;Node2 -->
<g id="edge8_Node000002_Node000009" class="edge">
<title>Node9&#45;&gt;Node2</title>
<g id="a_edge8_Node000002_Node000009"><a xlink:title=" ">
<path fill="none" stroke="#9a32cd" stroke-dasharray="5,2" d="M319.26,-14.93C351.69,-20.91 402.37,-31.95 444,-48.5 461.7,-55.54 480.48,-65.89 494.75,-74.43"/>
<polygon fill="#9a32cd" stroke="#9a32cd" points="319.46,-11.41 309,-13.09 318.23,-18.3 319.46,-11.41"/>
</a>
</g>
<text text-anchor="middle" x="412.5" y="-51.5" font-family="Helvetica,sans-Serif" font-size="10.00" fill="grey"> errorStatus_</text>
</g>
</g>
</svg>
