<?xml version="1.0" encoding="UTF-8" standalone="no"?>
<!DOCTYPE svg PUBLIC "-//W3C//DTD SVG 1.1//EN"
 "http://www.w3.org/Graphics/SVG/1.1/DTD/svg11.dtd">
<!-- Generated by graphviz version 2.43.0 (0)
 -->
<!-- Title: catena::REST::ICallData Pages: 1 -->
<svg width="513pt" height="507pt"
 viewBox="0.00 0.00 513.00 507.00" xmlns="http://www.w3.org/2000/svg" xmlns:xlink="http://www.w3.org/1999/xlink">
<g id="graph0" class="graph" transform="scale(1 1) rotate(0) translate(4 503)">
<title>catena::REST::ICallData</title>
<!-- Node1 -->
<g id="Node000001" class="node">
<title>Node1</title>
<g id="a_Node000001"><a xlink:title="Interface class for REST API controllers.">
<polygon fill="#999999" stroke="#666666" points="131,-265 0,-265 0,-246 131,-246 131,-265"/>
<text text-anchor="middle" x="65.5" y="-253" font-family="Helvetica,sans-Serif" font-size="10.00">catena::REST::ICallData</text>
</a>
</g>
</g>
<!-- Node2 -->
<g id="Node000002" class="node">
<title>Node2</title>
<g id="a_Node000002"><a xlink:href="classcatena_1_1REST_1_1AddLanguage.html" target="_top" xlink:title="ICallData class for the AddLanguage REST controller.">
<polygon fill="white" stroke="#666666" points="330,-499 178,-499 178,-480 330,-480 330,-499"/>
<text text-anchor="middle" x="254" y="-487" font-family="Helvetica,sans-Serif" font-size="10.00">catena::REST::AddLanguage</text>
</a>
</g>
</g>
<!-- Node1&#45;&gt;Node2 -->
<g id="edge1_Node000001_Node000002" class="edge">
<title>Node1&#45;&gt;Node2</title>
<g id="a_edge1_Node000001_Node000002"><a xlink:title=" ">
<path fill="none" stroke="#63b8ff" d="M69.62,-275.12C77.51,-317.99 102.46,-420.28 167,-471.5 171.18,-474.82 175.83,-477.57 180.73,-479.84"/>
<polygon fill="#63b8ff" stroke="#63b8ff" points="73.04,-274.39 67.89,-265.13 66.14,-275.58 73.04,-274.39"/>
</a>
</g>
</g>
<!-- Node3 -->
<g id="Node000003" class="node">
<title>Node3</title>
<g id="a_Node000003"><a xlink:href="classcatena_1_1REST_1_1AssetRequest.html" target="_top" xlink:title="ICallData class for the GetParam REST controller.">
<polygon fill="white" stroke="#666666" points="330,-462 178,-462 178,-443 330,-443 330,-462"/>
<text text-anchor="middle" x="254" y="-450" font-family="Helvetica,sans-Serif" font-size="10.00">catena::REST::AssetRequest</text>
</a>
</g>
</g>
<!-- Node1&#45;&gt;Node3 -->
<g id="edge2_Node000001_Node000003" class="edge">
<title>Node1&#45;&gt;Node3</title>
<g id="a_edge2_Node000001_Node000003"><a xlink:title=" ">
<path fill="none" stroke="#63b8ff" d="M71.76,-275.11C82.77,-312.25 111.94,-392.75 167,-433.5 172.16,-437.32 177.95,-440.4 184.01,-442.88"/>
<polygon fill="#63b8ff" stroke="#63b8ff" points="75,-273.74 68.91,-265.07 68.27,-275.65 75,-273.74"/>
</a>
</g>
</g>
<!-- Node4 -->
<g id="Node000004" class="node">
<title>Node4</title>
<g id="a_Node000004"><a xlink:href="classcatena_1_1REST_1_1BasicParamInfoRequest.html" target="_top" xlink:title="ICallData class for the BasicParamInfoRequest REST controller.">
<polygon fill="white" stroke="#666666" points="325.5,-424.5 182.5,-424.5 182.5,-394.5 325.5,-394.5 325.5,-424.5"/>
<text text-anchor="start" x="190.5" y="-412.5" font-family="Helvetica,sans-Serif" font-size="10.00">catena::REST::BasicParam</text>
<text text-anchor="middle" x="254" y="-401.5" font-family="Helvetica,sans-Serif" font-size="10.00">InfoRequest</text>
</a>
</g>
</g>
<!-- Node1&#45;&gt;Node4 -->
<g id="edge3_Node000001_Node000004" class="edge">
<title>Node1&#45;&gt;Node4</title>
<g id="a_edge3_Node000001_Node000004"><a xlink:title=" ">
<path fill="none" stroke="#63b8ff" d="M75.9,-274.27C91.1,-302.69 123.79,-356.42 167,-385.5 172.14,-388.96 177.78,-391.93 183.63,-394.47"/>
<polygon fill="#63b8ff" stroke="#63b8ff" points="78.81,-272.3 71.1,-265.03 72.6,-275.52 78.81,-272.3"/>
</a>
</g>
</g>
<!-- Node5 -->
<g id="Node000005" class="node">
<title>Node5</title>
<g id="a_Node000005"><a xlink:href="classcatena_1_1REST_1_1Connect.html" target="_top" xlink:title="ICallData class for the Connect REST controller.">
<polygon fill="white" stroke="#666666" points="316.5,-376 191.5,-376 191.5,-357 316.5,-357 316.5,-376"/>
<text text-anchor="middle" x="254" y="-364" font-family="Helvetica,sans-Serif" font-size="10.00">catena::REST::Connect</text>
</a>
</g>
</g>
<!-- Node1&#45;&gt;Node5 -->
<g id="edge4_Node000001_Node000005" class="edge">
<title>Node1&#45;&gt;Node5</title>
<g id="a_edge4_Node000001_Node000005"><a xlink:title=" ">
<path fill="none" stroke="#63b8ff" d="M80.31,-273.14C98.02,-294.46 130.8,-329.81 167,-348.5 174.59,-352.42 182.98,-355.48 191.44,-357.88"/>
<polygon fill="#63b8ff" stroke="#63b8ff" points="82.9,-270.77 73.88,-265.2 77.46,-275.18 82.9,-270.77"/>
</a>
</g>
</g>
<!-- Node6 -->
<g id="Node000006" class="node">
<title>Node6</title>
<g id="a_Node000006"><a xlink:href="classcatena_1_1REST_1_1DeviceRequest.html" target="_top" xlink:title="ICallData class for the DeviceRequest REST controller.">
<polygon fill="white" stroke="#666666" points="333.5,-339 174.5,-339 174.5,-320 333.5,-320 333.5,-339"/>
<text text-anchor="middle" x="254" y="-327" font-family="Helvetica,sans-Serif" font-size="10.00">catena::REST::DeviceRequest</text>
</a>
</g>
</g>
<!-- Node1&#45;&gt;Node6 -->
<g id="edge5_Node000001_Node000006" class="edge">
<title>Node1&#45;&gt;Node6</title>
<g id="a_edge5_Node000001_Node000006"><a xlink:title=" ">
<path fill="none" stroke="#63b8ff" d="M89.06,-270.69C108.83,-283.35 138.73,-300.95 167,-311.5 176,-314.86 185.78,-317.66 195.41,-319.97"/>
<polygon fill="#63b8ff" stroke="#63b8ff" points="90.77,-267.63 80.48,-265.1 86.95,-273.49 90.77,-267.63"/>
</a>
</g>
</g>
<!-- Node7 -->
<g id="Node000007" class="node">
<title>Node7</title>
<g id="a_Node000007"><a xlink:href="classcatena_1_1REST_1_1ExecuteCommand.html" target="_top" xlink:title="ICallData class for the ExecuteCommand REST controller.">
<polygon fill="white" stroke="#666666" points="341,-302 167,-302 167,-283 341,-283 341,-302"/>
<text text-anchor="middle" x="254" y="-290" font-family="Helvetica,sans-Serif" font-size="10.00">catena::REST::ExecuteCommand</text>
</a>
</g>
</g>
<!-- Node1&#45;&gt;Node7 -->
<g id="edge6_Node000001_Node000007" class="edge">
<title>Node1&#45;&gt;Node7</title>
<g id="a_edge6_Node000001_Node000007"><a xlink:title=" ">
<path fill="none" stroke="#63b8ff" d="M124.55,-267.02C150.32,-272.13 180.3,-278.08 204.81,-282.94"/>
<polygon fill="#63b8ff" stroke="#63b8ff" points="125.02,-263.54 114.53,-265.03 123.66,-270.41 125.02,-263.54"/>
</a>
</g>
</g>
<!-- Node8 -->
<g id="Node000008" class="node">
<title>Node8</title>
<g id="a_Node000008"><a xlink:href="classcatena_1_1REST_1_1GetParam.html" target="_top" xlink:title="ICallData class for the GetParam REST controller.">
<polygon fill="white" stroke="#666666" points="321,-265 187,-265 187,-246 321,-246 321,-265"/>
<text text-anchor="middle" x="254" y="-253" font-family="Helvetica,sans-Serif" font-size="10.00">catena::REST::GetParam</text>
</a>
</g>
</g>
<!-- Node1&#45;&gt;Node8 -->
<g id="edge7_Node000001_Node000008" class="edge">
<title>Node1&#45;&gt;Node8</title>
<g id="a_edge7_Node000001_Node000008"><a xlink:title=" ">
<path fill="none" stroke="#63b8ff" d="M141.47,-255.5C156.48,-255.5 172.14,-255.5 186.83,-255.5"/>
<polygon fill="#63b8ff" stroke="#63b8ff" points="141.21,-252 131.21,-255.5 141.21,-259 141.21,-252"/>
</a>
</g>
</g>
<!-- Node9 -->
<g id="Node000009" class="node">
<title>Node9</title>
<g id="a_Node000009"><a xlink:href="classcatena_1_1REST_1_1GetPopulatedSlots.html" target="_top" xlink:title="ICallData class for the GetPopulatedSlots REST controller.">
<polygon fill="white" stroke="#666666" points="330,-227.5 178,-227.5 178,-197.5 330,-197.5 330,-227.5"/>
<text text-anchor="start" x="186" y="-215.5" font-family="Helvetica,sans-Serif" font-size="10.00">catena::REST::GetPopulated</text>
<text text-anchor="middle" x="254" y="-204.5" font-family="Helvetica,sans-Serif" font-size="10.00">Slots</text>
</a>
</g>
</g>
<!-- Node1&#45;&gt;Node9 -->
<g id="edge8_Node000001_Node000009" class="edge">
<title>Node1&#45;&gt;Node9</title>
<g id="a_edge8_Node000001_Node000009"><a xlink:title=" ">
<path fill="none" stroke="#63b8ff" d="M117.87,-243.66C139.52,-238.66 164.97,-232.8 187.91,-227.51"/>
<polygon fill="#63b8ff" stroke="#63b8ff" points="116.85,-240.3 107.89,-245.96 118.42,-247.12 116.85,-240.3"/>
</a>
</g>
</g>
<!-- Node10 -->
<g id="Node000010" class="node">
<title>Node10</title>
<g id="a_Node000010"><a xlink:href="classcatena_1_1REST_1_1GetValue.html" target="_top" xlink:title="ICallData class for the GetValue REST controller.">
<polygon fill="white" stroke="#666666" points="319,-179 189,-179 189,-160 319,-160 319,-179"/>
<text text-anchor="middle" x="254" y="-167" font-family="Helvetica,sans-Serif" font-size="10.00">catena::REST::GetValue</text>
</a>
</g>
</g>
<!-- Node1&#45;&gt;Node10 -->
<g id="edge9_Node000001_Node000010" class="edge">
<title>Node1&#45;&gt;Node10</title>
<g id="a_edge9_Node000001_Node000010"><a xlink:title=" ">
<path fill="none" stroke="#63b8ff" d="M85.75,-239.47C105.11,-224.16 136.38,-201.54 167,-188.5 176,-184.66 185.88,-181.56 195.63,-179.06"/>
<polygon fill="#63b8ff" stroke="#63b8ff" points="83.33,-236.93 77.74,-245.93 87.72,-242.38 83.33,-236.93"/>
</a>
</g>
</g>
<!-- Node11 -->
<g id="Node000011" class="node">
<title>Node11</title>
<g id="a_Node000011"><a xlink:href="classcatena_1_1REST_1_1LanguagePackRequest.html" target="_top" xlink:title="ICallData class for the LanguagePackRequest REST controller.">
<polygon fill="white" stroke="#666666" points="331.5,-141.5 176.5,-141.5 176.5,-111.5 331.5,-111.5 331.5,-141.5"/>
<text text-anchor="start" x="184.5" y="-129.5" font-family="Helvetica,sans-Serif" font-size="10.00">catena::REST::LanguagePack</text>
<text text-anchor="middle" x="254" y="-118.5" font-family="Helvetica,sans-Serif" font-size="10.00">Request</text>
</a>
</g>
</g>
<!-- Node1&#45;&gt;Node11 -->
<g id="edge10_Node000001_Node000011" class="edge">
<title>Node1&#45;&gt;Node11</title>
<g id="a_edge10_Node000001_Node000011"><a xlink:title=" ">
<path fill="none" stroke="#63b8ff" d="M79.08,-237.59C96.3,-214.37 129.42,-174.17 167,-151.5 173.39,-147.65 180.41,-144.36 187.59,-141.56"/>
<polygon fill="#63b8ff" stroke="#63b8ff" points="76.12,-235.71 73.08,-245.86 81.79,-239.81 76.12,-235.71"/>
</a>
</g>
</g>
<!-- Node12 -->
<g id="Node000012" class="node">
<title>Node12</title>
<g id="a_Node000012"><a xlink:href="classcatena_1_1REST_1_1ListLanguages.html" target="_top" xlink:title="ICallData class for the ListLanguages REST controller.">
<polygon fill="white" stroke="#666666" points="331.5,-93 176.5,-93 176.5,-74 331.5,-74 331.5,-93"/>
<text text-anchor="middle" x="254" y="-81" font-family="Helvetica,sans-Serif" font-size="10.00">catena::REST::ListLanguages</text>
</a>
</g>
</g>
<!-- Node1&#45;&gt;Node12 -->
<g id="edge11_Node000001_Node000012" class="edge">
<title>Node1&#45;&gt;Node12</title>
<g id="a_edge11_Node000001_Node000012"><a xlink:title=" ">
<path fill="none" stroke="#63b8ff" d="M73.47,-236.34C86.47,-203.45 117.65,-136.52 167,-102.5 172.54,-98.68 178.72,-95.61 185.14,-93.15"/>
<polygon fill="#63b8ff" stroke="#63b8ff" points="70.18,-235.14 69.89,-245.73 76.72,-237.64 70.18,-235.14"/>
</a>
</g>
</g>
<!-- Node13 -->
<g id="Node000013" class="node">
<title>Node13</title>
<g id="a_Node000013"><a xlink:href="classcatena_1_1REST_1_1MultiSetValue.html" target="_top" xlink:title="ICallData class for the MultiSetValue REST controller.">
<polygon fill="white" stroke="#666666" points="330.5,-56 177.5,-56 177.5,-37 330.5,-37 330.5,-56"/>
<text text-anchor="middle" x="254" y="-44" font-family="Helvetica,sans-Serif" font-size="10.00">catena::REST::MultiSetValue</text>
</a>
</g>
</g>
<!-- Node1&#45;&gt;Node13 -->
<g id="edge12_Node000001_Node000013" class="edge">
<title>Node1&#45;&gt;Node13</title>
<g id="a_edge12_Node000001_Node000013"><a xlink:title=" ">
<path fill="none" stroke="#63b8ff" d="M71.01,-235.9C81.04,-196.92 109.05,-109.63 167,-65.5 171.99,-61.7 177.58,-58.63 183.46,-56.16"/>
<polygon fill="#63b8ff" stroke="#63b8ff" points="67.58,-235.2 68.6,-245.74 74.38,-236.86 67.58,-235.2"/>
</a>
</g>
</g>
<!-- Node15 -->
<g id="Node000015" class="node">
<title>Node15</title>
<g id="a_Node000015"><a xlink:href="classcatena_1_1REST_1_1Subscriptions.html" target="_top" xlink:title="ICallData class for the Subscriptions REST controller.">
<polygon fill="white" stroke="#666666" points="329.5,-19 178.5,-19 178.5,0 329.5,0 329.5,-19"/>
<text text-anchor="middle" x="254" y="-7" font-family="Helvetica,sans-Serif" font-size="10.00">catena::REST::Subscriptions</text>
</a>
</g>
</g>
<!-- Node1&#45;&gt;Node15 -->
<g id="edge14_Node000001_Node000015" class="edge">
<title>Node1&#45;&gt;Node15</title>
<g id="a_edge14_Node000001_Node000015"><a xlink:title=" ">
<path fill="none" stroke="#63b8ff" d="M69.19,-235.86C76.34,-191.52 100.1,-83.23 167,-28.5 171.62,-24.72 176.82,-21.66 182.33,-19.17"/>
<polygon fill="#63b8ff" stroke="#63b8ff" points="65.7,-235.5 67.68,-245.91 72.62,-236.54 65.7,-235.5"/>
</a>
</g>
</g>
<!-- Node14 -->
<g id="Node000014" class="node">
<title>Node14</title>
<g id="a_Node000014"><a xlink:href="classcatena_1_1REST_1_1SetValue.html" target="_top" xlink:title="ICallData class for the SetValue REST controller.">
<polygon fill="white" stroke="#666666" points="505,-56 377,-56 377,-37 505,-37 505,-56"/>
<text text-anchor="middle" x="441" y="-44" font-family="Helvetica,sans-Serif" font-size="10.00">catena::REST::SetValue</text>
</a>
</g>
</g>
<!-- Node13&#45;&gt;Node14 -->
<g id="edge13_Node000013_Node000014" class="edge">
<title>Node13&#45;&gt;Node14</title>
<g id="a_edge13_Node000013_Node000014"><a xlink:title=" ">
<path fill="none" stroke="#63b8ff" d="M340.69,-46.5C352.86,-46.5 365.2,-46.5 376.84,-46.5"/>
<polygon fill="#63b8ff" stroke="#63b8ff" points="340.51,-43 330.51,-46.5 340.51,-50 340.51,-43"/>
</a>
</g>
</g>
</g>
</svg>
