<?xml version="1.0" encoding="UTF-8" standalone="no"?>
<!DOCTYPE svg PUBLIC "-//W3C//DTD SVG 1.1//EN"
 "http://www.w3.org/Graphics/SVG/1.1/DTD/svg11.dtd">
<!-- Generated by graphviz version 2.43.0 (0)
 -->
<!-- Title: catena::lite::ParamWithValue::fromProto Pages: 1 -->
<svg width="520pt" height="88pt"
 viewBox="0.00 0.00 520.00 88.00" xmlns="http://www.w3.org/2000/svg" xmlns:xlink="http://www.w3.org/1999/xlink">
<g id="graph0" class="graph" transform="scale(1 1) rotate(0) translate(4 84)">
<title>catena::lite::ParamWithValue::fromProto</title>
<polygon fill="white" stroke="transparent" points="-4,4 -4,-84 516,-84 516,4 -4,4"/>
<!-- Node1 -->
<g id="node1" class="node">
<title>Node1</title>
<g id="a_node1"><a xlink:title="deserialize the parameter value from protobuf if authorized">
<polygon fill="#bfbfbf" stroke="black" points="0,-24.5 0,-54.5 158,-54.5 158,-24.5 0,-24.5"/>
<text text-anchor="start" x="8" y="-42.5" font-family="Helvetica,sans-Serif" font-size="10.00">catena::lite::ParamWithValue</text>
<text text-anchor="middle" x="79" y="-31.5" font-family="Helvetica,sans-Serif" font-size="10.00">::fromProto</text>
</a>
</g>
</g>
<!-- Node2 -->
<g id="node2" class="node">
<title>Node2</title>
<g id="a_node2"><a xlink:href="classcatena_1_1lite_1_1AuthzInfo.html#a260f8384b5d8a037f21852551b00e55e" target="_top" xlink:title="Check if the client has read authorization.">
<polygon fill="white" stroke="black" points="194,-49.5 194,-79.5 318,-79.5 318,-49.5 194,-49.5"/>
<text text-anchor="start" x="202" y="-67.5" font-family="Helvetica,sans-Serif" font-size="10.00">catena::lite::AuthzInfo</text>
<text text-anchor="middle" x="256" y="-56.5" font-family="Helvetica,sans-Serif" font-size="10.00">::readAuthz</text>
</a>
</g>
</g>
<!-- Node1&#45;&gt;Node2 -->
<g id="edge1" class="edge">
<title>Node1&#45;&gt;Node2</title>
<path fill="none" stroke="midnightblue" d="M158.03,-50.65C166.68,-51.88 175.45,-53.14 184.01,-54.36"/>
<polygon fill="midnightblue" stroke="midnightblue" points="183.53,-57.83 193.93,-55.78 184.52,-50.9 183.53,-57.83"/>
</g>
<!-- Node3 -->
<g id="node3" class="node">
<title>Node3</title>
<g id="a_node3"><a xlink:href="classcatena_1_1lite_1_1AuthzInfo.html#a467413ec690ce36345957e384ac60acb" target="_top" xlink:title="Check if the client has write authorization.">
<polygon fill="white" stroke="black" points="194,-0.5 194,-30.5 318,-30.5 318,-0.5 194,-0.5"/>
<text text-anchor="start" x="202" y="-18.5" font-family="Helvetica,sans-Serif" font-size="10.00">catena::lite::AuthzInfo</text>
<text text-anchor="middle" x="256" y="-7.5" font-family="Helvetica,sans-Serif" font-size="10.00">::writeAuthz</text>
</a>
</g>
</g>
<!-- Node1&#45;&gt;Node3 -->
<g id="edge2" class="edge">
<title>Node1&#45;&gt;Node3</title>
<path fill="none" stroke="midnightblue" d="M158.03,-28.8C166.68,-27.61 175.45,-26.41 184.01,-25.24"/>
<polygon fill="midnightblue" stroke="midnightblue" points="184.49,-28.7 193.93,-23.88 183.54,-21.77 184.49,-28.7"/>
</g>
<!-- Node4 -->
<g id="node4" class="node">
<title>Node4</title>
<g id="a_node4"><a xlink:href="classcatena_1_1lite_1_1ParamDescriptor.html#a870ecb6c961d7753f4d372bfdbe1c3fe" target="_top" xlink:title="return the readOnly status of the parameter">
<polygon fill="white" stroke="black" points="354,-0.5 354,-30.5 512,-30.5 512,-0.5 354,-0.5"/>
<text text-anchor="start" x="362" y="-18.5" font-family="Helvetica,sans-Serif" font-size="10.00">catena::lite::ParamDescriptor</text>
<text text-anchor="middle" x="433" y="-7.5" font-family="Helvetica,sans-Serif" font-size="10.00">::readOnly</text>
</a>
</g>
</g>
<!-- Node3&#45;&gt;Node4 -->
<g id="edge3" class="edge">
<title>Node3&#45;&gt;Node4</title>
<path fill="none" stroke="midnightblue" d="M318.21,-15.5C326.5,-15.5 335.13,-15.5 343.78,-15.5"/>
<polygon fill="midnightblue" stroke="midnightblue" points="343.91,-19 353.91,-15.5 343.91,-12 343.91,-19"/>
</g>
</g>
</svg>
