<?xml version="1.0" encoding="UTF-8" standalone="no"?>
<!DOCTYPE svg PUBLIC "-//W3C//DTD SVG 1.1//EN"
 "http://www.w3.org/Graphics/SVG/1.1/DTD/svg11.dtd">
<!-- Generated by graphviz version 2.43.0 (0)
 -->
<!-- Title: catena::common::ParamWithValue::getParam_ Pages: 1 -->
<svg width="390pt" height="316pt"
 viewBox="0.00 0.00 390.00 316.00" xmlns="http://www.w3.org/2000/svg" xmlns:xlink="http://www.w3.org/1999/xlink">

<svg id="main" version="1.1" xmlns="http://www.w3.org/2000/svg" xmlns:xlink="http://www.w3.org/1999/xlink" xml:space="preserve" onload="init(evt)">
<style type="text/css"><![CDATA[
.node, .edge {opacity: 0.7;}
.node.selected, .edge.selected {opacity: 1;}
.edge:hover path { stroke: red; }
.edge:hover polygon { stroke: red; fill: red; }
]]></style>
<script type="application/ecmascript" xlink:href="svg.min.js"/>
<svg id="graph" class="graph">
<g id="graph0" class="graph" transform="scale(1 1) rotate(0) translate(4 312)">
<title>catena::common::ParamWithValue::getParam_</title>
<!-- Node1 -->
<g id="Node000001" class="node">
<title>Node1</title>
<g id="a_Node000001"><a xlink:title="Specialized getParam_ for EmptyValue &#45; handles template parameters with descriptor structure.">
<polygon fill="#999999" stroke="#666666" points="158,-164 0,-164 0,-134 158,-134 158,-164"/>
<text text-anchor="start" x="8" y="-152" font-family="Helvetica,sans-Serif" font-size="10.00">catena::common::ParamWith</text>
<text text-anchor="middle" x="79" y="-141" font-family="Helvetica,sans-Serif" font-size="10.00">Value::getParam_</text>
</a>
</g>
</g>
<!-- Node2 -->
<g id="Node000002" class="node">
<title>Node2</title>
<g id="a_Node000002"><a xlink:href="classcatena_1_1common_1_1Path.html#a6a63446ed43392f91ddf06d98eecb53a" target="_top" xlink:title="return true if the Path is empty">
<polygon fill="white" stroke="#666666" points="350.5,-308 225.5,-308 225.5,-278 350.5,-278 350.5,-308"/>
<text text-anchor="start" x="233.5" y="-296" font-family="Helvetica,sans-Serif" font-size="10.00">catena::common::Path</text>
<text text-anchor="middle" x="288" y="-285" font-family="Helvetica,sans-Serif" font-size="10.00">::empty</text>
</a>
</g>
</g>
<!-- Node1&#45;&gt;Node2 -->
<g id="edge1_Node000001_Node000002" class="edge">
<title>Node1&#45;&gt;Node2</title>
<g id="a_edge1_Node000001_Node000002"><a xlink:title=" ">
<path fill="none" stroke="#63b8ff" d="M90,-164.1C107.78,-189.73 147.44,-241.61 194,-269 200.67,-272.92 207.98,-276.21 215.47,-278.97"/>
<polygon fill="#63b8ff" stroke="#63b8ff" points="214.44,-282.32 225.03,-282.19 216.67,-275.68 214.44,-282.32"/>
</a>
</g>
</g>
<!-- Node3 -->
<g id="Node000003" class="node">
<title>Node3</title>
<g id="a_Node000003"><a xlink:href="classcatena_1_1common_1_1Path.html#ac6322b03a662c484c09e83df0664ad48" target="_top" xlink:title="return a fully qualified oid">
<polygon fill="white" stroke="#666666" points="350.5,-260 225.5,-260 225.5,-230 350.5,-230 350.5,-260"/>
<text text-anchor="start" x="233.5" y="-248" font-family="Helvetica,sans-Serif" font-size="10.00">catena::common::Path</text>
<text text-anchor="middle" x="288" y="-237" font-family="Helvetica,sans-Serif" font-size="10.00">::fqoid</text>
</a>
</g>
</g>
<!-- Node1&#45;&gt;Node3 -->
<g id="edge2_Node000001_Node000003" class="edge">
<title>Node1&#45;&gt;Node3</title>
<g id="a_edge2_Node000001_Node000003"><a xlink:title=" ">
<path fill="none" stroke="#63b8ff" d="M99.53,-164.02C121.44,-180.2 158.55,-205.68 194,-221 200.73,-223.91 207.9,-226.53 215.15,-228.87"/>
<polygon fill="#63b8ff" stroke="#63b8ff" points="214.48,-232.32 225.06,-231.89 216.52,-225.63 214.48,-232.32"/>
</a>
</g>
</g>
<!-- Node4 -->
<g id="Node000004" class="node">
<title>Node4</title>
<g id="a_Node000004"><a xlink:href="classcatena_1_1common_1_1Path.html#a1690b3ea621c581607cf394fbe5f0f7e" target="_top" xlink:title=" ">
<polygon fill="white" stroke="#666666" points="350.5,-212 225.5,-212 225.5,-182 350.5,-182 350.5,-212"/>
<text text-anchor="start" x="233.5" y="-200" font-family="Helvetica,sans-Serif" font-size="10.00">catena::common::Path</text>
<text text-anchor="middle" x="288" y="-189" font-family="Helvetica,sans-Serif" font-size="10.00">::front_as_string</text>
</a>
</g>
</g>
<!-- Node1&#45;&gt;Node4 -->
<g id="edge3_Node000001_Node000004" class="edge">
<title>Node1&#45;&gt;Node4</title>
<g id="a_edge3_Node000001_Node000004"><a xlink:title=" ">
<path fill="none" stroke="#63b8ff" d="M144.93,-164.06C167.34,-169.25 192.57,-175.1 215.48,-180.42"/>
<polygon fill="#63b8ff" stroke="#63b8ff" points="214.95,-183.89 225.48,-182.73 216.53,-177.07 214.95,-183.89"/>
</a>
</g>
</g>
<!-- Node5 -->
<g id="Node000005" class="node">
<title>Node5</title>
<g id="a_Node000005"><a xlink:href="classcatena_1_1common_1_1Path.html#a154c0ab9589fbf11d872053e869a62ca" target="_top" xlink:title=" ">
<polygon fill="white" stroke="#666666" points="350.5,-164 225.5,-164 225.5,-134 350.5,-134 350.5,-164"/>
<text text-anchor="start" x="233.5" y="-152" font-family="Helvetica,sans-Serif" font-size="10.00">catena::common::Path</text>
<text text-anchor="middle" x="288" y="-141" font-family="Helvetica,sans-Serif" font-size="10.00">::front_is_string</text>
</a>
</g>
</g>
<!-- Node1&#45;&gt;Node5 -->
<g id="edge4_Node000001_Node000005" class="edge">
<title>Node1&#45;&gt;Node5</title>
<g id="a_edge4_Node000001_Node000005"><a xlink:title=" ">
<path fill="none" stroke="#63b8ff" d="M158.26,-149C177,-149 196.91,-149 215.34,-149"/>
<polygon fill="#63b8ff" stroke="#63b8ff" points="215.41,-152.5 225.41,-149 215.41,-145.5 215.41,-152.5"/>
</a>
</g>
</g>
<!-- Node6 -->
<g id="Node000006" class="node">
<title>Node6</title>
<g id="a_Node000006"><a xlink:href="classcatena_1_1common_1_1IParamDescriptor.html#a14a921fffd4c9d68847f37046168bcab" target="_top" xlink:title="return all sub parameters">
<polygon fill="white" stroke="#666666" points="382,-116 194,-116 194,-86 382,-86 382,-116"/>
<text text-anchor="start" x="202" y="-104" font-family="Helvetica,sans-Serif" font-size="10.00">catena::common::IParamDescriptor</text>
<text text-anchor="middle" x="288" y="-93" font-family="Helvetica,sans-Serif" font-size="10.00">::getAllSubParams</text>
</a>
</g>
</g>
<!-- Node1&#45;&gt;Node6 -->
<g id="edge5_Node000001_Node000006" class="edge">
<title>Node1&#45;&gt;Node6</title>
<g id="a_edge5_Node000001_Node000006"><a xlink:title=" ">
<path fill="none" stroke="#63b8ff" d="M144.93,-133.94C166.31,-128.99 190.27,-123.43 212.32,-118.32"/>
<polygon fill="#63b8ff" stroke="#63b8ff" points="213.35,-121.67 222.3,-116 211.77,-114.85 213.35,-121.67"/>
</a>
</g>
</g>
<!-- Node7 -->
<g id="Node000007" class="node">
<title>Node7</title>
<g id="a_Node000007"><a xlink:href="classcatena_1_1common_1_1Path.html#a8d8e5e7559aca13d6b49a1561c668c43" target="_top" xlink:title="pop the front of the path. Decreases the length of the path by 1 unless the path is already empty in ...">
<polygon fill="white" stroke="#666666" points="362.5,-67.5 213.5,-67.5 213.5,-48.5 362.5,-48.5 362.5,-67.5"/>
<text text-anchor="middle" x="288" y="-55.5" font-family="Helvetica,sans-Serif" font-size="10.00">catena::common::Path::pop</text>
</a>
</g>
</g>
<!-- Node1&#45;&gt;Node7 -->
<g id="edge6_Node000001_Node000007" class="edge">
<title>Node1&#45;&gt;Node7</title>
<g id="a_edge6_Node000001_Node000007"><a xlink:title=" ">
<path fill="none" stroke="#63b8ff" d="M99,-133.94C120.72,-117.47 157.95,-91.5 194,-77 200.62,-74.34 207.67,-72.03 214.8,-70.04"/>
<polygon fill="#63b8ff" stroke="#63b8ff" points="215.75,-73.41 224.55,-67.51 213.99,-66.63 215.75,-73.41"/>
</a>
</g>
</g>
<!-- Node8 -->
<g id="Node000008" class="node">
<title>Node8</title>
<g id="a_Node000008"><a xlink:href="classcatena_1_1common_1_1IAuthorizer.html#acedeea5eadbebac67cb4e727c5dd762c" target="_top" xlink:title="Check if the client has read authorization for a param.">
<polygon fill="white" stroke="#666666" points="367,-30 209,-30 209,0 367,0 367,-30"/>
<text text-anchor="start" x="217" y="-18" font-family="Helvetica,sans-Serif" font-size="10.00">catena::common::IAuthorizer</text>
<text text-anchor="middle" x="288" y="-7" font-family="Helvetica,sans-Serif" font-size="10.00">::readAuthz</text>
</a>
</g>
</g>
<!-- Node1&#45;&gt;Node8 -->
<g id="edge7_Node000001_Node000008" class="edge">
<title>Node1&#45;&gt;Node8</title>
<g id="a_edge7_Node000001_Node000008"><a xlink:title=" ">
<path fill="none" stroke="#63b8ff" d="M91.56,-133.85C110.41,-110.21 150.1,-64.72 194,-40 197.96,-37.77 202.12,-35.73 206.41,-33.87"/>
<polygon fill="#63b8ff" stroke="#63b8ff" points="207.95,-37.03 215.94,-30.07 205.36,-30.52 207.95,-37.03"/>
</a>
</g>
</g>
</g>
</svg>
</svg>

<style type='text/css'>
<![CDATA[
[data-mouse-over-selected='false'] { opacity: 0.7; }
[data-mouse-over-selected='true']  { opacity: 1.0; }
]]>
</style>
<script type="application/ecmascript"><![CDATA[
document.addEventListener('DOMContentLoaded', (event) => {
  highlightEdges();
  highlightAdjacentNodes();
});
]]></script>
</svg>
