<?xml version="1.0" encoding="UTF-8" standalone="no"?>
<!DOCTYPE svg PUBLIC "-//W3C//DTD SVG 1.1//EN"
 "http://www.w3.org/Graphics/SVG/1.1/DTD/svg11.dtd">
<!-- Generated by graphviz version 2.43.0 (0)
 -->
<!-- Title: catena::API::SetValue Pages: 1 -->
<svg width="736pt" height="138pt"
 viewBox="0.00 0.00 736.00 138.00" xmlns="http://www.w3.org/2000/svg" xmlns:xlink="http://www.w3.org/1999/xlink">
<g id="graph0" class="graph" transform="scale(1 1) rotate(0) translate(4 134)">
<title>catena::API::SetValue</title>
<!-- Node1 -->
<g id="Node000001" class="node">
<title>Node1</title>
<g id="a_Node000001"><a xlink:title="The SetValue REST RPC.">
<polygon fill="#999999" stroke="#666666" points="728,-74 608,-74 608,-55 728,-55 728,-74"/>
<text text-anchor="middle" x="668" y="-62" font-family="Helvetica,sans-Serif" font-size="10.00">catena::API::SetValue</text>
</a>
</g>
</g>
<!-- Node2 -->
<g id="Node000002" class="node">
<title>Node2</title>
<g id="a_Node000002"><a xlink:href="classAPI_1_1MultiSetValue.html" target="_top" xlink:title="Generic CallData class for the SetValue and MultiSetValue REST RPCs.">
<polygon fill="white" stroke="#666666" points="571,-74 426,-74 426,-55 571,-55 571,-74"/>
<text text-anchor="middle" x="498.5" y="-62" font-family="Helvetica,sans-Serif" font-size="10.00">catena::API::MultiSetValue</text>
</a>
</g>
</g>
<!-- Node2&#45;&gt;Node1 -->
<g id="edge1_Node000001_Node000002" class="edge">
<title>Node2&#45;&gt;Node1</title>
<g id="a_edge1_Node000001_Node000002"><a xlink:title=" ">
<path fill="none" stroke="#63b8ff" d="M581.14,-64.5C590.14,-64.5 599.17,-64.5 607.82,-64.5"/>
<polygon fill="#63b8ff" stroke="#63b8ff" points="581.02,-61 571.02,-64.5 581.02,-68 581.02,-61"/>
</a>
</g>
</g>
<!-- Node3 -->
<g id="Node000003" class="node">
<title>Node3</title>
<g id="a_Node000003"><a xlink:href="classcatena_1_1REST_1_1ICallData.html" target="_top" xlink:title="CallData interface class for the REST API RPCs.">
<polygon fill="white" stroke="#666666" points="333.5,-130 202.5,-130 202.5,-111 333.5,-111 333.5,-130"/>
<text text-anchor="middle" x="268" y="-118" font-family="Helvetica,sans-Serif" font-size="10.00">catena::REST::ICallData</text>
</a>
</g>
</g>
<!-- Node3&#45;&gt;Node2 -->
<g id="edge2_Node000002_Node000003" class="edge">
<title>Node3&#45;&gt;Node2</title>
<g id="a_edge2_Node000002_Node000003"><a xlink:title=" ">
<path fill="none" stroke="#63b8ff" d="M327.17,-108.9C352.14,-103.67 381.6,-97.17 408,-90.5 427.61,-85.54 449.41,-79.23 466.58,-74.06"/>
<polygon fill="#63b8ff" stroke="#63b8ff" points="326.2,-105.52 317.12,-110.98 327.62,-112.38 326.2,-105.52"/>
</a>
</g>
</g>
<!-- Node4 -->
<g id="Node000004" class="node">
<title>Node4</title>
<g id="a_Node000004"><a xlink:href="classcatena_1_1REST_1_1SocketReader.html" target="_top" xlink:title="Helper class used to read from a socket using boost.">
<polygon fill="white" stroke="#666666" points="344,-93 192,-93 192,-74 344,-74 344,-93"/>
<text text-anchor="middle" x="268" y="-81" font-family="Helvetica,sans-Serif" font-size="10.00">catena::REST::SocketReader</text>
</a>
</g>
</g>
<!-- Node4&#45;&gt;Node2 -->
<g id="edge3_Node000002_Node000004" class="edge">
<title>Node4&#45;&gt;Node2</title>
<g id="a_edge3_Node000002_Node000004"><a xlink:title=" ">
<path fill="none" stroke="#9a32cd" stroke-dasharray="5,2" d="M354.12,-76.42C377.71,-74.46 403.07,-72.35 425.81,-70.46"/>
<polygon fill="#9a32cd" stroke="#9a32cd" points="353.81,-72.94 344.14,-77.25 354.39,-79.91 353.81,-72.94"/>
</a>
</g>
<text text-anchor="middle" x="385" y="-78.5" font-family="Helvetica,sans-Serif" font-size="10.00" fill="grey"> context_</text>
</g>
<!-- Node5 -->
<g id="Node000005" class="node">
<title>Node5</title>
<g id="a_Node000005"><a xlink:href="classcatena_1_1REST_1_1ISocketReader.html" target="_top" xlink:title="Interface for the SocketReader class.">
<polygon fill="white" stroke="#666666" points="155,-93 0,-93 0,-74 155,-74 155,-93"/>
<text text-anchor="middle" x="77.5" y="-81" font-family="Helvetica,sans-Serif" font-size="10.00">catena::REST::ISocketReader</text>
</a>
</g>
</g>
<!-- Node5&#45;&gt;Node4 -->
<g id="edge4_Node000004_Node000005" class="edge">
<title>Node5&#45;&gt;Node4</title>
<g id="a_edge4_Node000004_Node000005"><a xlink:title=" ">
<path fill="none" stroke="#63b8ff" d="M165.19,-83.5C174.12,-83.5 183.14,-83.5 191.92,-83.5"/>
<polygon fill="#63b8ff" stroke="#63b8ff" points="165.17,-80 155.17,-83.5 165.17,-87 165.17,-80"/>
</a>
</g>
</g>
<!-- Node6 -->
<g id="Node000006" class="node">
<title>Node6</title>
<g id="a_Node000006"><a xlink:href="classcatena_1_1REST_1_1SocketWriter.html" target="_top" xlink:title="Helper class used to write to a socket using boost.">
<polygon fill="white" stroke="#666666" points="342,-56 194,-56 194,-37 342,-37 342,-56"/>
<text text-anchor="middle" x="268" y="-44" font-family="Helvetica,sans-Serif" font-size="10.00">catena::REST::SocketWriter</text>
</a>
</g>
</g>
<!-- Node6&#45;&gt;Node2 -->
<g id="edge5_Node000002_Node000006" class="edge">
<title>Node6&#45;&gt;Node2</title>
<g id="a_edge5_Node000002_Node000006"><a xlink:title=" ">
<path fill="none" stroke="#9a32cd" stroke-dasharray="5,2" d="M352.41,-46.34C370.75,-46.85 390.06,-47.81 408,-49.5 421.18,-50.74 435.34,-52.78 448.43,-54.96"/>
<polygon fill="#9a32cd" stroke="#9a32cd" points="352.42,-42.84 342.34,-46.1 352.25,-49.84 352.42,-42.84"/>
</a>
</g>
<text text-anchor="middle" x="385" y="-52.5" font-family="Helvetica,sans-Serif" font-size="10.00" fill="grey"> writer_</text>
</g>
<!-- Node7 -->
<g id="Node000007" class="node">
<title>Node7</title>
<g id="a_Node000007"><a xlink:href="classcatena_1_1REST_1_1ISocketWriter.html" target="_top" xlink:title="Interface for the SocketWriter classes.">
<polygon fill="white" stroke="#666666" points="153,-56 2,-56 2,-37 153,-37 153,-56"/>
<text text-anchor="middle" x="77.5" y="-44" font-family="Helvetica,sans-Serif" font-size="10.00">catena::REST::ISocketWriter</text>
</a>
</g>
</g>
<!-- Node7&#45;&gt;Node6 -->
<g id="edge6_Node000006_Node000007" class="edge">
<title>Node7&#45;&gt;Node6</title>
<g id="a_edge6_Node000006_Node000007"><a xlink:title=" ">
<path fill="none" stroke="#63b8ff" d="M163.2,-46.5C173.47,-46.5 183.89,-46.5 193.97,-46.5"/>
<polygon fill="#63b8ff" stroke="#63b8ff" points="163,-43 153,-46.5 163,-50 163,-43"/>
</a>
</g>
</g>
<!-- Node8 -->
<g id="Node000008" class="node">
<title>Node8</title>
<g id="a_Node000008"><a xlink:href="classcatena_1_1common_1_1Device.html" target="_top" xlink:title="Implements the Device interface defined in the protobuf.">
<polygon fill="white" stroke="#666666" points="337,-19 199,-19 199,0 337,0 337,-19"/>
<text text-anchor="middle" x="268" y="-7" font-family="Helvetica,sans-Serif" font-size="10.00">catena::common::Device</text>
</a>
</g>
</g>
<!-- Node8&#45;&gt;Node2 -->
<g id="edge7_Node000002_Node000008" class="edge">
<title>Node8&#45;&gt;Node2</title>
<g id="a_edge7_Node000002_Node000008"><a xlink:title=" ">
<path fill="none" stroke="#9a32cd" stroke-dasharray="5,2" d="M347.08,-19.1C367.1,-22.32 388.48,-26.41 408,-31.5 431.56,-37.64 457.57,-47.61 475.45,-54.99"/>
<polygon fill="#9a32cd" stroke="#9a32cd" points="347.49,-15.62 337.07,-17.55 346.41,-22.54 347.49,-15.62"/>
</a>
</g>
<text text-anchor="middle" x="385" y="-34.5" font-family="Helvetica,sans-Serif" font-size="10.00" fill="grey"> dm_</text>
</g>
</g>
</svg>
