<?xml version="1.0" encoding="UTF-8" standalone="no"?>
<!DOCTYPE svg PUBLIC "-//W3C//DTD SVG 1.1//EN"
 "http://www.w3.org/Graphics/SVG/1.1/DTD/svg11.dtd">
<!-- Generated by graphviz version 2.43.0 (0)
 -->
<!-- Title: catena::common::Authorizer::readAuthz Pages: 1 -->
<svg width="357pt" height="190pt"
 viewBox="0.00 0.00 357.00 190.00" xmlns="http://www.w3.org/2000/svg" xmlns:xlink="http://www.w3.org/1999/xlink">

<svg id="main" version="1.1" xmlns="http://www.w3.org/2000/svg" xmlns:xlink="http://www.w3.org/1999/xlink" xml:space="preserve" onload="init(evt)">
<style type="text/css"><![CDATA[
.node, .edge {opacity: 0.7;}
.node.selected, .edge.selected {opacity: 1;}
.edge:hover path { stroke: red; }
.edge:hover polygon { stroke: red; fill: red; }
]]></style>
<script type="application/ecmascript" xlink:href="svg.min.js"/>
<svg id="graph" class="graph">
<g id="graph0" class="graph" transform="scale(1 1) rotate(0) translate(4 186)">
<title>catena::common::Authorizer::readAuthz</title>
<!-- Node1 -->
<g id="Node000001" class="node">
<title>Node1</title>
<g id="a_Node000001"><a xlink:title="Check if the client has read authorization for a param.">
<polygon fill="#999999" stroke="#666666" points="349,-99 194,-99 194,-69 349,-69 349,-99"/>
<text text-anchor="start" x="202" y="-87" font-family="Helvetica,sans-Serif" font-size="10.00">catena::common::Authorizer</text>
<text text-anchor="middle" x="271.5" y="-76" font-family="Helvetica,sans-Serif" font-size="10.00">::readAuthz</text>
</a>
</g>
</g>
<!-- Node2 -->
<g id="Node000002" class="node">
<title>Node2</title>
<g id="a_Node000002"><a xlink:href="classcatena_1_1common_1_1ParamWithValue.html#a4604d117287412cc176b62113cd1578c" target="_top" xlink:title="serialize the parameter descriptor to protobuf include both the descriptor and the value">
<polygon fill="white" stroke="#666666" points="158,-182 0,-182 0,-152 158,-152 158,-182"/>
<text text-anchor="start" x="8" y="-170" font-family="Helvetica,sans-Serif" font-size="10.00">catena::common::ParamWith</text>
<text text-anchor="middle" x="79" y="-159" font-family="Helvetica,sans-Serif" font-size="10.00">Value::toProto</text>
</a>
</g>
</g>
<!-- Node1&#45;&gt;Node2 -->
<g id="edge1_Node000001_Node000002" class="edge">
<title>Node1&#45;&gt;Node2</title>
<g id="a_edge1_Node000001_Node000002"><a xlink:title=" ">
<path fill="none" stroke="#63b8ff" d="M235.89,-104.28C214.04,-116.54 184.94,-131.9 158,-143 150.27,-146.18 141.96,-149.18 133.75,-151.89"/>
<polygon fill="#63b8ff" stroke="#63b8ff" points="237.82,-107.21 244.79,-99.23 234.36,-101.12 237.82,-107.21"/>
</a>
</g>
</g>
<!-- Node3 -->
<g id="Node000003" class="node">
<title>Node3</title>
<g id="a_Node000003"><a xlink:href="namespacecatena_1_1common.html#a0d090c6e5eca2b36cb8cd5577cbf46ab" target="_top" xlink:title=" ">
<polygon fill="white" stroke="#666666" points="149,-115.5 9,-115.5 9,-96.5 149,-96.5 149,-115.5"/>
<text text-anchor="middle" x="79" y="-103.5" font-family="Helvetica,sans-Serif" font-size="10.00">catena::common::toProto</text>
</a>
</g>
</g>
<!-- Node1&#45;&gt;Node3 -->
<g id="edge2_Node000001_Node000003" class="edge">
<title>Node1&#45;&gt;Node3</title>
<g id="a_edge2_Node000001_Node000003"><a xlink:title=" ">
<path fill="none" stroke="#63b8ff" d="M183.71,-94.02C172.12,-95.36 160.36,-96.72 149.12,-98.02"/>
<polygon fill="#63b8ff" stroke="#63b8ff" points="184.31,-97.48 193.84,-92.85 183.5,-90.52 184.31,-97.48"/>
</a>
</g>
</g>
<!-- Node4 -->
<g id="Node000004" class="node">
<title>Node4</title>
<g id="a_Node000004"><a xlink:href="classcatena_1_1common_1_1Connect.html#a79a548ee8b6b66ed2b9b1dbb29bf77d1" target="_top" xlink:title="Updates the response message with an ILanguagePack and handles authorization checks.">
<polygon fill="white" stroke="#666666" points="151,-78 7,-78 7,-48 151,-48 151,-78"/>
<text text-anchor="start" x="15" y="-66" font-family="Helvetica,sans-Serif" font-size="10.00">catena::common::Connect</text>
<text text-anchor="middle" x="79" y="-55" font-family="Helvetica,sans-Serif" font-size="10.00">::updateResponse_</text>
</a>
</g>
</g>
<!-- Node1&#45;&gt;Node4 -->
<g id="edge4_Node000001_Node000004" class="edge">
<title>Node1&#45;&gt;Node4</title>
<g id="a_edge4_Node000001_Node000004"><a xlink:title=" ">
<path fill="none" stroke="#63b8ff" d="M183.88,-74.45C172.96,-73.25 161.9,-72.03 151.26,-70.86"/>
<polygon fill="#63b8ff" stroke="#63b8ff" points="183.52,-77.93 193.84,-75.55 184.28,-70.97 183.52,-77.93"/>
</a>
</g>
</g>
<!-- Node5 -->
<g id="Node000005" class="node">
<title>Node5</title>
<g id="a_Node000005"><a xlink:href="classcatena_1_1common_1_1Connect.html#a8ff9c432f5f47f67746433d1827fd19d" target="_top" xlink:title="Updates the response message with parameter values and handles authorization checks.">
<polygon fill="white" stroke="#666666" points="151,-30 7,-30 7,0 151,0 151,-30"/>
<text text-anchor="start" x="15" y="-18" font-family="Helvetica,sans-Serif" font-size="10.00">catena::common::Connect</text>
<text text-anchor="middle" x="79" y="-7" font-family="Helvetica,sans-Serif" font-size="10.00">::updateResponse_</text>
</a>
</g>
</g>
<!-- Node1&#45;&gt;Node5 -->
<g id="edge5_Node000001_Node000005" class="edge">
<title>Node1&#45;&gt;Node5</title>
<g id="a_edge5_Node000001_Node000005"><a xlink:title=" ">
<path fill="none" stroke="#63b8ff" d="M225.67,-65.09C205.19,-56.7 180.52,-46.95 158,-39 149.32,-35.93 140.01,-32.88 130.97,-30.02"/>
<polygon fill="#63b8ff" stroke="#63b8ff" points="224.48,-68.39 235.06,-68.96 227.15,-61.91 224.48,-68.39"/>
</a>
</g>
</g>
<!-- Node3&#45;&gt;Node3 -->
<g id="edge3_Node000003_Node000003" class="edge">
<title>Node3&#45;&gt;Node3</title>
<g id="a_edge3_Node000003_Node000003"><a xlink:title=" ">
<path fill="none" stroke="#63b8ff" d="M114.98,-123.57C114.45,-129.12 102.46,-133.5 79,-133.5 44.87,-133.5 35.01,-124.23 49.41,-115.58"/>
<polygon fill="#63b8ff" stroke="#63b8ff" points="117.57,-121.21 108.59,-115.58 112.11,-125.58 117.57,-121.21"/>
</a>
</g>
</g>
</g>
</svg>
</svg>

<style type='text/css'>
<![CDATA[
[data-mouse-over-selected='false'] { opacity: 0.7; }
[data-mouse-over-selected='true']  { opacity: 1.0; }
]]>
</style>
<script type="application/ecmascript"><![CDATA[
document.addEventListener('DOMContentLoaded', (event) => {
  highlightEdges();
  highlightAdjacentNodes();
});
]]></script>
</svg>
