<?xml version="1.0" encoding="UTF-8" standalone="no"?>
<!DOCTYPE svg PUBLIC "-//W3C//DTD SVG 1.1//EN"
 "http://www.w3.org/Graphics/SVG/1.1/DTD/svg11.dtd">
<!-- Generated by graphviz version 2.43.0 (0)
 -->
<!-- Title: catena::gRPC::Connect Pages: 1 -->
<!--zoomable 253 -->

<svg id="main" version="1.1" xmlns="http://www.w3.org/2000/svg" xmlns:xlink="http://www.w3.org/1999/xlink" xml:space="preserve" onload="init(evt)">
<style type="text/css"><![CDATA[
.node, .edge {opacity: 0.7;}
.node.selected, .edge.selected {opacity: 1;}
.edge:hover path { stroke: red; }
.edge:hover polygon { stroke: red; fill: red; }
]]></style>

<defs>
  <circle id="rim" cx="0" cy="0" r="7"/>
  <circle id="rim2" cx="0" cy="0" r="3.5"/>
  <g id="zoomPlus">
    <use xlink:href="#rim" fill="#404040"><set attributeName="fill" to="#808080" begin="zoomplus.mouseover" end="zoomplus.mouseout"/></use>
    <path d="M-4,0h8M0,-4v8" fill="none" stroke="white" stroke-width="1.5" pointer-events="none"/>
  </g>
  <g id="zoomMin">
    <use xlink:href="#rim" fill="#404040"><set attributeName="fill" to="#808080" begin="zoomminus.mouseover" end="zoomminus.mouseout"/></use>
    <path d="M-4,0h8" fill="none" stroke="white" stroke-width="1.5" pointer-events="none"/>
  </g>
  <g id="arrowUp" transform="translate(30 24)">
    <use xlink:href="#rim"/>
    <path pointer-events="none" fill="none" stroke="white" stroke-width="1.5" d="M0,-3.0v7 M-2.5,-0.5L0,-3.0L2.5,-0.5"/>
  </g>
  <g id="arrowRight" transform="rotate(90) translate(36 -43)">
    <use xlink:href="#rim"/>
    <path pointer-events="none" fill="none" stroke="white" stroke-width="1.5" d="M0,-3.0v7 M-2.5,-0.5L0,-3.0L2.5,-0.5"/>
  </g>
  <g id="arrowDown" transform="rotate(180) translate(-30 -48)">
    <use xlink:href="#rim"/>
    <path pointer-events="none" fill="none" stroke="white" stroke-width="1.5" d="M0,-3.0v7 M-2.5,-0.5L0,-3.0L2.5,-0.5"/>
  </g>
  <g id="arrowLeft" transform="rotate(270) translate(-36 17)">
    <use xlink:href="#rim"/>
    <path pointer-events="none" fill="none" stroke="white" stroke-width="1.5" d="M0,-3.0v7 M-2.5,-0.5L0,-3.0L2.5,-0.5"/>
  </g>
  <g id="resetDef">
    <use xlink:href="#rim2" fill="#404040"><set attributeName="fill" to="#808080" begin="reset.mouseover" end="reset.mouseout"/></use>
  </g>
</defs>
<script type="application/ecmascript">
var viewWidth = 808;
var viewHeight = 253;
var sectionId = 'dynsection-1';
</script>
<script type="application/ecmascript" xlink:href="svg.min.js"/>
<svg id="graph" class="graph">
<g id="viewport">
<title>catena::gRPC::Connect</title>
<!-- Node1 -->
<g id="Node000001" class="node">
<title>Node1</title>
<g id="a_Node000001"><a xlink:title="CallData class for the Connect RPC.">
<polygon fill="#999999" stroke="#666666" points="800,-145.5 673,-145.5 673,-126.5 800,-126.5 800,-145.5"/>
<text text-anchor="middle" x="736.5" y="-133.5" font-family="Helvetica,sans-Serif" font-size="10.00">catena::gRPC::Connect</text>
</a>
</g>
</g>
<!-- Node2 -->
<g id="Node000002" class="node">
<title>Node2</title>
<g id="a_Node000002"><a xlink:href="classcatena_1_1gRPC_1_1CallData.html" target="_top" xlink:title="Abstract base class for the CallData classes which defines the jwsToken_ class.">
<polygon fill="white" stroke="#666666" points="628.5,-177.5 499.5,-177.5 499.5,-158.5 628.5,-158.5 628.5,-177.5"/>
<text text-anchor="middle" x="564" y="-165.5" font-family="Helvetica,sans-Serif" font-size="10.00">catena::gRPC::CallData</text>
</a>
</g>
</g>
<!-- Node2&#45;&gt;Node1 -->
<g id="edge1_Node000001_Node000002" class="edge">
<title>Node2&#45;&gt;Node1</title>
<g id="a_edge1_Node000001_Node000002"><a xlink:title=" ">
<path fill="none" stroke="#63b8ff" d="M625.61,-156.62C644.95,-152.99 666.14,-149.02 684.71,-145.53"/>
<polygon fill="#63b8ff" stroke="#63b8ff" points="624.88,-153.2 615.69,-158.49 626.17,-160.08 624.88,-153.2"/>
</a>
</g>
</g>
<!-- Node3 -->
<g id="Node000003" class="node">
<title>Node3</title>
<g id="a_Node000003"><a xlink:href="classcatena_1_1gRPC_1_1ICallData.html" target="_top" xlink:title="Interface class for gRPC CallData classes.">
<polygon fill="white" stroke="#666666" points="320,-244.5 188,-244.5 188,-225.5 320,-225.5 320,-244.5"/>
<text text-anchor="middle" x="254" y="-232.5" font-family="Helvetica,sans-Serif" font-size="10.00">catena::gRPC::ICallData</text>
</a>
</g>
</g>
<!-- Node3&#45;&gt;Node2 -->
<g id="edge2_Node000002_Node000003" class="edge">
<title>Node3&#45;&gt;Node2</title>
<g id="a_edge2_Node000002_Node000003"><a xlink:title=" ">
<path fill="none" stroke="#63b8ff" d="M330.45,-227.69C373.05,-222.56 427.01,-214.36 474,-202 497.83,-195.73 524.07,-185.24 541.84,-177.57"/>
<polygon fill="#63b8ff" stroke="#63b8ff" points="329.95,-224.23 320.43,-228.87 330.77,-231.18 329.95,-224.23"/>
</a>
</g>
</g>
<!-- Node4 -->
<g id="Node000004" class="node">
<title>Node4</title>
<g id="a_Node000004"><a xlink:title=" ">
<polygon fill="white" stroke="#bfbfbf" points="297,-207.5 211,-207.5 211,-188.5 297,-188.5 297,-207.5"/>
<text text-anchor="middle" x="254" y="-195.5" font-family="Helvetica,sans-Serif" font-size="10.00">ServerContext</text>
</a>
</g>
</g>
<!-- Node4&#45;&gt;Node2 -->
<g id="edge3_Node000002_Node000004" class="edge">
<title>Node4&#45;&gt;Node2</title>
<g id="a_edge3_Node000002_Node000004"><a xlink:title=" ">
<path fill="none" stroke="#9a32cd" stroke-dasharray="5,2" d="M307.39,-192.9C360.48,-187.73 442.65,-179.72 499.42,-174.19"/>
<polygon fill="#9a32cd" stroke="#9a32cd" points="306.79,-189.44 297.18,-193.89 307.47,-196.41 306.79,-189.44"/>
</a>
</g>
<text text-anchor="middle" x="418.5" y="-190" font-family="Helvetica,sans-Serif" font-size="10.00" fill="grey"> context_</text>
</g>
<!-- Node5 -->
<g id="Node000005" class="node">
<title>Node5</title>
<g id="a_Node000005"><a xlink:href="classcatena_1_1gRPC_1_1ICatenaServiceImpl.html" target="_top" xlink:title="Interface class for the gRPC API Implementation.">
<polygon fill="white" stroke="#666666" points="345,-170.5 163,-170.5 163,-151.5 345,-151.5 345,-170.5"/>
<text text-anchor="middle" x="254" y="-158.5" font-family="Helvetica,sans-Serif" font-size="10.00">catena::gRPC::ICatenaServiceImpl</text>
</a>
</g>
</g>
<!-- Node5&#45;&gt;Node2 -->
<g id="edge4_Node000002_Node000005" class="edge">
<title>Node5&#45;&gt;Node2</title>
<g id="a_edge4_Node000002_Node000005"><a xlink:title=" ">
<path fill="none" stroke="#9a32cd" stroke-dasharray="5,2" d="M355.4,-162.51C392.65,-163.15 435.26,-163.99 474,-165 482.19,-165.21 490.81,-165.47 499.32,-165.73"/>
<polygon fill="#9a32cd" stroke="#9a32cd" points="355.1,-159 345.04,-162.33 354.98,-166 355.1,-159"/>
</a>
</g>
<text text-anchor="middle" x="418.5" y="-168" font-family="Helvetica,sans-Serif" font-size="10.00" fill="grey"> service_</text>
</g>
<!-- Node6 -->
<g id="Node000006" class="node">
<title>Node6</title>
<g id="a_Node000006"><a xlink:title=" ">
<polygon fill="white" stroke="#bfbfbf" points="126,-176 0,-176 0,-146 126,-146 126,-176"/>
<text text-anchor="start" x="8" y="-164" font-family="Helvetica,sans-Serif" font-size="10.00">catena::CatenaService</text>
<text text-anchor="middle" x="63" y="-153" font-family="Helvetica,sans-Serif" font-size="10.00">::AsyncService</text>
</a>
</g>
</g>
<!-- Node6&#45;&gt;Node5 -->
<g id="edge5_Node000005_Node000006" class="edge">
<title>Node6&#45;&gt;Node5</title>
<g id="a_edge5_Node000005_Node000006"><a xlink:title=" ">
<path fill="none" stroke="#63b8ff" d="M136.2,-161C144.89,-161 153.84,-161 162.74,-161"/>
<polygon fill="#63b8ff" stroke="#63b8ff" points="136.15,-157.5 126.15,-161 136.15,-164.5 136.15,-157.5"/>
</a>
</g>
</g>
<!-- Node7 -->
<g id="Node000007" class="node">
<title>Node7</title>
<g id="a_Node000007"><a xlink:href="classcatena_1_1common_1_1Connect.html" target="_top" xlink:title="Pure virtual class for Connect RPCs. Contains functions for updating the response message with parame...">
<polygon fill="white" stroke="#666666" points="636,-127.5 492,-127.5 492,-108.5 636,-108.5 636,-127.5"/>
<text text-anchor="middle" x="564" y="-115.5" font-family="Helvetica,sans-Serif" font-size="10.00">catena::common::Connect</text>
</a>
</g>
</g>
<!-- Node7&#45;&gt;Node1 -->
<g id="edge6_Node000001_Node000007" class="edge">
<title>Node7&#45;&gt;Node1</title>
<g id="a_edge6_Node000001_Node000007"><a xlink:title=" ">
<path fill="none" stroke="#63b8ff" d="M646.34,-126.59C655.26,-127.53 664.23,-128.48 672.87,-129.39"/>
<polygon fill="#63b8ff" stroke="#63b8ff" points="646.63,-123.1 636.32,-125.53 645.9,-130.06 646.63,-123.1"/>
</a>
</g>
</g>
<!-- Node8 -->
<g id="Node000008" class="node">
<title>Node8</title>
<g id="a_Node000008"><a xlink:href="classcatena_1_1common_1_1IConnect.html" target="_top" xlink:title="Interface class for Connect RPCs.">
<polygon fill="white" stroke="#666666" points="327.5,-133.5 180.5,-133.5 180.5,-114.5 327.5,-114.5 327.5,-133.5"/>
<text text-anchor="middle" x="254" y="-121.5" font-family="Helvetica,sans-Serif" font-size="10.00">catena::common::IConnect</text>
</a>
</g>
</g>
<!-- Node8&#45;&gt;Node7 -->
<g id="edge7_Node000007_Node000008" class="edge">
<title>Node8&#45;&gt;Node7</title>
<g id="a_edge7_Node000007_Node000008"><a xlink:title=" ">
<path fill="none" stroke="#63b8ff" d="M337.69,-122.39C385.84,-121.45 445.94,-120.28 491.95,-119.38"/>
<polygon fill="#63b8ff" stroke="#63b8ff" points="337.53,-118.89 327.6,-122.59 337.67,-125.89 337.53,-118.89"/>
</a>
</g>
</g>
<!-- Node9 -->
<g id="Node000009" class="node">
<title>Node9</title>
<g id="a_Node000009"><a xlink:href="classcatena_1_1common_1_1Authorizer.html" target="_top" xlink:title="Class for handling authorization information.">
<polygon fill="white" stroke="#666666" points="331.5,-67.5 176.5,-67.5 176.5,-48.5 331.5,-48.5 331.5,-67.5"/>
<text text-anchor="middle" x="254" y="-55.5" font-family="Helvetica,sans-Serif" font-size="10.00">catena::common::Authorizer</text>
</a>
</g>
</g>
<!-- Node9&#45;&gt;Node7 -->
<g id="edge8_Node000007_Node000009" class="edge">
<title>Node9&#45;&gt;Node7</title>
<g id="a_edge8_Node000007_Node000009"><a xlink:title=" ">
<path fill="none" stroke="#9a32cd" stroke-dasharray="5,2" d="M313.94,-69.48C372.05,-80.8 459.83,-97.9 514.17,-108.49"/>
<polygon fill="#9a32cd" stroke="#9a32cd" points="314.29,-65.98 303.8,-67.51 312.95,-72.85 314.29,-65.98"/>
</a>
</g>
<text text-anchor="middle" x="418.5" y="-104" font-family="Helvetica,sans-Serif" font-size="10.00" fill="grey"> authz_</text>
</g>
<!-- Node9&#45;&gt;Node9 -->
<g id="edge9_Node000009_Node000009" class="edge">
<title>Node9&#45;&gt;Node9</title>
<g id="a_edge9_Node000009_Node000009"><a xlink:title=" ">
<path fill="none" stroke="#9a32cd" stroke-dasharray="5,2" d="M234,-77.05C235.34,-81.88 242,-85.5 254,-85.5 273.2,-85.5 278.74,-76.23 270.65,-67.58"/>
<polygon fill="#9a32cd" stroke="#9a32cd" points="237.32,-78.18 237.35,-67.58 230.72,-75.84 237.32,-78.18"/>
</a>
</g>
<text text-anchor="middle" x="254" y="-88.5" font-family="Helvetica,sans-Serif" font-size="10.00" fill="grey"> kAuthzDisabled</text>
</g>
<!-- Node10 -->
<g id="Node000010" class="node">
<title>Node10</title>
<g id="a_Node000010"><a xlink:href="classcatena_1_1common_1_1ISubscriptionManager.html" target="_top" xlink:title="Interface for managing parameter subscriptions in Catena.">
<polygon fill="white" stroke="#666666" points="337.5,-30 170.5,-30 170.5,0 337.5,0 337.5,-30"/>
<text text-anchor="start" x="178.5" y="-18" font-family="Helvetica,sans-Serif" font-size="10.00">catena::common::ISubscription</text>
<text text-anchor="middle" x="254" y="-7" font-family="Helvetica,sans-Serif" font-size="10.00">Manager</text>
</a>
</g>
</g>
<!-- Node10&#45;&gt;Node7 -->
<g id="edge10_Node000007_Node000010" class="edge">
<title>Node10&#45;&gt;Node7</title>
<g id="a_edge10_Node000007_Node000010"><a xlink:title=" ">
<path fill="none" stroke="#9a32cd" stroke-dasharray="5,2" d="M347.66,-29.5C387.42,-37.4 433.86,-48.93 474,-65 502.72,-76.5 533.02,-96.47 549.82,-108.34"/>
<polygon fill="#9a32cd" stroke="#9a32cd" points="348.19,-26.03 337.71,-27.57 346.86,-32.91 348.19,-26.03"/>
</a>
</g>
<text text-anchor="middle" x="418.5" y="-68" font-family="Helvetica,sans-Serif" font-size="10.00" fill="grey"> subscriptionManager_</text>
</g>
</g>
</svg>

<g id="navigator" transform="translate(0 0)" fill="#404254">
  <rect fill="#f2f5e9" fill-opacity="0.5" stroke="#606060" stroke-width=".5" x="0" y="0" width="60" height="60"/>
  <use id="zoomplus" xlink:href="#zoomPlus" x="17" y="9" onmousedown="handleZoom(evt,'in')"/>
  <use id="zoomminus" xlink:href="#zoomMin" x="42" y="9" onmousedown="handleZoom(evt,'out')"/>
  <use id="reset" xlink:href="#resetDef" x="30" y="36" onmousedown="handleReset()"/>
   <use id="arrowup" xlink:href="#arrowUp" x="0" y="0" onmousedown="handlePan(0,-1)"/>
  <use id="arrowright" xlink:href="#arrowRight" x="0" y="0" onmousedown="handlePan(1,0)"/>
  <use id="arrowdown" xlink:href="#arrowDown" x="0" y="0" onmousedown="handlePan(0,1)"/>
  <use id="arrowleft" xlink:href="#arrowLeft" x="0" y="0" onmousedown="handlePan(-1,0)"/>
</g>
<svg viewBox="0 0 15 15" width="100%" height="30px" preserveAspectRatio="xMaxYMin meet">
 <g id="arrow_out" transform="scale(0.3 0.3)">
  <a xlink:href="classcatena_1_1gRPC_1_1Connect__coll__graph_org.svg" target="_base">
   <rect id="button" ry="5" rx="5" y="6" x="6" height="38" width="38"
        fill="#f2f5e9" fill-opacity="0.5" stroke="#606060" stroke-width="1.0"/>
   <path id="arrow"
     d="M 11.500037,31.436501 C 11.940474,20.09759 22.043105,11.32322 32.158766,21.979434 L 37.068811,17.246167 C 37.068811,17.246167 37.088388,32 37.088388,32 L 22.160133,31.978069 C 22.160133,31.978069 26.997745,27.140456 26.997745,27.140456 C 18.528582,18.264221 13.291696,25.230495 11.500037,31.436501 z"
     style="fill:#404040;"/>
  </a>
 </g>
</svg>

<style type='text/css'>
<![CDATA[
[data-mouse-over-selected='false'] { opacity: 0.7; }
[data-mouse-over-selected='true']  { opacity: 1.0; }
]]>
</style>
<script type="application/ecmascript"><![CDATA[
document.addEventListener('DOMContentLoaded', (event) => {
  highlightEdges();
  highlightAdjacentNodes();
});
]]></script>
</svg>
