<?xml version="1.0" encoding="UTF-8" standalone="no"?>
<!DOCTYPE svg PUBLIC "-//W3C//DTD SVG 1.1//EN"
 "http://www.w3.org/Graphics/SVG/1.1/DTD/svg11.dtd">
<!-- Generated by graphviz version 2.43.0 (0)
 -->
<!-- Title: catena::REST::Connect Pages: 1 -->
<svg width="625pt" height="179pt"
 viewBox="0.00 0.00 625.00 178.50" xmlns="http://www.w3.org/2000/svg" xmlns:xlink="http://www.w3.org/1999/xlink">
<g id="graph0" class="graph" transform="scale(1 1) rotate(0) translate(4 174.5)">
<title>catena::REST::Connect</title>
<!-- Node1 -->
<g id="Node000001" class="node">
<title>Node1</title>
<g id="a_Node000001"><a xlink:title="ICallData class for the Connect REST RPC.">
<polygon fill="#999999" stroke="#666666" points="617,-103.5 492,-103.5 492,-84.5 617,-84.5 617,-103.5"/>
<text text-anchor="middle" x="554.5" y="-91.5" font-family="Helvetica,sans-Serif" font-size="10.00">catena::REST::Connect</text>
</a>
</g>
</g>
<!-- Node2 -->
<g id="Node000002" class="node">
<title>Node2</title>
<g id="a_Node000002"><a xlink:href="classcatena_1_1REST_1_1ICallData.html" target="_top" xlink:title="Interface class for the REST API RPCs.">
<polygon fill="white" stroke="#666666" points="448.5,-122.5 317.5,-122.5 317.5,-103.5 448.5,-103.5 448.5,-122.5"/>
<text text-anchor="middle" x="383" y="-110.5" font-family="Helvetica,sans-Serif" font-size="10.00">catena::REST::ICallData</text>
</a>
</g>
</g>
<!-- Node2&#45;&gt;Node1 -->
<g id="edge1_Node000001_Node000002" class="edge">
<title>Node2&#45;&gt;Node1</title>
<g id="a_edge1_Node000001_Node000002"><a xlink:title=" ">
<path fill="none" stroke="#63b8ff" d="M458.67,-104.63C469.78,-103.38 481.11,-102.11 491.91,-100.9"/>
<polygon fill="#63b8ff" stroke="#63b8ff" points="458.11,-101.17 448.56,-105.76 458.89,-108.13 458.11,-101.17"/>
</a>
</g>
</g>
<!-- Node3 -->
<g id="Node000003" class="node">
<title>Node3</title>
<g id="a_Node000003"><a xlink:href="classcatena_1_1common_1_1Connect.html" target="_top" xlink:title="Pure virtual class for Connect RPCs. Contains functions for updating the response message with parame...">
<polygon fill="white" stroke="#666666" points="455,-85.5 311,-85.5 311,-66.5 455,-66.5 455,-85.5"/>
<text text-anchor="middle" x="383" y="-73.5" font-family="Helvetica,sans-Serif" font-size="10.00">catena::common::Connect</text>
</a>
</g>
</g>
<!-- Node3&#45;&gt;Node1 -->
<g id="edge2_Node000001_Node000003" class="edge">
<title>Node3&#45;&gt;Node1</title>
<g id="a_edge2_Node000001_Node000003"><a xlink:title=" ">
<path fill="none" stroke="#63b8ff" d="M465.4,-84.64C474.3,-85.59 483.25,-86.54 491.86,-87.45"/>
<polygon fill="#63b8ff" stroke="#63b8ff" points="465.71,-81.16 455.39,-83.58 464.97,-88.12 465.71,-81.16"/>
</a>
</g>
</g>
<!-- Node4 -->
<g id="Node000004" class="node">
<title>Node4</title>
<g id="a_Node000004"><a xlink:href="classcatena_1_1common_1_1IConnect.html" target="_top" xlink:title="Interface class for Connect RPCs.">
<polygon fill="white" stroke="#666666" points="155.5,-170.5 8.5,-170.5 8.5,-151.5 155.5,-151.5 155.5,-170.5"/>
<text text-anchor="middle" x="82" y="-158.5" font-family="Helvetica,sans-Serif" font-size="10.00">catena::common::IConnect</text>
</a>
</g>
</g>
<!-- Node4&#45;&gt;Node3 -->
<g id="edge3_Node000003_Node000004" class="edge">
<title>Node4&#45;&gt;Node3</title>
<g id="a_edge3_Node000003_Node000004"><a xlink:title=" ">
<path fill="none" stroke="#63b8ff" d="M138.82,-149.23C147.29,-147.26 155.89,-145.15 164,-143 222.01,-127.59 236.81,-124.11 293,-103 301.2,-99.92 302.75,-97.92 311,-95 320.86,-91.51 331.69,-88.31 341.86,-85.57"/>
<polygon fill="#63b8ff" stroke="#63b8ff" points="137.97,-145.83 128.99,-151.47 139.52,-152.66 137.97,-145.83"/>
</a>
</g>
</g>
<!-- Node5 -->
<g id="Node000005" class="node">
<title>Node5</title>
<g id="a_Node000005"><a xlink:href="classcatena_1_1common_1_1Authorizer.html" target="_top" xlink:title="Class for handling authorization information.">
<polygon fill="white" stroke="#666666" points="159.5,-104.5 4.5,-104.5 4.5,-85.5 159.5,-85.5 159.5,-104.5"/>
<text text-anchor="middle" x="82" y="-92.5" font-family="Helvetica,sans-Serif" font-size="10.00">catena::common::Authorizer</text>
</a>
</g>
</g>
<!-- Node5&#45;&gt;Node3 -->
<g id="edge4_Node000003_Node000005" class="edge">
<title>Node5&#45;&gt;Node3</title>
<g id="a_edge4_Node000003_Node000005"><a xlink:title=" ">
<path fill="none" stroke="#9a32cd" stroke-dasharray="5,2" d="M169.62,-89.5C214.49,-86.64 268.6,-83.21 310.97,-80.51"/>
<polygon fill="#9a32cd" stroke="#9a32cd" points="169.37,-86 159.61,-90.13 169.81,-92.99 169.37,-86"/>
</a>
</g>
<text text-anchor="middle" x="237.5" y="-91" font-family="Helvetica,sans-Serif" font-size="10.00" fill="grey"> authz_</text>
</g>
<!-- Node5&#45;&gt;Node5 -->
<g id="edge5_Node000005_Node000005" class="edge">
<title>Node5&#45;&gt;Node5</title>
<g id="a_edge5_Node000005_Node000005"><a xlink:title=" ">
<path fill="none" stroke="#9a32cd" stroke-dasharray="5,2" d="M53.25,-113.32C54.46,-118.51 64.04,-122.5 82,-122.5 109.37,-122.5 117.28,-113.23 105.74,-104.58"/>
<polygon fill="#9a32cd" stroke="#9a32cd" points="56.33,-115 58.26,-104.58 50.25,-111.52 56.33,-115"/>
</a>
</g>
<text text-anchor="middle" x="82" y="-125.5" font-family="Helvetica,sans-Serif" font-size="10.00" fill="grey"> kAuthzDisabled</text>
</g>
<!-- Node6 -->
<g id="Node000006" class="node">
<title>Node6</title>
<g id="a_Node000006"><a xlink:href="classcatena_1_1common_1_1IDevice.html" target="_top" xlink:title="Interface class for Device.">
<polygon fill="white" stroke="#666666" points="152.5,-67.5 11.5,-67.5 11.5,-48.5 152.5,-48.5 152.5,-67.5"/>
<text text-anchor="middle" x="82" y="-55.5" font-family="Helvetica,sans-Serif" font-size="10.00">catena::common::IDevice</text>
</a>
</g>
</g>
<!-- Node6&#45;&gt;Node3 -->
<g id="edge6_Node000003_Node000006" class="edge">
<title>Node6&#45;&gt;Node3</title>
<g id="a_edge6_Node000003_Node000006"><a xlink:title=" ">
<path fill="none" stroke="#9a32cd" stroke-dasharray="5,2" d="M162.72,-56.28C202.02,-56.16 250.08,-57.1 293,-61 306.26,-62.21 320.53,-64.26 333.67,-66.48"/>
<polygon fill="#9a32cd" stroke="#9a32cd" points="162.64,-52.78 152.66,-56.34 162.68,-59.78 162.64,-52.78"/>
</a>
</g>
<text text-anchor="middle" x="237.5" y="-64" font-family="Helvetica,sans-Serif" font-size="10.00" fill="grey"> dm_</text>
</g>
<!-- Node7 -->
<g id="Node000007" class="node">
<title>Node7</title>
<g id="a_Node000007"><a xlink:href="classcatena_1_1common_1_1SubscriptionManager.html" target="_top" xlink:title="Class for managing parameter subscriptions in Catena.">
<polygon fill="white" stroke="#666666" points="164,-30 0,-30 0,0 164,0 164,-30"/>
<text text-anchor="start" x="8" y="-18" font-family="Helvetica,sans-Serif" font-size="10.00">catena::common::Subscription</text>
<text text-anchor="middle" x="82" y="-7" font-family="Helvetica,sans-Serif" font-size="10.00">Manager</text>
</a>
</g>
</g>
<!-- Node7&#45;&gt;Node3 -->
<g id="edge7_Node000003_Node000007" class="edge">
<title>Node7&#45;&gt;Node3</title>
<g id="a_edge7_Node000003_Node000007"><a xlink:title=" ">
<path fill="none" stroke="#9a32cd" stroke-dasharray="5,2" d="M174.47,-21.29C211.64,-25.14 254.76,-31.28 293,-41 317.46,-47.22 344.25,-58.39 361.98,-66.44"/>
<polygon fill="#9a32cd" stroke="#9a32cd" points="174.45,-17.77 164.16,-20.26 173.76,-24.73 174.45,-17.77"/>
</a>
</g>
<text text-anchor="middle" x="237.5" y="-44" font-family="Helvetica,sans-Serif" font-size="10.00" fill="grey"> subscriptionManager_</text>
</g>
</g>
</svg>
