<?xml version="1.0" encoding="UTF-8" standalone="no"?>
<!DOCTYPE svg PUBLIC "-//W3C//DTD SVG 1.1//EN"
 "http://www.w3.org/Graphics/SVG/1.1/DTD/svg11.dtd">
<!-- Generated by graphviz version 2.43.0 (0)
 -->
<!-- Title: catena::REST::SetValue Pages: 1 -->
<svg width="871pt" height="144pt"
 viewBox="0.00 0.00 871.00 144.00" xmlns="http://www.w3.org/2000/svg" xmlns:xlink="http://www.w3.org/1999/xlink">
<g id="graph0" class="graph" transform="scale(1 1) rotate(0) translate(4 140)">
<title>catena::REST::SetValue</title>
<!-- Node1 -->
<g id="Node000001" class="node">
<title>Node1</title>
<g id="a_Node000001"><a xlink:title="ICallData class for the SetValue REST RPC.">
<polygon fill="#999999" stroke="#666666" points="863,-75 735,-75 735,-56 863,-56 863,-75"/>
<text text-anchor="middle" x="799" y="-63" font-family="Helvetica,sans-Serif" font-size="10.00">catena::REST::SetValue</text>
</a>
</g>
</g>
<!-- Node2 -->
<g id="Node000002" class="node">
<title>Node2</title>
<g id="a_Node000002"><a xlink:href="classcatena_1_1REST_1_1MultiSetValue.html" target="_top" xlink:title="Generic ICallData class for the SetValue and MultiSetValue REST RPCs.">
<polygon fill="white" stroke="#666666" points="698,-75 545,-75 545,-56 698,-56 698,-75"/>
<text text-anchor="middle" x="621.5" y="-63" font-family="Helvetica,sans-Serif" font-size="10.00">catena::REST::MultiSetValue</text>
</a>
</g>
</g>
<!-- Node2&#45;&gt;Node1 -->
<g id="edge1_Node000001_Node000002" class="edge">
<title>Node2&#45;&gt;Node1</title>
<g id="a_edge1_Node000001_Node000002"><a xlink:title=" ">
<path fill="none" stroke="#63b8ff" d="M708.3,-65.5C717.27,-65.5 726.27,-65.5 734.92,-65.5"/>
<polygon fill="#63b8ff" stroke="#63b8ff" points="708.2,-62 698.2,-65.5 708.2,-69 708.2,-62"/>
</a>
</g>
</g>
<!-- Node3 -->
<g id="Node000003" class="node">
<title>Node3</title>
<g id="a_Node000003"><a xlink:href="classcatena_1_1REST_1_1ICallData.html" target="_top" xlink:title="Interface class for the REST API RPCs.">
<polygon fill="white" stroke="#666666" points="452.5,-130 321.5,-130 321.5,-111 452.5,-111 452.5,-130"/>
<text text-anchor="middle" x="387" y="-118" font-family="Helvetica,sans-Serif" font-size="10.00">catena::REST::ICallData</text>
</a>
</g>
</g>
<!-- Node3&#45;&gt;Node2 -->
<g id="edge2_Node000002_Node000003" class="edge">
<title>Node3&#45;&gt;Node2</title>
<g id="a_edge2_Node000002_Node000003"><a xlink:title=" ">
<path fill="none" stroke="#63b8ff" d="M444.57,-108.94C469.86,-103.61 499.99,-97.02 527,-90.5 546.76,-85.73 568.73,-79.88 586.41,-75.04"/>
<polygon fill="#63b8ff" stroke="#63b8ff" points="443.85,-105.52 434.78,-111 445.29,-112.37 443.85,-105.52"/>
</a>
</g>
</g>
<!-- Node4 -->
<g id="Node000004" class="node">
<title>Node4</title>
<g id="a_Node000004"><a xlink:href="classcatena_1_1REST_1_1SocketReader.html" target="_top" xlink:title="Helper class used to read from a socket using boost.">
<polygon fill="white" stroke="#666666" points="463,-93 311,-93 311,-74 463,-74 463,-93"/>
<text text-anchor="middle" x="387" y="-81" font-family="Helvetica,sans-Serif" font-size="10.00">catena::REST::SocketReader</text>
</a>
</g>
</g>
<!-- Node4&#45;&gt;Node2 -->
<g id="edge3_Node000002_Node000004" class="edge">
<title>Node4&#45;&gt;Node2</title>
<g id="a_edge3_Node000002_Node000004"><a xlink:title=" ">
<path fill="none" stroke="#9a32cd" stroke-dasharray="5,2" d="M473.42,-76.89C496.81,-75.08 521.99,-73.13 544.8,-71.36"/>
<polygon fill="#9a32cd" stroke="#9a32cd" points="472.86,-73.42 463.17,-77.68 473.41,-80.4 472.86,-73.42"/>
</a>
</g>
<text text-anchor="middle" x="504" y="-78.5" font-family="Helvetica,sans-Serif" font-size="10.00" fill="grey"> context_</text>
</g>
<!-- Node5 -->
<g id="Node000005" class="node">
<title>Node5</title>
<g id="a_Node000005"><a xlink:href="classcatena_1_1REST_1_1ISocketReader.html" target="_top" xlink:title="Interface for the SocketReader class.">
<polygon fill="white" stroke="#666666" points="159.5,-136 4.5,-136 4.5,-117 159.5,-117 159.5,-136"/>
<text text-anchor="middle" x="82" y="-124" font-family="Helvetica,sans-Serif" font-size="10.00">catena::REST::ISocketReader</text>
</a>
</g>
</g>
<!-- Node5&#45;&gt;Node4 -->
<g id="edge4_Node000004_Node000005" class="edge">
<title>Node5&#45;&gt;Node4</title>
<g id="a_edge4_Node000004_Node000005"><a xlink:title=" ">
<path fill="none" stroke="#63b8ff" d="M168.44,-115.65C206.59,-110.66 252.08,-104.53 293,-98.5 304.49,-96.81 316.76,-94.9 328.49,-93.03"/>
<polygon fill="#63b8ff" stroke="#63b8ff" points="167.86,-112.19 158.4,-116.95 168.77,-119.13 167.86,-112.19"/>
</a>
</g>
</g>
<!-- Node6 -->
<g id="Node000006" class="node">
<title>Node6</title>
<g id="a_Node000006"><a xlink:href="classcatena_1_1common_1_1SubscriptionManager.html" target="_top" xlink:title="Class for managing parameter subscriptions in Catena.">
<polygon fill="white" stroke="#666666" points="164,-98.5 0,-98.5 0,-68.5 164,-68.5 164,-98.5"/>
<text text-anchor="start" x="8" y="-86.5" font-family="Helvetica,sans-Serif" font-size="10.00">catena::common::Subscription</text>
<text text-anchor="middle" x="82" y="-75.5" font-family="Helvetica,sans-Serif" font-size="10.00">Manager</text>
</a>
</g>
</g>
<!-- Node6&#45;&gt;Node4 -->
<g id="edge5_Node000004_Node000006" class="edge">
<title>Node6&#45;&gt;Node4</title>
<g id="a_edge5_Node000004_Node000006"><a xlink:title=" ">
<path fill="none" stroke="#9a32cd" stroke-dasharray="5,2" d="M174.24,-83.5C217.88,-83.5 269.48,-83.5 310.82,-83.5"/>
<polygon fill="#9a32cd" stroke="#9a32cd" points="174.2,-80 164.2,-83.5 174.2,-87 174.2,-80"/>
</a>
</g>
<text text-anchor="middle" x="237.5" y="-86.5" font-family="Helvetica,sans-Serif" font-size="10.00" fill="grey"> subscriptionManager_</text>
</g>
<!-- Node7 -->
<g id="Node000007" class="node">
<title>Node7</title>
<g id="a_Node000007"><a xlink:href="classcatena_1_1REST_1_1SocketWriter.html" target="_top" xlink:title="Helper class used to write a unary response to a socket using boost.">
<polygon fill="white" stroke="#666666" points="461,-56 313,-56 313,-37 461,-37 461,-56"/>
<text text-anchor="middle" x="387" y="-44" font-family="Helvetica,sans-Serif" font-size="10.00">catena::REST::SocketWriter</text>
</a>
</g>
</g>
<!-- Node7&#45;&gt;Node2 -->
<g id="edge6_Node000002_Node000007" class="edge">
<title>Node7&#45;&gt;Node2</title>
<g id="a_edge6_Node000002_Node000007"><a xlink:title=" ">
<path fill="none" stroke="#9a32cd" stroke-dasharray="5,2" d="M471.31,-53.01C489.65,-54.46 508.98,-56.02 527,-57.5 532.85,-57.98 538.9,-58.49 544.98,-59"/>
<polygon fill="#9a32cd" stroke="#9a32cd" points="471.47,-49.51 461.23,-52.21 470.92,-56.49 471.47,-49.51"/>
</a>
</g>
<text text-anchor="middle" x="504" y="-60.5" font-family="Helvetica,sans-Serif" font-size="10.00" fill="grey"> writer_</text>
</g>
<!-- Node8 -->
<g id="Node000008" class="node">
<title>Node8</title>
<g id="a_Node000008"><a xlink:href="classcatena_1_1REST_1_1ISocketWriter.html" target="_top" xlink:title="Interface for the SocketWriter classes.">
<polygon fill="white" stroke="#666666" points="157.5,-50 6.5,-50 6.5,-31 157.5,-31 157.5,-50"/>
<text text-anchor="middle" x="82" y="-38" font-family="Helvetica,sans-Serif" font-size="10.00">catena::REST::ISocketWriter</text>
</a>
</g>
</g>
<!-- Node8&#45;&gt;Node7 -->
<g id="edge7_Node000007_Node000008" class="edge">
<title>Node8&#45;&gt;Node7</title>
<g id="a_edge7_Node000007_Node000008"><a xlink:title=" ">
<path fill="none" stroke="#63b8ff" d="M167.68,-42.18C213.32,-43.08 269.08,-44.18 312.83,-45.05"/>
<polygon fill="#63b8ff" stroke="#63b8ff" points="167.58,-38.67 157.51,-41.98 167.44,-45.67 167.58,-38.67"/>
</a>
</g>
</g>
<!-- Node9 -->
<g id="Node000009" class="node">
<title>Node9</title>
<g id="a_Node000009"><a xlink:href="classcatena_1_1common_1_1Device.html" target="_top" xlink:title="Implements the Device interface defined in the protobuf.">
<polygon fill="white" stroke="#666666" points="456,-19 318,-19 318,0 456,0 456,-19"/>
<text text-anchor="middle" x="387" y="-7" font-family="Helvetica,sans-Serif" font-size="10.00">catena::common::Device</text>
</a>
</g>
</g>
<!-- Node9&#45;&gt;Node2 -->
<g id="edge8_Node000002_Node000009" class="edge">
<title>Node9&#45;&gt;Node2</title>
<g id="a_edge8_Node000002_Node000009"><a xlink:title=" ">
<path fill="none" stroke="#9a32cd" stroke-dasharray="5,2" d="M448.28,-21.04C472.8,-26.01 501.35,-32.13 527,-38.5 547.99,-43.71 571.36,-50.46 589.49,-55.91"/>
<polygon fill="#9a32cd" stroke="#9a32cd" points="448.88,-17.6 438.39,-19.06 447.51,-24.46 448.88,-17.6"/>
</a>
</g>
<text text-anchor="middle" x="504" y="-41.5" font-family="Helvetica,sans-Serif" font-size="10.00" fill="grey"> dm_</text>
</g>
</g>
</svg>
