<?xml version="1.0" encoding="UTF-8" standalone="no"?>
<!DOCTYPE svg PUBLIC "-//W3C//DTD SVG 1.1//EN"
 "http://www.w3.org/Graphics/SVG/1.1/DTD/svg11.dtd">
<!-- Generated by graphviz version 2.43.0 (0)
 -->
<!-- Title: CatenaServiceImpl::ExecuteCommand Pages: 1 -->
<svg width="123pt" height="171pt"
 viewBox="0.00 0.00 123.00 171.00" xmlns="http://www.w3.org/2000/svg" xmlns:xlink="http://www.w3.org/1999/xlink">
<g id="graph0" class="graph" transform="scale(1 1) rotate(0) translate(4 167)">
<title>CatenaServiceImpl::ExecuteCommand</title>
<!-- Node1 -->
<g id="Node000001" class="node">
<title>Node1</title>
<g id="a_Node000001"><a xlink:title="CallData class for the ExecuteCommand RPC.">
<polygon fill="#999999" stroke="#666666" points="115,-30 0,-30 0,0 115,0 115,-30"/>
<text text-anchor="start" x="8" y="-18" font-family="Helvetica,sans-Serif" font-size="10.00">CatenaServiceImpl::</text>
<text text-anchor="middle" x="57.5" y="-7" font-family="Helvetica,sans-Serif" font-size="10.00">ExecuteCommand</text>
</a>
</g>
</g>
<!-- Node2 -->
<g id="Node000002" class="node">
<title>Node2</title>
<g id="a_Node000002"><a xlink:href="classCatenaServiceImpl_1_1CallData.html" target="_top" xlink:title="Abstract base class for the CallData classes. Provides the proceed method.">
<polygon fill="white" stroke="#666666" points="115,-97 0,-97 0,-67 115,-67 115,-97"/>
<text text-anchor="start" x="8" y="-85" font-family="Helvetica,sans-Serif" font-size="10.00">CatenaServiceImpl::</text>
<text text-anchor="middle" x="57.5" y="-74" font-family="Helvetica,sans-Serif" font-size="10.00">CallData</text>
</a>
</g>
</g>
<!-- Node2&#45;&gt;Node1 -->
<g id="edge1_Node000001_Node000002" class="edge">
<title>Node2&#45;&gt;Node1</title>
<g id="a_edge1_Node000001_Node000002"><a xlink:title=" ">
<path fill="none" stroke="#63b8ff" d="M57.5,-56.61C57.5,-47.65 57.5,-37.82 57.5,-30.08"/>
<polygon fill="#63b8ff" stroke="#63b8ff" points="54,-56.9 57.5,-66.9 61,-56.9 54,-56.9"/>
</a>
</g>
</g>
<!-- Node3 -->
<g id="Node000003" class="node">
<title>Node3</title>
<g id="a_Node000003"><a xlink:title=" ">
<polygon fill="white" stroke="#bfbfbf" points="100.5,-163 14.5,-163 14.5,-144 100.5,-144 100.5,-163"/>
<text text-anchor="middle" x="57.5" y="-151" font-family="Helvetica,sans-Serif" font-size="10.00">ServerContext</text>
</a>
</g>
</g>
<!-- Node3&#45;&gt;Node2 -->
<g id="edge2_Node000002_Node000003" class="edge">
<title>Node3&#45;&gt;Node2</title>
<g id="a_edge2_Node000002_Node000003"><a xlink:title=" ">
<path fill="none" stroke="#9a32cd" stroke-dasharray="5,2" d="M57.5,-133.71C57.5,-122.19 57.5,-107.68 57.5,-97.14"/>
<polygon fill="#9a32cd" stroke="#9a32cd" points="54,-133.98 57.5,-143.98 61,-133.98 54,-133.98"/>
</a>
</g>
<text text-anchor="middle" x="80.5" y="-118" font-family="Helvetica,sans-Serif" font-size="10.00" fill="grey"> context_</text>
</g>
</g>
</svg>
