<?xml version="1.0" encoding="UTF-8" standalone="no"?>
<!DOCTYPE svg PUBLIC "-//W3C//DTD SVG 1.1//EN"
 "http://www.w3.org/Graphics/SVG/1.1/DTD/svg11.dtd">
<!-- Generated by graphviz version 2.43.0 (0)
 -->
<!-- Title: catena::gRPC::BasicParamInfoRequest Pages: 1 -->
<svg width="152pt" height="148pt"
 viewBox="0.00 0.00 152.00 148.00" xmlns="http://www.w3.org/2000/svg" xmlns:xlink="http://www.w3.org/1999/xlink">
<g id="graph0" class="graph" transform="scale(1 1) rotate(0) translate(4 144)">
<title>catena::gRPC::BasicParamInfoRequest</title>
<!-- Node1 -->
<g id="Node000001" class="node">
<title>Node1</title>
<g id="a_Node000001"><a xlink:title="CallData class for the BasicParamInfoRequest RPC.">
<polygon fill="#999999" stroke="#666666" points="144,-30 0,-30 0,0 144,0 144,-30"/>
<text text-anchor="start" x="8" y="-18" font-family="Helvetica,sans-Serif" font-size="10.00">catena::gRPC::BasicParam</text>
<text text-anchor="middle" x="72" y="-7" font-family="Helvetica,sans-Serif" font-size="10.00">InfoRequest</text>
</a>
</g>
</g>
<!-- Node2 -->
<g id="Node000002" class="node">
<title>Node2</title>
<g id="a_Node000002"><a xlink:href="classcatena_1_1gRPC_1_1CallData.html" target="_top" xlink:title="Abstract base class for the CallData classes which defines the jwsToken_ class.">
<polygon fill="white" stroke="#666666" points="136.5,-85 7.5,-85 7.5,-66 136.5,-66 136.5,-85"/>
<text text-anchor="middle" x="72" y="-73" font-family="Helvetica,sans-Serif" font-size="10.00">catena::gRPC::CallData</text>
</a>
</g>
</g>
<!-- Node2&#45;&gt;Node1 -->
<g id="edge1_Node000001_Node000002" class="edge">
<title>Node2&#45;&gt;Node1</title>
<g id="a_edge1_Node000001_Node000002"><a xlink:title=" ">
<path fill="none" stroke="#63b8ff" d="M72,-55.65C72,-47.36 72,-37.78 72,-30.11"/>
<polygon fill="#63b8ff" stroke="#63b8ff" points="68.5,-55.87 72,-65.87 75.5,-55.87 68.5,-55.87"/>
</a>
</g>
</g>
<!-- Node3 -->
<g id="Node000003" class="node">
<title>Node3</title>
<g id="a_Node000003"><a xlink:href="classcatena_1_1gRPC_1_1ICallData.html" target="_top" xlink:title="Interface class for gRPC CallData classes.">
<polygon fill="white" stroke="#666666" points="138,-140 6,-140 6,-121 138,-121 138,-140"/>
<text text-anchor="middle" x="72" y="-128" font-family="Helvetica,sans-Serif" font-size="10.00">catena::gRPC::ICallData</text>
</a>
</g>
</g>
<!-- Node3&#45;&gt;Node2 -->
<g id="edge2_Node000002_Node000003" class="edge">
<title>Node3&#45;&gt;Node2</title>
<g id="a_edge2_Node000002_Node000003"><a xlink:title=" ">
<path fill="none" stroke="#63b8ff" d="M72,-110.66C72,-101.93 72,-91.99 72,-85.09"/>
<polygon fill="#63b8ff" stroke="#63b8ff" points="68.5,-110.75 72,-120.75 75.5,-110.75 68.5,-110.75"/>
</a>
</g>
</g>
</g>
</svg>
