<?xml version="1.0" encoding="UTF-8" standalone="no"?>
<!DOCTYPE svg PUBLIC "-//W3C//DTD SVG 1.1//EN"
 "http://www.w3.org/Graphics/SVG/1.1/DTD/svg11.dtd">
<!-- Generated by graphviz version 2.43.0 (0)
 -->
<!-- Title: /home/runner/work/Catena/Catena/sdks/cpp/common/include/rpc/Connect.h Pages: 1 -->
<svg width="406pt" height="203pt"
 viewBox="0.00 0.00 405.50 203.00" xmlns="http://www.w3.org/2000/svg" xmlns:xlink="http://www.w3.org/1999/xlink">
<g id="graph0" class="graph" transform="scale(1 1) rotate(0) translate(4 199)">
<title>/home/runner/work/Catena/Catena/sdks/cpp/common/include/rpc/Connect.h</title>
<!-- Node1 -->
<g id="Node000001" class="node">
<title>Node1</title>
<g id="a_Node000001"><a xlink:title="Pure virtual class for Connect RPCs used to share update code.">
<polygon fill="#999999" stroke="#666666" points="271.5,-195 125.5,-195 125.5,-154 271.5,-154 271.5,-195"/>
<text text-anchor="start" x="133.5" y="-183" font-family="Helvetica,sans-Serif" font-size="10.00">/home/runner/work/Catena</text>
<text text-anchor="start" x="133.5" y="-172" font-family="Helvetica,sans-Serif" font-size="10.00">/Catena/sdks/cpp/common</text>
<text text-anchor="middle" x="198.5" y="-161" font-family="Helvetica,sans-Serif" font-size="10.00">/include/rpc/Connect.h</text>
</a>
</g>
</g>
<!-- Node2 -->
<g id="Node000002" class="node">
<title>Node2</title>
<g id="a_Node000002"><a xlink:href="connections_2REST_2include_2controllers_2Connect_8h.html" target="_top" xlink:title="Implements REST Connect controller.">
<polygon fill="white" stroke="#666666" points="189,-118 0,-118 0,-77 189,-77 189,-118"/>
<text text-anchor="start" x="8" y="-106" font-family="Helvetica,sans-Serif" font-size="10.00">/home/runner/work/Catena</text>
<text text-anchor="start" x="8" y="-95" font-family="Helvetica,sans-Serif" font-size="10.00">/Catena/sdks/cpp/connections</text>
<text text-anchor="middle" x="94.5" y="-84" font-family="Helvetica,sans-Serif" font-size="10.00">/REST/include/controllers/Connect.h</text>
</a>
</g>
</g>
<!-- Node1&#45;&gt;Node2 -->
<g id="edge1_Node000001_Node000002" class="edge">
<title>Node1&#45;&gt;Node2</title>
<g id="a_edge1_Node000001_Node000002"><a xlink:title=" ">
<path fill="none" stroke="#63b8ff" d="M163.27,-148.09C149.72,-138.32 134.47,-127.32 121.78,-118.17"/>
<polygon fill="#63b8ff" stroke="#63b8ff" points="161.29,-150.98 171.45,-153.99 165.38,-145.3 161.29,-150.98"/>
</a>
</g>
</g>
<!-- Node3 -->
<g id="Node000003" class="node">
<title>Node3</title>
<g id="a_Node000003"><a xlink:href="connections_2gRPC_2include_2controllers_2Connect_8h.html" target="_top" xlink:title="Implements Catena gRPC Connect.">
<polygon fill="white" stroke="#666666" points="397.5,-118 207.5,-118 207.5,-77 397.5,-77 397.5,-118"/>
<text text-anchor="start" x="215.5" y="-106" font-family="Helvetica,sans-Serif" font-size="10.00">/home/runner/work/Catena</text>
<text text-anchor="start" x="215.5" y="-95" font-family="Helvetica,sans-Serif" font-size="10.00">/Catena/sdks/cpp/connections</text>
<text text-anchor="middle" x="302.5" y="-84" font-family="Helvetica,sans-Serif" font-size="10.00">/gRPC/include/controllers/Connect.h</text>
</a>
</g>
</g>
<!-- Node1&#45;&gt;Node3 -->
<g id="edge2_Node000001_Node000003" class="edge">
<title>Node1&#45;&gt;Node3</title>
<g id="a_edge2_Node000001_Node000003"><a xlink:title=" ">
<path fill="none" stroke="#63b8ff" d="M233.73,-148.09C247.28,-138.32 262.53,-127.32 275.22,-118.17"/>
<polygon fill="#63b8ff" stroke="#63b8ff" points="231.62,-145.3 225.55,-153.99 235.71,-150.98 231.62,-145.3"/>
</a>
</g>
</g>
<!-- Node4 -->
<g id="Node000004" class="node">
<title>Node4</title>
<g id="a_Node000004"><a xlink:href="gRPC_2include_2ServiceImpl_8h.html" target="_top" xlink:title="Implements Catena gRPC request handlers.">
<polygon fill="white" stroke="#666666" points="383,-41 222,-41 222,0 383,0 383,-41"/>
<text text-anchor="start" x="230" y="-29" font-family="Helvetica,sans-Serif" font-size="10.00">/home/runner/work/Catena</text>
<text text-anchor="start" x="230" y="-18" font-family="Helvetica,sans-Serif" font-size="10.00">/Catena/sdks/cpp/connections</text>
<text text-anchor="middle" x="302.5" y="-7" font-family="Helvetica,sans-Serif" font-size="10.00">/gRPC/include/ServiceImpl.h</text>
</a>
</g>
</g>
<!-- Node3&#45;&gt;Node4 -->
<g id="edge3_Node000003_Node000004" class="edge">
<title>Node3&#45;&gt;Node4</title>
<g id="a_edge3_Node000003_Node000004"><a xlink:title=" ">
<path fill="none" stroke="#63b8ff" d="M302.5,-66.69C302.5,-58.08 302.5,-48.9 302.5,-41.07"/>
<polygon fill="#63b8ff" stroke="#63b8ff" points="299,-66.79 302.5,-76.79 306,-66.79 299,-66.79"/>
</a>
</g>
</g>
</g>
</svg>
