<?xml version="1.0" encoding="UTF-8" standalone="no"?>
<!DOCTYPE svg PUBLIC "-//W3C//DTD SVG 1.1//EN"
 "http://www.w3.org/Graphics/SVG/1.1/DTD/svg11.dtd">
<!-- Generated by graphviz version 2.43.0 (0)
 -->
<!-- Title: /home/runner/work/Catena/Catena/sdks/cpp/common/include/LanguagePack.h Pages: 1 -->
<svg width="1595pt" height="434pt"
 viewBox="0.00 0.00 1594.50 434.00" xmlns="http://www.w3.org/2000/svg" xmlns:xlink="http://www.w3.org/1999/xlink">
<g id="graph0" class="graph" transform="scale(1 1) rotate(0) translate(4 430)">
<title>/home/runner/work/Catena/Catena/sdks/cpp/common/include/LanguagePack.h</title>
<!-- Node1 -->
<g id="Node000001" class="node">
<title>Node1</title>
<g id="a_Node000001"><a xlink:title="multi language support in 2 classes: LanguagePack and LanguagePacks">
<polygon fill="#999999" stroke="#666666" points="303,-426 157,-426 157,-385 303,-385 303,-426"/>
<text text-anchor="start" x="165" y="-414" font-family="Helvetica,sans-Serif" font-size="10.00">/home/runner/work/Catena</text>
<text text-anchor="start" x="165" y="-403" font-family="Helvetica,sans-Serif" font-size="10.00">/Catena/sdks/cpp/common</text>
<text text-anchor="middle" x="230" y="-392" font-family="Helvetica,sans-Serif" font-size="10.00">/include/LanguagePack.h</text>
</a>
</g>
</g>
<!-- Node2 -->
<g id="Node000002" class="node">
<title>Node2</title>
<g id="a_Node000002"><a xlink:href="ILanguagePack_8h.html" target="_top" xlink:title="Interface for language packs.">
<polygon fill="white" stroke="#666666" points="202,-239 104,-239 104,-220 202,-220 202,-239"/>
<text text-anchor="middle" x="153" y="-227" font-family="Helvetica,sans-Serif" font-size="10.00">ILanguagePack.h</text>
</a>
</g>
</g>
<!-- Node1&#45;&gt;Node2 -->
<g id="edge1_Node000001_Node000002" class="edge">
<title>Node1&#45;&gt;Node2</title>
<g id="a_edge1_Node000001_Node000002"><a xlink:title=" ">
<path fill="none" stroke="#63b8ff" d="M221.32,-384.88C206.27,-350.87 175.56,-281.49 161,-248.58"/>
<polygon fill="#63b8ff" stroke="#63b8ff" points="164.13,-247 156.88,-239.27 157.73,-249.84 164.13,-247"/>
</a>
</g>
</g>
<!-- Node3 -->
<g id="Node000003" class="node">
<title>Node3</title>
<g id="a_Node000003"><a xlink:title=" ">
<polygon fill="#e0e0e0" stroke="#999999" points="905,-19 861,-19 861,0 905,0 905,-19"/>
<text text-anchor="middle" x="883" y="-7" font-family="Helvetica,sans-Serif" font-size="10.00">string</text>
</a>
</g>
</g>
<!-- Node1&#45;&gt;Node3 -->
<g id="edge57_Node000001_Node000003" class="edge">
<title>Node1&#45;&gt;Node3</title>
<g id="a_edge57_Node000001_Node000003"><a xlink:title=" ">
<path fill="none" stroke="#63b8ff" d="M169.58,-384.98C126.43,-366.82 76,-335 76,-285.5 76,-285.5 76,-285.5 76,-118.5 76,-41.58 161.97,-71.95 237,-55 355.97,-28.12 737.41,-14.83 850.87,-11.41"/>
<polygon fill="#63b8ff" stroke="#63b8ff" points="851.11,-14.91 861,-11.11 850.9,-7.91 851.11,-14.91"/>
</a>
</g>
</g>
<!-- Node4 -->
<g id="Node000004" class="node">
<title>Node4</title>
<g id="a_Node000004"><a xlink:title=" ">
<polygon fill="#e0e0e0" stroke="#999999" points="464.5,-19 371.5,-19 371.5,0 464.5,0 464.5,-19"/>
<text text-anchor="middle" x="418" y="-7" font-family="Helvetica,sans-Serif" font-size="10.00">unordered_map</text>
</a>
</g>
</g>
<!-- Node1&#45;&gt;Node4 -->
<g id="edge58_Node000001_Node000004" class="edge">
<title>Node1&#45;&gt;Node4</title>
<g id="a_edge58_Node000001_Node000004"><a xlink:title=" ">
<path fill="none" stroke="#63b8ff" d="M156.91,-397.14C89.56,-385.85 0,-357.32 0,-285.5 0,-285.5 0,-285.5 0,-118.5 0,-83.65 15.96,-72.66 46,-55 98.1,-24.37 270.59,-14.76 361.23,-11.79"/>
<polygon fill="#63b8ff" stroke="#63b8ff" points="361.45,-15.29 371.33,-11.48 361.23,-8.29 361.45,-15.29"/>
</a>
</g>
</g>
<!-- Node5 -->
<g id="Node000005" class="node">
<title>Node5</title>
<g id="a_Node000005"><a xlink:href="IDevice_8h.html" target="_top" xlink:title="Interface for device.">
<polygon fill="white" stroke="#666666" points="662,-349 600,-349 600,-330 662,-330 662,-349"/>
<text text-anchor="middle" x="631" y="-337" font-family="Helvetica,sans-Serif" font-size="10.00">IDevice.h</text>
</a>
</g>
</g>
<!-- Node1&#45;&gt;Node5 -->
<g id="edge4_Node000001_Node000005" class="edge">
<title>Node1&#45;&gt;Node5</title>
<g id="a_edge4_Node000001_Node000005"><a xlink:title=" ">
<path fill="none" stroke="#63b8ff" d="M303.08,-392.84C387.14,-379.42 522.21,-357.86 589.76,-347.08"/>
<polygon fill="#63b8ff" stroke="#63b8ff" points="590.67,-350.48 600,-345.45 589.57,-343.57 590.67,-350.48"/>
</a>
</g>
</g>
<!-- Node22 -->
<g id="Node000022" class="node">
<title>Node22</title>
<g id="a_Node000022"><a xlink:title=" ">
<polygon fill="#e0e0e0" stroke="#999999" points="1472,-19 1340,-19 1340,0 1472,0 1472,-19"/>
<text text-anchor="middle" x="1406" y="-7" font-family="Helvetica,sans-Serif" font-size="10.00">interface/language.pb.h</text>
</a>
</g>
</g>
<!-- Node1&#45;&gt;Node22 -->
<g id="edge56_Node000001_Node000022" class="edge">
<title>Node1&#45;&gt;Node22</title>
<g id="a_edge56_Node000001_Node000022"><a xlink:title=" ">
<path fill="none" stroke="#63b8ff" d="M303.12,-401.58C575.14,-390.24 1513,-346.7 1513,-285.5 1513,-285.5 1513,-285.5 1513,-118.5 1513,-73.77 1466.11,-40.93 1434.41,-23.84"/>
<polygon fill="#63b8ff" stroke="#63b8ff" points="1435.62,-20.53 1425.13,-19.05 1432.41,-26.75 1435.62,-20.53"/>
</a>
</g>
</g>
<!-- Node23 -->
<g id="Node000023" class="node">
<title>Node23</title>
<g id="a_Node000023"><a xlink:title=" ">
<polygon fill="#e0e0e0" stroke="#999999" points="1586.5,-19 1503.5,-19 1503.5,0 1586.5,0 1586.5,-19"/>
<text text-anchor="middle" x="1545" y="-7" font-family="Helvetica,sans-Serif" font-size="10.00">initializer_list</text>
</a>
</g>
</g>
<!-- Node1&#45;&gt;Node23 -->
<g id="edge59_Node000001_Node000023" class="edge">
<title>Node1&#45;&gt;Node23</title>
<g id="a_edge59_Node000001_Node000023"><a xlink:title=" ">
<path fill="none" stroke="#63b8ff" d="M303.21,-404.84C474.64,-404.72 915.18,-399.1 1279,-349 1401.98,-332.07 1551,-409.64 1551,-285.5 1551,-285.5 1551,-285.5 1551,-118.5 1551,-87.14 1548.45,-50.74 1546.67,-29.22"/>
<polygon fill="#63b8ff" stroke="#63b8ff" points="1550.15,-28.83 1545.81,-19.17 1543.18,-29.43 1550.15,-28.83"/>
</a>
</g>
</g>
<!-- Node26 -->
<g id="Node000026" class="node">
<title>Node26</title>
<g id="a_Node000026"><a xlink:title=" ">
<polygon fill="#e0e0e0" stroke="#999999" points="189.5,-129 142.5,-129 142.5,-110 189.5,-110 189.5,-129"/>
<text text-anchor="middle" x="166" y="-117" font-family="Helvetica,sans-Serif" font-size="10.00">vector</text>
</a>
</g>
</g>
<!-- Node1&#45;&gt;Node26 -->
<g id="edge60_Node000001_Node000026" class="edge">
<title>Node1&#45;&gt;Node26</title>
<g id="a_edge60_Node000001_Node000026"><a xlink:title=" ">
<path fill="none" stroke="#63b8ff" d="M230,-384.71C230,-361.09 230,-320.41 230,-285.5 230,-285.5 230,-285.5 230,-228.5 230,-191.53 201.9,-156.14 182.94,-136.46"/>
<polygon fill="#63b8ff" stroke="#63b8ff" points="185.27,-133.84 175.72,-129.26 180.33,-138.8 185.27,-133.84"/>
</a>
</g>
</g>
<!-- Node2&#45;&gt;Node3 -->
<g id="edge2_Node000002_Node000003" class="edge">
<title>Node2&#45;&gt;Node3</title>
<g id="a_edge2_Node000002_Node000003"><a xlink:title=" ">
<path fill="none" stroke="#63b8ff" d="M147.39,-219.78C134.32,-198.26 104.98,-142.03 133,-110 181.15,-54.96 713.19,-20.38 850.71,-12.32"/>
<polygon fill="#63b8ff" stroke="#63b8ff" points="851.22,-15.79 861,-11.72 850.81,-8.81 851.22,-15.79"/>
</a>
</g>
</g>
<!-- Node2&#45;&gt;Node4 -->
<g id="edge3_Node000002_Node000004" class="edge">
<title>Node2&#45;&gt;Node4</title>
<g id="a_edge3_Node000002_Node000004"><a xlink:title=" ">
<path fill="none" stroke="#63b8ff" d="M138.99,-219.88C127.09,-211.91 110.35,-199.05 100,-184 66.13,-134.75 22.44,-99.81 62,-55 81.46,-32.95 265.98,-19.22 361.41,-13.53"/>
<polygon fill="#63b8ff" stroke="#63b8ff" points="361.7,-17.02 371.48,-12.94 361.29,-10.03 361.7,-17.02"/>
</a>
</g>
</g>
<!-- Node5&#45;&gt;Node2 -->
<g id="edge48_Node000005_Node000002" class="edge">
<title>Node5&#45;&gt;Node2</title>
<g id="a_edge48_Node000005_Node000002"><a xlink:title=" ">
<path fill="none" stroke="#63b8ff" d="M599.57,-336.51C542.22,-332.36 417.08,-320.8 315,-294 266.22,-281.2 212.18,-258.09 180.47,-243.56"/>
<polygon fill="#63b8ff" stroke="#63b8ff" points="181.54,-240.2 171,-239.17 178.6,-246.55 181.54,-240.2"/>
</a>
</g>
</g>
<!-- Node5&#45;&gt;Node3 -->
<g id="edge52_Node000005_Node000003" class="edge">
<title>Node5&#45;&gt;Node3</title>
<g id="a_edge52_Node000005_Node000003"><a xlink:title=" ">
<path fill="none" stroke="#63b8ff" d="M662.04,-337.86C814.31,-334.32 1475,-314.15 1475,-230.5 1475,-230.5 1475,-230.5 1475,-118.5 1475,-88.77 1477.4,-73.33 1454,-55 1411.49,-21.69 1029.94,-12.87 915.38,-10.96"/>
<polygon fill="#63b8ff" stroke="#63b8ff" points="915.2,-7.46 905.15,-10.8 915.09,-14.46 915.2,-7.46"/>
</a>
</g>
</g>
<!-- Node6 -->
<g id="Node000006" class="node">
<title>Node6</title>
<g id="a_Node000006"><a xlink:href="Authorizer_8h.html" target="_top" xlink:title="Class for handling authorization information.">
<polygon fill="white" stroke="#666666" points="988.5,-294 913.5,-294 913.5,-275 988.5,-275 988.5,-294"/>
<text text-anchor="middle" x="951" y="-282" font-family="Helvetica,sans-Serif" font-size="10.00">Authorizer.h</text>
</a>
</g>
</g>
<!-- Node5&#45;&gt;Node6 -->
<g id="edge5_Node000005_Node000006" class="edge">
<title>Node5&#45;&gt;Node6</title>
<g id="a_edge5_Node000005_Node000006"><a xlink:title=" ">
<path fill="none" stroke="#63b8ff" d="M662.27,-333.32C718.47,-324.01 836.89,-304.4 903.28,-293.4"/>
<polygon fill="#63b8ff" stroke="#63b8ff" points="904.18,-296.8 913.48,-291.71 903.04,-289.9 904.18,-296.8"/>
</a>
</g>
</g>
<!-- Node12 -->
<g id="Node000012" class="node">
<title>Node12</title>
<g id="a_Node000012"><a xlink:title=" ">
<polygon fill="#e0e0e0" stroke="#999999" points="1446.5,-129 1327.5,-129 1327.5,-110 1446.5,-110 1446.5,-129"/>
<text text-anchor="middle" x="1387" y="-117" font-family="Helvetica,sans-Serif" font-size="10.00">interface/device.pb.h</text>
</a>
</g>
</g>
<!-- Node5&#45;&gt;Node12 -->
<g id="edge51_Node000005_Node000012" class="edge">
<title>Node5&#45;&gt;Node12</title>
<g id="a_edge51_Node000005_Node000012"><a xlink:title=" ">
<path fill="none" stroke="#63b8ff" d="M662.37,-337.49C726.3,-334.81 875.87,-325.44 997,-294 1059.71,-277.72 1072.61,-264.88 1132,-239 1215.98,-202.41 1313.86,-155.79 1360.13,-133.5"/>
<polygon fill="#63b8ff" stroke="#63b8ff" points="1361.72,-136.63 1369.2,-129.13 1358.68,-130.32 1361.72,-136.63"/>
</a>
</g>
</g>
<!-- Node13 -->
<g id="Node000013" class="node">
<title>Node13</title>
<g id="a_Node000013"><a xlink:href="IParam_8h.html" target="_top" xlink:title="Interface for parameters.">
<polygon fill="white" stroke="#666666" points="810.5,-239 751.5,-239 751.5,-220 810.5,-220 810.5,-239"/>
<text text-anchor="middle" x="781" y="-227" font-family="Helvetica,sans-Serif" font-size="10.00">IParam.h</text>
</a>
</g>
</g>
<!-- Node5&#45;&gt;Node13 -->
<g id="edge46_Node000005_Node000013" class="edge">
<title>Node5&#45;&gt;Node13</title>
<g id="a_edge46_Node000005_Node000013"><a xlink:title=" ">
<path fill="none" stroke="#63b8ff" d="M644.29,-329.84C657.72,-321.02 679.01,-306.85 697,-294 719.68,-277.8 745.13,-258.38 762.01,-245.32"/>
<polygon fill="#63b8ff" stroke="#63b8ff" points="764.25,-248.01 770,-239.12 759.95,-242.48 764.25,-248.01"/>
</a>
</g>
</g>
<!-- Node17 -->
<g id="Node000017" class="node">
<title>Node17</title>
<g id="a_Node000017"><a xlink:href="IParamDescriptor_8h.html" target="_top" xlink:title="Interface class for ParamDescriptor.">
<polygon fill="white" stroke="#666666" points="961.5,-184 852.5,-184 852.5,-165 961.5,-165 961.5,-184"/>
<text text-anchor="middle" x="907" y="-172" font-family="Helvetica,sans-Serif" font-size="10.00">IParamDescriptor.h</text>
</a>
</g>
</g>
<!-- Node5&#45;&gt;Node17 -->
<g id="edge47_Node000005_Node000017" class="edge">
<title>Node5&#45;&gt;Node17</title>
<g id="a_edge47_Node000005_Node000017"><a xlink:title=" ">
<path fill="none" stroke="#63b8ff" d="M650.1,-329.9C669.05,-321.23 698.83,-307.28 724,-294 767.15,-271.23 778.06,-265.53 819,-239 843.24,-223.3 870,-203.63 887.57,-190.38"/>
<polygon fill="#63b8ff" stroke="#63b8ff" points="890.01,-192.92 895.86,-184.09 885.78,-187.35 890.01,-192.92"/>
</a>
</g>
</g>
<!-- Node24 -->
<g id="Node000024" class="node">
<title>Node24</title>
<g id="a_Node000024"><a xlink:href="Path_8h.html" target="_top" xlink:title="Handles Path objects used to uniquely identify and access OIDs.">
<polygon fill="white" stroke="#666666" points="411.5,-184 364.5,-184 364.5,-165 411.5,-165 411.5,-184"/>
<text text-anchor="middle" x="388" y="-172" font-family="Helvetica,sans-Serif" font-size="10.00">Path.h</text>
</a>
</g>
</g>
<!-- Node5&#45;&gt;Node24 -->
<g id="edge45_Node000005_Node000024" class="edge">
<title>Node5&#45;&gt;Node24</title>
<g id="a_edge45_Node000005_Node000024"><a xlink:title=" ">
<path fill="none" stroke="#63b8ff" d="M599.74,-335.99C547.04,-331.12 443.7,-318.64 418,-294 390.65,-267.77 386.86,-220.47 387.07,-194.26"/>
<polygon fill="#63b8ff" stroke="#63b8ff" points="390.57,-194.25 387.36,-184.15 383.57,-194.04 390.57,-194.25"/>
</a>
</g>
</g>
<!-- Node5&#45;&gt;Node26 -->
<g id="edge53_Node000005_Node000026" class="edge">
<title>Node5&#45;&gt;Node26</title>
<g id="a_edge53_Node000005_Node000026"><a xlink:title=" ">
<path fill="none" stroke="#63b8ff" d="M599.97,-337.38C554.17,-334.67 466.68,-325.44 400,-294 318.63,-255.63 318.01,-216.15 244,-165 227.32,-153.48 207.47,-142.18 191.96,-133.85"/>
<polygon fill="#63b8ff" stroke="#63b8ff" points="193.41,-130.66 182.94,-129.07 190.14,-136.85 193.41,-130.66"/>
</a>
</g>
</g>
<!-- Node29 -->
<g id="Node000029" class="node">
<title>Node29</title>
<g id="a_Node000029"><a xlink:href="Status_8h.html" target="_top" xlink:title="Communicates failure status using gRPC&#39;s codes.">
<polygon fill="white" stroke="#666666" points="654,-184 598,-184 598,-165 654,-165 654,-184"/>
<text text-anchor="middle" x="626" y="-172" font-family="Helvetica,sans-Serif" font-size="10.00">Status.h</text>
</a>
</g>
</g>
<!-- Node5&#45;&gt;Node29 -->
<g id="edge49_Node000005_Node000029" class="edge">
<title>Node5&#45;&gt;Node29</title>
<g id="a_edge49_Node000005_Node000029"><a xlink:title=" ">
<path fill="none" stroke="#63b8ff" d="M640.02,-329.96C648.07,-321.66 659.29,-308.25 664,-294 675.91,-257.94 653.55,-215.53 638.36,-192.49"/>
<polygon fill="#63b8ff" stroke="#63b8ff" points="641.16,-190.39 632.61,-184.14 635.4,-194.36 641.16,-190.39"/>
</a>
</g>
</g>
<!-- Node34 -->
<g id="Node000034" class="node">
<title>Node34</title>
<g id="a_Node000034"><a xlink:title=" ">
<polygon fill="#e0e0e0" stroke="#999999" points="508.5,-294 427.5,-294 427.5,-275 508.5,-275 508.5,-294"/>
<text text-anchor="middle" x="468" y="-282" font-family="Helvetica,sans-Serif" font-size="10.00">vdk/signals.h</text>
</a>
</g>
</g>
<!-- Node5&#45;&gt;Node34 -->
<g id="edge50_Node000005_Node000034" class="edge">
<title>Node5&#45;&gt;Node34</title>
<g id="a_edge50_Node000005_Node000034"><a xlink:title=" ">
<path fill="none" stroke="#63b8ff" d="M604.81,-329.98C577.56,-321.13 534.7,-307.19 504.22,-297.28"/>
<polygon fill="#63b8ff" stroke="#63b8ff" points="504.99,-293.85 494.39,-294.08 502.82,-300.5 504.99,-293.85"/>
</a>
</g>
</g>
<!-- Node35 -->
<g id="Node000035" class="node">
<title>Node35</title>
<g id="a_Node000035"><a xlink:title=" ">
<polygon fill="#e0e0e0" stroke="#999999" points="589,-294 527,-294 527,-275 589,-275 589,-294"/>
<text text-anchor="middle" x="558" y="-282" font-family="Helvetica,sans-Serif" font-size="10.00">coroutine</text>
</a>
</g>
</g>
<!-- Node5&#45;&gt;Node35 -->
<g id="edge54_Node000005_Node000035" class="edge">
<title>Node5&#45;&gt;Node35</title>
<g id="a_edge54_Node000005_Node000035"><a xlink:title=" ">
<path fill="none" stroke="#63b8ff" d="M619.27,-329.98C608.27,-322 591.58,-309.88 578.4,-300.31"/>
<polygon fill="#63b8ff" stroke="#63b8ff" points="580.09,-297.21 569.94,-294.17 575.98,-302.88 580.09,-297.21"/>
</a>
</g>
</g>
<!-- Node36 -->
<g id="Node000036" class="node">
<title>Node36</title>
<g id="a_Node000036"><a xlink:title=" ">
<polygon fill="#e0e0e0" stroke="#999999" points="655,-294 607,-294 607,-275 655,-275 655,-294"/>
<text text-anchor="middle" x="631" y="-282" font-family="Helvetica,sans-Serif" font-size="10.00">mutex</text>
</a>
</g>
</g>
<!-- Node5&#45;&gt;Node36 -->
<g id="edge55_Node000005_Node000036" class="edge">
<title>Node5&#45;&gt;Node36</title>
<g id="a_edge55_Node000005_Node000036"><a xlink:title=" ">
<path fill="none" stroke="#63b8ff" d="M631,-329.75C631,-322.8 631,-312.85 631,-304.13"/>
<polygon fill="#63b8ff" stroke="#63b8ff" points="634.5,-304.09 631,-294.09 627.5,-304.09 634.5,-304.09"/>
</a>
</g>
</g>
<!-- Node7 -->
<g id="Node000007" class="node">
<title>Node7</title>
<g id="a_Node000007"><a xlink:href="Enums_8h.html" target="_top" xlink:title="tools for using EnumDecorators.">
<polygon fill="white" stroke="#666666" points="1160.5,-184 1101.5,-184 1101.5,-165 1160.5,-165 1160.5,-184"/>
<text text-anchor="middle" x="1131" y="-172" font-family="Helvetica,sans-Serif" font-size="10.00">Enums.h</text>
</a>
</g>
</g>
<!-- Node6&#45;&gt;Node7 -->
<g id="edge6_Node000006_Node000007" class="edge">
<title>Node6&#45;&gt;Node7</title>
<g id="a_edge6_Node000006_Node000007"><a xlink:title=" ">
<path fill="none" stroke="#63b8ff" d="M988.64,-283.07C1024.93,-280.61 1079.05,-271.26 1112,-239 1123.94,-227.31 1128.45,-208.46 1130.11,-194.32"/>
<polygon fill="#63b8ff" stroke="#63b8ff" points="1133.61,-194.48 1130.93,-184.23 1126.63,-193.91 1133.61,-194.48"/>
</a>
</g>
</g>
<!-- Node6&#45;&gt;Node13 -->
<g id="edge15_Node000006_Node000013" class="edge">
<title>Node6&#45;&gt;Node13</title>
<g id="a_edge15_Node000006_Node000013"><a xlink:title=" ">
<path fill="none" stroke="#63b8ff" d="M923.69,-274.98C895.15,-266.09 850.17,-252.07 818.36,-242.15"/>
<polygon fill="#63b8ff" stroke="#63b8ff" points="819.12,-238.72 808.53,-239.08 817.03,-245.4 819.12,-238.72"/>
</a>
</g>
</g>
<!-- Node6&#45;&gt;Node17 -->
<g id="edge41_Node000006_Node000017" class="edge">
<title>Node6&#45;&gt;Node17</title>
<g id="a_edge41_Node000006_Node000017"><a xlink:title=" ">
<path fill="none" stroke="#63b8ff" d="M945.43,-274.93C939.92,-266.17 931.54,-252.05 926,-239 919.81,-224.42 914.78,-207.15 911.46,-194.31"/>
<polygon fill="#63b8ff" stroke="#63b8ff" points="914.79,-193.21 908.99,-184.34 908,-194.89 914.79,-193.21"/>
</a>
</g>
</g>
<!-- Node19 -->
<g id="Node000019" class="node">
<title>Node19</title>
<g id="a_Node000019"><a xlink:title=" ">
<polygon fill="#e0e0e0" stroke="#999999" points="976.5,-74 911.5,-74 911.5,-55 976.5,-55 976.5,-74"/>
<text text-anchor="middle" x="944" y="-62" font-family="Helvetica,sans-Serif" font-size="10.00">functional</text>
</a>
</g>
</g>
<!-- Node6&#45;&gt;Node19 -->
<g id="edge43_Node000006_Node000019" class="edge">
<title>Node6&#45;&gt;Node19</title>
<g id="a_edge43_Node000006_Node000019"><a xlink:title=" ">
<path fill="none" stroke="#63b8ff" d="M957.63,-274.88C963.76,-266.32 972.46,-252.54 976,-239 982.93,-212.52 1013.7,-231.33 975,-110 971.72,-99.72 965.17,-89.73 958.93,-81.83"/>
<polygon fill="#63b8ff" stroke="#63b8ff" points="961.58,-79.54 952.45,-74.16 956.23,-84.06 961.58,-79.54"/>
</a>
</g>
</g>
<!-- Node32 -->
<g id="Node000032" class="node">
<title>Node32</title>
<g id="a_Node000032"><a xlink:title=" ">
<polygon fill="#e0e0e0" stroke="#999999" points="1103,-239 1023,-239 1023,-220 1103,-220 1103,-239"/>
<text text-anchor="middle" x="1063" y="-227" font-family="Helvetica,sans-Serif" font-size="10.00">jwt&#45;cpp/jwt.h</text>
</a>
</g>
</g>
<!-- Node6&#45;&gt;Node32 -->
<g id="edge42_Node000006_Node000032" class="edge">
<title>Node6&#45;&gt;Node32</title>
<g id="a_edge42_Node000006_Node000032"><a xlink:title=" ">
<path fill="none" stroke="#63b8ff" d="M968.99,-274.98C986.93,-266.5 1014.72,-253.35 1035.43,-243.54"/>
<polygon fill="#63b8ff" stroke="#63b8ff" points="1037.14,-246.61 1044.68,-239.17 1034.14,-240.28 1037.14,-246.61"/>
</a>
</g>
</g>
<!-- Node33 -->
<g id="Node000033" class="node">
<title>Node33</title>
<g id="a_Node000033"><a xlink:title=" ">
<polygon fill="#e0e0e0" stroke="#999999" points="967,-239 935,-239 935,-220 967,-220 967,-239"/>
<text text-anchor="middle" x="951" y="-227" font-family="Helvetica,sans-Serif" font-size="10.00">set</text>
</a>
</g>
</g>
<!-- Node6&#45;&gt;Node33 -->
<g id="edge44_Node000006_Node000033" class="edge">
<title>Node6&#45;&gt;Node33</title>
<g id="a_edge44_Node000006_Node000033"><a xlink:title=" ">
<path fill="none" stroke="#63b8ff" d="M951,-274.75C951,-267.8 951,-257.85 951,-249.13"/>
<polygon fill="#63b8ff" stroke="#63b8ff" points="954.5,-249.09 951,-239.09 947.5,-249.09 954.5,-249.09"/>
</a>
</g>
</g>
<!-- Node8 -->
<g id="Node000008" class="node">
<title>Node8</title>
<g id="a_Node000008"><a xlink:href="EnumDecorator_8h.html" target="_top" xlink:title="Provides an enum with useful extra functionality.">
<polygon fill="white" stroke="#666666" points="1205,-129 1061,-129 1061,-110 1205,-110 1205,-129"/>
<text text-anchor="middle" x="1133" y="-117" font-family="Helvetica,sans-Serif" font-size="10.00">patterns/EnumDecorator.h</text>
</a>
</g>
</g>
<!-- Node7&#45;&gt;Node8 -->
<g id="edge7_Node000007_Node000008" class="edge">
<title>Node7&#45;&gt;Node8</title>
<g id="a_edge7_Node000007_Node000008"><a xlink:title=" ">
<path fill="none" stroke="#63b8ff" d="M1131.33,-164.75C1131.59,-157.8 1131.97,-147.85 1132.3,-139.13"/>
<polygon fill="#63b8ff" stroke="#63b8ff" points="1135.8,-139.21 1132.68,-129.09 1128.8,-138.95 1135.8,-139.21"/>
</a>
</g>
</g>
<!-- Node10 -->
<g id="Node000010" class="node">
<title>Node10</title>
<g id="a_Node000010"><a xlink:title=" ">
<polygon fill="#e0e0e0" stroke="#999999" points="1045,-74 995,-74 995,-55 1045,-55 1045,-74"/>
<text text-anchor="middle" x="1020" y="-62" font-family="Helvetica,sans-Serif" font-size="10.00">cstdint</text>
</a>
</g>
</g>
<!-- Node7&#45;&gt;Node10 -->
<g id="edge14_Node000007_Node000010" class="edge">
<title>Node7&#45;&gt;Node10</title>
<g id="a_edge14_Node000007_Node000010"><a xlink:title=" ">
<path fill="none" stroke="#63b8ff" d="M1108.21,-164.97C1091.01,-157.59 1067.76,-145.51 1052,-129 1039.76,-116.18 1031.18,-97.76 1026.01,-84.06"/>
<polygon fill="#63b8ff" stroke="#63b8ff" points="1029.19,-82.56 1022.59,-74.28 1022.59,-84.87 1029.19,-82.56"/>
</a>
</g>
</g>
<!-- Node7&#45;&gt;Node12 -->
<g id="edge13_Node000007_Node000012" class="edge">
<title>Node7&#45;&gt;Node12</title>
<g id="a_edge13_Node000007_Node000012"><a xlink:title=" ">
<path fill="none" stroke="#63b8ff" d="M1160.62,-167.37C1203.43,-158.5 1283.23,-141.98 1335.73,-131.11"/>
<polygon fill="#63b8ff" stroke="#63b8ff" points="1336.77,-134.47 1345.85,-129.02 1335.35,-127.62 1336.77,-134.47"/>
</a>
</g>
</g>
<!-- Node8&#45;&gt;Node3 -->
<g id="edge11_Node000008_Node000003" class="edge">
<title>Node8&#45;&gt;Node3</title>
<g id="a_edge11_Node000008_Node000003"><a xlink:title=" ">
<path fill="none" stroke="#63b8ff" d="M1129.32,-109.96C1122.87,-96.1 1108.19,-68.86 1087,-55 1033.87,-20.24 957.94,-12.21 915.29,-10.61"/>
<polygon fill="#63b8ff" stroke="#63b8ff" points="915.29,-7.11 905.19,-10.33 915.09,-14.11 915.29,-7.11"/>
</a>
</g>
</g>
<!-- Node8&#45;&gt;Node4 -->
<g id="edge10_Node000008_Node000004" class="edge">
<title>Node8&#45;&gt;Node4</title>
<g id="a_edge10_Node000008_Node000004"><a xlink:title=" ">
<path fill="none" stroke="#63b8ff" d="M1125.76,-109.99C1112.97,-95.66 1084.8,-67.07 1054,-55 949.42,-14.02 610.9,-10.05 475.12,-10.16"/>
<polygon fill="#63b8ff" stroke="#63b8ff" points="474.92,-6.66 464.93,-10.18 474.93,-13.66 474.92,-6.66"/>
</a>
</g>
</g>
<!-- Node9 -->
<g id="Node000009" class="node">
<title>Node9</title>
<g id="a_Node000009"><a xlink:href="ReflectionMacros_8h.html" target="_top" xlink:title="adapted from https://github.com/tapika/TestCppReflect">
<polygon fill="white" stroke="#666666" points="1337,-74 1227,-74 1227,-55 1337,-55 1337,-74"/>
<text text-anchor="middle" x="1282" y="-62" font-family="Helvetica,sans-Serif" font-size="10.00">ReflectionMacros.h</text>
</a>
</g>
</g>
<!-- Node8&#45;&gt;Node9 -->
<g id="edge8_Node000008_Node000009" class="edge">
<title>Node8&#45;&gt;Node9</title>
<g id="a_edge8_Node000008_Node000009"><a xlink:title=" ">
<path fill="none" stroke="#63b8ff" d="M1156.94,-109.98C1181.56,-101.23 1220.12,-87.51 1247.92,-77.62"/>
<polygon fill="#63b8ff" stroke="#63b8ff" points="1249.38,-80.82 1257.62,-74.17 1247.03,-74.22 1249.38,-80.82"/>
</a>
</g>
</g>
<!-- Node8&#45;&gt;Node10 -->
<g id="edge9_Node000008_Node000010" class="edge">
<title>Node8&#45;&gt;Node10</title>
<g id="a_edge9_Node000008_Node000010"><a xlink:title=" ">
<path fill="none" stroke="#63b8ff" d="M1114.84,-109.98C1096.75,-101.5 1068.72,-88.35 1047.81,-78.54"/>
<polygon fill="#63b8ff" stroke="#63b8ff" points="1049.03,-75.25 1038.49,-74.17 1046.05,-81.59 1049.03,-75.25"/>
</a>
</g>
</g>
<!-- Node11 -->
<g id="Node000011" class="node">
<title>Node11</title>
<g id="a_Node000011"><a xlink:title=" ">
<polygon fill="#e0e0e0" stroke="#999999" points="1208.5,-74 1139.5,-74 1139.5,-55 1208.5,-55 1208.5,-74"/>
<text text-anchor="middle" x="1174" y="-62" font-family="Helvetica,sans-Serif" font-size="10.00">type_traits</text>
</a>
</g>
</g>
<!-- Node8&#45;&gt;Node11 -->
<g id="edge12_Node000008_Node000011" class="edge">
<title>Node8&#45;&gt;Node11</title>
<g id="a_edge12_Node000008_Node000011"><a xlink:title=" ">
<path fill="none" stroke="#63b8ff" d="M1139.77,-109.75C1145.56,-102.26 1154.06,-91.28 1161.14,-82.13"/>
<polygon fill="#63b8ff" stroke="#63b8ff" points="1164.01,-84.14 1167.36,-74.09 1158.47,-79.86 1164.01,-84.14"/>
</a>
</g>
</g>
<!-- Node13&#45;&gt;Node7 -->
<g id="edge16_Node000013_Node000007" class="edge">
<title>Node13&#45;&gt;Node7</title>
<g id="a_edge16_Node000013_Node000007"><a xlink:title=" ">
<path fill="none" stroke="#63b8ff" d="M810.54,-224.03C873.37,-214.51 1020.32,-192.26 1091.27,-181.52"/>
<polygon fill="#63b8ff" stroke="#63b8ff" points="1091.81,-184.98 1101.17,-180.02 1090.76,-178.05 1091.81,-184.98"/>
</a>
</g>
</g>
<!-- Node14 -->
<g id="Node000014" class="node">
<title>Node14</title>
<g id="a_Node000014"><a xlink:href="IConstraint_8h.html" target="_top" xlink:title="Interface for constraints.">
<polygon fill="white" stroke="#666666" points="795.5,-184 716.5,-184 716.5,-165 795.5,-165 795.5,-184"/>
<text text-anchor="middle" x="756" y="-172" font-family="Helvetica,sans-Serif" font-size="10.00">IConstraint.h</text>
</a>
</g>
</g>
<!-- Node13&#45;&gt;Node14 -->
<g id="edge17_Node000013_Node000014" class="edge">
<title>Node13&#45;&gt;Node14</title>
<g id="a_edge17_Node000013_Node000014"><a xlink:title=" ">
<path fill="none" stroke="#63b8ff" d="M776.87,-219.75C773.49,-212.57 768.58,-202.18 764.38,-193.27"/>
<polygon fill="#63b8ff" stroke="#63b8ff" points="767.48,-191.64 760.05,-184.09 761.15,-194.63 767.48,-191.64"/>
</a>
</g>
</g>
<!-- Node15 -->
<g id="Node000015" class="node">
<title>Node15</title>
<g id="a_Node000015"><a xlink:title=" ">
<polygon fill="#e0e0e0" stroke="#999999" points="901.5,-129 782.5,-129 782.5,-110 901.5,-110 901.5,-129"/>
<text text-anchor="middle" x="842" y="-117" font-family="Helvetica,sans-Serif" font-size="10.00">interface/param.pb.h</text>
</a>
</g>
</g>
<!-- Node13&#45;&gt;Node15 -->
<g id="edge40_Node000013_Node000015" class="edge">
<title>Node13&#45;&gt;Node15</title>
<g id="a_edge40_Node000013_Node000015"><a xlink:title=" ">
<path fill="none" stroke="#63b8ff" d="M785.99,-219.66C796.05,-201.85 818.92,-161.37 832.11,-138.01"/>
<polygon fill="#63b8ff" stroke="#63b8ff" points="835.24,-139.59 837.11,-129.16 829.14,-136.14 835.24,-139.59"/>
</a>
</g>
</g>
<!-- Node13&#45;&gt;Node17 -->
<g id="edge20_Node000013_Node000017" class="edge">
<title>Node13&#45;&gt;Node17</title>
<g id="a_edge20_Node000013_Node000017"><a xlink:title=" ">
<path fill="none" stroke="#63b8ff" d="M801.24,-219.98C821.7,-211.38 853.53,-197.99 876.93,-188.15"/>
<polygon fill="#63b8ff" stroke="#63b8ff" points="878.53,-191.27 886.39,-184.17 875.81,-184.82 878.53,-191.27"/>
</a>
</g>
</g>
<!-- Node13&#45;&gt;Node24 -->
<g id="edge31_Node000013_Node000024" class="edge">
<title>Node13&#45;&gt;Node24</title>
<g id="a_edge31_Node000013_Node000024"><a xlink:title=" ">
<path fill="none" stroke="#63b8ff" d="M751.46,-224.52C679.86,-214.86 497.35,-190.25 421.67,-180.04"/>
<polygon fill="#63b8ff" stroke="#63b8ff" points="422.1,-176.57 411.73,-178.7 421.17,-183.5 422.1,-176.57"/>
</a>
</g>
</g>
<!-- Node13&#45;&gt;Node29 -->
<g id="edge37_Node000013_Node000029" class="edge">
<title>Node13&#45;&gt;Node29</title>
<g id="a_edge37_Node000013_Node000029"><a xlink:title=" ">
<path fill="none" stroke="#63b8ff" d="M756.1,-219.98C730.3,-211.16 689.78,-197.31 660.82,-187.41"/>
<polygon fill="#63b8ff" stroke="#63b8ff" points="661.69,-184.01 651.1,-184.08 659.43,-190.63 661.69,-184.01"/>
</a>
</g>
</g>
<!-- Node14&#45;&gt;Node15 -->
<g id="edge18_Node000014_Node000015" class="edge">
<title>Node14&#45;&gt;Node15</title>
<g id="a_edge18_Node000014_Node000015"><a xlink:title=" ">
<path fill="none" stroke="#63b8ff" d="M769.82,-164.98C783.15,-156.77 803.58,-144.18 819.31,-134.49"/>
<polygon fill="#63b8ff" stroke="#63b8ff" points="821.25,-137.4 827.93,-129.17 817.58,-131.44 821.25,-137.4"/>
</a>
</g>
</g>
<!-- Node16 -->
<g id="Node000016" class="node">
<title>Node16</title>
<g id="a_Node000016"><a xlink:title=" ">
<polygon fill="#e0e0e0" stroke="#999999" points="764,-129 628,-129 628,-110 764,-110 764,-129"/>
<text text-anchor="middle" x="696" y="-117" font-family="Helvetica,sans-Serif" font-size="10.00">interface/constraint.pb.h</text>
</a>
</g>
</g>
<!-- Node14&#45;&gt;Node16 -->
<g id="edge19_Node000014_Node000016" class="edge">
<title>Node14&#45;&gt;Node16</title>
<g id="a_edge19_Node000014_Node000016"><a xlink:title=" ">
<path fill="none" stroke="#63b8ff" d="M746.36,-164.98C737.49,-157.15 724.13,-145.34 713.39,-135.86"/>
<polygon fill="#63b8ff" stroke="#63b8ff" points="715.63,-133.17 705.82,-129.17 710.99,-138.41 715.63,-133.17"/>
</a>
</g>
</g>
<!-- Node17&#45;&gt;Node15 -->
<g id="edge30_Node000017_Node000015" class="edge">
<title>Node17&#45;&gt;Node15</title>
<g id="a_edge30_Node000017_Node000015"><a xlink:title=" ">
<path fill="none" stroke="#63b8ff" d="M896.56,-164.98C886.85,-157.07 872.18,-145.11 860.5,-135.58"/>
<polygon fill="#63b8ff" stroke="#63b8ff" points="862.6,-132.78 852.63,-129.17 858.17,-138.2 862.6,-132.78"/>
</a>
</g>
</g>
<!-- Node18 -->
<g id="Node000018" class="node">
<title>Node18</title>
<g id="a_Node000018"><a xlink:href="Tags_8h.html" target="_top" xlink:title="Tags to differentiate collections with the same type for template specialization.">
<polygon fill="white" stroke="#666666" points="966.5,-129 919.5,-129 919.5,-110 966.5,-110 966.5,-129"/>
<text text-anchor="middle" x="943" y="-117" font-family="Helvetica,sans-Serif" font-size="10.00">Tags.h</text>
</a>
</g>
</g>
<!-- Node17&#45;&gt;Node18 -->
<g id="edge21_Node000017_Node000018" class="edge">
<title>Node17&#45;&gt;Node18</title>
<g id="a_edge21_Node000017_Node000018"><a xlink:title=" ">
<path fill="none" stroke="#63b8ff" d="M912.94,-164.75C917.98,-157.34 925.34,-146.5 931.51,-137.41"/>
<polygon fill="#63b8ff" stroke="#63b8ff" points="934.44,-139.33 937.17,-129.09 928.65,-135.39 934.44,-139.33"/>
</a>
</g>
</g>
<!-- Node20 -->
<g id="Node000020" class="node">
<title>Node20</title>
<g id="a_Node000020"><a xlink:href="PolyglotText_8h.html" target="_top" xlink:title="Polyglot Text serialization and deserialization to protobuf.">
<polygon fill="white" stroke="#666666" points="1309,-129 1223,-129 1223,-110 1309,-110 1309,-129"/>
<text text-anchor="middle" x="1266" y="-117" font-family="Helvetica,sans-Serif" font-size="10.00">PolyglotText.h</text>
</a>
</g>
</g>
<!-- Node17&#45;&gt;Node20 -->
<g id="edge24_Node000017_Node000020" class="edge">
<title>Node17&#45;&gt;Node20</title>
<g id="a_edge24_Node000017_Node000020"><a xlink:title=" ">
<path fill="none" stroke="#63b8ff" d="M961.67,-165.88C1021,-157.54 1118.81,-143.6 1212.9,-129.15"/>
<polygon fill="#63b8ff" stroke="#63b8ff" points="1213.53,-132.59 1222.88,-127.61 1212.46,-125.67 1213.53,-132.59"/>
</a>
</g>
</g>
<!-- Node18&#45;&gt;Node3 -->
<g id="edge23_Node000018_Node000003" class="edge">
<title>Node18&#45;&gt;Node3</title>
<g id="a_edge23_Node000018_Node000003"><a xlink:title=" ">
<path fill="none" stroke="#63b8ff" d="M932.83,-109.95C923.56,-101.65 910.11,-88.24 902,-74 894.07,-60.08 889.15,-42.52 886.31,-29.4"/>
<polygon fill="#63b8ff" stroke="#63b8ff" points="889.67,-28.35 884.32,-19.21 882.8,-29.69 889.67,-28.35"/>
</a>
</g>
</g>
<!-- Node18&#45;&gt;Node19 -->
<g id="edge22_Node000018_Node000019" class="edge">
<title>Node18&#45;&gt;Node19</title>
<g id="a_edge22_Node000018_Node000019"><a xlink:title=" ">
<path fill="none" stroke="#63b8ff" d="M943.17,-109.75C943.3,-102.8 943.48,-92.85 943.65,-84.13"/>
<polygon fill="#63b8ff" stroke="#63b8ff" points="947.15,-84.15 943.84,-74.09 940.15,-84.02 947.15,-84.15"/>
</a>
</g>
</g>
<!-- Node21 -->
<g id="Node000021" class="node">
<title>Node21</title>
<g id="a_Node000021"><a xlink:href="IPolyglotText_8h.html" target="_top" xlink:title="Catena&#39;s multi&#45;language text interface.">
<polygon fill="white" stroke="#666666" points="1444.5,-74 1355.5,-74 1355.5,-55 1444.5,-55 1444.5,-74"/>
<text text-anchor="middle" x="1400" y="-62" font-family="Helvetica,sans-Serif" font-size="10.00">IPolyglotText.h</text>
</a>
</g>
</g>
<!-- Node20&#45;&gt;Node21 -->
<g id="edge25_Node000020_Node000021" class="edge">
<title>Node20&#45;&gt;Node21</title>
<g id="a_edge25_Node000020_Node000021"><a xlink:title=" ">
<path fill="none" stroke="#63b8ff" d="M1287.53,-109.98C1309.47,-101.3 1343.74,-87.75 1368.69,-77.88"/>
<polygon fill="#63b8ff" stroke="#63b8ff" points="1370.07,-81.1 1378.08,-74.17 1367.49,-74.59 1370.07,-81.1"/>
</a>
</g>
</g>
<!-- Node21&#45;&gt;Node3 -->
<g id="edge28_Node000021_Node000003" class="edge">
<title>Node21&#45;&gt;Node3</title>
<g id="a_edge28_Node000021_Node000003"><a xlink:title=" ">
<path fill="none" stroke="#63b8ff" d="M1355.24,-56.24C1352.12,-55.8 1349.01,-55.38 1346,-55 1184.89,-34.6 991.17,-18.79 915.51,-12.95"/>
<polygon fill="#63b8ff" stroke="#63b8ff" points="915.46,-9.43 905.22,-12.16 914.92,-16.41 915.46,-9.43"/>
</a>
</g>
</g>
<!-- Node21&#45;&gt;Node4 -->
<g id="edge27_Node000021_Node000004" class="edge">
<title>Node21&#45;&gt;Node4</title>
<g id="a_edge27_Node000021_Node000004"><a xlink:title=" ">
<path fill="none" stroke="#63b8ff" d="M1355.26,-56.08C1352.13,-55.67 1349.02,-55.31 1346,-55 1017.33,-21.35 620.5,-13.06 475.01,-11.09"/>
<polygon fill="#63b8ff" stroke="#63b8ff" points="475.01,-7.59 464.97,-10.96 474.92,-14.59 475.01,-7.59"/>
</a>
</g>
</g>
<!-- Node21&#45;&gt;Node22 -->
<g id="edge26_Node000021_Node000022" class="edge">
<title>Node21&#45;&gt;Node22</title>
<g id="a_edge26_Node000021_Node000022"><a xlink:title=" ">
<path fill="none" stroke="#63b8ff" d="M1400.99,-54.75C1401.78,-47.8 1402.9,-37.85 1403.89,-29.13"/>
<polygon fill="#63b8ff" stroke="#63b8ff" points="1407.38,-29.42 1405.03,-19.09 1400.42,-28.63 1407.38,-29.42"/>
</a>
</g>
</g>
<!-- Node21&#45;&gt;Node23 -->
<g id="edge29_Node000021_Node000023" class="edge">
<title>Node21&#45;&gt;Node23</title>
<g id="a_edge29_Node000021_Node000023"><a xlink:title=" ">
<path fill="none" stroke="#63b8ff" d="M1423.3,-54.98C1447.25,-46.23 1484.78,-32.51 1511.83,-22.62"/>
<polygon fill="#63b8ff" stroke="#63b8ff" points="1513.09,-25.89 1521.28,-19.17 1510.69,-19.32 1513.09,-25.89"/>
</a>
</g>
</g>
<!-- Node24&#45;&gt;Node3 -->
<g id="edge33_Node000024_Node000003" class="edge">
<title>Node24&#45;&gt;Node3</title>
<g id="a_edge33_Node000024_Node000003"><a xlink:title=" ">
<path fill="none" stroke="#63b8ff" d="M395.55,-164.6C407.82,-150.74 433.5,-124.1 461,-110 595.07,-41.27 777.46,-19.19 850.66,-12.83"/>
<polygon fill="#63b8ff" stroke="#63b8ff" points="850.97,-16.31 860.65,-12 850.39,-9.34 850.97,-16.31"/>
</a>
</g>
</g>
<!-- Node25 -->
<g id="Node000025" class="node">
<title>Node25</title>
<g id="a_Node000025"><a xlink:title=" ">
<polygon fill="#e0e0e0" stroke="#999999" points="344,-129 284,-129 284,-110 344,-110 344,-129"/>
<text text-anchor="middle" x="314" y="-117" font-family="Helvetica,sans-Serif" font-size="10.00">iostream</text>
</a>
</g>
</g>
<!-- Node24&#45;&gt;Node25 -->
<g id="edge32_Node000024_Node000025" class="edge">
<title>Node24&#45;&gt;Node25</title>
<g id="a_edge32_Node000024_Node000025"><a xlink:title=" ">
<path fill="none" stroke="#63b8ff" d="M376.11,-164.98C364.85,-156.92 347.71,-144.65 334.29,-135.03"/>
<polygon fill="#63b8ff" stroke="#63b8ff" points="336.27,-132.15 326.11,-129.17 332.2,-137.84 336.27,-132.15"/>
</a>
</g>
</g>
<!-- Node24&#45;&gt;Node26 -->
<g id="edge34_Node000024_Node000026" class="edge">
<title>Node24&#45;&gt;Node26</title>
<g id="a_edge34_Node000024_Node000026"><a xlink:title=" ">
<path fill="none" stroke="#63b8ff" d="M364.39,-168.11C330.33,-160.29 265.18,-145.21 199.84,-129.17"/>
<polygon fill="#63b8ff" stroke="#63b8ff" points="200.32,-125.68 189.78,-126.69 198.65,-132.48 200.32,-125.68"/>
</a>
</g>
</g>
<!-- Node27 -->
<g id="Node000027" class="node">
<title>Node27</title>
<g id="a_Node000027"><a xlink:title=" ">
<polygon fill="#e0e0e0" stroke="#999999" points="413.5,-129 362.5,-129 362.5,-110 413.5,-110 413.5,-129"/>
<text text-anchor="middle" x="388" y="-117" font-family="Helvetica,sans-Serif" font-size="10.00">variant</text>
</a>
</g>
</g>
<!-- Node24&#45;&gt;Node27 -->
<g id="edge35_Node000024_Node000027" class="edge">
<title>Node24&#45;&gt;Node27</title>
<g id="a_edge35_Node000024_Node000027"><a xlink:title=" ">
<path fill="none" stroke="#63b8ff" d="M388,-164.75C388,-157.8 388,-147.85 388,-139.13"/>
<polygon fill="#63b8ff" stroke="#63b8ff" points="391.5,-139.09 388,-129.09 384.5,-139.09 391.5,-139.09"/>
</a>
</g>
</g>
<!-- Node28 -->
<g id="Node000028" class="node">
<title>Node28</title>
<g id="a_Node000028"><a xlink:title=" ">
<polygon fill="#e0e0e0" stroke="#999999" points="266,-129 208,-129 208,-110 266,-110 266,-129"/>
<text text-anchor="middle" x="237" y="-117" font-family="Helvetica,sans-Serif" font-size="10.00">memory</text>
</a>
</g>
</g>
<!-- Node24&#45;&gt;Node28 -->
<g id="edge36_Node000024_Node000028" class="edge">
<title>Node24&#45;&gt;Node28</title>
<g id="a_edge36_Node000024_Node000028"><a xlink:title=" ">
<path fill="none" stroke="#63b8ff" d="M364.41,-165.22C339.33,-156.42 299.44,-142.42 270.98,-132.43"/>
<polygon fill="#63b8ff" stroke="#63b8ff" points="272.02,-129.08 261.43,-129.07 269.71,-135.69 272.02,-129.08"/>
</a>
</g>
</g>
<!-- Node30 -->
<g id="Node000030" class="node">
<title>Node30</title>
<g id="a_Node000030"><a xlink:title=" ">
<polygon fill="#e0e0e0" stroke="#999999" points="610,-129 554,-129 554,-110 610,-110 610,-129"/>
<text text-anchor="middle" x="582" y="-117" font-family="Helvetica,sans-Serif" font-size="10.00">sstream</text>
</a>
</g>
</g>
<!-- Node29&#45;&gt;Node30 -->
<g id="edge38_Node000029_Node000030" class="edge">
<title>Node29&#45;&gt;Node30</title>
<g id="a_edge38_Node000029_Node000030"><a xlink:title=" ">
<path fill="none" stroke="#63b8ff" d="M618.73,-164.75C612.46,-157.18 603.21,-146.05 595.57,-136.84"/>
<polygon fill="#63b8ff" stroke="#63b8ff" points="598.21,-134.55 589.13,-129.09 592.83,-139.02 598.21,-134.55"/>
</a>
</g>
</g>
<!-- Node31 -->
<g id="Node000031" class="node">
<title>Node31</title>
<g id="a_Node000031"><a xlink:title=" ">
<polygon fill="#e0e0e0" stroke="#999999" points="535.5,-129 470.5,-129 470.5,-110 535.5,-110 535.5,-129"/>
<text text-anchor="middle" x="503" y="-117" font-family="Helvetica,sans-Serif" font-size="10.00">stdexcept</text>
</a>
</g>
</g>
<!-- Node29&#45;&gt;Node31 -->
<g id="edge39_Node000029_Node000031" class="edge">
<title>Node29&#45;&gt;Node31</title>
<g id="a_edge39_Node000029_Node000031"><a xlink:title=" ">
<path fill="none" stroke="#63b8ff" d="M606.24,-164.98C586.27,-156.38 555.2,-142.99 532.35,-133.15"/>
<polygon fill="#63b8ff" stroke="#63b8ff" points="533.69,-129.91 523.12,-129.17 530.92,-136.34 533.69,-129.91"/>
</a>
</g>
</g>
</g>
</svg>
