<?xml version="1.0" encoding="UTF-8" standalone="no"?>
<!DOCTYPE svg PUBLIC "-//W3C//DTD SVG 1.1//EN"
 "http://www.w3.org/Graphics/SVG/1.1/DTD/svg11.dtd">
<!-- Generated by graphviz version 2.43.0 (0)
 -->
<!-- Title: /home/runner/work/Catena/Catena/sdks/cpp/common/include/rpc/Connect.h Pages: 1 -->
<svg width="1633pt" height="500pt"
 viewBox="0.00 0.00 1632.50 500.00" xmlns="http://www.w3.org/2000/svg" xmlns:xlink="http://www.w3.org/1999/xlink">
<g id="graph0" class="graph" transform="scale(1 1) rotate(0) translate(4 496)">
<title>/home/runner/work/Catena/Catena/sdks/cpp/common/include/rpc/Connect.h</title>
<!-- Node1 -->
<g id="Node000001" class="node">
<title>Node1</title>
<g id="a_Node000001"><a xlink:title="Pure virtual class for Connect RPCs used to share update code.">
<polygon fill="#999999" stroke="#666666" points="948,-492 802,-492 802,-451 948,-451 948,-492"/>
<text text-anchor="start" x="810" y="-480" font-family="Helvetica,sans-Serif" font-size="10.00">/home/runner/work/Catena</text>
<text text-anchor="start" x="810" y="-469" font-family="Helvetica,sans-Serif" font-size="10.00">/Catena/sdks/cpp/common</text>
<text text-anchor="middle" x="875" y="-458" font-family="Helvetica,sans-Serif" font-size="10.00">/include/rpc/Connect.h</text>
</a>
</g>
</g>
<!-- Node2 -->
<g id="Node000002" class="node">
<title>Node2</title>
<g id="a_Node000002"><a xlink:href="Tags_8h.html" target="_top" xlink:title="Tags to differentiate collections with the same type for template specialization.">
<polygon fill="white" stroke="#666666" points="1446.5,-140 1399.5,-140 1399.5,-121 1446.5,-121 1446.5,-140"/>
<text text-anchor="middle" x="1423" y="-128" font-family="Helvetica,sans-Serif" font-size="10.00">Tags.h</text>
</a>
</g>
</g>
<!-- Node1&#45;&gt;Node2 -->
<g id="edge1_Node000001_Node000002" class="edge">
<title>Node1&#45;&gt;Node2</title>
<g id="a_edge1_Node000001_Node000002"><a xlink:title=" ">
<path fill="none" stroke="#63b8ff" d="M948.21,-466.28C1075.93,-456.9 1326,-428.68 1326,-351.5 1326,-351.5 1326,-351.5 1326,-239.5 1326,-196.52 1369.05,-162.87 1397.79,-145.2"/>
<polygon fill="#63b8ff" stroke="#63b8ff" points="1399.71,-148.13 1406.55,-140.03 1396.15,-142.1 1399.71,-148.13"/>
</a>
</g>
</g>
<!-- Node4 -->
<g id="Node000004" class="node">
<title>Node4</title>
<g id="a_Node000004"><a xlink:title=" ">
<polygon fill="#e0e0e0" stroke="#999999" points="1008,-24.5 964,-24.5 964,-5.5 1008,-5.5 1008,-24.5"/>
<text text-anchor="middle" x="986" y="-12.5" font-family="Helvetica,sans-Serif" font-size="10.00">string</text>
</a>
</g>
</g>
<!-- Node1&#45;&gt;Node4 -->
<g id="edge75_Node000001_Node000004" class="edge">
<title>Node1&#45;&gt;Node4</title>
<g id="a_edge75_Node000001_Node000004"><a xlink:title=" ">
<path fill="none" stroke="#63b8ff" d="M801.9,-468.2C591.61,-460.64 0,-432.18 0,-351.5 0,-351.5 0,-351.5 0,-129.5 0,-89.11 28.03,-82.25 65,-66 147.68,-29.67 799.81,-18.54 953.59,-16.41"/>
<polygon fill="#63b8ff" stroke="#63b8ff" points="953.84,-19.91 963.79,-16.27 953.74,-12.91 953.84,-19.91"/>
</a>
</g>
</g>
<!-- Node5 -->
<g id="Node000005" class="node">
<title>Node5</title>
<g id="a_Node000005"><a xlink:href="Enums_8h.html" target="_top" xlink:title="tools for using EnumDecorators.">
<polygon fill="white" stroke="#666666" points="600.5,-195 541.5,-195 541.5,-176 600.5,-176 600.5,-195"/>
<text text-anchor="middle" x="571" y="-183" font-family="Helvetica,sans-Serif" font-size="10.00">Enums.h</text>
</a>
</g>
</g>
<!-- Node1&#45;&gt;Node5 -->
<g id="edge4_Node000001_Node000005" class="edge">
<title>Node1&#45;&gt;Node5</title>
<g id="a_edge4_Node000001_Node000005"><a xlink:title=" ">
<path fill="none" stroke="#63b8ff" d="M801.86,-457.24C711.05,-438.65 568,-401.45 568,-351.5 568,-351.5 568,-351.5 568,-294.5 568,-263.18 569.28,-226.77 570.16,-205.23"/>
<polygon fill="#63b8ff" stroke="#63b8ff" points="573.66,-205.32 570.6,-195.18 566.67,-205.02 573.66,-205.32"/>
</a>
</g>
</g>
<!-- Node11 -->
<g id="Node000011" class="node">
<title>Node11</title>
<g id="a_Node000011"><a xlink:title=" ">
<polygon fill="#e0e0e0" stroke="#999999" points="380.5,-140 261.5,-140 261.5,-121 380.5,-121 380.5,-140"/>
<text text-anchor="middle" x="321" y="-128" font-family="Helvetica,sans-Serif" font-size="10.00">interface/device.pb.h</text>
</a>
</g>
</g>
<!-- Node1&#45;&gt;Node11 -->
<g id="edge74_Node000001_Node000011" class="edge">
<title>Node1&#45;&gt;Node11</title>
<g id="a_edge74_Node000001_Node000011"><a xlink:title=" ">
<path fill="none" stroke="#63b8ff" d="M801.69,-465.7C677,-455.49 437,-426.16 437,-351.5 437,-351.5 437,-351.5 437,-239.5 437,-192.97 386.39,-160.79 352.02,-144.3"/>
<polygon fill="#63b8ff" stroke="#63b8ff" points="353.37,-141.07 342.82,-140.07 350.44,-147.43 353.37,-141.07"/>
</a>
</g>
</g>
<!-- Node12 -->
<g id="Node000012" class="node">
<title>Node12</title>
<g id="a_Node000012"><a xlink:href="Status_8h.html" target="_top" xlink:title="Communicates failure status using gRPC&#39;s codes.">
<polygon fill="white" stroke="#666666" points="341,-195 285,-195 285,-176 341,-176 341,-195"/>
<text text-anchor="middle" x="313" y="-183" font-family="Helvetica,sans-Serif" font-size="10.00">Status.h</text>
</a>
</g>
</g>
<!-- Node1&#45;&gt;Node12 -->
<g id="edge13_Node000001_Node000012" class="edge">
<title>Node1&#45;&gt;Node12</title>
<g id="a_edge13_Node000001_Node000012"><a xlink:title=" ">
<path fill="none" stroke="#63b8ff" d="M801.82,-470.15C649.62,-467.45 313,-450.3 313,-351.5 313,-351.5 313,-351.5 313,-294.5 313,-263.19 313,-226.77 313,-205.23"/>
<polygon fill="#63b8ff" stroke="#63b8ff" points="316.5,-205.18 313,-195.18 309.5,-205.18 316.5,-205.18"/>
</a>
</g>
</g>
<!-- Node15 -->
<g id="Node000015" class="node">
<title>Node15</title>
<g id="a_Node000015"><a xlink:title=" ">
<polygon fill="#e0e0e0" stroke="#999999" points="1013.5,-305 932.5,-305 932.5,-286 1013.5,-286 1013.5,-305"/>
<text text-anchor="middle" x="973" y="-293" font-family="Helvetica,sans-Serif" font-size="10.00">vdk/signals.h</text>
</a>
</g>
</g>
<!-- Node1&#45;&gt;Node15 -->
<g id="edge16_Node000001_Node000015" class="edge">
<title>Node1&#45;&gt;Node15</title>
<g id="a_edge16_Node000001_Node000015"><a xlink:title=" ">
<path fill="none" stroke="#63b8ff" d="M948.24,-459.17C997.66,-449.87 1056.59,-434.97 1072,-415 1092.09,-388.96 1090.92,-368.58 1073,-341 1061.81,-323.77 1042.22,-313.15 1023.34,-306.64"/>
<polygon fill="#63b8ff" stroke="#63b8ff" points="1024.16,-303.23 1013.57,-303.59 1022.08,-309.91 1024.16,-303.23"/>
</a>
</g>
</g>
<!-- Node16 -->
<g id="Node000016" class="node">
<title>Node16</title>
<g id="a_Node000016"><a xlink:href="IParam_8h.html" target="_top" xlink:title="Interface for parameters.">
<polygon fill="white" stroke="#666666" points="842.5,-250 783.5,-250 783.5,-231 842.5,-231 842.5,-250"/>
<text text-anchor="middle" x="813" y="-238" font-family="Helvetica,sans-Serif" font-size="10.00">IParam.h</text>
</a>
</g>
</g>
<!-- Node1&#45;&gt;Node16 -->
<g id="edge17_Node000001_Node000016" class="edge">
<title>Node1&#45;&gt;Node16</title>
<g id="a_edge17_Node000001_Node000016"><a xlink:title=" ">
<path fill="none" stroke="#63b8ff" d="M869.71,-450.98C857.94,-407.49 829.68,-303.12 818.09,-260.31"/>
<polygon fill="#63b8ff" stroke="#63b8ff" points="821.4,-259.13 815.41,-250.39 814.64,-260.96 821.4,-259.13"/>
</a>
</g>
</g>
<!-- Node31 -->
<g id="Node000031" class="node">
<title>Node31</title>
<g id="a_Node000031"><a xlink:href="IDevice_8h.html" target="_top" xlink:title="Interface for device.">
<polygon fill="white" stroke="#666666" points="821,-360 759,-360 759,-341 821,-341 821,-360"/>
<text text-anchor="middle" x="790" y="-348" font-family="Helvetica,sans-Serif" font-size="10.00">IDevice.h</text>
</a>
</g>
</g>
<!-- Node1&#45;&gt;Node31 -->
<g id="edge43_Node000001_Node000031" class="edge">
<title>Node1&#45;&gt;Node31</title>
<g id="a_edge43_Node000001_Node000031"><a xlink:title=" ">
<path fill="none" stroke="#63b8ff" d="M860.96,-450.85C844.54,-427.86 817.63,-390.18 802.09,-368.43"/>
<polygon fill="#63b8ff" stroke="#63b8ff" points="804.86,-366.28 796.2,-360.18 799.16,-370.35 804.86,-366.28"/>
</a>
</g>
</g>
<!-- Node32 -->
<g id="Node000032" class="node">
<title>Node32</title>
<g id="a_Node000032"><a xlink:href="Authorization_8h.html" target="_top" xlink:title="Class for handling authorization information.">
<polygon fill="white" stroke="#666666" points="1249.5,-305 1158.5,-305 1158.5,-286 1249.5,-286 1249.5,-305"/>
<text text-anchor="middle" x="1204" y="-293" font-family="Helvetica,sans-Serif" font-size="10.00">Authorization.h</text>
</a>
</g>
</g>
<!-- Node1&#45;&gt;Node32 -->
<g id="edge63_Node000001_Node000032" class="edge">
<title>Node1&#45;&gt;Node32</title>
<g id="a_edge63_Node000001_Node000032"><a xlink:title=" ">
<path fill="none" stroke="#63b8ff" d="M948.1,-458.69C991.28,-450.05 1046.27,-436.1 1092,-415 1130.52,-397.23 1141.9,-391.77 1170,-360 1181.9,-346.55 1191.15,-328.21 1196.97,-314.69"/>
<polygon fill="#63b8ff" stroke="#63b8ff" points="1200.36,-315.66 1200.9,-305.08 1193.88,-313.01 1200.36,-315.66"/>
</a>
</g>
</g>
<!-- Node37 -->
<g id="Node000037" class="node">
<title>Node37</title>
<g id="a_Node000037"><a xlink:href="ISubscriptionManager_8h.html" target="_top" xlink:title="Interface for managing parameter subscriptions in Catena.">
<polygon fill="white" stroke="#666666" points="1063.5,-415 932.5,-415 932.5,-396 1063.5,-396 1063.5,-415"/>
<text text-anchor="middle" x="998" y="-403" font-family="Helvetica,sans-Serif" font-size="10.00">ISubscriptionManager.h</text>
</a>
</g>
</g>
<!-- Node1&#45;&gt;Node37 -->
<g id="edge64_Node000001_Node000037" class="edge">
<title>Node1&#45;&gt;Node37</title>
<g id="a_edge64_Node000001_Node000037"><a xlink:title=" ">
<path fill="none" stroke="#63b8ff" d="M912.57,-450.95C932.01,-440.84 955.21,-428.76 972.53,-419.75"/>
<polygon fill="#63b8ff" stroke="#63b8ff" points="974.23,-422.81 981.49,-415.09 971,-416.6 974.23,-422.81"/>
</a>
</g>
</g>
<!-- Node39 -->
<g id="Node000039" class="node">
<title>Node39</title>
<g id="a_Node000039"><a xlink:href="IConnect_8h.html" target="_top" xlink:title="Interface for Connect.h.">
<polygon fill="white" stroke="#666666" points="409,-305 341,-305 341,-286 409,-286 409,-305"/>
<text text-anchor="middle" x="375" y="-293" font-family="Helvetica,sans-Serif" font-size="10.00">IConnect.h</text>
</a>
</g>
</g>
<!-- Node1&#45;&gt;Node39 -->
<g id="edge70_Node000001_Node000039" class="edge">
<title>Node1&#45;&gt;Node39</title>
<g id="a_edge70_Node000001_Node000039"><a xlink:title=" ">
<path fill="none" stroke="#63b8ff" d="M801.55,-470.3C688.97,-468.56 480.73,-459.25 423,-415 391.25,-390.66 380.41,-341.85 376.78,-315.09"/>
<polygon fill="#63b8ff" stroke="#63b8ff" points="380.25,-314.64 375.63,-305.11 373.3,-315.45 380.25,-314.64"/>
</a>
</g>
</g>
<!-- Node40 -->
<g id="Node000040" class="node">
<title>Node40</title>
<g id="a_Node000040"><a xlink:title=" ">
<polygon fill="#e0e0e0" stroke="#999999" points="1461.5,-415 1354.5,-415 1354.5,-396 1461.5,-396 1461.5,-415"/>
<text text-anchor="middle" x="1408" y="-403" font-family="Helvetica,sans-Serif" font-size="10.00">condition_variable</text>
</a>
</g>
</g>
<!-- Node1&#45;&gt;Node40 -->
<g id="edge76_Node000001_Node000040" class="edge">
<title>Node1&#45;&gt;Node40</title>
<g id="a_edge76_Node000001_Node000040"><a xlink:title=" ">
<path fill="none" stroke="#63b8ff" d="M948.3,-461.88C1039.94,-451.07 1201.6,-431.91 1340,-415 1341.3,-414.84 1342.6,-414.68 1343.92,-414.52"/>
<polygon fill="#63b8ff" stroke="#63b8ff" points="1344.68,-417.95 1354.18,-413.26 1343.83,-411 1344.68,-417.95"/>
</a>
</g>
</g>
<!-- Node3 -->
<g id="Node000003" class="node">
<title>Node3</title>
<g id="a_Node000003"><a xlink:title=" ">
<polygon fill="#e0e0e0" stroke="#999999" points="1624.5,-85 1559.5,-85 1559.5,-66 1624.5,-66 1624.5,-85"/>
<text text-anchor="middle" x="1592" y="-73" font-family="Helvetica,sans-Serif" font-size="10.00">functional</text>
</a>
</g>
</g>
<!-- Node2&#45;&gt;Node3 -->
<g id="edge2_Node000002_Node000003" class="edge">
<title>Node2&#45;&gt;Node3</title>
<g id="a_edge2_Node000002_Node000003"><a xlink:title=" ">
<path fill="none" stroke="#63b8ff" d="M1446.86,-122.02C1474.97,-113.2 1522.03,-98.44 1554.91,-88.13"/>
<polygon fill="#63b8ff" stroke="#63b8ff" points="1556.13,-91.42 1564.63,-85.08 1554.04,-84.74 1556.13,-91.42"/>
</a>
</g>
</g>
<!-- Node2&#45;&gt;Node4 -->
<g id="edge3_Node000002_Node000004" class="edge">
<title>Node2&#45;&gt;Node4</title>
<g id="a_edge3_Node000002_Node000004"><a xlink:title=" ">
<path fill="none" stroke="#63b8ff" d="M1413.3,-120.82C1396.98,-106.77 1362.44,-79.25 1328,-66 1271.55,-44.29 1091.94,-25.77 1018.13,-18.87"/>
<polygon fill="#63b8ff" stroke="#63b8ff" points="1018.32,-15.38 1008.04,-17.94 1017.68,-22.35 1018.32,-15.38"/>
</a>
</g>
</g>
<!-- Node6 -->
<g id="Node000006" class="node">
<title>Node6</title>
<g id="a_Node000006"><a xlink:href="EnumDecorator_8h.html" target="_top" xlink:title="Provides an enum with useful extra functionality.">
<polygon fill="white" stroke="#666666" points="543,-140 399,-140 399,-121 543,-121 543,-140"/>
<text text-anchor="middle" x="471" y="-128" font-family="Helvetica,sans-Serif" font-size="10.00">patterns/EnumDecorator.h</text>
</a>
</g>
</g>
<!-- Node5&#45;&gt;Node6 -->
<g id="edge5_Node000005_Node000006" class="edge">
<title>Node5&#45;&gt;Node6</title>
<g id="a_edge5_Node000005_Node000006"><a xlink:title=" ">
<path fill="none" stroke="#63b8ff" d="M554.93,-175.98C539.14,-167.61 514.78,-154.7 496.37,-144.95"/>
<polygon fill="#63b8ff" stroke="#63b8ff" points="497.83,-141.76 487.36,-140.17 494.56,-147.95 497.83,-141.76"/>
</a>
</g>
</g>
<!-- Node8 -->
<g id="Node000008" class="node">
<title>Node8</title>
<g id="a_Node000008"><a xlink:title=" ">
<polygon fill="#e0e0e0" stroke="#999999" points="666,-85 616,-85 616,-66 666,-66 666,-85"/>
<text text-anchor="middle" x="641" y="-73" font-family="Helvetica,sans-Serif" font-size="10.00">cstdint</text>
</a>
</g>
</g>
<!-- Node5&#45;&gt;Node8 -->
<g id="edge12_Node000005_Node000008" class="edge">
<title>Node5&#45;&gt;Node8</title>
<g id="a_edge12_Node000005_Node000008"><a xlink:title=" ">
<path fill="none" stroke="#63b8ff" d="M572.06,-175.64C573.95,-162.73 578.79,-138.42 590,-121 597.55,-109.27 609.07,-98.84 619.25,-91.04"/>
<polygon fill="#63b8ff" stroke="#63b8ff" points="621.35,-93.84 627.38,-85.13 617.23,-88.18 621.35,-93.84"/>
</a>
</g>
</g>
<!-- Node5&#45;&gt;Node11 -->
<g id="edge11_Node000005_Node000011" class="edge">
<title>Node5&#45;&gt;Node11</title>
<g id="a_edge11_Node000005_Node000011"><a xlink:title=" ">
<path fill="none" stroke="#63b8ff" d="M541.34,-178.21C499.39,-169.32 422.15,-152.94 371.18,-142.14"/>
<polygon fill="#63b8ff" stroke="#63b8ff" points="371.86,-138.71 361.35,-140.05 370.41,-145.55 371.86,-138.71"/>
</a>
</g>
</g>
<!-- Node6&#45;&gt;Node4 -->
<g id="edge9_Node000006_Node000004" class="edge">
<title>Node6&#45;&gt;Node4</title>
<g id="a_edge9_Node000006_Node000004"><a xlink:title=" ">
<path fill="none" stroke="#63b8ff" d="M423.01,-120.94C380.15,-111.31 327.74,-93.34 353,-66 394.03,-21.6 829.59,-16.58 953.36,-16.05"/>
<polygon fill="#63b8ff" stroke="#63b8ff" points="953.71,-19.55 963.7,-16.01 953.69,-12.55 953.71,-19.55"/>
</a>
</g>
</g>
<!-- Node7 -->
<g id="Node000007" class="node">
<title>Node7</title>
<g id="a_Node000007"><a xlink:href="ReflectionMacros_8h.html" target="_top" xlink:title="adapted from https://github.com/tapika/TestCppReflect">
<polygon fill="white" stroke="#666666" points="472,-85 362,-85 362,-66 472,-66 472,-85"/>
<text text-anchor="middle" x="417" y="-73" font-family="Helvetica,sans-Serif" font-size="10.00">ReflectionMacros.h</text>
</a>
</g>
</g>
<!-- Node6&#45;&gt;Node7 -->
<g id="edge6_Node000006_Node000007" class="edge">
<title>Node6&#45;&gt;Node7</title>
<g id="a_edge6_Node000006_Node000007"><a xlink:title=" ">
<path fill="none" stroke="#63b8ff" d="M462.08,-120.75C454.22,-113.03 442.57,-101.6 433.08,-92.28"/>
<polygon fill="#63b8ff" stroke="#63b8ff" points="435.34,-89.6 425.75,-85.09 430.44,-94.59 435.34,-89.6"/>
</a>
</g>
</g>
<!-- Node6&#45;&gt;Node8 -->
<g id="edge7_Node000006_Node000008" class="edge">
<title>Node6&#45;&gt;Node8</title>
<g id="a_edge7_Node000006_Node000008"><a xlink:title=" ">
<path fill="none" stroke="#63b8ff" d="M498.31,-120.98C527.62,-111.85 574.24,-97.31 606.16,-87.36"/>
<polygon fill="#63b8ff" stroke="#63b8ff" points="607.47,-90.62 615.97,-84.3 605.38,-83.94 607.47,-90.62"/>
</a>
</g>
</g>
<!-- Node9 -->
<g id="Node000009" class="node">
<title>Node9</title>
<g id="a_Node000009"><a xlink:title=" ">
<polygon fill="#e0e0e0" stroke="#999999" points="1239.5,-24.5 1146.5,-24.5 1146.5,-5.5 1239.5,-5.5 1239.5,-24.5"/>
<text text-anchor="middle" x="1193" y="-12.5" font-family="Helvetica,sans-Serif" font-size="10.00">unordered_map</text>
</a>
</g>
</g>
<!-- Node6&#45;&gt;Node9 -->
<g id="edge8_Node000006_Node000009" class="edge">
<title>Node6&#45;&gt;Node9</title>
<g id="a_edge8_Node000006_Node000009"><a xlink:title=" ">
<path fill="none" stroke="#63b8ff" d="M490.02,-120.93C509.62,-112.07 541.03,-97.75 568,-85 585.43,-76.76 588.41,-71.13 607,-66 619.68,-62.5 991.6,-32.24 1136.24,-20.57"/>
<polygon fill="#63b8ff" stroke="#63b8ff" points="1136.56,-24.05 1146.25,-19.76 1136,-17.08 1136.56,-24.05"/>
</a>
</g>
</g>
<!-- Node10 -->
<g id="Node000010" class="node">
<title>Node10</title>
<g id="a_Node000010"><a xlink:title=" ">
<polygon fill="#e0e0e0" stroke="#999999" points="559.5,-85 490.5,-85 490.5,-66 559.5,-66 559.5,-85"/>
<text text-anchor="middle" x="525" y="-73" font-family="Helvetica,sans-Serif" font-size="10.00">type_traits</text>
</a>
</g>
</g>
<!-- Node6&#45;&gt;Node10 -->
<g id="edge10_Node000006_Node000010" class="edge">
<title>Node6&#45;&gt;Node10</title>
<g id="a_edge10_Node000006_Node000010"><a xlink:title=" ">
<path fill="none" stroke="#63b8ff" d="M479.92,-120.75C487.78,-113.03 499.43,-101.6 508.92,-92.28"/>
<polygon fill="#63b8ff" stroke="#63b8ff" points="511.56,-94.59 516.25,-85.09 506.66,-89.6 511.56,-94.59"/>
</a>
</g>
</g>
<!-- Node13 -->
<g id="Node000013" class="node">
<title>Node13</title>
<g id="a_Node000013"><a xlink:title=" ">
<polygon fill="#e0e0e0" stroke="#999999" points="160,-140 104,-140 104,-121 160,-121 160,-140"/>
<text text-anchor="middle" x="132" y="-128" font-family="Helvetica,sans-Serif" font-size="10.00">sstream</text>
</a>
</g>
</g>
<!-- Node12&#45;&gt;Node13 -->
<g id="edge14_Node000012_Node000013" class="edge">
<title>Node12&#45;&gt;Node13</title>
<g id="a_edge14_Node000012_Node000013"><a xlink:title=" ">
<path fill="none" stroke="#63b8ff" d="M284.72,-176.22C253.77,-167.16 204.01,-152.58 169.74,-142.55"/>
<polygon fill="#63b8ff" stroke="#63b8ff" points="170.66,-139.17 160.08,-139.72 168.7,-145.89 170.66,-139.17"/>
</a>
</g>
</g>
<!-- Node14 -->
<g id="Node000014" class="node">
<title>Node14</title>
<g id="a_Node000014"><a xlink:title=" ">
<polygon fill="#e0e0e0" stroke="#999999" points="243.5,-140 178.5,-140 178.5,-121 243.5,-121 243.5,-140"/>
<text text-anchor="middle" x="211" y="-128" font-family="Helvetica,sans-Serif" font-size="10.00">stdexcept</text>
</a>
</g>
</g>
<!-- Node12&#45;&gt;Node14 -->
<g id="edge15_Node000012_Node000014" class="edge">
<title>Node12&#45;&gt;Node14</title>
<g id="a_edge15_Node000012_Node000014"><a xlink:title=" ">
<path fill="none" stroke="#63b8ff" d="M296.61,-175.98C280.43,-167.57 255.43,-154.59 236.62,-144.81"/>
<polygon fill="#63b8ff" stroke="#63b8ff" points="238.17,-141.68 227.69,-140.17 234.95,-147.89 238.17,-141.68"/>
</a>
</g>
</g>
<!-- Node16&#45;&gt;Node5 -->
<g id="edge18_Node000016_Node000005" class="edge">
<title>Node16&#45;&gt;Node5</title>
<g id="a_edge18_Node000016_Node000005"><a xlink:title=" ">
<path fill="none" stroke="#63b8ff" d="M783.33,-233C739.85,-223.48 658.75,-205.72 610.35,-195.12"/>
<polygon fill="#63b8ff" stroke="#63b8ff" points="611.06,-191.69 600.54,-192.97 609.56,-198.53 611.06,-191.69"/>
</a>
</g>
</g>
<!-- Node16&#45;&gt;Node12 -->
<g id="edge41_Node000016_Node000012" class="edge">
<title>Node16&#45;&gt;Node12</title>
<g id="a_edge41_Node000016_Node000012"><a xlink:title=" ">
<path fill="none" stroke="#63b8ff" d="M783.22,-236.34C697,-227.2 447.19,-200.72 351.2,-190.55"/>
<polygon fill="#63b8ff" stroke="#63b8ff" points="351.38,-187.05 341.07,-189.48 350.64,-194.01 351.38,-187.05"/>
</a>
</g>
</g>
<!-- Node17 -->
<g id="Node000017" class="node">
<title>Node17</title>
<g id="a_Node000017"><a xlink:href="IConstraint_8h.html" target="_top" xlink:title="Interface for constraints.">
<polygon fill="white" stroke="#666666" points="856.5,-195 777.5,-195 777.5,-176 856.5,-176 856.5,-195"/>
<text text-anchor="middle" x="817" y="-183" font-family="Helvetica,sans-Serif" font-size="10.00">IConstraint.h</text>
</a>
</g>
</g>
<!-- Node16&#45;&gt;Node17 -->
<g id="edge19_Node000016_Node000017" class="edge">
<title>Node16&#45;&gt;Node17</title>
<g id="a_edge19_Node000016_Node000017"><a xlink:title=" ">
<path fill="none" stroke="#63b8ff" d="M813.66,-230.75C814.18,-223.8 814.94,-213.85 815.59,-205.13"/>
<polygon fill="#63b8ff" stroke="#63b8ff" points="819.09,-205.32 816.35,-195.09 812.11,-204.8 819.09,-205.32"/>
</a>
</g>
</g>
<!-- Node18 -->
<g id="Node000018" class="node">
<title>Node18</title>
<g id="a_Node000018"><a xlink:title=" ">
<polygon fill="#e0e0e0" stroke="#999999" points="938.5,-140 819.5,-140 819.5,-121 938.5,-121 938.5,-140"/>
<text text-anchor="middle" x="879" y="-128" font-family="Helvetica,sans-Serif" font-size="10.00">interface/param.pb.h</text>
</a>
</g>
</g>
<!-- Node16&#45;&gt;Node18 -->
<g id="edge42_Node000016_Node000018" class="edge">
<title>Node16&#45;&gt;Node18</title>
<g id="a_edge42_Node000016_Node000018"><a xlink:title=" ">
<path fill="none" stroke="#63b8ff" d="M827.65,-230.79C839.56,-222.94 855.84,-210.29 865,-195 873.08,-181.52 876.51,-163.92 877.96,-150.67"/>
<polygon fill="#63b8ff" stroke="#63b8ff" points="881.48,-150.61 878.79,-140.36 874.5,-150.04 881.48,-150.61"/>
</a>
</g>
</g>
<!-- Node20 -->
<g id="Node000020" class="node">
<title>Node20</title>
<g id="a_Node000020"><a xlink:href="IParamDescriptor_8h.html" target="_top" xlink:title="Interface class for ParamDescriptor.">
<polygon fill="white" stroke="#666666" points="1297.5,-195 1188.5,-195 1188.5,-176 1297.5,-176 1297.5,-195"/>
<text text-anchor="middle" x="1243" y="-183" font-family="Helvetica,sans-Serif" font-size="10.00">IParamDescriptor.h</text>
</a>
</g>
</g>
<!-- Node16&#45;&gt;Node20 -->
<g id="edge22_Node000016_Node000020" class="edge">
<title>Node16&#45;&gt;Node20</title>
<g id="a_edge22_Node000016_Node000020"><a xlink:title=" ">
<path fill="none" stroke="#63b8ff" d="M842.56,-235.86C911.39,-227.37 1083.72,-206.13 1178.33,-194.47"/>
<polygon fill="#63b8ff" stroke="#63b8ff" points="1178.85,-197.93 1188.35,-193.24 1178,-190.99 1178.85,-197.93"/>
</a>
</g>
</g>
<!-- Node26 -->
<g id="Node000026" class="node">
<title>Node26</title>
<g id="a_Node000026"><a xlink:href="Path_8h.html" target="_top" xlink:title="Handles Path objects used to uniquely identify and access OIDs.">
<polygon fill="white" stroke="#666666" points="1009.5,-195 962.5,-195 962.5,-176 1009.5,-176 1009.5,-195"/>
<text text-anchor="middle" x="986" y="-183" font-family="Helvetica,sans-Serif" font-size="10.00">Path.h</text>
</a>
</g>
</g>
<!-- Node16&#45;&gt;Node26 -->
<g id="edge35_Node000016_Node000026" class="edge">
<title>Node16&#45;&gt;Node26</title>
<g id="a_edge35_Node000016_Node000026"><a xlink:title=" ">
<path fill="none" stroke="#63b8ff" d="M840.8,-230.98C871.22,-221.66 919.99,-206.72 952.5,-196.76"/>
<polygon fill="#63b8ff" stroke="#63b8ff" points="953.91,-199.99 962.44,-193.72 951.86,-193.3 953.91,-199.99"/>
</a>
</g>
</g>
<!-- Node17&#45;&gt;Node18 -->
<g id="edge20_Node000017_Node000018" class="edge">
<title>Node17&#45;&gt;Node18</title>
<g id="a_edge20_Node000017_Node000018"><a xlink:title=" ">
<path fill="none" stroke="#63b8ff" d="M826.96,-175.98C836.13,-168.15 849.94,-156.34 861.03,-146.86"/>
<polygon fill="#63b8ff" stroke="#63b8ff" points="863.53,-149.33 868.86,-140.17 858.98,-144.01 863.53,-149.33"/>
</a>
</g>
</g>
<!-- Node19 -->
<g id="Node000019" class="node">
<title>Node19</title>
<g id="a_Node000019"><a xlink:title=" ">
<polygon fill="#e0e0e0" stroke="#999999" points="801,-140 665,-140 665,-121 801,-121 801,-140"/>
<text text-anchor="middle" x="733" y="-128" font-family="Helvetica,sans-Serif" font-size="10.00">interface/constraint.pb.h</text>
</a>
</g>
</g>
<!-- Node17&#45;&gt;Node19 -->
<g id="edge21_Node000017_Node000019" class="edge">
<title>Node17&#45;&gt;Node19</title>
<g id="a_edge21_Node000017_Node000019"><a xlink:title=" ">
<path fill="none" stroke="#63b8ff" d="M803.5,-175.98C790.6,-167.84 770.9,-155.41 755.6,-145.76"/>
<polygon fill="#63b8ff" stroke="#63b8ff" points="757.07,-142.55 746.74,-140.17 753.33,-148.47 757.07,-142.55"/>
</a>
</g>
</g>
<!-- Node20&#45;&gt;Node2 -->
<g id="edge23_Node000020_Node000002" class="edge">
<title>Node20&#45;&gt;Node2</title>
<g id="a_edge23_Node000020_Node000002"><a xlink:title=" ">
<path fill="none" stroke="#63b8ff" d="M1271.92,-175.98C1303.98,-166.54 1355.63,-151.34 1389.44,-141.38"/>
<polygon fill="#63b8ff" stroke="#63b8ff" points="1390.72,-144.65 1399.32,-138.47 1388.74,-137.94 1390.72,-144.65"/>
</a>
</g>
</g>
<!-- Node20&#45;&gt;Node18 -->
<g id="edge34_Node000020_Node000018" class="edge">
<title>Node20&#45;&gt;Node18</title>
<g id="a_edge34_Node000020_Node000018"><a xlink:title=" ">
<path fill="none" stroke="#63b8ff" d="M1188.11,-176.51C1123.85,-167.15 1017.34,-151.64 947.66,-141.5"/>
<polygon fill="#63b8ff" stroke="#63b8ff" points="948.06,-138.02 937.66,-140.04 947.05,-144.95 948.06,-138.02"/>
</a>
</g>
</g>
<!-- Node21 -->
<g id="Node000021" class="node">
<title>Node21</title>
<g id="a_Node000021"><a xlink:href="PolyglotText_8h.html" target="_top" xlink:title="Polyglot Text serialization and deserialization to protobuf.">
<polygon fill="white" stroke="#666666" points="1381,-140 1295,-140 1295,-121 1381,-121 1381,-140"/>
<text text-anchor="middle" x="1338" y="-128" font-family="Helvetica,sans-Serif" font-size="10.00">PolyglotText.h</text>
</a>
</g>
</g>
<!-- Node20&#45;&gt;Node21 -->
<g id="edge24_Node000020_Node000021" class="edge">
<title>Node20&#45;&gt;Node21</title>
<g id="a_edge24_Node000020_Node000021"><a xlink:title=" ">
<path fill="none" stroke="#63b8ff" d="M1258.26,-175.98C1273.13,-167.69 1295.98,-154.94 1313.42,-145.22"/>
<polygon fill="#63b8ff" stroke="#63b8ff" points="1315.43,-148.1 1322.46,-140.17 1312.02,-141.99 1315.43,-148.1"/>
</a>
</g>
</g>
<!-- Node21&#45;&gt;Node4 -->
<g id="edge31_Node000021_Node000004" class="edge">
<title>Node21&#45;&gt;Node4</title>
<g id="a_edge31_Node000021_Node000004"><a xlink:title=" ">
<path fill="none" stroke="#63b8ff" d="M1294.97,-122.88C1218.68,-111.11 1067.23,-87.52 1062,-85 1036.53,-72.74 1013.44,-49.18 999.57,-33.03"/>
<polygon fill="#63b8ff" stroke="#63b8ff" points="1001.93,-30.4 992.85,-24.94 996.54,-34.87 1001.93,-30.4"/>
</a>
</g>
</g>
<!-- Node21&#45;&gt;Node9 -->
<g id="edge32_Node000021_Node000009" class="edge">
<title>Node21&#45;&gt;Node9</title>
<g id="a_edge32_Node000021_Node000009"><a xlink:title=" ">
<path fill="none" stroke="#63b8ff" d="M1339.2,-120.59C1340.49,-107.18 1340.87,-81.71 1328,-66 1308.75,-42.49 1277.34,-30.04 1249.66,-23.44"/>
<polygon fill="#63b8ff" stroke="#63b8ff" points="1250.17,-19.97 1239.66,-21.26 1248.68,-26.81 1250.17,-19.97"/>
</a>
</g>
</g>
<!-- Node22 -->
<g id="Node000022" class="node">
<title>Node22</title>
<g id="a_Node000022"><a xlink:href="IPolyglotText_8h.html" target="_top" xlink:title="Catena&#39;s multi&#45;language text interface.">
<polygon fill="white" stroke="#666666" points="1502.5,-85 1413.5,-85 1413.5,-66 1502.5,-66 1502.5,-85"/>
<text text-anchor="middle" x="1458" y="-73" font-family="Helvetica,sans-Serif" font-size="10.00">IPolyglotText.h</text>
</a>
</g>
</g>
<!-- Node21&#45;&gt;Node22 -->
<g id="edge25_Node000021_Node000022" class="edge">
<title>Node21&#45;&gt;Node22</title>
<g id="a_edge25_Node000021_Node000022"><a xlink:title=" ">
<path fill="none" stroke="#63b8ff" d="M1357.28,-120.98C1376.67,-112.42 1406.81,-99.11 1429.07,-89.28"/>
<polygon fill="#63b8ff" stroke="#63b8ff" points="1430.64,-92.41 1438.37,-85.17 1427.81,-86.01 1430.64,-92.41"/>
</a>
</g>
</g>
<!-- Node24 -->
<g id="Node000024" class="node">
<title>Node24</title>
<g id="a_Node000024"><a xlink:title=" ">
<polygon fill="#e0e0e0" stroke="#999999" points="1572.5,-24.5 1489.5,-24.5 1489.5,-5.5 1572.5,-5.5 1572.5,-24.5"/>
<text text-anchor="middle" x="1531" y="-12.5" font-family="Helvetica,sans-Serif" font-size="10.00">initializer_list</text>
</a>
</g>
</g>
<!-- Node21&#45;&gt;Node24 -->
<g id="edge33_Node000021_Node000024" class="edge">
<title>Node21&#45;&gt;Node24</title>
<g id="a_edge33_Node000021_Node000024"><a xlink:title=" ">
<path fill="none" stroke="#63b8ff" d="M1380.52,-120.95C1428.92,-110.86 1502.54,-94.28 1512,-85 1525.41,-71.83 1529.61,-50.13 1530.8,-34.58"/>
<polygon fill="#63b8ff" stroke="#63b8ff" points="1534.29,-34.69 1531.22,-24.55 1527.3,-34.4 1534.29,-34.69"/>
</a>
</g>
</g>
<!-- Node25 -->
<g id="Node000025" class="node">
<title>Node25</title>
<g id="a_Node000025"><a xlink:title=" ">
<polygon fill="#e0e0e0" stroke="#999999" points="1319,-85 1187,-85 1187,-66 1319,-66 1319,-85"/>
<text text-anchor="middle" x="1253" y="-73" font-family="Helvetica,sans-Serif" font-size="10.00">interface/language.pb.h</text>
</a>
</g>
</g>
<!-- Node21&#45;&gt;Node25 -->
<g id="edge30_Node000021_Node000025" class="edge">
<title>Node21&#45;&gt;Node25</title>
<g id="a_edge30_Node000021_Node000025"><a xlink:title=" ">
<path fill="none" stroke="#63b8ff" d="M1324.34,-120.98C1311.16,-112.77 1290.97,-100.18 1275.43,-90.49"/>
<polygon fill="#63b8ff" stroke="#63b8ff" points="1277.24,-87.49 1266.91,-85.17 1273.54,-93.43 1277.24,-87.49"/>
</a>
</g>
</g>
<!-- Node22&#45;&gt;Node4 -->
<g id="edge28_Node000022_Node000004" class="edge">
<title>Node22&#45;&gt;Node4</title>
<g id="a_edge28_Node000022_Node000004"><a xlink:title=" ">
<path fill="none" stroke="#63b8ff" d="M1413.17,-68.94C1318.49,-57.21 1100.1,-30.14 1017.99,-19.96"/>
<polygon fill="#63b8ff" stroke="#63b8ff" points="1018.35,-16.48 1008,-18.73 1017.49,-23.43 1018.35,-16.48"/>
</a>
</g>
</g>
<!-- Node22&#45;&gt;Node9 -->
<g id="edge27_Node000022_Node000009" class="edge">
<title>Node22&#45;&gt;Node9</title>
<g id="a_edge27_Node000022_Node000009"><a xlink:title=" ">
<path fill="none" stroke="#63b8ff" d="M1419.47,-65.99C1372.36,-55.6 1292.62,-37.99 1241.42,-26.69"/>
<polygon fill="#63b8ff" stroke="#63b8ff" points="1242.1,-23.25 1231.58,-24.52 1240.59,-30.09 1242.1,-23.25"/>
</a>
</g>
</g>
<!-- Node23 -->
<g id="Node000023" class="node">
<title>Node23</title>
<g id="a_Node000023"><a xlink:title=" ">
<polygon fill="#e0e0e0" stroke="#999999" points="1471.5,-30 1330.5,-30 1330.5,0 1471.5,0 1471.5,-30"/>
<text text-anchor="start" x="1338.5" y="-18" font-family="Helvetica,sans-Serif" font-size="10.00">google/protobuf/message</text>
<text text-anchor="middle" x="1401" y="-7" font-family="Helvetica,sans-Serif" font-size="10.00">_lite.h</text>
</a>
</g>
</g>
<!-- Node22&#45;&gt;Node23 -->
<g id="edge26_Node000022_Node000023" class="edge">
<title>Node22&#45;&gt;Node23</title>
<g id="a_edge26_Node000022_Node000023"><a xlink:title=" ">
<path fill="none" stroke="#63b8ff" d="M1449.59,-65.87C1442.28,-58.37 1431.4,-47.2 1421.78,-37.33"/>
<polygon fill="#63b8ff" stroke="#63b8ff" points="1424.24,-34.83 1414.75,-30.11 1419.22,-39.72 1424.24,-34.83"/>
</a>
</g>
</g>
<!-- Node22&#45;&gt;Node24 -->
<g id="edge29_Node000022_Node000024" class="edge">
<title>Node22&#45;&gt;Node24</title>
<g id="a_edge29_Node000022_Node000024"><a xlink:title=" ">
<path fill="none" stroke="#63b8ff" d="M1468.77,-65.87C1480.2,-56.71 1498.48,-42.06 1512.28,-31.01"/>
<polygon fill="#63b8ff" stroke="#63b8ff" points="1514.57,-33.65 1520.18,-24.67 1510.19,-28.19 1514.57,-33.65"/>
</a>
</g>
</g>
<!-- Node26&#45;&gt;Node4 -->
<g id="edge37_Node000026_Node000004" class="edge">
<title>Node26&#45;&gt;Node4</title>
<g id="a_edge37_Node000026_Node000004"><a xlink:title=" ">
<path fill="none" stroke="#63b8ff" d="M986,-175.91C986,-149.89 986,-71.47 986,-35.01"/>
<polygon fill="#63b8ff" stroke="#63b8ff" points="989.5,-34.77 986,-24.77 982.5,-34.77 989.5,-34.77"/>
</a>
</g>
</g>
<!-- Node27 -->
<g id="Node000027" class="node">
<title>Node27</title>
<g id="a_Node000027"><a xlink:title=" ">
<polygon fill="#e0e0e0" stroke="#999999" points="1055,-140 995,-140 995,-121 1055,-121 1055,-140"/>
<text text-anchor="middle" x="1025" y="-128" font-family="Helvetica,sans-Serif" font-size="10.00">iostream</text>
</a>
</g>
</g>
<!-- Node26&#45;&gt;Node27 -->
<g id="edge36_Node000026_Node000027" class="edge">
<title>Node26&#45;&gt;Node27</title>
<g id="a_edge36_Node000026_Node000027"><a xlink:title=" ">
<path fill="none" stroke="#63b8ff" d="M992.44,-175.75C997.89,-168.34 1005.86,-157.5 1012.56,-148.41"/>
<polygon fill="#63b8ff" stroke="#63b8ff" points="1015.57,-150.22 1018.68,-140.09 1009.93,-146.07 1015.57,-150.22"/>
</a>
</g>
</g>
<!-- Node28 -->
<g id="Node000028" class="node">
<title>Node28</title>
<g id="a_Node000028"><a xlink:title=" ">
<polygon fill="#e0e0e0" stroke="#999999" points="646.5,-140 599.5,-140 599.5,-121 646.5,-121 646.5,-140"/>
<text text-anchor="middle" x="623" y="-128" font-family="Helvetica,sans-Serif" font-size="10.00">vector</text>
</a>
</g>
</g>
<!-- Node26&#45;&gt;Node28 -->
<g id="edge38_Node000026_Node000028" class="edge">
<title>Node26&#45;&gt;Node28</title>
<g id="a_edge38_Node000026_Node000028"><a xlink:title=" ">
<path fill="none" stroke="#63b8ff" d="M962.23,-182.27C909.24,-177.09 777.24,-163.04 656.84,-139.94"/>
<polygon fill="#63b8ff" stroke="#63b8ff" points="657.2,-136.44 646.72,-137.97 655.86,-143.31 657.2,-136.44"/>
</a>
</g>
</g>
<!-- Node29 -->
<g id="Node000029" class="node">
<title>Node29</title>
<g id="a_Node000029"><a xlink:title=" ">
<polygon fill="#e0e0e0" stroke="#999999" points="1124.5,-140 1073.5,-140 1073.5,-121 1124.5,-121 1124.5,-140"/>
<text text-anchor="middle" x="1099" y="-128" font-family="Helvetica,sans-Serif" font-size="10.00">variant</text>
</a>
</g>
</g>
<!-- Node26&#45;&gt;Node29 -->
<g id="edge39_Node000026_Node000029" class="edge">
<title>Node26&#45;&gt;Node29</title>
<g id="a_edge39_Node000026_Node000029"><a xlink:title=" ">
<path fill="none" stroke="#63b8ff" d="M1004.16,-175.98C1022.25,-167.5 1050.28,-154.35 1071.19,-144.54"/>
<polygon fill="#63b8ff" stroke="#63b8ff" points="1072.95,-147.59 1080.51,-140.17 1069.97,-141.25 1072.95,-147.59"/>
</a>
</g>
</g>
<!-- Node30 -->
<g id="Node000030" class="node">
<title>Node30</title>
<g id="a_Node000030"><a xlink:title=" ">
<polygon fill="#e0e0e0" stroke="#999999" points="1201,-140 1143,-140 1143,-121 1201,-121 1201,-140"/>
<text text-anchor="middle" x="1172" y="-128" font-family="Helvetica,sans-Serif" font-size="10.00">memory</text>
</a>
</g>
</g>
<!-- Node26&#45;&gt;Node30 -->
<g id="edge40_Node000026_Node000030" class="edge">
<title>Node26&#45;&gt;Node30</title>
<g id="a_edge40_Node000026_Node000030"><a xlink:title=" ">
<path fill="none" stroke="#63b8ff" d="M1009.56,-177.79C1040.56,-168.95 1095.49,-153.3 1132.81,-142.67"/>
<polygon fill="#63b8ff" stroke="#63b8ff" points="1134.17,-145.92 1142.83,-139.81 1132.25,-139.19 1134.17,-145.92"/>
</a>
</g>
</g>
<!-- Node31&#45;&gt;Node4 -->
<g id="edge59_Node000031_Node000004" class="edge">
<title>Node31&#45;&gt;Node4</title>
<g id="a_edge59_Node000031_Node000004"><a xlink:title=" ">
<path fill="none" stroke="#63b8ff" d="M758.64,-348.36C616.32,-342.77 38,-315.53 38,-241.5 38,-241.5 38,-241.5 38,-129.5 38,-72.28 95.13,-82.24 150,-66 304.75,-20.2 819.74,-16.23 953.85,-15.99"/>
<polygon fill="#63b8ff" stroke="#63b8ff" points="953.89,-19.49 963.89,-15.98 953.88,-12.49 953.89,-19.49"/>
</a>
</g>
</g>
<!-- Node31&#45;&gt;Node11 -->
<g id="edge58_Node000031_Node000011" class="edge">
<title>Node31&#45;&gt;Node11</title>
<g id="a_edge58_Node000031_Node000011"><a xlink:title=" ">
<path fill="none" stroke="#63b8ff" d="M758.65,-347.84C717.17,-344.51 642.79,-334.57 587,-305 513.39,-265.98 522.27,-219.15 451,-176 425.87,-160.78 394.83,-149.91 369.39,-142.72"/>
<polygon fill="#63b8ff" stroke="#63b8ff" points="370.15,-139.3 359.58,-140.05 368.31,-146.05 370.15,-139.3"/>
</a>
</g>
</g>
<!-- Node31&#45;&gt;Node12 -->
<g id="edge56_Node000031_Node000012" class="edge">
<title>Node31&#45;&gt;Node12</title>
<g id="a_edge56_Node000031_Node000012"><a xlink:title=" ">
<path fill="none" stroke="#63b8ff" d="M758.78,-348.92C704.33,-347 589.18,-338.89 499,-305 431.51,-279.64 362.68,-227.47 330.99,-201.66"/>
<polygon fill="#63b8ff" stroke="#63b8ff" points="333.01,-198.79 323.07,-195.12 328.55,-204.19 333.01,-198.79"/>
</a>
</g>
</g>
<!-- Node31&#45;&gt;Node15 -->
<g id="edge57_Node000031_Node000015" class="edge">
<title>Node31&#45;&gt;Node15</title>
<g id="a_edge57_Node000031_Node000015"><a xlink:title=" ">
<path fill="none" stroke="#63b8ff" d="M819.4,-340.98C850.39,-332.01 899.38,-317.82 933.67,-307.89"/>
<polygon fill="#63b8ff" stroke="#63b8ff" points="934.74,-311.23 943.37,-305.08 932.79,-304.5 934.74,-311.23"/>
</a>
</g>
</g>
<!-- Node31&#45;&gt;Node16 -->
<g id="edge52_Node000031_Node000016" class="edge">
<title>Node31&#45;&gt;Node16</title>
<g id="a_edge52_Node000031_Node000016"><a xlink:title=" ">
<path fill="none" stroke="#63b8ff" d="M791.88,-340.66C795.62,-323.09 804.07,-283.45 809.07,-259.95"/>
<polygon fill="#63b8ff" stroke="#63b8ff" points="812.5,-260.67 811.16,-250.16 805.65,-259.21 812.5,-260.67"/>
</a>
</g>
</g>
<!-- Node31&#45;&gt;Node26 -->
<g id="edge51_Node000031_Node000026" class="edge">
<title>Node31&#45;&gt;Node26</title>
<g id="a_edge51_Node000031_Node000026"><a xlink:title=" ">
<path fill="none" stroke="#63b8ff" d="M797.63,-340.86C808.95,-328.23 831.11,-304.25 852,-286 889.64,-253.12 937.4,-219.37 964.55,-200.86"/>
<polygon fill="#63b8ff" stroke="#63b8ff" points="966.6,-203.69 972.92,-195.18 962.68,-197.9 966.6,-203.69"/>
</a>
</g>
</g>
<!-- Node31&#45;&gt;Node28 -->
<g id="edge60_Node000031_Node000028" class="edge">
<title>Node31&#45;&gt;Node28</title>
<g id="a_edge60_Node000031_Node000028"><a xlink:title=" ">
<path fill="none" stroke="#63b8ff" d="M783.45,-340.95C758.57,-308.47 669.57,-192.29 635.97,-148.43"/>
<polygon fill="#63b8ff" stroke="#63b8ff" points="638.54,-146.03 629.68,-140.22 632.99,-150.29 638.54,-146.03"/>
</a>
</g>
</g>
<!-- Node31&#45;&gt;Node32 -->
<g id="edge44_Node000031_Node000032" class="edge">
<title>Node31&#45;&gt;Node32</title>
<g id="a_edge44_Node000031_Node000032"><a xlink:title=" ">
<path fill="none" stroke="#63b8ff" d="M821.12,-345.52C890.76,-336.6 1059.97,-314.94 1148.28,-303.63"/>
<polygon fill="#63b8ff" stroke="#63b8ff" points="1148.9,-307.08 1158.38,-302.34 1148.01,-300.14 1148.9,-307.08"/>
</a>
</g>
</g>
<!-- Node34 -->
<g id="Node000034" class="node">
<title>Node34</title>
<g id="a_Node000034"><a xlink:href="ILanguagePack_8h.html" target="_top" xlink:title="Interface for language packs.">
<polygon fill="white" stroke="#666666" points="1169,-85 1071,-85 1071,-66 1169,-66 1169,-85"/>
<text text-anchor="middle" x="1120" y="-73" font-family="Helvetica,sans-Serif" font-size="10.00">ILanguagePack.h</text>
</a>
</g>
</g>
<!-- Node31&#45;&gt;Node34 -->
<g id="edge53_Node000031_Node000034" class="edge">
<title>Node31&#45;&gt;Node34</title>
<g id="a_edge53_Node000031_Node000034"><a xlink:title=" ">
<path fill="none" stroke="#63b8ff" d="M807.77,-340.95C886.94,-302.82 1204,-149.7 1210,-140 1224.8,-116.08 1192.88,-98.69 1163.05,-88.21"/>
<polygon fill="#63b8ff" stroke="#63b8ff" points="1164.09,-84.87 1153.5,-85.06 1161.89,-91.52 1164.09,-84.87"/>
</a>
</g>
</g>
<!-- Node35 -->
<g id="Node000035" class="node">
<title>Node35</title>
<g id="a_Node000035"><a xlink:title=" ">
<polygon fill="#e0e0e0" stroke="#999999" points="658,-305 596,-305 596,-286 658,-286 658,-305"/>
<text text-anchor="middle" x="627" y="-293" font-family="Helvetica,sans-Serif" font-size="10.00">coroutine</text>
</a>
</g>
</g>
<!-- Node31&#45;&gt;Node35 -->
<g id="edge61_Node000031_Node000035" class="edge">
<title>Node31&#45;&gt;Node35</title>
<g id="a_edge61_Node000031_Node000035"><a xlink:title=" ">
<path fill="none" stroke="#63b8ff" d="M763.81,-340.98C736.56,-332.13 693.7,-318.19 663.22,-308.28"/>
<polygon fill="#63b8ff" stroke="#63b8ff" points="663.99,-304.85 653.39,-305.08 661.82,-311.5 663.99,-304.85"/>
</a>
</g>
</g>
<!-- Node36 -->
<g id="Node000036" class="node">
<title>Node36</title>
<g id="a_Node000036"><a xlink:title=" ">
<polygon fill="#e0e0e0" stroke="#999999" points="724,-305 676,-305 676,-286 724,-286 724,-305"/>
<text text-anchor="middle" x="700" y="-293" font-family="Helvetica,sans-Serif" font-size="10.00">mutex</text>
</a>
</g>
</g>
<!-- Node31&#45;&gt;Node36 -->
<g id="edge62_Node000031_Node000036" class="edge">
<title>Node31&#45;&gt;Node36</title>
<g id="a_edge62_Node000031_Node000036"><a xlink:title=" ">
<path fill="none" stroke="#63b8ff" d="M775.54,-340.98C761.58,-332.77 740.21,-320.18 723.75,-310.49"/>
<polygon fill="#63b8ff" stroke="#63b8ff" points="725.12,-307.23 714.72,-305.17 721.56,-313.26 725.12,-307.23"/>
</a>
</g>
</g>
<!-- Node32&#45;&gt;Node3 -->
<g id="edge50_Node000032_Node000003" class="edge">
<title>Node32&#45;&gt;Node3</title>
<g id="a_edge50_Node000032_Node000003"><a xlink:title=" ">
<path fill="none" stroke="#63b8ff" d="M1219.21,-285.95C1278.48,-252.65 1494.27,-131.41 1567.5,-90.27"/>
<polygon fill="#63b8ff" stroke="#63b8ff" points="1569.47,-93.17 1576.47,-85.22 1566.04,-87.07 1569.47,-93.17"/>
</a>
</g>
</g>
<!-- Node32&#45;&gt;Node5 -->
<g id="edge46_Node000032_Node000005" class="edge">
<title>Node32&#45;&gt;Node5</title>
<g id="a_edge46_Node000032_Node000005"><a xlink:title=" ">
<path fill="none" stroke="#63b8ff" d="M1158.36,-285.98C1091.13,-273.51 961.51,-249.72 851,-231 765.52,-216.52 665.11,-200.9 610.78,-192.56"/>
<polygon fill="#63b8ff" stroke="#63b8ff" points="611.28,-189.1 600.87,-191.04 610.22,-196.02 611.28,-189.1"/>
</a>
</g>
</g>
<!-- Node32&#45;&gt;Node16 -->
<g id="edge47_Node000032_Node000016" class="edge">
<title>Node32&#45;&gt;Node16</title>
<g id="a_edge47_Node000032_Node000016"><a xlink:title=" ">
<path fill="none" stroke="#63b8ff" d="M1158.38,-288.32C1081.1,-277.84 925.72,-256.78 852.67,-246.88"/>
<polygon fill="#63b8ff" stroke="#63b8ff" points="852.89,-243.38 842.51,-245.5 851.95,-250.31 852.89,-243.38"/>
</a>
</g>
</g>
<!-- Node32&#45;&gt;Node20 -->
<g id="edge48_Node000032_Node000020" class="edge">
<title>Node32&#45;&gt;Node20</title>
<g id="a_edge48_Node000032_Node000020"><a xlink:title=" ">
<path fill="none" stroke="#63b8ff" d="M1216.49,-285.93C1226.87,-277.99 1240.88,-265.14 1247,-250 1252.82,-235.6 1251.04,-217.86 1248.25,-204.79"/>
<polygon fill="#63b8ff" stroke="#63b8ff" points="1251.65,-203.94 1245.82,-195.09 1244.86,-205.64 1251.65,-203.94"/>
</a>
</g>
</g>
<!-- Node32&#45;&gt;Node26 -->
<g id="edge45_Node000032_Node000026" class="edge">
<title>Node32&#45;&gt;Node26</title>
<g id="a_edge45_Node000032_Node000026"><a xlink:title=" ">
<path fill="none" stroke="#63b8ff" d="M1186.53,-285.84C1148.41,-266.96 1057.57,-221.96 1012.41,-199.59"/>
<polygon fill="#63b8ff" stroke="#63b8ff" points="1013.77,-196.35 1003.25,-195.05 1010.66,-202.62 1013.77,-196.35"/>
</a>
</g>
</g>
<!-- Node33 -->
<g id="Node000033" class="node">
<title>Node33</title>
<g id="a_Node000033"><a xlink:title=" ">
<polygon fill="#e0e0e0" stroke="#999999" points="1238,-250 1158,-250 1158,-231 1238,-231 1238,-250"/>
<text text-anchor="middle" x="1198" y="-238" font-family="Helvetica,sans-Serif" font-size="10.00">jwt&#45;cpp/jwt.h</text>
</a>
</g>
</g>
<!-- Node32&#45;&gt;Node33 -->
<g id="edge49_Node000032_Node000033" class="edge">
<title>Node32&#45;&gt;Node33</title>
<g id="a_edge49_Node000032_Node000033"><a xlink:title=" ">
<path fill="none" stroke="#63b8ff" d="M1203.01,-285.75C1202.22,-278.8 1201.1,-268.85 1200.11,-260.13"/>
<polygon fill="#63b8ff" stroke="#63b8ff" points="1203.58,-259.63 1198.97,-250.09 1196.62,-260.42 1203.58,-259.63"/>
</a>
</g>
</g>
<!-- Node34&#45;&gt;Node4 -->
<g id="edge54_Node000034_Node000004" class="edge">
<title>Node34&#45;&gt;Node4</title>
<g id="a_edge54_Node000034_Node000004"><a xlink:title=" ">
<path fill="none" stroke="#63b8ff" d="M1100.52,-65.99C1077.99,-56.16 1040.69,-39.88 1014.81,-28.58"/>
<polygon fill="#63b8ff" stroke="#63b8ff" points="1016.07,-25.31 1005.51,-24.52 1013.27,-31.73 1016.07,-25.31"/>
</a>
</g>
</g>
<!-- Node34&#45;&gt;Node9 -->
<g id="edge55_Node000034_Node000009" class="edge">
<title>Node34&#45;&gt;Node9</title>
<g id="a_edge55_Node000034_Node000009"><a xlink:title=" ">
<path fill="none" stroke="#63b8ff" d="M1130.77,-65.87C1142.2,-56.71 1160.48,-42.06 1174.28,-31.01"/>
<polygon fill="#63b8ff" stroke="#63b8ff" points="1176.57,-33.65 1182.18,-24.67 1172.19,-28.19 1176.57,-33.65"/>
</a>
</g>
</g>
<!-- Node37&#45;&gt;Node4 -->
<g id="edge66_Node000037_Node000004" class="edge">
<title>Node37&#45;&gt;Node4</title>
<g id="a_edge66_Node000037_Node000004"><a xlink:title=" ">
<path fill="none" stroke="#63b8ff" d="M1018.38,-395.94C1034.65,-388.33 1057.26,-375.95 1073,-360 1139.3,-292.84 1124.41,-252.99 1179,-176 1195.23,-153.11 1227.79,-142.7 1210,-121 1158.28,-57.91 1097.32,-131.08 1030,-85 1011.92,-72.62 999.66,-50.12 992.76,-34.18"/>
<polygon fill="#63b8ff" stroke="#63b8ff" points="995.98,-32.8 989,-24.83 989.48,-35.41 995.98,-32.8"/>
</a>
</g>
</g>
<!-- Node37&#45;&gt;Node16 -->
<g id="edge68_Node000037_Node000016" class="edge">
<title>Node37&#45;&gt;Node16</title>
<g id="a_edge68_Node000037_Node000016"><a xlink:title=" ">
<path fill="none" stroke="#63b8ff" d="M1001.53,-395.7C1011.09,-371.23 1035.86,-303 1022,-286 973.88,-226.98 928.32,-264.27 852.54,-250.98"/>
<polygon fill="#63b8ff" stroke="#63b8ff" points="853.15,-247.54 842.65,-248.99 851.76,-254.4 853.15,-247.54"/>
</a>
</g>
</g>
<!-- Node37&#45;&gt;Node31 -->
<g id="edge67_Node000037_Node000031" class="edge">
<title>Node37&#45;&gt;Node31</title>
<g id="a_edge67_Node000037_Node000031"><a xlink:title=" ">
<path fill="none" stroke="#63b8ff" d="M964.58,-395.98C928.32,-386.74 870.38,-371.98 831.29,-362.02"/>
<polygon fill="#63b8ff" stroke="#63b8ff" points="831.85,-358.55 821.29,-359.47 830.12,-365.33 831.85,-358.55"/>
</a>
</g>
</g>
<!-- Node37&#45;&gt;Node32 -->
<g id="edge69_Node000037_Node000032" class="edge">
<title>Node37&#45;&gt;Node32</title>
<g id="a_edge69_Node000037_Node000032"><a xlink:title=" ">
<path fill="none" stroke="#63b8ff" d="M1048.01,-395.96C1077.53,-389.34 1114.72,-378.15 1144,-360 1163.64,-347.83 1181.16,-327.65 1192.12,-313.31"/>
<polygon fill="#63b8ff" stroke="#63b8ff" points="1194.94,-315.38 1198.06,-305.25 1189.31,-311.23 1194.94,-315.38"/>
</a>
</g>
</g>
<!-- Node38 -->
<g id="Node000038" class="node">
<title>Node38</title>
<g id="a_Node000038"><a xlink:title=" ">
<polygon fill="#e0e0e0" stroke="#999999" points="1064,-360 1032,-360 1032,-341 1064,-341 1064,-360"/>
<text text-anchor="middle" x="1048" y="-348" font-family="Helvetica,sans-Serif" font-size="10.00">set</text>
</a>
</g>
</g>
<!-- Node37&#45;&gt;Node38 -->
<g id="edge65_Node000037_Node000038" class="edge">
<title>Node37&#45;&gt;Node38</title>
<g id="a_edge65_Node000037_Node000038"><a xlink:title=" ">
<path fill="none" stroke="#63b8ff" d="M1006.26,-395.75C1013.46,-388.11 1024.11,-376.82 1032.85,-367.56"/>
<polygon fill="#63b8ff" stroke="#63b8ff" points="1035.58,-369.76 1039.9,-360.09 1030.49,-364.96 1035.58,-369.76"/>
</a>
</g>
</g>
<!-- Node39&#45;&gt;Node4 -->
<g id="edge73_Node000039_Node000004" class="edge">
<title>Node39&#45;&gt;Node4</title>
<g id="a_edge73_Node000039_Node000004"><a xlink:title=" ">
<path fill="none" stroke="#63b8ff" d="M340.99,-289.6C262.62,-277.35 76,-242.31 76,-186.5 76,-186.5 76,-186.5 76,-129.5 76,-39.13 791.72,-19.78 953.68,-16.56"/>
<polygon fill="#63b8ff" stroke="#63b8ff" points="954.03,-20.05 963.96,-16.36 953.89,-13.06 954.03,-20.05"/>
</a>
</g>
</g>
<!-- Node39&#45;&gt;Node11 -->
<g id="edge72_Node000039_Node000011" class="edge">
<title>Node39&#45;&gt;Node11</title>
<g id="a_edge72_Node000039_Node000011"><a xlink:title=" ">
<path fill="none" stroke="#63b8ff" d="M374.27,-285.85C372.36,-265.83 366.17,-215.04 350,-176 345.95,-166.22 339.7,-156.26 334.04,-148.25"/>
<polygon fill="#63b8ff" stroke="#63b8ff" points="336.81,-146.11 328.04,-140.15 331.18,-150.27 336.81,-146.11"/>
</a>
</g>
</g>
<!-- Node39&#45;&gt;Node16 -->
<g id="edge71_Node000039_Node000016" class="edge">
<title>Node39&#45;&gt;Node16</title>
<g id="a_edge71_Node000039_Node000016"><a xlink:title=" ">
<path fill="none" stroke="#63b8ff" d="M409,-290.39C488.89,-280.72 688.17,-256.61 773.36,-246.3"/>
<polygon fill="#63b8ff" stroke="#63b8ff" points="773.9,-249.76 783.41,-245.08 773.06,-242.81 773.9,-249.76"/>
</a>
</g>
</g>
</g>
</svg>
