<?xml version="1.0" encoding="UTF-8" standalone="no"?>
<!DOCTYPE svg PUBLIC "-//W3C//DTD SVG 1.1//EN"
 "http://www.w3.org/Graphics/SVG/1.1/DTD/svg11.dtd">
<!-- Generated by graphviz version 2.43.0 (0)
 -->
<!-- Title: /home/runner/work/Catena/Catena/sdks/cpp/common/include/Device.h Pages: 1 -->
<svg width="2219pt" height="390pt"
 viewBox="0.00 0.00 2219.00 390.00" xmlns="http://www.w3.org/2000/svg" xmlns:xlink="http://www.w3.org/1999/xlink">
<g id="graph0" class="graph" transform="scale(1 1) rotate(0) translate(4 386)">
<title>/home/runner/work/Catena/Catena/sdks/cpp/common/include/Device.h</title>
<!-- Node1 -->
<g id="Node000001" class="node">
<title>Node1</title>
<g id="a_Node000001"><a xlink:title="Device class definition.">
<polygon fill="#999999" stroke="#666666" points="1671,-382 1525,-382 1525,-341 1671,-341 1671,-382"/>
<text text-anchor="start" x="1533" y="-370" font-family="Helvetica,sans-Serif" font-size="10.00">/home/runner/work/Catena</text>
<text text-anchor="start" x="1533" y="-359" font-family="Helvetica,sans-Serif" font-size="10.00">/Catena/sdks/cpp/common</text>
<text text-anchor="middle" x="1598" y="-348" font-family="Helvetica,sans-Serif" font-size="10.00">/include/Device.h</text>
</a>
</g>
</g>
<!-- Node2 -->
<g id="Node000002" class="node">
<title>Node2</title>
<g id="a_Node000002"><a xlink:href="Authorization_8h.html" target="_top" xlink:title="Class for handling authorization information.">
<polygon fill="white" stroke="#666666" points="905.5,-305 814.5,-305 814.5,-286 905.5,-286 905.5,-305"/>
<text text-anchor="middle" x="860" y="-293" font-family="Helvetica,sans-Serif" font-size="10.00">Authorization.h</text>
</a>
</g>
</g>
<!-- Node1&#45;&gt;Node2 -->
<g id="edge1_Node000001_Node000002" class="edge">
<title>Node1&#45;&gt;Node2</title>
<g id="a_edge1_Node000001_Node000002"><a xlink:title=" ">
<path fill="none" stroke="#63b8ff" d="M1524.88,-354.16C1377.58,-341.38 1047.97,-312.8 916.1,-301.37"/>
<polygon fill="#63b8ff" stroke="#63b8ff" points="916.1,-297.85 905.83,-300.47 915.49,-304.83 916.1,-297.85"/>
</a>
</g>
</g>
<!-- Node3 -->
<g id="Node000003" class="node">
<title>Node3</title>
<g id="a_Node000003"><a xlink:href="Path_8h.html" target="_top" xlink:title="Handles Path objects used to uniquely identify and access OIDs.">
<polygon fill="white" stroke="#666666" points="608.5,-140 561.5,-140 561.5,-121 608.5,-121 608.5,-140"/>
<text text-anchor="middle" x="585" y="-128" font-family="Helvetica,sans-Serif" font-size="10.00">Path.h</text>
</a>
</g>
</g>
<!-- Node1&#45;&gt;Node3 -->
<g id="edge55_Node000001_Node000003" class="edge">
<title>Node1&#45;&gt;Node3</title>
<g id="a_edge55_Node000001_Node000003"><a xlink:title=" ">
<path fill="none" stroke="#63b8ff" d="M1524.84,-358.21C1337.34,-351.95 849.54,-333.16 782,-305 698.24,-270.08 625.59,-184.51 597.45,-148.22"/>
<polygon fill="#63b8ff" stroke="#63b8ff" points="600.12,-145.94 591.27,-140.11 594.55,-150.18 600.12,-145.94"/>
</a>
</g>
</g>
<!-- Node5 -->
<g id="Node000005" class="node">
<title>Node5</title>
<g id="a_Node000005"><a xlink:title=" ">
<polygon fill="#e0e0e0" stroke="#999999" points="1420,-24.5 1376,-24.5 1376,-5.5 1420,-5.5 1420,-24.5"/>
<text text-anchor="middle" x="1398" y="-12.5" font-family="Helvetica,sans-Serif" font-size="10.00">string</text>
</a>
</g>
</g>
<!-- Node1&#45;&gt;Node5 -->
<g id="edge72_Node000001_Node000005" class="edge">
<title>Node1&#45;&gt;Node5</title>
<g id="a_edge72_Node000001_Node000005"><a xlink:title=" ">
<path fill="none" stroke="#63b8ff" d="M1622,-340.86C1645.57,-319.23 1678,-282.08 1678,-241.5 1678,-241.5 1678,-241.5 1678,-129.5 1678,-100.04 1680.86,-85.75 1659,-66 1625.75,-35.96 1492.67,-22.72 1430.42,-18.08"/>
<polygon fill="#63b8ff" stroke="#63b8ff" points="1430.58,-14.58 1420.36,-17.36 1430.08,-21.57 1430.58,-14.58"/>
</a>
</g>
</g>
<!-- Node6 -->
<g id="Node000006" class="node">
<title>Node6</title>
<g id="a_Node000006"><a xlink:title=" ">
<polygon fill="#e0e0e0" stroke="#999999" points="1043.5,-85 996.5,-85 996.5,-66 1043.5,-66 1043.5,-85"/>
<text text-anchor="middle" x="1020" y="-73" font-family="Helvetica,sans-Serif" font-size="10.00">vector</text>
</a>
</g>
</g>
<!-- Node1&#45;&gt;Node6 -->
<g id="edge74_Node000001_Node000006" class="edge">
<title>Node1&#45;&gt;Node6</title>
<g id="a_edge74_Node000001_Node000006"><a xlink:title=" ">
<path fill="none" stroke="#63b8ff" d="M1524.63,-350.09C1424.14,-333.73 1256,-297.92 1256,-241.5 1256,-241.5 1256,-241.5 1256,-184.5 1256,-140.55 1118.98,-100.87 1053.75,-84.47"/>
<polygon fill="#63b8ff" stroke="#63b8ff" points="1054.48,-81.05 1043.93,-82.05 1052.79,-87.84 1054.48,-81.05"/>
</a>
</g>
</g>
<!-- Node9 -->
<g id="Node000009" class="node">
<title>Node9</title>
<g id="a_Node000009"><a xlink:href="Enums_8h.html" target="_top" xlink:title="tools for using EnumDecorators.">
<polygon fill="white" stroke="#666666" points="363.5,-140 304.5,-140 304.5,-121 363.5,-121 363.5,-140"/>
<text text-anchor="middle" x="334" y="-128" font-family="Helvetica,sans-Serif" font-size="10.00">Enums.h</text>
</a>
</g>
</g>
<!-- Node1&#45;&gt;Node9 -->
<g id="edge56_Node000001_Node000009" class="edge">
<title>Node1&#45;&gt;Node9</title>
<g id="a_edge56_Node000001_Node000009"><a xlink:title=" ">
<path fill="none" stroke="#63b8ff" d="M1524.96,-360.37C1290.26,-359.48 565.22,-352.83 472,-305 404.68,-270.46 359.37,-186.65 341.97,-149.61"/>
<polygon fill="#63b8ff" stroke="#63b8ff" points="344.97,-147.75 337.64,-140.1 338.6,-150.66 344.97,-147.75"/>
</a>
</g>
</g>
<!-- Node13 -->
<g id="Node000013" class="node">
<title>Node13</title>
<g id="a_Node000013"><a xlink:title=" ">
<polygon fill="#e0e0e0" stroke="#999999" points="1850.5,-24.5 1757.5,-24.5 1757.5,-5.5 1850.5,-5.5 1850.5,-24.5"/>
<text text-anchor="middle" x="1804" y="-12.5" font-family="Helvetica,sans-Serif" font-size="10.00">unordered_map</text>
</a>
</g>
</g>
<!-- Node1&#45;&gt;Node13 -->
<g id="edge71_Node000001_Node000013" class="edge">
<title>Node1&#45;&gt;Node13</title>
<g id="a_edge71_Node000001_Node000013"><a xlink:title=" ">
<path fill="none" stroke="#63b8ff" d="M1671.18,-355.12C1723.78,-348.78 1795.01,-334.99 1851,-305 1921,-267.51 2026.61,-92.31 2029,-85 2031.63,-76.97 2034.28,-72.59 2029,-66 2008.29,-40.18 1920.39,-26.85 1860.78,-20.65"/>
<polygon fill="#63b8ff" stroke="#63b8ff" points="1861.04,-17.16 1850.74,-19.65 1860.34,-24.13 1861.04,-17.16"/>
</a>
</g>
</g>
<!-- Node14 -->
<g id="Node000014" class="node">
<title>Node14</title>
<g id="a_Node000014"><a xlink:title=" ">
<polygon fill="#e0e0e0" stroke="#999999" points="476.5,-24.5 407.5,-24.5 407.5,-5.5 476.5,-5.5 476.5,-24.5"/>
<text text-anchor="middle" x="442" y="-12.5" font-family="Helvetica,sans-Serif" font-size="10.00">type_traits</text>
</a>
</g>
</g>
<!-- Node1&#45;&gt;Node14 -->
<g id="edge76_Node000001_Node000014" class="edge">
<title>Node1&#45;&gt;Node14</title>
<g id="a_edge76_Node000001_Node000014"><a xlink:title=" ">
<path fill="none" stroke="#63b8ff" d="M1524.92,-358.94C1211.89,-351.77 0,-319.03 0,-241.5 0,-241.5 0,-241.5 0,-129.5 0,-91.58 23.44,-83.65 57,-66 115.25,-35.36 308.72,-22.37 397.17,-17.93"/>
<polygon fill="#63b8ff" stroke="#63b8ff" points="397.6,-21.41 407.42,-17.43 397.26,-14.42 397.6,-21.41"/>
</a>
</g>
</g>
<!-- Node15 -->
<g id="Node000015" class="node">
<title>Node15</title>
<g id="a_Node000015"><a xlink:title=" ">
<polygon fill="#e0e0e0" stroke="#999999" points="347.5,-85 228.5,-85 228.5,-66 347.5,-66 347.5,-85"/>
<text text-anchor="middle" x="288" y="-73" font-family="Helvetica,sans-Serif" font-size="10.00">interface/device.pb.h</text>
</a>
</g>
</g>
<!-- Node1&#45;&gt;Node15 -->
<g id="edge70_Node000001_Node000015" class="edge">
<title>Node1&#45;&gt;Node15</title>
<g id="a_edge70_Node000001_Node000015"><a xlink:title=" ">
<path fill="none" stroke="#63b8ff" d="M1524.61,-360.37C1276.73,-358.97 486,-346.28 486,-241.5 486,-241.5 486,-241.5 486,-184.5 486,-124.38 414.78,-97.53 357.77,-85.66"/>
<polygon fill="#63b8ff" stroke="#63b8ff" points="358.16,-82.17 347.68,-83.68 356.81,-89.04 358.16,-82.17"/>
</a>
</g>
</g>
<!-- Node16 -->
<g id="Node000016" class="node">
<title>Node16</title>
<g id="a_Node000016"><a xlink:href="IParam_8h.html" target="_top" xlink:title="Interface for parameters.">
<polygon fill="white" stroke="#666666" points="783.5,-195 724.5,-195 724.5,-176 783.5,-176 783.5,-195"/>
<text text-anchor="middle" x="754" y="-183" font-family="Helvetica,sans-Serif" font-size="10.00">IParam.h</text>
</a>
</g>
</g>
<!-- Node1&#45;&gt;Node16 -->
<g id="edge58_Node000001_Node000016" class="edge">
<title>Node1&#45;&gt;Node16</title>
<g id="a_edge58_Node000001_Node000016"><a xlink:title=" ">
<path fill="none" stroke="#63b8ff" d="M1524.8,-359.64C1339.77,-356.86 863.93,-345.8 806,-305 772.89,-281.68 760.63,-232.45 756.27,-205.36"/>
<polygon fill="#63b8ff" stroke="#63b8ff" points="759.7,-204.66 754.85,-195.25 752.77,-205.64 759.7,-204.66"/>
</a>
</g>
</g>
<!-- Node20 -->
<g id="Node000020" class="node">
<title>Node20</title>
<g id="a_Node000020"><a xlink:href="Status_8h.html" target="_top" xlink:title="Communicates failure status using gRPC&#39;s codes.">
<polygon fill="white" stroke="#666666" points="1606,-140 1550,-140 1550,-121 1606,-121 1606,-140"/>
<text text-anchor="middle" x="1578" y="-128" font-family="Helvetica,sans-Serif" font-size="10.00">Status.h</text>
</a>
</g>
</g>
<!-- Node1&#45;&gt;Node20 -->
<g id="edge63_Node000001_Node000020" class="edge">
<title>Node1&#45;&gt;Node20</title>
<g id="a_edge63_Node000001_Node000020"><a xlink:title=" ">
<path fill="none" stroke="#63b8ff" d="M1596.29,-340.98C1592.5,-297.58 1583.42,-193.56 1579.67,-150.58"/>
<polygon fill="#63b8ff" stroke="#63b8ff" points="1583.13,-150.05 1578.78,-140.39 1576.16,-150.66 1583.13,-150.05"/>
</a>
</g>
</g>
<!-- Node24 -->
<g id="Node000024" class="node">
<title>Node24</title>
<g id="a_Node000024"><a xlink:href="Tags_8h.html" target="_top" xlink:title="Tags to differentiate collections with the same type for template specialization.">
<polygon fill="white" stroke="#666666" points="1470.5,-195 1423.5,-195 1423.5,-176 1470.5,-176 1470.5,-195"/>
<text text-anchor="middle" x="1447" y="-183" font-family="Helvetica,sans-Serif" font-size="10.00">Tags.h</text>
</a>
</g>
</g>
<!-- Node1&#45;&gt;Node24 -->
<g id="edge62_Node000001_Node000024" class="edge">
<title>Node1&#45;&gt;Node24</title>
<g id="a_edge62_Node000001_Node000024"><a xlink:title=" ">
<path fill="none" stroke="#63b8ff" d="M1580.97,-340.88C1550.95,-306.29 1489.15,-235.07 1461.24,-202.91"/>
<polygon fill="#63b8ff" stroke="#63b8ff" points="1463.81,-200.53 1454.61,-195.27 1458.53,-205.12 1463.81,-200.53"/>
</a>
</g>
</g>
<!-- Node33 -->
<g id="Node000033" class="node">
<title>Node33</title>
<g id="a_Node000033"><a xlink:title=" ">
<polygon fill="#e0e0e0" stroke="#999999" points="1228,-195 1176,-195 1176,-176 1228,-176 1228,-195"/>
<text text-anchor="middle" x="1202" y="-183" font-family="Helvetica,sans-Serif" font-size="10.00">cassert</text>
</a>
</g>
</g>
<!-- Node1&#45;&gt;Node33 -->
<g id="edge75_Node000001_Node000033" class="edge">
<title>Node1&#45;&gt;Node33</title>
<g id="a_edge75_Node000001_Node000033"><a xlink:title=" ">
<path fill="none" stroke="#63b8ff" d="M1524.63,-357.86C1433.13,-353.1 1283.62,-340.06 1242,-305 1212.34,-280.02 1204.6,-232.23 1202.62,-205.61"/>
<polygon fill="#63b8ff" stroke="#63b8ff" points="1206.1,-205.12 1202.08,-195.32 1199.11,-205.49 1206.1,-205.12"/>
</a>
</g>
</g>
<!-- Node35 -->
<g id="Node000035" class="node">
<title>Node35</title>
<g id="a_Node000035"><a xlink:title=" ">
<polygon fill="#e0e0e0" stroke="#999999" points="2064.5,-305 1983.5,-305 1983.5,-286 2064.5,-286 2064.5,-305"/>
<text text-anchor="middle" x="2024" y="-293" font-family="Helvetica,sans-Serif" font-size="10.00">vdk/signals.h</text>
</a>
</g>
</g>
<!-- Node1&#45;&gt;Node35 -->
<g id="edge57_Node000001_Node000035" class="edge">
<title>Node1&#45;&gt;Node35</title>
<g id="a_edge57_Node000001_Node000035"><a xlink:title=" ">
<path fill="none" stroke="#63b8ff" d="M1671.23,-349.65C1746.07,-338.54 1865.66,-320.71 1969,-305 1970.46,-304.78 1971.95,-304.55 1973.45,-304.32"/>
<polygon fill="#63b8ff" stroke="#63b8ff" points="1974.1,-307.76 1983.45,-302.79 1973.04,-300.84 1974.1,-307.76"/>
</a>
</g>
</g>
<!-- Node36 -->
<g id="Node000036" class="node">
<title>Node36</title>
<g id="a_Node000036"><a xlink:href="ILanguagePack_8h.html" target="_top" xlink:title="Interface for language packs.">
<polygon fill="white" stroke="#666666" points="1908,-85 1810,-85 1810,-66 1908,-66 1908,-85"/>
<text text-anchor="middle" x="1859" y="-73" font-family="Helvetica,sans-Serif" font-size="10.00">ILanguagePack.h</text>
</a>
</g>
</g>
<!-- Node1&#45;&gt;Node36 -->
<g id="edge59_Node000001_Node000036" class="edge">
<title>Node1&#45;&gt;Node36</title>
<g id="a_edge59_Node000001_Node000036"><a xlink:title=" ">
<path fill="none" stroke="#63b8ff" d="M1671.26,-350.03C1732.53,-336.65 1810,-306.82 1810,-241.5 1810,-241.5 1810,-241.5 1810,-184.5 1810,-149.68 1831.38,-113.74 1845.9,-93.35"/>
<polygon fill="#63b8ff" stroke="#63b8ff" points="1848.84,-95.25 1851.98,-85.13 1843.21,-91.09 1848.84,-95.25"/>
</a>
</g>
</g>
<!-- Node37 -->
<g id="Node000037" class="node">
<title>Node37</title>
<g id="a_Node000037"><a xlink:href="IMenu_8h.html" target="_top" xlink:title="Interface for Menus.">
<polygon fill="white" stroke="#666666" points="2020,-85 1964,-85 1964,-66 2020,-66 2020,-85"/>
<text text-anchor="middle" x="1992" y="-73" font-family="Helvetica,sans-Serif" font-size="10.00">IMenu.h</text>
</a>
</g>
</g>
<!-- Node1&#45;&gt;Node37 -->
<g id="edge64_Node000001_Node000037" class="edge">
<title>Node1&#45;&gt;Node37</title>
<g id="a_edge64_Node000001_Node000037"><a xlink:title=" ">
<path fill="none" stroke="#63b8ff" d="M1671.03,-346.32C1758.97,-327.11 1895,-289.62 1895,-241.5 1895,-241.5 1895,-241.5 1895,-184.5 1895,-141.52 1938.05,-107.87 1966.79,-90.2"/>
<polygon fill="#63b8ff" stroke="#63b8ff" points="1968.71,-93.13 1975.55,-85.03 1965.15,-87.1 1968.71,-93.13"/>
</a>
</g>
</g>
<!-- Node38 -->
<g id="Node000038" class="node">
<title>Node38</title>
<g id="a_Node000038"><a xlink:href="IMenuGroup_8h.html" target="_top" xlink:title="Interface for MenuGroup.">
<polygon fill="white" stroke="#666666" points="1791.5,-85 1706.5,-85 1706.5,-66 1791.5,-66 1791.5,-85"/>
<text text-anchor="middle" x="1749" y="-73" font-family="Helvetica,sans-Serif" font-size="10.00">IMenuGroup.h</text>
</a>
</g>
</g>
<!-- Node1&#45;&gt;Node38 -->
<g id="edge67_Node000001_Node000038" class="edge">
<title>Node1&#45;&gt;Node38</title>
<g id="a_edge67_Node000001_Node000038"><a xlink:title=" ">
<path fill="none" stroke="#63b8ff" d="M1643.84,-340.85C1680.92,-321.52 1727,-288.12 1727,-241.5 1727,-241.5 1727,-241.5 1727,-184.5 1727,-152.4 1736.45,-115.99 1742.96,-94.71"/>
<polygon fill="#63b8ff" stroke="#63b8ff" points="1746.33,-95.65 1746.03,-85.06 1739.66,-93.53 1746.33,-95.65"/>
</a>
</g>
</g>
<!-- Node39 -->
<g id="Node000039" class="node">
<title>Node39</title>
<g id="a_Node000039"><a xlink:title=" ">
<polygon fill="#e0e0e0" stroke="#999999" points="2131,-305 2083,-305 2083,-286 2131,-286 2131,-305"/>
<text text-anchor="middle" x="2107" y="-293" font-family="Helvetica,sans-Serif" font-size="10.00">mutex</text>
</a>
</g>
</g>
<!-- Node1&#45;&gt;Node39 -->
<g id="edge73_Node000001_Node000039" class="edge">
<title>Node1&#45;&gt;Node39</title>
<g id="a_edge73_Node000001_Node000039"><a xlink:title=" ">
<path fill="none" stroke="#63b8ff" d="M1671.04,-355.09C1762.76,-347.6 1925,-332.06 2072.77,-304.99"/>
<polygon fill="#63b8ff" stroke="#63b8ff" points="2073.74,-308.37 2082.93,-303.1 2072.46,-301.48 2073.74,-308.37"/>
</a>
</g>
</g>
<!-- Node40 -->
<g id="Node000040" class="node">
<title>Node40</title>
<g id="a_Node000040"><a xlink:title=" ">
<polygon fill="#e0e0e0" stroke="#999999" points="2211,-305 2149,-305 2149,-286 2211,-286 2211,-305"/>
<text text-anchor="middle" x="2180" y="-293" font-family="Helvetica,sans-Serif" font-size="10.00">coroutine</text>
</a>
</g>
</g>
<!-- Node1&#45;&gt;Node40 -->
<g id="edge77_Node000001_Node000040" class="edge">
<title>Node1&#45;&gt;Node40</title>
<g id="a_edge77_Node000001_Node000040"><a xlink:title=" ">
<path fill="none" stroke="#63b8ff" d="M1671.08,-355.52C1773.51,-347.98 1965.71,-331.82 2138.57,-305.07"/>
<polygon fill="#63b8ff" stroke="#63b8ff" points="2139.28,-308.5 2148.62,-303.5 2138.2,-301.59 2139.28,-308.5"/>
</a>
</g>
</g>
<!-- Node2&#45;&gt;Node3 -->
<g id="edge2_Node000002_Node000003" class="edge">
<title>Node2&#45;&gt;Node3</title>
<g id="a_edge2_Node000002_Node000003"><a xlink:title=" ">
<path fill="none" stroke="#63b8ff" d="M846.38,-285.99C832.08,-277.04 808.94,-262.56 789,-250 736.93,-217.22 725.44,-206.49 672,-176 652.23,-164.72 629.29,-153.04 611.93,-144.48"/>
<polygon fill="#63b8ff" stroke="#63b8ff" points="613.43,-141.32 602.91,-140.07 610.36,-147.61 613.43,-141.32"/>
</a>
</g>
</g>
<!-- Node2&#45;&gt;Node9 -->
<g id="edge8_Node000002_Node000009" class="edge">
<title>Node2&#45;&gt;Node9</title>
<g id="a_edge8_Node000002_Node000009"><a xlink:title=" ">
<path fill="none" stroke="#63b8ff" d="M832.46,-285.97C744.69,-258.77 471.42,-174.09 371.27,-143.05"/>
<polygon fill="#63b8ff" stroke="#63b8ff" points="372.17,-139.66 361.58,-140.05 370.1,-146.35 372.17,-139.66"/>
</a>
</g>
</g>
<!-- Node2&#45;&gt;Node16 -->
<g id="edge17_Node000002_Node000016" class="edge">
<title>Node2&#45;&gt;Node16</title>
<g id="a_edge17_Node000002_Node000016"><a xlink:title=" ">
<path fill="none" stroke="#63b8ff" d="M849.97,-285.92C839.86,-277.16 823.96,-263.04 811,-250 795.75,-234.66 779.35,-216.16 768.08,-203.1"/>
<polygon fill="#63b8ff" stroke="#63b8ff" points="770.64,-200.7 761.47,-195.38 765.32,-205.26 770.64,-200.7"/>
</a>
</g>
</g>
<!-- Node23 -->
<g id="Node000023" class="node">
<title>Node23</title>
<g id="a_Node000023"><a xlink:href="ParamDescriptor_8h.html" target="_top" xlink:title="Interface for accessing parameter descriptions.">
<polygon fill="white" stroke="#666666" points="1061,-250 955,-250 955,-231 1061,-231 1061,-250"/>
<text text-anchor="middle" x="1008" y="-238" font-family="Helvetica,sans-Serif" font-size="10.00">ParamDescriptor.h</text>
</a>
</g>
</g>
<!-- Node2&#45;&gt;Node23 -->
<g id="edge27_Node000002_Node000023" class="edge">
<title>Node2&#45;&gt;Node23</title>
<g id="a_edge27_Node000002_Node000023"><a xlink:title=" ">
<path fill="none" stroke="#63b8ff" d="M883.78,-285.98C908.23,-277.23 946.53,-263.51 974.15,-253.62"/>
<polygon fill="#63b8ff" stroke="#63b8ff" points="975.55,-256.84 983.79,-250.17 973.19,-250.25 975.55,-256.84"/>
</a>
</g>
</g>
<!-- Node25 -->
<g id="Node000025" class="node">
<title>Node25</title>
<g id="a_Node000025"><a xlink:title=" ">
<polygon fill="#e0e0e0" stroke="#999999" points="1453.5,-140 1388.5,-140 1388.5,-121 1453.5,-121 1453.5,-140"/>
<text text-anchor="middle" x="1421" y="-128" font-family="Helvetica,sans-Serif" font-size="10.00">functional</text>
</a>
</g>
</g>
<!-- Node2&#45;&gt;Node25 -->
<g id="edge54_Node000002_Node000025" class="edge">
<title>Node2&#45;&gt;Node25</title>
<g id="a_edge54_Node000002_Node000025"><a xlink:title=" ">
<path fill="none" stroke="#63b8ff" d="M905.81,-286.29C948.59,-278.27 1014.05,-265.09 1070,-250 1145.45,-229.65 1162.95,-219.97 1237,-195 1289.39,-177.33 1349.98,-156.31 1386.88,-143.44"/>
<polygon fill="#63b8ff" stroke="#63b8ff" points="1388.34,-146.63 1396.63,-140.03 1386.04,-140.02 1388.34,-146.63"/>
</a>
</g>
</g>
<!-- Node34 -->
<g id="Node000034" class="node">
<title>Node34</title>
<g id="a_Node000034"><a xlink:title=" ">
<polygon fill="#e0e0e0" stroke="#999999" points="900,-250 820,-250 820,-231 900,-231 900,-250"/>
<text text-anchor="middle" x="860" y="-238" font-family="Helvetica,sans-Serif" font-size="10.00">jwt&#45;cpp/jwt.h</text>
</a>
</g>
</g>
<!-- Node2&#45;&gt;Node34 -->
<g id="edge53_Node000002_Node000034" class="edge">
<title>Node2&#45;&gt;Node34</title>
<g id="a_edge53_Node000002_Node000034"><a xlink:title=" ">
<path fill="none" stroke="#63b8ff" d="M860,-285.75C860,-278.8 860,-268.85 860,-260.13"/>
<polygon fill="#63b8ff" stroke="#63b8ff" points="863.5,-260.09 860,-250.09 856.5,-260.09 863.5,-260.09"/>
</a>
</g>
</g>
<!-- Node4 -->
<g id="Node000004" class="node">
<title>Node4</title>
<g id="a_Node000004"><a xlink:title=" ">
<polygon fill="#e0e0e0" stroke="#999999" points="426,-85 366,-85 366,-66 426,-66 426,-85"/>
<text text-anchor="middle" x="396" y="-73" font-family="Helvetica,sans-Serif" font-size="10.00">iostream</text>
</a>
</g>
</g>
<!-- Node3&#45;&gt;Node4 -->
<g id="edge3_Node000003_Node000004" class="edge">
<title>Node3&#45;&gt;Node4</title>
<g id="a_edge3_Node000003_Node000004"><a xlink:title=" ">
<path fill="none" stroke="#63b8ff" d="M561.45,-122.89C530.02,-114.08 473.91,-98.35 435.84,-87.67"/>
<polygon fill="#63b8ff" stroke="#63b8ff" points="436.67,-84.27 426.1,-84.94 434.78,-91.01 436.67,-84.27"/>
</a>
</g>
</g>
<!-- Node3&#45;&gt;Node5 -->
<g id="edge4_Node000003_Node000005" class="edge">
<title>Node3&#45;&gt;Node5</title>
<g id="a_edge4_Node000003_Node000005"><a xlink:title=" ">
<path fill="none" stroke="#63b8ff" d="M591.41,-120.96C602.77,-106.58 628.02,-77.92 657,-66 785.66,-13.09 1143.43,-42.34 1282,-30 1310.38,-27.47 1342.55,-23.5 1365.8,-20.44"/>
<polygon fill="#63b8ff" stroke="#63b8ff" points="1366.36,-23.89 1375.81,-19.1 1365.43,-16.95 1366.36,-23.89"/>
</a>
</g>
</g>
<!-- Node3&#45;&gt;Node6 -->
<g id="edge5_Node000003_Node000006" class="edge">
<title>Node3&#45;&gt;Node6</title>
<g id="a_edge5_Node000003_Node000006"><a xlink:title=" ">
<path fill="none" stroke="#63b8ff" d="M608.7,-126.61C681.38,-117.76 901.37,-90.95 986.17,-80.62"/>
<polygon fill="#63b8ff" stroke="#63b8ff" points="986.78,-84.07 996.28,-79.39 985.93,-77.12 986.78,-84.07"/>
</a>
</g>
</g>
<!-- Node7 -->
<g id="Node000007" class="node">
<title>Node7</title>
<g id="a_Node000007"><a xlink:title=" ">
<polygon fill="#e0e0e0" stroke="#999999" points="495.5,-85 444.5,-85 444.5,-66 495.5,-66 495.5,-85"/>
<text text-anchor="middle" x="470" y="-73" font-family="Helvetica,sans-Serif" font-size="10.00">variant</text>
</a>
</g>
</g>
<!-- Node3&#45;&gt;Node7 -->
<g id="edge6_Node000003_Node000007" class="edge">
<title>Node3&#45;&gt;Node7</title>
<g id="a_edge6_Node000003_Node000007"><a xlink:title=" ">
<path fill="none" stroke="#63b8ff" d="M566.52,-120.98C548.02,-112.46 519.32,-99.23 498.02,-89.41"/>
<polygon fill="#63b8ff" stroke="#63b8ff" points="499.36,-86.18 488.81,-85.17 496.43,-92.53 499.36,-86.18"/>
</a>
</g>
</g>
<!-- Node8 -->
<g id="Node000008" class="node">
<title>Node8</title>
<g id="a_Node000008"><a xlink:title=" ">
<polygon fill="#e0e0e0" stroke="#999999" points="572,-85 514,-85 514,-66 572,-66 572,-85"/>
<text text-anchor="middle" x="543" y="-73" font-family="Helvetica,sans-Serif" font-size="10.00">memory</text>
</a>
</g>
</g>
<!-- Node3&#45;&gt;Node8 -->
<g id="edge7_Node000003_Node000008" class="edge">
<title>Node3&#45;&gt;Node8</title>
<g id="a_edge7_Node000003_Node000008"><a xlink:title=" ">
<path fill="none" stroke="#63b8ff" d="M578.06,-120.75C572.13,-113.26 563.43,-102.28 556.18,-93.13"/>
<polygon fill="#63b8ff" stroke="#63b8ff" points="558.76,-90.75 549.81,-85.09 553.27,-95.1 558.76,-90.75"/>
</a>
</g>
</g>
<!-- Node10 -->
<g id="Node000010" class="node">
<title>Node10</title>
<g id="a_Node000010"><a xlink:href="EnumDecorator_8h.html" target="_top" xlink:title="Provides an enum with useful extra functionality.">
<polygon fill="white" stroke="#666666" points="210,-85 66,-85 66,-66 210,-66 210,-85"/>
<text text-anchor="middle" x="138" y="-73" font-family="Helvetica,sans-Serif" font-size="10.00">patterns/EnumDecorator.h</text>
</a>
</g>
</g>
<!-- Node9&#45;&gt;Node10 -->
<g id="edge9_Node000009_Node000010" class="edge">
<title>Node9&#45;&gt;Node10</title>
<g id="a_edge9_Node000009_Node000010"><a xlink:title=" ">
<path fill="none" stroke="#63b8ff" d="M304.23,-121.45C271.05,-112.48 217.14,-97.9 179.75,-87.79"/>
<polygon fill="#63b8ff" stroke="#63b8ff" points="180.24,-84.3 169.68,-85.07 178.42,-91.05 180.24,-84.3"/>
</a>
</g>
</g>
<!-- Node12 -->
<g id="Node000012" class="node">
<title>Node12</title>
<g id="a_Node000012"><a xlink:title=" ">
<polygon fill="#e0e0e0" stroke="#999999" points="64,-24.5 14,-24.5 14,-5.5 64,-5.5 64,-24.5"/>
<text text-anchor="middle" x="39" y="-12.5" font-family="Helvetica,sans-Serif" font-size="10.00">cstdint</text>
</a>
</g>
</g>
<!-- Node9&#45;&gt;Node12 -->
<g id="edge16_Node000009_Node000012" class="edge">
<title>Node9&#45;&gt;Node12</title>
<g id="a_edge16_Node000009_Node000012"><a xlink:title=" ">
<path fill="none" stroke="#63b8ff" d="M304.25,-128.71C240.36,-126.4 92.87,-117.59 57,-85 43.14,-72.41 39.37,-50.6 38.61,-34.87"/>
<polygon fill="#63b8ff" stroke="#63b8ff" points="42.11,-34.66 38.49,-24.71 35.11,-34.75 42.11,-34.66"/>
</a>
</g>
</g>
<!-- Node9&#45;&gt;Node15 -->
<g id="edge15_Node000009_Node000015" class="edge">
<title>Node9&#45;&gt;Node15</title>
<g id="a_edge15_Node000009_Node000015"><a xlink:title=" ">
<path fill="none" stroke="#63b8ff" d="M326.4,-120.75C319.84,-113.18 310.18,-102.05 302.19,-92.84"/>
<polygon fill="#63b8ff" stroke="#63b8ff" points="304.65,-90.35 295.45,-85.09 299.37,-94.94 304.65,-90.35"/>
</a>
</g>
</g>
<!-- Node10&#45;&gt;Node5 -->
<g id="edge13_Node000010_Node000005" class="edge">
<title>Node10&#45;&gt;Node5</title>
<g id="a_edge13_Node000010_Node000005"><a xlink:title=" ">
<path fill="none" stroke="#63b8ff" d="M210.4,-66.65C213.3,-66.41 216.18,-66.2 219,-66 690.58,-33.31 810.68,-66.35 1282,-30 1310.41,-27.81 1342.57,-23.81 1365.81,-20.64"/>
<polygon fill="#63b8ff" stroke="#63b8ff" points="1366.39,-24.09 1375.82,-19.25 1365.43,-17.16 1366.39,-24.09"/>
</a>
</g>
</g>
<!-- Node11 -->
<g id="Node000011" class="node">
<title>Node11</title>
<g id="a_Node000011"><a xlink:href="ReflectionMacros_8h.html" target="_top" xlink:title="adapted from https://github.com/tapika/TestCppReflect">
<polygon fill="white" stroke="#666666" points="193,-24.5 83,-24.5 83,-5.5 193,-5.5 193,-24.5"/>
<text text-anchor="middle" x="138" y="-12.5" font-family="Helvetica,sans-Serif" font-size="10.00">ReflectionMacros.h</text>
</a>
</g>
</g>
<!-- Node10&#45;&gt;Node11 -->
<g id="edge10_Node000010_Node000011" class="edge">
<title>Node10&#45;&gt;Node11</title>
<g id="a_edge10_Node000010_Node000011"><a xlink:title=" ">
<path fill="none" stroke="#63b8ff" d="M138,-65.87C138,-57.75 138,-45.31 138,-34.89"/>
<polygon fill="#63b8ff" stroke="#63b8ff" points="141.5,-34.67 138,-24.67 134.5,-34.67 141.5,-34.67"/>
</a>
</g>
</g>
<!-- Node10&#45;&gt;Node12 -->
<g id="edge11_Node000010_Node000012" class="edge">
<title>Node10&#45;&gt;Node12</title>
<g id="a_edge11_Node000010_Node000012"><a xlink:title=" ">
<path fill="none" stroke="#63b8ff" d="M123.39,-65.87C107.31,-56.36 81.22,-40.95 62.3,-29.77"/>
<polygon fill="#63b8ff" stroke="#63b8ff" points="64.06,-26.74 53.67,-24.67 60.5,-32.77 64.06,-26.74"/>
</a>
</g>
</g>
<!-- Node10&#45;&gt;Node13 -->
<g id="edge12_Node000010_Node000013" class="edge">
<title>Node10&#45;&gt;Node13</title>
<g id="a_edge12_Node000010_Node000013"><a xlink:title=" ">
<path fill="none" stroke="#63b8ff" d="M210.4,-66.63C213.3,-66.4 216.18,-66.19 219,-66 755.8,-29.9 891.29,-48.04 1429,-30 1541.64,-26.22 1673.29,-21.16 1746.82,-18.27"/>
<polygon fill="#63b8ff" stroke="#63b8ff" points="1747.38,-21.75 1757.23,-17.86 1747.1,-14.76 1747.38,-21.75"/>
</a>
</g>
</g>
<!-- Node10&#45;&gt;Node14 -->
<g id="edge14_Node000010_Node000014" class="edge">
<title>Node10&#45;&gt;Node14</title>
<g id="a_edge14_Node000010_Node000014"><a xlink:title=" ">
<path fill="none" stroke="#63b8ff" d="M182.2,-65.99C239.68,-54.93 339.53,-35.72 397.27,-24.61"/>
<polygon fill="#63b8ff" stroke="#63b8ff" points="398.04,-28.02 407.19,-22.7 396.71,-21.15 398.04,-28.02"/>
</a>
</g>
</g>
<!-- Node16&#45;&gt;Node3 -->
<g id="edge22_Node000016_Node000003" class="edge">
<title>Node16&#45;&gt;Node3</title>
<g id="a_edge22_Node000016_Node000003"><a xlink:title=" ">
<path fill="none" stroke="#63b8ff" d="M726.85,-175.98C697.3,-166.72 650.03,-151.89 618.27,-141.93"/>
<polygon fill="#63b8ff" stroke="#63b8ff" points="619.13,-138.54 608.54,-138.88 617.04,-145.22 619.13,-138.54"/>
</a>
</g>
</g>
<!-- Node16&#45;&gt;Node9 -->
<g id="edge18_Node000016_Node000009" class="edge">
<title>Node16&#45;&gt;Node9</title>
<g id="a_edge18_Node000016_Node000009"><a xlink:title=" ">
<path fill="none" stroke="#63b8ff" d="M724.47,-180.77C650.51,-171.44 457.32,-147.06 373.62,-136.5"/>
<polygon fill="#63b8ff" stroke="#63b8ff" points="373.86,-133 363.5,-135.22 372.98,-139.95 373.86,-133"/>
</a>
</g>
</g>
<!-- Node17 -->
<g id="Node000017" class="node">
<title>Node17</title>
<g id="a_Node000017"><a xlink:href="IConstraint_8h.html" target="_top" xlink:title="Interface for constraints.">
<polygon fill="white" stroke="#666666" points="886.5,-140 807.5,-140 807.5,-121 886.5,-121 886.5,-140"/>
<text text-anchor="middle" x="847" y="-128" font-family="Helvetica,sans-Serif" font-size="10.00">IConstraint.h</text>
</a>
</g>
</g>
<!-- Node16&#45;&gt;Node17 -->
<g id="edge19_Node000016_Node000017" class="edge">
<title>Node16&#45;&gt;Node17</title>
<g id="a_edge19_Node000016_Node000017"><a xlink:title=" ">
<path fill="none" stroke="#63b8ff" d="M768.94,-175.98C783.5,-167.69 805.87,-154.94 822.93,-145.22"/>
<polygon fill="#63b8ff" stroke="#63b8ff" points="824.83,-148.16 831.79,-140.17 821.36,-142.08 824.83,-148.16"/>
</a>
</g>
</g>
<!-- Node18 -->
<g id="Node000018" class="node">
<title>Node18</title>
<g id="a_Node000018"><a xlink:title=" ">
<polygon fill="#e0e0e0" stroke="#999999" points="939.5,-85 820.5,-85 820.5,-66 939.5,-66 939.5,-85"/>
<text text-anchor="middle" x="880" y="-73" font-family="Helvetica,sans-Serif" font-size="10.00">interface/param.pb.h</text>
</a>
</g>
</g>
<!-- Node16&#45;&gt;Node18 -->
<g id="edge26_Node000016_Node000018" class="edge">
<title>Node16&#45;&gt;Node18</title>
<g id="a_edge26_Node000016_Node000018"><a xlink:title=" ">
<path fill="none" stroke="#63b8ff" d="M758.51,-175.75C765.65,-162.56 780.65,-137.37 799,-121 813.68,-107.91 832.87,-97.15 848.88,-89.5"/>
<polygon fill="#63b8ff" stroke="#63b8ff" points="850.75,-92.49 858.38,-85.14 847.83,-86.13 850.75,-92.49"/>
</a>
</g>
</g>
<!-- Node16&#45;&gt;Node20 -->
<g id="edge23_Node000016_Node000020" class="edge">
<title>Node16&#45;&gt;Node20</title>
<g id="a_edge23_Node000016_Node000020"><a xlink:title=" ">
<path fill="none" stroke="#63b8ff" d="M783.58,-180.86C797.89,-179.2 815.32,-177.31 831,-176 1111.37,-152.56 1182.26,-158.37 1463,-140 1488.52,-138.33 1517.22,-136.21 1539.56,-134.5"/>
<polygon fill="#63b8ff" stroke="#63b8ff" points="1539.95,-137.98 1549.65,-133.73 1539.41,-131.01 1539.95,-137.98"/>
</a>
</g>
</g>
<!-- Node17&#45;&gt;Node18 -->
<g id="edge20_Node000017_Node000018" class="edge">
<title>Node17&#45;&gt;Node18</title>
<g id="a_edge20_Node000017_Node000018"><a xlink:title=" ">
<path fill="none" stroke="#63b8ff" d="M852.45,-120.75C857.01,-113.42 863.67,-102.73 869.29,-93.7"/>
<polygon fill="#63b8ff" stroke="#63b8ff" points="872.34,-95.43 874.65,-85.09 866.4,-91.73 872.34,-95.43"/>
</a>
</g>
</g>
<!-- Node19 -->
<g id="Node000019" class="node">
<title>Node19</title>
<g id="a_Node000019"><a xlink:title=" ">
<polygon fill="#e0e0e0" stroke="#999999" points="802,-85 666,-85 666,-66 802,-66 802,-85"/>
<text text-anchor="middle" x="734" y="-73" font-family="Helvetica,sans-Serif" font-size="10.00">interface/constraint.pb.h</text>
</a>
</g>
</g>
<!-- Node17&#45;&gt;Node19 -->
<g id="edge21_Node000017_Node000019" class="edge">
<title>Node17&#45;&gt;Node19</title>
<g id="a_edge21_Node000017_Node000019"><a xlink:title=" ">
<path fill="none" stroke="#63b8ff" d="M828.84,-120.98C810.75,-112.5 782.72,-99.35 761.81,-89.54"/>
<polygon fill="#63b8ff" stroke="#63b8ff" points="763.03,-86.25 752.49,-85.17 760.05,-92.59 763.03,-86.25"/>
</a>
</g>
</g>
<!-- Node21 -->
<g id="Node000021" class="node">
<title>Node21</title>
<g id="a_Node000021"><a xlink:title=" ">
<polygon fill="#e0e0e0" stroke="#999999" points="1566,-85 1510,-85 1510,-66 1566,-66 1566,-85"/>
<text text-anchor="middle" x="1538" y="-73" font-family="Helvetica,sans-Serif" font-size="10.00">sstream</text>
</a>
</g>
</g>
<!-- Node20&#45;&gt;Node21 -->
<g id="edge24_Node000020_Node000021" class="edge">
<title>Node20&#45;&gt;Node21</title>
<g id="a_edge24_Node000020_Node000021"><a xlink:title=" ">
<path fill="none" stroke="#63b8ff" d="M1571.39,-120.75C1565.74,-113.26 1557.46,-102.28 1550.55,-93.13"/>
<polygon fill="#63b8ff" stroke="#63b8ff" points="1553.3,-90.96 1544.48,-85.09 1547.71,-95.18 1553.3,-90.96"/>
</a>
</g>
</g>
<!-- Node22 -->
<g id="Node000022" class="node">
<title>Node22</title>
<g id="a_Node000022"><a xlink:title=" ">
<polygon fill="#e0e0e0" stroke="#999999" points="1649.5,-85 1584.5,-85 1584.5,-66 1649.5,-66 1649.5,-85"/>
<text text-anchor="middle" x="1617" y="-73" font-family="Helvetica,sans-Serif" font-size="10.00">stdexcept</text>
</a>
</g>
</g>
<!-- Node20&#45;&gt;Node22 -->
<g id="edge25_Node000020_Node000022" class="edge">
<title>Node20&#45;&gt;Node22</title>
<g id="a_edge25_Node000020_Node000022"><a xlink:title=" ">
<path fill="none" stroke="#63b8ff" d="M1584.44,-120.75C1589.89,-113.34 1597.86,-102.5 1604.56,-93.41"/>
<polygon fill="#63b8ff" stroke="#63b8ff" points="1607.57,-95.22 1610.68,-85.09 1601.93,-91.07 1607.57,-95.22"/>
</a>
</g>
</g>
<!-- Node23&#45;&gt;Node5 -->
<g id="edge48_Node000023_Node000005" class="edge">
<title>Node23&#45;&gt;Node5</title>
<g id="a_edge48_Node000023_Node000005"><a xlink:title=" ">
<path fill="none" stroke="#63b8ff" d="M1017.51,-230.83C1026.66,-222.23 1040.61,-208.42 1051,-195 1092.16,-141.84 1074.62,-104.12 1130,-66 1149.29,-52.72 1298.93,-30.09 1365.85,-20.5"/>
<polygon fill="#63b8ff" stroke="#63b8ff" points="1366.44,-23.96 1375.84,-19.08 1365.45,-17.02 1366.44,-23.96"/>
</a>
</g>
</g>
<!-- Node23&#45;&gt;Node6 -->
<g id="edge47_Node000023_Node000006" class="edge">
<title>Node23&#45;&gt;Node6</title>
<g id="a_edge47_Node000023_Node000006"><a xlink:title=" ">
<path fill="none" stroke="#63b8ff" d="M1013.43,-230.89C1023.63,-214.16 1045.29,-175.77 1053,-140 1054.78,-131.75 1055.65,-129.02 1053,-121 1049.54,-110.54 1042.57,-100.53 1035.92,-92.66"/>
<polygon fill="#63b8ff" stroke="#63b8ff" points="1038.33,-90.1 1029.02,-85.04 1033.14,-94.8 1038.33,-90.1"/>
</a>
</g>
</g>
<!-- Node23&#45;&gt;Node13 -->
<g id="edge49_Node000023_Node000013" class="edge">
<title>Node23&#45;&gt;Node13</title>
<g id="a_edge49_Node000023_Node000013"><a xlink:title=" ">
<path fill="none" stroke="#63b8ff" d="M1061.09,-239.34C1239.31,-237.52 1810.96,-221.04 1917,-85 1938.56,-57.34 1894.29,-38.14 1854.99,-27.14"/>
<polygon fill="#63b8ff" stroke="#63b8ff" points="1855.71,-23.71 1845.15,-24.52 1853.91,-30.48 1855.71,-23.71"/>
</a>
</g>
</g>
<!-- Node23&#45;&gt;Node14 -->
<g id="edge50_Node000023_Node000014" class="edge">
<title>Node23&#45;&gt;Node14</title>
<g id="a_edge50_Node000023_Node000014"><a xlink:title=" ">
<path fill="none" stroke="#63b8ff" d="M962.01,-230.97C925.76,-223.53 874.27,-211.35 831,-195 823.69,-192.24 588.16,-69.12 581,-66 546.93,-51.16 506.89,-37.1 478.56,-27.69"/>
<polygon fill="#63b8ff" stroke="#63b8ff" points="479.65,-24.36 469.05,-24.56 477.46,-31.01 479.65,-24.36"/>
</a>
</g>
</g>
<!-- Node23&#45;&gt;Node16 -->
<g id="edge31_Node000023_Node000016" class="edge">
<title>Node23&#45;&gt;Node16</title>
<g id="a_edge31_Node000023_Node000016"><a xlink:title=" ">
<path fill="none" stroke="#63b8ff" d="M967.19,-230.98C919.37,-221.01 840.69,-204.59 793.46,-194.73"/>
<polygon fill="#63b8ff" stroke="#63b8ff" points="794.1,-191.29 783.6,-192.68 792.67,-198.15 794.1,-191.29"/>
</a>
</g>
</g>
<!-- Node23&#45;&gt;Node17 -->
<g id="edge32_Node000023_Node000017" class="edge">
<title>Node23&#45;&gt;Node17</title>
<g id="a_edge32_Node000023_Node000017"><a xlink:title=" ">
<path fill="none" stroke="#63b8ff" d="M995.1,-230.84C967.54,-212.36 902.69,-168.86 868.68,-146.05"/>
<polygon fill="#63b8ff" stroke="#63b8ff" points="870.22,-142.86 859.96,-140.2 866.32,-148.67 870.22,-142.86"/>
</a>
</g>
</g>
<!-- Node23&#45;&gt;Node18 -->
<g id="edge46_Node000023_Node000018" class="edge">
<title>Node23&#45;&gt;Node18</title>
<g id="a_edge46_Node000023_Node000018"><a xlink:title=" ">
<path fill="none" stroke="#63b8ff" d="M1001.12,-230.74C980.72,-204.76 920.31,-127.83 893.3,-93.44"/>
<polygon fill="#63b8ff" stroke="#63b8ff" points="895.84,-91.01 886.92,-85.31 890.34,-95.33 895.84,-91.01"/>
</a>
</g>
</g>
<!-- Node23&#45;&gt;Node24 -->
<g id="edge28_Node000023_Node000024" class="edge">
<title>Node23&#45;&gt;Node24</title>
<g id="a_edge28_Node000023_Node000024"><a xlink:title=" ">
<path fill="none" stroke="#63b8ff" d="M1061.39,-233.05C1153.05,-221.99 1337.78,-199.69 1413.48,-190.55"/>
<polygon fill="#63b8ff" stroke="#63b8ff" points="1413.91,-194.02 1423.42,-189.35 1413.07,-187.07 1413.91,-194.02"/>
</a>
</g>
</g>
<!-- Node26 -->
<g id="Node000026" class="node">
<title>Node26</title>
<g id="a_Node000026"><a xlink:href="PolyglotText_8h.html" target="_top" xlink:title="Polyglot Text serialization and deserialization to protobuf.">
<polygon fill="white" stroke="#666666" points="1370,-140 1284,-140 1284,-121 1370,-121 1370,-140"/>
<text text-anchor="middle" x="1327" y="-128" font-family="Helvetica,sans-Serif" font-size="10.00">PolyglotText.h</text>
</a>
</g>
</g>
<!-- Node23&#45;&gt;Node26 -->
<g id="edge33_Node000023_Node000026" class="edge">
<title>Node23&#45;&gt;Node26</title>
<g id="a_edge33_Node000023_Node000026"><a xlink:title=" ">
<path fill="none" stroke="#63b8ff" d="M1031.24,-230.97C1054.76,-222.25 1092.1,-208.16 1124,-195 1143.32,-187.03 1147.33,-183.04 1167,-176 1204.6,-162.54 1248.35,-150.62 1280.59,-142.51"/>
<polygon fill="#63b8ff" stroke="#63b8ff" points="1281.77,-145.83 1290.63,-140.02 1280.08,-139.03 1281.77,-145.83"/>
</a>
</g>
</g>
<!-- Node31 -->
<g id="Node000031" class="node">
<title>Node31</title>
<g id="a_Node000031"><a xlink:href="IsVector_8h.html" target="_top" xlink:title="Checks if a type is a vector.">
<polygon fill="white" stroke="#666666" points="1044,-140 952,-140 952,-121 1044,-121 1044,-140"/>
<text text-anchor="middle" x="998" y="-128" font-family="Helvetica,sans-Serif" font-size="10.00">meta/IsVector.h</text>
</a>
</g>
</g>
<!-- Node23&#45;&gt;Node31 -->
<g id="edge43_Node000023_Node000031" class="edge">
<title>Node23&#45;&gt;Node31</title>
<g id="a_edge43_Node000023_Node000031"><a xlink:title=" ">
<path fill="none" stroke="#63b8ff" d="M1007.18,-230.66C1005.56,-213.17 1001.92,-173.8 999.74,-150.27"/>
<polygon fill="#63b8ff" stroke="#63b8ff" points="1003.21,-149.79 998.8,-140.16 996.24,-150.44 1003.21,-149.79"/>
</a>
</g>
</g>
<!-- Node32 -->
<g id="Node000032" class="node">
<title>Node32</title>
<g id="a_Node000032"><a xlink:title=" ">
<polygon fill="#e0e0e0" stroke="#999999" points="904,-195 840,-195 840,-176 904,-176 904,-195"/>
<text text-anchor="middle" x="872" y="-183" font-family="Helvetica,sans-Serif" font-size="10.00">algorithm</text>
</a>
</g>
</g>
<!-- Node23&#45;&gt;Node32 -->
<g id="edge51_Node000023_Node000032" class="edge">
<title>Node23&#45;&gt;Node32</title>
<g id="a_edge51_Node000023_Node000032"><a xlink:title=" ">
<path fill="none" stroke="#63b8ff" d="M986.15,-230.98C963.88,-222.3 929.1,-208.75 903.78,-198.88"/>
<polygon fill="#63b8ff" stroke="#63b8ff" points="904.84,-195.54 894.25,-195.17 902.29,-202.06 904.84,-195.54"/>
</a>
</g>
</g>
<!-- Node23&#45;&gt;Node33 -->
<g id="edge52_Node000023_Node000033" class="edge">
<title>Node23&#45;&gt;Node33</title>
<g id="a_edge52_Node000023_Node000033"><a xlink:title=" ">
<path fill="none" stroke="#63b8ff" d="M1039.17,-230.98C1073.83,-221.52 1129.71,-206.25 1166.15,-196.29"/>
<polygon fill="#63b8ff" stroke="#63b8ff" points="1167.16,-199.65 1175.88,-193.63 1165.31,-192.89 1167.16,-199.65"/>
</a>
</g>
</g>
<!-- Node24&#45;&gt;Node5 -->
<g id="edge30_Node000024_Node000005" class="edge">
<title>Node24&#45;&gt;Node5</title>
<g id="a_edge30_Node000024_Node000005"><a xlink:title=" ">
<path fill="none" stroke="#63b8ff" d="M1452.09,-175.83C1458.64,-163.56 1468.54,-140.46 1463,-121 1453.18,-86.49 1428.42,-52.22 1412.45,-32.63"/>
<polygon fill="#63b8ff" stroke="#63b8ff" points="1414.92,-30.13 1405.82,-24.72 1409.56,-34.63 1414.92,-30.13"/>
</a>
</g>
</g>
<!-- Node24&#45;&gt;Node25 -->
<g id="edge29_Node000024_Node000025" class="edge">
<title>Node24&#45;&gt;Node25</title>
<g id="a_edge29_Node000024_Node000025"><a xlink:title=" ">
<path fill="none" stroke="#63b8ff" d="M1442.71,-175.75C1439.19,-168.57 1434.09,-158.18 1429.72,-149.27"/>
<polygon fill="#63b8ff" stroke="#63b8ff" points="1432.76,-147.53 1425.21,-140.09 1426.48,-150.61 1432.76,-147.53"/>
</a>
</g>
</g>
<!-- Node26&#45;&gt;Node5 -->
<g id="edge40_Node000026_Node000005" class="edge">
<title>Node26&#45;&gt;Node5</title>
<g id="a_edge40_Node000026_Node000005"><a xlink:title=" ">
<path fill="none" stroke="#63b8ff" d="M1310.84,-120.87C1290.83,-109.02 1261,-86.81 1275,-66 1295.06,-36.19 1336.29,-24.15 1365.47,-19.28"/>
<polygon fill="#63b8ff" stroke="#63b8ff" points="1366.23,-22.71 1375.61,-17.8 1365.21,-15.78 1366.23,-22.71"/>
</a>
</g>
</g>
<!-- Node26&#45;&gt;Node13 -->
<g id="edge41_Node000026_Node000013" class="edge">
<title>Node26&#45;&gt;Node13</title>
<g id="a_edge41_Node000026_Node000013"><a xlink:title=" ">
<path fill="none" stroke="#63b8ff" d="M1346.71,-120.93C1378.57,-107.4 1443.61,-81.07 1501,-66 1585.46,-43.83 1685.86,-29.56 1747.24,-22.16"/>
<polygon fill="#63b8ff" stroke="#63b8ff" points="1747.98,-25.6 1757.49,-20.94 1747.15,-18.65 1747.98,-25.6"/>
</a>
</g>
</g>
<!-- Node27 -->
<g id="Node000027" class="node">
<title>Node27</title>
<g id="a_Node000027"><a xlink:href="IPolyglotText_8h.html" target="_top" xlink:title="Catena&#39;s multi&#45;language text interface.">
<polygon fill="white" stroke="#666666" points="1227.5,-85 1138.5,-85 1138.5,-66 1227.5,-66 1227.5,-85"/>
<text text-anchor="middle" x="1183" y="-73" font-family="Helvetica,sans-Serif" font-size="10.00">IPolyglotText.h</text>
</a>
</g>
</g>
<!-- Node26&#45;&gt;Node27 -->
<g id="edge34_Node000026_Node000027" class="edge">
<title>Node26&#45;&gt;Node27</title>
<g id="a_edge34_Node000026_Node000027"><a xlink:title=" ">
<path fill="none" stroke="#63b8ff" d="M1303.86,-120.98C1280.18,-112.27 1243.13,-98.63 1216.29,-88.75"/>
<polygon fill="#63b8ff" stroke="#63b8ff" points="1217.15,-85.34 1206.56,-85.17 1214.73,-91.91 1217.15,-85.34"/>
</a>
</g>
</g>
<!-- Node29 -->
<g id="Node000029" class="node">
<title>Node29</title>
<g id="a_Node000029"><a xlink:title=" ">
<polygon fill="#e0e0e0" stroke="#999999" points="1113.5,-24.5 1030.5,-24.5 1030.5,-5.5 1113.5,-5.5 1113.5,-24.5"/>
<text text-anchor="middle" x="1072" y="-12.5" font-family="Helvetica,sans-Serif" font-size="10.00">initializer_list</text>
</a>
</g>
</g>
<!-- Node26&#45;&gt;Node29 -->
<g id="edge42_Node000026_Node000029" class="edge">
<title>Node26&#45;&gt;Node29</title>
<g id="a_edge42_Node000026_Node000029"><a xlink:title=" ">
<path fill="none" stroke="#63b8ff" d="M1283.86,-123.06C1233.98,-115.04 1155.46,-100.5 1130,-85 1109.19,-72.33 1092.24,-49.55 1082.15,-33.64"/>
<polygon fill="#63b8ff" stroke="#63b8ff" points="1084.96,-31.52 1076.78,-24.78 1078.97,-35.15 1084.96,-31.52"/>
</a>
</g>
</g>
<!-- Node30 -->
<g id="Node000030" class="node">
<title>Node30</title>
<g id="a_Node000030"><a xlink:title=" ">
<polygon fill="#e0e0e0" stroke="#999999" points="1416,-85 1284,-85 1284,-66 1416,-66 1416,-85"/>
<text text-anchor="middle" x="1350" y="-73" font-family="Helvetica,sans-Serif" font-size="10.00">interface/language.pb.h</text>
</a>
</g>
</g>
<!-- Node26&#45;&gt;Node30 -->
<g id="edge39_Node000026_Node000030" class="edge">
<title>Node26&#45;&gt;Node30</title>
<g id="a_edge39_Node000026_Node000030"><a xlink:title=" ">
<path fill="none" stroke="#63b8ff" d="M1330.8,-120.75C1333.91,-113.57 1338.42,-103.18 1342.29,-94.27"/>
<polygon fill="#63b8ff" stroke="#63b8ff" points="1345.5,-95.66 1346.27,-85.09 1339.08,-92.87 1345.5,-95.66"/>
</a>
</g>
</g>
<!-- Node27&#45;&gt;Node5 -->
<g id="edge37_Node000027_Node000005" class="edge">
<title>Node27&#45;&gt;Node5</title>
<g id="a_edge37_Node000027_Node000005"><a xlink:title=" ">
<path fill="none" stroke="#63b8ff" d="M1214.26,-65.99C1254.85,-54.95 1325.3,-35.78 1366.16,-24.66"/>
<polygon fill="#63b8ff" stroke="#63b8ff" points="1367.15,-28.02 1375.88,-22.02 1365.31,-21.27 1367.15,-28.02"/>
</a>
</g>
</g>
<!-- Node27&#45;&gt;Node13 -->
<g id="edge36_Node000027_Node000013" class="edge">
<title>Node27&#45;&gt;Node13</title>
<g id="a_edge36_Node000027_Node000013"><a xlink:title=" ">
<path fill="none" stroke="#63b8ff" d="M1227.66,-70.29C1338.18,-59.88 1624.37,-32.92 1746.93,-21.38"/>
<polygon fill="#63b8ff" stroke="#63b8ff" points="1747.59,-24.83 1757.22,-20.41 1746.94,-17.86 1747.59,-24.83"/>
</a>
</g>
</g>
<!-- Node28 -->
<g id="Node000028" class="node">
<title>Node28</title>
<g id="a_Node000028"><a xlink:title=" ">
<polygon fill="#e0e0e0" stroke="#999999" points="1272.5,-30 1131.5,-30 1131.5,0 1272.5,0 1272.5,-30"/>
<text text-anchor="start" x="1139.5" y="-18" font-family="Helvetica,sans-Serif" font-size="10.00">google/protobuf/message</text>
<text text-anchor="middle" x="1202" y="-7" font-family="Helvetica,sans-Serif" font-size="10.00">_lite.h</text>
</a>
</g>
</g>
<!-- Node27&#45;&gt;Node28 -->
<g id="edge35_Node000027_Node000028" class="edge">
<title>Node27&#45;&gt;Node28</title>
<g id="a_edge35_Node000027_Node000028"><a xlink:title=" ">
<path fill="none" stroke="#63b8ff" d="M1185.8,-65.87C1188.05,-58.96 1191.31,-48.93 1194.31,-39.67"/>
<polygon fill="#63b8ff" stroke="#63b8ff" points="1197.66,-40.71 1197.42,-30.11 1191,-38.54 1197.66,-40.71"/>
</a>
</g>
</g>
<!-- Node27&#45;&gt;Node29 -->
<g id="edge38_Node000027_Node000029" class="edge">
<title>Node27&#45;&gt;Node29</title>
<g id="a_edge38_Node000027_Node000029"><a xlink:title=" ">
<path fill="none" stroke="#63b8ff" d="M1166.62,-65.87C1148.42,-56.28 1118.8,-40.67 1097.55,-29.47"/>
<polygon fill="#63b8ff" stroke="#63b8ff" points="1098.92,-26.23 1088.45,-24.67 1095.66,-32.43 1098.92,-26.23"/>
</a>
</g>
</g>
<!-- Node31&#45;&gt;Node6 -->
<g id="edge44_Node000031_Node000006" class="edge">
<title>Node31&#45;&gt;Node6</title>
<g id="a_edge44_Node000031_Node000006"><a xlink:title=" ">
<path fill="none" stroke="#63b8ff" d="M1001.63,-120.75C1004.58,-113.65 1008.83,-103.4 1012.51,-94.56"/>
<polygon fill="#63b8ff" stroke="#63b8ff" points="1015.83,-95.67 1016.43,-85.09 1009.37,-92.98 1015.83,-95.67"/>
</a>
</g>
</g>
<!-- Node31&#45;&gt;Node14 -->
<g id="edge45_Node000031_Node000014" class="edge">
<title>Node31&#45;&gt;Node14</title>
<g id="a_edge45_Node000031_Node000014"><a xlink:title=" ">
<path fill="none" stroke="#63b8ff" d="M994.09,-120.67C987.26,-106.39 971.66,-78.55 949,-66 870.2,-22.34 595.76,-16.5 486.94,-15.94"/>
<polygon fill="#63b8ff" stroke="#63b8ff" points="486.65,-12.44 476.64,-15.9 486.62,-19.44 486.65,-12.44"/>
</a>
</g>
</g>
<!-- Node36&#45;&gt;Node5 -->
<g id="edge60_Node000036_Node000005" class="edge">
<title>Node36&#45;&gt;Node5</title>
<g id="a_edge60_Node000036_Node000005"><a xlink:title=" ">
<path fill="none" stroke="#63b8ff" d="M1809.96,-67.24C1806.93,-66.81 1803.92,-66.4 1801,-66 1663.39,-47.38 1498.97,-27.82 1430.46,-19.78"/>
<polygon fill="#63b8ff" stroke="#63b8ff" points="1430.64,-16.28 1420.3,-18.59 1429.83,-23.23 1430.64,-16.28"/>
</a>
</g>
</g>
<!-- Node36&#45;&gt;Node13 -->
<g id="edge61_Node000036_Node000013" class="edge">
<title>Node36&#45;&gt;Node13</title>
<g id="a_edge61_Node000036_Node000013"><a xlink:title=" ">
<path fill="none" stroke="#63b8ff" d="M1850.88,-65.87C1842.6,-57.05 1829.53,-43.16 1819.3,-32.27"/>
<polygon fill="#63b8ff" stroke="#63b8ff" points="1821.55,-29.56 1812.15,-24.67 1816.45,-34.35 1821.55,-29.56"/>
</a>
</g>
</g>
<!-- Node37&#45;&gt;Node5 -->
<g id="edge65_Node000037_Node000005" class="edge">
<title>Node37&#45;&gt;Node5</title>
<g id="a_edge65_Node000037_Node000005"><a xlink:title=" ">
<path fill="none" stroke="#63b8ff" d="M1963.88,-71.2C1949.81,-69.58 1932.51,-67.63 1917,-66 1732.83,-46.69 1511.6,-26.32 1430.13,-18.91"/>
<polygon fill="#63b8ff" stroke="#63b8ff" points="1430.29,-15.41 1420.02,-17.99 1429.66,-22.38 1430.29,-15.41"/>
</a>
</g>
</g>
<!-- Node37&#45;&gt;Node13 -->
<g id="edge66_Node000037_Node000013" class="edge">
<title>Node37&#45;&gt;Node13</title>
<g id="a_edge66_Node000037_Node000013"><a xlink:title=" ">
<path fill="none" stroke="#63b8ff" d="M1964.66,-65.99C1932.08,-55.86 1877.49,-38.87 1841.11,-27.55"/>
<polygon fill="#63b8ff" stroke="#63b8ff" points="1841.96,-24.15 1831.37,-24.52 1839.88,-30.83 1841.96,-24.15"/>
</a>
</g>
</g>
<!-- Node38&#45;&gt;Node5 -->
<g id="edge68_Node000038_Node000005" class="edge">
<title>Node38&#45;&gt;Node5</title>
<g id="a_edge68_Node000038_Node000005"><a xlink:title=" ">
<path fill="none" stroke="#63b8ff" d="M1706.31,-67.39C1635.16,-55.53 1493.85,-31.98 1430.3,-21.38"/>
<polygon fill="#63b8ff" stroke="#63b8ff" points="1430.51,-17.87 1420.08,-19.68 1429.36,-24.78 1430.51,-17.87"/>
</a>
</g>
</g>
<!-- Node38&#45;&gt;Node13 -->
<g id="edge69_Node000038_Node000013" class="edge">
<title>Node38&#45;&gt;Node13</title>
<g id="a_edge69_Node000038_Node000013"><a xlink:title=" ">
<path fill="none" stroke="#63b8ff" d="M1757.12,-65.87C1765.4,-57.05 1778.47,-43.16 1788.7,-32.27"/>
<polygon fill="#63b8ff" stroke="#63b8ff" points="1791.55,-34.35 1795.85,-24.67 1786.45,-29.56 1791.55,-34.35"/>
</a>
</g>
</g>
</g>
</svg>
