<?xml version="1.0" encoding="UTF-8" standalone="no"?>
<!DOCTYPE svg PUBLIC "-//W3C//DTD SVG 1.1//EN"
 "http://www.w3.org/Graphics/SVG/1.1/DTD/svg11.dtd">
<!-- Generated by graphviz version 2.43.0 (0)
 -->
<!-- Title: /home/runner/work/Catena/Catena/sdks/cpp/common/include/Device.h Pages: 1 -->
<svg width="897pt" height="362pt"
 viewBox="0.00 0.00 897.00 362.00" xmlns="http://www.w3.org/2000/svg" xmlns:xlink="http://www.w3.org/1999/xlink">
<g id="graph0" class="graph" transform="scale(1 1) rotate(0) translate(4 358)">
<title>/home/runner/work/Catena/Catena/sdks/cpp/common/include/Device.h</title>
<polygon fill="white" stroke="transparent" points="-4,4 -4,-358 893,-358 893,4 -4,4"/>
<!-- Node1 -->
<g id="node1" class="node">
<title>Node1</title>
<g id="a_node1"><a xlink:title="Device class definition.">
<polygon fill="#bfbfbf" stroke="black" points="419,-312.5 419,-353.5 565,-353.5 565,-312.5 419,-312.5"/>
<text text-anchor="start" x="427" y="-341.5" font-family="Helvetica,sans-Serif" font-size="10.00">/home/runner/work/Catena</text>
<text text-anchor="start" x="427" y="-330.5" font-family="Helvetica,sans-Serif" font-size="10.00">/Catena/sdks/cpp/common</text>
<text text-anchor="middle" x="492" y="-319.5" font-family="Helvetica,sans-Serif" font-size="10.00">/include/Device.h</text>
</a>
</g>
</g>
<!-- Node2 -->
<g id="node2" class="node">
<title>Node2</title>
<g id="a_node2"><a xlink:href="LanguagePack_8h.html" target="_top" xlink:title="multi language support in 2 classes: LanguagePack and LanguagePacks">
<polygon fill="white" stroke="black" points="0,-234.5 0,-275.5 146,-275.5 146,-234.5 0,-234.5"/>
<text text-anchor="start" x="8" y="-263.5" font-family="Helvetica,sans-Serif" font-size="10.00">/home/runner/work/Catena</text>
<text text-anchor="start" x="8" y="-252.5" font-family="Helvetica,sans-Serif" font-size="10.00">/Catena/sdks/cpp/common</text>
<text text-anchor="middle" x="73" y="-241.5" font-family="Helvetica,sans-Serif" font-size="10.00">/include/LanguagePack.h</text>
</a>
</g>
</g>
<!-- Node1&#45;&gt;Node2 -->
<g id="edge1" class="edge">
<title>Node1&#45;&gt;Node2</title>
<path fill="none" stroke="midnightblue" d="M408.46,-319.89C340.07,-309.55 240.94,-293.6 155,-276 152.13,-275.41 149.21,-274.79 146.26,-274.15"/>
<polygon fill="midnightblue" stroke="midnightblue" points="408.33,-323.41 418.74,-321.44 409.37,-316.49 408.33,-323.41"/>
</g>
<!-- Node3 -->
<g id="node3" class="node">
<title>Node3</title>
<g id="a_node3"><a xlink:href="NamedChoiceConstraint_8h.html" target="_top" xlink:title="A constraint that checks if a value is within some named choices.">
<polygon fill="white" stroke="black" points="164.5,-234.5 164.5,-275.5 349.5,-275.5 349.5,-234.5 164.5,-234.5"/>
<text text-anchor="start" x="172.5" y="-263.5" font-family="Helvetica,sans-Serif" font-size="10.00">/home/runner/work/Catena</text>
<text text-anchor="start" x="172.5" y="-252.5" font-family="Helvetica,sans-Serif" font-size="10.00">/Catena/sdks/cpp/common</text>
<text text-anchor="middle" x="257" y="-241.5" font-family="Helvetica,sans-Serif" font-size="10.00">/include/NamedChoiceConstraint.h</text>
</a>
</g>
</g>
<!-- Node1&#45;&gt;Node3 -->
<g id="edge2" class="edge">
<title>Node1&#45;&gt;Node3</title>
<path fill="none" stroke="midnightblue" d="M421.82,-309.3C388.56,-298.55 349.22,-285.82 317.31,-275.51"/>
<polygon fill="midnightblue" stroke="midnightblue" points="420.89,-312.68 431.48,-312.43 423.04,-306.02 420.89,-312.68"/>
</g>
<!-- Node4 -->
<g id="node4" class="node">
<title>Node4</title>
<g id="a_node4"><a xlink:href="ParamDescriptor_8h_source.html" target="_top" xlink:title=" ">
<polygon fill="white" stroke="black" points="367.5,-234.5 367.5,-275.5 514.5,-275.5 514.5,-234.5 367.5,-234.5"/>
<text text-anchor="start" x="375.5" y="-263.5" font-family="Helvetica,sans-Serif" font-size="10.00">/home/runner/work/Catena</text>
<text text-anchor="start" x="375.5" y="-252.5" font-family="Helvetica,sans-Serif" font-size="10.00">/Catena/sdks/cpp/common</text>
<text text-anchor="middle" x="441" y="-241.5" font-family="Helvetica,sans-Serif" font-size="10.00">/include/ParamDescriptor.h</text>
</a>
</g>
</g>
<!-- Node1&#45;&gt;Node4 -->
<g id="edge3" class="edge">
<title>Node1&#45;&gt;Node4</title>
<path fill="none" stroke="midnightblue" d="M473.24,-304.05C466.88,-294.57 459.91,-284.18 454.09,-275.51"/>
<polygon fill="midnightblue" stroke="midnightblue" points="470.39,-306.07 478.87,-312.43 476.2,-302.17 470.39,-306.07"/>
</g>
<!-- Node6 -->
<g id="node6" class="node">
<title>Node6</title>
<g id="a_node6"><a xlink:href="ParamWithValue_8h.html" target="_top" xlink:title="Interface for acessing parameter values.">
<polygon fill="white" stroke="black" points="292.5,-0.5 292.5,-41.5 439.5,-41.5 439.5,-0.5 292.5,-0.5"/>
<text text-anchor="start" x="300.5" y="-29.5" font-family="Helvetica,sans-Serif" font-size="10.00">/home/runner/work/Catena</text>
<text text-anchor="start" x="300.5" y="-18.5" font-family="Helvetica,sans-Serif" font-size="10.00">/Catena/sdks/cpp/common</text>
<text text-anchor="middle" x="366" y="-7.5" font-family="Helvetica,sans-Serif" font-size="10.00">/include/ParamWithValue.h</text>
</a>
</g>
</g>
<!-- Node1&#45;&gt;Node6 -->
<g id="edge10" class="edge">
<title>Node1&#45;&gt;Node6</title>
<path fill="none" stroke="midnightblue" d="M511.97,-303.64C516.89,-295.14 521.47,-285.54 524,-276 538.78,-220.35 532.71,-114.11 505,-78 489,-57.15 463.99,-44.04 439.57,-35.8"/>
<polygon fill="midnightblue" stroke="midnightblue" points="508.85,-302.03 506.58,-312.37 514.81,-305.7 508.85,-302.03"/>
</g>
<!-- Node9 -->
<g id="node9" class="node">
<title>Node9</title>
<g id="a_node9"><a xlink:href="PicklistConstraint_8h.html" target="_top" xlink:title="A constraint that checks if a value is in a list of strings.">
<polygon fill="white" stroke="black" points="571,-234.5 571,-275.5 723,-275.5 723,-234.5 571,-234.5"/>
<text text-anchor="start" x="579" y="-263.5" font-family="Helvetica,sans-Serif" font-size="10.00">/home/runner/work/Catena</text>
<text text-anchor="start" x="579" y="-252.5" font-family="Helvetica,sans-Serif" font-size="10.00">/Catena/sdks/cpp/common</text>
<text text-anchor="middle" x="647" y="-241.5" font-family="Helvetica,sans-Serif" font-size="10.00">/include/PicklistConstraint.h</text>
</a>
</g>
</g>
<!-- Node1&#45;&gt;Node9 -->
<g id="edge11" class="edge">
<title>Node1&#45;&gt;Node9</title>
<path fill="none" stroke="midnightblue" d="M541.13,-307.91C562.45,-297.46 587.08,-285.38 607.22,-275.51"/>
<polygon fill="midnightblue" stroke="midnightblue" points="539.35,-304.88 531.92,-312.43 542.44,-311.17 539.35,-304.88"/>
</g>
<!-- Node10 -->
<g id="node10" class="node">
<title>Node10</title>
<g id="a_node10"><a xlink:href="RangeConstraint_8h.html" target="_top" xlink:title="A constraint that checks if a value is within a range.">
<polygon fill="white" stroke="black" points="741,-234.5 741,-275.5 889,-275.5 889,-234.5 741,-234.5"/>
<text text-anchor="start" x="749" y="-263.5" font-family="Helvetica,sans-Serif" font-size="10.00">/home/runner/work/Catena</text>
<text text-anchor="start" x="749" y="-252.5" font-family="Helvetica,sans-Serif" font-size="10.00">/Catena/sdks/cpp/common</text>
<text text-anchor="middle" x="815" y="-241.5" font-family="Helvetica,sans-Serif" font-size="10.00">/include/RangeConstraint.h</text>
</a>
</g>
</g>
<!-- Node1&#45;&gt;Node10 -->
<g id="edge12" class="edge">
<title>Node1&#45;&gt;Node10</title>
<path fill="none" stroke="midnightblue" d="M575,-312.79C621.23,-302.05 679.83,-288.37 732,-276 734.88,-275.32 737.82,-274.62 740.79,-273.91"/>
<polygon fill="midnightblue" stroke="midnightblue" points="573.98,-309.43 565.03,-315.1 575.56,-316.25 573.98,-309.43"/>
</g>
<!-- Node5 -->
<g id="node5" class="node">
<title>Node5</title>
<g id="a_node5"><a xlink:href="AuthzInfo_8h.html" target="_top" xlink:title="Class for handling authorization information.">
<polygon fill="white" stroke="black" points="240,-156.5 240,-197.5 386,-197.5 386,-156.5 240,-156.5"/>
<text text-anchor="start" x="248" y="-185.5" font-family="Helvetica,sans-Serif" font-size="10.00">/home/runner/work/Catena</text>
<text text-anchor="start" x="248" y="-174.5" font-family="Helvetica,sans-Serif" font-size="10.00">/Catena/sdks/cpp/common</text>
<text text-anchor="middle" x="313" y="-163.5" font-family="Helvetica,sans-Serif" font-size="10.00">/include/AuthzInfo.h</text>
</a>
</g>
</g>
<!-- Node4&#45;&gt;Node5 -->
<g id="edge4" class="edge">
<title>Node4&#45;&gt;Node5</title>
<path fill="none" stroke="midnightblue" d="M399.24,-229.2C381.91,-218.92 362.11,-207.16 345.85,-197.51"/>
<polygon fill="midnightblue" stroke="midnightblue" points="397.65,-232.33 408.04,-234.43 401.23,-226.31 397.65,-232.33"/>
</g>
<!-- Node4&#45;&gt;Node6 -->
<g id="edge9" class="edge">
<title>Node4&#45;&gt;Node6</title>
<path fill="none" stroke="midnightblue" d="M460.87,-225.79C484.01,-189.13 515.52,-124.35 486,-78 475.26,-61.13 457.95,-49.26 439.79,-40.94"/>
<polygon fill="midnightblue" stroke="midnightblue" points="457.74,-224.19 455.21,-234.48 463.61,-228.01 457.74,-224.19"/>
</g>
<!-- Node5&#45;&gt;Node6 -->
<g id="edge5" class="edge">
<title>Node5&#45;&gt;Node6</title>
<path fill="none" stroke="midnightblue" d="M229.67,-168.43C198.19,-161.04 165.34,-146.88 146,-120 135.1,-104.85 134.54,-92.74 146,-78 164.02,-54.82 235.59,-39.65 292.27,-31.02"/>
<polygon fill="midnightblue" stroke="midnightblue" points="229.32,-171.93 239.83,-170.6 230.78,-165.09 229.32,-171.93"/>
</g>
<!-- Node7 -->
<g id="node7" class="node">
<title>Node7</title>
<g id="a_node7"><a xlink:href="common_2include_2StructInfo_8h.html" target="_top" xlink:title="Structured data serialization and deserialization to protobuf.">
<polygon fill="white" stroke="black" points="155,-78.5 155,-119.5 301,-119.5 301,-78.5 155,-78.5"/>
<text text-anchor="start" x="163" y="-107.5" font-family="Helvetica,sans-Serif" font-size="10.00">/home/runner/work/Catena</text>
<text text-anchor="start" x="163" y="-96.5" font-family="Helvetica,sans-Serif" font-size="10.00">/Catena/sdks/cpp/common</text>
<text text-anchor="middle" x="228" y="-85.5" font-family="Helvetica,sans-Serif" font-size="10.00">/include/StructInfo.h</text>
</a>
</g>
</g>
<!-- Node5&#45;&gt;Node7 -->
<g id="edge6" class="edge">
<title>Node5&#45;&gt;Node7</title>
<path fill="none" stroke="midnightblue" d="M283.35,-149.49C272.32,-139.63 260.02,-128.63 249.82,-119.51"/>
<polygon fill="midnightblue" stroke="midnightblue" points="281.32,-152.37 291.11,-156.43 285.99,-147.15 281.32,-152.37"/>
</g>
<!-- Node8 -->
<g id="node8" class="node">
<title>Node8</title>
<g id="a_node8"><a xlink:href="lite_2include_2StructInfo_8h.html" target="_top" xlink:title="Structured data serialization and deserialization to protobuf.">
<polygon fill="white" stroke="black" points="319.5,-78.5 319.5,-119.5 476.5,-119.5 476.5,-78.5 319.5,-78.5"/>
<text text-anchor="start" x="327.5" y="-107.5" font-family="Helvetica,sans-Serif" font-size="10.00">/home/runner/work/Catena</text>
<text text-anchor="start" x="327.5" y="-96.5" font-family="Helvetica,sans-Serif" font-size="10.00">/Catena/sdks/cpp/lite/include</text>
<text text-anchor="middle" x="398" y="-85.5" font-family="Helvetica,sans-Serif" font-size="10.00">/StructInfo.h</text>
</a>
</g>
</g>
<!-- Node5&#45;&gt;Node8 -->
<g id="edge8" class="edge">
<title>Node5&#45;&gt;Node8</title>
<path fill="none" stroke="midnightblue" d="M342.65,-149.49C353.68,-139.63 365.98,-128.63 376.18,-119.51"/>
<polygon fill="midnightblue" stroke="midnightblue" points="340.01,-147.15 334.89,-156.43 344.68,-152.37 340.01,-147.15"/>
</g>
<!-- Node7&#45;&gt;Node6 -->
<g id="edge7" class="edge">
<title>Node7&#45;&gt;Node6</title>
<path fill="none" stroke="midnightblue" d="M272.51,-73.49C291.31,-63.13 312.89,-51.25 330.58,-41.51"/>
<polygon fill="midnightblue" stroke="midnightblue" points="270.61,-70.54 263.54,-78.43 273.99,-76.67 270.61,-70.54"/>
</g>
</g>
</svg>
