<?xml version="1.0" encoding="UTF-8" standalone="no"?>
<!DOCTYPE svg PUBLIC "-//W3C//DTD SVG 1.1//EN"
 "http://www.w3.org/Graphics/SVG/1.1/DTD/svg11.dtd">
<!-- Generated by graphviz version 2.43.0 (0)
 -->
<!-- Title: /home/runner/work/Catena/Catena/sdks/cpp/common/include/Device.h Pages: 1 -->
<svg width="2757pt" height="522pt"
 viewBox="0.00 0.00 2757.00 522.00" xmlns="http://www.w3.org/2000/svg" xmlns:xlink="http://www.w3.org/1999/xlink">
<g id="graph0" class="graph" transform="scale(1 1) rotate(0) translate(4 518)">
<title>/home/runner/work/Catena/Catena/sdks/cpp/common/include/Device.h</title>
<!-- Node1 -->
<g id="Node000001" class="node">
<title>Node1</title>
<g id="a_Node000001"><a xlink:title="Device class definition.">
<polygon fill="#999999" stroke="#666666" points="1654.5,-514 1508.5,-514 1508.5,-473 1654.5,-473 1654.5,-514"/>
<text text-anchor="start" x="1516.5" y="-502" font-family="Helvetica,sans-Serif" font-size="10.00">/home/runner/work/Catena</text>
<text text-anchor="start" x="1516.5" y="-491" font-family="Helvetica,sans-Serif" font-size="10.00">/Catena/sdks/cpp/common</text>
<text text-anchor="middle" x="1581.5" y="-480" font-family="Helvetica,sans-Serif" font-size="10.00">/include/Device.h</text>
</a>
</g>
</g>
<!-- Node2 -->
<g id="Node000002" class="node">
<title>Node2</title>
<g id="a_Node000002"><a xlink:href="IParamVisitor_8h.html" target="_top" xlink:title="Implements Catena IParamVisitor.">
<polygon fill="white" stroke="#666666" points="555.5,-437 409.5,-437 409.5,-396 555.5,-396 555.5,-437"/>
<text text-anchor="start" x="417.5" y="-425" font-family="Helvetica,sans-Serif" font-size="10.00">/home/runner/work/Catena</text>
<text text-anchor="start" x="417.5" y="-414" font-family="Helvetica,sans-Serif" font-size="10.00">/Catena/sdks/cpp/common</text>
<text text-anchor="middle" x="482.5" y="-403" font-family="Helvetica,sans-Serif" font-size="10.00">/include/IParamVisitor.h</text>
</a>
</g>
</g>
<!-- Node1&#45;&gt;Node2 -->
<g id="edge1_Node000001_Node000002" class="edge">
<title>Node1&#45;&gt;Node2</title>
<g id="a_edge1_Node000001_Node000002"><a xlink:title=" ">
<path fill="none" stroke="#63b8ff" d="M1498.31,-492.59C1324.79,-491.75 911.92,-484.43 569.5,-437 565.05,-436.38 560.5,-435.66 555.92,-434.85"/>
<polygon fill="#63b8ff" stroke="#63b8ff" points="1498.38,-496.09 1508.39,-492.63 1498.41,-489.09 1498.38,-496.09"/>
</a>
</g>
</g>
<!-- Node3 -->
<g id="Node000003" class="node">
<title>Node3</title>
<g id="a_Node000003"><a xlink:href="ParamVisitor_8h.html" target="_top" xlink:title="Implements Catena ParamVisitor.">
<polygon fill="white" stroke="#666666" points="574.5,-354.5 428.5,-354.5 428.5,-313.5 574.5,-313.5 574.5,-354.5"/>
<text text-anchor="start" x="436.5" y="-342.5" font-family="Helvetica,sans-Serif" font-size="10.00">/home/runner/work/Catena</text>
<text text-anchor="start" x="436.5" y="-331.5" font-family="Helvetica,sans-Serif" font-size="10.00">/Catena/sdks/cpp/common</text>
<text text-anchor="middle" x="501.5" y="-320.5" font-family="Helvetica,sans-Serif" font-size="10.00">/include/ParamVisitor.h</text>
</a>
</g>
</g>
<!-- Node1&#45;&gt;Node3 -->
<g id="edge28_Node000001_Node000003" class="edge">
<title>Node1&#45;&gt;Node3</title>
<g id="a_edge28_Node000001_Node000003"><a xlink:title=" ">
<path fill="none" stroke="#63b8ff" d="M1498.01,-491.05C1276.97,-486.76 687.96,-472.12 607.5,-437 606.83,-436.71 552.36,-384.14 521.78,-354.6"/>
<polygon fill="#63b8ff" stroke="#63b8ff" points="1498.19,-494.56 1508.25,-491.25 1498.32,-487.56 1498.19,-494.56"/>
</a>
</g>
</g>
<!-- Node4 -->
<g id="Node000004" class="node">
<title>Node4</title>
<g id="a_Node000004"><a xlink:href="SubscriptionManager_8h.html" target="_top" xlink:title="Centralized manager for parameter subscriptions in Catena.">
<polygon fill="white" stroke="#666666" points="609,-272 440,-272 440,-231 609,-231 609,-272"/>
<text text-anchor="start" x="448" y="-260" font-family="Helvetica,sans-Serif" font-size="10.00">/home/runner/work/Catena</text>
<text text-anchor="start" x="448" y="-249" font-family="Helvetica,sans-Serif" font-size="10.00">/Catena/sdks/cpp/common</text>
<text text-anchor="middle" x="524.5" y="-238" font-family="Helvetica,sans-Serif" font-size="10.00">/include/SubscriptionManager.h</text>
</a>
</g>
</g>
<!-- Node1&#45;&gt;Node4 -->
<g id="edge32_Node000001_Node000004" class="edge">
<title>Node1&#45;&gt;Node4</title>
<g id="a_edge32_Node000001_Node000004"><a xlink:title=" ">
<path fill="none" stroke="#63b8ff" d="M1498.18,-492.33C1282.04,-491.23 715.32,-483.85 645.5,-437 592.68,-401.56 621.08,-359.33 583.5,-308 573.78,-294.72 560.62,-281.99 549.2,-272.08"/>
<polygon fill="#63b8ff" stroke="#63b8ff" points="1498.18,-495.83 1508.2,-492.38 1498.22,-488.83 1498.18,-495.83"/>
</a>
</g>
</g>
<!-- Node6 -->
<g id="Node000006" class="node">
<title>Node6</title>
<g id="a_Node000006"><a xlink:href="gRPC_2include_2ServiceImpl_8h.html" target="_top" xlink:title="Implements Catena gRPC request handlers.">
<polygon fill="white" stroke="#666666" points="1095,-195 934,-195 934,-154 1095,-154 1095,-195"/>
<text text-anchor="start" x="942" y="-183" font-family="Helvetica,sans-Serif" font-size="10.00">/home/runner/work/Catena</text>
<text text-anchor="start" x="942" y="-172" font-family="Helvetica,sans-Serif" font-size="10.00">/Catena/sdks/cpp/connections</text>
<text text-anchor="middle" x="1014.5" y="-161" font-family="Helvetica,sans-Serif" font-size="10.00">/gRPC/include/ServiceImpl.h</text>
</a>
</g>
</g>
<!-- Node1&#45;&gt;Node6 -->
<g id="edge51_Node000001_Node000006" class="edge">
<title>Node1&#45;&gt;Node6</title>
<g id="a_edge51_Node000001_Node000006"><a xlink:title=" ">
<path fill="none" stroke="#63b8ff" d="M1498.25,-490.44C1280.05,-484.64 706.35,-466.62 678.5,-437 579.75,-332 826.39,-235.23 949.54,-195.08"/>
<polygon fill="#63b8ff" stroke="#63b8ff" points="1498.28,-493.94 1508.37,-490.71 1498.47,-486.94 1498.28,-493.94"/>
</a>
</g>
</g>
<!-- Node20 -->
<g id="Node000020" class="node">
<title>Node20</title>
<g id="a_Node000020"><a xlink:href="LanguagePack_8h.html" target="_top" xlink:title="multi language support in 2 classes: LanguagePack and LanguagePacks">
<polygon fill="white" stroke="#666666" points="833.5,-437 687.5,-437 687.5,-396 833.5,-396 833.5,-437"/>
<text text-anchor="start" x="695.5" y="-425" font-family="Helvetica,sans-Serif" font-size="10.00">/home/runner/work/Catena</text>
<text text-anchor="start" x="695.5" y="-414" font-family="Helvetica,sans-Serif" font-size="10.00">/Catena/sdks/cpp/common</text>
<text text-anchor="middle" x="760.5" y="-403" font-family="Helvetica,sans-Serif" font-size="10.00">/include/LanguagePack.h</text>
</a>
</g>
</g>
<!-- Node1&#45;&gt;Node20 -->
<g id="edge23_Node000001_Node000020" class="edge">
<title>Node1&#45;&gt;Node20</title>
<g id="a_edge23_Node000001_Node000020"><a xlink:title=" ">
<path fill="none" stroke="#63b8ff" d="M1498.39,-490.55C1361.1,-486.36 1078.62,-473.7 842.5,-437 839.61,-436.55 836.67,-436.05 833.7,-435.52"/>
<polygon fill="#63b8ff" stroke="#63b8ff" points="1498.32,-494.05 1508.42,-490.85 1498.53,-487.05 1498.32,-494.05"/>
</a>
</g>
</g>
<!-- Node21 -->
<g id="Node000021" class="node">
<title>Node21</title>
<g id="a_Node000021"><a xlink:href="Menu_8h.html" target="_top" xlink:title="Menus support.">
<polygon fill="white" stroke="#666666" points="997.5,-437 851.5,-437 851.5,-396 997.5,-396 997.5,-437"/>
<text text-anchor="start" x="859.5" y="-425" font-family="Helvetica,sans-Serif" font-size="10.00">/home/runner/work/Catena</text>
<text text-anchor="start" x="859.5" y="-414" font-family="Helvetica,sans-Serif" font-size="10.00">/Catena/sdks/cpp/common</text>
<text text-anchor="middle" x="924.5" y="-403" font-family="Helvetica,sans-Serif" font-size="10.00">/include/Menu.h</text>
</a>
</g>
</g>
<!-- Node1&#45;&gt;Node21 -->
<g id="edge24_Node000001_Node000021" class="edge">
<title>Node1&#45;&gt;Node21</title>
<g id="a_edge24_Node000001_Node000021"><a xlink:title=" ">
<path fill="none" stroke="#63b8ff" d="M1498.09,-487.61C1386.67,-480.35 1183.34,-464.52 1011.5,-437 1007.07,-436.29 1002.52,-435.49 997.95,-434.63"/>
<polygon fill="#63b8ff" stroke="#63b8ff" points="1498.04,-491.12 1508.25,-488.27 1498.5,-484.13 1498.04,-491.12"/>
</a>
</g>
</g>
<!-- Node22 -->
<g id="Node000022" class="node">
<title>Node22</title>
<g id="a_Node000022"><a xlink:href="MenuGroup_8h.html" target="_top" xlink:title="MenuGroups support.">
<polygon fill="white" stroke="#666666" points="1047.5,-354.5 901.5,-354.5 901.5,-313.5 1047.5,-313.5 1047.5,-354.5"/>
<text text-anchor="start" x="909.5" y="-342.5" font-family="Helvetica,sans-Serif" font-size="10.00">/home/runner/work/Catena</text>
<text text-anchor="start" x="909.5" y="-331.5" font-family="Helvetica,sans-Serif" font-size="10.00">/Catena/sdks/cpp/common</text>
<text text-anchor="middle" x="974.5" y="-320.5" font-family="Helvetica,sans-Serif" font-size="10.00">/include/MenuGroup.h</text>
</a>
</g>
</g>
<!-- Node1&#45;&gt;Node22 -->
<g id="edge26_Node000001_Node000022" class="edge">
<title>Node1&#45;&gt;Node22</title>
<g id="a_edge26_Node000001_Node000022"><a xlink:title=" ">
<path fill="none" stroke="#63b8ff" d="M1498.4,-492.37C1366.92,-490.77 1118.19,-481.71 1043.5,-437 1027.17,-427.23 1000.19,-381.73 985.27,-354.92"/>
<polygon fill="#63b8ff" stroke="#63b8ff" points="1498.39,-495.87 1508.43,-492.48 1498.47,-488.87 1498.39,-495.87"/>
</a>
</g>
</g>
<!-- Node23 -->
<g id="Node000023" class="node">
<title>Node23</title>
<g id="a_Node000023"><a xlink:href="NamedChoiceConstraint_8h.html" target="_top" xlink:title="A constraint that checks if a value is within some named choices.">
<polygon fill="white" stroke="#666666" points="1238,-437 1053,-437 1053,-396 1238,-396 1238,-437"/>
<text text-anchor="start" x="1061" y="-425" font-family="Helvetica,sans-Serif" font-size="10.00">/home/runner/work/Catena</text>
<text text-anchor="start" x="1061" y="-414" font-family="Helvetica,sans-Serif" font-size="10.00">/Catena/sdks/cpp/common</text>
<text text-anchor="middle" x="1145.5" y="-403" font-family="Helvetica,sans-Serif" font-size="10.00">/include/NamedChoiceConstraint.h</text>
</a>
</g>
</g>
<!-- Node1&#45;&gt;Node23 -->
<g id="edge27_Node000001_Node000023" class="edge">
<title>Node1&#45;&gt;Node23</title>
<g id="a_edge27_Node000001_Node000023"><a xlink:title=" ">
<path fill="none" stroke="#63b8ff" d="M1498.01,-479.3C1430.17,-468.42 1332.05,-452.34 1246.5,-437 1243.78,-436.51 1241.01,-436.01 1238.22,-435.5"/>
<polygon fill="#63b8ff" stroke="#63b8ff" points="1497.78,-482.81 1508.21,-480.93 1498.89,-475.9 1497.78,-482.81"/>
</a>
</g>
</g>
<!-- Node24 -->
<g id="Node000024" class="node">
<title>Node24</title>
<g id="a_Node000024"><a xlink:href="ParamWithValue_8h.html" target="_top" xlink:title="Interface for acessing parameter values.">
<polygon fill="white" stroke="#666666" points="1403,-437 1256,-437 1256,-396 1403,-396 1403,-437"/>
<text text-anchor="start" x="1264" y="-425" font-family="Helvetica,sans-Serif" font-size="10.00">/home/runner/work/Catena</text>
<text text-anchor="start" x="1264" y="-414" font-family="Helvetica,sans-Serif" font-size="10.00">/Catena/sdks/cpp/common</text>
<text text-anchor="middle" x="1329.5" y="-403" font-family="Helvetica,sans-Serif" font-size="10.00">/include/ParamWithValue.h</text>
</a>
</g>
</g>
<!-- Node1&#45;&gt;Node24 -->
<g id="edge29_Node000001_Node000024" class="edge">
<title>Node1&#45;&gt;Node24</title>
<g id="a_edge29_Node000001_Node000024"><a xlink:title=" ">
<path fill="none" stroke="#63b8ff" d="M1506.17,-470.08C1470.85,-459.57 1429.17,-447.16 1395.16,-437.04"/>
<polygon fill="#63b8ff" stroke="#63b8ff" points="1505.36,-473.49 1515.95,-472.99 1507.36,-466.78 1505.36,-473.49"/>
</a>
</g>
</g>
<!-- Node25 -->
<g id="Node000025" class="node">
<title>Node25</title>
<g id="a_Node000025"><a xlink:href="PicklistConstraint_8h.html" target="_top" xlink:title="A constraint that checks if a value is in a list of strings.">
<polygon fill="white" stroke="#666666" points="1573.5,-437 1421.5,-437 1421.5,-396 1573.5,-396 1573.5,-437"/>
<text text-anchor="start" x="1429.5" y="-425" font-family="Helvetica,sans-Serif" font-size="10.00">/home/runner/work/Catena</text>
<text text-anchor="start" x="1429.5" y="-414" font-family="Helvetica,sans-Serif" font-size="10.00">/Catena/sdks/cpp/common</text>
<text text-anchor="middle" x="1497.5" y="-403" font-family="Helvetica,sans-Serif" font-size="10.00">/include/PicklistConstraint.h</text>
</a>
</g>
</g>
<!-- Node1&#45;&gt;Node25 -->
<g id="edge30_Node000001_Node000025" class="edge">
<title>Node1&#45;&gt;Node25</title>
<g id="a_edge30_Node000001_Node000025"><a xlink:title=" ">
<path fill="none" stroke="#63b8ff" d="M1551.9,-466.07C1541.21,-456.52 1529.34,-445.93 1519.42,-437.07"/>
<polygon fill="#63b8ff" stroke="#63b8ff" points="1549.64,-468.75 1559.43,-472.79 1554.3,-463.52 1549.64,-468.75"/>
</a>
</g>
</g>
<!-- Node26 -->
<g id="Node000026" class="node">
<title>Node26</title>
<g id="a_Node000026"><a xlink:href="RangeConstraint_8h.html" target="_top" xlink:title="A constraint that checks if a value is within a range.">
<polygon fill="white" stroke="#666666" points="1739.5,-437 1591.5,-437 1591.5,-396 1739.5,-396 1739.5,-437"/>
<text text-anchor="start" x="1599.5" y="-425" font-family="Helvetica,sans-Serif" font-size="10.00">/home/runner/work/Catena</text>
<text text-anchor="start" x="1599.5" y="-414" font-family="Helvetica,sans-Serif" font-size="10.00">/Catena/sdks/cpp/common</text>
<text text-anchor="middle" x="1665.5" y="-403" font-family="Helvetica,sans-Serif" font-size="10.00">/include/RangeConstraint.h</text>
</a>
</g>
</g>
<!-- Node1&#45;&gt;Node26 -->
<g id="edge31_Node000001_Node000026" class="edge">
<title>Node1&#45;&gt;Node26</title>
<g id="a_edge31_Node000001_Node000026"><a xlink:title=" ">
<path fill="none" stroke="#63b8ff" d="M1611.1,-466.07C1621.79,-456.52 1633.66,-445.93 1643.58,-437.07"/>
<polygon fill="#63b8ff" stroke="#63b8ff" points="1608.7,-463.52 1603.57,-472.79 1613.36,-468.75 1608.7,-463.52"/>
</a>
</g>
</g>
<!-- Node27 -->
<g id="Node000027" class="node">
<title>Node27</title>
<g id="a_Node000027"><a xlink:href="common_2include_2rpc_2Connect_8h.html" target="_top" xlink:title="Pure virtual class for Connect RPCs used to share update code.">
<polygon fill="white" stroke="#666666" points="1903.5,-437 1757.5,-437 1757.5,-396 1903.5,-396 1903.5,-437"/>
<text text-anchor="start" x="1765.5" y="-425" font-family="Helvetica,sans-Serif" font-size="10.00">/home/runner/work/Catena</text>
<text text-anchor="start" x="1765.5" y="-414" font-family="Helvetica,sans-Serif" font-size="10.00">/Catena/sdks/cpp/common</text>
<text text-anchor="middle" x="1830.5" y="-403" font-family="Helvetica,sans-Serif" font-size="10.00">/include/rpc/Connect.h</text>
</a>
</g>
</g>
<!-- Node1&#45;&gt;Node27 -->
<g id="edge33_Node000001_Node000027" class="edge">
<title>Node1&#45;&gt;Node27</title>
<g id="a_edge33_Node000001_Node000027"><a xlink:title=" ">
<path fill="none" stroke="#63b8ff" d="M1655.94,-470.08C1690.83,-459.57 1732.02,-447.16 1765.62,-437.04"/>
<polygon fill="#63b8ff" stroke="#63b8ff" points="1654.84,-466.76 1646.27,-472.99 1656.86,-473.46 1654.84,-466.76"/>
</a>
</g>
</g>
<!-- Node28 -->
<g id="Node000028" class="node">
<title>Node28</title>
<g id="a_Node000028"><a xlink:href="connections_2REST_2include_2controllers_2Connect_8h.html" target="_top" xlink:title="Implements REST Connect RPC.">
<polygon fill="white" stroke="#666666" points="1657,-354.5 1468,-354.5 1468,-313.5 1657,-313.5 1657,-354.5"/>
<text text-anchor="start" x="1476" y="-342.5" font-family="Helvetica,sans-Serif" font-size="10.00">/home/runner/work/Catena</text>
<text text-anchor="start" x="1476" y="-331.5" font-family="Helvetica,sans-Serif" font-size="10.00">/Catena/sdks/cpp/connections</text>
<text text-anchor="middle" x="1562.5" y="-320.5" font-family="Helvetica,sans-Serif" font-size="10.00">/REST/include/controllers/Connect.h</text>
</a>
</g>
</g>
<!-- Node1&#45;&gt;Node28 -->
<g id="edge36_Node000001_Node000028" class="edge">
<title>Node1&#45;&gt;Node28</title>
<g id="a_edge36_Node000001_Node000028"><a xlink:title=" ">
<path fill="none" stroke="#63b8ff" d="M1664.75,-490.39C1752.22,-486.21 1881.36,-473.79 1912.5,-437 1924.27,-423.09 1924.42,-409.79 1912.5,-396 1876.37,-354.2 1720.75,-370.47 1666.5,-360 1658.02,-358.36 1649.19,-356.5 1640.42,-354.54"/>
<polygon fill="#63b8ff" stroke="#63b8ff" points="1664.4,-486.9 1654.57,-490.85 1664.72,-493.9 1664.4,-486.9"/>
</a>
</g>
</g>
<!-- Node29 -->
<g id="Node000029" class="node">
<title>Node29</title>
<g id="a_Node000029"><a xlink:href="REST_2include_2ServiceImpl_8h_source.html" target="_top" xlink:title=" ">
<polygon fill="white" stroke="#666666" points="2514,-354.5 2353,-354.5 2353,-313.5 2514,-313.5 2514,-354.5"/>
<text text-anchor="start" x="2361" y="-342.5" font-family="Helvetica,sans-Serif" font-size="10.00">/home/runner/work/Catena</text>
<text text-anchor="start" x="2361" y="-331.5" font-family="Helvetica,sans-Serif" font-size="10.00">/Catena/sdks/cpp/connections</text>
<text text-anchor="middle" x="2433.5" y="-320.5" font-family="Helvetica,sans-Serif" font-size="10.00">/REST/include/ServiceImpl.h</text>
</a>
</g>
</g>
<!-- Node1&#45;&gt;Node29 -->
<g id="edge35_Node000001_Node000029" class="edge">
<title>Node1&#45;&gt;Node29</title>
<g id="a_edge35_Node000001_Node000029"><a xlink:title=" ">
<path fill="none" stroke="#63b8ff" d="M1665.04,-490.14C1819.63,-485.01 2144.31,-470.53 2251.5,-437 2286.28,-426.12 2290.75,-413.89 2322.5,-396 2347.4,-381.97 2375.64,-366.46 2397.4,-354.59"/>
<polygon fill="#63b8ff" stroke="#63b8ff" points="1664.54,-486.65 1654.66,-490.48 1664.77,-493.65 1664.54,-486.65"/>
</a>
</g>
</g>
<!-- Node30 -->
<g id="Node000030" class="node">
<title>Node30</title>
<g id="a_Node000030"><a xlink:href="REST_2include_2controllers_2DeviceRequest_8h.html" target="_top" xlink:title="Implements REST DeviceRequest RPC.">
<polygon fill="white" stroke="#666666" points="1898,-354.5 1675,-354.5 1675,-313.5 1898,-313.5 1898,-354.5"/>
<text text-anchor="start" x="1683" y="-342.5" font-family="Helvetica,sans-Serif" font-size="10.00">/home/runner/work/Catena</text>
<text text-anchor="start" x="1683" y="-331.5" font-family="Helvetica,sans-Serif" font-size="10.00">/Catena/sdks/cpp/connections</text>
<text text-anchor="middle" x="1786.5" y="-320.5" font-family="Helvetica,sans-Serif" font-size="10.00">/REST/include/controllers/DeviceRequest.h</text>
</a>
</g>
</g>
<!-- Node1&#45;&gt;Node30 -->
<g id="edge37_Node000001_Node000030" class="edge">
<title>Node1&#45;&gt;Node30</title>
<g id="a_edge37_Node000001_Node000030"><a xlink:title=" ">
<path fill="none" stroke="#63b8ff" d="M1664.68,-491.24C1756.87,-487.88 1897,-476.24 1930.5,-437 1942.33,-423.14 1940.56,-411.19 1930.5,-396 1917.76,-376.76 1897.6,-363.57 1876.36,-354.54"/>
<polygon fill="#63b8ff" stroke="#63b8ff" points="1664.4,-487.75 1654.53,-491.59 1664.64,-494.75 1664.4,-487.75"/>
</a>
</g>
</g>
<!-- Node31 -->
<g id="Node000031" class="node">
<title>Node31</title>
<g id="a_Node000031"><a xlink:href="REST_2include_2controllers_2GetPopulatedSlots_8h.html" target="_top" xlink:title="Implements REST GetPopulatedSlots RPC.">
<polygon fill="white" stroke="#666666" points="2122.5,-360 1916.5,-360 1916.5,-308 2122.5,-308 2122.5,-360"/>
<text text-anchor="start" x="1924.5" y="-348" font-family="Helvetica,sans-Serif" font-size="10.00">/home/runner/work/Catena</text>
<text text-anchor="start" x="1924.5" y="-337" font-family="Helvetica,sans-Serif" font-size="10.00">/Catena/sdks/cpp/connections</text>
<text text-anchor="start" x="1924.5" y="-326" font-family="Helvetica,sans-Serif" font-size="10.00">/REST/include/controllers/GetPopulated</text>
<text text-anchor="middle" x="2019.5" y="-315" font-family="Helvetica,sans-Serif" font-size="10.00">Slots.h</text>
</a>
</g>
</g>
<!-- Node1&#45;&gt;Node31 -->
<g id="edge38_Node000001_Node000031" class="edge">
<title>Node1&#45;&gt;Node31</title>
<g id="a_edge38_Node000001_Node000031"><a xlink:title=" ">
<path fill="none" stroke="#63b8ff" d="M1664.88,-487.51C1758.22,-480.62 1902.44,-465.65 1948.5,-437 1977.63,-418.88 1997.96,-383.92 2009.19,-360.03"/>
<polygon fill="#63b8ff" stroke="#63b8ff" points="1664.61,-484.02 1654.89,-488.23 1665.12,-491.01 1664.61,-484.02"/>
</a>
</g>
</g>
<!-- Node32 -->
<g id="Node000032" class="node">
<title>Node32</title>
<g id="a_Node000032"><a xlink:href="REST_2include_2controllers_2GetValue_8h.html" target="_top" xlink:title="Implements REST GetValue RPC.">
<polygon fill="white" stroke="#666666" points="2334.5,-354.5 2140.5,-354.5 2140.5,-313.5 2334.5,-313.5 2334.5,-354.5"/>
<text text-anchor="start" x="2148.5" y="-342.5" font-family="Helvetica,sans-Serif" font-size="10.00">/home/runner/work/Catena</text>
<text text-anchor="start" x="2148.5" y="-331.5" font-family="Helvetica,sans-Serif" font-size="10.00">/Catena/sdks/cpp/connections</text>
<text text-anchor="middle" x="2237.5" y="-320.5" font-family="Helvetica,sans-Serif" font-size="10.00">/REST/include/controllers/GetValue.h</text>
</a>
</g>
</g>
<!-- Node1&#45;&gt;Node32 -->
<g id="edge39_Node000001_Node000032" class="edge">
<title>Node1&#45;&gt;Node32</title>
<g id="a_edge39_Node000001_Node000032"><a xlink:title=" ">
<path fill="none" stroke="#63b8ff" d="M1664.97,-491.3C1831.33,-488.07 2191.62,-476.54 2230.5,-437 2251.66,-415.48 2247.8,-377.56 2242.82,-354.52"/>
<polygon fill="#63b8ff" stroke="#63b8ff" points="1664.72,-487.81 1654.78,-491.49 1664.85,-494.8 1664.72,-487.81"/>
</a>
</g>
</g>
<!-- Node33 -->
<g id="Node000033" class="node">
<title>Node33</title>
<g id="a_Node000033"><a xlink:href="REST_2include_2controllers_2MultiSetValue_8h.html" target="_top" xlink:title="Implements REST MultiSetValue RPC.">
<polygon fill="white" stroke="#666666" points="2749,-354.5 2532,-354.5 2532,-313.5 2749,-313.5 2749,-354.5"/>
<text text-anchor="start" x="2540" y="-342.5" font-family="Helvetica,sans-Serif" font-size="10.00">/home/runner/work/Catena</text>
<text text-anchor="start" x="2540" y="-331.5" font-family="Helvetica,sans-Serif" font-size="10.00">/Catena/sdks/cpp/connections</text>
<text text-anchor="middle" x="2640.5" y="-320.5" font-family="Helvetica,sans-Serif" font-size="10.00">/REST/include/controllers/MultiSetValue.h</text>
</a>
</g>
</g>
<!-- Node1&#45;&gt;Node33 -->
<g id="edge40_Node000001_Node000033" class="edge">
<title>Node1&#45;&gt;Node33</title>
<g id="a_edge40_Node000001_Node000033"><a xlink:title=" ">
<path fill="none" stroke="#63b8ff" d="M1664.73,-491.16C1883.61,-487.15 2463.91,-473.19 2542.5,-437 2581.09,-419.23 2612.28,-378.9 2628.44,-354.61"/>
<polygon fill="#63b8ff" stroke="#63b8ff" points="1664.52,-487.66 1654.59,-491.34 1664.65,-494.66 1664.52,-487.66"/>
</a>
</g>
</g>
<!-- Node35 -->
<g id="Node000035" class="node">
<title>Node35</title>
<g id="a_Node000035"><a xlink:href="ICallData_8h.html" target="_top" xlink:title="Interface class for REST RPCs.">
<polygon fill="white" stroke="#666666" points="2221.5,-437 2035.5,-437 2035.5,-396 2221.5,-396 2221.5,-437"/>
<text text-anchor="start" x="2043.5" y="-425" font-family="Helvetica,sans-Serif" font-size="10.00">/home/runner/work/Catena</text>
<text text-anchor="start" x="2043.5" y="-414" font-family="Helvetica,sans-Serif" font-size="10.00">/Catena/sdks/cpp/connections</text>
<text text-anchor="middle" x="2128.5" y="-403" font-family="Helvetica,sans-Serif" font-size="10.00">/REST/include/interface/ICallData.h</text>
</a>
</g>
</g>
<!-- Node1&#45;&gt;Node35 -->
<g id="edge42_Node000001_Node000035" class="edge">
<title>Node1&#45;&gt;Node35</title>
<g id="a_edge42_Node000001_Node000035"><a xlink:title=" ">
<path fill="none" stroke="#63b8ff" d="M1664.85,-483.36C1753.48,-473.33 1897.67,-456.08 2021.5,-437 2026.07,-436.3 2030.75,-435.55 2035.47,-434.77"/>
<polygon fill="#63b8ff" stroke="#63b8ff" points="1664.4,-479.89 1654.85,-484.49 1665.18,-486.85 1664.4,-479.89"/>
</a>
</g>
</g>
<!-- Node36 -->
<g id="Node000036" class="node">
<title>Node36</title>
<g id="a_Node000036"><a xlink:href="IServiceImpl_8h.html" target="_top" xlink:title="Implements REST API.">
<polygon fill="white" stroke="#666666" points="2533.5,-437 2331.5,-437 2331.5,-396 2533.5,-396 2533.5,-437"/>
<text text-anchor="start" x="2339.5" y="-425" font-family="Helvetica,sans-Serif" font-size="10.00">/home/runner/work/Catena</text>
<text text-anchor="start" x="2339.5" y="-414" font-family="Helvetica,sans-Serif" font-size="10.00">/Catena/sdks/cpp/connections</text>
<text text-anchor="middle" x="2432.5" y="-403" font-family="Helvetica,sans-Serif" font-size="10.00">/REST/include/interface/IServiceImpl.h</text>
</a>
</g>
</g>
<!-- Node1&#45;&gt;Node36 -->
<g id="edge49_Node000001_Node000036" class="edge">
<title>Node1&#45;&gt;Node36</title>
<g id="a_edge49_Node000001_Node000036"><a xlink:title=" ">
<path fill="none" stroke="#63b8ff" d="M1665.01,-488.63C1801.46,-481.75 2080.57,-465.4 2315.5,-437 2320.71,-436.37 2326.05,-435.67 2331.43,-434.93"/>
<polygon fill="#63b8ff" stroke="#63b8ff" points="1664.45,-485.15 1654.64,-489.15 1664.8,-492.14 1664.45,-485.15"/>
</a>
</g>
</g>
<!-- Node2&#45;&gt;Node3 -->
<g id="edge2_Node000002_Node000003" class="edge">
<title>Node2&#45;&gt;Node3</title>
<g id="a_edge2_Node000002_Node000003"><a xlink:title=" ">
<path fill="none" stroke="#63b8ff" d="M489.54,-385.69C491.98,-375.34 494.66,-364 496.86,-354.67"/>
<polygon fill="#63b8ff" stroke="#63b8ff" points="486.09,-385.06 487.2,-395.6 492.9,-386.67 486.09,-385.06"/>
</a>
</g>
</g>
<!-- Node3&#45;&gt;Node4 -->
<g id="edge3_Node000003_Node000004" class="edge">
<title>Node3&#45;&gt;Node4</title>
<g id="a_edge3_Node000003_Node000004"><a xlink:title=" ">
<path fill="none" stroke="#63b8ff" d="M510.02,-303.19C512.97,-292.84 516.22,-281.5 518.88,-272.17"/>
<polygon fill="#63b8ff" stroke="#63b8ff" points="506.57,-302.52 507.19,-313.1 513.3,-304.45 506.57,-302.52"/>
</a>
</g>
</g>
<!-- Node8 -->
<g id="Node000008" class="node">
<title>Node8</title>
<g id="a_Node000008"><a xlink:href="BasicParamInfoRequest_8h_source.html" target="_top" xlink:title=" ">
<polygon fill="white" stroke="#666666" points="211,-118 0,-118 0,-77 211,-77 211,-118"/>
<text text-anchor="start" x="8" y="-106" font-family="Helvetica,sans-Serif" font-size="10.00">/home/runner/work/Catena</text>
<text text-anchor="start" x="8" y="-95" font-family="Helvetica,sans-Serif" font-size="10.00">/Catena/sdks/cpp/connections</text>
<text text-anchor="middle" x="105.5" y="-84" font-family="Helvetica,sans-Serif" font-size="10.00">/gRPC/include/BasicParamInfoRequest.h</text>
</a>
</g>
</g>
<!-- Node3&#45;&gt;Node8 -->
<g id="edge22_Node000003_Node000008" class="edge">
<title>Node3&#45;&gt;Node8</title>
<g id="a_edge22_Node000003_Node000008"><a xlink:title=" ">
<path fill="none" stroke="#63b8ff" d="M459.68,-308.24C380.52,-261.36 210.26,-160.54 138.49,-118.03"/>
<polygon fill="#63b8ff" stroke="#63b8ff" points="458.03,-311.33 468.42,-313.41 461.6,-305.3 458.03,-311.33"/>
</a>
</g>
</g>
<!-- Node5 -->
<g id="Node000005" class="node">
<title>Node5</title>
<g id="a_Node000005"><a xlink:href="connections_2gRPC_2include_2Connect_8h.html" target="_top" xlink:title="Implements Catena gRPC Connect.">
<polygon fill="white" stroke="#666666" points="605,-118 444,-118 444,-77 605,-77 605,-118"/>
<text text-anchor="start" x="452" y="-106" font-family="Helvetica,sans-Serif" font-size="10.00">/home/runner/work/Catena</text>
<text text-anchor="start" x="452" y="-95" font-family="Helvetica,sans-Serif" font-size="10.00">/Catena/sdks/cpp/connections</text>
<text text-anchor="middle" x="524.5" y="-84" font-family="Helvetica,sans-Serif" font-size="10.00">/gRPC/include/Connect.h</text>
</a>
</g>
</g>
<!-- Node4&#45;&gt;Node5 -->
<g id="edge4_Node000004_Node000005" class="edge">
<title>Node4&#45;&gt;Node5</title>
<g id="a_edge4_Node000004_Node000005"><a xlink:title=" ">
<path fill="none" stroke="#63b8ff" d="M524.5,-220.58C524.5,-190.36 524.5,-144.53 524.5,-118.47"/>
<polygon fill="#63b8ff" stroke="#63b8ff" points="521,-220.94 524.5,-230.94 528,-220.94 521,-220.94"/>
</a>
</g>
</g>
<!-- Node4&#45;&gt;Node6 -->
<g id="edge5_Node000004_Node000006" class="edge">
<title>Node4&#45;&gt;Node6</title>
<g id="a_edge5_Node000004_Node000006"><a xlink:title=" ">
<path fill="none" stroke="#63b8ff" d="M619.15,-235.15C628.05,-233.73 636.95,-232.33 645.5,-231 744.72,-215.54 859.06,-198.46 933.84,-187.38"/>
<polygon fill="#63b8ff" stroke="#63b8ff" points="618.43,-231.72 609.1,-236.75 619.53,-238.63 618.43,-231.72"/>
</a>
</g>
</g>
<!-- Node19 -->
<g id="Node000019" class="node">
<title>Node19</title>
<g id="a_Node000019"><a xlink:href="UpdateSubscriptions_8h.html" target="_top" xlink:title="Implements Catena gRPC UpdateSubscriptions.">
<polygon fill="white" stroke="#666666" points="425.5,-118 229.5,-118 229.5,-77 425.5,-77 425.5,-118"/>
<text text-anchor="start" x="237.5" y="-106" font-family="Helvetica,sans-Serif" font-size="10.00">/home/runner/work/Catena</text>
<text text-anchor="start" x="237.5" y="-95" font-family="Helvetica,sans-Serif" font-size="10.00">/Catena/sdks/cpp/connections</text>
<text text-anchor="middle" x="327.5" y="-84" font-family="Helvetica,sans-Serif" font-size="10.00">/gRPC/include/UpdateSubscriptions.h</text>
</a>
</g>
</g>
<!-- Node4&#45;&gt;Node19 -->
<g id="edge21_Node000004_Node000019" class="edge">
<title>Node4&#45;&gt;Node19</title>
<g id="a_edge21_Node000004_Node000019"><a xlink:title=" ">
<path fill="none" stroke="#63b8ff" d="M491.22,-224.82C452.21,-194.72 388.4,-145.49 353.07,-118.23"/>
<polygon fill="#63b8ff" stroke="#63b8ff" points="489.09,-227.6 499.15,-230.94 493.37,-222.06 489.09,-227.6"/>
</a>
</g>
</g>
<!-- Node6&#45;&gt;Node5 -->
<g id="edge8_Node000006_Node000005" class="edge">
<title>Node6&#45;&gt;Node5</title>
<g id="a_edge8_Node000006_Node000005"><a xlink:title=" ">
<path fill="none" stroke="#63b8ff" d="M923.72,-162.99C842.23,-153.07 719.5,-136.92 613.5,-118 610.85,-117.53 608.16,-117.03 605.45,-116.52"/>
<polygon fill="#63b8ff" stroke="#63b8ff" points="923.59,-166.5 933.94,-164.23 924.44,-159.55 923.59,-166.5"/>
</a>
</g>
</g>
<!-- Node7 -->
<g id="Node000007" class="node">
<title>Node7</title>
<g id="a_Node000007"><a xlink:href="AddLanguage_8h.html" target="_top" xlink:title="Implements Catena gRPC AddLanguage.">
<polygon fill="white" stroke="#666666" points="1004,-118 843,-118 843,-77 1004,-77 1004,-118"/>
<text text-anchor="start" x="851" y="-106" font-family="Helvetica,sans-Serif" font-size="10.00">/home/runner/work/Catena</text>
<text text-anchor="start" x="851" y="-95" font-family="Helvetica,sans-Serif" font-size="10.00">/Catena/sdks/cpp/connections</text>
<text text-anchor="middle" x="923.5" y="-84" font-family="Helvetica,sans-Serif" font-size="10.00">/gRPC/include/AddLanguage.h</text>
</a>
</g>
</g>
<!-- Node6&#45;&gt;Node7 -->
<g id="edge6_Node000006_Node000007" class="edge">
<title>Node6&#45;&gt;Node7</title>
<g id="a_edge6_Node000006_Node000007"><a xlink:title=" ">
<path fill="none" stroke="#63b8ff" d="M982.77,-147.35C971.1,-137.73 958.1,-127.01 947.25,-118.07"/>
<polygon fill="#63b8ff" stroke="#63b8ff" points="980.65,-150.14 990.59,-153.79 985.1,-144.73 980.65,-150.14"/>
</a>
</g>
</g>
<!-- Node6&#45;&gt;Node8 -->
<g id="edge7_Node000006_Node000008" class="edge">
<title>Node6&#45;&gt;Node8</title>
<g id="a_edge7_Node000006_Node000008"><a xlink:title=" ">
<path fill="none" stroke="#63b8ff" d="M923.58,-170.05C775.74,-163.79 474.25,-148.31 220.5,-118 217.38,-117.63 214.22,-117.23 211.03,-116.81"/>
<polygon fill="#63b8ff" stroke="#63b8ff" points="923.82,-173.56 933.95,-170.49 924.11,-166.57 923.82,-173.56"/>
</a>
</g>
</g>
<!-- Node9 -->
<g id="Node000009" class="node">
<title>Node9</title>
<g id="a_Node000009"><a xlink:href="gRPC_2include_2DeviceRequest_8h.html" target="_top" xlink:title="Implements Catena gRPC DeviceRequest.">
<polygon fill="white" stroke="#666666" points="1191,-118 1022,-118 1022,-77 1191,-77 1191,-118"/>
<text text-anchor="start" x="1030" y="-106" font-family="Helvetica,sans-Serif" font-size="10.00">/home/runner/work/Catena</text>
<text text-anchor="start" x="1030" y="-95" font-family="Helvetica,sans-Serif" font-size="10.00">/Catena/sdks/cpp/connections</text>
<text text-anchor="middle" x="1106.5" y="-84" font-family="Helvetica,sans-Serif" font-size="10.00">/gRPC/include/DeviceRequest.h</text>
</a>
</g>
</g>
<!-- Node6&#45;&gt;Node9 -->
<g id="edge9_Node000006_Node000009" class="edge">
<title>Node6&#45;&gt;Node9</title>
<g id="a_edge9_Node000006_Node000009"><a xlink:title=" ">
<path fill="none" stroke="#63b8ff" d="M1046.58,-147.35C1058.38,-137.73 1071.52,-127.01 1082.49,-118.07"/>
<polygon fill="#63b8ff" stroke="#63b8ff" points="1044.21,-144.76 1038.67,-153.79 1048.63,-150.19 1044.21,-144.76"/>
</a>
</g>
</g>
<!-- Node10 -->
<g id="Node000010" class="node">
<title>Node10</title>
<g id="a_Node000010"><a xlink:href="ExecuteCommand_8h.html" target="_top" xlink:title="Implements Catena gRPC ExecuteCommand.">
<polygon fill="white" stroke="#666666" points="1393.5,-118 1209.5,-118 1209.5,-77 1393.5,-77 1393.5,-118"/>
<text text-anchor="start" x="1217.5" y="-106" font-family="Helvetica,sans-Serif" font-size="10.00">/home/runner/work/Catena</text>
<text text-anchor="start" x="1217.5" y="-95" font-family="Helvetica,sans-Serif" font-size="10.00">/Catena/sdks/cpp/connections</text>
<text text-anchor="middle" x="1301.5" y="-84" font-family="Helvetica,sans-Serif" font-size="10.00">/gRPC/include/ExecuteCommand.h</text>
</a>
</g>
</g>
<!-- Node6&#45;&gt;Node10 -->
<g id="edge10_Node000006_Node000010" class="edge">
<title>Node6&#45;&gt;Node10</title>
<g id="a_edge10_Node000006_Node000010"><a xlink:title=" ">
<path fill="none" stroke="#63b8ff" d="M1099.01,-151.42C1139.5,-140.84 1187.57,-128.27 1226.72,-118.04"/>
<polygon fill="#63b8ff" stroke="#63b8ff" points="1097.95,-148.08 1089.16,-153.99 1099.72,-154.85 1097.95,-148.08"/>
</a>
</g>
</g>
<!-- Node11 -->
<g id="Node000011" class="node">
<title>Node11</title>
<g id="a_Node000011"><a xlink:href="ExternalObjectRequest_8h.html" target="_top" xlink:title="Implements Catena gRPC ExternalObjectRequest.">
<polygon fill="white" stroke="#666666" points="1619,-118 1412,-118 1412,-77 1619,-77 1619,-118"/>
<text text-anchor="start" x="1420" y="-106" font-family="Helvetica,sans-Serif" font-size="10.00">/home/runner/work/Catena</text>
<text text-anchor="start" x="1420" y="-95" font-family="Helvetica,sans-Serif" font-size="10.00">/Catena/sdks/cpp/connections</text>
<text text-anchor="middle" x="1515.5" y="-84" font-family="Helvetica,sans-Serif" font-size="10.00">/gRPC/include/ExternalObjectRequest.h</text>
</a>
</g>
</g>
<!-- Node6&#45;&gt;Node11 -->
<g id="edge11_Node000006_Node000011" class="edge">
<title>Node6&#45;&gt;Node11</title>
<g id="a_edge11_Node000006_Node000011"><a xlink:title=" ">
<path fill="none" stroke="#63b8ff" d="M1105.59,-161.22C1184.29,-150.44 1301.02,-134.01 1402.5,-118 1405.55,-117.52 1408.64,-117.02 1411.76,-116.52"/>
<polygon fill="#63b8ff" stroke="#63b8ff" points="1104.66,-157.82 1095.23,-162.64 1105.61,-164.75 1104.66,-157.82"/>
</a>
</g>
</g>
<!-- Node12 -->
<g id="Node000012" class="node">
<title>Node12</title>
<g id="a_Node000012"><a xlink:href="GetParam_8h.html" target="_top" xlink:title="Implements Catena gRPC GetParam.">
<polygon fill="white" stroke="#666666" points="1798,-118 1637,-118 1637,-77 1798,-77 1798,-118"/>
<text text-anchor="start" x="1645" y="-106" font-family="Helvetica,sans-Serif" font-size="10.00">/home/runner/work/Catena</text>
<text text-anchor="start" x="1645" y="-95" font-family="Helvetica,sans-Serif" font-size="10.00">/Catena/sdks/cpp/connections</text>
<text text-anchor="middle" x="1717.5" y="-84" font-family="Helvetica,sans-Serif" font-size="10.00">/gRPC/include/GetParam.h</text>
</a>
</g>
</g>
<!-- Node6&#45;&gt;Node12 -->
<g id="edge12_Node000006_Node000012" class="edge">
<title>Node6&#45;&gt;Node12</title>
<g id="a_edge12_Node000006_Node000012"><a xlink:title=" ">
<path fill="none" stroke="#63b8ff" d="M1105.61,-168.85C1225.89,-161.89 1444,-146.44 1628.5,-118 1631.16,-117.59 1633.85,-117.15 1636.57,-116.68"/>
<polygon fill="#63b8ff" stroke="#63b8ff" points="1105.13,-165.37 1095.35,-169.43 1105.53,-172.36 1105.13,-165.37"/>
</a>
</g>
</g>
<!-- Node13 -->
<g id="Node000013" class="node">
<title>Node13</title>
<g id="a_Node000013"><a xlink:href="gRPC_2include_2GetPopulatedSlots_8h.html" target="_top" xlink:title="Implements Catena gRPC GetPopulatedSlots.">
<polygon fill="white" stroke="#666666" points="2001,-118 1816,-118 1816,-77 2001,-77 2001,-118"/>
<text text-anchor="start" x="1824" y="-106" font-family="Helvetica,sans-Serif" font-size="10.00">/home/runner/work/Catena</text>
<text text-anchor="start" x="1824" y="-95" font-family="Helvetica,sans-Serif" font-size="10.00">/Catena/sdks/cpp/connections</text>
<text text-anchor="middle" x="1908.5" y="-84" font-family="Helvetica,sans-Serif" font-size="10.00">/gRPC/include/GetPopulatedSlots.h</text>
</a>
</g>
</g>
<!-- Node6&#45;&gt;Node13 -->
<g id="edge13_Node000006_Node000013" class="edge">
<title>Node6&#45;&gt;Node13</title>
<g id="a_edge13_Node000006_Node000013"><a xlink:title=" ">
<path fill="none" stroke="#63b8ff" d="M1105.39,-170.71C1253.15,-165.38 1554.43,-151.16 1807.5,-118 1810.24,-117.64 1813.03,-117.25 1815.83,-116.84"/>
<polygon fill="#63b8ff" stroke="#63b8ff" points="1104.89,-167.23 1095.02,-171.08 1105.14,-174.22 1104.89,-167.23"/>
</a>
</g>
</g>
<!-- Node14 -->
<g id="Node000014" class="node">
<title>Node14</title>
<g id="a_Node000014"><a xlink:href="gRPC_2include_2GetValue_8h.html" target="_top" xlink:title="Implements Catena gRPC GetValue.">
<polygon fill="white" stroke="#666666" points="2180,-118 2019,-118 2019,-77 2180,-77 2180,-118"/>
<text text-anchor="start" x="2027" y="-106" font-family="Helvetica,sans-Serif" font-size="10.00">/home/runner/work/Catena</text>
<text text-anchor="start" x="2027" y="-95" font-family="Helvetica,sans-Serif" font-size="10.00">/Catena/sdks/cpp/connections</text>
<text text-anchor="middle" x="2099.5" y="-84" font-family="Helvetica,sans-Serif" font-size="10.00">/gRPC/include/GetValue.h</text>
</a>
</g>
</g>
<!-- Node6&#45;&gt;Node14 -->
<g id="edge14_Node000006_Node000014" class="edge">
<title>Node6&#45;&gt;Node14</title>
<g id="a_edge14_Node000006_Node000014"><a xlink:title=" ">
<path fill="none" stroke="#63b8ff" d="M1105.52,-173.29C1281.28,-171.8 1679.27,-163.22 2010.5,-118 2013.16,-117.64 2015.87,-117.23 2018.59,-116.8"/>
<polygon fill="#63b8ff" stroke="#63b8ff" points="1105.26,-169.79 1095.28,-173.37 1105.31,-176.79 1105.26,-169.79"/>
</a>
</g>
</g>
<!-- Node15 -->
<g id="Node000015" class="node">
<title>Node15</title>
<g id="a_Node000015"><a xlink:href="LanguagePackRequest_8h.html" target="_top" xlink:title="Implements Catena gRPC LanguagePackRequest.">
<polygon fill="white" stroke="#666666" points="2403,-118 2198,-118 2198,-77 2403,-77 2403,-118"/>
<text text-anchor="start" x="2206" y="-106" font-family="Helvetica,sans-Serif" font-size="10.00">/home/runner/work/Catena</text>
<text text-anchor="start" x="2206" y="-95" font-family="Helvetica,sans-Serif" font-size="10.00">/Catena/sdks/cpp/connections</text>
<text text-anchor="middle" x="2300.5" y="-84" font-family="Helvetica,sans-Serif" font-size="10.00">/gRPC/include/LanguagePackRequest.h</text>
</a>
</g>
</g>
<!-- Node6&#45;&gt;Node15 -->
<g id="edge15_Node000006_Node000015" class="edge">
<title>Node6&#45;&gt;Node15</title>
<g id="a_edge15_Node000006_Node000015"><a xlink:title=" ">
<path fill="none" stroke="#63b8ff" d="M1105.32,-173.12C1303.03,-171.44 1787,-162.68 2189.5,-118 2192.22,-117.7 2194.98,-117.37 2197.76,-117.02"/>
<polygon fill="#63b8ff" stroke="#63b8ff" points="1105.24,-169.62 1095.27,-173.2 1105.29,-176.62 1105.24,-169.62"/>
</a>
</g>
</g>
<!-- Node16 -->
<g id="Node000016" class="node">
<title>Node16</title>
<g id="a_Node000016"><a xlink:href="ListLanguages_8h.html" target="_top" xlink:title="Implements Catena gRPC ListLanguages.">
<polygon fill="white" stroke="#666666" points="2586,-118 2421,-118 2421,-77 2586,-77 2586,-118"/>
<text text-anchor="start" x="2429" y="-106" font-family="Helvetica,sans-Serif" font-size="10.00">/home/runner/work/Catena</text>
<text text-anchor="start" x="2429" y="-95" font-family="Helvetica,sans-Serif" font-size="10.00">/Catena/sdks/cpp/connections</text>
<text text-anchor="middle" x="2503.5" y="-84" font-family="Helvetica,sans-Serif" font-size="10.00">/gRPC/include/ListLanguages.h</text>
</a>
</g>
</g>
<!-- Node6&#45;&gt;Node16 -->
<g id="edge16_Node000006_Node000016" class="edge">
<title>Node6&#45;&gt;Node16</title>
<g id="a_edge16_Node000006_Node000016"><a xlink:title=" ">
<path fill="none" stroke="#63b8ff" d="M1105.2,-171.93C1373.13,-166.98 2158.21,-150.05 2412.5,-118 2415.23,-117.66 2417.99,-117.27 2420.78,-116.86"/>
<polygon fill="#63b8ff" stroke="#63b8ff" points="1105.05,-168.43 1095.12,-172.12 1105.18,-175.43 1105.05,-168.43"/>
</a>
</g>
</g>
<!-- Node17 -->
<g id="Node000017" class="node">
<title>Node17</title>
<g id="a_Node000017"><a xlink:href="gRPC_2include_2MultiSetValue_8h.html" target="_top" xlink:title="Generic CallData class for the SetValue and MultiSetValue RPCs.">
<polygon fill="white" stroke="#666666" points="786,-118 623,-118 623,-77 786,-77 786,-118"/>
<text text-anchor="start" x="631" y="-106" font-family="Helvetica,sans-Serif" font-size="10.00">/home/runner/work/Catena</text>
<text text-anchor="start" x="631" y="-95" font-family="Helvetica,sans-Serif" font-size="10.00">/Catena/sdks/cpp/connections</text>
<text text-anchor="middle" x="704.5" y="-84" font-family="Helvetica,sans-Serif" font-size="10.00">/gRPC/include/MultiSetValue.h</text>
</a>
</g>
</g>
<!-- Node6&#45;&gt;Node17 -->
<g id="edge17_Node000006_Node000017" class="edge">
<title>Node6&#45;&gt;Node17</title>
<g id="a_edge17_Node000006_Node000017"><a xlink:title=" ">
<path fill="none" stroke="#63b8ff" d="M924.05,-151.62C880.14,-140.99 827.82,-128.34 785.27,-118.04"/>
<polygon fill="#63b8ff" stroke="#63b8ff" points="923.32,-155.04 933.86,-153.99 924.96,-148.24 923.32,-155.04"/>
</a>
</g>
</g>
<!-- Node18 -->
<g id="Node000018" class="node">
<title>Node18</title>
<g id="a_Node000018"><a xlink:href="gRPC_2include_2SetValue_8h.html" target="_top" xlink:title="Implements Catena gRPC SetValue.">
<polygon fill="white" stroke="#666666" points="840,-41 679,-41 679,0 840,0 840,-41"/>
<text text-anchor="start" x="687" y="-29" font-family="Helvetica,sans-Serif" font-size="10.00">/home/runner/work/Catena</text>
<text text-anchor="start" x="687" y="-18" font-family="Helvetica,sans-Serif" font-size="10.00">/Catena/sdks/cpp/connections</text>
<text text-anchor="middle" x="759.5" y="-7" font-family="Helvetica,sans-Serif" font-size="10.00">/gRPC/include/SetValue.h</text>
</a>
</g>
</g>
<!-- Node6&#45;&gt;Node18 -->
<g id="edge19_Node000006_Node000018" class="edge">
<title>Node6&#45;&gt;Node18</title>
<g id="a_edge19_Node000006_Node000018"><a xlink:title=" ">
<path fill="none" stroke="#63b8ff" d="M923.75,-157.38C893.22,-149.02 860.17,-136.53 833.5,-118 818.33,-107.46 789.32,-66.24 772.48,-41.2"/>
<polygon fill="#63b8ff" stroke="#63b8ff" points="923,-160.8 933.56,-159.95 924.77,-154.03 923,-160.8"/>
</a>
</g>
</g>
<!-- Node6&#45;&gt;Node19 -->
<g id="edge20_Node000006_Node000019" class="edge">
<title>Node6&#45;&gt;Node19</title>
<g id="a_edge20_Node000006_Node000019"><a xlink:title=" ">
<path fill="none" stroke="#63b8ff" d="M923.44,-167.19C808.98,-158.7 606.65,-141.88 434.5,-118 431.6,-117.6 428.66,-117.17 425.69,-116.73"/>
<polygon fill="#63b8ff" stroke="#63b8ff" points="923.32,-170.69 933.55,-167.93 923.84,-163.71 923.32,-170.69"/>
</a>
</g>
</g>
<!-- Node17&#45;&gt;Node18 -->
<g id="edge18_Node000017_Node000018" class="edge">
<title>Node17&#45;&gt;Node18</title>
<g id="a_edge18_Node000017_Node000018"><a xlink:title=" ">
<path fill="none" stroke="#63b8ff" d="M724.91,-68.67C731.63,-59.5 738.97,-49.5 745.15,-41.07"/>
<polygon fill="#63b8ff" stroke="#63b8ff" points="722.04,-66.66 718.95,-76.79 727.69,-70.8 722.04,-66.66"/>
</a>
</g>
</g>
<!-- Node21&#45;&gt;Node22 -->
<g id="edge25_Node000021_Node000022" class="edge">
<title>Node21&#45;&gt;Node22</title>
<g id="a_edge25_Node000021_Node000022"><a xlink:title=" ">
<path fill="none" stroke="#63b8ff" d="M942.22,-386.98C948.86,-376.29 956.25,-364.38 962.28,-354.67"/>
<polygon fill="#63b8ff" stroke="#63b8ff" points="939.16,-385.26 936.86,-395.6 945.11,-388.95 939.16,-385.26"/>
</a>
</g>
</g>
<!-- Node27&#45;&gt;Node28 -->
<g id="edge34_Node000027_Node000028" class="edge">
<title>Node27&#45;&gt;Node28</title>
<g id="a_edge34_Node000027_Node000028"><a xlink:title=" ">
<path fill="none" stroke="#63b8ff" d="M1755.52,-392.98C1715.28,-380.89 1666.16,-366.14 1627.54,-354.54"/>
<polygon fill="#63b8ff" stroke="#63b8ff" points="1754.7,-396.39 1765.28,-395.91 1756.71,-389.68 1754.7,-396.39"/>
</a>
</g>
</g>
<!-- Node34 -->
<g id="Node000034" class="node">
<title>Node34</title>
<g id="a_Node000034"><a xlink:href="REST_2include_2controllers_2SetValue_8h.html" target="_top" xlink:title="Implements REST SetValue RPC.">
<polygon fill="white" stroke="#666666" points="2736.5,-272 2544.5,-272 2544.5,-231 2736.5,-231 2736.5,-272"/>
<text text-anchor="start" x="2552.5" y="-260" font-family="Helvetica,sans-Serif" font-size="10.00">/home/runner/work/Catena</text>
<text text-anchor="start" x="2552.5" y="-249" font-family="Helvetica,sans-Serif" font-size="10.00">/Catena/sdks/cpp/connections</text>
<text text-anchor="middle" x="2640.5" y="-238" font-family="Helvetica,sans-Serif" font-size="10.00">/REST/include/controllers/SetValue.h</text>
</a>
</g>
</g>
<!-- Node33&#45;&gt;Node34 -->
<g id="edge41_Node000033_Node000034" class="edge">
<title>Node33&#45;&gt;Node34</title>
<g id="a_edge41_Node000033_Node000034"><a xlink:title=" ">
<path fill="none" stroke="#63b8ff" d="M2640.5,-302.87C2640.5,-292.6 2640.5,-281.4 2640.5,-272.17"/>
<polygon fill="#63b8ff" stroke="#63b8ff" points="2637,-303.1 2640.5,-313.1 2644,-303.1 2637,-303.1"/>
</a>
</g>
</g>
<!-- Node35&#45;&gt;Node28 -->
<g id="edge44_Node000035_Node000028" class="edge">
<title>Node35&#45;&gt;Node28</title>
<g id="a_edge44_Node000035_Node000028"><a xlink:title=" ">
<path fill="none" stroke="#63b8ff" d="M2025.3,-404.52C1910.73,-392.08 1733.17,-371.98 1666.5,-360 1657.64,-358.41 1648.4,-356.52 1639.24,-354.51"/>
<polygon fill="#63b8ff" stroke="#63b8ff" points="2025.17,-408.03 2035.49,-405.62 2025.93,-401.07 2025.17,-408.03"/>
</a>
</g>
</g>
<!-- Node35&#45;&gt;Node29 -->
<g id="edge43_Node000035_Node000029" class="edge">
<title>Node35&#45;&gt;Node29</title>
<g id="a_edge43_Node000035_Node000029"><a xlink:title=" ">
<path fill="none" stroke="#63b8ff" d="M2215.26,-393.49C2254.47,-383.44 2301.36,-371.29 2343.5,-360 2350.08,-358.24 2356.92,-356.38 2363.76,-354.51"/>
<polygon fill="#63b8ff" stroke="#63b8ff" points="2214.28,-390.13 2205.46,-396 2216.01,-396.91 2214.28,-390.13"/>
</a>
</g>
</g>
<!-- Node35&#45;&gt;Node30 -->
<g id="edge45_Node000035_Node000030" class="edge">
<title>Node35&#45;&gt;Node30</title>
<g id="a_edge45_Node000035_Node000030"><a xlink:title=" ">
<path fill="none" stroke="#63b8ff" d="M2035.41,-393.59C1983.59,-381.39 1919.62,-366.33 1869.51,-354.54"/>
<polygon fill="#63b8ff" stroke="#63b8ff" points="2034.74,-397.03 2045.27,-395.91 2036.34,-390.21 2034.74,-397.03"/>
</a>
</g>
</g>
<!-- Node35&#45;&gt;Node31 -->
<g id="edge46_Node000035_Node000031" class="edge">
<title>Node35&#45;&gt;Node31</title>
<g id="a_edge46_Node000035_Node000031"><a xlink:title=" ">
<path fill="none" stroke="#63b8ff" d="M2093.71,-389.81C2080.92,-380.36 2066.46,-369.68 2053.73,-360.28"/>
<polygon fill="#63b8ff" stroke="#63b8ff" points="2091.71,-392.68 2101.84,-395.81 2095.87,-387.05 2091.71,-392.68"/>
</a>
</g>
</g>
<!-- Node35&#45;&gt;Node32 -->
<g id="edge47_Node000035_Node000032" class="edge">
<title>Node35&#45;&gt;Node32</title>
<g id="a_edge47_Node000035_Node000032"><a xlink:title=" ">
<path fill="none" stroke="#63b8ff" d="M2163.4,-389.72C2178.74,-378.4 2196.46,-365.31 2210.73,-354.77"/>
<polygon fill="#63b8ff" stroke="#63b8ff" points="2161.13,-387.05 2155.16,-395.81 2165.29,-392.68 2161.13,-387.05"/>
</a>
</g>
</g>
<!-- Node35&#45;&gt;Node33 -->
<g id="edge48_Node000035_Node000033" class="edge">
<title>Node35&#45;&gt;Node33</title>
<g id="a_edge48_Node000035_Node000033"><a xlink:title=" ">
<path fill="none" stroke="#63b8ff" d="M2231.83,-403.02C2311.71,-392.88 2424.92,-377.44 2523.5,-360 2532.91,-358.34 2542.71,-356.46 2552.47,-354.51"/>
<polygon fill="#63b8ff" stroke="#63b8ff" points="2231.25,-399.56 2221.77,-404.29 2232.13,-406.51 2231.25,-399.56"/>
</a>
</g>
</g>
<!-- Node36&#45;&gt;Node29 -->
<g id="edge50_Node000036_Node000029" class="edge">
<title>Node36&#45;&gt;Node29</title>
<g id="a_edge50_Node000036_Node000029"><a xlink:title=" ">
<path fill="none" stroke="#63b8ff" d="M2432.87,-385.37C2433,-375.1 2433.14,-363.9 2433.26,-354.67"/>
<polygon fill="#63b8ff" stroke="#63b8ff" points="2429.37,-385.56 2432.75,-395.6 2436.37,-385.65 2429.37,-385.56"/>
</a>
</g>
</g>
</g>
</svg>
