<?xml version="1.0" encoding="UTF-8" standalone="no"?>
<!DOCTYPE svg PUBLIC "-//W3C//DTD SVG 1.1//EN"
 "http://www.w3.org/Graphics/SVG/1.1/DTD/svg11.dtd">
<!-- Generated by graphviz version 2.43.0 (0)
 -->
<!-- Title: /home/runner/work/Catena/Catena/sdks/cpp/common/include/Device.h Pages: 1 -->
<svg width="1836pt" height="434pt"
 viewBox="0.00 0.00 1836.00 434.00" xmlns="http://www.w3.org/2000/svg" xmlns:xlink="http://www.w3.org/1999/xlink">
<g id="graph0" class="graph" transform="scale(1 1) rotate(0) translate(4 430)">
<title>/home/runner/work/Catena/Catena/sdks/cpp/common/include/Device.h</title>
<!-- Node1 -->
<g id="Node000001" class="node">
<title>Node1</title>
<g id="a_Node000001"><a xlink:title="Device class definition.">
<polygon fill="#999999" stroke="#666666" points="1323,-426 1177,-426 1177,-385 1323,-385 1323,-426"/>
<text text-anchor="start" x="1185" y="-414" font-family="Helvetica,sans-Serif" font-size="10.00">/home/runner/work/Catena</text>
<text text-anchor="start" x="1185" y="-403" font-family="Helvetica,sans-Serif" font-size="10.00">/Catena/sdks/cpp/common</text>
<text text-anchor="middle" x="1250" y="-392" font-family="Helvetica,sans-Serif" font-size="10.00">/include/Device.h</text>
</a>
</g>
</g>
<!-- Node2 -->
<g id="Node000002" class="node">
<title>Node2</title>
<g id="a_Node000002"><a xlink:href="Authorizer_8h.html" target="_top" xlink:title="Class for handling authorization information.">
<polygon fill="white" stroke="#666666" points="720.5,-294 645.5,-294 645.5,-275 720.5,-275 720.5,-294"/>
<text text-anchor="middle" x="683" y="-282" font-family="Helvetica,sans-Serif" font-size="10.00">Authorizer.h</text>
</a>
</g>
</g>
<!-- Node1&#45;&gt;Node2 -->
<g id="edge1_Node000001_Node000002" class="edge">
<title>Node1&#45;&gt;Node2</title>
<g id="a_edge1_Node000001_Node000002"><a xlink:title=" ">
<path fill="none" stroke="#63b8ff" d="M1176.52,-403.36C1052.89,-400.33 809.44,-389.28 735,-349 715.88,-338.65 701.08,-318.08 692.24,-303.15"/>
<polygon fill="#63b8ff" stroke="#63b8ff" points="695.24,-301.34 687.31,-294.32 689.13,-304.76 695.24,-301.34"/>
</a>
</g>
</g>
<!-- Node3 -->
<g id="Node000003" class="node">
<title>Node3</title>
<g id="a_Node000003"><a xlink:href="Enums_8h.html" target="_top" xlink:title="tools for using EnumDecorators.">
<polygon fill="white" stroke="#666666" points="558.5,-184 499.5,-184 499.5,-165 558.5,-165 558.5,-184"/>
<text text-anchor="middle" x="529" y="-172" font-family="Helvetica,sans-Serif" font-size="10.00">Enums.h</text>
</a>
</g>
</g>
<!-- Node1&#45;&gt;Node3 -->
<g id="edge42_Node000001_Node000003" class="edge">
<title>Node1&#45;&gt;Node3</title>
<g id="a_edge42_Node000001_Node000003"><a xlink:title=" ">
<path fill="none" stroke="#63b8ff" d="M1176.96,-403.56C1032.54,-400.81 715.79,-390.14 616,-349 558.12,-325.14 539.84,-300.48 528,-239 525.16,-224.25 525.63,-207.2 526.68,-194.49"/>
<polygon fill="#63b8ff" stroke="#63b8ff" points="530.2,-194.53 527.74,-184.23 523.24,-193.81 530.2,-194.53"/>
</a>
</g>
</g>
<!-- Node7 -->
<g id="Node000007" class="node">
<title>Node7</title>
<g id="a_Node000007"><a xlink:title=" ">
<polygon fill="#e0e0e0" stroke="#999999" points="404.5,-19 311.5,-19 311.5,0 404.5,0 404.5,-19"/>
<text text-anchor="middle" x="358" y="-7" font-family="Helvetica,sans-Serif" font-size="10.00">unordered_map</text>
</a>
</g>
</g>
<!-- Node1&#45;&gt;Node7 -->
<g id="edge71_Node000001_Node000007" class="edge">
<title>Node1&#45;&gt;Node7</title>
<g id="a_edge71_Node000001_Node000007"><a xlink:title=" ">
<path fill="none" stroke="#63b8ff" d="M1176.76,-403.43C1019.83,-400.42 639.73,-389.22 324,-349 178.44,-330.46 0,-432.24 0,-285.5 0,-285.5 0,-285.5 0,-118.5 0,-56.36 200.17,-26.77 301.16,-15.79"/>
<polygon fill="#63b8ff" stroke="#63b8ff" points="301.62,-19.26 311.2,-14.72 300.88,-12.3 301.62,-19.26"/>
</a>
</g>
</g>
<!-- Node8 -->
<g id="Node000008" class="node">
<title>Node8</title>
<g id="a_Node000008"><a xlink:title=" ">
<polygon fill="#e0e0e0" stroke="#999999" points="1333,-19 1289,-19 1289,0 1333,0 1333,-19"/>
<text text-anchor="middle" x="1311" y="-7" font-family="Helvetica,sans-Serif" font-size="10.00">string</text>
</a>
</g>
</g>
<!-- Node1&#45;&gt;Node8 -->
<g id="edge72_Node000001_Node000008" class="edge">
<title>Node1&#45;&gt;Node8</title>
<g id="a_edge72_Node000001_Node000008"><a xlink:title=" ">
<path fill="none" stroke="#63b8ff" d="M1323.21,-402.13C1461.64,-395.64 1748,-371.78 1748,-285.5 1748,-285.5 1748,-285.5 1748,-118.5 1748,-35.18 1444.82,-15.73 1343.52,-11.56"/>
<polygon fill="#63b8ff" stroke="#63b8ff" points="1343.4,-8.05 1333.27,-11.16 1343.13,-15.05 1343.4,-8.05"/>
</a>
</g>
</g>
<!-- Node9 -->
<g id="Node000009" class="node">
<title>Node9</title>
<g id="a_Node000009"><a xlink:title=" ">
<polygon fill="#e0e0e0" stroke="#999999" points="883.5,-74 814.5,-74 814.5,-55 883.5,-55 883.5,-74"/>
<text text-anchor="middle" x="849" y="-62" font-family="Helvetica,sans-Serif" font-size="10.00">type_traits</text>
</a>
</g>
</g>
<!-- Node1&#45;&gt;Node9 -->
<g id="edge76_Node000001_Node000009" class="edge">
<title>Node1&#45;&gt;Node9</title>
<g id="a_edge76_Node000001_Node000009"><a xlink:title=" ">
<path fill="none" stroke="#63b8ff" d="M1176.7,-390.92C1088.5,-372.82 948.78,-337.92 921,-294 895.02,-252.92 940.1,-283.72 996,-184 1012.6,-154.38 1035.67,-136.94 1015,-110 1000.26,-90.78 937.45,-78.04 893.47,-71.29"/>
<polygon fill="#63b8ff" stroke="#63b8ff" points="893.97,-67.83 883.57,-69.82 892.95,-74.75 893.97,-67.83"/>
</a>
</g>
</g>
<!-- Node10 -->
<g id="Node000010" class="node">
<title>Node10</title>
<g id="a_Node000010"><a xlink:title=" ">
<polygon fill="#e0e0e0" stroke="#999999" points="147.5,-129 28.5,-129 28.5,-110 147.5,-110 147.5,-129"/>
<text text-anchor="middle" x="88" y="-117" font-family="Helvetica,sans-Serif" font-size="10.00">interface/device.pb.h</text>
</a>
</g>
</g>
<!-- Node1&#45;&gt;Node10 -->
<g id="edge70_Node000001_Node000010" class="edge">
<title>Node1&#45;&gt;Node10</title>
<g id="a_edge70_Node000001_Node000010"><a xlink:title=" ">
<path fill="none" stroke="#63b8ff" d="M1176.8,-403.38C947.77,-398.92 260,-377.84 260,-285.5 260,-285.5 260,-285.5 260,-228.5 260,-172.97 194.9,-144.89 144.8,-131.5"/>
<polygon fill="#63b8ff" stroke="#63b8ff" points="145.55,-128.08 135,-129.01 143.83,-134.86 145.55,-128.08"/>
</a>
</g>
</g>
<!-- Node11 -->
<g id="Node000011" class="node">
<title>Node11</title>
<g id="a_Node000011"><a xlink:href="IParam_8h.html" target="_top" xlink:title="Interface for parameters.">
<polygon fill="white" stroke="#666666" points="865.5,-239 806.5,-239 806.5,-220 865.5,-220 865.5,-239"/>
<text text-anchor="middle" x="836" y="-227" font-family="Helvetica,sans-Serif" font-size="10.00">IParam.h</text>
</a>
</g>
</g>
<!-- Node1&#45;&gt;Node11 -->
<g id="edge43_Node000001_Node000011" class="edge">
<title>Node1&#45;&gt;Node11</title>
<g id="a_edge43_Node000001_Node000011"><a xlink:title=" ">
<path fill="none" stroke="#63b8ff" d="M1176.88,-401.98C1049.24,-396.76 791.38,-382.36 708,-349 670.94,-334.17 654.57,-329.84 637,-294 633.28,-286.42 631.72,-281.59 637,-275 656.52,-250.64 743.58,-238.72 795.86,-233.67"/>
<polygon fill="#63b8ff" stroke="#63b8ff" points="796.51,-237.12 806.14,-232.72 795.86,-230.15 796.51,-237.12"/>
</a>
</g>
</g>
<!-- Node15 -->
<g id="Node000015" class="node">
<title>Node15</title>
<g id="a_Node000015"><a xlink:href="IParamDescriptor_8h.html" target="_top" xlink:title="Interface class for ParamDescriptor.">
<polygon fill="white" stroke="#666666" points="986.5,-184 877.5,-184 877.5,-165 986.5,-165 986.5,-184"/>
<text text-anchor="middle" x="932" y="-172" font-family="Helvetica,sans-Serif" font-size="10.00">IParamDescriptor.h</text>
</a>
</g>
</g>
<!-- Node1&#45;&gt;Node15 -->
<g id="edge44_Node000001_Node000015" class="edge">
<title>Node1&#45;&gt;Node15</title>
<g id="a_edge44_Node000001_Node000015"><a xlink:title=" ">
<path fill="none" stroke="#63b8ff" d="M1176.81,-405.35C1072.93,-404.8 890.66,-396.83 849,-349 827.4,-324.2 833.87,-304.2 849,-275 861.76,-250.37 881.88,-260.01 900,-239 911.58,-225.57 920.23,-207.23 925.61,-193.71"/>
<polygon fill="#63b8ff" stroke="#63b8ff" points="928.98,-194.68 929.2,-184.08 922.42,-192.23 928.98,-194.68"/>
</a>
</g>
</g>
<!-- Node16 -->
<g id="Node000016" class="node">
<title>Node16</title>
<g id="a_Node000016"><a xlink:href="Tags_8h.html" target="_top" xlink:title="Tags to differentiate collections with the same type for template specialization.">
<polygon fill="white" stroke="#666666" points="1407.5,-129 1360.5,-129 1360.5,-110 1407.5,-110 1407.5,-129"/>
<text text-anchor="middle" x="1384" y="-117" font-family="Helvetica,sans-Serif" font-size="10.00">Tags.h</text>
</a>
</g>
</g>
<!-- Node1&#45;&gt;Node16 -->
<g id="edge48_Node000001_Node000016" class="edge">
<title>Node1&#45;&gt;Node16</title>
<g id="a_edge48_Node000001_Node000016"><a xlink:title=" ">
<path fill="none" stroke="#63b8ff" d="M1323.14,-385.37C1342.47,-377.08 1361.65,-365.38 1375,-349 1400.89,-317.23 1390.88,-188.1 1386.03,-139.3"/>
<polygon fill="#63b8ff" stroke="#63b8ff" points="1389.5,-138.79 1384.98,-129.2 1382.53,-139.51 1389.5,-138.79"/>
</a>
</g>
</g>
<!-- Node22 -->
<g id="Node000022" class="node">
<title>Node22</title>
<g id="a_Node000022"><a xlink:href="Path_8h.html" target="_top" xlink:title="Handles Path objects used to uniquely identify and access OIDs.">
<polygon fill="white" stroke="#666666" points="623.5,-184 576.5,-184 576.5,-165 623.5,-165 623.5,-184"/>
<text text-anchor="middle" x="600" y="-172" font-family="Helvetica,sans-Serif" font-size="10.00">Path.h</text>
</a>
</g>
</g>
<!-- Node1&#45;&gt;Node22 -->
<g id="edge41_Node000001_Node000022" class="edge">
<title>Node1&#45;&gt;Node22</title>
<g id="a_edge41_Node000001_Node000022"><a xlink:title=" ">
<path fill="none" stroke="#63b8ff" d="M1176.96,-403.13C1040.61,-399.67 752.93,-387.87 662,-349 593.34,-319.65 566.03,-306.92 535,-239 525.35,-217.88 548.29,-200.05 569.54,-188.71"/>
<polygon fill="#63b8ff" stroke="#63b8ff" points="571.36,-191.71 578.74,-184.11 568.23,-185.45 571.36,-191.71"/>
</a>
</g>
</g>
<!-- Node24 -->
<g id="Node000024" class="node">
<title>Node24</title>
<g id="a_Node000024"><a xlink:title=" ">
<polygon fill="#e0e0e0" stroke="#999999" points="1342.5,-129 1295.5,-129 1295.5,-110 1342.5,-110 1342.5,-129"/>
<text text-anchor="middle" x="1319" y="-117" font-family="Helvetica,sans-Serif" font-size="10.00">vector</text>
</a>
</g>
</g>
<!-- Node1&#45;&gt;Node24 -->
<g id="edge74_Node000001_Node000024" class="edge">
<title>Node1&#45;&gt;Node24</title>
<g id="a_edge74_Node000001_Node000024"><a xlink:title=" ">
<path fill="none" stroke="#63b8ff" d="M1306.69,-384.92C1324.58,-376.33 1343.04,-364.57 1356,-349 1372.37,-329.33 1369.18,-319.3 1373,-294 1374.26,-285.65 1374.41,-283.33 1373,-275 1364.32,-223.83 1340.53,-167.02 1327.62,-138.67"/>
<polygon fill="#63b8ff" stroke="#63b8ff" points="1330.64,-136.87 1323.25,-129.27 1324.29,-139.82 1330.64,-136.87"/>
</a>
</g>
</g>
<!-- Node27 -->
<g id="Node000027" class="node">
<title>Node27</title>
<g id="a_Node000027"><a xlink:href="Status_8h.html" target="_top" xlink:title="Communicates failure status using gRPC&#39;s codes.">
<polygon fill="white" stroke="#666666" points="1194,-184 1138,-184 1138,-165 1194,-165 1194,-184"/>
<text text-anchor="middle" x="1166" y="-172" font-family="Helvetica,sans-Serif" font-size="10.00">Status.h</text>
</a>
</g>
</g>
<!-- Node1&#45;&gt;Node27 -->
<g id="edge49_Node000001_Node000027" class="edge">
<title>Node1&#45;&gt;Node27</title>
<g id="a_edge49_Node000001_Node000027"><a xlink:title=" ">
<path fill="none" stroke="#63b8ff" d="M1286.16,-385C1326.11,-360.75 1381.65,-317.38 1356,-275 1323.02,-220.51 1249.28,-194.41 1203.98,-183.09"/>
<polygon fill="#63b8ff" stroke="#63b8ff" points="1204.75,-179.68 1194.22,-180.77 1203.14,-186.49 1204.75,-179.68"/>
</a>
</g>
</g>
<!-- Node32 -->
<g id="Node000032" class="node">
<title>Node32</title>
<g id="a_Node000032"><a xlink:href="ILanguagePack_8h.html" target="_top" xlink:title="Interface for language packs.">
<polygon fill="white" stroke="#666666" points="1510,-239 1412,-239 1412,-220 1510,-220 1510,-239"/>
<text text-anchor="middle" x="1461" y="-227" font-family="Helvetica,sans-Serif" font-size="10.00">ILanguagePack.h</text>
</a>
</g>
</g>
<!-- Node1&#45;&gt;Node32 -->
<g id="edge45_Node000001_Node000032" class="edge">
<title>Node1&#45;&gt;Node32</title>
<g id="a_edge45_Node000001_Node000032"><a xlink:title=" ">
<path fill="none" stroke="#63b8ff" d="M1323.18,-395.24C1378.4,-386.58 1447.53,-371.55 1465,-349 1487.5,-319.95 1476.68,-273.8 1468.06,-248.52"/>
<polygon fill="#63b8ff" stroke="#63b8ff" points="1471.33,-247.26 1464.61,-239.07 1464.76,-249.67 1471.33,-247.26"/>
</a>
</g>
</g>
<!-- Node33 -->
<g id="Node000033" class="node">
<title>Node33</title>
<g id="a_Node000033"><a xlink:href="IMenu_8h.html" target="_top" xlink:title="Interface for Menus.">
<polygon fill="white" stroke="#666666" points="1596,-294 1540,-294 1540,-275 1596,-275 1596,-294"/>
<text text-anchor="middle" x="1568" y="-282" font-family="Helvetica,sans-Serif" font-size="10.00">IMenu.h</text>
</a>
</g>
</g>
<!-- Node1&#45;&gt;Node33 -->
<g id="edge50_Node000001_Node000033" class="edge">
<title>Node1&#45;&gt;Node33</title>
<g id="a_edge50_Node000001_Node000033"><a xlink:title=" ">
<path fill="none" stroke="#63b8ff" d="M1323.23,-399.22C1375.87,-392.94 1447.1,-379.16 1503,-349 1524.39,-337.46 1543.57,-316.82 1555.46,-302.21"/>
<polygon fill="#63b8ff" stroke="#63b8ff" points="1558.46,-304.05 1561.87,-294.02 1552.95,-299.73 1558.46,-304.05"/>
</a>
</g>
</g>
<!-- Node35 -->
<g id="Node000035" class="node">
<title>Node35</title>
<g id="a_Node000035"><a xlink:href="IMenuGroup_8h.html" target="_top" xlink:title="Interface for MenuGroup.">
<polygon fill="white" stroke="#666666" points="1666.5,-349 1581.5,-349 1581.5,-330 1666.5,-330 1666.5,-349"/>
<text text-anchor="middle" x="1624" y="-337" font-family="Helvetica,sans-Serif" font-size="10.00">IMenuGroup.h</text>
</a>
</g>
</g>
<!-- Node1&#45;&gt;Node35 -->
<g id="edge52_Node000001_Node000035" class="edge">
<title>Node1&#45;&gt;Node35</title>
<g id="a_edge52_Node000001_Node000035"><a xlink:title=" ">
<path fill="none" stroke="#63b8ff" d="M1323.44,-391.93C1396.44,-379.44 1506.59,-360.59 1571.31,-349.52"/>
<polygon fill="#63b8ff" stroke="#63b8ff" points="1572.03,-352.94 1581.29,-347.81 1570.85,-346.04 1572.03,-352.94"/>
</a>
</g>
</g>
<!-- Node36 -->
<g id="Node000036" class="node">
<title>Node36</title>
<g id="a_Node000036"><a xlink:href="IDevice_8h.html" target="_top" xlink:title="Interface for device.">
<polygon fill="white" stroke="#666666" points="1108,-349 1046,-349 1046,-330 1108,-330 1108,-349"/>
<text text-anchor="middle" x="1077" y="-337" font-family="Helvetica,sans-Serif" font-size="10.00">IDevice.h</text>
</a>
</g>
</g>
<!-- Node1&#45;&gt;Node36 -->
<g id="edge57_Node000001_Node000036" class="edge">
<title>Node1&#45;&gt;Node36</title>
<g id="a_edge57_Node000001_Node000036"><a xlink:title=" ">
<path fill="none" stroke="#63b8ff" d="M1197.15,-384.95C1168.68,-374.42 1134.45,-361.75 1109.82,-352.64"/>
<polygon fill="#63b8ff" stroke="#63b8ff" points="1110.82,-349.28 1100.22,-349.09 1108.39,-355.84 1110.82,-349.28"/>
</a>
</g>
</g>
<!-- Node38 -->
<g id="Node000038" class="node">
<title>Node38</title>
<g id="a_Node000038"><a xlink:title=" ">
<polygon fill="#e0e0e0" stroke="#999999" points="1281,-294 1219,-294 1219,-275 1281,-275 1281,-294"/>
<text text-anchor="middle" x="1250" y="-282" font-family="Helvetica,sans-Serif" font-size="10.00">coroutine</text>
</a>
</g>
</g>
<!-- Node1&#45;&gt;Node38 -->
<g id="edge77_Node000001_Node000038" class="edge">
<title>Node1&#45;&gt;Node38</title>
<g id="a_edge77_Node000001_Node000038"><a xlink:title=" ">
<path fill="none" stroke="#63b8ff" d="M1250,-384.85C1250,-362.48 1250,-326.19 1250,-304.21"/>
<polygon fill="#63b8ff" stroke="#63b8ff" points="1253.5,-304.18 1250,-294.18 1246.5,-304.18 1253.5,-304.18"/>
</a>
</g>
</g>
<!-- Node39 -->
<g id="Node000039" class="node">
<title>Node39</title>
<g id="a_Node000039"><a xlink:title=" ">
<polygon fill="#e0e0e0" stroke="#999999" points="1347,-294 1299,-294 1299,-275 1347,-275 1347,-294"/>
<text text-anchor="middle" x="1323" y="-282" font-family="Helvetica,sans-Serif" font-size="10.00">mutex</text>
</a>
</g>
</g>
<!-- Node1&#45;&gt;Node39 -->
<g id="edge73_Node000001_Node000039" class="edge">
<title>Node1&#45;&gt;Node39</title>
<g id="a_edge73_Node000001_Node000039"><a xlink:title=" ">
<path fill="none" stroke="#63b8ff" d="M1262.05,-384.85C1276.09,-361.96 1299.06,-324.52 1312.43,-302.72"/>
<polygon fill="#63b8ff" stroke="#63b8ff" points="1315.43,-304.53 1317.68,-294.18 1309.47,-300.87 1315.43,-304.53"/>
</a>
</g>
</g>
<!-- Node40 -->
<g id="Node000040" class="node">
<title>Node40</title>
<g id="a_Node000040"><a xlink:title=" ">
<polygon fill="#e0e0e0" stroke="#999999" points="1828,-349 1776,-349 1776,-330 1828,-330 1828,-349"/>
<text text-anchor="middle" x="1802" y="-337" font-family="Helvetica,sans-Serif" font-size="10.00">cassert</text>
</a>
</g>
</g>
<!-- Node1&#45;&gt;Node40 -->
<g id="edge75_Node000001_Node000040" class="edge">
<title>Node1&#45;&gt;Node40</title>
<g id="a_edge75_Node000001_Node000040"><a xlink:title=" ">
<path fill="none" stroke="#63b8ff" d="M1323.23,-398.91C1422.89,-390.77 1606.62,-373.87 1762,-349 1763.26,-348.8 1764.54,-348.58 1765.84,-348.36"/>
<polygon fill="#63b8ff" stroke="#63b8ff" points="1766.65,-351.76 1775.82,-346.46 1765.34,-344.89 1766.65,-351.76"/>
</a>
</g>
</g>
<!-- Node2&#45;&gt;Node3 -->
<g id="edge2_Node000002_Node000003" class="edge">
<title>Node2&#45;&gt;Node3</title>
<g id="a_edge2_Node000002_Node000003"><a xlink:title=" ">
<path fill="none" stroke="#63b8ff" d="M686.02,-274.67C689.97,-261.37 695.06,-236.04 683,-220 675.97,-210.66 611.83,-194.41 568.57,-184.34"/>
<polygon fill="#63b8ff" stroke="#63b8ff" points="569.14,-180.88 558.61,-182.05 567.57,-187.7 569.14,-180.88"/>
</a>
</g>
</g>
<!-- Node2&#45;&gt;Node11 -->
<g id="edge11_Node000002_Node000011" class="edge">
<title>Node2&#45;&gt;Node11</title>
<g id="a_edge11_Node000002_Node000011"><a xlink:title=" ">
<path fill="none" stroke="#63b8ff" d="M707.58,-274.98C733.05,-266.16 773.04,-252.31 801.63,-242.41"/>
<polygon fill="#63b8ff" stroke="#63b8ff" points="802.92,-245.66 811.23,-239.08 800.63,-239.05 802.92,-245.66"/>
</a>
</g>
</g>
<!-- Node2&#45;&gt;Node15 -->
<g id="edge37_Node000002_Node000015" class="edge">
<title>Node2&#45;&gt;Node15</title>
<g id="a_edge37_Node000002_Node000015"><a xlink:title=" ">
<path fill="none" stroke="#63b8ff" d="M720.65,-276.05C772.7,-265.55 861.78,-246.81 875,-239 894.46,-227.5 910.97,-207.16 921.14,-192.59"/>
<polygon fill="#63b8ff" stroke="#63b8ff" points="924.23,-194.26 926.87,-184 918.4,-190.38 924.23,-194.26"/>
</a>
</g>
</g>
<!-- Node17 -->
<g id="Node000017" class="node">
<title>Node17</title>
<g id="a_Node000017"><a xlink:title=" ">
<polygon fill="#e0e0e0" stroke="#999999" points="1305.5,-74 1240.5,-74 1240.5,-55 1305.5,-55 1305.5,-74"/>
<text text-anchor="middle" x="1273" y="-62" font-family="Helvetica,sans-Serif" font-size="10.00">functional</text>
</a>
</g>
</g>
<!-- Node2&#45;&gt;Node17 -->
<g id="edge39_Node000002_Node000017" class="edge">
<title>Node2&#45;&gt;Node17</title>
<g id="a_edge39_Node000002_Node000017"><a xlink:title=" ">
<path fill="none" stroke="#63b8ff" d="M720.84,-279.36C764.94,-273.71 839.48,-261.62 900,-239 1009.42,-198.11 1021.7,-156.17 1129,-110 1162.11,-95.75 1201.28,-83.95 1230.41,-76.09"/>
<polygon fill="#63b8ff" stroke="#63b8ff" points="1231.5,-79.42 1240.26,-73.48 1229.7,-72.66 1231.5,-79.42"/>
</a>
</g>
</g>
<!-- Node30 -->
<g id="Node000030" class="node">
<title>Node30</title>
<g id="a_Node000030"><a xlink:title=" ">
<polygon fill="#e0e0e0" stroke="#999999" points="624,-239 544,-239 544,-220 624,-220 624,-239"/>
<text text-anchor="middle" x="584" y="-227" font-family="Helvetica,sans-Serif" font-size="10.00">jwt&#45;cpp/jwt.h</text>
</a>
</g>
</g>
<!-- Node2&#45;&gt;Node30 -->
<g id="edge38_Node000002_Node000030" class="edge">
<title>Node2&#45;&gt;Node30</title>
<g id="a_edge38_Node000002_Node000030"><a xlink:title=" ">
<path fill="none" stroke="#63b8ff" d="M667.09,-274.98C651.45,-266.61 627.34,-253.7 609.12,-243.95"/>
<polygon fill="#63b8ff" stroke="#63b8ff" points="610.66,-240.8 600.2,-239.17 607.36,-246.98 610.66,-240.8"/>
</a>
</g>
</g>
<!-- Node31 -->
<g id="Node000031" class="node">
<title>Node31</title>
<g id="a_Node000031"><a xlink:title=" ">
<polygon fill="#e0e0e0" stroke="#999999" points="674,-239 642,-239 642,-220 674,-220 674,-239"/>
<text text-anchor="middle" x="658" y="-227" font-family="Helvetica,sans-Serif" font-size="10.00">set</text>
</a>
</g>
</g>
<!-- Node2&#45;&gt;Node31 -->
<g id="edge40_Node000002_Node000031" class="edge">
<title>Node2&#45;&gt;Node31</title>
<g id="a_edge40_Node000002_Node000031"><a xlink:title=" ">
<path fill="none" stroke="#63b8ff" d="M678.87,-274.75C675.49,-267.57 670.58,-257.18 666.38,-248.27"/>
<polygon fill="#63b8ff" stroke="#63b8ff" points="669.48,-246.64 662.05,-239.09 663.15,-249.63 669.48,-246.64"/>
</a>
</g>
</g>
<!-- Node4 -->
<g id="Node000004" class="node">
<title>Node4</title>
<g id="a_Node000004"><a xlink:href="EnumDecorator_8h.html" target="_top" xlink:title="Provides an enum with useful extra functionality.">
<polygon fill="white" stroke="#666666" points="348,-129 204,-129 204,-110 348,-110 348,-129"/>
<text text-anchor="middle" x="276" y="-117" font-family="Helvetica,sans-Serif" font-size="10.00">patterns/EnumDecorator.h</text>
</a>
</g>
</g>
<!-- Node3&#45;&gt;Node4 -->
<g id="edge3_Node000003_Node000004" class="edge">
<title>Node3&#45;&gt;Node4</title>
<g id="a_edge3_Node000003_Node000004"><a xlink:title=" ">
<path fill="none" stroke="#63b8ff" d="M499.48,-167.32C457.08,-158.43 378.34,-141.94 326.56,-131.09"/>
<polygon fill="#63b8ff" stroke="#63b8ff" points="327.08,-127.63 316.58,-129 325.65,-134.48 327.08,-127.63"/>
</a>
</g>
</g>
<!-- Node6 -->
<g id="Node000006" class="node">
<title>Node6</title>
<g id="a_Node000006"><a xlink:title=" ">
<polygon fill="#e0e0e0" stroke="#999999" points="202,-74 152,-74 152,-55 202,-55 202,-74"/>
<text text-anchor="middle" x="177" y="-62" font-family="Helvetica,sans-Serif" font-size="10.00">cstdint</text>
</a>
</g>
</g>
<!-- Node3&#45;&gt;Node6 -->
<g id="edge10_Node000003_Node000006" class="edge">
<title>Node3&#45;&gt;Node6</title>
<g id="a_edge10_Node000003_Node000006"><a xlink:title=" ">
<path fill="none" stroke="#63b8ff" d="M499.23,-167.47C494.48,-166.59 489.61,-165.73 485,-165 420.86,-154.84 244.29,-171.28 195,-129 182.24,-118.05 178.19,-98.78 177.06,-84.34"/>
<polygon fill="#63b8ff" stroke="#63b8ff" points="180.55,-83.89 176.67,-74.03 173.55,-84.16 180.55,-83.89"/>
</a>
</g>
</g>
<!-- Node3&#45;&gt;Node10 -->
<g id="edge9_Node000003_Node000010" class="edge">
<title>Node3&#45;&gt;Node10</title>
<g id="a_edge9_Node000003_Node000010"><a xlink:title=" ">
<path fill="none" stroke="#63b8ff" d="M499.23,-167.42C494.48,-166.54 489.62,-165.7 485,-165 342.2,-143.28 305.53,-145.24 162,-129 160.7,-128.85 159.39,-128.7 158.06,-128.55"/>
<polygon fill="#63b8ff" stroke="#63b8ff" points="158.1,-125.04 147.77,-127.38 157.31,-131.99 158.1,-125.04"/>
</a>
</g>
</g>
<!-- Node5 -->
<g id="Node000005" class="node">
<title>Node5</title>
<g id="a_Node000005"><a xlink:href="ReflectionMacros_8h.html" target="_top" xlink:title="adapted from https://github.com/tapika/TestCppReflect">
<polygon fill="white" stroke="#666666" points="330,-74 220,-74 220,-55 330,-55 330,-74"/>
<text text-anchor="middle" x="275" y="-62" font-family="Helvetica,sans-Serif" font-size="10.00">ReflectionMacros.h</text>
</a>
</g>
</g>
<!-- Node4&#45;&gt;Node5 -->
<g id="edge4_Node000004_Node000005" class="edge">
<title>Node4&#45;&gt;Node5</title>
<g id="a_edge4_Node000004_Node000005"><a xlink:title=" ">
<path fill="none" stroke="#63b8ff" d="M275.83,-109.75C275.7,-102.8 275.52,-92.85 275.35,-84.13"/>
<polygon fill="#63b8ff" stroke="#63b8ff" points="278.85,-84.02 275.16,-74.09 271.85,-84.15 278.85,-84.02"/>
</a>
</g>
</g>
<!-- Node4&#45;&gt;Node6 -->
<g id="edge5_Node000004_Node000006" class="edge">
<title>Node4&#45;&gt;Node6</title>
<g id="a_edge5_Node000004_Node000006"><a xlink:title=" ">
<path fill="none" stroke="#63b8ff" d="M260.09,-109.98C244.45,-101.61 220.34,-88.7 202.12,-78.95"/>
<polygon fill="#63b8ff" stroke="#63b8ff" points="203.66,-75.8 193.2,-74.17 200.36,-81.98 203.66,-75.8"/>
</a>
</g>
</g>
<!-- Node4&#45;&gt;Node7 -->
<g id="edge6_Node000004_Node000007" class="edge">
<title>Node4&#45;&gt;Node7</title>
<g id="a_edge6_Node000004_Node000007"><a xlink:title=" ">
<path fill="none" stroke="#63b8ff" d="M294.29,-109.86C308.44,-102.28 327.51,-89.98 339,-74 348.55,-60.71 353.35,-42.6 355.74,-29.12"/>
<polygon fill="#63b8ff" stroke="#63b8ff" points="359.22,-29.49 357.22,-19.09 352.29,-28.47 359.22,-29.49"/>
</a>
</g>
</g>
<!-- Node4&#45;&gt;Node8 -->
<g id="edge7_Node000004_Node000008" class="edge">
<title>Node4&#45;&gt;Node8</title>
<g id="a_edge7_Node000004_Node000008"><a xlink:title=" ">
<path fill="none" stroke="#63b8ff" d="M338.24,-109.97C404.76,-100.52 505.69,-85.16 543,-74 563.02,-68.01 565.7,-59.94 586,-55 720.25,-22.33 1155.9,-12.99 1278.58,-10.97"/>
<polygon fill="#63b8ff" stroke="#63b8ff" points="1278.87,-14.47 1288.82,-10.81 1278.76,-7.47 1278.87,-14.47"/>
</a>
</g>
</g>
<!-- Node4&#45;&gt;Node9 -->
<g id="edge8_Node000004_Node000009" class="edge">
<title>Node4&#45;&gt;Node9</title>
<g id="a_edge8_Node000004_Node000009"><a xlink:title=" ">
<path fill="none" stroke="#63b8ff" d="M348.42,-110.85C351.32,-110.56 354.19,-110.27 357,-110 521.87,-93.89 718.03,-76.76 804.41,-69.32"/>
<polygon fill="#63b8ff" stroke="#63b8ff" points="804.72,-72.8 814.39,-68.46 804.12,-65.83 804.72,-72.8"/>
</a>
</g>
</g>
<!-- Node11&#45;&gt;Node3 -->
<g id="edge12_Node000011_Node000003" class="edge">
<title>Node11&#45;&gt;Node3</title>
<g id="a_edge12_Node000011_Node000003"><a xlink:title=" ">
<path fill="none" stroke="#63b8ff" d="M806.17,-224.05C758.33,-216.8 661.29,-201.65 568.86,-184.08"/>
<polygon fill="#63b8ff" stroke="#63b8ff" points="569.26,-180.59 558.78,-182.15 567.94,-187.47 569.26,-180.59"/>
</a>
</g>
</g>
<!-- Node12 -->
<g id="Node000012" class="node">
<title>Node12</title>
<g id="a_Node000012"><a xlink:href="IConstraint_8h.html" target="_top" xlink:title="Interface for constraints.">
<polygon fill="white" stroke="#666666" points="813.5,-184 734.5,-184 734.5,-165 813.5,-165 813.5,-184"/>
<text text-anchor="middle" x="774" y="-172" font-family="Helvetica,sans-Serif" font-size="10.00">IConstraint.h</text>
</a>
</g>
</g>
<!-- Node11&#45;&gt;Node12 -->
<g id="edge13_Node000011_Node000012" class="edge">
<title>Node11&#45;&gt;Node12</title>
<g id="a_edge13_Node000011_Node000012"><a xlink:title=" ">
<path fill="none" stroke="#63b8ff" d="M826.04,-219.98C816.87,-212.15 803.06,-200.34 791.97,-190.86"/>
<polygon fill="#63b8ff" stroke="#63b8ff" points="794.02,-188.01 784.14,-184.17 789.47,-193.33 794.02,-188.01"/>
</a>
</g>
</g>
<!-- Node13 -->
<g id="Node000013" class="node">
<title>Node13</title>
<g id="a_Node000013"><a xlink:title=" ">
<polygon fill="#e0e0e0" stroke="#999999" points="901.5,-129 782.5,-129 782.5,-110 901.5,-110 901.5,-129"/>
<text text-anchor="middle" x="842" y="-117" font-family="Helvetica,sans-Serif" font-size="10.00">interface/param.pb.h</text>
</a>
</g>
</g>
<!-- Node11&#45;&gt;Node13 -->
<g id="edge36_Node000011_Node000013" class="edge">
<title>Node11&#45;&gt;Node13</title>
<g id="a_edge36_Node000011_Node000013"><a xlink:title=" ">
<path fill="none" stroke="#63b8ff" d="M836.49,-219.66C837.46,-202.17 839.65,-162.8 840.96,-139.27"/>
<polygon fill="#63b8ff" stroke="#63b8ff" points="844.46,-139.34 841.52,-129.16 837.47,-138.95 844.46,-139.34"/>
</a>
</g>
</g>
<!-- Node11&#45;&gt;Node15 -->
<g id="edge16_Node000011_Node000015" class="edge">
<title>Node11&#45;&gt;Node15</title>
<g id="a_edge16_Node000011_Node000015"><a xlink:title=" ">
<path fill="none" stroke="#63b8ff" d="M851.42,-219.98C866.45,-211.69 889.54,-198.94 907.16,-189.22"/>
<polygon fill="#63b8ff" stroke="#63b8ff" points="909.23,-192.07 916.3,-184.17 905.85,-185.94 909.23,-192.07"/>
</a>
</g>
</g>
<!-- Node11&#45;&gt;Node22 -->
<g id="edge27_Node000011_Node000022" class="edge">
<title>Node11&#45;&gt;Node22</title>
<g id="a_edge27_Node000011_Node000022"><a xlink:title=" ">
<path fill="none" stroke="#63b8ff" d="M806.11,-221.79C761.95,-211.87 679.52,-193.36 633.42,-183"/>
<polygon fill="#63b8ff" stroke="#63b8ff" points="634.14,-179.58 623.61,-180.8 632.6,-186.41 634.14,-179.58"/>
</a>
</g>
</g>
<!-- Node11&#45;&gt;Node27 -->
<g id="edge33_Node000011_Node000027" class="edge">
<title>Node11&#45;&gt;Node27</title>
<g id="a_edge33_Node000011_Node000027"><a xlink:title=" ">
<path fill="none" stroke="#63b8ff" d="M865.58,-223.75C925.49,-214.13 1061.15,-192.34 1127.72,-181.65"/>
<polygon fill="#63b8ff" stroke="#63b8ff" points="1128.46,-185.07 1137.78,-180.03 1127.35,-178.16 1128.46,-185.07"/>
</a>
</g>
</g>
<!-- Node12&#45;&gt;Node13 -->
<g id="edge14_Node000012_Node000013" class="edge">
<title>Node12&#45;&gt;Node13</title>
<g id="a_edge14_Node000012_Node000013"><a xlink:title=" ">
<path fill="none" stroke="#63b8ff" d="M784.93,-164.98C795.08,-157.07 810.42,-145.11 822.65,-135.58"/>
<polygon fill="#63b8ff" stroke="#63b8ff" points="825.14,-138.08 830.88,-129.17 820.84,-132.56 825.14,-138.08"/>
</a>
</g>
</g>
<!-- Node14 -->
<g id="Node000014" class="node">
<title>Node14</title>
<g id="a_Node000014"><a xlink:title=" ">
<polygon fill="#e0e0e0" stroke="#999999" points="764,-129 628,-129 628,-110 764,-110 764,-129"/>
<text text-anchor="middle" x="696" y="-117" font-family="Helvetica,sans-Serif" font-size="10.00">interface/constraint.pb.h</text>
</a>
</g>
</g>
<!-- Node12&#45;&gt;Node14 -->
<g id="edge15_Node000012_Node000014" class="edge">
<title>Node12&#45;&gt;Node14</title>
<g id="a_edge15_Node000012_Node000014"><a xlink:title=" ">
<path fill="none" stroke="#63b8ff" d="M761.47,-164.98C749.6,-156.92 731.54,-144.65 717.39,-135.03"/>
<polygon fill="#63b8ff" stroke="#63b8ff" points="719,-131.9 708.76,-129.17 715.06,-137.69 719,-131.9"/>
</a>
</g>
</g>
<!-- Node15&#45;&gt;Node13 -->
<g id="edge26_Node000015_Node000013" class="edge">
<title>Node15&#45;&gt;Node13</title>
<g id="a_edge26_Node000015_Node000013"><a xlink:title=" ">
<path fill="none" stroke="#63b8ff" d="M917.54,-164.98C903.58,-156.77 882.21,-144.18 865.75,-134.49"/>
<polygon fill="#63b8ff" stroke="#63b8ff" points="867.12,-131.23 856.72,-129.17 863.56,-137.26 867.12,-131.23"/>
</a>
</g>
</g>
<!-- Node15&#45;&gt;Node16 -->
<g id="edge17_Node000015_Node000016" class="edge">
<title>Node15&#45;&gt;Node16</title>
<g id="a_edge17_Node000015_Node000016"><a xlink:title=" ">
<path fill="none" stroke="#63b8ff" d="M986.75,-170.4C1065.33,-165.36 1214.69,-153.56 1350.18,-129.08"/>
<polygon fill="#63b8ff" stroke="#63b8ff" points="1351.12,-132.47 1360.33,-127.22 1349.86,-125.59 1351.12,-132.47"/>
</a>
</g>
</g>
<!-- Node18 -->
<g id="Node000018" class="node">
<title>Node18</title>
<g id="a_Node000018"><a xlink:href="PolyglotText_8h.html" target="_top" xlink:title="Polyglot Text serialization and deserialization to protobuf.">
<polygon fill="white" stroke="#666666" points="1006,-129 920,-129 920,-110 1006,-110 1006,-129"/>
<text text-anchor="middle" x="963" y="-117" font-family="Helvetica,sans-Serif" font-size="10.00">PolyglotText.h</text>
</a>
</g>
</g>
<!-- Node15&#45;&gt;Node18 -->
<g id="edge20_Node000015_Node000018" class="edge">
<title>Node15&#45;&gt;Node18</title>
<g id="a_edge20_Node000015_Node000018"><a xlink:title=" ">
<path fill="none" stroke="#63b8ff" d="M937.12,-164.75C941.36,-157.49 947.53,-146.95 952.78,-137.98"/>
<polygon fill="#63b8ff" stroke="#63b8ff" points="955.95,-139.49 957.98,-129.09 949.91,-135.95 955.95,-139.49"/>
</a>
</g>
</g>
<!-- Node16&#45;&gt;Node8 -->
<g id="edge19_Node000016_Node000008" class="edge">
<title>Node16&#45;&gt;Node8</title>
<g id="a_edge19_Node000016_Node000008"><a xlink:title=" ">
<path fill="none" stroke="#63b8ff" d="M1378.03,-109.66C1365.94,-91.77 1338.38,-51 1322.62,-27.69"/>
<polygon fill="#63b8ff" stroke="#63b8ff" points="1325.35,-25.48 1316.85,-19.16 1319.55,-29.4 1325.35,-25.48"/>
</a>
</g>
</g>
<!-- Node16&#45;&gt;Node17 -->
<g id="edge18_Node000016_Node000017" class="edge">
<title>Node16&#45;&gt;Node17</title>
<g id="a_edge18_Node000016_Node000017"><a xlink:title=" ">
<path fill="none" stroke="#63b8ff" d="M1366.17,-109.98C1348.39,-101.5 1320.85,-88.35 1300.32,-78.54"/>
<polygon fill="#63b8ff" stroke="#63b8ff" points="1301.69,-75.32 1291.16,-74.17 1298.67,-81.64 1301.69,-75.32"/>
</a>
</g>
</g>
<!-- Node19 -->
<g id="Node000019" class="node">
<title>Node19</title>
<g id="a_Node000019"><a xlink:href="IPolyglotText_8h.html" target="_top" xlink:title="Catena&#39;s multi&#45;language text interface.">
<polygon fill="white" stroke="#666666" points="533.5,-74 444.5,-74 444.5,-55 533.5,-55 533.5,-74"/>
<text text-anchor="middle" x="489" y="-62" font-family="Helvetica,sans-Serif" font-size="10.00">IPolyglotText.h</text>
</a>
</g>
</g>
<!-- Node18&#45;&gt;Node19 -->
<g id="edge21_Node000018_Node000019" class="edge">
<title>Node18&#45;&gt;Node19</title>
<g id="a_edge21_Node000018_Node000019"><a xlink:title=" ">
<path fill="none" stroke="#63b8ff" d="M919.9,-111.26C916.89,-110.81 913.9,-110.39 911,-110 779.81,-92.37 624.88,-77.57 544.17,-70.31"/>
<polygon fill="#63b8ff" stroke="#63b8ff" points="544.03,-66.78 533.76,-69.38 543.41,-73.75 544.03,-66.78"/>
</a>
</g>
</g>
<!-- Node19&#45;&gt;Node7 -->
<g id="edge23_Node000019_Node000007" class="edge">
<title>Node19&#45;&gt;Node7</title>
<g id="a_edge23_Node000019_Node000007"><a xlink:title=" ">
<path fill="none" stroke="#63b8ff" d="M467.95,-54.98C446.59,-46.34 413.3,-32.87 388.94,-23.02"/>
<polygon fill="#63b8ff" stroke="#63b8ff" points="390.01,-19.68 379.43,-19.17 387.39,-26.17 390.01,-19.68"/>
</a>
</g>
</g>
<!-- Node19&#45;&gt;Node8 -->
<g id="edge24_Node000019_Node000008" class="edge">
<title>Node19&#45;&gt;Node8</title>
<g id="a_edge24_Node000019_Node000008"><a xlink:title=" ">
<path fill="none" stroke="#63b8ff" d="M533.73,-56.65C538.54,-56.03 543.37,-55.47 548,-55 830.11,-26.5 1172.88,-14.57 1278.48,-11.41"/>
<polygon fill="#63b8ff" stroke="#63b8ff" points="1278.89,-14.9 1288.79,-11.11 1278.69,-7.9 1278.89,-14.9"/>
</a>
</g>
</g>
<!-- Node20 -->
<g id="Node000020" class="node">
<title>Node20</title>
<g id="a_Node000020"><a xlink:title=" ">
<polygon fill="#e0e0e0" stroke="#999999" points="555,-19 423,-19 423,0 555,0 555,-19"/>
<text text-anchor="middle" x="489" y="-7" font-family="Helvetica,sans-Serif" font-size="10.00">interface/language.pb.h</text>
</a>
</g>
</g>
<!-- Node19&#45;&gt;Node20 -->
<g id="edge22_Node000019_Node000020" class="edge">
<title>Node19&#45;&gt;Node20</title>
<g id="a_edge22_Node000019_Node000020"><a xlink:title=" ">
<path fill="none" stroke="#63b8ff" d="M489,-54.75C489,-47.8 489,-37.85 489,-29.13"/>
<polygon fill="#63b8ff" stroke="#63b8ff" points="492.5,-29.09 489,-19.09 485.5,-29.09 492.5,-29.09"/>
</a>
</g>
</g>
<!-- Node21 -->
<g id="Node000021" class="node">
<title>Node21</title>
<g id="a_Node000021"><a xlink:title=" ">
<polygon fill="#e0e0e0" stroke="#999999" points="656.5,-19 573.5,-19 573.5,0 656.5,0 656.5,-19"/>
<text text-anchor="middle" x="615" y="-7" font-family="Helvetica,sans-Serif" font-size="10.00">initializer_list</text>
</a>
</g>
</g>
<!-- Node19&#45;&gt;Node21 -->
<g id="edge25_Node000019_Node000021" class="edge">
<title>Node19&#45;&gt;Node21</title>
<g id="a_edge25_Node000019_Node000021"><a xlink:title=" ">
<path fill="none" stroke="#63b8ff" d="M509.24,-54.98C529.7,-46.38 561.53,-32.99 584.93,-23.15"/>
<polygon fill="#63b8ff" stroke="#63b8ff" points="586.53,-26.27 594.39,-19.17 583.81,-19.82 586.53,-26.27"/>
</a>
</g>
</g>
<!-- Node22&#45;&gt;Node8 -->
<g id="edge29_Node000022_Node000008" class="edge">
<title>Node22&#45;&gt;Node8</title>
<g id="a_edge29_Node000022_Node000008"><a xlink:title=" ">
<path fill="none" stroke="#63b8ff" d="M600.1,-164.8C600.74,-151.21 603.99,-124.94 619,-110 680.4,-48.89 720.88,-71.1 806,-55 982.29,-21.65 1198.03,-13.2 1278.61,-11.14"/>
<polygon fill="#63b8ff" stroke="#63b8ff" points="1278.72,-14.63 1288.63,-10.9 1278.55,-7.64 1278.72,-14.63"/>
</a>
</g>
</g>
<!-- Node23 -->
<g id="Node000023" class="node">
<title>Node23</title>
<g id="a_Node000023"><a xlink:title=" ">
<polygon fill="#e0e0e0" stroke="#999999" points="572,-129 512,-129 512,-110 572,-110 572,-129"/>
<text text-anchor="middle" x="542" y="-117" font-family="Helvetica,sans-Serif" font-size="10.00">iostream</text>
</a>
</g>
</g>
<!-- Node22&#45;&gt;Node23 -->
<g id="edge28_Node000022_Node000023" class="edge">
<title>Node22&#45;&gt;Node23</title>
<g id="a_edge28_Node000022_Node000023"><a xlink:title=" ">
<path fill="none" stroke="#63b8ff" d="M590.68,-164.98C582.19,-157.23 569.44,-145.58 559.12,-136.14"/>
<polygon fill="#63b8ff" stroke="#63b8ff" points="561.23,-133.33 551.49,-129.17 556.51,-138.5 561.23,-133.33"/>
</a>
</g>
</g>
<!-- Node22&#45;&gt;Node24 -->
<g id="edge30_Node000022_Node000024" class="edge">
<title>Node22&#45;&gt;Node24</title>
<g id="a_edge30_Node000022_Node000024"><a xlink:title=" ">
<path fill="none" stroke="#63b8ff" d="M623.69,-171.88C649.01,-170.15 690.34,-167.35 726,-165 972.02,-148.81 1038.67,-168.72 1285.36,-128.96"/>
<polygon fill="#63b8ff" stroke="#63b8ff" points="1286.04,-132.4 1295.35,-127.33 1284.91,-125.49 1286.04,-132.4"/>
</a>
</g>
</g>
<!-- Node25 -->
<g id="Node000025" class="node">
<title>Node25</title>
<g id="a_Node000025"><a xlink:title=" ">
<polygon fill="#e0e0e0" stroke="#999999" points="417.5,-129 366.5,-129 366.5,-110 417.5,-110 417.5,-129"/>
<text text-anchor="middle" x="392" y="-117" font-family="Helvetica,sans-Serif" font-size="10.00">variant</text>
</a>
</g>
</g>
<!-- Node22&#45;&gt;Node25 -->
<g id="edge31_Node000022_Node000025" class="edge">
<title>Node22&#45;&gt;Node25</title>
<g id="a_edge31_Node000022_Node000025"><a xlink:title=" ">
<path fill="none" stroke="#63b8ff" d="M576.24,-167.16C573.47,-166.42 570.67,-165.69 568,-165 519.41,-152.4 463.15,-138.26 427.58,-129.36"/>
<polygon fill="#63b8ff" stroke="#63b8ff" points="428.22,-125.92 417.67,-126.89 426.53,-132.71 428.22,-125.92"/>
</a>
</g>
</g>
<!-- Node26 -->
<g id="Node000026" class="node">
<title>Node26</title>
<g id="a_Node000026"><a xlink:title=" ">
<polygon fill="#e0e0e0" stroke="#999999" points="494,-129 436,-129 436,-110 494,-110 494,-129"/>
<text text-anchor="middle" x="465" y="-117" font-family="Helvetica,sans-Serif" font-size="10.00">memory</text>
</a>
</g>
</g>
<!-- Node22&#45;&gt;Node26 -->
<g id="edge32_Node000022_Node000026" class="edge">
<title>Node22&#45;&gt;Node26</title>
<g id="a_edge32_Node000022_Node000026"><a xlink:title=" ">
<path fill="none" stroke="#63b8ff" d="M578.31,-164.98C556.2,-156.3 521.68,-142.75 496.55,-132.88"/>
<polygon fill="#63b8ff" stroke="#63b8ff" points="497.67,-129.57 487.08,-129.17 495.11,-136.08 497.67,-129.57"/>
</a>
</g>
</g>
<!-- Node28 -->
<g id="Node000028" class="node">
<title>Node28</title>
<g id="a_Node000028"><a xlink:title=" ">
<polygon fill="#e0e0e0" stroke="#999999" points="1194,-129 1138,-129 1138,-110 1194,-110 1194,-129"/>
<text text-anchor="middle" x="1166" y="-117" font-family="Helvetica,sans-Serif" font-size="10.00">sstream</text>
</a>
</g>
</g>
<!-- Node27&#45;&gt;Node28 -->
<g id="edge34_Node000027_Node000028" class="edge">
<title>Node27&#45;&gt;Node28</title>
<g id="a_edge34_Node000027_Node000028"><a xlink:title=" ">
<path fill="none" stroke="#63b8ff" d="M1166,-164.75C1166,-157.8 1166,-147.85 1166,-139.13"/>
<polygon fill="#63b8ff" stroke="#63b8ff" points="1169.5,-139.09 1166,-129.09 1162.5,-139.09 1169.5,-139.09"/>
</a>
</g>
</g>
<!-- Node29 -->
<g id="Node000029" class="node">
<title>Node29</title>
<g id="a_Node000029"><a xlink:title=" ">
<polygon fill="#e0e0e0" stroke="#999999" points="1277.5,-129 1212.5,-129 1212.5,-110 1277.5,-110 1277.5,-129"/>
<text text-anchor="middle" x="1245" y="-117" font-family="Helvetica,sans-Serif" font-size="10.00">stdexcept</text>
</a>
</g>
</g>
<!-- Node27&#45;&gt;Node29 -->
<g id="edge35_Node000027_Node000029" class="edge">
<title>Node27&#45;&gt;Node29</title>
<g id="a_edge35_Node000027_Node000029"><a xlink:title=" ">
<path fill="none" stroke="#63b8ff" d="M1178.69,-164.98C1190.83,-156.84 1209.36,-144.41 1223.75,-134.76"/>
<polygon fill="#63b8ff" stroke="#63b8ff" points="1225.72,-137.65 1232.08,-129.17 1221.82,-131.84 1225.72,-137.65"/>
</a>
</g>
</g>
<!-- Node32&#45;&gt;Node7 -->
<g id="edge47_Node000032_Node000007" class="edge">
<title>Node32&#45;&gt;Node7</title>
<g id="a_edge47_Node000032_Node000007"><a xlink:title=" ">
<path fill="none" stroke="#63b8ff" d="M1459.93,-220C1456.88,-198.97 1446.38,-143.78 1417,-110 1383.2,-71.14 1364.68,-68.6 1315,-55 1124.75,-2.91 629.28,-36.96 414.71,-18.88"/>
<polygon fill="#63b8ff" stroke="#63b8ff" points="414.98,-15.4 404.7,-17.98 414.35,-22.37 414.98,-15.4"/>
</a>
</g>
</g>
<!-- Node32&#45;&gt;Node8 -->
<g id="edge46_Node000032_Node000008" class="edge">
<title>Node32&#45;&gt;Node8</title>
<g id="a_edge46_Node000032_Node000008"><a xlink:title=" ">
<path fill="none" stroke="#63b8ff" d="M1462.51,-219.74C1465.61,-199.05 1470.78,-146.2 1450,-110 1425.6,-67.48 1374.81,-38.4 1341.85,-23.13"/>
<polygon fill="#63b8ff" stroke="#63b8ff" points="1343.21,-19.9 1332.65,-19.01 1340.35,-26.29 1343.21,-19.9"/>
</a>
</g>
</g>
<!-- Node34 -->
<g id="Node000034" class="node">
<title>Node34</title>
<g id="a_Node000034"><a xlink:title=" ">
<polygon fill="#e0e0e0" stroke="#999999" points="1643.5,-239 1528.5,-239 1528.5,-220 1643.5,-220 1643.5,-239"/>
<text text-anchor="middle" x="1586" y="-227" font-family="Helvetica,sans-Serif" font-size="10.00">interface/menu.pb.h</text>
</a>
</g>
</g>
<!-- Node33&#45;&gt;Node34 -->
<g id="edge51_Node000033_Node000034" class="edge">
<title>Node33&#45;&gt;Node34</title>
<g id="a_edge51_Node000033_Node000034"><a xlink:title=" ">
<path fill="none" stroke="#63b8ff" d="M1570.97,-274.75C1573.36,-267.72 1576.79,-257.62 1579.77,-248.84"/>
<polygon fill="#63b8ff" stroke="#63b8ff" points="1583.18,-249.68 1583.08,-239.09 1576.55,-247.43 1583.18,-249.68"/>
</a>
</g>
</g>
<!-- Node35&#45;&gt;Node7 -->
<g id="edge56_Node000035_Node000007" class="edge">
<title>Node35&#45;&gt;Node7</title>
<g id="a_edge56_Node000035_Node000007"><a xlink:title=" ">
<path fill="none" stroke="#63b8ff" d="M1630.22,-329.83C1644.09,-309.34 1674.67,-256.89 1653,-220 1576.71,-90.14 1502.02,-95.66 1357,-55 1158.13,0.75 638.81,-37.57 414.82,-18.89"/>
<polygon fill="#63b8ff" stroke="#63b8ff" points="414.97,-15.39 404.7,-17.99 414.35,-22.36 414.97,-15.39"/>
</a>
</g>
</g>
<!-- Node35&#45;&gt;Node8 -->
<g id="edge55_Node000035_Node000008" class="edge">
<title>Node35&#45;&gt;Node8</title>
<g id="a_edge55_Node000035_Node000008"><a xlink:title=" ">
<path fill="none" stroke="#63b8ff" d="M1641.14,-329.88C1654.95,-322.16 1673.98,-309.66 1686,-294 1704.37,-270.07 1710,-260.67 1710,-230.5 1710,-230.5 1710,-230.5 1710,-118.5 1710,-42.66 1438.03,-18.43 1343.17,-12.29"/>
<polygon fill="#63b8ff" stroke="#63b8ff" points="1343.22,-8.79 1333.02,-11.66 1342.78,-15.77 1343.22,-8.79"/>
</a>
</g>
</g>
<!-- Node35&#45;&gt;Node33 -->
<g id="edge54_Node000035_Node000033" class="edge">
<title>Node35&#45;&gt;Node33</title>
<g id="a_edge54_Node000035_Node000033"><a xlink:title=" ">
<path fill="none" stroke="#63b8ff" d="M1615,-329.98C1606.81,-322.23 1594.49,-310.58 1584.53,-301.14"/>
<polygon fill="#63b8ff" stroke="#63b8ff" points="1586.83,-298.5 1577.16,-294.17 1582.02,-303.59 1586.83,-298.5"/>
</a>
</g>
</g>
<!-- Node35&#45;&gt;Node34 -->
<g id="edge53_Node000035_Node000034" class="edge">
<title>Node35&#45;&gt;Node34</title>
<g id="a_edge53_Node000035_Node000034"><a xlink:title=" ">
<path fill="none" stroke="#63b8ff" d="M1621.72,-329.77C1618.43,-317.44 1611.97,-294.26 1605,-275 1601.78,-266.11 1597.73,-256.44 1594.19,-248.39"/>
<polygon fill="#63b8ff" stroke="#63b8ff" points="1597.37,-246.94 1590.08,-239.25 1590.98,-249.8 1597.37,-246.94"/>
</a>
</g>
</g>
<!-- Node36&#45;&gt;Node2 -->
<g id="edge58_Node000036_Node000002" class="edge">
<title>Node36&#45;&gt;Node2</title>
<g id="a_edge58_Node000036_Node000002"><a xlink:title=" ">
<path fill="none" stroke="#63b8ff" d="M1045.75,-334.3C977.07,-325.06 812.58,-302.93 730.81,-291.93"/>
<polygon fill="#63b8ff" stroke="#63b8ff" points="731.17,-288.45 720.79,-290.58 730.23,-295.39 731.17,-288.45"/>
</a>
</g>
</g>
<!-- Node36&#45;&gt;Node8 -->
<g id="edge66_Node000036_Node000008" class="edge">
<title>Node36&#45;&gt;Node8</title>
<g id="a_edge66_Node000036_Node000008"><a xlink:title=" ">
<path fill="none" stroke="#63b8ff" d="M1080.05,-329.79C1088.21,-305.63 1110,-235.56 1110,-175.5 1110,-175.5 1110,-175.5 1110,-118.5 1110,-42.95 1221.55,-20.03 1278.45,-13.25"/>
<polygon fill="#63b8ff" stroke="#63b8ff" points="1279.16,-16.69 1288.72,-12.13 1278.4,-9.73 1279.16,-16.69"/>
</a>
</g>
</g>
<!-- Node36&#45;&gt;Node10 -->
<g id="edge65_Node000036_Node000010" class="edge">
<title>Node36&#45;&gt;Node10</title>
<g id="a_edge65_Node000036_Node000010"><a xlink:title=" ">
<path fill="none" stroke="#63b8ff" d="M1045.87,-332.02C1008.07,-323.97 942.5,-309.4 887,-294 810.07,-272.66 789,-271.32 716,-239 700.52,-232.15 698.93,-225.71 683,-220 658.06,-211.06 300.8,-154.09 152.16,-130.6"/>
<polygon fill="#63b8ff" stroke="#63b8ff" points="152.67,-127.14 142.25,-129.04 151.58,-134.05 152.67,-127.14"/>
</a>
</g>
</g>
<!-- Node36&#45;&gt;Node11 -->
<g id="edge60_Node000036_Node000011" class="edge">
<title>Node36&#45;&gt;Node11</title>
<g id="a_edge60_Node000036_Node000011"><a xlink:title=" ">
<path fill="none" stroke="#63b8ff" d="M1045.89,-333.1C1013.5,-326.69 961.89,-314.24 921,-294 895.13,-281.19 869.09,-260.28 852.77,-245.97"/>
<polygon fill="#63b8ff" stroke="#63b8ff" points="854.97,-243.24 845.18,-239.17 850.3,-248.45 854.97,-243.24"/>
</a>
</g>
</g>
<!-- Node36&#45;&gt;Node15 -->
<g id="edge61_Node000036_Node000015" class="edge">
<title>Node36&#45;&gt;Node15</title>
<g id="a_edge61_Node000036_Node000015"><a xlink:title=" ">
<path fill="none" stroke="#63b8ff" d="M1069.2,-329.74C1045.99,-303.65 977.08,-226.17 946.68,-192"/>
<polygon fill="#63b8ff" stroke="#63b8ff" points="949.1,-189.45 939.83,-184.31 943.87,-194.1 949.1,-189.45"/>
</a>
</g>
</g>
<!-- Node36&#45;&gt;Node22 -->
<g id="edge59_Node000036_Node000022" class="edge">
<title>Node36&#45;&gt;Node22</title>
<g id="a_edge59_Node000036_Node000022"><a xlink:title=" ">
<path fill="none" stroke="#63b8ff" d="M1045.71,-330.32C1014.06,-321.88 963.83,-307.99 921,-294 813.39,-258.85 688.12,-210.37 631.11,-187.88"/>
<polygon fill="#63b8ff" stroke="#63b8ff" points="632.18,-184.54 621.6,-184.12 629.61,-191.05 632.18,-184.54"/>
</a>
</g>
</g>
<!-- Node36&#45;&gt;Node24 -->
<g id="edge67_Node000036_Node000024" class="edge">
<title>Node36&#45;&gt;Node24</title>
<g id="a_edge67_Node000036_Node000024"><a xlink:title=" ">
<path fill="none" stroke="#63b8ff" d="M1086.49,-329.95C1122.92,-297.13 1254.22,-178.85 1301.71,-136.08"/>
<polygon fill="#63b8ff" stroke="#63b8ff" points="1304.23,-138.52 1309.32,-129.22 1299.54,-133.32 1304.23,-138.52"/>
</a>
</g>
</g>
<!-- Node36&#45;&gt;Node27 -->
<g id="edge63_Node000036_Node000027" class="edge">
<title>Node36&#45;&gt;Node27</title>
<g id="a_edge63_Node000036_Node000027"><a xlink:title=" ">
<path fill="none" stroke="#63b8ff" d="M1081.79,-329.74C1095.85,-303.98 1137.26,-228.13 1156.27,-193.33"/>
<polygon fill="#63b8ff" stroke="#63b8ff" points="1159.47,-194.76 1161.19,-184.31 1153.33,-191.41 1159.47,-194.76"/>
</a>
</g>
</g>
<!-- Node36&#45;&gt;Node32 -->
<g id="edge62_Node000036_Node000032" class="edge">
<title>Node36&#45;&gt;Node32</title>
<g id="a_edge62_Node000036_Node000032"><a xlink:title=" ">
<path fill="none" stroke="#63b8ff" d="M1094.29,-329.92C1127.53,-313.48 1198.15,-278.8 1210,-275 1274,-254.47 1350.4,-242.63 1401.97,-236.41"/>
<polygon fill="#63b8ff" stroke="#63b8ff" points="1402.42,-239.88 1411.94,-235.23 1401.6,-232.93 1402.42,-239.88"/>
</a>
</g>
</g>
<!-- Node37 -->
<g id="Node000037" class="node">
<title>Node37</title>
<g id="a_Node000037"><a xlink:title=" ">
<polygon fill="#e0e0e0" stroke="#999999" points="1010.5,-294 929.5,-294 929.5,-275 1010.5,-275 1010.5,-294"/>
<text text-anchor="middle" x="970" y="-282" font-family="Helvetica,sans-Serif" font-size="10.00">vdk/signals.h</text>
</a>
</g>
</g>
<!-- Node36&#45;&gt;Node37 -->
<g id="edge64_Node000036_Node000037" class="edge">
<title>Node36&#45;&gt;Node37</title>
<g id="a_edge64_Node000036_Node000037"><a xlink:title=" ">
<path fill="none" stroke="#63b8ff" d="M1059.81,-329.98C1042.75,-321.54 1016.37,-308.47 996.6,-298.68"/>
<polygon fill="#63b8ff" stroke="#63b8ff" points="998.02,-295.47 987.5,-294.17 994.91,-301.75 998.02,-295.47"/>
</a>
</g>
</g>
<!-- Node36&#45;&gt;Node38 -->
<g id="edge68_Node000036_Node000038" class="edge">
<title>Node36&#45;&gt;Node38</title>
<g id="a_edge68_Node000036_Node000038"><a xlink:title=" ">
<path fill="none" stroke="#63b8ff" d="M1104.8,-329.98C1133.97,-321.05 1180,-306.94 1212.4,-297.02"/>
<polygon fill="#63b8ff" stroke="#63b8ff" points="1213.45,-300.36 1221.99,-294.08 1211.4,-293.66 1213.45,-300.36"/>
</a>
</g>
</g>
<!-- Node36&#45;&gt;Node39 -->
<g id="edge69_Node000036_Node000039" class="edge">
<title>Node36&#45;&gt;Node39</title>
<g id="a_edge69_Node000036_Node000039"><a xlink:title=" ">
<path fill="none" stroke="#63b8ff" d="M1108.14,-332.46C1147.85,-324.66 1218.87,-310.37 1288.99,-294.15"/>
<polygon fill="#63b8ff" stroke="#63b8ff" points="1289.93,-297.52 1298.88,-291.85 1288.35,-290.71 1289.93,-297.52"/>
</a>
</g>
</g>
</g>
</svg>
