<?xml version="1.0" encoding="UTF-8" standalone="no"?>
<!DOCTYPE svg PUBLIC "-//W3C//DTD SVG 1.1//EN"
 "http://www.w3.org/Graphics/SVG/1.1/DTD/svg11.dtd">
<!-- Generated by graphviz version 2.43.0 (0)
 -->
<!-- Title: /home/runner/work/Catena/Catena/sdks/cpp/common/include/Device.h Pages: 1 -->
<!--zoomable 280 -->

<svg id="main" version="1.1" xmlns="http://www.w3.org/2000/svg" xmlns:xlink="http://www.w3.org/1999/xlink" xml:space="preserve" onload="init(evt)">
<style type="text/css"><![CDATA[
.node, .edge {opacity: 0.7;}
.node.selected, .edge.selected {opacity: 1;}
.edge:hover path { stroke: red; }
.edge:hover polygon { stroke: red; fill: red; }
]]></style>

<defs>
  <circle id="rim" cx="0" cy="0" r="7"/>
  <circle id="rim2" cx="0" cy="0" r="3.5"/>
  <g id="zoomPlus">
    <use xlink:href="#rim" fill="#404040"><set attributeName="fill" to="#808080" begin="zoomplus.mouseover" end="zoomplus.mouseout"/></use>
    <path d="M-4,0h8M0,-4v8" fill="none" stroke="white" stroke-width="1.5" pointer-events="none"/>
  </g>
  <g id="zoomMin">
    <use xlink:href="#rim" fill="#404040"><set attributeName="fill" to="#808080" begin="zoomminus.mouseover" end="zoomminus.mouseout"/></use>
    <path d="M-4,0h8" fill="none" stroke="white" stroke-width="1.5" pointer-events="none"/>
  </g>
  <g id="arrowUp" transform="translate(30 24)">
    <use xlink:href="#rim"/>
    <path pointer-events="none" fill="none" stroke="white" stroke-width="1.5" d="M0,-3.0v7 M-2.5,-0.5L0,-3.0L2.5,-0.5"/>
  </g>
  <g id="arrowRight" transform="rotate(90) translate(36 -43)">
    <use xlink:href="#rim"/>
    <path pointer-events="none" fill="none" stroke="white" stroke-width="1.5" d="M0,-3.0v7 M-2.5,-0.5L0,-3.0L2.5,-0.5"/>
  </g>
  <g id="arrowDown" transform="rotate(180) translate(-30 -48)">
    <use xlink:href="#rim"/>
    <path pointer-events="none" fill="none" stroke="white" stroke-width="1.5" d="M0,-3.0v7 M-2.5,-0.5L0,-3.0L2.5,-0.5"/>
  </g>
  <g id="arrowLeft" transform="rotate(270) translate(-36 17)">
    <use xlink:href="#rim"/>
    <path pointer-events="none" fill="none" stroke="white" stroke-width="1.5" d="M0,-3.0v7 M-2.5,-0.5L0,-3.0L2.5,-0.5"/>
  </g>
  <g id="resetDef">
    <use xlink:href="#rim2" fill="#404040"><set attributeName="fill" to="#808080" begin="reset.mouseover" end="reset.mouseout"/></use>
  </g>
</defs>
<script type="application/ecmascript">
var viewWidth = 3128;
var viewHeight = 280;
var sectionId = 'dynsection-1';
</script>
<script type="application/ecmascript" xlink:href="svg.min.js"/>
<svg id="graph" class="graph">
<g id="viewport">
<title>/home/runner/work/Catena/Catena/sdks/cpp/common/include/Device.h</title>
<!-- Node1 -->
<g id="Node000001" class="node">
<title>Node1</title>
<g id="a_Node000001"><a xlink:title="Device class definition.">
<polygon fill="#999999" stroke="#666666" points="715,-272 569,-272 569,-231 715,-231 715,-272"/>
<text text-anchor="start" x="577" y="-260" font-family="Helvetica,sans-Serif" font-size="10.00">/home/runner/work/Catena</text>
<text text-anchor="start" x="577" y="-249" font-family="Helvetica,sans-Serif" font-size="10.00">/Catena/sdks/cpp/common</text>
<text text-anchor="middle" x="642" y="-238" font-family="Helvetica,sans-Serif" font-size="10.00">/include/Device.h</text>
</a>
</g>
</g>
<!-- Node2 -->
<g id="Node000002" class="node">
<title>Node2</title>
<g id="a_Node000002"><a xlink:href="LanguagePack_8h.html" target="_top" xlink:title="multi language support in 2 classes: LanguagePack and LanguagePacks">
<polygon fill="white" stroke="#666666" points="146,-195 0,-195 0,-154 146,-154 146,-195"/>
<text text-anchor="start" x="8" y="-183" font-family="Helvetica,sans-Serif" font-size="10.00">/home/runner/work/Catena</text>
<text text-anchor="start" x="8" y="-172" font-family="Helvetica,sans-Serif" font-size="10.00">/Catena/sdks/cpp/common</text>
<text text-anchor="middle" x="73" y="-161" font-family="Helvetica,sans-Serif" font-size="10.00">/include/LanguagePack.h</text>
</a>
</g>
</g>
<!-- Node1&#45;&gt;Node2 -->
<g id="edge1_Node000001_Node000002" class="edge">
<title>Node1&#45;&gt;Node2</title>
<g id="a_edge1_Node000001_Node000002"><a xlink:title=" ">
<path fill="none" stroke="#63b8ff" d="M558.51,-244.05C461.17,-235.83 295.66,-219.65 155,-195 152.12,-194.49 149.18,-193.95 146.23,-193.37"/>
<polygon fill="#63b8ff" stroke="#63b8ff" points="558.33,-247.55 568.59,-244.9 558.92,-240.58 558.33,-247.55"/>
</a>
</g>
</g>
<!-- Node3 -->
<g id="Node000003" class="node">
<title>Node3</title>
<g id="a_Node000003"><a xlink:href="Menu_8h.html" target="_top" xlink:title="Menus support.">
<polygon fill="white" stroke="#666666" points="310,-195 164,-195 164,-154 310,-154 310,-195"/>
<text text-anchor="start" x="172" y="-183" font-family="Helvetica,sans-Serif" font-size="10.00">/home/runner/work/Catena</text>
<text text-anchor="start" x="172" y="-172" font-family="Helvetica,sans-Serif" font-size="10.00">/Catena/sdks/cpp/common</text>
<text text-anchor="middle" x="237" y="-161" font-family="Helvetica,sans-Serif" font-size="10.00">/include/Menu.h</text>
</a>
</g>
</g>
<!-- Node1&#45;&gt;Node3 -->
<g id="edge2_Node000001_Node000003" class="edge">
<title>Node1&#45;&gt;Node3</title>
<g id="a_edge2_Node000001_Node000003"><a xlink:title=" ">
<path fill="none" stroke="#63b8ff" d="M558.8,-237.09C494.52,-226.47 403.43,-210.82 324,-195 319.45,-194.09 314.76,-193.13 310.05,-192.14"/>
<polygon fill="#63b8ff" stroke="#63b8ff" points="558.44,-240.58 568.88,-238.76 559.58,-233.68 558.44,-240.58"/>
</a>
</g>
</g>
<!-- Node4 -->
<g id="Node000004" class="node">
<title>Node4</title>
<g id="a_Node000004"><a xlink:href="MenuGroup_8h.html" target="_top" xlink:title="MenuGroups support.">
<polygon fill="white" stroke="#666666" points="360,-118 214,-118 214,-77 360,-77 360,-118"/>
<text text-anchor="start" x="222" y="-106" font-family="Helvetica,sans-Serif" font-size="10.00">/home/runner/work/Catena</text>
<text text-anchor="start" x="222" y="-95" font-family="Helvetica,sans-Serif" font-size="10.00">/Catena/sdks/cpp/common</text>
<text text-anchor="middle" x="287" y="-84" font-family="Helvetica,sans-Serif" font-size="10.00">/include/MenuGroup.h</text>
</a>
</g>
</g>
<!-- Node1&#45;&gt;Node4 -->
<g id="edge4_Node000001_Node000004" class="edge">
<title>Node1&#45;&gt;Node4</title>
<g id="a_edge4_Node000001_Node000004"><a xlink:title=" ">
<path fill="none" stroke="#63b8ff" d="M558.92,-241.28C486.82,-232.05 388.97,-216.18 356,-195 340.75,-185.21 313.86,-143.27 298.54,-118.01"/>
<polygon fill="#63b8ff" stroke="#63b8ff" points="558.56,-244.77 568.92,-242.54 559.43,-237.82 558.56,-244.77"/>
</a>
</g>
</g>
<!-- Node5 -->
<g id="Node000005" class="node">
<title>Node5</title>
<g id="a_Node000005"><a xlink:href="NamedChoiceConstraint_8h.html" target="_top" xlink:title="A constraint that checks if a value is within some named choices.">
<polygon fill="white" stroke="#666666" points="550.5,-195 365.5,-195 365.5,-154 550.5,-154 550.5,-195"/>
<text text-anchor="start" x="373.5" y="-183" font-family="Helvetica,sans-Serif" font-size="10.00">/home/runner/work/Catena</text>
<text text-anchor="start" x="373.5" y="-172" font-family="Helvetica,sans-Serif" font-size="10.00">/Catena/sdks/cpp/common</text>
<text text-anchor="middle" x="458" y="-161" font-family="Helvetica,sans-Serif" font-size="10.00">/include/NamedChoiceConstraint.h</text>
</a>
</g>
</g>
<!-- Node1&#45;&gt;Node5 -->
<g id="edge5_Node000001_Node000005" class="edge">
<title>Node1&#45;&gt;Node5</title>
<g id="a_edge5_Node000001_Node000005"><a xlink:title=" ">
<path fill="none" stroke="#63b8ff" d="M584.67,-227.13C559.4,-216.83 530.03,-204.86 505.94,-195.04"/>
<polygon fill="#63b8ff" stroke="#63b8ff" points="583.56,-230.46 594.14,-230.99 586.2,-223.97 583.56,-230.46"/>
</a>
</g>
</g>
<!-- Node6 -->
<g id="Node000006" class="node">
<title>Node6</title>
<g id="a_Node000006"><a xlink:href="ParamWithValue_8h.html" target="_top" xlink:title="Interface for acessing parameter values.">
<polygon fill="white" stroke="#666666" points="715.5,-195 568.5,-195 568.5,-154 715.5,-154 715.5,-195"/>
<text text-anchor="start" x="576.5" y="-183" font-family="Helvetica,sans-Serif" font-size="10.00">/home/runner/work/Catena</text>
<text text-anchor="start" x="576.5" y="-172" font-family="Helvetica,sans-Serif" font-size="10.00">/Catena/sdks/cpp/common</text>
<text text-anchor="middle" x="642" y="-161" font-family="Helvetica,sans-Serif" font-size="10.00">/include/ParamWithValue.h</text>
</a>
</g>
</g>
<!-- Node1&#45;&gt;Node6 -->
<g id="edge6_Node000001_Node000006" class="edge">
<title>Node1&#45;&gt;Node6</title>
<g id="a_edge6_Node000001_Node000006"><a xlink:title=" ">
<path fill="none" stroke="#63b8ff" d="M642,-220.69C642,-212.08 642,-202.9 642,-195.07"/>
<polygon fill="#63b8ff" stroke="#63b8ff" points="638.5,-220.79 642,-230.79 645.5,-220.79 638.5,-220.79"/>
</a>
</g>
</g>
<!-- Node7 -->
<g id="Node000007" class="node">
<title>Node7</title>
<g id="a_Node000007"><a xlink:href="PicklistConstraint_8h.html" target="_top" xlink:title="A constraint that checks if a value is in a list of strings.">
<polygon fill="white" stroke="#666666" points="886,-195 734,-195 734,-154 886,-154 886,-195"/>
<text text-anchor="start" x="742" y="-183" font-family="Helvetica,sans-Serif" font-size="10.00">/home/runner/work/Catena</text>
<text text-anchor="start" x="742" y="-172" font-family="Helvetica,sans-Serif" font-size="10.00">/Catena/sdks/cpp/common</text>
<text text-anchor="middle" x="810" y="-161" font-family="Helvetica,sans-Serif" font-size="10.00">/include/PicklistConstraint.h</text>
</a>
</g>
</g>
<!-- Node1&#45;&gt;Node7 -->
<g id="edge7_Node000001_Node000007" class="edge">
<title>Node1&#45;&gt;Node7</title>
<g id="a_edge7_Node000001_Node000007"><a xlink:title=" ">
<path fill="none" stroke="#63b8ff" d="M694.96,-226.86C717.89,-216.62 744.43,-204.77 766.23,-195.04"/>
<polygon fill="#63b8ff" stroke="#63b8ff" points="693.41,-223.72 685.7,-230.99 696.26,-230.11 693.41,-223.72"/>
</a>
</g>
</g>
<!-- Node8 -->
<g id="Node000008" class="node">
<title>Node8</title>
<g id="a_Node000008"><a xlink:href="RangeConstraint_8h.html" target="_top" xlink:title="A constraint that checks if a value is within a range.">
<polygon fill="white" stroke="#666666" points="1052,-195 904,-195 904,-154 1052,-154 1052,-195"/>
<text text-anchor="start" x="912" y="-183" font-family="Helvetica,sans-Serif" font-size="10.00">/home/runner/work/Catena</text>
<text text-anchor="start" x="912" y="-172" font-family="Helvetica,sans-Serif" font-size="10.00">/Catena/sdks/cpp/common</text>
<text text-anchor="middle" x="978" y="-161" font-family="Helvetica,sans-Serif" font-size="10.00">/include/RangeConstraint.h</text>
</a>
</g>
</g>
<!-- Node1&#45;&gt;Node8 -->
<g id="edge8_Node000001_Node000008" class="edge">
<title>Node1&#45;&gt;Node8</title>
<g id="a_edge8_Node000001_Node000008"><a xlink:title=" ">
<path fill="none" stroke="#63b8ff" d="M725.13,-232.59C774.53,-221.86 838.39,-207.86 895,-195 897.89,-194.34 900.83,-193.67 903.8,-192.99"/>
<polygon fill="#63b8ff" stroke="#63b8ff" points="724.17,-229.22 715.13,-234.76 725.65,-236.06 724.17,-229.22"/>
</a>
</g>
</g>
<!-- Node9 -->
<g id="Node000009" class="node">
<title>Node9</title>
<g id="a_Node000009"><a xlink:href="ServiceImpl_8h.html" target="_top" xlink:title="Implements Catena gRPC request handlers.">
<polygon fill="white" stroke="#666666" points="1995.5,-195 1834.5,-195 1834.5,-154 1995.5,-154 1995.5,-195"/>
<text text-anchor="start" x="1842.5" y="-183" font-family="Helvetica,sans-Serif" font-size="10.00">/home/runner/work/Catena</text>
<text text-anchor="start" x="1842.5" y="-172" font-family="Helvetica,sans-Serif" font-size="10.00">/Catena/sdks/cpp/connections</text>
<text text-anchor="middle" x="1915" y="-161" font-family="Helvetica,sans-Serif" font-size="10.00">/gRPC/include/ServiceImpl.h</text>
</a>
</g>
</g>
<!-- Node1&#45;&gt;Node9 -->
<g id="edge9_Node000001_Node000009" class="edge">
<title>Node1&#45;&gt;Node9</title>
<g id="a_edge9_Node000001_Node000009"><a xlink:title=" ">
<path fill="none" stroke="#63b8ff" d="M725.05,-245.61C956.3,-231.98 1605.64,-193.73 1834.18,-180.26"/>
<polygon fill="#63b8ff" stroke="#63b8ff" points="724.79,-242.12 715.01,-246.2 725.2,-249.1 724.79,-242.12"/>
</a>
</g>
</g>
<!-- Node23 -->
<g id="Node000023" class="node">
<title>Node23</title>
<g id="a_Node000023"><a xlink:href="SubscriptionManager_8h.html" target="_top" xlink:title="Centralized manager for parameter subscriptions in gRPC connections.">
<polygon fill="white" stroke="#666666" points="1267.5,-195 1070.5,-195 1070.5,-154 1267.5,-154 1267.5,-195"/>
<text text-anchor="start" x="1078.5" y="-183" font-family="Helvetica,sans-Serif" font-size="10.00">/home/runner/work/Catena</text>
<text text-anchor="start" x="1078.5" y="-172" font-family="Helvetica,sans-Serif" font-size="10.00">/Catena/sdks/cpp/connections</text>
<text text-anchor="middle" x="1169" y="-161" font-family="Helvetica,sans-Serif" font-size="10.00">/gRPC/include/SubscriptionManager.h</text>
</a>
</g>
</g>
<!-- Node1&#45;&gt;Node23 -->
<g id="edge24_Node000001_Node000023" class="edge">
<title>Node1&#45;&gt;Node23</title>
<g id="a_edge24_Node000001_Node000023"><a xlink:title=" ">
<path fill="none" stroke="#63b8ff" d="M725.26,-240.64C809.93,-230.34 944.83,-213.17 1061,-195 1064.11,-194.51 1067.26,-194.01 1070.44,-193.49"/>
<polygon fill="#63b8ff" stroke="#63b8ff" points="724.7,-237.18 715.19,-241.86 725.54,-244.13 724.7,-237.18"/>
</a>
</g>
</g>
<!-- Node3&#45;&gt;Node4 -->
<g id="edge3_Node000003_Node000004" class="edge">
<title>Node3&#45;&gt;Node4</title>
<g id="a_edge3_Node000003_Node000004"><a xlink:title=" ">
<path fill="none" stroke="#63b8ff" d="M255.74,-145.39C261.8,-136.3 268.39,-126.41 273.95,-118.07"/>
<polygon fill="#63b8ff" stroke="#63b8ff" points="252.77,-143.53 250.14,-153.79 258.6,-147.42 252.77,-143.53"/>
</a>
</g>
</g>
<!-- Node10 -->
<g id="Node000010" class="node">
<title>Node10</title>
<g id="a_Node000010"><a xlink:href="AddLanguage_8h.html" target="_top" xlink:title="Implements Catena gRPC AddLanguage.">
<polygon fill="white" stroke="#666666" points="1073.5,-118 912.5,-118 912.5,-77 1073.5,-77 1073.5,-118"/>
<text text-anchor="start" x="920.5" y="-106" font-family="Helvetica,sans-Serif" font-size="10.00">/home/runner/work/Catena</text>
<text text-anchor="start" x="920.5" y="-95" font-family="Helvetica,sans-Serif" font-size="10.00">/Catena/sdks/cpp/connections</text>
<text text-anchor="middle" x="993" y="-84" font-family="Helvetica,sans-Serif" font-size="10.00">/gRPC/include/AddLanguage.h</text>
</a>
</g>
</g>
<!-- Node9&#45;&gt;Node10 -->
<g id="edge10_Node000009_Node000010" class="edge">
<title>Node9&#45;&gt;Node10</title>
<g id="a_edge10_Node000009_Node000010"><a xlink:title=" ">
<path fill="none" stroke="#63b8ff" d="M1823.96,-171.79C1670.45,-167.94 1350.65,-155.71 1083,-118 1079.99,-117.58 1076.93,-117.11 1073.85,-116.6"/>
<polygon fill="#63b8ff" stroke="#63b8ff" points="1824.2,-175.3 1834.28,-172.04 1824.37,-168.3 1824.2,-175.3"/>
</a>
</g>
</g>
<!-- Node11 -->
<g id="Node000011" class="node">
<title>Node11</title>
<g id="a_Node000011"><a xlink:href="BasicParamInfoRequest_8h_source.html" target="_top" xlink:title=" ">
<polygon fill="white" stroke="#666666" points="1302.5,-118 1091.5,-118 1091.5,-77 1302.5,-77 1302.5,-118"/>
<text text-anchor="start" x="1099.5" y="-106" font-family="Helvetica,sans-Serif" font-size="10.00">/home/runner/work/Catena</text>
<text text-anchor="start" x="1099.5" y="-95" font-family="Helvetica,sans-Serif" font-size="10.00">/Catena/sdks/cpp/connections</text>
<text text-anchor="middle" x="1197" y="-84" font-family="Helvetica,sans-Serif" font-size="10.00">/gRPC/include/BasicParamInfoRequest.h</text>
</a>
</g>
</g>
<!-- Node9&#45;&gt;Node11 -->
<g id="edge11_Node000009_Node000011" class="edge">
<title>Node9&#45;&gt;Node11</title>
<g id="a_edge11_Node000009_Node000011"><a xlink:title=" ">
<path fill="none" stroke="#63b8ff" d="M1824.22,-167.31C1706.01,-158.75 1493.06,-141.65 1312,-118 1308.89,-117.59 1305.73,-117.16 1302.55,-116.72"/>
<polygon fill="#63b8ff" stroke="#63b8ff" points="1824.09,-170.81 1834.32,-168.04 1824.59,-163.83 1824.09,-170.81"/>
</a>
</g>
</g>
<!-- Node12 -->
<g id="Node000012" class="node">
<title>Node12</title>
<g id="a_Node000012"><a xlink:href="Connect_8h.html" target="_top" xlink:title="Implements Catena gRPC Connect.">
<polygon fill="white" stroke="#666666" points="894.5,-118 733.5,-118 733.5,-77 894.5,-77 894.5,-118"/>
<text text-anchor="start" x="741.5" y="-106" font-family="Helvetica,sans-Serif" font-size="10.00">/home/runner/work/Catena</text>
<text text-anchor="start" x="741.5" y="-95" font-family="Helvetica,sans-Serif" font-size="10.00">/Catena/sdks/cpp/connections</text>
<text text-anchor="middle" x="814" y="-84" font-family="Helvetica,sans-Serif" font-size="10.00">/gRPC/include/Connect.h</text>
</a>
</g>
</g>
<!-- Node9&#45;&gt;Node12 -->
<g id="edge12_Node000009_Node000012" class="edge">
<title>Node9&#45;&gt;Node12</title>
<g id="a_edge12_Node000009_Node000012"><a xlink:title=" ">
<path fill="none" stroke="#63b8ff" d="M1824.24,-173.33C1646.69,-171.92 1241.29,-163.51 904,-118 900.99,-117.59 897.93,-117.14 894.85,-116.65"/>
<polygon fill="#63b8ff" stroke="#63b8ff" points="1824.29,-176.83 1834.32,-173.4 1824.35,-169.83 1824.29,-176.83"/>
</a>
</g>
</g>
<!-- Node13 -->
<g id="Node000013" class="node">
<title>Node13</title>
<g id="a_Node000013"><a xlink:href="DeviceRequest_8h.html" target="_top" xlink:title="Implements Catena gRPC DeviceRequest.">
<polygon fill="white" stroke="#666666" points="1489.5,-118 1320.5,-118 1320.5,-77 1489.5,-77 1489.5,-118"/>
<text text-anchor="start" x="1328.5" y="-106" font-family="Helvetica,sans-Serif" font-size="10.00">/home/runner/work/Catena</text>
<text text-anchor="start" x="1328.5" y="-95" font-family="Helvetica,sans-Serif" font-size="10.00">/Catena/sdks/cpp/connections</text>
<text text-anchor="middle" x="1405" y="-84" font-family="Helvetica,sans-Serif" font-size="10.00">/gRPC/include/DeviceRequest.h</text>
</a>
</g>
</g>
<!-- Node9&#45;&gt;Node13 -->
<g id="edge13_Node000009_Node000013" class="edge">
<title>Node9&#45;&gt;Node13</title>
<g id="a_edge13_Node000009_Node000013"><a xlink:title=" ">
<path fill="none" stroke="#63b8ff" d="M1824.14,-163.29C1739.67,-153.34 1610.47,-136.97 1499,-118 1495.96,-117.48 1492.87,-116.94 1489.75,-116.37"/>
<polygon fill="#63b8ff" stroke="#63b8ff" points="1823.87,-166.78 1834.21,-164.47 1824.69,-159.83 1823.87,-166.78"/>
</a>
</g>
</g>
<!-- Node14 -->
<g id="Node000014" class="node">
<title>Node14</title>
<g id="a_Node000014"><a xlink:href="ExecuteCommand_8h.html" target="_top" xlink:title="Implements Catena gRPC ExecuteCommand.">
<polygon fill="white" stroke="#666666" points="1692,-118 1508,-118 1508,-77 1692,-77 1692,-118"/>
<text text-anchor="start" x="1516" y="-106" font-family="Helvetica,sans-Serif" font-size="10.00">/home/runner/work/Catena</text>
<text text-anchor="start" x="1516" y="-95" font-family="Helvetica,sans-Serif" font-size="10.00">/Catena/sdks/cpp/connections</text>
<text text-anchor="middle" x="1600" y="-84" font-family="Helvetica,sans-Serif" font-size="10.00">/gRPC/include/ExecuteCommand.h</text>
</a>
</g>
</g>
<!-- Node9&#45;&gt;Node14 -->
<g id="edge14_Node000009_Node000014" class="edge">
<title>Node9&#45;&gt;Node14</title>
<g id="a_edge14_Node000009_Node000014"><a xlink:title=" ">
<path fill="none" stroke="#63b8ff" d="M1824.56,-151.97C1779.67,-141.28 1725.85,-128.46 1682.15,-118.06"/>
<polygon fill="#63b8ff" stroke="#63b8ff" points="1823.75,-155.37 1834.29,-154.28 1825.37,-148.56 1823.75,-155.37"/>
</a>
</g>
</g>
<!-- Node15 -->
<g id="Node000015" class="node">
<title>Node15</title>
<g id="a_Node000015"><a xlink:href="ExternalObjectRequest_8h.html" target="_top" xlink:title="Implements Catena gRPC ExternalObjectRequest.">
<polygon fill="white" stroke="#666666" points="1917.5,-118 1710.5,-118 1710.5,-77 1917.5,-77 1917.5,-118"/>
<text text-anchor="start" x="1718.5" y="-106" font-family="Helvetica,sans-Serif" font-size="10.00">/home/runner/work/Catena</text>
<text text-anchor="start" x="1718.5" y="-95" font-family="Helvetica,sans-Serif" font-size="10.00">/Catena/sdks/cpp/connections</text>
<text text-anchor="middle" x="1814" y="-84" font-family="Helvetica,sans-Serif" font-size="10.00">/gRPC/include/ExternalObjectRequest.h</text>
</a>
</g>
</g>
<!-- Node9&#45;&gt;Node15 -->
<g id="edge15_Node000009_Node000015" class="edge">
<title>Node9&#45;&gt;Node15</title>
<g id="a_edge15_Node000009_Node000015"><a xlink:title=" ">
<path fill="none" stroke="#63b8ff" d="M1880.41,-147.82C1867.35,-138.11 1852.7,-127.24 1840.49,-118.17"/>
<polygon fill="#63b8ff" stroke="#63b8ff" points="1878.61,-150.84 1888.73,-153.99 1882.79,-145.22 1878.61,-150.84"/>
</a>
</g>
</g>
<!-- Node16 -->
<g id="Node000016" class="node">
<title>Node16</title>
<g id="a_Node000016"><a xlink:href="GetParam_8h.html" target="_top" xlink:title="Implements Catena gRPC GetParam.">
<polygon fill="white" stroke="#666666" points="2096.5,-118 1935.5,-118 1935.5,-77 2096.5,-77 2096.5,-118"/>
<text text-anchor="start" x="1943.5" y="-106" font-family="Helvetica,sans-Serif" font-size="10.00">/home/runner/work/Catena</text>
<text text-anchor="start" x="1943.5" y="-95" font-family="Helvetica,sans-Serif" font-size="10.00">/Catena/sdks/cpp/connections</text>
<text text-anchor="middle" x="2016" y="-84" font-family="Helvetica,sans-Serif" font-size="10.00">/gRPC/include/GetParam.h</text>
</a>
</g>
</g>
<!-- Node9&#45;&gt;Node16 -->
<g id="edge16_Node000009_Node000016" class="edge">
<title>Node9&#45;&gt;Node16</title>
<g id="a_edge16_Node000009_Node000016"><a xlink:title=" ">
<path fill="none" stroke="#63b8ff" d="M1949.59,-147.82C1962.65,-138.11 1977.3,-127.24 1989.51,-118.17"/>
<polygon fill="#63b8ff" stroke="#63b8ff" points="1947.21,-145.22 1941.27,-153.99 1951.39,-150.84 1947.21,-145.22"/>
</a>
</g>
</g>
<!-- Node17 -->
<g id="Node000017" class="node">
<title>Node17</title>
<g id="a_Node000017"><a xlink:href="GetPopulatedSlots_8h.html" target="_top" xlink:title="Implements Catena gRPC GetPopulatedSlots.">
<polygon fill="white" stroke="#666666" points="2299.5,-118 2114.5,-118 2114.5,-77 2299.5,-77 2299.5,-118"/>
<text text-anchor="start" x="2122.5" y="-106" font-family="Helvetica,sans-Serif" font-size="10.00">/home/runner/work/Catena</text>
<text text-anchor="start" x="2122.5" y="-95" font-family="Helvetica,sans-Serif" font-size="10.00">/Catena/sdks/cpp/connections</text>
<text text-anchor="middle" x="2207" y="-84" font-family="Helvetica,sans-Serif" font-size="10.00">/gRPC/include/GetPopulatedSlots.h</text>
</a>
</g>
</g>
<!-- Node9&#45;&gt;Node17 -->
<g id="edge17_Node000009_Node000017" class="edge">
<title>Node9&#45;&gt;Node17</title>
<g id="a_edge17_Node000009_Node000017"><a xlink:title=" ">
<path fill="none" stroke="#63b8ff" d="M2000.72,-151.48C2041.97,-140.89 2091,-128.29 2130.92,-118.04"/>
<polygon fill="#63b8ff" stroke="#63b8ff" points="1999.77,-148.11 1990.96,-153.99 2001.51,-154.89 1999.77,-148.11"/>
</a>
</g>
</g>
<!-- Node18 -->
<g id="Node000018" class="node">
<title>Node18</title>
<g id="a_Node000018"><a xlink:href="GetValue_8h.html" target="_top" xlink:title="Implements Catena gRPC GetValue.">
<polygon fill="white" stroke="#666666" points="2478.5,-118 2317.5,-118 2317.5,-77 2478.5,-77 2478.5,-118"/>
<text text-anchor="start" x="2325.5" y="-106" font-family="Helvetica,sans-Serif" font-size="10.00">/home/runner/work/Catena</text>
<text text-anchor="start" x="2325.5" y="-95" font-family="Helvetica,sans-Serif" font-size="10.00">/Catena/sdks/cpp/connections</text>
<text text-anchor="middle" x="2398" y="-84" font-family="Helvetica,sans-Serif" font-size="10.00">/gRPC/include/GetValue.h</text>
</a>
</g>
</g>
<!-- Node9&#45;&gt;Node18 -->
<g id="edge18_Node000009_Node000018" class="edge">
<title>Node9&#45;&gt;Node18</title>
<g id="a_edge18_Node000009_Node000018"><a xlink:title=" ">
<path fill="none" stroke="#63b8ff" d="M2005.7,-162.71C2085.76,-152.71 2205.49,-136.6 2309,-118 2311.65,-117.52 2314.33,-117.03 2317.05,-116.51"/>
<polygon fill="#63b8ff" stroke="#63b8ff" points="2005.14,-159.25 1995.65,-163.96 2006,-166.19 2005.14,-159.25"/>
</a>
</g>
</g>
<!-- Node19 -->
<g id="Node000019" class="node">
<title>Node19</title>
<g id="a_Node000019"><a xlink:href="LanguagePackRequest_8h.html" target="_top" xlink:title="Implements Catena gRPC LanguagePackRequest.">
<polygon fill="white" stroke="#666666" points="2701.5,-118 2496.5,-118 2496.5,-77 2701.5,-77 2701.5,-118"/>
<text text-anchor="start" x="2504.5" y="-106" font-family="Helvetica,sans-Serif" font-size="10.00">/home/runner/work/Catena</text>
<text text-anchor="start" x="2504.5" y="-95" font-family="Helvetica,sans-Serif" font-size="10.00">/Catena/sdks/cpp/connections</text>
<text text-anchor="middle" x="2599" y="-84" font-family="Helvetica,sans-Serif" font-size="10.00">/gRPC/include/LanguagePackRequest.h</text>
</a>
</g>
</g>
<!-- Node9&#45;&gt;Node19 -->
<g id="edge19_Node000009_Node000019" class="edge">
<title>Node9&#45;&gt;Node19</title>
<g id="a_edge19_Node000009_Node000019"><a xlink:title=" ">
<path fill="none" stroke="#63b8ff" d="M2005.9,-166.88C2119.12,-158.13 2318.33,-141.09 2488,-118 2490.71,-117.63 2493.46,-117.24 2496.24,-116.84"/>
<polygon fill="#63b8ff" stroke="#63b8ff" points="2005.59,-163.39 1995.89,-167.65 2006.13,-170.37 2005.59,-163.39"/>
</a>
</g>
</g>
<!-- Node20 -->
<g id="Node000020" class="node">
<title>Node20</title>
<g id="a_Node000020"><a xlink:href="ListLanguages_8h.html" target="_top" xlink:title="Implements Catena gRPC ListLanguages.">
<polygon fill="white" stroke="#666666" points="2884.5,-118 2719.5,-118 2719.5,-77 2884.5,-77 2884.5,-118"/>
<text text-anchor="start" x="2727.5" y="-106" font-family="Helvetica,sans-Serif" font-size="10.00">/home/runner/work/Catena</text>
<text text-anchor="start" x="2727.5" y="-95" font-family="Helvetica,sans-Serif" font-size="10.00">/Catena/sdks/cpp/connections</text>
<text text-anchor="middle" x="2802" y="-84" font-family="Helvetica,sans-Serif" font-size="10.00">/gRPC/include/ListLanguages.h</text>
</a>
</g>
</g>
<!-- Node9&#45;&gt;Node20 -->
<g id="edge20_Node000009_Node000020" class="edge">
<title>Node9&#45;&gt;Node20</title>
<g id="a_edge20_Node000009_Node000020"><a xlink:title=" ">
<path fill="none" stroke="#63b8ff" d="M2006.02,-171.34C2154.35,-166.88 2457.16,-153.86 2711,-118 2713.72,-117.62 2716.48,-117.2 2719.26,-116.75"/>
<polygon fill="#63b8ff" stroke="#63b8ff" points="2005.51,-167.85 1995.61,-171.64 2005.71,-174.85 2005.51,-167.85"/>
</a>
</g>
</g>
<!-- Node21 -->
<g id="Node000021" class="node">
<title>Node21</title>
<g id="a_Node000021"><a xlink:href="MultiSetValue_8h.html" target="_top" xlink:title="Generic CallData class for the SetValue and MultiSetValue RPCs.">
<polygon fill="white" stroke="#666666" points="3065.5,-118 2902.5,-118 2902.5,-77 3065.5,-77 3065.5,-118"/>
<text text-anchor="start" x="2910.5" y="-106" font-family="Helvetica,sans-Serif" font-size="10.00">/home/runner/work/Catena</text>
<text text-anchor="start" x="2910.5" y="-95" font-family="Helvetica,sans-Serif" font-size="10.00">/Catena/sdks/cpp/connections</text>
<text text-anchor="middle" x="2984" y="-84" font-family="Helvetica,sans-Serif" font-size="10.00">/gRPC/include/MultiSetValue.h</text>
</a>
</g>
</g>
<!-- Node9&#45;&gt;Node21 -->
<g id="edge21_Node000009_Node000021" class="edge">
<title>Node9&#45;&gt;Node21</title>
<g id="a_edge21_Node000009_Node000021"><a xlink:title=" ">
<path fill="none" stroke="#63b8ff" d="M2005.78,-173.09C2179.19,-171.27 2569.21,-162.12 2894,-118 2896.69,-117.63 2899.43,-117.23 2902.18,-116.8"/>
<polygon fill="#63b8ff" stroke="#63b8ff" points="2005.64,-169.59 1995.67,-173.19 2005.71,-176.59 2005.64,-169.59"/>
</a>
</g>
</g>
<!-- Node22 -->
<g id="Node000022" class="node">
<title>Node22</title>
<g id="a_Node000022"><a xlink:href="SetValue_8h.html" target="_top" xlink:title="Implements Catena gRPC SetValue.">
<polygon fill="white" stroke="#666666" points="3119.5,-41 2958.5,-41 2958.5,0 3119.5,0 3119.5,-41"/>
<text text-anchor="start" x="2966.5" y="-29" font-family="Helvetica,sans-Serif" font-size="10.00">/home/runner/work/Catena</text>
<text text-anchor="start" x="2966.5" y="-18" font-family="Helvetica,sans-Serif" font-size="10.00">/Catena/sdks/cpp/connections</text>
<text text-anchor="middle" x="3039" y="-7" font-family="Helvetica,sans-Serif" font-size="10.00">/gRPC/include/SetValue.h</text>
</a>
</g>
</g>
<!-- Node9&#45;&gt;Node22 -->
<g id="edge23_Node000009_Node000022" class="edge">
<title>Node9&#45;&gt;Node22</title>
<g id="a_edge23_Node000009_Node000022"><a xlink:title=" ">
<path fill="none" stroke="#63b8ff" d="M2005.92,-172.53C2272.91,-169.25 3038.28,-156.52 3075,-118 3095.36,-96.64 3074.52,-62.73 3057.13,-41.32"/>
<polygon fill="#63b8ff" stroke="#63b8ff" points="2005.83,-169.03 1995.87,-172.66 2005.91,-176.03 2005.83,-169.03"/>
</a>
</g>
</g>
<!-- Node21&#45;&gt;Node22 -->
<g id="edge22_Node000021_Node000022" class="edge">
<title>Node21&#45;&gt;Node22</title>
<g id="a_edge22_Node000021_Node000022"><a xlink:title=" ">
<path fill="none" stroke="#63b8ff" d="M3004.41,-68.67C3011.13,-59.5 3018.47,-49.5 3024.65,-41.07"/>
<polygon fill="#63b8ff" stroke="#63b8ff" points="3001.54,-66.66 2998.45,-76.79 3007.19,-70.8 3001.54,-66.66"/>
</a>
</g>
</g>
<!-- Node23&#45;&gt;Node12 -->
<g id="edge25_Node000023_Node000012" class="edge">
<title>Node23&#45;&gt;Node12</title>
<g id="a_edge25_Node000023_Node000012"><a xlink:title=" ">
<path fill="none" stroke="#63b8ff" d="M1064.89,-151.87C1016.03,-141.67 957.01,-129.29 904,-118 901.03,-117.37 898,-116.72 894.95,-116.07"/>
<polygon fill="#63b8ff" stroke="#63b8ff" points="1064.33,-155.33 1074.84,-153.94 1065.76,-148.48 1064.33,-155.33"/>
</a>
</g>
</g>
</g>
</svg>

<g id="navigator" transform="translate(0 0)" fill="#404254">
  <rect fill="#f2f5e9" fill-opacity="0.5" stroke="#606060" stroke-width=".5" x="0" y="0" width="60" height="60"/>
  <use id="zoomplus" xlink:href="#zoomPlus" x="17" y="9" onmousedown="handleZoom(evt,'in')"/>
  <use id="zoomminus" xlink:href="#zoomMin" x="42" y="9" onmousedown="handleZoom(evt,'out')"/>
  <use id="reset" xlink:href="#resetDef" x="30" y="36" onmousedown="handleReset()"/>
   <use id="arrowup" xlink:href="#arrowUp" x="0" y="0" onmousedown="handlePan(0,-1)"/>
  <use id="arrowright" xlink:href="#arrowRight" x="0" y="0" onmousedown="handlePan(1,0)"/>
  <use id="arrowdown" xlink:href="#arrowDown" x="0" y="0" onmousedown="handlePan(0,1)"/>
  <use id="arrowleft" xlink:href="#arrowLeft" x="0" y="0" onmousedown="handlePan(-1,0)"/>
</g>
<svg viewBox="0 0 15 15" width="100%" height="30px" preserveAspectRatio="xMaxYMin meet">
 <g id="arrow_out" transform="scale(0.3 0.3)">
  <a xlink:href="Device_8h__dep__incl_org.svg" target="_base">
   <rect id="button" ry="5" rx="5" y="6" x="6" height="38" width="38"
        fill="#f2f5e9" fill-opacity="0.5" stroke="#606060" stroke-width="1.0"/>
   <path id="arrow"
     d="M 11.500037,31.436501 C 11.940474,20.09759 22.043105,11.32322 32.158766,21.979434 L 37.068811,17.246167 C 37.068811,17.246167 37.088388,32 37.088388,32 L 22.160133,31.978069 C 22.160133,31.978069 26.997745,27.140456 26.997745,27.140456 C 18.528582,18.264221 13.291696,25.230495 11.500037,31.436501 z"
     style="fill:#404040;"/>
  </a>
 </g>
</svg>

<style type='text/css'>
<![CDATA[
[data-mouse-over-selected='false'] { opacity: 0.7; }
[data-mouse-over-selected='true']  { opacity: 1.0; }
]]>
</style>
<script type="application/ecmascript"><![CDATA[
document.addEventListener('DOMContentLoaded', (event) => {
  highlightEdges();
  highlightAdjacentNodes();
});
]]></script>
</svg>
