<?xml version="1.0" encoding="UTF-8" standalone="no"?>
<!DOCTYPE svg PUBLIC "-//W3C//DTD SVG 1.1//EN"
 "http://www.w3.org/Graphics/SVG/1.1/DTD/svg11.dtd">
<!-- Generated by graphviz version 2.43.0 (0)
 -->
<!-- Title: /home/runner/work/Catena/Catena/sdks/cpp/common/include/Enums.h Pages: 1 -->
<svg width="2928pt" height="819pt"
 viewBox="0.00 0.00 2927.94 819.00" xmlns="http://www.w3.org/2000/svg" xmlns:xlink="http://www.w3.org/1999/xlink">
<g id="graph0" class="graph" transform="scale(1 1) rotate(0) translate(4 815)">
<title>/home/runner/work/Catena/Catena/sdks/cpp/common/include/Enums.h</title>
<!-- Node1 -->
<g id="Node000001" class="node">
<title>Node1</title>
<g id="a_Node000001"><a xlink:title="tools for using EnumDecorators.">
<polygon fill="#999999" stroke="#666666" points="1151.44,-811 1005.44,-811 1005.44,-770 1151.44,-770 1151.44,-811"/>
<text text-anchor="start" x="1013.44" y="-799" font-family="Helvetica,sans-Serif" font-size="10.00">/home/runner/work/Catena</text>
<text text-anchor="start" x="1013.44" y="-788" font-family="Helvetica,sans-Serif" font-size="10.00">/Catena/sdks/cpp/common</text>
<text text-anchor="middle" x="1078.44" y="-777" font-family="Helvetica,sans-Serif" font-size="10.00">/include/Enums.h</text>
</a>
</g>
</g>
<!-- Node2 -->
<g id="Node000002" class="node">
<title>Node2</title>
<g id="a_Node000002"><a xlink:href="Authorization_8h.html" target="_top" xlink:title="Class for handling authorization information.">
<polygon fill="white" stroke="#666666" points="1291.44,-580 1145.44,-580 1145.44,-539 1291.44,-539 1291.44,-580"/>
<text text-anchor="start" x="1153.44" y="-568" font-family="Helvetica,sans-Serif" font-size="10.00">/home/runner/work/Catena</text>
<text text-anchor="start" x="1153.44" y="-557" font-family="Helvetica,sans-Serif" font-size="10.00">/Catena/sdks/cpp/common</text>
<text text-anchor="middle" x="1218.44" y="-546" font-family="Helvetica,sans-Serif" font-size="10.00">/include/Authorization.h</text>
</a>
</g>
</g>
<!-- Node1&#45;&gt;Node2 -->
<g id="edge1_Node000001_Node000002" class="edge">
<title>Node1&#45;&gt;Node2</title>
<g id="a_edge1_Node000001_Node000002"><a xlink:title=" ">
<path fill="none" stroke="#63b8ff" d="M1161.7,-776.42C1276.95,-756.41 1475.76,-714.41 1518.44,-657 1529.31,-642.37 1530.09,-630.01 1518.44,-616 1514.77,-611.6 1379.06,-587.8 1291.44,-572.83"/>
<polygon fill="#63b8ff" stroke="#63b8ff" points="1160.76,-773.03 1151.5,-778.17 1161.95,-779.92 1160.76,-773.03"/>
</a>
</g>
</g>
<!-- Node3 -->
<g id="Node000003" class="node">
<title>Node3</title>
<g id="a_Node000003"><a xlink:href="Device_8h.html" target="_top" xlink:title="Device class definition.">
<polygon fill="white" stroke="#666666" points="1050.44,-503 904.44,-503 904.44,-462 1050.44,-462 1050.44,-503"/>
<text text-anchor="start" x="912.44" y="-491" font-family="Helvetica,sans-Serif" font-size="10.00">/home/runner/work/Catena</text>
<text text-anchor="start" x="912.44" y="-480" font-family="Helvetica,sans-Serif" font-size="10.00">/Catena/sdks/cpp/common</text>
<text text-anchor="middle" x="977.44" y="-469" font-family="Helvetica,sans-Serif" font-size="10.00">/include/Device.h</text>
</a>
</g>
</g>
<!-- Node1&#45;&gt;Node3 -->
<g id="edge40_Node000001_Node000003" class="edge">
<title>Node1&#45;&gt;Node3</title>
<g id="a_edge40_Node000001_Node000003"><a xlink:title=" ">
<path fill="none" stroke="#63b8ff" d="M1026.12,-764.36C1014.49,-756.29 1003.52,-746.2 996.44,-734 952.55,-658.36 965.75,-547.55 973.54,-503.05"/>
<polygon fill="#63b8ff" stroke="#63b8ff" points="1024.37,-767.39 1034.67,-769.88 1028.17,-761.51 1024.37,-767.39"/>
</a>
</g>
</g>
<!-- Node30 -->
<g id="Node000030" class="node">
<title>Node30</title>
<g id="a_Node000030"><a xlink:href="IParam_8h.html" target="_top" xlink:title="Interface for parameters.">
<polygon fill="white" stroke="#666666" points="1151.44,-734 1005.44,-734 1005.44,-693 1151.44,-693 1151.44,-734"/>
<text text-anchor="start" x="1013.44" y="-722" font-family="Helvetica,sans-Serif" font-size="10.00">/home/runner/work/Catena</text>
<text text-anchor="start" x="1013.44" y="-711" font-family="Helvetica,sans-Serif" font-size="10.00">/Catena/sdks/cpp/common</text>
<text text-anchor="middle" x="1078.44" y="-700" font-family="Helvetica,sans-Serif" font-size="10.00">/include/IParam.h</text>
</a>
</g>
</g>
<!-- Node1&#45;&gt;Node30 -->
<g id="edge41_Node000001_Node000030" class="edge">
<title>Node1&#45;&gt;Node30</title>
<g id="a_edge41_Node000001_Node000030"><a xlink:title=" ">
<path fill="none" stroke="#63b8ff" d="M1078.44,-759.69C1078.44,-751.08 1078.44,-741.9 1078.44,-734.07"/>
<polygon fill="#63b8ff" stroke="#63b8ff" points="1074.94,-759.79 1078.44,-769.79 1081.94,-759.79 1074.94,-759.79"/>
</a>
</g>
</g>
<!-- Node2&#45;&gt;Node3 -->
<g id="edge2_Node000002_Node000003" class="edge">
<title>Node2&#45;&gt;Node3</title>
<g id="a_edge2_Node000002_Node000003"><a xlink:title=" ">
<path fill="none" stroke="#63b8ff" d="M1145.96,-535.94C1112.28,-525.46 1072.62,-513.12 1040.23,-503.04"/>
<polygon fill="#63b8ff" stroke="#63b8ff" points="1145.16,-539.36 1155.75,-538.99 1147.24,-532.68 1145.16,-539.36"/>
</a>
</g>
</g>
<!-- Node8 -->
<g id="Node000008" class="node">
<title>Node8</title>
<g id="a_Node000008"><a xlink:href="ServiceImpl_8h.html" target="_top" xlink:title="Implements Catena gRPC request handlers.">
<polygon fill="white" stroke="#666666" points="1569.94,-195 1408.94,-195 1408.94,-154 1569.94,-154 1569.94,-195"/>
<text text-anchor="start" x="1416.94" y="-183" font-family="Helvetica,sans-Serif" font-size="10.00">/home/runner/work/Catena</text>
<text text-anchor="start" x="1416.94" y="-172" font-family="Helvetica,sans-Serif" font-size="10.00">/Catena/sdks/cpp/connections</text>
<text text-anchor="middle" x="1489.44" y="-161" font-family="Helvetica,sans-Serif" font-size="10.00">/gRPC/include/ServiceImpl.h</text>
</a>
</g>
</g>
<!-- Node2&#45;&gt;Node8 -->
<g id="edge39_Node000002_Node000008" class="edge">
<title>Node2&#45;&gt;Node8</title>
<g id="a_edge39_Node000002_Node000008"><a xlink:title=" ">
<path fill="none" stroke="#63b8ff" d="M1218.6,-528.66C1219.49,-509.22 1222.15,-483.56 1229.44,-462 1271.49,-337.6 1400.94,-236.12 1459.78,-195.1"/>
<polygon fill="#63b8ff" stroke="#63b8ff" points="1215.1,-528.64 1218.27,-538.75 1222.09,-528.87 1215.1,-528.64"/>
</a>
</g>
</g>
<!-- Node26 -->
<g id="Node000026" class="node">
<title>Node26</title>
<g id="a_Node000026"><a xlink:href="ParamWithValue_8h.html" target="_top" xlink:title="Interface for acessing parameter values.">
<polygon fill="white" stroke="#666666" points="1430.94,-426 1283.94,-426 1283.94,-385 1430.94,-385 1430.94,-426"/>
<text text-anchor="start" x="1291.94" y="-414" font-family="Helvetica,sans-Serif" font-size="10.00">/home/runner/work/Catena</text>
<text text-anchor="start" x="1291.94" y="-403" font-family="Helvetica,sans-Serif" font-size="10.00">/Catena/sdks/cpp/common</text>
<text text-anchor="middle" x="1357.44" y="-392" font-family="Helvetica,sans-Serif" font-size="10.00">/include/ParamWithValue.h</text>
</a>
</g>
</g>
<!-- Node2&#45;&gt;Node26 -->
<g id="edge36_Node000002_Node000026" class="edge">
<title>Node2&#45;&gt;Node26</title>
<g id="a_edge36_Node000002_Node000026"><a xlink:title=" ">
<path fill="none" stroke="#63b8ff" d="M1224.48,-528.8C1229.94,-508.12 1239.75,-480.96 1256.44,-462 1269.85,-446.76 1288.51,-434.88 1306.14,-426.09"/>
<polygon fill="#63b8ff" stroke="#63b8ff" points="1221.04,-528.11 1222.07,-538.66 1227.85,-529.77 1221.04,-528.11"/>
</a>
</g>
</g>
<!-- Node29 -->
<g id="Node000029" class="node">
<title>Node29</title>
<g id="a_Node000029"><a xlink:href="StructInfo_8h.html" target="_top" xlink:title="Structured data serialization and deserialization to protobuf.">
<polygon fill="white" stroke="#666666" points="1411.44,-503 1265.44,-503 1265.44,-462 1411.44,-462 1411.44,-503"/>
<text text-anchor="start" x="1273.44" y="-491" font-family="Helvetica,sans-Serif" font-size="10.00">/home/runner/work/Catena</text>
<text text-anchor="start" x="1273.44" y="-480" font-family="Helvetica,sans-Serif" font-size="10.00">/Catena/sdks/cpp/common</text>
<text text-anchor="middle" x="1338.44" y="-469" font-family="Helvetica,sans-Serif" font-size="10.00">/include/StructInfo.h</text>
</a>
</g>
</g>
<!-- Node2&#45;&gt;Node29 -->
<g id="edge37_Node000002_Node000029" class="edge">
<title>Node2&#45;&gt;Node29</title>
<g id="a_edge37_Node000002_Node000029"><a xlink:title=" ">
<path fill="none" stroke="#63b8ff" d="M1258.21,-533.64C1274.06,-523.74 1292.04,-512.5 1306.96,-503.17"/>
<polygon fill="#63b8ff" stroke="#63b8ff" points="1256.28,-530.72 1249.65,-538.99 1259.99,-536.66 1256.28,-530.72"/>
</a>
</g>
</g>
<!-- Node4 -->
<g id="Node000004" class="node">
<title>Node4</title>
<g id="a_Node000004"><a xlink:href="IParamVisitor_8h.html" target="_top" xlink:title="Implements Catena IParamVisitor.">
<polygon fill="white" stroke="#666666" points="1227.44,-426 1081.44,-426 1081.44,-385 1227.44,-385 1227.44,-426"/>
<text text-anchor="start" x="1089.44" y="-414" font-family="Helvetica,sans-Serif" font-size="10.00">/home/runner/work/Catena</text>
<text text-anchor="start" x="1089.44" y="-403" font-family="Helvetica,sans-Serif" font-size="10.00">/Catena/sdks/cpp/common</text>
<text text-anchor="middle" x="1154.44" y="-392" font-family="Helvetica,sans-Serif" font-size="10.00">/include/IParamVisitor.h</text>
</a>
</g>
</g>
<!-- Node3&#45;&gt;Node4 -->
<g id="edge3_Node000003_Node000004" class="edge">
<title>Node3&#45;&gt;Node4</title>
<g id="a_edge3_Node000003_Node000004"><a xlink:title=" ">
<path fill="none" stroke="#63b8ff" d="M1032.91,-458C1057.15,-447.72 1085.25,-435.82 1108.32,-426.04"/>
<polygon fill="#63b8ff" stroke="#63b8ff" points="1031.32,-454.87 1023.48,-461.99 1034.05,-461.31 1031.32,-454.87"/>
</a>
</g>
</g>
<!-- Node5 -->
<g id="Node000005" class="node">
<title>Node5</title>
<g id="a_Node000005"><a xlink:href="ParamVisitor_8h.html" target="_top" xlink:title="Implements Catena ParamVisitor.">
<polygon fill="white" stroke="#666666" points="1025.44,-349 879.44,-349 879.44,-308 1025.44,-308 1025.44,-349"/>
<text text-anchor="start" x="887.44" y="-337" font-family="Helvetica,sans-Serif" font-size="10.00">/home/runner/work/Catena</text>
<text text-anchor="start" x="887.44" y="-326" font-family="Helvetica,sans-Serif" font-size="10.00">/Catena/sdks/cpp/common</text>
<text text-anchor="middle" x="952.44" y="-315" font-family="Helvetica,sans-Serif" font-size="10.00">/include/ParamVisitor.h</text>
</a>
</g>
</g>
<!-- Node3&#45;&gt;Node5 -->
<g id="edge30_Node000003_Node000005" class="edge">
<title>Node3&#45;&gt;Node5</title>
<g id="a_edge30_Node000003_Node000005"><a xlink:title=" ">
<path fill="none" stroke="#63b8ff" d="M988.4,-452.08C994.02,-432.67 998.36,-406.89 991.44,-385 987.28,-371.86 978.78,-359.14 970.77,-349.2"/>
<polygon fill="#63b8ff" stroke="#63b8ff" points="984.99,-451.27 985.31,-461.86 991.66,-453.38 984.99,-451.27"/>
</a>
</g>
</g>
<!-- Node6 -->
<g id="Node000006" class="node">
<title>Node6</title>
<g id="a_Node000006"><a xlink:href="SubscriptionManager_8h.html" target="_top" xlink:title="Centralized manager for parameter subscriptions in Catena.">
<polygon fill="white" stroke="#666666" points="695.94,-272 526.94,-272 526.94,-231 695.94,-231 695.94,-272"/>
<text text-anchor="start" x="534.94" y="-260" font-family="Helvetica,sans-Serif" font-size="10.00">/home/runner/work/Catena</text>
<text text-anchor="start" x="534.94" y="-249" font-family="Helvetica,sans-Serif" font-size="10.00">/Catena/sdks/cpp/common</text>
<text text-anchor="middle" x="611.44" y="-238" font-family="Helvetica,sans-Serif" font-size="10.00">/include/SubscriptionManager.h</text>
</a>
</g>
</g>
<!-- Node3&#45;&gt;Node6 -->
<g id="edge34_Node000003_Node000006" class="edge">
<title>Node3&#45;&gt;Node6</title>
<g id="a_edge34_Node000003_Node000006"><a xlink:title=" ">
<path fill="none" stroke="#63b8ff" d="M894.32,-462.71C893.02,-462.47 891.72,-462.23 890.44,-462 833.04,-451.61 671.09,-467.83 630.44,-426 589.99,-384.39 599.43,-307.95 606.75,-272.07"/>
<polygon fill="#63b8ff" stroke="#63b8ff" points="893.94,-466.21 904.42,-464.67 895.27,-459.33 893.94,-466.21"/>
</a>
</g>
</g>
<!-- Node3&#45;&gt;Node8 -->
<g id="edge35_Node000003_Node000008" class="edge">
<title>Node3&#45;&gt;Node8</title>
<g id="a_edge35_Node000003_Node000008"><a xlink:title=" ">
<path fill="none" stroke="#63b8ff" d="M998.02,-453.49C1038.37,-400.8 1133.38,-287.2 1241.44,-231 1293.5,-203.92 1358.4,-190 1408.75,-182.87"/>
<polygon fill="#63b8ff" stroke="#63b8ff" points="995.05,-451.62 991.8,-461.7 1000.63,-455.84 995.05,-451.62"/>
</a>
</g>
</g>
<!-- Node22 -->
<g id="Node000022" class="node">
<title>Node22</title>
<g id="a_Node000022"><a xlink:href="LanguagePack_8h.html" target="_top" xlink:title="multi language support in 2 classes: LanguagePack and LanguagePacks">
<polygon fill="white" stroke="#666666" points="785.44,-426 639.44,-426 639.44,-385 785.44,-385 785.44,-426"/>
<text text-anchor="start" x="647.44" y="-414" font-family="Helvetica,sans-Serif" font-size="10.00">/home/runner/work/Catena</text>
<text text-anchor="start" x="647.44" y="-403" font-family="Helvetica,sans-Serif" font-size="10.00">/Catena/sdks/cpp/common</text>
<text text-anchor="middle" x="712.44" y="-392" font-family="Helvetica,sans-Serif" font-size="10.00">/include/LanguagePack.h</text>
</a>
</g>
</g>
<!-- Node3&#45;&gt;Node22 -->
<g id="edge25_Node000003_Node000022" class="edge">
<title>Node3&#45;&gt;Node22</title>
<g id="a_edge25_Node000003_Node000022"><a xlink:title=" ">
<path fill="none" stroke="#63b8ff" d="M898.69,-459.21C861.46,-448.68 817.4,-436.21 781.49,-426.04"/>
<polygon fill="#63b8ff" stroke="#63b8ff" points="897.93,-462.63 908.5,-461.99 899.83,-455.9 897.93,-462.63"/>
</a>
</g>
</g>
<!-- Node23 -->
<g id="Node000023" class="node">
<title>Node23</title>
<g id="a_Node000023"><a xlink:href="Menu_8h.html" target="_top" xlink:title="Menus support.">
<polygon fill="white" stroke="#666666" points="949.44,-426 803.44,-426 803.44,-385 949.44,-385 949.44,-426"/>
<text text-anchor="start" x="811.44" y="-414" font-family="Helvetica,sans-Serif" font-size="10.00">/home/runner/work/Catena</text>
<text text-anchor="start" x="811.44" y="-403" font-family="Helvetica,sans-Serif" font-size="10.00">/Catena/sdks/cpp/common</text>
<text text-anchor="middle" x="876.44" y="-392" font-family="Helvetica,sans-Serif" font-size="10.00">/include/Menu.h</text>
</a>
</g>
</g>
<!-- Node3&#45;&gt;Node23 -->
<g id="edge26_Node000003_Node000023" class="edge">
<title>Node3&#45;&gt;Node23</title>
<g id="a_edge26_Node000003_Node000023"><a xlink:title=" ">
<path fill="none" stroke="#63b8ff" d="M942.85,-455.82C929.78,-446.11 915.14,-435.24 902.93,-426.17"/>
<polygon fill="#63b8ff" stroke="#63b8ff" points="941.05,-458.84 951.16,-461.99 945.22,-453.22 941.05,-458.84"/>
</a>
</g>
</g>
<!-- Node24 -->
<g id="Node000024" class="node">
<title>Node24</title>
<g id="a_Node000024"><a xlink:href="MenuGroup_8h.html" target="_top" xlink:title="MenuGroups support.">
<polygon fill="white" stroke="#666666" points="861.44,-349 715.44,-349 715.44,-308 861.44,-308 861.44,-349"/>
<text text-anchor="start" x="723.44" y="-337" font-family="Helvetica,sans-Serif" font-size="10.00">/home/runner/work/Catena</text>
<text text-anchor="start" x="723.44" y="-326" font-family="Helvetica,sans-Serif" font-size="10.00">/Catena/sdks/cpp/common</text>
<text text-anchor="middle" x="788.44" y="-315" font-family="Helvetica,sans-Serif" font-size="10.00">/include/MenuGroup.h</text>
</a>
</g>
</g>
<!-- Node3&#45;&gt;Node24 -->
<g id="edge28_Node000003_Node000024" class="edge">
<title>Node3&#45;&gt;Node24</title>
<g id="a_edge28_Node000003_Node000024"><a xlink:title=" ">
<path fill="none" stroke="#63b8ff" d="M979.05,-451.94C978.6,-430.86 974.51,-403.15 958.44,-385 951.36,-377.01 902.84,-361.59 859.44,-349.03"/>
<polygon fill="#63b8ff" stroke="#63b8ff" points="975.55,-451.96 979.01,-461.97 982.55,-451.99 975.55,-451.96"/>
</a>
</g>
</g>
<!-- Node25 -->
<g id="Node000025" class="node">
<title>Node25</title>
<g id="a_Node000025"><a xlink:href="NamedChoiceConstraint_8h.html" target="_top" xlink:title="A constraint that checks if a value is within some named choices.">
<polygon fill="white" stroke="#666666" points="246.94,-426 61.94,-426 61.94,-385 246.94,-385 246.94,-426"/>
<text text-anchor="start" x="69.94" y="-414" font-family="Helvetica,sans-Serif" font-size="10.00">/home/runner/work/Catena</text>
<text text-anchor="start" x="69.94" y="-403" font-family="Helvetica,sans-Serif" font-size="10.00">/Catena/sdks/cpp/common</text>
<text text-anchor="middle" x="154.44" y="-392" font-family="Helvetica,sans-Serif" font-size="10.00">/include/NamedChoiceConstraint.h</text>
</a>
</g>
</g>
<!-- Node3&#45;&gt;Node25 -->
<g id="edge29_Node000003_Node000025" class="edge">
<title>Node3&#45;&gt;Node25</title>
<g id="a_edge29_Node000003_Node000025"><a xlink:title=" ">
<path fill="none" stroke="#63b8ff" d="M894,-478.12C759.38,-471.98 486.11,-456.7 256.44,-426 253.4,-425.59 250.31,-425.16 247.2,-424.69"/>
<polygon fill="#63b8ff" stroke="#63b8ff" points="894.09,-481.63 904.23,-478.58 894.4,-474.63 894.09,-481.63"/>
</a>
</g>
</g>
<!-- Node3&#45;&gt;Node26 -->
<g id="edge31_Node000003_Node000026" class="edge">
<title>Node3&#45;&gt;Node26</title>
<g id="a_edge31_Node000003_Node000026"><a xlink:title=" ">
<path fill="none" stroke="#63b8ff" d="M1060.75,-465.06C1127.35,-451.91 1219.82,-433.66 1283.75,-421.04"/>
<polygon fill="#63b8ff" stroke="#63b8ff" points="1059.84,-461.67 1050.7,-467.04 1061.19,-468.54 1059.84,-461.67"/>
</a>
</g>
</g>
<!-- Node27 -->
<g id="Node000027" class="node">
<title>Node27</title>
<g id="a_Node000027"><a xlink:href="PicklistConstraint_8h.html" target="_top" xlink:title="A constraint that checks if a value is in a list of strings.">
<polygon fill="white" stroke="#666666" points="417.44,-426 265.44,-426 265.44,-385 417.44,-385 417.44,-426"/>
<text text-anchor="start" x="273.44" y="-414" font-family="Helvetica,sans-Serif" font-size="10.00">/home/runner/work/Catena</text>
<text text-anchor="start" x="273.44" y="-403" font-family="Helvetica,sans-Serif" font-size="10.00">/Catena/sdks/cpp/common</text>
<text text-anchor="middle" x="341.44" y="-392" font-family="Helvetica,sans-Serif" font-size="10.00">/include/PicklistConstraint.h</text>
</a>
</g>
</g>
<!-- Node3&#45;&gt;Node27 -->
<g id="edge32_Node000003_Node000027" class="edge">
<title>Node3&#45;&gt;Node27</title>
<g id="a_edge32_Node000003_Node000027"><a xlink:title=" ">
<path fill="none" stroke="#63b8ff" d="M894.21,-476.37C785.95,-468.96 591.18,-453.08 426.44,-426 423.6,-425.53 420.71,-425.03 417.8,-424.49"/>
<polygon fill="#63b8ff" stroke="#63b8ff" points="894.2,-479.88 904.41,-477.06 894.67,-472.9 894.2,-479.88"/>
</a>
</g>
</g>
<!-- Node28 -->
<g id="Node000028" class="node">
<title>Node28</title>
<g id="a_Node000028"><a xlink:href="RangeConstraint_8h.html" target="_top" xlink:title="A constraint that checks if a value is within a range.">
<polygon fill="white" stroke="#666666" points="583.44,-426 435.44,-426 435.44,-385 583.44,-385 583.44,-426"/>
<text text-anchor="start" x="443.44" y="-414" font-family="Helvetica,sans-Serif" font-size="10.00">/home/runner/work/Catena</text>
<text text-anchor="start" x="443.44" y="-403" font-family="Helvetica,sans-Serif" font-size="10.00">/Catena/sdks/cpp/common</text>
<text text-anchor="middle" x="509.44" y="-392" font-family="Helvetica,sans-Serif" font-size="10.00">/include/RangeConstraint.h</text>
</a>
</g>
</g>
<!-- Node3&#45;&gt;Node28 -->
<g id="edge33_Node000003_Node000028" class="edge">
<title>Node3&#45;&gt;Node28</title>
<g id="a_edge33_Node000003_Node000028"><a xlink:title=" ">
<path fill="none" stroke="#63b8ff" d="M893.77,-462.59C892.66,-462.39 891.54,-462.19 890.44,-462 761.16,-439.63 726.74,-448.22 597.44,-426 592.96,-425.23 588.38,-424.39 583.75,-423.49"/>
<polygon fill="#63b8ff" stroke="#63b8ff" points="893.49,-466.1 903.97,-464.5 894.78,-459.22 893.49,-466.1"/>
</a>
</g>
</g>
<!-- Node4&#45;&gt;Node5 -->
<g id="edge4_Node000004_Node000005" class="edge">
<title>Node4&#45;&gt;Node5</title>
<g id="a_edge4_Node000004_Node000005"><a xlink:title=" ">
<path fill="none" stroke="#63b8ff" d="M1092.23,-381.4C1064.32,-371.04 1031.75,-358.95 1005.07,-349.04"/>
<polygon fill="#63b8ff" stroke="#63b8ff" points="1091.3,-384.79 1101.89,-384.99 1093.73,-378.23 1091.3,-384.79"/>
</a>
</g>
</g>
<!-- Node5&#45;&gt;Node6 -->
<g id="edge5_Node000005_Node000006" class="edge">
<title>Node5&#45;&gt;Node6</title>
<g id="a_edge5_Node000005_Node000006"><a xlink:title=" ">
<path fill="none" stroke="#63b8ff" d="M869.36,-307.78C805.98,-293.51 744.28,-280.3 696.11,-270.15"/>
<polygon fill="#63b8ff" stroke="#63b8ff" points="868.61,-311.2 879.14,-309.98 870.15,-304.37 868.61,-311.2"/>
</a>
</g>
</g>
<!-- Node10 -->
<g id="Node000010" class="node">
<title>Node10</title>
<g id="a_Node000010"><a xlink:href="BasicParamInfoRequest_8h_source.html" target="_top" xlink:title=" ">
<polygon fill="white" stroke="#666666" points="938.94,-118 727.94,-118 727.94,-77 938.94,-77 938.94,-118"/>
<text text-anchor="start" x="735.94" y="-106" font-family="Helvetica,sans-Serif" font-size="10.00">/home/runner/work/Catena</text>
<text text-anchor="start" x="735.94" y="-95" font-family="Helvetica,sans-Serif" font-size="10.00">/Catena/sdks/cpp/connections</text>
<text text-anchor="middle" x="833.44" y="-84" font-family="Helvetica,sans-Serif" font-size="10.00">/gRPC/include/BasicParamInfoRequest.h</text>
</a>
</g>
</g>
<!-- Node5&#45;&gt;Node10 -->
<g id="edge24_Node000005_Node000010" class="edge">
<title>Node5&#45;&gt;Node10</title>
<g id="a_edge24_Node000005_Node000010"><a xlink:title=" ">
<path fill="none" stroke="#63b8ff" d="M937.58,-298.92C913.09,-251.78 864.83,-158.91 843.73,-118.3"/>
<polygon fill="#63b8ff" stroke="#63b8ff" points="934.57,-300.72 942.29,-307.98 940.79,-297.49 934.57,-300.72"/>
</a>
</g>
</g>
<!-- Node7 -->
<g id="Node000007" class="node">
<title>Node7</title>
<g id="a_Node000007"><a xlink:href="Connect_8h.html" target="_top" xlink:title="Implements Catena gRPC Connect.">
<polygon fill="white" stroke="#666666" points="494.94,-118 333.94,-118 333.94,-77 494.94,-77 494.94,-118"/>
<text text-anchor="start" x="341.94" y="-106" font-family="Helvetica,sans-Serif" font-size="10.00">/home/runner/work/Catena</text>
<text text-anchor="start" x="341.94" y="-95" font-family="Helvetica,sans-Serif" font-size="10.00">/Catena/sdks/cpp/connections</text>
<text text-anchor="middle" x="414.44" y="-84" font-family="Helvetica,sans-Serif" font-size="10.00">/gRPC/include/Connect.h</text>
</a>
</g>
</g>
<!-- Node6&#45;&gt;Node7 -->
<g id="edge6_Node000006_Node000007" class="edge">
<title>Node6&#45;&gt;Node7</title>
<g id="a_edge6_Node000006_Node000007"><a xlink:title=" ">
<path fill="none" stroke="#63b8ff" d="M578.16,-224.82C539.14,-194.72 475.34,-145.49 440,-118.23"/>
<polygon fill="#63b8ff" stroke="#63b8ff" points="576.03,-227.6 586.09,-230.94 580.31,-222.06 576.03,-227.6"/>
</a>
</g>
</g>
<!-- Node6&#45;&gt;Node8 -->
<g id="edge7_Node000006_Node000008" class="edge">
<title>Node6&#45;&gt;Node8</title>
<g id="a_edge7_Node000006_Node000008"><a xlink:title=" ">
<path fill="none" stroke="#63b8ff" d="M706.17,-242.41C879.82,-227.57 1246.2,-196.28 1408.79,-182.39"/>
<polygon fill="#63b8ff" stroke="#63b8ff" points="705.69,-238.94 696.02,-243.27 706.28,-245.91 705.69,-238.94"/>
</a>
</g>
</g>
<!-- Node21 -->
<g id="Node000021" class="node">
<title>Node21</title>
<g id="a_Node000021"><a xlink:href="UpdateSubscriptions_8h.html" target="_top" xlink:title="Implements Catena gRPC UpdateSubscriptions.">
<polygon fill="white" stroke="#666666" points="709.44,-118 513.44,-118 513.44,-77 709.44,-77 709.44,-118"/>
<text text-anchor="start" x="521.44" y="-106" font-family="Helvetica,sans-Serif" font-size="10.00">/home/runner/work/Catena</text>
<text text-anchor="start" x="521.44" y="-95" font-family="Helvetica,sans-Serif" font-size="10.00">/Catena/sdks/cpp/connections</text>
<text text-anchor="middle" x="611.44" y="-84" font-family="Helvetica,sans-Serif" font-size="10.00">/gRPC/include/UpdateSubscriptions.h</text>
</a>
</g>
</g>
<!-- Node6&#45;&gt;Node21 -->
<g id="edge23_Node000006_Node000021" class="edge">
<title>Node6&#45;&gt;Node21</title>
<g id="a_edge23_Node000006_Node000021"><a xlink:title=" ">
<path fill="none" stroke="#63b8ff" d="M611.44,-220.58C611.44,-190.36 611.44,-144.53 611.44,-118.47"/>
<polygon fill="#63b8ff" stroke="#63b8ff" points="607.94,-220.94 611.44,-230.94 614.94,-220.94 607.94,-220.94"/>
</a>
</g>
</g>
<!-- Node8&#45;&gt;Node7 -->
<g id="edge10_Node000008_Node000007" class="edge">
<title>Node8&#45;&gt;Node7</title>
<g id="a_edge10_Node000008_Node000007"><a xlink:title=" ">
<path fill="none" stroke="#63b8ff" d="M1398.77,-173.14C1224.63,-171.39 831.64,-162.38 504.44,-118 501.43,-117.59 498.37,-117.14 495.28,-116.64"/>
<polygon fill="#63b8ff" stroke="#63b8ff" points="1398.88,-176.64 1408.91,-173.23 1398.95,-169.64 1398.88,-176.64"/>
</a>
</g>
</g>
<!-- Node9 -->
<g id="Node000009" class="node">
<title>Node9</title>
<g id="a_Node000009"><a xlink:href="AddLanguage_8h.html" target="_top" xlink:title="Implements Catena gRPC AddLanguage.">
<polygon fill="white" stroke="#666666" points="1922.94,-118 1761.94,-118 1761.94,-77 1922.94,-77 1922.94,-118"/>
<text text-anchor="start" x="1769.94" y="-106" font-family="Helvetica,sans-Serif" font-size="10.00">/home/runner/work/Catena</text>
<text text-anchor="start" x="1769.94" y="-95" font-family="Helvetica,sans-Serif" font-size="10.00">/Catena/sdks/cpp/connections</text>
<text text-anchor="middle" x="1842.44" y="-84" font-family="Helvetica,sans-Serif" font-size="10.00">/gRPC/include/AddLanguage.h</text>
</a>
</g>
</g>
<!-- Node8&#45;&gt;Node9 -->
<g id="edge8_Node000008_Node000009" class="edge">
<title>Node8&#45;&gt;Node9</title>
<g id="a_edge8_Node000008_Node000009"><a xlink:title=" ">
<path fill="none" stroke="#63b8ff" d="M1579.93,-154.27C1636.12,-142.33 1707.71,-127.12 1761.93,-115.6"/>
<polygon fill="#63b8ff" stroke="#63b8ff" points="1579.03,-150.89 1569.98,-156.39 1580.49,-157.73 1579.03,-150.89"/>
</a>
</g>
</g>
<!-- Node8&#45;&gt;Node10 -->
<g id="edge9_Node000008_Node000010" class="edge">
<title>Node8&#45;&gt;Node10</title>
<g id="a_edge9_Node000008_Node000010"><a xlink:title=" ">
<path fill="none" stroke="#63b8ff" d="M1398.69,-166.09C1290.87,-156.85 1105.64,-139.61 947.44,-118 944.65,-117.62 941.83,-117.22 938.98,-116.81"/>
<polygon fill="#63b8ff" stroke="#63b8ff" points="1398.62,-169.6 1408.88,-166.96 1399.22,-162.62 1398.62,-169.6"/>
</a>
</g>
</g>
<!-- Node11 -->
<g id="Node000011" class="node">
<title>Node11</title>
<g id="a_Node000011"><a xlink:href="DeviceRequest_8h.html" target="_top" xlink:title="Implements Catena gRPC DeviceRequest.">
<polygon fill="white" stroke="#666666" points="2109.94,-118 1940.94,-118 1940.94,-77 2109.94,-77 2109.94,-118"/>
<text text-anchor="start" x="1948.94" y="-106" font-family="Helvetica,sans-Serif" font-size="10.00">/home/runner/work/Catena</text>
<text text-anchor="start" x="1948.94" y="-95" font-family="Helvetica,sans-Serif" font-size="10.00">/Catena/sdks/cpp/connections</text>
<text text-anchor="middle" x="2025.44" y="-84" font-family="Helvetica,sans-Serif" font-size="10.00">/gRPC/include/DeviceRequest.h</text>
</a>
</g>
</g>
<!-- Node8&#45;&gt;Node11 -->
<g id="edge11_Node000008_Node000011" class="edge">
<title>Node8&#45;&gt;Node11</title>
<g id="a_edge11_Node000008_Node000011"><a xlink:title=" ">
<path fill="none" stroke="#63b8ff" d="M1580.3,-164.32C1670.08,-154.73 1811.16,-138.28 1932.44,-118 1935.2,-117.54 1938.01,-117.05 1940.85,-116.54"/>
<polygon fill="#63b8ff" stroke="#63b8ff" points="1579.73,-160.86 1570.16,-165.4 1580.47,-167.82 1579.73,-160.86"/>
</a>
</g>
</g>
<!-- Node12 -->
<g id="Node000012" class="node">
<title>Node12</title>
<g id="a_Node000012"><a xlink:href="ExecuteCommand_8h.html" target="_top" xlink:title="Implements Catena gRPC ExecuteCommand.">
<polygon fill="white" stroke="#666666" points="2312.44,-118 2128.44,-118 2128.44,-77 2312.44,-77 2312.44,-118"/>
<text text-anchor="start" x="2136.44" y="-106" font-family="Helvetica,sans-Serif" font-size="10.00">/home/runner/work/Catena</text>
<text text-anchor="start" x="2136.44" y="-95" font-family="Helvetica,sans-Serif" font-size="10.00">/Catena/sdks/cpp/connections</text>
<text text-anchor="middle" x="2220.44" y="-84" font-family="Helvetica,sans-Serif" font-size="10.00">/gRPC/include/ExecuteCommand.h</text>
</a>
</g>
</g>
<!-- Node8&#45;&gt;Node12 -->
<g id="edge12_Node000008_Node000012" class="edge">
<title>Node8&#45;&gt;Node12</title>
<g id="a_edge12_Node000008_Node000012"><a xlink:title=" ">
<path fill="none" stroke="#63b8ff" d="M1580.4,-168.43C1703.17,-160.92 1928.54,-144.76 2119.44,-118 2122.35,-117.59 2125.32,-117.15 2128.3,-116.69"/>
<polygon fill="#63b8ff" stroke="#63b8ff" points="1580.06,-164.95 1570.29,-169.05 1580.49,-171.93 1580.06,-164.95"/>
</a>
</g>
</g>
<!-- Node13 -->
<g id="Node000013" class="node">
<title>Node13</title>
<g id="a_Node000013"><a xlink:href="ExternalObjectRequest_8h.html" target="_top" xlink:title="Implements Catena gRPC ExternalObjectRequest.">
<polygon fill="white" stroke="#666666" points="2537.94,-118 2330.94,-118 2330.94,-77 2537.94,-77 2537.94,-118"/>
<text text-anchor="start" x="2338.94" y="-106" font-family="Helvetica,sans-Serif" font-size="10.00">/home/runner/work/Catena</text>
<text text-anchor="start" x="2338.94" y="-95" font-family="Helvetica,sans-Serif" font-size="10.00">/Catena/sdks/cpp/connections</text>
<text text-anchor="middle" x="2434.44" y="-84" font-family="Helvetica,sans-Serif" font-size="10.00">/gRPC/include/ExternalObjectRequest.h</text>
</a>
</g>
</g>
<!-- Node8&#45;&gt;Node13 -->
<g id="edge13_Node000008_Node000013" class="edge">
<title>Node8&#45;&gt;Node13</title>
<g id="a_edge13_Node000008_Node000013"><a xlink:title=" ">
<path fill="none" stroke="#63b8ff" d="M1580.31,-170.54C1733.58,-164.86 2053.05,-150.02 2321.44,-118 2324.5,-117.63 2327.61,-117.24 2330.74,-116.83"/>
<polygon fill="#63b8ff" stroke="#63b8ff" points="1579.88,-167.05 1570.01,-170.92 1580.13,-174.05 1579.88,-167.05"/>
</a>
</g>
</g>
<!-- Node14 -->
<g id="Node000014" class="node">
<title>Node14</title>
<g id="a_Node000014"><a xlink:href="GetParam_8h.html" target="_top" xlink:title="Implements Catena gRPC GetParam.">
<polygon fill="white" stroke="#666666" points="2716.94,-118 2555.94,-118 2555.94,-77 2716.94,-77 2716.94,-118"/>
<text text-anchor="start" x="2563.94" y="-106" font-family="Helvetica,sans-Serif" font-size="10.00">/home/runner/work/Catena</text>
<text text-anchor="start" x="2563.94" y="-95" font-family="Helvetica,sans-Serif" font-size="10.00">/Catena/sdks/cpp/connections</text>
<text text-anchor="middle" x="2636.44" y="-84" font-family="Helvetica,sans-Serif" font-size="10.00">/gRPC/include/GetParam.h</text>
</a>
</g>
</g>
<!-- Node8&#45;&gt;Node14 -->
<g id="edge14_Node000008_Node000014" class="edge">
<title>Node8&#45;&gt;Node14</title>
<g id="a_edge14_Node000008_Node000014"><a xlink:title=" ">
<path fill="none" stroke="#63b8ff" d="M1580.3,-173.71C1763.9,-173.05 2191.87,-165.95 2547.44,-118 2550.1,-117.64 2552.81,-117.24 2555.53,-116.81"/>
<polygon fill="#63b8ff" stroke="#63b8ff" points="1580.14,-170.21 1570.15,-173.74 1580.16,-177.21 1580.14,-170.21"/>
</a>
</g>
</g>
<!-- Node15 -->
<g id="Node000015" class="node">
<title>Node15</title>
<g id="a_Node000015"><a xlink:href="GetPopulatedSlots_8h.html" target="_top" xlink:title="Implements Catena gRPC GetPopulatedSlots.">
<polygon fill="white" stroke="#666666" points="2919.94,-118 2734.94,-118 2734.94,-77 2919.94,-77 2919.94,-118"/>
<text text-anchor="start" x="2742.94" y="-106" font-family="Helvetica,sans-Serif" font-size="10.00">/home/runner/work/Catena</text>
<text text-anchor="start" x="2742.94" y="-95" font-family="Helvetica,sans-Serif" font-size="10.00">/Catena/sdks/cpp/connections</text>
<text text-anchor="middle" x="2827.44" y="-84" font-family="Helvetica,sans-Serif" font-size="10.00">/gRPC/include/GetPopulatedSlots.h</text>
</a>
</g>
</g>
<!-- Node8&#45;&gt;Node15 -->
<g id="edge15_Node000008_Node000015" class="edge">
<title>Node8&#45;&gt;Node15</title>
<g id="a_edge15_Node000008_Node000015"><a xlink:title=" ">
<path fill="none" stroke="#63b8ff" d="M1580.21,-173.95C1785.27,-173.97 2299.73,-168.49 2726.44,-118 2729.19,-117.67 2731.97,-117.32 2734.78,-116.93"/>
<polygon fill="#63b8ff" stroke="#63b8ff" points="1580.09,-170.45 1570.09,-173.94 1580.08,-177.45 1580.09,-170.45"/>
</a>
</g>
</g>
<!-- Node16 -->
<g id="Node000016" class="node">
<title>Node16</title>
<g id="a_Node000016"><a xlink:href="GetValue_8h.html" target="_top" xlink:title="Implements Catena gRPC GetValue.">
<polygon fill="white" stroke="#666666" points="1117.94,-118 956.94,-118 956.94,-77 1117.94,-77 1117.94,-118"/>
<text text-anchor="start" x="964.94" y="-106" font-family="Helvetica,sans-Serif" font-size="10.00">/home/runner/work/Catena</text>
<text text-anchor="start" x="964.94" y="-95" font-family="Helvetica,sans-Serif" font-size="10.00">/Catena/sdks/cpp/connections</text>
<text text-anchor="middle" x="1037.44" y="-84" font-family="Helvetica,sans-Serif" font-size="10.00">/gRPC/include/GetValue.h</text>
</a>
</g>
</g>
<!-- Node8&#45;&gt;Node16 -->
<g id="edge16_Node000008_Node000016" class="edge">
<title>Node8&#45;&gt;Node16</title>
<g id="a_edge16_Node000008_Node000016"><a xlink:title=" ">
<path fill="none" stroke="#63b8ff" d="M1398.55,-161.14C1325.18,-150.78 1219.4,-135 1127.44,-118 1124.45,-117.45 1121.41,-116.87 1118.34,-116.27"/>
<polygon fill="#63b8ff" stroke="#63b8ff" points="1398.29,-164.64 1408.68,-162.56 1399.27,-157.71 1398.29,-164.64"/>
</a>
</g>
</g>
<!-- Node17 -->
<g id="Node000017" class="node">
<title>Node17</title>
<g id="a_Node000017"><a xlink:href="LanguagePackRequest_8h.html" target="_top" xlink:title="Implements Catena gRPC LanguagePackRequest.">
<polygon fill="white" stroke="#666666" points="1340.94,-118 1135.94,-118 1135.94,-77 1340.94,-77 1340.94,-118"/>
<text text-anchor="start" x="1143.94" y="-106" font-family="Helvetica,sans-Serif" font-size="10.00">/home/runner/work/Catena</text>
<text text-anchor="start" x="1143.94" y="-95" font-family="Helvetica,sans-Serif" font-size="10.00">/Catena/sdks/cpp/connections</text>
<text text-anchor="middle" x="1238.44" y="-84" font-family="Helvetica,sans-Serif" font-size="10.00">/gRPC/include/LanguagePackRequest.h</text>
</a>
</g>
</g>
<!-- Node8&#45;&gt;Node17 -->
<g id="edge17_Node000008_Node000017" class="edge">
<title>Node8&#45;&gt;Node17</title>
<g id="a_edge17_Node000008_Node000017"><a xlink:title=" ">
<path fill="none" stroke="#63b8ff" d="M1414.4,-151.08C1379.23,-140.57 1337.71,-128.16 1303.84,-118.04"/>
<polygon fill="#63b8ff" stroke="#63b8ff" points="1413.56,-154.48 1424.14,-153.99 1415.57,-147.77 1413.56,-154.48"/>
</a>
</g>
</g>
<!-- Node18 -->
<g id="Node000018" class="node">
<title>Node18</title>
<g id="a_Node000018"><a xlink:href="ListLanguages_8h.html" target="_top" xlink:title="Implements Catena gRPC ListLanguages.">
<polygon fill="white" stroke="#666666" points="1523.94,-118 1358.94,-118 1358.94,-77 1523.94,-77 1523.94,-118"/>
<text text-anchor="start" x="1366.94" y="-106" font-family="Helvetica,sans-Serif" font-size="10.00">/home/runner/work/Catena</text>
<text text-anchor="start" x="1366.94" y="-95" font-family="Helvetica,sans-Serif" font-size="10.00">/Catena/sdks/cpp/connections</text>
<text text-anchor="middle" x="1441.44" y="-84" font-family="Helvetica,sans-Serif" font-size="10.00">/gRPC/include/ListLanguages.h</text>
</a>
</g>
</g>
<!-- Node8&#45;&gt;Node18 -->
<g id="edge18_Node000008_Node000018" class="edge">
<title>Node8&#45;&gt;Node18</title>
<g id="a_edge18_Node000008_Node000018"><a xlink:title=" ">
<path fill="none" stroke="#63b8ff" d="M1471.27,-145.11C1465.5,-136.09 1459.25,-126.33 1453.96,-118.07"/>
<polygon fill="#63b8ff" stroke="#63b8ff" points="1468.49,-147.26 1476.83,-153.79 1474.38,-143.49 1468.49,-147.26"/>
</a>
</g>
</g>
<!-- Node19 -->
<g id="Node000019" class="node">
<title>Node19</title>
<g id="a_Node000019"><a xlink:href="MultiSetValue_8h.html" target="_top" xlink:title="Generic CallData class for the SetValue and MultiSetValue RPCs.">
<polygon fill="white" stroke="#666666" points="1704.94,-118 1541.94,-118 1541.94,-77 1704.94,-77 1704.94,-118"/>
<text text-anchor="start" x="1549.94" y="-106" font-family="Helvetica,sans-Serif" font-size="10.00">/home/runner/work/Catena</text>
<text text-anchor="start" x="1549.94" y="-95" font-family="Helvetica,sans-Serif" font-size="10.00">/Catena/sdks/cpp/connections</text>
<text text-anchor="middle" x="1623.44" y="-84" font-family="Helvetica,sans-Serif" font-size="10.00">/gRPC/include/MultiSetValue.h</text>
</a>
</g>
</g>
<!-- Node8&#45;&gt;Node19 -->
<g id="edge19_Node000008_Node000019" class="edge">
<title>Node8&#45;&gt;Node19</title>
<g id="a_edge19_Node000008_Node000019"><a xlink:title=" ">
<path fill="none" stroke="#63b8ff" d="M1533.35,-148.92C1551.17,-138.95 1571.48,-127.58 1588.29,-118.17"/>
<polygon fill="#63b8ff" stroke="#63b8ff" points="1531.31,-146.05 1524.29,-153.99 1534.73,-152.16 1531.31,-146.05"/>
</a>
</g>
</g>
<!-- Node20 -->
<g id="Node000020" class="node">
<title>Node20</title>
<g id="a_Node000020"><a xlink:href="SetValue_8h.html" target="_top" xlink:title="Implements Catena gRPC SetValue.">
<polygon fill="white" stroke="#666666" points="1758.94,-41 1597.94,-41 1597.94,0 1758.94,0 1758.94,-41"/>
<text text-anchor="start" x="1605.94" y="-29" font-family="Helvetica,sans-Serif" font-size="10.00">/home/runner/work/Catena</text>
<text text-anchor="start" x="1605.94" y="-18" font-family="Helvetica,sans-Serif" font-size="10.00">/Catena/sdks/cpp/connections</text>
<text text-anchor="middle" x="1678.44" y="-7" font-family="Helvetica,sans-Serif" font-size="10.00">/gRPC/include/SetValue.h</text>
</a>
</g>
</g>
<!-- Node8&#45;&gt;Node20 -->
<g id="edge21_Node000008_Node000020" class="edge">
<title>Node8&#45;&gt;Node20</title>
<g id="a_edge21_Node000008_Node000020"><a xlink:title=" ">
<path fill="none" stroke="#63b8ff" d="M1580.24,-162.55C1635.09,-153.86 1697.56,-139.54 1714.44,-118 1732.41,-95.05 1712.9,-62.21 1696.35,-41.37"/>
<polygon fill="#63b8ff" stroke="#63b8ff" points="1579.46,-159.13 1570.1,-164.11 1580.52,-166.05 1579.46,-159.13"/>
</a>
</g>
</g>
<!-- Node8&#45;&gt;Node21 -->
<g id="edge22_Node000008_Node000021" class="edge">
<title>Node8&#45;&gt;Node21</title>
<g id="a_edge22_Node000008_Node000021"><a xlink:title=" ">
<path fill="none" stroke="#63b8ff" d="M1398.53,-170.15C1254.02,-164.11 963.19,-149.02 718.44,-118 715.53,-117.63 712.59,-117.24 709.62,-116.82"/>
<polygon fill="#63b8ff" stroke="#63b8ff" points="1398.54,-173.65 1408.68,-170.57 1398.83,-166.66 1398.54,-173.65"/>
</a>
</g>
</g>
<!-- Node19&#45;&gt;Node20 -->
<g id="edge20_Node000019_Node000020" class="edge">
<title>Node19&#45;&gt;Node20</title>
<g id="a_edge20_Node000019_Node000020"><a xlink:title=" ">
<path fill="none" stroke="#63b8ff" d="M1643.84,-68.67C1650.57,-59.5 1657.91,-49.5 1664.08,-41.07"/>
<polygon fill="#63b8ff" stroke="#63b8ff" points="1640.98,-66.66 1637.89,-76.79 1646.62,-70.8 1640.98,-66.66"/>
</a>
</g>
</g>
<!-- Node23&#45;&gt;Node24 -->
<g id="edge27_Node000023_Node000024" class="edge">
<title>Node23&#45;&gt;Node24</title>
<g id="a_edge27_Node000023_Node000024"><a xlink:title=" ">
<path fill="none" stroke="#63b8ff" d="M845.43,-378.07C834.22,-368.52 821.79,-357.93 811.4,-349.07"/>
<polygon fill="#63b8ff" stroke="#63b8ff" points="843.43,-380.97 853.32,-384.79 847.98,-375.64 843.43,-380.97"/>
</a>
</g>
</g>
<!-- Node29&#45;&gt;Node26 -->
<g id="edge38_Node000029_Node000026" class="edge">
<title>Node29&#45;&gt;Node26</title>
<g id="a_edge38_Node000029_Node000026"><a xlink:title=" ">
<path fill="none" stroke="#63b8ff" d="M1345.92,-451.98C1348.12,-443.28 1350.47,-433.98 1352.48,-426.07"/>
<polygon fill="#63b8ff" stroke="#63b8ff" points="1342.49,-451.24 1343.43,-461.79 1349.28,-452.96 1342.49,-451.24"/>
</a>
</g>
</g>
<!-- Node30&#45;&gt;Node2 -->
<g id="edge42_Node000030_Node000002" class="edge">
<title>Node30&#45;&gt;Node2</title>
<g id="a_edge42_Node000030_Node000002"><a xlink:title=" ">
<path fill="none" stroke="#63b8ff" d="M1104.13,-685.22C1112.54,-676.26 1121.91,-666.22 1130.44,-657 1154.91,-630.53 1182.93,-599.71 1200.65,-580.16"/>
<polygon fill="#63b8ff" stroke="#63b8ff" points="1101.33,-683.1 1097.03,-692.78 1106.43,-687.89 1101.33,-683.1"/>
</a>
</g>
</g>
<!-- Node30&#45;&gt;Node3 -->
<g id="edge43_Node000030_Node000003" class="edge">
<title>Node30&#45;&gt;Node3</title>
<g id="a_edge43_Node000030_Node000003"><a xlink:title=" ">
<path fill="none" stroke="#63b8ff" d="M1065.7,-683.62C1044.87,-636.39 1004.04,-543.83 986.17,-503.3"/>
<polygon fill="#63b8ff" stroke="#63b8ff" points="1062.59,-685.24 1069.83,-692.98 1068.99,-682.41 1062.59,-685.24"/>
</a>
</g>
</g>
<!-- Node30&#45;&gt;Node4 -->
<g id="edge44_Node000030_Node000004" class="edge">
<title>Node30&#45;&gt;Node4</title>
<g id="a_edge44_Node000030_Node000004"><a xlink:title=" ">
<path fill="none" stroke="#63b8ff" d="M1075.3,-682.75C1071.46,-634.18 1069.09,-535.85 1102.44,-462 1108.63,-448.28 1119.62,-435.78 1129.91,-426.12"/>
<polygon fill="#63b8ff" stroke="#63b8ff" points="1071.83,-683.23 1076.19,-692.89 1078.81,-682.62 1071.83,-683.23"/>
</a>
</g>
</g>
<!-- Node30&#45;&gt;Node6 -->
<g id="edge52_Node000030_Node000006" class="edge">
<title>Node30&#45;&gt;Node6</title>
<g id="a_edge52_Node000030_Node000006"><a xlink:title=" ">
<path fill="none" stroke="#63b8ff" d="M995,-709.11C747.48,-697.94 34.44,-657.38 34.44,-560.5 34.44,-560.5 34.44,-560.5 34.44,-404.5 34.44,-303.89 366.65,-268.45 526.92,-257.2"/>
<polygon fill="#63b8ff" stroke="#63b8ff" points="994.88,-712.61 1005.02,-709.56 995.19,-705.61 994.88,-712.61"/>
</a>
</g>
</g>
<!-- Node30&#45;&gt;Node8 -->
<g id="edge55_Node000030_Node000008" class="edge">
<title>Node30&#45;&gt;Node8</title>
<g id="a_edge55_Node000030_Node000008"><a xlink:title=" ">
<path fill="none" stroke="#63b8ff" d="M1161.44,-713.21C1274.39,-712.36 1468.24,-703.85 1518.44,-657 1550.39,-627.17 1537.44,-604.21 1537.44,-560.5 1537.44,-560.5 1537.44,-560.5 1537.44,-327.5 1537.44,-277.96 1513.97,-223.39 1499.85,-195.04"/>
<polygon fill="#63b8ff" stroke="#63b8ff" points="1161.42,-709.71 1151.44,-713.27 1161.46,-716.71 1161.42,-709.71"/>
</a>
</g>
</g>
<!-- Node30&#45;&gt;Node25 -->
<g id="edge45_Node000030_Node000025" class="edge">
<title>Node30&#45;&gt;Node25</title>
<g id="a_edge45_Node000030_Node000025"><a xlink:title=" ">
<path fill="none" stroke="#63b8ff" d="M994.85,-711.22C750.71,-707.07 53.82,-692.19 20.44,-657 -47.8,-585.09 73.72,-471.67 129.09,-426.26"/>
<polygon fill="#63b8ff" stroke="#63b8ff" points="995.03,-714.72 1005.08,-711.39 995.14,-707.72 995.03,-714.72"/>
</a>
</g>
</g>
<!-- Node30&#45;&gt;Node26 -->
<g id="edge49_Node000030_Node000026" class="edge">
<title>Node30&#45;&gt;Node26</title>
<g id="a_edge49_Node000030_Node000026"><a xlink:title=" ">
<path fill="none" stroke="#63b8ff" d="M1083.15,-683C1090.06,-646.57 1105.63,-583.94 1136.44,-539 1175.2,-482.45 1246.75,-446.13 1297.94,-426.07"/>
<polygon fill="#63b8ff" stroke="#63b8ff" points="1079.68,-682.51 1081.35,-692.97 1086.57,-683.75 1079.68,-682.51"/>
</a>
</g>
</g>
<!-- Node30&#45;&gt;Node27 -->
<g id="edge50_Node000030_Node000027" class="edge">
<title>Node30&#45;&gt;Node27</title>
<g id="a_edge50_Node000030_Node000027"><a xlink:title=" ">
<path fill="none" stroke="#63b8ff" d="M999.85,-690.01C968.9,-680.6 933.23,-669.05 901.44,-657 701.75,-581.33 471.35,-470.53 380.83,-426.05"/>
<polygon fill="#63b8ff" stroke="#63b8ff" points="999.13,-693.45 1009.72,-692.99 1001.16,-686.75 999.13,-693.45"/>
</a>
</g>
</g>
<!-- Node30&#45;&gt;Node28 -->
<g id="edge51_Node000030_Node000028" class="edge">
<title>Node30&#45;&gt;Node28</title>
<g id="a_edge51_Node000030_Node000028"><a xlink:title=" ">
<path fill="none" stroke="#63b8ff" d="M1033.14,-688.14C923.57,-629.22 645.88,-479.88 545.96,-426.14"/>
<polygon fill="#63b8ff" stroke="#63b8ff" points="1031.51,-691.24 1041.98,-692.89 1034.83,-685.07 1031.51,-691.24"/>
</a>
</g>
</g>
<!-- Node31 -->
<g id="Node000031" class="node">
<title>Node31</title>
<g id="a_Node000031"><a xlink:href="ParamDescriptor_8h.html" target="_top" xlink:title="Interface for accessing parameter descriptions.">
<polygon fill="white" stroke="#666666" points="1329.94,-657 1182.94,-657 1182.94,-616 1329.94,-616 1329.94,-657"/>
<text text-anchor="start" x="1190.94" y="-645" font-family="Helvetica,sans-Serif" font-size="10.00">/home/runner/work/Catena</text>
<text text-anchor="start" x="1190.94" y="-634" font-family="Helvetica,sans-Serif" font-size="10.00">/Catena/sdks/cpp/common</text>
<text text-anchor="middle" x="1256.44" y="-623" font-family="Helvetica,sans-Serif" font-size="10.00">/include/ParamDescriptor.h</text>
</a>
</g>
</g>
<!-- Node30&#45;&gt;Node31 -->
<g id="edge46_Node000030_Node000031" class="edge">
<title>Node30&#45;&gt;Node31</title>
<g id="a_edge46_Node000030_Node000031"><a xlink:title=" ">
<path fill="none" stroke="#63b8ff" d="M1134.22,-689C1158.6,-678.72 1186.86,-666.82 1210.06,-657.04"/>
<polygon fill="#63b8ff" stroke="#63b8ff" points="1132.6,-685.88 1124.74,-692.99 1135.31,-692.33 1132.6,-685.88"/>
</a>
</g>
</g>
<!-- Node32 -->
<g id="Node000032" class="node">
<title>Node32</title>
<g id="a_Node000032"><a xlink:href="PeerInfo_8h.html" target="_top" xlink:title="Holds information about connected Peers.">
<polygon fill="white" stroke="#666666" points="1508.94,-657 1347.94,-657 1347.94,-616 1508.94,-616 1508.94,-657"/>
<text text-anchor="start" x="1355.94" y="-645" font-family="Helvetica,sans-Serif" font-size="10.00">/home/runner/work/Catena</text>
<text text-anchor="start" x="1355.94" y="-634" font-family="Helvetica,sans-Serif" font-size="10.00">/Catena/sdks/cpp/connections</text>
<text text-anchor="middle" x="1428.44" y="-623" font-family="Helvetica,sans-Serif" font-size="10.00">/gRPC/include/PeerInfo.h</text>
</a>
</g>
</g>
<!-- Node30&#45;&gt;Node32 -->
<g id="edge53_Node000030_Node000032" class="edge">
<title>Node30&#45;&gt;Node32</title>
<g id="a_edge53_Node000030_Node000032"><a xlink:title=" ">
<path fill="none" stroke="#63b8ff" d="M1161.63,-694.95C1212.91,-684.09 1280,-669.83 1339.44,-657 1342.22,-656.4 1345.05,-655.79 1347.91,-655.17"/>
<polygon fill="#63b8ff" stroke="#63b8ff" points="1160.65,-691.58 1151.59,-697.07 1162.1,-698.42 1160.65,-691.58"/>
</a>
</g>
</g>
<!-- Node31&#45;&gt;Node2 -->
<g id="edge47_Node000031_Node000002" class="edge">
<title>Node31&#45;&gt;Node2</title>
<g id="a_edge47_Node000031_Node000002"><a xlink:title=" ">
<path fill="none" stroke="#63b8ff" d="M1241.91,-606.83C1237.38,-597.89 1232.49,-588.24 1228.35,-580.07"/>
<polygon fill="#63b8ff" stroke="#63b8ff" points="1238.81,-608.46 1246.45,-615.79 1245.06,-605.29 1238.81,-608.46"/>
</a>
</g>
</g>
<!-- Node31&#45;&gt;Node26 -->
<g id="edge48_Node000031_Node000026" class="edge">
<title>Node31&#45;&gt;Node26</title>
<g id="a_edge48_Node000031_Node000026"><a xlink:title=" ">
<path fill="none" stroke="#63b8ff" d="M1278.08,-607.69C1297.69,-583.01 1325.58,-549.31 1339.44,-539 1371.05,-515.49 1398.97,-536.03 1420.44,-503 1430.37,-487.72 1427.94,-478.61 1420.44,-462 1413.9,-447.52 1401.5,-435.31 1389.43,-426.06"/>
<polygon fill="#63b8ff" stroke="#63b8ff" points="1275.23,-605.65 1271.78,-615.67 1280.72,-609.99 1275.23,-605.65"/>
</a>
</g>
</g>
<!-- Node33 -->
<g id="Node000033" class="node">
<title>Node33</title>
<g id="a_Node000033"><a xlink:href="PeerManager_8h.html" target="_top" xlink:title="Handles Connections to Peers.">
<polygon fill="white" stroke="#666666" points="1508.94,-580 1347.94,-580 1347.94,-539 1508.94,-539 1508.94,-580"/>
<text text-anchor="start" x="1355.94" y="-568" font-family="Helvetica,sans-Serif" font-size="10.00">/home/runner/work/Catena</text>
<text text-anchor="start" x="1355.94" y="-557" font-family="Helvetica,sans-Serif" font-size="10.00">/Catena/sdks/cpp/connections</text>
<text text-anchor="middle" x="1428.44" y="-546" font-family="Helvetica,sans-Serif" font-size="10.00">/gRPC/include/PeerManager.h</text>
</a>
</g>
</g>
<!-- Node32&#45;&gt;Node33 -->
<g id="edge54_Node000032_Node000033" class="edge">
<title>Node32&#45;&gt;Node33</title>
<g id="a_edge54_Node000032_Node000033"><a xlink:title=" ">
<path fill="none" stroke="#63b8ff" d="M1428.44,-605.69C1428.44,-597.08 1428.44,-587.9 1428.44,-580.07"/>
<polygon fill="#63b8ff" stroke="#63b8ff" points="1424.94,-605.79 1428.44,-615.79 1431.94,-605.79 1424.94,-605.79"/>
</a>
</g>
</g>
</g>
</svg>
