<?xml version="1.0" encoding="UTF-8" standalone="no"?>
<!DOCTYPE svg PUBLIC "-//W3C//DTD SVG 1.1//EN"
 "http://www.w3.org/Graphics/SVG/1.1/DTD/svg11.dtd">
<!-- Generated by graphviz version 2.43.0 (0)
 -->
<!-- Title: /home/runner/work/Catena/Catena/sdks/cpp/common/include/patterns/EnumDecorator.h Pages: 1 -->
<svg width="1145pt" height="596pt"
 viewBox="0.00 0.00 1144.83 596.00" xmlns="http://www.w3.org/2000/svg" xmlns:xlink="http://www.w3.org/1999/xlink">
<g id="graph0" class="graph" transform="scale(1 1) rotate(0) translate(4 592)">
<title>/home/runner/work/Catena/Catena/sdks/cpp/common/include/patterns/EnumDecorator.h</title>
<polygon fill="white" stroke="transparent" points="-4,4 -4,-592 1140.83,-592 1140.83,4 -4,4"/>
<!-- Node1 -->
<g id="node1" class="node">
<title>Node1</title>
<g id="a_node1"><a xlink:title="Provides an enum with useful extra functionality.">
<polygon fill="#bfbfbf" stroke="black" points="403.33,-546.5 403.33,-587.5 588.33,-587.5 588.33,-546.5 403.33,-546.5"/>
<text text-anchor="start" x="411.33" y="-575.5" font-family="Helvetica,sans-Serif" font-size="10.00">/home/runner/work/Catena</text>
<text text-anchor="start" x="411.33" y="-564.5" font-family="Helvetica,sans-Serif" font-size="10.00">/Catena/sdks/cpp/common</text>
<text text-anchor="middle" x="495.83" y="-553.5" font-family="Helvetica,sans-Serif" font-size="10.00">/include/patterns/EnumDecorator.h</text>
</a>
</g>
</g>
<!-- Node2 -->
<g id="node2" class="node">
<title>Node2</title>
<g id="a_node2"><a xlink:href="Enums_8h.html" target="_top" xlink:title="tools for using EnumDecorators.">
<polygon fill="white" stroke="black" points="422.83,-468.5 422.83,-509.5 568.83,-509.5 568.83,-468.5 422.83,-468.5"/>
<text text-anchor="start" x="430.83" y="-497.5" font-family="Helvetica,sans-Serif" font-size="10.00">/home/runner/work/Catena</text>
<text text-anchor="start" x="430.83" y="-486.5" font-family="Helvetica,sans-Serif" font-size="10.00">/Catena/sdks/cpp/common</text>
<text text-anchor="middle" x="495.83" y="-475.5" font-family="Helvetica,sans-Serif" font-size="10.00">/include/Enums.h</text>
</a>
</g>
</g>
<!-- Node1&#45;&gt;Node2 -->
<g id="edge1" class="edge">
<title>Node1&#45;&gt;Node2</title>
<path fill="none" stroke="midnightblue" d="M495.83,-536.3C495.83,-527.3 495.83,-517.65 495.83,-509.51"/>
<polygon fill="midnightblue" stroke="midnightblue" points="492.33,-536.43 495.83,-546.43 499.33,-536.43 492.33,-536.43"/>
</g>
<!-- Node3 -->
<g id="node3" class="node">
<title>Node3</title>
<g id="a_node3"><a xlink:href="AuthzInfo_8h.html" target="_top" xlink:title="Class for handling authorization information.">
<polygon fill="white" stroke="black" points="80.83,-156.5 80.83,-197.5 226.83,-197.5 226.83,-156.5 80.83,-156.5"/>
<text text-anchor="start" x="88.83" y="-185.5" font-family="Helvetica,sans-Serif" font-size="10.00">/home/runner/work/Catena</text>
<text text-anchor="start" x="88.83" y="-174.5" font-family="Helvetica,sans-Serif" font-size="10.00">/Catena/sdks/cpp/common</text>
<text text-anchor="middle" x="153.83" y="-163.5" font-family="Helvetica,sans-Serif" font-size="10.00">/include/AuthzInfo.h</text>
</a>
</g>
</g>
<!-- Node2&#45;&gt;Node3 -->
<g id="edge2" class="edge">
<title>Node2&#45;&gt;Node3</title>
<path fill="none" stroke="midnightblue" d="M412.41,-479.21C298.44,-462.21 97.94,-413.4 7.83,-276 -2.41,-260.39 -2.75,-249.38 7.83,-234 24.44,-209.84 53.02,-196.1 80.51,-188.28"/>
<polygon fill="midnightblue" stroke="midnightblue" points="412.09,-482.7 422.49,-480.66 413.09,-475.77 412.09,-482.7"/>
</g>
<!-- Node6 -->
<g id="node6" class="node">
<title>Node6</title>
<g id="a_node6"><a xlink:href="Device_8h.html" target="_top" xlink:title="Device class definition.">
<polygon fill="white" stroke="black" points="422.83,-312.5 422.83,-353.5 568.83,-353.5 568.83,-312.5 422.83,-312.5"/>
<text text-anchor="start" x="430.83" y="-341.5" font-family="Helvetica,sans-Serif" font-size="10.00">/home/runner/work/Catena</text>
<text text-anchor="start" x="430.83" y="-330.5" font-family="Helvetica,sans-Serif" font-size="10.00">/Catena/sdks/cpp/common</text>
<text text-anchor="middle" x="495.83" y="-319.5" font-family="Helvetica,sans-Serif" font-size="10.00">/include/Device.h</text>
</a>
</g>
</g>
<!-- Node2&#45;&gt;Node6 -->
<g id="edge6" class="edge">
<title>Node2&#45;&gt;Node6</title>
<path fill="none" stroke="midnightblue" d="M495.83,-458.36C495.83,-427.61 495.83,-380.36 495.83,-353.83"/>
<polygon fill="midnightblue" stroke="midnightblue" points="492.33,-458.5 495.83,-468.5 499.33,-458.5 492.33,-458.5"/>
</g>
<!-- Node14 -->
<g id="node14" class="node">
<title>Node14</title>
<g id="a_node14"><a xlink:href="IParam_8h.html" target="_top" xlink:title="Interface for parameters.">
<polygon fill="white" stroke="black" points="587.83,-390.5 587.83,-431.5 733.83,-431.5 733.83,-390.5 587.83,-390.5"/>
<text text-anchor="start" x="595.83" y="-419.5" font-family="Helvetica,sans-Serif" font-size="10.00">/home/runner/work/Catena</text>
<text text-anchor="start" x="595.83" y="-408.5" font-family="Helvetica,sans-Serif" font-size="10.00">/Catena/sdks/cpp/common</text>
<text text-anchor="middle" x="660.83" y="-397.5" font-family="Helvetica,sans-Serif" font-size="10.00">/include/IParam.h</text>
</a>
</g>
</g>
<!-- Node2&#45;&gt;Node14 -->
<g id="edge18" class="edge">
<title>Node2&#45;&gt;Node14</title>
<path fill="none" stroke="midnightblue" d="M547.52,-464.19C570.35,-453.67 596.85,-441.47 618.48,-431.51"/>
<polygon fill="midnightblue" stroke="midnightblue" points="545.94,-461.07 538.32,-468.43 548.86,-467.42 545.94,-461.07"/>
</g>
<!-- Node4 -->
<g id="node4" class="node">
<title>Node4</title>
<g id="a_node4"><a xlink:href="ParamWithValue_8h.html" target="_top" xlink:title="Interface for acessing parameter values.">
<polygon fill="white" stroke="black" points="283.33,-0.5 283.33,-41.5 430.33,-41.5 430.33,-0.5 283.33,-0.5"/>
<text text-anchor="start" x="291.33" y="-29.5" font-family="Helvetica,sans-Serif" font-size="10.00">/home/runner/work/Catena</text>
<text text-anchor="start" x="291.33" y="-18.5" font-family="Helvetica,sans-Serif" font-size="10.00">/Catena/sdks/cpp/common</text>
<text text-anchor="middle" x="356.83" y="-7.5" font-family="Helvetica,sans-Serif" font-size="10.00">/include/ParamWithValue.h</text>
</a>
</g>
</g>
<!-- Node3&#45;&gt;Node4 -->
<g id="edge3" class="edge">
<title>Node3&#45;&gt;Node4</title>
<path fill="none" stroke="midnightblue" d="M201.71,-151.55C218.12,-142.43 236.25,-131.48 251.83,-120 284.55,-95.89 318.17,-62.75 338.28,-41.86"/>
<polygon fill="midnightblue" stroke="midnightblue" points="199.9,-148.56 192.8,-156.43 203.25,-154.7 199.9,-148.56"/>
</g>
<!-- Node5 -->
<g id="node5" class="node">
<title>Node5</title>
<g id="a_node5"><a xlink:href="StructInfo_8h.html" target="_top" xlink:title="Structured data serialization and deserialization to protobuf.">
<polygon fill="white" stroke="black" points="96.83,-78.5 96.83,-119.5 242.83,-119.5 242.83,-78.5 96.83,-78.5"/>
<text text-anchor="start" x="104.83" y="-107.5" font-family="Helvetica,sans-Serif" font-size="10.00">/home/runner/work/Catena</text>
<text text-anchor="start" x="104.83" y="-96.5" font-family="Helvetica,sans-Serif" font-size="10.00">/Catena/sdks/cpp/common</text>
<text text-anchor="middle" x="169.83" y="-85.5" font-family="Helvetica,sans-Serif" font-size="10.00">/include/StructInfo.h</text>
</a>
</g>
</g>
<!-- Node3&#45;&gt;Node5 -->
<g id="edge4" class="edge">
<title>Node3&#45;&gt;Node5</title>
<path fill="none" stroke="midnightblue" d="M160.02,-146.59C161.93,-137.51 163.99,-127.74 165.72,-119.51"/>
<polygon fill="midnightblue" stroke="midnightblue" points="156.58,-145.92 157.95,-156.43 163.43,-147.36 156.58,-145.92"/>
</g>
<!-- Node5&#45;&gt;Node4 -->
<g id="edge5" class="edge">
<title>Node5&#45;&gt;Node4</title>
<path fill="none" stroke="midnightblue" d="M227.38,-74.61C253.48,-64 283.99,-51.6 308.83,-41.51"/>
<polygon fill="midnightblue" stroke="midnightblue" points="225.93,-71.42 217.98,-78.43 228.56,-77.91 225.93,-71.42"/>
</g>
<!-- Node6&#45;&gt;Node4 -->
<g id="edge15" class="edge">
<title>Node6&#45;&gt;Node4</title>
<path fill="none" stroke="midnightblue" d="M438.56,-307.31C425.36,-299.12 412.62,-288.76 403.83,-276 352.54,-201.6 352.87,-86.96 355.34,-41.52"/>
<polygon fill="midnightblue" stroke="midnightblue" points="436.87,-310.37 447.27,-312.37 440.39,-304.32 436.87,-310.37"/>
</g>
<!-- Node7 -->
<g id="node7" class="node">
<title>Node7</title>
<g id="a_node7"><a xlink:href="LanguagePack_8h.html" target="_top" xlink:title="multi language support in 2 classes: LanguagePack and LanguagePacks">
<polygon fill="white" stroke="black" points="182.83,-234.5 182.83,-275.5 328.83,-275.5 328.83,-234.5 182.83,-234.5"/>
<text text-anchor="start" x="190.83" y="-263.5" font-family="Helvetica,sans-Serif" font-size="10.00">/home/runner/work/Catena</text>
<text text-anchor="start" x="190.83" y="-252.5" font-family="Helvetica,sans-Serif" font-size="10.00">/Catena/sdks/cpp/common</text>
<text text-anchor="middle" x="255.83" y="-241.5" font-family="Helvetica,sans-Serif" font-size="10.00">/include/LanguagePack.h</text>
</a>
</g>
</g>
<!-- Node6&#45;&gt;Node7 -->
<g id="edge7" class="edge">
<title>Node6&#45;&gt;Node7</title>
<path fill="none" stroke="midnightblue" d="M424.15,-309.3C390.18,-298.55 350,-285.82 317.42,-275.51"/>
<polygon fill="midnightblue" stroke="midnightblue" points="423.43,-312.75 434.02,-312.43 425.54,-306.07 423.43,-312.75"/>
</g>
<!-- Node8 -->
<g id="node8" class="node">
<title>Node8</title>
<g id="a_node8"><a xlink:href="Menu_8h.html" target="_top" xlink:title="Menus support.">
<polygon fill="white" stroke="black" points="422.83,-234.5 422.83,-275.5 568.83,-275.5 568.83,-234.5 422.83,-234.5"/>
<text text-anchor="start" x="430.83" y="-263.5" font-family="Helvetica,sans-Serif" font-size="10.00">/home/runner/work/Catena</text>
<text text-anchor="start" x="430.83" y="-252.5" font-family="Helvetica,sans-Serif" font-size="10.00">/Catena/sdks/cpp/common</text>
<text text-anchor="middle" x="495.83" y="-241.5" font-family="Helvetica,sans-Serif" font-size="10.00">/include/Menu.h</text>
</a>
</g>
</g>
<!-- Node6&#45;&gt;Node8 -->
<g id="edge8" class="edge">
<title>Node6&#45;&gt;Node8</title>
<path fill="none" stroke="midnightblue" d="M495.83,-302.3C495.83,-293.3 495.83,-283.65 495.83,-275.51"/>
<polygon fill="midnightblue" stroke="midnightblue" points="492.33,-302.43 495.83,-312.43 499.33,-302.43 492.33,-302.43"/>
</g>
<!-- Node9 -->
<g id="node9" class="node">
<title>Node9</title>
<g id="a_node9"><a xlink:href="MenuGroup_8h.html" target="_top" xlink:title="MenuGroups support.">
<polygon fill="white" stroke="black" points="422.83,-156.5 422.83,-197.5 568.83,-197.5 568.83,-156.5 422.83,-156.5"/>
<text text-anchor="start" x="430.83" y="-185.5" font-family="Helvetica,sans-Serif" font-size="10.00">/home/runner/work/Catena</text>
<text text-anchor="start" x="430.83" y="-174.5" font-family="Helvetica,sans-Serif" font-size="10.00">/Catena/sdks/cpp/common</text>
<text text-anchor="middle" x="495.83" y="-163.5" font-family="Helvetica,sans-Serif" font-size="10.00">/include/MenuGroup.h</text>
</a>
</g>
</g>
<!-- Node6&#45;&gt;Node9 -->
<g id="edge10" class="edge">
<title>Node6&#45;&gt;Node9</title>
<path fill="none" stroke="midnightblue" d="M442.86,-306.9C431.23,-298.76 420.43,-288.51 413.83,-276 405.11,-259.49 405.11,-250.51 413.83,-234 422.04,-218.45 436.72,-206.4 451.42,-197.53"/>
<polygon fill="midnightblue" stroke="midnightblue" points="441.13,-309.95 451.42,-312.47 444.94,-304.08 441.13,-309.95"/>
</g>
<!-- Node10 -->
<g id="node10" class="node">
<title>Node10</title>
<g id="a_node10"><a xlink:href="NamedChoiceConstraint_8h.html" target="_top" xlink:title="A constraint that checks if a value is within some named choices.">
<polygon fill="white" stroke="black" points="753.33,-234.5 753.33,-275.5 938.33,-275.5 938.33,-234.5 753.33,-234.5"/>
<text text-anchor="start" x="761.33" y="-263.5" font-family="Helvetica,sans-Serif" font-size="10.00">/home/runner/work/Catena</text>
<text text-anchor="start" x="761.33" y="-252.5" font-family="Helvetica,sans-Serif" font-size="10.00">/Catena/sdks/cpp/common</text>
<text text-anchor="middle" x="845.83" y="-241.5" font-family="Helvetica,sans-Serif" font-size="10.00">/include/NamedChoiceConstraint.h</text>
</a>
</g>
</g>
<!-- Node6&#45;&gt;Node10 -->
<g id="edge11" class="edge">
<title>Node6&#45;&gt;Node10</title>
<path fill="none" stroke="midnightblue" d="M579.28,-313.88C632.46,-302.33 701.34,-287.37 755.76,-275.56"/>
<polygon fill="midnightblue" stroke="midnightblue" points="578.23,-310.53 569.2,-316.07 579.71,-317.37 578.23,-310.53"/>
</g>
<!-- Node11 -->
<g id="node11" class="node">
<title>Node11</title>
<g id="a_node11"><a xlink:href="ParamDescriptor_8h_source.html" target="_top" xlink:title=" ">
<polygon fill="white" stroke="black" points="17.33,-234.5 17.33,-275.5 164.33,-275.5 164.33,-234.5 17.33,-234.5"/>
<text text-anchor="start" x="25.33" y="-263.5" font-family="Helvetica,sans-Serif" font-size="10.00">/home/runner/work/Catena</text>
<text text-anchor="start" x="25.33" y="-252.5" font-family="Helvetica,sans-Serif" font-size="10.00">/Catena/sdks/cpp/common</text>
<text text-anchor="middle" x="90.83" y="-241.5" font-family="Helvetica,sans-Serif" font-size="10.00">/include/ParamDescriptor.h</text>
</a>
</g>
</g>
<!-- Node6&#45;&gt;Node11 -->
<g id="edge12" class="edge">
<title>Node6&#45;&gt;Node11</title>
<path fill="none" stroke="midnightblue" d="M412.46,-319.01C347.29,-308.49 254.52,-292.72 173.83,-276 170.78,-275.37 167.67,-274.71 164.54,-274.02"/>
<polygon fill="midnightblue" stroke="midnightblue" points="412.25,-322.52 422.68,-320.65 413.36,-315.61 412.25,-322.52"/>
</g>
<!-- Node12 -->
<g id="node12" class="node">
<title>Node12</title>
<g id="a_node12"><a xlink:href="PicklistConstraint_8h.html" target="_top" xlink:title="A constraint that checks if a value is in a list of strings.">
<polygon fill="white" stroke="black" points="956.83,-234.5 956.83,-275.5 1108.83,-275.5 1108.83,-234.5 956.83,-234.5"/>
<text text-anchor="start" x="964.83" y="-263.5" font-family="Helvetica,sans-Serif" font-size="10.00">/home/runner/work/Catena</text>
<text text-anchor="start" x="964.83" y="-252.5" font-family="Helvetica,sans-Serif" font-size="10.00">/Catena/sdks/cpp/common</text>
<text text-anchor="middle" x="1032.83" y="-241.5" font-family="Helvetica,sans-Serif" font-size="10.00">/include/PicklistConstraint.h</text>
</a>
</g>
</g>
<!-- Node6&#45;&gt;Node12 -->
<g id="edge16" class="edge">
<title>Node6&#45;&gt;Node12</title>
<path fill="none" stroke="midnightblue" d="M578.97,-324.41C669.96,-315.48 819.91,-298.9 947.83,-276 950.66,-275.49 953.54,-274.95 956.45,-274.38"/>
<polygon fill="midnightblue" stroke="midnightblue" points="578.61,-320.93 568.99,-325.38 579.29,-327.9 578.61,-320.93"/>
</g>
<!-- Node13 -->
<g id="node13" class="node">
<title>Node13</title>
<g id="a_node13"><a xlink:href="RangeConstraint_8h.html" target="_top" xlink:title="A constraint that checks if a value is within a range.">
<polygon fill="white" stroke="black" points="586.83,-234.5 586.83,-275.5 734.83,-275.5 734.83,-234.5 586.83,-234.5"/>
<text text-anchor="start" x="594.83" y="-263.5" font-family="Helvetica,sans-Serif" font-size="10.00">/home/runner/work/Catena</text>
<text text-anchor="start" x="594.83" y="-252.5" font-family="Helvetica,sans-Serif" font-size="10.00">/Catena/sdks/cpp/common</text>
<text text-anchor="middle" x="660.83" y="-241.5" font-family="Helvetica,sans-Serif" font-size="10.00">/include/RangeConstraint.h</text>
</a>
</g>
</g>
<!-- Node6&#45;&gt;Node13 -->
<g id="edge17" class="edge">
<title>Node6&#45;&gt;Node13</title>
<path fill="none" stroke="midnightblue" d="M547.52,-308.19C570.35,-297.67 596.85,-285.47 618.48,-275.51"/>
<polygon fill="midnightblue" stroke="midnightblue" points="545.94,-305.07 538.32,-312.43 548.86,-311.42 545.94,-305.07"/>
</g>
<!-- Node8&#45;&gt;Node9 -->
<g id="edge9" class="edge">
<title>Node8&#45;&gt;Node9</title>
<path fill="none" stroke="midnightblue" d="M495.83,-224.3C495.83,-215.3 495.83,-205.65 495.83,-197.51"/>
<polygon fill="midnightblue" stroke="midnightblue" points="492.33,-224.43 495.83,-234.43 499.33,-224.43 492.33,-224.43"/>
</g>
<!-- Node11&#45;&gt;Node3 -->
<g id="edge13" class="edge">
<title>Node11&#45;&gt;Node3</title>
<path fill="none" stroke="midnightblue" d="M113.52,-226.63C121.5,-216.99 130.32,-206.36 137.66,-197.51"/>
<polygon fill="midnightblue" stroke="midnightblue" points="110.74,-224.5 107.05,-234.43 116.13,-228.96 110.74,-224.5"/>
</g>
<!-- Node11&#45;&gt;Node4 -->
<g id="edge14" class="edge">
<title>Node11&#45;&gt;Node4</title>
<path fill="none" stroke="midnightblue" d="M174,-231.42C195.49,-223.12 217.66,-212.17 235.83,-198 291.81,-154.32 331.74,-77.5 348.31,-41.57"/>
<polygon fill="midnightblue" stroke="midnightblue" points="172.68,-228.17 164.52,-234.93 175.11,-234.74 172.68,-228.17"/>
</g>
<!-- Node14&#45;&gt;Node4 -->
<g id="edge22" class="edge">
<title>Node14&#45;&gt;Node4</title>
<path fill="none" stroke="midnightblue" d="M743.91,-400.43C880.33,-382.39 1136.83,-337.61 1136.83,-256 1136.83,-256 1136.83,-256 1136.83,-176 1136.83,-32.88 624.99,-20.58 430.56,-21.07"/>
<polygon fill="midnightblue" stroke="midnightblue" points="743.36,-396.98 733.9,-401.74 744.27,-403.92 743.36,-396.98"/>
</g>
<!-- Node14&#45;&gt;Node6 -->
<g id="edge19" class="edge">
<title>Node14&#45;&gt;Node6</title>
<path fill="none" stroke="midnightblue" d="M609.13,-386.19C586.3,-375.67 559.8,-363.47 538.17,-353.51"/>
<polygon fill="midnightblue" stroke="midnightblue" points="607.79,-389.42 618.33,-390.43 610.72,-383.07 607.79,-389.42"/>
</g>
<!-- Node14&#45;&gt;Node10 -->
<g id="edge20" class="edge">
<title>Node14&#45;&gt;Node10</title>
<path fill="none" stroke="midnightblue" d="M692.19,-383.89C729.01,-353.24 789.25,-303.1 822.29,-275.59"/>
<polygon fill="midnightblue" stroke="midnightblue" points="689.7,-381.41 684.26,-390.5 694.18,-386.79 689.7,-381.41"/>
</g>
<!-- Node14&#45;&gt;Node11 -->
<g id="edge21" class="edge">
<title>Node14&#45;&gt;Node11</title>
<path fill="none" stroke="midnightblue" d="M577.76,-392.72C529.66,-382.33 468.09,-368.36 413.83,-354 321.2,-329.48 215.14,-296.31 150.58,-275.54"/>
<polygon fill="midnightblue" stroke="midnightblue" points="577.3,-396.2 587.81,-394.88 578.77,-389.36 577.3,-396.2"/>
</g>
<!-- Node14&#45;&gt;Node12 -->
<g id="edge23" class="edge">
<title>Node14&#45;&gt;Node12</title>
<path fill="none" stroke="midnightblue" d="M717.48,-386.55C790.76,-356.21 917.1,-303.91 985.51,-275.59"/>
<polygon fill="midnightblue" stroke="midnightblue" points="715.84,-383.44 707.94,-390.5 718.52,-389.9 715.84,-383.44"/>
</g>
<!-- Node14&#45;&gt;Node13 -->
<g id="edge24" class="edge">
<title>Node14&#45;&gt;Node13</title>
<path fill="none" stroke="midnightblue" d="M660.83,-380.36C660.83,-349.61 660.83,-302.36 660.83,-275.83"/>
<polygon fill="midnightblue" stroke="midnightblue" points="657.33,-380.5 660.83,-390.5 664.33,-380.5 657.33,-380.5"/>
</g>
</g>
</svg>
