<?xml version="1.0" encoding="UTF-8" standalone="no"?>
<!DOCTYPE svg PUBLIC "-//W3C//DTD SVG 1.1//EN"
 "http://www.w3.org/Graphics/SVG/1.1/DTD/svg11.dtd">
<!-- Generated by graphviz version 2.43.0 (0)
 -->
<!-- Title: /home/runner/work/Catena/Catena/sdks/cpp/common/include/Enums.h Pages: 1 -->
<svg width="933pt" height="518pt"
 viewBox="0.00 0.00 932.50 518.00" xmlns="http://www.w3.org/2000/svg" xmlns:xlink="http://www.w3.org/1999/xlink">
<g id="graph0" class="graph" transform="scale(1 1) rotate(0) translate(4 514)">
<title>/home/runner/work/Catena/Catena/sdks/cpp/common/include/Enums.h</title>
<polygon fill="white" stroke="transparent" points="-4,4 -4,-514 928.5,-514 928.5,4 -4,4"/>
<!-- Node1 -->
<g id="node1" class="node">
<title>Node1</title>
<g id="a_node1"><a xlink:title="tools for using EnumDecorators.">
<polygon fill="#bfbfbf" stroke="black" points="542.5,-468.5 542.5,-509.5 688.5,-509.5 688.5,-468.5 542.5,-468.5"/>
<text text-anchor="start" x="550.5" y="-497.5" font-family="Helvetica,sans-Serif" font-size="10.00">/home/runner/work/Catena</text>
<text text-anchor="start" x="550.5" y="-486.5" font-family="Helvetica,sans-Serif" font-size="10.00">/Catena/sdks/cpp/common</text>
<text text-anchor="middle" x="615.5" y="-475.5" font-family="Helvetica,sans-Serif" font-size="10.00">/include/Enums.h</text>
</a>
</g>
</g>
<!-- Node2 -->
<g id="node2" class="node">
<title>Node2</title>
<g id="a_node2"><a xlink:href="IParam_8h.html" target="_top" xlink:title="Interface for parameters.">
<polygon fill="white" stroke="black" points="542.5,-390.5 542.5,-431.5 688.5,-431.5 688.5,-390.5 542.5,-390.5"/>
<text text-anchor="start" x="550.5" y="-419.5" font-family="Helvetica,sans-Serif" font-size="10.00">/home/runner/work/Catena</text>
<text text-anchor="start" x="550.5" y="-408.5" font-family="Helvetica,sans-Serif" font-size="10.00">/Catena/sdks/cpp/common</text>
<text text-anchor="middle" x="615.5" y="-397.5" font-family="Helvetica,sans-Serif" font-size="10.00">/include/IParam.h</text>
</a>
</g>
</g>
<!-- Node1&#45;&gt;Node2 -->
<g id="edge1" class="edge">
<title>Node1&#45;&gt;Node2</title>
<path fill="none" stroke="midnightblue" d="M615.5,-458.3C615.5,-449.3 615.5,-439.65 615.5,-431.51"/>
<polygon fill="midnightblue" stroke="midnightblue" points="612,-458.43 615.5,-468.43 619,-458.43 612,-458.43"/>
</g>
<!-- Node3 -->
<g id="node3" class="node">
<title>Node3</title>
<g id="a_node3"><a xlink:href="Device_8h.html" target="_top" xlink:title="Device class definition.">
<polygon fill="white" stroke="black" points="393,-312.5 393,-353.5 550,-353.5 550,-312.5 393,-312.5"/>
<text text-anchor="start" x="401" y="-341.5" font-family="Helvetica,sans-Serif" font-size="10.00">/home/runner/work/Catena</text>
<text text-anchor="start" x="401" y="-330.5" font-family="Helvetica,sans-Serif" font-size="10.00">/Catena/sdks/cpp/lite/include</text>
<text text-anchor="middle" x="471.5" y="-319.5" font-family="Helvetica,sans-Serif" font-size="10.00">/Device.h</text>
</a>
</g>
</g>
<!-- Node1&#45;&gt;Node3 -->
<g id="edge20" class="edge">
<title>Node1&#45;&gt;Node3</title>
<path fill="none" stroke="midnightblue" d="M571.87,-462.98C558.66,-454.19 544.7,-443.6 533.5,-432 510.57,-408.25 491.57,-374.71 480.88,-353.67"/>
<polygon fill="midnightblue" stroke="midnightblue" points="570.1,-466 580.4,-468.47 573.89,-460.12 570.1,-466"/>
</g>
<!-- Node7 -->
<g id="node7" class="node">
<title>Node7</title>
<g id="a_node7"><a xlink:href="AuthzInfo_8h.html" target="_top" xlink:title="Class for handling authorization information.">
<polygon fill="white" stroke="black" points="739,-156.5 739,-197.5 896,-197.5 896,-156.5 739,-156.5"/>
<text text-anchor="start" x="747" y="-185.5" font-family="Helvetica,sans-Serif" font-size="10.00">/home/runner/work/Catena</text>
<text text-anchor="start" x="747" y="-174.5" font-family="Helvetica,sans-Serif" font-size="10.00">/Catena/sdks/cpp/lite/include</text>
<text text-anchor="middle" x="817.5" y="-163.5" font-family="Helvetica,sans-Serif" font-size="10.00">/AuthzInfo.h</text>
</a>
</g>
</g>
<!-- Node1&#45;&gt;Node7 -->
<g id="edge19" class="edge">
<title>Node1&#45;&gt;Node7</title>
<path fill="none" stroke="midnightblue" d="M675.5,-464.47C745.61,-433.28 858.05,-370.89 905.5,-276 913.85,-259.3 914.48,-250.36 905.5,-234 896.87,-218.28 881.76,-206.35 866.46,-197.62"/>
<polygon fill="midnightblue" stroke="midnightblue" points="674.09,-461.27 666.32,-468.48 676.89,-467.68 674.09,-461.27"/>
</g>
<!-- Node2&#45;&gt;Node3 -->
<g id="edge2" class="edge">
<title>Node2&#45;&gt;Node3</title>
<path fill="none" stroke="midnightblue" d="M569.32,-385.63C549.64,-375.24 527,-363.29 508.46,-353.51"/>
<polygon fill="midnightblue" stroke="midnightblue" points="567.94,-388.86 578.42,-390.43 571.21,-382.67 567.94,-388.86"/>
</g>
<!-- Node5 -->
<g id="node5" class="node">
<title>Node5</title>
<g id="a_node5"><a xlink:href="NamedChoiceConstraint_8h.html" target="_top" xlink:title="A constraint that checks if a value is within some named choices.">
<polygon fill="white" stroke="black" points="564,-234.5 564,-275.5 721,-275.5 721,-234.5 564,-234.5"/>
<text text-anchor="start" x="572" y="-263.5" font-family="Helvetica,sans-Serif" font-size="10.00">/home/runner/work/Catena</text>
<text text-anchor="start" x="572" y="-252.5" font-family="Helvetica,sans-Serif" font-size="10.00">/Catena/sdks/cpp/lite/include</text>
<text text-anchor="middle" x="642.5" y="-241.5" font-family="Helvetica,sans-Serif" font-size="10.00">/NamedChoiceConstraint.h</text>
</a>
</g>
</g>
<!-- Node2&#45;&gt;Node5 -->
<g id="edge14" class="edge">
<title>Node2&#45;&gt;Node5</title>
<path fill="none" stroke="midnightblue" d="M620.7,-380.36C626.09,-349.61 634.37,-302.36 639.02,-275.83"/>
<polygon fill="midnightblue" stroke="midnightblue" points="617.2,-380.04 618.92,-390.5 624.09,-381.25 617.2,-380.04"/>
</g>
<!-- Node6 -->
<g id="node6" class="node">
<title>Node6</title>
<g id="a_node6"><a xlink:href="ParamDescriptor_8h_source.html" target="_top" xlink:title=" ">
<polygon fill="white" stroke="black" points="739,-234.5 739,-275.5 896,-275.5 896,-234.5 739,-234.5"/>
<text text-anchor="start" x="747" y="-263.5" font-family="Helvetica,sans-Serif" font-size="10.00">/home/runner/work/Catena</text>
<text text-anchor="start" x="747" y="-252.5" font-family="Helvetica,sans-Serif" font-size="10.00">/Catena/sdks/cpp/lite/include</text>
<text text-anchor="middle" x="817.5" y="-241.5" font-family="Helvetica,sans-Serif" font-size="10.00">/ParamDescriptor.h</text>
</a>
</g>
</g>
<!-- Node2&#45;&gt;Node6 -->
<g id="edge15" class="edge">
<title>Node2&#45;&gt;Node6</title>
<path fill="none" stroke="midnightblue" d="M649.24,-384.28C689.4,-353.66 755.57,-303.21 791.81,-275.59"/>
<polygon fill="midnightblue" stroke="midnightblue" points="646.91,-381.65 641.08,-390.5 651.16,-387.22 646.91,-381.65"/>
</g>
<!-- Node8 -->
<g id="node8" class="node">
<title>Node8</title>
<g id="a_node8"><a xlink:href="ParamWithValue_8h.html" target="_top" xlink:title="Interface for acessing parameter values.">
<polygon fill="white" stroke="black" points="701,-0.5 701,-41.5 858,-41.5 858,-0.5 701,-0.5"/>
<text text-anchor="start" x="709" y="-29.5" font-family="Helvetica,sans-Serif" font-size="10.00">/home/runner/work/Catena</text>
<text text-anchor="start" x="709" y="-18.5" font-family="Helvetica,sans-Serif" font-size="10.00">/Catena/sdks/cpp/lite/include</text>
<text text-anchor="middle" x="779.5" y="-7.5" font-family="Helvetica,sans-Serif" font-size="10.00">/ParamWithValue.h</text>
</a>
</g>
</g>
<!-- Node2&#45;&gt;Node8 -->
<g id="edge16" class="edge">
<title>Node2&#45;&gt;Node8</title>
<path fill="none" stroke="midnightblue" d="M694.66,-387.42C786.21,-358.9 924.5,-307.33 924.5,-256 924.5,-256 924.5,-256 924.5,-176 924.5,-128.79 915.22,-112.98 883.5,-78 869.45,-62.5 850.09,-50.47 831.87,-41.59"/>
<polygon fill="midnightblue" stroke="midnightblue" points="693.37,-384.15 684.85,-390.45 695.43,-390.84 693.37,-384.15"/>
</g>
<!-- Node10 -->
<g id="node10" class="node">
<title>Node10</title>
<g id="a_node10"><a xlink:href="PicklistConstraint_8h.html" target="_top" xlink:title="A constraint that checks if a value is in a list of strings.">
<polygon fill="white" stroke="black" points="0,-234.5 0,-275.5 157,-275.5 157,-234.5 0,-234.5"/>
<text text-anchor="start" x="8" y="-263.5" font-family="Helvetica,sans-Serif" font-size="10.00">/home/runner/work/Catena</text>
<text text-anchor="start" x="8" y="-252.5" font-family="Helvetica,sans-Serif" font-size="10.00">/Catena/sdks/cpp/lite/include</text>
<text text-anchor="middle" x="78.5" y="-241.5" font-family="Helvetica,sans-Serif" font-size="10.00">/PicklistConstraint.h</text>
</a>
</g>
</g>
<!-- Node2&#45;&gt;Node10 -->
<g id="edge17" class="edge">
<title>Node2&#45;&gt;Node10</title>
<path fill="none" stroke="midnightblue" d="M532.38,-391.51C487.99,-381.24 432.55,-367.78 383.5,-354 295.95,-329.41 195.82,-296.25 134.89,-275.5"/>
<polygon fill="midnightblue" stroke="midnightblue" points="531.73,-394.95 542.26,-393.78 533.3,-388.13 531.73,-394.95"/>
</g>
<!-- Node11 -->
<g id="node11" class="node">
<title>Node11</title>
<g id="a_node11"><a xlink:href="RangeConstraint_8h.html" target="_top" xlink:title="A constraint that checks if a value is within a range.">
<polygon fill="white" stroke="black" points="389,-234.5 389,-275.5 546,-275.5 546,-234.5 389,-234.5"/>
<text text-anchor="start" x="397" y="-263.5" font-family="Helvetica,sans-Serif" font-size="10.00">/home/runner/work/Catena</text>
<text text-anchor="start" x="397" y="-252.5" font-family="Helvetica,sans-Serif" font-size="10.00">/Catena/sdks/cpp/lite/include</text>
<text text-anchor="middle" x="467.5" y="-241.5" font-family="Helvetica,sans-Serif" font-size="10.00">/RangeConstraint.h</text>
</a>
</g>
</g>
<!-- Node2&#45;&gt;Node11 -->
<g id="edge18" class="edge">
<title>Node2&#45;&gt;Node11</title>
<path fill="none" stroke="midnightblue" d="M603.36,-381.1C593.51,-360.15 578.08,-332.07 558.5,-312 544.25,-297.39 525.45,-285 508.63,-275.61"/>
<polygon fill="midnightblue" stroke="midnightblue" points="600.29,-382.81 607.61,-390.47 606.66,-379.91 600.29,-382.81"/>
</g>
<!-- Node4 -->
<g id="node4" class="node">
<title>Node4</title>
<g id="a_node4"><a xlink:href="LanguagePack_8h.html" target="_top" xlink:title="multi language support in 2 classes: LanguagePack and LanguagePacks">
<polygon fill="white" stroke="black" points="175,-234.5 175,-275.5 332,-275.5 332,-234.5 175,-234.5"/>
<text text-anchor="start" x="183" y="-263.5" font-family="Helvetica,sans-Serif" font-size="10.00">/home/runner/work/Catena</text>
<text text-anchor="start" x="183" y="-252.5" font-family="Helvetica,sans-Serif" font-size="10.00">/Catena/sdks/cpp/lite/include</text>
<text text-anchor="middle" x="253.5" y="-241.5" font-family="Helvetica,sans-Serif" font-size="10.00">/LanguagePack.h</text>
</a>
</g>
</g>
<!-- Node3&#45;&gt;Node4 -->
<g id="edge3" class="edge">
<title>Node3&#45;&gt;Node4</title>
<path fill="none" stroke="midnightblue" d="M405.6,-309.03C374.91,-298.33 338.79,-285.73 309.45,-275.51"/>
<polygon fill="midnightblue" stroke="midnightblue" points="404.76,-312.44 415.36,-312.43 407.07,-305.83 404.76,-312.44"/>
</g>
<!-- Node3&#45;&gt;Node5 -->
<g id="edge4" class="edge">
<title>Node3&#45;&gt;Node5</title>
<path fill="none" stroke="midnightblue" d="M524.76,-308.33C548.49,-297.78 576.1,-285.51 598.61,-275.51"/>
<polygon fill="midnightblue" stroke="midnightblue" points="523.25,-305.17 515.54,-312.43 526.1,-311.57 523.25,-305.17"/>
</g>
<!-- Node3&#45;&gt;Node6 -->
<g id="edge5" class="edge">
<title>Node3&#45;&gt;Node6</title>
<path fill="none" stroke="midnightblue" d="M559.8,-313.06C609.65,-302.31 673.08,-288.53 729.5,-276 732.56,-275.32 735.68,-274.62 738.83,-273.92"/>
<polygon fill="midnightblue" stroke="midnightblue" points="559.05,-309.64 550.01,-315.17 560.53,-316.48 559.05,-309.64"/>
</g>
<!-- Node3&#45;&gt;Node8 -->
<g id="edge11" class="edge">
<title>Node3&#45;&gt;Node8</title>
<path fill="none" stroke="midnightblue" d="M410.67,-307.12C398.21,-299.09 386.72,-288.85 379.5,-276 370.35,-259.73 369.88,-249.99 379.5,-234 449.1,-118.34 605.35,-62.45 700.66,-38.19"/>
<polygon fill="midnightblue" stroke="midnightblue" points="409.02,-310.21 419.4,-312.33 412.6,-304.2 409.02,-310.21"/>
</g>
<!-- Node3&#45;&gt;Node10 -->
<g id="edge12" class="edge">
<title>Node3&#45;&gt;Node10</title>
<path fill="none" stroke="midnightblue" d="M382.69,-316.83C321.5,-306.12 238.4,-291.04 165.5,-276 162.77,-275.44 159.99,-274.85 157.19,-274.26"/>
<polygon fill="midnightblue" stroke="midnightblue" points="382.24,-320.31 392.7,-318.58 383.45,-313.41 382.24,-320.31"/>
</g>
<!-- Node3&#45;&gt;Node11 -->
<g id="edge13" class="edge">
<title>Node3&#45;&gt;Node11</title>
<path fill="none" stroke="midnightblue" d="M469.94,-302.3C469.46,-293.3 468.96,-283.65 468.53,-275.51"/>
<polygon fill="midnightblue" stroke="midnightblue" points="466.45,-302.63 470.47,-312.43 473.44,-302.26 466.45,-302.63"/>
</g>
<!-- Node6&#45;&gt;Node7 -->
<g id="edge6" class="edge">
<title>Node6&#45;&gt;Node7</title>
<path fill="none" stroke="midnightblue" d="M817.5,-224.3C817.5,-215.3 817.5,-205.65 817.5,-197.51"/>
<polygon fill="midnightblue" stroke="midnightblue" points="814,-224.43 817.5,-234.43 821,-224.43 814,-224.43"/>
</g>
<!-- Node6&#45;&gt;Node8 -->
<g id="edge10" class="edge">
<title>Node6&#45;&gt;Node8</title>
<path fill="none" stroke="midnightblue" d="M767.9,-229.07C754.27,-220.55 740.28,-210.08 729.5,-198 703.82,-169.23 700.17,-157.58 691.5,-120 687.3,-101.81 682.52,-94.36 691.5,-78 700.13,-62.28 715.24,-50.35 730.54,-41.62"/>
<polygon fill="midnightblue" stroke="midnightblue" points="766.4,-232.25 776.78,-234.38 769.99,-226.24 766.4,-232.25"/>
</g>
<!-- Node7&#45;&gt;Node8 -->
<g id="edge7" class="edge">
<title>Node7&#45;&gt;Node8</title>
<path fill="none" stroke="midnightblue" d="M848.54,-149.16C856.22,-140.69 863.41,-130.72 867.5,-120 874.15,-102.56 876.48,-94.36 867.5,-78 858.87,-62.28 843.76,-50.35 828.46,-41.62"/>
<polygon fill="midnightblue" stroke="midnightblue" points="845.88,-146.88 841.43,-156.49 850.91,-151.75 845.88,-146.88"/>
</g>
<!-- Node9 -->
<g id="node9" class="node">
<title>Node9</title>
<g id="a_node9"><a xlink:href="StructInfo_8h.html" target="_top" xlink:title="Structured data serialization and deserialization to protobuf.">
<polygon fill="white" stroke="black" points="701,-78.5 701,-119.5 858,-119.5 858,-78.5 701,-78.5"/>
<text text-anchor="start" x="709" y="-107.5" font-family="Helvetica,sans-Serif" font-size="10.00">/home/runner/work/Catena</text>
<text text-anchor="start" x="709" y="-96.5" font-family="Helvetica,sans-Serif" font-size="10.00">/Catena/sdks/cpp/lite/include</text>
<text text-anchor="middle" x="779.5" y="-85.5" font-family="Helvetica,sans-Serif" font-size="10.00">/StructInfo.h</text>
</a>
</g>
</g>
<!-- Node7&#45;&gt;Node9 -->
<g id="edge8" class="edge">
<title>Node7&#45;&gt;Node9</title>
<path fill="none" stroke="midnightblue" d="M803.23,-147.47C798.57,-138.14 793.5,-128.01 789.25,-119.51"/>
<polygon fill="midnightblue" stroke="midnightblue" points="800.11,-149.05 807.71,-156.43 806.37,-145.92 800.11,-149.05"/>
</g>
<!-- Node9&#45;&gt;Node8 -->
<g id="edge9" class="edge">
<title>Node9&#45;&gt;Node8</title>
<path fill="none" stroke="midnightblue" d="M779.5,-68.3C779.5,-59.3 779.5,-49.65 779.5,-41.51"/>
<polygon fill="midnightblue" stroke="midnightblue" points="776,-68.43 779.5,-78.43 783,-68.43 776,-68.43"/>
</g>
</g>
</svg>
