<?xml version="1.0" encoding="UTF-8" standalone="no"?>
<!DOCTYPE svg PUBLIC "-//W3C//DTD SVG 1.1//EN"
 "http://www.w3.org/Graphics/SVG/1.1/DTD/svg11.dtd">
<!-- Generated by graphviz version 2.43.0 (0)
 -->
<!-- Title: /home/runner/work/Catena/Catena/sdks/cpp/connections/gRPC/include/interface/IServiceImpl.h Pages: 1 -->
<svg width="1868pt" height="544pt"
 viewBox="0.00 0.00 1868.00 544.00" xmlns="http://www.w3.org/2000/svg" xmlns:xlink="http://www.w3.org/1999/xlink">
<g id="graph0" class="graph" transform="scale(1 1) rotate(0) translate(4 540)">
<title>/home/runner/work/Catena/Catena/sdks/cpp/connections/gRPC/include/interface/IServiceImpl.h</title>
<!-- Node1 -->
<g id="Node000001" class="node">
<title>Node1</title>
<g id="a_Node000001"><a xlink:title="Interface class for the gRPC API Implementation.">
<polygon fill="#999999" stroke="#666666" points="1644,-536 1441,-536 1441,-495 1644,-495 1644,-536"/>
<text text-anchor="start" x="1449" y="-524" font-family="Helvetica,sans-Serif" font-size="10.00">/home/runner/work/Catena</text>
<text text-anchor="start" x="1449" y="-513" font-family="Helvetica,sans-Serif" font-size="10.00">/Catena/sdks/cpp/connections</text>
<text text-anchor="middle" x="1542.5" y="-502" font-family="Helvetica,sans-Serif" font-size="10.00">/gRPC/include/interface/IServiceImpl.h</text>
</a>
</g>
</g>
<!-- Node2 -->
<g id="Node000002" class="node">
<title>Node2</title>
<g id="a_Node000002"><a xlink:href="ISubscriptionManager_8h.html" target="_top" xlink:title="Interface for managing parameter subscriptions in Catena.">
<polygon fill="white" stroke="#666666" points="1561,-459 1430,-459 1430,-440 1561,-440 1561,-459"/>
<text text-anchor="middle" x="1495.5" y="-447" font-family="Helvetica,sans-Serif" font-size="10.00">ISubscriptionManager.h</text>
</a>
</g>
</g>
<!-- Node1&#45;&gt;Node2 -->
<g id="edge1_Node000001_Node000002" class="edge">
<title>Node1&#45;&gt;Node2</title>
<g id="a_edge1_Node000001_Node000002"><a xlink:title=" ">
<path fill="none" stroke="#63b8ff" d="M1528.14,-494.95C1521.72,-486.2 1514.22,-475.99 1508.02,-467.56"/>
<polygon fill="#63b8ff" stroke="#63b8ff" points="1510.67,-465.25 1501.93,-459.26 1505.03,-469.39 1510.67,-465.25"/>
</a>
</g>
</g>
<!-- Node39 -->
<g id="Node000039" class="node">
<title>Node39</title>
<g id="a_Node000039"><a xlink:href="IConnectionQueue_8h.html" target="_top" xlink:title="Pure virtual class for the ConnectionQueue object.">
<polygon fill="white" stroke="#666666" points="1860,-404 1727,-404 1727,-385 1860,-385 1860,-404"/>
<text text-anchor="middle" x="1793.5" y="-392" font-family="Helvetica,sans-Serif" font-size="10.00">rpc/IConnectionQueue.h</text>
</a>
</g>
</g>
<!-- Node1&#45;&gt;Node39 -->
<g id="edge61_Node000001_Node000039" class="edge">
<title>Node1&#45;&gt;Node39</title>
<g id="a_edge61_Node000001_Node000039"><a xlink:title=" ">
<path fill="none" stroke="#63b8ff" d="M1554.72,-494.97C1566.44,-477.88 1585.69,-453.7 1608.5,-440 1641.1,-420.41 1681.8,-409.45 1716.72,-403.3"/>
<polygon fill="#63b8ff" stroke="#63b8ff" points="1717.58,-406.71 1726.87,-401.62 1716.44,-399.8 1717.58,-406.71"/>
</a>
</g>
</g>
<!-- Node42 -->
<g id="Node000042" class="node">
<title>Node42</title>
<g id="a_Node000042"><a xlink:href="gRPC_2include_2interface_2ICallData_8h.html" target="_top" xlink:title="Interface class for gRPC CallData classes.">
<polygon fill="white" stroke="#666666" points="343,-239 272,-239 272,-220 343,-220 343,-239"/>
<text text-anchor="middle" x="307.5" y="-227" font-family="Helvetica,sans-Serif" font-size="10.00">ICallData.h</text>
</a>
</g>
</g>
<!-- Node1&#45;&gt;Node42 -->
<g id="edge67_Node000001_Node000042" class="edge">
<title>Node1&#45;&gt;Node42</title>
<g id="a_edge67_Node000001_Node000042"><a xlink:title=" ">
<path fill="none" stroke="#63b8ff" d="M1440.96,-510.79C1128.52,-498.7 202.5,-457.63 202.5,-395.5 202.5,-395.5 202.5,-395.5 202.5,-338.5 202.5,-294.18 248.51,-261.21 279.62,-243.99"/>
<polygon fill="#63b8ff" stroke="#63b8ff" points="281.54,-246.93 288.73,-239.15 278.25,-240.75 281.54,-246.93"/>
</a>
</g>
</g>
<!-- Node43 -->
<g id="Node000043" class="node">
<title>Node43</title>
<g id="a_Node000043"><a xlink:title=" ">
<polygon fill="#e0e0e0" stroke="#999999" points="1763.5,-459 1617.5,-459 1617.5,-440 1763.5,-440 1763.5,-459"/>
<text text-anchor="middle" x="1690.5" y="-447" font-family="Helvetica,sans-Serif" font-size="10.00">interface/service.grpc.pb.h</text>
</a>
</g>
</g>
<!-- Node1&#45;&gt;Node43 -->
<g id="edge70_Node000001_Node000043" class="edge">
<title>Node1&#45;&gt;Node43</title>
<g id="a_edge70_Node000001_Node000043"><a xlink:title=" ">
<path fill="none" stroke="#63b8ff" d="M1587.71,-494.95C1611.63,-484.6 1640.31,-472.2 1661.29,-463.13"/>
<polygon fill="#63b8ff" stroke="#63b8ff" points="1662.84,-466.27 1670.63,-459.09 1660.06,-459.85 1662.84,-466.27"/>
</a>
</g>
</g>
<!-- Node3 -->
<g id="Node000003" class="node">
<title>Node3</title>
<g id="a_Node000003"><a xlink:title=" ">
<polygon fill="#e0e0e0" stroke="#999999" points="1670.5,-294 1638.5,-294 1638.5,-275 1670.5,-275 1670.5,-294"/>
<text text-anchor="middle" x="1654.5" y="-282" font-family="Helvetica,sans-Serif" font-size="10.00">set</text>
</a>
</g>
</g>
<!-- Node2&#45;&gt;Node3 -->
<g id="edge2_Node000002_Node000003" class="edge">
<title>Node2&#45;&gt;Node3</title>
<g id="a_edge2_Node000002_Node000003"><a xlink:title=" ">
<path fill="none" stroke="#63b8ff" d="M1504.05,-439.74C1529.61,-413.53 1605.71,-335.51 1638.82,-301.57"/>
<polygon fill="#63b8ff" stroke="#63b8ff" points="1641.43,-303.91 1645.91,-294.31 1636.42,-299.02 1641.43,-303.91"/>
</a>
</g>
</g>
<!-- Node4 -->
<g id="Node000004" class="node">
<title>Node4</title>
<g id="a_Node000004"><a xlink:title=" ">
<polygon fill="#e0e0e0" stroke="#999999" points="694.5,-19 650.5,-19 650.5,0 694.5,0 694.5,-19"/>
<text text-anchor="middle" x="672.5" y="-7" font-family="Helvetica,sans-Serif" font-size="10.00">string</text>
</a>
</g>
</g>
<!-- Node2&#45;&gt;Node4 -->
<g id="edge3_Node000002_Node000004" class="edge">
<title>Node2&#45;&gt;Node4</title>
<g id="a_edge3_Node000002_Node000004"><a xlink:title=" ">
<path fill="none" stroke="#63b8ff" d="M1561.13,-441.02C1620.44,-430.18 1698.5,-403.87 1698.5,-340.5 1698.5,-340.5 1698.5,-340.5 1698.5,-283.5 1698.5,-177.29 1720.39,-108.26 1628.5,-55 1547.17,-7.86 862.58,-9.29 704.83,-10.25"/>
<polygon fill="#63b8ff" stroke="#63b8ff" points="704.78,-6.75 694.81,-10.32 704.83,-13.75 704.78,-6.75"/>
</a>
</g>
</g>
<!-- Node5 -->
<g id="Node000005" class="node">
<title>Node5</title>
<g id="a_Node000005"><a xlink:href="IDevice_8h.html" target="_top" xlink:title="Interface for device.">
<polygon fill="white" stroke="#666666" points="619.5,-404 557.5,-404 557.5,-385 619.5,-385 619.5,-404"/>
<text text-anchor="middle" x="588.5" y="-392" font-family="Helvetica,sans-Serif" font-size="10.00">IDevice.h</text>
</a>
</g>
</g>
<!-- Node2&#45;&gt;Node5 -->
<g id="edge4_Node000002_Node000005" class="edge">
<title>Node2&#45;&gt;Node5</title>
<g id="a_edge4_Node000002_Node000005"><a xlink:title=" ">
<path fill="none" stroke="#63b8ff" d="M1429.91,-444.67C1253.65,-434.37 773.39,-406.3 629.67,-397.91"/>
<polygon fill="#63b8ff" stroke="#63b8ff" points="629.71,-394.4 619.52,-397.31 629.3,-401.39 629.71,-394.4"/>
</a>
</g>
</g>
<!-- Node6 -->
<g id="Node000006" class="node">
<title>Node6</title>
<g id="a_Node000006"><a xlink:href="Authorizer_8h.html" target="_top" xlink:title="Class for handling authorization information.">
<polygon fill="white" stroke="#666666" points="1533,-349 1458,-349 1458,-330 1533,-330 1533,-349"/>
<text text-anchor="middle" x="1495.5" y="-337" font-family="Helvetica,sans-Serif" font-size="10.00">Authorizer.h</text>
</a>
</g>
</g>
<!-- Node2&#45;&gt;Node6 -->
<g id="edge60_Node000002_Node000006" class="edge">
<title>Node2&#45;&gt;Node6</title>
<g id="a_edge60_Node000002_Node000006"><a xlink:title=" ">
<path fill="none" stroke="#63b8ff" d="M1495.5,-439.66C1495.5,-422.17 1495.5,-382.8 1495.5,-359.27"/>
<polygon fill="#63b8ff" stroke="#63b8ff" points="1499,-359.16 1495.5,-349.16 1492,-359.16 1499,-359.16"/>
</a>
</g>
</g>
<!-- Node8 -->
<g id="Node000008" class="node">
<title>Node8</title>
<g id="a_Node000008"><a xlink:href="IParam_8h.html" target="_top" xlink:title="Interface for parameters.">
<polygon fill="white" stroke="#666666" points="1195,-239 1136,-239 1136,-220 1195,-220 1195,-239"/>
<text text-anchor="middle" x="1165.5" y="-227" font-family="Helvetica,sans-Serif" font-size="10.00">IParam.h</text>
</a>
</g>
</g>
<!-- Node2&#45;&gt;Node8 -->
<g id="edge59_Node000002_Node000008" class="edge">
<title>Node2&#45;&gt;Node8</title>
<g id="a_edge59_Node000002_Node000008"><a xlink:title=" ">
<path fill="none" stroke="#63b8ff" d="M1482.56,-439.95C1432.36,-406.79 1250.11,-286.4 1187.11,-244.77"/>
<polygon fill="#63b8ff" stroke="#63b8ff" points="1188.98,-241.82 1178.71,-239.22 1185.12,-247.66 1188.98,-241.82"/>
</a>
</g>
</g>
<!-- Node5&#45;&gt;Node4 -->
<g id="edge55_Node000005_Node000004" class="edge">
<title>Node5&#45;&gt;Node4</title>
<g id="a_edge55_Node000005_Node000004"><a xlink:title=" ">
<path fill="none" stroke="#63b8ff" d="M577.95,-384.82C528.39,-343.6 322.88,-167.18 364.5,-110 429.34,-20.91 575.55,-9.92 640.44,-9.66"/>
<polygon fill="#63b8ff" stroke="#63b8ff" points="640.48,-13.16 650.49,-9.7 640.51,-6.16 640.48,-13.16"/>
</a>
</g>
</g>
<!-- Node5&#45;&gt;Node6 -->
<g id="edge5_Node000005_Node000006" class="edge">
<title>Node5&#45;&gt;Node6</title>
<g id="a_edge5_Node000005_Node000006"><a xlink:title=" ">
<path fill="none" stroke="#63b8ff" d="M619.72,-391.68C754.22,-383.82 1284.69,-352.82 1447.63,-343.3"/>
<polygon fill="#63b8ff" stroke="#63b8ff" points="1448.05,-346.78 1457.83,-342.7 1447.64,-339.79 1448.05,-346.78"/>
</a>
</g>
</g>
<!-- Node5&#45;&gt;Node8 -->
<g id="edge47_Node000005_Node000008" class="edge">
<title>Node5&#45;&gt;Node8</title>
<g id="a_edge47_Node000005_Node000008"><a xlink:title=" ">
<path fill="none" stroke="#63b8ff" d="M618.71,-384.97C715.41,-357.65 1017.36,-272.35 1126.04,-241.65"/>
<polygon fill="#63b8ff" stroke="#63b8ff" points="1127.26,-244.94 1135.93,-238.85 1125.36,-238.2 1127.26,-244.94"/>
</a>
</g>
</g>
<!-- Node15 -->
<g id="Node000015" class="node">
<title>Node15</title>
<g id="a_Node000015"><a xlink:title=" ">
<polygon fill="#e0e0e0" stroke="#999999" points="1639,-129 1520,-129 1520,-110 1639,-110 1639,-129"/>
<text text-anchor="middle" x="1579.5" y="-117" font-family="Helvetica,sans-Serif" font-size="10.00">interface/device.pb.h</text>
</a>
</g>
</g>
<!-- Node5&#45;&gt;Node15 -->
<g id="edge54_Node000005_Node000015" class="edge">
<title>Node5&#45;&gt;Node15</title>
<g id="a_edge54_Node000005_Node000015"><a xlink:title=" ">
<path fill="none" stroke="#63b8ff" d="M619.62,-391.83C747.16,-384.64 1229.69,-353.92 1368.5,-294 1454.8,-256.74 1533.95,-173.18 1565.29,-137.34"/>
<polygon fill="#63b8ff" stroke="#63b8ff" points="1568.33,-139.18 1572.2,-129.32 1563.02,-134.61 1568.33,-139.18"/>
</a>
</g>
</g>
<!-- Node26 -->
<g id="Node000026" class="node">
<title>Node26</title>
<g id="a_Node000026"><a xlink:href="Path_8h.html" target="_top" xlink:title="Handles Path objects used to uniquely identify and access OIDs.">
<polygon fill="white" stroke="#666666" points="638,-184 591,-184 591,-165 638,-165 638,-184"/>
<text text-anchor="middle" x="614.5" y="-172" font-family="Helvetica,sans-Serif" font-size="10.00">Path.h</text>
</a>
</g>
</g>
<!-- Node5&#45;&gt;Node26 -->
<g id="edge46_Node000005_Node000026" class="edge">
<title>Node5&#45;&gt;Node26</title>
<g id="a_edge46_Node000005_Node000026"><a xlink:title=" ">
<path fill="none" stroke="#63b8ff" d="M589.52,-384.95C593.34,-352.95 606.85,-239.68 612.25,-194.4"/>
<polygon fill="#63b8ff" stroke="#63b8ff" points="615.75,-194.57 613.46,-184.22 608.8,-193.74 615.75,-194.57"/>
</a>
</g>
</g>
<!-- Node28 -->
<g id="Node000028" class="node">
<title>Node28</title>
<g id="a_Node000028"><a xlink:title=" ">
<polygon fill="#e0e0e0" stroke="#999999" points="421,-129 374,-129 374,-110 421,-110 421,-129"/>
<text text-anchor="middle" x="397.5" y="-117" font-family="Helvetica,sans-Serif" font-size="10.00">vector</text>
</a>
</g>
</g>
<!-- Node5&#45;&gt;Node28 -->
<g id="edge56_Node000005_Node000028" class="edge">
<title>Node5&#45;&gt;Node28</title>
<g id="a_edge56_Node000005_Node000028"><a xlink:title=" ">
<path fill="none" stroke="#63b8ff" d="M584.99,-384.99C577.9,-366.97 562.5,-323.49 562.5,-285.5 562.5,-285.5 562.5,-285.5 562.5,-228.5 562.5,-196.63 475.23,-154 427.63,-133.11"/>
<polygon fill="#63b8ff" stroke="#63b8ff" points="428.96,-129.87 418.4,-129.11 426.18,-136.3 428.96,-129.87"/>
</a>
</g>
</g>
<!-- Node31 -->
<g id="Node000031" class="node">
<title>Node31</title>
<g id="a_Node000031"><a xlink:href="Status_8h.html" target="_top" xlink:title="Communicates failure status using gRPC&#39;s codes.">
<polygon fill="white" stroke="#666666" points="761.5,-184 705.5,-184 705.5,-165 761.5,-165 761.5,-184"/>
<text text-anchor="middle" x="733.5" y="-172" font-family="Helvetica,sans-Serif" font-size="10.00">Status.h</text>
</a>
</g>
</g>
<!-- Node5&#45;&gt;Node31 -->
<g id="edge52_Node000005_Node000031" class="edge">
<title>Node5&#45;&gt;Node31</title>
<g id="a_edge52_Node000005_Node000031"><a xlink:title=" ">
<path fill="none" stroke="#63b8ff" d="M594.18,-384.95C615.75,-352.54 692.74,-236.78 722.06,-192.71"/>
<polygon fill="#63b8ff" stroke="#63b8ff" points="725.07,-194.49 727.7,-184.22 719.25,-190.61 725.07,-194.49"/>
</a>
</g>
</g>
<!-- Node35 -->
<g id="Node000035" class="node">
<title>Node35</title>
<g id="a_Node000035"><a xlink:href="ILanguagePack_8h.html" target="_top" xlink:title="Interface for language packs.">
<polygon fill="white" stroke="#666666" points="279.5,-74 181.5,-74 181.5,-55 279.5,-55 279.5,-74"/>
<text text-anchor="middle" x="230.5" y="-62" font-family="Helvetica,sans-Serif" font-size="10.00">ILanguagePack.h</text>
</a>
</g>
</g>
<!-- Node5&#45;&gt;Node35 -->
<g id="edge48_Node000005_Node000035" class="edge">
<title>Node5&#45;&gt;Node35</title>
<g id="a_edge48_Node000005_Node000035"><a xlink:title=" ">
<path fill="none" stroke="#63b8ff" d="M557.48,-393.45C484.34,-392.71 303.92,-386.97 259.5,-349 237.11,-329.86 240.5,-314.96 240.5,-285.5 240.5,-285.5 240.5,-285.5 240.5,-173.5 240.5,-142.06 236.25,-105.68 233.29,-84.19"/>
<polygon fill="#63b8ff" stroke="#63b8ff" points="236.73,-83.56 231.85,-74.15 229.8,-84.55 236.73,-83.56"/>
</a>
</g>
</g>
<!-- Node36 -->
<g id="Node000036" class="node">
<title>Node36</title>
<g id="a_Node000036"><a xlink:title=" ">
<polygon fill="#e0e0e0" stroke="#999999" points="350,-349 269,-349 269,-330 350,-330 350,-349"/>
<text text-anchor="middle" x="309.5" y="-337" font-family="Helvetica,sans-Serif" font-size="10.00">vdk/signals.h</text>
</a>
</g>
</g>
<!-- Node5&#45;&gt;Node36 -->
<g id="edge53_Node000005_Node000036" class="edge">
<title>Node5&#45;&gt;Node36</title>
<g id="a_edge53_Node000005_Node000036"><a xlink:title=" ">
<path fill="none" stroke="#63b8ff" d="M557.31,-387.57C509.55,-378.5 417.83,-361.08 360.36,-350.16"/>
<polygon fill="#63b8ff" stroke="#63b8ff" points="360.88,-346.7 350.4,-348.27 359.57,-353.57 360.88,-346.7"/>
</a>
</g>
</g>
<!-- Node37 -->
<g id="Node000037" class="node">
<title>Node37</title>
<g id="a_Node000037"><a xlink:title=" ">
<polygon fill="#e0e0e0" stroke="#999999" points="430.5,-349 368.5,-349 368.5,-330 430.5,-330 430.5,-349"/>
<text text-anchor="middle" x="399.5" y="-337" font-family="Helvetica,sans-Serif" font-size="10.00">coroutine</text>
</a>
</g>
</g>
<!-- Node5&#45;&gt;Node37 -->
<g id="edge57_Node000005_Node000037" class="edge">
<title>Node5&#45;&gt;Node37</title>
<g id="a_edge57_Node000005_Node000037"><a xlink:title=" ">
<path fill="none" stroke="#63b8ff" d="M558.13,-384.98C526.13,-376.01 475.54,-361.82 440.12,-351.89"/>
<polygon fill="#63b8ff" stroke="#63b8ff" points="440.68,-348.41 430.1,-349.08 438.79,-355.15 440.68,-348.41"/>
</a>
</g>
</g>
<!-- Node38 -->
<g id="Node000038" class="node">
<title>Node38</title>
<g id="a_Node000038"><a xlink:title=" ">
<polygon fill="#e0e0e0" stroke="#999999" points="496.5,-349 448.5,-349 448.5,-330 496.5,-330 496.5,-349"/>
<text text-anchor="middle" x="472.5" y="-337" font-family="Helvetica,sans-Serif" font-size="10.00">mutex</text>
</a>
</g>
</g>
<!-- Node5&#45;&gt;Node38 -->
<g id="edge58_Node000005_Node000038" class="edge">
<title>Node5&#45;&gt;Node38</title>
<g id="a_edge58_Node000005_Node000038"><a xlink:title=" ">
<path fill="none" stroke="#63b8ff" d="M569.86,-384.98C551.2,-376.46 522.25,-363.23 500.76,-353.41"/>
<polygon fill="#63b8ff" stroke="#63b8ff" points="502.03,-350.14 491.48,-349.17 499.12,-356.51 502.03,-350.14"/>
</a>
</g>
</g>
<!-- Node6&#45;&gt;Node3 -->
<g id="edge45_Node000006_Node000003" class="edge">
<title>Node6&#45;&gt;Node3</title>
<g id="a_edge45_Node000006_Node000003"><a xlink:title=" ">
<path fill="none" stroke="#63b8ff" d="M1521.05,-329.98C1550.57,-320.14 1598.9,-304.03 1628.58,-294.14"/>
<polygon fill="#63b8ff" stroke="#63b8ff" points="1629.86,-297.4 1638.24,-290.92 1627.65,-290.76 1629.86,-297.4"/>
</a>
</g>
</g>
<!-- Node7 -->
<g id="Node000007" class="node">
<title>Node7</title>
<g id="a_Node000007"><a xlink:href="IAuthorizer_8h.html" target="_top" xlink:title="Interface for the Authorizer class.">
<polygon fill="white" stroke="#666666" points="1359.5,-294 1281.5,-294 1281.5,-275 1359.5,-275 1359.5,-294"/>
<text text-anchor="middle" x="1320.5" y="-282" font-family="Helvetica,sans-Serif" font-size="10.00">IAuthorizer.h</text>
</a>
</g>
</g>
<!-- Node6&#45;&gt;Node7 -->
<g id="edge6_Node000006_Node000007" class="edge">
<title>Node6&#45;&gt;Node7</title>
<g id="a_edge6_Node000006_Node000007"><a xlink:title=" ">
<path fill="none" stroke="#63b8ff" d="M1467.38,-329.98C1437.88,-321.05 1391.31,-306.94 1358.53,-297.02"/>
<polygon fill="#63b8ff" stroke="#63b8ff" points="1359.42,-293.63 1348.84,-294.08 1357.39,-300.33 1359.42,-293.63"/>
</a>
</g>
</g>
<!-- Node21 -->
<g id="Node000021" class="node">
<title>Node21</title>
<g id="a_Node000021"><a xlink:title=" ">
<polygon fill="#e0e0e0" stroke="#999999" points="1619,-74 1554,-74 1554,-55 1619,-55 1619,-74"/>
<text text-anchor="middle" x="1586.5" y="-62" font-family="Helvetica,sans-Serif" font-size="10.00">functional</text>
</a>
</g>
</g>
<!-- Node6&#45;&gt;Node21 -->
<g id="edge44_Node000006_Node000021" class="edge">
<title>Node6&#45;&gt;Node21</title>
<g id="a_edge44_Node000006_Node000021"><a xlink:title=" ">
<path fill="none" stroke="#63b8ff" d="M1506.82,-329.72C1517.3,-321.25 1532.98,-307.73 1544.5,-294 1600.21,-227.59 1624.44,-212.28 1648.5,-129 1650.84,-120.89 1652.36,-117.51 1648.5,-110 1641.54,-96.44 1628.31,-86.07 1615.85,-78.78"/>
<polygon fill="#63b8ff" stroke="#63b8ff" points="1617.48,-75.68 1607.02,-74 1614.15,-81.84 1617.48,-75.68"/>
</a>
</g>
</g>
<!-- Node34 -->
<g id="Node000034" class="node">
<title>Node34</title>
<g id="a_Node000034"><a xlink:title=" ">
<polygon fill="#e0e0e0" stroke="#999999" points="1535.5,-294 1455.5,-294 1455.5,-275 1535.5,-275 1535.5,-294"/>
<text text-anchor="middle" x="1495.5" y="-282" font-family="Helvetica,sans-Serif" font-size="10.00">jwt&#45;cpp/jwt.h</text>
</a>
</g>
</g>
<!-- Node6&#45;&gt;Node34 -->
<g id="edge43_Node000006_Node000034" class="edge">
<title>Node6&#45;&gt;Node34</title>
<g id="a_edge43_Node000006_Node000034"><a xlink:title=" ">
<path fill="none" stroke="#63b8ff" d="M1495.5,-329.75C1495.5,-322.8 1495.5,-312.85 1495.5,-304.13"/>
<polygon fill="#63b8ff" stroke="#63b8ff" points="1499,-304.09 1495.5,-294.09 1492,-304.09 1499,-304.09"/>
</a>
</g>
</g>
<!-- Node7&#45;&gt;Node8 -->
<g id="edge7_Node000007_Node000008" class="edge">
<title>Node7&#45;&gt;Node8</title>
<g id="a_edge7_Node000007_Node000008"><a xlink:title=" ">
<path fill="none" stroke="#63b8ff" d="M1295.6,-274.98C1269.8,-266.16 1229.28,-252.31 1200.32,-242.41"/>
<polygon fill="#63b8ff" stroke="#63b8ff" points="1201.19,-239.01 1190.6,-239.08 1198.93,-245.63 1201.19,-239.01"/>
</a>
</g>
</g>
<!-- Node9 -->
<g id="Node000009" class="node">
<title>Node9</title>
<g id="a_Node000009"><a xlink:href="Enums_8h.html" target="_top" xlink:title="tools for using EnumDecorators.">
<polygon fill="white" stroke="#666666" points="1356,-184 1297,-184 1297,-165 1356,-165 1356,-184"/>
<text text-anchor="middle" x="1326.5" y="-172" font-family="Helvetica,sans-Serif" font-size="10.00">Enums.h</text>
</a>
</g>
</g>
<!-- Node7&#45;&gt;Node9 -->
<g id="edge42_Node000007_Node000009" class="edge">
<title>Node7&#45;&gt;Node9</title>
<g id="a_edge42_Node000007_Node000009"><a xlink:title=" ">
<path fill="none" stroke="#63b8ff" d="M1320.99,-274.66C1321.96,-257.17 1324.15,-217.8 1325.46,-194.27"/>
<polygon fill="#63b8ff" stroke="#63b8ff" points="1328.96,-194.34 1326.02,-184.16 1321.97,-193.95 1328.96,-194.34"/>
</a>
</g>
</g>
<!-- Node19 -->
<g id="Node000019" class="node">
<title>Node19</title>
<g id="a_Node000019"><a xlink:href="IParamDescriptor_8h.html" target="_top" xlink:title="Interface class for ParamDescriptor.">
<polygon fill="white" stroke="#666666" points="1257,-184 1148,-184 1148,-165 1257,-165 1257,-184"/>
<text text-anchor="middle" x="1202.5" y="-172" font-family="Helvetica,sans-Serif" font-size="10.00">IParamDescriptor.h</text>
</a>
</g>
</g>
<!-- Node7&#45;&gt;Node19 -->
<g id="edge41_Node000007_Node000019" class="edge">
<title>Node7&#45;&gt;Node19</title>
<g id="a_edge41_Node000007_Node000019"><a xlink:title=" ">
<path fill="none" stroke="#63b8ff" d="M1310.84,-274.66C1290.86,-256.38 1244.76,-214.18 1219.62,-191.17"/>
<polygon fill="#63b8ff" stroke="#63b8ff" points="1221.7,-188.33 1211.96,-184.16 1216.97,-193.49 1221.7,-188.33"/>
</a>
</g>
</g>
<!-- Node8&#45;&gt;Node9 -->
<g id="edge8_Node000008_Node000009" class="edge">
<title>Node8&#45;&gt;Node9</title>
<g id="a_edge8_Node000008_Node000009"><a xlink:title=" ">
<path fill="none" stroke="#63b8ff" d="M1191.37,-219.98C1218.28,-211.13 1260.62,-197.19 1290.73,-187.28"/>
<polygon fill="#63b8ff" stroke="#63b8ff" points="1292.03,-190.53 1300.43,-184.08 1289.84,-183.88 1292.03,-190.53"/>
</a>
</g>
</g>
<!-- Node16 -->
<g id="Node000016" class="node">
<title>Node16</title>
<g id="a_Node000016"><a xlink:href="IConstraint_8h.html" target="_top" xlink:title="Interface for constraints.">
<polygon fill="white" stroke="#666666" points="1091,-184 1012,-184 1012,-165 1091,-165 1091,-184"/>
<text text-anchor="middle" x="1051.5" y="-172" font-family="Helvetica,sans-Serif" font-size="10.00">IConstraint.h</text>
</a>
</g>
</g>
<!-- Node8&#45;&gt;Node16 -->
<g id="edge17_Node000008_Node000016" class="edge">
<title>Node8&#45;&gt;Node16</title>
<g id="a_edge17_Node000008_Node000016"><a xlink:title=" ">
<path fill="none" stroke="#63b8ff" d="M1147.18,-219.98C1128.84,-211.46 1100.39,-198.23 1079.27,-188.41"/>
<polygon fill="#63b8ff" stroke="#63b8ff" points="1080.69,-185.21 1070.15,-184.17 1077.74,-191.56 1080.69,-185.21"/>
</a>
</g>
</g>
<!-- Node17 -->
<g id="Node000017" class="node">
<title>Node17</title>
<g id="a_Node000017"><a xlink:title=" ">
<polygon fill="#e0e0e0" stroke="#999999" points="1132,-129 1013,-129 1013,-110 1132,-110 1132,-129"/>
<text text-anchor="middle" x="1072.5" y="-117" font-family="Helvetica,sans-Serif" font-size="10.00">interface/param.pb.h</text>
</a>
</g>
</g>
<!-- Node8&#45;&gt;Node17 -->
<g id="edge40_Node000008_Node000017" class="edge">
<title>Node8&#45;&gt;Node17</title>
<g id="a_edge40_Node000008_Node000017"><a xlink:title=" ">
<path fill="none" stroke="#63b8ff" d="M1157.89,-219.66C1142.28,-201.54 1106.44,-159.91 1086.51,-136.77"/>
<polygon fill="#63b8ff" stroke="#63b8ff" points="1089.13,-134.45 1079.96,-129.16 1083.83,-139.02 1089.13,-134.45"/>
</a>
</g>
</g>
<!-- Node8&#45;&gt;Node19 -->
<g id="edge20_Node000008_Node000019" class="edge">
<title>Node8&#45;&gt;Node19</title>
<g id="a_edge20_Node000008_Node000019"><a xlink:title=" ">
<path fill="none" stroke="#63b8ff" d="M1171.61,-219.75C1176.78,-212.34 1184.35,-201.5 1190.69,-192.41"/>
<polygon fill="#63b8ff" stroke="#63b8ff" points="1193.65,-194.29 1196.5,-184.09 1187.91,-190.29 1193.65,-194.29"/>
</a>
</g>
</g>
<!-- Node8&#45;&gt;Node26 -->
<g id="edge31_Node000008_Node000026" class="edge">
<title>Node8&#45;&gt;Node26</title>
<g id="a_edge31_Node000008_Node000026"><a xlink:title=" ">
<path fill="none" stroke="#63b8ff" d="M1135.86,-225.78C1061.77,-218.95 862.53,-200.48 696.5,-184 680.68,-182.43 663.16,-180.62 648.39,-179.08"/>
<polygon fill="#63b8ff" stroke="#63b8ff" points="648.49,-175.57 638.18,-178.01 647.76,-182.53 648.49,-175.57"/>
</a>
</g>
</g>
<!-- Node8&#45;&gt;Node31 -->
<g id="edge37_Node000008_Node000031" class="edge">
<title>Node8&#45;&gt;Node31</title>
<g id="a_edge37_Node000008_Node000031"><a xlink:title=" ">
<path fill="none" stroke="#63b8ff" d="M1135.81,-224.86C1059.5,-215.5 856.59,-190.6 771.69,-180.19"/>
<polygon fill="#63b8ff" stroke="#63b8ff" points="772.05,-176.7 761.7,-178.96 771.2,-183.65 772.05,-176.7"/>
</a>
</g>
</g>
<!-- Node10 -->
<g id="Node000010" class="node">
<title>Node10</title>
<g id="a_Node000010"><a xlink:href="EnumDecorator_8h.html" target="_top" xlink:title="Provides an enum with useful extra functionality.">
<polygon fill="white" stroke="#666666" points="1398.5,-129 1254.5,-129 1254.5,-110 1398.5,-110 1398.5,-129"/>
<text text-anchor="middle" x="1326.5" y="-117" font-family="Helvetica,sans-Serif" font-size="10.00">patterns/EnumDecorator.h</text>
</a>
</g>
</g>
<!-- Node9&#45;&gt;Node10 -->
<g id="edge9_Node000009_Node000010" class="edge">
<title>Node9&#45;&gt;Node10</title>
<g id="a_edge9_Node000009_Node000010"><a xlink:title=" ">
<path fill="none" stroke="#63b8ff" d="M1326.5,-164.75C1326.5,-157.8 1326.5,-147.85 1326.5,-139.13"/>
<polygon fill="#63b8ff" stroke="#63b8ff" points="1330,-139.09 1326.5,-129.09 1323,-139.09 1330,-139.09"/>
</a>
</g>
</g>
<!-- Node12 -->
<g id="Node000012" class="node">
<title>Node12</title>
<g id="a_Node000012"><a xlink:title=" ">
<polygon fill="#e0e0e0" stroke="#999999" points="1433.5,-74 1383.5,-74 1383.5,-55 1433.5,-55 1433.5,-74"/>
<text text-anchor="middle" x="1408.5" y="-62" font-family="Helvetica,sans-Serif" font-size="10.00">cstdint</text>
</a>
</g>
</g>
<!-- Node9&#45;&gt;Node12 -->
<g id="edge16_Node000009_Node000012" class="edge">
<title>Node9&#45;&gt;Node12</title>
<g id="a_edge16_Node000009_Node000012"><a xlink:title=" ">
<path fill="none" stroke="#63b8ff" d="M1356.19,-165.51C1374.41,-158.92 1396.32,-147.56 1407.5,-129 1415.59,-115.57 1415,-97.47 1412.88,-84.03"/>
<polygon fill="#63b8ff" stroke="#63b8ff" points="1416.28,-83.17 1410.89,-74.04 1409.41,-84.53 1416.28,-83.17"/>
</a>
</g>
</g>
<!-- Node9&#45;&gt;Node15 -->
<g id="edge15_Node000009_Node000015" class="edge">
<title>Node9&#45;&gt;Node15</title>
<g id="a_edge15_Node000009_Node000015"><a xlink:title=" ">
<path fill="none" stroke="#63b8ff" d="M1356.02,-167.32C1398.42,-158.43 1477.16,-141.94 1528.94,-131.09"/>
<polygon fill="#63b8ff" stroke="#63b8ff" points="1529.85,-134.48 1538.92,-129 1528.42,-127.63 1529.85,-134.48"/>
</a>
</g>
</g>
<!-- Node10&#45;&gt;Node4 -->
<g id="edge13_Node000010_Node000004" class="edge">
<title>Node10&#45;&gt;Node4</title>
<g id="a_edge13_Node000010_Node000004"><a xlink:title=" ">
<path fill="none" stroke="#63b8ff" d="M1327.65,-109.95C1328.97,-96.06 1329.25,-68.79 1313.5,-55 1267.42,-14.66 828.64,-10.78 704.86,-10.5"/>
<polygon fill="#63b8ff" stroke="#63b8ff" points="704.54,-7 694.53,-10.48 704.53,-14 704.54,-7"/>
</a>
</g>
</g>
<!-- Node11 -->
<g id="Node000011" class="node">
<title>Node11</title>
<g id="a_Node000011"><a xlink:href="ReflectionMacros_8h.html" target="_top" xlink:title="adapted from https://github.com/tapika/TestCppReflect">
<polygon fill="white" stroke="#666666" points="1304.5,-74 1194.5,-74 1194.5,-55 1304.5,-55 1304.5,-74"/>
<text text-anchor="middle" x="1249.5" y="-62" font-family="Helvetica,sans-Serif" font-size="10.00">ReflectionMacros.h</text>
</a>
</g>
</g>
<!-- Node10&#45;&gt;Node11 -->
<g id="edge10_Node000010_Node000011" class="edge">
<title>Node10&#45;&gt;Node11</title>
<g id="a_edge10_Node000010_Node000011"><a xlink:title=" ">
<path fill="none" stroke="#63b8ff" d="M1314.13,-109.98C1302.41,-101.92 1284.58,-89.65 1270.61,-80.03"/>
<polygon fill="#63b8ff" stroke="#63b8ff" points="1272.32,-76.96 1262.1,-74.17 1268.35,-82.72 1272.32,-76.96"/>
</a>
</g>
</g>
<!-- Node10&#45;&gt;Node12 -->
<g id="edge11_Node000010_Node000012" class="edge">
<title>Node10&#45;&gt;Node12</title>
<g id="a_edge11_Node000010_Node000012"><a xlink:title=" ">
<path fill="none" stroke="#63b8ff" d="M1339.67,-109.98C1352.27,-101.84 1371.5,-89.41 1386.44,-79.76"/>
<polygon fill="#63b8ff" stroke="#63b8ff" points="1388.59,-82.54 1395.09,-74.17 1384.79,-76.66 1388.59,-82.54"/>
</a>
</g>
</g>
<!-- Node13 -->
<g id="Node000013" class="node">
<title>Node13</title>
<g id="a_Node000013"><a xlink:title=" ">
<polygon fill="#e0e0e0" stroke="#999999" points="345,-19 252,-19 252,0 345,0 345,-19"/>
<text text-anchor="middle" x="298.5" y="-7" font-family="Helvetica,sans-Serif" font-size="10.00">unordered_map</text>
</a>
</g>
</g>
<!-- Node10&#45;&gt;Node13 -->
<g id="edge12_Node000010_Node000013" class="edge">
<title>Node10&#45;&gt;Node13</title>
<g id="a_edge12_Node000010_Node000013"><a xlink:title=" ">
<path fill="none" stroke="#63b8ff" d="M1254.21,-110.91C1059.96,-90.5 529.61,-34.78 355.04,-16.44"/>
<polygon fill="#63b8ff" stroke="#63b8ff" points="355.35,-12.95 345.04,-15.39 354.62,-19.91 355.35,-12.95"/>
</a>
</g>
</g>
<!-- Node14 -->
<g id="Node000014" class="node">
<title>Node14</title>
<g id="a_Node000014"><a xlink:title=" ">
<polygon fill="#e0e0e0" stroke="#999999" points="1176,-74 1107,-74 1107,-55 1176,-55 1176,-74"/>
<text text-anchor="middle" x="1141.5" y="-62" font-family="Helvetica,sans-Serif" font-size="10.00">type_traits</text>
</a>
</g>
</g>
<!-- Node10&#45;&gt;Node14 -->
<g id="edge14_Node000010_Node000014" class="edge">
<title>Node10&#45;&gt;Node14</title>
<g id="a_edge14_Node000010_Node000014"><a xlink:title=" ">
<path fill="none" stroke="#63b8ff" d="M1296.78,-109.98C1265.45,-101.01 1215.93,-86.82 1181.26,-76.89"/>
<polygon fill="#63b8ff" stroke="#63b8ff" points="1182.03,-73.47 1171.46,-74.08 1180.11,-80.2 1182.03,-73.47"/>
</a>
</g>
</g>
<!-- Node16&#45;&gt;Node17 -->
<g id="edge18_Node000016_Node000017" class="edge">
<title>Node16&#45;&gt;Node17</title>
<g id="a_edge18_Node000016_Node000017"><a xlink:title=" ">
<path fill="none" stroke="#63b8ff" d="M1054.97,-164.75C1057.78,-157.65 1061.84,-147.4 1065.35,-138.56"/>
<polygon fill="#63b8ff" stroke="#63b8ff" points="1068.67,-139.68 1069.1,-129.09 1062.16,-137.1 1068.67,-139.68"/>
</a>
</g>
</g>
<!-- Node18 -->
<g id="Node000018" class="node">
<title>Node18</title>
<g id="a_Node000018"><a xlink:title=" ">
<polygon fill="#e0e0e0" stroke="#999999" points="994.5,-129 858.5,-129 858.5,-110 994.5,-110 994.5,-129"/>
<text text-anchor="middle" x="926.5" y="-117" font-family="Helvetica,sans-Serif" font-size="10.00">interface/constraint.pb.h</text>
</a>
</g>
</g>
<!-- Node16&#45;&gt;Node18 -->
<g id="edge19_Node000016_Node000018" class="edge">
<title>Node16&#45;&gt;Node18</title>
<g id="a_edge19_Node000016_Node000018"><a xlink:title=" ">
<path fill="none" stroke="#63b8ff" d="M1031.42,-164.98C1011.13,-156.38 979.54,-142.99 956.33,-133.15"/>
<polygon fill="#63b8ff" stroke="#63b8ff" points="957.52,-129.85 946.95,-129.17 954.79,-136.3 957.52,-129.85"/>
</a>
</g>
</g>
<!-- Node19&#45;&gt;Node17 -->
<g id="edge30_Node000019_Node000017" class="edge">
<title>Node19&#45;&gt;Node17</title>
<g id="a_edge30_Node000019_Node000017"><a xlink:title=" ">
<path fill="none" stroke="#63b8ff" d="M1181.61,-164.98C1160.42,-156.34 1127.37,-142.87 1103.2,-133.02"/>
<polygon fill="#63b8ff" stroke="#63b8ff" points="1104.35,-129.7 1093.77,-129.17 1101.71,-136.19 1104.35,-129.7"/>
</a>
</g>
</g>
<!-- Node20 -->
<g id="Node000020" class="node">
<title>Node20</title>
<g id="a_Node000020"><a xlink:href="Tags_8h.html" target="_top" xlink:title="Tags to differentiate collections with the same type for template specialization.">
<polygon fill="white" stroke="#666666" points="1502,-129 1455,-129 1455,-110 1502,-110 1502,-129"/>
<text text-anchor="middle" x="1478.5" y="-117" font-family="Helvetica,sans-Serif" font-size="10.00">Tags.h</text>
</a>
</g>
</g>
<!-- Node19&#45;&gt;Node20 -->
<g id="edge21_Node000019_Node000020" class="edge">
<title>Node19&#45;&gt;Node20</title>
<g id="a_edge21_Node000019_Node000020"><a xlink:title=" ">
<path fill="none" stroke="#63b8ff" d="M1246.84,-164.98C1302.04,-154.39 1395.09,-136.52 1444.8,-126.97"/>
<polygon fill="#63b8ff" stroke="#63b8ff" points="1445.56,-130.39 1454.72,-125.07 1444.24,-123.51 1445.56,-130.39"/>
</a>
</g>
</g>
<!-- Node22 -->
<g id="Node000022" class="node">
<title>Node22</title>
<g id="a_Node000022"><a xlink:href="PolyglotText_8h.html" target="_top" xlink:title="Polyglot Text serialization and deserialization to protobuf.">
<polygon fill="white" stroke="#666666" points="1236.5,-129 1150.5,-129 1150.5,-110 1236.5,-110 1236.5,-129"/>
<text text-anchor="middle" x="1193.5" y="-117" font-family="Helvetica,sans-Serif" font-size="10.00">PolyglotText.h</text>
</a>
</g>
</g>
<!-- Node19&#45;&gt;Node22 -->
<g id="edge24_Node000019_Node000022" class="edge">
<title>Node19&#45;&gt;Node22</title>
<g id="a_edge24_Node000019_Node000022"><a xlink:title=" ">
<path fill="none" stroke="#63b8ff" d="M1201.01,-164.75C1199.83,-157.8 1198.14,-147.85 1196.66,-139.13"/>
<polygon fill="#63b8ff" stroke="#63b8ff" points="1200.08,-138.36 1194.96,-129.09 1193.18,-139.53 1200.08,-138.36"/>
</a>
</g>
</g>
<!-- Node20&#45;&gt;Node4 -->
<g id="edge23_Node000020_Node000004" class="edge">
<title>Node20&#45;&gt;Node4</title>
<g id="a_edge23_Node000020_Node000004"><a xlink:title=" ">
<path fill="none" stroke="#63b8ff" d="M1476.39,-109.65C1472.45,-95.33 1462.52,-67.45 1442.5,-55 1379.19,-15.62 843.23,-11.08 704.95,-10.56"/>
<polygon fill="#63b8ff" stroke="#63b8ff" points="704.62,-7.06 694.61,-10.53 704.59,-14.06 704.62,-7.06"/>
</a>
</g>
</g>
<!-- Node20&#45;&gt;Node21 -->
<g id="edge22_Node000020_Node000021" class="edge">
<title>Node20&#45;&gt;Node21</title>
<g id="a_edge22_Node000020_Node000021"><a xlink:title=" ">
<path fill="none" stroke="#63b8ff" d="M1495.85,-109.98C1513.07,-101.54 1539.7,-88.47 1559.65,-78.68"/>
<polygon fill="#63b8ff" stroke="#63b8ff" points="1561.4,-81.72 1568.83,-74.17 1558.31,-75.43 1561.4,-81.72"/>
</a>
</g>
</g>
<!-- Node23 -->
<g id="Node000023" class="node">
<title>Node23</title>
<g id="a_Node000023"><a xlink:href="IPolyglotText_8h.html" target="_top" xlink:title="Catena&#39;s multi&#45;language text interface.">
<polygon fill="white" stroke="#666666" points="164,-74 75,-74 75,-55 164,-55 164,-74"/>
<text text-anchor="middle" x="119.5" y="-62" font-family="Helvetica,sans-Serif" font-size="10.00">IPolyglotText.h</text>
</a>
</g>
</g>
<!-- Node22&#45;&gt;Node23 -->
<g id="edge25_Node000022_Node000023" class="edge">
<title>Node22&#45;&gt;Node23</title>
<g id="a_edge25_Node000022_Node000023"><a xlink:title=" ">
<path fill="none" stroke="#63b8ff" d="M1150.46,-111.15C1147.1,-110.71 1143.75,-110.32 1140.5,-110 715.4,-68.16 602.71,-115.42 174.45,-74.07"/>
<polygon fill="#63b8ff" stroke="#63b8ff" points="174.56,-70.56 164.27,-73.07 173.88,-77.53 174.56,-70.56"/>
</a>
</g>
</g>
<!-- Node23&#45;&gt;Node4 -->
<g id="edge28_Node000023_Node000004" class="edge">
<title>Node23&#45;&gt;Node4</title>
<g id="a_edge28_Node000023_Node000004"><a xlink:title=" ">
<path fill="none" stroke="#63b8ff" d="M164,-56.13C166.87,-55.73 169.73,-55.35 172.5,-55 348.02,-33.14 559.5,-17.97 639.6,-12.62"/>
<polygon fill="#63b8ff" stroke="#63b8ff" points="640.27,-16.09 650.01,-11.94 639.81,-9.1 640.27,-16.09"/>
</a>
</g>
</g>
<!-- Node23&#45;&gt;Node13 -->
<g id="edge27_Node000023_Node000013" class="edge">
<title>Node23&#45;&gt;Node13</title>
<g id="a_edge27_Node000023_Node000013"><a xlink:title=" ">
<path fill="none" stroke="#63b8ff" d="M148.26,-54.98C178.44,-46.05 226.07,-31.94 259.6,-22.02"/>
<polygon fill="#63b8ff" stroke="#63b8ff" points="260.92,-25.28 269.52,-19.08 258.93,-18.57 260.92,-25.28"/>
</a>
</g>
</g>
<!-- Node24 -->
<g id="Node000024" class="node">
<title>Node24</title>
<g id="a_Node000024"><a xlink:title=" ">
<polygon fill="#e0e0e0" stroke="#999999" points="233.5,-19 101.5,-19 101.5,0 233.5,0 233.5,-19"/>
<text text-anchor="middle" x="167.5" y="-7" font-family="Helvetica,sans-Serif" font-size="10.00">interface/language.pb.h</text>
</a>
</g>
</g>
<!-- Node23&#45;&gt;Node24 -->
<g id="edge26_Node000023_Node000024" class="edge">
<title>Node23&#45;&gt;Node24</title>
<g id="a_edge26_Node000023_Node000024"><a xlink:title=" ">
<path fill="none" stroke="#63b8ff" d="M127.43,-54.75C134.35,-47.11 144.57,-35.82 152.95,-26.56"/>
<polygon fill="#63b8ff" stroke="#63b8ff" points="155.6,-28.85 159.72,-19.09 150.41,-24.15 155.6,-28.85"/>
</a>
</g>
</g>
<!-- Node25 -->
<g id="Node000025" class="node">
<title>Node25</title>
<g id="a_Node000025"><a xlink:title=" ">
<polygon fill="#e0e0e0" stroke="#999999" points="83,-19 0,-19 0,0 83,0 83,-19"/>
<text text-anchor="middle" x="41.5" y="-7" font-family="Helvetica,sans-Serif" font-size="10.00">initializer_list</text>
</a>
</g>
</g>
<!-- Node23&#45;&gt;Node25 -->
<g id="edge29_Node000023_Node000025" class="edge">
<title>Node23&#45;&gt;Node25</title>
<g id="a_edge29_Node000023_Node000025"><a xlink:title=" ">
<path fill="none" stroke="#63b8ff" d="M106.97,-54.98C95.1,-46.92 77.04,-34.65 62.89,-25.03"/>
<polygon fill="#63b8ff" stroke="#63b8ff" points="64.5,-21.9 54.26,-19.17 60.56,-27.69 64.5,-21.9"/>
</a>
</g>
</g>
<!-- Node26&#45;&gt;Node4 -->
<g id="edge33_Node000026_Node000004" class="edge">
<title>Node26&#45;&gt;Node4</title>
<g id="a_edge33_Node000026_Node000004"><a xlink:title=" ">
<path fill="none" stroke="#63b8ff" d="M624.94,-164.76C634.03,-156.51 646.77,-143.32 653.5,-129 668.88,-96.26 672.14,-53.44 672.64,-29.26"/>
<polygon fill="#63b8ff" stroke="#63b8ff" points="676.14,-29.03 672.71,-19.01 669.14,-28.99 676.14,-29.03"/>
</a>
</g>
</g>
<!-- Node27 -->
<g id="Node000027" class="node">
<title>Node27</title>
<g id="a_Node000027"><a xlink:title=" ">
<polygon fill="#e0e0e0" stroke="#999999" points="644.5,-129 584.5,-129 584.5,-110 644.5,-110 644.5,-129"/>
<text text-anchor="middle" x="614.5" y="-117" font-family="Helvetica,sans-Serif" font-size="10.00">iostream</text>
</a>
</g>
</g>
<!-- Node26&#45;&gt;Node27 -->
<g id="edge32_Node000026_Node000027" class="edge">
<title>Node26&#45;&gt;Node27</title>
<g id="a_edge32_Node000026_Node000027"><a xlink:title=" ">
<path fill="none" stroke="#63b8ff" d="M614.5,-164.75C614.5,-157.8 614.5,-147.85 614.5,-139.13"/>
<polygon fill="#63b8ff" stroke="#63b8ff" points="618,-139.09 614.5,-129.09 611,-139.09 618,-139.09"/>
</a>
</g>
</g>
<!-- Node26&#45;&gt;Node28 -->
<g id="edge34_Node000026_Node000028" class="edge">
<title>Node26&#45;&gt;Node28</title>
<g id="a_edge34_Node000026_Node000028"><a xlink:title=" ">
<path fill="none" stroke="#63b8ff" d="M590.8,-167.99C557.36,-160.17 494.15,-145.24 431.33,-129.42"/>
<polygon fill="#63b8ff" stroke="#63b8ff" points="431.8,-125.93 421.25,-126.88 430.09,-132.72 431.8,-125.93"/>
</a>
</g>
</g>
<!-- Node29 -->
<g id="Node000029" class="node">
<title>Node29</title>
<g id="a_Node000029"><a xlink:title=" ">
<polygon fill="#e0e0e0" stroke="#999999" points="490,-129 439,-129 439,-110 490,-110 490,-129"/>
<text text-anchor="middle" x="464.5" y="-117" font-family="Helvetica,sans-Serif" font-size="10.00">variant</text>
</a>
</g>
</g>
<!-- Node26&#45;&gt;Node29 -->
<g id="edge35_Node000026_Node000029" class="edge">
<title>Node26&#45;&gt;Node29</title>
<g id="a_edge35_Node000026_Node000029"><a xlink:title=" ">
<path fill="none" stroke="#63b8ff" d="M590.73,-165.1C565.76,-156.28 526.26,-142.32 498.1,-132.37"/>
<polygon fill="#63b8ff" stroke="#63b8ff" points="499.25,-129.07 488.65,-129.03 496.92,-135.67 499.25,-129.07"/>
</a>
</g>
</g>
<!-- Node30 -->
<g id="Node000030" class="node">
<title>Node30</title>
<g id="a_Node000030"><a xlink:title=" ">
<polygon fill="#e0e0e0" stroke="#999999" points="566.5,-129 508.5,-129 508.5,-110 566.5,-110 566.5,-129"/>
<text text-anchor="middle" x="537.5" y="-117" font-family="Helvetica,sans-Serif" font-size="10.00">memory</text>
</a>
</g>
</g>
<!-- Node26&#45;&gt;Node30 -->
<g id="edge36_Node000026_Node000030" class="edge">
<title>Node26&#45;&gt;Node30</title>
<g id="a_edge36_Node000026_Node000030"><a xlink:title=" ">
<path fill="none" stroke="#63b8ff" d="M602.13,-164.98C590.41,-156.92 572.58,-144.65 558.61,-135.03"/>
<polygon fill="#63b8ff" stroke="#63b8ff" points="560.32,-131.96 550.1,-129.17 556.35,-137.72 560.32,-131.96"/>
</a>
</g>
</g>
<!-- Node32 -->
<g id="Node000032" class="node">
<title>Node32</title>
<g id="a_Node000032"><a xlink:title=" ">
<polygon fill="#e0e0e0" stroke="#999999" points="840.5,-129 784.5,-129 784.5,-110 840.5,-110 840.5,-129"/>
<text text-anchor="middle" x="812.5" y="-117" font-family="Helvetica,sans-Serif" font-size="10.00">sstream</text>
</a>
</g>
</g>
<!-- Node31&#45;&gt;Node32 -->
<g id="edge38_Node000031_Node000032" class="edge">
<title>Node31&#45;&gt;Node32</title>
<g id="a_edge38_Node000031_Node000032"><a xlink:title=" ">
<path fill="none" stroke="#63b8ff" d="M746.19,-164.98C758.33,-156.84 776.86,-144.41 791.25,-134.76"/>
<polygon fill="#63b8ff" stroke="#63b8ff" points="793.22,-137.65 799.58,-129.17 789.32,-131.84 793.22,-137.65"/>
</a>
</g>
</g>
<!-- Node33 -->
<g id="Node000033" class="node">
<title>Node33</title>
<g id="a_Node000033"><a xlink:title=" ">
<polygon fill="#e0e0e0" stroke="#999999" points="766,-129 701,-129 701,-110 766,-110 766,-129"/>
<text text-anchor="middle" x="733.5" y="-117" font-family="Helvetica,sans-Serif" font-size="10.00">stdexcept</text>
</a>
</g>
</g>
<!-- Node31&#45;&gt;Node33 -->
<g id="edge39_Node000031_Node000033" class="edge">
<title>Node31&#45;&gt;Node33</title>
<g id="a_edge39_Node000031_Node000033"><a xlink:title=" ">
<path fill="none" stroke="#63b8ff" d="M733.5,-164.75C733.5,-157.8 733.5,-147.85 733.5,-139.13"/>
<polygon fill="#63b8ff" stroke="#63b8ff" points="737,-139.09 733.5,-129.09 730,-139.09 737,-139.09"/>
</a>
</g>
</g>
<!-- Node35&#45;&gt;Node4 -->
<g id="edge49_Node000035_Node000004" class="edge">
<title>Node35&#45;&gt;Node4</title>
<g id="a_edge49_Node000035_Node000004"><a xlink:title=" ">
<path fill="none" stroke="#63b8ff" d="M279.67,-56.78C284.34,-56.17 289.01,-55.57 293.5,-55 421.76,-38.82 574.7,-21.45 640.17,-14.11"/>
<polygon fill="#63b8ff" stroke="#63b8ff" points="640.72,-17.57 650.27,-12.97 639.94,-10.61 640.72,-17.57"/>
</a>
</g>
</g>
<!-- Node35&#45;&gt;Node13 -->
<g id="edge50_Node000035_Node000013" class="edge">
<title>Node35&#45;&gt;Node13</title>
<g id="a_edge50_Node000035_Node000013"><a xlink:title=" ">
<path fill="none" stroke="#63b8ff" d="M241.43,-54.98C251.58,-47.07 266.92,-35.11 279.15,-25.58"/>
<polygon fill="#63b8ff" stroke="#63b8ff" points="281.64,-28.08 287.38,-19.17 277.34,-22.56 281.64,-28.08"/>
</a>
</g>
</g>
<!-- Node35&#45;&gt;Node24 -->
<g id="edge51_Node000035_Node000024" class="edge">
<title>Node35&#45;&gt;Node24</title>
<g id="a_edge51_Node000035_Node000024"><a xlink:title=" ">
<path fill="none" stroke="#63b8ff" d="M220.38,-54.98C211.06,-47.15 197.03,-35.34 185.76,-25.86"/>
<polygon fill="#63b8ff" stroke="#63b8ff" points="187.71,-22.93 177.81,-19.17 183.21,-28.29 187.71,-22.93"/>
</a>
</g>
</g>
<!-- Node40 -->
<g id="Node000040" class="node">
<title>Node40</title>
<g id="a_Node000040"><a xlink:href="IConnect_8h.html" target="_top" xlink:title="Interface for Connect.h.">
<polygon fill="white" stroke="#666666" points="1794.5,-294 1726.5,-294 1726.5,-275 1794.5,-275 1794.5,-294"/>
<text text-anchor="middle" x="1760.5" y="-282" font-family="Helvetica,sans-Serif" font-size="10.00">IConnect.h</text>
</a>
</g>
</g>
<!-- Node39&#45;&gt;Node40 -->
<g id="edge62_Node000039_Node000040" class="edge">
<title>Node39&#45;&gt;Node40</title>
<g id="a_edge62_Node000039_Node000040"><a xlink:title=" ">
<path fill="none" stroke="#63b8ff" d="M1790.8,-384.66C1785.43,-367.09 1773.32,-327.45 1766.14,-303.95"/>
<polygon fill="#63b8ff" stroke="#63b8ff" points="1769.42,-302.7 1763.15,-294.16 1762.72,-304.74 1769.42,-302.7"/>
</a>
</g>
</g>
<!-- Node40&#45;&gt;Node4 -->
<g id="edge65_Node000040_Node000004" class="edge">
<title>Node40&#45;&gt;Node4</title>
<g id="a_edge65_Node000040_Node000004"><a xlink:title=" ">
<path fill="none" stroke="#63b8ff" d="M1766.8,-274.75C1778.97,-256.98 1804.5,-214.98 1804.5,-175.5 1804.5,-175.5 1804.5,-175.5 1804.5,-118.5 1804.5,-71.34 1763.92,-70.82 1719.5,-55 1622.02,-20.29 870.91,-12.13 704.9,-10.74"/>
<polygon fill="#63b8ff" stroke="#63b8ff" points="704.86,-7.24 694.83,-10.66 704.8,-14.24 704.86,-7.24"/>
</a>
</g>
</g>
<!-- Node40&#45;&gt;Node8 -->
<g id="edge63_Node000040_Node000008" class="edge">
<title>Node40&#45;&gt;Node8</title>
<g id="a_edge63_Node000040_Node000008"><a xlink:title=" ">
<path fill="none" stroke="#63b8ff" d="M1726.22,-279.76C1711.8,-278.23 1694.84,-276.47 1679.5,-275 1502.75,-258.08 1291.53,-240.68 1205.21,-233.69"/>
<polygon fill="#63b8ff" stroke="#63b8ff" points="1205.32,-230.19 1195.07,-232.87 1204.75,-237.16 1205.32,-230.19"/>
</a>
</g>
</g>
<!-- Node40&#45;&gt;Node15 -->
<g id="edge64_Node000040_Node000015" class="edge">
<title>Node40&#45;&gt;Node15</title>
<g id="a_edge64_Node000040_Node000015"><a xlink:title=" ">
<path fill="none" stroke="#63b8ff" d="M1750.77,-274.74C1721.55,-248.42 1634.3,-169.85 1596.87,-136.14"/>
<polygon fill="#63b8ff" stroke="#63b8ff" points="1599.05,-133.4 1589.28,-129.31 1594.37,-138.6 1599.05,-133.4"/>
</a>
</g>
</g>
<!-- Node41 -->
<g id="Node000041" class="node">
<title>Node41</title>
<g id="a_Node000041"><a xlink:title=" ">
<polygon fill="#e0e0e0" stroke="#999999" points="1776.5,-239 1726.5,-239 1726.5,-220 1776.5,-220 1776.5,-239"/>
<text text-anchor="middle" x="1751.5" y="-227" font-family="Helvetica,sans-Serif" font-size="10.00">chrono</text>
</a>
</g>
</g>
<!-- Node40&#45;&gt;Node41 -->
<g id="edge66_Node000040_Node000041" class="edge">
<title>Node40&#45;&gt;Node41</title>
<g id="a_edge66_Node000040_Node000041"><a xlink:title=" ">
<path fill="none" stroke="#63b8ff" d="M1759.01,-274.75C1757.83,-267.8 1756.14,-257.85 1754.66,-249.13"/>
<polygon fill="#63b8ff" stroke="#63b8ff" points="1758.08,-248.36 1752.96,-239.09 1751.18,-249.53 1758.08,-248.36"/>
</a>
</g>
</g>
<!-- Node42&#45;&gt;Node4 -->
<g id="edge69_Node000042_Node000004" class="edge">
<title>Node42&#45;&gt;Node4</title>
<g id="a_edge69_Node000042_Node000004"><a xlink:title=" ">
<path fill="none" stroke="#63b8ff" d="M307.27,-219.79C307.02,-189.91 310.82,-91.47 369.5,-55 414.3,-27.16 571.63,-15.75 640.17,-12.02"/>
<polygon fill="#63b8ff" stroke="#63b8ff" points="640.58,-15.5 650.38,-11.48 640.21,-8.51 640.58,-15.5"/>
</a>
</g>
</g>
<!-- Node42&#45;&gt;Node31 -->
<g id="edge68_Node000042_Node000031" class="edge">
<title>Node42&#45;&gt;Node31</title>
<g id="a_edge68_Node000042_Node000031"><a xlink:title=" ">
<path fill="none" stroke="#63b8ff" d="M343.09,-224.07C422.49,-214.19 613.57,-190.42 695.33,-180.25"/>
<polygon fill="#63b8ff" stroke="#63b8ff" points="695.95,-183.7 705.44,-178.99 695.08,-176.75 695.95,-183.7"/>
</a>
</g>
</g>
</g>
</svg>
