<?xml version="1.0" encoding="UTF-8" standalone="no"?>
<!DOCTYPE svg PUBLIC "-//W3C//DTD SVG 1.1//EN"
 "http://www.w3.org/Graphics/SVG/1.1/DTD/svg11.dtd">
<!-- Generated by graphviz version 2.43.0 (0)
 -->
<!-- Title: /home/runner/work/Catena/Catena/sdks/cpp/connections/gRPC/include/interface/IServiceImpl.h Pages: 1 -->
<svg width="1790pt" height="544pt"
 viewBox="0.00 0.00 1790.00 544.00" xmlns="http://www.w3.org/2000/svg" xmlns:xlink="http://www.w3.org/1999/xlink">
<g id="graph0" class="graph" transform="scale(1 1) rotate(0) translate(4 540)">
<title>/home/runner/work/Catena/Catena/sdks/cpp/connections/gRPC/include/interface/IServiceImpl.h</title>
<!-- Node1 -->
<g id="Node000001" class="node">
<title>Node1</title>
<g id="a_Node000001"><a xlink:title="Interface class for the gRPC API Implementation.">
<polygon fill="#999999" stroke="#666666" points="969,-536 766,-536 766,-495 969,-495 969,-536"/>
<text text-anchor="start" x="774" y="-524" font-family="Helvetica,sans-Serif" font-size="10.00">/home/runner/work/Catena</text>
<text text-anchor="start" x="774" y="-513" font-family="Helvetica,sans-Serif" font-size="10.00">/Catena/sdks/cpp/connections</text>
<text text-anchor="middle" x="867.5" y="-502" font-family="Helvetica,sans-Serif" font-size="10.00">/gRPC/include/interface/IServiceImpl.h</text>
</a>
</g>
</g>
<!-- Node2 -->
<g id="Node000002" class="node">
<title>Node2</title>
<g id="a_Node000002"><a xlink:href="ISubscriptionManager_8h.html" target="_top" xlink:title="Interface for managing parameter subscriptions in Catena.">
<polygon fill="white" stroke="#666666" points="1104,-459 973,-459 973,-440 1104,-440 1104,-459"/>
<text text-anchor="middle" x="1038.5" y="-447" font-family="Helvetica,sans-Serif" font-size="10.00">ISubscriptionManager.h</text>
</a>
</g>
</g>
<!-- Node1&#45;&gt;Node2 -->
<g id="edge1_Node000001_Node000002" class="edge">
<title>Node1&#45;&gt;Node2</title>
<g id="a_edge1_Node000001_Node000002"><a xlink:title=" ">
<path fill="none" stroke="#63b8ff" d="M919.73,-494.95C947.88,-484.42 981.72,-471.75 1006.06,-462.64"/>
<polygon fill="#63b8ff" stroke="#63b8ff" points="1007.4,-465.88 1015.54,-459.09 1004.95,-459.32 1007.4,-465.88"/>
</a>
</g>
</g>
<!-- Node39 -->
<g id="Node000039" class="node">
<title>Node39</title>
<g id="a_Node000039"><a xlink:href="IConnectionQueue_8h.html" target="_top" xlink:title="Pure virtual class for the ConnectionQueue object.">
<polygon fill="white" stroke="#666666" points="348,-404 215,-404 215,-385 348,-385 348,-404"/>
<text text-anchor="middle" x="281.5" y="-392" font-family="Helvetica,sans-Serif" font-size="10.00">rpc/IConnectionQueue.h</text>
</a>
</g>
</g>
<!-- Node1&#45;&gt;Node39 -->
<g id="edge60_Node000001_Node000039" class="edge">
<title>Node1&#45;&gt;Node39</title>
<g id="a_edge60_Node000001_Node000039"><a xlink:title=" ">
<path fill="none" stroke="#63b8ff" d="M771.39,-494.98C646.26,-469.57 431.97,-426.06 333.62,-406.08"/>
<polygon fill="#63b8ff" stroke="#63b8ff" points="334.12,-402.61 323.62,-404.05 332.73,-409.47 334.12,-402.61"/>
</a>
</g>
</g>
<!-- Node42 -->
<g id="Node000042" class="node">
<title>Node42</title>
<g id="a_Node000042"><a xlink:href="gRPC_2include_2interface_2ICallData_8h.html" target="_top" xlink:title="Interface class for gRPC CallData classes.">
<polygon fill="white" stroke="#666666" points="71,-239 0,-239 0,-220 71,-220 71,-239"/>
<text text-anchor="middle" x="35.5" y="-227" font-family="Helvetica,sans-Serif" font-size="10.00">ICallData.h</text>
</a>
</g>
</g>
<!-- Node1&#45;&gt;Node42 -->
<g id="edge66_Node000001_Node000042" class="edge">
<title>Node1&#45;&gt;Node42</title>
<g id="a_edge66_Node000001_Node000042"><a xlink:title=" ">
<path fill="none" stroke="#63b8ff" d="M765.62,-509.75C550.49,-498.36 69.5,-465.1 69.5,-395.5 69.5,-395.5 69.5,-395.5 69.5,-338.5 69.5,-305.39 54.78,-269.1 44.71,-248.14"/>
<polygon fill="#63b8ff" stroke="#63b8ff" points="47.83,-246.55 40.23,-239.17 41.57,-249.68 47.83,-246.55"/>
</a>
</g>
</g>
<!-- Node43 -->
<g id="Node000043" class="node">
<title>Node43</title>
<g id="a_Node000043"><a xlink:title=" ">
<polygon fill="#e0e0e0" stroke="#999999" points="1268.5,-459 1122.5,-459 1122.5,-440 1268.5,-440 1268.5,-459"/>
<text text-anchor="middle" x="1195.5" y="-447" font-family="Helvetica,sans-Serif" font-size="10.00">interface/service.grpc.pb.h</text>
</a>
</g>
</g>
<!-- Node1&#45;&gt;Node43 -->
<g id="edge69_Node000001_Node000043" class="edge">
<title>Node1&#45;&gt;Node43</title>
<g id="a_edge69_Node000001_Node000043"><a xlink:title=" ">
<path fill="none" stroke="#63b8ff" d="M967.69,-494.95C1025.09,-483.75 1094.83,-470.14 1141.91,-460.96"/>
<polygon fill="#63b8ff" stroke="#63b8ff" points="1142.75,-464.36 1151.9,-459.01 1141.41,-457.49 1142.75,-464.36"/>
</a>
</g>
</g>
<!-- Node3 -->
<g id="Node000003" class="node">
<title>Node3</title>
<g id="a_Node000003"><a xlink:title=" ">
<polygon fill="#e0e0e0" stroke="#999999" points="1406.5,-294 1374.5,-294 1374.5,-275 1406.5,-275 1406.5,-294"/>
<text text-anchor="middle" x="1390.5" y="-282" font-family="Helvetica,sans-Serif" font-size="10.00">set</text>
</a>
</g>
</g>
<!-- Node2&#45;&gt;Node3 -->
<g id="edge2_Node000002_Node000003" class="edge">
<title>Node2&#45;&gt;Node3</title>
<g id="a_edge2_Node000002_Node000003"><a xlink:title=" ">
<path fill="none" stroke="#63b8ff" d="M1091.27,-439.99C1144.2,-431 1221.73,-416.41 1249.5,-404 1303.77,-379.75 1353.57,-328.24 1376.77,-301.84"/>
<polygon fill="#63b8ff" stroke="#63b8ff" points="1379.47,-304.08 1383.35,-294.22 1374.17,-299.51 1379.47,-304.08"/>
</a>
</g>
</g>
<!-- Node4 -->
<g id="Node000004" class="node">
<title>Node4</title>
<g id="a_Node000004"><a xlink:title=" ">
<polygon fill="#e0e0e0" stroke="#999999" points="702.5,-19 658.5,-19 658.5,0 702.5,0 702.5,-19"/>
<text text-anchor="middle" x="680.5" y="-7" font-family="Helvetica,sans-Serif" font-size="10.00">string</text>
</a>
</g>
</g>
<!-- Node2&#45;&gt;Node4 -->
<g id="edge3_Node000002_Node000004" class="edge">
<title>Node2&#45;&gt;Node4</title>
<g id="a_edge3_Node000002_Node000004"><a xlink:title=" ">
<path fill="none" stroke="#63b8ff" d="M1046.75,-439.93C1072.37,-413.53 1153.44,-331.87 1229.5,-275 1333.17,-197.49 1537.55,-220.11 1469.5,-110 1440.76,-63.5 1412.26,-69.29 1359.5,-55 1235.24,-21.34 830.42,-12.74 712.81,-10.93"/>
<polygon fill="#63b8ff" stroke="#63b8ff" points="712.71,-7.42 702.66,-10.78 712.6,-14.42 712.71,-7.42"/>
</a>
</g>
</g>
<!-- Node5 -->
<g id="Node000005" class="node">
<title>Node5</title>
<g id="a_Node000005"><a xlink:href="IDevice_8h.html" target="_top" xlink:title="Interface for device.">
<polygon fill="white" stroke="#666666" points="613.5,-404 551.5,-404 551.5,-385 613.5,-385 613.5,-404"/>
<text text-anchor="middle" x="582.5" y="-392" font-family="Helvetica,sans-Serif" font-size="10.00">IDevice.h</text>
</a>
</g>
</g>
<!-- Node2&#45;&gt;Node5 -->
<g id="edge4_Node000002_Node000005" class="edge">
<title>Node2&#45;&gt;Node5</title>
<g id="a_edge4_Node000002_Node000005"><a xlink:title=" ">
<path fill="none" stroke="#63b8ff" d="M972.68,-440.85C877.2,-429.75 703.05,-409.51 623.77,-400.3"/>
<polygon fill="#63b8ff" stroke="#63b8ff" points="624.02,-396.8 613.68,-399.12 623.21,-403.76 624.02,-396.8"/>
</a>
</g>
</g>
<!-- Node6 -->
<g id="Node000006" class="node">
<title>Node6</title>
<g id="a_Node000006"><a xlink:href="Authorizer_8h.html" target="_top" xlink:title="Class for handling authorization information.">
<polygon fill="white" stroke="#666666" points="1315,-349 1240,-349 1240,-330 1315,-330 1315,-349"/>
<text text-anchor="middle" x="1277.5" y="-337" font-family="Helvetica,sans-Serif" font-size="10.00">Authorizer.h</text>
</a>
</g>
</g>
<!-- Node2&#45;&gt;Node6 -->
<g id="edge59_Node000002_Node000006" class="edge">
<title>Node2&#45;&gt;Node6</title>
<g id="a_edge59_Node000002_Node000006"><a xlink:title=" ">
<path fill="none" stroke="#63b8ff" d="M1090.05,-439.93C1137,-431.45 1202.28,-417.78 1224.5,-404 1242.92,-392.58 1258.04,-372.55 1267.35,-358.04"/>
<polygon fill="#63b8ff" stroke="#63b8ff" points="1270.38,-359.8 1272.61,-349.44 1264.41,-356.15 1270.38,-359.8"/>
</a>
</g>
</g>
<!-- Node8 -->
<g id="Node000008" class="node">
<title>Node8</title>
<g id="a_Node000008"><a xlink:href="IParam_8h.html" target="_top" xlink:title="Interface for parameters.">
<polygon fill="white" stroke="#666666" points="1025,-239 966,-239 966,-220 1025,-220 1025,-239"/>
<text text-anchor="middle" x="995.5" y="-227" font-family="Helvetica,sans-Serif" font-size="10.00">IParam.h</text>
</a>
</g>
</g>
<!-- Node2&#45;&gt;Node8 -->
<g id="edge58_Node000002_Node000008" class="edge">
<title>Node2&#45;&gt;Node8</title>
<g id="a_edge58_Node000002_Node000008"><a xlink:title=" ">
<path fill="none" stroke="#63b8ff" d="M1036.81,-439.95C1030.49,-407.88 1008.06,-294.2 999.17,-249.12"/>
<polygon fill="#63b8ff" stroke="#63b8ff" points="1002.59,-248.36 997.22,-239.22 995.72,-249.71 1002.59,-248.36"/>
</a>
</g>
</g>
<!-- Node5&#45;&gt;Node4 -->
<g id="edge54_Node000005_Node000004" class="edge">
<title>Node5&#45;&gt;Node4</title>
<g id="a_edge54_Node000005_Node000004"><a xlink:title=" ">
<path fill="none" stroke="#63b8ff" d="M587.78,-384.9C598.23,-367.07 620.5,-324.46 620.5,-285.5 620.5,-285.5 620.5,-285.5 620.5,-228.5 620.5,-175.56 618.12,-160.94 632.5,-110 641.07,-79.66 658.42,-47.27 669.74,-27.96"/>
<polygon fill="#63b8ff" stroke="#63b8ff" points="672.89,-29.52 675.04,-19.14 666.89,-25.91 672.89,-29.52"/>
</a>
</g>
</g>
<!-- Node5&#45;&gt;Node6 -->
<g id="edge5_Node000005_Node000006" class="edge">
<title>Node5&#45;&gt;Node6</title>
<g id="a_edge5_Node000005_Node000006"><a xlink:title=" ">
<path fill="none" stroke="#63b8ff" d="M613.71,-391.12C724.04,-382.71 1096.12,-354.33 1229.46,-344.16"/>
<polygon fill="#63b8ff" stroke="#63b8ff" points="1230.05,-347.63 1239.76,-343.38 1229.52,-340.65 1230.05,-347.63"/>
</a>
</g>
</g>
<!-- Node5&#45;&gt;Node8 -->
<g id="edge47_Node000005_Node000008" class="edge">
<title>Node5&#45;&gt;Node8</title>
<g id="a_edge47_Node000005_Node000008"><a xlink:title=" ">
<path fill="none" stroke="#63b8ff" d="M604.12,-384.97C672.4,-358.02 883.65,-274.65 964.02,-242.92"/>
<polygon fill="#63b8ff" stroke="#63b8ff" points="965.58,-246.07 973.59,-239.15 963.01,-239.56 965.58,-246.07"/>
</a>
</g>
</g>
<!-- Node15 -->
<g id="Node000015" class="node">
<title>Node15</title>
<g id="a_Node000015"><a xlink:title=" ">
<polygon fill="#e0e0e0" stroke="#999999" points="761,-129 642,-129 642,-110 761,-110 761,-129"/>
<text text-anchor="middle" x="701.5" y="-117" font-family="Helvetica,sans-Serif" font-size="10.00">interface/device.pb.h</text>
</a>
</g>
</g>
<!-- Node5&#45;&gt;Node15 -->
<g id="edge53_Node000005_Node000015" class="edge">
<title>Node5&#45;&gt;Node15</title>
<g id="a_edge53_Node000005_Node000015"><a xlink:title=" ">
<path fill="none" stroke="#63b8ff" d="M599.57,-384.76C627.65,-369.03 680.5,-333.1 680.5,-285.5 680.5,-285.5 680.5,-285.5 680.5,-228.5 680.5,-196.46 689.52,-160.03 695.73,-138.73"/>
<polygon fill="#63b8ff" stroke="#63b8ff" points="699.11,-139.65 698.67,-129.07 692.41,-137.62 699.11,-139.65"/>
</a>
</g>
</g>
<!-- Node26 -->
<g id="Node000026" class="node">
<title>Node26</title>
<g id="a_Node000026"><a xlink:href="Path_8h.html" target="_top" xlink:title="Handles Path objects used to uniquely identify and access OIDs.">
<polygon fill="white" stroke="#666666" points="554,-184 507,-184 507,-165 554,-165 554,-184"/>
<text text-anchor="middle" x="530.5" y="-172" font-family="Helvetica,sans-Serif" font-size="10.00">Path.h</text>
</a>
</g>
</g>
<!-- Node5&#45;&gt;Node26 -->
<g id="edge46_Node000005_Node000026" class="edge">
<title>Node5&#45;&gt;Node26</title>
<g id="a_edge46_Node000005_Node000026"><a xlink:title=" ">
<path fill="none" stroke="#63b8ff" d="M580.46,-384.95C572.81,-352.88 545.69,-239.2 534.94,-194.12"/>
<polygon fill="#63b8ff" stroke="#63b8ff" points="538.31,-193.14 532.58,-184.22 531.5,-194.76 538.31,-193.14"/>
</a>
</g>
</g>
<!-- Node28 -->
<g id="Node000028" class="node">
<title>Node28</title>
<g id="a_Node000028"><a xlink:title=" ">
<polygon fill="#e0e0e0" stroke="#999999" points="323,-129 276,-129 276,-110 323,-110 323,-129"/>
<text text-anchor="middle" x="299.5" y="-117" font-family="Helvetica,sans-Serif" font-size="10.00">vector</text>
</a>
</g>
</g>
<!-- Node5&#45;&gt;Node28 -->
<g id="edge55_Node000005_Node000028" class="edge">
<title>Node5&#45;&gt;Node28</title>
<g id="a_edge55_Node000005_Node000028"><a xlink:title=" ">
<path fill="none" stroke="#63b8ff" d="M573.4,-384.73C532.9,-345.66 368.64,-187.2 315.89,-136.31"/>
<polygon fill="#63b8ff" stroke="#63b8ff" points="318.05,-133.53 308.42,-129.11 313.19,-138.57 318.05,-133.53"/>
</a>
</g>
</g>
<!-- Node31 -->
<g id="Node000031" class="node">
<title>Node31</title>
<g id="a_Node000031"><a xlink:href="Status_8h.html" target="_top" xlink:title="Communicates failure status using gRPC&#39;s codes.">
<polygon fill="white" stroke="#666666" points="254.5,-184 198.5,-184 198.5,-165 254.5,-165 254.5,-184"/>
<text text-anchor="middle" x="226.5" y="-172" font-family="Helvetica,sans-Serif" font-size="10.00">Status.h</text>
</a>
</g>
</g>
<!-- Node5&#45;&gt;Node31 -->
<g id="edge51_Node000005_Node000031" class="edge">
<title>Node5&#45;&gt;Node31</title>
<g id="a_edge51_Node000005_Node000031"><a xlink:title=" ">
<path fill="none" stroke="#63b8ff" d="M551.37,-394.07C476.13,-394.73 287.54,-391.98 245.5,-349 204.59,-307.17 214.59,-229.73 221.97,-194.2"/>
<polygon fill="#63b8ff" stroke="#63b8ff" points="225.43,-194.76 224.21,-184.23 218.6,-193.22 225.43,-194.76"/>
</a>
</g>
</g>
<!-- Node35 -->
<g id="Node000035" class="node">
<title>Node35</title>
<g id="a_Node000035"><a xlink:href="ILanguagePack_8h.html" target="_top" xlink:title="Interface for language packs.">
<polygon fill="white" stroke="#666666" points="1551.5,-74 1453.5,-74 1453.5,-55 1551.5,-55 1551.5,-74"/>
<text text-anchor="middle" x="1502.5" y="-62" font-family="Helvetica,sans-Serif" font-size="10.00">ILanguagePack.h</text>
</a>
</g>
</g>
<!-- Node5&#45;&gt;Node35 -->
<g id="edge48_Node000005_Node000035" class="edge">
<title>Node5&#45;&gt;Node35</title>
<g id="a_edge48_Node000005_Node000035"><a xlink:title=" ">
<path fill="none" stroke="#63b8ff" d="M613.66,-391.45C701,-385 954.8,-361.36 1153.5,-294 1303.55,-243.13 1357.58,-241.14 1469.5,-129 1482.23,-116.25 1491.13,-97.56 1496.45,-83.76"/>
<polygon fill="#63b8ff" stroke="#63b8ff" points="1499.75,-84.93 1499.83,-74.34 1493.16,-82.57 1499.75,-84.93"/>
</a>
</g>
</g>
<!-- Node36 -->
<g id="Node000036" class="node">
<title>Node36</title>
<g id="a_Node000036"><a xlink:title=" ">
<polygon fill="#e0e0e0" stroke="#999999" points="336,-349 255,-349 255,-330 336,-330 336,-349"/>
<text text-anchor="middle" x="295.5" y="-337" font-family="Helvetica,sans-Serif" font-size="10.00">vdk/signals.h</text>
</a>
</g>
</g>
<!-- Node5&#45;&gt;Node36 -->
<g id="edge52_Node000005_Node000036" class="edge">
<title>Node5&#45;&gt;Node36</title>
<g id="a_edge52_Node000005_Node000036"><a xlink:title=" ">
<path fill="none" stroke="#63b8ff" d="M551.24,-387.73C501.94,-378.62 405.64,-360.84 346.3,-349.88"/>
<polygon fill="#63b8ff" stroke="#63b8ff" points="346.86,-346.43 336.39,-348.05 345.59,-353.31 346.86,-346.43"/>
</a>
</g>
</g>
<!-- Node37 -->
<g id="Node000037" class="node">
<title>Node37</title>
<g id="a_Node000037"><a xlink:title=" ">
<polygon fill="#e0e0e0" stroke="#999999" points="416.5,-349 354.5,-349 354.5,-330 416.5,-330 416.5,-349"/>
<text text-anchor="middle" x="385.5" y="-337" font-family="Helvetica,sans-Serif" font-size="10.00">coroutine</text>
</a>
</g>
</g>
<!-- Node5&#45;&gt;Node37 -->
<g id="edge56_Node000005_Node000037" class="edge">
<title>Node5&#45;&gt;Node37</title>
<g id="a_edge56_Node000005_Node000037"><a xlink:title=" ">
<path fill="none" stroke="#63b8ff" d="M551.28,-385.1C517.57,-376.03 463.7,-361.54 426.57,-351.55"/>
<polygon fill="#63b8ff" stroke="#63b8ff" points="427.14,-348.08 416.57,-348.86 425.32,-354.84 427.14,-348.08"/>
</a>
</g>
</g>
<!-- Node38 -->
<g id="Node000038" class="node">
<title>Node38</title>
<g id="a_Node000038"><a xlink:title=" ">
<polygon fill="#e0e0e0" stroke="#999999" points="482.5,-349 434.5,-349 434.5,-330 482.5,-330 482.5,-349"/>
<text text-anchor="middle" x="458.5" y="-337" font-family="Helvetica,sans-Serif" font-size="10.00">mutex</text>
</a>
</g>
</g>
<!-- Node5&#45;&gt;Node38 -->
<g id="edge57_Node000005_Node000038" class="edge">
<title>Node5&#45;&gt;Node38</title>
<g id="a_edge57_Node000005_Node000038"><a xlink:title=" ">
<path fill="none" stroke="#63b8ff" d="M562.58,-384.98C542.45,-376.38 511.12,-362.99 488.09,-353.15"/>
<polygon fill="#63b8ff" stroke="#63b8ff" points="489.36,-349.88 478.79,-349.17 486.6,-356.32 489.36,-349.88"/>
</a>
</g>
</g>
<!-- Node6&#45;&gt;Node3 -->
<g id="edge45_Node000006_Node000003" class="edge">
<title>Node6&#45;&gt;Node3</title>
<g id="a_edge45_Node000006_Node000003"><a xlink:title=" ">
<path fill="none" stroke="#63b8ff" d="M1295.66,-329.98C1314.4,-321.19 1343.8,-307.4 1364.9,-297.51"/>
<polygon fill="#63b8ff" stroke="#63b8ff" points="1366.66,-300.55 1374.22,-293.13 1363.68,-294.21 1366.66,-300.55"/>
</a>
</g>
</g>
<!-- Node7 -->
<g id="Node000007" class="node">
<title>Node7</title>
<g id="a_Node000007"><a xlink:href="IAuthorizer_8h.html" target="_top" xlink:title="Interface for the Authorizer class.">
<polygon fill="white" stroke="#666666" points="1144.5,-294 1066.5,-294 1066.5,-275 1144.5,-275 1144.5,-294"/>
<text text-anchor="middle" x="1105.5" y="-282" font-family="Helvetica,sans-Serif" font-size="10.00">IAuthorizer.h</text>
</a>
</g>
</g>
<!-- Node6&#45;&gt;Node7 -->
<g id="edge6_Node000006_Node000007" class="edge">
<title>Node6&#45;&gt;Node7</title>
<g id="a_edge6_Node000006_Node000007"><a xlink:title=" ">
<path fill="none" stroke="#63b8ff" d="M1249.87,-329.98C1220.99,-321.09 1175.49,-307.07 1143.3,-297.15"/>
<polygon fill="#63b8ff" stroke="#63b8ff" points="1143.94,-293.68 1133.35,-294.08 1141.88,-300.37 1143.94,-293.68"/>
</a>
</g>
</g>
<!-- Node21 -->
<g id="Node000021" class="node">
<title>Node21</title>
<g id="a_Node000021"><a xlink:title=" ">
<polygon fill="#e0e0e0" stroke="#999999" points="1350,-74 1285,-74 1285,-55 1350,-55 1350,-74"/>
<text text-anchor="middle" x="1317.5" y="-62" font-family="Helvetica,sans-Serif" font-size="10.00">functional</text>
</a>
</g>
</g>
<!-- Node6&#45;&gt;Node21 -->
<g id="edge44_Node000006_Node000021" class="edge">
<title>Node6&#45;&gt;Node21</title>
<g id="a_edge44_Node000006_Node000021"><a xlink:title=" ">
<path fill="none" stroke="#63b8ff" d="M1290.85,-329.81C1302.16,-321.79 1318.01,-308.9 1327.5,-294 1343.33,-269.15 1346.5,-259.96 1346.5,-230.5 1346.5,-230.5 1346.5,-230.5 1346.5,-173.5 1346.5,-140.95 1334.06,-104.71 1325.47,-83.57"/>
<polygon fill="#63b8ff" stroke="#63b8ff" points="1328.65,-82.09 1321.53,-74.25 1322.2,-84.82 1328.65,-82.09"/>
</a>
</g>
</g>
<!-- Node34 -->
<g id="Node000034" class="node">
<title>Node34</title>
<g id="a_Node000034"><a xlink:title=" ">
<polygon fill="#e0e0e0" stroke="#999999" points="1318.5,-294 1238.5,-294 1238.5,-275 1318.5,-275 1318.5,-294"/>
<text text-anchor="middle" x="1278.5" y="-282" font-family="Helvetica,sans-Serif" font-size="10.00">jwt&#45;cpp/jwt.h</text>
</a>
</g>
</g>
<!-- Node6&#45;&gt;Node34 -->
<g id="edge43_Node000006_Node000034" class="edge">
<title>Node6&#45;&gt;Node34</title>
<g id="a_edge43_Node000006_Node000034"><a xlink:title=" ">
<path fill="none" stroke="#63b8ff" d="M1277.67,-329.75C1277.8,-322.8 1277.98,-312.85 1278.15,-304.13"/>
<polygon fill="#63b8ff" stroke="#63b8ff" points="1281.65,-304.15 1278.34,-294.09 1274.65,-304.02 1281.65,-304.15"/>
</a>
</g>
</g>
<!-- Node7&#45;&gt;Node8 -->
<g id="edge7_Node000007_Node000008" class="edge">
<title>Node7&#45;&gt;Node8</title>
<g id="a_edge7_Node000007_Node000008"><a xlink:title=" ">
<path fill="none" stroke="#63b8ff" d="M1087.83,-274.98C1070.21,-266.5 1042.92,-253.35 1022.57,-243.54"/>
<polygon fill="#63b8ff" stroke="#63b8ff" points="1024.02,-240.36 1013.49,-239.17 1020.98,-246.66 1024.02,-240.36"/>
</a>
</g>
</g>
<!-- Node9 -->
<g id="Node000009" class="node">
<title>Node9</title>
<g id="a_Node000009"><a xlink:href="Enums_8h.html" target="_top" xlink:title="tools for using EnumDecorators.">
<polygon fill="white" stroke="#666666" points="981,-184 922,-184 922,-165 981,-165 981,-184"/>
<text text-anchor="middle" x="951.5" y="-172" font-family="Helvetica,sans-Serif" font-size="10.00">Enums.h</text>
</a>
</g>
</g>
<!-- Node7&#45;&gt;Node9 -->
<g id="edge42_Node000007_Node000009" class="edge">
<title>Node7&#45;&gt;Node9</title>
<g id="a_edge42_Node000007_Node000009"><a xlink:title=" ">
<path fill="none" stroke="#63b8ff" d="M1096.73,-274.58C1083.7,-261.6 1058.09,-237.19 1033.5,-220 1016.3,-207.98 995.5,-196.73 979.16,-188.54"/>
<polygon fill="#63b8ff" stroke="#63b8ff" points="980.63,-185.37 970.11,-184.1 977.54,-191.65 980.63,-185.37"/>
</a>
</g>
</g>
<!-- Node19 -->
<g id="Node000019" class="node">
<title>Node19</title>
<g id="a_Node000019"><a xlink:href="IParamDescriptor_8h.html" target="_top" xlink:title="Interface class for ParamDescriptor.">
<polygon fill="white" stroke="#666666" points="1250,-184 1141,-184 1141,-165 1250,-165 1250,-184"/>
<text text-anchor="middle" x="1195.5" y="-172" font-family="Helvetica,sans-Serif" font-size="10.00">IParamDescriptor.h</text>
</a>
</g>
</g>
<!-- Node7&#45;&gt;Node19 -->
<g id="edge41_Node000007_Node000019" class="edge">
<title>Node7&#45;&gt;Node19</title>
<g id="a_edge41_Node000007_Node000019"><a xlink:title=" ">
<path fill="none" stroke="#63b8ff" d="M1112.87,-274.66C1127.9,-256.61 1162.35,-215.28 1181.69,-192.08"/>
<polygon fill="#63b8ff" stroke="#63b8ff" points="1184.57,-194.08 1188.28,-184.16 1179.19,-189.6 1184.57,-194.08"/>
</a>
</g>
</g>
<!-- Node8&#45;&gt;Node9 -->
<g id="edge8_Node000008_Node000009" class="edge">
<title>Node8&#45;&gt;Node9</title>
<g id="a_edge8_Node000008_Node000009"><a xlink:title=" ">
<path fill="none" stroke="#63b8ff" d="M988.23,-219.75C981.96,-212.18 972.71,-201.05 965.07,-191.84"/>
<polygon fill="#63b8ff" stroke="#63b8ff" points="967.71,-189.55 958.63,-184.09 962.33,-194.02 967.71,-189.55"/>
</a>
</g>
</g>
<!-- Node16 -->
<g id="Node000016" class="node">
<title>Node16</title>
<g id="a_Node000016"><a xlink:href="IConstraint_8h.html" target="_top" xlink:title="Interface for constraints.">
<polygon fill="white" stroke="#666666" points="1084,-184 1005,-184 1005,-165 1084,-165 1084,-184"/>
<text text-anchor="middle" x="1044.5" y="-172" font-family="Helvetica,sans-Serif" font-size="10.00">IConstraint.h</text>
</a>
</g>
</g>
<!-- Node8&#45;&gt;Node16 -->
<g id="edge17_Node000008_Node000016" class="edge">
<title>Node8&#45;&gt;Node16</title>
<g id="a_edge17_Node000008_Node000016"><a xlink:title=" ">
<path fill="none" stroke="#63b8ff" d="M1003.59,-219.75C1010.66,-212.11 1021.09,-200.82 1029.65,-191.56"/>
<polygon fill="#63b8ff" stroke="#63b8ff" points="1032.34,-193.81 1036.56,-184.09 1027.2,-189.06 1032.34,-193.81"/>
</a>
</g>
</g>
<!-- Node17 -->
<g id="Node000017" class="node">
<title>Node17</title>
<g id="a_Node000017"><a xlink:title=" ">
<polygon fill="#e0e0e0" stroke="#999999" points="1253,-129 1134,-129 1134,-110 1253,-110 1253,-129"/>
<text text-anchor="middle" x="1193.5" y="-117" font-family="Helvetica,sans-Serif" font-size="10.00">interface/param.pb.h</text>
</a>
</g>
</g>
<!-- Node8&#45;&gt;Node17 -->
<g id="edge40_Node000008_Node000017" class="edge">
<title>Node8&#45;&gt;Node17</title>
<g id="a_edge40_Node000008_Node000017"><a xlink:title=" ">
<path fill="none" stroke="#63b8ff" d="M1016.32,-219.89C1036.23,-211.44 1066.91,-197.84 1092.5,-184 1121.1,-168.54 1152.6,-148.16 1172.69,-134.72"/>
<polygon fill="#63b8ff" stroke="#63b8ff" points="1174.73,-137.56 1181.06,-129.07 1170.82,-131.76 1174.73,-137.56"/>
</a>
</g>
</g>
<!-- Node8&#45;&gt;Node19 -->
<g id="edge20_Node000008_Node000019" class="edge">
<title>Node8&#45;&gt;Node19</title>
<g id="a_edge20_Node000008_Node000019"><a xlink:title=" ">
<path fill="none" stroke="#63b8ff" d="M1025.01,-220.68C1058.92,-211.69 1114.84,-196.87 1153.34,-186.67"/>
<polygon fill="#63b8ff" stroke="#63b8ff" points="1154.44,-190 1163.21,-184.06 1152.65,-183.23 1154.44,-190"/>
</a>
</g>
</g>
<!-- Node8&#45;&gt;Node26 -->
<g id="edge31_Node000008_Node000026" class="edge">
<title>Node8&#45;&gt;Node26</title>
<g id="a_edge31_Node000008_Node000026"><a xlink:title=" ">
<path fill="none" stroke="#63b8ff" d="M965.7,-225.1C883.06,-215.68 651.3,-189.27 564.18,-179.34"/>
<polygon fill="#63b8ff" stroke="#63b8ff" points="564.38,-175.84 554.05,-178.18 563.59,-182.79 564.38,-175.84"/>
</a>
</g>
</g>
<!-- Node8&#45;&gt;Node31 -->
<g id="edge37_Node000008_Node000031" class="edge">
<title>Node8&#45;&gt;Node31</title>
<g id="a_edge37_Node000008_Node000031"><a xlink:title=" ">
<path fill="none" stroke="#63b8ff" d="M965.83,-226.45C846.23,-218.21 399.62,-187.43 265.09,-178.16"/>
<polygon fill="#63b8ff" stroke="#63b8ff" points="265.07,-174.65 254.86,-177.45 264.59,-181.63 265.07,-174.65"/>
</a>
</g>
</g>
<!-- Node10 -->
<g id="Node000010" class="node">
<title>Node10</title>
<g id="a_Node000010"><a xlink:href="EnumDecorator_8h.html" target="_top" xlink:title="Provides an enum with useful extra functionality.">
<polygon fill="white" stroke="#666666" points="923.5,-129 779.5,-129 779.5,-110 923.5,-110 923.5,-129"/>
<text text-anchor="middle" x="851.5" y="-117" font-family="Helvetica,sans-Serif" font-size="10.00">patterns/EnumDecorator.h</text>
</a>
</g>
</g>
<!-- Node9&#45;&gt;Node10 -->
<g id="edge9_Node000009_Node000010" class="edge">
<title>Node9&#45;&gt;Node10</title>
<g id="a_edge9_Node000009_Node000010"><a xlink:title=" ">
<path fill="none" stroke="#63b8ff" d="M935.43,-164.98C919.64,-156.61 895.28,-143.7 876.87,-133.95"/>
<polygon fill="#63b8ff" stroke="#63b8ff" points="878.33,-130.76 867.86,-129.17 875.06,-136.95 878.33,-130.76"/>
</a>
</g>
</g>
<!-- Node12 -->
<g id="Node000012" class="node">
<title>Node12</title>
<g id="a_Node000012"><a xlink:title=" ">
<polygon fill="#e0e0e0" stroke="#999999" points="1012.5,-74 962.5,-74 962.5,-55 1012.5,-55 1012.5,-74"/>
<text text-anchor="middle" x="987.5" y="-62" font-family="Helvetica,sans-Serif" font-size="10.00">cstdint</text>
</a>
</g>
</g>
<!-- Node9&#45;&gt;Node12 -->
<g id="edge16_Node000009_Node000012" class="edge">
<title>Node9&#45;&gt;Node12</title>
<g id="a_edge16_Node000009_Node000012"><a xlink:title=" ">
<path fill="none" stroke="#63b8ff" d="M953.88,-164.81C957.3,-152.52 963.9,-129.39 970.5,-110 973.46,-101.29 977.06,-91.75 980.18,-83.74"/>
<polygon fill="#63b8ff" stroke="#63b8ff" points="983.49,-84.88 983.92,-74.29 976.98,-82.31 983.49,-84.88"/>
</a>
</g>
</g>
<!-- Node9&#45;&gt;Node15 -->
<g id="edge15_Node000009_Node000015" class="edge">
<title>Node9&#45;&gt;Node15</title>
<g id="a_edge15_Node000009_Node000015"><a xlink:title=" ">
<path fill="none" stroke="#63b8ff" d="M921.84,-167.21C879.89,-158.32 802.65,-141.94 751.68,-131.14"/>
<polygon fill="#63b8ff" stroke="#63b8ff" points="752.36,-127.71 741.85,-129.05 750.91,-134.55 752.36,-127.71"/>
</a>
</g>
</g>
<!-- Node10&#45;&gt;Node4 -->
<g id="edge13_Node000010_Node000004" class="edge">
<title>Node10&#45;&gt;Node4</title>
<g id="a_edge13_Node000010_Node000004"><a xlink:title=" ">
<path fill="none" stroke="#63b8ff" d="M779.34,-112.15C751.19,-106.23 720.66,-95.03 699.5,-74 687.65,-62.22 683.13,-43.38 681.44,-29.27"/>
<polygon fill="#63b8ff" stroke="#63b8ff" points="684.92,-28.88 680.6,-19.2 677.94,-29.46 684.92,-28.88"/>
</a>
</g>
</g>
<!-- Node11 -->
<g id="Node000011" class="node">
<title>Node11</title>
<g id="a_Node000011"><a xlink:href="ReflectionMacros_8h.html" target="_top" xlink:title="adapted from https://github.com/tapika/TestCppReflect">
<polygon fill="white" stroke="#666666" points="906.5,-74 796.5,-74 796.5,-55 906.5,-55 906.5,-74"/>
<text text-anchor="middle" x="851.5" y="-62" font-family="Helvetica,sans-Serif" font-size="10.00">ReflectionMacros.h</text>
</a>
</g>
</g>
<!-- Node10&#45;&gt;Node11 -->
<g id="edge10_Node000010_Node000011" class="edge">
<title>Node10&#45;&gt;Node11</title>
<g id="a_edge10_Node000010_Node000011"><a xlink:title=" ">
<path fill="none" stroke="#63b8ff" d="M851.5,-109.75C851.5,-102.8 851.5,-92.85 851.5,-84.13"/>
<polygon fill="#63b8ff" stroke="#63b8ff" points="855,-84.09 851.5,-74.09 848,-84.09 855,-84.09"/>
</a>
</g>
</g>
<!-- Node10&#45;&gt;Node12 -->
<g id="edge11_Node000010_Node000012" class="edge">
<title>Node10&#45;&gt;Node12</title>
<g id="a_edge11_Node000010_Node000012"><a xlink:title=" ">
<path fill="none" stroke="#63b8ff" d="M873.35,-109.98C895.62,-101.3 930.4,-87.75 955.72,-77.88"/>
<polygon fill="#63b8ff" stroke="#63b8ff" points="957.21,-81.06 965.25,-74.17 954.66,-74.54 957.21,-81.06"/>
</a>
</g>
</g>
<!-- Node13 -->
<g id="Node000013" class="node">
<title>Node13</title>
<g id="a_Node000013"><a xlink:title=" ">
<polygon fill="#e0e0e0" stroke="#999999" points="1530,-19 1437,-19 1437,0 1530,0 1530,-19"/>
<text text-anchor="middle" x="1483.5" y="-7" font-family="Helvetica,sans-Serif" font-size="10.00">unordered_map</text>
</a>
</g>
</g>
<!-- Node10&#45;&gt;Node13 -->
<g id="edge12_Node000010_Node000013" class="edge">
<title>Node10&#45;&gt;Node13</title>
<g id="a_edge12_Node000010_Node000013"><a xlink:title=" ">
<path fill="none" stroke="#63b8ff" d="M863.87,-109.76C886.62,-93.87 934.49,-61.3 953.5,-55 1039.96,-26.32 1307.95,-15.42 1426.31,-11.92"/>
<polygon fill="#63b8ff" stroke="#63b8ff" points="1426.71,-15.41 1436.61,-11.63 1426.51,-8.42 1426.71,-15.41"/>
</a>
</g>
</g>
<!-- Node14 -->
<g id="Node000014" class="node">
<title>Node14</title>
<g id="a_Node000014"><a xlink:title=" ">
<polygon fill="#e0e0e0" stroke="#999999" points="778,-74 709,-74 709,-55 778,-55 778,-74"/>
<text text-anchor="middle" x="743.5" y="-62" font-family="Helvetica,sans-Serif" font-size="10.00">type_traits</text>
</a>
</g>
</g>
<!-- Node10&#45;&gt;Node14 -->
<g id="edge14_Node000010_Node000014" class="edge">
<title>Node10&#45;&gt;Node14</title>
<g id="a_edge14_Node000010_Node000014"><a xlink:title=" ">
<path fill="none" stroke="#63b8ff" d="M834.15,-109.98C816.93,-101.54 790.3,-88.47 770.35,-78.68"/>
<polygon fill="#63b8ff" stroke="#63b8ff" points="771.69,-75.43 761.17,-74.17 768.6,-81.72 771.69,-75.43"/>
</a>
</g>
</g>
<!-- Node16&#45;&gt;Node17 -->
<g id="edge18_Node000016_Node000017" class="edge">
<title>Node16&#45;&gt;Node17</title>
<g id="a_edge18_Node000016_Node000017"><a xlink:title=" ">
<path fill="none" stroke="#63b8ff" d="M1068.44,-164.98C1093.06,-156.23 1131.62,-142.51 1159.42,-132.62"/>
<polygon fill="#63b8ff" stroke="#63b8ff" points="1160.88,-135.82 1169.12,-129.17 1158.53,-129.22 1160.88,-135.82"/>
</a>
</g>
</g>
<!-- Node18 -->
<g id="Node000018" class="node">
<title>Node18</title>
<g id="a_Node000018"><a xlink:title=" ">
<polygon fill="#e0e0e0" stroke="#999999" points="1115.5,-129 979.5,-129 979.5,-110 1115.5,-110 1115.5,-129"/>
<text text-anchor="middle" x="1047.5" y="-117" font-family="Helvetica,sans-Serif" font-size="10.00">interface/constraint.pb.h</text>
</a>
</g>
</g>
<!-- Node16&#45;&gt;Node18 -->
<g id="edge19_Node000016_Node000018" class="edge">
<title>Node16&#45;&gt;Node18</title>
<g id="a_edge19_Node000016_Node000018"><a xlink:title=" ">
<path fill="none" stroke="#63b8ff" d="M1045,-164.75C1045.39,-157.8 1045.95,-147.85 1046.45,-139.13"/>
<polygon fill="#63b8ff" stroke="#63b8ff" points="1049.94,-139.27 1047.01,-129.09 1042.95,-138.88 1049.94,-139.27"/>
</a>
</g>
</g>
<!-- Node19&#45;&gt;Node17 -->
<g id="edge30_Node000019_Node000017" class="edge">
<title>Node19&#45;&gt;Node17</title>
<g id="a_edge30_Node000019_Node000017"><a xlink:title=" ">
<path fill="none" stroke="#63b8ff" d="M1195.17,-164.75C1194.91,-157.8 1194.53,-147.85 1194.2,-139.13"/>
<polygon fill="#63b8ff" stroke="#63b8ff" points="1197.7,-138.95 1193.82,-129.09 1190.7,-139.21 1197.7,-138.95"/>
</a>
</g>
</g>
<!-- Node20 -->
<g id="Node000020" class="node">
<title>Node20</title>
<g id="a_Node000020"><a xlink:href="Tags_8h.html" target="_top" xlink:title="Tags to differentiate collections with the same type for template specialization.">
<polygon fill="white" stroke="#666666" points="1318,-129 1271,-129 1271,-110 1318,-110 1318,-129"/>
<text text-anchor="middle" x="1294.5" y="-117" font-family="Helvetica,sans-Serif" font-size="10.00">Tags.h</text>
</a>
</g>
</g>
<!-- Node19&#45;&gt;Node20 -->
<g id="edge21_Node000019_Node000020" class="edge">
<title>Node19&#45;&gt;Node20</title>
<g id="a_edge21_Node000019_Node000020"><a xlink:title=" ">
<path fill="none" stroke="#63b8ff" d="M1211.41,-164.98C1227.05,-156.61 1251.16,-143.7 1269.38,-133.95"/>
<polygon fill="#63b8ff" stroke="#63b8ff" points="1271.14,-136.98 1278.3,-129.17 1267.84,-130.8 1271.14,-136.98"/>
</a>
</g>
</g>
<!-- Node22 -->
<g id="Node000022" class="node">
<title>Node22</title>
<g id="a_Node000022"><a xlink:href="PolyglotText_8h.html" target="_top" xlink:title="Polyglot Text serialization and deserialization to protobuf.">
<polygon fill="white" stroke="#666666" points="1460.5,-129 1374.5,-129 1374.5,-110 1460.5,-110 1460.5,-129"/>
<text text-anchor="middle" x="1417.5" y="-117" font-family="Helvetica,sans-Serif" font-size="10.00">PolyglotText.h</text>
</a>
</g>
</g>
<!-- Node19&#45;&gt;Node22 -->
<g id="edge24_Node000019_Node000022" class="edge">
<title>Node19&#45;&gt;Node22</title>
<g id="a_edge24_Node000019_Node000022"><a xlink:title=" ">
<path fill="none" stroke="#63b8ff" d="M1231.17,-164.98C1269.33,-155.87 1329.97,-141.4 1371.65,-131.45"/>
<polygon fill="#63b8ff" stroke="#63b8ff" points="1372.64,-134.81 1381.55,-129.08 1371.01,-128 1372.64,-134.81"/>
</a>
</g>
</g>
<!-- Node20&#45;&gt;Node4 -->
<g id="edge23_Node000020_Node000004" class="edge">
<title>Node20&#45;&gt;Node4</title>
<g id="a_edge23_Node000020_Node000004"><a xlink:title=" ">
<path fill="none" stroke="#63b8ff" d="M1270.76,-112.09C1267.98,-111.37 1265.18,-110.66 1262.5,-110 1155.84,-83.67 1129.65,-74.35 1021.5,-55 908.68,-34.81 773.31,-19.88 712.65,-13.67"/>
<polygon fill="#63b8ff" stroke="#63b8ff" points="712.85,-10.17 702.55,-12.65 712.15,-17.14 712.85,-10.17"/>
</a>
</g>
</g>
<!-- Node20&#45;&gt;Node21 -->
<g id="edge22_Node000020_Node000021" class="edge">
<title>Node20&#45;&gt;Node21</title>
<g id="a_edge22_Node000020_Node000021"><a xlink:title=" ">
<path fill="none" stroke="#63b8ff" d="M1298.3,-109.75C1301.41,-102.57 1305.92,-92.18 1309.79,-83.27"/>
<polygon fill="#63b8ff" stroke="#63b8ff" points="1313,-84.66 1313.77,-74.09 1306.58,-81.87 1313,-84.66"/>
</a>
</g>
</g>
<!-- Node23 -->
<g id="Node000023" class="node">
<title>Node23</title>
<g id="a_Node000023"><a xlink:href="IPolyglotText_8h.html" target="_top" xlink:title="Catena&#39;s multi&#45;language text interface.">
<polygon fill="white" stroke="#666666" points="1659,-74 1570,-74 1570,-55 1659,-55 1659,-74"/>
<text text-anchor="middle" x="1614.5" y="-62" font-family="Helvetica,sans-Serif" font-size="10.00">IPolyglotText.h</text>
</a>
</g>
</g>
<!-- Node22&#45;&gt;Node23 -->
<g id="edge25_Node000022_Node000023" class="edge">
<title>Node22&#45;&gt;Node23</title>
<g id="a_edge25_Node000022_Node000023"><a xlink:title=" ">
<path fill="none" stroke="#63b8ff" d="M1449.15,-109.98C1482.66,-100.97 1535.7,-86.7 1572.64,-76.76"/>
<polygon fill="#63b8ff" stroke="#63b8ff" points="1573.85,-80.06 1582.6,-74.08 1572.03,-73.3 1573.85,-80.06"/>
</a>
</g>
</g>
<!-- Node23&#45;&gt;Node4 -->
<g id="edge28_Node000023_Node000004" class="edge">
<title>Node23&#45;&gt;Node4</title>
<g id="a_edge28_Node000023_Node000004"><a xlink:title=" ">
<path fill="none" stroke="#63b8ff" d="M1569.76,-56.08C1566.63,-55.68 1563.52,-55.31 1560.5,-55 1230.69,-20.8 828.5,-12.61 712.95,-10.91"/>
<polygon fill="#63b8ff" stroke="#63b8ff" points="712.72,-7.4 702.67,-10.76 712.62,-14.4 712.72,-7.4"/>
</a>
</g>
</g>
<!-- Node23&#45;&gt;Node13 -->
<g id="edge27_Node000023_Node000013" class="edge">
<title>Node23&#45;&gt;Node13</title>
<g id="a_edge27_Node000023_Node000013"><a xlink:title=" ">
<path fill="none" stroke="#63b8ff" d="M1593.45,-54.98C1572.09,-46.34 1538.8,-32.87 1514.44,-23.02"/>
<polygon fill="#63b8ff" stroke="#63b8ff" points="1515.51,-19.68 1504.93,-19.17 1512.89,-26.17 1515.51,-19.68"/>
</a>
</g>
</g>
<!-- Node24 -->
<g id="Node000024" class="node">
<title>Node24</title>
<g id="a_Node000024"><a xlink:title=" ">
<polygon fill="#e0e0e0" stroke="#999999" points="1680.5,-19 1548.5,-19 1548.5,0 1680.5,0 1680.5,-19"/>
<text text-anchor="middle" x="1614.5" y="-7" font-family="Helvetica,sans-Serif" font-size="10.00">interface/language.pb.h</text>
</a>
</g>
</g>
<!-- Node23&#45;&gt;Node24 -->
<g id="edge26_Node000023_Node000024" class="edge">
<title>Node23&#45;&gt;Node24</title>
<g id="a_edge26_Node000023_Node000024"><a xlink:title=" ">
<path fill="none" stroke="#63b8ff" d="M1614.5,-54.75C1614.5,-47.8 1614.5,-37.85 1614.5,-29.13"/>
<polygon fill="#63b8ff" stroke="#63b8ff" points="1618,-29.09 1614.5,-19.09 1611,-29.09 1618,-29.09"/>
</a>
</g>
</g>
<!-- Node25 -->
<g id="Node000025" class="node">
<title>Node25</title>
<g id="a_Node000025"><a xlink:title=" ">
<polygon fill="#e0e0e0" stroke="#999999" points="1782,-19 1699,-19 1699,0 1782,0 1782,-19"/>
<text text-anchor="middle" x="1740.5" y="-7" font-family="Helvetica,sans-Serif" font-size="10.00">initializer_list</text>
</a>
</g>
</g>
<!-- Node23&#45;&gt;Node25 -->
<g id="edge29_Node000023_Node000025" class="edge">
<title>Node23&#45;&gt;Node25</title>
<g id="a_edge29_Node000023_Node000025"><a xlink:title=" ">
<path fill="none" stroke="#63b8ff" d="M1634.74,-54.98C1655.2,-46.38 1687.03,-32.99 1710.43,-23.15"/>
<polygon fill="#63b8ff" stroke="#63b8ff" points="1712.03,-26.27 1719.89,-19.17 1709.31,-19.82 1712.03,-26.27"/>
</a>
</g>
</g>
<!-- Node26&#45;&gt;Node4 -->
<g id="edge33_Node000026_Node000004" class="edge">
<title>Node26&#45;&gt;Node4</title>
<g id="a_edge33_Node000026_Node000004"><a xlink:title=" ">
<path fill="none" stroke="#63b8ff" d="M506.96,-167.75C463.51,-157.02 374.71,-134.54 370.5,-129 365.39,-122.28 365.52,-116.82 370.5,-110 435.81,-20.45 582.94,-9.71 648.24,-9.58"/>
<polygon fill="#63b8ff" stroke="#63b8ff" points="648.33,-13.08 658.35,-9.65 648.38,-6.08 648.33,-13.08"/>
</a>
</g>
</g>
<!-- Node27 -->
<g id="Node000027" class="node">
<title>Node27</title>
<g id="a_Node000027"><a xlink:title=" ">
<polygon fill="#e0e0e0" stroke="#999999" points="585.5,-129 525.5,-129 525.5,-110 585.5,-110 585.5,-129"/>
<text text-anchor="middle" x="555.5" y="-117" font-family="Helvetica,sans-Serif" font-size="10.00">iostream</text>
</a>
</g>
</g>
<!-- Node26&#45;&gt;Node27 -->
<g id="edge32_Node000026_Node000027" class="edge">
<title>Node26&#45;&gt;Node27</title>
<g id="a_edge32_Node000026_Node000027"><a xlink:title=" ">
<path fill="none" stroke="#63b8ff" d="M534.63,-164.75C538.01,-157.57 542.92,-147.18 547.12,-138.27"/>
<polygon fill="#63b8ff" stroke="#63b8ff" points="550.35,-139.63 551.45,-129.09 544.02,-136.64 550.35,-139.63"/>
</a>
</g>
</g>
<!-- Node26&#45;&gt;Node28 -->
<g id="edge34_Node000026_Node000028" class="edge">
<title>Node26&#45;&gt;Node28</title>
<g id="a_edge34_Node000026_Node000028"><a xlink:title=" ">
<path fill="none" stroke="#63b8ff" d="M506.65,-168.03C465.3,-158.54 380.22,-139.02 332.98,-128.18"/>
<polygon fill="#63b8ff" stroke="#63b8ff" points="333.75,-124.77 323.22,-125.94 332.19,-131.59 333.75,-124.77"/>
</a>
</g>
</g>
<!-- Node29 -->
<g id="Node000029" class="node">
<title>Node29</title>
<g id="a_Node000029"><a xlink:title=" ">
<polygon fill="#e0e0e0" stroke="#999999" points="431,-129 380,-129 380,-110 431,-110 431,-129"/>
<text text-anchor="middle" x="405.5" y="-117" font-family="Helvetica,sans-Serif" font-size="10.00">variant</text>
</a>
</g>
</g>
<!-- Node26&#45;&gt;Node29 -->
<g id="edge35_Node000026_Node000029" class="edge">
<title>Node26&#45;&gt;Node29</title>
<g id="a_edge35_Node000026_Node000029"><a xlink:title=" ">
<path fill="none" stroke="#63b8ff" d="M510.42,-164.98C490.13,-156.38 458.54,-142.99 435.33,-133.15"/>
<polygon fill="#63b8ff" stroke="#63b8ff" points="436.52,-129.85 425.95,-129.17 433.79,-136.3 436.52,-129.85"/>
</a>
</g>
</g>
<!-- Node30 -->
<g id="Node000030" class="node">
<title>Node30</title>
<g id="a_Node000030"><a xlink:title=" ">
<polygon fill="#e0e0e0" stroke="#999999" points="507.5,-129 449.5,-129 449.5,-110 507.5,-110 507.5,-129"/>
<text text-anchor="middle" x="478.5" y="-117" font-family="Helvetica,sans-Serif" font-size="10.00">memory</text>
</a>
</g>
</g>
<!-- Node26&#45;&gt;Node30 -->
<g id="edge36_Node000026_Node000030" class="edge">
<title>Node26&#45;&gt;Node30</title>
<g id="a_edge36_Node000026_Node000030"><a xlink:title=" ">
<path fill="none" stroke="#63b8ff" d="M521.91,-164.75C514.34,-157.03 503.12,-145.6 493.99,-136.28"/>
<polygon fill="#63b8ff" stroke="#63b8ff" points="496.43,-133.78 486.93,-129.09 491.43,-138.68 496.43,-133.78"/>
</a>
</g>
</g>
<!-- Node32 -->
<g id="Node000032" class="node">
<title>Node32</title>
<g id="a_Node000032"><a xlink:title=" ">
<polygon fill="#e0e0e0" stroke="#999999" points="257.5,-129 201.5,-129 201.5,-110 257.5,-110 257.5,-129"/>
<text text-anchor="middle" x="229.5" y="-117" font-family="Helvetica,sans-Serif" font-size="10.00">sstream</text>
</a>
</g>
</g>
<!-- Node31&#45;&gt;Node32 -->
<g id="edge38_Node000031_Node000032" class="edge">
<title>Node31&#45;&gt;Node32</title>
<g id="a_edge38_Node000031_Node000032"><a xlink:title=" ">
<path fill="none" stroke="#63b8ff" d="M227,-164.75C227.39,-157.8 227.95,-147.85 228.45,-139.13"/>
<polygon fill="#63b8ff" stroke="#63b8ff" points="231.94,-139.27 229.01,-129.09 224.95,-138.88 231.94,-139.27"/>
</a>
</g>
</g>
<!-- Node33 -->
<g id="Node000033" class="node">
<title>Node33</title>
<g id="a_Node000033"><a xlink:title=" ">
<polygon fill="#e0e0e0" stroke="#999999" points="183,-129 118,-129 118,-110 183,-110 183,-129"/>
<text text-anchor="middle" x="150.5" y="-117" font-family="Helvetica,sans-Serif" font-size="10.00">stdexcept</text>
</a>
</g>
</g>
<!-- Node31&#45;&gt;Node33 -->
<g id="edge39_Node000031_Node000033" class="edge">
<title>Node31&#45;&gt;Node33</title>
<g id="a_edge39_Node000031_Node000033"><a xlink:title=" ">
<path fill="none" stroke="#63b8ff" d="M214.29,-164.98C202.72,-156.92 185.12,-144.65 171.34,-135.03"/>
<polygon fill="#63b8ff" stroke="#63b8ff" points="173.14,-132.02 162.93,-129.17 169.13,-137.76 173.14,-132.02"/>
</a>
</g>
</g>
<!-- Node35&#45;&gt;Node4 -->
<g id="edge49_Node000035_Node000004" class="edge">
<title>Node35&#45;&gt;Node4</title>
<g id="a_edge49_Node000035_Node000004"><a xlink:title=" ">
<path fill="none" stroke="#63b8ff" d="M1453.36,-56.51C1448.68,-55.95 1444,-55.44 1439.5,-55 1158.75,-27.87 817.86,-15.03 712.84,-11.52"/>
<polygon fill="#63b8ff" stroke="#63b8ff" points="712.7,-8.02 702.59,-11.18 712.47,-15.01 712.7,-8.02"/>
</a>
</g>
</g>
<!-- Node35&#45;&gt;Node13 -->
<g id="edge50_Node000035_Node000013" class="edge">
<title>Node35&#45;&gt;Node13</title>
<g id="a_edge50_Node000035_Node000013"><a xlink:title=" ">
<path fill="none" stroke="#63b8ff" d="M1499.36,-54.75C1496.82,-47.65 1493.14,-37.4 1489.97,-28.56"/>
<polygon fill="#63b8ff" stroke="#63b8ff" points="1493.25,-27.32 1486.58,-19.09 1486.66,-29.68 1493.25,-27.32"/>
</a>
</g>
</g>
<!-- Node40 -->
<g id="Node000040" class="node">
<title>Node40</title>
<g id="a_Node000040"><a xlink:href="IConnect_8h.html" target="_top" xlink:title="Interface for Connect.h.">
<polygon fill="white" stroke="#666666" points="198.5,-294 130.5,-294 130.5,-275 198.5,-275 198.5,-294"/>
<text text-anchor="middle" x="164.5" y="-282" font-family="Helvetica,sans-Serif" font-size="10.00">IConnect.h</text>
</a>
</g>
</g>
<!-- Node39&#45;&gt;Node40 -->
<g id="edge61_Node000039_Node000040" class="edge">
<title>Node39&#45;&gt;Node40</title>
<g id="a_edge61_Node000039_Node000040"><a xlink:title=" ">
<path fill="none" stroke="#63b8ff" d="M264.74,-384.89C250.01,-376.83 228.48,-363.84 212.5,-349 197.67,-335.23 184.1,-316.43 175.2,-302.87"/>
<polygon fill="#63b8ff" stroke="#63b8ff" points="177.91,-300.62 169.59,-294.06 172.01,-304.38 177.91,-300.62"/>
</a>
</g>
</g>
<!-- Node40&#45;&gt;Node4 -->
<g id="edge64_Node000040_Node000004" class="edge">
<title>Node40&#45;&gt;Node4</title>
<g id="a_edge64_Node000040_Node000004"><a xlink:title=" ">
<path fill="none" stroke="#63b8ff" d="M156.64,-274.85C132.78,-247.52 65.37,-161.82 108.5,-110 178.16,-26.31 537.66,-13.01 648.16,-10.9"/>
<polygon fill="#63b8ff" stroke="#63b8ff" points="648.41,-14.39 658.35,-10.72 648.29,-7.4 648.41,-14.39"/>
</a>
</g>
</g>
<!-- Node40&#45;&gt;Node8 -->
<g id="edge62_Node000040_Node000008" class="edge">
<title>Node40&#45;&gt;Node8</title>
<g id="a_edge62_Node000040_Node000008"><a xlink:title=" ">
<path fill="none" stroke="#63b8ff" d="M198.63,-281.32C331.52,-272.85 814.05,-242.07 955.98,-233.02"/>
<polygon fill="#63b8ff" stroke="#63b8ff" points="956.22,-236.51 965.98,-232.38 955.78,-229.53 956.22,-236.51"/>
</a>
</g>
</g>
<!-- Node40&#45;&gt;Node15 -->
<g id="edge63_Node000040_Node000015" class="edge">
<title>Node40&#45;&gt;Node15</title>
<g id="a_edge63_Node000040_Node000015"><a xlink:title=" ">
<path fill="none" stroke="#63b8ff" d="M198.66,-277.16C268.27,-263.77 431.08,-230.01 562.5,-184 603.49,-169.65 648.9,-147.69 676.31,-133.72"/>
<polygon fill="#63b8ff" stroke="#63b8ff" points="677.93,-136.82 685.22,-129.13 674.72,-130.59 677.93,-136.82"/>
</a>
</g>
</g>
<!-- Node41 -->
<g id="Node000041" class="node">
<title>Node41</title>
<g id="a_Node000041"><a xlink:title=" ">
<polygon fill="#e0e0e0" stroke="#999999" points="189.5,-239 139.5,-239 139.5,-220 189.5,-220 189.5,-239"/>
<text text-anchor="middle" x="164.5" y="-227" font-family="Helvetica,sans-Serif" font-size="10.00">chrono</text>
</a>
</g>
</g>
<!-- Node40&#45;&gt;Node41 -->
<g id="edge65_Node000040_Node000041" class="edge">
<title>Node40&#45;&gt;Node41</title>
<g id="a_edge65_Node000040_Node000041"><a xlink:title=" ">
<path fill="none" stroke="#63b8ff" d="M164.5,-274.75C164.5,-267.8 164.5,-257.85 164.5,-249.13"/>
<polygon fill="#63b8ff" stroke="#63b8ff" points="168,-249.09 164.5,-239.09 161,-249.09 168,-249.09"/>
</a>
</g>
</g>
<!-- Node42&#45;&gt;Node4 -->
<g id="edge68_Node000042_Node000004" class="edge">
<title>Node42&#45;&gt;Node4</title>
<g id="a_edge68_Node000042_Node000004"><a xlink:title=" ">
<path fill="none" stroke="#63b8ff" d="M34.37,-219.9C31.13,-191.23 25.05,-98.26 75.5,-55 119.16,-17.56 528.77,-11.61 648.06,-10.68"/>
<polygon fill="#63b8ff" stroke="#63b8ff" points="648.38,-14.17 658.36,-10.6 648.33,-7.17 648.38,-14.17"/>
</a>
</g>
</g>
<!-- Node42&#45;&gt;Node31 -->
<g id="edge67_Node000042_Node000031" class="edge">
<title>Node42&#45;&gt;Node31</title>
<g id="a_edge67_Node000042_Node000031"><a xlink:title=" ">
<path fill="none" stroke="#63b8ff" d="M66.19,-219.98C99.4,-210.77 152.4,-196.06 188.29,-186.1"/>
<polygon fill="#63b8ff" stroke="#63b8ff" points="189.68,-189.35 198.38,-183.3 187.81,-182.6 189.68,-189.35"/>
</a>
</g>
</g>
</g>
</svg>
