<?xml version="1.0" encoding="UTF-8" standalone="no"?>
<!DOCTYPE svg PUBLIC "-//W3C//DTD SVG 1.1//EN"
 "http://www.w3.org/Graphics/SVG/1.1/DTD/svg11.dtd">
<!-- Generated by graphviz version 2.43.0 (0)
 -->
<!-- Title: /home/runner/work/Catena/Catena/sdks/cpp/connections/REST/include/interface/ICallData.h Pages: 1 -->
<svg width="2417pt" height="214pt"
 viewBox="0.00 0.00 2417.00 214.00" xmlns="http://www.w3.org/2000/svg" xmlns:xlink="http://www.w3.org/1999/xlink">
<g id="graph0" class="graph" transform="scale(1 1) rotate(0) translate(4 210)">
<title>/home/runner/work/Catena/Catena/sdks/cpp/connections/REST/include/interface/ICallData.h</title>
<!-- Node1 -->
<g id="Node000001" class="node">
<title>Node1</title>
<g id="a_Node000001"><a xlink:title="Interface class for REST RPCs.">
<polygon fill="#999999" stroke="#666666" points="1266.5,-206 1080.5,-206 1080.5,-165 1266.5,-165 1266.5,-206"/>
<text text-anchor="start" x="1088.5" y="-194" font-family="Helvetica,sans-Serif" font-size="10.00">/home/runner/work/Catena</text>
<text text-anchor="start" x="1088.5" y="-183" font-family="Helvetica,sans-Serif" font-size="10.00">/Catena/sdks/cpp/connections</text>
<text text-anchor="middle" x="1173.5" y="-172" font-family="Helvetica,sans-Serif" font-size="10.00">/REST/include/interface/ICallData.h</text>
</a>
</g>
</g>
<!-- Node2 -->
<g id="Node000002" class="node">
<title>Node2</title>
<g id="a_Node000002"><a xlink:href="REST_2include_2ServiceImpl_8h_source.html" target="_top" xlink:title=" ">
<polygon fill="white" stroke="#666666" points="161,-123.5 0,-123.5 0,-82.5 161,-82.5 161,-123.5"/>
<text text-anchor="start" x="8" y="-111.5" font-family="Helvetica,sans-Serif" font-size="10.00">/home/runner/work/Catena</text>
<text text-anchor="start" x="8" y="-100.5" font-family="Helvetica,sans-Serif" font-size="10.00">/Catena/sdks/cpp/connections</text>
<text text-anchor="middle" x="80.5" y="-89.5" font-family="Helvetica,sans-Serif" font-size="10.00">/REST/include/ServiceImpl.h</text>
</a>
</g>
</g>
<!-- Node1&#45;&gt;Node2 -->
<g id="edge1_Node000001_Node000002" class="edge">
<title>Node1&#45;&gt;Node2</title>
<g id="a_edge1_Node000001_Node000002"><a xlink:title=" ">
<path fill="none" stroke="#63b8ff" d="M1070.19,-181.61C850.13,-174.99 341.27,-157.1 170.5,-129 162.02,-127.6 153.19,-125.71 144.53,-123.6"/>
<polygon fill="#63b8ff" stroke="#63b8ff" points="1070.35,-185.12 1080.45,-181.92 1070.56,-178.12 1070.35,-185.12"/>
</a>
</g>
</g>
<!-- Node3 -->
<g id="Node000003" class="node">
<title>Node3</title>
<g id="a_Node000003"><a xlink:href="REST_2include_2controllers_2AddLanguage_8h.html" target="_top" xlink:title="Implements REST AddLanguage RPC.">
<polygon fill="white" stroke="#666666" points="394,-123.5 179,-123.5 179,-82.5 394,-82.5 394,-123.5"/>
<text text-anchor="start" x="187" y="-111.5" font-family="Helvetica,sans-Serif" font-size="10.00">/home/runner/work/Catena</text>
<text text-anchor="start" x="187" y="-100.5" font-family="Helvetica,sans-Serif" font-size="10.00">/Catena/sdks/cpp/connections</text>
<text text-anchor="middle" x="286.5" y="-89.5" font-family="Helvetica,sans-Serif" font-size="10.00">/REST/include/controllers/AddLanguage.h</text>
</a>
</g>
</g>
<!-- Node1&#45;&gt;Node3 -->
<g id="edge2_Node000001_Node000003" class="edge">
<title>Node1&#45;&gt;Node3</title>
<g id="a_edge2_Node000001_Node000003"><a xlink:title=" ">
<path fill="none" stroke="#63b8ff" d="M1070.31,-181.6C922.11,-176.41 640.71,-162.73 403.5,-129 393.01,-127.51 382.06,-125.62 371.24,-123.55"/>
<polygon fill="#63b8ff" stroke="#63b8ff" points="1070.2,-185.1 1080.31,-181.95 1070.44,-178.1 1070.2,-185.1"/>
</a>
</g>
</g>
<!-- Node4 -->
<g id="Node000004" class="node">
<title>Node4</title>
<g id="a_Node000004"><a xlink:href="REST_2include_2controllers_2BasicParamInfoRequest_8h.html" target="_top" xlink:title="Implements REST BasicParamInfoRequest controller.">
<polygon fill="white" stroke="#666666" points="609,-129 412,-129 412,-77 609,-77 609,-129"/>
<text text-anchor="start" x="420" y="-117" font-family="Helvetica,sans-Serif" font-size="10.00">/home/runner/work/Catena</text>
<text text-anchor="start" x="420" y="-106" font-family="Helvetica,sans-Serif" font-size="10.00">/Catena/sdks/cpp/connections</text>
<text text-anchor="start" x="420" y="-95" font-family="Helvetica,sans-Serif" font-size="10.00">/REST/include/controllers/BasicParam</text>
<text text-anchor="middle" x="510.5" y="-84" font-family="Helvetica,sans-Serif" font-size="10.00">InfoRequest.h</text>
</a>
</g>
</g>
<!-- Node1&#45;&gt;Node4 -->
<g id="edge3_Node000001_Node000004" class="edge">
<title>Node1&#45;&gt;Node4</title>
<g id="a_edge3_Node000001_Node000004"><a xlink:title=" ">
<path fill="none" stroke="#63b8ff" d="M1069.96,-178.12C958.09,-170.3 774.85,-154.8 618.5,-129 615.46,-128.5 612.38,-127.96 609.28,-127.4"/>
<polygon fill="#63b8ff" stroke="#63b8ff" points="1070.01,-181.63 1080.22,-178.83 1070.49,-174.65 1070.01,-181.63"/>
</a>
</g>
</g>
<!-- Node5 -->
<g id="Node000005" class="node">
<title>Node5</title>
<g id="a_Node000005"><a xlink:href="connections_2REST_2include_2controllers_2Connect_8h.html" target="_top" xlink:title="Implements REST Connect RPC.">
<polygon fill="white" stroke="#666666" points="816,-123.5 627,-123.5 627,-82.5 816,-82.5 816,-123.5"/>
<text text-anchor="start" x="635" y="-111.5" font-family="Helvetica,sans-Serif" font-size="10.00">/home/runner/work/Catena</text>
<text text-anchor="start" x="635" y="-100.5" font-family="Helvetica,sans-Serif" font-size="10.00">/Catena/sdks/cpp/connections</text>
<text text-anchor="middle" x="721.5" y="-89.5" font-family="Helvetica,sans-Serif" font-size="10.00">/REST/include/controllers/Connect.h</text>
</a>
</g>
</g>
<!-- Node1&#45;&gt;Node5 -->
<g id="edge4_Node000001_Node000005" class="edge">
<title>Node1&#45;&gt;Node5</title>
<g id="a_edge4_Node000001_Node000005"><a xlink:title=" ">
<path fill="none" stroke="#63b8ff" d="M1070.39,-170.2C1000.94,-160.05 907.42,-145.35 825.5,-129 817.21,-127.35 808.59,-125.49 800.01,-123.56"/>
<polygon fill="#63b8ff" stroke="#63b8ff" points="1070.06,-173.69 1080.46,-171.67 1071.07,-166.77 1070.06,-173.69"/>
</a>
</g>
</g>
<!-- Node6 -->
<g id="Node000006" class="node">
<title>Node6</title>
<g id="a_Node000006"><a xlink:href="REST_2include_2controllers_2DeviceRequest_8h.html" target="_top" xlink:title="Implements REST DeviceRequest RPC.">
<polygon fill="white" stroke="#666666" points="1057,-123.5 834,-123.5 834,-82.5 1057,-82.5 1057,-123.5"/>
<text text-anchor="start" x="842" y="-111.5" font-family="Helvetica,sans-Serif" font-size="10.00">/home/runner/work/Catena</text>
<text text-anchor="start" x="842" y="-100.5" font-family="Helvetica,sans-Serif" font-size="10.00">/Catena/sdks/cpp/connections</text>
<text text-anchor="middle" x="945.5" y="-89.5" font-family="Helvetica,sans-Serif" font-size="10.00">/REST/include/controllers/DeviceRequest.h</text>
</a>
</g>
</g>
<!-- Node1&#45;&gt;Node6 -->
<g id="edge5_Node000001_Node000006" class="edge">
<title>Node1&#45;&gt;Node6</title>
<g id="a_edge5_Node000001_Node000006"><a xlink:title=" ">
<path fill="none" stroke="#63b8ff" d="M1108.19,-161.44C1074.24,-149.45 1033.2,-134.97 1000.84,-123.54"/>
<polygon fill="#63b8ff" stroke="#63b8ff" points="1107.42,-164.88 1118.02,-164.91 1109.75,-158.28 1107.42,-164.88"/>
</a>
</g>
</g>
<!-- Node7 -->
<g id="Node000007" class="node">
<title>Node7</title>
<g id="a_Node000007"><a xlink:href="REST_2include_2controllers_2GetParam_8h_source.html" target="_top" xlink:title=" ">
<polygon fill="white" stroke="#666666" points="1272,-123.5 1075,-123.5 1075,-82.5 1272,-82.5 1272,-123.5"/>
<text text-anchor="start" x="1083" y="-111.5" font-family="Helvetica,sans-Serif" font-size="10.00">/home/runner/work/Catena</text>
<text text-anchor="start" x="1083" y="-100.5" font-family="Helvetica,sans-Serif" font-size="10.00">/Catena/sdks/cpp/connections</text>
<text text-anchor="middle" x="1173.5" y="-89.5" font-family="Helvetica,sans-Serif" font-size="10.00">/REST/include/controllers/GetParam.h</text>
</a>
</g>
</g>
<!-- Node1&#45;&gt;Node7 -->
<g id="edge6_Node000001_Node000007" class="edge">
<title>Node1&#45;&gt;Node7</title>
<g id="a_edge6_Node000001_Node000007"><a xlink:title=" ">
<path fill="none" stroke="#63b8ff" d="M1173.5,-154.37C1173.5,-144.1 1173.5,-132.9 1173.5,-123.67"/>
<polygon fill="#63b8ff" stroke="#63b8ff" points="1170,-154.6 1173.5,-164.6 1177,-154.6 1170,-154.6"/>
</a>
</g>
</g>
<!-- Node8 -->
<g id="Node000008" class="node">
<title>Node8</title>
<g id="a_Node000008"><a xlink:href="REST_2include_2controllers_2GetPopulatedSlots_8h.html" target="_top" xlink:title="Implements REST GetPopulatedSlots RPC.">
<polygon fill="white" stroke="#666666" points="1496.5,-129 1290.5,-129 1290.5,-77 1496.5,-77 1496.5,-129"/>
<text text-anchor="start" x="1298.5" y="-117" font-family="Helvetica,sans-Serif" font-size="10.00">/home/runner/work/Catena</text>
<text text-anchor="start" x="1298.5" y="-106" font-family="Helvetica,sans-Serif" font-size="10.00">/Catena/sdks/cpp/connections</text>
<text text-anchor="start" x="1298.5" y="-95" font-family="Helvetica,sans-Serif" font-size="10.00">/REST/include/controllers/GetPopulated</text>
<text text-anchor="middle" x="1393.5" y="-84" font-family="Helvetica,sans-Serif" font-size="10.00">Slots.h</text>
</a>
</g>
</g>
<!-- Node1&#45;&gt;Node8 -->
<g id="edge7_Node000001_Node000008" class="edge">
<title>Node1&#45;&gt;Node8</title>
<g id="a_edge7_Node000001_Node000008"><a xlink:title=" ">
<path fill="none" stroke="#63b8ff" d="M1236.61,-161.41C1264.28,-151.28 1296.82,-139.38 1325.07,-129.04"/>
<polygon fill="#63b8ff" stroke="#63b8ff" points="1235.23,-158.19 1227.04,-164.91 1237.63,-164.76 1235.23,-158.19"/>
</a>
</g>
</g>
<!-- Node9 -->
<g id="Node000009" class="node">
<title>Node9</title>
<g id="a_Node000009"><a xlink:href="REST_2include_2controllers_2GetValue_8h.html" target="_top" xlink:title="Implements REST GetValue RPC.">
<polygon fill="white" stroke="#666666" points="1708.5,-123.5 1514.5,-123.5 1514.5,-82.5 1708.5,-82.5 1708.5,-123.5"/>
<text text-anchor="start" x="1522.5" y="-111.5" font-family="Helvetica,sans-Serif" font-size="10.00">/home/runner/work/Catena</text>
<text text-anchor="start" x="1522.5" y="-100.5" font-family="Helvetica,sans-Serif" font-size="10.00">/Catena/sdks/cpp/connections</text>
<text text-anchor="middle" x="1611.5" y="-89.5" font-family="Helvetica,sans-Serif" font-size="10.00">/REST/include/controllers/GetValue.h</text>
</a>
</g>
</g>
<!-- Node1&#45;&gt;Node9 -->
<g id="edge8_Node000001_Node000009" class="edge">
<title>Node1&#45;&gt;Node9</title>
<g id="a_edge8_Node000001_Node000009"><a xlink:title=" ">
<path fill="none" stroke="#63b8ff" d="M1276.77,-169.03C1342.46,-158.75 1429.21,-144.36 1505.5,-129 1513.84,-127.32 1522.53,-125.46 1531.17,-123.53"/>
<polygon fill="#63b8ff" stroke="#63b8ff" points="1276.16,-165.59 1266.82,-170.58 1277.24,-172.5 1276.16,-165.59"/>
</a>
</g>
</g>
<!-- Node10 -->
<g id="Node000010" class="node">
<title>Node10</title>
<g id="a_Node000010"><a xlink:href="REST_2include_2controllers_2LanguagePackRequest_8h.html" target="_top" xlink:title="Implements REST LanguagePackRequest RPC.">
<polygon fill="white" stroke="#666666" points="1936.5,-129 1726.5,-129 1726.5,-77 1936.5,-77 1936.5,-129"/>
<text text-anchor="start" x="1734.5" y="-117" font-family="Helvetica,sans-Serif" font-size="10.00">/home/runner/work/Catena</text>
<text text-anchor="start" x="1734.5" y="-106" font-family="Helvetica,sans-Serif" font-size="10.00">/Catena/sdks/cpp/connections</text>
<text text-anchor="start" x="1734.5" y="-95" font-family="Helvetica,sans-Serif" font-size="10.00">/REST/include/controllers/LanguagePack</text>
<text text-anchor="middle" x="1831.5" y="-84" font-family="Helvetica,sans-Serif" font-size="10.00">Request.h</text>
</a>
</g>
</g>
<!-- Node1&#45;&gt;Node10 -->
<g id="edge9_Node000001_Node000010" class="edge">
<title>Node1&#45;&gt;Node10</title>
<g id="a_edge9_Node000001_Node000010"><a xlink:title=" ">
<path fill="none" stroke="#63b8ff" d="M1276.89,-177.48C1386.66,-169.21 1565.01,-153.42 1717.5,-129 1720.4,-128.54 1723.34,-128.04 1726.3,-127.53"/>
<polygon fill="#63b8ff" stroke="#63b8ff" points="1276.52,-174 1266.81,-178.24 1277.04,-180.98 1276.52,-174"/>
</a>
</g>
</g>
<!-- Node11 -->
<g id="Node000011" class="node">
<title>Node11</title>
<g id="a_Node000011"><a xlink:href="REST_2include_2controllers_2ListLanguages_8h_source.html" target="_top" xlink:title=" ">
<polygon fill="white" stroke="#666666" points="2174,-123.5 1955,-123.5 1955,-82.5 2174,-82.5 2174,-123.5"/>
<text text-anchor="start" x="1963" y="-111.5" font-family="Helvetica,sans-Serif" font-size="10.00">/home/runner/work/Catena</text>
<text text-anchor="start" x="1963" y="-100.5" font-family="Helvetica,sans-Serif" font-size="10.00">/Catena/sdks/cpp/connections</text>
<text text-anchor="middle" x="2064.5" y="-89.5" font-family="Helvetica,sans-Serif" font-size="10.00">/REST/include/controllers/ListLanguages.h</text>
</a>
</g>
</g>
<!-- Node1&#45;&gt;Node11 -->
<g id="edge10_Node000001_Node000011" class="edge">
<title>Node1&#45;&gt;Node11</title>
<g id="a_edge10_Node000001_Node000011"><a xlink:title=" ">
<path fill="none" stroke="#63b8ff" d="M1276.64,-181.52C1425.12,-176.23 1707.45,-162.41 1945.5,-129 1956.16,-127.5 1967.3,-125.61 1978.3,-123.54"/>
<polygon fill="#63b8ff" stroke="#63b8ff" points="1276.49,-178.02 1266.62,-181.87 1276.73,-185.02 1276.49,-178.02"/>
</a>
</g>
</g>
<!-- Node12 -->
<g id="Node000012" class="node">
<title>Node12</title>
<g id="a_Node000012"><a xlink:href="REST_2include_2controllers_2MultiSetValue_8h.html" target="_top" xlink:title="Implements REST MultiSetValue RPC.">
<polygon fill="white" stroke="#666666" points="2409,-123.5 2192,-123.5 2192,-82.5 2409,-82.5 2409,-123.5"/>
<text text-anchor="start" x="2200" y="-111.5" font-family="Helvetica,sans-Serif" font-size="10.00">/home/runner/work/Catena</text>
<text text-anchor="start" x="2200" y="-100.5" font-family="Helvetica,sans-Serif" font-size="10.00">/Catena/sdks/cpp/connections</text>
<text text-anchor="middle" x="2300.5" y="-89.5" font-family="Helvetica,sans-Serif" font-size="10.00">/REST/include/controllers/MultiSetValue.h</text>
</a>
</g>
</g>
<!-- Node1&#45;&gt;Node12 -->
<g id="edge11_Node000001_Node000012" class="edge">
<title>Node1&#45;&gt;Node12</title>
<g id="a_edge11_Node000001_Node000012"><a xlink:title=" ">
<path fill="none" stroke="#63b8ff" d="M1276.72,-184.11C1460.06,-182.25 1854.21,-172.96 2183.5,-129 2194.31,-127.56 2205.61,-125.65 2216.73,-123.54"/>
<polygon fill="#63b8ff" stroke="#63b8ff" points="1276.52,-180.62 1266.55,-184.21 1276.59,-187.62 1276.52,-180.62"/>
</a>
</g>
</g>
<!-- Node13 -->
<g id="Node000013" class="node">
<title>Node13</title>
<g id="a_Node000013"><a xlink:href="REST_2include_2controllers_2SetValue_8h.html" target="_top" xlink:title="Implements REST SetValue RPC.">
<polygon fill="white" stroke="#666666" points="2396.5,-41 2204.5,-41 2204.5,0 2396.5,0 2396.5,-41"/>
<text text-anchor="start" x="2212.5" y="-29" font-family="Helvetica,sans-Serif" font-size="10.00">/home/runner/work/Catena</text>
<text text-anchor="start" x="2212.5" y="-18" font-family="Helvetica,sans-Serif" font-size="10.00">/Catena/sdks/cpp/connections</text>
<text text-anchor="middle" x="2300.5" y="-7" font-family="Helvetica,sans-Serif" font-size="10.00">/REST/include/controllers/SetValue.h</text>
</a>
</g>
</g>
<!-- Node12&#45;&gt;Node13 -->
<g id="edge12_Node000012_Node000013" class="edge">
<title>Node12&#45;&gt;Node13</title>
<g id="a_edge12_Node000012_Node000013"><a xlink:title=" ">
<path fill="none" stroke="#63b8ff" d="M2300.5,-71.87C2300.5,-61.6 2300.5,-50.4 2300.5,-41.17"/>
<polygon fill="#63b8ff" stroke="#63b8ff" points="2297,-72.1 2300.5,-82.1 2304,-72.1 2297,-72.1"/>
</a>
</g>
</g>
</g>
</svg>
