<?xml version="1.0" encoding="UTF-8" standalone="no"?>
<!DOCTYPE svg PUBLIC "-//W3C//DTD SVG 1.1//EN"
 "http://www.w3.org/Graphics/SVG/1.1/DTD/svg11.dtd">
<!-- Generated by graphviz version 2.43.0 (0)
 -->
<!-- Title: /home/runner/work/Catena/Catena/sdks/cpp/common/include/rpc/IConnect.h Pages: 1 -->
<svg width="1302pt" height="335pt"
 viewBox="0.00 0.00 1302.00 335.00" xmlns="http://www.w3.org/2000/svg" xmlns:xlink="http://www.w3.org/1999/xlink">
<g id="graph0" class="graph" transform="scale(1 1) rotate(0) translate(4 331)">
<title>/home/runner/work/Catena/Catena/sdks/cpp/common/include/rpc/IConnect.h</title>
<!-- Node1 -->
<g id="Node000001" class="node">
<title>Node1</title>
<g id="a_Node000001"><a xlink:title="Interface for Connect.h.">
<polygon fill="#999999" stroke="#666666" points="689,-327 543,-327 543,-286 689,-286 689,-327"/>
<text text-anchor="start" x="551" y="-315" font-family="Helvetica,sans-Serif" font-size="10.00">/home/runner/work/Catena</text>
<text text-anchor="start" x="551" y="-304" font-family="Helvetica,sans-Serif" font-size="10.00">/Catena/sdks/cpp/common</text>
<text text-anchor="middle" x="616" y="-293" font-family="Helvetica,sans-Serif" font-size="10.00">/include/rpc/IConnect.h</text>
</a>
</g>
</g>
<!-- Node2 -->
<g id="Node000002" class="node">
<title>Node2</title>
<g id="a_Node000002"><a xlink:href="IParam_8h.html" target="_top" xlink:title="Interface for parameters.">
<polygon fill="white" stroke="#666666" points="645.5,-250 586.5,-250 586.5,-231 645.5,-231 645.5,-250"/>
<text text-anchor="middle" x="616" y="-238" font-family="Helvetica,sans-Serif" font-size="10.00">IParam.h</text>
</a>
</g>
</g>
<!-- Node1&#45;&gt;Node2 -->
<g id="edge1_Node000001_Node000002" class="edge">
<title>Node1&#45;&gt;Node2</title>
<g id="a_edge1_Node000001_Node000002"><a xlink:title=" ">
<path fill="none" stroke="#63b8ff" d="M616,-285.95C616,-277.85 616,-268.5 616,-260.47"/>
<polygon fill="#63b8ff" stroke="#63b8ff" points="619.5,-260.26 616,-250.26 612.5,-260.26 619.5,-260.26"/>
</a>
</g>
</g>
<!-- Node8 -->
<g id="Node000008" class="node">
<title>Node8</title>
<g id="a_Node000008"><a xlink:title=" ">
<polygon fill="#e0e0e0" stroke="#999999" points="383,-24.5 339,-24.5 339,-5.5 383,-5.5 383,-24.5"/>
<text text-anchor="middle" x="361" y="-12.5" font-family="Helvetica,sans-Serif" font-size="10.00">string</text>
</a>
</g>
</g>
<!-- Node1&#45;&gt;Node8 -->
<g id="edge39_Node000001_Node000008" class="edge">
<title>Node1&#45;&gt;Node8</title>
<g id="a_edge39_Node000001_Node000008"><a xlink:title=" ">
<path fill="none" stroke="#63b8ff" d="M542.92,-298.96C379.75,-283.38 0,-241.23 0,-186.5 0,-186.5 0,-186.5 0,-129.5 0,-60.84 240.62,-28.64 328.97,-19.13"/>
<polygon fill="#63b8ff" stroke="#63b8ff" points="329.38,-22.61 338.96,-18.08 328.65,-15.64 329.38,-22.61"/>
</a>
</g>
</g>
<!-- Node10 -->
<g id="Node000010" class="node">
<title>Node10</title>
<g id="a_Node000010"><a xlink:title=" ">
<polygon fill="#e0e0e0" stroke="#999999" points="1136.5,-140 1017.5,-140 1017.5,-121 1136.5,-121 1136.5,-140"/>
<text text-anchor="middle" x="1077" y="-128" font-family="Helvetica,sans-Serif" font-size="10.00">interface/device.pb.h</text>
</a>
</g>
</g>
<!-- Node1&#45;&gt;Node10 -->
<g id="edge38_Node000001_Node000010" class="edge">
<title>Node1&#45;&gt;Node10</title>
<g id="a_edge38_Node000001_Node000010"><a xlink:title=" ">
<path fill="none" stroke="#63b8ff" d="M669.19,-285.95C728.69,-264.03 827.88,-227.31 913,-195 959.3,-177.42 1012.78,-156.62 1045.74,-143.74"/>
<polygon fill="#63b8ff" stroke="#63b8ff" points="1047.24,-146.92 1055.28,-140.01 1044.69,-140.4 1047.24,-146.92"/>
</a>
</g>
</g>
<!-- Node3 -->
<g id="Node000003" class="node">
<title>Node3</title>
<g id="a_Node000003"><a xlink:href="Enums_8h.html" target="_top" xlink:title="tools for using EnumDecorators.">
<polygon fill="white" stroke="#666666" points="904.5,-195 845.5,-195 845.5,-176 904.5,-176 904.5,-195"/>
<text text-anchor="middle" x="875" y="-183" font-family="Helvetica,sans-Serif" font-size="10.00">Enums.h</text>
</a>
</g>
</g>
<!-- Node2&#45;&gt;Node3 -->
<g id="edge2_Node000002_Node000003" class="edge">
<title>Node2&#45;&gt;Node3</title>
<g id="a_edge2_Node000002_Node000003"><a xlink:title=" ">
<path fill="none" stroke="#63b8ff" d="M645.71,-233.42C692.42,-223.86 783.09,-205.31 835.33,-194.62"/>
<polygon fill="#63b8ff" stroke="#63b8ff" points="836.14,-198.02 845.24,-192.59 834.74,-191.17 836.14,-198.02"/>
</a>
</g>
</g>
<!-- Node11 -->
<g id="Node000011" class="node">
<title>Node11</title>
<g id="a_Node000011"><a xlink:href="IConstraint_8h.html" target="_top" xlink:title="Interface for constraints.">
<polygon fill="white" stroke="#666666" points="599.5,-195 520.5,-195 520.5,-176 599.5,-176 599.5,-195"/>
<text text-anchor="middle" x="560" y="-183" font-family="Helvetica,sans-Serif" font-size="10.00">IConstraint.h</text>
</a>
</g>
</g>
<!-- Node2&#45;&gt;Node11 -->
<g id="edge11_Node000002_Node000011" class="edge">
<title>Node2&#45;&gt;Node11</title>
<g id="a_edge11_Node000002_Node000011"><a xlink:title=" ">
<path fill="none" stroke="#63b8ff" d="M607,-230.98C598.81,-223.23 586.49,-211.58 576.53,-202.14"/>
<polygon fill="#63b8ff" stroke="#63b8ff" points="578.83,-199.5 569.16,-195.17 574.02,-204.59 578.83,-199.5"/>
</a>
</g>
</g>
<!-- Node12 -->
<g id="Node000012" class="node">
<title>Node12</title>
<g id="a_Node000012"><a xlink:title=" ">
<polygon fill="#e0e0e0" stroke="#999999" points="474.5,-140 355.5,-140 355.5,-121 474.5,-121 474.5,-140"/>
<text text-anchor="middle" x="415" y="-128" font-family="Helvetica,sans-Serif" font-size="10.00">interface/param.pb.h</text>
</a>
</g>
</g>
<!-- Node2&#45;&gt;Node12 -->
<g id="edge37_Node000002_Node000012" class="edge">
<title>Node2&#45;&gt;Node12</title>
<g id="a_edge37_Node000002_Node000012"><a xlink:title=" ">
<path fill="none" stroke="#63b8ff" d="M592.49,-230.96C570.83,-222.77 538.04,-209.51 511,-195 483.34,-180.15 453.47,-159.61 434.52,-145.96"/>
<polygon fill="#63b8ff" stroke="#63b8ff" points="436.54,-143.1 426.39,-140.04 432.42,-148.75 436.54,-143.1"/>
</a>
</g>
</g>
<!-- Node14 -->
<g id="Node000014" class="node">
<title>Node14</title>
<g id="a_Node000014"><a xlink:href="IParamDescriptor_8h.html" target="_top" xlink:title="Interface class for ParamDescriptor.">
<polygon fill="white" stroke="#666666" points="726.5,-195 617.5,-195 617.5,-176 726.5,-176 726.5,-195"/>
<text text-anchor="middle" x="672" y="-183" font-family="Helvetica,sans-Serif" font-size="10.00">IParamDescriptor.h</text>
</a>
</g>
</g>
<!-- Node2&#45;&gt;Node14 -->
<g id="edge14_Node000002_Node000014" class="edge">
<title>Node2&#45;&gt;Node14</title>
<g id="a_edge14_Node000002_Node000014"><a xlink:title=" ">
<path fill="none" stroke="#63b8ff" d="M625,-230.98C633.19,-223.23 645.51,-211.58 655.47,-202.14"/>
<polygon fill="#63b8ff" stroke="#63b8ff" points="657.98,-204.59 662.84,-195.17 653.17,-199.5 657.98,-204.59"/>
</a>
</g>
</g>
<!-- Node22 -->
<g id="Node000022" class="node">
<title>Node22</title>
<g id="a_Node000022"><a xlink:href="Path_8h.html" target="_top" xlink:title="Handles Path objects used to uniquely identify and access OIDs.">
<polygon fill="white" stroke="#666666" points="224.5,-195 177.5,-195 177.5,-176 224.5,-176 224.5,-195"/>
<text text-anchor="middle" x="201" y="-183" font-family="Helvetica,sans-Serif" font-size="10.00">Path.h</text>
</a>
</g>
</g>
<!-- Node2&#45;&gt;Node22 -->
<g id="edge28_Node000002_Node000022" class="edge">
<title>Node2&#45;&gt;Node22</title>
<g id="a_edge28_Node000002_Node000022"><a xlink:title=" ">
<path fill="none" stroke="#63b8ff" d="M586.49,-235.73C511.43,-226.15 313.64,-200.89 234.47,-190.77"/>
<polygon fill="#63b8ff" stroke="#63b8ff" points="234.9,-187.3 224.54,-189.51 234.02,-194.25 234.9,-187.3"/>
</a>
</g>
</g>
<!-- Node27 -->
<g id="Node000027" class="node">
<title>Node27</title>
<g id="a_Node000027"><a xlink:href="Status_8h.html" target="_top" xlink:title="Communicates failure status using gRPC&#39;s codes.">
<polygon fill="white" stroke="#666666" points="1215,-195 1159,-195 1159,-176 1215,-176 1215,-195"/>
<text text-anchor="middle" x="1187" y="-183" font-family="Helvetica,sans-Serif" font-size="10.00">Status.h</text>
</a>
</g>
</g>
<!-- Node2&#45;&gt;Node27 -->
<g id="edge34_Node000002_Node000027" class="edge">
<title>Node2&#45;&gt;Node27</title>
<g id="a_edge34_Node000002_Node000027"><a xlink:title=" ">
<path fill="none" stroke="#63b8ff" d="M645.9,-236.73C741.83,-227.82 1041.88,-199.97 1148.74,-190.05"/>
<polygon fill="#63b8ff" stroke="#63b8ff" points="1149.12,-193.53 1158.76,-189.12 1148.48,-186.56 1149.12,-193.53"/>
</a>
</g>
</g>
<!-- Node4 -->
<g id="Node000004" class="node">
<title>Node4</title>
<g id="a_Node000004"><a xlink:href="EnumDecorator_8h.html" target="_top" xlink:title="Provides an enum with useful extra functionality.">
<polygon fill="white" stroke="#666666" points="999,-140 855,-140 855,-121 999,-121 999,-140"/>
<text text-anchor="middle" x="927" y="-128" font-family="Helvetica,sans-Serif" font-size="10.00">patterns/EnumDecorator.h</text>
</a>
</g>
</g>
<!-- Node3&#45;&gt;Node4 -->
<g id="edge3_Node000003_Node000004" class="edge">
<title>Node3&#45;&gt;Node4</title>
<g id="a_edge3_Node000003_Node000004"><a xlink:title=" ">
<path fill="none" stroke="#63b8ff" d="M883.59,-175.75C891.16,-168.03 902.38,-156.6 911.51,-147.28"/>
<polygon fill="#63b8ff" stroke="#63b8ff" points="914.07,-149.68 918.57,-140.09 909.07,-144.78 914.07,-149.68"/>
</a>
</g>
</g>
<!-- Node6 -->
<g id="Node000006" class="node">
<title>Node6</title>
<g id="a_Node000006"><a xlink:title=" ">
<polygon fill="#e0e0e0" stroke="#999999" points="872,-85 822,-85 822,-66 872,-66 872,-85"/>
<text text-anchor="middle" x="847" y="-73" font-family="Helvetica,sans-Serif" font-size="10.00">cstdint</text>
</a>
</g>
</g>
<!-- Node3&#45;&gt;Node6 -->
<g id="edge10_Node000003_Node000006" class="edge">
<title>Node3&#45;&gt;Node6</title>
<g id="a_edge10_Node000003_Node000006"><a xlink:title=" ">
<path fill="none" stroke="#63b8ff" d="M867.06,-175.75C859.97,-167.3 850.1,-153.79 846,-140 841.68,-125.45 842.29,-108.18 843.79,-95.33"/>
<polygon fill="#63b8ff" stroke="#63b8ff" points="847.26,-95.75 845.22,-85.35 840.33,-94.75 847.26,-95.75"/>
</a>
</g>
</g>
<!-- Node3&#45;&gt;Node10 -->
<g id="edge9_Node000003_Node000010" class="edge">
<title>Node3&#45;&gt;Node10</title>
<g id="a_edge9_Node000003_Node000010"><a xlink:title=" ">
<path fill="none" stroke="#63b8ff" d="M904.81,-176.68C939.06,-167.69 995.54,-152.87 1034.42,-142.67"/>
<polygon fill="#63b8ff" stroke="#63b8ff" points="1035.61,-145.98 1044.39,-140.06 1033.83,-139.21 1035.61,-145.98"/>
</a>
</g>
</g>
<!-- Node5 -->
<g id="Node000005" class="node">
<title>Node5</title>
<g id="a_Node000005"><a xlink:href="ReflectionMacros_8h.html" target="_top" xlink:title="adapted from https://github.com/tapika/TestCppReflect">
<polygon fill="white" stroke="#666666" points="1000,-85 890,-85 890,-66 1000,-66 1000,-85"/>
<text text-anchor="middle" x="945" y="-73" font-family="Helvetica,sans-Serif" font-size="10.00">ReflectionMacros.h</text>
</a>
</g>
</g>
<!-- Node4&#45;&gt;Node5 -->
<g id="edge4_Node000004_Node000005" class="edge">
<title>Node4&#45;&gt;Node5</title>
<g id="a_edge4_Node000004_Node000005"><a xlink:title=" ">
<path fill="none" stroke="#63b8ff" d="M929.97,-120.75C932.36,-113.72 935.79,-103.62 938.77,-94.84"/>
<polygon fill="#63b8ff" stroke="#63b8ff" points="942.18,-95.68 942.08,-85.09 935.55,-93.43 942.18,-95.68"/>
</a>
</g>
</g>
<!-- Node4&#45;&gt;Node6 -->
<g id="edge5_Node000004_Node000006" class="edge">
<title>Node4&#45;&gt;Node6</title>
<g id="a_edge5_Node000004_Node000006"><a xlink:title=" ">
<path fill="none" stroke="#63b8ff" d="M914.15,-120.98C901.86,-112.84 883.09,-100.41 868.52,-90.76"/>
<polygon fill="#63b8ff" stroke="#63b8ff" points="870.36,-87.78 860.09,-85.17 866.49,-93.61 870.36,-87.78"/>
</a>
</g>
</g>
<!-- Node7 -->
<g id="Node000007" class="node">
<title>Node7</title>
<g id="a_Node000007"><a xlink:title=" ">
<polygon fill="#e0e0e0" stroke="#999999" points="874.5,-24.5 781.5,-24.5 781.5,-5.5 874.5,-5.5 874.5,-24.5"/>
<text text-anchor="middle" x="828" y="-12.5" font-family="Helvetica,sans-Serif" font-size="10.00">unordered_map</text>
</a>
</g>
</g>
<!-- Node4&#45;&gt;Node7 -->
<g id="edge6_Node000004_Node000007" class="edge">
<title>Node4&#45;&gt;Node7</title>
<g id="a_edge6_Node000004_Node000007"><a xlink:title=" ">
<path fill="none" stroke="#63b8ff" d="M990.32,-120.96C1032.65,-113.8 1082.9,-102 1096,-85 1101.16,-78.31 1101.4,-72.5 1096,-66 1069.7,-34.34 955.41,-22.62 884.84,-18.36"/>
<polygon fill="#63b8ff" stroke="#63b8ff" points="884.95,-14.86 874.77,-17.78 884.55,-21.85 884.95,-14.86"/>
</a>
</g>
</g>
<!-- Node4&#45;&gt;Node8 -->
<g id="edge7_Node000004_Node000008" class="edge">
<title>Node4&#45;&gt;Node8</title>
<g id="a_edge7_Node000004_Node000008"><a xlink:title=" ">
<path fill="none" stroke="#63b8ff" d="M854.83,-125.11C793.57,-119.89 703.95,-108.67 629,-85 610.99,-79.31 608.81,-72.28 591,-66 522.5,-41.86 438.24,-27.13 393.13,-20.39"/>
<polygon fill="#63b8ff" stroke="#63b8ff" points="393.46,-16.9 383.06,-18.92 392.45,-23.83 393.46,-16.9"/>
</a>
</g>
</g>
<!-- Node9 -->
<g id="Node000009" class="node">
<title>Node9</title>
<g id="a_Node000009"><a xlink:title=" ">
<polygon fill="#e0e0e0" stroke="#999999" points="1087.5,-85 1018.5,-85 1018.5,-66 1087.5,-66 1087.5,-85"/>
<text text-anchor="middle" x="1053" y="-73" font-family="Helvetica,sans-Serif" font-size="10.00">type_traits</text>
</a>
</g>
</g>
<!-- Node4&#45;&gt;Node9 -->
<g id="edge8_Node000004_Node000009" class="edge">
<title>Node4&#45;&gt;Node9</title>
<g id="a_edge8_Node000004_Node000009"><a xlink:title=" ">
<path fill="none" stroke="#63b8ff" d="M947.24,-120.98C967.7,-112.38 999.53,-98.99 1022.93,-89.15"/>
<polygon fill="#63b8ff" stroke="#63b8ff" points="1024.53,-92.27 1032.39,-85.17 1021.81,-85.82 1024.53,-92.27"/>
</a>
</g>
</g>
<!-- Node11&#45;&gt;Node12 -->
<g id="edge12_Node000011_Node000012" class="edge">
<title>Node11&#45;&gt;Node12</title>
<g id="a_edge12_Node000011_Node000012"><a xlink:title=" ">
<path fill="none" stroke="#63b8ff" d="M536.7,-175.98C512.75,-167.23 475.22,-153.51 448.17,-143.62"/>
<polygon fill="#63b8ff" stroke="#63b8ff" points="449.31,-140.32 438.72,-140.17 446.91,-146.89 449.31,-140.32"/>
</a>
</g>
</g>
<!-- Node13 -->
<g id="Node000013" class="node">
<title>Node13</title>
<g id="a_Node000013"><a xlink:title=" ">
<polygon fill="#e0e0e0" stroke="#999999" points="629,-140 493,-140 493,-121 629,-121 629,-140"/>
<text text-anchor="middle" x="561" y="-128" font-family="Helvetica,sans-Serif" font-size="10.00">interface/constraint.pb.h</text>
</a>
</g>
</g>
<!-- Node11&#45;&gt;Node13 -->
<g id="edge13_Node000011_Node000013" class="edge">
<title>Node11&#45;&gt;Node13</title>
<g id="a_edge13_Node000011_Node000013"><a xlink:title=" ">
<path fill="none" stroke="#63b8ff" d="M560.17,-175.75C560.3,-168.8 560.48,-158.85 560.65,-150.13"/>
<polygon fill="#63b8ff" stroke="#63b8ff" points="564.15,-150.15 560.84,-140.09 557.15,-150.02 564.15,-150.15"/>
</a>
</g>
</g>
<!-- Node15 -->
<g id="Node000015" class="node">
<title>Node15</title>
<g id="a_Node000015"><a xlink:href="Tags_8h.html" target="_top" xlink:title="Tags to differentiate collections with the same type for template specialization.">
<polygon fill="white" stroke="#666666" points="694.5,-140 647.5,-140 647.5,-121 694.5,-121 694.5,-140"/>
<text text-anchor="middle" x="671" y="-128" font-family="Helvetica,sans-Serif" font-size="10.00">Tags.h</text>
</a>
</g>
</g>
<!-- Node14&#45;&gt;Node15 -->
<g id="edge15_Node000014_Node000015" class="edge">
<title>Node14&#45;&gt;Node15</title>
<g id="a_edge15_Node000014_Node000015"><a xlink:title=" ">
<path fill="none" stroke="#63b8ff" d="M671.83,-175.75C671.7,-168.8 671.52,-158.85 671.35,-150.13"/>
<polygon fill="#63b8ff" stroke="#63b8ff" points="674.85,-150.02 671.16,-140.09 667.85,-150.15 674.85,-150.02"/>
</a>
</g>
</g>
<!-- Node17 -->
<g id="Node000017" class="node">
<title>Node17</title>
<g id="a_Node000017"><a xlink:href="PolyglotText_8h.html" target="_top" xlink:title="Polyglot Text serialization and deserialization to protobuf.">
<polygon fill="white" stroke="#666666" points="799,-140 713,-140 713,-121 799,-121 799,-140"/>
<text text-anchor="middle" x="756" y="-128" font-family="Helvetica,sans-Serif" font-size="10.00">PolyglotText.h</text>
</a>
</g>
</g>
<!-- Node14&#45;&gt;Node17 -->
<g id="edge18_Node000014_Node000017" class="edge">
<title>Node14&#45;&gt;Node17</title>
<g id="a_edge18_Node000014_Node000017"><a xlink:title=" ">
<path fill="none" stroke="#63b8ff" d="M685.5,-175.98C698.4,-167.84 718.1,-155.41 733.4,-145.76"/>
<polygon fill="#63b8ff" stroke="#63b8ff" points="735.67,-148.47 742.26,-140.17 731.93,-142.55 735.67,-148.47"/>
</a>
</g>
</g>
<!-- Node15&#45;&gt;Node8 -->
<g id="edge17_Node000015_Node000008" class="edge">
<title>Node15&#45;&gt;Node8</title>
<g id="a_edge17_Node000015_Node000008"><a xlink:title=" ">
<path fill="none" stroke="#63b8ff" d="M647.3,-122.97C644.18,-122.24 641.03,-121.56 638,-121 567.84,-108.07 366.53,-138.2 319,-85 304.14,-68.37 323.94,-45.79 341.08,-31.05"/>
<polygon fill="#63b8ff" stroke="#63b8ff" points="343.57,-33.54 349.11,-24.51 339.15,-28.11 343.57,-33.54"/>
</a>
</g>
</g>
<!-- Node16 -->
<g id="Node000016" class="node">
<title>Node16</title>
<g id="a_Node000016"><a xlink:title=" ">
<polygon fill="#e0e0e0" stroke="#999999" points="393.5,-85 328.5,-85 328.5,-66 393.5,-66 393.5,-85"/>
<text text-anchor="middle" x="361" y="-73" font-family="Helvetica,sans-Serif" font-size="10.00">functional</text>
</a>
</g>
</g>
<!-- Node15&#45;&gt;Node16 -->
<g id="edge16_Node000015_Node000016" class="edge">
<title>Node15&#45;&gt;Node16</title>
<g id="a_edge16_Node000015_Node000016"><a xlink:title=" ">
<path fill="none" stroke="#63b8ff" d="M647.27,-123.1C644.16,-122.34 641.01,-121.62 638,-121 536.67,-100.07 510.03,-102.21 408,-85 406.54,-84.75 405.06,-84.5 403.57,-84.24"/>
<polygon fill="#63b8ff" stroke="#63b8ff" points="404.05,-80.78 393.6,-82.5 402.84,-87.67 404.05,-80.78"/>
</a>
</g>
</g>
<!-- Node17&#45;&gt;Node7 -->
<g id="edge26_Node000017_Node000007" class="edge">
<title>Node17&#45;&gt;Node7</title>
<g id="a_edge26_Node000017_Node000007"><a xlink:title=" ">
<path fill="none" stroke="#63b8ff" d="M761.41,-120.97C773.19,-102.4 801.35,-58.01 817.02,-33.32"/>
<polygon fill="#63b8ff" stroke="#63b8ff" points="820.12,-34.95 822.53,-24.63 814.21,-31.2 820.12,-34.95"/>
</a>
</g>
</g>
<!-- Node17&#45;&gt;Node8 -->
<g id="edge25_Node000017_Node000008" class="edge">
<title>Node17&#45;&gt;Node8</title>
<g id="a_edge25_Node000017_Node000008"><a xlink:title=" ">
<path fill="none" stroke="#63b8ff" d="M712.91,-122.51C709.56,-121.99 706.23,-121.48 703,-121 586.74,-103.69 548.12,-133.37 441,-85 413.95,-72.79 389.14,-48.45 374.54,-32.19"/>
<polygon fill="#63b8ff" stroke="#63b8ff" points="377.08,-29.78 367.88,-24.53 371.8,-34.38 377.08,-29.78"/>
</a>
</g>
</g>
<!-- Node18 -->
<g id="Node000018" class="node">
<title>Node18</title>
<g id="a_Node000018"><a xlink:href="IPolyglotText_8h.html" target="_top" xlink:title="Catena&#39;s multi&#45;language text interface.">
<polygon fill="white" stroke="#666666" points="727.5,-85 638.5,-85 638.5,-66 727.5,-66 727.5,-85"/>
<text text-anchor="middle" x="683" y="-73" font-family="Helvetica,sans-Serif" font-size="10.00">IPolyglotText.h</text>
</a>
</g>
</g>
<!-- Node17&#45;&gt;Node18 -->
<g id="edge19_Node000017_Node000018" class="edge">
<title>Node17&#45;&gt;Node18</title>
<g id="a_edge19_Node000017_Node000018"><a xlink:title=" ">
<path fill="none" stroke="#63b8ff" d="M744.27,-120.98C733.27,-113 716.58,-100.88 703.4,-91.31"/>
<polygon fill="#63b8ff" stroke="#63b8ff" points="705.09,-88.21 694.94,-85.17 700.98,-93.88 705.09,-88.21"/>
</a>
</g>
</g>
<!-- Node20 -->
<g id="Node000020" class="node">
<title>Node20</title>
<g id="a_Node000020"><a xlink:title=" ">
<polygon fill="#e0e0e0" stroke="#999999" points="763.5,-24.5 680.5,-24.5 680.5,-5.5 763.5,-5.5 763.5,-24.5"/>
<text text-anchor="middle" x="722" y="-12.5" font-family="Helvetica,sans-Serif" font-size="10.00">initializer_list</text>
</a>
</g>
</g>
<!-- Node17&#45;&gt;Node20 -->
<g id="edge27_Node000017_Node000020" class="edge">
<title>Node17&#45;&gt;Node20</title>
<g id="a_edge27_Node000017_Node000020"><a xlink:title=" ">
<path fill="none" stroke="#63b8ff" d="M753.44,-120.97C747.96,-102.65 734.94,-59.18 727.48,-34.31"/>
<polygon fill="#63b8ff" stroke="#63b8ff" points="730.81,-33.2 724.59,-24.63 724.1,-35.21 730.81,-33.2"/>
</a>
</g>
</g>
<!-- Node21 -->
<g id="Node000021" class="node">
<title>Node21</title>
<g id="a_Node000021"><a xlink:title=" ">
<polygon fill="#e0e0e0" stroke="#999999" points="582,-85 450,-85 450,-66 582,-66 582,-85"/>
<text text-anchor="middle" x="516" y="-73" font-family="Helvetica,sans-Serif" font-size="10.00">interface/language.pb.h</text>
</a>
</g>
</g>
<!-- Node17&#45;&gt;Node21 -->
<g id="edge24_Node000017_Node000021" class="edge">
<title>Node17&#45;&gt;Node21</title>
<g id="a_edge24_Node000017_Node000021"><a xlink:title=" ">
<path fill="none" stroke="#63b8ff" d="M717.44,-120.98C675.93,-111.82 609.79,-97.21 564.71,-87.26"/>
<polygon fill="#63b8ff" stroke="#63b8ff" points="565.38,-83.82 554.86,-85.08 563.87,-90.66 565.38,-83.82"/>
</a>
</g>
</g>
<!-- Node18&#45;&gt;Node7 -->
<g id="edge21_Node000018_Node000007" class="edge">
<title>Node18&#45;&gt;Node7</title>
<g id="a_edge21_Node000018_Node000007"><a xlink:title=" ">
<path fill="none" stroke="#63b8ff" d="M704.08,-65.99C728.68,-56.07 769.53,-39.59 797.56,-28.28"/>
<polygon fill="#63b8ff" stroke="#63b8ff" points="798.93,-31.5 806.89,-24.52 796.31,-25.01 798.93,-31.5"/>
</a>
</g>
</g>
<!-- Node18&#45;&gt;Node8 -->
<g id="edge22_Node000018_Node000008" class="edge">
<title>Node18&#45;&gt;Node8</title>
<g id="a_edge22_Node000018_Node000008"><a xlink:title=" ">
<path fill="none" stroke="#63b8ff" d="M638.23,-66.37C572.34,-54.4 450.85,-32.32 393.11,-21.83"/>
<polygon fill="#63b8ff" stroke="#63b8ff" points="393.56,-18.36 383.09,-20.01 392.31,-25.24 393.56,-18.36"/>
</a>
</g>
</g>
<!-- Node19 -->
<g id="Node000019" class="node">
<title>Node19</title>
<g id="a_Node000019"><a xlink:title=" ">
<polygon fill="#e0e0e0" stroke="#999999" points="662.5,-30 521.5,-30 521.5,0 662.5,0 662.5,-30"/>
<text text-anchor="start" x="529.5" y="-18" font-family="Helvetica,sans-Serif" font-size="10.00">google/protobuf/message</text>
<text text-anchor="middle" x="592" y="-7" font-family="Helvetica,sans-Serif" font-size="10.00">_lite.h</text>
</a>
</g>
</g>
<!-- Node18&#45;&gt;Node19 -->
<g id="edge20_Node000018_Node000019" class="edge">
<title>Node18&#45;&gt;Node19</title>
<g id="a_edge20_Node000018_Node000019"><a xlink:title=" ">
<path fill="none" stroke="#63b8ff" d="M669.57,-65.87C657.23,-57.93 638.47,-45.87 622.49,-35.6"/>
<polygon fill="#63b8ff" stroke="#63b8ff" points="624.26,-32.58 613.96,-30.11 620.48,-38.47 624.26,-32.58"/>
</a>
</g>
</g>
<!-- Node18&#45;&gt;Node20 -->
<g id="edge23_Node000018_Node000020" class="edge">
<title>Node18&#45;&gt;Node20</title>
<g id="a_edge23_Node000018_Node000020"><a xlink:title=" ">
<path fill="none" stroke="#63b8ff" d="M688.75,-65.87C694.46,-57.31 703.35,-43.97 710.51,-33.24"/>
<polygon fill="#63b8ff" stroke="#63b8ff" points="713.59,-34.93 716.22,-24.67 707.76,-31.05 713.59,-34.93"/>
</a>
</g>
</g>
<!-- Node22&#45;&gt;Node8 -->
<g id="edge30_Node000022_Node000008" class="edge">
<title>Node22&#45;&gt;Node8</title>
<g id="a_edge30_Node000022_Node000008"><a xlink:title=" ">
<path fill="none" stroke="#63b8ff" d="M177.34,-182.98C128.92,-178.95 25.61,-165.06 57,-121 120.25,-32.23 263.8,-17.79 328.41,-15.93"/>
<polygon fill="#63b8ff" stroke="#63b8ff" points="328.87,-19.43 338.8,-15.73 328.73,-12.43 328.87,-19.43"/>
</a>
</g>
</g>
<!-- Node23 -->
<g id="Node000023" class="node">
<title>Node23</title>
<g id="a_Node000023"><a xlink:title=" ">
<polygon fill="#e0e0e0" stroke="#999999" points="126,-140 66,-140 66,-121 126,-121 126,-140"/>
<text text-anchor="middle" x="96" y="-128" font-family="Helvetica,sans-Serif" font-size="10.00">iostream</text>
</a>
</g>
</g>
<!-- Node22&#45;&gt;Node23 -->
<g id="edge29_Node000022_Node000023" class="edge">
<title>Node22&#45;&gt;Node23</title>
<g id="a_edge29_Node000022_Node000023"><a xlink:title=" ">
<path fill="none" stroke="#63b8ff" d="M184.13,-175.98C167.39,-167.54 141.5,-154.47 122.11,-144.68"/>
<polygon fill="#63b8ff" stroke="#63b8ff" points="123.68,-141.55 113.18,-140.17 120.53,-147.8 123.68,-141.55"/>
</a>
</g>
</g>
<!-- Node24 -->
<g id="Node000024" class="node">
<title>Node24</title>
<g id="a_Node000024"><a xlink:title=" ">
<polygon fill="#e0e0e0" stroke="#999999" points="191.5,-140 144.5,-140 144.5,-121 191.5,-121 191.5,-140"/>
<text text-anchor="middle" x="168" y="-128" font-family="Helvetica,sans-Serif" font-size="10.00">vector</text>
</a>
</g>
</g>
<!-- Node22&#45;&gt;Node24 -->
<g id="edge31_Node000022_Node000024" class="edge">
<title>Node22&#45;&gt;Node24</title>
<g id="a_edge31_Node000022_Node000024"><a xlink:title=" ">
<path fill="none" stroke="#63b8ff" d="M195.55,-175.75C190.99,-168.42 184.33,-157.73 178.71,-148.7"/>
<polygon fill="#63b8ff" stroke="#63b8ff" points="181.6,-146.73 173.35,-140.09 175.66,-150.43 181.6,-146.73"/>
</a>
</g>
</g>
<!-- Node25 -->
<g id="Node000025" class="node">
<title>Node25</title>
<g id="a_Node000025"><a xlink:title=" ">
<polygon fill="#e0e0e0" stroke="#999999" points="260.5,-140 209.5,-140 209.5,-121 260.5,-121 260.5,-140"/>
<text text-anchor="middle" x="235" y="-128" font-family="Helvetica,sans-Serif" font-size="10.00">variant</text>
</a>
</g>
</g>
<!-- Node22&#45;&gt;Node25 -->
<g id="edge32_Node000022_Node000025" class="edge">
<title>Node22&#45;&gt;Node25</title>
<g id="a_edge32_Node000022_Node000025"><a xlink:title=" ">
<path fill="none" stroke="#63b8ff" d="M206.61,-175.75C211.32,-168.42 218.17,-157.73 223.97,-148.7"/>
<polygon fill="#63b8ff" stroke="#63b8ff" points="227.04,-150.4 229.49,-140.09 221.14,-146.62 227.04,-150.4"/>
</a>
</g>
</g>
<!-- Node26 -->
<g id="Node000026" class="node">
<title>Node26</title>
<g id="a_Node000026"><a xlink:title=" ">
<polygon fill="#e0e0e0" stroke="#999999" points="337,-140 279,-140 279,-121 337,-121 337,-140"/>
<text text-anchor="middle" x="308" y="-128" font-family="Helvetica,sans-Serif" font-size="10.00">memory</text>
</a>
</g>
</g>
<!-- Node22&#45;&gt;Node26 -->
<g id="edge33_Node000022_Node000026" class="edge">
<title>Node22&#45;&gt;Node26</title>
<g id="a_edge33_Node000022_Node000026"><a xlink:title=" ">
<path fill="none" stroke="#63b8ff" d="M218.19,-175.98C235.25,-167.54 261.63,-154.47 281.4,-144.68"/>
<polygon fill="#63b8ff" stroke="#63b8ff" points="283.09,-147.75 290.5,-140.17 279.98,-141.47 283.09,-147.75"/>
</a>
</g>
</g>
<!-- Node28 -->
<g id="Node000028" class="node">
<title>Node28</title>
<g id="a_Node000028"><a xlink:title=" ">
<polygon fill="#e0e0e0" stroke="#999999" points="1294,-140 1238,-140 1238,-121 1294,-121 1294,-140"/>
<text text-anchor="middle" x="1266" y="-128" font-family="Helvetica,sans-Serif" font-size="10.00">sstream</text>
</a>
</g>
</g>
<!-- Node27&#45;&gt;Node28 -->
<g id="edge35_Node000027_Node000028" class="edge">
<title>Node27&#45;&gt;Node28</title>
<g id="a_edge35_Node000027_Node000028"><a xlink:title=" ">
<path fill="none" stroke="#63b8ff" d="M1199.69,-175.98C1211.83,-167.84 1230.36,-155.41 1244.75,-145.76"/>
<polygon fill="#63b8ff" stroke="#63b8ff" points="1246.72,-148.65 1253.08,-140.17 1242.82,-142.84 1246.72,-148.65"/>
</a>
</g>
</g>
<!-- Node29 -->
<g id="Node000029" class="node">
<title>Node29</title>
<g id="a_Node000029"><a xlink:title=" ">
<polygon fill="#e0e0e0" stroke="#999999" points="1219.5,-140 1154.5,-140 1154.5,-121 1219.5,-121 1219.5,-140"/>
<text text-anchor="middle" x="1187" y="-128" font-family="Helvetica,sans-Serif" font-size="10.00">stdexcept</text>
</a>
</g>
</g>
<!-- Node27&#45;&gt;Node29 -->
<g id="edge36_Node000027_Node000029" class="edge">
<title>Node27&#45;&gt;Node29</title>
<g id="a_edge36_Node000027_Node000029"><a xlink:title=" ">
<path fill="none" stroke="#63b8ff" d="M1187,-175.75C1187,-168.8 1187,-158.85 1187,-150.13"/>
<polygon fill="#63b8ff" stroke="#63b8ff" points="1190.5,-150.09 1187,-140.09 1183.5,-150.09 1190.5,-150.09"/>
</a>
</g>
</g>
</g>
</svg>
