<?xml version="1.0" encoding="UTF-8" standalone="no"?>
<!DOCTYPE svg PUBLIC "-//W3C//DTD SVG 1.1//EN"
 "http://www.w3.org/Graphics/SVG/1.1/DTD/svg11.dtd">
<!-- Generated by graphviz version 2.43.0 (0)
 -->
<!-- Title: /home/runner/work/Catena/Catena/sdks/cpp/common/include/rpc/IConnectionQueue.h Pages: 1 -->
<svg width="1297pt" height="379pt"
 viewBox="0.00 0.00 1297.00 379.00" xmlns="http://www.w3.org/2000/svg" xmlns:xlink="http://www.w3.org/1999/xlink">
<g id="graph0" class="graph" transform="scale(1 1) rotate(0) translate(4 375)">
<title>/home/runner/work/Catena/Catena/sdks/cpp/common/include/rpc/IConnectionQueue.h</title>
<!-- Node1 -->
<g id="Node000001" class="node">
<title>Node1</title>
<g id="a_Node000001"><a xlink:title="Interface class for the ConnectionQueue object.">
<polygon fill="#999999" stroke="#666666" points="1276,-371 1102,-371 1102,-330 1276,-330 1276,-371"/>
<text text-anchor="start" x="1110" y="-359" font-family="Helvetica,sans-Serif" font-size="10.00">/home/runner/work/Catena</text>
<text text-anchor="start" x="1110" y="-348" font-family="Helvetica,sans-Serif" font-size="10.00">/Catena/sdks/cpp/common</text>
<text text-anchor="middle" x="1189" y="-337" font-family="Helvetica,sans-Serif" font-size="10.00">/include/rpc/IConnectionQueue.h</text>
</a>
</g>
</g>
<!-- Node2 -->
<g id="Node000002" class="node">
<title>Node2</title>
<g id="a_Node000002"><a xlink:href="IConnect_8h.html" target="_top" xlink:title="Interface for Connect classes.">
<polygon fill="white" stroke="#666666" points="1223,-294 1155,-294 1155,-275 1223,-275 1223,-294"/>
<text text-anchor="middle" x="1189" y="-282" font-family="Helvetica,sans-Serif" font-size="10.00">IConnect.h</text>
</a>
</g>
</g>
<!-- Node1&#45;&gt;Node2 -->
<g id="edge1_Node000001_Node000002" class="edge">
<title>Node1&#45;&gt;Node2</title>
<g id="a_edge1_Node000001_Node000002"><a xlink:title=" ">
<path fill="none" stroke="#63b8ff" d="M1189,-329.95C1189,-321.85 1189,-312.5 1189,-304.47"/>
<polygon fill="#63b8ff" stroke="#63b8ff" points="1192.5,-304.26 1189,-294.26 1185.5,-304.26 1192.5,-304.26"/>
</a>
</g>
</g>
<!-- Node3 -->
<g id="Node000003" class="node">
<title>Node3</title>
<g id="a_Node000003"><a xlink:href="IParam_8h.html" target="_top" xlink:title="Interface for parameters.">
<polygon fill="white" stroke="#666666" points="526.5,-239 467.5,-239 467.5,-220 526.5,-220 526.5,-239"/>
<text text-anchor="middle" x="497" y="-227" font-family="Helvetica,sans-Serif" font-size="10.00">IParam.h</text>
</a>
</g>
</g>
<!-- Node2&#45;&gt;Node3 -->
<g id="edge2_Node000002_Node000003" class="edge">
<title>Node2&#45;&gt;Node3</title>
<g id="a_edge2_Node000002_Node000003"><a xlink:title=" ">
<path fill="none" stroke="#63b8ff" d="M1154.68,-280.87C1038.62,-271.98 661.07,-243.07 536.95,-233.56"/>
<polygon fill="#63b8ff" stroke="#63b8ff" points="537,-230.05 526.76,-232.78 536.46,-237.03 537,-230.05"/>
</a>
</g>
</g>
<!-- Node9 -->
<g id="Node000009" class="node">
<title>Node9</title>
<g id="a_Node000009"><a xlink:title=" ">
<polygon fill="#e0e0e0" stroke="#999999" points="835,-19 791,-19 791,0 835,0 835,-19"/>
<text text-anchor="middle" x="813" y="-7" font-family="Helvetica,sans-Serif" font-size="10.00">string</text>
</a>
</g>
</g>
<!-- Node2&#45;&gt;Node9 -->
<g id="edge38_Node000002_Node000009" class="edge">
<title>Node2&#45;&gt;Node9</title>
<g id="a_edge38_Node000002_Node000009"><a xlink:title=" ">
<path fill="none" stroke="#63b8ff" d="M1191.97,-274.94C1197.97,-256.83 1211,-213.2 1211,-175.5 1211,-175.5 1211,-175.5 1211,-118.5 1211,-88.91 1213.79,-73.87 1191,-55 1138.69,-11.7 926.74,-9.24 845.19,-9.96"/>
<polygon fill="#63b8ff" stroke="#63b8ff" points="844.98,-6.46 835.02,-10.07 845.06,-13.46 844.98,-6.46"/>
</a>
</g>
</g>
<!-- Node11 -->
<g id="Node000011" class="node">
<title>Node11</title>
<g id="a_Node000011"><a xlink:title=" ">
<polygon fill="#e0e0e0" stroke="#999999" points="1182.5,-129 1063.5,-129 1063.5,-110 1182.5,-110 1182.5,-129"/>
<text text-anchor="middle" x="1123" y="-117" font-family="Helvetica,sans-Serif" font-size="10.00">interface/device.pb.h</text>
</a>
</g>
</g>
<!-- Node2&#45;&gt;Node11 -->
<g id="edge37_Node000002_Node000011" class="edge">
<title>Node2&#45;&gt;Node11</title>
<g id="a_edge37_Node000002_Node000011"><a xlink:title=" ">
<path fill="none" stroke="#63b8ff" d="M1185.45,-274.74C1175.07,-249.09 1144.57,-173.78 1130.4,-138.78"/>
<polygon fill="#63b8ff" stroke="#63b8ff" points="1133.56,-137.26 1126.57,-129.31 1127.07,-139.89 1133.56,-137.26"/>
</a>
</g>
</g>
<!-- Node30 -->
<g id="Node000030" class="node">
<title>Node30</title>
<g id="a_Node000030"><a xlink:title=" ">
<polygon fill="#e0e0e0" stroke="#999999" points="1289,-239 1239,-239 1239,-220 1289,-220 1289,-239"/>
<text text-anchor="middle" x="1264" y="-227" font-family="Helvetica,sans-Serif" font-size="10.00">chrono</text>
</a>
</g>
</g>
<!-- Node2&#45;&gt;Node30 -->
<g id="edge39_Node000002_Node000030" class="edge">
<title>Node2&#45;&gt;Node30</title>
<g id="a_edge39_Node000002_Node000030"><a xlink:title=" ">
<path fill="none" stroke="#63b8ff" d="M1201.05,-274.98C1212.46,-266.92 1229.83,-254.65 1243.43,-245.03"/>
<polygon fill="#63b8ff" stroke="#63b8ff" points="1245.58,-247.8 1251.73,-239.17 1241.54,-242.08 1245.58,-247.8"/>
</a>
</g>
</g>
<!-- Node4 -->
<g id="Node000004" class="node">
<title>Node4</title>
<g id="a_Node000004"><a xlink:href="Enums_8h.html" target="_top" xlink:title="Tools for using EnumDecorators.">
<polygon fill="white" stroke="#666666" points="952.5,-184 893.5,-184 893.5,-165 952.5,-165 952.5,-184"/>
<text text-anchor="middle" x="923" y="-172" font-family="Helvetica,sans-Serif" font-size="10.00">Enums.h</text>
</a>
</g>
</g>
<!-- Node3&#45;&gt;Node4 -->
<g id="edge3_Node000003_Node000004" class="edge">
<title>Node3&#45;&gt;Node4</title>
<g id="a_edge3_Node000003_Node000004"><a xlink:title=" ">
<path fill="none" stroke="#63b8ff" d="M526.62,-224.82C601.52,-215.5 798.53,-190.99 883.29,-180.44"/>
<polygon fill="#63b8ff" stroke="#63b8ff" points="883.8,-183.9 893.3,-179.2 882.94,-176.96 883.8,-183.9"/>
</a>
</g>
</g>
<!-- Node12 -->
<g id="Node000012" class="node">
<title>Node12</title>
<g id="a_Node000012"><a xlink:href="IConstraint_8h.html" target="_top" xlink:title="Interface for constraints.">
<polygon fill="white" stroke="#666666" points="253.5,-184 174.5,-184 174.5,-165 253.5,-165 253.5,-184"/>
<text text-anchor="middle" x="214" y="-172" font-family="Helvetica,sans-Serif" font-size="10.00">IConstraint.h</text>
</a>
</g>
</g>
<!-- Node3&#45;&gt;Node12 -->
<g id="edge12_Node000003_Node000012" class="edge">
<title>Node3&#45;&gt;Node12</title>
<g id="a_edge12_Node000003_Node000012"><a xlink:title=" ">
<path fill="none" stroke="#63b8ff" d="M467.25,-222.93C418.92,-213.88 322.84,-195.88 263.92,-184.85"/>
<polygon fill="#63b8ff" stroke="#63b8ff" points="264.19,-181.34 253.72,-182.94 262.91,-188.22 264.19,-181.34"/>
</a>
</g>
</g>
<!-- Node13 -->
<g id="Node000013" class="node">
<title>Node13</title>
<g id="a_Node000013"><a xlink:title=" ">
<polygon fill="#e0e0e0" stroke="#999999" points="273.5,-129 154.5,-129 154.5,-110 273.5,-110 273.5,-129"/>
<text text-anchor="middle" x="214" y="-117" font-family="Helvetica,sans-Serif" font-size="10.00">interface/param.pb.h</text>
</a>
</g>
</g>
<!-- Node3&#45;&gt;Node13 -->
<g id="edge36_Node000003_Node000013" class="edge">
<title>Node3&#45;&gt;Node13</title>
<g id="a_edge36_Node000003_Node000013"><a xlink:title=" ">
<path fill="none" stroke="#63b8ff" d="M467.3,-220.85C437.31,-212.82 389.85,-199.24 350,-184 310.55,-168.91 266.53,-147.47 239.55,-133.77"/>
<polygon fill="#63b8ff" stroke="#63b8ff" points="240.92,-130.54 230.42,-129.1 237.73,-136.77 240.92,-130.54"/>
</a>
</g>
</g>
<!-- Node15 -->
<g id="Node000015" class="node">
<title>Node15</title>
<g id="a_Node000015"><a xlink:href="IParamDescriptor_8h.html" target="_top" xlink:title="Interface class for ParamDescriptor.">
<polygon fill="white" stroke="#666666" points="468.5,-184 359.5,-184 359.5,-165 468.5,-165 468.5,-184"/>
<text text-anchor="middle" x="414" y="-172" font-family="Helvetica,sans-Serif" font-size="10.00">IParamDescriptor.h</text>
</a>
</g>
</g>
<!-- Node3&#45;&gt;Node15 -->
<g id="edge15_Node000003_Node000015" class="edge">
<title>Node3&#45;&gt;Node15</title>
<g id="a_edge15_Node000003_Node000015"><a xlink:title=" ">
<path fill="none" stroke="#63b8ff" d="M483.66,-219.98C470.91,-211.84 451.45,-199.41 436.33,-189.76"/>
<polygon fill="#63b8ff" stroke="#63b8ff" points="437.89,-186.6 427.58,-184.17 434.12,-192.5 437.89,-186.6"/>
</a>
</g>
</g>
<!-- Node22 -->
<g id="Node000022" class="node">
<title>Node22</title>
<g id="a_Node000022"><a xlink:href="Status_8h.html" target="_top" xlink:title="Communicates failure status using gRPC&#39;s codes.">
<polygon fill="white" stroke="#666666" points="518,-129 462,-129 462,-110 518,-110 518,-129"/>
<text text-anchor="middle" x="490" y="-117" font-family="Helvetica,sans-Serif" font-size="10.00">Status.h</text>
</a>
</g>
</g>
<!-- Node3&#45;&gt;Node22 -->
<g id="edge35_Node000003_Node000022" class="edge">
<title>Node3&#45;&gt;Node22</title>
<g id="a_edge35_Node000003_Node000022"><a xlink:title=" ">
<path fill="none" stroke="#63b8ff" d="M496.43,-219.66C495.29,-202.17 492.74,-162.8 491.22,-139.27"/>
<polygon fill="#63b8ff" stroke="#63b8ff" points="494.7,-138.91 490.56,-129.16 487.72,-139.36 494.7,-138.91"/>
</a>
</g>
</g>
<!-- Node25 -->
<g id="Node000025" class="node">
<title>Node25</title>
<g id="a_Node000025"><a xlink:href="Path_8h.html" target="_top" xlink:title="Handles Path objects used to uniquely identify and access OIDs.">
<polygon fill="white" stroke="#666666" points="695.5,-184 648.5,-184 648.5,-165 695.5,-165 695.5,-184"/>
<text text-anchor="middle" x="672" y="-172" font-family="Helvetica,sans-Serif" font-size="10.00">Path.h</text>
</a>
</g>
</g>
<!-- Node3&#45;&gt;Node25 -->
<g id="edge29_Node000003_Node000025" class="edge">
<title>Node3&#45;&gt;Node25</title>
<g id="a_edge29_Node000003_Node000025"><a xlink:title=" ">
<path fill="none" stroke="#63b8ff" d="M525.12,-219.98C556.11,-210.6 605.93,-195.51 638.82,-185.55"/>
<polygon fill="#63b8ff" stroke="#63b8ff" points="639.89,-188.88 648.44,-182.63 637.86,-182.18 639.89,-188.88"/>
</a>
</g>
</g>
<!-- Node5 -->
<g id="Node000005" class="node">
<title>Node5</title>
<g id="a_Node000005"><a xlink:href="EnumDecorator_8h.html" target="_top" xlink:title="Provides an enum with useful extra functionality.">
<polygon fill="white" stroke="#666666" points="1045,-129 901,-129 901,-110 1045,-110 1045,-129"/>
<text text-anchor="middle" x="973" y="-117" font-family="Helvetica,sans-Serif" font-size="10.00">patterns/EnumDecorator.h</text>
</a>
</g>
</g>
<!-- Node4&#45;&gt;Node5 -->
<g id="edge4_Node000004_Node000005" class="edge">
<title>Node4&#45;&gt;Node5</title>
<g id="a_edge4_Node000004_Node000005"><a xlink:title=" ">
<path fill="none" stroke="#63b8ff" d="M931.26,-164.75C938.46,-157.11 949.11,-145.82 957.85,-136.56"/>
<polygon fill="#63b8ff" stroke="#63b8ff" points="960.58,-138.76 964.9,-129.09 955.49,-133.96 960.58,-138.76"/>
</a>
</g>
</g>
<!-- Node7 -->
<g id="Node000007" class="node">
<title>Node7</title>
<g id="a_Node000007"><a xlink:title=" ">
<polygon fill="#e0e0e0" stroke="#999999" points="891,-74 841,-74 841,-55 891,-55 891,-74"/>
<text text-anchor="middle" x="866" y="-62" font-family="Helvetica,sans-Serif" font-size="10.00">cstdint</text>
</a>
</g>
</g>
<!-- Node4&#45;&gt;Node7 -->
<g id="edge11_Node000004_Node000007" class="edge">
<title>Node4&#45;&gt;Node7</title>
<g id="a_edge11_Node000004_Node000007"><a xlink:title=" ">
<path fill="none" stroke="#63b8ff" d="M915.98,-164.67C909.25,-155.95 899.11,-142.07 892,-129 884.08,-114.45 877.09,-96.97 872.36,-84.04"/>
<polygon fill="#63b8ff" stroke="#63b8ff" points="875.59,-82.66 868.95,-74.41 868.99,-85 875.59,-82.66"/>
</a>
</g>
</g>
<!-- Node4&#45;&gt;Node11 -->
<g id="edge10_Node000004_Node000011" class="edge">
<title>Node4&#45;&gt;Node11</title>
<g id="a_edge10_Node000004_Node000011"><a xlink:title=" ">
<path fill="none" stroke="#63b8ff" d="M952.51,-165.68C986.42,-156.69 1042.34,-141.87 1080.84,-131.67"/>
<polygon fill="#63b8ff" stroke="#63b8ff" points="1081.94,-135 1090.71,-129.06 1080.15,-128.23 1081.94,-135"/>
</a>
</g>
</g>
<!-- Node6 -->
<g id="Node000006" class="node">
<title>Node6</title>
<g id="a_Node000006"><a xlink:href="ReflectionMacros_8h.html" target="_top" xlink:title="adapted from https://github.com/tapika/TestCppReflect">
<polygon fill="white" stroke="#666666" points="1057,-74 947,-74 947,-55 1057,-55 1057,-74"/>
<text text-anchor="middle" x="1002" y="-62" font-family="Helvetica,sans-Serif" font-size="10.00">ReflectionMacros.h</text>
</a>
</g>
</g>
<!-- Node5&#45;&gt;Node6 -->
<g id="edge5_Node000005_Node000006" class="edge">
<title>Node5&#45;&gt;Node6</title>
<g id="a_edge5_Node000005_Node000006"><a xlink:title=" ">
<path fill="none" stroke="#63b8ff" d="M977.79,-109.75C981.76,-102.49 987.53,-91.95 992.43,-82.98"/>
<polygon fill="#63b8ff" stroke="#63b8ff" points="995.57,-84.54 997.3,-74.09 989.43,-81.18 995.57,-84.54"/>
</a>
</g>
</g>
<!-- Node5&#45;&gt;Node7 -->
<g id="edge6_Node000005_Node000007" class="edge">
<title>Node5&#45;&gt;Node7</title>
<g id="a_edge6_Node000005_Node000007"><a xlink:title=" ">
<path fill="none" stroke="#63b8ff" d="M955.81,-109.98C938.75,-101.54 912.37,-88.47 892.6,-78.68"/>
<polygon fill="#63b8ff" stroke="#63b8ff" points="894.02,-75.47 883.5,-74.17 890.91,-81.75 894.02,-75.47"/>
</a>
</g>
</g>
<!-- Node8 -->
<g id="Node000008" class="node">
<title>Node8</title>
<g id="a_Node000008"><a xlink:title=" ">
<polygon fill="#e0e0e0" stroke="#999999" points="661.5,-19 568.5,-19 568.5,0 661.5,0 661.5,-19"/>
<text text-anchor="middle" x="615" y="-7" font-family="Helvetica,sans-Serif" font-size="10.00">unordered_map</text>
</a>
</g>
</g>
<!-- Node5&#45;&gt;Node8 -->
<g id="edge7_Node000005_Node000008" class="edge">
<title>Node5&#45;&gt;Node8</title>
<g id="a_edge7_Node000005_Node000008"><a xlink:title=" ">
<path fill="none" stroke="#63b8ff" d="M965.96,-109.81C954.03,-95.73 928.33,-68.18 900,-55 826.32,-20.73 731.55,-12.02 672.02,-10.24"/>
<polygon fill="#63b8ff" stroke="#63b8ff" points="671.77,-6.74 661.69,-9.99 671.6,-13.74 671.77,-6.74"/>
</a>
</g>
</g>
<!-- Node5&#45;&gt;Node9 -->
<g id="edge8_Node000005_Node000009" class="edge">
<title>Node5&#45;&gt;Node9</title>
<g id="a_edge8_Node000005_Node000009"><a xlink:title=" ">
<path fill="none" stroke="#63b8ff" d="M1006.21,-109.97C1040.74,-99.53 1087.05,-80.08 1066,-55 1038.21,-21.89 907.42,-13.41 845.57,-11.24"/>
<polygon fill="#63b8ff" stroke="#63b8ff" points="845.32,-7.73 835.21,-10.91 845.1,-14.73 845.32,-7.73"/>
</a>
</g>
</g>
<!-- Node10 -->
<g id="Node000010" class="node">
<title>Node10</title>
<g id="a_Node000010"><a xlink:title=" ">
<polygon fill="#e0e0e0" stroke="#999999" points="1182.5,-74 1113.5,-74 1113.5,-55 1182.5,-55 1182.5,-74"/>
<text text-anchor="middle" x="1148" y="-62" font-family="Helvetica,sans-Serif" font-size="10.00">type_traits</text>
</a>
</g>
</g>
<!-- Node5&#45;&gt;Node10 -->
<g id="edge9_Node000005_Node000010" class="edge">
<title>Node5&#45;&gt;Node10</title>
<g id="a_edge9_Node000005_Node000010"><a xlink:title=" ">
<path fill="none" stroke="#63b8ff" d="M1001.12,-109.98C1030.62,-101.05 1077.19,-86.94 1109.97,-77.02"/>
<polygon fill="#63b8ff" stroke="#63b8ff" points="1111.11,-80.33 1119.66,-74.08 1109.08,-73.63 1111.11,-80.33"/>
</a>
</g>
</g>
<!-- Node12&#45;&gt;Node13 -->
<g id="edge13_Node000012_Node000013" class="edge">
<title>Node12&#45;&gt;Node13</title>
<g id="a_edge13_Node000012_Node000013"><a xlink:title=" ">
<path fill="none" stroke="#63b8ff" d="M214,-164.75C214,-157.8 214,-147.85 214,-139.13"/>
<polygon fill="#63b8ff" stroke="#63b8ff" points="217.5,-139.09 214,-129.09 210.5,-139.09 217.5,-139.09"/>
</a>
</g>
</g>
<!-- Node14 -->
<g id="Node000014" class="node">
<title>Node14</title>
<g id="a_Node000014"><a xlink:title=" ">
<polygon fill="#e0e0e0" stroke="#999999" points="136,-129 0,-129 0,-110 136,-110 136,-129"/>
<text text-anchor="middle" x="68" y="-117" font-family="Helvetica,sans-Serif" font-size="10.00">interface/constraint.pb.h</text>
</a>
</g>
</g>
<!-- Node12&#45;&gt;Node14 -->
<g id="edge14_Node000012_Node000014" class="edge">
<title>Node12&#45;&gt;Node14</title>
<g id="a_edge14_Node000012_Node000014"><a xlink:title=" ">
<path fill="none" stroke="#63b8ff" d="M190.54,-164.98C166.42,-156.23 128.63,-142.51 101.4,-132.62"/>
<polygon fill="#63b8ff" stroke="#63b8ff" points="102.48,-129.29 91.88,-129.17 100.09,-135.87 102.48,-129.29"/>
</a>
</g>
</g>
<!-- Node15&#45;&gt;Node13 -->
<g id="edge28_Node000015_Node000013" class="edge">
<title>Node15&#45;&gt;Node13</title>
<g id="a_edge28_Node000015_Node000013"><a xlink:title=" ">
<path fill="none" stroke="#63b8ff" d="M381.87,-164.98C347.85,-155.97 294,-141.7 256.5,-131.76"/>
<polygon fill="#63b8ff" stroke="#63b8ff" points="256.95,-128.26 246.39,-129.08 255.16,-135.03 256.95,-128.26"/>
</a>
</g>
</g>
<!-- Node16 -->
<g id="Node000016" class="node">
<title>Node16</title>
<g id="a_Node000016"><a xlink:href="Tags_8h.html" target="_top" xlink:title="Tags to differentiate collections with the same type for template specialization.">
<polygon fill="white" stroke="#666666" points="443.5,-129 396.5,-129 396.5,-110 443.5,-110 443.5,-129"/>
<text text-anchor="middle" x="420" y="-117" font-family="Helvetica,sans-Serif" font-size="10.00">Tags.h</text>
</a>
</g>
</g>
<!-- Node15&#45;&gt;Node16 -->
<g id="edge16_Node000015_Node000016" class="edge">
<title>Node15&#45;&gt;Node16</title>
<g id="a_edge16_Node000015_Node000016"><a xlink:title=" ">
<path fill="none" stroke="#63b8ff" d="M414.99,-164.75C415.78,-157.8 416.9,-147.85 417.89,-139.13"/>
<polygon fill="#63b8ff" stroke="#63b8ff" points="421.38,-139.42 419.03,-129.09 414.42,-138.63 421.38,-139.42"/>
</a>
</g>
</g>
<!-- Node18 -->
<g id="Node000018" class="node">
<title>Node18</title>
<g id="a_Node000018"><a xlink:href="PolyglotText_8h.html" target="_top" xlink:title="Polyglot Text serialization and deserialization to protobuf.">
<polygon fill="white" stroke="#666666" points="378,-129 292,-129 292,-110 378,-110 378,-129"/>
<text text-anchor="middle" x="335" y="-117" font-family="Helvetica,sans-Serif" font-size="10.00">PolyglotText.h</text>
</a>
</g>
</g>
<!-- Node15&#45;&gt;Node18 -->
<g id="edge19_Node000015_Node000018" class="edge">
<title>Node15&#45;&gt;Node18</title>
<g id="a_edge19_Node000015_Node000018"><a xlink:title=" ">
<path fill="none" stroke="#63b8ff" d="M401.31,-164.98C389.17,-156.84 370.64,-144.41 356.25,-134.76"/>
<polygon fill="#63b8ff" stroke="#63b8ff" points="358.18,-131.84 347.92,-129.17 354.28,-137.65 358.18,-131.84"/>
</a>
</g>
</g>
<!-- Node15&#45;&gt;Node22 -->
<g id="edge25_Node000015_Node000022" class="edge">
<title>Node15&#45;&gt;Node22</title>
<g id="a_edge25_Node000015_Node000022"><a xlink:title=" ">
<path fill="none" stroke="#63b8ff" d="M426.21,-164.98C437.78,-156.92 455.38,-144.65 469.16,-135.03"/>
<polygon fill="#63b8ff" stroke="#63b8ff" points="471.37,-137.76 477.57,-129.17 467.36,-132.02 471.37,-137.76"/>
</a>
</g>
</g>
<!-- Node16&#45;&gt;Node9 -->
<g id="edge18_Node000016_Node000009" class="edge">
<title>Node16&#45;&gt;Node9</title>
<g id="a_edge18_Node000016_Node000009"><a xlink:title=" ">
<path fill="none" stroke="#63b8ff" d="M428.49,-109.79C442.82,-95.69 473.34,-68.11 505,-55 554.52,-34.5 712.25,-19.05 780.75,-13.13"/>
<polygon fill="#63b8ff" stroke="#63b8ff" points="781.27,-16.6 790.94,-12.27 780.68,-9.62 781.27,-16.6"/>
</a>
</g>
</g>
<!-- Node17 -->
<g id="Node000017" class="node">
<title>Node17</title>
<g id="a_Node000017"><a xlink:title=" ">
<polygon fill="#e0e0e0" stroke="#999999" points="457.5,-74 392.5,-74 392.5,-55 457.5,-55 457.5,-74"/>
<text text-anchor="middle" x="425" y="-62" font-family="Helvetica,sans-Serif" font-size="10.00">functional</text>
</a>
</g>
</g>
<!-- Node16&#45;&gt;Node17 -->
<g id="edge17_Node000016_Node000017" class="edge">
<title>Node16&#45;&gt;Node17</title>
<g id="a_edge17_Node000016_Node000017"><a xlink:title=" ">
<path fill="none" stroke="#63b8ff" d="M420.83,-109.75C421.48,-102.8 422.42,-92.85 423.24,-84.13"/>
<polygon fill="#63b8ff" stroke="#63b8ff" points="426.73,-84.37 424.19,-74.09 419.77,-83.72 426.73,-84.37"/>
</a>
</g>
</g>
<!-- Node19 -->
<g id="Node000019" class="node">
<title>Node19</title>
<g id="a_Node000019"><a xlink:href="IPolyglotText_8h.html" target="_top" xlink:title="Catena&#39;s multi&#45;language text interface.">
<polygon fill="white" stroke="#666666" points="374.5,-74 285.5,-74 285.5,-55 374.5,-55 374.5,-74"/>
<text text-anchor="middle" x="330" y="-62" font-family="Helvetica,sans-Serif" font-size="10.00">IPolyglotText.h</text>
</a>
</g>
</g>
<!-- Node18&#45;&gt;Node19 -->
<g id="edge20_Node000018_Node000019" class="edge">
<title>Node18&#45;&gt;Node19</title>
<g id="a_edge20_Node000018_Node000019"><a xlink:title=" ">
<path fill="none" stroke="#63b8ff" d="M334.17,-109.75C333.52,-102.8 332.58,-92.85 331.76,-84.13"/>
<polygon fill="#63b8ff" stroke="#63b8ff" points="335.23,-83.72 330.81,-74.09 328.27,-84.37 335.23,-83.72"/>
</a>
</g>
</g>
<!-- Node19&#45;&gt;Node8 -->
<g id="edge22_Node000019_Node000008" class="edge">
<title>Node19&#45;&gt;Node8</title>
<g id="a_edge22_Node000019_Node000008"><a xlink:title=" ">
<path fill="none" stroke="#63b8ff" d="M374.53,-55.22C424.24,-45.97 504.79,-31 558.8,-20.95"/>
<polygon fill="#63b8ff" stroke="#63b8ff" points="559.7,-24.34 568.89,-19.07 558.42,-17.46 559.7,-24.34"/>
</a>
</g>
</g>
<!-- Node19&#45;&gt;Node9 -->
<g id="edge23_Node000019_Node000009" class="edge">
<title>Node19&#45;&gt;Node9</title>
<g id="a_edge23_Node000019_Node000009"><a xlink:title=" ">
<path fill="none" stroke="#63b8ff" d="M374.51,-56.18C377.38,-55.76 380.23,-55.37 383,-55 530.92,-35.5 708.41,-19.45 780.34,-13.25"/>
<polygon fill="#63b8ff" stroke="#63b8ff" points="780.9,-16.72 790.57,-12.38 780.3,-9.74 780.9,-16.72"/>
</a>
</g>
</g>
<!-- Node20 -->
<g id="Node000020" class="node">
<title>Node20</title>
<g id="a_Node000020"><a xlink:title=" ">
<polygon fill="#e0e0e0" stroke="#999999" points="333,-19 201,-19 201,0 333,0 333,-19"/>
<text text-anchor="middle" x="267" y="-7" font-family="Helvetica,sans-Serif" font-size="10.00">interface/language.pb.h</text>
</a>
</g>
</g>
<!-- Node19&#45;&gt;Node20 -->
<g id="edge21_Node000019_Node000020" class="edge">
<title>Node19&#45;&gt;Node20</title>
<g id="a_edge21_Node000019_Node000020"><a xlink:title=" ">
<path fill="none" stroke="#63b8ff" d="M319.88,-54.98C310.56,-47.15 296.53,-35.34 285.26,-25.86"/>
<polygon fill="#63b8ff" stroke="#63b8ff" points="287.21,-22.93 277.31,-19.17 282.71,-28.29 287.21,-22.93"/>
</a>
</g>
</g>
<!-- Node21 -->
<g id="Node000021" class="node">
<title>Node21</title>
<g id="a_Node000021"><a xlink:title=" ">
<polygon fill="#e0e0e0" stroke="#999999" points="434.5,-19 351.5,-19 351.5,0 434.5,0 434.5,-19"/>
<text text-anchor="middle" x="393" y="-7" font-family="Helvetica,sans-Serif" font-size="10.00">initializer_list</text>
</a>
</g>
</g>
<!-- Node19&#45;&gt;Node21 -->
<g id="edge24_Node000019_Node000021" class="edge">
<title>Node19&#45;&gt;Node21</title>
<g id="a_edge24_Node000019_Node000021"><a xlink:title=" ">
<path fill="none" stroke="#63b8ff" d="M340.12,-54.98C349.44,-47.15 363.47,-35.34 374.74,-25.86"/>
<polygon fill="#63b8ff" stroke="#63b8ff" points="377.29,-28.29 382.69,-19.17 372.79,-22.93 377.29,-28.29"/>
</a>
</g>
</g>
<!-- Node23 -->
<g id="Node000023" class="node">
<title>Node23</title>
<g id="a_Node000023"><a xlink:title=" ">
<polygon fill="#e0e0e0" stroke="#999999" points="654,-74 598,-74 598,-55 654,-55 654,-74"/>
<text text-anchor="middle" x="626" y="-62" font-family="Helvetica,sans-Serif" font-size="10.00">sstream</text>
</a>
</g>
</g>
<!-- Node22&#45;&gt;Node23 -->
<g id="edge26_Node000022_Node000023" class="edge">
<title>Node22&#45;&gt;Node23</title>
<g id="a_edge26_Node000022_Node000023"><a xlink:title=" ">
<path fill="none" stroke="#63b8ff" d="M511.85,-109.98C534.12,-101.3 568.9,-87.75 594.22,-77.88"/>
<polygon fill="#63b8ff" stroke="#63b8ff" points="595.71,-81.06 603.75,-74.17 593.16,-74.54 595.71,-81.06"/>
</a>
</g>
</g>
<!-- Node24 -->
<g id="Node000024" class="node">
<title>Node24</title>
<g id="a_Node000024"><a xlink:title=" ">
<polygon fill="#e0e0e0" stroke="#999999" points="579.5,-74 514.5,-74 514.5,-55 579.5,-55 579.5,-74"/>
<text text-anchor="middle" x="547" y="-62" font-family="Helvetica,sans-Serif" font-size="10.00">stdexcept</text>
</a>
</g>
</g>
<!-- Node22&#45;&gt;Node24 -->
<g id="edge27_Node000022_Node000024" class="edge">
<title>Node22&#45;&gt;Node24</title>
<g id="a_edge27_Node000022_Node000024"><a xlink:title=" ">
<path fill="none" stroke="#63b8ff" d="M499.16,-109.98C507.5,-102.23 520.03,-90.58 530.18,-81.14"/>
<polygon fill="#63b8ff" stroke="#63b8ff" points="532.74,-83.54 537.68,-74.17 527.97,-78.42 532.74,-83.54"/>
</a>
</g>
</g>
<!-- Node25&#45;&gt;Node9 -->
<g id="edge31_Node000025_Node000009" class="edge">
<title>Node25&#45;&gt;Node9</title>
<g id="a_edge31_Node000025_Node000009"><a xlink:title=" ">
<path fill="none" stroke="#63b8ff" d="M695.7,-174.07C728.87,-173.43 788.2,-166.69 816,-129 837.6,-99.71 827.93,-54.35 819.88,-29.09"/>
<polygon fill="#63b8ff" stroke="#63b8ff" points="823.08,-27.63 816.52,-19.31 816.46,-29.91 823.08,-27.63"/>
</a>
</g>
</g>
<!-- Node26 -->
<g id="Node000026" class="node">
<title>Node26</title>
<g id="a_Node000026"><a xlink:title=" ">
<polygon fill="#e0e0e0" stroke="#999999" points="596,-129 536,-129 536,-110 596,-110 596,-129"/>
<text text-anchor="middle" x="566" y="-117" font-family="Helvetica,sans-Serif" font-size="10.00">iostream</text>
</a>
</g>
</g>
<!-- Node25&#45;&gt;Node26 -->
<g id="edge30_Node000025_Node000026" class="edge">
<title>Node25&#45;&gt;Node26</title>
<g id="a_edge30_Node000025_Node000026"><a xlink:title=" ">
<path fill="none" stroke="#63b8ff" d="M654.97,-164.98C638.07,-156.54 611.94,-143.47 592.36,-133.68"/>
<polygon fill="#63b8ff" stroke="#63b8ff" points="593.85,-130.51 583.34,-129.17 590.72,-136.77 593.85,-130.51"/>
</a>
</g>
</g>
<!-- Node27 -->
<g id="Node000027" class="node">
<title>Node27</title>
<g id="a_Node000027"><a xlink:title=" ">
<polygon fill="#e0e0e0" stroke="#999999" points="661.5,-129 614.5,-129 614.5,-110 661.5,-110 661.5,-129"/>
<text text-anchor="middle" x="638" y="-117" font-family="Helvetica,sans-Serif" font-size="10.00">vector</text>
</a>
</g>
</g>
<!-- Node25&#45;&gt;Node27 -->
<g id="edge32_Node000025_Node000027" class="edge">
<title>Node25&#45;&gt;Node27</title>
<g id="a_edge32_Node000025_Node000027"><a xlink:title=" ">
<path fill="none" stroke="#63b8ff" d="M666.39,-164.75C661.68,-157.42 654.83,-146.73 649.03,-137.7"/>
<polygon fill="#63b8ff" stroke="#63b8ff" points="651.86,-135.62 643.51,-129.09 645.96,-139.4 651.86,-135.62"/>
</a>
</g>
</g>
<!-- Node28 -->
<g id="Node000028" class="node">
<title>Node28</title>
<g id="a_Node000028"><a xlink:title=" ">
<polygon fill="#e0e0e0" stroke="#999999" points="730.5,-129 679.5,-129 679.5,-110 730.5,-110 730.5,-129"/>
<text text-anchor="middle" x="705" y="-117" font-family="Helvetica,sans-Serif" font-size="10.00">variant</text>
</a>
</g>
</g>
<!-- Node25&#45;&gt;Node28 -->
<g id="edge33_Node000025_Node000028" class="edge">
<title>Node25&#45;&gt;Node28</title>
<g id="a_edge33_Node000025_Node000028"><a xlink:title=" ">
<path fill="none" stroke="#63b8ff" d="M677.45,-164.75C682.01,-157.42 688.67,-146.73 694.29,-137.7"/>
<polygon fill="#63b8ff" stroke="#63b8ff" points="697.34,-139.43 699.65,-129.09 691.4,-135.73 697.34,-139.43"/>
</a>
</g>
</g>
<!-- Node29 -->
<g id="Node000029" class="node">
<title>Node29</title>
<g id="a_Node000029"><a xlink:title=" ">
<polygon fill="#e0e0e0" stroke="#999999" points="807,-129 749,-129 749,-110 807,-110 807,-129"/>
<text text-anchor="middle" x="778" y="-117" font-family="Helvetica,sans-Serif" font-size="10.00">memory</text>
</a>
</g>
</g>
<!-- Node25&#45;&gt;Node29 -->
<g id="edge34_Node000025_Node000029" class="edge">
<title>Node25&#45;&gt;Node29</title>
<g id="a_edge34_Node000025_Node000029"><a xlink:title=" ">
<path fill="none" stroke="#63b8ff" d="M689.03,-164.98C705.93,-156.54 732.06,-143.47 751.64,-133.68"/>
<polygon fill="#63b8ff" stroke="#63b8ff" points="753.28,-136.77 760.66,-129.17 750.15,-130.51 753.28,-136.77"/>
</a>
</g>
</g>
</g>
</svg>
