<?xml version="1.0" encoding="UTF-8" standalone="no"?>
<!DOCTYPE svg PUBLIC "-//W3C//DTD SVG 1.1//EN"
 "http://www.w3.org/Graphics/SVG/1.1/DTD/svg11.dtd">
<!-- Generated by graphviz version 2.43.0 (0)
 -->
<!-- Title: /home/runner/work/Catena/Catena/sdks/cpp/common/include/IDevice.h Pages: 1 -->
<!--zoomable 379 -->

<svg id="main" version="1.1" xmlns="http://www.w3.org/2000/svg" xmlns:xlink="http://www.w3.org/1999/xlink" xml:space="preserve" onload="init(evt)">
<style type="text/css"><![CDATA[
.node, .edge {opacity: 0.7;}
.node.selected, .edge.selected {opacity: 1;}
.edge:hover path { stroke: red; }
.edge:hover polygon { stroke: red; fill: red; }
]]></style>

<defs>
  <circle id="rim" cx="0" cy="0" r="7"/>
  <circle id="rim2" cx="0" cy="0" r="3.5"/>
  <g id="zoomPlus">
    <use xlink:href="#rim" fill="#404040"><set attributeName="fill" to="#808080" begin="zoomplus.mouseover" end="zoomplus.mouseout"/></use>
    <path d="M-4,0h8M0,-4v8" fill="none" stroke="white" stroke-width="1.5" pointer-events="none"/>
  </g>
  <g id="zoomMin">
    <use xlink:href="#rim" fill="#404040"><set attributeName="fill" to="#808080" begin="zoomminus.mouseover" end="zoomminus.mouseout"/></use>
    <path d="M-4,0h8" fill="none" stroke="white" stroke-width="1.5" pointer-events="none"/>
  </g>
  <g id="arrowUp" transform="translate(30 24)">
    <use xlink:href="#rim"/>
    <path pointer-events="none" fill="none" stroke="white" stroke-width="1.5" d="M0,-3.0v7 M-2.5,-0.5L0,-3.0L2.5,-0.5"/>
  </g>
  <g id="arrowRight" transform="rotate(90) translate(36 -43)">
    <use xlink:href="#rim"/>
    <path pointer-events="none" fill="none" stroke="white" stroke-width="1.5" d="M0,-3.0v7 M-2.5,-0.5L0,-3.0L2.5,-0.5"/>
  </g>
  <g id="arrowDown" transform="rotate(180) translate(-30 -48)">
    <use xlink:href="#rim"/>
    <path pointer-events="none" fill="none" stroke="white" stroke-width="1.5" d="M0,-3.0v7 M-2.5,-0.5L0,-3.0L2.5,-0.5"/>
  </g>
  <g id="arrowLeft" transform="rotate(270) translate(-36 17)">
    <use xlink:href="#rim"/>
    <path pointer-events="none" fill="none" stroke="white" stroke-width="1.5" d="M0,-3.0v7 M-2.5,-0.5L0,-3.0L2.5,-0.5"/>
  </g>
  <g id="resetDef">
    <use xlink:href="#rim2" fill="#404040"><set attributeName="fill" to="#808080" begin="reset.mouseover" end="reset.mouseout"/></use>
  </g>
</defs>
<script type="application/ecmascript">
var viewWidth = 1466;
var viewHeight = 379;
var sectionId = 'dynsection-0';
</script>
<script type="application/ecmascript" xlink:href="svg.min.js"/>
<svg id="graph" class="graph">
<g id="viewport">
<title>/home/runner/work/Catena/Catena/sdks/cpp/common/include/IDevice.h</title>
<!-- Node1 -->
<g id="Node000001" class="node">
<title>Node1</title>
<g id="a_Node000001"><a xlink:title="Interface for device.">
<polygon fill="#999999" stroke="#666666" points="1075,-371 929,-371 929,-330 1075,-330 1075,-371"/>
<text text-anchor="start" x="937" y="-359" font-family="Helvetica,sans-Serif" font-size="10.00">/home/runner/work/Catena</text>
<text text-anchor="start" x="937" y="-348" font-family="Helvetica,sans-Serif" font-size="10.00">/Catena/sdks/cpp/common</text>
<text text-anchor="middle" x="1002" y="-337" font-family="Helvetica,sans-Serif" font-size="10.00">/include/IDevice.h</text>
</a>
</g>
</g>
<!-- Node2 -->
<g id="Node000002" class="node">
<title>Node2</title>
<g id="a_Node000002"><a xlink:href="Authorizer_8h.html" target="_top" xlink:title="Class for handling authorization information.">
<polygon fill="white" stroke="#666666" points="596.5,-294 521.5,-294 521.5,-275 596.5,-275 596.5,-294"/>
<text text-anchor="middle" x="559" y="-282" font-family="Helvetica,sans-Serif" font-size="10.00">Authorizer.h</text>
</a>
</g>
</g>
<!-- Node1&#45;&gt;Node2 -->
<g id="edge1_Node000001_Node000002" class="edge">
<title>Node1&#45;&gt;Node2</title>
<g id="a_edge1_Node000001_Node000002"><a xlink:title=" ">
<path fill="none" stroke="#63b8ff" d="M928.85,-338.93C837.48,-325.73 683.77,-303.53 606.45,-292.36"/>
<polygon fill="#63b8ff" stroke="#63b8ff" points="606.91,-288.88 596.51,-290.92 605.91,-295.81 606.91,-288.88"/>
</a>
</g>
</g>
<!-- Node8 -->
<g id="Node000008" class="node">
<title>Node8</title>
<g id="a_Node000008"><a xlink:title=" ">
<polygon fill="#e0e0e0" stroke="#999999" points="535,-19 491,-19 491,0 535,0 535,-19"/>
<text text-anchor="middle" x="513" y="-7" font-family="Helvetica,sans-Serif" font-size="10.00">string</text>
</a>
</g>
</g>
<!-- Node1&#45;&gt;Node8 -->
<g id="edge49_Node000001_Node000008" class="edge">
<title>Node1&#45;&gt;Node8</title>
<g id="a_edge49_Node000001_Node000008"><a xlink:title=" ">
<path fill="none" stroke="#63b8ff" d="M928.82,-347.21C718.28,-339.67 126,-311.27 126,-230.5 126,-230.5 126,-230.5 126,-118.5 126,-80.58 149.48,-72.74 183,-55 234.28,-27.87 407.98,-15.93 480.63,-12.03"/>
<polygon fill="#63b8ff" stroke="#63b8ff" points="481.19,-15.51 490.99,-11.5 480.82,-8.52 481.19,-15.51"/>
</a>
</g>
</g>
<!-- Node10 -->
<g id="Node000010" class="node">
<title>Node10</title>
<g id="a_Node000010"><a xlink:title=" ">
<polygon fill="#e0e0e0" stroke="#999999" points="273.5,-129 154.5,-129 154.5,-110 273.5,-110 273.5,-129"/>
<text text-anchor="middle" x="214" y="-117" font-family="Helvetica,sans-Serif" font-size="10.00">interface/device.pb.h</text>
</a>
</g>
</g>
<!-- Node1&#45;&gt;Node10 -->
<g id="edge48_Node000001_Node000010" class="edge">
<title>Node1&#45;&gt;Node10</title>
<g id="a_edge48_Node000001_Node000010"><a xlink:title=" ">
<path fill="none" stroke="#63b8ff" d="M928.73,-345.92C832.42,-340.14 658.41,-325.98 513,-294 437.09,-277.31 414.3,-277.88 347,-239 297.92,-210.65 250.94,-162.15 228.22,-136.89"/>
<polygon fill="#63b8ff" stroke="#63b8ff" points="230.72,-134.44 221.47,-129.28 225.48,-139.08 230.72,-134.44"/>
</a>
</g>
</g>
<!-- Node11 -->
<g id="Node000011" class="node">
<title>Node11</title>
<g id="a_Node000011"><a xlink:href="IParam_8h.html" target="_top" xlink:title="Interface for parameters.">
<polygon fill="white" stroke="#666666" points="823.5,-239 764.5,-239 764.5,-220 823.5,-220 823.5,-239"/>
<text text-anchor="middle" x="794" y="-227" font-family="Helvetica,sans-Serif" font-size="10.00">IParam.h</text>
</a>
</g>
</g>
<!-- Node1&#45;&gt;Node11 -->
<g id="edge42_Node000001_Node000011" class="edge">
<title>Node1&#45;&gt;Node11</title>
<g id="a_edge42_Node000001_Node000011"><a xlink:title=" ">
<path fill="none" stroke="#63b8ff" d="M967.65,-329.85C925.39,-305.67 854.73,-265.24 817.92,-244.19"/>
<polygon fill="#63b8ff" stroke="#63b8ff" points="819.33,-240.96 808.91,-239.03 815.86,-247.04 819.33,-240.96"/>
</a>
</g>
</g>
<!-- Node22 -->
<g id="Node000022" class="node">
<title>Node22</title>
<g id="a_Node000022"><a xlink:href="Path_8h.html" target="_top" xlink:title="Handles Path objects used to uniquely identify and access OIDs.">
<polygon fill="white" stroke="#666666" points="1025.5,-184 978.5,-184 978.5,-165 1025.5,-165 1025.5,-184"/>
<text text-anchor="middle" x="1002" y="-172" font-family="Helvetica,sans-Serif" font-size="10.00">Path.h</text>
</a>
</g>
</g>
<!-- Node1&#45;&gt;Node22 -->
<g id="edge41_Node000001_Node000022" class="edge">
<title>Node1&#45;&gt;Node22</title>
<g id="a_edge41_Node000001_Node000022"><a xlink:title=" ">
<path fill="none" stroke="#63b8ff" d="M1002,-329.88C1002,-296.17 1002,-227.69 1002,-194.45"/>
<polygon fill="#63b8ff" stroke="#63b8ff" points="1005.5,-194.27 1002,-184.27 998.5,-194.27 1005.5,-194.27"/>
</a>
</g>
</g>
<!-- Node24 -->
<g id="Node000024" class="node">
<title>Node24</title>
<g id="a_Node000024"><a xlink:title=" ">
<polygon fill="#e0e0e0" stroke="#999999" points="1300.5,-129 1253.5,-129 1253.5,-110 1300.5,-110 1300.5,-129"/>
<text text-anchor="middle" x="1277" y="-117" font-family="Helvetica,sans-Serif" font-size="10.00">vector</text>
</a>
</g>
</g>
<!-- Node1&#45;&gt;Node24 -->
<g id="edge50_Node000001_Node000024" class="edge">
<title>Node1&#45;&gt;Node24</title>
<g id="a_edge50_Node000001_Node000024"><a xlink:title=" ">
<path fill="none" stroke="#63b8ff" d="M1018.53,-329.96C1049.77,-293.89 1120.87,-215.91 1193,-165 1210.36,-152.75 1231.5,-141.57 1248.23,-133.48"/>
<polygon fill="#63b8ff" stroke="#63b8ff" points="1249.97,-136.53 1257.51,-129.08 1246.97,-130.2 1249.97,-136.53"/>
</a>
</g>
</g>
<!-- Node27 -->
<g id="Node000027" class="node">
<title>Node27</title>
<g id="a_Node000027"><a xlink:href="Status_8h.html" target="_top" xlink:title="Communicates failure status using gRPC&#39;s codes.">
<polygon fill="white" stroke="#666666" points="1258,-184 1202,-184 1202,-165 1258,-165 1258,-184"/>
<text text-anchor="middle" x="1230" y="-172" font-family="Helvetica,sans-Serif" font-size="10.00">Status.h</text>
</a>
</g>
</g>
<!-- Node1&#45;&gt;Node27 -->
<g id="edge46_Node000001_Node000027" class="edge">
<title>Node1&#45;&gt;Node27</title>
<g id="a_edge46_Node000001_Node000027"><a xlink:title=" ">
<path fill="none" stroke="#63b8ff" d="M1027.71,-329.88C1073.72,-294.77 1169.14,-221.94 1210.35,-190.5"/>
<polygon fill="#63b8ff" stroke="#63b8ff" points="1212.68,-193.12 1218.5,-184.27 1208.43,-187.56 1212.68,-193.12"/>
</a>
</g>
</g>
<!-- Node32 -->
<g id="Node000032" class="node">
<title>Node32</title>
<g id="a_Node000032"><a xlink:href="ILanguagePack_8h.html" target="_top" xlink:title="Interface for language packs.">
<polygon fill="white" stroke="#666666" points="98,-74 0,-74 0,-55 98,-55 98,-74"/>
<text text-anchor="middle" x="49" y="-62" font-family="Helvetica,sans-Serif" font-size="10.00">ILanguagePack.h</text>
</a>
</g>
</g>
<!-- Node1&#45;&gt;Node32 -->
<g id="edge43_Node000001_Node000032" class="edge">
<title>Node1&#45;&gt;Node32</title>
<g id="a_edge43_Node000001_Node000032"><a xlink:title=" ">
<path fill="none" stroke="#63b8ff" d="M928.69,-348.61C728.37,-345.67 182.07,-334.02 112,-294 82.4,-277.1 69,-264.58 69,-230.5 69,-230.5 69,-230.5 69,-173.5 69,-141.51 60.41,-105.07 54.49,-83.75"/>
<polygon fill="#63b8ff" stroke="#63b8ff" points="57.84,-82.71 51.7,-74.08 51.11,-84.66 57.84,-82.71"/>
</a>
</g>
</g>
<!-- Node33 -->
<g id="Node000033" class="node">
<title>Node33</title>
<g id="a_Node000033"><a xlink:title=" ">
<polygon fill="#e0e0e0" stroke="#999999" points="1194.5,-294 1113.5,-294 1113.5,-275 1194.5,-275 1194.5,-294"/>
<text text-anchor="middle" x="1154" y="-282" font-family="Helvetica,sans-Serif" font-size="10.00">vdk/signals.h</text>
</a>
</g>
</g>
<!-- Node1&#45;&gt;Node33 -->
<g id="edge47_Node000001_Node000033" class="edge">
<title>Node1&#45;&gt;Node33</title>
<g id="a_edge47_Node000001_Node000033"><a xlink:title=" ">
<path fill="none" stroke="#63b8ff" d="M1048.43,-329.95C1073.11,-319.56 1102.72,-307.09 1124.3,-298.01"/>
<polygon fill="#63b8ff" stroke="#63b8ff" points="1125.74,-301.2 1133.59,-294.09 1123.02,-294.75 1125.74,-301.2"/>
</a>
</g>
</g>
<!-- Node34 -->
<g id="Node000034" class="node">
<title>Node34</title>
<g id="a_Node000034"><a xlink:title=" ">
<polygon fill="#e0e0e0" stroke="#999999" points="1275,-294 1213,-294 1213,-275 1275,-275 1275,-294"/>
<text text-anchor="middle" x="1244" y="-282" font-family="Helvetica,sans-Serif" font-size="10.00">coroutine</text>
</a>
</g>
</g>
<!-- Node1&#45;&gt;Node34 -->
<g id="edge51_Node000001_Node000034" class="edge">
<title>Node1&#45;&gt;Node34</title>
<g id="a_edge51_Node000001_Node000034"><a xlink:title=" ">
<path fill="none" stroke="#63b8ff" d="M1075.26,-330.12C1117.17,-319.04 1168.18,-305.55 1203.07,-296.32"/>
<polygon fill="#63b8ff" stroke="#63b8ff" points="1204.14,-299.66 1212.91,-293.72 1202.35,-292.89 1204.14,-299.66"/>
</a>
</g>
</g>
<!-- Node35 -->
<g id="Node000035" class="node">
<title>Node35</title>
<g id="a_Node000035"><a xlink:title=" ">
<polygon fill="#e0e0e0" stroke="#999999" points="1341,-294 1293,-294 1293,-275 1341,-275 1341,-294"/>
<text text-anchor="middle" x="1317" y="-282" font-family="Helvetica,sans-Serif" font-size="10.00">mutex</text>
</a>
</g>
</g>
<!-- Node1&#45;&gt;Node35 -->
<g id="edge52_Node000001_Node000035" class="edge">
<title>Node1&#45;&gt;Node35</title>
<g id="a_edge52_Node000001_Node000035"><a xlink:title=" ">
<path fill="none" stroke="#63b8ff" d="M1075.28,-336.28C1130,-326.13 1206.83,-311.29 1283.11,-294.1"/>
<polygon fill="#63b8ff" stroke="#63b8ff" points="1283.91,-297.51 1292.89,-291.88 1282.36,-290.68 1283.91,-297.51"/>
</a>
</g>
</g>
<!-- Node3 -->
<g id="Node000003" class="node">
<title>Node3</title>
<g id="a_Node000003"><a xlink:href="Enums_8h.html" target="_top" xlink:title="tools for using EnumDecorators.">
<polygon fill="white" stroke="#666666" points="473.5,-184 414.5,-184 414.5,-165 473.5,-165 473.5,-184"/>
<text text-anchor="middle" x="444" y="-172" font-family="Helvetica,sans-Serif" font-size="10.00">Enums.h</text>
</a>
</g>
</g>
<!-- Node2&#45;&gt;Node3 -->
<g id="edge2_Node000002_Node000003" class="edge">
<title>Node2&#45;&gt;Node3</title>
<g id="a_edge2_Node000002_Node000003"><a xlink:title=" ">
<path fill="none" stroke="#63b8ff" d="M541.29,-275C526.02,-267.1 503.99,-254.27 488,-239 473.79,-225.43 461.44,-206.61 453.47,-192.98"/>
<polygon fill="#63b8ff" stroke="#63b8ff" points="456.44,-191.12 448.48,-184.12 450.34,-194.55 456.44,-191.12"/>
</a>
</g>
</g>
<!-- Node2&#45;&gt;Node11 -->
<g id="edge11_Node000002_Node000011" class="edge">
<title>Node2&#45;&gt;Node11</title>
<g id="a_edge11_Node000002_Node000011"><a xlink:title=" ">
<path fill="none" stroke="#63b8ff" d="M596.76,-274.98C639.97,-265.24 710.43,-249.35 754.4,-239.43"/>
<polygon fill="#63b8ff" stroke="#63b8ff" points="755.18,-242.84 764.16,-237.23 753.64,-236.01 755.18,-242.84"/>
</a>
</g>
</g>
<!-- Node15 -->
<g id="Node000015" class="node">
<title>Node15</title>
<g id="a_Node000015"><a xlink:href="IParamDescriptor_8h.html" target="_top" xlink:title="Interface class for ParamDescriptor.">
<polygon fill="white" stroke="#666666" points="693.5,-184 584.5,-184 584.5,-165 693.5,-165 693.5,-184"/>
<text text-anchor="middle" x="639" y="-172" font-family="Helvetica,sans-Serif" font-size="10.00">IParamDescriptor.h</text>
</a>
</g>
</g>
<!-- Node2&#45;&gt;Node15 -->
<g id="edge37_Node000002_Node000015" class="edge">
<title>Node2&#45;&gt;Node15</title>
<g id="a_edge37_Node000002_Node000015"><a xlink:title=" ">
<path fill="none" stroke="#63b8ff" d="M565.55,-274.66C578.86,-256.69 609.27,-215.64 626.49,-192.38"/>
<polygon fill="#63b8ff" stroke="#63b8ff" points="629.45,-194.28 632.59,-184.16 623.82,-190.11 629.45,-194.28"/>
</a>
</g>
</g>
<!-- Node17 -->
<g id="Node000017" class="node">
<title>Node17</title>
<g id="a_Node000017"><a xlink:title=" ">
<polygon fill="#e0e0e0" stroke="#999999" points="579.5,-74 514.5,-74 514.5,-55 579.5,-55 579.5,-74"/>
<text text-anchor="middle" x="547" y="-62" font-family="Helvetica,sans-Serif" font-size="10.00">functional</text>
</a>
</g>
</g>
<!-- Node2&#45;&gt;Node17 -->
<g id="edge39_Node000002_Node000017" class="edge">
<title>Node2&#45;&gt;Node17</title>
<g id="a_edge39_Node000002_Node000017"><a xlink:title=" ">
<path fill="none" stroke="#63b8ff" d="M552.69,-274.79C546.8,-266.16 538.27,-252.33 534,-239 518.99,-192.17 524.67,-178.11 522,-129 521.54,-120.57 519.86,-118.17 522,-110 524.55,-100.26 529.75,-90.41 534.76,-82.46"/>
<polygon fill="#63b8ff" stroke="#63b8ff" points="537.69,-84.37 540.37,-74.12 531.89,-80.46 537.69,-84.37"/>
</a>
</g>
</g>
<!-- Node30 -->
<g id="Node000030" class="node">
<title>Node30</title>
<g id="a_Node000030"><a xlink:title=" ">
<polygon fill="#e0e0e0" stroke="#999999" points="436,-239 356,-239 356,-220 436,-220 436,-239"/>
<text text-anchor="middle" x="396" y="-227" font-family="Helvetica,sans-Serif" font-size="10.00">jwt&#45;cpp/jwt.h</text>
</a>
</g>
</g>
<!-- Node2&#45;&gt;Node30 -->
<g id="edge38_Node000002_Node000030" class="edge">
<title>Node2&#45;&gt;Node30</title>
<g id="a_edge38_Node000002_Node000030"><a xlink:title=" ">
<path fill="none" stroke="#63b8ff" d="M532.81,-274.98C505.56,-266.13 462.7,-252.19 432.22,-242.28"/>
<polygon fill="#63b8ff" stroke="#63b8ff" points="432.99,-238.85 422.39,-239.08 430.82,-245.5 432.99,-238.85"/>
</a>
</g>
</g>
<!-- Node31 -->
<g id="Node000031" class="node">
<title>Node31</title>
<g id="a_Node000031"><a xlink:title=" ">
<polygon fill="#e0e0e0" stroke="#999999" points="575,-239 543,-239 543,-220 575,-220 575,-239"/>
<text text-anchor="middle" x="559" y="-227" font-family="Helvetica,sans-Serif" font-size="10.00">set</text>
</a>
</g>
</g>
<!-- Node2&#45;&gt;Node31 -->
<g id="edge40_Node000002_Node000031" class="edge">
<title>Node2&#45;&gt;Node31</title>
<g id="a_edge40_Node000002_Node000031"><a xlink:title=" ">
<path fill="none" stroke="#63b8ff" d="M559,-274.75C559,-267.8 559,-257.85 559,-249.13"/>
<polygon fill="#63b8ff" stroke="#63b8ff" points="562.5,-249.09 559,-239.09 555.5,-249.09 562.5,-249.09"/>
</a>
</g>
</g>
<!-- Node4 -->
<g id="Node000004" class="node">
<title>Node4</title>
<g id="a_Node000004"><a xlink:href="EnumDecorator_8h.html" target="_top" xlink:title="Provides an enum with useful extra functionality.">
<polygon fill="white" stroke="#666666" points="436,-129 292,-129 292,-110 436,-110 436,-129"/>
<text text-anchor="middle" x="364" y="-117" font-family="Helvetica,sans-Serif" font-size="10.00">patterns/EnumDecorator.h</text>
</a>
</g>
</g>
<!-- Node3&#45;&gt;Node4 -->
<g id="edge3_Node000003_Node000004" class="edge">
<title>Node3&#45;&gt;Node4</title>
<g id="a_edge3_Node000003_Node000004"><a xlink:title=" ">
<path fill="none" stroke="#63b8ff" d="M431.15,-164.98C418.86,-156.84 400.09,-144.41 385.52,-134.76"/>
<polygon fill="#63b8ff" stroke="#63b8ff" points="387.36,-131.78 377.09,-129.17 383.49,-137.61 387.36,-131.78"/>
</a>
</g>
</g>
<!-- Node6 -->
<g id="Node000006" class="node">
<title>Node6</title>
<g id="a_Node000006"><a xlink:title=" ">
<polygon fill="#e0e0e0" stroke="#999999" points="496,-74 446,-74 446,-55 496,-55 496,-74"/>
<text text-anchor="middle" x="471" y="-62" font-family="Helvetica,sans-Serif" font-size="10.00">cstdint</text>
</a>
</g>
</g>
<!-- Node3&#45;&gt;Node6 -->
<g id="edge10_Node000003_Node000006" class="edge">
<title>Node3&#45;&gt;Node6</title>
<g id="a_edge10_Node000003_Node000006"><a xlink:title=" ">
<path fill="none" stroke="#63b8ff" d="M446.21,-164.66C450.6,-147.09 460.51,-107.45 466.39,-83.95"/>
<polygon fill="#63b8ff" stroke="#63b8ff" points="469.81,-84.71 468.84,-74.16 463.01,-83.01 469.81,-84.71"/>
</a>
</g>
</g>
<!-- Node3&#45;&gt;Node10 -->
<g id="edge9_Node000003_Node000010" class="edge">
<title>Node3&#45;&gt;Node10</title>
<g id="a_edge9_Node000003_Node000010"><a xlink:title=" ">
<path fill="none" stroke="#63b8ff" d="M414.4,-166.68C375.6,-157.74 307.08,-141.95 261.11,-131.36"/>
<polygon fill="#63b8ff" stroke="#63b8ff" points="261.62,-127.88 251.09,-129.05 260.05,-134.7 261.62,-127.88"/>
</a>
</g>
</g>
<!-- Node5 -->
<g id="Node000005" class="node">
<title>Node5</title>
<g id="a_Node000005"><a xlink:href="ReflectionMacros_8h.html" target="_top" xlink:title="adapted from https://github.com/tapika/TestCppReflect">
<polygon fill="white" stroke="#666666" points="302,-74 192,-74 192,-55 302,-55 302,-74"/>
<text text-anchor="middle" x="247" y="-62" font-family="Helvetica,sans-Serif" font-size="10.00">ReflectionMacros.h</text>
</a>
</g>
</g>
<!-- Node4&#45;&gt;Node5 -->
<g id="edge4_Node000004_Node000005" class="edge">
<title>Node4&#45;&gt;Node5</title>
<g id="a_edge4_Node000004_Node000005"><a xlink:title=" ">
<path fill="none" stroke="#63b8ff" d="M345.2,-109.98C326.38,-101.46 297.18,-88.23 275.5,-78.41"/>
<polygon fill="#63b8ff" stroke="#63b8ff" points="276.69,-75.11 266.14,-74.17 273.8,-81.48 276.69,-75.11"/>
</a>
</g>
</g>
<!-- Node4&#45;&gt;Node6 -->
<g id="edge5_Node000004_Node000006" class="edge">
<title>Node4&#45;&gt;Node6</title>
<g id="a_edge5_Node000004_Node000006"><a xlink:title=" ">
<path fill="none" stroke="#63b8ff" d="M381.19,-109.98C398.25,-101.54 424.63,-88.47 444.4,-78.68"/>
<polygon fill="#63b8ff" stroke="#63b8ff" points="446.09,-81.75 453.5,-74.17 442.98,-75.47 446.09,-81.75"/>
</a>
</g>
</g>
<!-- Node7 -->
<g id="Node000007" class="node">
<title>Node7</title>
<g id="a_Node000007"><a xlink:title=" ">
<polygon fill="#e0e0e0" stroke="#999999" points="210.5,-19 117.5,-19 117.5,0 210.5,0 210.5,-19"/>
<text text-anchor="middle" x="164" y="-7" font-family="Helvetica,sans-Serif" font-size="10.00">unordered_map</text>
</a>
</g>
</g>
<!-- Node4&#45;&gt;Node7 -->
<g id="edge6_Node000004_Node000007" class="edge">
<title>Node4&#45;&gt;Node7</title>
<g id="a_edge6_Node000004_Node000007"><a xlink:title=" ">
<path fill="none" stroke="#63b8ff" d="M301.94,-109.93C256.58,-102.47 200.11,-90.28 183,-74 170.9,-62.48 166.41,-43.61 164.79,-29.42"/>
<polygon fill="#63b8ff" stroke="#63b8ff" points="168.27,-28.99 164.02,-19.28 161.29,-29.52 168.27,-28.99"/>
</a>
</g>
</g>
<!-- Node4&#45;&gt;Node8 -->
<g id="edge7_Node000004_Node000008" class="edge">
<title>Node4&#45;&gt;Node8</title>
<g id="a_edge7_Node000004_Node000008"><a xlink:title=" ">
<path fill="none" stroke="#63b8ff" d="M372.99,-109.7C386.33,-96.87 412.44,-72.64 437,-55 453.15,-43.4 472.5,-32.11 487.63,-23.8"/>
<polygon fill="#63b8ff" stroke="#63b8ff" points="489.31,-26.87 496.44,-19.04 485.98,-20.71 489.31,-26.87"/>
</a>
</g>
</g>
<!-- Node9 -->
<g id="Node000009" class="node">
<title>Node9</title>
<g id="a_Node000009"><a xlink:title=" ">
<polygon fill="#e0e0e0" stroke="#999999" points="389.5,-74 320.5,-74 320.5,-55 389.5,-55 389.5,-74"/>
<text text-anchor="middle" x="355" y="-62" font-family="Helvetica,sans-Serif" font-size="10.00">type_traits</text>
</a>
</g>
</g>
<!-- Node4&#45;&gt;Node9 -->
<g id="edge8_Node000004_Node000009" class="edge">
<title>Node4&#45;&gt;Node9</title>
<g id="a_edge8_Node000004_Node000009"><a xlink:title=" ">
<path fill="none" stroke="#63b8ff" d="M362.51,-109.75C361.33,-102.8 359.64,-92.85 358.16,-84.13"/>
<polygon fill="#63b8ff" stroke="#63b8ff" points="361.58,-83.36 356.46,-74.09 354.68,-84.53 361.58,-83.36"/>
</a>
</g>
</g>
<!-- Node11&#45;&gt;Node3 -->
<g id="edge12_Node000011_Node000003" class="edge">
<title>Node11&#45;&gt;Node3</title>
<g id="a_edge12_Node000011_Node000003"><a xlink:title=" ">
<path fill="none" stroke="#63b8ff" d="M764.46,-224.03C701.63,-214.51 554.68,-192.26 483.73,-181.52"/>
<polygon fill="#63b8ff" stroke="#63b8ff" points="484.24,-178.05 473.83,-180.02 483.19,-184.98 484.24,-178.05"/>
</a>
</g>
</g>
<!-- Node12 -->
<g id="Node000012" class="node">
<title>Node12</title>
<g id="a_Node000012"><a xlink:href="IConstraint_8h.html" target="_top" xlink:title="Interface for constraints.">
<polygon fill="white" stroke="#666666" points="867.5,-184 788.5,-184 788.5,-165 867.5,-165 867.5,-184"/>
<text text-anchor="middle" x="828" y="-172" font-family="Helvetica,sans-Serif" font-size="10.00">IConstraint.h</text>
</a>
</g>
</g>
<!-- Node11&#45;&gt;Node12 -->
<g id="edge13_Node000011_Node000012" class="edge">
<title>Node11&#45;&gt;Node12</title>
<g id="a_edge13_Node000011_Node000012"><a xlink:title=" ">
<path fill="none" stroke="#63b8ff" d="M799.61,-219.75C804.32,-212.42 811.17,-201.73 816.97,-192.7"/>
<polygon fill="#63b8ff" stroke="#63b8ff" points="820.04,-194.4 822.49,-184.09 814.14,-190.62 820.04,-194.4"/>
</a>
</g>
</g>
<!-- Node13 -->
<g id="Node000013" class="node">
<title>Node13</title>
<g id="a_Node000013"><a xlink:title=" ">
<polygon fill="#e0e0e0" stroke="#999999" points="819.5,-129 700.5,-129 700.5,-110 819.5,-110 819.5,-129"/>
<text text-anchor="middle" x="760" y="-117" font-family="Helvetica,sans-Serif" font-size="10.00">interface/param.pb.h</text>
</a>
</g>
</g>
<!-- Node11&#45;&gt;Node13 -->
<g id="edge36_Node000011_Node000013" class="edge">
<title>Node11&#45;&gt;Node13</title>
<g id="a_edge36_Node000011_Node000013"><a xlink:title=" ">
<path fill="none" stroke="#63b8ff" d="M791.22,-219.66C785.69,-202.09 773.21,-162.45 765.81,-138.95"/>
<polygon fill="#63b8ff" stroke="#63b8ff" points="769.07,-137.65 762.73,-129.16 762.39,-139.75 769.07,-137.65"/>
</a>
</g>
</g>
<!-- Node11&#45;&gt;Node15 -->
<g id="edge16_Node000011_Node000015" class="edge">
<title>Node11&#45;&gt;Node15</title>
<g id="a_edge16_Node000011_Node000015"><a xlink:title=" ">
<path fill="none" stroke="#63b8ff" d="M769.1,-219.98C743.3,-211.16 702.78,-197.31 673.82,-187.41"/>
<polygon fill="#63b8ff" stroke="#63b8ff" points="674.69,-184.01 664.1,-184.08 672.43,-190.63 674.69,-184.01"/>
</a>
</g>
</g>
<!-- Node11&#45;&gt;Node22 -->
<g id="edge27_Node000011_Node000022" class="edge">
<title>Node11&#45;&gt;Node22</title>
<g id="a_edge27_Node000011_Node000022"><a xlink:title=" ">
<path fill="none" stroke="#63b8ff" d="M823.8,-220.91C862.14,-211.14 928.55,-194.22 968.57,-184.02"/>
<polygon fill="#63b8ff" stroke="#63b8ff" points="969.56,-187.38 978.38,-181.52 967.83,-180.6 969.56,-187.38"/>
</a>
</g>
</g>
<!-- Node11&#45;&gt;Node27 -->
<g id="edge33_Node000011_Node000027" class="edge">
<title>Node11&#45;&gt;Node27</title>
<g id="a_edge33_Node000011_Node000027"><a xlink:title=" ">
<path fill="none" stroke="#63b8ff" d="M823.63,-224.9C900.44,-215.56 1106,-190.57 1191.68,-180.16"/>
<polygon fill="#63b8ff" stroke="#63b8ff" points="1192.25,-183.61 1201.76,-178.93 1191.41,-176.67 1192.25,-183.61"/>
</a>
</g>
</g>
<!-- Node12&#45;&gt;Node13 -->
<g id="edge14_Node000012_Node000013" class="edge">
<title>Node12&#45;&gt;Node13</title>
<g id="a_edge14_Node000012_Node000013"><a xlink:title=" ">
<path fill="none" stroke="#63b8ff" d="M817.07,-164.98C806.92,-157.07 791.58,-145.11 779.35,-135.58"/>
<polygon fill="#63b8ff" stroke="#63b8ff" points="781.16,-132.56 771.12,-129.17 776.86,-138.08 781.16,-132.56"/>
</a>
</g>
</g>
<!-- Node14 -->
<g id="Node000014" class="node">
<title>Node14</title>
<g id="a_Node000014"><a xlink:title=" ">
<polygon fill="#e0e0e0" stroke="#999999" points="974,-129 838,-129 838,-110 974,-110 974,-129"/>
<text text-anchor="middle" x="906" y="-117" font-family="Helvetica,sans-Serif" font-size="10.00">interface/constraint.pb.h</text>
</a>
</g>
</g>
<!-- Node12&#45;&gt;Node14 -->
<g id="edge15_Node000012_Node000014" class="edge">
<title>Node12&#45;&gt;Node14</title>
<g id="a_edge15_Node000012_Node000014"><a xlink:title=" ">
<path fill="none" stroke="#63b8ff" d="M840.53,-164.98C852.4,-156.92 870.46,-144.65 884.61,-135.03"/>
<polygon fill="#63b8ff" stroke="#63b8ff" points="886.94,-137.69 893.24,-129.17 883,-131.9 886.94,-137.69"/>
</a>
</g>
</g>
<!-- Node15&#45;&gt;Node13 -->
<g id="edge26_Node000015_Node000013" class="edge">
<title>Node15&#45;&gt;Node13</title>
<g id="a_edge26_Node000015_Node000013"><a xlink:title=" ">
<path fill="none" stroke="#63b8ff" d="M658.44,-164.98C677.99,-156.42 708.38,-143.11 730.82,-133.28"/>
<polygon fill="#63b8ff" stroke="#63b8ff" points="732.45,-136.39 740.21,-129.17 729.64,-129.98 732.45,-136.39"/>
</a>
</g>
</g>
<!-- Node16 -->
<g id="Node000016" class="node">
<title>Node16</title>
<g id="a_Node000016"><a xlink:href="Tags_8h.html" target="_top" xlink:title="Tags to differentiate collections with the same type for template specialization.">
<polygon fill="white" stroke="#666666" points="577.5,-129 530.5,-129 530.5,-110 577.5,-110 577.5,-129"/>
<text text-anchor="middle" x="554" y="-117" font-family="Helvetica,sans-Serif" font-size="10.00">Tags.h</text>
</a>
</g>
</g>
<!-- Node15&#45;&gt;Node16 -->
<g id="edge17_Node000015_Node000016" class="edge">
<title>Node15&#45;&gt;Node16</title>
<g id="a_edge17_Node000015_Node000016"><a xlink:title=" ">
<path fill="none" stroke="#63b8ff" d="M625.34,-164.98C612.16,-156.77 591.97,-144.18 576.43,-134.49"/>
<polygon fill="#63b8ff" stroke="#63b8ff" points="578.24,-131.49 567.91,-129.17 574.54,-137.43 578.24,-131.49"/>
</a>
</g>
</g>
<!-- Node18 -->
<g id="Node000018" class="node">
<title>Node18</title>
<g id="a_Node000018"><a xlink:href="PolyglotText_8h.html" target="_top" xlink:title="Polyglot Text serialization and deserialization to protobuf.">
<polygon fill="white" stroke="#666666" points="682,-129 596,-129 596,-110 682,-110 682,-129"/>
<text text-anchor="middle" x="639" y="-117" font-family="Helvetica,sans-Serif" font-size="10.00">PolyglotText.h</text>
</a>
</g>
</g>
<!-- Node15&#45;&gt;Node18 -->
<g id="edge20_Node000015_Node000018" class="edge">
<title>Node15&#45;&gt;Node18</title>
<g id="a_edge20_Node000015_Node000018"><a xlink:title=" ">
<path fill="none" stroke="#63b8ff" d="M639,-164.75C639,-157.8 639,-147.85 639,-139.13"/>
<polygon fill="#63b8ff" stroke="#63b8ff" points="642.5,-139.09 639,-129.09 635.5,-139.09 642.5,-139.09"/>
</a>
</g>
</g>
<!-- Node16&#45;&gt;Node8 -->
<g id="edge19_Node000016_Node000008" class="edge">
<title>Node16&#45;&gt;Node8</title>
<g id="a_edge19_Node000016_Node000008"><a xlink:title=" ">
<path fill="none" stroke="#63b8ff" d="M564.87,-109.82C578.87,-97.55 600.14,-74.44 589,-55 579.49,-38.41 561.14,-27.41 544.85,-20.5"/>
<polygon fill="#63b8ff" stroke="#63b8ff" points="545.66,-17.06 535.07,-16.71 543.13,-23.59 545.66,-17.06"/>
</a>
</g>
</g>
<!-- Node16&#45;&gt;Node17 -->
<g id="edge18_Node000016_Node000017" class="edge">
<title>Node16&#45;&gt;Node17</title>
<g id="a_edge18_Node000016_Node000017"><a xlink:title=" ">
<path fill="none" stroke="#63b8ff" d="M552.84,-109.75C551.93,-102.8 550.61,-92.85 549.46,-84.13"/>
<polygon fill="#63b8ff" stroke="#63b8ff" points="552.91,-83.54 548.13,-74.09 545.97,-84.46 552.91,-83.54"/>
</a>
</g>
</g>
<!-- Node19 -->
<g id="Node000019" class="node">
<title>Node19</title>
<g id="a_Node000019"><a xlink:href="IPolyglotText_8h.html" target="_top" xlink:title="Catena&#39;s multi&#45;language text interface.">
<polygon fill="white" stroke="#666666" points="941.5,-74 852.5,-74 852.5,-55 941.5,-55 941.5,-74"/>
<text text-anchor="middle" x="897" y="-62" font-family="Helvetica,sans-Serif" font-size="10.00">IPolyglotText.h</text>
</a>
</g>
</g>
<!-- Node18&#45;&gt;Node19 -->
<g id="edge21_Node000018_Node000019" class="edge">
<title>Node18&#45;&gt;Node19</title>
<g id="a_edge21_Node000018_Node000019"><a xlink:title=" ">
<path fill="none" stroke="#63b8ff" d="M680.45,-109.98C725.27,-100.78 796.77,-86.09 845.25,-76.13"/>
<polygon fill="#63b8ff" stroke="#63b8ff" points="846.13,-79.52 855.22,-74.08 844.72,-72.67 846.13,-79.52"/>
</a>
</g>
</g>
<!-- Node19&#45;&gt;Node7 -->
<g id="edge23_Node000019_Node000007" class="edge">
<title>Node19&#45;&gt;Node7</title>
<g id="a_edge23_Node000019_Node000007"><a xlink:title=" ">
<path fill="none" stroke="#63b8ff" d="M852.25,-60.26C725.04,-51.07 361.45,-24.78 220.65,-14.6"/>
<polygon fill="#63b8ff" stroke="#63b8ff" points="220.73,-11.09 210.51,-13.86 220.23,-18.07 220.73,-11.09"/>
</a>
</g>
</g>
<!-- Node19&#45;&gt;Node8 -->
<g id="edge24_Node000019_Node000008" class="edge">
<title>Node19&#45;&gt;Node8</title>
<g id="a_edge24_Node000019_Node000008"><a xlink:title=" ">
<path fill="none" stroke="#63b8ff" d="M852.23,-57.02C847.43,-56.33 842.61,-55.65 838,-55 730.75,-39.93 603.51,-22.7 545.15,-14.83"/>
<polygon fill="#63b8ff" stroke="#63b8ff" points="545.45,-11.34 535.08,-13.47 544.52,-18.27 545.45,-11.34"/>
</a>
</g>
</g>
<!-- Node20 -->
<g id="Node000020" class="node">
<title>Node20</title>
<g id="a_Node000020"><a xlink:title=" ">
<polygon fill="#e0e0e0" stroke="#999999" points="900,-19 768,-19 768,0 900,0 900,-19"/>
<text text-anchor="middle" x="834" y="-7" font-family="Helvetica,sans-Serif" font-size="10.00">interface/language.pb.h</text>
</a>
</g>
</g>
<!-- Node19&#45;&gt;Node20 -->
<g id="edge22_Node000019_Node000020" class="edge">
<title>Node19&#45;&gt;Node20</title>
<g id="a_edge22_Node000019_Node000020"><a xlink:title=" ">
<path fill="none" stroke="#63b8ff" d="M886.88,-54.98C877.56,-47.15 863.53,-35.34 852.26,-25.86"/>
<polygon fill="#63b8ff" stroke="#63b8ff" points="854.21,-22.93 844.31,-19.17 849.71,-28.29 854.21,-22.93"/>
</a>
</g>
</g>
<!-- Node21 -->
<g id="Node000021" class="node">
<title>Node21</title>
<g id="a_Node000021"><a xlink:title=" ">
<polygon fill="#e0e0e0" stroke="#999999" points="1001.5,-19 918.5,-19 918.5,0 1001.5,0 1001.5,-19"/>
<text text-anchor="middle" x="960" y="-7" font-family="Helvetica,sans-Serif" font-size="10.00">initializer_list</text>
</a>
</g>
</g>
<!-- Node19&#45;&gt;Node21 -->
<g id="edge25_Node000019_Node000021" class="edge">
<title>Node19&#45;&gt;Node21</title>
<g id="a_edge25_Node000019_Node000021"><a xlink:title=" ">
<path fill="none" stroke="#63b8ff" d="M907.12,-54.98C916.44,-47.15 930.47,-35.34 941.74,-25.86"/>
<polygon fill="#63b8ff" stroke="#63b8ff" points="944.29,-28.29 949.69,-19.17 939.79,-22.93 944.29,-28.29"/>
</a>
</g>
</g>
<!-- Node22&#45;&gt;Node8 -->
<g id="edge29_Node000022_Node000008" class="edge">
<title>Node22&#45;&gt;Node8</title>
<g id="a_edge29_Node000022_Node000008"><a xlink:title=" ">
<path fill="none" stroke="#63b8ff" d="M1002.03,-164.66C1001.58,-150.87 998.57,-124.34 983,-110 966.56,-94.86 648.03,-35.3 544.92,-16.33"/>
<polygon fill="#63b8ff" stroke="#63b8ff" points="545.54,-12.89 535.07,-14.53 544.28,-19.77 545.54,-12.89"/>
</a>
</g>
</g>
<!-- Node23 -->
<g id="Node000023" class="node">
<title>Node23</title>
<g id="a_Node000023"><a xlink:title=" ">
<polygon fill="#e0e0e0" stroke="#999999" points="1166,-129 1106,-129 1106,-110 1166,-110 1166,-129"/>
<text text-anchor="middle" x="1136" y="-117" font-family="Helvetica,sans-Serif" font-size="10.00">iostream</text>
</a>
</g>
</g>
<!-- Node22&#45;&gt;Node23 -->
<g id="edge28_Node000022_Node000023" class="edge">
<title>Node22&#45;&gt;Node23</title>
<g id="a_edge28_Node000022_Node000023"><a xlink:title=" ">
<path fill="none" stroke="#63b8ff" d="M1023.53,-164.98C1045.47,-156.3 1079.74,-142.75 1104.69,-132.88"/>
<polygon fill="#63b8ff" stroke="#63b8ff" points="1106.07,-136.1 1114.08,-129.17 1103.49,-129.59 1106.07,-136.1"/>
</a>
</g>
</g>
<!-- Node22&#45;&gt;Node24 -->
<g id="edge30_Node000022_Node000024" class="edge">
<title>Node22&#45;&gt;Node24</title>
<g id="a_edge30_Node000022_Node000024"><a xlink:title=" ">
<path fill="none" stroke="#63b8ff" d="M1025.68,-168.03C1030.42,-166.98 1035.36,-165.93 1040,-165 1127.62,-147.52 1152.94,-148.78 1243.43,-129.2"/>
<polygon fill="#63b8ff" stroke="#63b8ff" points="1244.27,-132.6 1253.29,-127.04 1242.77,-125.76 1244.27,-132.6"/>
</a>
</g>
</g>
<!-- Node25 -->
<g id="Node000025" class="node">
<title>Node25</title>
<g id="a_Node000025"><a xlink:title=" ">
<polygon fill="#e0e0e0" stroke="#999999" points="1235.5,-129 1184.5,-129 1184.5,-110 1235.5,-110 1235.5,-129"/>
<text text-anchor="middle" x="1210" y="-117" font-family="Helvetica,sans-Serif" font-size="10.00">variant</text>
</a>
</g>
</g>
<!-- Node22&#45;&gt;Node25 -->
<g id="edge31_Node000022_Node000025" class="edge">
<title>Node22&#45;&gt;Node25</title>
<g id="a_edge31_Node000022_Node000025"><a xlink:title=" ">
<path fill="none" stroke="#63b8ff" d="M1025.86,-167.42C1062.34,-158.13 1132.18,-140.33 1174.58,-129.53"/>
<polygon fill="#63b8ff" stroke="#63b8ff" points="1175.65,-132.86 1184.48,-127 1173.92,-126.08 1175.65,-132.86"/>
</a>
</g>
</g>
<!-- Node26 -->
<g id="Node000026" class="node">
<title>Node26</title>
<g id="a_Node000026"><a xlink:title=" ">
<polygon fill="#e0e0e0" stroke="#999999" points="1088,-129 1030,-129 1030,-110 1088,-110 1088,-129"/>
<text text-anchor="middle" x="1059" y="-117" font-family="Helvetica,sans-Serif" font-size="10.00">memory</text>
</a>
</g>
</g>
<!-- Node22&#45;&gt;Node26 -->
<g id="edge32_Node000022_Node000026" class="edge">
<title>Node22&#45;&gt;Node26</title>
<g id="a_edge32_Node000022_Node000026"><a xlink:title=" ">
<path fill="none" stroke="#63b8ff" d="M1011.16,-164.98C1019.5,-157.23 1032.03,-145.58 1042.18,-136.14"/>
<polygon fill="#63b8ff" stroke="#63b8ff" points="1044.74,-138.54 1049.68,-129.17 1039.97,-133.42 1044.74,-138.54"/>
</a>
</g>
</g>
<!-- Node28 -->
<g id="Node000028" class="node">
<title>Node28</title>
<g id="a_Node000028"><a xlink:title=" ">
<polygon fill="#e0e0e0" stroke="#999999" points="1458,-129 1402,-129 1402,-110 1458,-110 1458,-129"/>
<text text-anchor="middle" x="1430" y="-117" font-family="Helvetica,sans-Serif" font-size="10.00">sstream</text>
</a>
</g>
</g>
<!-- Node27&#45;&gt;Node28 -->
<g id="edge34_Node000027_Node000028" class="edge">
<title>Node27&#45;&gt;Node28</title>
<g id="a_edge34_Node000027_Node000028"><a xlink:title=" ">
<path fill="none" stroke="#63b8ff" d="M1258.23,-166.02C1293.22,-156.75 1352.99,-140.91 1391.99,-130.57"/>
<polygon fill="#63b8ff" stroke="#63b8ff" points="1393.14,-133.89 1401.91,-127.94 1391.35,-127.12 1393.14,-133.89"/>
</a>
</g>
</g>
<!-- Node29 -->
<g id="Node000029" class="node">
<title>Node29</title>
<g id="a_Node000029"><a xlink:title=" ">
<polygon fill="#e0e0e0" stroke="#999999" points="1383.5,-129 1318.5,-129 1318.5,-110 1383.5,-110 1383.5,-129"/>
<text text-anchor="middle" x="1351" y="-117" font-family="Helvetica,sans-Serif" font-size="10.00">stdexcept</text>
</a>
</g>
</g>
<!-- Node27&#45;&gt;Node29 -->
<g id="edge35_Node000027_Node000029" class="edge">
<title>Node27&#45;&gt;Node29</title>
<g id="a_edge35_Node000027_Node000029"><a xlink:title=" ">
<path fill="none" stroke="#63b8ff" d="M1249.44,-164.98C1268.99,-156.42 1299.38,-143.11 1321.82,-133.28"/>
<polygon fill="#63b8ff" stroke="#63b8ff" points="1323.45,-136.39 1331.21,-129.17 1320.64,-129.98 1323.45,-136.39"/>
</a>
</g>
</g>
<!-- Node32&#45;&gt;Node7 -->
<g id="edge45_Node000032_Node000007" class="edge">
<title>Node32&#45;&gt;Node7</title>
<g id="a_edge45_Node000032_Node000007"><a xlink:title=" ">
<path fill="none" stroke="#63b8ff" d="M67.48,-54.98C85.98,-46.46 114.68,-33.23 135.98,-23.41"/>
<polygon fill="#63b8ff" stroke="#63b8ff" points="137.57,-26.53 145.19,-19.17 134.64,-20.18 137.57,-26.53"/>
</a>
</g>
</g>
<!-- Node32&#45;&gt;Node8 -->
<g id="edge44_Node000032_Node000008" class="edge">
<title>Node32&#45;&gt;Node8</title>
<g id="a_edge44_Node000032_Node000008"><a xlink:title=" ">
<path fill="none" stroke="#63b8ff" d="M98.17,-56.75C102.84,-56.15 107.51,-55.55 112,-55 248.93,-38.17 412.53,-20.89 480.7,-13.82"/>
<polygon fill="#63b8ff" stroke="#63b8ff" points="481.22,-17.29 490.81,-12.78 480.5,-10.33 481.22,-17.29"/>
</a>
</g>
</g>
</g>
</svg>

<g id="navigator" transform="translate(0 0)" fill="#404254">
  <rect fill="#f2f5e9" fill-opacity="0.5" stroke="#606060" stroke-width=".5" x="0" y="0" width="60" height="60"/>
  <use id="zoomplus" xlink:href="#zoomPlus" x="17" y="9" onmousedown="handleZoom(evt,'in')"/>
  <use id="zoomminus" xlink:href="#zoomMin" x="42" y="9" onmousedown="handleZoom(evt,'out')"/>
  <use id="reset" xlink:href="#resetDef" x="30" y="36" onmousedown="handleReset()"/>
   <use id="arrowup" xlink:href="#arrowUp" x="0" y="0" onmousedown="handlePan(0,-1)"/>
  <use id="arrowright" xlink:href="#arrowRight" x="0" y="0" onmousedown="handlePan(1,0)"/>
  <use id="arrowdown" xlink:href="#arrowDown" x="0" y="0" onmousedown="handlePan(0,1)"/>
  <use id="arrowleft" xlink:href="#arrowLeft" x="0" y="0" onmousedown="handlePan(-1,0)"/>
</g>
<svg viewBox="0 0 15 15" width="100%" height="30px" preserveAspectRatio="xMaxYMin meet">
 <g id="arrow_out" transform="scale(0.3 0.3)">
  <a xlink:href="IDevice_8h__incl_org.svg" target="_base">
   <rect id="button" ry="5" rx="5" y="6" x="6" height="38" width="38"
        fill="#f2f5e9" fill-opacity="0.5" stroke="#606060" stroke-width="1.0"/>
   <path id="arrow"
     d="M 11.500037,31.436501 C 11.940474,20.09759 22.043105,11.32322 32.158766,21.979434 L 37.068811,17.246167 C 37.068811,17.246167 37.088388,32 37.088388,32 L 22.160133,31.978069 C 22.160133,31.978069 26.997745,27.140456 26.997745,27.140456 C 18.528582,18.264221 13.291696,25.230495 11.500037,31.436501 z"
     style="fill:#404040;"/>
  </a>
 </g>
</svg>

<style type='text/css'>
<![CDATA[
[data-mouse-over-selected='false'] { opacity: 0.7; }
[data-mouse-over-selected='true']  { opacity: 1.0; }
]]>
</style>
<script type="application/ecmascript"><![CDATA[
document.addEventListener('DOMContentLoaded', (event) => {
  highlightEdges();
  highlightAdjacentNodes();
});
]]></script>
</svg>
