<?xml version="1.0" encoding="UTF-8" standalone="no"?>
<!DOCTYPE svg PUBLIC "-//W3C//DTD SVG 1.1//EN"
 "http://www.w3.org/Graphics/SVG/1.1/DTD/svg11.dtd">
<!-- Generated by graphviz version 2.43.0 (0)
 -->
<!-- Title: /home/runner/work/Catena/Catena/sdks/cpp/common/include/IDevice.h Pages: 1 -->
<!--zoomable 434 -->

<svg id="main" version="1.1" xmlns="http://www.w3.org/2000/svg" xmlns:xlink="http://www.w3.org/1999/xlink" xml:space="preserve" onload="init(evt)">
<style type="text/css"><![CDATA[
.node, .edge {opacity: 0.7;}
.node.selected, .edge.selected {opacity: 1;}
.edge:hover path { stroke: red; }
.edge:hover polygon { stroke: red; fill: red; }
]]></style>

<defs>
  <circle id="rim" cx="0" cy="0" r="7"/>
  <circle id="rim2" cx="0" cy="0" r="3.5"/>
  <g id="zoomPlus">
    <use xlink:href="#rim" fill="#404040"><set attributeName="fill" to="#808080" begin="zoomplus.mouseover" end="zoomplus.mouseout"/></use>
    <path d="M-4,0h8M0,-4v8" fill="none" stroke="white" stroke-width="1.5" pointer-events="none"/>
  </g>
  <g id="zoomMin">
    <use xlink:href="#rim" fill="#404040"><set attributeName="fill" to="#808080" begin="zoomminus.mouseover" end="zoomminus.mouseout"/></use>
    <path d="M-4,0h8" fill="none" stroke="white" stroke-width="1.5" pointer-events="none"/>
  </g>
  <g id="arrowUp" transform="translate(30 24)">
    <use xlink:href="#rim"/>
    <path pointer-events="none" fill="none" stroke="white" stroke-width="1.5" d="M0,-3.0v7 M-2.5,-0.5L0,-3.0L2.5,-0.5"/>
  </g>
  <g id="arrowRight" transform="rotate(90) translate(36 -43)">
    <use xlink:href="#rim"/>
    <path pointer-events="none" fill="none" stroke="white" stroke-width="1.5" d="M0,-3.0v7 M-2.5,-0.5L0,-3.0L2.5,-0.5"/>
  </g>
  <g id="arrowDown" transform="rotate(180) translate(-30 -48)">
    <use xlink:href="#rim"/>
    <path pointer-events="none" fill="none" stroke="white" stroke-width="1.5" d="M0,-3.0v7 M-2.5,-0.5L0,-3.0L2.5,-0.5"/>
  </g>
  <g id="arrowLeft" transform="rotate(270) translate(-36 17)">
    <use xlink:href="#rim"/>
    <path pointer-events="none" fill="none" stroke="white" stroke-width="1.5" d="M0,-3.0v7 M-2.5,-0.5L0,-3.0L2.5,-0.5"/>
  </g>
  <g id="resetDef">
    <use xlink:href="#rim2" fill="#404040"><set attributeName="fill" to="#808080" begin="reset.mouseover" end="reset.mouseout"/></use>
  </g>
</defs>
<script type="application/ecmascript">
var viewWidth = 1597;
var viewHeight = 434;
var sectionId = 'dynsection-0';
</script>
<script type="application/ecmascript" xlink:href="svg.min.js"/>
<svg id="graph" class="graph">
<g id="viewport">
<title>/home/runner/work/Catena/Catena/sdks/cpp/common/include/IDevice.h</title>
<!-- Node1 -->
<g id="Node000001" class="node">
<title>Node1</title>
<g id="a_Node000001"><a xlink:title="Interface for device.">
<polygon fill="#999999" stroke="#666666" points="1309,-426 1163,-426 1163,-385 1309,-385 1309,-426"/>
<text text-anchor="start" x="1171" y="-414" font-family="Helvetica,sans-Serif" font-size="10.00">/home/runner/work/Catena</text>
<text text-anchor="start" x="1171" y="-403" font-family="Helvetica,sans-Serif" font-size="10.00">/Catena/sdks/cpp/common</text>
<text text-anchor="middle" x="1236" y="-392" font-family="Helvetica,sans-Serif" font-size="10.00">/include/IDevice.h</text>
</a>
</g>
</g>
<!-- Node2 -->
<g id="Node000002" class="node">
<title>Node2</title>
<g id="a_Node000002"><a xlink:href="Authorizer_8h.html" target="_top" xlink:title="Class for handling authorization information.">
<polygon fill="white" stroke="#666666" points="428.5,-349 353.5,-349 353.5,-330 428.5,-330 428.5,-349"/>
<text text-anchor="middle" x="391" y="-337" font-family="Helvetica,sans-Serif" font-size="10.00">Authorizer.h</text>
</a>
</g>
</g>
<!-- Node1&#45;&gt;Node2 -->
<g id="edge1_Node000001_Node000002" class="edge">
<title>Node1&#45;&gt;Node2</title>
<g id="a_edge1_Node000001_Node000002"><a xlink:title=" ">
<path fill="none" stroke="#63b8ff" d="M1162.74,-401.47C1022.88,-395.22 708.31,-378.9 445,-349 442.94,-348.77 440.83,-348.51 438.71,-348.24"/>
<polygon fill="#63b8ff" stroke="#63b8ff" points="439.09,-344.76 428.71,-346.86 438.14,-351.69 439.09,-344.76"/>
</a>
</g>
</g>
<!-- Node4 -->
<g id="Node000004" class="node">
<title>Node4</title>
<g id="a_Node000004"><a xlink:href="IParam_8h.html" target="_top" xlink:title="Interface for parameters.">
<polygon fill="white" stroke="#666666" points="781.5,-239 722.5,-239 722.5,-220 781.5,-220 781.5,-239"/>
<text text-anchor="middle" x="752" y="-227" font-family="Helvetica,sans-Serif" font-size="10.00">IParam.h</text>
</a>
</g>
</g>
<!-- Node1&#45;&gt;Node4 -->
<g id="edge43_Node000001_Node000004" class="edge">
<title>Node1&#45;&gt;Node4</title>
<g id="a_edge43_Node000001_Node000004"><a xlink:title=" ">
<path fill="none" stroke="#63b8ff" d="M1181.42,-384.88C1080.56,-348.62 867.77,-272.12 785.48,-242.54"/>
<polygon fill="#63b8ff" stroke="#63b8ff" points="786.48,-239.18 775.88,-239.09 784.11,-245.76 786.48,-239.18"/>
</a>
</g>
</g>
<!-- Node10 -->
<g id="Node000010" class="node">
<title>Node10</title>
<g id="a_Node000010"><a xlink:title=" ">
<polygon fill="#e0e0e0" stroke="#999999" points="700,-19 656,-19 656,0 700,0 700,-19"/>
<text text-anchor="middle" x="678" y="-7" font-family="Helvetica,sans-Serif" font-size="10.00">string</text>
</a>
</g>
</g>
<!-- Node1&#45;&gt;Node10 -->
<g id="edge50_Node000001_Node000010" class="edge">
<title>Node1&#45;&gt;Node10</title>
<g id="a_edge50_Node000001_Node000010"><a xlink:title=" ">
<path fill="none" stroke="#63b8ff" d="M1266.05,-384.92C1338.16,-335.65 1509.11,-203.74 1427,-110 1378.93,-55.12 848.74,-20.48 710.7,-12.35"/>
<polygon fill="#63b8ff" stroke="#63b8ff" points="710.55,-8.83 700.36,-11.75 710.14,-15.82 710.55,-8.83"/>
</a>
</g>
</g>
<!-- Node12 -->
<g id="Node000012" class="node">
<title>Node12</title>
<g id="a_Node000012"><a xlink:title=" ">
<polygon fill="#e0e0e0" stroke="#999999" points="470.5,-129 351.5,-129 351.5,-110 470.5,-110 470.5,-129"/>
<text text-anchor="middle" x="411" y="-117" font-family="Helvetica,sans-Serif" font-size="10.00">interface/device.pb.h</text>
</a>
</g>
</g>
<!-- Node1&#45;&gt;Node12 -->
<g id="edge49_Node000001_Node000012" class="edge">
<title>Node1&#45;&gt;Node12</title>
<g id="a_edge49_Node000001_Node000012"><a xlink:title=" ">
<path fill="none" stroke="#63b8ff" d="M1162.9,-400.93C969.48,-390.51 459,-356.29 459,-285.5 459,-285.5 459,-285.5 459,-228.5 459,-193.8 438.06,-157.82 423.84,-137.39"/>
<polygon fill="#63b8ff" stroke="#63b8ff" points="426.58,-135.21 417.88,-129.16 420.91,-139.31 426.58,-135.21"/>
</a>
</g>
</g>
<!-- Node23 -->
<g id="Node000023" class="node">
<title>Node23</title>
<g id="a_Node000023"><a xlink:href="Path_8h.html" target="_top" xlink:title="Handles Path objects used to uniquely identify and access OIDs.">
<polygon fill="white" stroke="#666666" points="1115.5,-184 1068.5,-184 1068.5,-165 1115.5,-165 1115.5,-184"/>
<text text-anchor="middle" x="1092" y="-172" font-family="Helvetica,sans-Serif" font-size="10.00">Path.h</text>
</a>
</g>
</g>
<!-- Node1&#45;&gt;Node23 -->
<g id="edge42_Node000001_Node000023" class="edge">
<title>Node1&#45;&gt;Node23</title>
<g id="a_edge42_Node000001_Node000023"><a xlink:title=" ">
<path fill="none" stroke="#63b8ff" d="M1223.72,-384.98C1196.09,-341.02 1129.35,-234.89 1102.98,-192.96"/>
<polygon fill="#63b8ff" stroke="#63b8ff" points="1105.88,-191 1097.59,-184.39 1099.95,-194.72 1105.88,-191"/>
</a>
</g>
</g>
<!-- Node25 -->
<g id="Node000025" class="node">
<title>Node25</title>
<g id="a_Node000025"><a xlink:title=" ">
<polygon fill="#e0e0e0" stroke="#999999" points="1259.5,-129 1212.5,-129 1212.5,-110 1259.5,-110 1259.5,-129"/>
<text text-anchor="middle" x="1236" y="-117" font-family="Helvetica,sans-Serif" font-size="10.00">vector</text>
</a>
</g>
</g>
<!-- Node1&#45;&gt;Node25 -->
<g id="edge51_Node000001_Node000025" class="edge">
<title>Node1&#45;&gt;Node25</title>
<g id="a_edge51_Node000001_Node000025"><a xlink:title=" ">
<path fill="none" stroke="#63b8ff" d="M1236,-384.71C1236,-361.09 1236,-320.41 1236,-285.5 1236,-285.5 1236,-285.5 1236,-228.5 1236,-197.19 1236,-160.77 1236,-139.23"/>
<polygon fill="#63b8ff" stroke="#63b8ff" points="1239.5,-139.18 1236,-129.18 1232.5,-139.18 1239.5,-139.18"/>
</a>
</g>
</g>
<!-- Node28 -->
<g id="Node000028" class="node">
<title>Node28</title>
<g id="a_Node000028"><a xlink:href="Status_8h.html" target="_top" xlink:title="Communicates failure status using gRPC&#39;s codes.">
<polygon fill="white" stroke="#666666" points="1327,-184 1271,-184 1271,-165 1327,-165 1327,-184"/>
<text text-anchor="middle" x="1299" y="-172" font-family="Helvetica,sans-Serif" font-size="10.00">Status.h</text>
</a>
</g>
</g>
<!-- Node1&#45;&gt;Node28 -->
<g id="edge47_Node000001_Node000028" class="edge">
<title>Node1&#45;&gt;Node28</title>
<g id="a_edge47_Node000001_Node000028"><a xlink:title=" ">
<path fill="none" stroke="#63b8ff" d="M1241.37,-384.98C1253.36,-341.39 1282.17,-236.68 1293.9,-194.04"/>
<polygon fill="#63b8ff" stroke="#63b8ff" points="1297.28,-194.96 1296.55,-184.39 1290.53,-193.11 1297.28,-194.96"/>
</a>
</g>
</g>
<!-- Node33 -->
<g id="Node000033" class="node">
<title>Node33</title>
<g id="a_Node000033"><a xlink:href="ILanguagePack_8h.html" target="_top" xlink:title="Interface for language packs.">
<polygon fill="white" stroke="#666666" points="98,-74 0,-74 0,-55 98,-55 98,-74"/>
<text text-anchor="middle" x="49" y="-62" font-family="Helvetica,sans-Serif" font-size="10.00">ILanguagePack.h</text>
</a>
</g>
</g>
<!-- Node1&#45;&gt;Node33 -->
<g id="edge44_Node000001_Node000033" class="edge">
<title>Node1&#45;&gt;Node33</title>
<g id="a_edge44_Node000001_Node000033"><a xlink:title=" ">
<path fill="none" stroke="#63b8ff" d="M1162.87,-404.76C906.95,-404.72 67,-396.17 67,-285.5 67,-285.5 67,-285.5 67,-173.5 67,-141.61 59.27,-105.14 53.94,-83.78"/>
<polygon fill="#63b8ff" stroke="#63b8ff" points="57.33,-82.9 51.43,-74.1 50.55,-84.66 57.33,-82.9"/>
</a>
</g>
</g>
<!-- Node34 -->
<g id="Node000034" class="node">
<title>Node34</title>
<g id="a_Node000034"><a xlink:title=" ">
<polygon fill="#e0e0e0" stroke="#999999" points="1442.5,-349 1361.5,-349 1361.5,-330 1442.5,-330 1442.5,-349"/>
<text text-anchor="middle" x="1402" y="-337" font-family="Helvetica,sans-Serif" font-size="10.00">vdk/signals.h</text>
</a>
</g>
</g>
<!-- Node1&#45;&gt;Node34 -->
<g id="edge48_Node000001_Node000034" class="edge">
<title>Node1&#45;&gt;Node34</title>
<g id="a_edge48_Node000001_Node000034"><a xlink:title=" ">
<path fill="none" stroke="#63b8ff" d="M1286.71,-384.95C1313.91,-374.46 1346.58,-361.87 1370.19,-352.76"/>
<polygon fill="#63b8ff" stroke="#63b8ff" points="1371.64,-355.95 1379.71,-349.09 1369.13,-349.42 1371.64,-355.95"/>
</a>
</g>
</g>
<!-- Node35 -->
<g id="Node000035" class="node">
<title>Node35</title>
<g id="a_Node000035"><a xlink:title=" ">
<polygon fill="#e0e0e0" stroke="#999999" points="1523,-349 1461,-349 1461,-330 1523,-330 1523,-349"/>
<text text-anchor="middle" x="1492" y="-337" font-family="Helvetica,sans-Serif" font-size="10.00">coroutine</text>
</a>
</g>
</g>
<!-- Node1&#45;&gt;Node35 -->
<g id="edge52_Node000001_Node000035" class="edge">
<title>Node1&#45;&gt;Node35</title>
<g id="a_edge52_Node000001_Node000035"><a xlink:title=" ">
<path fill="none" stroke="#63b8ff" d="M1309.02,-386.25C1355.14,-374.71 1413.03,-360.24 1451.2,-350.7"/>
<polygon fill="#63b8ff" stroke="#63b8ff" points="1452.08,-354.09 1460.94,-348.27 1450.38,-347.3 1452.08,-354.09"/>
</a>
</g>
</g>
<!-- Node36 -->
<g id="Node000036" class="node">
<title>Node36</title>
<g id="a_Node000036"><a xlink:title=" ">
<polygon fill="#e0e0e0" stroke="#999999" points="1589,-349 1541,-349 1541,-330 1589,-330 1589,-349"/>
<text text-anchor="middle" x="1565" y="-337" font-family="Helvetica,sans-Serif" font-size="10.00">mutex</text>
</a>
</g>
</g>
<!-- Node1&#45;&gt;Node36 -->
<g id="edge53_Node000001_Node000036" class="edge">
<title>Node1&#45;&gt;Node36</title>
<g id="a_edge53_Node000001_Node000036"><a xlink:title=" ">
<path fill="none" stroke="#63b8ff" d="M1309.26,-392.17C1366.99,-382.12 1449.7,-367.03 1530.99,-349.11"/>
<polygon fill="#63b8ff" stroke="#63b8ff" points="1531.89,-352.49 1540.89,-346.91 1530.37,-345.66 1531.89,-352.49"/>
</a>
</g>
</g>
<!-- Node3 -->
<g id="Node000003" class="node">
<title>Node3</title>
<g id="a_Node000003"><a xlink:href="IAuthorizer_8h.html" target="_top" xlink:title="Interface for the Authorizer class.">
<polygon fill="white" stroke="#666666" points="596,-294 518,-294 518,-275 596,-275 596,-294"/>
<text text-anchor="middle" x="557" y="-282" font-family="Helvetica,sans-Serif" font-size="10.00">IAuthorizer.h</text>
</a>
</g>
</g>
<!-- Node2&#45;&gt;Node3 -->
<g id="edge2_Node000002_Node000003" class="edge">
<title>Node2&#45;&gt;Node3</title>
<g id="a_edge2_Node000002_Node000003"><a xlink:title=" ">
<path fill="none" stroke="#63b8ff" d="M417.67,-329.98C445.54,-321.09 489.45,-307.07 520.52,-297.15"/>
<polygon fill="#63b8ff" stroke="#63b8ff" points="521.66,-300.46 530.12,-294.08 519.53,-293.79 521.66,-300.46"/>
</a>
</g>
</g>
<!-- Node18 -->
<g id="Node000018" class="node">
<title>Node18</title>
<g id="a_Node000018"><a xlink:title=" ">
<polygon fill="#e0e0e0" stroke="#999999" points="649.5,-74 584.5,-74 584.5,-55 649.5,-55 649.5,-74"/>
<text text-anchor="middle" x="617" y="-62" font-family="Helvetica,sans-Serif" font-size="10.00">functional</text>
</a>
</g>
</g>
<!-- Node2&#45;&gt;Node18 -->
<g id="edge40_Node000002_Node000018" class="edge">
<title>Node2&#45;&gt;Node18</title>
<g id="a_edge40_Node000002_Node000018"><a xlink:title=" ">
<path fill="none" stroke="#63b8ff" d="M377.92,-329.75C366.84,-321.7 351.31,-308.78 342,-294 326.3,-269.07 323,-259.96 323,-230.5 323,-230.5 323,-230.5 323,-173.5 323,-144.04 319.82,-129.39 342,-110 380.62,-76.24 519.43,-82.56 570,-74 571.46,-73.75 572.94,-73.5 574.43,-73.24"/>
<polygon fill="#63b8ff" stroke="#63b8ff" points="575.16,-76.67 584.4,-71.49 573.95,-69.77 575.16,-76.67"/>
</a>
</g>
</g>
<!-- Node31 -->
<g id="Node000031" class="node">
<title>Node31</title>
<g id="a_Node000031"><a xlink:title=" ">
<polygon fill="#e0e0e0" stroke="#999999" points="431,-294 351,-294 351,-275 431,-275 431,-294"/>
<text text-anchor="middle" x="391" y="-282" font-family="Helvetica,sans-Serif" font-size="10.00">jwt&#45;cpp/jwt.h</text>
</a>
</g>
</g>
<!-- Node2&#45;&gt;Node31 -->
<g id="edge39_Node000002_Node000031" class="edge">
<title>Node2&#45;&gt;Node31</title>
<g id="a_edge39_Node000002_Node000031"><a xlink:title=" ">
<path fill="none" stroke="#63b8ff" d="M391,-329.75C391,-322.8 391,-312.85 391,-304.13"/>
<polygon fill="#63b8ff" stroke="#63b8ff" points="394.5,-304.09 391,-294.09 387.5,-304.09 394.5,-304.09"/>
</a>
</g>
</g>
<!-- Node32 -->
<g id="Node000032" class="node">
<title>Node32</title>
<g id="a_Node000032"><a xlink:title=" ">
<polygon fill="#e0e0e0" stroke="#999999" points="295,-294 263,-294 263,-275 295,-275 295,-294"/>
<text text-anchor="middle" x="279" y="-282" font-family="Helvetica,sans-Serif" font-size="10.00">set</text>
</a>
</g>
</g>
<!-- Node2&#45;&gt;Node32 -->
<g id="edge41_Node000002_Node000032" class="edge">
<title>Node2&#45;&gt;Node32</title>
<g id="a_edge41_Node000002_Node000032"><a xlink:title=" ">
<path fill="none" stroke="#63b8ff" d="M373.01,-329.98C354.43,-321.19 325.29,-307.4 304.37,-297.51"/>
<polygon fill="#63b8ff" stroke="#63b8ff" points="305.67,-294.25 295.13,-293.13 302.67,-300.58 305.67,-294.25"/>
</a>
</g>
</g>
<!-- Node3&#45;&gt;Node4 -->
<g id="edge3_Node000003_Node000004" class="edge">
<title>Node3&#45;&gt;Node4</title>
<g id="a_edge3_Node000003_Node000004"><a xlink:title=" ">
<path fill="none" stroke="#63b8ff" d="M588.33,-274.98C622.08,-265.81 675.87,-251.19 712.5,-241.24"/>
<polygon fill="#63b8ff" stroke="#63b8ff" points="713.61,-244.56 722.35,-238.56 711.78,-237.81 713.61,-244.56"/>
</a>
</g>
</g>
<!-- Node5 -->
<g id="Node000005" class="node">
<title>Node5</title>
<g id="a_Node000005"><a xlink:href="Enums_8h.html" target="_top" xlink:title="tools for using EnumDecorators.">
<polygon fill="white" stroke="#666666" points="546.5,-184 487.5,-184 487.5,-165 546.5,-165 546.5,-184"/>
<text text-anchor="middle" x="517" y="-172" font-family="Helvetica,sans-Serif" font-size="10.00">Enums.h</text>
</a>
</g>
</g>
<!-- Node3&#45;&gt;Node5 -->
<g id="edge38_Node000003_Node000005" class="edge">
<title>Node3&#45;&gt;Node5</title>
<g id="a_edge38_Node000003_Node000005"><a xlink:title=" ">
<path fill="none" stroke="#63b8ff" d="M553.73,-274.66C547.19,-257.01 532.4,-217.09 523.72,-193.64"/>
<polygon fill="#63b8ff" stroke="#63b8ff" points="526.96,-192.32 520.21,-184.16 520.4,-194.75 526.96,-192.32"/>
</a>
</g>
</g>
<!-- Node16 -->
<g id="Node000016" class="node">
<title>Node16</title>
<g id="a_Node000016"><a xlink:href="IParamDescriptor_8h.html" target="_top" xlink:title="Interface class for ParamDescriptor.">
<polygon fill="white" stroke="#666666" points="673.5,-184 564.5,-184 564.5,-165 673.5,-165 673.5,-184"/>
<text text-anchor="middle" x="619" y="-172" font-family="Helvetica,sans-Serif" font-size="10.00">IParamDescriptor.h</text>
</a>
</g>
</g>
<!-- Node3&#45;&gt;Node16 -->
<g id="edge37_Node000003_Node000016" class="edge">
<title>Node3&#45;&gt;Node16</title>
<g id="a_edge37_Node000003_Node000016"><a xlink:title=" ">
<path fill="none" stroke="#63b8ff" d="M562.07,-274.66C572.3,-256.85 595.54,-216.37 608.95,-193.01"/>
<polygon fill="#63b8ff" stroke="#63b8ff" points="612.09,-194.57 614.03,-184.16 606.02,-191.09 612.09,-194.57"/>
</a>
</g>
</g>
<!-- Node4&#45;&gt;Node5 -->
<g id="edge4_Node000004_Node000005" class="edge">
<title>Node4&#45;&gt;Node5</title>
<g id="a_edge4_Node000004_Node000005"><a xlink:title=" ">
<path fill="none" stroke="#63b8ff" d="M722.24,-221.79C680.12,-212.29 603.08,-194.91 556.3,-184.36"/>
<polygon fill="#63b8ff" stroke="#63b8ff" points="557.05,-180.94 546.52,-182.16 555.51,-187.77 557.05,-180.94"/>
</a>
</g>
</g>
<!-- Node13 -->
<g id="Node000013" class="node">
<title>Node13</title>
<g id="a_Node000013"><a xlink:href="IConstraint_8h.html" target="_top" xlink:title="Interface for constraints.">
<polygon fill="white" stroke="#666666" points="825.5,-184 746.5,-184 746.5,-165 825.5,-165 825.5,-184"/>
<text text-anchor="middle" x="786" y="-172" font-family="Helvetica,sans-Serif" font-size="10.00">IConstraint.h</text>
</a>
</g>
</g>
<!-- Node4&#45;&gt;Node13 -->
<g id="edge13_Node000004_Node000013" class="edge">
<title>Node4&#45;&gt;Node13</title>
<g id="a_edge13_Node000004_Node000013"><a xlink:title=" ">
<path fill="none" stroke="#63b8ff" d="M757.61,-219.75C762.32,-212.42 769.17,-201.73 774.97,-192.7"/>
<polygon fill="#63b8ff" stroke="#63b8ff" points="778.04,-194.4 780.49,-184.09 772.14,-190.62 778.04,-194.4"/>
</a>
</g>
</g>
<!-- Node14 -->
<g id="Node000014" class="node">
<title>Node14</title>
<g id="a_Node000014"><a xlink:title=" ">
<polygon fill="#e0e0e0" stroke="#999999" points="777.5,-129 658.5,-129 658.5,-110 777.5,-110 777.5,-129"/>
<text text-anchor="middle" x="718" y="-117" font-family="Helvetica,sans-Serif" font-size="10.00">interface/param.pb.h</text>
</a>
</g>
</g>
<!-- Node4&#45;&gt;Node14 -->
<g id="edge36_Node000004_Node000014" class="edge">
<title>Node4&#45;&gt;Node14</title>
<g id="a_edge36_Node000004_Node000014"><a xlink:title=" ">
<path fill="none" stroke="#63b8ff" d="M749.04,-220C745.95,-211.06 741,-196.59 737,-184 732.2,-168.9 727.07,-151.68 723.35,-138.98"/>
<polygon fill="#63b8ff" stroke="#63b8ff" points="726.64,-137.78 720.49,-129.16 719.92,-139.74 726.64,-137.78"/>
</a>
</g>
</g>
<!-- Node4&#45;&gt;Node16 -->
<g id="edge16_Node000004_Node000016" class="edge">
<title>Node4&#45;&gt;Node16</title>
<g id="a_edge16_Node000004_Node000016"><a xlink:title=" ">
<path fill="none" stroke="#63b8ff" d="M730.63,-219.98C708.85,-211.3 674.84,-197.75 650.08,-187.88"/>
<polygon fill="#63b8ff" stroke="#63b8ff" points="651.34,-184.62 640.76,-184.17 648.75,-191.12 651.34,-184.62"/>
</a>
</g>
</g>
<!-- Node4&#45;&gt;Node23 -->
<g id="edge27_Node000004_Node000023" class="edge">
<title>Node4&#45;&gt;Node23</title>
<g id="a_edge27_Node000004_Node000023"><a xlink:title=" ">
<path fill="none" stroke="#63b8ff" d="M781.58,-223.89C844.61,-214.06 991.81,-191.12 1058.32,-180.75"/>
<polygon fill="#63b8ff" stroke="#63b8ff" points="1058.94,-184.2 1068.28,-179.2 1057.86,-177.28 1058.94,-184.2"/>
</a>
</g>
</g>
<!-- Node4&#45;&gt;Node28 -->
<g id="edge33_Node000004_Node000028" class="edge">
<title>Node4&#45;&gt;Node28</title>
<g id="a_edge33_Node000004_Node000028"><a xlink:title=" ">
<path fill="none" stroke="#63b8ff" d="M781.8,-225.61C874.48,-216.63 1157.63,-189.2 1260.85,-179.2"/>
<polygon fill="#63b8ff" stroke="#63b8ff" points="1261.21,-182.68 1270.83,-178.23 1260.54,-175.71 1261.21,-182.68"/>
</a>
</g>
</g>
<!-- Node6 -->
<g id="Node000006" class="node">
<title>Node6</title>
<g id="a_Node000006"><a xlink:href="EnumDecorator_8h.html" target="_top" xlink:title="Provides an enum with useful extra functionality.">
<polygon fill="white" stroke="#666666" points="295,-129 151,-129 151,-110 295,-110 295,-129"/>
<text text-anchor="middle" x="223" y="-117" font-family="Helvetica,sans-Serif" font-size="10.00">patterns/EnumDecorator.h</text>
</a>
</g>
</g>
<!-- Node5&#45;&gt;Node6 -->
<g id="edge5_Node000005_Node000006" class="edge">
<title>Node5&#45;&gt;Node6</title>
<g id="a_edge5_Node000005_Node000006"><a xlink:title=" ">
<path fill="none" stroke="#63b8ff" d="M487.46,-168.18C439.19,-159.47 342.54,-142.05 280.41,-130.85"/>
<polygon fill="#63b8ff" stroke="#63b8ff" points="280.83,-127.37 270.37,-129.04 279.59,-134.26 280.83,-127.37"/>
</a>
</g>
</g>
<!-- Node8 -->
<g id="Node000008" class="node">
<title>Node8</title>
<g id="a_Node000008"><a xlink:title=" ">
<polygon fill="#e0e0e0" stroke="#999999" points="166,-74 116,-74 116,-55 166,-55 166,-74"/>
<text text-anchor="middle" x="141" y="-62" font-family="Helvetica,sans-Serif" font-size="10.00">cstdint</text>
</a>
</g>
</g>
<!-- Node5&#45;&gt;Node8 -->
<g id="edge12_Node000005_Node000008" class="edge">
<title>Node5&#45;&gt;Node8</title>
<g id="a_edge12_Node000005_Node000008"><a xlink:title=" ">
<path fill="none" stroke="#63b8ff" d="M487.26,-172.18C402.63,-168.13 165.06,-154.55 142,-129 131.27,-117.12 132.39,-98.29 135.37,-84.21"/>
<polygon fill="#63b8ff" stroke="#63b8ff" points="138.85,-84.73 137.97,-74.17 132.08,-82.98 138.85,-84.73"/>
</a>
</g>
</g>
<!-- Node5&#45;&gt;Node12 -->
<g id="edge11_Node000005_Node000012" class="edge">
<title>Node5&#45;&gt;Node12</title>
<g id="a_edge11_Node000005_Node000012"><a xlink:title=" ">
<path fill="none" stroke="#63b8ff" d="M499.97,-164.98C483.07,-156.54 456.94,-143.47 437.36,-133.68"/>
<polygon fill="#63b8ff" stroke="#63b8ff" points="438.85,-130.51 428.34,-129.17 435.72,-136.77 438.85,-130.51"/>
</a>
</g>
</g>
<!-- Node7 -->
<g id="Node000007" class="node">
<title>Node7</title>
<g id="a_Node000007"><a xlink:href="ReflectionMacros_8h.html" target="_top" xlink:title="adapted from https://github.com/tapika/TestCppReflect">
<polygon fill="white" stroke="#666666" points="382,-74 272,-74 272,-55 382,-55 382,-74"/>
<text text-anchor="middle" x="327" y="-62" font-family="Helvetica,sans-Serif" font-size="10.00">ReflectionMacros.h</text>
</a>
</g>
</g>
<!-- Node6&#45;&gt;Node7 -->
<g id="edge6_Node000006_Node000007" class="edge">
<title>Node6&#45;&gt;Node7</title>
<g id="a_edge6_Node000006_Node000007"><a xlink:title=" ">
<path fill="none" stroke="#63b8ff" d="M239.71,-109.98C256.21,-101.57 281.7,-88.59 300.88,-78.81"/>
<polygon fill="#63b8ff" stroke="#63b8ff" points="302.67,-81.83 309.99,-74.17 299.49,-75.59 302.67,-81.83"/>
</a>
</g>
</g>
<!-- Node6&#45;&gt;Node8 -->
<g id="edge7_Node000006_Node000008" class="edge">
<title>Node6&#45;&gt;Node8</title>
<g id="a_edge7_Node000006_Node000008"><a xlink:title=" ">
<path fill="none" stroke="#63b8ff" d="M209.83,-109.98C197.23,-101.84 178,-89.41 163.06,-79.76"/>
<polygon fill="#63b8ff" stroke="#63b8ff" points="164.71,-76.66 154.41,-74.17 160.91,-82.54 164.71,-76.66"/>
</a>
</g>
</g>
<!-- Node9 -->
<g id="Node000009" class="node">
<title>Node9</title>
<g id="a_Node000009"><a xlink:title=" ">
<polygon fill="#e0e0e0" stroke="#999999" points="385.5,-19 292.5,-19 292.5,0 385.5,0 385.5,-19"/>
<text text-anchor="middle" x="339" y="-7" font-family="Helvetica,sans-Serif" font-size="10.00">unordered_map</text>
</a>
</g>
</g>
<!-- Node6&#45;&gt;Node9 -->
<g id="edge8_Node000006_Node000009" class="edge">
<title>Node6&#45;&gt;Node9</title>
<g id="a_edge8_Node000006_Node000009"><a xlink:title=" ">
<path fill="none" stroke="#63b8ff" d="M285.5,-109.99C327.67,-102.81 377.93,-90.98 391,-74 404.34,-56.67 382.99,-37.29 363.75,-24.55"/>
<polygon fill="#63b8ff" stroke="#63b8ff" points="365.53,-21.54 355.19,-19.2 361.82,-27.47 365.53,-21.54"/>
</a>
</g>
</g>
<!-- Node6&#45;&gt;Node10 -->
<g id="edge9_Node000006_Node000010" class="edge">
<title>Node6&#45;&gt;Node10</title>
<g id="a_edge9_Node000006_Node000010"><a xlink:title=" ">
<path fill="none" stroke="#63b8ff" d="M295,-110.89C373.05,-102.18 492.31,-87.38 536,-74 554.44,-68.35 557.48,-63.05 575,-55 599.34,-43.82 627.25,-31.81 647.87,-23.09"/>
<polygon fill="#63b8ff" stroke="#63b8ff" points="649.5,-26.2 657.36,-19.09 646.78,-19.75 649.5,-26.2"/>
</a>
</g>
</g>
<!-- Node11 -->
<g id="Node000011" class="node">
<title>Node11</title>
<g id="a_Node000011"><a xlink:title=" ">
<polygon fill="#e0e0e0" stroke="#999999" points="253.5,-74 184.5,-74 184.5,-55 253.5,-55 253.5,-74"/>
<text text-anchor="middle" x="219" y="-62" font-family="Helvetica,sans-Serif" font-size="10.00">type_traits</text>
</a>
</g>
</g>
<!-- Node6&#45;&gt;Node11 -->
<g id="edge10_Node000006_Node000011" class="edge">
<title>Node6&#45;&gt;Node11</title>
<g id="a_edge10_Node000006_Node000011"><a xlink:title=" ">
<path fill="none" stroke="#63b8ff" d="M222.34,-109.75C221.82,-102.8 221.06,-92.85 220.41,-84.13"/>
<polygon fill="#63b8ff" stroke="#63b8ff" points="223.89,-83.8 219.65,-74.09 216.91,-84.32 223.89,-83.8"/>
</a>
</g>
</g>
<!-- Node13&#45;&gt;Node14 -->
<g id="edge14_Node000013_Node000014" class="edge">
<title>Node13&#45;&gt;Node14</title>
<g id="a_edge14_Node000013_Node000014"><a xlink:title=" ">
<path fill="none" stroke="#63b8ff" d="M775.07,-164.98C764.92,-157.07 749.58,-145.11 737.35,-135.58"/>
<polygon fill="#63b8ff" stroke="#63b8ff" points="739.16,-132.56 729.12,-129.17 734.86,-138.08 739.16,-132.56"/>
</a>
</g>
</g>
<!-- Node15 -->
<g id="Node000015" class="node">
<title>Node15</title>
<g id="a_Node000015"><a xlink:title=" ">
<polygon fill="#e0e0e0" stroke="#999999" points="932,-129 796,-129 796,-110 932,-110 932,-129"/>
<text text-anchor="middle" x="864" y="-117" font-family="Helvetica,sans-Serif" font-size="10.00">interface/constraint.pb.h</text>
</a>
</g>
</g>
<!-- Node13&#45;&gt;Node15 -->
<g id="edge15_Node000013_Node000015" class="edge">
<title>Node13&#45;&gt;Node15</title>
<g id="a_edge15_Node000013_Node000015"><a xlink:title=" ">
<path fill="none" stroke="#63b8ff" d="M798.53,-164.98C810.4,-156.92 828.46,-144.65 842.61,-135.03"/>
<polygon fill="#63b8ff" stroke="#63b8ff" points="844.94,-137.69 851.24,-129.17 841,-131.9 844.94,-137.69"/>
</a>
</g>
</g>
<!-- Node16&#45;&gt;Node14 -->
<g id="edge26_Node000016_Node000014" class="edge">
<title>Node16&#45;&gt;Node14</title>
<g id="a_edge26_Node000016_Node000014"><a xlink:title=" ">
<path fill="none" stroke="#63b8ff" d="M634.91,-164.98C650.55,-156.61 674.66,-143.7 692.88,-133.95"/>
<polygon fill="#63b8ff" stroke="#63b8ff" points="694.64,-136.98 701.8,-129.17 691.34,-130.8 694.64,-136.98"/>
</a>
</g>
</g>
<!-- Node17 -->
<g id="Node000017" class="node">
<title>Node17</title>
<g id="a_Node000017"><a xlink:href="Tags_8h.html" target="_top" xlink:title="Tags to differentiate collections with the same type for template specialization.">
<polygon fill="white" stroke="#666666" points="640.5,-129 593.5,-129 593.5,-110 640.5,-110 640.5,-129"/>
<text text-anchor="middle" x="617" y="-117" font-family="Helvetica,sans-Serif" font-size="10.00">Tags.h</text>
</a>
</g>
</g>
<!-- Node16&#45;&gt;Node17 -->
<g id="edge17_Node000016_Node000017" class="edge">
<title>Node16&#45;&gt;Node17</title>
<g id="a_edge17_Node000016_Node000017"><a xlink:title=" ">
<path fill="none" stroke="#63b8ff" d="M618.67,-164.75C618.41,-157.8 618.03,-147.85 617.7,-139.13"/>
<polygon fill="#63b8ff" stroke="#63b8ff" points="621.2,-138.95 617.32,-129.09 614.2,-139.21 621.2,-138.95"/>
</a>
</g>
</g>
<!-- Node19 -->
<g id="Node000019" class="node">
<title>Node19</title>
<g id="a_Node000019"><a xlink:href="PolyglotText_8h.html" target="_top" xlink:title="Polyglot Text serialization and deserialization to protobuf.">
<polygon fill="white" stroke="#666666" points="575,-129 489,-129 489,-110 575,-110 575,-129"/>
<text text-anchor="middle" x="532" y="-117" font-family="Helvetica,sans-Serif" font-size="10.00">PolyglotText.h</text>
</a>
</g>
</g>
<!-- Node16&#45;&gt;Node19 -->
<g id="edge20_Node000016_Node000019" class="edge">
<title>Node16&#45;&gt;Node19</title>
<g id="a_edge20_Node000016_Node000019"><a xlink:title=" ">
<path fill="none" stroke="#63b8ff" d="M605.02,-164.98C591.53,-156.77 570.87,-144.18 554.96,-134.49"/>
<polygon fill="#63b8ff" stroke="#63b8ff" points="556.59,-131.38 546.23,-129.17 552.95,-137.36 556.59,-131.38"/>
</a>
</g>
</g>
<!-- Node17&#45;&gt;Node10 -->
<g id="edge19_Node000017_Node000010" class="edge">
<title>Node17&#45;&gt;Node10</title>
<g id="a_edge19_Node000017_Node000010"><a xlink:title=" ">
<path fill="none" stroke="#63b8ff" d="M627.12,-109.93C636.36,-101.6 649.79,-88.18 658,-74 666.14,-59.93 671.38,-42.16 674.44,-29"/>
<polygon fill="#63b8ff" stroke="#63b8ff" points="677.86,-29.71 676.51,-19.21 671.02,-28.26 677.86,-29.71"/>
</a>
</g>
</g>
<!-- Node17&#45;&gt;Node18 -->
<g id="edge18_Node000017_Node000018" class="edge">
<title>Node17&#45;&gt;Node18</title>
<g id="a_edge18_Node000017_Node000018"><a xlink:title=" ">
<path fill="none" stroke="#63b8ff" d="M617,-109.75C617,-102.8 617,-92.85 617,-84.13"/>
<polygon fill="#63b8ff" stroke="#63b8ff" points="620.5,-84.09 617,-74.09 613.5,-84.09 620.5,-84.09"/>
</a>
</g>
</g>
<!-- Node20 -->
<g id="Node000020" class="node">
<title>Node20</title>
<g id="a_Node000020"><a xlink:href="IPolyglotText_8h.html" target="_top" xlink:title="Catena&#39;s multi&#45;language text interface.">
<polygon fill="white" stroke="#666666" points="527.5,-74 438.5,-74 438.5,-55 527.5,-55 527.5,-74"/>
<text text-anchor="middle" x="483" y="-62" font-family="Helvetica,sans-Serif" font-size="10.00">IPolyglotText.h</text>
</a>
</g>
</g>
<!-- Node19&#45;&gt;Node20 -->
<g id="edge21_Node000019_Node000020" class="edge">
<title>Node19&#45;&gt;Node20</title>
<g id="a_edge21_Node000019_Node000020"><a xlink:title=" ">
<path fill="none" stroke="#63b8ff" d="M523.91,-109.75C516.84,-102.11 506.41,-90.82 497.85,-81.56"/>
<polygon fill="#63b8ff" stroke="#63b8ff" points="500.3,-79.06 490.94,-74.09 495.16,-83.81 500.3,-79.06"/>
</a>
</g>
</g>
<!-- Node20&#45;&gt;Node9 -->
<g id="edge23_Node000020_Node000009" class="edge">
<title>Node20&#45;&gt;Node9</title>
<g id="a_edge23_Node000020_Node000009"><a xlink:title=" ">
<path fill="none" stroke="#63b8ff" d="M459.86,-54.98C436.18,-46.27 399.13,-32.63 372.29,-22.75"/>
<polygon fill="#63b8ff" stroke="#63b8ff" points="373.15,-19.34 362.56,-19.17 370.73,-25.91 373.15,-19.34"/>
</a>
</g>
</g>
<!-- Node20&#45;&gt;Node10 -->
<g id="edge24_Node000020_Node000010" class="edge">
<title>Node20&#45;&gt;Node10</title>
<g id="a_edge24_Node000020_Node000010"><a xlink:title=" ">
<path fill="none" stroke="#63b8ff" d="M514.33,-54.98C550.39,-45.18 609.31,-29.17 645.75,-19.26"/>
<polygon fill="#63b8ff" stroke="#63b8ff" points="647.11,-22.52 655.84,-16.52 645.28,-15.77 647.11,-22.52"/>
</a>
</g>
</g>
<!-- Node21 -->
<g id="Node000021" class="node">
<title>Node21</title>
<g id="a_Node000021"><a xlink:title=" ">
<polygon fill="#e0e0e0" stroke="#999999" points="536,-19 404,-19 404,0 536,0 536,-19"/>
<text text-anchor="middle" x="470" y="-7" font-family="Helvetica,sans-Serif" font-size="10.00">interface/language.pb.h</text>
</a>
</g>
</g>
<!-- Node20&#45;&gt;Node21 -->
<g id="edge22_Node000020_Node000021" class="edge">
<title>Node20&#45;&gt;Node21</title>
<g id="a_edge22_Node000020_Node000021"><a xlink:title=" ">
<path fill="none" stroke="#63b8ff" d="M480.85,-54.75C479.13,-47.72 476.65,-37.62 474.5,-28.84"/>
<polygon fill="#63b8ff" stroke="#63b8ff" points="477.89,-27.97 472.11,-19.09 471.09,-29.63 477.89,-27.97"/>
</a>
</g>
</g>
<!-- Node22 -->
<g id="Node000022" class="node">
<title>Node22</title>
<g id="a_Node000022"><a xlink:title=" ">
<polygon fill="#e0e0e0" stroke="#999999" points="637.5,-19 554.5,-19 554.5,0 637.5,0 637.5,-19"/>
<text text-anchor="middle" x="596" y="-7" font-family="Helvetica,sans-Serif" font-size="10.00">initializer_list</text>
</a>
</g>
</g>
<!-- Node20&#45;&gt;Node22 -->
<g id="edge25_Node000020_Node000022" class="edge">
<title>Node20&#45;&gt;Node22</title>
<g id="a_edge25_Node000020_Node000022"><a xlink:title=" ">
<path fill="none" stroke="#63b8ff" d="M501.16,-54.98C519.25,-46.5 547.28,-33.35 568.19,-23.54"/>
<polygon fill="#63b8ff" stroke="#63b8ff" points="569.95,-26.59 577.51,-19.17 566.97,-20.25 569.95,-26.59"/>
</a>
</g>
</g>
<!-- Node23&#45;&gt;Node10 -->
<g id="edge29_Node000023_Node000010" class="edge">
<title>Node23&#45;&gt;Node10</title>
<g id="a_edge29_Node000023_Node000010"><a xlink:title=" ">
<path fill="none" stroke="#63b8ff" d="M1068.38,-164.89C1045.34,-156.34 1009.43,-142.57 979,-129 961.75,-121.31 958.3,-117.57 941,-110 859,-74.1 759.54,-38.58 709.7,-21.31"/>
<polygon fill="#63b8ff" stroke="#63b8ff" points="710.72,-17.96 700.12,-18.01 708.44,-24.58 710.72,-17.96"/>
</a>
</g>
</g>
<!-- Node24 -->
<g id="Node000024" class="node">
<title>Node24</title>
<g id="a_Node000024"><a xlink:title=" ">
<polygon fill="#e0e0e0" stroke="#999999" points="1048,-129 988,-129 988,-110 1048,-110 1048,-129"/>
<text text-anchor="middle" x="1018" y="-117" font-family="Helvetica,sans-Serif" font-size="10.00">iostream</text>
</a>
</g>
</g>
<!-- Node23&#45;&gt;Node24 -->
<g id="edge28_Node000023_Node000024" class="edge">
<title>Node23&#45;&gt;Node24</title>
<g id="a_edge28_Node000023_Node000024"><a xlink:title=" ">
<path fill="none" stroke="#63b8ff" d="M1080.11,-164.98C1068.85,-156.92 1051.71,-144.65 1038.29,-135.03"/>
<polygon fill="#63b8ff" stroke="#63b8ff" points="1040.27,-132.15 1030.11,-129.17 1036.2,-137.84 1040.27,-132.15"/>
</a>
</g>
</g>
<!-- Node23&#45;&gt;Node25 -->
<g id="edge30_Node000023_Node000025" class="edge">
<title>Node23&#45;&gt;Node25</title>
<g id="a_edge30_Node000023_Node000025"><a xlink:title=" ">
<path fill="none" stroke="#63b8ff" d="M1115.14,-164.98C1138.82,-156.27 1175.87,-142.63 1202.71,-132.75"/>
<polygon fill="#63b8ff" stroke="#63b8ff" points="1204.27,-135.91 1212.44,-129.17 1201.85,-129.34 1204.27,-135.91"/>
</a>
</g>
</g>
<!-- Node26 -->
<g id="Node000026" class="node">
<title>Node26</title>
<g id="a_Node000026"><a xlink:title=" ">
<polygon fill="#e0e0e0" stroke="#999999" points="1117.5,-129 1066.5,-129 1066.5,-110 1117.5,-110 1117.5,-129"/>
<text text-anchor="middle" x="1092" y="-117" font-family="Helvetica,sans-Serif" font-size="10.00">variant</text>
</a>
</g>
</g>
<!-- Node23&#45;&gt;Node26 -->
<g id="edge31_Node000023_Node000026" class="edge">
<title>Node23&#45;&gt;Node26</title>
<g id="a_edge31_Node000023_Node000026"><a xlink:title=" ">
<path fill="none" stroke="#63b8ff" d="M1092,-164.75C1092,-157.8 1092,-147.85 1092,-139.13"/>
<polygon fill="#63b8ff" stroke="#63b8ff" points="1095.5,-139.09 1092,-129.09 1088.5,-139.09 1095.5,-139.09"/>
</a>
</g>
</g>
<!-- Node27 -->
<g id="Node000027" class="node">
<title>Node27</title>
<g id="a_Node000027"><a xlink:title=" ">
<polygon fill="#e0e0e0" stroke="#999999" points="1194,-129 1136,-129 1136,-110 1194,-110 1194,-129"/>
<text text-anchor="middle" x="1165" y="-117" font-family="Helvetica,sans-Serif" font-size="10.00">memory</text>
</a>
</g>
</g>
<!-- Node23&#45;&gt;Node27 -->
<g id="edge32_Node000023_Node000027" class="edge">
<title>Node23&#45;&gt;Node27</title>
<g id="a_edge32_Node000023_Node000027"><a xlink:title=" ">
<path fill="none" stroke="#63b8ff" d="M1103.73,-164.98C1114.73,-157 1131.42,-144.88 1144.6,-135.31"/>
<polygon fill="#63b8ff" stroke="#63b8ff" points="1147.02,-137.88 1153.06,-129.17 1142.91,-132.21 1147.02,-137.88"/>
</a>
</g>
</g>
<!-- Node29 -->
<g id="Node000029" class="node">
<title>Node29</title>
<g id="a_Node000029"><a xlink:title=" ">
<polygon fill="#e0e0e0" stroke="#999999" points="1334,-129 1278,-129 1278,-110 1334,-110 1334,-129"/>
<text text-anchor="middle" x="1306" y="-117" font-family="Helvetica,sans-Serif" font-size="10.00">sstream</text>
</a>
</g>
</g>
<!-- Node28&#45;&gt;Node29 -->
<g id="edge34_Node000028_Node000029" class="edge">
<title>Node28&#45;&gt;Node29</title>
<g id="a_edge34_Node000028_Node000029"><a xlink:title=" ">
<path fill="none" stroke="#63b8ff" d="M1300.16,-164.75C1301.07,-157.8 1302.39,-147.85 1303.54,-139.13"/>
<polygon fill="#63b8ff" stroke="#63b8ff" points="1307.03,-139.46 1304.87,-129.09 1300.09,-138.54 1307.03,-139.46"/>
</a>
</g>
</g>
<!-- Node30 -->
<g id="Node000030" class="node">
<title>Node30</title>
<g id="a_Node000030"><a xlink:title=" ">
<polygon fill="#e0e0e0" stroke="#999999" points="1417.5,-129 1352.5,-129 1352.5,-110 1417.5,-110 1417.5,-129"/>
<text text-anchor="middle" x="1385" y="-117" font-family="Helvetica,sans-Serif" font-size="10.00">stdexcept</text>
</a>
</g>
</g>
<!-- Node28&#45;&gt;Node30 -->
<g id="edge35_Node000028_Node000030" class="edge">
<title>Node28&#45;&gt;Node30</title>
<g id="a_edge35_Node000028_Node000030"><a xlink:title=" ">
<path fill="none" stroke="#63b8ff" d="M1312.82,-164.98C1326.15,-156.77 1346.58,-144.18 1362.31,-134.49"/>
<polygon fill="#63b8ff" stroke="#63b8ff" points="1364.25,-137.4 1370.93,-129.17 1360.58,-131.44 1364.25,-137.4"/>
</a>
</g>
</g>
<!-- Node33&#45;&gt;Node9 -->
<g id="edge46_Node000033_Node000009" class="edge">
<title>Node33&#45;&gt;Node9</title>
<g id="a_edge46_Node000033_Node000009"><a xlink:title=" ">
<path fill="none" stroke="#63b8ff" d="M95.59,-54.98C146.39,-45.7 227.69,-30.84 282.19,-20.88"/>
<polygon fill="#63b8ff" stroke="#63b8ff" points="282.83,-24.32 292.04,-19.08 281.57,-17.44 282.83,-24.32"/>
</a>
</g>
</g>
<!-- Node33&#45;&gt;Node10 -->
<g id="edge45_Node000033_Node000010" class="edge">
<title>Node33&#45;&gt;Node10</title>
<g id="a_edge45_Node000033_Node000010"><a xlink:title=" ">
<path fill="none" stroke="#63b8ff" d="M98.01,-56.04C101.05,-55.66 104.07,-55.31 107,-55 342.48,-29.92 407.33,-57.23 645.73,-18.64"/>
<polygon fill="#63b8ff" stroke="#63b8ff" points="646.44,-22.07 655.74,-17 645.3,-15.17 646.44,-22.07"/>
</a>
</g>
</g>
</g>
</svg>

<g id="navigator" transform="translate(0 0)" fill="#404254">
  <rect fill="#f2f5e9" fill-opacity="0.5" stroke="#606060" stroke-width=".5" x="0" y="0" width="60" height="60"/>
  <use id="zoomplus" xlink:href="#zoomPlus" x="17" y="9" onmousedown="handleZoom(evt,'in')"/>
  <use id="zoomminus" xlink:href="#zoomMin" x="42" y="9" onmousedown="handleZoom(evt,'out')"/>
  <use id="reset" xlink:href="#resetDef" x="30" y="36" onmousedown="handleReset()"/>
   <use id="arrowup" xlink:href="#arrowUp" x="0" y="0" onmousedown="handlePan(0,-1)"/>
  <use id="arrowright" xlink:href="#arrowRight" x="0" y="0" onmousedown="handlePan(1,0)"/>
  <use id="arrowdown" xlink:href="#arrowDown" x="0" y="0" onmousedown="handlePan(0,1)"/>
  <use id="arrowleft" xlink:href="#arrowLeft" x="0" y="0" onmousedown="handlePan(-1,0)"/>
</g>
<svg viewBox="0 0 15 15" width="100%" height="30px" preserveAspectRatio="xMaxYMin meet">
 <g id="arrow_out" transform="scale(0.3 0.3)">
  <a xlink:href="IDevice_8h__incl_org.svg" target="_base">
   <rect id="button" ry="5" rx="5" y="6" x="6" height="38" width="38"
        fill="#f2f5e9" fill-opacity="0.5" stroke="#606060" stroke-width="1.0"/>
   <path id="arrow"
     d="M 11.500037,31.436501 C 11.940474,20.09759 22.043105,11.32322 32.158766,21.979434 L 37.068811,17.246167 C 37.068811,17.246167 37.088388,32 37.088388,32 L 22.160133,31.978069 C 22.160133,31.978069 26.997745,27.140456 26.997745,27.140456 C 18.528582,18.264221 13.291696,25.230495 11.500037,31.436501 z"
     style="fill:#404040;"/>
  </a>
 </g>
</svg>

<style type='text/css'>
<![CDATA[
[data-mouse-over-selected='false'] { opacity: 0.7; }
[data-mouse-over-selected='true']  { opacity: 1.0; }
]]>
</style>
<script type="application/ecmascript"><![CDATA[
document.addEventListener('DOMContentLoaded', (event) => {
  highlightEdges();
  highlightAdjacentNodes();
});
]]></script>
</svg>
