<?xml version="1.0" encoding="UTF-8" standalone="no"?>
<!DOCTYPE svg PUBLIC "-//W3C//DTD SVG 1.1//EN"
 "http://www.w3.org/Graphics/SVG/1.1/DTD/svg11.dtd">
<!-- Generated by graphviz version 2.43.0 (0)
 -->
<!-- Title: /home/runner/work/Catena/Catena/sdks/cpp/common/include/IDevice.h Pages: 1 -->
<svg width="1467pt" height="379pt"
 viewBox="0.00 0.00 1467.00 379.00" xmlns="http://www.w3.org/2000/svg" xmlns:xlink="http://www.w3.org/1999/xlink">
<g id="graph0" class="graph" transform="scale(1 1) rotate(0) translate(4 375)">
<title>/home/runner/work/Catena/Catena/sdks/cpp/common/include/IDevice.h</title>
<!-- Node1 -->
<g id="Node000001" class="node">
<title>Node1</title>
<g id="a_Node000001"><a xlink:title="Interface for device.">
<polygon fill="#999999" stroke="#666666" points="1115,-371 969,-371 969,-330 1115,-330 1115,-371"/>
<text text-anchor="start" x="977" y="-359" font-family="Helvetica,sans-Serif" font-size="10.00">/home/runner/work/Catena</text>
<text text-anchor="start" x="977" y="-348" font-family="Helvetica,sans-Serif" font-size="10.00">/Catena/sdks/cpp/common</text>
<text text-anchor="middle" x="1042" y="-337" font-family="Helvetica,sans-Serif" font-size="10.00">/include/IDevice.h</text>
</a>
</g>
</g>
<!-- Node2 -->
<g id="Node000002" class="node">
<title>Node2</title>
<g id="a_Node000002"><a xlink:href="Authorizer_8h.html" target="_top" xlink:title="Class for handling authorization information.">
<polygon fill="white" stroke="#666666" points="904.5,-294 829.5,-294 829.5,-275 904.5,-275 904.5,-294"/>
<text text-anchor="middle" x="867" y="-282" font-family="Helvetica,sans-Serif" font-size="10.00">Authorizer.h</text>
</a>
</g>
</g>
<!-- Node1&#45;&gt;Node2 -->
<g id="edge1_Node000001_Node000002" class="edge">
<title>Node1&#45;&gt;Node2</title>
<g id="a_edge1_Node000001_Node000002"><a xlink:title=" ">
<path fill="none" stroke="#63b8ff" d="M988.54,-329.95C959.74,-319.42 925.11,-306.75 900.2,-297.64"/>
<polygon fill="#63b8ff" stroke="#63b8ff" points="901.09,-294.24 890.49,-294.09 898.68,-300.81 901.09,-294.24"/>
</a>
</g>
</g>
<!-- Node8 -->
<g id="Node000008" class="node">
<title>Node8</title>
<g id="a_Node000008"><a xlink:title=" ">
<polygon fill="#e0e0e0" stroke="#999999" points="800,-19 756,-19 756,0 800,0 800,-19"/>
<text text-anchor="middle" x="778" y="-7" font-family="Helvetica,sans-Serif" font-size="10.00">string</text>
</a>
</g>
</g>
<!-- Node1&#45;&gt;Node8 -->
<g id="edge50_Node000001_Node000008" class="edge">
<title>Node1&#45;&gt;Node8</title>
<g id="a_edge50_Node000001_Node000008"><a xlink:title=" ">
<path fill="none" stroke="#63b8ff" d="M1099.13,-329.96C1201.23,-292.07 1397.32,-204.04 1319,-110 1253.34,-31.16 916.77,-14.57 810.32,-11.27"/>
<polygon fill="#63b8ff" stroke="#63b8ff" points="810.29,-7.77 800.19,-10.98 810.08,-14.77 810.29,-7.77"/>
</a>
</g>
</g>
<!-- Node10 -->
<g id="Node000010" class="node">
<title>Node10</title>
<g id="a_Node000010"><a xlink:title=" ">
<polygon fill="#e0e0e0" stroke="#999999" points="147.5,-129 28.5,-129 28.5,-110 147.5,-110 147.5,-129"/>
<text text-anchor="middle" x="88" y="-117" font-family="Helvetica,sans-Serif" font-size="10.00">interface/device.pb.h</text>
</a>
</g>
</g>
<!-- Node1&#45;&gt;Node10 -->
<g id="edge49_Node000001_Node000010" class="edge">
<title>Node1&#45;&gt;Node10</title>
<g id="a_edge49_Node000001_Node000010"><a xlink:title=" ">
<path fill="none" stroke="#63b8ff" d="M968.99,-339.42C826.33,-318.64 501.47,-266 238,-184 193.36,-170.11 143.83,-147.68 114.33,-133.53"/>
<polygon fill="#63b8ff" stroke="#63b8ff" points="115.66,-130.28 105.13,-129.07 112.61,-136.58 115.66,-130.28"/>
</a>
</g>
</g>
<!-- Node11 -->
<g id="Node000011" class="node">
<title>Node11</title>
<g id="a_Node000011"><a xlink:href="IParam_8h.html" target="_top" xlink:title="Interface for parameters.">
<polygon fill="white" stroke="#666666" points="770.5,-239 711.5,-239 711.5,-220 770.5,-220 770.5,-239"/>
<text text-anchor="middle" x="741" y="-227" font-family="Helvetica,sans-Serif" font-size="10.00">IParam.h</text>
</a>
</g>
</g>
<!-- Node1&#45;&gt;Node11 -->
<g id="edge42_Node000001_Node000011" class="edge">
<title>Node1&#45;&gt;Node11</title>
<g id="a_edge42_Node000001_Node000011"><a xlink:title=" ">
<path fill="none" stroke="#63b8ff" d="M968.88,-339.18C924.47,-330.98 867.56,-316.98 821,-294 796.31,-281.82 772.15,-261.06 756.95,-246.6"/>
<polygon fill="#63b8ff" stroke="#63b8ff" points="759.08,-243.8 749.48,-239.32 754.19,-248.81 759.08,-243.8"/>
</a>
</g>
</g>
<!-- Node15 -->
<g id="Node000015" class="node">
<title>Node15</title>
<g id="a_Node000015"><a xlink:href="IParamDescriptor_8h.html" target="_top" xlink:title="Interface class for ParamDescriptor.">
<polygon fill="white" stroke="#666666" points="822.5,-184 713.5,-184 713.5,-165 822.5,-165 822.5,-184"/>
<text text-anchor="middle" x="768" y="-172" font-family="Helvetica,sans-Serif" font-size="10.00">IParamDescriptor.h</text>
</a>
</g>
</g>
<!-- Node1&#45;&gt;Node15 -->
<g id="edge43_Node000001_Node000015" class="edge">
<title>Node1&#45;&gt;Node15</title>
<g id="a_edge43_Node000001_Node000015"><a xlink:title=" ">
<path fill="none" stroke="#63b8ff" d="M1032.83,-329.74C1017.33,-297.18 985.74,-234.41 966,-220 927.49,-191.88 874.35,-181.06 832.83,-177.1"/>
<polygon fill="#63b8ff" stroke="#63b8ff" points="833.06,-173.61 822.8,-176.26 832.48,-180.58 833.06,-173.61"/>
</a>
</g>
</g>
<!-- Node22 -->
<g id="Node000022" class="node">
<title>Node22</title>
<g id="a_Node000022"><a xlink:href="Path_8h.html" target="_top" xlink:title="Handles Path objects used to uniquely identify and access OIDs.">
<polygon fill="white" stroke="#666666" points="1026.5,-184 979.5,-184 979.5,-165 1026.5,-165 1026.5,-184"/>
<text text-anchor="middle" x="1003" y="-172" font-family="Helvetica,sans-Serif" font-size="10.00">Path.h</text>
</a>
</g>
</g>
<!-- Node1&#45;&gt;Node22 -->
<g id="edge41_Node000001_Node000022" class="edge">
<title>Node1&#45;&gt;Node22</title>
<g id="a_edge41_Node000001_Node000022"><a xlink:title=" ">
<path fill="none" stroke="#63b8ff" d="M1037.6,-329.88C1030.05,-296.17 1014.7,-227.69 1007.25,-194.45"/>
<polygon fill="#63b8ff" stroke="#63b8ff" points="1010.57,-193.27 1004.97,-184.27 1003.74,-194.8 1010.57,-193.27"/>
</a>
</g>
</g>
<!-- Node24 -->
<g id="Node000024" class="node">
<title>Node24</title>
<g id="a_Node000024"><a xlink:title=" ">
<polygon fill="#e0e0e0" stroke="#999999" points="1136.5,-129 1089.5,-129 1089.5,-110 1136.5,-110 1136.5,-129"/>
<text text-anchor="middle" x="1113" y="-117" font-family="Helvetica,sans-Serif" font-size="10.00">vector</text>
</a>
</g>
</g>
<!-- Node1&#45;&gt;Node24 -->
<g id="edge51_Node000001_Node000024" class="edge">
<title>Node1&#45;&gt;Node24</title>
<g id="a_edge51_Node000001_Node000024"><a xlink:title=" ">
<path fill="none" stroke="#63b8ff" d="M1048.05,-329.98C1061.57,-286.39 1094.03,-181.68 1107.25,-139.04"/>
<polygon fill="#63b8ff" stroke="#63b8ff" points="1110.62,-139.98 1110.24,-129.39 1103.94,-137.91 1110.62,-139.98"/>
</a>
</g>
</g>
<!-- Node27 -->
<g id="Node000027" class="node">
<title>Node27</title>
<g id="a_Node000027"><a xlink:href="Status_8h.html" target="_top" xlink:title="Communicates failure status using gRPC&#39;s codes.">
<polygon fill="white" stroke="#666666" points="1221,-184 1165,-184 1165,-165 1221,-165 1221,-184"/>
<text text-anchor="middle" x="1193" y="-172" font-family="Helvetica,sans-Serif" font-size="10.00">Status.h</text>
</a>
</g>
</g>
<!-- Node1&#45;&gt;Node27 -->
<g id="edge47_Node000001_Node000027" class="edge">
<title>Node1&#45;&gt;Node27</title>
<g id="a_edge47_Node000001_Node000027"><a xlink:title=" ">
<path fill="none" stroke="#63b8ff" d="M1059.03,-329.88C1089.05,-295.29 1150.85,-224.07 1178.76,-191.91"/>
<polygon fill="#63b8ff" stroke="#63b8ff" points="1181.47,-194.12 1185.39,-184.27 1176.19,-189.53 1181.47,-194.12"/>
</a>
</g>
</g>
<!-- Node32 -->
<g id="Node000032" class="node">
<title>Node32</title>
<g id="a_Node000032"><a xlink:href="ILanguagePack_8h.html" target="_top" xlink:title="Interface for language packs.">
<polygon fill="white" stroke="#666666" points="157,-74 59,-74 59,-55 157,-55 157,-74"/>
<text text-anchor="middle" x="108" y="-62" font-family="Helvetica,sans-Serif" font-size="10.00">ILanguagePack.h</text>
</a>
</g>
</g>
<!-- Node1&#45;&gt;Node32 -->
<g id="edge44_Node000001_Node000032" class="edge">
<title>Node1&#45;&gt;Node32</title>
<g id="a_edge44_Node000001_Node000032"><a xlink:title=" ">
<path fill="none" stroke="#63b8ff" d="M968.73,-348.83C731.55,-345.7 0,-328.14 0,-230.5 0,-230.5 0,-230.5 0,-173.5 0,-144.04 0.05,-132.55 19,-110 31.45,-95.19 50.05,-84.82 67.02,-77.84"/>
<polygon fill="#63b8ff" stroke="#63b8ff" points="68.68,-80.95 76.77,-74.11 66.18,-74.41 68.68,-80.95"/>
</a>
</g>
</g>
<!-- Node33 -->
<g id="Node000033" class="node">
<title>Node33</title>
<g id="a_Node000033"><a xlink:title=" ">
<polygon fill="#e0e0e0" stroke="#999999" points="1312.5,-294 1231.5,-294 1231.5,-275 1312.5,-275 1312.5,-294"/>
<text text-anchor="middle" x="1272" y="-282" font-family="Helvetica,sans-Serif" font-size="10.00">vdk/signals.h</text>
</a>
</g>
</g>
<!-- Node1&#45;&gt;Node33 -->
<g id="edge48_Node000001_Node000033" class="edge">
<title>Node1&#45;&gt;Node33</title>
<g id="a_edge48_Node000001_Node000033"><a xlink:title=" ">
<path fill="none" stroke="#63b8ff" d="M1112.26,-329.95C1151.41,-319.06 1198.75,-305.88 1231.69,-296.72"/>
<polygon fill="#63b8ff" stroke="#63b8ff" points="1232.73,-300.06 1241.42,-294.01 1230.85,-293.32 1232.73,-300.06"/>
</a>
</g>
</g>
<!-- Node34 -->
<g id="Node000034" class="node">
<title>Node34</title>
<g id="a_Node000034"><a xlink:title=" ">
<polygon fill="#e0e0e0" stroke="#999999" points="1393,-294 1331,-294 1331,-275 1393,-275 1393,-294"/>
<text text-anchor="middle" x="1362" y="-282" font-family="Helvetica,sans-Serif" font-size="10.00">coroutine</text>
</a>
</g>
</g>
<!-- Node1&#45;&gt;Node34 -->
<g id="edge52_Node000001_Node000034" class="edge">
<title>Node1&#45;&gt;Node34</title>
<g id="a_edge52_Node000001_Node000034"><a xlink:title=" ">
<path fill="none" stroke="#63b8ff" d="M1115.16,-335.28C1169.26,-324.71 1245.01,-309.76 1320.79,-294.23"/>
<polygon fill="#63b8ff" stroke="#63b8ff" points="1321.91,-297.57 1331,-292.13 1320.5,-290.71 1321.91,-297.57"/>
</a>
</g>
</g>
<!-- Node35 -->
<g id="Node000035" class="node">
<title>Node35</title>
<g id="a_Node000035"><a xlink:title=" ">
<polygon fill="#e0e0e0" stroke="#999999" points="1459,-294 1411,-294 1411,-275 1459,-275 1459,-294"/>
<text text-anchor="middle" x="1435" y="-282" font-family="Helvetica,sans-Serif" font-size="10.00">mutex</text>
</a>
</g>
</g>
<!-- Node1&#45;&gt;Node35 -->
<g id="edge53_Node000001_Node000035" class="edge">
<title>Node1&#45;&gt;Node35</title>
<g id="a_edge53_Node000001_Node000035"><a xlink:title=" ">
<path fill="none" stroke="#63b8ff" d="M1115.12,-340.39C1185.84,-331.09 1296.19,-315.28 1400.81,-294.07"/>
<polygon fill="#63b8ff" stroke="#63b8ff" points="1401.82,-297.43 1410.91,-292 1400.41,-290.58 1401.82,-297.43"/>
</a>
</g>
</g>
<!-- Node3 -->
<g id="Node000003" class="node">
<title>Node3</title>
<g id="a_Node000003"><a xlink:href="Enums_8h.html" target="_top" xlink:title="tools for using EnumDecorators.">
<polygon fill="white" stroke="#666666" points="305.5,-184 246.5,-184 246.5,-165 305.5,-165 305.5,-184"/>
<text text-anchor="middle" x="276" y="-172" font-family="Helvetica,sans-Serif" font-size="10.00">Enums.h</text>
</a>
</g>
</g>
<!-- Node2&#45;&gt;Node3 -->
<g id="edge2_Node000002_Node000003" class="edge">
<title>Node2&#45;&gt;Node3</title>
<g id="a_edge2_Node000002_Node000003"><a xlink:title=" ">
<path fill="none" stroke="#63b8ff" d="M829.13,-276.58C723.01,-257.19 423.43,-202.44 315.43,-182.71"/>
<polygon fill="#63b8ff" stroke="#63b8ff" points="316.06,-179.26 305.59,-180.91 314.8,-186.15 316.06,-179.26"/>
</a>
</g>
</g>
<!-- Node2&#45;&gt;Node11 -->
<g id="edge11_Node000002_Node000011" class="edge">
<title>Node2&#45;&gt;Node11</title>
<g id="a_edge11_Node000002_Node000011"><a xlink:title=" ">
<path fill="none" stroke="#63b8ff" d="M846.76,-274.98C826.3,-266.38 794.47,-252.99 771.07,-243.15"/>
<polygon fill="#63b8ff" stroke="#63b8ff" points="772.19,-239.82 761.61,-239.17 769.47,-246.27 772.19,-239.82"/>
</a>
</g>
</g>
<!-- Node2&#45;&gt;Node15 -->
<g id="edge37_Node000002_Node000015" class="edge">
<title>Node2&#45;&gt;Node15</title>
<g id="a_edge37_Node000002_Node000015"><a xlink:title=" ">
<path fill="none" stroke="#63b8ff" d="M856.4,-274.77C846.14,-266.12 830.38,-252.28 818,-239 804.01,-223.99 789.68,-205.4 779.97,-192.23"/>
<polygon fill="#63b8ff" stroke="#63b8ff" points="782.76,-190.11 774.05,-184.08 777.1,-194.23 782.76,-190.11"/>
</a>
</g>
</g>
<!-- Node17 -->
<g id="Node000017" class="node">
<title>Node17</title>
<g id="a_Node000017"><a xlink:title=" ">
<polygon fill="#e0e0e0" stroke="#999999" points="955.5,-74 890.5,-74 890.5,-55 955.5,-55 955.5,-74"/>
<text text-anchor="middle" x="923" y="-62" font-family="Helvetica,sans-Serif" font-size="10.00">functional</text>
</a>
</g>
</g>
<!-- Node2&#45;&gt;Node17 -->
<g id="edge39_Node000002_Node000017" class="edge">
<title>Node2&#45;&gt;Node17</title>
<g id="a_edge39_Node000002_Node000017"><a xlink:title=" ">
<path fill="none" stroke="#63b8ff" d="M904.79,-276.86C1003.96,-258.5 1266.59,-203.41 1304,-129 1307.79,-121.46 1309.61,-116.31 1304,-110 1281.81,-85.07 1060.7,-71.89 965.85,-67.35"/>
<polygon fill="#63b8ff" stroke="#63b8ff" points="965.89,-63.85 955.73,-66.88 965.56,-70.84 965.89,-63.85"/>
</a>
</g>
</g>
<!-- Node30 -->
<g id="Node000030" class="node">
<title>Node30</title>
<g id="a_Node000030"><a xlink:title=" ">
<polygon fill="#e0e0e0" stroke="#999999" points="907,-239 827,-239 827,-220 907,-220 907,-239"/>
<text text-anchor="middle" x="867" y="-227" font-family="Helvetica,sans-Serif" font-size="10.00">jwt&#45;cpp/jwt.h</text>
</a>
</g>
</g>
<!-- Node2&#45;&gt;Node30 -->
<g id="edge38_Node000002_Node000030" class="edge">
<title>Node2&#45;&gt;Node30</title>
<g id="a_edge38_Node000002_Node000030"><a xlink:title=" ">
<path fill="none" stroke="#63b8ff" d="M867,-274.75C867,-267.8 867,-257.85 867,-249.13"/>
<polygon fill="#63b8ff" stroke="#63b8ff" points="870.5,-249.09 867,-239.09 863.5,-249.09 870.5,-249.09"/>
</a>
</g>
</g>
<!-- Node31 -->
<g id="Node000031" class="node">
<title>Node31</title>
<g id="a_Node000031"><a xlink:title=" ">
<polygon fill="#e0e0e0" stroke="#999999" points="957,-239 925,-239 925,-220 957,-220 957,-239"/>
<text text-anchor="middle" x="941" y="-227" font-family="Helvetica,sans-Serif" font-size="10.00">set</text>
</a>
</g>
</g>
<!-- Node2&#45;&gt;Node31 -->
<g id="edge40_Node000002_Node000031" class="edge">
<title>Node2&#45;&gt;Node31</title>
<g id="a_edge40_Node000002_Node000031"><a xlink:title=" ">
<path fill="none" stroke="#63b8ff" d="M878.89,-274.98C890.15,-266.92 907.29,-254.65 920.71,-245.03"/>
<polygon fill="#63b8ff" stroke="#63b8ff" points="922.8,-247.84 928.89,-239.17 918.73,-242.15 922.8,-247.84"/>
</a>
</g>
</g>
<!-- Node4 -->
<g id="Node000004" class="node">
<title>Node4</title>
<g id="a_Node000004"><a xlink:href="EnumDecorator_8h.html" target="_top" xlink:title="Provides an enum with useful extra functionality.">
<polygon fill="white" stroke="#666666" points="348,-129 204,-129 204,-110 348,-110 348,-129"/>
<text text-anchor="middle" x="276" y="-117" font-family="Helvetica,sans-Serif" font-size="10.00">patterns/EnumDecorator.h</text>
</a>
</g>
</g>
<!-- Node3&#45;&gt;Node4 -->
<g id="edge3_Node000003_Node000004" class="edge">
<title>Node3&#45;&gt;Node4</title>
<g id="a_edge3_Node000003_Node000004"><a xlink:title=" ">
<path fill="none" stroke="#63b8ff" d="M276,-164.75C276,-157.8 276,-147.85 276,-139.13"/>
<polygon fill="#63b8ff" stroke="#63b8ff" points="279.5,-139.09 276,-129.09 272.5,-139.09 279.5,-139.09"/>
</a>
</g>
</g>
<!-- Node6 -->
<g id="Node000006" class="node">
<title>Node6</title>
<g id="a_Node000006"><a xlink:title=" ">
<polygon fill="#e0e0e0" stroke="#999999" points="225,-74 175,-74 175,-55 225,-55 225,-74"/>
<text text-anchor="middle" x="200" y="-62" font-family="Helvetica,sans-Serif" font-size="10.00">cstdint</text>
</a>
</g>
</g>
<!-- Node3&#45;&gt;Node6 -->
<g id="edge10_Node000003_Node000006" class="edge">
<title>Node3&#45;&gt;Node6</title>
<g id="a_edge10_Node000003_Node000006"><a xlink:title=" ">
<path fill="none" stroke="#63b8ff" d="M246.21,-165.57C227.95,-159 206.03,-147.64 195,-129 186.91,-115.33 189.47,-97.02 193.28,-83.57"/>
<polygon fill="#63b8ff" stroke="#63b8ff" points="196.62,-84.6 196.42,-74.01 189.97,-82.42 196.62,-84.6"/>
</a>
</g>
</g>
<!-- Node3&#45;&gt;Node10 -->
<g id="edge9_Node000003_Node000010" class="edge">
<title>Node3&#45;&gt;Node10</title>
<g id="a_edge9_Node000003_Node000010"><a xlink:title=" ">
<path fill="none" stroke="#63b8ff" d="M246.21,-165.1C214.36,-156.12 163.67,-141.83 128.27,-131.85"/>
<polygon fill="#63b8ff" stroke="#63b8ff" points="128.85,-128.38 118.27,-129.03 126.95,-135.12 128.85,-128.38"/>
</a>
</g>
</g>
<!-- Node5 -->
<g id="Node000005" class="node">
<title>Node5</title>
<g id="a_Node000005"><a xlink:href="ReflectionMacros_8h.html" target="_top" xlink:title="adapted from https://github.com/tapika/TestCppReflect">
<polygon fill="white" stroke="#666666" points="479,-74 369,-74 369,-55 479,-55 479,-74"/>
<text text-anchor="middle" x="424" y="-62" font-family="Helvetica,sans-Serif" font-size="10.00">ReflectionMacros.h</text>
</a>
</g>
</g>
<!-- Node4&#45;&gt;Node5 -->
<g id="edge4_Node000004_Node000005" class="edge">
<title>Node4&#45;&gt;Node5</title>
<g id="a_edge4_Node000004_Node000005"><a xlink:title=" ">
<path fill="none" stroke="#63b8ff" d="M299.78,-109.98C324.23,-101.23 362.53,-87.51 390.15,-77.62"/>
<polygon fill="#63b8ff" stroke="#63b8ff" points="391.55,-80.84 399.79,-74.17 389.19,-74.25 391.55,-80.84"/>
</a>
</g>
</g>
<!-- Node4&#45;&gt;Node6 -->
<g id="edge5_Node000004_Node000006" class="edge">
<title>Node4&#45;&gt;Node6</title>
<g id="a_edge5_Node000004_Node000006"><a xlink:title=" ">
<path fill="none" stroke="#63b8ff" d="M263.79,-109.98C252.22,-101.92 234.62,-89.65 220.84,-80.03"/>
<polygon fill="#63b8ff" stroke="#63b8ff" points="222.64,-77.02 212.43,-74.17 218.63,-82.76 222.64,-77.02"/>
</a>
</g>
</g>
<!-- Node7 -->
<g id="Node000007" class="node">
<title>Node7</title>
<g id="a_Node000007"><a xlink:title=" ">
<polygon fill="#e0e0e0" stroke="#999999" points="299.5,-19 206.5,-19 206.5,0 299.5,0 299.5,-19"/>
<text text-anchor="middle" x="253" y="-7" font-family="Helvetica,sans-Serif" font-size="10.00">unordered_map</text>
</a>
</g>
</g>
<!-- Node4&#45;&gt;Node7 -->
<g id="edge6_Node000004_Node000007" class="edge">
<title>Node4&#45;&gt;Node7</title>
<g id="a_edge6_Node000004_Node000007"><a xlink:title=" ">
<path fill="none" stroke="#63b8ff" d="M274.12,-109.66C270.38,-92.09 261.93,-52.45 256.93,-28.95"/>
<polygon fill="#63b8ff" stroke="#63b8ff" points="260.35,-28.21 254.84,-19.16 253.5,-29.67 260.35,-28.21"/>
</a>
</g>
</g>
<!-- Node4&#45;&gt;Node8 -->
<g id="edge7_Node000004_Node000008" class="edge">
<title>Node4&#45;&gt;Node8</title>
<g id="a_edge7_Node000004_Node000008"><a xlink:title=" ">
<path fill="none" stroke="#63b8ff" d="M348.42,-110.87C351.32,-110.58 354.19,-110.28 357,-110 439.63,-101.67 656.32,-114.18 729,-74 747.42,-63.82 761.17,-43.53 769.34,-28.61"/>
<polygon fill="#63b8ff" stroke="#63b8ff" points="772.65,-29.83 774.1,-19.34 766.42,-26.64 772.65,-29.83"/>
</a>
</g>
</g>
<!-- Node9 -->
<g id="Node000009" class="node">
<title>Node9</title>
<g id="a_Node000009"><a xlink:title=" ">
<polygon fill="#e0e0e0" stroke="#999999" points="350.5,-74 281.5,-74 281.5,-55 350.5,-55 350.5,-74"/>
<text text-anchor="middle" x="316" y="-62" font-family="Helvetica,sans-Serif" font-size="10.00">type_traits</text>
</a>
</g>
</g>
<!-- Node4&#45;&gt;Node9 -->
<g id="edge8_Node000004_Node000009" class="edge">
<title>Node4&#45;&gt;Node9</title>
<g id="a_edge8_Node000004_Node000009"><a xlink:title=" ">
<path fill="none" stroke="#63b8ff" d="M282.61,-109.75C288.26,-102.26 296.54,-91.28 303.45,-82.13"/>
<polygon fill="#63b8ff" stroke="#63b8ff" points="306.29,-84.18 309.52,-74.09 300.7,-79.96 306.29,-84.18"/>
</a>
</g>
</g>
<!-- Node11&#45;&gt;Node3 -->
<g id="edge12_Node000011_Node000003" class="edge">
<title>Node11&#45;&gt;Node3</title>
<g id="a_edge12_Node000011_Node000003"><a xlink:title=" ">
<path fill="none" stroke="#63b8ff" d="M711.2,-225.1C630.33,-215.89 406.68,-190.39 315.49,-180"/>
<polygon fill="#63b8ff" stroke="#63b8ff" points="315.88,-176.52 305.55,-178.87 315.09,-183.48 315.88,-176.52"/>
</a>
</g>
</g>
<!-- Node12 -->
<g id="Node000012" class="node">
<title>Node12</title>
<g id="a_Node000012"><a xlink:href="IConstraint_8h.html" target="_top" xlink:title="Interface for constraints.">
<polygon fill="white" stroke="#666666" points="619.5,-184 540.5,-184 540.5,-165 619.5,-165 619.5,-184"/>
<text text-anchor="middle" x="580" y="-172" font-family="Helvetica,sans-Serif" font-size="10.00">IConstraint.h</text>
</a>
</g>
</g>
<!-- Node11&#45;&gt;Node12 -->
<g id="edge13_Node000011_Node000012" class="edge">
<title>Node11&#45;&gt;Node12</title>
<g id="a_edge13_Node000011_Node000012"><a xlink:title=" ">
<path fill="none" stroke="#63b8ff" d="M715.13,-219.98C688.22,-211.13 645.88,-197.19 615.77,-187.28"/>
<polygon fill="#63b8ff" stroke="#63b8ff" points="616.66,-183.88 606.07,-184.08 614.47,-190.53 616.66,-183.88"/>
</a>
</g>
</g>
<!-- Node13 -->
<g id="Node000013" class="node">
<title>Node13</title>
<g id="a_Node000013"><a xlink:title=" ">
<polygon fill="#e0e0e0" stroke="#999999" points="639.5,-129 520.5,-129 520.5,-110 639.5,-110 639.5,-129"/>
<text text-anchor="middle" x="580" y="-117" font-family="Helvetica,sans-Serif" font-size="10.00">interface/param.pb.h</text>
</a>
</g>
</g>
<!-- Node11&#45;&gt;Node13 -->
<g id="edge36_Node000011_Node000013" class="edge">
<title>Node11&#45;&gt;Node13</title>
<g id="a_edge36_Node000011_Node000013"><a xlink:title=" ">
<path fill="none" stroke="#63b8ff" d="M728.1,-219.84C700.54,-201.36 635.69,-157.86 601.68,-135.05"/>
<polygon fill="#63b8ff" stroke="#63b8ff" points="603.22,-131.86 592.96,-129.2 599.32,-137.67 603.22,-131.86"/>
</a>
</g>
</g>
<!-- Node11&#45;&gt;Node15 -->
<g id="edge16_Node000011_Node000015" class="edge">
<title>Node11&#45;&gt;Node15</title>
<g id="a_edge16_Node000011_Node000015"><a xlink:title=" ">
<path fill="none" stroke="#63b8ff" d="M745.46,-219.75C749.12,-212.57 754.41,-202.18 758.95,-193.27"/>
<polygon fill="#63b8ff" stroke="#63b8ff" points="762.2,-194.59 763.62,-184.09 755.97,-191.41 762.2,-194.59"/>
</a>
</g>
</g>
<!-- Node11&#45;&gt;Node22 -->
<g id="edge27_Node000011_Node000022" class="edge">
<title>Node11&#45;&gt;Node22</title>
<g id="a_edge27_Node000011_Node000022"><a xlink:title=" ">
<path fill="none" stroke="#63b8ff" d="M770.55,-222.52C819.62,-212.6 917.66,-192.76 969.33,-182.31"/>
<polygon fill="#63b8ff" stroke="#63b8ff" points="970.22,-185.7 979.32,-180.29 968.83,-178.84 970.22,-185.7"/>
</a>
</g>
</g>
<!-- Node11&#45;&gt;Node27 -->
<g id="edge33_Node000011_Node000027" class="edge">
<title>Node11&#45;&gt;Node27</title>
<g id="a_edge33_Node000011_Node000027"><a xlink:title=" ">
<path fill="none" stroke="#63b8ff" d="M770.66,-225.02C849.92,-215.73 1066.65,-190.31 1154.88,-179.97"/>
<polygon fill="#63b8ff" stroke="#63b8ff" points="1155.46,-183.43 1164.98,-178.79 1154.64,-176.47 1155.46,-183.43"/>
</a>
</g>
</g>
<!-- Node12&#45;&gt;Node13 -->
<g id="edge14_Node000012_Node000013" class="edge">
<title>Node12&#45;&gt;Node13</title>
<g id="a_edge14_Node000012_Node000013"><a xlink:title=" ">
<path fill="none" stroke="#63b8ff" d="M580,-164.75C580,-157.8 580,-147.85 580,-139.13"/>
<polygon fill="#63b8ff" stroke="#63b8ff" points="583.5,-139.09 580,-129.09 576.5,-139.09 583.5,-139.09"/>
</a>
</g>
</g>
<!-- Node14 -->
<g id="Node000014" class="node">
<title>Node14</title>
<g id="a_Node000014"><a xlink:title=" ">
<polygon fill="#e0e0e0" stroke="#999999" points="502,-129 366,-129 366,-110 502,-110 502,-129"/>
<text text-anchor="middle" x="434" y="-117" font-family="Helvetica,sans-Serif" font-size="10.00">interface/constraint.pb.h</text>
</a>
</g>
</g>
<!-- Node12&#45;&gt;Node14 -->
<g id="edge15_Node000012_Node000014" class="edge">
<title>Node12&#45;&gt;Node14</title>
<g id="a_edge15_Node000012_Node000014"><a xlink:title=" ">
<path fill="none" stroke="#63b8ff" d="M556.54,-164.98C532.42,-156.23 494.63,-142.51 467.4,-132.62"/>
<polygon fill="#63b8ff" stroke="#63b8ff" points="468.48,-129.29 457.88,-129.17 466.09,-135.87 468.48,-129.29"/>
</a>
</g>
</g>
<!-- Node15&#45;&gt;Node13 -->
<g id="edge26_Node000015_Node000013" class="edge">
<title>Node15&#45;&gt;Node13</title>
<g id="a_edge26_Node000015_Node000013"><a xlink:title=" ">
<path fill="none" stroke="#63b8ff" d="M737.79,-164.98C705.96,-156.01 655.64,-141.82 620.4,-131.89"/>
<polygon fill="#63b8ff" stroke="#63b8ff" points="621.02,-128.43 610.44,-129.08 619.12,-135.16 621.02,-128.43"/>
</a>
</g>
</g>
<!-- Node16 -->
<g id="Node000016" class="node">
<title>Node16</title>
<g id="a_Node000016"><a xlink:href="Tags_8h.html" target="_top" xlink:title="Tags to differentiate collections with the same type for template specialization.">
<polygon fill="white" stroke="#666666" points="809.5,-129 762.5,-129 762.5,-110 809.5,-110 809.5,-129"/>
<text text-anchor="middle" x="786" y="-117" font-family="Helvetica,sans-Serif" font-size="10.00">Tags.h</text>
</a>
</g>
</g>
<!-- Node15&#45;&gt;Node16 -->
<g id="edge17_Node000015_Node000016" class="edge">
<title>Node15&#45;&gt;Node16</title>
<g id="a_edge17_Node000015_Node000016"><a xlink:title=" ">
<path fill="none" stroke="#63b8ff" d="M770.97,-164.75C773.36,-157.72 776.79,-147.62 779.77,-138.84"/>
<polygon fill="#63b8ff" stroke="#63b8ff" points="783.18,-139.68 783.08,-129.09 776.55,-137.43 783.18,-139.68"/>
</a>
</g>
</g>
<!-- Node18 -->
<g id="Node000018" class="node">
<title>Node18</title>
<g id="a_Node000018"><a xlink:href="PolyglotText_8h.html" target="_top" xlink:title="Polyglot Text serialization and deserialization to protobuf.">
<polygon fill="white" stroke="#666666" points="744,-129 658,-129 658,-110 744,-110 744,-129"/>
<text text-anchor="middle" x="701" y="-117" font-family="Helvetica,sans-Serif" font-size="10.00">PolyglotText.h</text>
</a>
</g>
</g>
<!-- Node15&#45;&gt;Node18 -->
<g id="edge20_Node000015_Node000018" class="edge">
<title>Node15&#45;&gt;Node18</title>
<g id="a_edge20_Node000015_Node000018"><a xlink:title=" ">
<path fill="none" stroke="#63b8ff" d="M757.24,-164.98C747.23,-157.07 732.11,-145.11 720.07,-135.58"/>
<polygon fill="#63b8ff" stroke="#63b8ff" points="721.97,-132.63 711.96,-129.17 717.63,-138.12 721.97,-132.63"/>
</a>
</g>
</g>
<!-- Node16&#45;&gt;Node8 -->
<g id="edge19_Node000016_Node000008" class="edge">
<title>Node16&#45;&gt;Node8</title>
<g id="a_edge19_Node000016_Node000008"><a xlink:title=" ">
<path fill="none" stroke="#63b8ff" d="M785.35,-109.66C784.05,-92.17 781.13,-52.8 779.39,-29.27"/>
<polygon fill="#63b8ff" stroke="#63b8ff" points="782.87,-28.87 778.64,-19.16 775.89,-29.39 782.87,-28.87"/>
</a>
</g>
</g>
<!-- Node16&#45;&gt;Node17 -->
<g id="edge18_Node000016_Node000017" class="edge">
<title>Node16&#45;&gt;Node17</title>
<g id="a_edge18_Node000016_Node000017"><a xlink:title=" ">
<path fill="none" stroke="#63b8ff" d="M808.01,-109.98C830.45,-101.3 865.48,-87.75 890.99,-77.88"/>
<polygon fill="#63b8ff" stroke="#63b8ff" points="892.52,-81.04 900.59,-74.17 890,-74.51 892.52,-81.04"/>
</a>
</g>
</g>
<!-- Node19 -->
<g id="Node000019" class="node">
<title>Node19</title>
<g id="a_Node000019"><a xlink:href="IPolyglotText_8h.html" target="_top" xlink:title="Catena&#39;s multi&#45;language text interface.">
<polygon fill="white" stroke="#666666" points="719.5,-74 630.5,-74 630.5,-55 719.5,-55 719.5,-74"/>
<text text-anchor="middle" x="675" y="-62" font-family="Helvetica,sans-Serif" font-size="10.00">IPolyglotText.h</text>
</a>
</g>
</g>
<!-- Node18&#45;&gt;Node19 -->
<g id="edge21_Node000018_Node000019" class="edge">
<title>Node18&#45;&gt;Node19</title>
<g id="a_edge21_Node000018_Node000019"><a xlink:title=" ">
<path fill="none" stroke="#63b8ff" d="M696.71,-109.75C693.19,-102.57 688.09,-92.18 683.72,-83.27"/>
<polygon fill="#63b8ff" stroke="#63b8ff" points="686.76,-81.53 679.21,-74.09 680.48,-84.61 686.76,-81.53"/>
</a>
</g>
</g>
<!-- Node19&#45;&gt;Node7 -->
<g id="edge23_Node000019_Node000007" class="edge">
<title>Node19&#45;&gt;Node7</title>
<g id="a_edge23_Node000019_Node000007"><a xlink:title=" ">
<path fill="none" stroke="#63b8ff" d="M630.24,-57.88C552.88,-48.16 394.34,-28.25 309.51,-17.6"/>
<polygon fill="#63b8ff" stroke="#63b8ff" points="309.9,-14.12 299.54,-16.35 309.03,-21.06 309.9,-14.12"/>
</a>
</g>
</g>
<!-- Node19&#45;&gt;Node8 -->
<g id="edge24_Node000019_Node000008" class="edge">
<title>Node19&#45;&gt;Node8</title>
<g id="a_edge24_Node000019_Node000008"><a xlink:title=" ">
<path fill="none" stroke="#63b8ff" d="M691.55,-54.98C707.89,-46.57 733.13,-33.59 752.13,-23.81"/>
<polygon fill="#63b8ff" stroke="#63b8ff" points="753.86,-26.86 761.15,-19.17 750.66,-20.63 753.86,-26.86"/>
</a>
</g>
</g>
<!-- Node20 -->
<g id="Node000020" class="node">
<title>Node20</title>
<g id="a_Node000020"><a xlink:title=" ">
<polygon fill="#e0e0e0" stroke="#999999" points="622,-19 490,-19 490,0 622,0 622,-19"/>
<text text-anchor="middle" x="556" y="-7" font-family="Helvetica,sans-Serif" font-size="10.00">interface/language.pb.h</text>
</a>
</g>
</g>
<!-- Node19&#45;&gt;Node20 -->
<g id="edge22_Node000019_Node000020" class="edge">
<title>Node19&#45;&gt;Node20</title>
<g id="a_edge22_Node000019_Node000020"><a xlink:title=" ">
<path fill="none" stroke="#63b8ff" d="M655.88,-54.98C636.65,-46.42 606.77,-33.11 584.69,-23.28"/>
<polygon fill="#63b8ff" stroke="#63b8ff" points="586.03,-20.04 575.47,-19.17 583.18,-26.44 586.03,-20.04"/>
</a>
</g>
</g>
<!-- Node21 -->
<g id="Node000021" class="node">
<title>Node21</title>
<g id="a_Node000021"><a xlink:title=" ">
<polygon fill="#e0e0e0" stroke="#999999" points="723.5,-19 640.5,-19 640.5,0 723.5,0 723.5,-19"/>
<text text-anchor="middle" x="682" y="-7" font-family="Helvetica,sans-Serif" font-size="10.00">initializer_list</text>
</a>
</g>
</g>
<!-- Node19&#45;&gt;Node21 -->
<g id="edge25_Node000019_Node000021" class="edge">
<title>Node19&#45;&gt;Node21</title>
<g id="a_edge25_Node000019_Node000021"><a xlink:title=" ">
<path fill="none" stroke="#63b8ff" d="M676.16,-54.75C677.07,-47.8 678.39,-37.85 679.54,-29.13"/>
<polygon fill="#63b8ff" stroke="#63b8ff" points="683.03,-29.46 680.87,-19.09 676.09,-28.54 683.03,-29.46"/>
</a>
</g>
</g>
<!-- Node22&#45;&gt;Node8 -->
<g id="edge29_Node000022_Node000008" class="edge">
<title>Node22&#45;&gt;Node8</title>
<g id="a_edge29_Node000022_Node000008"><a xlink:title=" ">
<path fill="none" stroke="#63b8ff" d="M1014.84,-164.91C1029.82,-152.92 1052.48,-130.36 1042,-110 998.76,-25.98 870.77,-12.09 810.31,-10.34"/>
<polygon fill="#63b8ff" stroke="#63b8ff" points="810.25,-6.84 800.19,-10.15 810.12,-13.84 810.25,-6.84"/>
</a>
</g>
</g>
<!-- Node23 -->
<g id="Node000023" class="node">
<title>Node23</title>
<g id="a_Node000023"><a xlink:title=" ">
<polygon fill="#e0e0e0" stroke="#999999" points="1033,-129 973,-129 973,-110 1033,-110 1033,-129"/>
<text text-anchor="middle" x="1003" y="-117" font-family="Helvetica,sans-Serif" font-size="10.00">iostream</text>
</a>
</g>
</g>
<!-- Node22&#45;&gt;Node23 -->
<g id="edge28_Node000022_Node000023" class="edge">
<title>Node22&#45;&gt;Node23</title>
<g id="a_edge28_Node000022_Node000023"><a xlink:title=" ">
<path fill="none" stroke="#63b8ff" d="M1003,-164.75C1003,-157.8 1003,-147.85 1003,-139.13"/>
<polygon fill="#63b8ff" stroke="#63b8ff" points="1006.5,-139.09 1003,-129.09 999.5,-139.09 1006.5,-139.09"/>
</a>
</g>
</g>
<!-- Node22&#45;&gt;Node24 -->
<g id="edge30_Node000022_Node000024" class="edge">
<title>Node22&#45;&gt;Node24</title>
<g id="a_edge30_Node000022_Node000024"><a xlink:title=" ">
<path fill="none" stroke="#63b8ff" d="M1020.67,-164.98C1038.29,-156.5 1065.58,-143.35 1085.93,-133.54"/>
<polygon fill="#63b8ff" stroke="#63b8ff" points="1087.52,-136.66 1095.01,-129.17 1084.48,-130.36 1087.52,-136.66"/>
</a>
</g>
</g>
<!-- Node25 -->
<g id="Node000025" class="node">
<title>Node25</title>
<g id="a_Node000025"><a xlink:title=" ">
<polygon fill="#e0e0e0" stroke="#999999" points="878.5,-129 827.5,-129 827.5,-110 878.5,-110 878.5,-129"/>
<text text-anchor="middle" x="853" y="-117" font-family="Helvetica,sans-Serif" font-size="10.00">variant</text>
</a>
</g>
</g>
<!-- Node22&#45;&gt;Node25 -->
<g id="edge31_Node000022_Node000025" class="edge">
<title>Node22&#45;&gt;Node25</title>
<g id="a_edge31_Node000022_Node000025"><a xlink:title=" ">
<path fill="none" stroke="#63b8ff" d="M979.23,-165.1C954.26,-156.28 914.76,-142.32 886.6,-132.37"/>
<polygon fill="#63b8ff" stroke="#63b8ff" points="887.75,-129.07 877.15,-129.03 885.42,-135.67 887.75,-129.07"/>
</a>
</g>
</g>
<!-- Node26 -->
<g id="Node000026" class="node">
<title>Node26</title>
<g id="a_Node000026"><a xlink:title=" ">
<polygon fill="#e0e0e0" stroke="#999999" points="955,-129 897,-129 897,-110 955,-110 955,-129"/>
<text text-anchor="middle" x="926" y="-117" font-family="Helvetica,sans-Serif" font-size="10.00">memory</text>
</a>
</g>
</g>
<!-- Node22&#45;&gt;Node26 -->
<g id="edge32_Node000022_Node000026" class="edge">
<title>Node22&#45;&gt;Node26</title>
<g id="a_edge32_Node000022_Node000026"><a xlink:title=" ">
<path fill="none" stroke="#63b8ff" d="M990.63,-164.98C978.91,-156.92 961.08,-144.65 947.11,-135.03"/>
<polygon fill="#63b8ff" stroke="#63b8ff" points="948.82,-131.96 938.6,-129.17 944.85,-137.72 948.82,-131.96"/>
</a>
</g>
</g>
<!-- Node28 -->
<g id="Node000028" class="node">
<title>Node28</title>
<g id="a_Node000028"><a xlink:title=" ">
<polygon fill="#e0e0e0" stroke="#999999" points="1211,-129 1155,-129 1155,-110 1211,-110 1211,-129"/>
<text text-anchor="middle" x="1183" y="-117" font-family="Helvetica,sans-Serif" font-size="10.00">sstream</text>
</a>
</g>
</g>
<!-- Node27&#45;&gt;Node28 -->
<g id="edge34_Node000027_Node000028" class="edge">
<title>Node27&#45;&gt;Node28</title>
<g id="a_edge34_Node000027_Node000028"><a xlink:title=" ">
<path fill="none" stroke="#63b8ff" d="M1191.35,-164.75C1190.04,-157.8 1188.16,-147.85 1186.52,-139.13"/>
<polygon fill="#63b8ff" stroke="#63b8ff" points="1189.91,-138.27 1184.62,-129.09 1183.04,-139.56 1189.91,-138.27"/>
</a>
</g>
</g>
<!-- Node29 -->
<g id="Node000029" class="node">
<title>Node29</title>
<g id="a_Node000029"><a xlink:title=" ">
<polygon fill="#e0e0e0" stroke="#999999" points="1294.5,-129 1229.5,-129 1229.5,-110 1294.5,-110 1294.5,-129"/>
<text text-anchor="middle" x="1262" y="-117" font-family="Helvetica,sans-Serif" font-size="10.00">stdexcept</text>
</a>
</g>
</g>
<!-- Node27&#45;&gt;Node29 -->
<g id="edge35_Node000027_Node000029" class="edge">
<title>Node27&#45;&gt;Node29</title>
<g id="a_edge35_Node000027_Node000029"><a xlink:title=" ">
<path fill="none" stroke="#63b8ff" d="M1204.09,-164.98C1214.49,-157 1230.26,-144.88 1242.72,-135.31"/>
<polygon fill="#63b8ff" stroke="#63b8ff" points="1244.91,-138.04 1250.71,-129.17 1240.65,-132.49 1244.91,-138.04"/>
</a>
</g>
</g>
<!-- Node32&#45;&gt;Node7 -->
<g id="edge46_Node000032_Node000007" class="edge">
<title>Node32&#45;&gt;Node7</title>
<g id="a_edge46_Node000032_Node000007"><a xlink:title=" ">
<path fill="none" stroke="#63b8ff" d="M131.3,-54.98C155.25,-46.23 192.78,-32.51 219.83,-22.62"/>
<polygon fill="#63b8ff" stroke="#63b8ff" points="221.09,-25.89 229.28,-19.17 218.69,-19.32 221.09,-25.89"/>
</a>
</g>
</g>
<!-- Node32&#45;&gt;Node8 -->
<g id="edge45_Node000032_Node000008" class="edge">
<title>Node32&#45;&gt;Node8</title>
<g id="a_edge45_Node000032_Node000008"><a xlink:title=" ">
<path fill="none" stroke="#63b8ff" d="M157.01,-56.03C160.05,-55.65 163.06,-55.31 166,-55 417.13,-28.67 482.46,-50.49 733,-19 737.06,-18.49 741.3,-17.84 745.49,-17.13"/>
<polygon fill="#63b8ff" stroke="#63b8ff" points="746.44,-20.52 755.65,-15.28 745.19,-13.63 746.44,-20.52"/>
</a>
</g>
</g>
</g>
</svg>
