<?xml version="1.0" encoding="UTF-8" standalone="no"?>
<!DOCTYPE svg PUBLIC "-//W3C//DTD SVG 1.1//EN"
 "http://www.w3.org/Graphics/SVG/1.1/DTD/svg11.dtd">
<!-- Generated by graphviz version 2.43.0 (0)
 -->
<!-- Title: /home/runner/work/Catena/Catena/sdks/cpp/common/include/IDevice.h Pages: 1 -->
<svg width="1701pt" height="390pt"
 viewBox="0.00 0.00 1701.00 390.00" xmlns="http://www.w3.org/2000/svg" xmlns:xlink="http://www.w3.org/1999/xlink">
<g id="graph0" class="graph" transform="scale(1 1) rotate(0) translate(4 386)">
<title>/home/runner/work/Catena/Catena/sdks/cpp/common/include/IDevice.h</title>
<!-- Node1 -->
<g id="Node000001" class="node">
<title>Node1</title>
<g id="a_Node000001"><a xlink:title="Interface for device.">
<polygon fill="#999999" stroke="#666666" points="1305.5,-382 1159.5,-382 1159.5,-341 1305.5,-341 1305.5,-382"/>
<text text-anchor="start" x="1167.5" y="-370" font-family="Helvetica,sans-Serif" font-size="10.00">/home/runner/work/Catena</text>
<text text-anchor="start" x="1167.5" y="-359" font-family="Helvetica,sans-Serif" font-size="10.00">/Catena/sdks/cpp/common</text>
<text text-anchor="middle" x="1232.5" y="-348" font-family="Helvetica,sans-Serif" font-size="10.00">/include/IDevice.h</text>
</a>
</g>
</g>
<!-- Node2 -->
<g id="Node000002" class="node">
<title>Node2</title>
<g id="a_Node000002"><a xlink:href="Authorization_8h.html" target="_top" xlink:title="Class for handling authorization information.">
<polygon fill="white" stroke="#666666" points="1030,-305 939,-305 939,-286 1030,-286 1030,-305"/>
<text text-anchor="middle" x="984.5" y="-293" font-family="Helvetica,sans-Serif" font-size="10.00">Authorization.h</text>
</a>
</g>
</g>
<!-- Node1&#45;&gt;Node2 -->
<g id="edge1_Node000001_Node000002" class="edge">
<title>Node1&#45;&gt;Node2</title>
<g id="a_edge1_Node000001_Node000002"><a xlink:title=" ">
<path fill="none" stroke="#63b8ff" d="M1159.43,-341.64C1116.47,-330.56 1063.62,-316.92 1027.33,-307.55"/>
<polygon fill="#63b8ff" stroke="#63b8ff" points="1028.11,-304.14 1017.55,-305.03 1026.36,-310.92 1028.11,-304.14"/>
</a>
</g>
</g>
<!-- Node3 -->
<g id="Node000003" class="node">
<title>Node3</title>
<g id="a_Node000003"><a xlink:href="Path_8h.html" target="_top" xlink:title="Handles Path objects used to uniquely identify and access OIDs.">
<polygon fill="white" stroke="#666666" points="1256,-140 1209,-140 1209,-121 1256,-121 1256,-140"/>
<text text-anchor="middle" x="1232.5" y="-128" font-family="Helvetica,sans-Serif" font-size="10.00">Path.h</text>
</a>
</g>
</g>
<!-- Node1&#45;&gt;Node3 -->
<g id="edge44_Node000001_Node000003" class="edge">
<title>Node1&#45;&gt;Node3</title>
<g id="a_edge44_Node000001_Node000003"><a xlink:title=" ">
<path fill="none" stroke="#63b8ff" d="M1232.5,-340.98C1232.5,-297.58 1232.5,-193.56 1232.5,-150.58"/>
<polygon fill="#63b8ff" stroke="#63b8ff" points="1236,-150.39 1232.5,-140.39 1229,-150.39 1236,-150.39"/>
</a>
</g>
</g>
<!-- Node5 -->
<g id="Node000005" class="node">
<title>Node5</title>
<g id="a_Node000005"><a xlink:title=" ">
<polygon fill="#e0e0e0" stroke="#999999" points="551.5,-24.5 507.5,-24.5 507.5,-5.5 551.5,-5.5 551.5,-24.5"/>
<text text-anchor="middle" x="529.5" y="-12.5" font-family="Helvetica,sans-Serif" font-size="10.00">string</text>
</a>
</g>
</g>
<!-- Node1&#45;&gt;Node5 -->
<g id="edge52_Node000001_Node000005" class="edge">
<title>Node1&#45;&gt;Node5</title>
<g id="a_edge52_Node000001_Node000005"><a xlink:title=" ">
<path fill="none" stroke="#63b8ff" d="M1159.25,-359.46C1053.74,-356.51 853.53,-345.53 688.5,-305 614.6,-286.85 529.5,-317.59 529.5,-241.5 529.5,-241.5 529.5,-241.5 529.5,-129.5 529.5,-96.11 529.5,-57.19 529.5,-34.69"/>
<polygon fill="#63b8ff" stroke="#63b8ff" points="533,-34.54 529.5,-24.54 526,-34.54 533,-34.54"/>
</a>
</g>
</g>
<!-- Node6 -->
<g id="Node000006" class="node">
<title>Node6</title>
<g id="a_Node000006"><a xlink:title=" ">
<polygon fill="#e0e0e0" stroke="#999999" points="1535,-85 1488,-85 1488,-66 1535,-66 1535,-85"/>
<text text-anchor="middle" x="1511.5" y="-73" font-family="Helvetica,sans-Serif" font-size="10.00">vector</text>
</a>
</g>
</g>
<!-- Node1&#45;&gt;Node6 -->
<g id="edge53_Node000001_Node000006" class="edge">
<title>Node1&#45;&gt;Node6</title>
<g id="a_edge53_Node000001_Node000006"><a xlink:title=" ">
<path fill="none" stroke="#63b8ff" d="M1244.17,-340.78C1271.13,-296.59 1341.8,-188.23 1424.5,-121 1440.79,-107.76 1461.65,-96.92 1478.86,-89.26"/>
<polygon fill="#63b8ff" stroke="#63b8ff" points="1480.7,-92.28 1488.51,-85.12 1477.95,-85.85 1480.7,-92.28"/>
</a>
</g>
</g>
<!-- Node15 -->
<g id="Node000015" class="node">
<title>Node15</title>
<g id="a_Node000015"><a xlink:title=" ">
<polygon fill="#e0e0e0" stroke="#999999" points="677,-85 558,-85 558,-66 677,-66 677,-85"/>
<text text-anchor="middle" x="617.5" y="-73" font-family="Helvetica,sans-Serif" font-size="10.00">interface/device.pb.h</text>
</a>
</g>
</g>
<!-- Node1&#45;&gt;Node15 -->
<g id="edge51_Node000001_Node000015" class="edge">
<title>Node1&#45;&gt;Node15</title>
<g id="a_edge51_Node000001_Node000015"><a xlink:title=" ">
<path fill="none" stroke="#63b8ff" d="M1159.38,-354.32C993.02,-339.28 600.5,-297.81 600.5,-241.5 600.5,-241.5 600.5,-241.5 600.5,-184.5 600.5,-152.8 607.73,-116.51 612.76,-95.09"/>
<polygon fill="#63b8ff" stroke="#63b8ff" points="616.23,-95.65 615.21,-85.11 609.43,-93.99 616.23,-95.65"/>
</a>
</g>
</g>
<!-- Node16 -->
<g id="Node000016" class="node">
<title>Node16</title>
<g id="a_Node000016"><a xlink:href="IParam_8h.html" target="_top" xlink:title="Interface for parameters.">
<polygon fill="white" stroke="#666666" points="1089,-195 1030,-195 1030,-176 1089,-176 1089,-195"/>
<text text-anchor="middle" x="1059.5" y="-183" font-family="Helvetica,sans-Serif" font-size="10.00">IParam.h</text>
</a>
</g>
</g>
<!-- Node1&#45;&gt;Node16 -->
<g id="edge45_Node000001_Node000016" class="edge">
<title>Node1&#45;&gt;Node16</title>
<g id="a_edge45_Node000001_Node000016"><a xlink:title=" ">
<path fill="none" stroke="#63b8ff" d="M1212.99,-340.88C1178.45,-306.14 1107.19,-234.47 1075.41,-202.5"/>
<polygon fill="#63b8ff" stroke="#63b8ff" points="1077.76,-199.9 1068.22,-195.27 1072.79,-204.83 1077.76,-199.9"/>
</a>
</g>
</g>
<!-- Node20 -->
<g id="Node000020" class="node">
<title>Node20</title>
<g id="a_Node000020"><a xlink:href="Status_8h.html" target="_top" xlink:title="Communicates failure status using gRPC&#39;s codes.">
<polygon fill="white" stroke="#666666" points="1489.5,-140 1433.5,-140 1433.5,-121 1489.5,-121 1489.5,-140"/>
<text text-anchor="middle" x="1461.5" y="-128" font-family="Helvetica,sans-Serif" font-size="10.00">Status.h</text>
</a>
</g>
</g>
<!-- Node1&#45;&gt;Node20 -->
<g id="edge49_Node000001_Node000020" class="edge">
<title>Node1&#45;&gt;Node20</title>
<g id="a_edge49_Node000001_Node000020"><a xlink:title=" ">
<path fill="none" stroke="#63b8ff" d="M1253.72,-340.93C1265.04,-330.39 1279.15,-317.11 1291.5,-305 1349.57,-248.1 1416.58,-178.51 1446.14,-147.61"/>
<polygon fill="#63b8ff" stroke="#63b8ff" points="1448.76,-149.94 1453.13,-140.29 1443.69,-145.1 1448.76,-149.94"/>
</a>
</g>
</g>
<!-- Node32 -->
<g id="Node000032" class="node">
<title>Node32</title>
<g id="a_Node000032"><a xlink:href="ILanguagePack_8h.html" target="_top" xlink:title="Interface for language packs.">
<polygon fill="white" stroke="#666666" points="501.5,-85 403.5,-85 403.5,-66 501.5,-66 501.5,-85"/>
<text text-anchor="middle" x="452.5" y="-73" font-family="Helvetica,sans-Serif" font-size="10.00">ILanguagePack.h</text>
</a>
</g>
</g>
<!-- Node1&#45;&gt;Node32 -->
<g id="edge46_Node000001_Node000032" class="edge">
<title>Node1&#45;&gt;Node32</title>
<g id="a_edge46_Node000001_Node000032"><a xlink:title=" ">
<path fill="none" stroke="#63b8ff" d="M1159.44,-358.42C988,-353.04 570.22,-336.8 515.5,-305 486.03,-287.88 472.5,-275.58 472.5,-241.5 472.5,-241.5 472.5,-241.5 472.5,-184.5 472.5,-152.51 463.91,-116.07 457.99,-94.75"/>
<polygon fill="#63b8ff" stroke="#63b8ff" points="461.34,-93.71 455.2,-85.08 454.61,-95.66 461.34,-93.71"/>
</a>
</g>
</g>
<!-- Node33 -->
<g id="Node000033" class="node">
<title>Node33</title>
<g id="a_Node000033"><a xlink:title=" ">
<polygon fill="#e0e0e0" stroke="#999999" points="1425,-305 1344,-305 1344,-286 1425,-286 1425,-305"/>
<text text-anchor="middle" x="1384.5" y="-293" font-family="Helvetica,sans-Serif" font-size="10.00">vdk/signals.h</text>
</a>
</g>
</g>
<!-- Node1&#45;&gt;Node33 -->
<g id="edge50_Node000001_Node000033" class="edge">
<title>Node1&#45;&gt;Node33</title>
<g id="a_edge50_Node000001_Node000033"><a xlink:title=" ">
<path fill="none" stroke="#63b8ff" d="M1278.93,-340.95C1303.61,-330.56 1333.22,-318.09 1354.8,-309.01"/>
<polygon fill="#63b8ff" stroke="#63b8ff" points="1356.24,-312.2 1364.09,-305.09 1353.52,-305.75 1356.24,-312.2"/>
</a>
</g>
</g>
<!-- Node34 -->
<g id="Node000034" class="node">
<title>Node34</title>
<g id="a_Node000034"><a xlink:title=" ">
<polygon fill="#e0e0e0" stroke="#999999" points="1505.5,-305 1443.5,-305 1443.5,-286 1505.5,-286 1505.5,-305"/>
<text text-anchor="middle" x="1474.5" y="-293" font-family="Helvetica,sans-Serif" font-size="10.00">coroutine</text>
</a>
</g>
</g>
<!-- Node1&#45;&gt;Node34 -->
<g id="edge54_Node000001_Node000034" class="edge">
<title>Node1&#45;&gt;Node34</title>
<g id="a_edge54_Node000001_Node000034"><a xlink:title=" ">
<path fill="none" stroke="#63b8ff" d="M1305.76,-341.12C1347.67,-330.04 1398.68,-316.55 1433.57,-307.32"/>
<polygon fill="#63b8ff" stroke="#63b8ff" points="1434.64,-310.66 1443.41,-304.72 1432.85,-303.89 1434.64,-310.66"/>
</a>
</g>
</g>
<!-- Node35 -->
<g id="Node000035" class="node">
<title>Node35</title>
<g id="a_Node000035"><a xlink:title=" ">
<polygon fill="#e0e0e0" stroke="#999999" points="1571.5,-305 1523.5,-305 1523.5,-286 1571.5,-286 1571.5,-305"/>
<text text-anchor="middle" x="1547.5" y="-293" font-family="Helvetica,sans-Serif" font-size="10.00">mutex</text>
</a>
</g>
</g>
<!-- Node1&#45;&gt;Node35 -->
<g id="edge55_Node000001_Node000035" class="edge">
<title>Node1&#45;&gt;Node35</title>
<g id="a_edge55_Node000001_Node000035"><a xlink:title=" ">
<path fill="none" stroke="#63b8ff" d="M1305.78,-347.28C1360.5,-337.13 1437.33,-322.29 1513.61,-305.1"/>
<polygon fill="#63b8ff" stroke="#63b8ff" points="1514.41,-308.51 1523.39,-302.88 1512.86,-301.68 1514.41,-308.51"/>
</a>
</g>
</g>
<!-- Node2&#45;&gt;Node3 -->
<g id="edge2_Node000002_Node000003" class="edge">
<title>Node2&#45;&gt;Node3</title>
<g id="a_edge2_Node000002_Node000003"><a xlink:title=" ">
<path fill="none" stroke="#63b8ff" d="M998.02,-285.85C1011.95,-276.92 1034.29,-262.55 1053.5,-250 1110.54,-212.73 1177.39,-168.26 1210.96,-145.88"/>
<polygon fill="#63b8ff" stroke="#63b8ff" points="1213.13,-148.64 1219.51,-140.18 1209.25,-142.81 1213.13,-148.64"/>
</a>
</g>
</g>
<!-- Node9 -->
<g id="Node000009" class="node">
<title>Node9</title>
<g id="a_Node000009"><a xlink:href="Enums_8h.html" target="_top" xlink:title="tools for using EnumDecorators.">
<polygon fill="white" stroke="#666666" points="935,-140 876,-140 876,-121 935,-121 935,-140"/>
<text text-anchor="middle" x="905.5" y="-128" font-family="Helvetica,sans-Serif" font-size="10.00">Enums.h</text>
</a>
</g>
</g>
<!-- Node2&#45;&gt;Node9 -->
<g id="edge8_Node000002_Node000009" class="edge">
<title>Node2&#45;&gt;Node9</title>
<g id="a_edge8_Node000002_Node000009"><a xlink:title=" ">
<path fill="none" stroke="#63b8ff" d="M971.26,-285.85C960.08,-277.86 944.49,-264.98 935.5,-250 916.45,-218.27 909.43,-174.78 906.89,-150.28"/>
<polygon fill="#63b8ff" stroke="#63b8ff" points="910.37,-149.84 906,-140.19 903.4,-150.46 910.37,-149.84"/>
</a>
</g>
</g>
<!-- Node2&#45;&gt;Node16 -->
<g id="edge17_Node000002_Node000016" class="edge">
<title>Node2&#45;&gt;Node16</title>
<g id="a_edge17_Node000002_Node000016"><a xlink:title=" ">
<path fill="none" stroke="#63b8ff" d="M996.8,-285.84C1007.68,-277.65 1023.35,-264.49 1033.5,-250 1043.11,-236.28 1050.01,-218.47 1054.27,-205.21"/>
<polygon fill="#63b8ff" stroke="#63b8ff" points="1057.72,-205.91 1057.24,-195.32 1051.01,-203.9 1057.72,-205.91"/>
</a>
</g>
</g>
<!-- Node23 -->
<g id="Node000023" class="node">
<title>Node23</title>
<g id="a_Node000023"><a xlink:href="IParamDescriptor_8h.html" target="_top" xlink:title="Interface class for ParamDescriptor.">
<polygon fill="white" stroke="#666666" points="831,-250 722,-250 722,-231 831,-231 831,-250"/>
<text text-anchor="middle" x="776.5" y="-238" font-family="Helvetica,sans-Serif" font-size="10.00">IParamDescriptor.h</text>
</a>
</g>
</g>
<!-- Node2&#45;&gt;Node23 -->
<g id="edge27_Node000002_Node000023" class="edge">
<title>Node2&#45;&gt;Node23</title>
<g id="a_edge27_Node000002_Node000023"><a xlink:title=" ">
<path fill="none" stroke="#63b8ff" d="M951.08,-285.98C915.56,-276.93 859.23,-262.58 820.2,-252.64"/>
<polygon fill="#63b8ff" stroke="#63b8ff" points="820.74,-249.16 810.18,-250.08 819.01,-255.94 820.74,-249.16"/>
</a>
</g>
</g>
<!-- Node25 -->
<g id="Node000025" class="node">
<title>Node25</title>
<g id="a_Node000025"><a xlink:title=" ">
<polygon fill="#e0e0e0" stroke="#999999" points="694,-140 629,-140 629,-121 694,-121 694,-140"/>
<text text-anchor="middle" x="661.5" y="-128" font-family="Helvetica,sans-Serif" font-size="10.00">functional</text>
</a>
</g>
</g>
<!-- Node2&#45;&gt;Node25 -->
<g id="edge43_Node000002_Node000025" class="edge">
<title>Node2&#45;&gt;Node25</title>
<g id="a_edge43_Node000002_Node000025"><a xlink:title=" ">
<path fill="none" stroke="#63b8ff" d="M938.9,-292.27C870.83,-288.08 746.95,-276.92 712.5,-250 680.69,-225.14 668.39,-176.54 663.9,-149.96"/>
<polygon fill="#63b8ff" stroke="#63b8ff" points="667.36,-149.42 662.42,-140.04 660.43,-150.45 667.36,-149.42"/>
</a>
</g>
</g>
<!-- Node31 -->
<g id="Node000031" class="node">
<title>Node31</title>
<g id="a_Node000031"><a xlink:title=" ">
<polygon fill="#e0e0e0" stroke="#999999" points="1024.5,-250 944.5,-250 944.5,-231 1024.5,-231 1024.5,-250"/>
<text text-anchor="middle" x="984.5" y="-238" font-family="Helvetica,sans-Serif" font-size="10.00">jwt&#45;cpp/jwt.h</text>
</a>
</g>
</g>
<!-- Node2&#45;&gt;Node31 -->
<g id="edge42_Node000002_Node000031" class="edge">
<title>Node2&#45;&gt;Node31</title>
<g id="a_edge42_Node000002_Node000031"><a xlink:title=" ">
<path fill="none" stroke="#63b8ff" d="M984.5,-285.75C984.5,-278.8 984.5,-268.85 984.5,-260.13"/>
<polygon fill="#63b8ff" stroke="#63b8ff" points="988,-260.09 984.5,-250.09 981,-260.09 988,-260.09"/>
</a>
</g>
</g>
<!-- Node4 -->
<g id="Node000004" class="node">
<title>Node4</title>
<g id="a_Node000004"><a xlink:title=" ">
<polygon fill="#e0e0e0" stroke="#999999" points="1323.5,-85 1263.5,-85 1263.5,-66 1323.5,-66 1323.5,-85"/>
<text text-anchor="middle" x="1293.5" y="-73" font-family="Helvetica,sans-Serif" font-size="10.00">iostream</text>
</a>
</g>
</g>
<!-- Node3&#45;&gt;Node4 -->
<g id="edge3_Node000003_Node000004" class="edge">
<title>Node3&#45;&gt;Node4</title>
<g id="a_edge3_Node000003_Node000004"><a xlink:title=" ">
<path fill="none" stroke="#63b8ff" d="M1242.3,-120.98C1251.32,-113.15 1264.91,-101.34 1275.82,-91.86"/>
<polygon fill="#63b8ff" stroke="#63b8ff" points="1278.27,-94.37 1283.52,-85.17 1273.68,-89.09 1278.27,-94.37"/>
</a>
</g>
</g>
<!-- Node3&#45;&gt;Node5 -->
<g id="edge4_Node000003_Node000005" class="edge">
<title>Node3&#45;&gt;Node5</title>
<g id="a_edge4_Node000003_Node000005"><a xlink:title=" ">
<path fill="none" stroke="#63b8ff" d="M1233.21,-120.89C1233.84,-106.92 1232.76,-79.52 1216.5,-66 1168.31,-25.91 715.94,-35.52 653.5,-30 622.34,-27.25 586.89,-23.15 561.9,-20.09"/>
<polygon fill="#63b8ff" stroke="#63b8ff" points="562.22,-16.61 551.87,-18.86 561.36,-23.55 562.22,-16.61"/>
</a>
</g>
</g>
<!-- Node3&#45;&gt;Node6 -->
<g id="edge5_Node000003_Node000006" class="edge">
<title>Node3&#45;&gt;Node6</title>
<g id="a_edge5_Node000003_Node000006"><a xlink:title=" ">
<path fill="none" stroke="#63b8ff" d="M1256.18,-124.02C1260.91,-122.97 1265.86,-121.92 1270.5,-121 1359.47,-103.36 1385.09,-104.61 1477.95,-84.96"/>
<polygon fill="#63b8ff" stroke="#63b8ff" points="1478.72,-88.37 1487.76,-82.86 1477.25,-81.53 1478.72,-88.37"/>
</a>
</g>
</g>
<!-- Node7 -->
<g id="Node000007" class="node">
<title>Node7</title>
<g id="a_Node000007"><a xlink:title=" ">
<polygon fill="#e0e0e0" stroke="#999999" points="1393,-85 1342,-85 1342,-66 1393,-66 1393,-85"/>
<text text-anchor="middle" x="1367.5" y="-73" font-family="Helvetica,sans-Serif" font-size="10.00">variant</text>
</a>
</g>
</g>
<!-- Node3&#45;&gt;Node7 -->
<g id="edge6_Node000003_Node000007" class="edge">
<title>Node3&#45;&gt;Node7</title>
<g id="a_edge6_Node000003_Node000007"><a xlink:title=" ">
<path fill="none" stroke="#63b8ff" d="M1254.19,-120.98C1276.3,-112.3 1310.82,-98.75 1335.95,-88.88"/>
<polygon fill="#63b8ff" stroke="#63b8ff" points="1337.39,-92.08 1345.42,-85.17 1334.83,-85.57 1337.39,-92.08"/>
</a>
</g>
</g>
<!-- Node8 -->
<g id="Node000008" class="node">
<title>Node8</title>
<g id="a_Node000008"><a xlink:title=" ">
<polygon fill="#e0e0e0" stroke="#999999" points="1469.5,-85 1411.5,-85 1411.5,-66 1469.5,-66 1469.5,-85"/>
<text text-anchor="middle" x="1440.5" y="-73" font-family="Helvetica,sans-Serif" font-size="10.00">memory</text>
</a>
</g>
</g>
<!-- Node3&#45;&gt;Node8 -->
<g id="edge7_Node000003_Node000008" class="edge">
<title>Node3&#45;&gt;Node8</title>
<g id="a_edge7_Node000003_Node000008"><a xlink:title=" ">
<path fill="none" stroke="#63b8ff" d="M1256.36,-123.42C1291.83,-114.38 1358.84,-97.31 1401.5,-86.44"/>
<polygon fill="#63b8ff" stroke="#63b8ff" points="1402.43,-89.81 1411.26,-83.95 1400.71,-83.03 1402.43,-89.81"/>
</a>
</g>
</g>
<!-- Node10 -->
<g id="Node000010" class="node">
<title>Node10</title>
<g id="a_Node000010"><a xlink:href="EnumDecorator_8h.html" target="_top" xlink:title="Provides an enum with useful extra functionality.">
<polygon fill="white" stroke="#666666" points="877.5,-85 733.5,-85 733.5,-66 877.5,-66 877.5,-85"/>
<text text-anchor="middle" x="805.5" y="-73" font-family="Helvetica,sans-Serif" font-size="10.00">patterns/EnumDecorator.h</text>
</a>
</g>
</g>
<!-- Node9&#45;&gt;Node10 -->
<g id="edge9_Node000009_Node000010" class="edge">
<title>Node9&#45;&gt;Node10</title>
<g id="a_edge9_Node000009_Node000010"><a xlink:title=" ">
<path fill="none" stroke="#63b8ff" d="M889.43,-120.98C873.64,-112.61 849.28,-99.7 830.87,-89.95"/>
<polygon fill="#63b8ff" stroke="#63b8ff" points="832.33,-86.76 821.86,-85.17 829.06,-92.95 832.33,-86.76"/>
</a>
</g>
</g>
<!-- Node12 -->
<g id="Node000012" class="node">
<title>Node12</title>
<g id="a_Node000012"><a xlink:title=" ">
<polygon fill="#e0e0e0" stroke="#999999" points="929.5,-24.5 879.5,-24.5 879.5,-5.5 929.5,-5.5 929.5,-24.5"/>
<text text-anchor="middle" x="904.5" y="-12.5" font-family="Helvetica,sans-Serif" font-size="10.00">cstdint</text>
</a>
</g>
</g>
<!-- Node9&#45;&gt;Node12 -->
<g id="edge16_Node000009_Node000012" class="edge">
<title>Node9&#45;&gt;Node12</title>
<g id="a_edge16_Node000009_Node000012"><a xlink:title=" ">
<path fill="none" stroke="#63b8ff" d="M905.42,-120.97C905.26,-102.73 904.88,-59.57 904.66,-34.64"/>
<polygon fill="#63b8ff" stroke="#63b8ff" points="908.16,-34.6 904.58,-24.63 901.16,-34.66 908.16,-34.6"/>
</a>
</g>
</g>
<!-- Node9&#45;&gt;Node15 -->
<g id="edge15_Node000009_Node000015" class="edge">
<title>Node9&#45;&gt;Node15</title>
<g id="a_edge15_Node000009_Node000015"><a xlink:title=" ">
<path fill="none" stroke="#63b8ff" d="M875.76,-124.03C828.28,-115.29 734.54,-98.04 674.01,-86.9"/>
<polygon fill="#63b8ff" stroke="#63b8ff" points="674.32,-83.4 663.85,-85.03 673.05,-90.28 674.32,-83.4"/>
</a>
</g>
</g>
<!-- Node10&#45;&gt;Node5 -->
<g id="edge13_Node000010_Node000005" class="edge">
<title>Node10&#45;&gt;Node5</title>
<g id="a_edge13_Node000010_Node000005"><a xlink:title=" ">
<path fill="none" stroke="#63b8ff" d="M765.37,-65.99C710.23,-54.31 612.16,-33.52 561.6,-22.8"/>
<polygon fill="#63b8ff" stroke="#63b8ff" points="562.08,-19.33 551.57,-20.68 560.63,-26.18 562.08,-19.33"/>
</a>
</g>
</g>
<!-- Node11 -->
<g id="Node000011" class="node">
<title>Node11</title>
<g id="a_Node000011"><a xlink:href="ReflectionMacros_8h.html" target="_top" xlink:title="adapted from https://github.com/tapika/TestCppReflect">
<polygon fill="white" stroke="#666666" points="860.5,-24.5 750.5,-24.5 750.5,-5.5 860.5,-5.5 860.5,-24.5"/>
<text text-anchor="middle" x="805.5" y="-12.5" font-family="Helvetica,sans-Serif" font-size="10.00">ReflectionMacros.h</text>
</a>
</g>
</g>
<!-- Node10&#45;&gt;Node11 -->
<g id="edge10_Node000010_Node000011" class="edge">
<title>Node10&#45;&gt;Node11</title>
<g id="a_edge10_Node000010_Node000011"><a xlink:title=" ">
<path fill="none" stroke="#63b8ff" d="M805.5,-65.87C805.5,-57.75 805.5,-45.31 805.5,-34.89"/>
<polygon fill="#63b8ff" stroke="#63b8ff" points="809,-34.67 805.5,-24.67 802,-34.67 809,-34.67"/>
</a>
</g>
</g>
<!-- Node10&#45;&gt;Node12 -->
<g id="edge11_Node000010_Node000012" class="edge">
<title>Node10&#45;&gt;Node12</title>
<g id="a_edge11_Node000010_Node000012"><a xlink:title=" ">
<path fill="none" stroke="#63b8ff" d="M820.11,-65.87C836.19,-56.36 862.28,-40.95 881.2,-29.77"/>
<polygon fill="#63b8ff" stroke="#63b8ff" points="883,-32.77 889.83,-24.67 879.44,-26.74 883,-32.77"/>
</a>
</g>
</g>
<!-- Node13 -->
<g id="Node000013" class="node">
<title>Node13</title>
<g id="a_Node000013"><a xlink:title=" ">
<polygon fill="#e0e0e0" stroke="#999999" points="421,-24.5 328,-24.5 328,-5.5 421,-5.5 421,-24.5"/>
<text text-anchor="middle" x="374.5" y="-12.5" font-family="Helvetica,sans-Serif" font-size="10.00">unordered_map</text>
</a>
</g>
</g>
<!-- Node10&#45;&gt;Node13 -->
<g id="edge12_Node000010_Node000013" class="edge">
<title>Node10&#45;&gt;Node13</title>
<g id="a_edge12_Node000010_Node000013"><a xlink:title=" ">
<path fill="none" stroke="#63b8ff" d="M742.83,-65.99C658.98,-54.61 511.54,-34.6 430.97,-23.66"/>
<polygon fill="#63b8ff" stroke="#63b8ff" points="431.39,-20.19 421.01,-22.31 430.45,-27.13 431.39,-20.19"/>
</a>
</g>
</g>
<!-- Node14 -->
<g id="Node000014" class="node">
<title>Node14</title>
<g id="a_Node000014"><a xlink:title=" ">
<polygon fill="#e0e0e0" stroke="#999999" points="732,-24.5 663,-24.5 663,-5.5 732,-5.5 732,-24.5"/>
<text text-anchor="middle" x="697.5" y="-12.5" font-family="Helvetica,sans-Serif" font-size="10.00">type_traits</text>
</a>
</g>
</g>
<!-- Node10&#45;&gt;Node14 -->
<g id="edge14_Node000010_Node000014" class="edge">
<title>Node10&#45;&gt;Node14</title>
<g id="a_edge14_Node000010_Node000014"><a xlink:title=" ">
<path fill="none" stroke="#63b8ff" d="M789.56,-65.87C771.86,-56.28 743.04,-40.67 722.36,-29.47"/>
<polygon fill="#63b8ff" stroke="#63b8ff" points="723.96,-26.35 713.5,-24.67 720.63,-32.51 723.96,-26.35"/>
</a>
</g>
</g>
<!-- Node16&#45;&gt;Node3 -->
<g id="edge22_Node000016_Node000003" class="edge">
<title>Node16&#45;&gt;Node3</title>
<g id="a_edge22_Node000016_Node000003"><a xlink:title=" ">
<path fill="none" stroke="#63b8ff" d="M1087.3,-175.98C1117.72,-166.66 1166.49,-151.72 1199,-141.76"/>
<polygon fill="#63b8ff" stroke="#63b8ff" points="1200.41,-144.99 1208.94,-138.72 1198.36,-138.3 1200.41,-144.99"/>
</a>
</g>
</g>
<!-- Node16&#45;&gt;Node9 -->
<g id="edge18_Node000016_Node000009" class="edge">
<title>Node16&#45;&gt;Node9</title>
<g id="a_edge18_Node000016_Node000009"><a xlink:title=" ">
<path fill="none" stroke="#63b8ff" d="M1034.76,-175.98C1009.13,-167.16 968.87,-153.31 940.09,-143.41"/>
<polygon fill="#63b8ff" stroke="#63b8ff" points="941.03,-140.03 930.44,-140.08 938.75,-146.65 941.03,-140.03"/>
</a>
</g>
</g>
<!-- Node17 -->
<g id="Node000017" class="node">
<title>Node17</title>
<g id="a_Node000017"><a xlink:href="IConstraint_8h.html" target="_top" xlink:title="Interface for constraints.">
<polygon fill="white" stroke="#666666" points="1101,-140 1022,-140 1022,-121 1101,-121 1101,-140"/>
<text text-anchor="middle" x="1061.5" y="-128" font-family="Helvetica,sans-Serif" font-size="10.00">IConstraint.h</text>
</a>
</g>
</g>
<!-- Node16&#45;&gt;Node17 -->
<g id="edge19_Node000016_Node000017" class="edge">
<title>Node16&#45;&gt;Node17</title>
<g id="a_edge19_Node000016_Node000017"><a xlink:title=" ">
<path fill="none" stroke="#63b8ff" d="M1059.83,-175.75C1060.09,-168.8 1060.47,-158.85 1060.8,-150.13"/>
<polygon fill="#63b8ff" stroke="#63b8ff" points="1064.3,-150.21 1061.18,-140.09 1057.3,-149.95 1064.3,-150.21"/>
</a>
</g>
</g>
<!-- Node18 -->
<g id="Node000018" class="node">
<title>Node18</title>
<g id="a_Node000018"><a xlink:title=" ">
<polygon fill="#e0e0e0" stroke="#999999" points="1053,-85 934,-85 934,-66 1053,-66 1053,-85"/>
<text text-anchor="middle" x="993.5" y="-73" font-family="Helvetica,sans-Serif" font-size="10.00">interface/param.pb.h</text>
</a>
</g>
</g>
<!-- Node16&#45;&gt;Node18 -->
<g id="edge26_Node000016_Node000018" class="edge">
<title>Node16&#45;&gt;Node18</title>
<g id="a_edge26_Node000016_Node000018"><a xlink:title=" ">
<path fill="none" stroke="#63b8ff" d="M1047.38,-175.95C1036.74,-167.85 1021.57,-154.74 1012.5,-140 1004.02,-126.22 999.12,-108.42 996.43,-95.17"/>
<polygon fill="#63b8ff" stroke="#63b8ff" points="999.87,-94.53 994.66,-85.3 992.98,-95.76 999.87,-94.53"/>
</a>
</g>
</g>
<!-- Node16&#45;&gt;Node20 -->
<g id="edge23_Node000016_Node000020" class="edge">
<title>Node16&#45;&gt;Node20</title>
<g id="a_edge23_Node000016_Node000020"><a xlink:title=" ">
<path fill="none" stroke="#63b8ff" d="M1089.06,-180.6C1160.64,-171.17 1343.26,-147.09 1423.13,-136.56"/>
<polygon fill="#63b8ff" stroke="#63b8ff" points="1423.79,-140 1433.24,-135.23 1422.87,-133.06 1423.79,-140"/>
</a>
</g>
</g>
<!-- Node17&#45;&gt;Node18 -->
<g id="edge20_Node000017_Node000018" class="edge">
<title>Node17&#45;&gt;Node18</title>
<g id="a_edge20_Node000017_Node000018"><a xlink:title=" ">
<path fill="none" stroke="#63b8ff" d="M1050.57,-120.98C1040.42,-113.07 1025.08,-101.11 1012.85,-91.58"/>
<polygon fill="#63b8ff" stroke="#63b8ff" points="1014.66,-88.56 1004.62,-85.17 1010.36,-94.08 1014.66,-88.56"/>
</a>
</g>
</g>
<!-- Node19 -->
<g id="Node000019" class="node">
<title>Node19</title>
<g id="a_Node000019"><a xlink:title=" ">
<polygon fill="#e0e0e0" stroke="#999999" points="1207.5,-85 1071.5,-85 1071.5,-66 1207.5,-66 1207.5,-85"/>
<text text-anchor="middle" x="1139.5" y="-73" font-family="Helvetica,sans-Serif" font-size="10.00">interface/constraint.pb.h</text>
</a>
</g>
</g>
<!-- Node17&#45;&gt;Node19 -->
<g id="edge21_Node000017_Node000019" class="edge">
<title>Node17&#45;&gt;Node19</title>
<g id="a_edge21_Node000017_Node000019"><a xlink:title=" ">
<path fill="none" stroke="#63b8ff" d="M1074.03,-120.98C1085.9,-112.92 1103.96,-100.65 1118.11,-91.03"/>
<polygon fill="#63b8ff" stroke="#63b8ff" points="1120.44,-93.69 1126.74,-85.17 1116.5,-87.9 1120.44,-93.69"/>
</a>
</g>
</g>
<!-- Node21 -->
<g id="Node000021" class="node">
<title>Node21</title>
<g id="a_Node000021"><a xlink:title=" ">
<polygon fill="#e0e0e0" stroke="#999999" points="1609.5,-85 1553.5,-85 1553.5,-66 1609.5,-66 1609.5,-85"/>
<text text-anchor="middle" x="1581.5" y="-73" font-family="Helvetica,sans-Serif" font-size="10.00">sstream</text>
</a>
</g>
</g>
<!-- Node20&#45;&gt;Node21 -->
<g id="edge24_Node000020_Node000021" class="edge">
<title>Node20&#45;&gt;Node21</title>
<g id="a_edge24_Node000020_Node000021"><a xlink:title=" ">
<path fill="none" stroke="#63b8ff" d="M1480.78,-120.98C1500.17,-112.42 1530.31,-99.11 1552.57,-89.28"/>
<polygon fill="#63b8ff" stroke="#63b8ff" points="1554.14,-92.41 1561.87,-85.17 1551.31,-86.01 1554.14,-92.41"/>
</a>
</g>
</g>
<!-- Node22 -->
<g id="Node000022" class="node">
<title>Node22</title>
<g id="a_Node000022"><a xlink:title=" ">
<polygon fill="#e0e0e0" stroke="#999999" points="1693,-85 1628,-85 1628,-66 1693,-66 1693,-85"/>
<text text-anchor="middle" x="1660.5" y="-73" font-family="Helvetica,sans-Serif" font-size="10.00">stdexcept</text>
</a>
</g>
</g>
<!-- Node20&#45;&gt;Node22 -->
<g id="edge25_Node000020_Node000022" class="edge">
<title>Node20&#45;&gt;Node22</title>
<g id="a_edge25_Node000020_Node000022"><a xlink:title=" ">
<path fill="none" stroke="#63b8ff" d="M1489.59,-122.02C1523.13,-113.09 1579.54,-98.06 1618.32,-87.73"/>
<polygon fill="#63b8ff" stroke="#63b8ff" points="1619.5,-91.04 1628.27,-85.08 1617.7,-84.28 1619.5,-91.04"/>
</a>
</g>
</g>
<!-- Node23&#45;&gt;Node16 -->
<g id="edge31_Node000023_Node000016" class="edge">
<title>Node23&#45;&gt;Node16</title>
<g id="a_edge31_Node000023_Node000016"><a xlink:title=" ">
<path fill="none" stroke="#63b8ff" d="M821.97,-230.98C876.75,-220.72 967.9,-203.66 1019.91,-193.91"/>
<polygon fill="#63b8ff" stroke="#63b8ff" points="1020.58,-197.35 1029.77,-192.07 1019.3,-190.47 1020.58,-197.35"/>
</a>
</g>
</g>
<!-- Node24 -->
<g id="Node000024" class="node">
<title>Node24</title>
<g id="a_Node000024"><a xlink:href="Tags_8h.html" target="_top" xlink:title="Tags to differentiate collections with the same type for template specialization.">
<polygon fill="white" stroke="#666666" points="746,-195 699,-195 699,-176 746,-176 746,-195"/>
<text text-anchor="middle" x="722.5" y="-183" font-family="Helvetica,sans-Serif" font-size="10.00">Tags.h</text>
</a>
</g>
</g>
<!-- Node23&#45;&gt;Node24 -->
<g id="edge28_Node000023_Node000024" class="edge">
<title>Node23&#45;&gt;Node24</title>
<g id="a_edge28_Node000023_Node000024"><a xlink:title=" ">
<path fill="none" stroke="#63b8ff" d="M767.58,-230.75C759.72,-223.03 748.07,-211.6 738.58,-202.28"/>
<polygon fill="#63b8ff" stroke="#63b8ff" points="740.84,-199.6 731.25,-195.09 735.94,-204.59 740.84,-199.6"/>
</a>
</g>
</g>
<!-- Node26 -->
<g id="Node000026" class="node">
<title>Node26</title>
<g id="a_Node000026"><a xlink:href="PolyglotText_8h.html" target="_top" xlink:title="Polyglot Text serialization and deserialization to protobuf.">
<polygon fill="white" stroke="#666666" points="277.5,-140 191.5,-140 191.5,-121 277.5,-121 277.5,-140"/>
<text text-anchor="middle" x="234.5" y="-128" font-family="Helvetica,sans-Serif" font-size="10.00">PolyglotText.h</text>
</a>
</g>
</g>
<!-- Node23&#45;&gt;Node26 -->
<g id="edge32_Node000023_Node000026" class="edge">
<title>Node23&#45;&gt;Node26</title>
<g id="a_edge32_Node000023_Node000026"><a xlink:title=" ">
<path fill="none" stroke="#63b8ff" d="M733.52,-230.94C635.28,-211.36 394.57,-163.4 287.43,-142.05"/>
<polygon fill="#63b8ff" stroke="#63b8ff" points="287.98,-138.59 277.49,-140.07 286.61,-145.45 287.98,-138.59"/>
</a>
</g>
</g>
<!-- Node24&#45;&gt;Node5 -->
<g id="edge30_Node000024_Node000005" class="edge">
<title>Node24&#45;&gt;Node5</title>
<g id="a_edge30_Node000024_Node000005"><a xlink:title=" ">
<path fill="none" stroke="#63b8ff" d="M722.39,-176C721.63,-154.48 716.62,-97.36 685.5,-66 652.36,-32.61 596.93,-21.5 561.84,-17.81"/>
<polygon fill="#63b8ff" stroke="#63b8ff" points="561.93,-14.3 551.65,-16.89 561.3,-21.28 561.93,-14.3"/>
</a>
</g>
</g>
<!-- Node24&#45;&gt;Node25 -->
<g id="edge29_Node000024_Node000025" class="edge">
<title>Node24&#45;&gt;Node25</title>
<g id="a_edge29_Node000024_Node000025"><a xlink:title=" ">
<path fill="none" stroke="#63b8ff" d="M712.7,-175.98C703.68,-168.15 690.09,-156.34 679.18,-146.86"/>
<polygon fill="#63b8ff" stroke="#63b8ff" points="681.32,-144.09 671.48,-140.17 676.73,-149.37 681.32,-144.09"/>
</a>
</g>
</g>
<!-- Node26&#45;&gt;Node5 -->
<g id="edge39_Node000026_Node000005" class="edge">
<title>Node26&#45;&gt;Node5</title>
<g id="a_edge39_Node000026_Node000005"><a xlink:title=" ">
<path fill="none" stroke="#63b8ff" d="M260.54,-120.96C285.47,-112.57 323.99,-99 356.5,-85 373.84,-77.53 377.18,-73.51 394.5,-66 429.22,-50.94 470.09,-36.21 497.69,-26.68"/>
<polygon fill="#63b8ff" stroke="#63b8ff" points="498.9,-29.97 507.23,-23.41 496.63,-23.34 498.9,-29.97"/>
</a>
</g>
</g>
<!-- Node26&#45;&gt;Node13 -->
<g id="edge40_Node000026_Node000013" class="edge">
<title>Node26&#45;&gt;Node13</title>
<g id="a_edge40_Node000026_Node000013"><a xlink:title=" ">
<path fill="none" stroke="#63b8ff" d="M225.13,-120.63C212.64,-107.72 193.54,-83.39 206.5,-66 220.04,-47.84 274.67,-33.89 318,-25.39"/>
<polygon fill="#63b8ff" stroke="#63b8ff" points="318.73,-28.82 327.9,-23.51 317.42,-21.94 318.73,-28.82"/>
</a>
</g>
</g>
<!-- Node27 -->
<g id="Node000027" class="node">
<title>Node27</title>
<g id="a_Node000027"><a xlink:href="IPolyglotText_8h.html" target="_top" xlink:title="Catena&#39;s multi&#45;language text interface.">
<polygon fill="white" stroke="#666666" points="159,-85 70,-85 70,-66 159,-66 159,-85"/>
<text text-anchor="middle" x="114.5" y="-73" font-family="Helvetica,sans-Serif" font-size="10.00">IPolyglotText.h</text>
</a>
</g>
</g>
<!-- Node26&#45;&gt;Node27 -->
<g id="edge33_Node000026_Node000027" class="edge">
<title>Node26&#45;&gt;Node27</title>
<g id="a_edge33_Node000026_Node000027"><a xlink:title=" ">
<path fill="none" stroke="#63b8ff" d="M215.22,-120.98C195.83,-112.42 165.69,-99.11 143.43,-89.28"/>
<polygon fill="#63b8ff" stroke="#63b8ff" points="144.69,-86.01 134.13,-85.17 141.86,-92.41 144.69,-86.01"/>
</a>
</g>
</g>
<!-- Node29 -->
<g id="Node000029" class="node">
<title>Node29</title>
<g id="a_Node000029"><a xlink:title=" ">
<polygon fill="#e0e0e0" stroke="#999999" points="83,-24.5 0,-24.5 0,-5.5 83,-5.5 83,-24.5"/>
<text text-anchor="middle" x="41.5" y="-12.5" font-family="Helvetica,sans-Serif" font-size="10.00">initializer_list</text>
</a>
</g>
</g>
<!-- Node26&#45;&gt;Node29 -->
<g id="edge41_Node000026_Node000029" class="edge">
<title>Node26&#45;&gt;Node29</title>
<g id="a_edge41_Node000026_Node000029"><a xlink:title=" ">
<path fill="none" stroke="#63b8ff" d="M191.48,-130.03C152.23,-128.15 95.21,-119.08 60.5,-85 47.09,-71.83 42.89,-50.13 41.7,-34.58"/>
<polygon fill="#63b8ff" stroke="#63b8ff" points="45.2,-34.4 41.28,-24.55 38.21,-34.69 45.2,-34.4"/>
</a>
</g>
</g>
<!-- Node30 -->
<g id="Node000030" class="node">
<title>Node30</title>
<g id="a_Node000030"><a xlink:title=" ">
<polygon fill="#e0e0e0" stroke="#999999" points="347.5,-85 215.5,-85 215.5,-66 347.5,-66 347.5,-85"/>
<text text-anchor="middle" x="281.5" y="-73" font-family="Helvetica,sans-Serif" font-size="10.00">interface/language.pb.h</text>
</a>
</g>
</g>
<!-- Node26&#45;&gt;Node30 -->
<g id="edge38_Node000026_Node000030" class="edge">
<title>Node26&#45;&gt;Node30</title>
<g id="a_edge38_Node000026_Node000030"><a xlink:title=" ">
<path fill="none" stroke="#63b8ff" d="M242.26,-120.75C248.97,-113.18 258.84,-102.05 267.01,-92.84"/>
<polygon fill="#63b8ff" stroke="#63b8ff" points="269.87,-94.89 273.88,-85.09 264.63,-90.25 269.87,-94.89"/>
</a>
</g>
</g>
<!-- Node27&#45;&gt;Node5 -->
<g id="edge36_Node000027_Node000005" class="edge">
<title>Node27&#45;&gt;Node5</title>
<g id="a_edge36_Node000027_Node000005"><a xlink:title=" ">
<path fill="none" stroke="#63b8ff" d="M159.31,-68.18C243.61,-56.3 423.92,-30.88 497.37,-20.53"/>
<polygon fill="#63b8ff" stroke="#63b8ff" points="497.99,-23.98 507.4,-19.11 497.01,-17.04 497.99,-23.98"/>
</a>
</g>
</g>
<!-- Node27&#45;&gt;Node13 -->
<g id="edge35_Node000027_Node000013" class="edge">
<title>Node27&#45;&gt;Node13</title>
<g id="a_edge35_Node000027_Node000013"><a xlink:title=" ">
<path fill="none" stroke="#63b8ff" d="M152.31,-65.99C198.42,-55.62 276.43,-38.07 326.68,-26.76"/>
<polygon fill="#63b8ff" stroke="#63b8ff" points="327.66,-30.13 336.65,-24.52 326.12,-23.3 327.66,-30.13"/>
</a>
</g>
</g>
<!-- Node28 -->
<g id="Node000028" class="node">
<title>Node28</title>
<g id="a_Node000028"><a xlink:title=" ">
<polygon fill="#e0e0e0" stroke="#999999" points="242,-30 101,-30 101,0 242,0 242,-30"/>
<text text-anchor="start" x="109" y="-18" font-family="Helvetica,sans-Serif" font-size="10.00">google/protobuf/message</text>
<text text-anchor="middle" x="171.5" y="-7" font-family="Helvetica,sans-Serif" font-size="10.00">_lite.h</text>
</a>
</g>
</g>
<!-- Node27&#45;&gt;Node28 -->
<g id="edge34_Node000027_Node000028" class="edge">
<title>Node27&#45;&gt;Node28</title>
<g id="a_edge34_Node000027_Node000028"><a xlink:title=" ">
<path fill="none" stroke="#63b8ff" d="M122.91,-65.87C130.22,-58.37 141.1,-47.2 150.72,-37.33"/>
<polygon fill="#63b8ff" stroke="#63b8ff" points="153.28,-39.72 157.75,-30.11 148.26,-34.83 153.28,-39.72"/>
</a>
</g>
</g>
<!-- Node27&#45;&gt;Node29 -->
<g id="edge37_Node000027_Node000029" class="edge">
<title>Node27&#45;&gt;Node29</title>
<g id="a_edge37_Node000027_Node000029"><a xlink:title=" ">
<path fill="none" stroke="#63b8ff" d="M103.73,-65.87C92.3,-56.71 74.02,-42.06 60.22,-31.01"/>
<polygon fill="#63b8ff" stroke="#63b8ff" points="62.31,-28.19 52.32,-24.67 57.93,-33.65 62.31,-28.19"/>
</a>
</g>
</g>
<!-- Node32&#45;&gt;Node5 -->
<g id="edge47_Node000032_Node000005" class="edge">
<title>Node32&#45;&gt;Node5</title>
<g id="a_edge47_Node000032_Node000005"><a xlink:title=" ">
<path fill="none" stroke="#63b8ff" d="M463.86,-65.87C475.92,-56.71 495.2,-42.06 509.75,-31.01"/>
<polygon fill="#63b8ff" stroke="#63b8ff" points="512.25,-33.5 518.09,-24.67 508.01,-27.93 512.25,-33.5"/>
</a>
</g>
</g>
<!-- Node32&#45;&gt;Node13 -->
<g id="edge48_Node000032_Node000013" class="edge">
<title>Node32&#45;&gt;Node13</title>
<g id="a_edge48_Node000032_Node000013"><a xlink:title=" ">
<path fill="none" stroke="#63b8ff" d="M440.99,-65.87C428.66,-56.62 408.88,-41.78 394.09,-30.69"/>
<polygon fill="#63b8ff" stroke="#63b8ff" points="396.16,-27.87 386.06,-24.67 391.96,-33.47 396.16,-27.87"/>
</a>
</g>
</g>
</g>
</svg>
