<?xml version="1.0" encoding="UTF-8" standalone="no"?>
<!DOCTYPE svg PUBLIC "-//W3C//DTD SVG 1.1//EN"
 "http://www.w3.org/Graphics/SVG/1.1/DTD/svg11.dtd">
<!-- Generated by graphviz version 2.43.0 (0)
 -->
<!-- Title: /home/runner/work/Catena/Catena/sdks/cpp/common/include/ILanguagePack.h Pages: 1 -->
<!--zoomable 588 -->

<svg id="main" version="1.1" xmlns="http://www.w3.org/2000/svg" xmlns:xlink="http://www.w3.org/1999/xlink" xml:space="preserve" onload="init(evt)">
<style type="text/css"><![CDATA[
.node, .edge {opacity: 0.7;}
.node.selected, .edge.selected {opacity: 1;}
.edge:hover path { stroke: red; }
.edge:hover polygon { stroke: red; fill: red; }
]]></style>

<defs>
  <circle id="rim" cx="0" cy="0" r="7"/>
  <circle id="rim2" cx="0" cy="0" r="3.5"/>
  <g id="zoomPlus">
    <use xlink:href="#rim" fill="#404040"><set attributeName="fill" to="#808080" begin="zoomplus.mouseover" end="zoomplus.mouseout"/></use>
    <path d="M-4,0h8M0,-4v8" fill="none" stroke="white" stroke-width="1.5" pointer-events="none"/>
  </g>
  <g id="zoomMin">
    <use xlink:href="#rim" fill="#404040"><set attributeName="fill" to="#808080" begin="zoomminus.mouseover" end="zoomminus.mouseout"/></use>
    <path d="M-4,0h8" fill="none" stroke="white" stroke-width="1.5" pointer-events="none"/>
  </g>
  <g id="arrowUp" transform="translate(30 24)">
    <use xlink:href="#rim"/>
    <path pointer-events="none" fill="none" stroke="white" stroke-width="1.5" d="M0,-3.0v7 M-2.5,-0.5L0,-3.0L2.5,-0.5"/>
  </g>
  <g id="arrowRight" transform="rotate(90) translate(36 -43)">
    <use xlink:href="#rim"/>
    <path pointer-events="none" fill="none" stroke="white" stroke-width="1.5" d="M0,-3.0v7 M-2.5,-0.5L0,-3.0L2.5,-0.5"/>
  </g>
  <g id="arrowDown" transform="rotate(180) translate(-30 -48)">
    <use xlink:href="#rim"/>
    <path pointer-events="none" fill="none" stroke="white" stroke-width="1.5" d="M0,-3.0v7 M-2.5,-0.5L0,-3.0L2.5,-0.5"/>
  </g>
  <g id="arrowLeft" transform="rotate(270) translate(-36 17)">
    <use xlink:href="#rim"/>
    <path pointer-events="none" fill="none" stroke="white" stroke-width="1.5" d="M0,-3.0v7 M-2.5,-0.5L0,-3.0L2.5,-0.5"/>
  </g>
  <g id="resetDef">
    <use xlink:href="#rim2" fill="#404040"><set attributeName="fill" to="#808080" begin="reset.mouseover" end="reset.mouseout"/></use>
  </g>
</defs>
<script type="application/ecmascript">
var viewWidth = 2594;
var viewHeight = 588;
var sectionId = 'dynsection-1';
</script>
<script type="application/ecmascript" xlink:href="svg.min.js"/>
<svg id="graph" class="graph">
<g id="viewport">
<title>/home/runner/work/Catena/Catena/sdks/cpp/common/include/ILanguagePack.h</title>
<!-- Node1 -->
<g id="Node000001" class="node">
<title>Node1</title>
<g id="a_Node000001"><a xlink:title="Interface for language packs.">
<polygon fill="#999999" stroke="#666666" points="809.5,-580 663.5,-580 663.5,-539 809.5,-539 809.5,-580"/>
<text text-anchor="start" x="671.5" y="-568" font-family="Helvetica,sans-Serif" font-size="10.00">/home/runner/work/Catena</text>
<text text-anchor="start" x="671.5" y="-557" font-family="Helvetica,sans-Serif" font-size="10.00">/Catena/sdks/cpp/common</text>
<text text-anchor="middle" x="736.5" y="-546" font-family="Helvetica,sans-Serif" font-size="10.00">/include/ILanguagePack.h</text>
</a>
</g>
</g>
<!-- Node2 -->
<g id="Node000002" class="node">
<title>Node2</title>
<g id="a_Node000002"><a xlink:href="Device_8h.html" target="_top" xlink:title="Device class definition.">
<polygon fill="white" stroke="#666666" points="1062.5,-503 916.5,-503 916.5,-462 1062.5,-462 1062.5,-503"/>
<text text-anchor="start" x="924.5" y="-491" font-family="Helvetica,sans-Serif" font-size="10.00">/home/runner/work/Catena</text>
<text text-anchor="start" x="924.5" y="-480" font-family="Helvetica,sans-Serif" font-size="10.00">/Catena/sdks/cpp/common</text>
<text text-anchor="middle" x="989.5" y="-469" font-family="Helvetica,sans-Serif" font-size="10.00">/include/Device.h</text>
</a>
</g>
</g>
<!-- Node1&#45;&gt;Node2 -->
<g id="edge1_Node000001_Node000002" class="edge">
<title>Node1&#45;&gt;Node2</title>
<g id="a_edge1_Node000001_Node000002"><a xlink:title=" ">
<path fill="none" stroke="#63b8ff" d="M812.13,-536.08C847.58,-525.57 889.44,-513.16 923.58,-503.04"/>
<polygon fill="#63b8ff" stroke="#63b8ff" points="810.91,-532.79 802.31,-538.99 812.89,-539.5 810.91,-532.79"/>
</a>
</g>
</g>
<!-- Node21 -->
<g id="Node000021" class="node">
<title>Node21</title>
<g id="a_Node000021"><a xlink:href="LanguagePack_8h.html" target="_top" xlink:title="multi language support in 2 classes: LanguagePack and LanguagePacks">
<polygon fill="white" stroke="#666666" points="497.5,-426 351.5,-426 351.5,-385 497.5,-385 497.5,-426"/>
<text text-anchor="start" x="359.5" y="-414" font-family="Helvetica,sans-Serif" font-size="10.00">/home/runner/work/Catena</text>
<text text-anchor="start" x="359.5" y="-403" font-family="Helvetica,sans-Serif" font-size="10.00">/Catena/sdks/cpp/common</text>
<text text-anchor="middle" x="424.5" y="-392" font-family="Helvetica,sans-Serif" font-size="10.00">/include/LanguagePack.h</text>
</a>
</g>
</g>
<!-- Node1&#45;&gt;Node21 -->
<g id="edge44_Node000001_Node000021" class="edge">
<title>Node1&#45;&gt;Node21</title>
<g id="a_edge44_Node000001_Node000021"><a xlink:title=" ">
<path fill="none" stroke="#63b8ff" d="M687.24,-534.5C625.82,-504.58 522,-454 464.99,-426.23"/>
<polygon fill="#63b8ff" stroke="#63b8ff" points="685.83,-537.71 696.35,-538.94 688.89,-531.41 685.83,-537.71"/>
</a>
</g>
</g>
<!-- Node3 -->
<g id="Node000003" class="node">
<title>Node3</title>
<g id="a_Node000003"><a xlink:href="IParamVisitor_8h.html" target="_top" xlink:title="Implements Catena IParamVisitor.">
<polygon fill="white" stroke="#666666" points="699.5,-426 553.5,-426 553.5,-385 699.5,-385 699.5,-426"/>
<text text-anchor="start" x="561.5" y="-414" font-family="Helvetica,sans-Serif" font-size="10.00">/home/runner/work/Catena</text>
<text text-anchor="start" x="561.5" y="-403" font-family="Helvetica,sans-Serif" font-size="10.00">/Catena/sdks/cpp/common</text>
<text text-anchor="middle" x="626.5" y="-392" font-family="Helvetica,sans-Serif" font-size="10.00">/include/IParamVisitor.h</text>
</a>
</g>
</g>
<!-- Node2&#45;&gt;Node3 -->
<g id="edge2_Node000002_Node000003" class="edge">
<title>Node2&#45;&gt;Node3</title>
<g id="a_edge2_Node000002_Node000003"><a xlink:title=" ">
<path fill="none" stroke="#63b8ff" d="M906.46,-465.3C851.62,-454.48 778.2,-439.75 713.5,-426 708.96,-425.03 704.29,-424.03 699.58,-423"/>
<polygon fill="#63b8ff" stroke="#63b8ff" points="905.99,-468.77 916.48,-467.27 907.35,-461.9 905.99,-468.77"/>
</a>
</g>
</g>
<!-- Node4 -->
<g id="Node000004" class="node">
<title>Node4</title>
<g id="a_Node000004"><a xlink:href="ParamVisitor_8h.html" target="_top" xlink:title="Implements Catena ParamVisitor.">
<polygon fill="white" stroke="#666666" points="718.5,-349 572.5,-349 572.5,-308 718.5,-308 718.5,-349"/>
<text text-anchor="start" x="580.5" y="-337" font-family="Helvetica,sans-Serif" font-size="10.00">/home/runner/work/Catena</text>
<text text-anchor="start" x="580.5" y="-326" font-family="Helvetica,sans-Serif" font-size="10.00">/Catena/sdks/cpp/common</text>
<text text-anchor="middle" x="645.5" y="-315" font-family="Helvetica,sans-Serif" font-size="10.00">/include/ParamVisitor.h</text>
</a>
</g>
</g>
<!-- Node2&#45;&gt;Node4 -->
<g id="edge29_Node000002_Node000004" class="edge">
<title>Node2&#45;&gt;Node4</title>
<g id="a_edge29_Node000002_Node000004"><a xlink:title=" ">
<path fill="none" stroke="#63b8ff" d="M906.29,-474.86C857.15,-468.03 795.22,-454.15 746.5,-426 724.99,-413.57 726.29,-402.35 708.5,-385 695.87,-372.69 681.11,-359.61 669.05,-349.25"/>
<polygon fill="#63b8ff" stroke="#63b8ff" points="905.89,-478.34 916.26,-476.18 906.8,-471.4 905.89,-478.34"/>
</a>
</g>
</g>
<!-- Node5 -->
<g id="Node000005" class="node">
<title>Node5</title>
<g id="a_Node000005"><a xlink:href="SubscriptionManager_8h.html" target="_top" xlink:title="Centralized manager for parameter subscriptions in Catena.">
<polygon fill="white" stroke="#666666" points="2375,-272 2206,-272 2206,-231 2375,-231 2375,-272"/>
<text text-anchor="start" x="2214" y="-260" font-family="Helvetica,sans-Serif" font-size="10.00">/home/runner/work/Catena</text>
<text text-anchor="start" x="2214" y="-249" font-family="Helvetica,sans-Serif" font-size="10.00">/Catena/sdks/cpp/common</text>
<text text-anchor="middle" x="2290.5" y="-238" font-family="Helvetica,sans-Serif" font-size="10.00">/include/SubscriptionManager.h</text>
</a>
</g>
</g>
<!-- Node2&#45;&gt;Node5 -->
<g id="edge33_Node000002_Node000005" class="edge">
<title>Node2&#45;&gt;Node5</title>
<g id="a_edge33_Node000002_Node000005"><a xlink:title=" ">
<path fill="none" stroke="#63b8ff" d="M1072.94,-479.23C1281.01,-473.19 1818.78,-455.17 1995.5,-426 2121.15,-405.26 2185.01,-442.48 2271.5,-349 2290.75,-328.19 2293.02,-293.8 2292.24,-272.18"/>
<polygon fill="#63b8ff" stroke="#63b8ff" points="1072.58,-475.74 1062.69,-479.52 1072.78,-482.73 1072.58,-475.74"/>
</a>
</g>
</g>
<!-- Node7 -->
<g id="Node000007" class="node">
<title>Node7</title>
<g id="a_Node000007"><a xlink:href="ServiceImpl_8h.html" target="_top" xlink:title="Implements Catena gRPC request handlers.">
<polygon fill="white" stroke="#666666" points="1502,-195 1341,-195 1341,-154 1502,-154 1502,-195"/>
<text text-anchor="start" x="1349" y="-183" font-family="Helvetica,sans-Serif" font-size="10.00">/home/runner/work/Catena</text>
<text text-anchor="start" x="1349" y="-172" font-family="Helvetica,sans-Serif" font-size="10.00">/Catena/sdks/cpp/connections</text>
<text text-anchor="middle" x="1421.5" y="-161" font-family="Helvetica,sans-Serif" font-size="10.00">/gRPC/include/ServiceImpl.h</text>
</a>
</g>
</g>
<!-- Node2&#45;&gt;Node7 -->
<g id="edge43_Node000002_Node000007" class="edge">
<title>Node2&#45;&gt;Node7</title>
<g id="a_edge43_Node000002_Node000007"><a xlink:title=" ">
<path fill="none" stroke="#63b8ff" d="M906.08,-476.97C783.86,-469.47 568,-452.61 544.5,-426 524.11,-402.91 553.76,-316.91 563.5,-308 676.37,-204.73 1149.74,-181.92 1340.91,-176.91"/>
<polygon fill="#63b8ff" stroke="#63b8ff" points="905.96,-480.47 916.16,-477.58 906.39,-473.48 905.96,-480.47"/>
</a>
</g>
</g>
<!-- Node2&#45;&gt;Node21 -->
<g id="edge24_Node000002_Node000021" class="edge">
<title>Node2&#45;&gt;Node21</title>
<g id="a_edge24_Node000002_Node000021"><a xlink:title=" ">
<path fill="none" stroke="#63b8ff" d="M906.09,-474.49C810.4,-465.83 648.99,-449.32 511.5,-426 507.07,-425.25 502.53,-424.42 497.96,-423.54"/>
<polygon fill="#63b8ff" stroke="#63b8ff" points="906.01,-478 916.28,-475.4 906.63,-471.02 906.01,-478"/>
</a>
</g>
</g>
<!-- Node22 -->
<g id="Node000022" class="node">
<title>Node22</title>
<g id="a_Node000022"><a xlink:href="Menu_8h.html" target="_top" xlink:title="Menus support.">
<polygon fill="white" stroke="#666666" points="901.5,-426 755.5,-426 755.5,-385 901.5,-385 901.5,-426"/>
<text text-anchor="start" x="763.5" y="-414" font-family="Helvetica,sans-Serif" font-size="10.00">/home/runner/work/Catena</text>
<text text-anchor="start" x="763.5" y="-403" font-family="Helvetica,sans-Serif" font-size="10.00">/Catena/sdks/cpp/common</text>
<text text-anchor="middle" x="828.5" y="-392" font-family="Helvetica,sans-Serif" font-size="10.00">/include/Menu.h</text>
</a>
</g>
</g>
<!-- Node2&#45;&gt;Node22 -->
<g id="edge25_Node000002_Node000022" class="edge">
<title>Node2&#45;&gt;Node22</title>
<g id="a_edge25_Node000002_Node000022"><a xlink:title=" ">
<path fill="none" stroke="#63b8ff" d="M938.46,-457.72C916.54,-447.51 891.25,-435.73 870.45,-426.04"/>
<polygon fill="#63b8ff" stroke="#63b8ff" points="937.08,-460.94 947.62,-461.99 940.03,-454.6 937.08,-460.94"/>
</a>
</g>
</g>
<!-- Node23 -->
<g id="Node000023" class="node">
<title>Node23</title>
<g id="a_Node000023"><a xlink:href="MenuGroup_8h.html" target="_top" xlink:title="MenuGroups support.">
<polygon fill="white" stroke="#666666" points="951.5,-349 805.5,-349 805.5,-308 951.5,-308 951.5,-349"/>
<text text-anchor="start" x="813.5" y="-337" font-family="Helvetica,sans-Serif" font-size="10.00">/home/runner/work/Catena</text>
<text text-anchor="start" x="813.5" y="-326" font-family="Helvetica,sans-Serif" font-size="10.00">/Catena/sdks/cpp/common</text>
<text text-anchor="middle" x="878.5" y="-315" font-family="Helvetica,sans-Serif" font-size="10.00">/include/MenuGroup.h</text>
</a>
</g>
</g>
<!-- Node2&#45;&gt;Node23 -->
<g id="edge27_Node000002_Node000023" class="edge">
<title>Node2&#45;&gt;Node23</title>
<g id="a_edge27_Node000002_Node000023"><a xlink:title=" ">
<path fill="none" stroke="#63b8ff" d="M968.25,-453.72C961.56,-444.9 954.17,-435.07 947.5,-426 928.09,-399.62 906.18,-368.79 892.35,-349.2"/>
<polygon fill="#63b8ff" stroke="#63b8ff" points="965.56,-455.98 974.4,-461.82 971.14,-451.74 965.56,-455.98"/>
</a>
</g>
</g>
<!-- Node24 -->
<g id="Node000024" class="node">
<title>Node24</title>
<g id="a_Node000024"><a xlink:href="NamedChoiceConstraint_8h.html" target="_top" xlink:title="A constraint that checks if a value is within some named choices.">
<polygon fill="white" stroke="#666666" points="1142,-426 957,-426 957,-385 1142,-385 1142,-426"/>
<text text-anchor="start" x="965" y="-414" font-family="Helvetica,sans-Serif" font-size="10.00">/home/runner/work/Catena</text>
<text text-anchor="start" x="965" y="-403" font-family="Helvetica,sans-Serif" font-size="10.00">/Catena/sdks/cpp/common</text>
<text text-anchor="middle" x="1049.5" y="-392" font-family="Helvetica,sans-Serif" font-size="10.00">/include/NamedChoiceConstraint.h</text>
</a>
</g>
</g>
<!-- Node2&#45;&gt;Node24 -->
<g id="edge28_Node000002_Node000024" class="edge">
<title>Node2&#45;&gt;Node24</title>
<g id="a_edge28_Node000002_Node000024"><a xlink:title=" ">
<path fill="none" stroke="#63b8ff" d="M1011.54,-453.95C1018.94,-444.7 1027.03,-434.58 1033.84,-426.07"/>
<polygon fill="#63b8ff" stroke="#63b8ff" points="1008.78,-451.8 1005.26,-461.79 1014.24,-456.17 1008.78,-451.8"/>
</a>
</g>
</g>
<!-- Node25 -->
<g id="Node000025" class="node">
<title>Node25</title>
<g id="a_Node000025"><a xlink:href="ParamWithValue_8h.html" target="_top" xlink:title="Interface for acessing parameter values.">
<polygon fill="white" stroke="#666666" points="1307,-426 1160,-426 1160,-385 1307,-385 1307,-426"/>
<text text-anchor="start" x="1168" y="-414" font-family="Helvetica,sans-Serif" font-size="10.00">/home/runner/work/Catena</text>
<text text-anchor="start" x="1168" y="-403" font-family="Helvetica,sans-Serif" font-size="10.00">/Catena/sdks/cpp/common</text>
<text text-anchor="middle" x="1233.5" y="-392" font-family="Helvetica,sans-Serif" font-size="10.00">/include/ParamWithValue.h</text>
</a>
</g>
</g>
<!-- Node2&#45;&gt;Node25 -->
<g id="edge30_Node000002_Node000025" class="edge">
<title>Node2&#45;&gt;Node25</title>
<g id="a_edge30_Node000002_Node000025"><a xlink:title=" ">
<path fill="none" stroke="#63b8ff" d="M1062.88,-458.94C1096.98,-448.46 1137.14,-436.12 1169.92,-426.04"/>
<polygon fill="#63b8ff" stroke="#63b8ff" points="1061.5,-455.71 1052.97,-461.99 1063.56,-462.4 1061.5,-455.71"/>
</a>
</g>
</g>
<!-- Node26 -->
<g id="Node000026" class="node">
<title>Node26</title>
<g id="a_Node000026"><a xlink:href="PicklistConstraint_8h.html" target="_top" xlink:title="A constraint that checks if a value is in a list of strings.">
<polygon fill="white" stroke="#666666" points="1477.5,-426 1325.5,-426 1325.5,-385 1477.5,-385 1477.5,-426"/>
<text text-anchor="start" x="1333.5" y="-414" font-family="Helvetica,sans-Serif" font-size="10.00">/home/runner/work/Catena</text>
<text text-anchor="start" x="1333.5" y="-403" font-family="Helvetica,sans-Serif" font-size="10.00">/Catena/sdks/cpp/common</text>
<text text-anchor="middle" x="1401.5" y="-392" font-family="Helvetica,sans-Serif" font-size="10.00">/include/PicklistConstraint.h</text>
</a>
</g>
</g>
<!-- Node2&#45;&gt;Node26 -->
<g id="edge31_Node000002_Node000026" class="edge">
<title>Node2&#45;&gt;Node26</title>
<g id="a_edge31_Node000002_Node000026"><a xlink:title=" ">
<path fill="none" stroke="#63b8ff" d="M1072.47,-468.65C1138.5,-458.12 1233.14,-442.33 1315.5,-426 1318.65,-425.37 1321.87,-424.72 1325.11,-424.05"/>
<polygon fill="#63b8ff" stroke="#63b8ff" points="1071.86,-465.2 1062.54,-470.23 1072.96,-472.12 1071.86,-465.2"/>
</a>
</g>
</g>
<!-- Node27 -->
<g id="Node000027" class="node">
<title>Node27</title>
<g id="a_Node000027"><a xlink:href="RangeConstraint_8h.html" target="_top" xlink:title="A constraint that checks if a value is within a range.">
<polygon fill="white" stroke="#666666" points="1643.5,-426 1495.5,-426 1495.5,-385 1643.5,-385 1643.5,-426"/>
<text text-anchor="start" x="1503.5" y="-414" font-family="Helvetica,sans-Serif" font-size="10.00">/home/runner/work/Catena</text>
<text text-anchor="start" x="1503.5" y="-403" font-family="Helvetica,sans-Serif" font-size="10.00">/Catena/sdks/cpp/common</text>
<text text-anchor="middle" x="1569.5" y="-392" font-family="Helvetica,sans-Serif" font-size="10.00">/include/RangeConstraint.h</text>
</a>
</g>
</g>
<!-- Node2&#45;&gt;Node27 -->
<g id="edge32_Node000002_Node000027" class="edge">
<title>Node2&#45;&gt;Node27</title>
<g id="a_edge32_Node000002_Node000027"><a xlink:title=" ">
<path fill="none" stroke="#63b8ff" d="M1072.98,-475.25C1172.08,-467.11 1342.1,-450.93 1486.5,-426 1489.42,-425.5 1492.39,-424.95 1495.38,-424.38"/>
<polygon fill="#63b8ff" stroke="#63b8ff" points="1072.42,-471.78 1062.73,-476.08 1072.98,-478.76 1072.42,-471.78"/>
</a>
</g>
</g>
<!-- Node28 -->
<g id="Node000028" class="node">
<title>Node28</title>
<g id="a_Node000028"><a xlink:href="common_2include_2rpc_2Connect_8h_source.html" target="_top" xlink:title=" ">
<polygon fill="white" stroke="#666666" points="1807.5,-426 1661.5,-426 1661.5,-385 1807.5,-385 1807.5,-426"/>
<text text-anchor="start" x="1669.5" y="-414" font-family="Helvetica,sans-Serif" font-size="10.00">/home/runner/work/Catena</text>
<text text-anchor="start" x="1669.5" y="-403" font-family="Helvetica,sans-Serif" font-size="10.00">/Catena/sdks/cpp/common</text>
<text text-anchor="middle" x="1734.5" y="-392" font-family="Helvetica,sans-Serif" font-size="10.00">/include/rpc/Connect.h</text>
</a>
</g>
</g>
<!-- Node2&#45;&gt;Node28 -->
<g id="edge34_Node000002_Node000028" class="edge">
<title>Node2&#45;&gt;Node28</title>
<g id="a_edge34_Node000002_Node000028"><a xlink:title=" ">
<path fill="none" stroke="#63b8ff" d="M1072.88,-478.53C1199.02,-473.14 1445.6,-459.07 1652.5,-426 1655.39,-425.54 1658.33,-425.03 1661.29,-424.48"/>
<polygon fill="#63b8ff" stroke="#63b8ff" points="1072.37,-475.05 1062.53,-478.97 1072.67,-482.04 1072.37,-475.05"/>
</a>
</g>
</g>
<!-- Node30 -->
<g id="Node000030" class="node">
<title>Node30</title>
<g id="a_Node000030"><a xlink:href="api_8h.html" target="_top" xlink:title="Implements REST API.">
<polygon fill="white" stroke="#666666" points="1987,-426 1826,-426 1826,-385 1987,-385 1987,-426"/>
<text text-anchor="start" x="1834" y="-414" font-family="Helvetica,sans-Serif" font-size="10.00">/home/runner/work/Catena</text>
<text text-anchor="start" x="1834" y="-403" font-family="Helvetica,sans-Serif" font-size="10.00">/Catena/sdks/cpp/connections</text>
<text text-anchor="middle" x="1906.5" y="-392" font-family="Helvetica,sans-Serif" font-size="10.00">/REST/include/api.h</text>
</a>
</g>
</g>
<!-- Node2&#45;&gt;Node30 -->
<g id="edge36_Node000002_Node000030" class="edge">
<title>Node2&#45;&gt;Node30</title>
<g id="a_edge36_Node000002_Node000030"><a xlink:title=" ">
<path fill="none" stroke="#63b8ff" d="M1072.63,-479.94C1222.16,-476.24 1546.11,-464.16 1816.5,-426 1819.51,-425.58 1822.56,-425.11 1825.65,-424.6"/>
<polygon fill="#63b8ff" stroke="#63b8ff" points="1072.52,-476.44 1062.61,-480.18 1072.69,-483.44 1072.52,-476.44"/>
</a>
</g>
</g>
<!-- Node3&#45;&gt;Node4 -->
<g id="edge3_Node000003_Node000004" class="edge">
<title>Node3&#45;&gt;Node4</title>
<g id="a_edge3_Node000003_Node000004"><a xlink:title=" ">
<path fill="none" stroke="#63b8ff" d="M633.98,-374.98C636.18,-366.28 638.54,-356.98 640.54,-349.07"/>
<polygon fill="#63b8ff" stroke="#63b8ff" points="630.56,-374.24 631.49,-384.79 637.34,-375.96 630.56,-374.24"/>
</a>
</g>
</g>
<!-- Node4&#45;&gt;Node5 -->
<g id="edge4_Node000004_Node000005" class="edge">
<title>Node4&#45;&gt;Node5</title>
<g id="a_edge4_Node000004_Node000005"><a xlink:title=" ">
<path fill="none" stroke="#63b8ff" d="M728.67,-315.2C750.67,-312.38 774.45,-309.7 796.5,-308 1417.08,-260.08 1578.19,-343.5 2196.5,-272 2199.56,-271.65 2202.67,-271.24 2205.81,-270.79"/>
<polygon fill="#63b8ff" stroke="#63b8ff" points="728.15,-311.74 718.69,-316.51 729.06,-318.68 728.15,-311.74"/>
</a>
</g>
</g>
<!-- Node9 -->
<g id="Node000009" class="node">
<title>Node9</title>
<g id="a_Node000009"><a xlink:href="BasicParamInfoRequest_8h_source.html" target="_top" xlink:title=" ">
<polygon fill="white" stroke="#666666" points="211,-118 0,-118 0,-77 211,-77 211,-118"/>
<text text-anchor="start" x="8" y="-106" font-family="Helvetica,sans-Serif" font-size="10.00">/home/runner/work/Catena</text>
<text text-anchor="start" x="8" y="-95" font-family="Helvetica,sans-Serif" font-size="10.00">/Catena/sdks/cpp/connections</text>
<text text-anchor="middle" x="105.5" y="-84" font-family="Helvetica,sans-Serif" font-size="10.00">/gRPC/include/BasicParamInfoRequest.h</text>
</a>
</g>
</g>
<!-- Node4&#45;&gt;Node9 -->
<g id="edge23_Node000004_Node000009" class="edge">
<title>Node4&#45;&gt;Node9</title>
<g id="a_edge23_Node000004_Node000009"><a xlink:title=" ">
<path fill="none" stroke="#63b8ff" d="M590.15,-304.03C483.41,-258.76 250.95,-160.18 151.81,-118.14"/>
<polygon fill="#63b8ff" stroke="#63b8ff" points="588.89,-307.29 599.46,-307.98 591.62,-300.85 588.89,-307.29"/>
</a>
</g>
</g>
<!-- Node6 -->
<g id="Node000006" class="node">
<title>Node6</title>
<g id="a_Node000006"><a xlink:href="connections_2gRPC_2include_2Connect_8h.html" target="_top" xlink:title="Implements Catena gRPC Connect.">
<polygon fill="white" stroke="#666666" points="2371,-118 2210,-118 2210,-77 2371,-77 2371,-118"/>
<text text-anchor="start" x="2218" y="-106" font-family="Helvetica,sans-Serif" font-size="10.00">/home/runner/work/Catena</text>
<text text-anchor="start" x="2218" y="-95" font-family="Helvetica,sans-Serif" font-size="10.00">/Catena/sdks/cpp/connections</text>
<text text-anchor="middle" x="2290.5" y="-84" font-family="Helvetica,sans-Serif" font-size="10.00">/gRPC/include/Connect.h</text>
</a>
</g>
</g>
<!-- Node5&#45;&gt;Node6 -->
<g id="edge5_Node000005_Node000006" class="edge">
<title>Node5&#45;&gt;Node6</title>
<g id="a_edge5_Node000005_Node000006"><a xlink:title=" ">
<path fill="none" stroke="#63b8ff" d="M2290.5,-220.58C2290.5,-190.36 2290.5,-144.53 2290.5,-118.47"/>
<polygon fill="#63b8ff" stroke="#63b8ff" points="2287,-220.94 2290.5,-230.94 2294,-220.94 2287,-220.94"/>
</a>
</g>
</g>
<!-- Node5&#45;&gt;Node7 -->
<g id="edge6_Node000005_Node000007" class="edge">
<title>Node5&#45;&gt;Node7</title>
<g id="a_edge6_Node000005_Node000007"><a xlink:title=" ">
<path fill="none" stroke="#63b8ff" d="M2195.82,-231.01C1937.02,-195.67 1641.7,-182.4 1502.2,-177.74"/>
<polygon fill="#63b8ff" stroke="#63b8ff" points="2195.4,-234.49 2205.79,-232.39 2196.36,-227.55 2195.4,-234.49"/>
</a>
</g>
</g>
<!-- Node20 -->
<g id="Node000020" class="node">
<title>Node20</title>
<g id="a_Node000020"><a xlink:href="UpdateSubscriptions_8h.html" target="_top" xlink:title="Implements Catena gRPC UpdateSubscriptions.">
<polygon fill="white" stroke="#666666" points="2585.5,-118 2389.5,-118 2389.5,-77 2585.5,-77 2585.5,-118"/>
<text text-anchor="start" x="2397.5" y="-106" font-family="Helvetica,sans-Serif" font-size="10.00">/home/runner/work/Catena</text>
<text text-anchor="start" x="2397.5" y="-95" font-family="Helvetica,sans-Serif" font-size="10.00">/Catena/sdks/cpp/connections</text>
<text text-anchor="middle" x="2487.5" y="-84" font-family="Helvetica,sans-Serif" font-size="10.00">/gRPC/include/UpdateSubscriptions.h</text>
</a>
</g>
</g>
<!-- Node5&#45;&gt;Node20 -->
<g id="edge22_Node000005_Node000020" class="edge">
<title>Node5&#45;&gt;Node20</title>
<g id="a_edge22_Node000005_Node000020"><a xlink:title=" ">
<path fill="none" stroke="#63b8ff" d="M2323.78,-224.82C2362.79,-194.72 2426.6,-145.49 2461.93,-118.23"/>
<polygon fill="#63b8ff" stroke="#63b8ff" points="2321.63,-222.06 2315.85,-230.94 2325.91,-227.6 2321.63,-222.06"/>
</a>
</g>
</g>
<!-- Node7&#45;&gt;Node6 -->
<g id="edge9_Node000007_Node000006" class="edge">
<title>Node7&#45;&gt;Node6</title>
<g id="a_edge9_Node000007_Node000006"><a xlink:title=" ">
<path fill="none" stroke="#63b8ff" d="M1512.32,-171.22C1658.11,-166.61 1953.1,-153.43 2200.5,-118 2203.51,-117.57 2206.56,-117.1 2209.65,-116.59"/>
<polygon fill="#63b8ff" stroke="#63b8ff" points="1511.97,-167.73 1502.08,-171.53 1512.19,-174.72 1511.97,-167.73"/>
</a>
</g>
</g>
<!-- Node8 -->
<g id="Node000008" class="node">
<title>Node8</title>
<g id="a_Node000008"><a xlink:href="AddLanguage_8h.html" target="_top" xlink:title="Implements Catena gRPC AddLanguage.">
<polygon fill="white" stroke="#666666" points="2005,-118 1844,-118 1844,-77 2005,-77 2005,-118"/>
<text text-anchor="start" x="1852" y="-106" font-family="Helvetica,sans-Serif" font-size="10.00">/home/runner/work/Catena</text>
<text text-anchor="start" x="1852" y="-95" font-family="Helvetica,sans-Serif" font-size="10.00">/Catena/sdks/cpp/connections</text>
<text text-anchor="middle" x="1924.5" y="-84" font-family="Helvetica,sans-Serif" font-size="10.00">/gRPC/include/AddLanguage.h</text>
</a>
</g>
</g>
<!-- Node7&#45;&gt;Node8 -->
<g id="edge7_Node000007_Node000008" class="edge">
<title>Node7&#45;&gt;Node8</title>
<g id="a_edge7_Node000007_Node000008"><a xlink:title=" ">
<path fill="none" stroke="#63b8ff" d="M1512.13,-163.43C1596.02,-153.61 1724.08,-137.35 1834.5,-118 1837.49,-117.48 1840.54,-116.92 1843.61,-116.35"/>
<polygon fill="#63b8ff" stroke="#63b8ff" points="1511.65,-159.96 1502.13,-164.59 1512.46,-166.91 1511.65,-159.96"/>
</a>
</g>
</g>
<!-- Node7&#45;&gt;Node9 -->
<g id="edge8_Node000007_Node000009" class="edge">
<title>Node7&#45;&gt;Node9</title>
<g id="a_edge8_Node000007_Node000009"><a xlink:title=" ">
<path fill="none" stroke="#63b8ff" d="M1330.56,-173.07C1129.71,-171.3 633.32,-162.37 220.5,-118 217.38,-117.66 214.21,-117.3 211.02,-116.91"/>
<polygon fill="#63b8ff" stroke="#63b8ff" points="1330.74,-176.57 1340.77,-173.16 1330.8,-169.57 1330.74,-176.57"/>
</a>
</g>
</g>
<!-- Node10 -->
<g id="Node000010" class="node">
<title>Node10</title>
<g id="a_Node000010"><a xlink:href="gRPC_2include_2DeviceRequest_8h.html" target="_top" xlink:title="Implements Catena gRPC DeviceRequest.">
<polygon fill="white" stroke="#666666" points="2192,-118 2023,-118 2023,-77 2192,-77 2192,-118"/>
<text text-anchor="start" x="2031" y="-106" font-family="Helvetica,sans-Serif" font-size="10.00">/home/runner/work/Catena</text>
<text text-anchor="start" x="2031" y="-95" font-family="Helvetica,sans-Serif" font-size="10.00">/Catena/sdks/cpp/connections</text>
<text text-anchor="middle" x="2107.5" y="-84" font-family="Helvetica,sans-Serif" font-size="10.00">/gRPC/include/DeviceRequest.h</text>
</a>
</g>
</g>
<!-- Node7&#45;&gt;Node10 -->
<g id="edge10_Node000007_Node000010" class="edge">
<title>Node7&#45;&gt;Node10</title>
<g id="a_edge10_Node000007_Node000010"><a xlink:title=" ">
<path fill="none" stroke="#63b8ff" d="M1512.58,-168.11C1629.14,-160.5 1837.11,-144.48 2013.5,-118 2016.55,-117.54 2019.65,-117.05 2022.78,-116.53"/>
<polygon fill="#63b8ff" stroke="#63b8ff" points="1512.03,-164.64 1502.28,-168.78 1512.48,-171.63 1512.03,-164.64"/>
</a>
</g>
</g>
<!-- Node11 -->
<g id="Node000011" class="node">
<title>Node11</title>
<g id="a_Node000011"><a xlink:href="ExecuteCommand_8h.html" target="_top" xlink:title="Implements Catena gRPC ExecuteCommand.">
<polygon fill="white" stroke="#666666" points="413.5,-118 229.5,-118 229.5,-77 413.5,-77 413.5,-118"/>
<text text-anchor="start" x="237.5" y="-106" font-family="Helvetica,sans-Serif" font-size="10.00">/home/runner/work/Catena</text>
<text text-anchor="start" x="237.5" y="-95" font-family="Helvetica,sans-Serif" font-size="10.00">/Catena/sdks/cpp/connections</text>
<text text-anchor="middle" x="321.5" y="-84" font-family="Helvetica,sans-Serif" font-size="10.00">/gRPC/include/ExecuteCommand.h</text>
</a>
</g>
</g>
<!-- Node7&#45;&gt;Node11 -->
<g id="edge11_Node000007_Node000011" class="edge">
<title>Node7&#45;&gt;Node11</title>
<g id="a_edge11_Node000007_Node000011"><a xlink:title=" ">
<path fill="none" stroke="#63b8ff" d="M1330.64,-172.56C1154.69,-169.82 755.48,-159.2 422.5,-118 419.58,-117.64 416.61,-117.24 413.62,-116.82"/>
<polygon fill="#63b8ff" stroke="#63b8ff" points="1330.83,-176.06 1340.89,-172.71 1330.94,-169.06 1330.83,-176.06"/>
</a>
</g>
</g>
<!-- Node12 -->
<g id="Node000012" class="node">
<title>Node12</title>
<g id="a_Node000012"><a xlink:href="ExternalObjectRequest_8h.html" target="_top" xlink:title="Implements Catena gRPC ExternalObjectRequest.">
<polygon fill="white" stroke="#666666" points="639,-118 432,-118 432,-77 639,-77 639,-118"/>
<text text-anchor="start" x="440" y="-106" font-family="Helvetica,sans-Serif" font-size="10.00">/home/runner/work/Catena</text>
<text text-anchor="start" x="440" y="-95" font-family="Helvetica,sans-Serif" font-size="10.00">/Catena/sdks/cpp/connections</text>
<text text-anchor="middle" x="535.5" y="-84" font-family="Helvetica,sans-Serif" font-size="10.00">/gRPC/include/ExternalObjectRequest.h</text>
</a>
</g>
</g>
<!-- Node7&#45;&gt;Node12 -->
<g id="edge12_Node000007_Node000012" class="edge">
<title>Node7&#45;&gt;Node12</title>
<g id="a_edge12_Node000007_Node000012"><a xlink:title=" ">
<path fill="none" stroke="#63b8ff" d="M1330.56,-169.95C1185.62,-163.63 893.49,-148.16 647.5,-118 644.76,-117.66 641.98,-117.31 639.18,-116.93"/>
<polygon fill="#63b8ff" stroke="#63b8ff" points="1330.59,-173.46 1340.74,-170.39 1330.9,-166.46 1330.59,-173.46"/>
</a>
</g>
</g>
<!-- Node13 -->
<g id="Node000013" class="node">
<title>Node13</title>
<g id="a_Node000013"><a xlink:href="GetParam_8h.html" target="_top" xlink:title="Implements Catena gRPC GetParam.">
<polygon fill="white" stroke="#666666" points="818,-118 657,-118 657,-77 818,-77 818,-118"/>
<text text-anchor="start" x="665" y="-106" font-family="Helvetica,sans-Serif" font-size="10.00">/home/runner/work/Catena</text>
<text text-anchor="start" x="665" y="-95" font-family="Helvetica,sans-Serif" font-size="10.00">/Catena/sdks/cpp/connections</text>
<text text-anchor="middle" x="737.5" y="-84" font-family="Helvetica,sans-Serif" font-size="10.00">/gRPC/include/GetParam.h</text>
</a>
</g>
</g>
<!-- Node7&#45;&gt;Node13 -->
<g id="edge13_Node000007_Node000013" class="edge">
<title>Node7&#45;&gt;Node13</title>
<g id="a_edge13_Node000007_Node000013"><a xlink:title=" ">
<path fill="none" stroke="#63b8ff" d="M1330.76,-168.51C1213.71,-161.27 1004.06,-145.63 826.5,-118 823.84,-117.59 821.15,-117.14 818.43,-116.67"/>
<polygon fill="#63b8ff" stroke="#63b8ff" points="1330.56,-172 1340.75,-169.12 1330.99,-165.02 1330.56,-172"/>
</a>
</g>
</g>
<!-- Node14 -->
<g id="Node000014" class="node">
<title>Node14</title>
<g id="a_Node000014"><a xlink:href="gRPC_2include_2GetPopulatedSlots_8h.html" target="_top" xlink:title="Implements Catena gRPC GetPopulatedSlots.">
<polygon fill="white" stroke="#666666" points="1021,-118 836,-118 836,-77 1021,-77 1021,-118"/>
<text text-anchor="start" x="844" y="-106" font-family="Helvetica,sans-Serif" font-size="10.00">/home/runner/work/Catena</text>
<text text-anchor="start" x="844" y="-95" font-family="Helvetica,sans-Serif" font-size="10.00">/Catena/sdks/cpp/connections</text>
<text text-anchor="middle" x="928.5" y="-84" font-family="Helvetica,sans-Serif" font-size="10.00">/gRPC/include/GetPopulatedSlots.h</text>
</a>
</g>
</g>
<!-- Node7&#45;&gt;Node14 -->
<g id="edge14_Node000007_Node000014" class="edge">
<title>Node7&#45;&gt;Node14</title>
<g id="a_edge14_Node000007_Node000014"><a xlink:title=" ">
<path fill="none" stroke="#63b8ff" d="M1331,-161.99C1251.42,-151.57 1132.54,-135.23 1029.5,-118 1026.77,-117.54 1024,-117.07 1021.21,-116.59"/>
<polygon fill="#63b8ff" stroke="#63b8ff" points="1330.62,-165.47 1340.99,-163.3 1331.53,-158.53 1330.62,-165.47"/>
</a>
</g>
</g>
<!-- Node15 -->
<g id="Node000015" class="node">
<title>Node15</title>
<g id="a_Node000015"><a xlink:href="gRPC_2include_2GetValue_8h.html" target="_top" xlink:title="Implements Catena gRPC GetValue.">
<polygon fill="white" stroke="#666666" points="1200,-118 1039,-118 1039,-77 1200,-77 1200,-118"/>
<text text-anchor="start" x="1047" y="-106" font-family="Helvetica,sans-Serif" font-size="10.00">/home/runner/work/Catena</text>
<text text-anchor="start" x="1047" y="-95" font-family="Helvetica,sans-Serif" font-size="10.00">/Catena/sdks/cpp/connections</text>
<text text-anchor="middle" x="1119.5" y="-84" font-family="Helvetica,sans-Serif" font-size="10.00">/gRPC/include/GetValue.h</text>
</a>
</g>
</g>
<!-- Node7&#45;&gt;Node15 -->
<g id="edge15_Node000007_Node000015" class="edge">
<title>Node7&#45;&gt;Node15</title>
<g id="a_edge15_Node000007_Node000015"><a xlink:title=" ">
<path fill="none" stroke="#63b8ff" d="M1333.12,-151.55C1290.4,-140.94 1239.55,-128.31 1198.19,-118.04"/>
<polygon fill="#63b8ff" stroke="#63b8ff" points="1332.39,-154.98 1342.94,-153.99 1334.08,-148.18 1332.39,-154.98"/>
</a>
</g>
</g>
<!-- Node16 -->
<g id="Node000016" class="node">
<title>Node16</title>
<g id="a_Node000016"><a xlink:href="LanguagePackRequest_8h.html" target="_top" xlink:title="Implements Catena gRPC LanguagePackRequest.">
<polygon fill="white" stroke="#666666" points="1423,-118 1218,-118 1218,-77 1423,-77 1423,-118"/>
<text text-anchor="start" x="1226" y="-106" font-family="Helvetica,sans-Serif" font-size="10.00">/home/runner/work/Catena</text>
<text text-anchor="start" x="1226" y="-95" font-family="Helvetica,sans-Serif" font-size="10.00">/Catena/sdks/cpp/connections</text>
<text text-anchor="middle" x="1320.5" y="-84" font-family="Helvetica,sans-Serif" font-size="10.00">/gRPC/include/LanguagePackRequest.h</text>
</a>
</g>
</g>
<!-- Node7&#45;&gt;Node16 -->
<g id="edge16_Node000007_Node000016" class="edge">
<title>Node7&#45;&gt;Node16</title>
<g id="a_edge16_Node000007_Node000016"><a xlink:title=" ">
<path fill="none" stroke="#63b8ff" d="M1386.91,-147.82C1373.85,-138.11 1359.2,-127.24 1346.99,-118.17"/>
<polygon fill="#63b8ff" stroke="#63b8ff" points="1385.11,-150.84 1395.23,-153.99 1389.29,-145.22 1385.11,-150.84"/>
</a>
</g>
</g>
<!-- Node17 -->
<g id="Node000017" class="node">
<title>Node17</title>
<g id="a_Node000017"><a xlink:href="ListLanguages_8h.html" target="_top" xlink:title="Implements Catena gRPC ListLanguages.">
<polygon fill="white" stroke="#666666" points="1606,-118 1441,-118 1441,-77 1606,-77 1606,-118"/>
<text text-anchor="start" x="1449" y="-106" font-family="Helvetica,sans-Serif" font-size="10.00">/home/runner/work/Catena</text>
<text text-anchor="start" x="1449" y="-95" font-family="Helvetica,sans-Serif" font-size="10.00">/Catena/sdks/cpp/connections</text>
<text text-anchor="middle" x="1523.5" y="-84" font-family="Helvetica,sans-Serif" font-size="10.00">/gRPC/include/ListLanguages.h</text>
</a>
</g>
</g>
<!-- Node7&#45;&gt;Node17 -->
<g id="edge17_Node000007_Node000017" class="edge">
<title>Node7&#45;&gt;Node17</title>
<g id="a_edge17_Node000007_Node000017"><a xlink:title=" ">
<path fill="none" stroke="#63b8ff" d="M1456.43,-147.82C1469.62,-138.11 1484.42,-127.24 1496.75,-118.17"/>
<polygon fill="#63b8ff" stroke="#63b8ff" points="1454.02,-145.25 1448.03,-153.99 1458.16,-150.89 1454.02,-145.25"/>
</a>
</g>
</g>
<!-- Node18 -->
<g id="Node000018" class="node">
<title>Node18</title>
<g id="a_Node000018"><a xlink:href="gRPC_2include_2MultiSetValue_8h.html" target="_top" xlink:title="Generic CallData class for the SetValue and MultiSetValue RPCs.">
<polygon fill="white" stroke="#666666" points="1826,-118 1663,-118 1663,-77 1826,-77 1826,-118"/>
<text text-anchor="start" x="1671" y="-106" font-family="Helvetica,sans-Serif" font-size="10.00">/home/runner/work/Catena</text>
<text text-anchor="start" x="1671" y="-95" font-family="Helvetica,sans-Serif" font-size="10.00">/Catena/sdks/cpp/connections</text>
<text text-anchor="middle" x="1744.5" y="-84" font-family="Helvetica,sans-Serif" font-size="10.00">/gRPC/include/MultiSetValue.h</text>
</a>
</g>
</g>
<!-- Node7&#45;&gt;Node18 -->
<g id="edge18_Node000007_Node000018" class="edge">
<title>Node7&#45;&gt;Node18</title>
<g id="a_edge18_Node000007_Node000018"><a xlink:title=" ">
<path fill="none" stroke="#63b8ff" d="M1512.11,-152.46C1559.46,-141.47 1616.94,-128.12 1662.89,-117.45"/>
<polygon fill="#63b8ff" stroke="#63b8ff" points="1511.12,-149.1 1502.17,-154.77 1512.71,-155.92 1511.12,-149.1"/>
</a>
</g>
</g>
<!-- Node19 -->
<g id="Node000019" class="node">
<title>Node19</title>
<g id="a_Node000019"><a xlink:href="gRPC_2include_2SetValue_8h.html" target="_top" xlink:title="Implements Catena gRPC SetValue.">
<polygon fill="white" stroke="#666666" points="1770,-41 1609,-41 1609,0 1770,0 1770,-41"/>
<text text-anchor="start" x="1617" y="-29" font-family="Helvetica,sans-Serif" font-size="10.00">/home/runner/work/Catena</text>
<text text-anchor="start" x="1617" y="-18" font-family="Helvetica,sans-Serif" font-size="10.00">/Catena/sdks/cpp/connections</text>
<text text-anchor="middle" x="1689.5" y="-7" font-family="Helvetica,sans-Serif" font-size="10.00">/gRPC/include/SetValue.h</text>
</a>
</g>
</g>
<!-- Node7&#45;&gt;Node19 -->
<g id="edge20_Node000007_Node000019" class="edge">
<title>Node7&#45;&gt;Node19</title>
<g id="a_edge20_Node000007_Node000019"><a xlink:title=" ">
<path fill="none" stroke="#63b8ff" d="M1512.41,-159.69C1546.51,-151.46 1584.28,-138.46 1614.5,-118 1629.87,-107.59 1659.28,-66.32 1676.34,-41.24"/>
<polygon fill="#63b8ff" stroke="#63b8ff" points="1511.39,-156.33 1502.43,-161.99 1512.96,-163.16 1511.39,-156.33"/>
</a>
</g>
</g>
<!-- Node7&#45;&gt;Node20 -->
<g id="edge21_Node000007_Node000020" class="edge">
<title>Node7&#45;&gt;Node20</title>
<g id="a_edge21_Node000007_Node000020"><a xlink:title=" ">
<path fill="none" stroke="#63b8ff" d="M1512.41,-171.89C1682.96,-168.05 2062.35,-155.68 2379.5,-118 2382.72,-117.62 2385.98,-117.2 2389.28,-116.75"/>
<polygon fill="#63b8ff" stroke="#63b8ff" points="1512.14,-168.39 1502.22,-172.11 1512.29,-175.39 1512.14,-168.39"/>
</a>
</g>
</g>
<!-- Node18&#45;&gt;Node19 -->
<g id="edge19_Node000018_Node000019" class="edge">
<title>Node18&#45;&gt;Node19</title>
<g id="a_edge19_Node000018_Node000019"><a xlink:title=" ">
<path fill="none" stroke="#63b8ff" d="M1724.09,-68.67C1717.37,-59.5 1710.03,-49.5 1703.85,-41.07"/>
<polygon fill="#63b8ff" stroke="#63b8ff" points="1721.31,-70.8 1730.05,-76.79 1726.96,-66.66 1721.31,-70.8"/>
</a>
</g>
</g>
<!-- Node22&#45;&gt;Node23 -->
<g id="edge26_Node000022_Node000023" class="edge">
<title>Node22&#45;&gt;Node23</title>
<g id="a_edge26_Node000022_Node000023"><a xlink:title=" ">
<path fill="none" stroke="#63b8ff" d="M847.24,-376.39C853.3,-367.3 859.89,-357.41 865.45,-349.07"/>
<polygon fill="#63b8ff" stroke="#63b8ff" points="844.27,-374.53 841.64,-384.79 850.1,-378.42 844.27,-374.53"/>
</a>
</g>
</g>
<!-- Node29 -->
<g id="Node000029" class="node">
<title>Node29</title>
<g id="a_Node000029"><a xlink:href="connections_2REST_2include_2Connect_8h.html" target="_top" xlink:title="Implements REST Connect RPC.">
<polygon fill="white" stroke="#666666" points="1514,-349 1353,-349 1353,-308 1514,-308 1514,-349"/>
<text text-anchor="start" x="1361" y="-337" font-family="Helvetica,sans-Serif" font-size="10.00">/home/runner/work/Catena</text>
<text text-anchor="start" x="1361" y="-326" font-family="Helvetica,sans-Serif" font-size="10.00">/Catena/sdks/cpp/connections</text>
<text text-anchor="middle" x="1433.5" y="-315" font-family="Helvetica,sans-Serif" font-size="10.00">/REST/include/Connect.h</text>
</a>
</g>
</g>
<!-- Node28&#45;&gt;Node29 -->
<g id="edge35_Node000028_Node000029" class="edge">
<title>Node28&#45;&gt;Node29</title>
<g id="a_edge35_Node000028_Node000029"><a xlink:title=" ">
<path fill="none" stroke="#63b8ff" d="M1651.53,-383.83C1607.91,-372.96 1554.74,-359.71 1511.83,-349.02"/>
<polygon fill="#63b8ff" stroke="#63b8ff" points="1650.7,-387.23 1661.25,-386.25 1652.39,-380.43 1650.7,-387.23"/>
</a>
</g>
</g>
<!-- Node30&#45;&gt;Node29 -->
<g id="edge37_Node000030_Node000029" class="edge">
<title>Node30&#45;&gt;Node29</title>
<g id="a_edge37_Node000030_Node000029"><a xlink:title=" ">
<path fill="none" stroke="#63b8ff" d="M1815.66,-384.94C1685.41,-363.45 1649.7,-370.38 1523.5,-349 1520.51,-348.49 1517.46,-347.95 1514.39,-347.39"/>
<polygon fill="#63b8ff" stroke="#63b8ff" points="1815.17,-388.41 1825.61,-386.61 1816.33,-381.51 1815.17,-388.41"/>
</a>
</g>
</g>
<!-- Node31 -->
<g id="Node000031" class="node">
<title>Node31</title>
<g id="a_Node000031"><a xlink:href="REST_2include_2DeviceRequest_8h.html" target="_top" xlink:title="Implements REST DeviceRequest RPC.">
<polygon fill="white" stroke="#666666" points="1700.5,-349 1532.5,-349 1532.5,-308 1700.5,-308 1700.5,-349"/>
<text text-anchor="start" x="1540.5" y="-337" font-family="Helvetica,sans-Serif" font-size="10.00">/home/runner/work/Catena</text>
<text text-anchor="start" x="1540.5" y="-326" font-family="Helvetica,sans-Serif" font-size="10.00">/Catena/sdks/cpp/connections</text>
<text text-anchor="middle" x="1616.5" y="-315" font-family="Helvetica,sans-Serif" font-size="10.00">/REST/include/DeviceRequest.h</text>
</a>
</g>
</g>
<!-- Node30&#45;&gt;Node31 -->
<g id="edge38_Node000030_Node000031" class="edge">
<title>Node30&#45;&gt;Node31</title>
<g id="a_edge38_Node000030_Node000031"><a xlink:title=" ">
<path fill="none" stroke="#63b8ff" d="M1821.37,-382.48C1780.4,-371.89 1731.7,-359.29 1692.06,-349.04"/>
<polygon fill="#63b8ff" stroke="#63b8ff" points="1820.51,-385.88 1831.06,-384.99 1822.26,-379.1 1820.51,-385.88"/>
</a>
</g>
</g>
<!-- Node32 -->
<g id="Node000032" class="node">
<title>Node32</title>
<g id="a_Node000032"><a xlink:href="REST_2include_2GetPopulatedSlots_8h.html" target="_top" xlink:title="Implements REST GetPopulatedSlots RPC.">
<polygon fill="white" stroke="#666666" points="1903,-349 1718,-349 1718,-308 1903,-308 1903,-349"/>
<text text-anchor="start" x="1726" y="-337" font-family="Helvetica,sans-Serif" font-size="10.00">/home/runner/work/Catena</text>
<text text-anchor="start" x="1726" y="-326" font-family="Helvetica,sans-Serif" font-size="10.00">/Catena/sdks/cpp/connections</text>
<text text-anchor="middle" x="1810.5" y="-315" font-family="Helvetica,sans-Serif" font-size="10.00">/REST/include/GetPopulatedSlots.h</text>
</a>
</g>
</g>
<!-- Node30&#45;&gt;Node32 -->
<g id="edge39_Node000030_Node000032" class="edge">
<title>Node30&#45;&gt;Node32</title>
<g id="a_edge39_Node000030_Node000032"><a xlink:title=" ">
<path fill="none" stroke="#63b8ff" d="M1873.62,-378.82C1861.21,-369.11 1847.28,-358.24 1835.68,-349.17"/>
<polygon fill="#63b8ff" stroke="#63b8ff" points="1871.49,-381.59 1881.53,-384.99 1875.8,-376.08 1871.49,-381.59"/>
</a>
</g>
</g>
<!-- Node33 -->
<g id="Node000033" class="node">
<title>Node33</title>
<g id="a_Node000033"><a xlink:href="REST_2include_2GetValue_8h.html" target="_top" xlink:title="Implements REST GetValue RPC.">
<polygon fill="white" stroke="#666666" points="2082,-349 1921,-349 1921,-308 2082,-308 2082,-349"/>
<text text-anchor="start" x="1929" y="-337" font-family="Helvetica,sans-Serif" font-size="10.00">/home/runner/work/Catena</text>
<text text-anchor="start" x="1929" y="-326" font-family="Helvetica,sans-Serif" font-size="10.00">/Catena/sdks/cpp/connections</text>
<text text-anchor="middle" x="2001.5" y="-315" font-family="Helvetica,sans-Serif" font-size="10.00">/REST/include/GetValue.h</text>
</a>
</g>
</g>
<!-- Node30&#45;&gt;Node33 -->
<g id="edge40_Node000030_Node000033" class="edge">
<title>Node30&#45;&gt;Node33</title>
<g id="a_edge40_Node000030_Node000033"><a xlink:title=" ">
<path fill="none" stroke="#63b8ff" d="M1939.63,-378.35C1951.81,-368.73 1965.38,-358.01 1976.71,-349.07"/>
<polygon fill="#63b8ff" stroke="#63b8ff" points="1937.14,-375.85 1931.46,-384.79 1941.48,-381.35 1937.14,-375.85"/>
</a>
</g>
</g>
<!-- Node34 -->
<g id="Node000034" class="node">
<title>Node34</title>
<g id="a_Node000034"><a xlink:href="REST_2include_2MultiSetValue_8h.html" target="_top" xlink:title="Implements REST MultiSetValue RPC.">
<polygon fill="white" stroke="#666666" points="2262.5,-349 2100.5,-349 2100.5,-308 2262.5,-308 2262.5,-349"/>
<text text-anchor="start" x="2108.5" y="-337" font-family="Helvetica,sans-Serif" font-size="10.00">/home/runner/work/Catena</text>
<text text-anchor="start" x="2108.5" y="-326" font-family="Helvetica,sans-Serif" font-size="10.00">/Catena/sdks/cpp/connections</text>
<text text-anchor="middle" x="2181.5" y="-315" font-family="Helvetica,sans-Serif" font-size="10.00">/REST/include/MultiSetValue.h</text>
</a>
</g>
</g>
<!-- Node30&#45;&gt;Node34 -->
<g id="edge41_Node000030_Node000034" class="edge">
<title>Node30&#45;&gt;Node34</title>
<g id="a_edge41_Node000030_Node000034"><a xlink:title=" ">
<path fill="none" stroke="#63b8ff" d="M1987.72,-382.35C2026.47,-371.78 2072.42,-359.25 2109.85,-349.04"/>
<polygon fill="#63b8ff" stroke="#63b8ff" points="1986.76,-378.98 1978.04,-384.99 1988.6,-385.74 1986.76,-378.98"/>
</a>
</g>
</g>
<!-- Node35 -->
<g id="Node000035" class="node">
<title>Node35</title>
<g id="a_Node000035"><a xlink:href="REST_2include_2SetValue_8h.html" target="_top" xlink:title="Implements REST SetValue RPC.">
<polygon fill="white" stroke="#666666" points="2188,-272 2027,-272 2027,-231 2188,-231 2188,-272"/>
<text text-anchor="start" x="2035" y="-260" font-family="Helvetica,sans-Serif" font-size="10.00">/home/runner/work/Catena</text>
<text text-anchor="start" x="2035" y="-249" font-family="Helvetica,sans-Serif" font-size="10.00">/Catena/sdks/cpp/connections</text>
<text text-anchor="middle" x="2107.5" y="-238" font-family="Helvetica,sans-Serif" font-size="10.00">/REST/include/SetValue.h</text>
</a>
</g>
</g>
<!-- Node34&#45;&gt;Node35 -->
<g id="edge42_Node000034_Node000035" class="edge">
<title>Node34&#45;&gt;Node35</title>
<g id="a_edge42_Node000034_Node000035"><a xlink:title=" ">
<path fill="none" stroke="#63b8ff" d="M2154.87,-300.51C2145.6,-291.11 2135.38,-280.76 2126.81,-272.07"/>
<polygon fill="#63b8ff" stroke="#63b8ff" points="2152.54,-303.13 2162.06,-307.79 2157.53,-298.22 2152.54,-303.13"/>
</a>
</g>
</g>
</g>
</svg>

<g id="navigator" transform="translate(0 0)" fill="#404254">
  <rect fill="#f2f5e9" fill-opacity="0.5" stroke="#606060" stroke-width=".5" x="0" y="0" width="60" height="60"/>
  <use id="zoomplus" xlink:href="#zoomPlus" x="17" y="9" onmousedown="handleZoom(evt,'in')"/>
  <use id="zoomminus" xlink:href="#zoomMin" x="42" y="9" onmousedown="handleZoom(evt,'out')"/>
  <use id="reset" xlink:href="#resetDef" x="30" y="36" onmousedown="handleReset()"/>
   <use id="arrowup" xlink:href="#arrowUp" x="0" y="0" onmousedown="handlePan(0,-1)"/>
  <use id="arrowright" xlink:href="#arrowRight" x="0" y="0" onmousedown="handlePan(1,0)"/>
  <use id="arrowdown" xlink:href="#arrowDown" x="0" y="0" onmousedown="handlePan(0,1)"/>
  <use id="arrowleft" xlink:href="#arrowLeft" x="0" y="0" onmousedown="handlePan(-1,0)"/>
</g>
<svg viewBox="0 0 15 15" width="100%" height="30px" preserveAspectRatio="xMaxYMin meet">
 <g id="arrow_out" transform="scale(0.3 0.3)">
  <a xlink:href="ILanguagePack_8h__dep__incl_org.svg" target="_base">
   <rect id="button" ry="5" rx="5" y="6" x="6" height="38" width="38"
        fill="#f2f5e9" fill-opacity="0.5" stroke="#606060" stroke-width="1.0"/>
   <path id="arrow"
     d="M 11.500037,31.436501 C 11.940474,20.09759 22.043105,11.32322 32.158766,21.979434 L 37.068811,17.246167 C 37.068811,17.246167 37.088388,32 37.088388,32 L 22.160133,31.978069 C 22.160133,31.978069 26.997745,27.140456 26.997745,27.140456 C 18.528582,18.264221 13.291696,25.230495 11.500037,31.436501 z"
     style="fill:#404040;"/>
  </a>
 </g>
</svg>

<style type='text/css'>
<![CDATA[
[data-mouse-over-selected='false'] { opacity: 0.7; }
[data-mouse-over-selected='true']  { opacity: 1.0; }
]]>
</style>
<script type="application/ecmascript"><![CDATA[
document.addEventListener('DOMContentLoaded', (event) => {
  highlightEdges();
  highlightAdjacentNodes();
});
]]></script>
</svg>
