<?xml version="1.0" encoding="UTF-8" standalone="no"?>
<!DOCTYPE svg PUBLIC "-//W3C//DTD SVG 1.1//EN"
 "http://www.w3.org/Graphics/SVG/1.1/DTD/svg11.dtd">
<!-- Generated by graphviz version 2.43.0 (0)
 -->
<!-- Title: /home/runner/work/Catena/Catena/sdks/cpp/common/include/ILanguagePack.h Pages: 1 -->
<svg width="3482pt" height="434pt"
 viewBox="0.00 0.00 3481.50 434.00" xmlns="http://www.w3.org/2000/svg" xmlns:xlink="http://www.w3.org/1999/xlink">
<g id="graph0" class="graph" transform="scale(1 1) rotate(0) translate(4 430)">
<title>/home/runner/work/Catena/Catena/sdks/cpp/common/include/ILanguagePack.h</title>
<!-- Node1 -->
<g id="Node000001" class="node">
<title>Node1</title>
<g id="a_Node000001"><a xlink:title="Interface for language packs.">
<polygon fill="#999999" stroke="#666666" points="565,-426 419,-426 419,-385 565,-385 565,-426"/>
<text text-anchor="start" x="427" y="-414" font-family="Helvetica,sans-Serif" font-size="10.00">/home/runner/work/Catena</text>
<text text-anchor="start" x="427" y="-403" font-family="Helvetica,sans-Serif" font-size="10.00">/Catena/sdks/cpp/common</text>
<text text-anchor="middle" x="492" y="-392" font-family="Helvetica,sans-Serif" font-size="10.00">/include/ILanguagePack.h</text>
</a>
</g>
</g>
<!-- Node2 -->
<g id="Node000002" class="node">
<title>Node2</title>
<g id="a_Node000002"><a xlink:href="Device_8h.html" target="_top" xlink:title="Device class definition.">
<polygon fill="white" stroke="#666666" points="898,-349 752,-349 752,-308 898,-308 898,-349"/>
<text text-anchor="start" x="760" y="-337" font-family="Helvetica,sans-Serif" font-size="10.00">/home/runner/work/Catena</text>
<text text-anchor="start" x="760" y="-326" font-family="Helvetica,sans-Serif" font-size="10.00">/Catena/sdks/cpp/common</text>
<text text-anchor="middle" x="825" y="-315" font-family="Helvetica,sans-Serif" font-size="10.00">/include/Device.h</text>
</a>
</g>
</g>
<!-- Node1&#45;&gt;Node2 -->
<g id="edge1_Node000001_Node000002" class="edge">
<title>Node1&#45;&gt;Node2</title>
<g id="a_edge1_Node000001_Node000002"><a xlink:title=" ">
<path fill="none" stroke="#63b8ff" d="M575.02,-385.8C629.32,-373.57 699.6,-357.74 751.81,-345.99"/>
<polygon fill="#63b8ff" stroke="#63b8ff" points="574.06,-382.43 565.08,-388.04 575.6,-389.26 574.06,-382.43"/>
</a>
</g>
</g>
<!-- Node3 -->
<g id="Node000003" class="node">
<title>Node3</title>
<g id="a_Node000003"><a xlink:href="LanguagePack_8h.html" target="_top" xlink:title="multi language support in 2 classes: LanguagePack and LanguagePacks">
<polygon fill="white" stroke="#666666" points="146,-272 0,-272 0,-231 146,-231 146,-272"/>
<text text-anchor="start" x="8" y="-260" font-family="Helvetica,sans-Serif" font-size="10.00">/home/runner/work/Catena</text>
<text text-anchor="start" x="8" y="-249" font-family="Helvetica,sans-Serif" font-size="10.00">/Catena/sdks/cpp/common</text>
<text text-anchor="middle" x="73" y="-238" font-family="Helvetica,sans-Serif" font-size="10.00">/include/LanguagePack.h</text>
</a>
</g>
</g>
<!-- Node1&#45;&gt;Node3 -->
<g id="edge39_Node000001_Node000003" class="edge">
<title>Node1&#45;&gt;Node3</title>
<g id="a_edge39_Node000001_Node000003"><a xlink:title=" ">
<path fill="none" stroke="#63b8ff" d="M428.35,-381.41C346.1,-351.57 204.32,-300.14 127.04,-272.11"/>
<polygon fill="#63b8ff" stroke="#63b8ff" points="427.49,-384.82 438.08,-384.94 429.87,-378.24 427.49,-384.82"/>
</a>
</g>
</g>
<!-- Node2&#45;&gt;Node3 -->
<g id="edge2_Node000002_Node000003" class="edge">
<title>Node2&#45;&gt;Node3</title>
<g id="a_edge2_Node000002_Node000003"><a xlink:title=" ">
<path fill="none" stroke="#63b8ff" d="M741.64,-324.64C614.44,-319.35 364.58,-305.4 155,-272 152.11,-271.54 149.17,-271.03 146.21,-270.49"/>
<polygon fill="#63b8ff" stroke="#63b8ff" points="741.56,-328.13 751.7,-325.05 741.85,-321.14 741.56,-328.13"/>
</a>
</g>
</g>
<!-- Node4 -->
<g id="Node000004" class="node">
<title>Node4</title>
<g id="a_Node000004"><a xlink:href="Menu_8h.html" target="_top" xlink:title="Menus support.">
<polygon fill="white" stroke="#666666" points="1156,-272 1010,-272 1010,-231 1156,-231 1156,-272"/>
<text text-anchor="start" x="1018" y="-260" font-family="Helvetica,sans-Serif" font-size="10.00">/home/runner/work/Catena</text>
<text text-anchor="start" x="1018" y="-249" font-family="Helvetica,sans-Serif" font-size="10.00">/Catena/sdks/cpp/common</text>
<text text-anchor="middle" x="1083" y="-238" font-family="Helvetica,sans-Serif" font-size="10.00">/include/Menu.h</text>
</a>
</g>
</g>
<!-- Node2&#45;&gt;Node4 -->
<g id="edge3_Node000002_Node000004" class="edge">
<title>Node2&#45;&gt;Node4</title>
<g id="a_edge3_Node000002_Node000004"><a xlink:title=" ">
<path fill="none" stroke="#63b8ff" d="M902.13,-305.08C938.28,-294.57 980.96,-282.16 1015.78,-272.04"/>
<polygon fill="#63b8ff" stroke="#63b8ff" points="900.74,-301.84 892.11,-307.99 902.69,-308.56 900.74,-301.84"/>
</a>
</g>
</g>
<!-- Node5 -->
<g id="Node000005" class="node">
<title>Node5</title>
<g id="a_Node000005"><a xlink:href="MenuGroup_8h.html" target="_top" xlink:title="MenuGroups support.">
<polygon fill="white" stroke="#666666" points="1270,-195 1124,-195 1124,-154 1270,-154 1270,-195"/>
<text text-anchor="start" x="1132" y="-183" font-family="Helvetica,sans-Serif" font-size="10.00">/home/runner/work/Catena</text>
<text text-anchor="start" x="1132" y="-172" font-family="Helvetica,sans-Serif" font-size="10.00">/Catena/sdks/cpp/common</text>
<text text-anchor="middle" x="1197" y="-161" font-family="Helvetica,sans-Serif" font-size="10.00">/include/MenuGroup.h</text>
</a>
</g>
</g>
<!-- Node2&#45;&gt;Node5 -->
<g id="edge5_Node000002_Node000005" class="edge">
<title>Node2&#45;&gt;Node5</title>
<g id="a_edge5_Node000002_Node000005"><a xlink:title=" ">
<path fill="none" stroke="#63b8ff" d="M908.39,-323.63C996.36,-317.9 1127.36,-304.11 1165,-272 1187.56,-252.76 1194.29,-217.21 1196.25,-195.05"/>
<polygon fill="#63b8ff" stroke="#63b8ff" points="907.92,-320.16 898.16,-324.28 908.36,-327.14 907.92,-320.16"/>
</a>
</g>
</g>
<!-- Node6 -->
<g id="Node000006" class="node">
<title>Node6</title>
<g id="a_Node000006"><a xlink:href="NamedChoiceConstraint_8h.html" target="_top" xlink:title="A constraint that checks if a value is within some named choices.">
<polygon fill="white" stroke="#666666" points="1650.5,-272 1465.5,-272 1465.5,-231 1650.5,-231 1650.5,-272"/>
<text text-anchor="start" x="1473.5" y="-260" font-family="Helvetica,sans-Serif" font-size="10.00">/home/runner/work/Catena</text>
<text text-anchor="start" x="1473.5" y="-249" font-family="Helvetica,sans-Serif" font-size="10.00">/Catena/sdks/cpp/common</text>
<text text-anchor="middle" x="1558" y="-238" font-family="Helvetica,sans-Serif" font-size="10.00">/include/NamedChoiceConstraint.h</text>
</a>
</g>
</g>
<!-- Node2&#45;&gt;Node6 -->
<g id="edge6_Node000002_Node000006" class="edge">
<title>Node2&#45;&gt;Node6</title>
<g id="a_edge6_Node000002_Node000006"><a xlink:title=" ">
<path fill="none" stroke="#63b8ff" d="M908.38,-322.61C1028.77,-314.99 1258.14,-298.35 1452,-272 1456.36,-271.41 1460.81,-270.76 1465.3,-270.07"/>
<polygon fill="#63b8ff" stroke="#63b8ff" points="907.89,-319.14 898.13,-323.26 908.33,-326.12 907.89,-319.14"/>
</a>
</g>
</g>
<!-- Node7 -->
<g id="Node000007" class="node">
<title>Node7</title>
<g id="a_Node000007"><a xlink:href="ParamWithValue_8h.html" target="_top" xlink:title="Interface for acessing parameter values.">
<polygon fill="white" stroke="#666666" points="311.5,-272 164.5,-272 164.5,-231 311.5,-231 311.5,-272"/>
<text text-anchor="start" x="172.5" y="-260" font-family="Helvetica,sans-Serif" font-size="10.00">/home/runner/work/Catena</text>
<text text-anchor="start" x="172.5" y="-249" font-family="Helvetica,sans-Serif" font-size="10.00">/Catena/sdks/cpp/common</text>
<text text-anchor="middle" x="238" y="-238" font-family="Helvetica,sans-Serif" font-size="10.00">/include/ParamWithValue.h</text>
</a>
</g>
</g>
<!-- Node2&#45;&gt;Node7 -->
<g id="edge7_Node000002_Node000007" class="edge">
<title>Node2&#45;&gt;Node7</title>
<g id="a_edge7_Node000002_Node000007"><a xlink:title=" ">
<path fill="none" stroke="#63b8ff" d="M741.51,-321.42C641.18,-313.4 467.99,-297.27 321,-272 317.94,-271.47 314.82,-270.9 311.67,-270.3"/>
<polygon fill="#63b8ff" stroke="#63b8ff" points="741.33,-324.92 751.58,-322.22 741.89,-317.94 741.33,-324.92"/>
</a>
</g>
</g>
<!-- Node8 -->
<g id="Node000008" class="node">
<title>Node8</title>
<g id="a_Node000008"><a xlink:href="PicklistConstraint_8h.html" target="_top" xlink:title="A constraint that checks if a value is in a list of strings.">
<polygon fill="white" stroke="#666666" points="482,-272 330,-272 330,-231 482,-231 482,-272"/>
<text text-anchor="start" x="338" y="-260" font-family="Helvetica,sans-Serif" font-size="10.00">/home/runner/work/Catena</text>
<text text-anchor="start" x="338" y="-249" font-family="Helvetica,sans-Serif" font-size="10.00">/Catena/sdks/cpp/common</text>
<text text-anchor="middle" x="406" y="-238" font-family="Helvetica,sans-Serif" font-size="10.00">/include/PicklistConstraint.h</text>
</a>
</g>
</g>
<!-- Node2&#45;&gt;Node8 -->
<g id="edge8_Node000002_Node000008" class="edge">
<title>Node2&#45;&gt;Node8</title>
<g id="a_edge8_Node000002_Node000008"><a xlink:title=" ">
<path fill="none" stroke="#63b8ff" d="M741.61,-315.09C673.89,-304.66 576.02,-288.8 491,-272 488.18,-271.44 485.31,-270.86 482.41,-270.26"/>
<polygon fill="#63b8ff" stroke="#63b8ff" points="741.38,-318.59 751.79,-316.65 742.44,-311.67 741.38,-318.59"/>
</a>
</g>
</g>
<!-- Node9 -->
<g id="Node000009" class="node">
<title>Node9</title>
<g id="a_Node000009"><a xlink:href="RangeConstraint_8h.html" target="_top" xlink:title="A constraint that checks if a value is within a range.">
<polygon fill="white" stroke="#666666" points="648,-272 500,-272 500,-231 648,-231 648,-272"/>
<text text-anchor="start" x="508" y="-260" font-family="Helvetica,sans-Serif" font-size="10.00">/home/runner/work/Catena</text>
<text text-anchor="start" x="508" y="-249" font-family="Helvetica,sans-Serif" font-size="10.00">/Catena/sdks/cpp/common</text>
<text text-anchor="middle" x="574" y="-238" font-family="Helvetica,sans-Serif" font-size="10.00">/include/RangeConstraint.h</text>
</a>
</g>
</g>
<!-- Node2&#45;&gt;Node9 -->
<g id="edge9_Node000002_Node000009" class="edge">
<title>Node2&#45;&gt;Node9</title>
<g id="a_edge9_Node000002_Node000009"><a xlink:title=" ">
<path fill="none" stroke="#63b8ff" d="M749.97,-305.08C714.79,-294.57 673.27,-282.16 639.4,-272.04"/>
<polygon fill="#63b8ff" stroke="#63b8ff" points="749.12,-308.48 759.71,-307.99 751.13,-301.77 749.12,-308.48"/>
</a>
</g>
</g>
<!-- Node10 -->
<g id="Node000010" class="node">
<title>Node10</title>
<g id="a_Node000010"><a xlink:href="common_2include_2rpc_2Connect_8h_source.html" target="_top" xlink:title=" ">
<polygon fill="white" stroke="#666666" points="812,-272 666,-272 666,-231 812,-231 812,-272"/>
<text text-anchor="start" x="674" y="-260" font-family="Helvetica,sans-Serif" font-size="10.00">/home/runner/work/Catena</text>
<text text-anchor="start" x="674" y="-249" font-family="Helvetica,sans-Serif" font-size="10.00">/Catena/sdks/cpp/common</text>
<text text-anchor="middle" x="739" y="-238" font-family="Helvetica,sans-Serif" font-size="10.00">/include/rpc/Connect.h</text>
</a>
</g>
</g>
<!-- Node2&#45;&gt;Node10 -->
<g id="edge10_Node000002_Node000010" class="edge">
<title>Node2&#45;&gt;Node10</title>
<g id="a_edge10_Node000002_Node000010"><a xlink:title=" ">
<path fill="none" stroke="#63b8ff" d="M794.69,-301.07C783.75,-291.52 771.6,-280.93 761.44,-272.07"/>
<polygon fill="#63b8ff" stroke="#63b8ff" points="792.57,-303.86 802.4,-307.79 797.17,-298.58 792.57,-303.86"/>
</a>
</g>
</g>
<!-- Node12 -->
<g id="Node000012" class="node">
<title>Node12</title>
<g id="a_Node000012"><a xlink:href="api_8h.html" target="_top" xlink:title="Implements REST API.">
<polygon fill="white" stroke="#666666" points="991.5,-272 830.5,-272 830.5,-231 991.5,-231 991.5,-272"/>
<text text-anchor="start" x="838.5" y="-260" font-family="Helvetica,sans-Serif" font-size="10.00">/home/runner/work/Catena</text>
<text text-anchor="start" x="838.5" y="-249" font-family="Helvetica,sans-Serif" font-size="10.00">/Catena/sdks/cpp/connections</text>
<text text-anchor="middle" x="911" y="-238" font-family="Helvetica,sans-Serif" font-size="10.00">/REST/include/api.h</text>
</a>
</g>
</g>
<!-- Node2&#45;&gt;Node12 -->
<g id="edge12_Node000002_Node000012" class="edge">
<title>Node2&#45;&gt;Node12</title>
<g id="a_edge12_Node000002_Node000012"><a xlink:title=" ">
<path fill="none" stroke="#63b8ff" d="M855.31,-301.07C866.25,-291.52 878.4,-280.93 888.56,-272.07"/>
<polygon fill="#63b8ff" stroke="#63b8ff" points="852.83,-298.58 847.6,-307.79 857.43,-303.86 852.83,-298.58"/>
</a>
</g>
</g>
<!-- Node18 -->
<g id="Node000018" class="node">
<title>Node18</title>
<g id="a_Node000018"><a xlink:href="ServiceImpl_8h.html" target="_top" xlink:title="Implements Catena gRPC request handlers.">
<polygon fill="white" stroke="#666666" points="1947.5,-195 1786.5,-195 1786.5,-154 1947.5,-154 1947.5,-195"/>
<text text-anchor="start" x="1794.5" y="-183" font-family="Helvetica,sans-Serif" font-size="10.00">/home/runner/work/Catena</text>
<text text-anchor="start" x="1794.5" y="-172" font-family="Helvetica,sans-Serif" font-size="10.00">/Catena/sdks/cpp/connections</text>
<text text-anchor="middle" x="1867" y="-161" font-family="Helvetica,sans-Serif" font-size="10.00">/gRPC/include/ServiceImpl.h</text>
</a>
</g>
</g>
<!-- Node2&#45;&gt;Node18 -->
<g id="edge19_Node000002_Node000018" class="edge">
<title>Node2&#45;&gt;Node18</title>
<g id="a_edge19_Node000002_Node000018"><a xlink:title=" ">
<path fill="none" stroke="#63b8ff" d="M908.51,-326.97C1050.32,-324.88 1331.38,-315.22 1419,-272 1441.28,-261.01 1434.95,-242.45 1457,-231 1512.7,-202.08 1683.4,-186.78 1786.15,-179.98"/>
<polygon fill="#63b8ff" stroke="#63b8ff" points="908.08,-323.48 898.13,-327.11 908.17,-330.48 908.08,-323.48"/>
</a>
</g>
</g>
<!-- Node33 -->
<g id="Node000033" class="node">
<title>Node33</title>
<g id="a_Node000033"><a xlink:href="SubscriptionManager_8h.html" target="_top" xlink:title="Centralized manager for parameter subscriptions in gRPC connections.">
<polygon fill="white" stroke="#666666" points="1409.5,-272 1212.5,-272 1212.5,-231 1409.5,-231 1409.5,-272"/>
<text text-anchor="start" x="1220.5" y="-260" font-family="Helvetica,sans-Serif" font-size="10.00">/home/runner/work/Catena</text>
<text text-anchor="start" x="1220.5" y="-249" font-family="Helvetica,sans-Serif" font-size="10.00">/Catena/sdks/cpp/connections</text>
<text text-anchor="middle" x="1311" y="-238" font-family="Helvetica,sans-Serif" font-size="10.00">/gRPC/include/SubscriptionManager.h</text>
</a>
</g>
</g>
<!-- Node2&#45;&gt;Node33 -->
<g id="edge35_Node000002_Node000033" class="edge">
<title>Node2&#45;&gt;Node33</title>
<g id="a_edge35_Node000002_Node000033"><a xlink:title=" ">
<path fill="none" stroke="#63b8ff" d="M908.28,-315.67C983.93,-304.79 1098.55,-287.98 1198,-272 1202.72,-271.24 1207.54,-270.45 1212.42,-269.65"/>
<polygon fill="#63b8ff" stroke="#63b8ff" points="907.73,-312.21 898.33,-317.1 908.73,-319.14 907.73,-312.21"/>
</a>
</g>
</g>
<!-- Node4&#45;&gt;Node5 -->
<g id="edge4_Node000004_Node000005" class="edge">
<title>Node4&#45;&gt;Node5</title>
<g id="a_edge4_Node000004_Node000005"><a xlink:title=" ">
<path fill="none" stroke="#63b8ff" d="M1121.2,-225.37C1136.16,-215.53 1153.06,-204.41 1167.1,-195.17"/>
<polygon fill="#63b8ff" stroke="#63b8ff" points="1119.09,-222.57 1112.65,-230.99 1122.93,-228.42 1119.09,-222.57"/>
</a>
</g>
</g>
<!-- Node11 -->
<g id="Node000011" class="node">
<title>Node11</title>
<g id="a_Node000011"><a xlink:href="connections_2REST_2include_2Connect_8h.html" target="_top" xlink:title="Implements REST Connect RPC.">
<polygon fill="white" stroke="#666666" points="357.5,-195 196.5,-195 196.5,-154 357.5,-154 357.5,-195"/>
<text text-anchor="start" x="204.5" y="-183" font-family="Helvetica,sans-Serif" font-size="10.00">/home/runner/work/Catena</text>
<text text-anchor="start" x="204.5" y="-172" font-family="Helvetica,sans-Serif" font-size="10.00">/Catena/sdks/cpp/connections</text>
<text text-anchor="middle" x="277" y="-161" font-family="Helvetica,sans-Serif" font-size="10.00">/REST/include/Connect.h</text>
</a>
</g>
</g>
<!-- Node10&#45;&gt;Node11 -->
<g id="edge11_Node000010_Node000011" class="edge">
<title>Node10&#45;&gt;Node11</title>
<g id="a_edge11_Node000010_Node000011"><a xlink:title=" ">
<path fill="none" stroke="#63b8ff" d="M655.91,-230.91C527.02,-208.31 491.32,-216.43 366,-195 363.35,-194.55 360.66,-194.07 357.94,-193.57"/>
<polygon fill="#63b8ff" stroke="#63b8ff" points="655.31,-234.35 665.77,-232.66 656.54,-227.46 655.31,-234.35"/>
</a>
</g>
</g>
<!-- Node12&#45;&gt;Node11 -->
<g id="edge13_Node000012_Node000011" class="edge">
<title>Node12&#45;&gt;Node11</title>
<g id="a_edge13_Node000012_Node000011"><a xlink:title=" ">
<path fill="none" stroke="#63b8ff" d="M820.12,-230.99C618.54,-202.19 563.42,-224.3 366,-195 363.34,-194.61 360.64,-194.18 357.92,-193.72"/>
<polygon fill="#63b8ff" stroke="#63b8ff" points="819.74,-234.47 830.14,-232.44 820.75,-227.54 819.74,-234.47"/>
</a>
</g>
</g>
<!-- Node13 -->
<g id="Node000013" class="node">
<title>Node13</title>
<g id="a_Node000013"><a xlink:href="REST_2include_2DeviceRequest_8h.html" target="_top" xlink:title="Implements REST DeviceRequest RPC.">
<polygon fill="white" stroke="#666666" points="903,-195 735,-195 735,-154 903,-154 903,-195"/>
<text text-anchor="start" x="743" y="-183" font-family="Helvetica,sans-Serif" font-size="10.00">/home/runner/work/Catena</text>
<text text-anchor="start" x="743" y="-172" font-family="Helvetica,sans-Serif" font-size="10.00">/Catena/sdks/cpp/connections</text>
<text text-anchor="middle" x="819" y="-161" font-family="Helvetica,sans-Serif" font-size="10.00">/REST/include/DeviceRequest.h</text>
</a>
</g>
</g>
<!-- Node12&#45;&gt;Node13 -->
<g id="edge14_Node000012_Node000013" class="edge">
<title>Node12&#45;&gt;Node13</title>
<g id="a_edge14_Node000012_Node000013"><a xlink:title=" ">
<path fill="none" stroke="#63b8ff" d="M878.92,-224.35C867.12,-214.73 853.98,-204.01 843.01,-195.07"/>
<polygon fill="#63b8ff" stroke="#63b8ff" points="876.87,-227.19 886.83,-230.79 881.29,-221.76 876.87,-227.19"/>
</a>
</g>
</g>
<!-- Node14 -->
<g id="Node000014" class="node">
<title>Node14</title>
<g id="a_Node000014"><a xlink:href="REST_2include_2GetPopulatedSlots_8h.html" target="_top" xlink:title="Implements REST GetPopulatedSlots RPC.">
<polygon fill="white" stroke="#666666" points="1105.5,-195 920.5,-195 920.5,-154 1105.5,-154 1105.5,-195"/>
<text text-anchor="start" x="928.5" y="-183" font-family="Helvetica,sans-Serif" font-size="10.00">/home/runner/work/Catena</text>
<text text-anchor="start" x="928.5" y="-172" font-family="Helvetica,sans-Serif" font-size="10.00">/Catena/sdks/cpp/connections</text>
<text text-anchor="middle" x="1013" y="-161" font-family="Helvetica,sans-Serif" font-size="10.00">/REST/include/GetPopulatedSlots.h</text>
</a>
</g>
</g>
<!-- Node12&#45;&gt;Node14 -->
<g id="edge15_Node000012_Node000014" class="edge">
<title>Node12&#45;&gt;Node14</title>
<g id="a_edge15_Node000012_Node000014"><a xlink:title=" ">
<path fill="none" stroke="#63b8ff" d="M945.93,-224.82C959.12,-215.11 973.92,-204.24 986.25,-195.17"/>
<polygon fill="#63b8ff" stroke="#63b8ff" points="943.52,-222.25 937.53,-230.99 947.66,-227.89 943.52,-222.25"/>
</a>
</g>
</g>
<!-- Node15 -->
<g id="Node000015" class="node">
<title>Node15</title>
<g id="a_Node000015"><a xlink:href="REST_2include_2GetValue_8h.html" target="_top" xlink:title="Implements REST GetValue RPC.">
<polygon fill="white" stroke="#666666" points="536.5,-195 375.5,-195 375.5,-154 536.5,-154 536.5,-195"/>
<text text-anchor="start" x="383.5" y="-183" font-family="Helvetica,sans-Serif" font-size="10.00">/home/runner/work/Catena</text>
<text text-anchor="start" x="383.5" y="-172" font-family="Helvetica,sans-Serif" font-size="10.00">/Catena/sdks/cpp/connections</text>
<text text-anchor="middle" x="456" y="-161" font-family="Helvetica,sans-Serif" font-size="10.00">/REST/include/GetValue.h</text>
</a>
</g>
</g>
<!-- Node12&#45;&gt;Node15 -->
<g id="edge16_Node000012_Node000015" class="edge">
<title>Node12&#45;&gt;Node15</title>
<g id="a_edge16_Node000012_Node000015"><a xlink:title=" ">
<path fill="none" stroke="#63b8ff" d="M819.98,-230.9C697.79,-210.24 664.25,-215.51 546,-195 543.01,-194.48 539.96,-193.93 536.89,-193.36"/>
<polygon fill="#63b8ff" stroke="#63b8ff" points="819.66,-234.4 830.11,-232.64 820.85,-227.5 819.66,-234.4"/>
</a>
</g>
</g>
<!-- Node16 -->
<g id="Node000016" class="node">
<title>Node16</title>
<g id="a_Node000016"><a xlink:href="REST_2include_2MultiSetValue_8h.html" target="_top" xlink:title="Implements REST MultiSetValue RPC.">
<polygon fill="white" stroke="#666666" points="717,-195 555,-195 555,-154 717,-154 717,-195"/>
<text text-anchor="start" x="563" y="-183" font-family="Helvetica,sans-Serif" font-size="10.00">/home/runner/work/Catena</text>
<text text-anchor="start" x="563" y="-172" font-family="Helvetica,sans-Serif" font-size="10.00">/Catena/sdks/cpp/connections</text>
<text text-anchor="middle" x="636" y="-161" font-family="Helvetica,sans-Serif" font-size="10.00">/REST/include/MultiSetValue.h</text>
</a>
</g>
</g>
<!-- Node12&#45;&gt;Node16 -->
<g id="edge17_Node000012_Node000016" class="edge">
<title>Node12&#45;&gt;Node16</title>
<g id="a_edge17_Node000012_Node000016"><a xlink:title=" ">
<path fill="none" stroke="#63b8ff" d="M829.78,-228.35C791.03,-217.78 745.08,-205.25 707.65,-195.04"/>
<polygon fill="#63b8ff" stroke="#63b8ff" points="828.9,-231.74 839.46,-230.99 830.74,-224.98 828.9,-231.74"/>
</a>
</g>
</g>
<!-- Node17 -->
<g id="Node000017" class="node">
<title>Node17</title>
<g id="a_Node000017"><a xlink:href="REST_2include_2SetValue_8h.html" target="_top" xlink:title="Implements REST SetValue RPC.">
<polygon fill="white" stroke="#666666" points="716.5,-118 555.5,-118 555.5,-77 716.5,-77 716.5,-118"/>
<text text-anchor="start" x="563.5" y="-106" font-family="Helvetica,sans-Serif" font-size="10.00">/home/runner/work/Catena</text>
<text text-anchor="start" x="563.5" y="-95" font-family="Helvetica,sans-Serif" font-size="10.00">/Catena/sdks/cpp/connections</text>
<text text-anchor="middle" x="636" y="-84" font-family="Helvetica,sans-Serif" font-size="10.00">/REST/include/SetValue.h</text>
</a>
</g>
</g>
<!-- Node16&#45;&gt;Node17 -->
<g id="edge18_Node000016_Node000017" class="edge">
<title>Node16&#45;&gt;Node17</title>
<g id="a_edge18_Node000016_Node000017"><a xlink:title=" ">
<path fill="none" stroke="#63b8ff" d="M636,-143.69C636,-135.08 636,-125.9 636,-118.07"/>
<polygon fill="#63b8ff" stroke="#63b8ff" points="632.5,-143.79 636,-153.79 639.5,-143.79 632.5,-143.79"/>
</a>
</g>
</g>
<!-- Node19 -->
<g id="Node000019" class="node">
<title>Node19</title>
<g id="a_Node000019"><a xlink:href="AddLanguage_8h.html" target="_top" xlink:title="Implements Catena gRPC AddLanguage.">
<polygon fill="white" stroke="#666666" points="1845.5,-118 1684.5,-118 1684.5,-77 1845.5,-77 1845.5,-118"/>
<text text-anchor="start" x="1692.5" y="-106" font-family="Helvetica,sans-Serif" font-size="10.00">/home/runner/work/Catena</text>
<text text-anchor="start" x="1692.5" y="-95" font-family="Helvetica,sans-Serif" font-size="10.00">/Catena/sdks/cpp/connections</text>
<text text-anchor="middle" x="1765" y="-84" font-family="Helvetica,sans-Serif" font-size="10.00">/gRPC/include/AddLanguage.h</text>
</a>
</g>
</g>
<!-- Node18&#45;&gt;Node19 -->
<g id="edge20_Node000018_Node000019" class="edge">
<title>Node18&#45;&gt;Node19</title>
<g id="a_edge20_Node000018_Node000019"><a xlink:title=" ">
<path fill="none" stroke="#63b8ff" d="M1832.07,-147.82C1818.88,-138.11 1804.08,-127.24 1791.75,-118.17"/>
<polygon fill="#63b8ff" stroke="#63b8ff" points="1830.34,-150.89 1840.47,-153.99 1834.48,-145.25 1830.34,-150.89"/>
</a>
</g>
</g>
<!-- Node20 -->
<g id="Node000020" class="node">
<title>Node20</title>
<g id="a_Node000020"><a xlink:href="BasicParamInfoRequest_8h_source.html" target="_top" xlink:title=" ">
<polygon fill="white" stroke="#666666" points="2074.5,-118 1863.5,-118 1863.5,-77 2074.5,-77 2074.5,-118"/>
<text text-anchor="start" x="1871.5" y="-106" font-family="Helvetica,sans-Serif" font-size="10.00">/home/runner/work/Catena</text>
<text text-anchor="start" x="1871.5" y="-95" font-family="Helvetica,sans-Serif" font-size="10.00">/Catena/sdks/cpp/connections</text>
<text text-anchor="middle" x="1969" y="-84" font-family="Helvetica,sans-Serif" font-size="10.00">/gRPC/include/BasicParamInfoRequest.h</text>
</a>
</g>
</g>
<!-- Node18&#45;&gt;Node20 -->
<g id="edge21_Node000018_Node000020" class="edge">
<title>Node18&#45;&gt;Node20</title>
<g id="a_edge21_Node000018_Node000020"><a xlink:title=" ">
<path fill="none" stroke="#63b8ff" d="M1901.93,-147.82C1915.12,-138.11 1929.92,-127.24 1942.25,-118.17"/>
<polygon fill="#63b8ff" stroke="#63b8ff" points="1899.52,-145.25 1893.53,-153.99 1903.66,-150.89 1899.52,-145.25"/>
</a>
</g>
</g>
<!-- Node21 -->
<g id="Node000021" class="node">
<title>Node21</title>
<g id="a_Node000021"><a xlink:href="connections_2gRPC_2include_2Connect_8h.html" target="_top" xlink:title="Implements Catena gRPC Connect.">
<polygon fill="white" stroke="#666666" points="1263.5,-118 1102.5,-118 1102.5,-77 1263.5,-77 1263.5,-118"/>
<text text-anchor="start" x="1110.5" y="-106" font-family="Helvetica,sans-Serif" font-size="10.00">/home/runner/work/Catena</text>
<text text-anchor="start" x="1110.5" y="-95" font-family="Helvetica,sans-Serif" font-size="10.00">/Catena/sdks/cpp/connections</text>
<text text-anchor="middle" x="1183" y="-84" font-family="Helvetica,sans-Serif" font-size="10.00">/gRPC/include/Connect.h</text>
</a>
</g>
</g>
<!-- Node18&#45;&gt;Node21 -->
<g id="edge22_Node000018_Node000021" class="edge">
<title>Node18&#45;&gt;Node21</title>
<g id="a_edge22_Node000018_Node000021"><a xlink:title=" ">
<path fill="none" stroke="#63b8ff" d="M1776.07,-168.41C1659.16,-161.09 1450.11,-145.36 1273,-118 1270,-117.54 1266.95,-117.03 1263.87,-116.5"/>
<polygon fill="#63b8ff" stroke="#63b8ff" points="1776.2,-171.93 1786.4,-169.05 1776.63,-164.94 1776.2,-171.93"/>
</a>
</g>
</g>
<!-- Node22 -->
<g id="Node000022" class="node">
<title>Node22</title>
<g id="a_Node000022"><a xlink:href="gRPC_2include_2DeviceRequest_8h.html" target="_top" xlink:title="Implements Catena gRPC DeviceRequest.">
<polygon fill="white" stroke="#666666" points="2261.5,-118 2092.5,-118 2092.5,-77 2261.5,-77 2261.5,-118"/>
<text text-anchor="start" x="2100.5" y="-106" font-family="Helvetica,sans-Serif" font-size="10.00">/home/runner/work/Catena</text>
<text text-anchor="start" x="2100.5" y="-95" font-family="Helvetica,sans-Serif" font-size="10.00">/Catena/sdks/cpp/connections</text>
<text text-anchor="middle" x="2177" y="-84" font-family="Helvetica,sans-Serif" font-size="10.00">/gRPC/include/DeviceRequest.h</text>
</a>
</g>
</g>
<!-- Node18&#45;&gt;Node22 -->
<g id="edge23_Node000018_Node000022" class="edge">
<title>Node18&#45;&gt;Node22</title>
<g id="a_edge23_Node000018_Node000022"><a xlink:title=" ">
<path fill="none" stroke="#63b8ff" d="M1957.45,-151.62C2001.36,-140.99 2053.68,-128.34 2096.23,-118.04"/>
<polygon fill="#63b8ff" stroke="#63b8ff" points="1956.54,-148.24 1947.64,-153.99 1958.18,-155.04 1956.54,-148.24"/>
</a>
</g>
</g>
<!-- Node23 -->
<g id="Node000023" class="node">
<title>Node23</title>
<g id="a_Node000023"><a xlink:href="ExecuteCommand_8h.html" target="_top" xlink:title="Implements Catena gRPC ExecuteCommand.">
<polygon fill="white" stroke="#666666" points="2464,-118 2280,-118 2280,-77 2464,-77 2464,-118"/>
<text text-anchor="start" x="2288" y="-106" font-family="Helvetica,sans-Serif" font-size="10.00">/home/runner/work/Catena</text>
<text text-anchor="start" x="2288" y="-95" font-family="Helvetica,sans-Serif" font-size="10.00">/Catena/sdks/cpp/connections</text>
<text text-anchor="middle" x="2372" y="-84" font-family="Helvetica,sans-Serif" font-size="10.00">/gRPC/include/ExecuteCommand.h</text>
</a>
</g>
</g>
<!-- Node18&#45;&gt;Node23 -->
<g id="edge24_Node000018_Node000023" class="edge">
<title>Node18&#45;&gt;Node23</title>
<g id="a_edge24_Node000018_Node000023"><a xlink:title=" ">
<path fill="none" stroke="#63b8ff" d="M1957.72,-162.47C2039.74,-152.15 2163.71,-135.71 2271,-118 2273.91,-117.52 2276.86,-117.02 2279.84,-116.51"/>
<polygon fill="#63b8ff" stroke="#63b8ff" points="1957.16,-159.01 1947.68,-163.72 1958.04,-165.95 1957.16,-159.01"/>
</a>
</g>
</g>
<!-- Node24 -->
<g id="Node000024" class="node">
<title>Node24</title>
<g id="a_Node000024"><a xlink:href="ExternalObjectRequest_8h.html" target="_top" xlink:title="Implements Catena gRPC ExternalObjectRequest.">
<polygon fill="white" stroke="#666666" points="2689.5,-118 2482.5,-118 2482.5,-77 2689.5,-77 2689.5,-118"/>
<text text-anchor="start" x="2490.5" y="-106" font-family="Helvetica,sans-Serif" font-size="10.00">/home/runner/work/Catena</text>
<text text-anchor="start" x="2490.5" y="-95" font-family="Helvetica,sans-Serif" font-size="10.00">/Catena/sdks/cpp/connections</text>
<text text-anchor="middle" x="2586" y="-84" font-family="Helvetica,sans-Serif" font-size="10.00">/gRPC/include/ExternalObjectRequest.h</text>
</a>
</g>
</g>
<!-- Node18&#45;&gt;Node24 -->
<g id="edge25_Node000018_Node000024" class="edge">
<title>Node18&#45;&gt;Node24</title>
<g id="a_edge25_Node000018_Node000024"><a xlink:title=" ">
<path fill="none" stroke="#63b8ff" d="M1957.74,-167.45C2076.46,-159.02 2290.82,-142.02 2473,-118 2476.06,-117.6 2479.16,-117.17 2482.29,-116.73"/>
<polygon fill="#63b8ff" stroke="#63b8ff" points="1957.34,-163.97 1947.61,-168.17 1957.83,-170.95 1957.34,-163.97"/>
</a>
</g>
</g>
<!-- Node25 -->
<g id="Node000025" class="node">
<title>Node25</title>
<g id="a_Node000025"><a xlink:href="GetParam_8h.html" target="_top" xlink:title="Implements Catena gRPC GetParam.">
<polygon fill="white" stroke="#666666" points="2868.5,-118 2707.5,-118 2707.5,-77 2868.5,-77 2868.5,-118"/>
<text text-anchor="start" x="2715.5" y="-106" font-family="Helvetica,sans-Serif" font-size="10.00">/home/runner/work/Catena</text>
<text text-anchor="start" x="2715.5" y="-95" font-family="Helvetica,sans-Serif" font-size="10.00">/Catena/sdks/cpp/connections</text>
<text text-anchor="middle" x="2788" y="-84" font-family="Helvetica,sans-Serif" font-size="10.00">/gRPC/include/GetParam.h</text>
</a>
</g>
</g>
<!-- Node18&#45;&gt;Node25 -->
<g id="edge26_Node000018_Node000025" class="edge">
<title>Node18&#45;&gt;Node25</title>
<g id="a_edge26_Node000018_Node000025"><a xlink:title=" ">
<path fill="none" stroke="#63b8ff" d="M1958.05,-171.86C2111.57,-168.11 2431.4,-156.03 2699,-118 2701.66,-117.62 2704.36,-117.21 2707.09,-116.76"/>
<polygon fill="#63b8ff" stroke="#63b8ff" points="1957.64,-168.37 1947.73,-172.11 1957.81,-175.37 1957.64,-168.37"/>
</a>
</g>
</g>
<!-- Node26 -->
<g id="Node000026" class="node">
<title>Node26</title>
<g id="a_Node000026"><a xlink:href="gRPC_2include_2GetPopulatedSlots_8h.html" target="_top" xlink:title="Implements Catena gRPC GetPopulatedSlots.">
<polygon fill="white" stroke="#666666" points="3071.5,-118 2886.5,-118 2886.5,-77 3071.5,-77 3071.5,-118"/>
<text text-anchor="start" x="2894.5" y="-106" font-family="Helvetica,sans-Serif" font-size="10.00">/home/runner/work/Catena</text>
<text text-anchor="start" x="2894.5" y="-95" font-family="Helvetica,sans-Serif" font-size="10.00">/Catena/sdks/cpp/connections</text>
<text text-anchor="middle" x="2979" y="-84" font-family="Helvetica,sans-Serif" font-size="10.00">/gRPC/include/GetPopulatedSlots.h</text>
</a>
</g>
</g>
<!-- Node18&#45;&gt;Node26 -->
<g id="edge27_Node000018_Node000026" class="edge">
<title>Node18&#45;&gt;Node26</title>
<g id="a_edge27_Node000018_Node000026"><a xlink:title=" ">
<path fill="none" stroke="#63b8ff" d="M1957.67,-172.64C2135.07,-170.06 2540.21,-159.68 2878,-118 2880.75,-117.66 2883.53,-117.29 2886.34,-116.9"/>
<polygon fill="#63b8ff" stroke="#63b8ff" points="1957.55,-169.15 1947.6,-172.79 1957.65,-176.15 1957.55,-169.15"/>
</a>
</g>
</g>
<!-- Node27 -->
<g id="Node000027" class="node">
<title>Node27</title>
<g id="a_Node000027"><a xlink:href="gRPC_2include_2GetValue_8h.html" target="_top" xlink:title="Implements Catena gRPC GetValue.">
<polygon fill="white" stroke="#666666" points="3250.5,-118 3089.5,-118 3089.5,-77 3250.5,-77 3250.5,-118"/>
<text text-anchor="start" x="3097.5" y="-106" font-family="Helvetica,sans-Serif" font-size="10.00">/home/runner/work/Catena</text>
<text text-anchor="start" x="3097.5" y="-95" font-family="Helvetica,sans-Serif" font-size="10.00">/Catena/sdks/cpp/connections</text>
<text text-anchor="middle" x="3170" y="-84" font-family="Helvetica,sans-Serif" font-size="10.00">/gRPC/include/GetValue.h</text>
</a>
</g>
</g>
<!-- Node18&#45;&gt;Node27 -->
<g id="edge28_Node000018_Node000027" class="edge">
<title>Node18&#45;&gt;Node27</title>
<g id="a_edge28_Node000018_Node000027"><a xlink:title=" ">
<path fill="none" stroke="#63b8ff" d="M1957.77,-171.35C2201.06,-165.27 2863.95,-146.53 3081,-118 3083.67,-117.65 3086.37,-117.26 3089.1,-116.84"/>
<polygon fill="#63b8ff" stroke="#63b8ff" points="1957.46,-167.86 1947.55,-171.61 1957.64,-174.86 1957.46,-167.86"/>
</a>
</g>
</g>
<!-- Node28 -->
<g id="Node000028" class="node">
<title>Node28</title>
<g id="a_Node000028"><a xlink:href="LanguagePackRequest_8h.html" target="_top" xlink:title="Implements Catena gRPC LanguagePackRequest.">
<polygon fill="white" stroke="#666666" points="3473.5,-118 3268.5,-118 3268.5,-77 3473.5,-77 3473.5,-118"/>
<text text-anchor="start" x="3276.5" y="-106" font-family="Helvetica,sans-Serif" font-size="10.00">/home/runner/work/Catena</text>
<text text-anchor="start" x="3276.5" y="-95" font-family="Helvetica,sans-Serif" font-size="10.00">/Catena/sdks/cpp/connections</text>
<text text-anchor="middle" x="3371" y="-84" font-family="Helvetica,sans-Serif" font-size="10.00">/gRPC/include/LanguagePackRequest.h</text>
</a>
</g>
</g>
<!-- Node18&#45;&gt;Node28 -->
<g id="edge29_Node000018_Node000028" class="edge">
<title>Node18&#45;&gt;Node28</title>
<g id="a_edge29_Node000018_Node000028"><a xlink:title=" ">
<path fill="none" stroke="#63b8ff" d="M1957.75,-174.08C2180.34,-174.61 2770.87,-170.47 3260,-118 3262.72,-117.71 3265.48,-117.39 3268.26,-117.05"/>
<polygon fill="#63b8ff" stroke="#63b8ff" points="1957.76,-170.59 1947.75,-174.06 1957.74,-177.59 1957.76,-170.59"/>
</a>
</g>
</g>
<!-- Node29 -->
<g id="Node000029" class="node">
<title>Node29</title>
<g id="a_Node000029"><a xlink:href="ListLanguages_8h.html" target="_top" xlink:title="Implements Catena gRPC ListLanguages.">
<polygon fill="white" stroke="#666666" points="1446.5,-118 1281.5,-118 1281.5,-77 1446.5,-77 1446.5,-118"/>
<text text-anchor="start" x="1289.5" y="-106" font-family="Helvetica,sans-Serif" font-size="10.00">/home/runner/work/Catena</text>
<text text-anchor="start" x="1289.5" y="-95" font-family="Helvetica,sans-Serif" font-size="10.00">/Catena/sdks/cpp/connections</text>
<text text-anchor="middle" x="1364" y="-84" font-family="Helvetica,sans-Serif" font-size="10.00">/gRPC/include/ListLanguages.h</text>
</a>
</g>
</g>
<!-- Node18&#45;&gt;Node29 -->
<g id="edge30_Node000018_Node000029" class="edge">
<title>Node18&#45;&gt;Node29</title>
<g id="a_edge30_Node000018_Node000029"><a xlink:title=" ">
<path fill="none" stroke="#63b8ff" d="M1776.44,-163.24C1692.96,-153.32 1565.76,-137.02 1456,-118 1452.94,-117.47 1449.83,-116.91 1446.7,-116.33"/>
<polygon fill="#63b8ff" stroke="#63b8ff" points="1776.06,-166.72 1786.4,-164.42 1776.88,-159.77 1776.06,-166.72"/>
</a>
</g>
</g>
<!-- Node30 -->
<g id="Node000030" class="node">
<title>Node30</title>
<g id="a_Node000030"><a xlink:href="gRPC_2include_2MultiSetValue_8h.html" target="_top" xlink:title="Generic CallData class for the SetValue and MultiSetValue RPCs.">
<polygon fill="white" stroke="#666666" points="1627.5,-118 1464.5,-118 1464.5,-77 1627.5,-77 1627.5,-118"/>
<text text-anchor="start" x="1472.5" y="-106" font-family="Helvetica,sans-Serif" font-size="10.00">/home/runner/work/Catena</text>
<text text-anchor="start" x="1472.5" y="-95" font-family="Helvetica,sans-Serif" font-size="10.00">/Catena/sdks/cpp/connections</text>
<text text-anchor="middle" x="1546" y="-84" font-family="Helvetica,sans-Serif" font-size="10.00">/gRPC/include/MultiSetValue.h</text>
</a>
</g>
</g>
<!-- Node18&#45;&gt;Node30 -->
<g id="edge31_Node000018_Node000030" class="edge">
<title>Node18&#45;&gt;Node30</title>
<g id="a_edge31_Node000018_Node000030"><a xlink:title=" ">
<path fill="none" stroke="#63b8ff" d="M1776.59,-152.38C1729.83,-141.45 1673.18,-128.22 1627.74,-117.6"/>
<polygon fill="#63b8ff" stroke="#63b8ff" points="1775.88,-155.8 1786.41,-154.67 1777.47,-148.99 1775.88,-155.8"/>
</a>
</g>
</g>
<!-- Node31 -->
<g id="Node000031" class="node">
<title>Node31</title>
<g id="a_Node000031"><a xlink:href="gRPC_2include_2SetValue_8h.html" target="_top" xlink:title="Implements Catena gRPC SetValue.">
<polygon fill="white" stroke="#666666" points="1681.5,-41 1520.5,-41 1520.5,0 1681.5,0 1681.5,-41"/>
<text text-anchor="start" x="1528.5" y="-29" font-family="Helvetica,sans-Serif" font-size="10.00">/home/runner/work/Catena</text>
<text text-anchor="start" x="1528.5" y="-18" font-family="Helvetica,sans-Serif" font-size="10.00">/Catena/sdks/cpp/connections</text>
<text text-anchor="middle" x="1601" y="-7" font-family="Helvetica,sans-Serif" font-size="10.00">/gRPC/include/SetValue.h</text>
</a>
</g>
</g>
<!-- Node18&#45;&gt;Node31 -->
<g id="edge33_Node000018_Node000031" class="edge">
<title>Node18&#45;&gt;Node31</title>
<g id="a_edge33_Node000018_Node000031"><a xlink:title=" ">
<path fill="none" stroke="#63b8ff" d="M1776.59,-159.42C1742.96,-151.17 1705.77,-138.21 1676,-118 1660.64,-107.57 1631.23,-66.31 1614.16,-41.24"/>
<polygon fill="#63b8ff" stroke="#63b8ff" points="1775.89,-162.85 1786.43,-161.73 1777.49,-156.04 1775.89,-162.85"/>
</a>
</g>
</g>
<!-- Node32 -->
<g id="Node000032" class="node">
<title>Node32</title>
<g id="a_Node000032"><a xlink:href="UpdateSubscriptions_8h.html" target="_top" xlink:title="Implements Catena gRPC UpdateSubscriptions.">
<polygon fill="white" stroke="#666666" points="1084,-118 888,-118 888,-77 1084,-77 1084,-118"/>
<text text-anchor="start" x="896" y="-106" font-family="Helvetica,sans-Serif" font-size="10.00">/home/runner/work/Catena</text>
<text text-anchor="start" x="896" y="-95" font-family="Helvetica,sans-Serif" font-size="10.00">/Catena/sdks/cpp/connections</text>
<text text-anchor="middle" x="986" y="-84" font-family="Helvetica,sans-Serif" font-size="10.00">/gRPC/include/UpdateSubscriptions.h</text>
</a>
</g>
</g>
<!-- Node18&#45;&gt;Node32 -->
<g id="edge34_Node000018_Node000032" class="edge">
<title>Node18&#45;&gt;Node32</title>
<g id="a_edge34_Node000018_Node000032"><a xlink:title=" ">
<path fill="none" stroke="#63b8ff" d="M1776.15,-170.13C1631.37,-164.05 1339.58,-148.9 1094,-118 1090.79,-117.6 1087.52,-117.16 1084.23,-116.7"/>
<polygon fill="#63b8ff" stroke="#63b8ff" points="1776.18,-173.63 1786.32,-170.55 1776.47,-166.64 1776.18,-173.63"/>
</a>
</g>
</g>
<!-- Node30&#45;&gt;Node31 -->
<g id="edge32_Node000030_Node000031" class="edge">
<title>Node30&#45;&gt;Node31</title>
<g id="a_edge32_Node000030_Node000031"><a xlink:title=" ">
<path fill="none" stroke="#63b8ff" d="M1566.41,-68.67C1573.13,-59.5 1580.47,-49.5 1586.65,-41.07"/>
<polygon fill="#63b8ff" stroke="#63b8ff" points="1563.54,-66.66 1560.45,-76.79 1569.19,-70.8 1563.54,-66.66"/>
</a>
</g>
</g>
<!-- Node33&#45;&gt;Node18 -->
<g id="edge37_Node000033_Node000018" class="edge">
<title>Node33&#45;&gt;Node18</title>
<g id="a_edge37_Node000033_Node000018"><a xlink:title=" ">
<path fill="none" stroke="#63b8ff" d="M1419.54,-231.67C1421.04,-231.44 1422.52,-231.22 1424,-231 1550.31,-212.2 1697.52,-194.61 1786.41,-184.46"/>
<polygon fill="#63b8ff" stroke="#63b8ff" points="1418.91,-228.23 1409.56,-233.22 1419.98,-235.14 1418.91,-228.23"/>
</a>
</g>
</g>
<!-- Node33&#45;&gt;Node21 -->
<g id="edge36_Node000033_Node000021" class="edge">
<title>Node33&#45;&gt;Node21</title>
<g id="a_edge36_Node000033_Node000021"><a xlink:title=" ">
<path fill="none" stroke="#63b8ff" d="M1319.4,-220.93C1323.4,-200.48 1324.87,-173.54 1312,-154 1300.6,-136.69 1282.55,-124.76 1263.53,-116.54"/>
<polygon fill="#63b8ff" stroke="#63b8ff" points="1315.93,-220.44 1317.15,-230.96 1322.76,-221.97 1315.93,-220.44"/>
</a>
</g>
</g>
<!-- Node33&#45;&gt;Node32 -->
<g id="edge38_Node000033_Node000032" class="edge">
<title>Node33&#45;&gt;Node32</title>
<g id="a_edge38_Node000033_Node000032"><a xlink:title=" ">
<path fill="none" stroke="#63b8ff" d="M1308.94,-220.64C1305.81,-198.99 1298.06,-170.68 1279,-154 1277.1,-152.34 1168.71,-132.09 1084.33,-116.53"/>
<polygon fill="#63b8ff" stroke="#63b8ff" points="1305.47,-221.14 1310.13,-230.66 1312.42,-220.31 1305.47,-221.14"/>
</a>
</g>
</g>
</g>
</svg>
