<?xml version="1.0" encoding="UTF-8" standalone="no"?>
<!DOCTYPE svg PUBLIC "-//W3C//DTD SVG 1.1//EN"
 "http://www.w3.org/Graphics/SVG/1.1/DTD/svg11.dtd">
<!-- Generated by graphviz version 2.43.0 (0)
 -->
<!-- Title: Graphical Class Hierarchy Pages: 1 -->
<svg width="416pt" height="124pt"
 viewBox="0.00 0.00 416.00 123.50" xmlns="http://www.w3.org/2000/svg" xmlns:xlink="http://www.w3.org/1999/xlink">
<g id="graph0" class="graph" transform="scale(1 1) rotate(0) translate(4 119.5)">
<title>Graphical Class Hierarchy</title>
<!-- Node0 -->
<g id="Node000000" class="node">
<title>Node0</title>
<g id="a_Node000000"><a xlink:href="classcatena_1_1common_1_1IConstraint.html" target="_top" xlink:title="Interface for constraints.">
<polygon fill="white" stroke="#666666" points="158,-62 0,-62 0,-43 158,-43 158,-62"/>
<text text-anchor="middle" x="79" y="-50" font-family="Helvetica,sans-Serif" font-size="10.00">catena::common::IConstraint</text>
</a>
</g>
</g>
<!-- Node1 -->
<g id="Node000001" class="node">
<title>Node1</title>
<g id="a_Node000001"><a xlink:href="classcatena_1_1common_1_1NamedChoiceConstraint.html" target="_top" xlink:title="Named choice constraint, ensures a value is within a named choice.">
<polygon fill="white" stroke="#666666" points="387.5,-115.5 214.5,-115.5 214.5,-85.5 387.5,-85.5 387.5,-115.5"/>
<text text-anchor="start" x="222.5" y="-103.5" font-family="Helvetica,sans-Serif" font-size="10.00">catena::common::NamedChoice</text>
<text text-anchor="middle" x="301" y="-92.5" font-family="Helvetica,sans-Serif" font-size="10.00">Constraint&lt; T &gt;</text>
</a>
</g>
</g>
<!-- Node0&#45;&gt;Node1 -->
<g id="edge2_Node000000_Node000001" class="edge">
<title>Node0&#45;&gt;Node1</title>
<g id="a_edge2_Node000000_Node000001"><a xlink:title=" ">
<path fill="none" stroke="#63b8ff" d="M133.79,-64.24C163.15,-70.64 199.81,-78.64 231.23,-85.5"/>
<polygon fill="#63b8ff" stroke="#63b8ff" points="134.24,-60.75 123.73,-62.04 132.75,-67.59 134.24,-60.75"/>
</a>
</g>
</g>
<!-- Node2 -->
<g id="Node000002" class="node">
<title>Node2</title>
<g id="a_Node000002"><a xlink:href="classcatena_1_1common_1_1PicklistConstraint.html" target="_top" xlink:title="Picklist constraint, ensures a value is in a list of strings.">
<polygon fill="white" stroke="#666666" points="371,-67.5 231,-67.5 231,-37.5 371,-37.5 371,-67.5"/>
<text text-anchor="start" x="239" y="-55.5" font-family="Helvetica,sans-Serif" font-size="10.00">catena::common::Picklist</text>
<text text-anchor="middle" x="301" y="-44.5" font-family="Helvetica,sans-Serif" font-size="10.00">Constraint</text>
</a>
</g>
</g>
<!-- Node0&#45;&gt;Node2 -->
<g id="edge3_Node000000_Node000002" class="edge">
<title>Node0&#45;&gt;Node2</title>
<g id="a_edge3_Node000000_Node000002"><a xlink:title=" ">
<path fill="none" stroke="#63b8ff" d="M168.3,-52.5C189.12,-52.5 211.01,-52.5 230.84,-52.5"/>
<polygon fill="#63b8ff" stroke="#63b8ff" points="168.18,-49 158.18,-52.5 168.18,-56 168.18,-49"/>
</a>
</g>
</g>
<!-- Node3 -->
<g id="Node000003" class="node">
<title>Node3</title>
<g id="a_Node000003"><a xlink:href="classcatena_1_1common_1_1RangeConstraint.html" target="_top" xlink:title="Range constraint, ensures a value is within a range.">
<polygon fill="white" stroke="#666666" points="408,-19 194,-19 194,0 408,0 408,-19"/>
<text text-anchor="middle" x="301" y="-7" font-family="Helvetica,sans-Serif" font-size="10.00">catena::common::RangeConstraint&lt; T &gt;</text>
</a>
</g>
</g>
<!-- Node0&#45;&gt;Node3 -->
<g id="edge4_Node000000_Node000003" class="edge">
<title>Node0&#45;&gt;Node3</title>
<g id="a_edge4_Node000000_Node000003"><a xlink:title=" ">
<path fill="none" stroke="#63b8ff" d="M133.76,-40.83C152.77,-36.8 174.31,-32.34 194,-28.5 210.52,-25.28 228.52,-21.98 244.93,-19.05"/>
<polygon fill="#63b8ff" stroke="#63b8ff" points="132.84,-37.45 123.79,-42.96 134.3,-44.3 132.84,-37.45"/>
</a>
</g>
</g>
</g>
</svg>
