<?xml version="1.0" encoding="UTF-8" standalone="no"?>
<!DOCTYPE svg PUBLIC "-//W3C//DTD SVG 1.1//EN"
 "http://www.w3.org/Graphics/SVG/1.1/DTD/svg11.dtd">
<!-- Generated by graphviz version 2.43.0 (0)
 -->
<!-- Title: Graphical Class Hierarchy Pages: 1 -->
<svg width="721pt" height="1095pt"
 viewBox="0.00 0.00 721.00 1094.50" xmlns="http://www.w3.org/2000/svg" xmlns:xlink="http://www.w3.org/1999/xlink">
<g id="graph0" class="graph" transform="scale(1 1) rotate(0) translate(4 1090.5)">
<title>Graphical Class Hierarchy</title>
<!-- Node0 -->
<g id="Node000000" class="node">
<title>Node0</title>
<g id="a_Node000000"><a xlink:href="classCatenaServiceImpl_1_1CallData.html" target="_top" xlink:title="Abstract base class for the CallData classes. Provides the proceed method.">
<polygon fill="white" stroke="#666666" points="312.5,-798.5 197.5,-798.5 197.5,-768.5 312.5,-768.5 312.5,-798.5"/>
<text text-anchor="start" x="205.5" y="-786.5" font-family="Helvetica,sans-Serif" font-size="10.00">CatenaServiceImpl::</text>
<text text-anchor="middle" x="255" y="-775.5" font-family="Helvetica,sans-Serif" font-size="10.00">CallData</text>
</a>
</g>
</g>
<!-- Node1 -->
<g id="Node000001" class="node">
<title>Node1</title>
<g id="a_Node000001"><a xlink:href="classCatenaServiceImpl_1_1AddLanguage.html" target="_top" xlink:title="CallData class for the ListLanguages RPC.">
<polygon fill="white" stroke="#666666" points="513.5,-1086.5 398.5,-1086.5 398.5,-1056.5 513.5,-1056.5 513.5,-1086.5"/>
<text text-anchor="start" x="406.5" y="-1074.5" font-family="Helvetica,sans-Serif" font-size="10.00">CatenaServiceImpl::</text>
<text text-anchor="middle" x="456" y="-1063.5" font-family="Helvetica,sans-Serif" font-size="10.00">AddLanguage</text>
</a>
</g>
</g>
<!-- Node0&#45;&gt;Node1 -->
<g id="edge22_Node000000_Node000001" class="edge">
<title>Node0&#45;&gt;Node1</title>
<g id="a_edge22_Node000000_Node000001"><a xlink:title=" ">
<path fill="none" stroke="#63b8ff" d="M258.76,-808.87C265.89,-861.55 289.79,-983.23 363,-1047.5 372.92,-1056.21 385.63,-1061.82 398.41,-1065.42"/>
<polygon fill="#63b8ff" stroke="#63b8ff" points="262.21,-808.21 257.49,-798.72 255.26,-809.08 262.21,-808.21"/>
</a>
</g>
</g>
<!-- Node2 -->
<g id="Node000002" class="node">
<title>Node2</title>
<g id="a_Node000002"><a xlink:href="classCatenaServiceImpl_1_1BasicParamInfoRequest.html" target="_top" xlink:title="CallData class for the BasicParamInfoRequest RPC.">
<polygon fill="white" stroke="#666666" points="522,-1038.5 390,-1038.5 390,-1008.5 522,-1008.5 522,-1038.5"/>
<text text-anchor="start" x="398" y="-1026.5" font-family="Helvetica,sans-Serif" font-size="10.00">CatenaServiceImpl::</text>
<text text-anchor="middle" x="456" y="-1015.5" font-family="Helvetica,sans-Serif" font-size="10.00">BasicParamInfoRequest</text>
</a>
</g>
</g>
<!-- Node0&#45;&gt;Node2 -->
<g id="edge23_Node000000_Node000002" class="edge">
<title>Node0&#45;&gt;Node2</title>
<g id="a_edge23_Node000000_Node000002"><a xlink:title=" ">
<path fill="none" stroke="#63b8ff" d="M261.25,-808.65C272.04,-853.93 301.09,-949.13 363,-999.5 370.81,-1005.86 380.12,-1010.54 389.78,-1014"/>
<polygon fill="#63b8ff" stroke="#63b8ff" points="264.63,-807.75 259,-798.77 257.81,-809.3 264.63,-807.75"/>
</a>
</g>
</g>
<!-- Node3 -->
<g id="Node000003" class="node">
<title>Node3</title>
<g id="a_Node000003"><a xlink:href="classCatenaServiceImpl_1_1Connect.html" target="_top" xlink:title="CallData class for the Connect RPC.">
<polygon fill="white" stroke="#666666" points="513.5,-510.5 398.5,-510.5 398.5,-480.5 513.5,-480.5 513.5,-510.5"/>
<text text-anchor="start" x="406.5" y="-498.5" font-family="Helvetica,sans-Serif" font-size="10.00">CatenaServiceImpl::</text>
<text text-anchor="middle" x="456" y="-487.5" font-family="Helvetica,sans-Serif" font-size="10.00">Connect</text>
</a>
</g>
</g>
<!-- Node0&#45;&gt;Node3 -->
<g id="edge24_Node000000_Node000003" class="edge">
<title>Node0&#45;&gt;Node3</title>
<g id="a_edge24_Node000000_Node000003"><a xlink:title=" ">
<path fill="none" stroke="#63b8ff" d="M258.76,-758.13C265.89,-705.45 289.79,-583.77 363,-519.5 372.92,-510.79 385.63,-505.18 398.41,-501.58"/>
<polygon fill="#63b8ff" stroke="#63b8ff" points="255.26,-757.92 257.49,-768.28 262.21,-758.79 255.26,-757.92"/>
</a>
</g>
</g>
<!-- Node20 -->
<g id="Node000020" class="node">
<title>Node20</title>
<g id="a_Node000020"><a xlink:href="classCatenaServiceImpl_1_1DeviceRequest.html" target="_top" xlink:title="CallData class for the DeviceRequest RPC.">
<polygon fill="white" stroke="#666666" points="513.5,-990.5 398.5,-990.5 398.5,-960.5 513.5,-960.5 513.5,-990.5"/>
<text text-anchor="start" x="406.5" y="-978.5" font-family="Helvetica,sans-Serif" font-size="10.00">CatenaServiceImpl::</text>
<text text-anchor="middle" x="456" y="-967.5" font-family="Helvetica,sans-Serif" font-size="10.00">DeviceRequest</text>
</a>
</g>
</g>
<!-- Node0&#45;&gt;Node20 -->
<g id="edge25_Node000000_Node000020" class="edge">
<title>Node0&#45;&gt;Node20</title>
<g id="a_edge25_Node000000_Node000020"><a xlink:title=" ">
<path fill="none" stroke="#63b8ff" d="M264.81,-807.99C279.38,-844.9 312.03,-914.38 363,-951.5 373.27,-958.98 385.69,-964.13 398.03,-967.68"/>
<polygon fill="#63b8ff" stroke="#63b8ff" points="268.03,-806.59 261.19,-798.5 261.49,-809.09 268.03,-806.59"/>
</a>
</g>
</g>
<!-- Node21 -->
<g id="Node000021" class="node">
<title>Node21</title>
<g id="a_Node000021"><a xlink:href="classCatenaServiceImpl_1_1ExecuteCommand.html" target="_top" xlink:title="CallData class for the ExecuteCommand RPC.">
<polygon fill="white" stroke="#666666" points="513.5,-942.5 398.5,-942.5 398.5,-912.5 513.5,-912.5 513.5,-942.5"/>
<text text-anchor="start" x="406.5" y="-930.5" font-family="Helvetica,sans-Serif" font-size="10.00">CatenaServiceImpl::</text>
<text text-anchor="middle" x="456" y="-919.5" font-family="Helvetica,sans-Serif" font-size="10.00">ExecuteCommand</text>
</a>
</g>
</g>
<!-- Node0&#45;&gt;Node21 -->
<g id="edge26_Node000000_Node000021" class="edge">
<title>Node0&#45;&gt;Node21</title>
<g id="a_edge26_Node000000_Node000021"><a xlink:title=" ">
<path fill="none" stroke="#63b8ff" d="M270.76,-807.18C289.05,-834.52 322.78,-878.9 363,-903.5 373.7,-910.05 386.16,-914.82 398.38,-918.3"/>
<polygon fill="#63b8ff" stroke="#63b8ff" points="273.56,-805.06 265.16,-798.61 267.7,-808.89 273.56,-805.06"/>
</a>
</g>
</g>
<!-- Node22 -->
<g id="Node000022" class="node">
<title>Node22</title>
<g id="a_Node000022"><a xlink:href="classCatenaServiceImpl_1_1ExternalObjectRequest.html" target="_top" xlink:title="CallData class for the ExternalObjectRequest RPC.">
<polygon fill="white" stroke="#666666" points="520,-894.5 392,-894.5 392,-864.5 520,-864.5 520,-894.5"/>
<text text-anchor="start" x="400" y="-882.5" font-family="Helvetica,sans-Serif" font-size="10.00">CatenaServiceImpl::</text>
<text text-anchor="middle" x="456" y="-871.5" font-family="Helvetica,sans-Serif" font-size="10.00">ExternalObjectRequest</text>
</a>
</g>
</g>
<!-- Node0&#45;&gt;Node22 -->
<g id="edge27_Node000000_Node000022" class="edge">
<title>Node0&#45;&gt;Node22</title>
<g id="a_edge27_Node000000_Node000022"><a xlink:title=" ">
<path fill="none" stroke="#63b8ff" d="M282.2,-804.83C303,-820.82 333.4,-842.15 363,-855.5 372.03,-859.57 381.88,-863.05 391.67,-866"/>
<polygon fill="#63b8ff" stroke="#63b8ff" points="284.22,-801.97 274.18,-798.57 279.91,-807.48 284.22,-801.97"/>
</a>
</g>
</g>
<!-- Node23 -->
<g id="Node000023" class="node">
<title>Node23</title>
<g id="a_Node000023"><a xlink:href="classCatenaServiceImpl_1_1GetParam.html" target="_top" xlink:title="CallData class for the GetParam RPC.">
<polygon fill="white" stroke="#666666" points="513.5,-846.5 398.5,-846.5 398.5,-816.5 513.5,-816.5 513.5,-846.5"/>
<text text-anchor="start" x="406.5" y="-834.5" font-family="Helvetica,sans-Serif" font-size="10.00">CatenaServiceImpl::</text>
<text text-anchor="middle" x="456" y="-823.5" font-family="Helvetica,sans-Serif" font-size="10.00">GetParam</text>
</a>
</g>
</g>
<!-- Node0&#45;&gt;Node23 -->
<g id="edge28_Node000000_Node000023" class="edge">
<title>Node0&#45;&gt;Node23</title>
<g id="a_edge28_Node000000_Node000023"><a xlink:title=" ">
<path fill="none" stroke="#63b8ff" d="M322.69,-799.59C347.17,-805.49 374.63,-812.11 398.17,-817.79"/>
<polygon fill="#63b8ff" stroke="#63b8ff" points="323.3,-796.13 312.76,-797.19 321.66,-802.94 323.3,-796.13"/>
</a>
</g>
</g>
<!-- Node24 -->
<g id="Node000024" class="node">
<title>Node24</title>
<g id="a_Node000024"><a xlink:href="classCatenaServiceImpl_1_1GetPopulatedSlots.html" target="_top" xlink:title="CallData class for the GetPopulatedSlots RPC.">
<polygon fill="white" stroke="#666666" points="513.5,-798.5 398.5,-798.5 398.5,-768.5 513.5,-768.5 513.5,-798.5"/>
<text text-anchor="start" x="406.5" y="-786.5" font-family="Helvetica,sans-Serif" font-size="10.00">CatenaServiceImpl::</text>
<text text-anchor="middle" x="456" y="-775.5" font-family="Helvetica,sans-Serif" font-size="10.00">GetPopulatedSlots</text>
</a>
</g>
</g>
<!-- Node0&#45;&gt;Node24 -->
<g id="edge29_Node000000_Node000024" class="edge">
<title>Node0&#45;&gt;Node24</title>
<g id="a_edge29_Node000000_Node000024"><a xlink:title=" ">
<path fill="none" stroke="#63b8ff" d="M323.02,-783.5C347.41,-783.5 374.74,-783.5 398.17,-783.5"/>
<polygon fill="#63b8ff" stroke="#63b8ff" points="322.76,-780 312.76,-783.5 322.76,-787 322.76,-780"/>
</a>
</g>
</g>
<!-- Node25 -->
<g id="Node000025" class="node">
<title>Node25</title>
<g id="a_Node000025"><a xlink:href="classCatenaServiceImpl_1_1GetValue.html" target="_top" xlink:title="CallData class for the GetValue RPC.">
<polygon fill="white" stroke="#666666" points="513.5,-750.5 398.5,-750.5 398.5,-720.5 513.5,-720.5 513.5,-750.5"/>
<text text-anchor="start" x="406.5" y="-738.5" font-family="Helvetica,sans-Serif" font-size="10.00">CatenaServiceImpl::</text>
<text text-anchor="middle" x="456" y="-727.5" font-family="Helvetica,sans-Serif" font-size="10.00">GetValue</text>
</a>
</g>
</g>
<!-- Node0&#45;&gt;Node25 -->
<g id="edge30_Node000000_Node000025" class="edge">
<title>Node0&#45;&gt;Node25</title>
<g id="a_edge30_Node000000_Node000025"><a xlink:title=" ">
<path fill="none" stroke="#63b8ff" d="M322.69,-767.41C347.17,-761.51 374.63,-754.89 398.17,-749.21"/>
<polygon fill="#63b8ff" stroke="#63b8ff" points="321.66,-764.06 312.76,-769.81 323.3,-770.87 321.66,-764.06"/>
</a>
</g>
</g>
<!-- Node26 -->
<g id="Node000026" class="node">
<title>Node26</title>
<g id="a_Node000026"><a xlink:href="classCatenaServiceImpl_1_1LanguagePackRequest.html" target="_top" xlink:title="CallData class for the LanguagePackRequest RPC.">
<polygon fill="white" stroke="#666666" points="519,-702.5 393,-702.5 393,-672.5 519,-672.5 519,-702.5"/>
<text text-anchor="start" x="401" y="-690.5" font-family="Helvetica,sans-Serif" font-size="10.00">CatenaServiceImpl::</text>
<text text-anchor="middle" x="456" y="-679.5" font-family="Helvetica,sans-Serif" font-size="10.00">LanguagePackRequest</text>
</a>
</g>
</g>
<!-- Node0&#45;&gt;Node26 -->
<g id="edge31_Node000000_Node000026" class="edge">
<title>Node0&#45;&gt;Node26</title>
<g id="a_edge31_Node000000_Node000026"><a xlink:title=" ">
<path fill="none" stroke="#63b8ff" d="M282.2,-762.17C303,-746.18 333.4,-724.85 363,-711.5 372.33,-707.29 382.54,-703.71 392.65,-700.71"/>
<polygon fill="#63b8ff" stroke="#63b8ff" points="279.91,-759.52 274.18,-768.43 284.22,-765.03 279.91,-759.52"/>
</a>
</g>
</g>
<!-- Node27 -->
<g id="Node000027" class="node">
<title>Node27</title>
<g id="a_Node000027"><a xlink:href="classCatenaServiceImpl_1_1ListLanguages.html" target="_top" xlink:title="CallData class for the ListLanguages RPC.">
<polygon fill="white" stroke="#666666" points="513.5,-654.5 398.5,-654.5 398.5,-624.5 513.5,-624.5 513.5,-654.5"/>
<text text-anchor="start" x="406.5" y="-642.5" font-family="Helvetica,sans-Serif" font-size="10.00">CatenaServiceImpl::</text>
<text text-anchor="middle" x="456" y="-631.5" font-family="Helvetica,sans-Serif" font-size="10.00">ListLanguages</text>
</a>
</g>
</g>
<!-- Node0&#45;&gt;Node27 -->
<g id="edge32_Node000000_Node000027" class="edge">
<title>Node0&#45;&gt;Node27</title>
<g id="a_edge32_Node000000_Node000027"><a xlink:title=" ">
<path fill="none" stroke="#63b8ff" d="M270.76,-759.82C289.05,-732.48 322.78,-688.1 363,-663.5 373.7,-656.95 386.16,-652.18 398.38,-648.7"/>
<polygon fill="#63b8ff" stroke="#63b8ff" points="267.7,-758.11 265.16,-768.39 273.56,-761.94 267.7,-758.11"/>
</a>
</g>
</g>
<!-- Node28 -->
<g id="Node000028" class="node">
<title>Node28</title>
<g id="a_Node000028"><a xlink:href="classCatenaServiceImpl_1_1MultiSetValue.html" target="_top" xlink:title="Generic CallData class for the SetValue and MultiSetValue RPCs.">
<polygon fill="white" stroke="#666666" points="513.5,-606.5 398.5,-606.5 398.5,-576.5 513.5,-576.5 513.5,-606.5"/>
<text text-anchor="start" x="406.5" y="-594.5" font-family="Helvetica,sans-Serif" font-size="10.00">CatenaServiceImpl::</text>
<text text-anchor="middle" x="456" y="-583.5" font-family="Helvetica,sans-Serif" font-size="10.00">MultiSetValue</text>
</a>
</g>
</g>
<!-- Node0&#45;&gt;Node28 -->
<g id="edge33_Node000000_Node000028" class="edge">
<title>Node0&#45;&gt;Node28</title>
<g id="a_edge33_Node000000_Node000028"><a xlink:title=" ">
<path fill="none" stroke="#63b8ff" d="M264.81,-759.01C279.38,-722.1 312.03,-652.62 363,-615.5 373.27,-608.02 385.69,-602.87 398.03,-599.32"/>
<polygon fill="#63b8ff" stroke="#63b8ff" points="261.49,-757.91 261.19,-768.5 268.03,-760.41 261.49,-757.91"/>
</a>
</g>
</g>
<!-- Node30 -->
<g id="Node000030" class="node">
<title>Node30</title>
<g id="a_Node000030"><a xlink:href="classCatenaServiceImpl_1_1UpdateSubscriptions.html" target="_top" xlink:title="CallData class for the UpdateSubscriptions RPC.">
<polygon fill="white" stroke="#666666" points="514.5,-558.5 397.5,-558.5 397.5,-528.5 514.5,-528.5 514.5,-558.5"/>
<text text-anchor="start" x="405.5" y="-546.5" font-family="Helvetica,sans-Serif" font-size="10.00">CatenaServiceImpl::</text>
<text text-anchor="middle" x="456" y="-535.5" font-family="Helvetica,sans-Serif" font-size="10.00">UpdateSubscriptions</text>
</a>
</g>
</g>
<!-- Node0&#45;&gt;Node30 -->
<g id="edge35_Node000000_Node000030" class="edge">
<title>Node0&#45;&gt;Node30</title>
<g id="a_edge35_Node000000_Node000030"><a xlink:title=" ">
<path fill="none" stroke="#63b8ff" d="M261.25,-758.35C272.04,-713.07 301.09,-617.87 363,-567.5 372.86,-559.48 385.11,-554.11 397.42,-550.53"/>
<polygon fill="#63b8ff" stroke="#63b8ff" points="257.81,-757.7 259,-768.23 264.63,-759.25 257.81,-757.7"/>
</a>
</g>
</g>
<!-- Node29 -->
<g id="Node000029" class="node">
<title>Node29</title>
<g id="a_Node000029"><a xlink:href="classCatenaServiceImpl_1_1SetValue.html" target="_top" xlink:title="CallData class for the SetValue RPC.">
<polygon fill="white" stroke="#666666" points="706.5,-606.5 591.5,-606.5 591.5,-576.5 706.5,-576.5 706.5,-606.5"/>
<text text-anchor="start" x="599.5" y="-594.5" font-family="Helvetica,sans-Serif" font-size="10.00">CatenaServiceImpl::</text>
<text text-anchor="middle" x="649" y="-583.5" font-family="Helvetica,sans-Serif" font-size="10.00">SetValue</text>
</a>
</g>
</g>
<!-- Node28&#45;&gt;Node29 -->
<g id="edge34_Node000028_Node000029" class="edge">
<title>Node28&#45;&gt;Node29</title>
<g id="a_edge34_Node000028_Node000029"><a xlink:title=" ">
<path fill="none" stroke="#63b8ff" d="M523.8,-591.5C545.82,-591.5 570.09,-591.5 591.28,-591.5"/>
<polygon fill="#63b8ff" stroke="#63b8ff" points="523.53,-588 513.53,-591.5 523.53,-595 523.53,-588"/>
</a>
</g>
</g>
<!-- Node6 -->
<g id="Node000006" class="node">
<title>Node6</title>
<g id="a_Node000006"><a xlink:href="classcatena_1_1REST_1_1ICallData.html" target="_top" xlink:title="Interface class for REST API controllers.">
<polygon fill="white" stroke="#666666" points="320.5,-244 189.5,-244 189.5,-225 320.5,-225 320.5,-244"/>
<text text-anchor="middle" x="255" y="-232" font-family="Helvetica,sans-Serif" font-size="10.00">catena::REST::ICallData</text>
</a>
</g>
</g>
<!-- Node7 -->
<g id="Node000007" class="node">
<title>Node7</title>
<g id="a_Node000007"><a xlink:href="classcatena_1_1REST_1_1AddLanguage.html" target="_top" xlink:title="ICallData class for the AddLanguage REST controller.">
<polygon fill="white" stroke="#666666" points="532,-425 380,-425 380,-406 532,-406 532,-425"/>
<text text-anchor="middle" x="456" y="-413" font-family="Helvetica,sans-Serif" font-size="10.00">catena::REST::AddLanguage</text>
</a>
</g>
</g>
<!-- Node6&#45;&gt;Node7 -->
<g id="edge36_Node000006_Node000007" class="edge">
<title>Node6&#45;&gt;Node7</title>
<g id="a_edge36_Node000006_Node000007"><a xlink:title=" ">
<path fill="none" stroke="#63b8ff" d="M262.84,-253.43C276.29,-287.82 309.64,-360.35 363,-396.5 368.67,-400.34 374.96,-403.43 381.51,-405.92"/>
<polygon fill="#63b8ff" stroke="#63b8ff" points="266.11,-252.18 259.3,-244.06 259.56,-254.65 266.11,-252.18"/>
</a>
</g>
</g>
<!-- Node8 -->
<g id="Node000008" class="node">
<title>Node8</title>
<g id="a_Node000008"><a xlink:href="classcatena_1_1REST_1_1BasicParamInfoRequest.html" target="_top" xlink:title="ICallData class for the BasicParamInfoRequest REST controller.">
<polygon fill="white" stroke="#666666" points="527.5,-387.5 384.5,-387.5 384.5,-357.5 527.5,-357.5 527.5,-387.5"/>
<text text-anchor="start" x="392.5" y="-375.5" font-family="Helvetica,sans-Serif" font-size="10.00">catena::REST::BasicParam</text>
<text text-anchor="middle" x="456" y="-364.5" font-family="Helvetica,sans-Serif" font-size="10.00">InfoRequest</text>
</a>
</g>
</g>
<!-- Node6&#45;&gt;Node8 -->
<g id="edge37_Node000006_Node000008" class="edge">
<title>Node6&#45;&gt;Node8</title>
<g id="a_edge37_Node000006_Node000008"><a xlink:title=" ">
<path fill="none" stroke="#63b8ff" d="M267.95,-252.28C285.71,-277.31 321.49,-322.68 363,-347.5 369.53,-351.41 376.69,-354.72 384.03,-357.52"/>
<polygon fill="#63b8ff" stroke="#63b8ff" points="270.82,-250.27 262.24,-244.05 265.06,-254.26 270.82,-250.27"/>
</a>
</g>
</g>
<!-- Node5 -->
<g id="Node000005" class="node">
<title>Node5</title>
<g id="a_Node000005"><a xlink:href="classcatena_1_1REST_1_1Connect.html" target="_top" xlink:title="ICallData class for the Connect REST controller.">
<polygon fill="white" stroke="#666666" points="518.5,-462 393.5,-462 393.5,-443 518.5,-443 518.5,-462"/>
<text text-anchor="middle" x="456" y="-450" font-family="Helvetica,sans-Serif" font-size="10.00">catena::REST::Connect</text>
</a>
</g>
</g>
<!-- Node6&#45;&gt;Node5 -->
<g id="edge38_Node000006_Node000005" class="edge">
<title>Node6&#45;&gt;Node5</title>
<g id="a_edge38_Node000006_Node000005"><a xlink:title=" ">
<path fill="none" stroke="#63b8ff" d="M260.57,-254.01C271.1,-294.42 301.06,-387.33 363,-433.5 371.89,-440.13 382.55,-444.58 393.41,-447.53"/>
<polygon fill="#63b8ff" stroke="#63b8ff" points="263.96,-253.16 258.15,-244.3 257.17,-254.85 263.96,-253.16"/>
</a>
</g>
</g>
<!-- Node9 -->
<g id="Node000009" class="node">
<title>Node9</title>
<g id="a_Node000009"><a xlink:href="classcatena_1_1REST_1_1DeviceRequest.html" target="_top" xlink:title="ICallData class for the DeviceRequest REST controller.">
<polygon fill="white" stroke="#666666" points="535.5,-339 376.5,-339 376.5,-320 535.5,-320 535.5,-339"/>
<text text-anchor="middle" x="456" y="-327" font-family="Helvetica,sans-Serif" font-size="10.00">catena::REST::DeviceRequest</text>
</a>
</g>
</g>
<!-- Node6&#45;&gt;Node9 -->
<g id="edge39_Node000006_Node000009" class="edge">
<title>Node6&#45;&gt;Node9</title>
<g id="a_edge39_Node000006_Node000009"><a xlink:title=" ">
<path fill="none" stroke="#63b8ff" d="M274.07,-250.95C294.25,-268.42 328.63,-295.54 363,-310.5 371.82,-314.34 381.47,-317.42 391.08,-319.89"/>
<polygon fill="#63b8ff" stroke="#63b8ff" points="276.14,-248.11 266.32,-244.12 271.51,-253.36 276.14,-248.11"/>
</a>
</g>
</g>
<!-- Node10 -->
<g id="Node000010" class="node">
<title>Node10</title>
<g id="a_Node000010"><a xlink:href="classcatena_1_1REST_1_1ExecuteCommand.html" target="_top" xlink:title="Controller class for handling ExecuteCommand REST requests.">
<polygon fill="white" stroke="#666666" points="543,-302 369,-302 369,-283 543,-283 543,-302"/>
<text text-anchor="middle" x="456" y="-290" font-family="Helvetica,sans-Serif" font-size="10.00">catena::REST::ExecuteCommand</text>
</a>
</g>
</g>
<!-- Node6&#45;&gt;Node10 -->
<g id="edge40_Node000006_Node000010" class="edge">
<title>Node6&#45;&gt;Node10</title>
<g id="a_edge40_Node000006_Node000010"><a xlink:title=" ">
<path fill="none" stroke="#63b8ff" d="M288.47,-247.74C309.47,-255.95 337.55,-266.28 363,-273.5 375.55,-277.06 389.24,-280.25 402.14,-282.96"/>
<polygon fill="#63b8ff" stroke="#63b8ff" points="289.64,-244.44 279.06,-244.01 287.07,-250.95 289.64,-244.44"/>
</a>
</g>
</g>
<!-- Node11 -->
<g id="Node000011" class="node">
<title>Node11</title>
<g id="a_Node000011"><a xlink:href="classcatena_1_1REST_1_1GetParam.html" target="_top" xlink:title="ICallData class for the GetParam REST controller.">
<polygon fill="white" stroke="#666666" points="523,-265 389,-265 389,-246 523,-246 523,-265"/>
<text text-anchor="middle" x="456" y="-253" font-family="Helvetica,sans-Serif" font-size="10.00">catena::REST::GetParam</text>
</a>
</g>
</g>
<!-- Node6&#45;&gt;Node11 -->
<g id="edge41_Node000006_Node000011" class="edge">
<title>Node6&#45;&gt;Node11</title>
<g id="a_edge41_Node000006_Node000011"><a xlink:title=" ">
<path fill="none" stroke="#63b8ff" d="M330.73,-242.39C349.76,-244.39 370.09,-246.54 388.67,-248.5"/>
<polygon fill="#63b8ff" stroke="#63b8ff" points="330.92,-238.89 320.61,-241.32 330.19,-245.85 330.92,-238.89"/>
</a>
</g>
</g>
<!-- Node12 -->
<g id="Node000012" class="node">
<title>Node12</title>
<g id="a_Node000012"><a xlink:href="classcatena_1_1REST_1_1GetPopulatedSlots.html" target="_top" xlink:title="ICallData class for the GetPopulatedSlots REST controller.">
<polygon fill="white" stroke="#666666" points="532,-227.5 380,-227.5 380,-197.5 532,-197.5 532,-227.5"/>
<text text-anchor="start" x="388" y="-215.5" font-family="Helvetica,sans-Serif" font-size="10.00">catena::REST::GetPopulated</text>
<text text-anchor="middle" x="456" y="-204.5" font-family="Helvetica,sans-Serif" font-size="10.00">Slots</text>
</a>
</g>
</g>
<!-- Node6&#45;&gt;Node12 -->
<g id="edge42_Node000006_Node000012" class="edge">
<title>Node6&#45;&gt;Node12</title>
<g id="a_edge42_Node000006_Node000012"><a xlink:title=" ">
<path fill="none" stroke="#63b8ff" d="M330.99,-226.21C347.03,-224.44 363.96,-222.56 379.99,-220.79"/>
<polygon fill="#63b8ff" stroke="#63b8ff" points="330.16,-222.78 320.61,-227.36 330.93,-229.74 330.16,-222.78"/>
</a>
</g>
</g>
<!-- Node13 -->
<g id="Node000013" class="node">
<title>Node13</title>
<g id="a_Node000013"><a xlink:href="classcatena_1_1REST_1_1GetValue.html" target="_top" xlink:title="ICallData class for the GetValue REST controller.">
<polygon fill="white" stroke="#666666" points="521,-179 391,-179 391,-160 521,-160 521,-179"/>
<text text-anchor="middle" x="456" y="-167" font-family="Helvetica,sans-Serif" font-size="10.00">catena::REST::GetValue</text>
</a>
</g>
</g>
<!-- Node6&#45;&gt;Node13 -->
<g id="edge43_Node000006_Node000013" class="edge">
<title>Node6&#45;&gt;Node13</title>
<g id="a_edge43_Node000006_Node000013"><a xlink:title=" ">
<path fill="none" stroke="#63b8ff" d="M283.98,-220.62C305.23,-210.53 335.4,-197.18 363,-188.5 374.67,-184.83 387.4,-181.68 399.56,-179.06"/>
<polygon fill="#63b8ff" stroke="#63b8ff" points="282.38,-217.5 274.88,-224.99 285.41,-223.81 282.38,-217.5"/>
</a>
</g>
</g>
<!-- Node14 -->
<g id="Node000014" class="node">
<title>Node14</title>
<g id="a_Node000014"><a xlink:href="classcatena_1_1REST_1_1LanguagePackRequest.html" target="_top" xlink:title="ICallData class for the LanguagePackRequest REST controller.">
<polygon fill="white" stroke="#666666" points="533.5,-141.5 378.5,-141.5 378.5,-111.5 533.5,-111.5 533.5,-141.5"/>
<text text-anchor="start" x="386.5" y="-129.5" font-family="Helvetica,sans-Serif" font-size="10.00">catena::REST::LanguagePack</text>
<text text-anchor="middle" x="456" y="-118.5" font-family="Helvetica,sans-Serif" font-size="10.00">Request</text>
</a>
</g>
</g>
<!-- Node6&#45;&gt;Node14 -->
<g id="edge44_Node000006_Node000014" class="edge">
<title>Node6&#45;&gt;Node14</title>
<g id="a_edge44_Node000006_Node000014"><a xlink:title=" ">
<path fill="none" stroke="#63b8ff" d="M272.68,-217.75C292.54,-198.75 327.48,-168.11 363,-150.5 369.8,-147.13 377.13,-144.19 384.58,-141.64"/>
<polygon fill="#63b8ff" stroke="#63b8ff" points="270.09,-215.39 265.38,-224.88 274.98,-220.4 270.09,-215.39"/>
</a>
</g>
</g>
<!-- Node15 -->
<g id="Node000015" class="node">
<title>Node15</title>
<g id="a_Node000015"><a xlink:href="classcatena_1_1REST_1_1ListLanguages.html" target="_top" xlink:title="ICallData class for the ListLanguages REST controller.">
<polygon fill="white" stroke="#666666" points="533.5,-93 378.5,-93 378.5,-74 533.5,-74 533.5,-93"/>
<text text-anchor="middle" x="456" y="-81" font-family="Helvetica,sans-Serif" font-size="10.00">catena::REST::ListLanguages</text>
</a>
</g>
</g>
<!-- Node6&#45;&gt;Node15 -->
<g id="edge45_Node000006_Node000015" class="edge">
<title>Node6&#45;&gt;Node15</title>
<g id="a_edge45_Node000006_Node000015"><a xlink:title=" ">
<path fill="none" stroke="#63b8ff" d="M265.56,-215.87C281.54,-186.73 316.56,-130.76 363,-102.5 369.41,-98.6 376.49,-95.49 383.78,-93.01"/>
<polygon fill="#63b8ff" stroke="#63b8ff" points="262.32,-214.5 260.71,-224.98 268.5,-217.79 262.32,-214.5"/>
</a>
</g>
</g>
<!-- Node16 -->
<g id="Node000016" class="node">
<title>Node16</title>
<g id="a_Node000016"><a xlink:href="classcatena_1_1REST_1_1MultiSetValue.html" target="_top" xlink:title="ICallData class for the MultiSetValue REST controller.">
<polygon fill="white" stroke="#666666" points="532.5,-56 379.5,-56 379.5,-37 532.5,-37 532.5,-56"/>
<text text-anchor="middle" x="456" y="-44" font-family="Helvetica,sans-Serif" font-size="10.00">catena::REST::MultiSetValue</text>
</a>
</g>
</g>
<!-- Node6&#45;&gt;Node16 -->
<g id="edge46_Node000006_Node000016" class="edge">
<title>Node6&#45;&gt;Node16</title>
<g id="a_edge46_Node000006_Node000016"><a xlink:title=" ">
<path fill="none" stroke="#63b8ff" d="M262.34,-215.11C275.16,-179.16 307.74,-102.39 363,-64.5 367.97,-61.09 373.42,-58.3 379.11,-56"/>
<polygon fill="#63b8ff" stroke="#63b8ff" points="258.93,-214.27 258.99,-224.87 265.55,-216.54 258.93,-214.27"/>
</a>
</g>
</g>
<!-- Node18 -->
<g id="Node000018" class="node">
<title>Node18</title>
<g id="a_Node000018"><a xlink:href="classcatena_1_1REST_1_1UpdateSubscriptions.html" target="_top" xlink:title="ICallData class for the UpdateSubscriptions REST controller.">
<polygon fill="white" stroke="#666666" points="549,-19 363,-19 363,0 549,0 549,-19"/>
<text text-anchor="middle" x="456" y="-7" font-family="Helvetica,sans-Serif" font-size="10.00">catena::REST::UpdateSubscriptions</text>
</a>
</g>
</g>
<!-- Node6&#45;&gt;Node18 -->
<g id="edge48_Node000006_Node000018" class="edge">
<title>Node6&#45;&gt;Node18</title>
<g id="a_edge48_Node000006_Node000018"><a xlink:title=" ">
<path fill="none" stroke="#63b8ff" d="M260.14,-214.75C270,-172.97 298.96,-75.52 363,-27.5 367.43,-24.18 372.3,-21.42 377.42,-19.14"/>
<polygon fill="#63b8ff" stroke="#63b8ff" points="256.67,-214.23 257.9,-224.76 263.5,-215.76 256.67,-214.23"/>
</a>
</g>
</g>
<!-- Node17 -->
<g id="Node000017" class="node">
<title>Node17</title>
<g id="a_Node000017"><a xlink:href="classcatena_1_1REST_1_1SetValue.html" target="_top" xlink:title="ICallData class for the SetValue REST controller.">
<polygon fill="white" stroke="#666666" points="713,-56 585,-56 585,-37 713,-37 713,-56"/>
<text text-anchor="middle" x="649" y="-44" font-family="Helvetica,sans-Serif" font-size="10.00">catena::REST::SetValue</text>
</a>
</g>
</g>
<!-- Node16&#45;&gt;Node17 -->
<g id="edge47_Node000016_Node000017" class="edge">
<title>Node16&#45;&gt;Node17</title>
<g id="a_edge47_Node000016_Node000017"><a xlink:title=" ">
<path fill="none" stroke="#63b8ff" d="M542.98,-46.5C557.1,-46.5 571.5,-46.5 584.94,-46.5"/>
<polygon fill="#63b8ff" stroke="#63b8ff" points="542.76,-43 532.76,-46.5 542.76,-50 542.76,-43"/>
</a>
</g>
</g>
<!-- Node19 -->
<g id="Node000019" class="node">
<title>Node19</title>
<g id="a_Node000019"><a xlink:href="classcatena_1_1common_1_1IConnect.html" target="_top" xlink:title="Interface class for Connect RPCs.">
<polygon fill="white" stroke="#666666" points="147,-483 0,-483 0,-464 147,-464 147,-483"/>
<text text-anchor="middle" x="73.5" y="-471" font-family="Helvetica,sans-Serif" font-size="10.00">catena::common::IConnect</text>
</a>
</g>
</g>
<!-- Node4 -->
<g id="Node000004" class="node">
<title>Node4</title>
<g id="a_Node000004"><a xlink:href="classcatena_1_1common_1_1Connect.html" target="_top" xlink:title="Pure virtual class for Connect RPCs. Contains functions for updating the response message with parame...">
<polygon fill="white" stroke="#666666" points="327,-483 183,-483 183,-464 327,-464 327,-483"/>
<text text-anchor="middle" x="255" y="-471" font-family="Helvetica,sans-Serif" font-size="10.00">catena::common::Connect</text>
</a>
</g>
</g>
<!-- Node19&#45;&gt;Node4 -->
<g id="edge49_Node000019_Node000004" class="edge">
<title>Node19&#45;&gt;Node4</title>
<g id="a_edge49_Node000019_Node000004"><a xlink:title=" ">
<path fill="none" stroke="#63b8ff" d="M157.53,-473.5C166,-473.5 174.56,-473.5 182.89,-473.5"/>
<polygon fill="#63b8ff" stroke="#63b8ff" points="157.25,-470 147.25,-473.5 157.25,-477 157.25,-470"/>
</a>
</g>
</g>
<!-- Node4&#45;&gt;Node3 -->
<g id="edge50_Node000004_Node000003" class="edge">
<title>Node4&#45;&gt;Node3</title>
<g id="a_edge50_Node000004_Node000003"><a xlink:title=" ">
<path fill="none" stroke="#63b8ff" d="M337.01,-482.46C357.61,-484.73 379.31,-487.13 398.4,-489.24"/>
<polygon fill="#63b8ff" stroke="#63b8ff" points="337.32,-478.97 327,-481.35 336.56,-485.93 337.32,-478.97"/>
</a>
</g>
</g>
<!-- Node4&#45;&gt;Node5 -->
<g id="edge51_Node000004_Node000005" class="edge">
<title>Node4&#45;&gt;Node5</title>
<g id="a_edge51_Node000004_Node000005"><a xlink:title=" ">
<path fill="none" stroke="#63b8ff" d="M337.02,-464.95C355.79,-462.97 375.47,-460.89 393.27,-459.01"/>
<polygon fill="#63b8ff" stroke="#63b8ff" points="336.58,-461.48 327,-466.01 337.31,-468.44 336.58,-461.48"/>
</a>
</g>
</g>
</g>
</svg>
