<?xml version="1.0" encoding="UTF-8" standalone="no"?>
<!DOCTYPE svg PUBLIC "-//W3C//DTD SVG 1.1//EN"
 "http://www.w3.org/Graphics/SVG/1.1/DTD/svg11.dtd">
<!-- Generated by graphviz version 2.43.0 (0)
 -->
<!-- Title: Graphical Class Hierarchy Pages: 1 -->
<svg width="495pt" height="187pt"
 viewBox="0.00 0.00 495.00 187.00" xmlns="http://www.w3.org/2000/svg" xmlns:xlink="http://www.w3.org/1999/xlink">
<g id="graph0" class="graph" transform="scale(1 1) rotate(0) translate(4 183)">
<title>Graphical Class Hierarchy</title>
<!-- Node0 -->
<g id="Node000000" class="node">
<title>Node0</title>
<g id="a_Node000000"><a xlink:href="classcatena_1_1API_1_1CallData.html" target="_top" xlink:title="CallData class for the REST API. Inherited by all REST classes and contains variables present in all ...">
<polygon fill="white" stroke="#666666" points="131.5,-99 12.5,-99 12.5,-80 131.5,-80 131.5,-99"/>
<text text-anchor="middle" x="72" y="-87" font-family="Helvetica,sans-Serif" font-size="10.00">catena::API::CallData</text>
</a>
</g>
</g>
<!-- Node1 -->
<g id="Node000001" class="node">
<title>Node1</title>
<g id="a_Node000001"><a xlink:href="classAPI_1_1Connect.html" target="_top" xlink:title="The Connect REST RPC.">
<polygon fill="white" stroke="#666666" points="314,-179 197,-179 197,-160 314,-160 314,-179"/>
<text text-anchor="middle" x="255.5" y="-167" font-family="Helvetica,sans-Serif" font-size="10.00">catena::API::Connect</text>
</a>
</g>
</g>
<!-- Node0&#45;&gt;Node1 -->
<g id="edge1_Node000000_Node000001" class="edge">
<title>Node0&#45;&gt;Node1</title>
<g id="a_edge1_Node000000_Node000001"><a xlink:title=" ">
<path fill="none" stroke="#63b8ff" d="M95.02,-104.81C116.01,-118.76 148.93,-139.05 180,-151.5 188.28,-154.82 197.32,-157.63 206.17,-159.98"/>
<polygon fill="#63b8ff" stroke="#63b8ff" points="96.78,-101.77 86.54,-99.07 92.86,-107.57 96.78,-101.77"/>
</a>
</g>
</g>
<!-- Node3 -->
<g id="Node000003" class="node">
<title>Node3</title>
<g id="a_Node000003"><a xlink:href="classAPI_1_1DeviceRequest.html" target="_top" xlink:title="CallData class for the DeviceRequest REST RPC.">
<polygon fill="white" stroke="#666666" points="331,-142 180,-142 180,-123 331,-123 331,-142"/>
<text text-anchor="middle" x="255.5" y="-130" font-family="Helvetica,sans-Serif" font-size="10.00">catena::API::DeviceRequest</text>
</a>
</g>
</g>
<!-- Node0&#45;&gt;Node3 -->
<g id="edge2_Node000000_Node000003" class="edge">
<title>Node0&#45;&gt;Node3</title>
<g id="a_edge2_Node000000_Node000003"><a xlink:title=" ">
<path fill="none" stroke="#63b8ff" d="M123.13,-101.38C151.87,-108.19 187.45,-116.62 214.33,-122.98"/>
<polygon fill="#63b8ff" stroke="#63b8ff" points="123.82,-97.94 113.28,-99.04 122.2,-104.75 123.82,-97.94"/>
</a>
</g>
</g>
<!-- Node4 -->
<g id="Node000004" class="node">
<title>Node4</title>
<g id="a_Node000004"><a xlink:href="classAPI_1_1GetPopulatedSlots.html" target="_top" xlink:title="CallData class for the GetPopulatedSlots REST RPC.">
<polygon fill="white" stroke="#666666" points="327,-104.5 184,-104.5 184,-74.5 327,-74.5 327,-104.5"/>
<text text-anchor="start" x="192" y="-92.5" font-family="Helvetica,sans-Serif" font-size="10.00">catena::API::GetPopulated</text>
<text text-anchor="middle" x="255.5" y="-81.5" font-family="Helvetica,sans-Serif" font-size="10.00">Slots</text>
</a>
</g>
</g>
<!-- Node0&#45;&gt;Node4 -->
<g id="edge3_Node000000_Node000004" class="edge">
<title>Node0&#45;&gt;Node4</title>
<g id="a_edge3_Node000000_Node000004"><a xlink:title=" ">
<path fill="none" stroke="#63b8ff" d="M142.02,-89.5C155.76,-89.5 170.2,-89.5 183.98,-89.5"/>
<polygon fill="#63b8ff" stroke="#63b8ff" points="141.68,-86 131.68,-89.5 141.68,-93 141.68,-86"/>
</a>
</g>
</g>
<!-- Node5 -->
<g id="Node000005" class="node">
<title>Node5</title>
<g id="a_Node000005"><a xlink:href="classAPI_1_1GetValue.html" target="_top" xlink:title="CallData class for the GetValue REST RPC.">
<polygon fill="white" stroke="#666666" points="316.5,-56 194.5,-56 194.5,-37 316.5,-37 316.5,-56"/>
<text text-anchor="middle" x="255.5" y="-44" font-family="Helvetica,sans-Serif" font-size="10.00">catena::API::GetValue</text>
</a>
</g>
</g>
<!-- Node0&#45;&gt;Node5 -->
<g id="edge4_Node000000_Node000005" class="edge">
<title>Node0&#45;&gt;Node5</title>
<g id="a_edge4_Node000000_Node000005"><a xlink:title=" ">
<path fill="none" stroke="#63b8ff" d="M123.13,-77.62C151.87,-70.81 187.45,-62.38 214.33,-56.02"/>
<polygon fill="#63b8ff" stroke="#63b8ff" points="122.2,-74.25 113.28,-79.96 123.82,-81.06 122.2,-74.25"/>
</a>
</g>
</g>
<!-- Node6 -->
<g id="Node000006" class="node">
<title>Node6</title>
<g id="a_Node000006"><a xlink:href="classAPI_1_1MultiSetValue.html" target="_top" xlink:title="Generic CallData class for the SetValue and MultiSetValue REST RPCs.">
<polygon fill="white" stroke="#666666" points="328,-19 183,-19 183,0 328,0 328,-19"/>
<text text-anchor="middle" x="255.5" y="-7" font-family="Helvetica,sans-Serif" font-size="10.00">catena::API::MultiSetValue</text>
</a>
</g>
</g>
<!-- Node0&#45;&gt;Node6 -->
<g id="edge5_Node000000_Node000006" class="edge">
<title>Node0&#45;&gt;Node6</title>
<g id="a_edge5_Node000000_Node000006"><a xlink:title=" ">
<path fill="none" stroke="#63b8ff" d="M95.02,-74.19C116.01,-60.24 148.93,-39.95 180,-27.5 188.28,-24.18 197.32,-21.37 206.17,-19.02"/>
<polygon fill="#63b8ff" stroke="#63b8ff" points="92.86,-71.43 86.54,-79.93 96.78,-77.23 92.86,-71.43"/>
</a>
</g>
</g>
<!-- Node7 -->
<g id="Node000007" class="node">
<title>Node7</title>
<g id="a_Node000007"><a xlink:href="classAPI_1_1SetValue.html" target="_top" xlink:title="The SetValue REST RPC.">
<polygon fill="white" stroke="#666666" points="487,-19 367,-19 367,0 487,0 487,-19"/>
<text text-anchor="middle" x="427" y="-7" font-family="Helvetica,sans-Serif" font-size="10.00">catena::API::SetValue</text>
</a>
</g>
</g>
<!-- Node6&#45;&gt;Node7 -->
<g id="edge6_Node000006_Node000007" class="edge">
<title>Node6&#45;&gt;Node7</title>
<g id="a_edge6_Node000006_Node000007"><a xlink:title=" ">
<path fill="none" stroke="#63b8ff" d="M338.66,-9.5C348.16,-9.5 357.71,-9.5 366.82,-9.5"/>
<polygon fill="#63b8ff" stroke="#63b8ff" points="338.38,-6 328.38,-9.5 338.38,-13 338.38,-6"/>
</a>
</g>
</g>
<!-- Node2 -->
<g id="Node000002" class="node">
<title>Node2</title>
<g id="a_Node000002"><a xlink:href="classcatena_1_1common_1_1Connect.html" target="_top" xlink:title="Pure virtual class for Connect RPCs. Contains functions for updating the response message with parame...">
<polygon fill="white" stroke="#666666" points="144,-179 0,-179 0,-160 144,-160 144,-179"/>
<text text-anchor="middle" x="72" y="-167" font-family="Helvetica,sans-Serif" font-size="10.00">catena::common::Connect</text>
</a>
</g>
</g>
<!-- Node2&#45;&gt;Node1 -->
<g id="edge7_Node000002_Node000001" class="edge">
<title>Node2&#45;&gt;Node1</title>
<g id="a_edge7_Node000002_Node000001"><a xlink:title=" ">
<path fill="none" stroke="#63b8ff" d="M154.55,-169.5C168.85,-169.5 183.46,-169.5 196.93,-169.5"/>
<polygon fill="#63b8ff" stroke="#63b8ff" points="154.21,-166 144.21,-169.5 154.21,-173 154.21,-166"/>
</a>
</g>
</g>
</g>
</svg>
