<?xml version="1.0" encoding="UTF-8" standalone="no"?>
<!DOCTYPE svg PUBLIC "-//W3C//DTD SVG 1.1//EN"
 "http://www.w3.org/Graphics/SVG/1.1/DTD/svg11.dtd">
<!-- Generated by graphviz version 2.43.0 (0)
 -->
<!-- Title: /home/runner/work/Catena/Catena/sdks/cpp/common/include/IParam.h Pages: 1 -->
<svg width="2594pt" height="742pt"
 viewBox="0.00 0.00 2594.00 742.00" xmlns="http://www.w3.org/2000/svg" xmlns:xlink="http://www.w3.org/1999/xlink">
<g id="graph0" class="graph" transform="scale(1 1) rotate(0) translate(4 738)">
<title>/home/runner/work/Catena/Catena/sdks/cpp/common/include/IParam.h</title>
<!-- Node1 -->
<g id="Node000001" class="node">
<title>Node1</title>
<g id="a_Node000001"><a xlink:title="Interface for parameters.">
<polygon fill="#999999" stroke="#666666" points="1137.5,-734 991.5,-734 991.5,-693 1137.5,-693 1137.5,-734"/>
<text text-anchor="start" x="999.5" y="-722" font-family="Helvetica,sans-Serif" font-size="10.00">/home/runner/work/Catena</text>
<text text-anchor="start" x="999.5" y="-711" font-family="Helvetica,sans-Serif" font-size="10.00">/Catena/sdks/cpp/common</text>
<text text-anchor="middle" x="1064.5" y="-700" font-family="Helvetica,sans-Serif" font-size="10.00">/include/IParam.h</text>
</a>
</g>
</g>
<!-- Node2 -->
<g id="Node000002" class="node">
<title>Node2</title>
<g id="a_Node000002"><a xlink:href="Authorization_8h.html" target="_top" xlink:title="Class for handling authorization information.">
<polygon fill="white" stroke="#666666" points="1255.5,-580 1109.5,-580 1109.5,-539 1255.5,-539 1255.5,-580"/>
<text text-anchor="start" x="1117.5" y="-568" font-family="Helvetica,sans-Serif" font-size="10.00">/home/runner/work/Catena</text>
<text text-anchor="start" x="1117.5" y="-557" font-family="Helvetica,sans-Serif" font-size="10.00">/Catena/sdks/cpp/common</text>
<text text-anchor="middle" x="1182.5" y="-546" font-family="Helvetica,sans-Serif" font-size="10.00">/include/Authorization.h</text>
</a>
</g>
</g>
<!-- Node1&#45;&gt;Node2 -->
<g id="edge1_Node000001_Node000002" class="edge">
<title>Node1&#45;&gt;Node2</title>
<g id="a_edge1_Node000001_Node000002"><a xlink:title=" ">
<path fill="none" stroke="#63b8ff" d="M1078.45,-683.97C1088.9,-663.95 1104.32,-637.11 1121.5,-616 1132.16,-602.9 1145.96,-590.08 1157.73,-580.07"/>
<polygon fill="#63b8ff" stroke="#63b8ff" points="1075.31,-682.42 1073.86,-692.91 1081.54,-685.61 1075.31,-682.42"/>
</a>
</g>
</g>
<!-- Node3 -->
<g id="Node000003" class="node">
<title>Node3</title>
<g id="a_Node000003"><a xlink:href="Device_8h.html" target="_top" xlink:title="Device class definition.">
<polygon fill="white" stroke="#666666" points="1019.5,-503 873.5,-503 873.5,-462 1019.5,-462 1019.5,-503"/>
<text text-anchor="start" x="881.5" y="-491" font-family="Helvetica,sans-Serif" font-size="10.00">/home/runner/work/Catena</text>
<text text-anchor="start" x="881.5" y="-480" font-family="Helvetica,sans-Serif" font-size="10.00">/Catena/sdks/cpp/common</text>
<text text-anchor="middle" x="946.5" y="-469" font-family="Helvetica,sans-Serif" font-size="10.00">/include/Device.h</text>
</a>
</g>
</g>
<!-- Node1&#45;&gt;Node3 -->
<g id="edge40_Node000001_Node000003" class="edge">
<title>Node1&#45;&gt;Node3</title>
<g id="a_edge40_Node000001_Node000003"><a xlink:title=" ">
<path fill="none" stroke="#63b8ff" d="M1049.77,-683.92C1025.48,-636.78 977.63,-543.91 956.7,-503.3"/>
<polygon fill="#63b8ff" stroke="#63b8ff" points="1046.75,-685.69 1054.44,-692.98 1052.97,-682.48 1046.75,-685.69"/>
</a>
</g>
</g>
<!-- Node4 -->
<g id="Node000004" class="node">
<title>Node4</title>
<g id="a_Node000004"><a xlink:href="IParamVisitor_8h.html" target="_top" xlink:title="Implements Catena IParamVisitor.">
<polygon fill="white" stroke="#666666" points="445.5,-426 299.5,-426 299.5,-385 445.5,-385 445.5,-426"/>
<text text-anchor="start" x="307.5" y="-414" font-family="Helvetica,sans-Serif" font-size="10.00">/home/runner/work/Catena</text>
<text text-anchor="start" x="307.5" y="-403" font-family="Helvetica,sans-Serif" font-size="10.00">/Catena/sdks/cpp/common</text>
<text text-anchor="middle" x="372.5" y="-392" font-family="Helvetica,sans-Serif" font-size="10.00">/include/IParamVisitor.h</text>
</a>
</g>
</g>
<!-- Node1&#45;&gt;Node4 -->
<g id="edge41_Node000001_Node000004" class="edge">
<title>Node1&#45;&gt;Node4</title>
<g id="a_edge41_Node000001_Node000004"><a xlink:title=" ">
<path fill="none" stroke="#63b8ff" d="M1011.01,-688.85C878.88,-630.42 538.92,-480.09 416.92,-426.14"/>
<polygon fill="#63b8ff" stroke="#63b8ff" points="1009.6,-692.05 1020.16,-692.89 1012.43,-685.65 1009.6,-692.05"/>
</a>
</g>
</g>
<!-- Node7 -->
<g id="Node000007" class="node">
<title>Node7</title>
<g id="a_Node000007"><a xlink:href="SubscriptionManager_8h.html" target="_top" xlink:title="Centralized manager for parameter subscriptions in gRPC connections.">
<polygon fill="white" stroke="#666666" points="524,-272 327,-272 327,-231 524,-231 524,-272"/>
<text text-anchor="start" x="335" y="-260" font-family="Helvetica,sans-Serif" font-size="10.00">/home/runner/work/Catena</text>
<text text-anchor="start" x="335" y="-249" font-family="Helvetica,sans-Serif" font-size="10.00">/Catena/sdks/cpp/connections</text>
<text text-anchor="middle" x="425.5" y="-238" font-family="Helvetica,sans-Serif" font-size="10.00">/gRPC/include/SubscriptionManager.h</text>
</a>
</g>
</g>
<!-- Node1&#45;&gt;Node7 -->
<g id="edge52_Node000001_Node000007" class="edge">
<title>Node1&#45;&gt;Node7</title>
<g id="a_edge52_Node000001_Node000007"><a xlink:title=" ">
<path fill="none" stroke="#63b8ff" d="M981.22,-708.52C741.77,-695.98 68.5,-652.54 68.5,-560.5 68.5,-560.5 68.5,-560.5 68.5,-404.5 68.5,-291.84 220.88,-261.51 326.53,-254.02"/>
<polygon fill="#63b8ff" stroke="#63b8ff" points="981.09,-712.02 991.26,-709.04 981.46,-705.03 981.09,-712.02"/>
</a>
</g>
</g>
<!-- Node9 -->
<g id="Node000009" class="node">
<title>Node9</title>
<g id="a_Node000009"><a xlink:href="ServiceImpl_8h.html" target="_top" xlink:title="Implements Catena gRPC request handlers.">
<polygon fill="white" stroke="#666666" points="1370,-195 1209,-195 1209,-154 1370,-154 1370,-195"/>
<text text-anchor="start" x="1217" y="-183" font-family="Helvetica,sans-Serif" font-size="10.00">/home/runner/work/Catena</text>
<text text-anchor="start" x="1217" y="-172" font-family="Helvetica,sans-Serif" font-size="10.00">/Catena/sdks/cpp/connections</text>
<text text-anchor="middle" x="1289.5" y="-161" font-family="Helvetica,sans-Serif" font-size="10.00">/gRPC/include/ServiceImpl.h</text>
</a>
</g>
</g>
<!-- Node1&#45;&gt;Node9 -->
<g id="edge51_Node000001_Node000009" class="edge">
<title>Node1&#45;&gt;Node9</title>
<g id="a_edge51_Node000001_Node000009"><a xlink:title=" ">
<path fill="none" stroke="#63b8ff" d="M1147.68,-700.37C1272.42,-679.8 1493.5,-633.11 1493.5,-560.5 1493.5,-560.5 1493.5,-560.5 1493.5,-327.5 1493.5,-258.16 1416.77,-216.7 1357.43,-195"/>
<polygon fill="#63b8ff" stroke="#63b8ff" points="1147.07,-696.92 1137.76,-701.98 1148.19,-703.83 1147.07,-696.92"/>
</a>
</g>
</g>
<!-- Node25 -->
<g id="Node000025" class="node">
<title>Node25</title>
<g id="a_Node000025"><a xlink:href="NamedChoiceConstraint_8h.html" target="_top" xlink:title="A constraint that checks if a value is within some named choices.">
<polygon fill="white" stroke="#666666" points="281,-426 96,-426 96,-385 281,-385 281,-426"/>
<text text-anchor="start" x="104" y="-414" font-family="Helvetica,sans-Serif" font-size="10.00">/home/runner/work/Catena</text>
<text text-anchor="start" x="104" y="-403" font-family="Helvetica,sans-Serif" font-size="10.00">/Catena/sdks/cpp/common</text>
<text text-anchor="middle" x="188.5" y="-392" font-family="Helvetica,sans-Serif" font-size="10.00">/include/NamedChoiceConstraint.h</text>
</a>
</g>
</g>
<!-- Node1&#45;&gt;Node25 -->
<g id="edge42_Node000001_Node000025" class="edge">
<title>Node1&#45;&gt;Node25</title>
<g id="a_edge42_Node000001_Node000025"><a xlink:title=" ">
<path fill="none" stroke="#63b8ff" d="M981.2,-693.12C941.36,-683.28 893.16,-670.56 850.5,-657 615.4,-582.27 341.93,-470.7 234.84,-426.03"/>
<polygon fill="#63b8ff" stroke="#63b8ff" points="980.6,-696.57 991.14,-695.55 982.26,-689.77 980.6,-696.57"/>
</a>
</g>
</g>
<!-- Node26 -->
<g id="Node000026" class="node">
<title>Node26</title>
<g id="a_Node000026"><a xlink:href="ParamWithValue_8h.html" target="_top" xlink:title="Interface for acessing parameter values.">
<polygon fill="white" stroke="#666666" points="1465,-426 1318,-426 1318,-385 1465,-385 1465,-426"/>
<text text-anchor="start" x="1326" y="-414" font-family="Helvetica,sans-Serif" font-size="10.00">/home/runner/work/Catena</text>
<text text-anchor="start" x="1326" y="-403" font-family="Helvetica,sans-Serif" font-size="10.00">/Catena/sdks/cpp/common</text>
<text text-anchor="middle" x="1391.5" y="-392" font-family="Helvetica,sans-Serif" font-size="10.00">/include/ParamWithValue.h</text>
</a>
</g>
</g>
<!-- Node1&#45;&gt;Node26 -->
<g id="edge46_Node000001_Node000026" class="edge">
<title>Node1&#45;&gt;Node26</title>
<g id="a_edge46_Node000001_Node000026"><a xlink:title=" ">
<path fill="none" stroke="#63b8ff" d="M1147.59,-702.87C1191.38,-695.14 1244.73,-681.37 1287.5,-657 1364.83,-612.94 1389.46,-588.1 1415.5,-503 1423.53,-476.75 1412.33,-445.88 1402.69,-426.26"/>
<polygon fill="#63b8ff" stroke="#63b8ff" points="1146.82,-699.45 1137.54,-704.57 1147.98,-706.35 1146.82,-699.45"/>
</a>
</g>
</g>
<!-- Node27 -->
<g id="Node000027" class="node">
<title>Node27</title>
<g id="a_Node000027"><a xlink:href="PicklistConstraint_8h.html" target="_top" xlink:title="A constraint that checks if a value is in a list of strings.">
<polygon fill="white" stroke="#666666" points="615.5,-426 463.5,-426 463.5,-385 615.5,-385 615.5,-426"/>
<text text-anchor="start" x="471.5" y="-414" font-family="Helvetica,sans-Serif" font-size="10.00">/home/runner/work/Catena</text>
<text text-anchor="start" x="471.5" y="-403" font-family="Helvetica,sans-Serif" font-size="10.00">/Catena/sdks/cpp/common</text>
<text text-anchor="middle" x="539.5" y="-392" font-family="Helvetica,sans-Serif" font-size="10.00">/include/PicklistConstraint.h</text>
</a>
</g>
</g>
<!-- Node1&#45;&gt;Node27 -->
<g id="edge47_Node000001_Node000027" class="edge">
<title>Node1&#45;&gt;Node27</title>
<g id="a_edge47_Node000001_Node000027"><a xlink:title=" ">
<path fill="none" stroke="#63b8ff" d="M1025.02,-687.59C951.59,-641.51 788.62,-540.53 647.5,-462 625.12,-449.54 599.66,-436.41 579.08,-426.05"/>
<polygon fill="#63b8ff" stroke="#63b8ff" points="1023.2,-690.57 1033.53,-692.93 1026.92,-684.65 1023.2,-690.57"/>
</a>
</g>
</g>
<!-- Node28 -->
<g id="Node000028" class="node">
<title>Node28</title>
<g id="a_Node000028"><a xlink:href="RangeConstraint_8h.html" target="_top" xlink:title="A constraint that checks if a value is within a range.">
<polygon fill="white" stroke="#666666" points="1261.5,-426 1113.5,-426 1113.5,-385 1261.5,-385 1261.5,-426"/>
<text text-anchor="start" x="1121.5" y="-414" font-family="Helvetica,sans-Serif" font-size="10.00">/home/runner/work/Catena</text>
<text text-anchor="start" x="1121.5" y="-403" font-family="Helvetica,sans-Serif" font-size="10.00">/Catena/sdks/cpp/common</text>
<text text-anchor="middle" x="1187.5" y="-392" font-family="Helvetica,sans-Serif" font-size="10.00">/include/RangeConstraint.h</text>
</a>
</g>
</g>
<!-- Node1&#45;&gt;Node28 -->
<g id="edge48_Node000001_Node000028" class="edge">
<title>Node1&#45;&gt;Node28</title>
<g id="a_edge48_Node000001_Node000028"><a xlink:title=" ">
<path fill="none" stroke="#63b8ff" d="M1067.25,-682.66C1071.28,-647.27 1080.6,-587.03 1100.5,-539 1118.51,-495.53 1151.28,-451.01 1171.05,-426.24"/>
<polygon fill="#63b8ff" stroke="#63b8ff" points="1063.75,-682.48 1066.16,-692.8 1070.71,-683.23 1063.75,-682.48"/>
</a>
</g>
</g>
<!-- Node30 -->
<g id="Node000030" class="node">
<title>Node30</title>
<g id="a_Node000030"><a xlink:href="ParamDescriptor_8h.html" target="_top" xlink:title="Interface for accessing parameter descriptions.">
<polygon fill="white" stroke="#666666" points="1278,-657 1131,-657 1131,-616 1278,-616 1278,-657"/>
<text text-anchor="start" x="1139" y="-645" font-family="Helvetica,sans-Serif" font-size="10.00">/home/runner/work/Catena</text>
<text text-anchor="start" x="1139" y="-634" font-family="Helvetica,sans-Serif" font-size="10.00">/Catena/sdks/cpp/common</text>
<text text-anchor="middle" x="1204.5" y="-623" font-family="Helvetica,sans-Serif" font-size="10.00">/include/ParamDescriptor.h</text>
</a>
</g>
</g>
<!-- Node1&#45;&gt;Node30 -->
<g id="edge43_Node000001_Node000030" class="edge">
<title>Node1&#45;&gt;Node30</title>
<g id="a_edge43_Node000001_Node000030"><a xlink:title=" ">
<path fill="none" stroke="#63b8ff" d="M1109.87,-688.19C1128.61,-678.15 1150.05,-666.67 1167.78,-657.17"/>
<polygon fill="#63b8ff" stroke="#63b8ff" points="1108.08,-685.18 1100.92,-692.99 1111.39,-691.35 1108.08,-685.18"/>
</a>
</g>
</g>
<!-- Node31 -->
<g id="Node000031" class="node">
<title>Node31</title>
<g id="a_Node000031"><a xlink:href="PeerInfo_8h.html" target="_top" xlink:title="Holds information about connected Peers.">
<polygon fill="white" stroke="#666666" points="1683,-657 1522,-657 1522,-616 1683,-616 1683,-657"/>
<text text-anchor="start" x="1530" y="-645" font-family="Helvetica,sans-Serif" font-size="10.00">/home/runner/work/Catena</text>
<text text-anchor="start" x="1530" y="-634" font-family="Helvetica,sans-Serif" font-size="10.00">/Catena/sdks/cpp/connections</text>
<text text-anchor="middle" x="1602.5" y="-623" font-family="Helvetica,sans-Serif" font-size="10.00">/gRPC/include/PeerInfo.h</text>
</a>
</g>
</g>
<!-- Node1&#45;&gt;Node31 -->
<g id="edge49_Node000001_Node000031" class="edge">
<title>Node1&#45;&gt;Node31</title>
<g id="a_edge49_Node000001_Node000031"><a xlink:title=" ">
<path fill="none" stroke="#63b8ff" d="M1147.72,-704.03C1236.96,-694.49 1382.68,-677.6 1507.5,-657 1512.23,-656.22 1517.09,-655.37 1521.99,-654.48"/>
<polygon fill="#63b8ff" stroke="#63b8ff" points="1147.23,-700.56 1137.65,-705.1 1147.97,-707.52 1147.23,-700.56"/>
</a>
</g>
</g>
<!-- Node2&#45;&gt;Node3 -->
<g id="edge2_Node000002_Node000003" class="edge">
<title>Node2&#45;&gt;Node3</title>
<g id="a_edge2_Node000002_Node000003"><a xlink:title=" ">
<path fill="none" stroke="#63b8ff" d="M1111.53,-535.94C1078.55,-525.46 1039.7,-513.12 1007.99,-503.04"/>
<polygon fill="#63b8ff" stroke="#63b8ff" points="1110.52,-539.3 1121.11,-538.99 1112.64,-532.63 1110.52,-539.3"/>
</a>
</g>
</g>
<!-- Node2&#45;&gt;Node9 -->
<g id="edge39_Node000002_Node000009" class="edge">
<title>Node2&#45;&gt;Node9</title>
<g id="a_edge39_Node000002_Node000009"><a xlink:title=" ">
<path fill="none" stroke="#63b8ff" d="M1181.08,-528.65C1181.58,-508.07 1185.35,-481.08 1199.5,-462 1220.57,-433.58 1250.86,-455.43 1270.5,-426 1319.17,-353.09 1303.13,-240.24 1293.99,-195.12"/>
<polygon fill="#63b8ff" stroke="#63b8ff" points="1177.58,-528.75 1181.07,-538.75 1184.58,-528.75 1177.58,-528.75"/>
</a>
</g>
</g>
<!-- Node2&#45;&gt;Node26 -->
<g id="edge36_Node000002_Node000026" class="edge">
<title>Node2&#45;&gt;Node26</title>
<g id="a_edge36_Node000002_Node000026"><a xlink:title=" ">
<path fill="none" stroke="#63b8ff" d="M1191.82,-529.18C1199.97,-507.86 1213.79,-479.74 1234.5,-462 1248.17,-450.29 1285.68,-436.85 1320.6,-426.12"/>
<polygon fill="#63b8ff" stroke="#63b8ff" points="1188.47,-528.13 1188.36,-538.72 1195.06,-530.51 1188.47,-528.13"/>
</a>
</g>
</g>
<!-- Node29 -->
<g id="Node000029" class="node">
<title>Node29</title>
<g id="a_Node000029"><a xlink:href="StructInfo_8h.html" target="_top" xlink:title="Structured data serialization and deserialization to protobuf.">
<polygon fill="white" stroke="#666666" points="1389.5,-503 1243.5,-503 1243.5,-462 1389.5,-462 1389.5,-503"/>
<text text-anchor="start" x="1251.5" y="-491" font-family="Helvetica,sans-Serif" font-size="10.00">/home/runner/work/Catena</text>
<text text-anchor="start" x="1251.5" y="-480" font-family="Helvetica,sans-Serif" font-size="10.00">/Catena/sdks/cpp/common</text>
<text text-anchor="middle" x="1316.5" y="-469" font-family="Helvetica,sans-Serif" font-size="10.00">/include/StructInfo.h</text>
</a>
</g>
</g>
<!-- Node2&#45;&gt;Node29 -->
<g id="edge37_Node000002_Node000029" class="edge">
<title>Node2&#45;&gt;Node29</title>
<g id="a_edge37_Node000002_Node000029"><a xlink:title=" ">
<path fill="none" stroke="#63b8ff" d="M1226.42,-533.92C1244.24,-523.95 1264.54,-512.58 1281.35,-503.17"/>
<polygon fill="#63b8ff" stroke="#63b8ff" points="1224.37,-531.05 1217.36,-538.99 1227.79,-537.16 1224.37,-531.05"/>
</a>
</g>
</g>
<!-- Node3&#45;&gt;Node4 -->
<g id="edge3_Node000003_Node000004" class="edge">
<title>Node3&#45;&gt;Node4</title>
<g id="a_edge3_Node000003_Node000004"><a xlink:title=" ">
<path fill="none" stroke="#63b8ff" d="M863,-475.18C764.77,-467.04 597.01,-450.89 454.5,-426 451.62,-425.5 448.68,-424.95 445.73,-424.38"/>
<polygon fill="#63b8ff" stroke="#63b8ff" points="862.91,-478.69 873.17,-476.02 863.49,-471.71 862.91,-478.69"/>
</a>
</g>
</g>
<!-- Node5 -->
<g id="Node000005" class="node">
<title>Node5</title>
<g id="a_Node000005"><a xlink:href="ParamVisitor_8h.html" target="_top" xlink:title="Implements Catena ParamVisitor.">
<polygon fill="white" stroke="#666666" points="472.5,-349 326.5,-349 326.5,-308 472.5,-308 472.5,-349"/>
<text text-anchor="start" x="334.5" y="-337" font-family="Helvetica,sans-Serif" font-size="10.00">/home/runner/work/Catena</text>
<text text-anchor="start" x="334.5" y="-326" font-family="Helvetica,sans-Serif" font-size="10.00">/Catena/sdks/cpp/common</text>
<text text-anchor="middle" x="399.5" y="-315" font-family="Helvetica,sans-Serif" font-size="10.00">/include/ParamVisitor.h</text>
</a>
</g>
</g>
<!-- Node3&#45;&gt;Node5 -->
<g id="edge30_Node000003_Node000005" class="edge">
<title>Node3&#45;&gt;Node5</title>
<g id="a_edge30_Node000003_Node000005"><a xlink:title=" ">
<path fill="none" stroke="#63b8ff" d="M906.11,-456.56C860.37,-428.35 791.71,-386.16 788.5,-385 682.89,-347.05 552.39,-334.95 472.59,-331.16"/>
<polygon fill="#63b8ff" stroke="#63b8ff" points="904.29,-459.55 914.64,-461.82 907.97,-453.59 904.29,-459.55"/>
</a>
</g>
</g>
<!-- Node3&#45;&gt;Node7 -->
<g id="edge35_Node000003_Node000007" class="edge">
<title>Node3&#45;&gt;Node7</title>
<g id="a_edge35_Node000003_Node000007"><a xlink:title=" ">
<path fill="none" stroke="#63b8ff" d="M999.8,-456.48C1011.3,-448.44 1021.95,-438.34 1028.5,-426 1055.2,-375.69 1027.13,-337.65 978.5,-308 904.51,-262.89 662.09,-253.76 524.04,-252.33"/>
<polygon fill="#63b8ff" stroke="#63b8ff" points="997.82,-453.59 991.33,-461.97 1001.62,-459.47 997.82,-453.59"/>
</a>
</g>
</g>
<!-- Node3&#45;&gt;Node9 -->
<g id="edge34_Node000003_Node000009" class="edge">
<title>Node3&#45;&gt;Node9</title>
<g id="a_edge34_Node000003_Node000009"><a xlink:title=" ">
<path fill="none" stroke="#63b8ff" d="M986.84,-456.17C1000.43,-447.13 1015.45,-436.55 1028.5,-426 1125.93,-347.22 1230.01,-239.1 1271.21,-195.21"/>
<polygon fill="#63b8ff" stroke="#63b8ff" points="984.59,-453.46 978.15,-461.88 988.43,-459.31 984.59,-453.46"/>
</a>
</g>
</g>
<!-- Node22 -->
<g id="Node000022" class="node">
<title>Node22</title>
<g id="a_Node000022"><a xlink:href="LanguagePack_8h.html" target="_top" xlink:title="multi language support in 2 classes: LanguagePack and LanguagePacks">
<polygon fill="white" stroke="#666666" points="779.5,-426 633.5,-426 633.5,-385 779.5,-385 779.5,-426"/>
<text text-anchor="start" x="641.5" y="-414" font-family="Helvetica,sans-Serif" font-size="10.00">/home/runner/work/Catena</text>
<text text-anchor="start" x="641.5" y="-403" font-family="Helvetica,sans-Serif" font-size="10.00">/Catena/sdks/cpp/common</text>
<text text-anchor="middle" x="706.5" y="-392" font-family="Helvetica,sans-Serif" font-size="10.00">/include/LanguagePack.h</text>
</a>
</g>
</g>
<!-- Node3&#45;&gt;Node22 -->
<g id="edge25_Node000003_Node000022" class="edge">
<title>Node3&#45;&gt;Node22</title>
<g id="a_edge25_Node000003_Node000022"><a xlink:title=" ">
<path fill="none" stroke="#63b8ff" d="M874.32,-458.94C840.78,-448.46 801.28,-436.12 769.03,-426.04"/>
<polygon fill="#63b8ff" stroke="#63b8ff" points="873.48,-462.35 884.07,-461.99 875.57,-455.67 873.48,-462.35"/>
</a>
</g>
</g>
<!-- Node23 -->
<g id="Node000023" class="node">
<title>Node23</title>
<g id="a_Node000023"><a xlink:href="Menu_8h.html" target="_top" xlink:title="Menus support.">
<polygon fill="white" stroke="#666666" points="1019.5,-426 873.5,-426 873.5,-385 1019.5,-385 1019.5,-426"/>
<text text-anchor="start" x="881.5" y="-414" font-family="Helvetica,sans-Serif" font-size="10.00">/home/runner/work/Catena</text>
<text text-anchor="start" x="881.5" y="-403" font-family="Helvetica,sans-Serif" font-size="10.00">/Catena/sdks/cpp/common</text>
<text text-anchor="middle" x="946.5" y="-392" font-family="Helvetica,sans-Serif" font-size="10.00">/include/Menu.h</text>
</a>
</g>
</g>
<!-- Node3&#45;&gt;Node23 -->
<g id="edge26_Node000003_Node000023" class="edge">
<title>Node3&#45;&gt;Node23</title>
<g id="a_edge26_Node000003_Node000023"><a xlink:title=" ">
<path fill="none" stroke="#63b8ff" d="M946.5,-451.69C946.5,-443.08 946.5,-433.9 946.5,-426.07"/>
<polygon fill="#63b8ff" stroke="#63b8ff" points="943,-451.79 946.5,-461.79 950,-451.79 943,-451.79"/>
</a>
</g>
</g>
<!-- Node24 -->
<g id="Node000024" class="node">
<title>Node24</title>
<g id="a_Node000024"><a xlink:href="MenuGroup_8h.html" target="_top" xlink:title="MenuGroups support.">
<polygon fill="white" stroke="#666666" points="969.5,-349 823.5,-349 823.5,-308 969.5,-308 969.5,-349"/>
<text text-anchor="start" x="831.5" y="-337" font-family="Helvetica,sans-Serif" font-size="10.00">/home/runner/work/Catena</text>
<text text-anchor="start" x="831.5" y="-326" font-family="Helvetica,sans-Serif" font-size="10.00">/Catena/sdks/cpp/common</text>
<text text-anchor="middle" x="896.5" y="-315" font-family="Helvetica,sans-Serif" font-size="10.00">/include/MenuGroup.h</text>
</a>
</g>
</g>
<!-- Node3&#45;&gt;Node24 -->
<g id="edge28_Node000003_Node000024" class="edge">
<title>Node3&#45;&gt;Node24</title>
<g id="a_edge28_Node000003_Node000024"><a xlink:title=" ">
<path fill="none" stroke="#63b8ff" d="M893.2,-456.48C881.7,-448.44 871.05,-438.34 864.5,-426 851.18,-400.9 867.27,-369.2 881.05,-349.13"/>
<polygon fill="#63b8ff" stroke="#63b8ff" points="891.38,-459.47 901.67,-461.97 895.18,-453.59 891.38,-459.47"/>
</a>
</g>
</g>
<!-- Node3&#45;&gt;Node25 -->
<g id="edge29_Node000003_Node000025" class="edge">
<title>Node3&#45;&gt;Node25</title>
<g id="a_edge29_Node000003_Node000025"><a xlink:title=" ">
<path fill="none" stroke="#63b8ff" d="M863.17,-477.25C738.29,-470.24 495.35,-454.17 290.5,-426 287.46,-425.58 284.38,-425.13 281.27,-424.66"/>
<polygon fill="#63b8ff" stroke="#63b8ff" points="863.24,-480.76 873.42,-477.82 863.63,-473.77 863.24,-480.76"/>
</a>
</g>
</g>
<!-- Node3&#45;&gt;Node26 -->
<g id="edge31_Node000003_Node000026" class="edge">
<title>Node3&#45;&gt;Node26</title>
<g id="a_edge31_Node000003_Node000026"><a xlink:title=" ">
<path fill="none" stroke="#63b8ff" d="M1029.87,-467.45C1112.75,-453.48 1238.63,-432.26 1317.91,-418.9"/>
<polygon fill="#63b8ff" stroke="#63b8ff" points="1029.26,-464 1019.98,-469.12 1030.43,-470.9 1029.26,-464"/>
</a>
</g>
</g>
<!-- Node3&#45;&gt;Node27 -->
<g id="edge32_Node000003_Node000027" class="edge">
<title>Node3&#45;&gt;Node27</title>
<g id="a_edge32_Node000003_Node000027"><a xlink:title=" ">
<path fill="none" stroke="#63b8ff" d="M863.38,-462.74C862.08,-462.49 860.78,-462.24 859.5,-462 755.66,-442.43 728.29,-445.83 624.5,-426 621.67,-425.46 618.8,-424.89 615.9,-424.31"/>
<polygon fill="#63b8ff" stroke="#63b8ff" points="862.98,-466.23 873.47,-464.75 864.35,-459.37 862.98,-466.23"/>
</a>
</g>
</g>
<!-- Node3&#45;&gt;Node28 -->
<g id="edge33_Node000003_Node000028" class="edge">
<title>Node3&#45;&gt;Node28</title>
<g id="a_edge33_Node000003_Node000028"><a xlink:title=" ">
<path fill="none" stroke="#63b8ff" d="M1018.98,-458.94C1052.66,-448.46 1092.32,-436.12 1124.7,-426.04"/>
<polygon fill="#63b8ff" stroke="#63b8ff" points="1017.7,-455.68 1009.19,-461.99 1019.78,-462.36 1017.7,-455.68"/>
</a>
</g>
</g>
<!-- Node4&#45;&gt;Node5 -->
<g id="edge4_Node000004_Node000005" class="edge">
<title>Node4&#45;&gt;Node5</title>
<g id="a_edge4_Node000004_Node000005"><a xlink:title=" ">
<path fill="none" stroke="#63b8ff" d="M383.03,-375.26C386.19,-366.48 389.58,-357.07 392.45,-349.07"/>
<polygon fill="#63b8ff" stroke="#63b8ff" points="379.69,-374.2 379.59,-384.79 386.27,-376.57 379.69,-374.2"/>
</a>
</g>
</g>
<!-- Node6 -->
<g id="Node000006" class="node">
<title>Node6</title>
<g id="a_Node000006"><a xlink:href="BasicParamInfoRequest_8h_source.html" target="_top" xlink:title=" ">
<polygon fill="white" stroke="#666666" points="211,-118 0,-118 0,-77 211,-77 211,-118"/>
<text text-anchor="start" x="8" y="-106" font-family="Helvetica,sans-Serif" font-size="10.00">/home/runner/work/Catena</text>
<text text-anchor="start" x="8" y="-95" font-family="Helvetica,sans-Serif" font-size="10.00">/Catena/sdks/cpp/connections</text>
<text text-anchor="middle" x="105.5" y="-84" font-family="Helvetica,sans-Serif" font-size="10.00">/gRPC/include/BasicParamInfoRequest.h</text>
</a>
</g>
</g>
<!-- Node5&#45;&gt;Node6 -->
<g id="edge5_Node000005_Node000006" class="edge">
<title>Node5&#45;&gt;Node6</title>
<g id="a_edge5_Node000005_Node000006"><a xlink:title=" ">
<path fill="none" stroke="#63b8ff" d="M360.7,-302.29C346.87,-293.03 331.31,-282.29 317.5,-272 246.38,-219 166.37,-151.14 128.17,-118.2"/>
<polygon fill="#63b8ff" stroke="#63b8ff" points="358.79,-305.22 369.05,-307.85 362.67,-299.39 358.79,-305.22"/>
</a>
</g>
</g>
<!-- Node5&#45;&gt;Node7 -->
<g id="edge6_Node000005_Node000007" class="edge">
<title>Node5&#45;&gt;Node7</title>
<g id="a_edge6_Node000005_Node000007"><a xlink:title=" ">
<path fill="none" stroke="#63b8ff" d="M409.64,-298.26C412.68,-289.48 415.94,-280.07 418.71,-272.07"/>
<polygon fill="#63b8ff" stroke="#63b8ff" points="406.3,-297.2 406.33,-307.79 412.91,-299.49 406.3,-297.2"/>
</a>
</g>
</g>
<!-- Node8 -->
<g id="Node000008" class="node">
<title>Node8</title>
<g id="a_Node000008"><a xlink:href="Connect_8h.html" target="_top" xlink:title="Implements Catena gRPC Connect.">
<polygon fill="white" stroke="#666666" points="390,-118 229,-118 229,-77 390,-77 390,-118"/>
<text text-anchor="start" x="237" y="-106" font-family="Helvetica,sans-Serif" font-size="10.00">/home/runner/work/Catena</text>
<text text-anchor="start" x="237" y="-95" font-family="Helvetica,sans-Serif" font-size="10.00">/Catena/sdks/cpp/connections</text>
<text text-anchor="middle" x="309.5" y="-84" font-family="Helvetica,sans-Serif" font-size="10.00">/gRPC/include/Connect.h</text>
</a>
</g>
</g>
<!-- Node7&#45;&gt;Node8 -->
<g id="edge7_Node000007_Node000008" class="edge">
<title>Node7&#45;&gt;Node8</title>
<g id="a_edge7_Node000007_Node000008"><a xlink:title=" ">
<path fill="none" stroke="#63b8ff" d="M404.46,-222.93C381.45,-192.78 345.15,-145.21 324.74,-118.47"/>
<polygon fill="#63b8ff" stroke="#63b8ff" points="401.72,-225.11 410.57,-230.94 407.29,-220.87 401.72,-225.11"/>
</a>
</g>
</g>
<!-- Node7&#45;&gt;Node9 -->
<g id="edge8_Node000007_Node000009" class="edge">
<title>Node7&#45;&gt;Node9</title>
<g id="a_edge8_Node000007_Node000009"><a xlink:title=" ">
<path fill="none" stroke="#63b8ff" d="M534.24,-241.06C710.15,-225.79 1053.1,-196.02 1208.96,-182.49"/>
<polygon fill="#63b8ff" stroke="#63b8ff" points="533.85,-237.58 524.19,-241.93 534.46,-244.56 533.85,-237.58"/>
</a>
</g>
</g>
<!-- Node21 -->
<g id="Node000021" class="node">
<title>Node21</title>
<g id="a_Node000021"><a xlink:href="UpdateSubscriptions_8h.html" target="_top" xlink:title="Implements Catena gRPC UpdateSubscriptions.">
<polygon fill="white" stroke="#666666" points="604.5,-118 408.5,-118 408.5,-77 604.5,-77 604.5,-118"/>
<text text-anchor="start" x="416.5" y="-106" font-family="Helvetica,sans-Serif" font-size="10.00">/home/runner/work/Catena</text>
<text text-anchor="start" x="416.5" y="-95" font-family="Helvetica,sans-Serif" font-size="10.00">/Catena/sdks/cpp/connections</text>
<text text-anchor="middle" x="506.5" y="-84" font-family="Helvetica,sans-Serif" font-size="10.00">/gRPC/include/UpdateSubscriptions.h</text>
</a>
</g>
</g>
<!-- Node7&#45;&gt;Node21 -->
<g id="edge24_Node000007_Node000021" class="edge">
<title>Node7&#45;&gt;Node21</title>
<g id="a_edge24_Node000007_Node000021"><a xlink:title=" ">
<path fill="none" stroke="#63b8ff" d="M440.81,-221.76C456.9,-191.57 481.79,-144.87 495.86,-118.47"/>
<polygon fill="#63b8ff" stroke="#63b8ff" points="437.54,-220.47 435.92,-230.94 443.72,-223.76 437.54,-220.47"/>
</a>
</g>
</g>
<!-- Node9&#45;&gt;Node6 -->
<g id="edge10_Node000009_Node000006" class="edge">
<title>Node9&#45;&gt;Node6</title>
<g id="a_edge10_Node000009_Node000006"><a xlink:title=" ">
<path fill="none" stroke="#63b8ff" d="M1198.48,-172.38C1013.5,-169.32 580.58,-158.11 219.5,-118 216.71,-117.69 213.88,-117.35 211.02,-117"/>
<polygon fill="#63b8ff" stroke="#63b8ff" points="1198.65,-175.89 1208.7,-172.55 1198.76,-168.89 1198.65,-175.89"/>
</a>
</g>
</g>
<!-- Node9&#45;&gt;Node8 -->
<g id="edge11_Node000009_Node000008" class="edge">
<title>Node9&#45;&gt;Node8</title>
<g id="a_edge11_Node000009_Node000008"><a xlink:title=" ">
<path fill="none" stroke="#63b8ff" d="M1198.33,-172.35C1036.67,-169.3 689.47,-158.22 399.5,-118 396.49,-117.58 393.43,-117.12 390.35,-116.62"/>
<polygon fill="#63b8ff" stroke="#63b8ff" points="1198.65,-175.86 1208.71,-172.54 1198.77,-168.86 1198.65,-175.86"/>
</a>
</g>
</g>
<!-- Node10 -->
<g id="Node000010" class="node">
<title>Node10</title>
<g id="a_Node000010"><a xlink:href="AddLanguage_8h.html" target="_top" xlink:title="Implements Catena gRPC AddLanguage.">
<polygon fill="white" stroke="#666666" points="1589,-118 1428,-118 1428,-77 1589,-77 1589,-118"/>
<text text-anchor="start" x="1436" y="-106" font-family="Helvetica,sans-Serif" font-size="10.00">/home/runner/work/Catena</text>
<text text-anchor="start" x="1436" y="-95" font-family="Helvetica,sans-Serif" font-size="10.00">/Catena/sdks/cpp/connections</text>
<text text-anchor="middle" x="1508.5" y="-84" font-family="Helvetica,sans-Serif" font-size="10.00">/gRPC/include/AddLanguage.h</text>
</a>
</g>
</g>
<!-- Node9&#45;&gt;Node10 -->
<g id="edge9_Node000009_Node000010" class="edge">
<title>Node9&#45;&gt;Node10</title>
<g id="a_edge9_Node000009_Node000010"><a xlink:title=" ">
<path fill="none" stroke="#63b8ff" d="M1356.15,-150.67C1386.58,-140.25 1422.26,-128.03 1451.44,-118.04"/>
<polygon fill="#63b8ff" stroke="#63b8ff" points="1354.79,-147.44 1346.47,-153.99 1357.06,-154.06 1354.79,-147.44"/>
</a>
</g>
</g>
<!-- Node11 -->
<g id="Node000011" class="node">
<title>Node11</title>
<g id="a_Node000011"><a xlink:href="DeviceRequest_8h.html" target="_top" xlink:title="Implements Catena gRPC DeviceRequest.">
<polygon fill="white" stroke="#666666" points="1776,-118 1607,-118 1607,-77 1776,-77 1776,-118"/>
<text text-anchor="start" x="1615" y="-106" font-family="Helvetica,sans-Serif" font-size="10.00">/home/runner/work/Catena</text>
<text text-anchor="start" x="1615" y="-95" font-family="Helvetica,sans-Serif" font-size="10.00">/Catena/sdks/cpp/connections</text>
<text text-anchor="middle" x="1691.5" y="-84" font-family="Helvetica,sans-Serif" font-size="10.00">/gRPC/include/DeviceRequest.h</text>
</a>
</g>
</g>
<!-- Node9&#45;&gt;Node11 -->
<g id="edge12_Node000009_Node000011" class="edge">
<title>Node9&#45;&gt;Node11</title>
<g id="a_edge12_Node000009_Node000011"><a xlink:title=" ">
<path fill="none" stroke="#63b8ff" d="M1380.38,-157.89C1442.01,-147.13 1525.27,-132.25 1598.5,-118 1601.25,-117.46 1604.05,-116.91 1606.87,-116.35"/>
<polygon fill="#63b8ff" stroke="#63b8ff" points="1379.55,-154.48 1370.29,-159.65 1380.75,-161.38 1379.55,-154.48"/>
</a>
</g>
</g>
<!-- Node12 -->
<g id="Node000012" class="node">
<title>Node12</title>
<g id="a_Node000012"><a xlink:href="ExecuteCommand_8h.html" target="_top" xlink:title="Implements Catena gRPC ExecuteCommand.">
<polygon fill="white" stroke="#666666" points="1978.5,-118 1794.5,-118 1794.5,-77 1978.5,-77 1978.5,-118"/>
<text text-anchor="start" x="1802.5" y="-106" font-family="Helvetica,sans-Serif" font-size="10.00">/home/runner/work/Catena</text>
<text text-anchor="start" x="1802.5" y="-95" font-family="Helvetica,sans-Serif" font-size="10.00">/Catena/sdks/cpp/connections</text>
<text text-anchor="middle" x="1886.5" y="-84" font-family="Helvetica,sans-Serif" font-size="10.00">/gRPC/include/ExecuteCommand.h</text>
</a>
</g>
</g>
<!-- Node9&#45;&gt;Node12 -->
<g id="edge13_Node000009_Node000012" class="edge">
<title>Node9&#45;&gt;Node12</title>
<g id="a_edge13_Node000009_Node000012"><a xlink:title=" ">
<path fill="none" stroke="#63b8ff" d="M1380.12,-165.54C1479.77,-156.27 1644.5,-139.46 1785.5,-118 1788.41,-117.56 1791.37,-117.09 1794.35,-116.6"/>
<polygon fill="#63b8ff" stroke="#63b8ff" points="1379.72,-162.06 1370.08,-166.46 1380.36,-169.03 1379.72,-162.06"/>
</a>
</g>
</g>
<!-- Node13 -->
<g id="Node000013" class="node">
<title>Node13</title>
<g id="a_Node000013"><a xlink:href="ExternalObjectRequest_8h.html" target="_top" xlink:title="Implements Catena gRPC ExternalObjectRequest.">
<polygon fill="white" stroke="#666666" points="2204,-118 1997,-118 1997,-77 2204,-77 2204,-118"/>
<text text-anchor="start" x="2005" y="-106" font-family="Helvetica,sans-Serif" font-size="10.00">/home/runner/work/Catena</text>
<text text-anchor="start" x="2005" y="-95" font-family="Helvetica,sans-Serif" font-size="10.00">/Catena/sdks/cpp/connections</text>
<text text-anchor="middle" x="2100.5" y="-84" font-family="Helvetica,sans-Serif" font-size="10.00">/gRPC/include/ExternalObjectRequest.h</text>
</a>
</g>
</g>
<!-- Node9&#45;&gt;Node13 -->
<g id="edge14_Node000009_Node000013" class="edge">
<title>Node9&#45;&gt;Node13</title>
<g id="a_edge14_Node000009_Node000013"><a xlink:title=" ">
<path fill="none" stroke="#63b8ff" d="M1380.26,-168.94C1513.69,-161.64 1770.47,-145.3 1987.5,-118 1990.56,-117.61 1993.67,-117.21 1996.8,-116.77"/>
<polygon fill="#63b8ff" stroke="#63b8ff" points="1379.89,-165.46 1370.09,-169.49 1380.27,-172.45 1379.89,-165.46"/>
</a>
</g>
</g>
<!-- Node14 -->
<g id="Node000014" class="node">
<title>Node14</title>
<g id="a_Node000014"><a xlink:href="GetParam_8h.html" target="_top" xlink:title="Implements Catena gRPC GetParam.">
<polygon fill="white" stroke="#666666" points="2383,-118 2222,-118 2222,-77 2383,-77 2383,-118"/>
<text text-anchor="start" x="2230" y="-106" font-family="Helvetica,sans-Serif" font-size="10.00">/home/runner/work/Catena</text>
<text text-anchor="start" x="2230" y="-95" font-family="Helvetica,sans-Serif" font-size="10.00">/Catena/sdks/cpp/connections</text>
<text text-anchor="middle" x="2302.5" y="-84" font-family="Helvetica,sans-Serif" font-size="10.00">/gRPC/include/GetParam.h</text>
</a>
</g>
</g>
<!-- Node9&#45;&gt;Node14 -->
<g id="edge15_Node000009_Node000014" class="edge">
<title>Node9&#45;&gt;Node14</title>
<g id="a_edge15_Node000009_Node000014"><a xlink:title=" ">
<path fill="none" stroke="#63b8ff" d="M1380.43,-172.72C1546.62,-170.26 1910.24,-160.07 2213.5,-118 2216.16,-117.63 2218.87,-117.22 2221.59,-116.79"/>
<polygon fill="#63b8ff" stroke="#63b8ff" points="1380.2,-169.22 1370.25,-172.87 1380.3,-176.22 1380.2,-169.22"/>
</a>
</g>
</g>
<!-- Node15 -->
<g id="Node000015" class="node">
<title>Node15</title>
<g id="a_Node000015"><a xlink:href="GetPopulatedSlots_8h.html" target="_top" xlink:title="Implements Catena gRPC GetPopulatedSlots.">
<polygon fill="white" stroke="#666666" points="2586,-118 2401,-118 2401,-77 2586,-77 2586,-118"/>
<text text-anchor="start" x="2409" y="-106" font-family="Helvetica,sans-Serif" font-size="10.00">/home/runner/work/Catena</text>
<text text-anchor="start" x="2409" y="-95" font-family="Helvetica,sans-Serif" font-size="10.00">/Catena/sdks/cpp/connections</text>
<text text-anchor="middle" x="2493.5" y="-84" font-family="Helvetica,sans-Serif" font-size="10.00">/gRPC/include/GetPopulatedSlots.h</text>
</a>
</g>
</g>
<!-- Node9&#45;&gt;Node15 -->
<g id="edge16_Node000009_Node000015" class="edge">
<title>Node9&#45;&gt;Node15</title>
<g id="a_edge16_Node000009_Node000015"><a xlink:title=" ">
<path fill="none" stroke="#63b8ff" d="M1380.27,-173.24C1569.29,-171.74 2018.69,-163.26 2392.5,-118 2395.25,-117.67 2398.03,-117.3 2400.84,-116.91"/>
<polygon fill="#63b8ff" stroke="#63b8ff" points="1380.07,-169.74 1370.1,-173.31 1380.13,-176.74 1380.07,-169.74"/>
</a>
</g>
</g>
<!-- Node16 -->
<g id="Node000016" class="node">
<title>Node16</title>
<g id="a_Node000016"><a xlink:href="GetValue_8h.html" target="_top" xlink:title="Implements Catena gRPC GetValue.">
<polygon fill="white" stroke="#666666" points="784,-118 623,-118 623,-77 784,-77 784,-118"/>
<text text-anchor="start" x="631" y="-106" font-family="Helvetica,sans-Serif" font-size="10.00">/home/runner/work/Catena</text>
<text text-anchor="start" x="631" y="-95" font-family="Helvetica,sans-Serif" font-size="10.00">/Catena/sdks/cpp/connections</text>
<text text-anchor="middle" x="703.5" y="-84" font-family="Helvetica,sans-Serif" font-size="10.00">/gRPC/include/GetValue.h</text>
</a>
</g>
</g>
<!-- Node9&#45;&gt;Node16 -->
<g id="edge17_Node000009_Node000016" class="edge">
<title>Node9&#45;&gt;Node16</title>
<g id="a_edge17_Node000009_Node000016"><a xlink:title=" ">
<path fill="none" stroke="#63b8ff" d="M1198.59,-166.22C1098.64,-157.55 933.5,-141.25 792.5,-118 789.85,-117.56 787.15,-117.1 784.44,-116.61"/>
<polygon fill="#63b8ff" stroke="#63b8ff" points="1198.4,-169.72 1208.66,-167.09 1199,-162.74 1198.4,-169.72"/>
</a>
</g>
</g>
<!-- Node17 -->
<g id="Node000017" class="node">
<title>Node17</title>
<g id="a_Node000017"><a xlink:href="LanguagePackRequest_8h.html" target="_top" xlink:title="Implements Catena gRPC LanguagePackRequest.">
<polygon fill="white" stroke="#666666" points="1007,-118 802,-118 802,-77 1007,-77 1007,-118"/>
<text text-anchor="start" x="810" y="-106" font-family="Helvetica,sans-Serif" font-size="10.00">/home/runner/work/Catena</text>
<text text-anchor="start" x="810" y="-95" font-family="Helvetica,sans-Serif" font-size="10.00">/Catena/sdks/cpp/connections</text>
<text text-anchor="middle" x="904.5" y="-84" font-family="Helvetica,sans-Serif" font-size="10.00">/gRPC/include/LanguagePackRequest.h</text>
</a>
</g>
</g>
<!-- Node9&#45;&gt;Node17 -->
<g id="edge18_Node000009_Node000017" class="edge">
<title>Node9&#45;&gt;Node17</title>
<g id="a_edge18_Node000009_Node000017"><a xlink:title=" ">
<path fill="none" stroke="#63b8ff" d="M1198.85,-155.84C1140.54,-144.48 1064.72,-129.71 1004.63,-118.01"/>
<polygon fill="#63b8ff" stroke="#63b8ff" points="1198.31,-159.3 1208.79,-157.78 1199.65,-152.43 1198.31,-159.3"/>
</a>
</g>
</g>
<!-- Node18 -->
<g id="Node000018" class="node">
<title>Node18</title>
<g id="a_Node000018"><a xlink:href="ListLanguages_8h.html" target="_top" xlink:title="Implements Catena gRPC ListLanguages.">
<polygon fill="white" stroke="#666666" points="1190,-118 1025,-118 1025,-77 1190,-77 1190,-118"/>
<text text-anchor="start" x="1033" y="-106" font-family="Helvetica,sans-Serif" font-size="10.00">/home/runner/work/Catena</text>
<text text-anchor="start" x="1033" y="-95" font-family="Helvetica,sans-Serif" font-size="10.00">/Catena/sdks/cpp/connections</text>
<text text-anchor="middle" x="1107.5" y="-84" font-family="Helvetica,sans-Serif" font-size="10.00">/gRPC/include/ListLanguages.h</text>
</a>
</g>
</g>
<!-- Node9&#45;&gt;Node18 -->
<g id="edge19_Node000009_Node000018" class="edge">
<title>Node9&#45;&gt;Node18</title>
<g id="a_edge19_Node000009_Node000018"><a xlink:title=" ">
<path fill="none" stroke="#63b8ff" d="M1232.79,-150.13C1207.79,-139.83 1178.75,-127.86 1154.92,-118.04"/>
<polygon fill="#63b8ff" stroke="#63b8ff" points="1231.58,-153.42 1242.16,-153.99 1234.24,-146.94 1231.58,-153.42"/>
</a>
</g>
</g>
<!-- Node19 -->
<g id="Node000019" class="node">
<title>Node19</title>
<g id="a_Node000019"><a xlink:href="MultiSetValue_8h.html" target="_top" xlink:title="Generic CallData class for the SetValue and MultiSetValue RPCs.">
<polygon fill="white" stroke="#666666" points="1371,-118 1208,-118 1208,-77 1371,-77 1371,-118"/>
<text text-anchor="start" x="1216" y="-106" font-family="Helvetica,sans-Serif" font-size="10.00">/home/runner/work/Catena</text>
<text text-anchor="start" x="1216" y="-95" font-family="Helvetica,sans-Serif" font-size="10.00">/Catena/sdks/cpp/connections</text>
<text text-anchor="middle" x="1289.5" y="-84" font-family="Helvetica,sans-Serif" font-size="10.00">/gRPC/include/MultiSetValue.h</text>
</a>
</g>
</g>
<!-- Node9&#45;&gt;Node19 -->
<g id="edge20_Node000009_Node000019" class="edge">
<title>Node9&#45;&gt;Node19</title>
<g id="a_edge20_Node000009_Node000019"><a xlink:title=" ">
<path fill="none" stroke="#63b8ff" d="M1289.5,-143.69C1289.5,-135.08 1289.5,-125.9 1289.5,-118.07"/>
<polygon fill="#63b8ff" stroke="#63b8ff" points="1286,-143.79 1289.5,-153.79 1293,-143.79 1286,-143.79"/>
</a>
</g>
</g>
<!-- Node20 -->
<g id="Node000020" class="node">
<title>Node20</title>
<g id="a_Node000020"><a xlink:href="SetValue_8h.html" target="_top" xlink:title="Implements Catena gRPC SetValue.">
<polygon fill="white" stroke="#666666" points="1425,-41 1264,-41 1264,0 1425,0 1425,-41"/>
<text text-anchor="start" x="1272" y="-29" font-family="Helvetica,sans-Serif" font-size="10.00">/home/runner/work/Catena</text>
<text text-anchor="start" x="1272" y="-18" font-family="Helvetica,sans-Serif" font-size="10.00">/Catena/sdks/cpp/connections</text>
<text text-anchor="middle" x="1344.5" y="-7" font-family="Helvetica,sans-Serif" font-size="10.00">/gRPC/include/SetValue.h</text>
</a>
</g>
</g>
<!-- Node9&#45;&gt;Node20 -->
<g id="edge22_Node000009_Node000020" class="edge">
<title>Node9&#45;&gt;Node20</title>
<g id="a_edge22_Node000009_Node000020"><a xlink:title=" ">
<path fill="none" stroke="#63b8ff" d="M1349.68,-148.82C1361.99,-140.86 1373.36,-130.72 1380.5,-118 1394.59,-92.9 1376.72,-61.2 1361.52,-41.13"/>
<polygon fill="#63b8ff" stroke="#63b8ff" points="1347.83,-145.85 1341.04,-153.98 1351.42,-151.86 1347.83,-145.85"/>
</a>
</g>
</g>
<!-- Node9&#45;&gt;Node21 -->
<g id="edge23_Node000009_Node000021" class="edge">
<title>Node9&#45;&gt;Node21</title>
<g id="a_edge23_Node000009_Node000021"><a xlink:title=" ">
<path fill="none" stroke="#63b8ff" d="M1198.53,-168.88C1068.44,-161.63 821.94,-145.48 613.5,-118 610.6,-117.62 607.66,-117.21 604.69,-116.78"/>
<polygon fill="#63b8ff" stroke="#63b8ff" points="1198.66,-172.39 1208.84,-169.45 1199.05,-165.4 1198.66,-172.39"/>
</a>
</g>
</g>
<!-- Node19&#45;&gt;Node20 -->
<g id="edge21_Node000019_Node000020" class="edge">
<title>Node19&#45;&gt;Node20</title>
<g id="a_edge21_Node000019_Node000020"><a xlink:title=" ">
<path fill="none" stroke="#63b8ff" d="M1309.91,-68.67C1316.63,-59.5 1323.97,-49.5 1330.15,-41.07"/>
<polygon fill="#63b8ff" stroke="#63b8ff" points="1307.04,-66.66 1303.95,-76.79 1312.69,-70.8 1307.04,-66.66"/>
</a>
</g>
</g>
<!-- Node23&#45;&gt;Node24 -->
<g id="edge27_Node000023_Node000024" class="edge">
<title>Node23&#45;&gt;Node24</title>
<g id="a_edge27_Node000023_Node000024"><a xlink:title=" ">
<path fill="none" stroke="#63b8ff" d="M927.76,-376.39C921.7,-367.3 915.11,-357.41 909.55,-349.07"/>
<polygon fill="#63b8ff" stroke="#63b8ff" points="924.9,-378.42 933.36,-384.79 930.73,-374.53 924.9,-378.42"/>
</a>
</g>
</g>
<!-- Node29&#45;&gt;Node26 -->
<g id="edge38_Node000029_Node000026" class="edge">
<title>Node29&#45;&gt;Node26</title>
<g id="a_edge38_Node000029_Node000026"><a xlink:title=" ">
<path fill="none" stroke="#63b8ff" d="M1343.49,-454.51C1352.89,-445.11 1363.24,-434.76 1371.93,-426.07"/>
<polygon fill="#63b8ff" stroke="#63b8ff" points="1340.8,-452.25 1336.21,-461.79 1345.75,-457.2 1340.8,-452.25"/>
</a>
</g>
</g>
<!-- Node30&#45;&gt;Node2 -->
<g id="edge44_Node000030_Node000002" class="edge">
<title>Node30&#45;&gt;Node2</title>
<g id="a_edge44_Node000030_Node000002"><a xlink:title=" ">
<path fill="none" stroke="#63b8ff" d="M1195.84,-605.98C1193.29,-597.28 1190.56,-587.98 1188.24,-580.07"/>
<polygon fill="#63b8ff" stroke="#63b8ff" points="1192.55,-607.18 1198.72,-615.79 1199.26,-605.21 1192.55,-607.18"/>
</a>
</g>
</g>
<!-- Node30&#45;&gt;Node26 -->
<g id="edge45_Node000030_Node000026" class="edge">
<title>Node30&#45;&gt;Node26</title>
<g id="a_edge45_Node000030_Node000026"><a xlink:title=" ">
<path fill="none" stroke="#63b8ff" d="M1267.15,-611.67C1312.69,-590.64 1370.97,-555.13 1398.5,-503 1411.21,-478.94 1405.03,-446.68 1398.78,-426.24"/>
<polygon fill="#63b8ff" stroke="#63b8ff" points="1265.62,-608.52 1257.93,-615.81 1268.49,-614.9 1265.62,-608.52"/>
</a>
</g>
</g>
<!-- Node32 -->
<g id="Node000032" class="node">
<title>Node32</title>
<g id="a_Node000032"><a xlink:href="PeerManager_8h.html" target="_top" xlink:title="Handles Connections to Peers.">
<polygon fill="white" stroke="#666666" points="1683,-580 1522,-580 1522,-539 1683,-539 1683,-580"/>
<text text-anchor="start" x="1530" y="-568" font-family="Helvetica,sans-Serif" font-size="10.00">/home/runner/work/Catena</text>
<text text-anchor="start" x="1530" y="-557" font-family="Helvetica,sans-Serif" font-size="10.00">/Catena/sdks/cpp/connections</text>
<text text-anchor="middle" x="1602.5" y="-546" font-family="Helvetica,sans-Serif" font-size="10.00">/gRPC/include/PeerManager.h</text>
</a>
</g>
</g>
<!-- Node31&#45;&gt;Node32 -->
<g id="edge50_Node000031_Node000032" class="edge">
<title>Node31&#45;&gt;Node32</title>
<g id="a_edge50_Node000031_Node000032"><a xlink:title=" ">
<path fill="none" stroke="#63b8ff" d="M1602.5,-605.69C1602.5,-597.08 1602.5,-587.9 1602.5,-580.07"/>
<polygon fill="#63b8ff" stroke="#63b8ff" points="1599,-605.79 1602.5,-615.79 1606,-605.79 1599,-605.79"/>
</a>
</g>
</g>
</g>
</svg>
