<?xml version="1.0" encoding="UTF-8" standalone="no"?>
<!DOCTYPE svg PUBLIC "-//W3C//DTD SVG 1.1//EN"
 "http://www.w3.org/Graphics/SVG/1.1/DTD/svg11.dtd">
<!-- Generated by graphviz version 2.43.0 (0)
 -->
<!-- Title: /home/runner/work/Catena/Catena/sdks/cpp/common/include/IParamDescriptor.h Pages: 1 -->
<!--zoomable 280 -->

<svg id="main" version="1.1" xmlns="http://www.w3.org/2000/svg" xmlns:xlink="http://www.w3.org/1999/xlink" xml:space="preserve" onload="init(evt)">
<style type="text/css"><![CDATA[
.node, .edge {opacity: 0.7;}
.node.selected, .edge.selected {opacity: 1;}
.edge:hover path { stroke: red; }
.edge:hover polygon { stroke: red; fill: red; }
]]></style>

<defs>
  <circle id="rim" cx="0" cy="0" r="7"/>
  <circle id="rim2" cx="0" cy="0" r="3.5"/>
  <g id="zoomPlus">
    <use xlink:href="#rim" fill="#404040"><set attributeName="fill" to="#808080" begin="zoomplus.mouseover" end="zoomplus.mouseout"/></use>
    <path d="M-4,0h8M0,-4v8" fill="none" stroke="white" stroke-width="1.5" pointer-events="none"/>
  </g>
  <g id="zoomMin">
    <use xlink:href="#rim" fill="#404040"><set attributeName="fill" to="#808080" begin="zoomminus.mouseover" end="zoomminus.mouseout"/></use>
    <path d="M-4,0h8" fill="none" stroke="white" stroke-width="1.5" pointer-events="none"/>
  </g>
  <g id="arrowUp" transform="translate(30 24)">
    <use xlink:href="#rim"/>
    <path pointer-events="none" fill="none" stroke="white" stroke-width="1.5" d="M0,-3.0v7 M-2.5,-0.5L0,-3.0L2.5,-0.5"/>
  </g>
  <g id="arrowRight" transform="rotate(90) translate(36 -43)">
    <use xlink:href="#rim"/>
    <path pointer-events="none" fill="none" stroke="white" stroke-width="1.5" d="M0,-3.0v7 M-2.5,-0.5L0,-3.0L2.5,-0.5"/>
  </g>
  <g id="arrowDown" transform="rotate(180) translate(-30 -48)">
    <use xlink:href="#rim"/>
    <path pointer-events="none" fill="none" stroke="white" stroke-width="1.5" d="M0,-3.0v7 M-2.5,-0.5L0,-3.0L2.5,-0.5"/>
  </g>
  <g id="arrowLeft" transform="rotate(270) translate(-36 17)">
    <use xlink:href="#rim"/>
    <path pointer-events="none" fill="none" stroke="white" stroke-width="1.5" d="M0,-3.0v7 M-2.5,-0.5L0,-3.0L2.5,-0.5"/>
  </g>
  <g id="resetDef">
    <use xlink:href="#rim2" fill="#404040"><set attributeName="fill" to="#808080" begin="reset.mouseover" end="reset.mouseout"/></use>
  </g>
</defs>
<script type="application/ecmascript">
var viewWidth = 1523;
var viewHeight = 280;
var sectionId = 'dynsection-0';
</script>
<script type="application/ecmascript" xlink:href="svg.min.js"/>
<svg id="graph" class="graph">
<g id="viewport">
<title>/home/runner/work/Catena/Catena/sdks/cpp/common/include/IParamDescriptor.h</title>
<!-- Node1 -->
<g id="Node000001" class="node">
<title>Node1</title>
<g id="a_Node000001"><a xlink:title="Interface class for ParamDescriptor.">
<polygon fill="#999999" stroke="#666666" points="668.5,-272 518.5,-272 518.5,-231 668.5,-231 668.5,-272"/>
<text text-anchor="start" x="526.5" y="-260" font-family="Helvetica,sans-Serif" font-size="10.00">/home/runner/work/Catena</text>
<text text-anchor="start" x="526.5" y="-249" font-family="Helvetica,sans-Serif" font-size="10.00">/Catena/sdks/cpp/common</text>
<text text-anchor="middle" x="593.5" y="-238" font-family="Helvetica,sans-Serif" font-size="10.00">/include/IParamDescriptor.h</text>
</a>
</g>
</g>
<!-- Node2 -->
<g id="Node000002" class="node">
<title>Node2</title>
<g id="a_Node000002"><a xlink:href="Tags_8h.html" target="_top" xlink:title="Tags to differentiate collections with the same type for template specialization.">
<polygon fill="white" stroke="#666666" points="546,-195 499,-195 499,-176 546,-176 546,-195"/>
<text text-anchor="middle" x="522.5" y="-183" font-family="Helvetica,sans-Serif" font-size="10.00">Tags.h</text>
</a>
</g>
</g>
<!-- Node1&#45;&gt;Node2 -->
<g id="edge1_Node000001_Node000002" class="edge">
<title>Node1&#45;&gt;Node2</title>
<g id="a_edge1_Node000001_Node000002"><a xlink:title=" ">
<path fill="none" stroke="#63b8ff" d="M571.81,-230.95C561.49,-221.65 549.32,-210.68 539.65,-201.96"/>
<polygon fill="#63b8ff" stroke="#63b8ff" points="541.99,-199.36 532.22,-195.26 537.3,-204.56 541.99,-199.36"/>
</a>
</g>
</g>
<!-- Node5 -->
<g id="Node000005" class="node">
<title>Node5</title>
<g id="a_Node000005"><a xlink:href="IParam_8h.html" target="_top" xlink:title="Interface for parameters.">
<polygon fill="white" stroke="#666666" points="623,-195 564,-195 564,-176 623,-176 623,-195"/>
<text text-anchor="middle" x="593.5" y="-183" font-family="Helvetica,sans-Serif" font-size="10.00">IParam.h</text>
</a>
</g>
</g>
<!-- Node1&#45;&gt;Node5 -->
<g id="edge4_Node000001_Node000005" class="edge">
<title>Node1&#45;&gt;Node5</title>
<g id="a_edge4_Node000001_Node000005"><a xlink:title=" ">
<path fill="none" stroke="#63b8ff" d="M593.5,-230.95C593.5,-222.85 593.5,-213.5 593.5,-205.47"/>
<polygon fill="#63b8ff" stroke="#63b8ff" points="597,-205.26 593.5,-195.26 590,-205.26 597,-205.26"/>
</a>
</g>
</g>
<!-- Node24 -->
<g id="Node000024" class="node">
<title>Node24</title>
<g id="a_Node000024"><a xlink:href="PolyglotText_8h.html" target="_top" xlink:title="Polyglot Text serialization and deserialization to protobuf.">
<polygon fill="white" stroke="#666666" points="1280.5,-140 1194.5,-140 1194.5,-121 1280.5,-121 1280.5,-140"/>
<text text-anchor="middle" x="1237.5" y="-128" font-family="Helvetica,sans-Serif" font-size="10.00">PolyglotText.h</text>
</a>
</g>
</g>
<!-- Node1&#45;&gt;Node24 -->
<g id="edge27_Node000001_Node000024" class="edge">
<title>Node1&#45;&gt;Node24</title>
<g id="a_edge27_Node000001_Node000024"><a xlink:title=" ">
<path fill="none" stroke="#63b8ff" d="M668.64,-236.62C800.36,-212.28 1069.85,-162.48 1184.25,-141.34"/>
<polygon fill="#63b8ff" stroke="#63b8ff" points="1184.98,-144.77 1194.17,-139.51 1183.7,-137.88 1184.98,-144.77"/>
</a>
</g>
</g>
<!-- Node3 -->
<g id="Node000003" class="node">
<title>Node3</title>
<g id="a_Node000003"><a xlink:title=" ">
<polygon fill="#e0e0e0" stroke="#999999" points="239,-140 174,-140 174,-121 239,-121 239,-140"/>
<text text-anchor="middle" x="206.5" y="-128" font-family="Helvetica,sans-Serif" font-size="10.00">functional</text>
</a>
</g>
</g>
<!-- Node2&#45;&gt;Node3 -->
<g id="edge2_Node000002_Node000003" class="edge">
<title>Node2&#45;&gt;Node3</title>
<g id="a_edge2_Node000002_Node000003"><a xlink:title=" ">
<path fill="none" stroke="#63b8ff" d="M498.73,-180.69C451.81,-173.14 343.99,-155.67 253.5,-140 252.04,-139.75 250.56,-139.49 249.07,-139.23"/>
<polygon fill="#63b8ff" stroke="#63b8ff" points="249.56,-135.76 239.1,-137.46 248.34,-142.65 249.56,-135.76"/>
</a>
</g>
</g>
<!-- Node4 -->
<g id="Node000004" class="node">
<title>Node4</title>
<g id="a_Node000004"><a xlink:title=" ">
<polygon fill="#e0e0e0" stroke="#999999" points="765.5,-24.5 721.5,-24.5 721.5,-5.5 765.5,-5.5 765.5,-24.5"/>
<text text-anchor="middle" x="743.5" y="-12.5" font-family="Helvetica,sans-Serif" font-size="10.00">string</text>
</a>
</g>
</g>
<!-- Node2&#45;&gt;Node4 -->
<g id="edge3_Node000002_Node000004" class="edge">
<title>Node2&#45;&gt;Node4</title>
<g id="a_edge3_Node000002_Node000004"><a xlink:title=" ">
<path fill="none" stroke="#63b8ff" d="M531.25,-175.84C552.17,-155.38 607.17,-102.97 658.5,-66 677.61,-52.24 700.72,-38.83 718.01,-29.37"/>
<polygon fill="#63b8ff" stroke="#63b8ff" points="719.82,-32.37 726.96,-24.54 716.5,-26.21 719.82,-32.37"/>
</a>
</g>
</g>
<!-- Node6 -->
<g id="Node000006" class="node">
<title>Node6</title>
<g id="a_Node000006"><a xlink:href="Enums_8h.html" target="_top" xlink:title="tools for using EnumDecorators.">
<polygon fill="white" stroke="#666666" points="506,-140 447,-140 447,-121 506,-121 506,-140"/>
<text text-anchor="middle" x="476.5" y="-128" font-family="Helvetica,sans-Serif" font-size="10.00">Enums.h</text>
</a>
</g>
</g>
<!-- Node5&#45;&gt;Node6 -->
<g id="edge5_Node000005_Node000006" class="edge">
<title>Node5&#45;&gt;Node6</title>
<g id="a_edge5_Node000005_Node000006"><a xlink:title=" ">
<path fill="none" stroke="#63b8ff" d="M574.7,-175.98C555.88,-167.46 526.68,-154.23 505,-144.41"/>
<polygon fill="#63b8ff" stroke="#63b8ff" points="506.19,-141.11 495.64,-140.17 503.3,-147.48 506.19,-141.11"/>
</a>
</g>
</g>
<!-- Node13 -->
<g id="Node000013" class="node">
<title>Node13</title>
<g id="a_Node000013"><a xlink:href="IConstraint_8h.html" target="_top" xlink:title="Interface for constraints.">
<polygon fill="white" stroke="#666666" points="375,-140 296,-140 296,-121 375,-121 375,-140"/>
<text text-anchor="middle" x="335.5" y="-128" font-family="Helvetica,sans-Serif" font-size="10.00">IConstraint.h</text>
</a>
</g>
</g>
<!-- Node5&#45;&gt;Node13 -->
<g id="edge14_Node000005_Node000013" class="edge">
<title>Node5&#45;&gt;Node13</title>
<g id="a_edge14_Node000005_Node000013"><a xlink:title=" ">
<path fill="none" stroke="#63b8ff" d="M563.7,-177.96C560.59,-177.29 557.48,-176.63 554.5,-176 496.38,-163.76 429.47,-150.25 385.05,-141.36"/>
<polygon fill="#63b8ff" stroke="#63b8ff" points="385.59,-137.9 375.1,-139.37 384.22,-144.76 385.59,-137.9"/>
</a>
</g>
</g>
<!-- Node14 -->
<g id="Node000014" class="node">
<title>Node14</title>
<g id="a_Node000014"><a xlink:title=" ">
<polygon fill="#e0e0e0" stroke="#999999" points="119,-85 0,-85 0,-66 119,-66 119,-85"/>
<text text-anchor="middle" x="59.5" y="-73" font-family="Helvetica,sans-Serif" font-size="10.00">interface/param.pb.h</text>
</a>
</g>
</g>
<!-- Node5&#45;&gt;Node14 -->
<g id="edge26_Node000005_Node000014" class="edge">
<title>Node5&#45;&gt;Node14</title>
<g id="a_edge26_Node000005_Node000014"><a xlink:title=" ">
<path fill="none" stroke="#63b8ff" d="M563.74,-177.75C560.63,-177.13 557.5,-176.53 554.5,-176 436.14,-155.19 401.54,-174.76 286.5,-140 268.04,-134.42 265.66,-127.48 247.5,-121 205.49,-106 156.39,-94.58 118.9,-87.06"/>
<polygon fill="#63b8ff" stroke="#63b8ff" points="119.14,-83.54 108.65,-85.04 117.79,-90.41 119.14,-83.54"/>
</a>
</g>
</g>
<!-- Node16 -->
<g id="Node000016" class="node">
<title>Node16</title>
<g id="a_Node000016"><a xlink:href="Path_8h.html" target="_top" xlink:title="Handles Path objects used to uniquely identify and access OIDs.">
<polygon fill="white" stroke="#666666" points="794,-140 747,-140 747,-121 794,-121 794,-140"/>
<text text-anchor="middle" x="770.5" y="-128" font-family="Helvetica,sans-Serif" font-size="10.00">Path.h</text>
</a>
</g>
</g>
<!-- Node5&#45;&gt;Node16 -->
<g id="edge17_Node000005_Node000016" class="edge">
<title>Node5&#45;&gt;Node16</title>
<g id="a_edge17_Node000005_Node000016"><a xlink:title=" ">
<path fill="none" stroke="#63b8ff" d="M621.94,-175.98C653.38,-166.57 703.96,-151.42 737.22,-141.46"/>
<polygon fill="#63b8ff" stroke="#63b8ff" points="738.37,-144.77 746.95,-138.55 736.36,-138.07 738.37,-144.77"/>
</a>
</g>
</g>
<!-- Node21 -->
<g id="Node000021" class="node">
<title>Node21</title>
<g id="a_Node000021"><a xlink:href="Status_8h.html" target="_top" xlink:title="Communicates failure status using gRPC&#39;s codes.">
<polygon fill="white" stroke="#666666" points="1056.5,-140 1000.5,-140 1000.5,-121 1056.5,-121 1056.5,-140"/>
<text text-anchor="middle" x="1028.5" y="-128" font-family="Helvetica,sans-Serif" font-size="10.00">Status.h</text>
</a>
</g>
</g>
<!-- Node5&#45;&gt;Node21 -->
<g id="edge23_Node000005_Node000021" class="edge">
<title>Node5&#45;&gt;Node21</title>
<g id="a_edge23_Node000005_Node000021"><a xlink:title=" ">
<path fill="none" stroke="#63b8ff" d="M623.06,-180.9C699.7,-171.56 904.79,-146.57 990.27,-136.16"/>
<polygon fill="#63b8ff" stroke="#63b8ff" points="990.82,-139.62 1000.32,-134.93 989.97,-132.67 990.82,-139.62"/>
</a>
</g>
</g>
<!-- Node7 -->
<g id="Node000007" class="node">
<title>Node7</title>
<g id="a_Node000007"><a xlink:href="EnumDecorator_8h.html" target="_top" xlink:title="Provides an enum with useful extra functionality.">
<polygon fill="white" stroke="#666666" points="473.5,-85 329.5,-85 329.5,-66 473.5,-66 473.5,-85"/>
<text text-anchor="middle" x="401.5" y="-73" font-family="Helvetica,sans-Serif" font-size="10.00">patterns/EnumDecorator.h</text>
</a>
</g>
</g>
<!-- Node6&#45;&gt;Node7 -->
<g id="edge6_Node000006_Node000007" class="edge">
<title>Node6&#45;&gt;Node7</title>
<g id="a_edge6_Node000006_Node000007"><a xlink:title=" ">
<path fill="none" stroke="#63b8ff" d="M464.45,-120.98C453.04,-112.92 435.67,-100.65 422.07,-91.03"/>
<polygon fill="#63b8ff" stroke="#63b8ff" points="423.96,-88.08 413.77,-85.17 419.92,-93.8 423.96,-88.08"/>
</a>
</g>
</g>
<!-- Node9 -->
<g id="Node000009" class="node">
<title>Node9</title>
<g id="a_Node000009"><a xlink:title=" ">
<polygon fill="#e0e0e0" stroke="#999999" points="327.5,-24.5 277.5,-24.5 277.5,-5.5 327.5,-5.5 327.5,-24.5"/>
<text text-anchor="middle" x="302.5" y="-12.5" font-family="Helvetica,sans-Serif" font-size="10.00">cstdint</text>
</a>
</g>
</g>
<!-- Node6&#45;&gt;Node9 -->
<g id="edge13_Node000006_Node000009" class="edge">
<title>Node6&#45;&gt;Node9</title>
<g id="a_edge13_Node000006_Node000009"><a xlink:title=" ">
<path fill="none" stroke="#63b8ff" d="M446.84,-129.4C411.78,-127.63 353.97,-119.24 320.5,-85 307.55,-71.75 303.59,-50.41 302.53,-34.96"/>
<polygon fill="#63b8ff" stroke="#63b8ff" points="306.03,-34.84 302.19,-24.96 299.03,-35.08 306.03,-34.84"/>
</a>
</g>
</g>
<!-- Node12 -->
<g id="Node000012" class="node">
<title>Node12</title>
<g id="a_Node000012"><a xlink:title=" ">
<polygon fill="#e0e0e0" stroke="#999999" points="611,-85 492,-85 492,-66 611,-66 611,-85"/>
<text text-anchor="middle" x="551.5" y="-73" font-family="Helvetica,sans-Serif" font-size="10.00">interface/device.pb.h</text>
</a>
</g>
</g>
<!-- Node6&#45;&gt;Node12 -->
<g id="edge12_Node000006_Node000012" class="edge">
<title>Node6&#45;&gt;Node12</title>
<g id="a_edge12_Node000006_Node000012"><a xlink:title=" ">
<path fill="none" stroke="#63b8ff" d="M488.55,-120.98C499.96,-112.92 517.33,-100.65 530.93,-91.03"/>
<polygon fill="#63b8ff" stroke="#63b8ff" points="533.08,-93.8 539.23,-85.17 529.04,-88.08 533.08,-93.8"/>
</a>
</g>
</g>
<!-- Node7&#45;&gt;Node4 -->
<g id="edge10_Node000007_Node000004" class="edge">
<title>Node7&#45;&gt;Node4</title>
<g id="a_edge10_Node000007_Node000004"><a xlink:title=" ">
<path fill="none" stroke="#63b8ff" d="M451.23,-65.99C522.36,-53.83 651.17,-31.79 711.15,-21.53"/>
<polygon fill="#63b8ff" stroke="#63b8ff" points="711.91,-24.95 721.18,-19.82 710.73,-18.05 711.91,-24.95"/>
</a>
</g>
</g>
<!-- Node8 -->
<g id="Node000008" class="node">
<title>Node8</title>
<g id="a_Node000008"><a xlink:href="ReflectionMacros_8h.html" target="_top" xlink:title="adapted from https://github.com/tapika/TestCppReflect">
<polygon fill="white" stroke="#666666" points="455.5,-24.5 345.5,-24.5 345.5,-5.5 455.5,-5.5 455.5,-24.5"/>
<text text-anchor="middle" x="400.5" y="-12.5" font-family="Helvetica,sans-Serif" font-size="10.00">ReflectionMacros.h</text>
</a>
</g>
</g>
<!-- Node7&#45;&gt;Node8 -->
<g id="edge7_Node000007_Node000008" class="edge">
<title>Node7&#45;&gt;Node8</title>
<g id="a_edge7_Node000007_Node000008"><a xlink:title=" ">
<path fill="none" stroke="#63b8ff" d="M401.35,-65.87C401.21,-57.75 401,-45.31 400.82,-34.89"/>
<polygon fill="#63b8ff" stroke="#63b8ff" points="404.32,-34.61 400.65,-24.67 397.32,-34.73 404.32,-34.61"/>
</a>
</g>
</g>
<!-- Node7&#45;&gt;Node9 -->
<g id="edge8_Node000007_Node000009" class="edge">
<title>Node7&#45;&gt;Node9</title>
<g id="a_edge8_Node000007_Node000009"><a xlink:title=" ">
<path fill="none" stroke="#63b8ff" d="M386.89,-65.87C370.81,-56.36 344.72,-40.95 325.8,-29.77"/>
<polygon fill="#63b8ff" stroke="#63b8ff" points="327.56,-26.74 317.17,-24.67 324,-32.77 327.56,-26.74"/>
</a>
</g>
</g>
<!-- Node10 -->
<g id="Node000010" class="node">
<title>Node10</title>
<g id="a_Node000010"><a xlink:title=" ">
<polygon fill="#e0e0e0" stroke="#999999" points="1209,-24.5 1116,-24.5 1116,-5.5 1209,-5.5 1209,-24.5"/>
<text text-anchor="middle" x="1162.5" y="-12.5" font-family="Helvetica,sans-Serif" font-size="10.00">unordered_map</text>
</a>
</g>
</g>
<!-- Node7&#45;&gt;Node10 -->
<g id="edge9_Node000007_Node000010" class="edge">
<title>Node7&#45;&gt;Node10</title>
<g id="a_edge9_Node000007_Node000010"><a xlink:title=" ">
<path fill="none" stroke="#63b8ff" d="M473.91,-66.79C476.81,-66.52 479.68,-66.25 482.5,-66 713.41,-45.4 988.98,-27.06 1105.75,-19.57"/>
<polygon fill="#63b8ff" stroke="#63b8ff" points="1106.12,-23.06 1115.88,-18.93 1105.68,-16.07 1106.12,-23.06"/>
</a>
</g>
</g>
<!-- Node11 -->
<g id="Node000011" class="node">
<title>Node11</title>
<g id="a_Node000011"><a xlink:title=" ">
<polygon fill="#e0e0e0" stroke="#999999" points="543,-24.5 474,-24.5 474,-5.5 543,-5.5 543,-24.5"/>
<text text-anchor="middle" x="508.5" y="-12.5" font-family="Helvetica,sans-Serif" font-size="10.00">type_traits</text>
</a>
</g>
</g>
<!-- Node7&#45;&gt;Node11 -->
<g id="edge11_Node000007_Node000011" class="edge">
<title>Node7&#45;&gt;Node11</title>
<g id="a_edge11_Node000007_Node000011"><a xlink:title=" ">
<path fill="none" stroke="#63b8ff" d="M417.29,-65.87C434.83,-56.28 463.38,-40.67 483.87,-29.47"/>
<polygon fill="#63b8ff" stroke="#63b8ff" points="485.55,-32.54 492.65,-24.67 482.19,-26.39 485.55,-32.54"/>
</a>
</g>
</g>
<!-- Node13&#45;&gt;Node14 -->
<g id="edge15_Node000013_Node000014" class="edge">
<title>Node13&#45;&gt;Node14</title>
<g id="a_edge15_Node000013_Node000014"><a xlink:title=" ">
<path fill="none" stroke="#63b8ff" d="M295.96,-121.91C248.21,-112.74 167.64,-97.27 114.02,-86.97"/>
<polygon fill="#63b8ff" stroke="#63b8ff" points="114.48,-83.49 104,-85.05 113.16,-90.37 114.48,-83.49"/>
</a>
</g>
</g>
<!-- Node15 -->
<g id="Node000015" class="node">
<title>Node15</title>
<g id="a_Node000015"><a xlink:title=" ">
<polygon fill="#e0e0e0" stroke="#999999" points="273.5,-85 137.5,-85 137.5,-66 273.5,-66 273.5,-85"/>
<text text-anchor="middle" x="205.5" y="-73" font-family="Helvetica,sans-Serif" font-size="10.00">interface/constraint.pb.h</text>
</a>
</g>
</g>
<!-- Node13&#45;&gt;Node15 -->
<g id="edge16_Node000013_Node000015" class="edge">
<title>Node13&#45;&gt;Node15</title>
<g id="a_edge16_Node000013_Node000015"><a xlink:title=" ">
<path fill="none" stroke="#63b8ff" d="M314.61,-120.98C293.42,-112.34 260.37,-98.87 236.2,-89.02"/>
<polygon fill="#63b8ff" stroke="#63b8ff" points="237.35,-85.7 226.77,-85.17 234.71,-92.19 237.35,-85.7"/>
</a>
</g>
</g>
<!-- Node16&#45;&gt;Node4 -->
<g id="edge19_Node000016_Node000004" class="edge">
<title>Node16&#45;&gt;Node4</title>
<g id="a_edge19_Node000016_Node000004"><a xlink:title=" ">
<path fill="none" stroke="#63b8ff" d="M768.47,-120.97C764.13,-102.73 753.86,-59.57 747.94,-34.64"/>
<polygon fill="#63b8ff" stroke="#63b8ff" points="751.27,-33.55 745.55,-24.63 744.46,-35.17 751.27,-33.55"/>
</a>
</g>
</g>
<!-- Node17 -->
<g id="Node000017" class="node">
<title>Node17</title>
<g id="a_Node000017"><a xlink:title=" ">
<polygon fill="#e0e0e0" stroke="#999999" points="977.5,-85 917.5,-85 917.5,-66 977.5,-66 977.5,-85"/>
<text text-anchor="middle" x="947.5" y="-73" font-family="Helvetica,sans-Serif" font-size="10.00">iostream</text>
</a>
</g>
</g>
<!-- Node16&#45;&gt;Node17 -->
<g id="edge18_Node000016_Node000017" class="edge">
<title>Node16&#45;&gt;Node17</title>
<g id="a_edge18_Node000016_Node000017"><a xlink:title=" ">
<path fill="none" stroke="#63b8ff" d="M794,-122.46C823.36,-113.67 873.98,-98.51 909.03,-88.02"/>
<polygon fill="#63b8ff" stroke="#63b8ff" points="910.34,-91.28 918.91,-85.06 908.33,-84.58 910.34,-91.28"/>
</a>
</g>
</g>
<!-- Node18 -->
<g id="Node000018" class="node">
<title>Node18</title>
<g id="a_Node000018"><a xlink:title=" ">
<polygon fill="#e0e0e0" stroke="#999999" points="715,-85 668,-85 668,-66 715,-66 715,-85"/>
<text text-anchor="middle" x="691.5" y="-73" font-family="Helvetica,sans-Serif" font-size="10.00">vector</text>
</a>
</g>
</g>
<!-- Node16&#45;&gt;Node18 -->
<g id="edge20_Node000016_Node000018" class="edge">
<title>Node16&#45;&gt;Node18</title>
<g id="a_edge20_Node000016_Node000018"><a xlink:title=" ">
<path fill="none" stroke="#63b8ff" d="M757.81,-120.98C745.67,-112.84 727.14,-100.41 712.75,-90.76"/>
<polygon fill="#63b8ff" stroke="#63b8ff" points="714.68,-87.84 704.42,-85.17 710.78,-93.65 714.68,-87.84"/>
</a>
</g>
</g>
<!-- Node19 -->
<g id="Node000019" class="node">
<title>Node19</title>
<g id="a_Node000019"><a xlink:title=" ">
<polygon fill="#e0e0e0" stroke="#999999" points="823,-85 772,-85 772,-66 823,-66 823,-85"/>
<text text-anchor="middle" x="797.5" y="-73" font-family="Helvetica,sans-Serif" font-size="10.00">variant</text>
</a>
</g>
</g>
<!-- Node16&#45;&gt;Node19 -->
<g id="edge21_Node000016_Node000019" class="edge">
<title>Node16&#45;&gt;Node19</title>
<g id="a_edge21_Node000016_Node000019"><a xlink:title=" ">
<path fill="none" stroke="#63b8ff" d="M774.96,-120.75C778.62,-113.57 783.91,-103.18 788.45,-94.27"/>
<polygon fill="#63b8ff" stroke="#63b8ff" points="791.7,-95.59 793.12,-85.09 785.47,-92.41 791.7,-95.59"/>
</a>
</g>
</g>
<!-- Node20 -->
<g id="Node000020" class="node">
<title>Node20</title>
<g id="a_Node000020"><a xlink:title=" ">
<polygon fill="#e0e0e0" stroke="#999999" points="899.5,-85 841.5,-85 841.5,-66 899.5,-66 899.5,-85"/>
<text text-anchor="middle" x="870.5" y="-73" font-family="Helvetica,sans-Serif" font-size="10.00">memory</text>
</a>
</g>
</g>
<!-- Node16&#45;&gt;Node20 -->
<g id="edge22_Node000016_Node000020" class="edge">
<title>Node16&#45;&gt;Node20</title>
<g id="a_edge22_Node000016_Node000020"><a xlink:title=" ">
<path fill="none" stroke="#63b8ff" d="M786.57,-120.98C802.36,-112.61 826.72,-99.7 845.13,-89.95"/>
<polygon fill="#63b8ff" stroke="#63b8ff" points="846.94,-92.95 854.14,-85.17 843.67,-86.76 846.94,-92.95"/>
</a>
</g>
</g>
<!-- Node22 -->
<g id="Node000022" class="node">
<title>Node22</title>
<g id="a_Node000022"><a xlink:title=" ">
<polygon fill="#e0e0e0" stroke="#999999" points="1135.5,-85 1079.5,-85 1079.5,-66 1135.5,-66 1135.5,-85"/>
<text text-anchor="middle" x="1107.5" y="-73" font-family="Helvetica,sans-Serif" font-size="10.00">sstream</text>
</a>
</g>
</g>
<!-- Node21&#45;&gt;Node22 -->
<g id="edge24_Node000021_Node000022" class="edge">
<title>Node21&#45;&gt;Node22</title>
<g id="a_edge24_Node000021_Node000022"><a xlink:title=" ">
<path fill="none" stroke="#63b8ff" d="M1041.19,-120.98C1053.33,-112.84 1071.86,-100.41 1086.25,-90.76"/>
<polygon fill="#63b8ff" stroke="#63b8ff" points="1088.22,-93.65 1094.58,-85.17 1084.32,-87.84 1088.22,-93.65"/>
</a>
</g>
</g>
<!-- Node23 -->
<g id="Node000023" class="node">
<title>Node23</title>
<g id="a_Node000023"><a xlink:title=" ">
<polygon fill="#e0e0e0" stroke="#999999" points="1061,-85 996,-85 996,-66 1061,-66 1061,-85"/>
<text text-anchor="middle" x="1028.5" y="-73" font-family="Helvetica,sans-Serif" font-size="10.00">stdexcept</text>
</a>
</g>
</g>
<!-- Node21&#45;&gt;Node23 -->
<g id="edge25_Node000021_Node000023" class="edge">
<title>Node21&#45;&gt;Node23</title>
<g id="a_edge25_Node000021_Node000023"><a xlink:title=" ">
<path fill="none" stroke="#63b8ff" d="M1028.5,-120.75C1028.5,-113.8 1028.5,-103.85 1028.5,-95.13"/>
<polygon fill="#63b8ff" stroke="#63b8ff" points="1032,-95.09 1028.5,-85.09 1025,-95.09 1032,-95.09"/>
</a>
</g>
</g>
<!-- Node24&#45;&gt;Node4 -->
<g id="edge34_Node000024_Node000004" class="edge">
<title>Node24&#45;&gt;Node4</title>
<g id="a_edge34_Node000024_Node000004"><a xlink:title=" ">
<path fill="none" stroke="#63b8ff" d="M1228.33,-120.97C1212.56,-106.85 1178.7,-78.93 1144.5,-66 1076.92,-40.44 858.5,-23.64 775.71,-18.05"/>
<polygon fill="#63b8ff" stroke="#63b8ff" points="775.84,-14.55 765.63,-17.38 775.38,-21.54 775.84,-14.55"/>
</a>
</g>
</g>
<!-- Node24&#45;&gt;Node10 -->
<g id="edge35_Node000024_Node000010" class="edge">
<title>Node24&#45;&gt;Node10</title>
<g id="a_edge35_Node000024_Node000010"><a xlink:title=" ">
<path fill="none" stroke="#63b8ff" d="M1231.86,-120.97C1219.54,-102.32 1190,-57.61 1173.73,-32.99"/>
<polygon fill="#63b8ff" stroke="#63b8ff" points="1176.64,-31.04 1168.2,-24.63 1170.8,-34.9 1176.64,-31.04"/>
</a>
</g>
</g>
<!-- Node25 -->
<g id="Node000025" class="node">
<title>Node25</title>
<g id="a_Node000025"><a xlink:href="IPolyglotText_8h.html" target="_top" xlink:title="Catena&#39;s multi&#45;language text interface.">
<polygon fill="white" stroke="#666666" points="1319,-85 1230,-85 1230,-66 1319,-66 1319,-85"/>
<text text-anchor="middle" x="1274.5" y="-73" font-family="Helvetica,sans-Serif" font-size="10.00">IPolyglotText.h</text>
</a>
</g>
</g>
<!-- Node24&#45;&gt;Node25 -->
<g id="edge28_Node000024_Node000025" class="edge">
<title>Node24&#45;&gt;Node25</title>
<g id="a_edge28_Node000024_Node000025"><a xlink:title=" ">
<path fill="none" stroke="#63b8ff" d="M1243.61,-120.75C1248.78,-113.34 1256.35,-102.5 1262.69,-93.41"/>
<polygon fill="#63b8ff" stroke="#63b8ff" points="1265.65,-95.29 1268.5,-85.09 1259.91,-91.29 1265.65,-95.29"/>
</a>
</g>
</g>
<!-- Node27 -->
<g id="Node000027" class="node">
<title>Node27</title>
<g id="a_Node000027"><a xlink:title=" ">
<polygon fill="#e0e0e0" stroke="#999999" points="1515,-24.5 1432,-24.5 1432,-5.5 1515,-5.5 1515,-24.5"/>
<text text-anchor="middle" x="1473.5" y="-12.5" font-family="Helvetica,sans-Serif" font-size="10.00">initializer_list</text>
</a>
</g>
</g>
<!-- Node24&#45;&gt;Node27 -->
<g id="edge36_Node000024_Node000027" class="edge">
<title>Node24&#45;&gt;Node27</title>
<g id="a_edge36_Node000024_Node000027"><a xlink:title=" ">
<path fill="none" stroke="#63b8ff" d="M1280.58,-127.93C1342.98,-124.64 1453.8,-114.68 1478.5,-85 1490.11,-71.05 1486.27,-49.52 1481.18,-34.23"/>
<polygon fill="#63b8ff" stroke="#63b8ff" points="1484.43,-32.93 1477.62,-24.8 1477.88,-35.4 1484.43,-32.93"/>
</a>
</g>
</g>
<!-- Node28 -->
<g id="Node000028" class="node">
<title>Node28</title>
<g id="a_Node000028"><a xlink:title=" ">
<polygon fill="#e0e0e0" stroke="#999999" points="1469.5,-85 1337.5,-85 1337.5,-66 1469.5,-66 1469.5,-85"/>
<text text-anchor="middle" x="1403.5" y="-73" font-family="Helvetica,sans-Serif" font-size="10.00">interface/language.pb.h</text>
</a>
</g>
</g>
<!-- Node24&#45;&gt;Node28 -->
<g id="edge33_Node000024_Node000028" class="edge">
<title>Node24&#45;&gt;Node28</title>
<g id="a_edge33_Node000024_Node000028"><a xlink:title=" ">
<path fill="none" stroke="#63b8ff" d="M1264.17,-120.98C1292.04,-112.09 1335.95,-98.07 1367.02,-88.15"/>
<polygon fill="#63b8ff" stroke="#63b8ff" points="1368.16,-91.46 1376.62,-85.08 1366.03,-84.79 1368.16,-91.46"/>
</a>
</g>
</g>
<!-- Node25&#45;&gt;Node4 -->
<g id="edge31_Node000025_Node000004" class="edge">
<title>Node25&#45;&gt;Node4</title>
<g id="a_edge31_Node000025_Node000004"><a xlink:title=" ">
<path fill="none" stroke="#63b8ff" d="M1229.68,-69.56C1124.94,-58.02 866.13,-29.51 775.48,-19.52"/>
<polygon fill="#63b8ff" stroke="#63b8ff" points="775.85,-16.04 765.53,-18.43 775.08,-23 775.85,-16.04"/>
</a>
</g>
</g>
<!-- Node25&#45;&gt;Node10 -->
<g id="edge30_Node000025_Node000010" class="edge">
<title>Node25&#45;&gt;Node10</title>
<g id="a_edge30_Node000025_Node000010"><a xlink:title=" ">
<path fill="none" stroke="#63b8ff" d="M1257.97,-65.87C1239.53,-56.23 1209.46,-40.53 1187.99,-29.31"/>
<polygon fill="#63b8ff" stroke="#63b8ff" points="1189.58,-26.19 1179.09,-24.67 1186.34,-32.4 1189.58,-26.19"/>
</a>
</g>
</g>
<!-- Node26 -->
<g id="Node000026" class="node">
<title>Node26</title>
<g id="a_Node000026"><a xlink:title=" ">
<polygon fill="#e0e0e0" stroke="#999999" points="1368,-30 1227,-30 1227,0 1368,0 1368,-30"/>
<text text-anchor="start" x="1235" y="-18" font-family="Helvetica,sans-Serif" font-size="10.00">google/protobuf/message</text>
<text text-anchor="middle" x="1297.5" y="-7" font-family="Helvetica,sans-Serif" font-size="10.00">_lite.h</text>
</a>
</g>
</g>
<!-- Node25&#45;&gt;Node26 -->
<g id="edge29_Node000025_Node000026" class="edge">
<title>Node25&#45;&gt;Node26</title>
<g id="a_edge29_Node000025_Node000026"><a xlink:title=" ">
<path fill="none" stroke="#63b8ff" d="M1277.89,-65.87C1280.61,-58.96 1284.55,-48.93 1288.19,-39.67"/>
<polygon fill="#63b8ff" stroke="#63b8ff" points="1291.55,-40.7 1291.95,-30.11 1285.03,-38.14 1291.55,-40.7"/>
</a>
</g>
</g>
<!-- Node25&#45;&gt;Node27 -->
<g id="edge32_Node000025_Node000027" class="edge">
<title>Node25&#45;&gt;Node27</title>
<g id="a_edge32_Node000025_Node000027"><a xlink:title=" ">
<path fill="none" stroke="#63b8ff" d="M1303.44,-65.99C1338.07,-55.81 1396.2,-38.72 1434.71,-27.4"/>
<polygon fill="#63b8ff" stroke="#63b8ff" points="1435.92,-30.7 1444.53,-24.52 1433.95,-23.98 1435.92,-30.7"/>
</a>
</g>
</g>
</g>
</svg>

<g id="navigator" transform="translate(0 0)" fill="#404254">
  <rect fill="#f2f5e9" fill-opacity="0.5" stroke="#606060" stroke-width=".5" x="0" y="0" width="60" height="60"/>
  <use id="zoomplus" xlink:href="#zoomPlus" x="17" y="9" onmousedown="handleZoom(evt,'in')"/>
  <use id="zoomminus" xlink:href="#zoomMin" x="42" y="9" onmousedown="handleZoom(evt,'out')"/>
  <use id="reset" xlink:href="#resetDef" x="30" y="36" onmousedown="handleReset()"/>
   <use id="arrowup" xlink:href="#arrowUp" x="0" y="0" onmousedown="handlePan(0,-1)"/>
  <use id="arrowright" xlink:href="#arrowRight" x="0" y="0" onmousedown="handlePan(1,0)"/>
  <use id="arrowdown" xlink:href="#arrowDown" x="0" y="0" onmousedown="handlePan(0,1)"/>
  <use id="arrowleft" xlink:href="#arrowLeft" x="0" y="0" onmousedown="handlePan(-1,0)"/>
</g>
<svg viewBox="0 0 15 15" width="100%" height="30px" preserveAspectRatio="xMaxYMin meet">
 <g id="arrow_out" transform="scale(0.3 0.3)">
  <a xlink:href="IParamDescriptor_8h__incl_org.svg" target="_base">
   <rect id="button" ry="5" rx="5" y="6" x="6" height="38" width="38"
        fill="#f2f5e9" fill-opacity="0.5" stroke="#606060" stroke-width="1.0"/>
   <path id="arrow"
     d="M 11.500037,31.436501 C 11.940474,20.09759 22.043105,11.32322 32.158766,21.979434 L 37.068811,17.246167 C 37.068811,17.246167 37.088388,32 37.088388,32 L 22.160133,31.978069 C 22.160133,31.978069 26.997745,27.140456 26.997745,27.140456 C 18.528582,18.264221 13.291696,25.230495 11.500037,31.436501 z"
     style="fill:#404040;"/>
  </a>
 </g>
</svg>

<style type='text/css'>
<![CDATA[
[data-mouse-over-selected='false'] { opacity: 0.7; }
[data-mouse-over-selected='true']  { opacity: 1.0; }
]]>
</style>
<script type="application/ecmascript"><![CDATA[
document.addEventListener('DOMContentLoaded', (event) => {
  highlightEdges();
  highlightAdjacentNodes();
});
]]></script>
</svg>
