<?xml version="1.0" encoding="UTF-8" standalone="no"?>
<!DOCTYPE svg PUBLIC "-//W3C//DTD SVG 1.1//EN"
 "http://www.w3.org/Graphics/SVG/1.1/DTD/svg11.dtd">
<!-- Generated by graphviz version 2.43.0 (0)
 -->
<!-- Title: /home/runner/work/Catena/Catena/sdks/cpp/common/include/IParamVisitor.h Pages: 1 -->
<!--zoomable 599 -->

<svg id="main" version="1.1" xmlns="http://www.w3.org/2000/svg" xmlns:xlink="http://www.w3.org/1999/xlink" xml:space="preserve" onload="init(evt)">
<style type="text/css"><![CDATA[
.node, .edge {opacity: 0.7;}
.node.selected, .edge.selected {opacity: 1;}
.edge:hover path { stroke: red; }
.edge:hover polygon { stroke: red; fill: red; }
]]></style>

<defs>
  <circle id="rim" cx="0" cy="0" r="7"/>
  <circle id="rim2" cx="0" cy="0" r="3.5"/>
  <g id="zoomPlus">
    <use xlink:href="#rim" fill="#404040"><set attributeName="fill" to="#808080" begin="zoomplus.mouseover" end="zoomplus.mouseout"/></use>
    <path d="M-4,0h8M0,-4v8" fill="none" stroke="white" stroke-width="1.5" pointer-events="none"/>
  </g>
  <g id="zoomMin">
    <use xlink:href="#rim" fill="#404040"><set attributeName="fill" to="#808080" begin="zoomminus.mouseover" end="zoomminus.mouseout"/></use>
    <path d="M-4,0h8" fill="none" stroke="white" stroke-width="1.5" pointer-events="none"/>
  </g>
  <g id="arrowUp" transform="translate(30 24)">
    <use xlink:href="#rim"/>
    <path pointer-events="none" fill="none" stroke="white" stroke-width="1.5" d="M0,-3.0v7 M-2.5,-0.5L0,-3.0L2.5,-0.5"/>
  </g>
  <g id="arrowRight" transform="rotate(90) translate(36 -43)">
    <use xlink:href="#rim"/>
    <path pointer-events="none" fill="none" stroke="white" stroke-width="1.5" d="M0,-3.0v7 M-2.5,-0.5L0,-3.0L2.5,-0.5"/>
  </g>
  <g id="arrowDown" transform="rotate(180) translate(-30 -48)">
    <use xlink:href="#rim"/>
    <path pointer-events="none" fill="none" stroke="white" stroke-width="1.5" d="M0,-3.0v7 M-2.5,-0.5L0,-3.0L2.5,-0.5"/>
  </g>
  <g id="arrowLeft" transform="rotate(270) translate(-36 17)">
    <use xlink:href="#rim"/>
    <path pointer-events="none" fill="none" stroke="white" stroke-width="1.5" d="M0,-3.0v7 M-2.5,-0.5L0,-3.0L2.5,-0.5"/>
  </g>
  <g id="resetDef">
    <use xlink:href="#rim2" fill="#404040"><set attributeName="fill" to="#808080" begin="reset.mouseover" end="reset.mouseout"/></use>
  </g>
</defs>
<script type="application/ecmascript">
var viewWidth = 3794;
var viewHeight = 599;
var sectionId = 'dynsection-1';
</script>
<script type="application/ecmascript" xlink:href="svg.min.js"/>
<svg id="graph" class="graph">
<g id="viewport">
<title>/home/runner/work/Catena/Catena/sdks/cpp/common/include/IParamVisitor.h</title>
<!-- Node1 -->
<g id="Node000001" class="node">
<title>Node1</title>
<g id="a_Node000001"><a xlink:title="Implements Catena IParamVisitor.">
<polygon fill="#999999" stroke="#666666" points="3785.5,-591 3639.5,-591 3639.5,-550 3785.5,-550 3785.5,-591"/>
<text text-anchor="start" x="3647.5" y="-579" font-family="Helvetica,sans-Serif" font-size="10.00">/home/runner/work/Catena</text>
<text text-anchor="start" x="3647.5" y="-568" font-family="Helvetica,sans-Serif" font-size="10.00">/Catena/sdks/cpp/common</text>
<text text-anchor="middle" x="3712.5" y="-557" font-family="Helvetica,sans-Serif" font-size="10.00">/include/IParamVisitor.h</text>
</a>
</g>
</g>
<!-- Node2 -->
<g id="Node000002" class="node">
<title>Node2</title>
<g id="a_Node000002"><a xlink:href="ParamVisitor_8h.html" target="_top" xlink:title="Implements Catena ParamVisitor.">
<polygon fill="white" stroke="#666666" points="3785.5,-514 3639.5,-514 3639.5,-473 3785.5,-473 3785.5,-514"/>
<text text-anchor="start" x="3647.5" y="-502" font-family="Helvetica,sans-Serif" font-size="10.00">/home/runner/work/Catena</text>
<text text-anchor="start" x="3647.5" y="-491" font-family="Helvetica,sans-Serif" font-size="10.00">/Catena/sdks/cpp/common</text>
<text text-anchor="middle" x="3712.5" y="-480" font-family="Helvetica,sans-Serif" font-size="10.00">/include/ParamVisitor.h</text>
</a>
</g>
</g>
<!-- Node1&#45;&gt;Node2 -->
<g id="edge1_Node000001_Node000002" class="edge">
<title>Node1&#45;&gt;Node2</title>
<g id="a_edge1_Node000001_Node000002"><a xlink:title=" ">
<path fill="none" stroke="#63b8ff" d="M3712.5,-539.69C3712.5,-531.08 3712.5,-521.9 3712.5,-514.07"/>
<polygon fill="#63b8ff" stroke="#63b8ff" points="3709,-539.79 3712.5,-549.79 3716,-539.79 3709,-539.79"/>
</a>
</g>
</g>
<!-- Node3 -->
<g id="Node000003" class="node">
<title>Node3</title>
<g id="a_Node000003"><a xlink:href="SubscriptionManager_8h.html" target="_top" xlink:title="Centralized manager for parameter subscriptions in Catena.">
<polygon fill="white" stroke="#666666" points="1264,-437 1095,-437 1095,-396 1264,-396 1264,-437"/>
<text text-anchor="start" x="1103" y="-425" font-family="Helvetica,sans-Serif" font-size="10.00">/home/runner/work/Catena</text>
<text text-anchor="start" x="1103" y="-414" font-family="Helvetica,sans-Serif" font-size="10.00">/Catena/sdks/cpp/common</text>
<text text-anchor="middle" x="1179.5" y="-403" font-family="Helvetica,sans-Serif" font-size="10.00">/include/SubscriptionManager.h</text>
</a>
</g>
</g>
<!-- Node2&#45;&gt;Node3 -->
<g id="edge2_Node000002_Node000003" class="edge">
<title>Node2&#45;&gt;Node3</title>
<g id="a_edge2_Node000002_Node000003"><a xlink:title=" ">
<path fill="none" stroke="#63b8ff" d="M3629.24,-490.03C3245.63,-478.68 1650.87,-431.46 1264.22,-420.01"/>
<polygon fill="#63b8ff" stroke="#63b8ff" points="3629.32,-493.54 3639.42,-490.34 3629.53,-486.54 3629.32,-493.54"/>
</a>
</g>
</g>
<!-- Node9 -->
<g id="Node000009" class="node">
<title>Node9</title>
<g id="a_Node000009"><a xlink:href="REST_2include_2controllers_2BasicParamInfoRequest_8h.html" target="_top" xlink:title="Implements REST BasicParamInfoRequest controller.">
<polygon fill="white" stroke="#666666" points="2409,-129 2212,-129 2212,-77 2409,-77 2409,-129"/>
<text text-anchor="start" x="2220" y="-117" font-family="Helvetica,sans-Serif" font-size="10.00">/home/runner/work/Catena</text>
<text text-anchor="start" x="2220" y="-106" font-family="Helvetica,sans-Serif" font-size="10.00">/Catena/sdks/cpp/connections</text>
<text text-anchor="start" x="2220" y="-95" font-family="Helvetica,sans-Serif" font-size="10.00">/REST/include/controllers/BasicParam</text>
<text text-anchor="middle" x="2310.5" y="-84" font-family="Helvetica,sans-Serif" font-size="10.00">InfoRequest.h</text>
</a>
</g>
</g>
<!-- Node2&#45;&gt;Node9 -->
<g id="edge47_Node000002_Node000009" class="edge">
<title>Node2&#45;&gt;Node9</title>
<g id="a_edge47_Node000002_Node000009"><a xlink:title=" ">
<path fill="none" stroke="#63b8ff" d="M3712.5,-462.8C3712.5,-432.16 3712.5,-382.99 3712.5,-340.5 3712.5,-340.5 3712.5,-340.5 3712.5,-261.5 3712.5,-130.15 2728.21,-108.34 2409.09,-104.72"/>
<polygon fill="#63b8ff" stroke="#63b8ff" points="3709,-462.82 3712.5,-472.82 3716,-462.82 3709,-462.82"/>
</a>
</g>
</g>
<!-- Node22 -->
<g id="Node000022" class="node">
<title>Node22</title>
<g id="a_Node000022"><a xlink:href="gRPC_2include_2BasicParamInfoRequest_8h_source.html" target="_top" xlink:title=" ">
<polygon fill="white" stroke="#666666" points="3684,-283 3473,-283 3473,-242 3684,-242 3684,-283"/>
<text text-anchor="start" x="3481" y="-271" font-family="Helvetica,sans-Serif" font-size="10.00">/home/runner/work/Catena</text>
<text text-anchor="start" x="3481" y="-260" font-family="Helvetica,sans-Serif" font-size="10.00">/Catena/sdks/cpp/connections</text>
<text text-anchor="middle" x="3578.5" y="-249" font-family="Helvetica,sans-Serif" font-size="10.00">/gRPC/include/BasicParamInfoRequest.h</text>
</a>
</g>
</g>
<!-- Node2&#45;&gt;Node22 -->
<g id="edge48_Node000002_Node000022" class="edge">
<title>Node2&#45;&gt;Node22</title>
<g id="a_edge48_Node000002_Node000022"><a xlink:title=" ">
<path fill="none" stroke="#63b8ff" d="M3695.95,-464.21C3668.42,-417.16 3613.9,-324 3590.09,-283.3"/>
<polygon fill="#63b8ff" stroke="#63b8ff" points="3693,-466.11 3701.08,-472.98 3699.05,-462.58 3693,-466.11"/>
</a>
</g>
</g>
<!-- Node4 -->
<g id="Node000004" class="node">
<title>Node4</title>
<g id="a_Node000004"><a xlink:href="connections_2REST_2include_2controllers_2Connect_8h.html" target="_top" xlink:title="Implements REST Connect RPC.">
<polygon fill="white" stroke="#666666" points="189,-123.5 0,-123.5 0,-82.5 189,-82.5 189,-123.5"/>
<text text-anchor="start" x="8" y="-111.5" font-family="Helvetica,sans-Serif" font-size="10.00">/home/runner/work/Catena</text>
<text text-anchor="start" x="8" y="-100.5" font-family="Helvetica,sans-Serif" font-size="10.00">/Catena/sdks/cpp/connections</text>
<text text-anchor="middle" x="94.5" y="-89.5" font-family="Helvetica,sans-Serif" font-size="10.00">/REST/include/controllers/Connect.h</text>
</a>
</g>
</g>
<!-- Node3&#45;&gt;Node4 -->
<g id="edge3_Node000003_Node000004" class="edge">
<title>Node3&#45;&gt;Node4</title>
<g id="a_edge3_Node000003_Node000004"><a xlink:title=" ">
<path fill="none" stroke="#63b8ff" d="M1084.79,-397.98C926.35,-367.38 598.62,-298.51 331.5,-206 260.81,-181.52 181.49,-145.57 134.89,-123.54"/>
<polygon fill="#63b8ff" stroke="#63b8ff" points="1084.5,-401.49 1094.98,-399.94 1085.82,-394.61 1084.5,-401.49"/>
</a>
</g>
</g>
<!-- Node5 -->
<g id="Node000005" class="node">
<title>Node5</title>
<g id="a_Node000005"><a xlink:href="ISocketReader_8h.html" target="_top" xlink:title="Interface for the SocketReader class.">
<polygon fill="white" stroke="#666666" points="1128.5,-360 918.5,-360 918.5,-319 1128.5,-319 1128.5,-360"/>
<text text-anchor="start" x="926.5" y="-348" font-family="Helvetica,sans-Serif" font-size="10.00">/home/runner/work/Catena</text>
<text text-anchor="start" x="926.5" y="-337" font-family="Helvetica,sans-Serif" font-size="10.00">/Catena/sdks/cpp/connections</text>
<text text-anchor="middle" x="1023.5" y="-326" font-family="Helvetica,sans-Serif" font-size="10.00">/REST/include/interface/ISocketReader.h</text>
</a>
</g>
</g>
<!-- Node3&#45;&gt;Node5 -->
<g id="edge4_Node000003_Node000005" class="edge">
<title>Node3&#45;&gt;Node5</title>
<g id="a_edge4_Node000003_Node000005"><a xlink:title=" ">
<path fill="none" stroke="#63b8ff" d="M1129.76,-391.59C1108.59,-381.41 1084.21,-369.69 1064.15,-360.04"/>
<polygon fill="#63b8ff" stroke="#63b8ff" points="1128.39,-394.81 1138.92,-395.99 1131.42,-388.5 1128.39,-394.81"/>
</a>
</g>
</g>
<!-- Node19 -->
<g id="Node000019" class="node">
<title>Node19</title>
<g id="a_Node000019"><a xlink:href="connections_2gRPC_2include_2Connect_8h.html" target="_top" xlink:title="Implements Catena gRPC Connect.">
<polygon fill="white" stroke="#666666" points="1260,-283 1099,-283 1099,-242 1260,-242 1260,-283"/>
<text text-anchor="start" x="1107" y="-271" font-family="Helvetica,sans-Serif" font-size="10.00">/home/runner/work/Catena</text>
<text text-anchor="start" x="1107" y="-260" font-family="Helvetica,sans-Serif" font-size="10.00">/Catena/sdks/cpp/connections</text>
<text text-anchor="middle" x="1179.5" y="-249" font-family="Helvetica,sans-Serif" font-size="10.00">/gRPC/include/Connect.h</text>
</a>
</g>
</g>
<!-- Node3&#45;&gt;Node19 -->
<g id="edge30_Node000003_Node000019" class="edge">
<title>Node3&#45;&gt;Node19</title>
<g id="a_edge30_Node000003_Node000019"><a xlink:title=" ">
<path fill="none" stroke="#63b8ff" d="M1179.5,-385.58C1179.5,-355.36 1179.5,-309.53 1179.5,-283.47"/>
<polygon fill="#63b8ff" stroke="#63b8ff" points="1176,-385.94 1179.5,-395.94 1183,-385.94 1176,-385.94"/>
</a>
</g>
</g>
<!-- Node20 -->
<g id="Node000020" class="node">
<title>Node20</title>
<g id="a_Node000020"><a xlink:href="gRPC_2include_2ServiceImpl_8h.html" target="_top" xlink:title="Implements Catena gRPC request handlers.">
<polygon fill="white" stroke="#666666" points="2424,-360 2263,-360 2263,-319 2424,-319 2424,-360"/>
<text text-anchor="start" x="2271" y="-348" font-family="Helvetica,sans-Serif" font-size="10.00">/home/runner/work/Catena</text>
<text text-anchor="start" x="2271" y="-337" font-family="Helvetica,sans-Serif" font-size="10.00">/Catena/sdks/cpp/connections</text>
<text text-anchor="middle" x="2343.5" y="-326" font-family="Helvetica,sans-Serif" font-size="10.00">/gRPC/include/ServiceImpl.h</text>
</a>
</g>
</g>
<!-- Node3&#45;&gt;Node20 -->
<g id="edge31_Node000003_Node000020" class="edge">
<title>Node3&#45;&gt;Node20</title>
<g id="a_edge31_Node000003_Node000020"><a xlink:title=" ">
<path fill="none" stroke="#63b8ff" d="M1274.21,-409.4C1497.53,-395.01 2053.9,-359.16 2262.66,-345.71"/>
<polygon fill="#63b8ff" stroke="#63b8ff" points="1273.9,-405.91 1264.15,-410.05 1274.35,-412.9 1273.9,-405.91"/>
</a>
</g>
</g>
<!-- Node6 -->
<g id="Node000006" class="node">
<title>Node6</title>
<g id="a_Node000006"><a xlink:href="SocketReader_8h.html" target="_top" xlink:title="Helper class used to read from a socket using boost.">
<polygon fill="white" stroke="#666666" points="1081,-283 920,-283 920,-242 1081,-242 1081,-283"/>
<text text-anchor="start" x="928" y="-271" font-family="Helvetica,sans-Serif" font-size="10.00">/home/runner/work/Catena</text>
<text text-anchor="start" x="928" y="-260" font-family="Helvetica,sans-Serif" font-size="10.00">/Catena/sdks/cpp/connections</text>
<text text-anchor="middle" x="1000.5" y="-249" font-family="Helvetica,sans-Serif" font-size="10.00">/REST/include/SocketReader.h</text>
</a>
</g>
</g>
<!-- Node5&#45;&gt;Node6 -->
<g id="edge5_Node000005_Node000006" class="edge">
<title>Node5&#45;&gt;Node6</title>
<g id="a_edge5_Node000005_Node000006"><a xlink:title=" ">
<path fill="none" stroke="#63b8ff" d="M1014.45,-308.98C1011.78,-300.28 1008.93,-290.98 1006.5,-283.07"/>
<polygon fill="#63b8ff" stroke="#63b8ff" points="1011.18,-310.26 1017.46,-318.79 1017.87,-308.21 1011.18,-310.26"/>
</a>
</g>
</g>
<!-- Node6&#45;&gt;Node4 -->
<g id="edge9_Node000006_Node000004" class="edge">
<title>Node6&#45;&gt;Node4</title>
<g id="a_edge9_Node000006_Node000004"><a xlink:title=" ">
<path fill="none" stroke="#63b8ff" d="M909.62,-254.38C812.18,-245.97 653.16,-230.02 517.5,-206 373.46,-180.49 339.69,-163.36 197.5,-129 190.17,-127.23 182.54,-125.38 174.9,-123.53"/>
<polygon fill="#63b8ff" stroke="#63b8ff" points="909.47,-257.88 919.73,-255.25 910.07,-250.91 909.47,-257.88"/>
</a>
</g>
</g>
<!-- Node7 -->
<g id="Node000007" class="node">
<title>Node7</title>
<g id="a_Node000007"><a xlink:href="REST_2include_2ServiceImpl_8h_source.html" target="_top" xlink:title=" ">
<polygon fill="white" stroke="#666666" points="368,-123.5 207,-123.5 207,-82.5 368,-82.5 368,-123.5"/>
<text text-anchor="start" x="215" y="-111.5" font-family="Helvetica,sans-Serif" font-size="10.00">/home/runner/work/Catena</text>
<text text-anchor="start" x="215" y="-100.5" font-family="Helvetica,sans-Serif" font-size="10.00">/Catena/sdks/cpp/connections</text>
<text text-anchor="middle" x="287.5" y="-89.5" font-family="Helvetica,sans-Serif" font-size="10.00">/REST/include/ServiceImpl.h</text>
</a>
</g>
</g>
<!-- Node6&#45;&gt;Node7 -->
<g id="edge6_Node000006_Node000007" class="edge">
<title>Node6&#45;&gt;Node7</title>
<g id="a_edge6_Node000006_Node000007"><a xlink:title=" ">
<path fill="none" stroke="#63b8ff" d="M909.62,-246.09C849.54,-235.59 769.13,-220.92 698.5,-206 554.53,-175.58 518.91,-166.01 376.5,-129 369.82,-127.26 362.87,-125.41 355.94,-123.52"/>
<polygon fill="#63b8ff" stroke="#63b8ff" points="909.38,-249.6 919.84,-247.87 910.59,-242.71 909.38,-249.6"/>
</a>
</g>
</g>
<!-- Node8 -->
<g id="Node000008" class="node">
<title>Node8</title>
<g id="a_Node000008"><a xlink:href="REST_2include_2controllers_2AddLanguage_8h.html" target="_top" xlink:title="Implements REST AddLanguage RPC.">
<polygon fill="white" stroke="#666666" points="601,-123.5 386,-123.5 386,-82.5 601,-82.5 601,-123.5"/>
<text text-anchor="start" x="394" y="-111.5" font-family="Helvetica,sans-Serif" font-size="10.00">/home/runner/work/Catena</text>
<text text-anchor="start" x="394" y="-100.5" font-family="Helvetica,sans-Serif" font-size="10.00">/Catena/sdks/cpp/connections</text>
<text text-anchor="middle" x="493.5" y="-89.5" font-family="Helvetica,sans-Serif" font-size="10.00">/REST/include/controllers/AddLanguage.h</text>
</a>
</g>
</g>
<!-- Node6&#45;&gt;Node8 -->
<g id="edge7_Node000006_Node000008" class="edge">
<title>Node6&#45;&gt;Node8</title>
<g id="a_edge7_Node000006_Node000008"><a xlink:title=" ">
<path fill="none" stroke="#63b8ff" d="M927.88,-238.94C828.19,-207.97 650.63,-152.81 556.36,-123.53"/>
<polygon fill="#63b8ff" stroke="#63b8ff" points="926.98,-242.33 937.57,-241.95 929.06,-235.64 926.98,-242.33"/>
</a>
</g>
</g>
<!-- Node6&#45;&gt;Node9 -->
<g id="edge8_Node000006_Node000009" class="edge">
<title>Node6&#45;&gt;Node9</title>
<g id="a_edge8_Node000006_Node000009"><a xlink:title=" ">
<path fill="none" stroke="#63b8ff" d="M1091.59,-241.81C1343.1,-207.34 1410.88,-231.56 1660.5,-206 1902.54,-181.22 1963.31,-173.59 2202.5,-129 2205.62,-128.42 2208.79,-127.81 2211.99,-127.17"/>
<polygon fill="#63b8ff" stroke="#63b8ff" points="1090.84,-238.38 1081.41,-243.22 1091.8,-245.31 1090.84,-238.38"/>
</a>
</g>
</g>
<!-- Node10 -->
<g id="Node000010" class="node">
<title>Node10</title>
<g id="a_Node000010"><a xlink:href="REST_2include_2controllers_2DeviceRequest_8h.html" target="_top" xlink:title="Implements REST DeviceRequest RPC.">
<polygon fill="white" stroke="#666666" points="842,-123.5 619,-123.5 619,-82.5 842,-82.5 842,-123.5"/>
<text text-anchor="start" x="627" y="-111.5" font-family="Helvetica,sans-Serif" font-size="10.00">/home/runner/work/Catena</text>
<text text-anchor="start" x="627" y="-100.5" font-family="Helvetica,sans-Serif" font-size="10.00">/Catena/sdks/cpp/connections</text>
<text text-anchor="middle" x="730.5" y="-89.5" font-family="Helvetica,sans-Serif" font-size="10.00">/REST/include/controllers/DeviceRequest.h</text>
</a>
</g>
</g>
<!-- Node6&#45;&gt;Node10 -->
<g id="edge10_Node000006_Node000010" class="edge">
<title>Node6&#45;&gt;Node10</title>
<g id="a_edge10_Node000006_Node000010"><a xlink:title=" ">
<path fill="none" stroke="#63b8ff" d="M957.93,-236.67C904.29,-205.38 813.19,-152.24 764.15,-123.63"/>
<polygon fill="#63b8ff" stroke="#63b8ff" points="956.45,-239.86 966.85,-241.87 959.98,-233.81 956.45,-239.86"/>
</a>
</g>
</g>
<!-- Node11 -->
<g id="Node000011" class="node">
<title>Node11</title>
<g id="a_Node000011"><a xlink:href="REST_2include_2controllers_2GetParam_8h_source.html" target="_top" xlink:title=" ">
<polygon fill="white" stroke="#666666" points="1057,-123.5 860,-123.5 860,-82.5 1057,-82.5 1057,-123.5"/>
<text text-anchor="start" x="868" y="-111.5" font-family="Helvetica,sans-Serif" font-size="10.00">/home/runner/work/Catena</text>
<text text-anchor="start" x="868" y="-100.5" font-family="Helvetica,sans-Serif" font-size="10.00">/Catena/sdks/cpp/connections</text>
<text text-anchor="middle" x="958.5" y="-89.5" font-family="Helvetica,sans-Serif" font-size="10.00">/REST/include/controllers/GetParam.h</text>
</a>
</g>
</g>
<!-- Node6&#45;&gt;Node11 -->
<g id="edge11_Node000006_Node000011" class="edge">
<title>Node6&#45;&gt;Node11</title>
<g id="a_edge11_Node000006_Node000011"><a xlink:title=" ">
<path fill="none" stroke="#63b8ff" d="M992.6,-231.89C984.18,-200.29 971.07,-151.13 963.8,-123.88"/>
<polygon fill="#63b8ff" stroke="#63b8ff" points="989.31,-233.11 995.27,-241.87 996.07,-231.31 989.31,-233.11"/>
</a>
</g>
</g>
<!-- Node12 -->
<g id="Node000012" class="node">
<title>Node12</title>
<g id="a_Node000012"><a xlink:href="REST_2include_2controllers_2GetPopulatedSlots_8h.html" target="_top" xlink:title="Implements REST GetPopulatedSlots RPC.">
<polygon fill="white" stroke="#666666" points="1281.5,-129 1075.5,-129 1075.5,-77 1281.5,-77 1281.5,-129"/>
<text text-anchor="start" x="1083.5" y="-117" font-family="Helvetica,sans-Serif" font-size="10.00">/home/runner/work/Catena</text>
<text text-anchor="start" x="1083.5" y="-106" font-family="Helvetica,sans-Serif" font-size="10.00">/Catena/sdks/cpp/connections</text>
<text text-anchor="start" x="1083.5" y="-95" font-family="Helvetica,sans-Serif" font-size="10.00">/REST/include/controllers/GetPopulated</text>
<text text-anchor="middle" x="1178.5" y="-84" font-family="Helvetica,sans-Serif" font-size="10.00">Slots.h</text>
</a>
</g>
</g>
<!-- Node6&#45;&gt;Node12 -->
<g id="edge12_Node000006_Node000012" class="edge">
<title>Node6&#45;&gt;Node12</title>
<g id="a_edge12_Node000006_Node000012"><a xlink:title=" ">
<path fill="none" stroke="#63b8ff" d="M1015.84,-233.08C1028.07,-212.34 1046.71,-184.56 1068.5,-165 1084.18,-150.92 1103.67,-138.79 1121.87,-129.14"/>
<polygon fill="#63b8ff" stroke="#63b8ff" points="1012.79,-231.36 1010.84,-241.77 1018.86,-234.84 1012.79,-231.36"/>
</a>
</g>
</g>
<!-- Node13 -->
<g id="Node000013" class="node">
<title>Node13</title>
<g id="a_Node000013"><a xlink:href="REST_2include_2controllers_2GetValue_8h.html" target="_top" xlink:title="Implements REST GetValue RPC.">
<polygon fill="white" stroke="#666666" points="1493.5,-123.5 1299.5,-123.5 1299.5,-82.5 1493.5,-82.5 1493.5,-123.5"/>
<text text-anchor="start" x="1307.5" y="-111.5" font-family="Helvetica,sans-Serif" font-size="10.00">/home/runner/work/Catena</text>
<text text-anchor="start" x="1307.5" y="-100.5" font-family="Helvetica,sans-Serif" font-size="10.00">/Catena/sdks/cpp/connections</text>
<text text-anchor="middle" x="1396.5" y="-89.5" font-family="Helvetica,sans-Serif" font-size="10.00">/REST/include/controllers/GetValue.h</text>
</a>
</g>
</g>
<!-- Node6&#45;&gt;Node13 -->
<g id="edge13_Node000006_Node000013" class="edge">
<title>Node6&#45;&gt;Node13</title>
<g id="a_edge13_Node000006_Node000013"><a xlink:title=" ">
<path fill="none" stroke="#63b8ff" d="M1091.24,-241.75C1172.83,-226.32 1200.48,-240.02 1272.5,-206 1315.6,-185.64 1356.45,-146.97 1378.82,-123.53"/>
<polygon fill="#63b8ff" stroke="#63b8ff" points="1090.14,-238.4 1081.01,-243.78 1091.5,-245.26 1090.14,-238.4"/>
</a>
</g>
</g>
<!-- Node14 -->
<g id="Node000014" class="node">
<title>Node14</title>
<g id="a_Node000014"><a xlink:href="REST_2include_2controllers_2LanguagePackRequest_8h.html" target="_top" xlink:title="Implements REST LanguagePackRequest RPC.">
<polygon fill="white" stroke="#666666" points="1721.5,-129 1511.5,-129 1511.5,-77 1721.5,-77 1721.5,-129"/>
<text text-anchor="start" x="1519.5" y="-117" font-family="Helvetica,sans-Serif" font-size="10.00">/home/runner/work/Catena</text>
<text text-anchor="start" x="1519.5" y="-106" font-family="Helvetica,sans-Serif" font-size="10.00">/Catena/sdks/cpp/connections</text>
<text text-anchor="start" x="1519.5" y="-95" font-family="Helvetica,sans-Serif" font-size="10.00">/REST/include/controllers/LanguagePack</text>
<text text-anchor="middle" x="1616.5" y="-84" font-family="Helvetica,sans-Serif" font-size="10.00">Request.h</text>
</a>
</g>
</g>
<!-- Node6&#45;&gt;Node14 -->
<g id="edge14_Node000006_Node000014" class="edge">
<title>Node6&#45;&gt;Node14</title>
<g id="a_edge14_Node000006_Node000014"><a xlink:title=" ">
<path fill="none" stroke="#63b8ff" d="M1091.44,-241.7C1192.11,-223.46 1221.03,-229.88 1317.5,-206 1400.69,-185.41 1493.71,-151.95 1553.58,-129.01"/>
<polygon fill="#63b8ff" stroke="#63b8ff" points="1090.66,-238.29 1081.46,-243.55 1091.93,-245.17 1090.66,-238.29"/>
</a>
</g>
</g>
<!-- Node15 -->
<g id="Node000015" class="node">
<title>Node15</title>
<g id="a_Node000015"><a xlink:href="REST_2include_2controllers_2ListLanguages_8h_source.html" target="_top" xlink:title=" ">
<polygon fill="white" stroke="#666666" points="1959,-123.5 1740,-123.5 1740,-82.5 1959,-82.5 1959,-123.5"/>
<text text-anchor="start" x="1748" y="-111.5" font-family="Helvetica,sans-Serif" font-size="10.00">/home/runner/work/Catena</text>
<text text-anchor="start" x="1748" y="-100.5" font-family="Helvetica,sans-Serif" font-size="10.00">/Catena/sdks/cpp/connections</text>
<text text-anchor="middle" x="1849.5" y="-89.5" font-family="Helvetica,sans-Serif" font-size="10.00">/REST/include/controllers/ListLanguages.h</text>
</a>
</g>
</g>
<!-- Node6&#45;&gt;Node15 -->
<g id="edge15_Node000006_Node000015" class="edge">
<title>Node6&#45;&gt;Node15</title>
<g id="a_edge15_Node000006_Node000015"><a xlink:title=" ">
<path fill="none" stroke="#63b8ff" d="M1091.42,-241.76C1227.62,-219.63 1265.41,-228.74 1398.5,-206 1532.03,-183.19 1685.49,-146.13 1774.58,-123.52"/>
<polygon fill="#63b8ff" stroke="#63b8ff" points="1090.74,-238.32 1081.44,-243.41 1091.88,-245.23 1090.74,-238.32"/>
</a>
</g>
</g>
<!-- Node16 -->
<g id="Node000016" class="node">
<title>Node16</title>
<g id="a_Node000016"><a xlink:href="REST_2include_2controllers_2MultiSetValue_8h.html" target="_top" xlink:title="Implements REST MultiSetValue RPC.">
<polygon fill="white" stroke="#666666" points="2194,-123.5 1977,-123.5 1977,-82.5 2194,-82.5 2194,-123.5"/>
<text text-anchor="start" x="1985" y="-111.5" font-family="Helvetica,sans-Serif" font-size="10.00">/home/runner/work/Catena</text>
<text text-anchor="start" x="1985" y="-100.5" font-family="Helvetica,sans-Serif" font-size="10.00">/Catena/sdks/cpp/connections</text>
<text text-anchor="middle" x="2085.5" y="-89.5" font-family="Helvetica,sans-Serif" font-size="10.00">/REST/include/controllers/MultiSetValue.h</text>
</a>
</g>
</g>
<!-- Node6&#45;&gt;Node16 -->
<g id="edge16_Node000006_Node000016" class="edge">
<title>Node6&#45;&gt;Node16</title>
<g id="a_edge16_Node000006_Node000016"><a xlink:title=" ">
<path fill="none" stroke="#63b8ff" d="M1091.55,-241.78C1277.83,-214.3 1328.61,-229.34 1512.5,-206 1715.96,-180.17 1766.02,-167.37 1967.5,-129 1976.45,-127.3 1985.76,-125.45 1995.06,-123.56"/>
<polygon fill="#63b8ff" stroke="#63b8ff" points="1090.79,-238.36 1081.42,-243.3 1091.83,-245.28 1090.79,-238.36"/>
</a>
</g>
</g>
<!-- Node18 -->
<g id="Node000018" class="node">
<title>Node18</title>
<g id="a_Node000018"><a xlink:href="ICallData_8h.html" target="_top" xlink:title="Interface class for REST RPCs.">
<polygon fill="white" stroke="#666666" points="1263.5,-206 1077.5,-206 1077.5,-165 1263.5,-165 1263.5,-206"/>
<text text-anchor="start" x="1085.5" y="-194" font-family="Helvetica,sans-Serif" font-size="10.00">/home/runner/work/Catena</text>
<text text-anchor="start" x="1085.5" y="-183" font-family="Helvetica,sans-Serif" font-size="10.00">/Catena/sdks/cpp/connections</text>
<text text-anchor="middle" x="1170.5" y="-172" font-family="Helvetica,sans-Serif" font-size="10.00">/REST/include/interface/ICallData.h</text>
</a>
</g>
</g>
<!-- Node6&#45;&gt;Node18 -->
<g id="edge18_Node000006_Node000018" class="edge">
<title>Node6&#45;&gt;Node18</title>
<g id="a_edge18_Node000006_Node000018"><a xlink:title=" ">
<path fill="none" stroke="#63b8ff" d="M1054.09,-237.86C1077.3,-227.62 1104.15,-215.77 1126.2,-206.04"/>
<polygon fill="#63b8ff" stroke="#63b8ff" points="1052.46,-234.75 1044.72,-241.99 1055.28,-241.16 1052.46,-234.75"/>
</a>
</g>
</g>
<!-- Node17 -->
<g id="Node000017" class="node">
<title>Node17</title>
<g id="a_Node000017"><a xlink:href="REST_2include_2controllers_2SetValue_8h.html" target="_top" xlink:title="Implements REST SetValue RPC.">
<polygon fill="white" stroke="#666666" points="2181.5,-41 1989.5,-41 1989.5,0 2181.5,0 2181.5,-41"/>
<text text-anchor="start" x="1997.5" y="-29" font-family="Helvetica,sans-Serif" font-size="10.00">/home/runner/work/Catena</text>
<text text-anchor="start" x="1997.5" y="-18" font-family="Helvetica,sans-Serif" font-size="10.00">/Catena/sdks/cpp/connections</text>
<text text-anchor="middle" x="2085.5" y="-7" font-family="Helvetica,sans-Serif" font-size="10.00">/REST/include/controllers/SetValue.h</text>
</a>
</g>
</g>
<!-- Node16&#45;&gt;Node17 -->
<g id="edge17_Node000016_Node000017" class="edge">
<title>Node16&#45;&gt;Node17</title>
<g id="a_edge17_Node000016_Node000017"><a xlink:title=" ">
<path fill="none" stroke="#63b8ff" d="M2085.5,-71.87C2085.5,-61.6 2085.5,-50.4 2085.5,-41.17"/>
<polygon fill="#63b8ff" stroke="#63b8ff" points="2082,-72.1 2085.5,-82.1 2089,-72.1 2082,-72.1"/>
</a>
</g>
</g>
<!-- Node18&#45;&gt;Node4 -->
<g id="edge22_Node000018_Node000004" class="edge">
<title>Node18&#45;&gt;Node4</title>
<g id="a_edge22_Node000018_Node000004"><a xlink:title=" ">
<path fill="none" stroke="#63b8ff" d="M1067.2,-184.73C888.81,-183.76 511.89,-175.73 197.5,-129 187.85,-127.57 177.79,-125.65 167.89,-123.52"/>
<polygon fill="#63b8ff" stroke="#63b8ff" points="1067.34,-188.23 1077.36,-184.78 1067.38,-181.23 1067.34,-188.23"/>
</a>
</g>
</g>
<!-- Node18&#45;&gt;Node7 -->
<g id="edge19_Node000018_Node000007" class="edge">
<title>Node18&#45;&gt;Node7</title>
<g id="a_edge19_Node000018_Node000007"><a xlink:title=" ">
<path fill="none" stroke="#63b8ff" d="M1067.05,-179.9C883.11,-171.28 506.28,-151.52 376.5,-129 368.28,-127.57 359.72,-125.69 351.31,-123.61"/>
<polygon fill="#63b8ff" stroke="#63b8ff" points="1067.12,-183.41 1077.28,-180.38 1067.45,-176.41 1067.12,-183.41"/>
</a>
</g>
</g>
<!-- Node18&#45;&gt;Node8 -->
<g id="edge20_Node000018_Node000008" class="edge">
<title>Node18&#45;&gt;Node8</title>
<g id="a_edge20_Node000018_Node000008"><a xlink:title=" ">
<path fill="none" stroke="#63b8ff" d="M1067.26,-177.82C954.37,-169.69 768.36,-153.89 609.5,-129 599.53,-127.44 589.12,-125.56 578.82,-123.54"/>
<polygon fill="#63b8ff" stroke="#63b8ff" points="1067.05,-181.31 1077.28,-178.53 1067.55,-174.33 1067.05,-181.31"/>
</a>
</g>
</g>
<!-- Node18&#45;&gt;Node9 -->
<g id="edge21_Node000018_Node000009" class="edge">
<title>Node18&#45;&gt;Node9</title>
<g id="a_edge21_Node000018_Node000009"><a xlink:title=" ">
<path fill="none" stroke="#63b8ff" d="M1273.59,-184.86C1459.97,-184.21 1864.95,-176.78 2202.5,-129 2205.55,-128.57 2208.64,-128.09 2211.75,-127.58"/>
<polygon fill="#63b8ff" stroke="#63b8ff" points="1273.52,-181.36 1263.53,-184.89 1273.54,-188.36 1273.52,-181.36"/>
</a>
</g>
</g>
<!-- Node18&#45;&gt;Node10 -->
<g id="edge23_Node000018_Node000010" class="edge">
<title>Node18&#45;&gt;Node10</title>
<g id="a_edge23_Node000018_Node000010"><a xlink:title=" ">
<path fill="none" stroke="#63b8ff" d="M1067.32,-167.51C1004.54,-156.95 922.79,-142.79 850.5,-129 841.51,-127.28 832.16,-125.44 822.81,-123.56"/>
<polygon fill="#63b8ff" stroke="#63b8ff" points="1066.79,-170.97 1077.23,-169.18 1067.95,-164.07 1066.79,-170.97"/>
</a>
</g>
</g>
<!-- Node18&#45;&gt;Node11 -->
<g id="edge24_Node000018_Node000011" class="edge">
<title>Node18&#45;&gt;Node11</title>
<g id="a_edge24_Node000018_Node000011"><a xlink:title=" ">
<path fill="none" stroke="#63b8ff" d="M1109.36,-161.29C1077.88,-149.33 1039.92,-134.92 1009.95,-123.54"/>
<polygon fill="#63b8ff" stroke="#63b8ff" points="1108.32,-164.63 1118.91,-164.91 1110.8,-158.09 1108.32,-164.63"/>
</a>
</g>
</g>
<!-- Node18&#45;&gt;Node12 -->
<g id="edge25_Node000018_Node000012" class="edge">
<title>Node18&#45;&gt;Node12</title>
<g id="a_edge25_Node000018_Node000012"><a xlink:title=" ">
<path fill="none" stroke="#63b8ff" d="M1173.48,-154.49C1174.31,-146.15 1175.2,-137.19 1176,-129.16"/>
<polygon fill="#63b8ff" stroke="#63b8ff" points="1169.98,-154.3 1172.48,-164.6 1176.95,-155 1169.98,-154.3"/>
</a>
</g>
</g>
<!-- Node18&#45;&gt;Node13 -->
<g id="edge26_Node000018_Node000013" class="edge">
<title>Node18&#45;&gt;Node13</title>
<g id="a_edge26_Node000018_Node000013"><a xlink:title=" ">
<path fill="none" stroke="#63b8ff" d="M1235.24,-161.44C1268.89,-149.45 1309.57,-134.97 1341.65,-123.54"/>
<polygon fill="#63b8ff" stroke="#63b8ff" points="1233.74,-158.26 1225.5,-164.91 1236.09,-164.85 1233.74,-158.26"/>
</a>
</g>
</g>
<!-- Node18&#45;&gt;Node14 -->
<g id="edge27_Node000018_Node000014" class="edge">
<title>Node18&#45;&gt;Node14</title>
<g id="a_edge27_Node000018_Node000014"><a xlink:title=" ">
<path fill="none" stroke="#63b8ff" d="M1273.68,-168.62C1339.34,-158.18 1426.09,-143.75 1502.5,-129 1505.38,-128.44 1508.31,-127.87 1511.26,-127.28"/>
<polygon fill="#63b8ff" stroke="#63b8ff" points="1273.07,-165.17 1263.74,-170.2 1274.17,-172.09 1273.07,-165.17"/>
</a>
</g>
</g>
<!-- Node18&#45;&gt;Node15 -->
<g id="edge28_Node000018_Node000015" class="edge">
<title>Node18&#45;&gt;Node15</title>
<g id="a_edge28_Node000018_Node000015"><a xlink:title=" ">
<path fill="none" stroke="#63b8ff" d="M1273.53,-177.65C1386.2,-169.38 1571.86,-153.45 1730.5,-129 1740.72,-127.42 1751.39,-125.54 1761.96,-123.51"/>
<polygon fill="#63b8ff" stroke="#63b8ff" points="1273.25,-174.16 1263.54,-178.38 1273.76,-181.14 1273.25,-174.16"/>
</a>
</g>
</g>
<!-- Node18&#45;&gt;Node16 -->
<g id="edge29_Node000018_Node000016" class="edge">
<title>Node18&#45;&gt;Node16</title>
<g id="a_edge29_Node000018_Node000016"><a xlink:title=" ">
<path fill="none" stroke="#63b8ff" d="M1273.87,-181.9C1426.31,-177.02 1720.09,-163.65 1967.5,-129 1978.18,-127.5 1989.34,-125.6 2000.35,-123.51"/>
<polygon fill="#63b8ff" stroke="#63b8ff" points="1273.47,-178.41 1263.58,-182.22 1273.69,-185.4 1273.47,-178.41"/>
</a>
</g>
</g>
<!-- Node20&#45;&gt;Node19 -->
<g id="edge34_Node000020_Node000019" class="edge">
<title>Node20&#45;&gt;Node19</title>
<g id="a_edge34_Node000020_Node000019"><a xlink:title=" ">
<path fill="none" stroke="#63b8ff" d="M2252.58,-338.82C2066.82,-338.38 1630.69,-331.69 1268.5,-283 1265.83,-282.64 1263.13,-282.25 1260.41,-281.82"/>
<polygon fill="#63b8ff" stroke="#63b8ff" points="2252.84,-342.32 2262.84,-338.84 2252.85,-335.32 2252.84,-342.32"/>
</a>
</g>
</g>
<!-- Node21 -->
<g id="Node000021" class="node">
<title>Node21</title>
<g id="a_Node000021"><a xlink:href="gRPC_2include_2AddLanguage_8h.html" target="_top" xlink:title="Implements Catena gRPC AddLanguage.">
<polygon fill="white" stroke="#666666" points="1439,-283 1278,-283 1278,-242 1439,-242 1439,-283"/>
<text text-anchor="start" x="1286" y="-271" font-family="Helvetica,sans-Serif" font-size="10.00">/home/runner/work/Catena</text>
<text text-anchor="start" x="1286" y="-260" font-family="Helvetica,sans-Serif" font-size="10.00">/Catena/sdks/cpp/connections</text>
<text text-anchor="middle" x="1358.5" y="-249" font-family="Helvetica,sans-Serif" font-size="10.00">/gRPC/include/AddLanguage.h</text>
</a>
</g>
</g>
<!-- Node20&#45;&gt;Node21 -->
<g id="edge32_Node000020_Node000021" class="edge">
<title>Node20&#45;&gt;Node21</title>
<g id="a_edge32_Node000020_Node000021"><a xlink:title=" ">
<path fill="none" stroke="#63b8ff" d="M2252.34,-337.47C2089.84,-334.62 1739.76,-323.82 1447.5,-283 1444.84,-282.63 1442.13,-282.22 1439.41,-281.78"/>
<polygon fill="#63b8ff" stroke="#63b8ff" points="2252.71,-340.98 2262.77,-337.65 2252.83,-333.98 2252.71,-340.98"/>
</a>
</g>
</g>
<!-- Node20&#45;&gt;Node22 -->
<g id="edge33_Node000020_Node000022" class="edge">
<title>Node20&#45;&gt;Node22</title>
<g id="a_edge33_Node000020_Node000022"><a xlink:title=" ">
<path fill="none" stroke="#63b8ff" d="M2434.51,-337.64C2625.66,-335.03 3082.71,-324.57 3463.5,-283 3466.62,-282.66 3469.78,-282.29 3472.98,-281.89"/>
<polygon fill="#63b8ff" stroke="#63b8ff" points="2434.18,-334.14 2424.23,-337.77 2434.28,-341.14 2434.18,-334.14"/>
</a>
</g>
</g>
<!-- Node23 -->
<g id="Node000023" class="node">
<title>Node23</title>
<g id="a_Node000023"><a xlink:href="gRPC_2include_2DeviceRequest_8h.html" target="_top" xlink:title="Implements Catena gRPC DeviceRequest.">
<polygon fill="white" stroke="#666666" points="1626,-283 1457,-283 1457,-242 1626,-242 1626,-283"/>
<text text-anchor="start" x="1465" y="-271" font-family="Helvetica,sans-Serif" font-size="10.00">/home/runner/work/Catena</text>
<text text-anchor="start" x="1465" y="-260" font-family="Helvetica,sans-Serif" font-size="10.00">/Catena/sdks/cpp/connections</text>
<text text-anchor="middle" x="1541.5" y="-249" font-family="Helvetica,sans-Serif" font-size="10.00">/gRPC/include/DeviceRequest.h</text>
</a>
</g>
</g>
<!-- Node20&#45;&gt;Node23 -->
<g id="edge35_Node000020_Node000023" class="edge">
<title>Node20&#45;&gt;Node23</title>
<g id="a_edge35_Node000020_Node000023"><a xlink:title=" ">
<path fill="none" stroke="#63b8ff" d="M2252.67,-335.05C2117.56,-329.1 1855.88,-314.37 1635.5,-283 1632.45,-282.57 1629.35,-282.09 1626.22,-281.59"/>
<polygon fill="#63b8ff" stroke="#63b8ff" points="2252.83,-338.56 2262.97,-335.5 2253.14,-331.57 2252.83,-338.56"/>
</a>
</g>
</g>
<!-- Node24 -->
<g id="Node000024" class="node">
<title>Node24</title>
<g id="a_Node000024"><a xlink:href="ExecuteCommand_8h.html" target="_top" xlink:title="Implements Catena gRPC ExecuteCommand.">
<polygon fill="white" stroke="#666666" points="1828.5,-283 1644.5,-283 1644.5,-242 1828.5,-242 1828.5,-283"/>
<text text-anchor="start" x="1652.5" y="-271" font-family="Helvetica,sans-Serif" font-size="10.00">/home/runner/work/Catena</text>
<text text-anchor="start" x="1652.5" y="-260" font-family="Helvetica,sans-Serif" font-size="10.00">/Catena/sdks/cpp/connections</text>
<text text-anchor="middle" x="1736.5" y="-249" font-family="Helvetica,sans-Serif" font-size="10.00">/gRPC/include/ExecuteCommand.h</text>
</a>
</g>
</g>
<!-- Node20&#45;&gt;Node24 -->
<g id="edge36_Node000020_Node000024" class="edge">
<title>Node20&#45;&gt;Node24</title>
<g id="a_edge36_Node000020_Node000024"><a xlink:title=" ">
<path fill="none" stroke="#63b8ff" d="M2252.39,-330.76C2150.86,-321.61 1981.96,-304.83 1837.5,-283 1834.59,-282.56 1831.63,-282.1 1828.65,-281.61"/>
<polygon fill="#63b8ff" stroke="#63b8ff" points="2252.34,-334.27 2262.61,-331.68 2252.96,-327.3 2252.34,-334.27"/>
</a>
</g>
</g>
<!-- Node25 -->
<g id="Node000025" class="node">
<title>Node25</title>
<g id="a_Node000025"><a xlink:href="ExternalObjectRequest_8h.html" target="_top" xlink:title="Implements Catena gRPC ExternalObjectRequest.">
<polygon fill="white" stroke="#666666" points="2054,-283 1847,-283 1847,-242 2054,-242 2054,-283"/>
<text text-anchor="start" x="1855" y="-271" font-family="Helvetica,sans-Serif" font-size="10.00">/home/runner/work/Catena</text>
<text text-anchor="start" x="1855" y="-260" font-family="Helvetica,sans-Serif" font-size="10.00">/Catena/sdks/cpp/connections</text>
<text text-anchor="middle" x="1950.5" y="-249" font-family="Helvetica,sans-Serif" font-size="10.00">/gRPC/include/ExternalObjectRequest.h</text>
</a>
</g>
</g>
<!-- Node20&#45;&gt;Node25 -->
<g id="edge37_Node000020_Node000025" class="edge">
<title>Node20&#45;&gt;Node25</title>
<g id="a_edge37_Node000020_Node000025"><a xlink:title=" ">
<path fill="none" stroke="#63b8ff" d="M2252.38,-321.11C2192.67,-309.72 2114.53,-294.8 2052.71,-283.01"/>
<polygon fill="#63b8ff" stroke="#63b8ff" points="2252.07,-324.61 2262.55,-323.05 2253.38,-317.74 2252.07,-324.61"/>
</a>
</g>
</g>
<!-- Node26 -->
<g id="Node000026" class="node">
<title>Node26</title>
<g id="a_Node000026"><a xlink:href="gRPC_2include_2GetParam_8h.html" target="_top" xlink:title="Implements Catena gRPC GetParam.">
<polygon fill="white" stroke="#666666" points="2233,-283 2072,-283 2072,-242 2233,-242 2233,-283"/>
<text text-anchor="start" x="2080" y="-271" font-family="Helvetica,sans-Serif" font-size="10.00">/home/runner/work/Catena</text>
<text text-anchor="start" x="2080" y="-260" font-family="Helvetica,sans-Serif" font-size="10.00">/Catena/sdks/cpp/connections</text>
<text text-anchor="middle" x="2152.5" y="-249" font-family="Helvetica,sans-Serif" font-size="10.00">/gRPC/include/GetParam.h</text>
</a>
</g>
</g>
<!-- Node20&#45;&gt;Node26 -->
<g id="edge38_Node000020_Node000026" class="edge">
<title>Node20&#45;&gt;Node26</title>
<g id="a_edge38_Node000020_Node000026"><a xlink:title=" ">
<path fill="none" stroke="#63b8ff" d="M2284.33,-315.27C2258.02,-304.94 2227.38,-292.9 2202.27,-283.04"/>
<polygon fill="#63b8ff" stroke="#63b8ff" points="2283.23,-318.59 2293.82,-318.99 2285.79,-312.08 2283.23,-318.59"/>
</a>
</g>
</g>
<!-- Node27 -->
<g id="Node000027" class="node">
<title>Node27</title>
<g id="a_Node000027"><a xlink:href="gRPC_2include_2GetPopulatedSlots_8h.html" target="_top" xlink:title="Implements Catena gRPC GetPopulatedSlots.">
<polygon fill="white" stroke="#666666" points="2436,-283 2251,-283 2251,-242 2436,-242 2436,-283"/>
<text text-anchor="start" x="2259" y="-271" font-family="Helvetica,sans-Serif" font-size="10.00">/home/runner/work/Catena</text>
<text text-anchor="start" x="2259" y="-260" font-family="Helvetica,sans-Serif" font-size="10.00">/Catena/sdks/cpp/connections</text>
<text text-anchor="middle" x="2343.5" y="-249" font-family="Helvetica,sans-Serif" font-size="10.00">/gRPC/include/GetPopulatedSlots.h</text>
</a>
</g>
</g>
<!-- Node20&#45;&gt;Node27 -->
<g id="edge39_Node000020_Node000027" class="edge">
<title>Node20&#45;&gt;Node27</title>
<g id="a_edge39_Node000020_Node000027"><a xlink:title=" ">
<path fill="none" stroke="#63b8ff" d="M2343.5,-308.69C2343.5,-300.08 2343.5,-290.9 2343.5,-283.07"/>
<polygon fill="#63b8ff" stroke="#63b8ff" points="2340,-308.79 2343.5,-318.79 2347,-308.79 2340,-308.79"/>
</a>
</g>
</g>
<!-- Node28 -->
<g id="Node000028" class="node">
<title>Node28</title>
<g id="a_Node000028"><a xlink:href="gRPC_2include_2GetValue_8h.html" target="_top" xlink:title="Implements Catena gRPC GetValue.">
<polygon fill="white" stroke="#666666" points="2615,-283 2454,-283 2454,-242 2615,-242 2615,-283"/>
<text text-anchor="start" x="2462" y="-271" font-family="Helvetica,sans-Serif" font-size="10.00">/home/runner/work/Catena</text>
<text text-anchor="start" x="2462" y="-260" font-family="Helvetica,sans-Serif" font-size="10.00">/Catena/sdks/cpp/connections</text>
<text text-anchor="middle" x="2534.5" y="-249" font-family="Helvetica,sans-Serif" font-size="10.00">/gRPC/include/GetValue.h</text>
</a>
</g>
</g>
<!-- Node20&#45;&gt;Node28 -->
<g id="edge40_Node000020_Node000028" class="edge">
<title>Node20&#45;&gt;Node28</title>
<g id="a_edge40_Node000020_Node000028"><a xlink:title=" ">
<path fill="none" stroke="#63b8ff" d="M2402.67,-315.27C2428.98,-304.94 2459.62,-292.9 2484.73,-283.04"/>
<polygon fill="#63b8ff" stroke="#63b8ff" points="2401.21,-312.08 2393.18,-318.99 2403.77,-318.59 2401.21,-312.08"/>
</a>
</g>
</g>
<!-- Node29 -->
<g id="Node000029" class="node">
<title>Node29</title>
<g id="a_Node000029"><a xlink:href="gRPC_2include_2LanguagePackRequest_8h.html" target="_top" xlink:title="Implements Catena gRPC LanguagePackRequest.">
<polygon fill="white" stroke="#666666" points="2838,-283 2633,-283 2633,-242 2838,-242 2838,-283"/>
<text text-anchor="start" x="2641" y="-271" font-family="Helvetica,sans-Serif" font-size="10.00">/home/runner/work/Catena</text>
<text text-anchor="start" x="2641" y="-260" font-family="Helvetica,sans-Serif" font-size="10.00">/Catena/sdks/cpp/connections</text>
<text text-anchor="middle" x="2735.5" y="-249" font-family="Helvetica,sans-Serif" font-size="10.00">/gRPC/include/LanguagePackRequest.h</text>
</a>
</g>
</g>
<!-- Node20&#45;&gt;Node29 -->
<g id="edge41_Node000020_Node000029" class="edge">
<title>Node20&#45;&gt;Node29</title>
<g id="a_edge41_Node000020_Node000029"><a xlink:title=" ">
<path fill="none" stroke="#63b8ff" d="M2434.39,-321.11C2493.95,-309.72 2571.88,-294.8 2633.55,-283.01"/>
<polygon fill="#63b8ff" stroke="#63b8ff" points="2433.41,-317.73 2424.25,-323.05 2434.73,-324.61 2433.41,-317.73"/>
</a>
</g>
</g>
<!-- Node30 -->
<g id="Node000030" class="node">
<title>Node30</title>
<g id="a_Node000030"><a xlink:href="gRPC_2include_2ListLanguages_8h.html" target="_top" xlink:title="Implements Catena gRPC ListLanguages.">
<polygon fill="white" stroke="#666666" points="3021,-283 2856,-283 2856,-242 3021,-242 3021,-283"/>
<text text-anchor="start" x="2864" y="-271" font-family="Helvetica,sans-Serif" font-size="10.00">/home/runner/work/Catena</text>
<text text-anchor="start" x="2864" y="-260" font-family="Helvetica,sans-Serif" font-size="10.00">/Catena/sdks/cpp/connections</text>
<text text-anchor="middle" x="2938.5" y="-249" font-family="Helvetica,sans-Serif" font-size="10.00">/gRPC/include/ListLanguages.h</text>
</a>
</g>
</g>
<!-- Node20&#45;&gt;Node30 -->
<g id="edge42_Node000020_Node000030" class="edge">
<title>Node20&#45;&gt;Node30</title>
<g id="a_edge42_Node000020_Node000030"><a xlink:title=" ">
<path fill="none" stroke="#63b8ff" d="M2434.59,-331.18C2535.63,-322.43 2703.3,-306.02 2846.5,-283 2849.56,-282.51 2852.68,-281.98 2855.82,-281.43"/>
<polygon fill="#63b8ff" stroke="#63b8ff" points="2434.08,-327.71 2424.41,-332.06 2434.68,-334.69 2434.08,-327.71"/>
</a>
</g>
</g>
<!-- Node31 -->
<g id="Node000031" class="node">
<title>Node31</title>
<g id="a_Node000031"><a xlink:href="gRPC_2include_2MultiSetValue_8h.html" target="_top" xlink:title="Generic CallData class for the SetValue and MultiSetValue RPCs.">
<polygon fill="white" stroke="#666666" points="3202,-283 3039,-283 3039,-242 3202,-242 3202,-283"/>
<text text-anchor="start" x="3047" y="-271" font-family="Helvetica,sans-Serif" font-size="10.00">/home/runner/work/Catena</text>
<text text-anchor="start" x="3047" y="-260" font-family="Helvetica,sans-Serif" font-size="10.00">/Catena/sdks/cpp/connections</text>
<text text-anchor="middle" x="3120.5" y="-249" font-family="Helvetica,sans-Serif" font-size="10.00">/gRPC/include/MultiSetValue.h</text>
</a>
</g>
</g>
<!-- Node20&#45;&gt;Node31 -->
<g id="edge43_Node000020_Node000031" class="edge">
<title>Node20&#45;&gt;Node31</title>
<g id="a_edge43_Node000020_Node000031"><a xlink:title=" ">
<path fill="none" stroke="#63b8ff" d="M2434.2,-334.93C2565.89,-328.9 2817.5,-314.15 3029.5,-283 3032.54,-282.55 3035.62,-282.07 3038.74,-281.55"/>
<polygon fill="#63b8ff" stroke="#63b8ff" points="2433.98,-331.44 2424.15,-335.38 2434.3,-338.43 2433.98,-331.44"/>
</a>
</g>
</g>
<!-- Node32 -->
<g id="Node000032" class="node">
<title>Node32</title>
<g id="a_Node000032"><a xlink:href="gRPC_2include_2SetValue_8h.html" target="_top" xlink:title="Implements Catena gRPC SetValue.">
<polygon fill="white" stroke="#666666" points="3256,-206 3095,-206 3095,-165 3256,-165 3256,-206"/>
<text text-anchor="start" x="3103" y="-194" font-family="Helvetica,sans-Serif" font-size="10.00">/home/runner/work/Catena</text>
<text text-anchor="start" x="3103" y="-183" font-family="Helvetica,sans-Serif" font-size="10.00">/Catena/sdks/cpp/connections</text>
<text text-anchor="middle" x="3175.5" y="-172" font-family="Helvetica,sans-Serif" font-size="10.00">/gRPC/include/SetValue.h</text>
</a>
</g>
</g>
<!-- Node20&#45;&gt;Node32 -->
<g id="edge45_Node000020_Node000032" class="edge">
<title>Node20&#45;&gt;Node32</title>
<g id="a_edge45_Node000020_Node000032"><a xlink:title=" ">
<path fill="none" stroke="#63b8ff" d="M2434.27,-336C2651.48,-329.59 3185.2,-311.03 3211.5,-283 3231.69,-261.48 3210.9,-227.61 3193.56,-206.25"/>
<polygon fill="#63b8ff" stroke="#63b8ff" points="2434.06,-332.51 2424.17,-336.3 2434.27,-339.5 2434.06,-332.51"/>
</a>
</g>
</g>
<!-- Node33 -->
<g id="Node000033" class="node">
<title>Node33</title>
<g id="a_Node000033"><a xlink:href="UpdateSubscriptions_8h.html" target="_top" xlink:title="Implements Catena gRPC UpdateSubscriptions.">
<polygon fill="white" stroke="#666666" points="3454.5,-283 3258.5,-283 3258.5,-242 3454.5,-242 3454.5,-283"/>
<text text-anchor="start" x="3266.5" y="-271" font-family="Helvetica,sans-Serif" font-size="10.00">/home/runner/work/Catena</text>
<text text-anchor="start" x="3266.5" y="-260" font-family="Helvetica,sans-Serif" font-size="10.00">/Catena/sdks/cpp/connections</text>
<text text-anchor="middle" x="3356.5" y="-249" font-family="Helvetica,sans-Serif" font-size="10.00">/gRPC/include/UpdateSubscriptions.h</text>
</a>
</g>
</g>
<!-- Node20&#45;&gt;Node33 -->
<g id="edge46_Node000020_Node000033" class="edge">
<title>Node20&#45;&gt;Node33</title>
<g id="a_edge46_Node000020_Node000033"><a xlink:title=" ">
<path fill="none" stroke="#63b8ff" d="M2434.69,-336.22C2597.69,-331.41 2949.6,-317.65 3244.5,-283 3249.01,-282.47 3253.61,-281.88 3258.25,-281.24"/>
<polygon fill="#63b8ff" stroke="#63b8ff" points="2434.12,-332.74 2424.23,-336.53 2434.32,-339.73 2434.12,-332.74"/>
</a>
</g>
</g>
<!-- Node31&#45;&gt;Node32 -->
<g id="edge44_Node000031_Node000032" class="edge">
<title>Node31&#45;&gt;Node32</title>
<g id="a_edge44_Node000031_Node000032"><a xlink:title=" ">
<path fill="none" stroke="#63b8ff" d="M3140.91,-233.67C3147.63,-224.5 3154.97,-214.5 3161.15,-206.07"/>
<polygon fill="#63b8ff" stroke="#63b8ff" points="3138.04,-231.66 3134.95,-241.79 3143.69,-235.8 3138.04,-231.66"/>
</a>
</g>
</g>
</g>
</svg>

<g id="navigator" transform="translate(0 0)" fill="#404254">
  <rect fill="#f2f5e9" fill-opacity="0.5" stroke="#606060" stroke-width=".5" x="0" y="0" width="60" height="60"/>
  <use id="zoomplus" xlink:href="#zoomPlus" x="17" y="9" onmousedown="handleZoom(evt,'in')"/>
  <use id="zoomminus" xlink:href="#zoomMin" x="42" y="9" onmousedown="handleZoom(evt,'out')"/>
  <use id="reset" xlink:href="#resetDef" x="30" y="36" onmousedown="handleReset()"/>
   <use id="arrowup" xlink:href="#arrowUp" x="0" y="0" onmousedown="handlePan(0,-1)"/>
  <use id="arrowright" xlink:href="#arrowRight" x="0" y="0" onmousedown="handlePan(1,0)"/>
  <use id="arrowdown" xlink:href="#arrowDown" x="0" y="0" onmousedown="handlePan(0,1)"/>
  <use id="arrowleft" xlink:href="#arrowLeft" x="0" y="0" onmousedown="handlePan(-1,0)"/>
</g>
<svg viewBox="0 0 15 15" width="100%" height="30px" preserveAspectRatio="xMaxYMin meet">
 <g id="arrow_out" transform="scale(0.3 0.3)">
  <a xlink:href="IParamVisitor_8h__dep__incl_org.svg" target="_base">
   <rect id="button" ry="5" rx="5" y="6" x="6" height="38" width="38"
        fill="#f2f5e9" fill-opacity="0.5" stroke="#606060" stroke-width="1.0"/>
   <path id="arrow"
     d="M 11.500037,31.436501 C 11.940474,20.09759 22.043105,11.32322 32.158766,21.979434 L 37.068811,17.246167 C 37.068811,17.246167 37.088388,32 37.088388,32 L 22.160133,31.978069 C 22.160133,31.978069 26.997745,27.140456 26.997745,27.140456 C 18.528582,18.264221 13.291696,25.230495 11.500037,31.436501 z"
     style="fill:#404040;"/>
  </a>
 </g>
</svg>

<style type='text/css'>
<![CDATA[
[data-mouse-over-selected='false'] { opacity: 0.7; }
[data-mouse-over-selected='true']  { opacity: 1.0; }
]]>
</style>
<script type="application/ecmascript"><![CDATA[
document.addEventListener('DOMContentLoaded', (event) => {
  highlightEdges();
  highlightAdjacentNodes();
});
]]></script>
</svg>
