<?xml version="1.0" encoding="UTF-8" standalone="no"?>
<!DOCTYPE svg PUBLIC "-//W3C//DTD SVG 1.1//EN"
 "http://www.w3.org/Graphics/SVG/1.1/DTD/svg11.dtd">
<!-- Generated by graphviz version 2.43.0 (0)
 -->
<!-- Title: /home/runner/work/Catena/Catena/sdks/cpp/common/include/IPolyglotText.h Pages: 1 -->
<svg width="416pt" height="440pt"
 viewBox="0.00 0.00 416.44 440.00" xmlns="http://www.w3.org/2000/svg" xmlns:xlink="http://www.w3.org/1999/xlink">
<g id="graph0" class="graph" transform="scale(1 1) rotate(0) translate(4 436)">
<title>/home/runner/work/Catena/Catena/sdks/cpp/common/include/IPolyglotText.h</title>
<polygon fill="white" stroke="transparent" points="-4,4 -4,-436 412.44,-436 412.44,4 -4,4"/>
<!-- Node1 -->
<g id="node1" class="node">
<title>Node1</title>
<g id="a_node1"><a xlink:title="Catena&#39;s multi&#45;language text interface.">
<polygon fill="#bfbfbf" stroke="black" points="230.42,-390.5 230.42,-431.5 376.42,-431.5 376.42,-390.5 230.42,-390.5"/>
<text text-anchor="start" x="238.42" y="-419.5" font-family="Helvetica,sans-Serif" font-size="10.00">/home/runner/work/Catena</text>
<text text-anchor="start" x="238.42" y="-408.5" font-family="Helvetica,sans-Serif" font-size="10.00">/Catena/sdks/cpp/common</text>
<text text-anchor="middle" x="303.42" y="-397.5" font-family="Helvetica,sans-Serif" font-size="10.00">/include/IPolyglotText.h</text>
</a>
</g>
</g>
<!-- Node2 -->
<g id="node2" class="node">
<title>Node2</title>
<g id="a_node2"><a xlink:href="PolyglotText_8h.html" target="_top" xlink:title="Polyglot Text serialization and deserialization to protobuf.">
<polygon fill="white" stroke="black" points="230.42,-312.5 230.42,-353.5 376.42,-353.5 376.42,-312.5 230.42,-312.5"/>
<text text-anchor="start" x="238.42" y="-341.5" font-family="Helvetica,sans-Serif" font-size="10.00">/home/runner/work/Catena</text>
<text text-anchor="start" x="238.42" y="-330.5" font-family="Helvetica,sans-Serif" font-size="10.00">/Catena/sdks/cpp/common</text>
<text text-anchor="middle" x="303.42" y="-319.5" font-family="Helvetica,sans-Serif" font-size="10.00">/include/PolyglotText.h</text>
</a>
</g>
</g>
<!-- Node1&#45;&gt;Node2 -->
<g id="edge1" class="edge">
<title>Node1&#45;&gt;Node2</title>
<path fill="none" stroke="midnightblue" d="M303.42,-380.3C303.42,-371.3 303.42,-361.65 303.42,-353.51"/>
<polygon fill="midnightblue" stroke="midnightblue" points="299.92,-380.43 303.42,-390.43 306.92,-380.43 299.92,-380.43"/>
</g>
<!-- Node3 -->
<g id="node3" class="node">
<title>Node3</title>
<g id="a_node3"><a xlink:href="NamedChoiceConstraint_8h.html" target="_top" xlink:title="A constraint that checks if a value is within some named choices.">
<polygon fill="white" stroke="black" points="26.92,-234.5 26.92,-275.5 211.92,-275.5 211.92,-234.5 26.92,-234.5"/>
<text text-anchor="start" x="34.92" y="-263.5" font-family="Helvetica,sans-Serif" font-size="10.00">/home/runner/work/Catena</text>
<text text-anchor="start" x="34.92" y="-252.5" font-family="Helvetica,sans-Serif" font-size="10.00">/Catena/sdks/cpp/common</text>
<text text-anchor="middle" x="119.42" y="-241.5" font-family="Helvetica,sans-Serif" font-size="10.00">/include/NamedChoiceConstraint.h</text>
</a>
</g>
</g>
<!-- Node2&#45;&gt;Node3 -->
<g id="edge2" class="edge">
<title>Node2&#45;&gt;Node3</title>
<path fill="none" stroke="midnightblue" d="M246.79,-308.61C221.1,-298 191.09,-285.6 166.64,-275.51"/>
<polygon fill="midnightblue" stroke="midnightblue" points="245.46,-311.85 256.03,-312.43 248.13,-305.38 245.46,-311.85"/>
</g>
<!-- Node4 -->
<g id="node4" class="node">
<title>Node4</title>
<g id="a_node4"><a xlink:href="ParamDescriptor_8h_source.html" target="_top" xlink:title=" ">
<polygon fill="white" stroke="black" points="229.92,-234.5 229.92,-275.5 376.92,-275.5 376.92,-234.5 229.92,-234.5"/>
<text text-anchor="start" x="237.92" y="-263.5" font-family="Helvetica,sans-Serif" font-size="10.00">/home/runner/work/Catena</text>
<text text-anchor="start" x="237.92" y="-252.5" font-family="Helvetica,sans-Serif" font-size="10.00">/Catena/sdks/cpp/common</text>
<text text-anchor="middle" x="303.42" y="-241.5" font-family="Helvetica,sans-Serif" font-size="10.00">/include/ParamDescriptor.h</text>
</a>
</g>
</g>
<!-- Node2&#45;&gt;Node4 -->
<g id="edge3" class="edge">
<title>Node2&#45;&gt;Node4</title>
<path fill="none" stroke="midnightblue" d="M303.42,-302.3C303.42,-293.3 303.42,-283.65 303.42,-275.51"/>
<polygon fill="midnightblue" stroke="midnightblue" points="299.92,-302.43 303.42,-312.43 306.92,-302.43 299.92,-302.43"/>
</g>
<!-- Node6 -->
<g id="node6" class="node">
<title>Node6</title>
<g id="a_node6"><a xlink:href="ParamWithValue_8h.html" target="_top" xlink:title="Interface for acessing parameter values.">
<polygon fill="white" stroke="black" points="154.92,-0.5 154.92,-41.5 301.92,-41.5 301.92,-0.5 154.92,-0.5"/>
<text text-anchor="start" x="162.92" y="-29.5" font-family="Helvetica,sans-Serif" font-size="10.00">/home/runner/work/Catena</text>
<text text-anchor="start" x="162.92" y="-18.5" font-family="Helvetica,sans-Serif" font-size="10.00">/Catena/sdks/cpp/common</text>
<text text-anchor="middle" x="228.42" y="-7.5" font-family="Helvetica,sans-Serif" font-size="10.00">/include/ParamWithValue.h</text>
</a>
</g>
</g>
<!-- Node2&#45;&gt;Node6 -->
<g id="edge10" class="edge">
<title>Node2&#45;&gt;Node6</title>
<path fill="none" stroke="midnightblue" d="M357.37,-306.78C369,-298.67 379.79,-288.47 386.42,-276 409.95,-231.75 427.86,-156.77 367.42,-78 351.42,-57.15 326.41,-44.04 301.99,-35.8"/>
<polygon fill="midnightblue" stroke="midnightblue" points="355.29,-303.95 348.79,-312.32 359.09,-309.83 355.29,-303.95"/>
</g>
<!-- Node5 -->
<g id="node5" class="node">
<title>Node5</title>
<g id="a_node5"><a xlink:href="AuthzInfo_8h.html" target="_top" xlink:title="Class for handling authorization information.">
<polygon fill="white" stroke="black" points="102.42,-156.5 102.42,-197.5 248.42,-197.5 248.42,-156.5 102.42,-156.5"/>
<text text-anchor="start" x="110.42" y="-185.5" font-family="Helvetica,sans-Serif" font-size="10.00">/home/runner/work/Catena</text>
<text text-anchor="start" x="110.42" y="-174.5" font-family="Helvetica,sans-Serif" font-size="10.00">/Catena/sdks/cpp/common</text>
<text text-anchor="middle" x="175.42" y="-163.5" font-family="Helvetica,sans-Serif" font-size="10.00">/include/AuthzInfo.h</text>
</a>
</g>
</g>
<!-- Node4&#45;&gt;Node5 -->
<g id="edge4" class="edge">
<title>Node4&#45;&gt;Node5</title>
<path fill="none" stroke="midnightblue" d="M261.66,-229.2C244.33,-218.92 224.53,-207.16 208.27,-197.51"/>
<polygon fill="midnightblue" stroke="midnightblue" points="260.07,-232.33 270.46,-234.43 263.64,-226.31 260.07,-232.33"/>
</g>
<!-- Node4&#45;&gt;Node6 -->
<g id="edge9" class="edge">
<title>Node4&#45;&gt;Node6</title>
<path fill="none" stroke="midnightblue" d="M323.29,-225.79C346.43,-189.13 377.94,-124.35 348.42,-78 337.67,-61.13 320.37,-49.26 302.21,-40.94"/>
<polygon fill="midnightblue" stroke="midnightblue" points="320.16,-224.19 317.63,-234.48 326.02,-228.01 320.16,-224.19"/>
</g>
<!-- Node5&#45;&gt;Node6 -->
<g id="edge5" class="edge">
<title>Node5&#45;&gt;Node6</title>
<path fill="none" stroke="midnightblue" d="M92.09,-168.43C60.61,-161.04 27.76,-146.88 8.42,-120 -2.48,-104.85 -3.04,-92.74 8.42,-78 26.44,-54.82 98.01,-39.65 154.69,-31.02"/>
<polygon fill="midnightblue" stroke="midnightblue" points="91.73,-171.93 102.24,-170.6 93.2,-165.09 91.73,-171.93"/>
</g>
<!-- Node7 -->
<g id="node7" class="node">
<title>Node7</title>
<g id="a_node7"><a xlink:href="common_2include_2StructInfo_8h.html" target="_top" xlink:title="Structured data serialization and deserialization to protobuf.">
<polygon fill="white" stroke="black" points="17.42,-78.5 17.42,-119.5 163.42,-119.5 163.42,-78.5 17.42,-78.5"/>
<text text-anchor="start" x="25.42" y="-107.5" font-family="Helvetica,sans-Serif" font-size="10.00">/home/runner/work/Catena</text>
<text text-anchor="start" x="25.42" y="-96.5" font-family="Helvetica,sans-Serif" font-size="10.00">/Catena/sdks/cpp/common</text>
<text text-anchor="middle" x="90.42" y="-85.5" font-family="Helvetica,sans-Serif" font-size="10.00">/include/StructInfo.h</text>
</a>
</g>
</g>
<!-- Node5&#45;&gt;Node7 -->
<g id="edge6" class="edge">
<title>Node5&#45;&gt;Node7</title>
<path fill="none" stroke="midnightblue" d="M145.77,-149.49C134.74,-139.63 122.44,-128.63 112.23,-119.51"/>
<polygon fill="midnightblue" stroke="midnightblue" points="143.74,-152.37 153.53,-156.43 148.41,-147.15 143.74,-152.37"/>
</g>
<!-- Node8 -->
<g id="node8" class="node">
<title>Node8</title>
<g id="a_node8"><a xlink:href="lite_2include_2StructInfo_8h.html" target="_top" xlink:title="Structured data serialization and deserialization to protobuf.">
<polygon fill="white" stroke="black" points="181.92,-78.5 181.92,-119.5 338.92,-119.5 338.92,-78.5 181.92,-78.5"/>
<text text-anchor="start" x="189.92" y="-107.5" font-family="Helvetica,sans-Serif" font-size="10.00">/home/runner/work/Catena</text>
<text text-anchor="start" x="189.92" y="-96.5" font-family="Helvetica,sans-Serif" font-size="10.00">/Catena/sdks/cpp/lite/include</text>
<text text-anchor="middle" x="260.42" y="-85.5" font-family="Helvetica,sans-Serif" font-size="10.00">/StructInfo.h</text>
</a>
</g>
</g>
<!-- Node5&#45;&gt;Node8 -->
<g id="edge8" class="edge">
<title>Node5&#45;&gt;Node8</title>
<path fill="none" stroke="midnightblue" d="M205.07,-149.49C216.1,-139.63 228.4,-128.63 238.6,-119.51"/>
<polygon fill="midnightblue" stroke="midnightblue" points="202.43,-147.15 197.31,-156.43 207.1,-152.37 202.43,-147.15"/>
</g>
<!-- Node7&#45;&gt;Node6 -->
<g id="edge7" class="edge">
<title>Node7&#45;&gt;Node6</title>
<path fill="none" stroke="midnightblue" d="M134.93,-73.49C153.73,-63.13 175.31,-51.25 193,-41.51"/>
<polygon fill="midnightblue" stroke="midnightblue" points="133.03,-70.54 125.96,-78.43 136.41,-76.67 133.03,-70.54"/>
</g>
</g>
</svg>
