<?xml version="1.0" encoding="UTF-8" standalone="no"?>
<!DOCTYPE svg PUBLIC "-//W3C//DTD SVG 1.1//EN"
 "http://www.w3.org/Graphics/SVG/1.1/DTD/svg11.dtd">
<!-- Generated by graphviz version 2.43.0 (0)
 -->
<!-- Title: /home/runner/work/Catena/Catena/sdks/cpp/connections/REST/include/interface/ISocketReader.h Pages: 1 -->
<svg width="1759pt" height="599pt"
 viewBox="0.00 0.00 1759.00 599.00" xmlns="http://www.w3.org/2000/svg" xmlns:xlink="http://www.w3.org/1999/xlink">
<g id="graph0" class="graph" transform="scale(1 1) rotate(0) translate(4 595)">
<title>/home/runner/work/Catena/Catena/sdks/cpp/connections/REST/include/interface/ISocketReader.h</title>
<!-- Node1 -->
<g id="Node000001" class="node">
<title>Node1</title>
<g id="a_Node000001"><a xlink:title="Interface for the SocketReader class.">
<polygon fill="#999999" stroke="#666666" points="515,-591 305,-591 305,-550 515,-550 515,-591"/>
<text text-anchor="start" x="313" y="-579" font-family="Helvetica,sans-Serif" font-size="10.00">/home/runner/work/Catena</text>
<text text-anchor="start" x="313" y="-568" font-family="Helvetica,sans-Serif" font-size="10.00">/Catena/sdks/cpp/connections</text>
<text text-anchor="middle" x="410" y="-557" font-family="Helvetica,sans-Serif" font-size="10.00">/REST/include/interface/ISocketReader.h</text>
</a>
</g>
</g>
<!-- Node2 -->
<g id="Node000002" class="node">
<title>Node2</title>
<g id="a_Node000002"><a xlink:title=" ">
<polygon fill="#e0e0e0" stroke="#999999" points="88,-514 0,-514 0,-495 88,-495 88,-514"/>
<text text-anchor="middle" x="44" y="-502" font-family="Helvetica,sans-Serif" font-size="10.00">boost/asio.hpp</text>
</a>
</g>
</g>
<!-- Node1&#45;&gt;Node2 -->
<g id="edge1_Node000001_Node000002" class="edge">
<title>Node1&#45;&gt;Node2</title>
<g id="a_edge1_Node000001_Node000002"><a xlink:title=" ">
<path fill="none" stroke="#63b8ff" d="M304.63,-551.07C237.18,-539.28 152.45,-524.46 98.25,-514.99"/>
<polygon fill="#63b8ff" stroke="#63b8ff" points="98.62,-511.5 88.17,-513.22 97.42,-518.39 98.62,-511.5"/>
</a>
</g>
</g>
<!-- Node3 -->
<g id="Node000003" class="node">
<title>Node3</title>
<g id="a_Node000003"><a xlink:title=" ">
<polygon fill="#e0e0e0" stroke="#999999" points="210,-514 106,-514 106,-495 210,-495 210,-514"/>
<text text-anchor="middle" x="158" y="-502" font-family="Helvetica,sans-Serif" font-size="10.00">boost/asio/ssl.hpp</text>
</a>
</g>
</g>
<!-- Node1&#45;&gt;Node3 -->
<g id="edge2_Node000001_Node000003" class="edge">
<title>Node1&#45;&gt;Node3</title>
<g id="a_edge2_Node000001_Node000003"><a xlink:title=" ">
<path fill="none" stroke="#63b8ff" d="M333.02,-549.95C289.76,-538.96 237.36,-525.65 201.24,-516.48"/>
<polygon fill="#63b8ff" stroke="#63b8ff" points="202.05,-513.08 191.5,-514.01 200.33,-519.86 202.05,-513.08"/>
</a>
</g>
</g>
<!-- Node4 -->
<g id="Node000004" class="node">
<title>Node4</title>
<g id="a_Node000004"><a xlink:href="SubscriptionManager_8h.html" target="_top" xlink:title="Centralized manager for parameter subscriptions in Catena.">
<polygon fill="white" stroke="#666666" points="849,-514 721,-514 721,-495 849,-495 849,-514"/>
<text text-anchor="middle" x="785" y="-502" font-family="Helvetica,sans-Serif" font-size="10.00">SubscriptionManager.h</text>
</a>
</g>
</g>
<!-- Node1&#45;&gt;Node4 -->
<g id="edge3_Node000001_Node000004" class="edge">
<title>Node1&#45;&gt;Node4</title>
<g id="a_edge3_Node000001_Node000004"><a xlink:title=" ">
<path fill="none" stroke="#63b8ff" d="M515.46,-551.5C583.16,-539.95 668.65,-525.36 724.98,-515.74"/>
<polygon fill="#63b8ff" stroke="#63b8ff" points="725.88,-519.14 735.15,-514.01 724.7,-512.24 725.88,-519.14"/>
</a>
</g>
</g>
<!-- Node11 -->
<g id="Node000011" class="node">
<title>Node11</title>
<g id="a_Node000011"><a xlink:title=" ">
<polygon fill="#e0e0e0" stroke="#999999" points="596.5,-19 503.5,-19 503.5,0 596.5,0 596.5,-19"/>
<text text-anchor="middle" x="550" y="-7" font-family="Helvetica,sans-Serif" font-size="10.00">unordered_map</text>
</a>
</g>
</g>
<!-- Node1&#45;&gt;Node11 -->
<g id="edge76_Node000001_Node000011" class="edge">
<title>Node1&#45;&gt;Node11</title>
<g id="a_edge76_Node000001_Node000011"><a xlink:title=" ">
<path fill="none" stroke="#63b8ff" d="M336.56,-549.84C289.81,-532.38 238,-501.52 238,-450.5 238,-450.5 238,-450.5 238,-173.5 238,-144.04 236.55,-131.21 257,-110 320,-44.65 427.47,-22.22 493.27,-14.52"/>
<polygon fill="#63b8ff" stroke="#63b8ff" points="493.9,-17.97 503.46,-13.41 493.14,-11.02 493.9,-17.97"/>
</a>
</g>
</g>
<!-- Node12 -->
<g id="Node000012" class="node">
<title>Node12</title>
<g id="a_Node000012"><a xlink:title=" ">
<polygon fill="#e0e0e0" stroke="#999999" points="1241,-19 1197,-19 1197,0 1241,0 1241,-19"/>
<text text-anchor="middle" x="1219" y="-7" font-family="Helvetica,sans-Serif" font-size="10.00">string</text>
</a>
</g>
</g>
<!-- Node1&#45;&gt;Node12 -->
<g id="edge75_Node000001_Node000012" class="edge">
<title>Node1&#45;&gt;Node12</title>
<g id="a_edge75_Node000001_Node000012"><a xlink:title=" ">
<path fill="none" stroke="#63b8ff" d="M515.23,-565.65C831.35,-553.4 1751,-512.44 1751,-450.5 1751,-450.5 1751,-450.5 1751,-118.5 1751,-16.02 1367.04,-9.72 1251.5,-10.14"/>
<polygon fill="#63b8ff" stroke="#63b8ff" points="1251.16,-6.64 1241.18,-10.2 1251.2,-13.64 1251.16,-6.64"/>
</a>
</g>
</g>
<!-- Node42 -->
<g id="Node000042" class="node">
<title>Node42</title>
<g id="a_Node000042"><a xlink:href="ISubscriptionManager_8h.html" target="_top" xlink:title="Interface for managing parameter subscriptions in Catena.">
<polygon fill="white" stroke="#666666" points="780.5,-404 649.5,-404 649.5,-385 780.5,-385 780.5,-404"/>
<text text-anchor="middle" x="715" y="-392" font-family="Helvetica,sans-Serif" font-size="10.00">ISubscriptionManager.h</text>
</a>
</g>
</g>
<!-- Node1&#45;&gt;Node42 -->
<g id="edge74_Node000001_Node000042" class="edge">
<title>Node1&#45;&gt;Node42</title>
<g id="a_edge74_Node000001_Node000042"><a xlink:title=" ">
<path fill="none" stroke="#63b8ff" d="M444.39,-549.88C506.86,-514.24 637.43,-439.76 691.14,-409.11"/>
<polygon fill="#63b8ff" stroke="#63b8ff" points="693,-412.08 699.95,-404.09 689.53,-406 693,-412.08"/>
</a>
</g>
</g>
<!-- Node5 -->
<g id="Node000005" class="node">
<title>Node5</title>
<g id="a_Node000005"><a xlink:href="IDevice_8h.html" target="_top" xlink:title="Interface for device.">
<polygon fill="white" stroke="#666666" points="1117,-349 1055,-349 1055,-330 1117,-330 1117,-349"/>
<text text-anchor="middle" x="1086" y="-337" font-family="Helvetica,sans-Serif" font-size="10.00">IDevice.h</text>
</a>
</g>
</g>
<!-- Node4&#45;&gt;Node5 -->
<g id="edge4_Node000004_Node000005" class="edge">
<title>Node4&#45;&gt;Node5</title>
<g id="a_edge4_Node000004_Node000005"><a xlink:title=" ">
<path fill="none" stroke="#63b8ff" d="M800.76,-494.97C850.02,-468.29 1001.36,-386.34 1061.24,-353.91"/>
<polygon fill="#63b8ff" stroke="#63b8ff" points="1062.91,-356.99 1070.03,-349.15 1059.57,-350.83 1062.91,-356.99"/>
</a>
</g>
</g>
<!-- Node6 -->
<g id="Node000006" class="node">
<title>Node6</title>
<g id="a_Node000006"><a xlink:href="Authorization_8h.html" target="_top" xlink:title="Class for handling authorization information.">
<polygon fill="white" stroke="#666666" points="806.5,-294 715.5,-294 715.5,-275 806.5,-275 806.5,-294"/>
<text text-anchor="middle" x="761" y="-282" font-family="Helvetica,sans-Serif" font-size="10.00">Authorization.h</text>
</a>
</g>
</g>
<!-- Node4&#45;&gt;Node6 -->
<g id="edge71_Node000004_Node000006" class="edge">
<title>Node4&#45;&gt;Node6</title>
<g id="a_edge71_Node000004_Node000006"><a xlink:title=" ">
<path fill="none" stroke="#63b8ff" d="M786.3,-494.82C789.02,-475.17 794.63,-425.78 789,-385 784.98,-355.9 774.66,-323.34 767.73,-303.63"/>
<polygon fill="#63b8ff" stroke="#63b8ff" points="770.98,-302.33 764.29,-294.11 764.4,-304.71 770.98,-302.33"/>
</a>
</g>
</g>
<!-- Node4&#45;&gt;Node12 -->
<g id="edge73_Node000004_Node000012" class="edge">
<title>Node4&#45;&gt;Node12</title>
<g id="a_edge73_Node000004_Node000012"><a xlink:title=" ">
<path fill="none" stroke="#63b8ff" d="M849.15,-502.78C1059.21,-499.58 1713,-482.63 1713,-395.5 1713,-395.5 1713,-395.5 1713,-118.5 1713,-23.66 1361.13,-11.98 1251.33,-10.64"/>
<polygon fill="#63b8ff" stroke="#63b8ff" points="1251.22,-7.14 1241.19,-10.54 1251.15,-14.14 1251.22,-7.14"/>
</a>
</g>
</g>
<!-- Node15 -->
<g id="Node000015" class="node">
<title>Node15</title>
<g id="a_Node000015"><a xlink:href="IParam_8h.html" target="_top" xlink:title="Interface for parameters.">
<polygon fill="white" stroke="#666666" points="902.5,-239 843.5,-239 843.5,-220 902.5,-220 902.5,-239"/>
<text text-anchor="middle" x="873" y="-227" font-family="Helvetica,sans-Serif" font-size="10.00">IParam.h</text>
</a>
</g>
</g>
<!-- Node4&#45;&gt;Node15 -->
<g id="edge57_Node000004_Node000015" class="edge">
<title>Node4&#45;&gt;Node15</title>
<g id="a_edge57_Node000004_Node000015"><a xlink:title=" ">
<path fill="none" stroke="#63b8ff" d="M756.27,-494.99C705.37,-478.33 607.61,-438.36 640,-385 685.49,-310.06 745.48,-347.41 815,-294 832.68,-280.42 849.46,-261.08 860.38,-247.32"/>
<polygon fill="#63b8ff" stroke="#63b8ff" points="863.32,-249.25 866.66,-239.2 857.78,-244.97 863.32,-249.25"/>
</a>
</g>
</g>
<!-- Node35 -->
<g id="Node000035" class="node">
<title>Node35</title>
<g id="a_Node000035"><a xlink:title=" ">
<polygon fill="#e0e0e0" stroke="#999999" points="573,-239 541,-239 541,-220 573,-220 573,-239"/>
<text text-anchor="middle" x="557" y="-227" font-family="Helvetica,sans-Serif" font-size="10.00">set</text>
</a>
</g>
</g>
<!-- Node4&#45;&gt;Node35 -->
<g id="edge72_Node000004_Node000035" class="edge">
<title>Node4&#45;&gt;Node35</title>
<g id="a_edge72_Node000004_Node000035"><a xlink:title=" ">
<path fill="none" stroke="#63b8ff" d="M721,-501.34C649.9,-495.12 545,-472.83 545,-395.5 545,-395.5 545,-395.5 545,-338.5 545,-307 550.11,-270.64 553.66,-249.16"/>
<polygon fill="#63b8ff" stroke="#63b8ff" points="557.13,-249.59 555.38,-239.14 550.24,-248.4 557.13,-249.59"/>
</a>
</g>
</g>
<!-- Node40 -->
<g id="Node000040" class="node">
<title>Node40</title>
<g id="a_Node000040"><a xlink:href="ParamVisitor_8h.html" target="_top" xlink:title="Implements Catena ParamVisitor.">
<polygon fill="white" stroke="#666666" points="1233.5,-459 1146.5,-459 1146.5,-440 1233.5,-440 1233.5,-459"/>
<text text-anchor="middle" x="1190" y="-447" font-family="Helvetica,sans-Serif" font-size="10.00">ParamVisitor.h</text>
</a>
</g>
</g>
<!-- Node4&#45;&gt;Node40 -->
<g id="edge58_Node000004_Node000040" class="edge">
<title>Node4&#45;&gt;Node40</title>
<g id="a_edge58_Node000004_Node000040"><a xlink:title=" ">
<path fill="none" stroke="#63b8ff" d="M849.17,-495.1C928.53,-484.72 1062.16,-467.23 1136.33,-457.52"/>
<polygon fill="#63b8ff" stroke="#63b8ff" points="1136.93,-460.98 1146.39,-456.21 1136.02,-454.03 1136.93,-460.98"/>
</a>
</g>
</g>
<!-- Node4&#45;&gt;Node42 -->
<g id="edge65_Node000004_Node000042" class="edge">
<title>Node4&#45;&gt;Node42</title>
<g id="a_edge65_Node000004_Node000042"><a xlink:title=" ">
<path fill="none" stroke="#63b8ff" d="M779.27,-494.66C767.68,-476.77 741.25,-436 726.14,-412.69"/>
<polygon fill="#63b8ff" stroke="#63b8ff" points="728.99,-410.65 720.61,-404.16 723.11,-414.45 728.99,-410.65"/>
</a>
</g>
</g>
<!-- Node5&#45;&gt;Node6 -->
<g id="edge5_Node000005_Node000006" class="edge">
<title>Node5&#45;&gt;Node6</title>
<g id="a_edge5_Node000005_Node000006"><a xlink:title=" ">
<path fill="none" stroke="#63b8ff" d="M1054.84,-333.42C999.98,-324.47 885.48,-305.8 816.73,-294.59"/>
<polygon fill="#63b8ff" stroke="#63b8ff" points="816.95,-291.08 806.52,-292.92 815.82,-297.99 816.95,-291.08"/>
</a>
</g>
</g>
<!-- Node5&#45;&gt;Node12 -->
<g id="edge53_Node000005_Node000012" class="edge">
<title>Node5&#45;&gt;Node12</title>
<g id="a_edge53_Node000005_Node000012"><a xlink:title=" ">
<path fill="none" stroke="#63b8ff" d="M1117.01,-338.09C1180.39,-336.52 1321.32,-329.08 1351,-294 1356.45,-287.55 1351.17,-283.44 1351,-275 1350.11,-230.75 1347,-219.76 1347,-175.5 1347,-175.5 1347,-175.5 1347,-118.5 1347,-68.19 1288.52,-36.55 1250.62,-21.32"/>
<polygon fill="#63b8ff" stroke="#63b8ff" points="1251.59,-17.95 1241,-17.63 1249.09,-24.49 1251.59,-17.95"/>
</a>
</g>
</g>
<!-- Node14 -->
<g id="Node000014" class="node">
<title>Node14</title>
<g id="a_Node000014"><a xlink:title=" ">
<polygon fill="#e0e0e0" stroke="#999999" points="1122.5,-129 1003.5,-129 1003.5,-110 1122.5,-110 1122.5,-129"/>
<text text-anchor="middle" x="1063" y="-117" font-family="Helvetica,sans-Serif" font-size="10.00">interface/device.pb.h</text>
</a>
</g>
</g>
<!-- Node5&#45;&gt;Node14 -->
<g id="edge52_Node000005_Node000014" class="edge">
<title>Node5&#45;&gt;Node14</title>
<g id="a_edge52_Node000005_Node000014"><a xlink:title=" ">
<path fill="none" stroke="#63b8ff" d="M1066.73,-329.9C1052.88,-322.55 1035.24,-310.54 1027,-294 1000.76,-241.35 1033.81,-170.55 1052.21,-138.09"/>
<polygon fill="#63b8ff" stroke="#63b8ff" points="1055.32,-139.71 1057.37,-129.31 1049.29,-136.16 1055.32,-139.71"/>
</a>
</g>
</g>
<!-- Node5&#45;&gt;Node15 -->
<g id="edge46_Node000005_Node000015" class="edge">
<title>Node5&#45;&gt;Node15</title>
<g id="a_edge46_Node000005_Node000015"><a xlink:title=" ">
<path fill="none" stroke="#63b8ff" d="M1054.9,-330.59C1028.27,-323.15 989.38,-310.66 958,-294 932.65,-280.54 906.66,-259.94 890.21,-245.87"/>
<polygon fill="#63b8ff" stroke="#63b8ff" points="892.37,-243.11 882.53,-239.19 887.78,-248.39 892.37,-243.11"/>
</a>
</g>
</g>
<!-- Node26 -->
<g id="Node000026" class="node">
<title>Node26</title>
<g id="a_Node000026"><a xlink:href="Path_8h.html" target="_top" xlink:title="Handles Path objects used to uniquely identify and access OIDs.">
<polygon fill="white" stroke="#666666" points="1507.5,-184 1460.5,-184 1460.5,-165 1507.5,-165 1507.5,-184"/>
<text text-anchor="middle" x="1484" y="-172" font-family="Helvetica,sans-Serif" font-size="10.00">Path.h</text>
</a>
</g>
</g>
<!-- Node5&#45;&gt;Node26 -->
<g id="edge45_Node000005_Node000026" class="edge">
<title>Node5&#45;&gt;Node26</title>
<g id="a_edge45_Node000005_Node000026"><a xlink:title=" ">
<path fill="none" stroke="#63b8ff" d="M1117.22,-337.96C1190.91,-336.13 1373.11,-328.18 1422,-294 1439.87,-281.5 1464.9,-223.54 1476.96,-193.56"/>
<polygon fill="#63b8ff" stroke="#63b8ff" points="1480.22,-194.84 1480.65,-184.25 1473.71,-192.26 1480.22,-194.84"/>
</a>
</g>
</g>
<!-- Node28 -->
<g id="Node000028" class="node">
<title>Node28</title>
<g id="a_Node000028"><a xlink:title=" ">
<polygon fill="#e0e0e0" stroke="#999999" points="1422.5,-129 1375.5,-129 1375.5,-110 1422.5,-110 1422.5,-129"/>
<text text-anchor="middle" x="1399" y="-117" font-family="Helvetica,sans-Serif" font-size="10.00">vector</text>
</a>
</g>
</g>
<!-- Node5&#45;&gt;Node28 -->
<g id="edge54_Node000005_Node000028" class="edge">
<title>Node5&#45;&gt;Node28</title>
<g id="a_edge54_Node000005_Node000028"><a xlink:title=" ">
<path fill="none" stroke="#63b8ff" d="M1086.67,-329.7C1088.1,-316.43 1092.52,-291.15 1106,-275 1142.88,-230.8 1301.3,-161.23 1368.59,-133.01"/>
<polygon fill="#63b8ff" stroke="#63b8ff" points="1370.32,-136.08 1378.2,-129 1367.62,-129.62 1370.32,-136.08"/>
</a>
</g>
</g>
<!-- Node31 -->
<g id="Node000031" class="node">
<title>Node31</title>
<g id="a_Node000031"><a xlink:href="Status_8h.html" target="_top" xlink:title="Communicates failure status using gRPC&#39;s codes.">
<polygon fill="white" stroke="#666666" points="1115,-184 1059,-184 1059,-165 1115,-165 1115,-184"/>
<text text-anchor="middle" x="1087" y="-172" font-family="Helvetica,sans-Serif" font-size="10.00">Status.h</text>
</a>
</g>
</g>
<!-- Node5&#45;&gt;Node31 -->
<g id="edge50_Node000005_Node000031" class="edge">
<title>Node5&#45;&gt;Node31</title>
<g id="a_edge50_Node000005_Node000031"><a xlink:title=" ">
<path fill="none" stroke="#63b8ff" d="M1069.97,-329.95C1057.59,-322.35 1041.35,-309.97 1034,-294 1030.47,-286.33 1031.95,-283.19 1034,-275 1041.82,-243.67 1061.58,-211.39 1074.64,-192.4"/>
<polygon fill="#63b8ff" stroke="#63b8ff" points="1077.51,-194.4 1080.43,-184.21 1071.8,-190.36 1077.51,-194.4"/>
</a>
</g>
</g>
<!-- Node36 -->
<g id="Node000036" class="node">
<title>Node36</title>
<g id="a_Node000036"><a xlink:href="ILanguagePack_8h.html" target="_top" xlink:title="Interface for language packs.">
<polygon fill="white" stroke="#666666" points="1268,-74 1170,-74 1170,-55 1268,-55 1268,-74"/>
<text text-anchor="middle" x="1219" y="-62" font-family="Helvetica,sans-Serif" font-size="10.00">ILanguagePack.h</text>
</a>
</g>
</g>
<!-- Node5&#45;&gt;Node36 -->
<g id="edge47_Node000005_Node000036" class="edge">
<title>Node5&#45;&gt;Node36</title>
<g id="a_edge47_Node000005_Node000036"><a xlink:title=" ">
<path fill="none" stroke="#63b8ff" d="M1084.5,-329.63C1082.78,-316.72 1081.31,-292.39 1091,-275 1144.38,-179.17 1240.43,-226.85 1290,-129 1301.08,-107.12 1275.49,-89.28 1252,-78.14"/>
<polygon fill="#63b8ff" stroke="#63b8ff" points="1253.41,-74.94 1242.85,-74.07 1250.56,-81.33 1253.41,-74.94"/>
</a>
</g>
</g>
<!-- Node37 -->
<g id="Node000037" class="node">
<title>Node37</title>
<g id="a_Node000037"><a xlink:title=" ">
<polygon fill="#e0e0e0" stroke="#999999" points="1195.5,-294 1114.5,-294 1114.5,-275 1195.5,-275 1195.5,-294"/>
<text text-anchor="middle" x="1155" y="-282" font-family="Helvetica,sans-Serif" font-size="10.00">vdk/signals.h</text>
</a>
</g>
</g>
<!-- Node5&#45;&gt;Node37 -->
<g id="edge51_Node000005_Node000037" class="edge">
<title>Node5&#45;&gt;Node37</title>
<g id="a_edge51_Node000005_Node000037"><a xlink:title=" ">
<path fill="none" stroke="#63b8ff" d="M1097.09,-329.98C1107.49,-322 1123.26,-309.88 1135.72,-300.31"/>
<polygon fill="#63b8ff" stroke="#63b8ff" points="1137.91,-303.04 1143.71,-294.17 1133.65,-297.49 1137.91,-303.04"/>
</a>
</g>
</g>
<!-- Node38 -->
<g id="Node000038" class="node">
<title>Node38</title>
<g id="a_Node000038"><a xlink:title=" ">
<polygon fill="#e0e0e0" stroke="#999999" points="1276,-294 1214,-294 1214,-275 1276,-275 1276,-294"/>
<text text-anchor="middle" x="1245" y="-282" font-family="Helvetica,sans-Serif" font-size="10.00">coroutine</text>
</a>
</g>
</g>
<!-- Node5&#45;&gt;Node38 -->
<g id="edge55_Node000005_Node000038" class="edge">
<title>Node5&#45;&gt;Node38</title>
<g id="a_edge55_Node000005_Node000038"><a xlink:title=" ">
<path fill="none" stroke="#63b8ff" d="M1111.55,-329.98C1138.12,-321.13 1179.94,-307.19 1209.67,-297.28"/>
<polygon fill="#63b8ff" stroke="#63b8ff" points="1210.87,-300.56 1219.25,-294.08 1208.66,-293.92 1210.87,-300.56"/>
</a>
</g>
</g>
<!-- Node39 -->
<g id="Node000039" class="node">
<title>Node39</title>
<g id="a_Node000039"><a xlink:title=" ">
<polygon fill="#e0e0e0" stroke="#999999" points="1342,-294 1294,-294 1294,-275 1342,-275 1342,-294"/>
<text text-anchor="middle" x="1318" y="-282" font-family="Helvetica,sans-Serif" font-size="10.00">mutex</text>
</a>
</g>
</g>
<!-- Node5&#45;&gt;Node39 -->
<g id="edge56_Node000005_Node000039" class="edge">
<title>Node5&#45;&gt;Node39</title>
<g id="a_edge56_Node000005_Node000039"><a xlink:title=" ">
<path fill="none" stroke="#63b8ff" d="M1117.09,-331.87C1154.4,-323.85 1219.08,-309.71 1283.89,-294.21"/>
<polygon fill="#63b8ff" stroke="#63b8ff" points="1284.97,-297.55 1293.87,-291.81 1283.33,-290.74 1284.97,-297.55"/>
</a>
</g>
</g>
<!-- Node7 -->
<g id="Node000007" class="node">
<title>Node7</title>
<g id="a_Node000007"><a xlink:href="Enums_8h.html" target="_top" xlink:title="tools for using EnumDecorators.">
<polygon fill="white" stroke="#666666" points="904.5,-184 845.5,-184 845.5,-165 904.5,-165 904.5,-184"/>
<text text-anchor="middle" x="875" y="-172" font-family="Helvetica,sans-Serif" font-size="10.00">Enums.h</text>
</a>
</g>
</g>
<!-- Node6&#45;&gt;Node7 -->
<g id="edge6_Node000006_Node000007" class="edge">
<title>Node6&#45;&gt;Node7</title>
<g id="a_edge6_Node000006_Node000007"><a xlink:title=" ">
<path fill="none" stroke="#63b8ff" d="M770.33,-274.66C789.63,-256.38 834.17,-214.18 858.46,-191.17"/>
<polygon fill="#63b8ff" stroke="#63b8ff" points="861.01,-193.58 865.86,-184.16 856.19,-188.5 861.01,-193.58"/>
</a>
</g>
</g>
<!-- Node6&#45;&gt;Node15 -->
<g id="edge15_Node000006_Node000015" class="edge">
<title>Node6&#45;&gt;Node15</title>
<g id="a_edge15_Node000006_Node000015"><a xlink:title=" ">
<path fill="none" stroke="#63b8ff" d="M778.99,-274.98C796.93,-266.5 824.72,-253.35 845.43,-243.54"/>
<polygon fill="#63b8ff" stroke="#63b8ff" points="847.14,-246.61 854.68,-239.17 844.14,-240.28 847.14,-246.61"/>
</a>
</g>
</g>
<!-- Node19 -->
<g id="Node000019" class="node">
<title>Node19</title>
<g id="a_Node000019"><a xlink:href="IParamDescriptor_8h.html" target="_top" xlink:title="Interface class for ParamDescriptor.">
<polygon fill="white" stroke="#666666" points="584.5,-184 475.5,-184 475.5,-165 584.5,-165 584.5,-184"/>
<text text-anchor="middle" x="530" y="-172" font-family="Helvetica,sans-Serif" font-size="10.00">IParamDescriptor.h</text>
</a>
</g>
</g>
<!-- Node6&#45;&gt;Node19 -->
<g id="edge41_Node000006_Node000019" class="edge">
<title>Node6&#45;&gt;Node19</title>
<g id="a_edge41_Node000006_Node000019"><a xlink:title=" ">
<path fill="none" stroke="#63b8ff" d="M740.34,-274.95C719.44,-266.22 686.28,-252.11 658,-239 622.08,-222.34 581.19,-201.77 555.5,-188.64"/>
<polygon fill="#63b8ff" stroke="#63b8ff" points="556.93,-185.45 546.43,-184 553.74,-191.68 556.93,-185.45"/>
</a>
</g>
</g>
<!-- Node21 -->
<g id="Node000021" class="node">
<title>Node21</title>
<g id="a_Node000021"><a xlink:title=" ">
<polygon fill="#e0e0e0" stroke="#999999" points="605.5,-74 540.5,-74 540.5,-55 605.5,-55 605.5,-74"/>
<text text-anchor="middle" x="573" y="-62" font-family="Helvetica,sans-Serif" font-size="10.00">functional</text>
</a>
</g>
</g>
<!-- Node6&#45;&gt;Node21 -->
<g id="edge43_Node000006_Node000021" class="edge">
<title>Node6&#45;&gt;Node21</title>
<g id="a_edge43_Node000006_Node000021"><a xlink:title=" ">
<path fill="none" stroke="#63b8ff" d="M764.04,-274.68C773.03,-246.87 796.39,-159.89 756,-110 738.61,-88.51 664.35,-76 615.94,-69.97"/>
<polygon fill="#63b8ff" stroke="#63b8ff" points="616.08,-66.47 605.73,-68.75 615.24,-73.42 616.08,-66.47"/>
</a>
</g>
</g>
<!-- Node34 -->
<g id="Node000034" class="node">
<title>Node34</title>
<g id="a_Node000034"><a xlink:title=" ">
<polygon fill="#e0e0e0" stroke="#999999" points="747,-239 667,-239 667,-220 747,-220 747,-239"/>
<text text-anchor="middle" x="707" y="-227" font-family="Helvetica,sans-Serif" font-size="10.00">jwt&#45;cpp/jwt.h</text>
</a>
</g>
</g>
<!-- Node6&#45;&gt;Node34 -->
<g id="edge42_Node000006_Node000034" class="edge">
<title>Node6&#45;&gt;Node34</title>
<g id="a_edge42_Node000006_Node000034"><a xlink:title=" ">
<path fill="none" stroke="#63b8ff" d="M752.08,-274.75C744.22,-267.03 732.57,-255.6 723.08,-246.28"/>
<polygon fill="#63b8ff" stroke="#63b8ff" points="725.34,-243.6 715.75,-239.09 720.44,-248.59 725.34,-243.6"/>
</a>
</g>
</g>
<!-- Node6&#45;&gt;Node35 -->
<g id="edge44_Node000006_Node000035" class="edge">
<title>Node6&#45;&gt;Node35</title>
<g id="a_edge44_Node000006_Node000035"><a xlink:title=" ">
<path fill="none" stroke="#63b8ff" d="M728.22,-274.98C687.83,-264.49 620.03,-246.87 583.02,-237.26"/>
<polygon fill="#63b8ff" stroke="#63b8ff" points="583.58,-233.79 573.02,-234.66 581.82,-240.56 583.58,-233.79"/>
</a>
</g>
</g>
<!-- Node8 -->
<g id="Node000008" class="node">
<title>Node8</title>
<g id="a_Node000008"><a xlink:href="EnumDecorator_8h.html" target="_top" xlink:title="Provides an enum with useful extra functionality.">
<polygon fill="white" stroke="#666666" points="947,-129 803,-129 803,-110 947,-110 947,-129"/>
<text text-anchor="middle" x="875" y="-117" font-family="Helvetica,sans-Serif" font-size="10.00">patterns/EnumDecorator.h</text>
</a>
</g>
</g>
<!-- Node7&#45;&gt;Node8 -->
<g id="edge7_Node000007_Node000008" class="edge">
<title>Node7&#45;&gt;Node8</title>
<g id="a_edge7_Node000007_Node000008"><a xlink:title=" ">
<path fill="none" stroke="#63b8ff" d="M875,-164.75C875,-157.8 875,-147.85 875,-139.13"/>
<polygon fill="#63b8ff" stroke="#63b8ff" points="878.5,-139.09 875,-129.09 871.5,-139.09 878.5,-139.09"/>
</a>
</g>
</g>
<!-- Node10 -->
<g id="Node000010" class="node">
<title>Node10</title>
<g id="a_Node000010"><a xlink:title=" ">
<polygon fill="#e0e0e0" stroke="#999999" points="1051,-74 1001,-74 1001,-55 1051,-55 1051,-74"/>
<text text-anchor="middle" x="1026" y="-62" font-family="Helvetica,sans-Serif" font-size="10.00">cstdint</text>
</a>
</g>
</g>
<!-- Node7&#45;&gt;Node10 -->
<g id="edge14_Node000007_Node000010" class="edge">
<title>Node7&#45;&gt;Node10</title>
<g id="a_edge14_Node000007_Node000010"><a xlink:title=" ">
<path fill="none" stroke="#63b8ff" d="M893.42,-164.93C910.33,-156.71 935.75,-143.44 956,-129 976.32,-114.5 997.21,-94.81 1010.82,-81.22"/>
<polygon fill="#63b8ff" stroke="#63b8ff" points="1013.4,-83.58 1017.93,-74 1008.42,-78.67 1013.4,-83.58"/>
</a>
</g>
</g>
<!-- Node7&#45;&gt;Node14 -->
<g id="edge13_Node000007_Node000014" class="edge">
<title>Node7&#45;&gt;Node14</title>
<g id="a_edge13_Node000007_Node000014"><a xlink:title=" ">
<path fill="none" stroke="#63b8ff" d="M904.79,-165.1C936.64,-156.12 987.33,-141.83 1022.73,-131.85"/>
<polygon fill="#63b8ff" stroke="#63b8ff" points="1024.05,-135.12 1032.73,-129.03 1022.15,-128.38 1024.05,-135.12"/>
</a>
</g>
</g>
<!-- Node9 -->
<g id="Node000009" class="node">
<title>Node9</title>
<g id="a_Node000009"><a xlink:href="ReflectionMacros_8h.html" target="_top" xlink:title="adapted from https://github.com/tapika/TestCppReflect">
<polygon fill="white" stroke="#666666" points="983,-74 873,-74 873,-55 983,-55 983,-74"/>
<text text-anchor="middle" x="928" y="-62" font-family="Helvetica,sans-Serif" font-size="10.00">ReflectionMacros.h</text>
</a>
</g>
</g>
<!-- Node8&#45;&gt;Node9 -->
<g id="edge8_Node000008_Node000009" class="edge">
<title>Node8&#45;&gt;Node9</title>
<g id="a_edge8_Node000008_Node000009"><a xlink:title=" ">
<path fill="none" stroke="#63b8ff" d="M883.75,-109.75C891.47,-102.03 902.9,-90.6 912.22,-81.28"/>
<polygon fill="#63b8ff" stroke="#63b8ff" points="914.81,-83.64 919.41,-74.09 909.86,-78.69 914.81,-83.64"/>
</a>
</g>
</g>
<!-- Node8&#45;&gt;Node10 -->
<g id="edge9_Node000008_Node000010" class="edge">
<title>Node8&#45;&gt;Node10</title>
<g id="a_edge9_Node000008_Node000010"><a xlink:title=" ">
<path fill="none" stroke="#63b8ff" d="M899.26,-109.98C924.32,-101.19 963.63,-87.39 991.83,-77.49"/>
<polygon fill="#63b8ff" stroke="#63b8ff" points="993.02,-80.78 1001.3,-74.17 990.7,-74.18 993.02,-80.78"/>
</a>
</g>
</g>
<!-- Node8&#45;&gt;Node11 -->
<g id="edge10_Node000008_Node000011" class="edge">
<title>Node8&#45;&gt;Node11</title>
<g id="a_edge10_Node000008_Node000011"><a xlink:title=" ">
<path fill="none" stroke="#63b8ff" d="M849.23,-109.94C791.39,-90.72 651.19,-44.13 585.31,-22.24"/>
<polygon fill="#63b8ff" stroke="#63b8ff" points="586.37,-18.9 575.78,-19.07 584.16,-25.54 586.37,-18.9"/>
</a>
</g>
</g>
<!-- Node8&#45;&gt;Node12 -->
<g id="edge11_Node000008_Node000012" class="edge">
<title>Node8&#45;&gt;Node12</title>
<g id="a_edge11_Node000008_Node000012"><a xlink:title=" ">
<path fill="none" stroke="#63b8ff" d="M839.13,-109.98C802.22,-99.61 753.12,-80.29 776,-55 803.49,-24.61 1089.39,-14.03 1186.74,-11.3"/>
<polygon fill="#63b8ff" stroke="#63b8ff" points="1186.97,-14.79 1196.87,-11.02 1186.78,-7.8 1186.97,-14.79"/>
</a>
</g>
</g>
<!-- Node13 -->
<g id="Node000013" class="node">
<title>Node13</title>
<g id="a_Node000013"><a xlink:title=" ">
<polygon fill="#e0e0e0" stroke="#999999" points="854.5,-74 785.5,-74 785.5,-55 854.5,-55 854.5,-74"/>
<text text-anchor="middle" x="820" y="-62" font-family="Helvetica,sans-Serif" font-size="10.00">type_traits</text>
</a>
</g>
</g>
<!-- Node8&#45;&gt;Node13 -->
<g id="edge12_Node000008_Node000013" class="edge">
<title>Node8&#45;&gt;Node13</title>
<g id="a_edge12_Node000008_Node000013"><a xlink:title=" ">
<path fill="none" stroke="#63b8ff" d="M865.92,-109.75C857.91,-102.03 846.04,-90.6 836.38,-81.28"/>
<polygon fill="#63b8ff" stroke="#63b8ff" points="838.54,-78.51 828.91,-74.09 833.69,-83.55 838.54,-78.51"/>
</a>
</g>
</g>
<!-- Node15&#45;&gt;Node7 -->
<g id="edge16_Node000015_Node000007" class="edge">
<title>Node15&#45;&gt;Node7</title>
<g id="a_edge16_Node000015_Node000007"><a xlink:title=" ">
<path fill="none" stroke="#63b8ff" d="M873.33,-219.75C873.59,-212.8 873.97,-202.85 874.3,-194.13"/>
<polygon fill="#63b8ff" stroke="#63b8ff" points="877.8,-194.21 874.68,-184.09 870.8,-193.95 877.8,-194.21"/>
</a>
</g>
</g>
<!-- Node16 -->
<g id="Node000016" class="node">
<title>Node16</title>
<g id="a_Node000016"><a xlink:href="IConstraint_8h.html" target="_top" xlink:title="Interface for constraints.">
<polygon fill="white" stroke="#666666" points="720.5,-184 641.5,-184 641.5,-165 720.5,-165 720.5,-184"/>
<text text-anchor="middle" x="681" y="-172" font-family="Helvetica,sans-Serif" font-size="10.00">IConstraint.h</text>
</a>
</g>
</g>
<!-- Node15&#45;&gt;Node16 -->
<g id="edge17_Node000015_Node000016" class="edge">
<title>Node15&#45;&gt;Node16</title>
<g id="a_edge17_Node000015_Node000016"><a xlink:title=" ">
<path fill="none" stroke="#63b8ff" d="M843.42,-220.33C810.83,-211.34 758.19,-196.81 721.72,-186.74"/>
<polygon fill="#63b8ff" stroke="#63b8ff" points="722.46,-183.31 711.89,-184.03 720.59,-190.06 722.46,-183.31"/>
</a>
</g>
</g>
<!-- Node17 -->
<g id="Node000017" class="node">
<title>Node17</title>
<g id="a_Node000017"><a xlink:title=" ">
<polygon fill="#e0e0e0" stroke="#999999" points="592.5,-129 473.5,-129 473.5,-110 592.5,-110 592.5,-129"/>
<text text-anchor="middle" x="533" y="-117" font-family="Helvetica,sans-Serif" font-size="10.00">interface/param.pb.h</text>
</a>
</g>
</g>
<!-- Node15&#45;&gt;Node17 -->
<g id="edge40_Node000015_Node000017" class="edge">
<title>Node15&#45;&gt;Node17</title>
<g id="a_edge40_Node000015_Node000017"><a xlink:title=" ">
<path fill="none" stroke="#63b8ff" d="M843.43,-226.72C796.95,-223.12 704.61,-212.7 632,-184 601.51,-171.95 570.32,-150.03 551.3,-135.37"/>
<polygon fill="#63b8ff" stroke="#63b8ff" points="553.26,-132.45 543.24,-129.02 548.93,-137.95 553.26,-132.45"/>
</a>
</g>
</g>
<!-- Node15&#45;&gt;Node19 -->
<g id="edge20_Node000015_Node000019" class="edge">
<title>Node15&#45;&gt;Node19</title>
<g id="a_edge20_Node000015_Node000019"><a xlink:title=" ">
<path fill="none" stroke="#63b8ff" d="M843.46,-223.94C788.52,-215.45 669.45,-197.05 594.91,-185.53"/>
<polygon fill="#63b8ff" stroke="#63b8ff" points="595.11,-182.02 584.69,-183.95 594.04,-188.94 595.11,-182.02"/>
</a>
</g>
</g>
<!-- Node15&#45;&gt;Node26 -->
<g id="edge31_Node000015_Node000026" class="edge">
<title>Node15&#45;&gt;Node26</title>
<g id="a_edge31_Node000015_Node000026"><a xlink:title=" ">
<path fill="none" stroke="#63b8ff" d="M902.88,-225.91C1005.37,-217.02 1342.23,-187.8 1450.3,-178.42"/>
<polygon fill="#63b8ff" stroke="#63b8ff" points="1450.66,-181.91 1460.32,-177.55 1450.06,-174.93 1450.66,-181.91"/>
</a>
</g>
</g>
<!-- Node15&#45;&gt;Node31 -->
<g id="edge37_Node000015_Node000031" class="edge">
<title>Node15&#45;&gt;Node31</title>
<g id="a_edge37_Node000015_Node000031"><a xlink:title=" ">
<path fill="none" stroke="#63b8ff" d="M902.76,-221.13C940.95,-211.67 1007.27,-195.25 1049.05,-184.9"/>
<polygon fill="#63b8ff" stroke="#63b8ff" points="1049.99,-188.27 1058.86,-182.47 1048.31,-181.48 1049.99,-188.27"/>
</a>
</g>
</g>
<!-- Node16&#45;&gt;Node17 -->
<g id="edge18_Node000016_Node000017" class="edge">
<title>Node16&#45;&gt;Node17</title>
<g id="a_edge18_Node000016_Node000017"><a xlink:title=" ">
<path fill="none" stroke="#63b8ff" d="M657.22,-164.98C632.77,-156.23 594.47,-142.51 566.85,-132.62"/>
<polygon fill="#63b8ff" stroke="#63b8ff" points="567.81,-129.25 557.21,-129.17 565.45,-135.84 567.81,-129.25"/>
</a>
</g>
</g>
<!-- Node18 -->
<g id="Node000018" class="node">
<title>Node18</title>
<g id="a_Node000018"><a xlink:title=" ">
<polygon fill="#e0e0e0" stroke="#999999" points="747,-129 611,-129 611,-110 747,-110 747,-129"/>
<text text-anchor="middle" x="679" y="-117" font-family="Helvetica,sans-Serif" font-size="10.00">interface/constraint.pb.h</text>
</a>
</g>
</g>
<!-- Node16&#45;&gt;Node18 -->
<g id="edge19_Node000016_Node000018" class="edge">
<title>Node16&#45;&gt;Node18</title>
<g id="a_edge19_Node000016_Node000018"><a xlink:title=" ">
<path fill="none" stroke="#63b8ff" d="M680.67,-164.75C680.41,-157.8 680.03,-147.85 679.7,-139.13"/>
<polygon fill="#63b8ff" stroke="#63b8ff" points="683.2,-138.95 679.32,-129.09 676.2,-139.21 683.2,-138.95"/>
</a>
</g>
</g>
<!-- Node19&#45;&gt;Node17 -->
<g id="edge30_Node000019_Node000017" class="edge">
<title>Node19&#45;&gt;Node17</title>
<g id="a_edge30_Node000019_Node000017"><a xlink:title=" ">
<path fill="none" stroke="#63b8ff" d="M530.5,-164.75C530.89,-157.8 531.45,-147.85 531.95,-139.13"/>
<polygon fill="#63b8ff" stroke="#63b8ff" points="535.44,-139.27 532.51,-129.09 528.45,-138.88 535.44,-139.27"/>
</a>
</g>
</g>
<!-- Node20 -->
<g id="Node000020" class="node">
<title>Node20</title>
<g id="a_Node000020"><a xlink:href="Tags_8h.html" target="_top" xlink:title="Tags to differentiate collections with the same type for template specialization.">
<polygon fill="white" stroke="#666666" points="455.5,-129 408.5,-129 408.5,-110 455.5,-110 455.5,-129"/>
<text text-anchor="middle" x="432" y="-117" font-family="Helvetica,sans-Serif" font-size="10.00">Tags.h</text>
</a>
</g>
</g>
<!-- Node19&#45;&gt;Node20 -->
<g id="edge21_Node000019_Node000020" class="edge">
<title>Node19&#45;&gt;Node20</title>
<g id="a_edge21_Node000019_Node000020"><a xlink:title=" ">
<path fill="none" stroke="#63b8ff" d="M514.25,-164.98C498.77,-156.61 474.91,-143.7 456.86,-133.95"/>
<polygon fill="#63b8ff" stroke="#63b8ff" points="458.49,-130.85 448.03,-129.17 455.16,-137.01 458.49,-130.85"/>
</a>
</g>
</g>
<!-- Node22 -->
<g id="Node000022" class="node">
<title>Node22</title>
<g id="a_Node000022"><a xlink:href="PolyglotText_8h.html" target="_top" xlink:title="Polyglot Text serialization and deserialization to protobuf.">
<polygon fill="white" stroke="#666666" points="352,-129 266,-129 266,-110 352,-110 352,-129"/>
<text text-anchor="middle" x="309" y="-117" font-family="Helvetica,sans-Serif" font-size="10.00">PolyglotText.h</text>
</a>
</g>
</g>
<!-- Node19&#45;&gt;Node22 -->
<g id="edge24_Node000019_Node000022" class="edge">
<title>Node19&#45;&gt;Node22</title>
<g id="a_edge24_Node000019_Node000022"><a xlink:title=" ">
<path fill="none" stroke="#63b8ff" d="M494.49,-164.98C456.51,-155.87 396.13,-141.4 354.64,-131.45"/>
<polygon fill="#63b8ff" stroke="#63b8ff" points="355.33,-128.01 344.79,-129.08 353.69,-134.82 355.33,-128.01"/>
</a>
</g>
</g>
<!-- Node20&#45;&gt;Node12 -->
<g id="edge23_Node000020_Node000012" class="edge">
<title>Node20&#45;&gt;Node12</title>
<g id="a_edge23_Node000020_Node000012"><a xlink:title=" ">
<path fill="none" stroke="#63b8ff" d="M441.52,-109.98C458.23,-95.61 494.53,-66.98 531,-55 655.05,-14.24 1067.42,-10.63 1186.53,-10.46"/>
<polygon fill="#63b8ff" stroke="#63b8ff" points="1186.81,-13.96 1196.81,-10.45 1186.8,-6.96 1186.81,-13.96"/>
</a>
</g>
</g>
<!-- Node20&#45;&gt;Node21 -->
<g id="edge22_Node000020_Node000021" class="edge">
<title>Node20&#45;&gt;Node21</title>
<g id="a_edge22_Node000020_Node000021"><a xlink:title=" ">
<path fill="none" stroke="#63b8ff" d="M454.65,-109.98C477.85,-101.27 514.12,-87.63 540.4,-77.75"/>
<polygon fill="#63b8ff" stroke="#63b8ff" points="541.8,-80.97 549.93,-74.17 539.34,-74.41 541.8,-80.97"/>
</a>
</g>
</g>
<!-- Node23 -->
<g id="Node000023" class="node">
<title>Node23</title>
<g id="a_Node000023"><a xlink:href="IPolyglotText_8h.html" target="_top" xlink:title="Catena&#39;s multi&#45;language text interface.">
<polygon fill="white" stroke="#666666" points="261.5,-74 172.5,-74 172.5,-55 261.5,-55 261.5,-74"/>
<text text-anchor="middle" x="217" y="-62" font-family="Helvetica,sans-Serif" font-size="10.00">IPolyglotText.h</text>
</a>
</g>
</g>
<!-- Node22&#45;&gt;Node23 -->
<g id="edge25_Node000022_Node000023" class="edge">
<title>Node22&#45;&gt;Node23</title>
<g id="a_edge25_Node000022_Node000023"><a xlink:title=" ">
<path fill="none" stroke="#63b8ff" d="M294.22,-109.98C279.82,-101.69 257.69,-88.94 240.81,-79.22"/>
<polygon fill="#63b8ff" stroke="#63b8ff" points="242.46,-76.13 232.05,-74.17 238.97,-82.19 242.46,-76.13"/>
</a>
</g>
</g>
<!-- Node23&#45;&gt;Node11 -->
<g id="edge27_Node000023_Node000011" class="edge">
<title>Node23&#45;&gt;Node11</title>
<g id="a_edge27_Node000023_Node000011"><a xlink:title=" ">
<path fill="none" stroke="#63b8ff" d="M261.56,-56.41C321.37,-46.89 427.63,-29.98 493.14,-19.55"/>
<polygon fill="#63b8ff" stroke="#63b8ff" points="493.96,-22.96 503.29,-17.93 492.86,-16.05 493.96,-22.96"/>
</a>
</g>
</g>
<!-- Node23&#45;&gt;Node12 -->
<g id="edge28_Node000023_Node000012" class="edge">
<title>Node23&#45;&gt;Node12</title>
<g id="a_edge28_Node000023_Node000012"><a xlink:title=" ">
<path fill="none" stroke="#63b8ff" d="M261.66,-60.9C291.25,-59.18 330.94,-56.91 366,-55 686.24,-37.51 1074.19,-17.81 1186.89,-12.12"/>
<polygon fill="#63b8ff" stroke="#63b8ff" points="1187.11,-15.61 1196.92,-11.61 1186.76,-8.62 1187.11,-15.61"/>
</a>
</g>
</g>
<!-- Node24 -->
<g id="Node000024" class="node">
<title>Node24</title>
<g id="a_Node000024"><a xlink:title=" ">
<polygon fill="#e0e0e0" stroke="#999999" points="220,-19 88,-19 88,0 220,0 220,-19"/>
<text text-anchor="middle" x="154" y="-7" font-family="Helvetica,sans-Serif" font-size="10.00">interface/language.pb.h</text>
</a>
</g>
</g>
<!-- Node23&#45;&gt;Node24 -->
<g id="edge26_Node000023_Node000024" class="edge">
<title>Node23&#45;&gt;Node24</title>
<g id="a_edge26_Node000023_Node000024"><a xlink:title=" ">
<path fill="none" stroke="#63b8ff" d="M206.88,-54.98C197.56,-47.15 183.53,-35.34 172.26,-25.86"/>
<polygon fill="#63b8ff" stroke="#63b8ff" points="174.21,-22.93 164.31,-19.17 169.71,-28.29 174.21,-22.93"/>
</a>
</g>
</g>
<!-- Node25 -->
<g id="Node000025" class="node">
<title>Node25</title>
<g id="a_Node000025"><a xlink:title=" ">
<polygon fill="#e0e0e0" stroke="#999999" points="321.5,-19 238.5,-19 238.5,0 321.5,0 321.5,-19"/>
<text text-anchor="middle" x="280" y="-7" font-family="Helvetica,sans-Serif" font-size="10.00">initializer_list</text>
</a>
</g>
</g>
<!-- Node23&#45;&gt;Node25 -->
<g id="edge29_Node000023_Node000025" class="edge">
<title>Node23&#45;&gt;Node25</title>
<g id="a_edge29_Node000023_Node000025"><a xlink:title=" ">
<path fill="none" stroke="#63b8ff" d="M227.12,-54.98C236.44,-47.15 250.47,-35.34 261.74,-25.86"/>
<polygon fill="#63b8ff" stroke="#63b8ff" points="264.29,-28.29 269.69,-19.17 259.79,-22.93 264.29,-28.29"/>
</a>
</g>
</g>
<!-- Node26&#45;&gt;Node12 -->
<g id="edge33_Node000026_Node000012" class="edge">
<title>Node26&#45;&gt;Node12</title>
<g id="a_edge33_Node000026_Node000012"><a xlink:title=" ">
<path fill="none" stroke="#63b8ff" d="M1477.83,-164.76C1468.62,-152.02 1450.38,-127.89 1432,-110 1403.4,-82.16 1396.38,-73.48 1361,-55 1325.36,-36.38 1280.56,-23.95 1250.92,-17.07"/>
<polygon fill="#63b8ff" stroke="#63b8ff" points="1251.63,-13.64 1241.11,-14.87 1250.1,-20.47 1251.63,-13.64"/>
</a>
</g>
</g>
<!-- Node27 -->
<g id="Node000027" class="node">
<title>Node27</title>
<g id="a_Node000027"><a xlink:title=" ">
<polygon fill="#e0e0e0" stroke="#999999" points="1615,-129 1555,-129 1555,-110 1615,-110 1615,-129"/>
<text text-anchor="middle" x="1585" y="-117" font-family="Helvetica,sans-Serif" font-size="10.00">iostream</text>
</a>
</g>
</g>
<!-- Node26&#45;&gt;Node27 -->
<g id="edge32_Node000026_Node000027" class="edge">
<title>Node26&#45;&gt;Node27</title>
<g id="a_edge32_Node000026_Node000027"><a xlink:title=" ">
<path fill="none" stroke="#63b8ff" d="M1500.23,-164.98C1516.18,-156.61 1540.78,-143.7 1559.38,-133.95"/>
<polygon fill="#63b8ff" stroke="#63b8ff" points="1561.25,-136.92 1568.48,-129.17 1558,-130.72 1561.25,-136.92"/>
</a>
</g>
</g>
<!-- Node26&#45;&gt;Node28 -->
<g id="edge34_Node000026_Node000028" class="edge">
<title>Node26&#45;&gt;Node28</title>
<g id="a_edge34_Node000026_Node000028"><a xlink:title=" ">
<path fill="none" stroke="#63b8ff" d="M1470.34,-164.98C1457.16,-156.77 1436.97,-144.18 1421.43,-134.49"/>
<polygon fill="#63b8ff" stroke="#63b8ff" points="1423.24,-131.49 1412.91,-129.17 1419.54,-137.43 1423.24,-131.49"/>
</a>
</g>
</g>
<!-- Node29 -->
<g id="Node000029" class="node">
<title>Node29</title>
<g id="a_Node000029"><a xlink:title=" ">
<polygon fill="#e0e0e0" stroke="#999999" points="1684.5,-129 1633.5,-129 1633.5,-110 1684.5,-110 1684.5,-129"/>
<text text-anchor="middle" x="1659" y="-117" font-family="Helvetica,sans-Serif" font-size="10.00">variant</text>
</a>
</g>
</g>
<!-- Node26&#45;&gt;Node29 -->
<g id="edge35_Node000026_Node000029" class="edge">
<title>Node26&#45;&gt;Node29</title>
<g id="a_edge35_Node000026_Node000029"><a xlink:title=" ">
<path fill="none" stroke="#63b8ff" d="M1507.6,-166.35C1537.41,-157.33 1588.96,-141.71 1623.52,-131.25"/>
<polygon fill="#63b8ff" stroke="#63b8ff" points="1624.66,-134.56 1633.22,-128.31 1622.63,-127.86 1624.66,-134.56"/>
</a>
</g>
</g>
<!-- Node30 -->
<g id="Node000030" class="node">
<title>Node30</title>
<g id="a_Node000030"><a xlink:title=" ">
<polygon fill="#e0e0e0" stroke="#999999" points="1537,-129 1479,-129 1479,-110 1537,-110 1537,-129"/>
<text text-anchor="middle" x="1508" y="-117" font-family="Helvetica,sans-Serif" font-size="10.00">memory</text>
</a>
</g>
</g>
<!-- Node26&#45;&gt;Node30 -->
<g id="edge36_Node000026_Node000030" class="edge">
<title>Node26&#45;&gt;Node30</title>
<g id="a_edge36_Node000026_Node000030"><a xlink:title=" ">
<path fill="none" stroke="#63b8ff" d="M1487.96,-164.75C1491.21,-157.57 1495.92,-147.18 1499.95,-138.27"/>
<polygon fill="#63b8ff" stroke="#63b8ff" points="1503.17,-139.64 1504.11,-129.09 1496.8,-136.75 1503.17,-139.64"/>
</a>
</g>
</g>
<!-- Node32 -->
<g id="Node000032" class="node">
<title>Node32</title>
<g id="a_Node000032"><a xlink:title=" ">
<polygon fill="#e0e0e0" stroke="#999999" points="1197,-129 1141,-129 1141,-110 1197,-110 1197,-129"/>
<text text-anchor="middle" x="1169" y="-117" font-family="Helvetica,sans-Serif" font-size="10.00">sstream</text>
</a>
</g>
</g>
<!-- Node31&#45;&gt;Node32 -->
<g id="edge38_Node000031_Node000032" class="edge">
<title>Node31&#45;&gt;Node32</title>
<g id="a_edge38_Node000031_Node000032"><a xlink:title=" ">
<path fill="none" stroke="#63b8ff" d="M1100.17,-164.98C1112.77,-156.84 1132,-144.41 1146.94,-134.76"/>
<polygon fill="#63b8ff" stroke="#63b8ff" points="1149.09,-137.54 1155.59,-129.17 1145.29,-131.66 1149.09,-137.54"/>
</a>
</g>
</g>
<!-- Node33 -->
<g id="Node000033" class="node">
<title>Node33</title>
<g id="a_Node000033"><a xlink:title=" ">
<polygon fill="#e0e0e0" stroke="#999999" points="1280.5,-129 1215.5,-129 1215.5,-110 1280.5,-110 1280.5,-129"/>
<text text-anchor="middle" x="1248" y="-117" font-family="Helvetica,sans-Serif" font-size="10.00">stdexcept</text>
</a>
</g>
</g>
<!-- Node31&#45;&gt;Node33 -->
<g id="edge39_Node000031_Node000033" class="edge">
<title>Node31&#45;&gt;Node33</title>
<g id="a_edge39_Node000031_Node000033"><a xlink:title=" ">
<path fill="none" stroke="#63b8ff" d="M1112.87,-164.98C1139.78,-156.13 1182.12,-142.19 1212.23,-132.28"/>
<polygon fill="#63b8ff" stroke="#63b8ff" points="1213.53,-135.53 1221.93,-129.08 1211.34,-128.88 1213.53,-135.53"/>
</a>
</g>
</g>
<!-- Node36&#45;&gt;Node11 -->
<g id="edge49_Node000036_Node000011" class="edge">
<title>Node36&#45;&gt;Node11</title>
<g id="a_edge49_Node000036_Node000011"><a xlink:title=" ">
<path fill="none" stroke="#63b8ff" d="M1169.81,-59.6C1048.47,-49.99 735.42,-25.19 606.63,-14.99"/>
<polygon fill="#63b8ff" stroke="#63b8ff" points="606.83,-11.49 596.58,-14.19 606.27,-18.47 606.83,-11.49"/>
</a>
</g>
</g>
<!-- Node36&#45;&gt;Node12 -->
<g id="edge48_Node000036_Node000012" class="edge">
<title>Node36&#45;&gt;Node12</title>
<g id="a_edge48_Node000036_Node000012"><a xlink:title=" ">
<path fill="none" stroke="#63b8ff" d="M1219,-54.75C1219,-47.8 1219,-37.85 1219,-29.13"/>
<polygon fill="#63b8ff" stroke="#63b8ff" points="1222.5,-29.09 1219,-19.09 1215.5,-29.09 1222.5,-29.09"/>
</a>
</g>
</g>
<!-- Node40&#45;&gt;Node5 -->
<g id="edge64_Node000040_Node000005" class="edge">
<title>Node40&#45;&gt;Node5</title>
<g id="a_edge64_Node000040_Node000005"><a xlink:title=" ">
<path fill="none" stroke="#63b8ff" d="M1181.49,-439.66C1163.96,-421.46 1123.6,-379.55 1101.38,-356.47"/>
<polygon fill="#63b8ff" stroke="#63b8ff" points="1103.8,-353.93 1094.34,-349.16 1098.75,-358.79 1103.8,-353.93"/>
</a>
</g>
</g>
<!-- Node40&#45;&gt;Node26 -->
<g id="edge63_Node000040_Node000026" class="edge">
<title>Node40&#45;&gt;Node26</title>
<g id="a_edge63_Node000040_Node000026"><a xlink:title=" ">
<path fill="none" stroke="#63b8ff" d="M1233.74,-443.58C1323.9,-432.22 1522,-400.43 1522,-340.5 1522,-340.5 1522,-340.5 1522,-283.5 1522,-250.02 1505.55,-213.84 1494.3,-193.01"/>
<polygon fill="#63b8ff" stroke="#63b8ff" points="1497.24,-191.1 1489.28,-184.1 1491.13,-194.53 1497.24,-191.1"/>
</a>
</g>
</g>
<!-- Node41 -->
<g id="Node000041" class="node">
<title>Node41</title>
<g id="a_Node000041"><a xlink:href="IParamVisitor_8h.html" target="_top" xlink:title="Implements Catena IParamVisitor.">
<polygon fill="white" stroke="#666666" points="1362,-404 1272,-404 1272,-385 1362,-385 1362,-404"/>
<text text-anchor="middle" x="1317" y="-392" font-family="Helvetica,sans-Serif" font-size="10.00">IParamVisitor.h</text>
</a>
</g>
</g>
<!-- Node40&#45;&gt;Node41 -->
<g id="edge59_Node000040_Node000041" class="edge">
<title>Node40&#45;&gt;Node41</title>
<g id="a_edge59_Node000040_Node000041"><a xlink:title=" ">
<path fill="none" stroke="#63b8ff" d="M1210.4,-439.98C1231.02,-431.38 1263.11,-417.99 1286.69,-408.15"/>
<polygon fill="#63b8ff" stroke="#63b8ff" points="1288.34,-411.25 1296.22,-404.17 1285.65,-404.79 1288.34,-411.25"/>
</a>
</g>
</g>
<!-- Node41&#45;&gt;Node5 -->
<g id="edge62_Node000041_Node000005" class="edge">
<title>Node41&#45;&gt;Node5</title>
<g id="a_edge62_Node000041_Node000005"><a xlink:title=" ">
<path fill="none" stroke="#63b8ff" d="M1279.89,-384.98C1238.09,-375.39 1170.36,-359.86 1127.02,-349.91"/>
<polygon fill="#63b8ff" stroke="#63b8ff" points="1127.63,-346.46 1117.1,-347.63 1126.06,-353.28 1127.63,-346.46"/>
</a>
</g>
</g>
<!-- Node41&#45;&gt;Node15 -->
<g id="edge60_Node000041_Node000015" class="edge">
<title>Node41&#45;&gt;Node15</title>
<g id="a_edge60_Node000041_Node000015"><a xlink:title=" ">
<path fill="none" stroke="#63b8ff" d="M1324.28,-384.81C1341.36,-363.36 1380.41,-307.27 1351,-275 1321.73,-242.88 1022.91,-233.56 913.15,-231.21"/>
<polygon fill="#63b8ff" stroke="#63b8ff" points="912.9,-227.7 902.83,-231 912.76,-234.7 912.9,-227.7"/>
</a>
</g>
</g>
<!-- Node41&#45;&gt;Node26 -->
<g id="edge61_Node000041_Node000026" class="edge">
<title>Node41&#45;&gt;Node26</title>
<g id="a_edge61_Node000041_Node000026"><a xlink:title=" ">
<path fill="none" stroke="#63b8ff" d="M1331.98,-384.8C1357.56,-369.32 1410.08,-334.77 1443,-294 1467.08,-264.19 1477.43,-219.34 1481.55,-194.23"/>
<polygon fill="#63b8ff" stroke="#63b8ff" points="1485.03,-194.62 1483.03,-184.21 1478.1,-193.59 1485.03,-194.62"/>
</a>
</g>
</g>
<!-- Node42&#45;&gt;Node5 -->
<g id="edge68_Node000042_Node000005" class="edge">
<title>Node42&#45;&gt;Node5</title>
<g id="a_edge68_Node000042_Node000005"><a xlink:title=" ">
<path fill="none" stroke="#63b8ff" d="M774.61,-384.98C850.43,-374.15 979.4,-355.73 1045.02,-346.35"/>
<polygon fill="#63b8ff" stroke="#63b8ff" points="1045.59,-349.81 1054.99,-344.93 1044.6,-342.88 1045.59,-349.81"/>
</a>
</g>
</g>
<!-- Node42&#45;&gt;Node6 -->
<g id="edge70_Node000042_Node000006" class="edge">
<title>Node42&#45;&gt;Node6</title>
<g id="a_edge70_Node000042_Node000006"><a xlink:title=" ">
<path fill="none" stroke="#63b8ff" d="M718.76,-384.66C726.28,-367.01 743.29,-327.09 753.28,-303.64"/>
<polygon fill="#63b8ff" stroke="#63b8ff" points="756.61,-304.73 757.31,-294.16 750.17,-301.99 756.61,-304.73"/>
</a>
</g>
</g>
<!-- Node42&#45;&gt;Node12 -->
<g id="edge67_Node000042_Node000012" class="edge">
<title>Node42&#45;&gt;Node12</title>
<g id="a_edge67_Node000042_Node000012"><a xlink:title=" ">
<path fill="none" stroke="#63b8ff" d="M710.92,-384.61C697.24,-355.84 649.95,-264.49 582,-220 536.84,-190.43 513.52,-209.6 466,-184 426.94,-162.96 377.2,-148.64 399,-110 422.22,-68.84 444.89,-69.07 490,-55 622.78,-13.59 1063.34,-10.47 1186.67,-10.43"/>
<polygon fill="#63b8ff" stroke="#63b8ff" points="1186.95,-13.93 1196.95,-10.43 1186.95,-6.93 1186.95,-13.93"/>
</a>
</g>
</g>
<!-- Node42&#45;&gt;Node15 -->
<g id="edge69_Node000042_Node000015" class="edge">
<title>Node42&#45;&gt;Node15</title>
<g id="a_edge69_Node000042_Node000015"><a xlink:title=" ">
<path fill="none" stroke="#63b8ff" d="M732.29,-384.9C760.5,-370.05 816.52,-337.01 849,-294 859.1,-280.63 865.38,-262.52 868.97,-249.06"/>
<polygon fill="#63b8ff" stroke="#63b8ff" points="872.44,-249.6 871.38,-239.06 865.64,-247.96 872.44,-249.6"/>
</a>
</g>
</g>
<!-- Node42&#45;&gt;Node35 -->
<g id="edge66_Node000042_Node000035" class="edge">
<title>Node42&#45;&gt;Node35</title>
<g id="a_edge66_Node000042_Node000035"><a xlink:title=" ">
<path fill="none" stroke="#63b8ff" d="M706.51,-384.74C681.11,-358.53 605.48,-280.51 572.58,-246.57"/>
<polygon fill="#63b8ff" stroke="#63b8ff" points="575.01,-244.05 565.54,-239.31 569.98,-248.92 575.01,-244.05"/>
</a>
</g>
</g>
</g>
</svg>
