<?xml version="1.0" encoding="UTF-8" standalone="no"?>
<!DOCTYPE svg PUBLIC "-//W3C//DTD SVG 1.1//EN"
 "http://www.w3.org/Graphics/SVG/1.1/DTD/svg11.dtd">
<!-- Generated by graphviz version 2.43.0 (0)
 -->
<!-- Title: /home/runner/work/Catena/Catena/sdks/cpp/connections/REST/include/interface/ISocketReader.h Pages: 1 -->
<svg width="1920pt" height="544pt"
 viewBox="0.00 0.00 1919.50 544.00" xmlns="http://www.w3.org/2000/svg" xmlns:xlink="http://www.w3.org/1999/xlink">
<g id="graph0" class="graph" transform="scale(1 1) rotate(0) translate(4 540)">
<title>/home/runner/work/Catena/Catena/sdks/cpp/connections/REST/include/interface/ISocketReader.h</title>
<!-- Node1 -->
<g id="Node000001" class="node">
<title>Node1</title>
<g id="a_Node000001"><a xlink:title="Interface for the SocketReader class.">
<polygon fill="#999999" stroke="#666666" points="1171,-536 961,-536 961,-495 1171,-495 1171,-536"/>
<text text-anchor="start" x="969" y="-524" font-family="Helvetica,sans-Serif" font-size="10.00">/home/runner/work/Catena</text>
<text text-anchor="start" x="969" y="-513" font-family="Helvetica,sans-Serif" font-size="10.00">/Catena/sdks/cpp/connections</text>
<text text-anchor="middle" x="1066" y="-502" font-family="Helvetica,sans-Serif" font-size="10.00">/REST/include/interface/ISocketReader.h</text>
</a>
</g>
</g>
<!-- Node2 -->
<g id="Node000002" class="node">
<title>Node2</title>
<g id="a_Node000002"><a xlink:title=" ">
<polygon fill="#e0e0e0" stroke="#999999" points="88,-459 0,-459 0,-440 88,-440 88,-459"/>
<text text-anchor="middle" x="44" y="-447" font-family="Helvetica,sans-Serif" font-size="10.00">boost/asio.hpp</text>
</a>
</g>
</g>
<!-- Node1&#45;&gt;Node2 -->
<g id="edge1_Node000001_Node000002" class="edge">
<title>Node1&#45;&gt;Node2</title>
<g id="a_edge1_Node000001_Node000002"><a xlink:title=" ">
<path fill="none" stroke="#63b8ff" d="M960.68,-511.98C784.33,-506.98 418.03,-493.28 98.59,-459.06"/>
<polygon fill="#63b8ff" stroke="#63b8ff" points="98.52,-455.53 88.2,-457.93 97.77,-462.49 98.52,-455.53"/>
</a>
</g>
</g>
<!-- Node3 -->
<g id="Node000003" class="node">
<title>Node3</title>
<g id="a_Node000003"><a xlink:title=" ">
<polygon fill="#e0e0e0" stroke="#999999" points="210,-459 106,-459 106,-440 210,-440 210,-459"/>
<text text-anchor="middle" x="158" y="-447" font-family="Helvetica,sans-Serif" font-size="10.00">boost/asio/ssl.hpp</text>
</a>
</g>
</g>
<!-- Node1&#45;&gt;Node3 -->
<g id="edge2_Node000001_Node000003" class="edge">
<title>Node1&#45;&gt;Node3</title>
<g id="a_edge2_Node000001_Node000003"><a xlink:title=" ">
<path fill="none" stroke="#63b8ff" d="M960.82,-509.67C801.27,-501.88 488.64,-484.74 224,-459 222.74,-458.88 221.46,-458.75 220.18,-458.62"/>
<polygon fill="#63b8ff" stroke="#63b8ff" points="220.53,-455.13 210.2,-457.53 219.77,-462.09 220.53,-455.13"/>
</a>
</g>
</g>
<!-- Node4 -->
<g id="Node000004" class="node">
<title>Node4</title>
<g id="a_Node000004"><a xlink:href="ISubscriptionManager_8h.html" target="_top" xlink:title="Interface for managing parameter subscriptions in Catena.">
<polygon fill="white" stroke="#666666" points="1131.5,-459 1000.5,-459 1000.5,-440 1131.5,-440 1131.5,-459"/>
<text text-anchor="middle" x="1066" y="-447" font-family="Helvetica,sans-Serif" font-size="10.00">ISubscriptionManager.h</text>
</a>
</g>
</g>
<!-- Node1&#45;&gt;Node4 -->
<g id="edge3_Node000001_Node000004" class="edge">
<title>Node1&#45;&gt;Node4</title>
<g id="a_edge3_Node000001_Node000004"><a xlink:title=" ">
<path fill="none" stroke="#63b8ff" d="M1066,-494.95C1066,-486.85 1066,-477.5 1066,-469.47"/>
<polygon fill="#63b8ff" stroke="#63b8ff" points="1069.5,-469.26 1066,-459.26 1062.5,-469.26 1069.5,-469.26"/>
</a>
</g>
</g>
<!-- Node6 -->
<g id="Node000006" class="node">
<title>Node6</title>
<g id="a_Node000006"><a xlink:title=" ">
<polygon fill="#e0e0e0" stroke="#999999" points="1029,-19 985,-19 985,0 1029,0 1029,-19"/>
<text text-anchor="middle" x="1007" y="-7" font-family="Helvetica,sans-Serif" font-size="10.00">string</text>
</a>
</g>
</g>
<!-- Node1&#45;&gt;Node6 -->
<g id="edge69_Node000001_Node000006" class="edge">
<title>Node1&#45;&gt;Node6</title>
<g id="a_edge69_Node000001_Node000006"><a xlink:title=" ">
<path fill="none" stroke="#63b8ff" d="M960.71,-510.15C737.7,-499.54 238,-467.71 238,-395.5 238,-395.5 238,-395.5 238,-118.5 238,-56.19 302.94,-71.59 363,-55 480.21,-22.62 861.44,-13.16 974.88,-11.03"/>
<polygon fill="#63b8ff" stroke="#63b8ff" points="975.06,-14.53 985,-10.85 974.94,-7.53 975.06,-14.53"/>
</a>
</g>
</g>
<!-- Node15 -->
<g id="Node000015" class="node">
<title>Node15</title>
<g id="a_Node000015"><a xlink:title=" ">
<polygon fill="#e0e0e0" stroke="#999999" points="1616.5,-19 1523.5,-19 1523.5,0 1616.5,0 1616.5,-19"/>
<text text-anchor="middle" x="1570" y="-7" font-family="Helvetica,sans-Serif" font-size="10.00">unordered_map</text>
</a>
</g>
</g>
<!-- Node1&#45;&gt;Node15 -->
<g id="edge70_Node000001_Node000015" class="edge">
<title>Node1&#45;&gt;Node15</title>
<g id="a_edge70_Node000001_Node000015"><a xlink:title=" ">
<path fill="none" stroke="#63b8ff" d="M1171,-506.9C1362.74,-491.61 1750,-453.54 1750,-395.5 1750,-395.5 1750,-395.5 1750,-118.5 1750,-89.04 1752.05,-75.61 1731,-55 1703.49,-28.06 1661.21,-17.1 1626.88,-12.78"/>
<polygon fill="#63b8ff" stroke="#63b8ff" points="1626.83,-9.26 1616.51,-11.65 1626.07,-16.21 1626.83,-9.26"/>
</a>
</g>
</g>
<!-- Node41 -->
<g id="Node000041" class="node">
<title>Node41</title>
<g id="a_Node000041"><a xlink:href="IConnectionQueue_8h.html" target="_top" xlink:title="Pure virtual class for the ConnectionQueue object.">
<polygon fill="white" stroke="#666666" points="1552.5,-404 1419.5,-404 1419.5,-385 1552.5,-385 1552.5,-404"/>
<text text-anchor="middle" x="1486" y="-392" font-family="Helvetica,sans-Serif" font-size="10.00">rpc/IConnectionQueue.h</text>
</a>
</g>
</g>
<!-- Node1&#45;&gt;Node41 -->
<g id="edge62_Node000001_Node000041" class="edge">
<title>Node1&#45;&gt;Node41</title>
<g id="a_edge62_Node000001_Node000041"><a xlink:title=" ">
<path fill="none" stroke="#63b8ff" d="M1134.88,-494.98C1223.39,-469.91 1374.13,-427.2 1445.82,-406.88"/>
<polygon fill="#63b8ff" stroke="#63b8ff" points="1447.14,-410.15 1455.81,-404.05 1445.23,-403.41 1447.14,-410.15"/>
</a>
</g>
</g>
<!-- Node44 -->
<g id="Node000044" class="node">
<title>Node44</title>
<g id="a_Node000044"><a xlink:title=" ">
<polygon fill="#e0e0e0" stroke="#999999" points="1911.5,-459 1778.5,-459 1778.5,-440 1911.5,-440 1911.5,-459"/>
<text text-anchor="middle" x="1845" y="-447" font-family="Helvetica,sans-Serif" font-size="10.00">interface/IServiceImpl.h</text>
</a>
</g>
</g>
<!-- Node1&#45;&gt;Node44 -->
<g id="edge68_Node000001_Node000044" class="edge">
<title>Node1&#45;&gt;Node44</title>
<g id="a_edge68_Node000001_Node000044"><a xlink:title=" ">
<path fill="none" stroke="#63b8ff" d="M1171.02,-506.98C1307.67,-497 1553.83,-478.38 1764,-459 1765.31,-458.88 1766.63,-458.76 1767.95,-458.63"/>
<polygon fill="#63b8ff" stroke="#63b8ff" points="1768.65,-462.08 1778.27,-457.64 1767.98,-455.11 1768.65,-462.08"/>
</a>
</g>
</g>
<!-- Node5 -->
<g id="Node000005" class="node">
<title>Node5</title>
<g id="a_Node000005"><a xlink:title=" ">
<polygon fill="#e0e0e0" stroke="#999999" points="1434,-294 1402,-294 1402,-275 1434,-275 1434,-294"/>
<text text-anchor="middle" x="1418" y="-282" font-family="Helvetica,sans-Serif" font-size="10.00">set</text>
</a>
</g>
</g>
<!-- Node4&#45;&gt;Node5 -->
<g id="edge4_Node000004_Node000005" class="edge">
<title>Node4&#45;&gt;Node5</title>
<g id="a_edge4_Node000004_Node000005"><a xlink:title=" ">
<path fill="none" stroke="#63b8ff" d="M1129.08,-439.97C1194.99,-428.48 1298.79,-402.9 1372,-349 1388.23,-337.05 1401.07,-317.68 1409.02,-303.47"/>
<polygon fill="#63b8ff" stroke="#63b8ff" points="1412.33,-304.69 1413.92,-294.22 1406.15,-301.42 1412.33,-304.69"/>
</a>
</g>
</g>
<!-- Node4&#45;&gt;Node6 -->
<g id="edge5_Node000004_Node000006" class="edge">
<title>Node4&#45;&gt;Node6</title>
<g id="a_edge5_Node000004_Node000006"><a xlink:title=" ">
<path fill="none" stroke="#63b8ff" d="M1000.34,-446.39C810.77,-439.45 276,-413.39 276,-340.5 276,-340.5 276,-340.5 276,-118.5 276,-46.84 832.82,-18 974.51,-11.82"/>
<polygon fill="#63b8ff" stroke="#63b8ff" points="974.88,-15.31 984.72,-11.38 974.58,-8.31 974.88,-15.31"/>
</a>
</g>
</g>
<!-- Node7 -->
<g id="Node000007" class="node">
<title>Node7</title>
<g id="a_Node000007"><a xlink:href="IDevice_8h.html" target="_top" xlink:title="Interface for device.">
<polygon fill="white" stroke="#666666" points="777,-404 715,-404 715,-385 777,-385 777,-404"/>
<text text-anchor="middle" x="746" y="-392" font-family="Helvetica,sans-Serif" font-size="10.00">IDevice.h</text>
</a>
</g>
</g>
<!-- Node4&#45;&gt;Node7 -->
<g id="edge6_Node000004_Node000007" class="edge">
<title>Node4&#45;&gt;Node7</title>
<g id="a_edge6_Node000004_Node000007"><a xlink:title=" ">
<path fill="none" stroke="#63b8ff" d="M1014.59,-439.98C951.42,-429.52 845.5,-411.98 787.34,-402.35"/>
<polygon fill="#63b8ff" stroke="#63b8ff" points="787.84,-398.88 777.4,-400.7 786.69,-405.79 787.84,-398.88"/>
</a>
</g>
</g>
<!-- Node8 -->
<g id="Node000008" class="node">
<title>Node8</title>
<g id="a_Node000008"><a xlink:href="Authorizer_8h.html" target="_top" xlink:title="Class for handling authorization information.">
<polygon fill="white" stroke="#666666" points="1362.5,-349 1287.5,-349 1287.5,-330 1362.5,-330 1362.5,-349"/>
<text text-anchor="middle" x="1325" y="-337" font-family="Helvetica,sans-Serif" font-size="10.00">Authorizer.h</text>
</a>
</g>
</g>
<!-- Node4&#45;&gt;Node8 -->
<g id="edge61_Node000004_Node000008" class="edge">
<title>Node4&#45;&gt;Node8</title>
<g id="a_edge61_Node000004_Node000008"><a xlink:title=" ">
<path fill="none" stroke="#63b8ff" d="M1086.76,-439.84C1132.43,-420.8 1241.79,-375.2 1294.96,-353.03"/>
<polygon fill="#63b8ff" stroke="#63b8ff" points="1296.62,-356.13 1304.5,-349.05 1293.93,-349.67 1296.62,-356.13"/>
</a>
</g>
</g>
<!-- Node10 -->
<g id="Node000010" class="node">
<title>Node10</title>
<g id="a_Node000010"><a xlink:href="IParam_8h.html" target="_top" xlink:title="Interface for parameters.">
<polygon fill="white" stroke="#666666" points="1093.5,-239 1034.5,-239 1034.5,-220 1093.5,-220 1093.5,-239"/>
<text text-anchor="middle" x="1064" y="-227" font-family="Helvetica,sans-Serif" font-size="10.00">IParam.h</text>
</a>
</g>
</g>
<!-- Node4&#45;&gt;Node10 -->
<g id="edge60_Node000004_Node000010" class="edge">
<title>Node4&#45;&gt;Node10</title>
<g id="a_edge60_Node000004_Node000010"><a xlink:title=" ">
<path fill="none" stroke="#63b8ff" d="M1065.92,-439.95C1065.63,-407.95 1064.59,-294.68 1064.17,-249.4"/>
<polygon fill="#63b8ff" stroke="#63b8ff" points="1067.67,-249.19 1064.08,-239.22 1060.67,-249.26 1067.67,-249.19"/>
</a>
</g>
</g>
<!-- Node7&#45;&gt;Node6 -->
<g id="edge56_Node000007_Node000006" class="edge">
<title>Node7&#45;&gt;Node6</title>
<g id="a_edge56_Node000007_Node000006"><a xlink:title=" ">
<path fill="none" stroke="#63b8ff" d="M726.79,-384.92C653.25,-350.96 398.28,-222.31 491,-110 553.13,-34.75 871.76,-15.78 974.81,-11.58"/>
<polygon fill="#63b8ff" stroke="#63b8ff" points="975.06,-15.07 984.92,-11.19 974.79,-8.08 975.06,-15.07"/>
</a>
</g>
</g>
<!-- Node7&#45;&gt;Node8 -->
<g id="edge7_Node000007_Node000008" class="edge">
<title>Node7&#45;&gt;Node8</title>
<g id="a_edge7_Node000007_Node000008"><a xlink:title=" ">
<path fill="none" stroke="#63b8ff" d="M777.27,-391.71C858.98,-386.85 1085.51,-372.2 1273,-349 1274.3,-348.84 1275.62,-348.67 1276.95,-348.49"/>
<polygon fill="#63b8ff" stroke="#63b8ff" points="1277.87,-351.9 1287.28,-347.02 1276.88,-344.97 1277.87,-351.9"/>
</a>
</g>
</g>
<!-- Node7&#45;&gt;Node10 -->
<g id="edge49_Node000007_Node000010" class="edge">
<title>Node7&#45;&gt;Node10</title>
<g id="a_edge49_Node000007_Node000010"><a xlink:title=" ">
<path fill="none" stroke="#63b8ff" d="M748.99,-384.81C754.08,-371.23 765.72,-344.98 784,-330 856.09,-270.93 965.87,-245.68 1024.25,-235.93"/>
<polygon fill="#63b8ff" stroke="#63b8ff" points="1024.86,-239.38 1034.19,-234.34 1023.76,-232.47 1024.86,-239.38"/>
</a>
</g>
</g>
<!-- Node17 -->
<g id="Node000017" class="node">
<title>Node17</title>
<g id="a_Node000017"><a xlink:title=" ">
<polygon fill="#e0e0e0" stroke="#999999" points="1721.5,-129 1602.5,-129 1602.5,-110 1721.5,-110 1721.5,-129"/>
<text text-anchor="middle" x="1662" y="-117" font-family="Helvetica,sans-Serif" font-size="10.00">interface/device.pb.h</text>
</a>
</g>
</g>
<!-- Node7&#45;&gt;Node17 -->
<g id="edge55_Node000007_Node000017" class="edge">
<title>Node7&#45;&gt;Node17</title>
<g id="a_edge55_Node000007_Node000017"><a xlink:title=" ">
<path fill="none" stroke="#63b8ff" d="M777.4,-390.37C831.77,-384.59 946.77,-370.82 1042,-349 1279.17,-294.66 1548.94,-173.51 1634.48,-133.56"/>
<polygon fill="#63b8ff" stroke="#63b8ff" points="1636.2,-136.62 1643.76,-129.2 1633.22,-130.28 1636.2,-136.62"/>
</a>
</g>
</g>
<!-- Node28 -->
<g id="Node000028" class="node">
<title>Node28</title>
<g id="a_Node000028"><a xlink:href="Path_8h.html" target="_top" xlink:title="Handles Path objects used to uniquely identify and access OIDs.">
<polygon fill="white" stroke="#666666" points="750.5,-184 703.5,-184 703.5,-165 750.5,-165 750.5,-184"/>
<text text-anchor="middle" x="727" y="-172" font-family="Helvetica,sans-Serif" font-size="10.00">Path.h</text>
</a>
</g>
</g>
<!-- Node7&#45;&gt;Node28 -->
<g id="edge48_Node000007_Node000028" class="edge">
<title>Node7&#45;&gt;Node28</title>
<g id="a_edge48_Node000007_Node000028"><a xlink:title=" ">
<path fill="none" stroke="#63b8ff" d="M745.26,-384.95C742.47,-352.95 732.59,-239.68 728.65,-194.4"/>
<polygon fill="#63b8ff" stroke="#63b8ff" points="732.12,-193.88 727.76,-184.22 725.14,-194.49 732.12,-193.88"/>
</a>
</g>
</g>
<!-- Node30 -->
<g id="Node000030" class="node">
<title>Node30</title>
<g id="a_Node000030"><a xlink:title=" ">
<polygon fill="#e0e0e0" stroke="#999999" points="547.5,-129 500.5,-129 500.5,-110 547.5,-110 547.5,-129"/>
<text text-anchor="middle" x="524" y="-117" font-family="Helvetica,sans-Serif" font-size="10.00">vector</text>
</a>
</g>
</g>
<!-- Node7&#45;&gt;Node30 -->
<g id="edge57_Node000007_Node000030" class="edge">
<title>Node7&#45;&gt;Node30</title>
<g id="a_edge57_Node000007_Node000030"><a xlink:title=" ">
<path fill="none" stroke="#63b8ff" d="M728.76,-384.81C700.39,-369.15 647,-333.32 647,-285.5 647,-285.5 647,-285.5 647,-228.5 647,-180.5 593.46,-148.83 557.02,-132.83"/>
<polygon fill="#63b8ff" stroke="#63b8ff" points="558.29,-129.57 547.72,-128.92 555.58,-136.02 558.29,-129.57"/>
</a>
</g>
</g>
<!-- Node33 -->
<g id="Node000033" class="node">
<title>Node33</title>
<g id="a_Node000033"><a xlink:href="Status_8h.html" target="_top" xlink:title="Communicates failure status using gRPC&#39;s codes.">
<polygon fill="white" stroke="#666666" points="439,-184 383,-184 383,-165 439,-165 439,-184"/>
<text text-anchor="middle" x="411" y="-172" font-family="Helvetica,sans-Serif" font-size="10.00">Status.h</text>
</a>
</g>
</g>
<!-- Node7&#45;&gt;Node33 -->
<g id="edge53_Node000007_Node000033" class="edge">
<title>Node7&#45;&gt;Node33</title>
<g id="a_edge53_Node000007_Node000033"><a xlink:title=" ">
<path fill="none" stroke="#63b8ff" d="M714.95,-393.76C643.18,-393.65 468.95,-389.17 430,-349 389.27,-306.99 399.17,-229.64 406.5,-194.17"/>
<polygon fill="#63b8ff" stroke="#63b8ff" points="409.96,-194.74 408.72,-184.22 403.13,-193.22 409.96,-194.74"/>
</a>
</g>
</g>
<!-- Node37 -->
<g id="Node000037" class="node">
<title>Node37</title>
<g id="a_Node000037"><a xlink:href="ILanguagePack_8h.html" target="_top" xlink:title="Interface for language packs.">
<polygon fill="white" stroke="#666666" points="1400,-74 1302,-74 1302,-55 1400,-55 1400,-74"/>
<text text-anchor="middle" x="1351" y="-62" font-family="Helvetica,sans-Serif" font-size="10.00">ILanguagePack.h</text>
</a>
</g>
</g>
<!-- Node7&#45;&gt;Node37 -->
<g id="edge50_Node000007_Node000037" class="edge">
<title>Node7&#45;&gt;Node37</title>
<g id="a_edge50_Node000007_Node000037"><a xlink:title=" ">
<path fill="none" stroke="#63b8ff" d="M776.68,-384.98C804.76,-376.85 847.26,-363.68 883,-349 1032.48,-287.6 1070.73,-270.85 1207,-184 1257.01,-152.13 1309.18,-105.2 1334.81,-81.07"/>
<polygon fill="#63b8ff" stroke="#63b8ff" points="1337.32,-83.52 1342.17,-74.09 1332.5,-78.44 1337.32,-83.52"/>
</a>
</g>
</g>
<!-- Node38 -->
<g id="Node000038" class="node">
<title>Node38</title>
<g id="a_Node000038"><a xlink:title=" ">
<polygon fill="#e0e0e0" stroke="#999999" points="874.5,-349 793.5,-349 793.5,-330 874.5,-330 874.5,-349"/>
<text text-anchor="middle" x="834" y="-337" font-family="Helvetica,sans-Serif" font-size="10.00">vdk/signals.h</text>
</a>
</g>
</g>
<!-- Node7&#45;&gt;Node38 -->
<g id="edge54_Node000007_Node000038" class="edge">
<title>Node7&#45;&gt;Node38</title>
<g id="a_edge54_Node000007_Node000038"><a xlink:title=" ">
<path fill="none" stroke="#63b8ff" d="M760.14,-384.98C773.79,-376.77 794.69,-364.18 810.78,-354.49"/>
<polygon fill="#63b8ff" stroke="#63b8ff" points="812.84,-357.33 819.6,-349.17 809.23,-351.33 812.84,-357.33"/>
</a>
</g>
</g>
<!-- Node39 -->
<g id="Node000039" class="node">
<title>Node39</title>
<g id="a_Node000039"><a xlink:title=" ">
<polygon fill="#e0e0e0" stroke="#999999" points="501,-349 439,-349 439,-330 501,-330 501,-349"/>
<text text-anchor="middle" x="470" y="-337" font-family="Helvetica,sans-Serif" font-size="10.00">coroutine</text>
</a>
</g>
</g>
<!-- Node7&#45;&gt;Node39 -->
<g id="edge58_Node000007_Node000039" class="edge">
<title>Node7&#45;&gt;Node39</title>
<g id="a_edge58_Node000007_Node000039"><a xlink:title=" ">
<path fill="none" stroke="#63b8ff" d="M714.65,-387.83C671.26,-379.92 590.18,-364.96 511.51,-349.27"/>
<polygon fill="#63b8ff" stroke="#63b8ff" points="511.92,-345.78 501.43,-347.25 510.55,-352.64 511.92,-345.78"/>
</a>
</g>
</g>
<!-- Node40 -->
<g id="Node000040" class="node">
<title>Node40</title>
<g id="a_Node000040"><a xlink:title=" ">
<polygon fill="#e0e0e0" stroke="#999999" points="567,-349 519,-349 519,-330 567,-330 567,-349"/>
<text text-anchor="middle" x="543" y="-337" font-family="Helvetica,sans-Serif" font-size="10.00">mutex</text>
</a>
</g>
</g>
<!-- Node7&#45;&gt;Node40 -->
<g id="edge59_Node000007_Node000040" class="edge">
<title>Node7&#45;&gt;Node40</title>
<g id="a_edge59_Node000007_Node000040"><a xlink:title=" ">
<path fill="none" stroke="#63b8ff" d="M714.73,-385.33C677.46,-375.61 615.43,-359.41 577,-349.38"/>
<polygon fill="#63b8ff" stroke="#63b8ff" points="577.86,-345.98 567.3,-346.84 576.09,-352.76 577.86,-345.98"/>
</a>
</g>
</g>
<!-- Node8&#45;&gt;Node5 -->
<g id="edge47_Node000008_Node000005" class="edge">
<title>Node8&#45;&gt;Node5</title>
<g id="a_edge47_Node000008_Node000005"><a xlink:title=" ">
<path fill="none" stroke="#63b8ff" d="M1339.94,-329.98C1354.5,-321.69 1376.87,-308.94 1393.93,-299.22"/>
<polygon fill="#63b8ff" stroke="#63b8ff" points="1395.83,-302.16 1402.79,-294.17 1392.36,-296.08 1395.83,-302.16"/>
</a>
</g>
</g>
<!-- Node9 -->
<g id="Node000009" class="node">
<title>Node9</title>
<g id="a_Node000009"><a xlink:href="IAuthorizer_8h.html" target="_top" xlink:title="Interface for the Authorizer class.">
<polygon fill="white" stroke="#666666" points="1210,-294 1132,-294 1132,-275 1210,-275 1210,-294"/>
<text text-anchor="middle" x="1171" y="-282" font-family="Helvetica,sans-Serif" font-size="10.00">IAuthorizer.h</text>
</a>
</g>
</g>
<!-- Node8&#45;&gt;Node9 -->
<g id="edge8_Node000008_Node000009" class="edge">
<title>Node8&#45;&gt;Node9</title>
<g id="a_edge8_Node000008_Node000009"><a xlink:title=" ">
<path fill="none" stroke="#63b8ff" d="M1300.26,-329.98C1274.63,-321.16 1234.37,-307.31 1205.59,-297.41"/>
<polygon fill="#63b8ff" stroke="#63b8ff" points="1206.53,-294.03 1195.94,-294.08 1204.25,-300.65 1206.53,-294.03"/>
</a>
</g>
</g>
<!-- Node23 -->
<g id="Node000023" class="node">
<title>Node23</title>
<g id="a_Node000023"><a xlink:title=" ">
<polygon fill="#e0e0e0" stroke="#999999" points="1100.5,-74 1035.5,-74 1035.5,-55 1100.5,-55 1100.5,-74"/>
<text text-anchor="middle" x="1068" y="-62" font-family="Helvetica,sans-Serif" font-size="10.00">functional</text>
</a>
</g>
</g>
<!-- Node8&#45;&gt;Node23 -->
<g id="edge46_Node000008_Node000023" class="edge">
<title>Node8&#45;&gt;Node23</title>
<g id="a_edge46_Node000008_Node000023"><a xlink:title=" ">
<path fill="none" stroke="#63b8ff" d="M1317.06,-329.71C1309.93,-321.23 1299.85,-307.7 1295,-294 1267.63,-216.61 1333.42,-171.45 1279,-110 1276.19,-106.83 1171.85,-85.89 1110.97,-73.9"/>
<polygon fill="#63b8ff" stroke="#63b8ff" points="1111.36,-70.41 1100.87,-71.91 1110,-77.28 1111.36,-70.41"/>
</a>
</g>
</g>
<!-- Node36 -->
<g id="Node000036" class="node">
<title>Node36</title>
<g id="a_Node000036"><a xlink:title=" ">
<polygon fill="#e0e0e0" stroke="#999999" points="1384,-294 1304,-294 1304,-275 1384,-275 1384,-294"/>
<text text-anchor="middle" x="1344" y="-282" font-family="Helvetica,sans-Serif" font-size="10.00">jwt&#45;cpp/jwt.h</text>
</a>
</g>
</g>
<!-- Node8&#45;&gt;Node36 -->
<g id="edge45_Node000008_Node000036" class="edge">
<title>Node8&#45;&gt;Node36</title>
<g id="a_edge45_Node000008_Node000036"><a xlink:title=" ">
<path fill="none" stroke="#63b8ff" d="M1328.14,-329.75C1330.68,-322.65 1334.36,-312.4 1337.53,-303.56"/>
<polygon fill="#63b8ff" stroke="#63b8ff" points="1340.84,-304.68 1340.92,-294.09 1334.25,-302.32 1340.84,-304.68"/>
</a>
</g>
</g>
<!-- Node9&#45;&gt;Node10 -->
<g id="edge9_Node000009_Node000010" class="edge">
<title>Node9&#45;&gt;Node10</title>
<g id="a_edge9_Node000009_Node000010"><a xlink:title=" ">
<path fill="none" stroke="#63b8ff" d="M1153.81,-274.98C1136.75,-266.54 1110.37,-253.47 1090.6,-243.68"/>
<polygon fill="#63b8ff" stroke="#63b8ff" points="1092.02,-240.47 1081.5,-239.17 1088.91,-246.75 1092.02,-240.47"/>
</a>
</g>
</g>
<!-- Node11 -->
<g id="Node000011" class="node">
<title>Node11</title>
<g id="a_Node000011"><a xlink:href="Enums_8h.html" target="_top" xlink:title="tools for using EnumDecorators.">
<polygon fill="white" stroke="#666666" points="1423.5,-184 1364.5,-184 1364.5,-165 1423.5,-165 1423.5,-184"/>
<text text-anchor="middle" x="1394" y="-172" font-family="Helvetica,sans-Serif" font-size="10.00">Enums.h</text>
</a>
</g>
</g>
<!-- Node9&#45;&gt;Node11 -->
<g id="edge44_Node000009_Node000011" class="edge">
<title>Node9&#45;&gt;Node11</title>
<g id="a_edge44_Node000009_Node000011"><a xlink:title=" ">
<path fill="none" stroke="#63b8ff" d="M1188.07,-274.99C1212.73,-262.73 1259.76,-239.43 1300,-220 1322.29,-209.24 1347.67,-197.24 1366.43,-188.42"/>
<polygon fill="#63b8ff" stroke="#63b8ff" points="1368.02,-191.53 1375.59,-184.11 1365.05,-185.2 1368.02,-191.53"/>
</a>
</g>
</g>
<!-- Node21 -->
<g id="Node000021" class="node">
<title>Node21</title>
<g id="a_Node000021"><a xlink:href="IParamDescriptor_8h.html" target="_top" xlink:title="Interface class for ParamDescriptor.">
<polygon fill="white" stroke="#666666" points="1197.5,-184 1088.5,-184 1088.5,-165 1197.5,-165 1197.5,-184"/>
<text text-anchor="middle" x="1143" y="-172" font-family="Helvetica,sans-Serif" font-size="10.00">IParamDescriptor.h</text>
</a>
</g>
</g>
<!-- Node9&#45;&gt;Node21 -->
<g id="edge43_Node000009_Node000021" class="edge">
<title>Node9&#45;&gt;Node21</title>
<g id="a_edge43_Node000009_Node000021"><a xlink:title=" ">
<path fill="none" stroke="#63b8ff" d="M1168.71,-274.66C1164.15,-257.09 1153.88,-217.45 1147.78,-193.95"/>
<polygon fill="#63b8ff" stroke="#63b8ff" points="1151.14,-192.96 1145.24,-184.16 1144.37,-194.72 1151.14,-192.96"/>
</a>
</g>
</g>
<!-- Node10&#45;&gt;Node11 -->
<g id="edge10_Node000010_Node000011" class="edge">
<title>Node10&#45;&gt;Node11</title>
<g id="a_edge10_Node000010_Node000011"><a xlink:title=" ">
<path fill="none" stroke="#63b8ff" d="M1093.58,-223.75C1153.04,-214.2 1287.12,-192.67 1354.2,-181.89"/>
<polygon fill="#63b8ff" stroke="#63b8ff" points="1355.05,-185.3 1364.37,-180.26 1353.94,-178.39 1355.05,-185.3"/>
</a>
</g>
</g>
<!-- Node18 -->
<g id="Node000018" class="node">
<title>Node18</title>
<g id="a_Node000018"><a xlink:href="IConstraint_8h.html" target="_top" xlink:title="Interface for constraints.">
<polygon fill="white" stroke="#666666" points="1031.5,-184 952.5,-184 952.5,-165 1031.5,-165 1031.5,-184"/>
<text text-anchor="middle" x="992" y="-172" font-family="Helvetica,sans-Serif" font-size="10.00">IConstraint.h</text>
</a>
</g>
</g>
<!-- Node10&#45;&gt;Node18 -->
<g id="edge19_Node000010_Node000018" class="edge">
<title>Node10&#45;&gt;Node18</title>
<g id="a_edge19_Node000010_Node000018"><a xlink:title=" ">
<path fill="none" stroke="#63b8ff" d="M1052.43,-219.98C1041.58,-212 1025.12,-199.88 1012.12,-190.31"/>
<polygon fill="#63b8ff" stroke="#63b8ff" points="1013.91,-187.28 1003.78,-184.17 1009.76,-192.92 1013.91,-187.28"/>
</a>
</g>
</g>
<!-- Node19 -->
<g id="Node000019" class="node">
<title>Node19</title>
<g id="a_Node000019"><a xlink:title=" ">
<polygon fill="#e0e0e0" stroke="#999999" points="1100.5,-129 981.5,-129 981.5,-110 1100.5,-110 1100.5,-129"/>
<text text-anchor="middle" x="1041" y="-117" font-family="Helvetica,sans-Serif" font-size="10.00">interface/param.pb.h</text>
</a>
</g>
</g>
<!-- Node10&#45;&gt;Node19 -->
<g id="edge42_Node000010_Node000019" class="edge">
<title>Node10&#45;&gt;Node19</title>
<g id="a_edge42_Node000010_Node000019"><a xlink:title=" ">
<path fill="none" stroke="#63b8ff" d="M1062.12,-219.66C1058.38,-202.09 1049.93,-162.45 1044.93,-138.95"/>
<polygon fill="#63b8ff" stroke="#63b8ff" points="1048.35,-138.21 1042.84,-129.16 1041.5,-139.67 1048.35,-138.21"/>
</a>
</g>
</g>
<!-- Node10&#45;&gt;Node21 -->
<g id="edge22_Node000010_Node000021" class="edge">
<title>Node10&#45;&gt;Node21</title>
<g id="a_edge22_Node000010_Node000021"><a xlink:title=" ">
<path fill="none" stroke="#63b8ff" d="M1076.69,-219.98C1088.83,-211.84 1107.36,-199.41 1121.75,-189.76"/>
<polygon fill="#63b8ff" stroke="#63b8ff" points="1123.72,-192.65 1130.08,-184.17 1119.82,-186.84 1123.72,-192.65"/>
</a>
</g>
</g>
<!-- Node10&#45;&gt;Node28 -->
<g id="edge33_Node000010_Node000028" class="edge">
<title>Node10&#45;&gt;Node28</title>
<g id="a_edge33_Node000010_Node000028"><a xlink:title=" ">
<path fill="none" stroke="#63b8ff" d="M1034.39,-223.84C971.88,-214.01 826.8,-191.2 760.79,-180.81"/>
<polygon fill="#63b8ff" stroke="#63b8ff" points="761.32,-177.35 750.9,-179.26 760.23,-184.27 761.32,-177.35"/>
</a>
</g>
</g>
<!-- Node10&#45;&gt;Node33 -->
<g id="edge39_Node000010_Node000033" class="edge">
<title>Node10&#45;&gt;Node33</title>
<g id="a_edge39_Node000010_Node000033"><a xlink:title=" ">
<path fill="none" stroke="#63b8ff" d="M1034.25,-226.08C928.04,-217.47 567.67,-188.22 449.14,-178.6"/>
<polygon fill="#63b8ff" stroke="#63b8ff" points="449.33,-175.1 439.08,-177.78 448.76,-182.08 449.33,-175.1"/>
</a>
</g>
</g>
<!-- Node12 -->
<g id="Node000012" class="node">
<title>Node12</title>
<g id="a_Node000012"><a xlink:href="EnumDecorator_8h.html" target="_top" xlink:title="Provides an enum with useful extra functionality.">
<polygon fill="white" stroke="#666666" points="1546,-129 1402,-129 1402,-110 1546,-110 1546,-129"/>
<text text-anchor="middle" x="1474" y="-117" font-family="Helvetica,sans-Serif" font-size="10.00">patterns/EnumDecorator.h</text>
</a>
</g>
</g>
<!-- Node11&#45;&gt;Node12 -->
<g id="edge11_Node000011_Node000012" class="edge">
<title>Node11&#45;&gt;Node12</title>
<g id="a_edge11_Node000011_Node000012"><a xlink:title=" ">
<path fill="none" stroke="#63b8ff" d="M1406.85,-164.98C1419.14,-156.84 1437.91,-144.41 1452.48,-134.76"/>
<polygon fill="#63b8ff" stroke="#63b8ff" points="1454.51,-137.61 1460.91,-129.17 1450.64,-131.78 1454.51,-137.61"/>
</a>
</g>
</g>
<!-- Node14 -->
<g id="Node000014" class="node">
<title>Node14</title>
<g id="a_Node000014"><a xlink:title=" ">
<polygon fill="#e0e0e0" stroke="#999999" points="1722,-74 1672,-74 1672,-55 1722,-55 1722,-74"/>
<text text-anchor="middle" x="1697" y="-62" font-family="Helvetica,sans-Serif" font-size="10.00">cstdint</text>
</a>
</g>
</g>
<!-- Node11&#45;&gt;Node14 -->
<g id="edge18_Node000011_Node000014" class="edge">
<title>Node11&#45;&gt;Node14</title>
<g id="a_edge18_Node000011_Node000014"><a xlink:title=" ">
<path fill="none" stroke="#63b8ff" d="M1423.6,-167.04C1456.3,-159.52 1510.24,-145.92 1555,-129 1573.03,-122.18 1576.48,-118.05 1594,-110 1618.34,-98.82 1646.25,-86.81 1666.87,-78.09"/>
<polygon fill="#63b8ff" stroke="#63b8ff" points="1668.5,-81.2 1676.36,-74.09 1665.78,-74.75 1668.5,-81.2"/>
</a>
</g>
</g>
<!-- Node11&#45;&gt;Node17 -->
<g id="edge17_Node000011_Node000017" class="edge">
<title>Node11&#45;&gt;Node17</title>
<g id="a_edge17_Node000011_Node000017"><a xlink:title=" ">
<path fill="none" stroke="#63b8ff" d="M1423.7,-167.63C1468.35,-158.8 1553.43,-141.97 1608.91,-131"/>
<polygon fill="#63b8ff" stroke="#63b8ff" points="1609.78,-134.39 1618.91,-129.02 1608.42,-127.53 1609.78,-134.39"/>
</a>
</g>
</g>
<!-- Node12&#45;&gt;Node6 -->
<g id="edge15_Node000012_Node000006" class="edge">
<title>Node12&#45;&gt;Node6</title>
<g id="a_edge15_Node000012_Node000006"><a xlink:title=" ">
<path fill="none" stroke="#63b8ff" d="M1401.85,-112.43C1343.14,-106.28 1258.58,-94.64 1187,-74 1166.53,-68.1 1162.92,-62.54 1143,-55 1107.82,-41.68 1066.68,-28.55 1038.94,-20.05"/>
<polygon fill="#63b8ff" stroke="#63b8ff" points="1039.95,-16.69 1029.36,-17.13 1037.91,-23.39 1039.95,-16.69"/>
</a>
</g>
</g>
<!-- Node13 -->
<g id="Node000013" class="node">
<title>Node13</title>
<g id="a_Node000013"><a xlink:href="ReflectionMacros_8h.html" target="_top" xlink:title="adapted from https://github.com/tapika/TestCppReflect">
<polygon fill="white" stroke="#666666" points="1616,-74 1506,-74 1506,-55 1616,-55 1616,-74"/>
<text text-anchor="middle" x="1561" y="-62" font-family="Helvetica,sans-Serif" font-size="10.00">ReflectionMacros.h</text>
</a>
</g>
</g>
<!-- Node12&#45;&gt;Node13 -->
<g id="edge12_Node000012_Node000013" class="edge">
<title>Node12&#45;&gt;Node13</title>
<g id="a_edge12_Node000012_Node000013"><a xlink:title=" ">
<path fill="none" stroke="#63b8ff" d="M1487.98,-109.98C1501.47,-101.77 1522.13,-89.18 1538.04,-79.49"/>
<polygon fill="#63b8ff" stroke="#63b8ff" points="1540.05,-82.36 1546.77,-74.17 1536.41,-76.38 1540.05,-82.36"/>
</a>
</g>
</g>
<!-- Node12&#45;&gt;Node14 -->
<g id="edge13_Node000012_Node000014" class="edge">
<title>Node12&#45;&gt;Node14</title>
<g id="a_edge13_Node000012_Node000014"><a xlink:title=" ">
<path fill="none" stroke="#63b8ff" d="M1509.83,-109.98C1551.71,-100.03 1620.56,-83.67 1662.06,-73.8"/>
<polygon fill="#63b8ff" stroke="#63b8ff" points="1663.07,-77.16 1671.99,-71.45 1661.45,-70.35 1663.07,-77.16"/>
</a>
</g>
</g>
<!-- Node12&#45;&gt;Node15 -->
<g id="edge14_Node000012_Node000015" class="edge">
<title>Node12&#45;&gt;Node15</title>
<g id="a_edge14_Node000012_Node000015"><a xlink:title=" ">
<path fill="none" stroke="#63b8ff" d="M1525.88,-109.99C1564.64,-102.46 1612.93,-90.14 1625,-74 1638.47,-55.99 1615.76,-36.64 1595.57,-24.1"/>
<polygon fill="#63b8ff" stroke="#63b8ff" points="1597.29,-21.05 1586.9,-19 1593.75,-27.09 1597.29,-21.05"/>
</a>
</g>
</g>
<!-- Node16 -->
<g id="Node000016" class="node">
<title>Node16</title>
<g id="a_Node000016"><a xlink:title=" ">
<polygon fill="#e0e0e0" stroke="#999999" points="1487.5,-74 1418.5,-74 1418.5,-55 1487.5,-55 1487.5,-74"/>
<text text-anchor="middle" x="1453" y="-62" font-family="Helvetica,sans-Serif" font-size="10.00">type_traits</text>
</a>
</g>
</g>
<!-- Node12&#45;&gt;Node16 -->
<g id="edge16_Node000012_Node000016" class="edge">
<title>Node12&#45;&gt;Node16</title>
<g id="a_edge16_Node000012_Node000016"><a xlink:title=" ">
<path fill="none" stroke="#63b8ff" d="M1470.53,-109.75C1467.72,-102.65 1463.66,-92.4 1460.15,-83.56"/>
<polygon fill="#63b8ff" stroke="#63b8ff" points="1463.34,-82.1 1456.4,-74.09 1456.83,-84.68 1463.34,-82.1"/>
</a>
</g>
</g>
<!-- Node18&#45;&gt;Node19 -->
<g id="edge20_Node000018_Node000019" class="edge">
<title>Node18&#45;&gt;Node19</title>
<g id="a_edge20_Node000018_Node000019"><a xlink:title=" ">
<path fill="none" stroke="#63b8ff" d="M1000.09,-164.75C1007.16,-157.11 1017.59,-145.82 1026.15,-136.56"/>
<polygon fill="#63b8ff" stroke="#63b8ff" points="1028.84,-138.81 1033.06,-129.09 1023.7,-134.06 1028.84,-138.81"/>
</a>
</g>
</g>
<!-- Node20 -->
<g id="Node000020" class="node">
<title>Node20</title>
<g id="a_Node000020"><a xlink:title=" ">
<polygon fill="#e0e0e0" stroke="#999999" points="963,-129 827,-129 827,-110 963,-110 963,-129"/>
<text text-anchor="middle" x="895" y="-117" font-family="Helvetica,sans-Serif" font-size="10.00">interface/constraint.pb.h</text>
</a>
</g>
</g>
<!-- Node18&#45;&gt;Node20 -->
<g id="edge21_Node000018_Node000020" class="edge">
<title>Node18&#45;&gt;Node20</title>
<g id="a_edge21_Node000018_Node000020"><a xlink:title=" ">
<path fill="none" stroke="#63b8ff" d="M976.42,-164.98C961.23,-156.69 937.9,-143.94 920.1,-134.22"/>
<polygon fill="#63b8ff" stroke="#63b8ff" points="921.32,-130.89 910.87,-129.17 917.97,-137.04 921.32,-130.89"/>
</a>
</g>
</g>
<!-- Node21&#45;&gt;Node19 -->
<g id="edge32_Node000021_Node000019" class="edge">
<title>Node21&#45;&gt;Node19</title>
<g id="a_edge32_Node000021_Node000019"><a xlink:title=" ">
<path fill="none" stroke="#63b8ff" d="M1126.61,-164.98C1110.43,-156.57 1085.43,-143.59 1066.62,-133.81"/>
<polygon fill="#63b8ff" stroke="#63b8ff" points="1068.17,-130.68 1057.69,-129.17 1064.95,-136.89 1068.17,-130.68"/>
</a>
</g>
</g>
<!-- Node22 -->
<g id="Node000022" class="node">
<title>Node22</title>
<g id="a_Node000022"><a xlink:href="Tags_8h.html" target="_top" xlink:title="Tags to differentiate collections with the same type for template specialization.">
<polygon fill="white" stroke="#666666" points="1165.5,-129 1118.5,-129 1118.5,-110 1165.5,-110 1165.5,-129"/>
<text text-anchor="middle" x="1142" y="-117" font-family="Helvetica,sans-Serif" font-size="10.00">Tags.h</text>
</a>
</g>
</g>
<!-- Node21&#45;&gt;Node22 -->
<g id="edge23_Node000021_Node000022" class="edge">
<title>Node21&#45;&gt;Node22</title>
<g id="a_edge23_Node000021_Node000022"><a xlink:title=" ">
<path fill="none" stroke="#63b8ff" d="M1142.83,-164.75C1142.7,-157.8 1142.52,-147.85 1142.35,-139.13"/>
<polygon fill="#63b8ff" stroke="#63b8ff" points="1145.85,-139.02 1142.16,-129.09 1138.85,-139.15 1145.85,-139.02"/>
</a>
</g>
</g>
<!-- Node24 -->
<g id="Node000024" class="node">
<title>Node24</title>
<g id="a_Node000024"><a xlink:href="PolyglotText_8h.html" target="_top" xlink:title="Polyglot Text serialization and deserialization to protobuf.">
<polygon fill="white" stroke="#666666" points="1270,-129 1184,-129 1184,-110 1270,-110 1270,-129"/>
<text text-anchor="middle" x="1227" y="-117" font-family="Helvetica,sans-Serif" font-size="10.00">PolyglotText.h</text>
</a>
</g>
</g>
<!-- Node21&#45;&gt;Node24 -->
<g id="edge26_Node000021_Node000024" class="edge">
<title>Node21&#45;&gt;Node24</title>
<g id="a_edge26_Node000021_Node000024"><a xlink:title=" ">
<path fill="none" stroke="#63b8ff" d="M1156.5,-164.98C1169.4,-156.84 1189.1,-144.41 1204.4,-134.76"/>
<polygon fill="#63b8ff" stroke="#63b8ff" points="1206.67,-137.47 1213.26,-129.17 1202.93,-131.55 1206.67,-137.47"/>
</a>
</g>
</g>
<!-- Node22&#45;&gt;Node6 -->
<g id="edge25_Node000022_Node000006" class="edge">
<title>Node22&#45;&gt;Node6</title>
<g id="a_edge25_Node000022_Node000006"><a xlink:title=" ">
<path fill="none" stroke="#63b8ff" d="M1118.36,-112.11C1088.33,-103.55 1038.83,-87.84 1026,-74 1014.75,-61.87 1010.15,-43.34 1008.27,-29.42"/>
<polygon fill="#63b8ff" stroke="#63b8ff" points="1011.71,-28.67 1007.25,-19.06 1004.74,-29.35 1011.71,-28.67"/>
</a>
</g>
</g>
<!-- Node22&#45;&gt;Node23 -->
<g id="edge24_Node000022_Node000023" class="edge">
<title>Node22&#45;&gt;Node23</title>
<g id="a_edge24_Node000022_Node000023"><a xlink:title=" ">
<path fill="none" stroke="#63b8ff" d="M1130.11,-109.98C1118.85,-101.92 1101.71,-89.65 1088.29,-80.03"/>
<polygon fill="#63b8ff" stroke="#63b8ff" points="1090.27,-77.15 1080.11,-74.17 1086.2,-82.84 1090.27,-77.15"/>
</a>
</g>
</g>
<!-- Node25 -->
<g id="Node000025" class="node">
<title>Node25</title>
<g id="a_Node000025"><a xlink:href="IPolyglotText_8h.html" target="_top" xlink:title="Catena&#39;s multi&#45;language text interface.">
<polygon fill="white" stroke="#666666" points="1284.5,-74 1195.5,-74 1195.5,-55 1284.5,-55 1284.5,-74"/>
<text text-anchor="middle" x="1240" y="-62" font-family="Helvetica,sans-Serif" font-size="10.00">IPolyglotText.h</text>
</a>
</g>
</g>
<!-- Node24&#45;&gt;Node25 -->
<g id="edge27_Node000024_Node000025" class="edge">
<title>Node24&#45;&gt;Node25</title>
<g id="a_edge27_Node000024_Node000025"><a xlink:title=" ">
<path fill="none" stroke="#63b8ff" d="M1229.15,-109.75C1230.87,-102.72 1233.35,-92.62 1235.5,-83.84"/>
<polygon fill="#63b8ff" stroke="#63b8ff" points="1238.91,-84.63 1237.89,-74.09 1232.11,-82.97 1238.91,-84.63"/>
</a>
</g>
</g>
<!-- Node25&#45;&gt;Node6 -->
<g id="edge30_Node000025_Node000006" class="edge">
<title>Node25&#45;&gt;Node6</title>
<g id="a_edge30_Node000025_Node000006"><a xlink:title=" ">
<path fill="none" stroke="#63b8ff" d="M1202.56,-54.98C1157.29,-44.69 1081.84,-27.52 1039.1,-17.8"/>
<polygon fill="#63b8ff" stroke="#63b8ff" points="1039.76,-14.36 1029.23,-15.56 1038.21,-21.19 1039.76,-14.36"/>
</a>
</g>
</g>
<!-- Node25&#45;&gt;Node15 -->
<g id="edge29_Node000025_Node000015" class="edge">
<title>Node25&#45;&gt;Node15</title>
<g id="a_edge29_Node000025_Node000015"><a xlink:title=" ">
<path fill="none" stroke="#63b8ff" d="M1284.51,-56.35C1343.71,-46.84 1448.41,-30.03 1513.23,-19.62"/>
<polygon fill="#63b8ff" stroke="#63b8ff" points="1513.96,-23.05 1523.28,-18 1512.85,-16.13 1513.96,-23.05"/>
</a>
</g>
</g>
<!-- Node26 -->
<g id="Node000026" class="node">
<title>Node26</title>
<g id="a_Node000026"><a xlink:title=" ">
<polygon fill="#e0e0e0" stroke="#999999" points="1369,-19 1237,-19 1237,0 1369,0 1369,-19"/>
<text text-anchor="middle" x="1303" y="-7" font-family="Helvetica,sans-Serif" font-size="10.00">interface/language.pb.h</text>
</a>
</g>
</g>
<!-- Node25&#45;&gt;Node26 -->
<g id="edge28_Node000025_Node000026" class="edge">
<title>Node25&#45;&gt;Node26</title>
<g id="a_edge28_Node000025_Node000026"><a xlink:title=" ">
<path fill="none" stroke="#63b8ff" d="M1250.12,-54.98C1259.44,-47.15 1273.47,-35.34 1284.74,-25.86"/>
<polygon fill="#63b8ff" stroke="#63b8ff" points="1287.29,-28.29 1292.69,-19.17 1282.79,-22.93 1287.29,-28.29"/>
</a>
</g>
</g>
<!-- Node27 -->
<g id="Node000027" class="node">
<title>Node27</title>
<g id="a_Node000027"><a xlink:title=" ">
<polygon fill="#e0e0e0" stroke="#999999" points="1218.5,-19 1135.5,-19 1135.5,0 1218.5,0 1218.5,-19"/>
<text text-anchor="middle" x="1177" y="-7" font-family="Helvetica,sans-Serif" font-size="10.00">initializer_list</text>
</a>
</g>
</g>
<!-- Node25&#45;&gt;Node27 -->
<g id="edge31_Node000025_Node000027" class="edge">
<title>Node25&#45;&gt;Node27</title>
<g id="a_edge31_Node000025_Node000027"><a xlink:title=" ">
<path fill="none" stroke="#63b8ff" d="M1229.88,-54.98C1220.56,-47.15 1206.53,-35.34 1195.26,-25.86"/>
<polygon fill="#63b8ff" stroke="#63b8ff" points="1197.21,-22.93 1187.31,-19.17 1192.71,-28.29 1197.21,-22.93"/>
</a>
</g>
</g>
<!-- Node28&#45;&gt;Node6 -->
<g id="edge35_Node000028_Node000006" class="edge">
<title>Node28&#45;&gt;Node6</title>
<g id="a_edge35_Node000028_Node000006"><a xlink:title=" ">
<path fill="none" stroke="#63b8ff" d="M738.47,-164.8C755.43,-152.1 788.38,-128.03 818,-110 873.82,-76.01 942.37,-41.66 979.65,-23.56"/>
<polygon fill="#63b8ff" stroke="#63b8ff" points="981.39,-26.61 988.87,-19.1 978.34,-20.3 981.39,-26.61"/>
</a>
</g>
</g>
<!-- Node29 -->
<g id="Node000029" class="node">
<title>Node29</title>
<g id="a_Node000029"><a xlink:title=" ">
<polygon fill="#e0e0e0" stroke="#999999" points="771,-129 711,-129 711,-110 771,-110 771,-129"/>
<text text-anchor="middle" x="741" y="-117" font-family="Helvetica,sans-Serif" font-size="10.00">iostream</text>
</a>
</g>
</g>
<!-- Node28&#45;&gt;Node29 -->
<g id="edge34_Node000028_Node000029" class="edge">
<title>Node28&#45;&gt;Node29</title>
<g id="a_edge34_Node000028_Node000029"><a xlink:title=" ">
<path fill="none" stroke="#63b8ff" d="M729.31,-164.75C731.17,-157.72 733.84,-147.62 736.15,-138.84"/>
<polygon fill="#63b8ff" stroke="#63b8ff" points="739.56,-139.65 738.73,-129.09 732.79,-137.86 739.56,-139.65"/>
</a>
</g>
</g>
<!-- Node28&#45;&gt;Node30 -->
<g id="edge36_Node000028_Node000030" class="edge">
<title>Node28&#45;&gt;Node30</title>
<g id="a_edge36_Node000028_Node000030"><a xlink:title=" ">
<path fill="none" stroke="#63b8ff" d="M703.48,-167.42C672.31,-159.35 615.34,-144.58 557.76,-129.45"/>
<polygon fill="#63b8ff" stroke="#63b8ff" points="558.32,-125.98 547.76,-126.83 556.54,-132.75 558.32,-125.98"/>
</a>
</g>
</g>
<!-- Node31 -->
<g id="Node000031" class="node">
<title>Node31</title>
<g id="a_Node000031"><a xlink:title=" ">
<polygon fill="#e0e0e0" stroke="#999999" points="616.5,-129 565.5,-129 565.5,-110 616.5,-110 616.5,-129"/>
<text text-anchor="middle" x="591" y="-117" font-family="Helvetica,sans-Serif" font-size="10.00">variant</text>
</a>
</g>
</g>
<!-- Node28&#45;&gt;Node31 -->
<g id="edge37_Node000028_Node000031" class="edge">
<title>Node28&#45;&gt;Node31</title>
<g id="a_edge37_Node000028_Node000031"><a xlink:title=" ">
<path fill="none" stroke="#63b8ff" d="M705.15,-164.98C682.88,-156.3 648.1,-142.75 622.78,-132.88"/>
<polygon fill="#63b8ff" stroke="#63b8ff" points="623.84,-129.54 613.25,-129.17 621.29,-136.06 623.84,-129.54"/>
</a>
</g>
</g>
<!-- Node32 -->
<g id="Node000032" class="node">
<title>Node32</title>
<g id="a_Node000032"><a xlink:title=" ">
<polygon fill="#e0e0e0" stroke="#999999" points="693,-129 635,-129 635,-110 693,-110 693,-129"/>
<text text-anchor="middle" x="664" y="-117" font-family="Helvetica,sans-Serif" font-size="10.00">memory</text>
</a>
</g>
</g>
<!-- Node28&#45;&gt;Node32 -->
<g id="edge38_Node000028_Node000032" class="edge">
<title>Node28&#45;&gt;Node32</title>
<g id="a_edge38_Node000028_Node000032"><a xlink:title=" ">
<path fill="none" stroke="#63b8ff" d="M716.88,-164.98C707.56,-157.15 693.53,-145.34 682.26,-135.86"/>
<polygon fill="#63b8ff" stroke="#63b8ff" points="684.21,-132.93 674.31,-129.17 679.71,-138.29 684.21,-132.93"/>
</a>
</g>
</g>
<!-- Node34 -->
<g id="Node000034" class="node">
<title>Node34</title>
<g id="a_Node000034"><a xlink:title=" ">
<polygon fill="#e0e0e0" stroke="#999999" points="360,-129 304,-129 304,-110 360,-110 360,-129"/>
<text text-anchor="middle" x="332" y="-117" font-family="Helvetica,sans-Serif" font-size="10.00">sstream</text>
</a>
</g>
</g>
<!-- Node33&#45;&gt;Node34 -->
<g id="edge40_Node000033_Node000034" class="edge">
<title>Node33&#45;&gt;Node34</title>
<g id="a_edge40_Node000033_Node000034"><a xlink:title=" ">
<path fill="none" stroke="#63b8ff" d="M398.31,-164.98C386.17,-156.84 367.64,-144.41 353.25,-134.76"/>
<polygon fill="#63b8ff" stroke="#63b8ff" points="355.18,-131.84 344.92,-129.17 351.28,-137.65 355.18,-131.84"/>
</a>
</g>
</g>
<!-- Node35 -->
<g id="Node000035" class="node">
<title>Node35</title>
<g id="a_Node000035"><a xlink:title=" ">
<polygon fill="#e0e0e0" stroke="#999999" points="443.5,-129 378.5,-129 378.5,-110 443.5,-110 443.5,-129"/>
<text text-anchor="middle" x="411" y="-117" font-family="Helvetica,sans-Serif" font-size="10.00">stdexcept</text>
</a>
</g>
</g>
<!-- Node33&#45;&gt;Node35 -->
<g id="edge41_Node000033_Node000035" class="edge">
<title>Node33&#45;&gt;Node35</title>
<g id="a_edge41_Node000033_Node000035"><a xlink:title=" ">
<path fill="none" stroke="#63b8ff" d="M411,-164.75C411,-157.8 411,-147.85 411,-139.13"/>
<polygon fill="#63b8ff" stroke="#63b8ff" points="414.5,-139.09 411,-129.09 407.5,-139.09 414.5,-139.09"/>
</a>
</g>
</g>
<!-- Node37&#45;&gt;Node6 -->
<g id="edge51_Node000037_Node000006" class="edge">
<title>Node37&#45;&gt;Node6</title>
<g id="a_edge51_Node000037_Node000006"><a xlink:title=" ">
<path fill="none" stroke="#63b8ff" d="M1301.71,-55.91C1230.21,-44.89 1099.66,-24.78 1039.25,-15.47"/>
<polygon fill="#63b8ff" stroke="#63b8ff" points="1039.57,-11.98 1029.16,-13.91 1038.51,-18.9 1039.57,-11.98"/>
</a>
</g>
</g>
<!-- Node37&#45;&gt;Node15 -->
<g id="edge52_Node000037_Node000015" class="edge">
<title>Node37&#45;&gt;Node15</title>
<g id="a_edge52_Node000037_Node000015"><a xlink:title=" ">
<path fill="none" stroke="#63b8ff" d="M1386.19,-54.98C1423.83,-45.87 1483.66,-31.4 1524.77,-21.45"/>
<polygon fill="#63b8ff" stroke="#63b8ff" points="1525.64,-24.84 1534.54,-19.08 1524,-18.03 1525.64,-24.84"/>
</a>
</g>
</g>
<!-- Node42 -->
<g id="Node000042" class="node">
<title>Node42</title>
<g id="a_Node000042"><a xlink:href="IConnect_8h.html" target="_top" xlink:title="Interface for Connect.h.">
<polygon fill="white" stroke="#666666" points="1520,-294 1452,-294 1452,-275 1520,-275 1520,-294"/>
<text text-anchor="middle" x="1486" y="-282" font-family="Helvetica,sans-Serif" font-size="10.00">IConnect.h</text>
</a>
</g>
</g>
<!-- Node41&#45;&gt;Node42 -->
<g id="edge63_Node000041_Node000042" class="edge">
<title>Node41&#45;&gt;Node42</title>
<g id="a_edge63_Node000041_Node000042"><a xlink:title=" ">
<path fill="none" stroke="#63b8ff" d="M1486,-384.66C1486,-367.17 1486,-327.8 1486,-304.27"/>
<polygon fill="#63b8ff" stroke="#63b8ff" points="1489.5,-304.16 1486,-294.16 1482.5,-304.16 1489.5,-304.16"/>
</a>
</g>
</g>
<!-- Node42&#45;&gt;Node6 -->
<g id="edge66_Node000042_Node000006" class="edge">
<title>Node42&#45;&gt;Node6</title>
<g id="a_edge66_Node000042_Node000006"><a xlink:title=" ">
<path fill="none" stroke="#63b8ff" d="M1472.55,-274.93C1447.89,-258.85 1394.44,-222.33 1356,-184 1326.6,-154.69 1333.94,-132.42 1299,-110 1239.12,-71.56 1209.39,-99.61 1143,-74 1126.85,-67.77 1124.51,-62.69 1109,-55 1085.5,-43.34 1058.23,-31.53 1037.81,-23.01"/>
<polygon fill="#63b8ff" stroke="#63b8ff" points="1038.95,-19.7 1028.38,-19.11 1036.28,-26.17 1038.95,-19.7"/>
</a>
</g>
</g>
<!-- Node42&#45;&gt;Node10 -->
<g id="edge64_Node000042_Node000010" class="edge">
<title>Node42&#45;&gt;Node10</title>
<g id="a_edge64_Node000042_Node000010"><a xlink:title=" ">
<path fill="none" stroke="#63b8ff" d="M1451.78,-276.48C1448.81,-275.95 1445.86,-275.45 1443,-275 1319.74,-255.61 1172.72,-240.67 1103.61,-234.12"/>
<polygon fill="#63b8ff" stroke="#63b8ff" points="1103.88,-230.63 1093.59,-233.18 1103.22,-237.6 1103.88,-230.63"/>
</a>
</g>
</g>
<!-- Node42&#45;&gt;Node17 -->
<g id="edge65_Node000042_Node000017" class="edge">
<title>Node42&#45;&gt;Node17</title>
<g id="a_edge65_Node000042_Node000017"><a xlink:title=" ">
<path fill="none" stroke="#63b8ff" d="M1495.46,-274.74C1523.87,-248.42 1608.71,-169.85 1645.11,-136.14"/>
<polygon fill="#63b8ff" stroke="#63b8ff" points="1647.53,-138.67 1652.49,-129.31 1642.78,-133.53 1647.53,-138.67"/>
</a>
</g>
</g>
<!-- Node43 -->
<g id="Node000043" class="node">
<title>Node43</title>
<g id="a_Node000043"><a xlink:title=" ">
<polygon fill="#e0e0e0" stroke="#999999" points="1511,-239 1461,-239 1461,-220 1511,-220 1511,-239"/>
<text text-anchor="middle" x="1486" y="-227" font-family="Helvetica,sans-Serif" font-size="10.00">chrono</text>
</a>
</g>
</g>
<!-- Node42&#45;&gt;Node43 -->
<g id="edge67_Node000042_Node000043" class="edge">
<title>Node42&#45;&gt;Node43</title>
<g id="a_edge67_Node000042_Node000043"><a xlink:title=" ">
<path fill="none" stroke="#63b8ff" d="M1486,-274.75C1486,-267.8 1486,-257.85 1486,-249.13"/>
<polygon fill="#63b8ff" stroke="#63b8ff" points="1489.5,-249.09 1486,-239.09 1482.5,-249.09 1489.5,-249.09"/>
</a>
</g>
</g>
</g>
</svg>
