<?xml version="1.0" encoding="UTF-8" standalone="no"?>
<!DOCTYPE svg PUBLIC "-//W3C//DTD SVG 1.1//EN"
 "http://www.w3.org/Graphics/SVG/1.1/DTD/svg11.dtd">
<!-- Generated by graphviz version 2.43.0 (0)
 -->
<!-- Title: /home/runner/work/Catena/Catena/sdks/cpp/connections/REST/include/interface/ISocketReader.h Pages: 1 -->
<svg width="1959pt" height="489pt"
 viewBox="0.00 0.00 1958.50 489.00" xmlns="http://www.w3.org/2000/svg" xmlns:xlink="http://www.w3.org/1999/xlink">
<g id="graph0" class="graph" transform="scale(1 1) rotate(0) translate(4 485)">
<title>/home/runner/work/Catena/Catena/sdks/cpp/connections/REST/include/interface/ISocketReader.h</title>
<!-- Node1 -->
<g id="Node000001" class="node">
<title>Node1</title>
<g id="a_Node000001"><a xlink:title="Interface for the SocketReader class.">
<polygon fill="#999999" stroke="#666666" points="1263,-481 1053,-481 1053,-440 1263,-440 1263,-481"/>
<text text-anchor="start" x="1061" y="-469" font-family="Helvetica,sans-Serif" font-size="10.00">/home/runner/work/Catena</text>
<text text-anchor="start" x="1061" y="-458" font-family="Helvetica,sans-Serif" font-size="10.00">/Catena/sdks/cpp/connections</text>
<text text-anchor="middle" x="1158" y="-447" font-family="Helvetica,sans-Serif" font-size="10.00">/REST/include/interface/ISocketReader.h</text>
</a>
</g>
</g>
<!-- Node2 -->
<g id="Node000002" class="node">
<title>Node2</title>
<g id="a_Node000002"><a xlink:title=" ">
<polygon fill="#e0e0e0" stroke="#999999" points="88,-404 0,-404 0,-385 88,-385 88,-404"/>
<text text-anchor="middle" x="44" y="-392" font-family="Helvetica,sans-Serif" font-size="10.00">boost/asio.hpp</text>
</a>
</g>
</g>
<!-- Node1&#45;&gt;Node2 -->
<g id="edge1_Node000001_Node000002" class="edge">
<title>Node1&#45;&gt;Node2</title>
<g id="a_edge1_Node000001_Node000002"><a xlink:title=" ">
<path fill="none" stroke="#63b8ff" d="M1052.67,-457.71C863.46,-453.68 453.44,-441.21 98.17,-404"/>
<polygon fill="#63b8ff" stroke="#63b8ff" points="98.51,-400.52 88.2,-402.95 97.78,-407.48 98.51,-400.52"/>
</a>
</g>
</g>
<!-- Node3 -->
<g id="Node000003" class="node">
<title>Node3</title>
<g id="a_Node000003"><a xlink:title=" ">
<polygon fill="#e0e0e0" stroke="#999999" points="210,-404 106,-404 106,-385 210,-385 210,-404"/>
<text text-anchor="middle" x="158" y="-392" font-family="Helvetica,sans-Serif" font-size="10.00">boost/asio/ssl.hpp</text>
</a>
</g>
</g>
<!-- Node1&#45;&gt;Node3 -->
<g id="edge2_Node000001_Node000003" class="edge">
<title>Node1&#45;&gt;Node3</title>
<g id="a_edge2_Node000001_Node000003"><a xlink:title=" ">
<path fill="none" stroke="#63b8ff" d="M1052.77,-455.61C879.64,-448.67 524,-432.2 224,-404 222.74,-403.88 221.46,-403.76 220.18,-403.63"/>
<polygon fill="#63b8ff" stroke="#63b8ff" points="220.52,-400.14 210.2,-402.56 219.77,-407.11 220.52,-400.14"/>
</a>
</g>
</g>
<!-- Node4 -->
<g id="Node000004" class="node">
<title>Node4</title>
<g id="a_Node000004"><a xlink:href="ISubscriptionManager_8h.html" target="_top" xlink:title="Interface for managing parameter subscriptions in Catena.">
<polygon fill="white" stroke="#666666" points="1223.5,-404 1092.5,-404 1092.5,-385 1223.5,-385 1223.5,-404"/>
<text text-anchor="middle" x="1158" y="-392" font-family="Helvetica,sans-Serif" font-size="10.00">ISubscriptionManager.h</text>
</a>
</g>
</g>
<!-- Node1&#45;&gt;Node4 -->
<g id="edge3_Node000001_Node000004" class="edge">
<title>Node1&#45;&gt;Node4</title>
<g id="a_edge3_Node000001_Node000004"><a xlink:title=" ">
<path fill="none" stroke="#63b8ff" d="M1158,-439.95C1158,-431.85 1158,-422.5 1158,-414.47"/>
<polygon fill="#63b8ff" stroke="#63b8ff" points="1161.5,-414.26 1158,-404.26 1154.5,-414.26 1161.5,-414.26"/>
</a>
</g>
</g>
<!-- Node6 -->
<g id="Node000006" class="node">
<title>Node6</title>
<g id="a_Node000006"><a xlink:title=" ">
<polygon fill="#e0e0e0" stroke="#999999" points="917,-19 873,-19 873,0 917,0 917,-19"/>
<text text-anchor="middle" x="895" y="-7" font-family="Helvetica,sans-Serif" font-size="10.00">string</text>
</a>
</g>
</g>
<!-- Node1&#45;&gt;Node6 -->
<g id="edge68_Node000001_Node000006" class="edge">
<title>Node1&#45;&gt;Node6</title>
<g id="a_edge68_Node000001_Node000006"><a xlink:title=" ">
<path fill="none" stroke="#63b8ff" d="M1263.26,-450.31C1442.79,-433.2 1789,-393.35 1789,-340.5 1789,-340.5 1789,-340.5 1789,-118.5 1789,-29.86 1087.38,-13.51 927.26,-10.94"/>
<polygon fill="#63b8ff" stroke="#63b8ff" points="927.15,-7.43 917.1,-10.78 927.04,-14.43 927.15,-7.43"/>
</a>
</g>
</g>
<!-- Node13 -->
<g id="Node000013" class="node">
<title>Node13</title>
<g id="a_Node000013"><a xlink:title=" ">
<polygon fill="#e0e0e0" stroke="#999999" points="585.5,-19 492.5,-19 492.5,0 585.5,0 585.5,-19"/>
<text text-anchor="middle" x="539" y="-7" font-family="Helvetica,sans-Serif" font-size="10.00">unordered_map</text>
</a>
</g>
</g>
<!-- Node1&#45;&gt;Node13 -->
<g id="edge69_Node000001_Node000013" class="edge">
<title>Node1&#45;&gt;Node13</title>
<g id="a_edge69_Node000001_Node000013"><a xlink:title=" ">
<path fill="none" stroke="#63b8ff" d="M1052.91,-456.72C811.52,-448.94 238,-421.88 238,-340.5 238,-340.5 238,-340.5 238,-118.5 238,-89.04 234.82,-74.39 257,-55 289.68,-26.44 409.63,-16.13 482.15,-12.47"/>
<polygon fill="#63b8ff" stroke="#63b8ff" points="482.66,-15.94 492.49,-11.97 482.33,-8.95 482.66,-15.94"/>
</a>
</g>
</g>
<!-- Node40 -->
<g id="Node000040" class="node">
<title>Node40</title>
<g id="a_Node000040"><a xlink:href="IConnectionQueue_8h.html" target="_top" xlink:title="Pure virtual class for the ConnectionQueue object.">
<polygon fill="white" stroke="#666666" points="1469.5,-349 1336.5,-349 1336.5,-330 1469.5,-330 1469.5,-349"/>
<text text-anchor="middle" x="1403" y="-337" font-family="Helvetica,sans-Serif" font-size="10.00">rpc/IConnectionQueue.h</text>
</a>
</g>
</g>
<!-- Node1&#45;&gt;Node40 -->
<g id="edge61_Node000001_Node000040" class="edge">
<title>Node1&#45;&gt;Node40</title>
<g id="a_edge61_Node000001_Node000040"><a xlink:title=" ">
<path fill="none" stroke="#63b8ff" d="M1198.18,-439.98C1248.43,-415.58 1333.08,-374.46 1376.12,-353.55"/>
<polygon fill="#63b8ff" stroke="#63b8ff" points="1377.92,-356.57 1385.39,-349.05 1374.86,-350.27 1377.92,-356.57"/>
</a>
</g>
</g>
<!-- Node43 -->
<g id="Node000043" class="node">
<title>Node43</title>
<g id="a_Node000043"><a xlink:title=" ">
<polygon fill="#e0e0e0" stroke="#999999" points="1950.5,-404 1817.5,-404 1817.5,-385 1950.5,-385 1950.5,-404"/>
<text text-anchor="middle" x="1884" y="-392" font-family="Helvetica,sans-Serif" font-size="10.00">interface/IServiceImpl.h</text>
</a>
</g>
</g>
<!-- Node1&#45;&gt;Node43 -->
<g id="edge67_Node000001_Node000043" class="edge">
<title>Node1&#45;&gt;Node43</title>
<g id="a_edge67_Node000001_Node000043"><a xlink:title=" ">
<path fill="none" stroke="#63b8ff" d="M1263.07,-451.07C1390.78,-440.68 1612.8,-422.16 1803,-404 1804.31,-403.88 1805.62,-403.75 1806.95,-403.62"/>
<polygon fill="#63b8ff" stroke="#63b8ff" points="1807.66,-407.07 1817.26,-402.6 1806.97,-400.1 1807.66,-407.07"/>
</a>
</g>
</g>
<!-- Node5 -->
<g id="Node000005" class="node">
<title>Node5</title>
<g id="a_Node000005"><a xlink:title=" ">
<polygon fill="#e0e0e0" stroke="#999999" points="1277,-239 1245,-239 1245,-220 1277,-220 1277,-239"/>
<text text-anchor="middle" x="1261" y="-227" font-family="Helvetica,sans-Serif" font-size="10.00">set</text>
</a>
</g>
</g>
<!-- Node4&#45;&gt;Node5 -->
<g id="edge4_Node000004_Node000005" class="edge">
<title>Node4&#45;&gt;Node5</title>
<g id="a_edge4_Node000004_Node000005"><a xlink:title=" ">
<path fill="none" stroke="#63b8ff" d="M1163.54,-384.74C1179.88,-358.87 1228.15,-282.48 1250.02,-247.88"/>
<polygon fill="#63b8ff" stroke="#63b8ff" points="1253.05,-249.63 1255.43,-239.31 1247.13,-245.89 1253.05,-249.63"/>
</a>
</g>
</g>
<!-- Node4&#45;&gt;Node6 -->
<g id="edge5_Node000004_Node000006" class="edge">
<title>Node4&#45;&gt;Node6</title>
<g id="a_edge5_Node000004_Node000006"><a xlink:title=" ">
<path fill="none" stroke="#63b8ff" d="M1092.2,-391.97C893.8,-386.47 315,-363.75 315,-285.5 315,-285.5 315,-285.5 315,-228.5 315,-122.09 379.42,-89.76 480,-55 550.85,-30.52 778.25,-16.54 862.88,-12.08"/>
<polygon fill="#63b8ff" stroke="#63b8ff" points="863.12,-15.57 872.93,-11.56 862.76,-8.58 863.12,-15.57"/>
</a>
</g>
</g>
<!-- Node7 -->
<g id="Node000007" class="node">
<title>Node7</title>
<g id="a_Node000007"><a xlink:href="IDevice_8h.html" target="_top" xlink:title="Interface for device.">
<polygon fill="white" stroke="#666666" points="732,-349 670,-349 670,-330 732,-330 732,-349"/>
<text text-anchor="middle" x="701" y="-337" font-family="Helvetica,sans-Serif" font-size="10.00">IDevice.h</text>
</a>
</g>
</g>
<!-- Node4&#45;&gt;Node7 -->
<g id="edge6_Node000004_Node000007" class="edge">
<title>Node4&#45;&gt;Node7</title>
<g id="a_edge6_Node000004_Node000007"><a xlink:title=" ">
<path fill="none" stroke="#63b8ff" d="M1092.04,-385.85C996.35,-374.75 821.81,-354.51 742.36,-345.3"/>
<polygon fill="#63b8ff" stroke="#63b8ff" points="742.59,-341.8 732.25,-344.12 741.78,-348.75 742.59,-341.8"/>
</a>
</g>
</g>
<!-- Node8 -->
<g id="Node000008" class="node">
<title>Node8</title>
<g id="a_Node000008"><a xlink:href="Authorization_8h.html" target="_top" xlink:title="Class for handling authorization information.">
<polygon fill="white" stroke="#666666" points="1203.5,-294 1112.5,-294 1112.5,-275 1203.5,-275 1203.5,-294"/>
<text text-anchor="middle" x="1158" y="-282" font-family="Helvetica,sans-Serif" font-size="10.00">Authorization.h</text>
</a>
</g>
</g>
<!-- Node4&#45;&gt;Node8 -->
<g id="edge60_Node000004_Node000008" class="edge">
<title>Node4&#45;&gt;Node8</title>
<g id="a_edge60_Node000004_Node000008"><a xlink:title=" ">
<path fill="none" stroke="#63b8ff" d="M1158,-384.66C1158,-367.17 1158,-327.8 1158,-304.27"/>
<polygon fill="#63b8ff" stroke="#63b8ff" points="1161.5,-304.16 1158,-294.16 1154.5,-304.16 1161.5,-304.16"/>
</a>
</g>
</g>
<!-- Node16 -->
<g id="Node000016" class="node">
<title>Node16</title>
<g id="a_Node000016"><a xlink:href="IParam_8h.html" target="_top" xlink:title="Interface for parameters.">
<polygon fill="white" stroke="#666666" points="1354.5,-239 1295.5,-239 1295.5,-220 1354.5,-220 1354.5,-239"/>
<text text-anchor="middle" x="1325" y="-227" font-family="Helvetica,sans-Serif" font-size="10.00">IParam.h</text>
</a>
</g>
</g>
<!-- Node4&#45;&gt;Node16 -->
<g id="edge59_Node000004_Node000016" class="edge">
<title>Node4&#45;&gt;Node16</title>
<g id="a_edge59_Node000004_Node000016"><a xlink:title=" ">
<path fill="none" stroke="#63b8ff" d="M1167.89,-384.78C1177.89,-375.91 1193.7,-361.7 1207,-349 1244.56,-313.13 1287.25,-269.52 1309.56,-246.51"/>
<polygon fill="#63b8ff" stroke="#63b8ff" points="1312.12,-248.89 1316.56,-239.27 1307.09,-244.03 1312.12,-248.89"/>
</a>
</g>
</g>
<!-- Node7&#45;&gt;Node6 -->
<g id="edge55_Node000007_Node000006" class="edge">
<title>Node7&#45;&gt;Node6</title>
<g id="a_edge55_Node000007_Node000006"><a xlink:title=" ">
<path fill="none" stroke="#63b8ff" d="M669.98,-339.17C620.43,-338.93 521.7,-333.06 450,-294 416.17,-275.57 391,-269.02 391,-230.5 391,-230.5 391,-230.5 391,-173.5 391,-144.04 388.27,-129.89 410,-110 477.15,-48.54 765.19,-20.67 862.64,-12.88"/>
<polygon fill="#63b8ff" stroke="#63b8ff" points="863.07,-16.35 872.77,-12.08 862.53,-9.37 863.07,-16.35"/>
</a>
</g>
</g>
<!-- Node7&#45;&gt;Node8 -->
<g id="edge7_Node000007_Node000008" class="edge">
<title>Node7&#45;&gt;Node8</title>
<g id="a_edge7_Node000007_Node000008"><a xlink:title=" ">
<path fill="none" stroke="#63b8ff" d="M732.05,-334.9C808.23,-326.06 1005.2,-303.22 1102.26,-291.96"/>
<polygon fill="#63b8ff" stroke="#63b8ff" points="1102.93,-295.41 1112.46,-290.78 1102.13,-288.46 1102.93,-295.41"/>
</a>
</g>
</g>
<!-- Node15 -->
<g id="Node000015" class="node">
<title>Node15</title>
<g id="a_Node000015"><a xlink:title=" ">
<polygon fill="#e0e0e0" stroke="#999999" points="1223.5,-129 1104.5,-129 1104.5,-110 1223.5,-110 1223.5,-129"/>
<text text-anchor="middle" x="1164" y="-117" font-family="Helvetica,sans-Serif" font-size="10.00">interface/device.pb.h</text>
</a>
</g>
</g>
<!-- Node7&#45;&gt;Node15 -->
<g id="edge54_Node000007_Node000015" class="edge">
<title>Node7&#45;&gt;Node15</title>
<g id="a_edge54_Node000007_Node000015"><a xlink:title=" ">
<path fill="none" stroke="#63b8ff" d="M730.64,-329.98C797.13,-310.16 962.05,-257.03 1086,-184 1109.1,-170.39 1132.56,-150.26 1147.62,-136.33"/>
<polygon fill="#63b8ff" stroke="#63b8ff" points="1150.2,-138.71 1155.08,-129.31 1145.4,-133.61 1150.2,-138.71"/>
</a>
</g>
</g>
<!-- Node7&#45;&gt;Node16 -->
<g id="edge48_Node000007_Node000016" class="edge">
<title>Node7&#45;&gt;Node16</title>
<g id="a_edge48_Node000007_Node000016"><a xlink:title=" ">
<path fill="none" stroke="#63b8ff" d="M732.08,-337.51C828.49,-334.18 1121.49,-321.94 1212,-294 1247.18,-283.14 1283.55,-260.22 1305.22,-245.09"/>
<polygon fill="#63b8ff" stroke="#63b8ff" points="1307.45,-247.8 1313.56,-239.15 1303.39,-242.1 1307.45,-247.8"/>
</a>
</g>
</g>
<!-- Node27 -->
<g id="Node000027" class="node">
<title>Node27</title>
<g id="a_Node000027"><a xlink:href="Path_8h.html" target="_top" xlink:title="Handles Path objects used to uniquely identify and access OIDs.">
<polygon fill="white" stroke="#666666" points="690.5,-184 643.5,-184 643.5,-165 690.5,-165 690.5,-184"/>
<text text-anchor="middle" x="667" y="-172" font-family="Helvetica,sans-Serif" font-size="10.00">Path.h</text>
</a>
</g>
</g>
<!-- Node7&#45;&gt;Node27 -->
<g id="edge47_Node000007_Node000027" class="edge">
<title>Node7&#45;&gt;Node27</title>
<g id="a_edge47_Node000007_Node000027"><a xlink:title=" ">
<path fill="none" stroke="#63b8ff" d="M697.57,-329.76C694.2,-320.88 689.13,-306.66 686,-294 677.42,-259.23 671.79,-217.73 669.03,-194.22"/>
<polygon fill="#63b8ff" stroke="#63b8ff" points="672.5,-193.77 667.9,-184.22 665.54,-194.55 672.5,-193.77"/>
</a>
</g>
</g>
<!-- Node29 -->
<g id="Node000029" class="node">
<title>Node29</title>
<g id="a_Node000029"><a xlink:title=" ">
<polygon fill="#e0e0e0" stroke="#999999" points="466.5,-129 419.5,-129 419.5,-110 466.5,-110 466.5,-129"/>
<text text-anchor="middle" x="443" y="-117" font-family="Helvetica,sans-Serif" font-size="10.00">vector</text>
</a>
</g>
</g>
<!-- Node7&#45;&gt;Node29 -->
<g id="edge56_Node000007_Node000029" class="edge">
<title>Node7&#45;&gt;Node29</title>
<g id="a_edge56_Node000007_Node000029"><a xlink:title=" ">
<path fill="none" stroke="#63b8ff" d="M690.89,-329.95C651.96,-297.06 511.48,-178.36 461.12,-135.81"/>
<polygon fill="#63b8ff" stroke="#63b8ff" points="463.22,-133 453.32,-129.22 458.7,-138.35 463.22,-133"/>
</a>
</g>
</g>
<!-- Node32 -->
<g id="Node000032" class="node">
<title>Node32</title>
<g id="a_Node000032"><a xlink:href="Status_8h.html" target="_top" xlink:title="Communicates failure status using gRPC&#39;s codes.">
<polygon fill="white" stroke="#666666" points="867,-184 811,-184 811,-165 867,-165 867,-184"/>
<text text-anchor="middle" x="839" y="-172" font-family="Helvetica,sans-Serif" font-size="10.00">Status.h</text>
</a>
</g>
</g>
<!-- Node7&#45;&gt;Node32 -->
<g id="edge52_Node000007_Node000032" class="edge">
<title>Node7&#45;&gt;Node32</title>
<g id="a_edge52_Node000007_Node000032"><a xlink:title=" ">
<path fill="none" stroke="#63b8ff" d="M726.96,-329.88C745.18,-322.72 769.04,-310.94 785,-294 812.55,-264.76 827.87,-219.01 834.67,-193.77"/>
<polygon fill="#63b8ff" stroke="#63b8ff" points="838.07,-194.58 837.14,-184.03 831.29,-192.86 838.07,-194.58"/>
</a>
</g>
</g>
<!-- Node36 -->
<g id="Node000036" class="node">
<title>Node36</title>
<g id="a_Node000036"><a xlink:href="ILanguagePack_8h.html" target="_top" xlink:title="Interface for language packs.">
<polygon fill="white" stroke="#666666" points="364,-74 266,-74 266,-55 364,-55 364,-74"/>
<text text-anchor="middle" x="315" y="-62" font-family="Helvetica,sans-Serif" font-size="10.00">ILanguagePack.h</text>
</a>
</g>
</g>
<!-- Node7&#45;&gt;Node36 -->
<g id="edge49_Node000007_Node000036" class="edge">
<title>Node7&#45;&gt;Node36</title>
<g id="a_edge49_Node000007_Node000036"><a xlink:title=" ">
<path fill="none" stroke="#63b8ff" d="M669.85,-338.45C597.34,-337.69 420.12,-331.91 377,-294 314.66,-239.19 312.09,-128.65 313.79,-84.42"/>
<polygon fill="#63b8ff" stroke="#63b8ff" points="317.29,-84.41 314.3,-74.24 310.3,-84.05 317.29,-84.41"/>
</a>
</g>
</g>
<!-- Node37 -->
<g id="Node000037" class="node">
<title>Node37</title>
<g id="a_Node000037"><a xlink:title=" ">
<polygon fill="#e0e0e0" stroke="#999999" points="776.5,-294 695.5,-294 695.5,-275 776.5,-275 776.5,-294"/>
<text text-anchor="middle" x="736" y="-282" font-family="Helvetica,sans-Serif" font-size="10.00">vdk/signals.h</text>
</a>
</g>
</g>
<!-- Node7&#45;&gt;Node37 -->
<g id="edge53_Node000007_Node000037" class="edge">
<title>Node7&#45;&gt;Node37</title>
<g id="a_edge53_Node000007_Node000037"><a xlink:title=" ">
<path fill="none" stroke="#63b8ff" d="M706.78,-329.75C711.62,-322.42 718.68,-311.73 724.64,-302.7"/>
<polygon fill="#63b8ff" stroke="#63b8ff" points="727.74,-304.36 730.33,-294.09 721.9,-300.5 727.74,-304.36"/>
</a>
</g>
</g>
<!-- Node38 -->
<g id="Node000038" class="node">
<title>Node38</title>
<g id="a_Node000038"><a xlink:title=" ">
<polygon fill="#e0e0e0" stroke="#999999" points="521,-294 459,-294 459,-275 521,-275 521,-294"/>
<text text-anchor="middle" x="490" y="-282" font-family="Helvetica,sans-Serif" font-size="10.00">coroutine</text>
</a>
</g>
</g>
<!-- Node7&#45;&gt;Node38 -->
<g id="edge57_Node000007_Node000038" class="edge">
<title>Node7&#45;&gt;Node38</title>
<g id="a_edge57_Node000007_Node000038"><a xlink:title=" ">
<path fill="none" stroke="#63b8ff" d="M669.87,-330.68C633.09,-321.44 571.78,-306.04 531.13,-295.83"/>
<polygon fill="#63b8ff" stroke="#63b8ff" points="531.81,-292.39 521.26,-293.35 530.11,-299.18 531.81,-292.39"/>
</a>
</g>
</g>
<!-- Node39 -->
<g id="Node000039" class="node">
<title>Node39</title>
<g id="a_Node000039"><a xlink:title=" ">
<polygon fill="#e0e0e0" stroke="#999999" points="587,-294 539,-294 539,-275 587,-275 587,-294"/>
<text text-anchor="middle" x="563" y="-282" font-family="Helvetica,sans-Serif" font-size="10.00">mutex</text>
</a>
</g>
</g>
<!-- Node7&#45;&gt;Node39 -->
<g id="edge58_Node000007_Node000039" class="edge">
<title>Node7&#45;&gt;Node39</title>
<g id="a_edge58_Node000007_Node000039"><a xlink:title=" ">
<path fill="none" stroke="#63b8ff" d="M678.83,-329.98C656.23,-321.3 620.94,-307.75 595.25,-297.88"/>
<polygon fill="#63b8ff" stroke="#63b8ff" points="596.17,-294.49 585.58,-294.17 593.66,-301.02 596.17,-294.49"/>
</a>
</g>
</g>
<!-- Node8&#45;&gt;Node5 -->
<g id="edge46_Node000008_Node000005" class="edge">
<title>Node8&#45;&gt;Node5</title>
<g id="a_edge46_Node000008_Node000005"><a xlink:title=" ">
<path fill="none" stroke="#63b8ff" d="M1174.55,-274.98C1191.09,-266.47 1216.74,-253.28 1235.81,-243.46"/>
<polygon fill="#63b8ff" stroke="#63b8ff" points="1237.54,-246.51 1244.83,-238.82 1234.34,-240.28 1237.54,-246.51"/>
</a>
</g>
</g>
<!-- Node9 -->
<g id="Node000009" class="node">
<title>Node9</title>
<g id="a_Node000009"><a xlink:href="Enums_8h.html" target="_top" xlink:title="tools for using EnumDecorators.">
<polygon fill="white" stroke="#666666" points="1077.5,-184 1018.5,-184 1018.5,-165 1077.5,-165 1077.5,-184"/>
<text text-anchor="middle" x="1048" y="-172" font-family="Helvetica,sans-Serif" font-size="10.00">Enums.h</text>
</a>
</g>
</g>
<!-- Node8&#45;&gt;Node9 -->
<g id="edge8_Node000008_Node000009" class="edge">
<title>Node8&#45;&gt;Node9</title>
<g id="a_edge8_Node000008_Node000009"><a xlink:title=" ">
<path fill="none" stroke="#63b8ff" d="M1154.75,-274.79C1149.5,-261.64 1138.1,-236.52 1122,-220 1109.3,-206.97 1092,-196.29 1077.32,-188.66"/>
<polygon fill="#63b8ff" stroke="#63b8ff" points="1078.64,-185.41 1068.13,-184.09 1075.53,-191.68 1078.64,-185.41"/>
</a>
</g>
</g>
<!-- Node8&#45;&gt;Node16 -->
<g id="edge17_Node000008_Node000016" class="edge">
<title>Node8&#45;&gt;Node16</title>
<g id="a_edge17_Node000008_Node000016"><a xlink:title=" ">
<path fill="none" stroke="#63b8ff" d="M1184.83,-274.98C1212.87,-266.09 1257.05,-252.07 1288.3,-242.15"/>
<polygon fill="#63b8ff" stroke="#63b8ff" points="1289.49,-245.44 1297.96,-239.08 1287.37,-238.77 1289.49,-245.44"/>
</a>
</g>
</g>
<!-- Node20 -->
<g id="Node000020" class="node">
<title>Node20</title>
<g id="a_Node000020"><a xlink:href="IParamDescriptor_8h.html" target="_top" xlink:title="Interface class for ParamDescriptor.">
<polygon fill="white" stroke="#666666" points="1631.5,-184 1522.5,-184 1522.5,-165 1631.5,-165 1631.5,-184"/>
<text text-anchor="middle" x="1577" y="-172" font-family="Helvetica,sans-Serif" font-size="10.00">IParamDescriptor.h</text>
</a>
</g>
</g>
<!-- Node8&#45;&gt;Node20 -->
<g id="edge43_Node000008_Node000020" class="edge">
<title>Node8&#45;&gt;Node20</title>
<g id="a_edge43_Node000008_Node000020"><a xlink:title=" ">
<path fill="none" stroke="#63b8ff" d="M1165.61,-274.73C1178.51,-260.54 1206.17,-232.84 1236,-220 1260.78,-209.33 1420.52,-191.55 1512.32,-182.01"/>
<polygon fill="#63b8ff" stroke="#63b8ff" points="1512.76,-185.49 1522.34,-180.98 1512.04,-178.52 1512.76,-185.49"/>
</a>
</g>
</g>
<!-- Node22 -->
<g id="Node000022" class="node">
<title>Node22</title>
<g id="a_Node000022"><a xlink:title=" ">
<polygon fill="#e0e0e0" stroke="#999999" points="1284.5,-74 1219.5,-74 1219.5,-55 1284.5,-55 1284.5,-74"/>
<text text-anchor="middle" x="1252" y="-62" font-family="Helvetica,sans-Serif" font-size="10.00">functional</text>
</a>
</g>
</g>
<!-- Node8&#45;&gt;Node22 -->
<g id="edge45_Node000008_Node000022" class="edge">
<title>Node8&#45;&gt;Node22</title>
<g id="a_edge45_Node000008_Node000022"><a xlink:title=" ">
<path fill="none" stroke="#63b8ff" d="M1162.61,-274.98C1174.97,-251.94 1209.4,-186.27 1232,-129 1237.84,-114.2 1243.18,-96.95 1246.88,-84.17"/>
<polygon fill="#63b8ff" stroke="#63b8ff" points="1250.32,-84.84 1249.66,-74.26 1243.59,-82.94 1250.32,-84.84"/>
</a>
</g>
</g>
<!-- Node35 -->
<g id="Node000035" class="node">
<title>Node35</title>
<g id="a_Node000035"><a xlink:title=" ">
<polygon fill="#e0e0e0" stroke="#999999" points="1113,-239 1033,-239 1033,-220 1113,-220 1113,-239"/>
<text text-anchor="middle" x="1073" y="-227" font-family="Helvetica,sans-Serif" font-size="10.00">jwt&#45;cpp/jwt.h</text>
</a>
</g>
</g>
<!-- Node8&#45;&gt;Node35 -->
<g id="edge44_Node000008_Node000035" class="edge">
<title>Node8&#45;&gt;Node35</title>
<g id="a_edge44_Node000008_Node000035"><a xlink:title=" ">
<path fill="none" stroke="#63b8ff" d="M1144.34,-274.98C1131.16,-266.77 1110.97,-254.18 1095.43,-244.49"/>
<polygon fill="#63b8ff" stroke="#63b8ff" points="1097.24,-241.49 1086.91,-239.17 1093.54,-247.43 1097.24,-241.49"/>
</a>
</g>
</g>
<!-- Node10 -->
<g id="Node000010" class="node">
<title>Node10</title>
<g id="a_Node000010"><a xlink:href="EnumDecorator_8h.html" target="_top" xlink:title="Provides an enum with useful extra functionality.">
<polygon fill="white" stroke="#666666" points="1048,-129 904,-129 904,-110 1048,-110 1048,-129"/>
<text text-anchor="middle" x="976" y="-117" font-family="Helvetica,sans-Serif" font-size="10.00">patterns/EnumDecorator.h</text>
</a>
</g>
</g>
<!-- Node9&#45;&gt;Node10 -->
<g id="edge9_Node000009_Node000010" class="edge">
<title>Node9&#45;&gt;Node10</title>
<g id="a_edge9_Node000009_Node000010"><a xlink:title=" ">
<path fill="none" stroke="#63b8ff" d="M1036.43,-164.98C1025.58,-157 1009.12,-144.88 996.12,-135.31"/>
<polygon fill="#63b8ff" stroke="#63b8ff" points="997.91,-132.28 987.78,-129.17 993.76,-137.92 997.91,-132.28"/>
</a>
</g>
</g>
<!-- Node12 -->
<g id="Node000012" class="node">
<title>Node12</title>
<g id="a_Node000012"><a xlink:title=" ">
<polygon fill="#e0e0e0" stroke="#999999" points="1101,-74 1051,-74 1051,-55 1101,-55 1101,-74"/>
<text text-anchor="middle" x="1076" y="-62" font-family="Helvetica,sans-Serif" font-size="10.00">cstdint</text>
</a>
</g>
</g>
<!-- Node9&#45;&gt;Node12 -->
<g id="edge16_Node000009_Node000012" class="edge">
<title>Node9&#45;&gt;Node12</title>
<g id="a_edge16_Node000009_Node000012"><a xlink:title=" ">
<path fill="none" stroke="#63b8ff" d="M1050.29,-164.66C1054.85,-147.09 1065.12,-107.45 1071.22,-83.95"/>
<polygon fill="#63b8ff" stroke="#63b8ff" points="1074.63,-84.72 1073.76,-74.16 1067.86,-82.96 1074.63,-84.72"/>
</a>
</g>
</g>
<!-- Node9&#45;&gt;Node15 -->
<g id="edge15_Node000009_Node000015" class="edge">
<title>Node9&#45;&gt;Node15</title>
<g id="a_edge15_Node000009_Node000015"><a xlink:title=" ">
<path fill="none" stroke="#63b8ff" d="M1066.64,-164.98C1085.3,-156.46 1114.25,-143.23 1135.74,-133.41"/>
<polygon fill="#63b8ff" stroke="#63b8ff" points="1137.38,-136.51 1145.02,-129.17 1134.47,-130.14 1137.38,-136.51"/>
</a>
</g>
</g>
<!-- Node10&#45;&gt;Node6 -->
<g id="edge13_Node000010_Node000006" class="edge">
<title>Node10&#45;&gt;Node6</title>
<g id="a_edge13_Node000010_Node000006"><a xlink:title=" ">
<path fill="none" stroke="#63b8ff" d="M958.29,-109.95C944.33,-102.34 925.39,-89.97 914,-74 904.5,-60.68 899.69,-42.57 897.29,-29.09"/>
<polygon fill="#63b8ff" stroke="#63b8ff" points="900.74,-28.45 895.8,-19.08 893.81,-29.48 900.74,-28.45"/>
</a>
</g>
</g>
<!-- Node11 -->
<g id="Node000011" class="node">
<title>Node11</title>
<g id="a_Node000011"><a xlink:href="ReflectionMacros_8h.html" target="_top" xlink:title="adapted from https://github.com/tapika/TestCppReflect">
<polygon fill="white" stroke="#666666" points="1033,-74 923,-74 923,-55 1033,-55 1033,-74"/>
<text text-anchor="middle" x="978" y="-62" font-family="Helvetica,sans-Serif" font-size="10.00">ReflectionMacros.h</text>
</a>
</g>
</g>
<!-- Node10&#45;&gt;Node11 -->
<g id="edge10_Node000010_Node000011" class="edge">
<title>Node10&#45;&gt;Node11</title>
<g id="a_edge10_Node000010_Node000011"><a xlink:title=" ">
<path fill="none" stroke="#63b8ff" d="M976.33,-109.75C976.59,-102.8 976.97,-92.85 977.3,-84.13"/>
<polygon fill="#63b8ff" stroke="#63b8ff" points="980.8,-84.21 977.68,-74.09 973.8,-83.95 980.8,-84.21"/>
</a>
</g>
</g>
<!-- Node10&#45;&gt;Node12 -->
<g id="edge11_Node000010_Node000012" class="edge">
<title>Node10&#45;&gt;Node12</title>
<g id="a_edge11_Node000010_Node000012"><a xlink:title=" ">
<path fill="none" stroke="#63b8ff" d="M992.07,-109.98C1007.86,-101.61 1032.22,-88.7 1050.63,-78.95"/>
<polygon fill="#63b8ff" stroke="#63b8ff" points="1052.44,-81.95 1059.64,-74.17 1049.17,-75.76 1052.44,-81.95"/>
</a>
</g>
</g>
<!-- Node10&#45;&gt;Node13 -->
<g id="edge12_Node000010_Node000013" class="edge">
<title>Node10&#45;&gt;Node13</title>
<g id="a_edge12_Node000010_Node000013"><a xlink:title=" ">
<path fill="none" stroke="#63b8ff" d="M939.21,-109.99C901.28,-101.17 840.44,-86.89 788,-74 715.25,-56.11 630.8,-34.37 581.3,-21.52"/>
<polygon fill="#63b8ff" stroke="#63b8ff" points="582.14,-18.13 571.58,-19 580.38,-24.9 582.14,-18.13"/>
</a>
</g>
</g>
<!-- Node14 -->
<g id="Node000014" class="node">
<title>Node14</title>
<g id="a_Node000014"><a xlink:title=" ">
<polygon fill="#e0e0e0" stroke="#999999" points="866.5,-74 797.5,-74 797.5,-55 866.5,-55 866.5,-74"/>
<text text-anchor="middle" x="832" y="-62" font-family="Helvetica,sans-Serif" font-size="10.00">type_traits</text>
</a>
</g>
</g>
<!-- Node10&#45;&gt;Node14 -->
<g id="edge14_Node000010_Node000014" class="edge">
<title>Node10&#45;&gt;Node14</title>
<g id="a_edge14_Node000010_Node000014"><a xlink:title=" ">
<path fill="none" stroke="#63b8ff" d="M952.86,-109.98C929.18,-101.27 892.13,-87.63 865.29,-77.75"/>
<polygon fill="#63b8ff" stroke="#63b8ff" points="866.15,-74.34 855.56,-74.17 863.73,-80.91 866.15,-74.34"/>
</a>
</g>
</g>
<!-- Node16&#45;&gt;Node9 -->
<g id="edge18_Node000016_Node000009" class="edge">
<title>Node16&#45;&gt;Node9</title>
<g id="a_edge18_Node000016_Node000009"><a xlink:title=" ">
<path fill="none" stroke="#63b8ff" d="M1295.21,-221.91C1292.1,-221.25 1288.99,-220.6 1286,-220 1216.48,-205.93 1135.21,-191.07 1087.87,-182.58"/>
<polygon fill="#63b8ff" stroke="#63b8ff" points="1088.2,-179.08 1077.74,-180.77 1086.97,-185.97 1088.2,-179.08"/>
</a>
</g>
</g>
<!-- Node17 -->
<g id="Node000017" class="node">
<title>Node17</title>
<g id="a_Node000017"><a xlink:href="IConstraint_8h.html" target="_top" xlink:title="Interface for constraints.">
<polygon fill="white" stroke="#666666" points="1465.5,-184 1386.5,-184 1386.5,-165 1465.5,-165 1465.5,-184"/>
<text text-anchor="middle" x="1426" y="-172" font-family="Helvetica,sans-Serif" font-size="10.00">IConstraint.h</text>
</a>
</g>
</g>
<!-- Node16&#45;&gt;Node17 -->
<g id="edge19_Node000016_Node000017" class="edge">
<title>Node16&#45;&gt;Node17</title>
<g id="a_edge19_Node000016_Node000017"><a xlink:title=" ">
<path fill="none" stroke="#63b8ff" d="M1341.23,-219.98C1357.18,-211.61 1381.78,-198.7 1400.38,-188.95"/>
<polygon fill="#63b8ff" stroke="#63b8ff" points="1402.25,-191.92 1409.48,-184.17 1399,-185.72 1402.25,-191.92"/>
</a>
</g>
</g>
<!-- Node18 -->
<g id="Node000018" class="node">
<title>Node18</title>
<g id="a_Node000018"><a xlink:title=" ">
<polygon fill="#e0e0e0" stroke="#999999" points="1553.5,-129 1434.5,-129 1434.5,-110 1553.5,-110 1553.5,-129"/>
<text text-anchor="middle" x="1494" y="-117" font-family="Helvetica,sans-Serif" font-size="10.00">interface/param.pb.h</text>
</a>
</g>
</g>
<!-- Node16&#45;&gt;Node18 -->
<g id="edge42_Node000016_Node000018" class="edge">
<title>Node16&#45;&gt;Node18</title>
<g id="a_edge42_Node000016_Node000018"><a xlink:title=" ">
<path fill="none" stroke="#63b8ff" d="M1354.56,-227.6C1387.94,-224.99 1441.79,-215.74 1474,-184 1485.95,-172.22 1490.78,-153.38 1492.72,-139.27"/>
<polygon fill="#63b8ff" stroke="#63b8ff" points="1496.22,-139.5 1493.74,-129.2 1489.25,-138.8 1496.22,-139.5"/>
</a>
</g>
</g>
<!-- Node16&#45;&gt;Node20 -->
<g id="edge22_Node000016_Node000020" class="edge">
<title>Node16&#45;&gt;Node20</title>
<g id="a_edge22_Node000016_Node000020"><a xlink:title=" ">
<path fill="none" stroke="#63b8ff" d="M1354.9,-222.21C1397.19,-213.32 1475.04,-196.94 1526.42,-186.14"/>
<polygon fill="#63b8ff" stroke="#63b8ff" points="1527.26,-189.54 1536.32,-184.05 1525.82,-182.69 1527.26,-189.54"/>
</a>
</g>
</g>
<!-- Node16&#45;&gt;Node27 -->
<g id="edge33_Node000016_Node000027" class="edge">
<title>Node16&#45;&gt;Node27</title>
<g id="a_edge33_Node000016_Node000027"><a xlink:title=" ">
<path fill="none" stroke="#63b8ff" d="M1295.27,-221.56C1292.15,-220.97 1289.02,-220.44 1286,-220 1228.03,-211.64 821.98,-185.38 700.96,-177.66"/>
<polygon fill="#63b8ff" stroke="#63b8ff" points="701,-174.15 690.8,-177.01 700.56,-181.14 701,-174.15"/>
</a>
</g>
</g>
<!-- Node16&#45;&gt;Node32 -->
<g id="edge39_Node000016_Node000032" class="edge">
<title>Node16&#45;&gt;Node32</title>
<g id="a_edge39_Node000016_Node000032"><a xlink:title=" ">
<path fill="none" stroke="#63b8ff" d="M1295.26,-221.65C1292.14,-221.04 1289.01,-220.48 1286,-220 1135.73,-196.23 954.92,-182.84 877.37,-177.82"/>
<polygon fill="#63b8ff" stroke="#63b8ff" points="877.33,-174.31 867.13,-177.17 876.88,-181.3 877.33,-174.31"/>
</a>
</g>
</g>
<!-- Node17&#45;&gt;Node18 -->
<g id="edge20_Node000017_Node000018" class="edge">
<title>Node17&#45;&gt;Node18</title>
<g id="a_edge20_Node000017_Node000018"><a xlink:title=" ">
<path fill="none" stroke="#63b8ff" d="M1436.93,-164.98C1447.08,-157.07 1462.42,-145.11 1474.65,-135.58"/>
<polygon fill="#63b8ff" stroke="#63b8ff" points="1477.14,-138.08 1482.88,-129.17 1472.84,-132.56 1477.14,-138.08"/>
</a>
</g>
</g>
<!-- Node19 -->
<g id="Node000019" class="node">
<title>Node19</title>
<g id="a_Node000019"><a xlink:title=" ">
<polygon fill="#e0e0e0" stroke="#999999" points="1416,-129 1280,-129 1280,-110 1416,-110 1416,-129"/>
<text text-anchor="middle" x="1348" y="-117" font-family="Helvetica,sans-Serif" font-size="10.00">interface/constraint.pb.h</text>
</a>
</g>
</g>
<!-- Node17&#45;&gt;Node19 -->
<g id="edge21_Node000017_Node000019" class="edge">
<title>Node17&#45;&gt;Node19</title>
<g id="a_edge21_Node000017_Node000019"><a xlink:title=" ">
<path fill="none" stroke="#63b8ff" d="M1413.47,-164.98C1401.6,-156.92 1383.54,-144.65 1369.39,-135.03"/>
<polygon fill="#63b8ff" stroke="#63b8ff" points="1371,-131.9 1360.76,-129.17 1367.06,-137.69 1371,-131.9"/>
</a>
</g>
</g>
<!-- Node20&#45;&gt;Node18 -->
<g id="edge32_Node000020_Node000018" class="edge">
<title>Node20&#45;&gt;Node18</title>
<g id="a_edge32_Node000020_Node000018"><a xlink:title=" ">
<path fill="none" stroke="#63b8ff" d="M1563.66,-164.98C1550.91,-156.84 1531.45,-144.41 1516.33,-134.76"/>
<polygon fill="#63b8ff" stroke="#63b8ff" points="1517.89,-131.6 1507.58,-129.17 1514.12,-137.5 1517.89,-131.6"/>
</a>
</g>
</g>
<!-- Node21 -->
<g id="Node000021" class="node">
<title>Node21</title>
<g id="a_Node000021"><a xlink:href="Tags_8h.html" target="_top" xlink:title="Tags to differentiate collections with the same type for template specialization.">
<polygon fill="white" stroke="#666666" points="1618.5,-129 1571.5,-129 1571.5,-110 1618.5,-110 1618.5,-129"/>
<text text-anchor="middle" x="1595" y="-117" font-family="Helvetica,sans-Serif" font-size="10.00">Tags.h</text>
</a>
</g>
</g>
<!-- Node20&#45;&gt;Node21 -->
<g id="edge23_Node000020_Node000021" class="edge">
<title>Node20&#45;&gt;Node21</title>
<g id="a_edge23_Node000020_Node000021"><a xlink:title=" ">
<path fill="none" stroke="#63b8ff" d="M1579.97,-164.75C1582.36,-157.72 1585.79,-147.62 1588.77,-138.84"/>
<polygon fill="#63b8ff" stroke="#63b8ff" points="1592.18,-139.68 1592.08,-129.09 1585.55,-137.43 1592.18,-139.68"/>
</a>
</g>
</g>
<!-- Node23 -->
<g id="Node000023" class="node">
<title>Node23</title>
<g id="a_Node000023"><a xlink:href="PolyglotText_8h.html" target="_top" xlink:title="Polyglot Text serialization and deserialization to protobuf.">
<polygon fill="white" stroke="#666666" points="1723,-129 1637,-129 1637,-110 1723,-110 1723,-129"/>
<text text-anchor="middle" x="1680" y="-117" font-family="Helvetica,sans-Serif" font-size="10.00">PolyglotText.h</text>
</a>
</g>
</g>
<!-- Node20&#45;&gt;Node23 -->
<g id="edge26_Node000020_Node000023" class="edge">
<title>Node20&#45;&gt;Node23</title>
<g id="a_edge26_Node000020_Node000023"><a xlink:title=" ">
<path fill="none" stroke="#63b8ff" d="M1593.55,-164.98C1609.89,-156.57 1635.13,-143.59 1654.13,-133.81"/>
<polygon fill="#63b8ff" stroke="#63b8ff" points="1655.86,-136.86 1663.15,-129.17 1652.66,-130.63 1655.86,-136.86"/>
</a>
</g>
</g>
<!-- Node21&#45;&gt;Node6 -->
<g id="edge25_Node000021_Node000006" class="edge">
<title>Node21&#45;&gt;Node6</title>
<g id="a_edge25_Node000021_Node000006"><a xlink:title=" ">
<path fill="none" stroke="#63b8ff" d="M1571.27,-112.1C1568.16,-111.34 1565.01,-110.62 1562,-110 1460.67,-89.07 1430.71,-105 1332,-74 1313.6,-68.22 1311.52,-60.37 1293,-55 1161.16,-16.75 995.95,-11.03 927.26,-10.42"/>
<polygon fill="#63b8ff" stroke="#63b8ff" points="927.1,-6.92 917.08,-10.36 927.06,-13.92 927.1,-6.92"/>
</a>
</g>
</g>
<!-- Node21&#45;&gt;Node22 -->
<g id="edge24_Node000021_Node000022" class="edge">
<title>Node21&#45;&gt;Node22</title>
<g id="a_edge24_Node000021_Node000022"><a xlink:title=" ">
<path fill="none" stroke="#63b8ff" d="M1571.28,-112.04C1568.17,-111.3 1565.02,-110.59 1562,-110 1446.24,-87.25 1415.52,-92.5 1299,-74 1297.54,-73.77 1296.06,-73.53 1294.56,-73.28"/>
<polygon fill="#63b8ff" stroke="#63b8ff" points="1295.03,-69.81 1284.59,-71.58 1293.85,-76.71 1295.03,-69.81"/>
</a>
</g>
</g>
<!-- Node24 -->
<g id="Node000024" class="node">
<title>Node24</title>
<g id="a_Node000024"><a xlink:href="IPolyglotText_8h.html" target="_top" xlink:title="Catena&#39;s multi&#45;language text interface.">
<polygon fill="white" stroke="#666666" points="1430.5,-74 1341.5,-74 1341.5,-55 1430.5,-55 1430.5,-74"/>
<text text-anchor="middle" x="1386" y="-62" font-family="Helvetica,sans-Serif" font-size="10.00">IPolyglotText.h</text>
</a>
</g>
</g>
<!-- Node23&#45;&gt;Node24 -->
<g id="edge27_Node000023_Node000024" class="edge">
<title>Node23&#45;&gt;Node24</title>
<g id="a_edge27_Node000023_Node000024"><a xlink:title=" ">
<path fill="none" stroke="#63b8ff" d="M1636.94,-110.74C1584.88,-101.35 1497.21,-85.55 1440.49,-75.32"/>
<polygon fill="#63b8ff" stroke="#63b8ff" points="1441.09,-71.87 1430.63,-73.54 1439.85,-78.76 1441.09,-71.87"/>
</a>
</g>
</g>
<!-- Node24&#45;&gt;Node6 -->
<g id="edge30_Node000024_Node000006" class="edge">
<title>Node24&#45;&gt;Node6</title>
<g id="a_edge30_Node000024_Node000006"><a xlink:title=" ">
<path fill="none" stroke="#63b8ff" d="M1341.25,-56.86C1336.44,-56.2 1331.62,-55.57 1327,-55 1177.89,-36.59 999.16,-19.88 927.27,-13.37"/>
<polygon fill="#63b8ff" stroke="#63b8ff" points="927.34,-9.87 917.06,-12.46 926.71,-16.84 927.34,-9.87"/>
</a>
</g>
</g>
<!-- Node24&#45;&gt;Node13 -->
<g id="edge29_Node000024_Node000013" class="edge">
<title>Node24&#45;&gt;Node13</title>
<g id="a_edge29_Node000024_Node000013"><a xlink:title=" ">
<path fill="none" stroke="#63b8ff" d="M1341.09,-59.1C1325.83,-57.69 1308.68,-56.18 1293,-55 1032.9,-35.44 721.8,-19.41 595.97,-13.23"/>
<polygon fill="#63b8ff" stroke="#63b8ff" points="595.96,-9.73 585.8,-12.74 595.62,-16.72 595.96,-9.73"/>
</a>
</g>
</g>
<!-- Node25 -->
<g id="Node000025" class="node">
<title>Node25</title>
<g id="a_Node000025"><a xlink:title=" ">
<polygon fill="#e0e0e0" stroke="#999999" points="1515,-19 1383,-19 1383,0 1515,0 1515,-19"/>
<text text-anchor="middle" x="1449" y="-7" font-family="Helvetica,sans-Serif" font-size="10.00">interface/language.pb.h</text>
</a>
</g>
</g>
<!-- Node24&#45;&gt;Node25 -->
<g id="edge28_Node000024_Node000025" class="edge">
<title>Node24&#45;&gt;Node25</title>
<g id="a_edge28_Node000024_Node000025"><a xlink:title=" ">
<path fill="none" stroke="#63b8ff" d="M1396.12,-54.98C1405.44,-47.15 1419.47,-35.34 1430.74,-25.86"/>
<polygon fill="#63b8ff" stroke="#63b8ff" points="1433.29,-28.29 1438.69,-19.17 1428.79,-22.93 1433.29,-28.29"/>
</a>
</g>
</g>
<!-- Node26 -->
<g id="Node000026" class="node">
<title>Node26</title>
<g id="a_Node000026"><a xlink:title=" ">
<polygon fill="#e0e0e0" stroke="#999999" points="1364.5,-19 1281.5,-19 1281.5,0 1364.5,0 1364.5,-19"/>
<text text-anchor="middle" x="1323" y="-7" font-family="Helvetica,sans-Serif" font-size="10.00">initializer_list</text>
</a>
</g>
</g>
<!-- Node24&#45;&gt;Node26 -->
<g id="edge31_Node000024_Node000026" class="edge">
<title>Node24&#45;&gt;Node26</title>
<g id="a_edge31_Node000024_Node000026"><a xlink:title=" ">
<path fill="none" stroke="#63b8ff" d="M1375.88,-54.98C1366.56,-47.15 1352.53,-35.34 1341.26,-25.86"/>
<polygon fill="#63b8ff" stroke="#63b8ff" points="1343.21,-22.93 1333.31,-19.17 1338.71,-28.29 1343.21,-22.93"/>
</a>
</g>
</g>
<!-- Node27&#45;&gt;Node6 -->
<g id="edge35_Node000027_Node000006" class="edge">
<title>Node27&#45;&gt;Node6</title>
<g id="a_edge35_Node000027_Node000006"><a xlink:title=" ">
<path fill="none" stroke="#63b8ff" d="M673.76,-164.92C690.84,-143.7 737.98,-88.1 788,-55 811.43,-39.5 841.13,-27.67 863.29,-20.12"/>
<polygon fill="#63b8ff" stroke="#63b8ff" points="864.49,-23.41 872.89,-16.95 862.3,-16.76 864.49,-23.41"/>
</a>
</g>
</g>
<!-- Node28 -->
<g id="Node000028" class="node">
<title>Node28</title>
<g id="a_Node000028"><a xlink:title=" ">
<polygon fill="#e0e0e0" stroke="#999999" points="690,-129 630,-129 630,-110 690,-110 690,-129"/>
<text text-anchor="middle" x="660" y="-117" font-family="Helvetica,sans-Serif" font-size="10.00">iostream</text>
</a>
</g>
</g>
<!-- Node27&#45;&gt;Node28 -->
<g id="edge34_Node000027_Node000028" class="edge">
<title>Node27&#45;&gt;Node28</title>
<g id="a_edge34_Node000027_Node000028"><a xlink:title=" ">
<path fill="none" stroke="#63b8ff" d="M665.84,-164.75C664.93,-157.8 663.61,-147.85 662.46,-139.13"/>
<polygon fill="#63b8ff" stroke="#63b8ff" points="665.91,-138.54 661.13,-129.09 658.97,-139.46 665.91,-138.54"/>
</a>
</g>
</g>
<!-- Node27&#45;&gt;Node29 -->
<g id="edge36_Node000027_Node000029" class="edge">
<title>Node27&#45;&gt;Node29</title>
<g id="a_edge36_Node000027_Node000029"><a xlink:title=" ">
<path fill="none" stroke="#63b8ff" d="M643.32,-168.11C602.68,-158.85 520.42,-140.03 476.52,-129.31"/>
<polygon fill="#63b8ff" stroke="#63b8ff" points="477.29,-125.89 466.74,-126.9 475.61,-132.69 477.29,-125.89"/>
</a>
</g>
</g>
<!-- Node30 -->
<g id="Node000030" class="node">
<title>Node30</title>
<g id="a_Node000030"><a xlink:title=" ">
<polygon fill="#e0e0e0" stroke="#999999" points="535.5,-129 484.5,-129 484.5,-110 535.5,-110 535.5,-129"/>
<text text-anchor="middle" x="510" y="-117" font-family="Helvetica,sans-Serif" font-size="10.00">variant</text>
</a>
</g>
</g>
<!-- Node27&#45;&gt;Node30 -->
<g id="edge37_Node000027_Node000030" class="edge">
<title>Node27&#45;&gt;Node30</title>
<g id="a_edge37_Node000027_Node000030"><a xlink:title=" ">
<path fill="none" stroke="#63b8ff" d="M643.5,-165.57C617.36,-156.74 574.9,-142.41 544.89,-132.28"/>
<polygon fill="#63b8ff" stroke="#63b8ff" points="545.82,-128.9 535.23,-129.02 543.58,-135.53 545.82,-128.9"/>
</a>
</g>
</g>
<!-- Node31 -->
<g id="Node000031" class="node">
<title>Node31</title>
<g id="a_Node000031"><a xlink:title=" ">
<polygon fill="#e0e0e0" stroke="#999999" points="612,-129 554,-129 554,-110 612,-110 612,-129"/>
<text text-anchor="middle" x="583" y="-117" font-family="Helvetica,sans-Serif" font-size="10.00">memory</text>
</a>
</g>
</g>
<!-- Node27&#45;&gt;Node31 -->
<g id="edge38_Node000027_Node000031" class="edge">
<title>Node27&#45;&gt;Node31</title>
<g id="a_edge38_Node000027_Node000031"><a xlink:title=" ">
<path fill="none" stroke="#63b8ff" d="M653.5,-164.98C640.6,-156.84 620.9,-144.41 605.6,-134.76"/>
<polygon fill="#63b8ff" stroke="#63b8ff" points="607.07,-131.55 596.74,-129.17 603.33,-137.47 607.07,-131.55"/>
</a>
</g>
</g>
<!-- Node33 -->
<g id="Node000033" class="node">
<title>Node33</title>
<g id="a_Node000033"><a xlink:title=" ">
<polygon fill="#e0e0e0" stroke="#999999" points="802,-129 746,-129 746,-110 802,-110 802,-129"/>
<text text-anchor="middle" x="774" y="-117" font-family="Helvetica,sans-Serif" font-size="10.00">sstream</text>
</a>
</g>
</g>
<!-- Node32&#45;&gt;Node33 -->
<g id="edge40_Node000032_Node000033" class="edge">
<title>Node32&#45;&gt;Node33</title>
<g id="a_edge40_Node000032_Node000033"><a xlink:title=" ">
<path fill="none" stroke="#63b8ff" d="M828.56,-164.98C818.85,-157.07 804.18,-145.11 792.5,-135.58"/>
<polygon fill="#63b8ff" stroke="#63b8ff" points="794.6,-132.78 784.63,-129.17 790.17,-138.2 794.6,-132.78"/>
</a>
</g>
</g>
<!-- Node34 -->
<g id="Node000034" class="node">
<title>Node34</title>
<g id="a_Node000034"><a xlink:title=" ">
<polygon fill="#e0e0e0" stroke="#999999" points="885.5,-129 820.5,-129 820.5,-110 885.5,-110 885.5,-129"/>
<text text-anchor="middle" x="853" y="-117" font-family="Helvetica,sans-Serif" font-size="10.00">stdexcept</text>
</a>
</g>
</g>
<!-- Node32&#45;&gt;Node34 -->
<g id="edge41_Node000032_Node000034" class="edge">
<title>Node32&#45;&gt;Node34</title>
<g id="a_edge41_Node000032_Node000034"><a xlink:title=" ">
<path fill="none" stroke="#63b8ff" d="M841.31,-164.75C843.17,-157.72 845.84,-147.62 848.15,-138.84"/>
<polygon fill="#63b8ff" stroke="#63b8ff" points="851.56,-139.65 850.73,-129.09 844.79,-137.86 851.56,-139.65"/>
</a>
</g>
</g>
<!-- Node36&#45;&gt;Node6 -->
<g id="edge50_Node000036_Node000006" class="edge">
<title>Node36&#45;&gt;Node6</title>
<g id="a_edge50_Node000036_Node000006"><a xlink:title=" ">
<path fill="none" stroke="#63b8ff" d="M364.15,-56.64C368.83,-56.05 373.5,-55.5 378,-55 560.96,-34.8 781.21,-18.49 862.67,-12.74"/>
<polygon fill="#63b8ff" stroke="#63b8ff" points="863.06,-16.22 872.79,-12.03 862.57,-9.24 863.06,-16.22"/>
</a>
</g>
</g>
<!-- Node36&#45;&gt;Node13 -->
<g id="edge51_Node000036_Node000013" class="edge">
<title>Node36&#45;&gt;Node13</title>
<g id="a_edge51_Node000036_Node000013"><a xlink:title=" ">
<path fill="none" stroke="#63b8ff" d="M350.99,-54.98C389.49,-45.87 450.69,-31.4 492.74,-21.45"/>
<polygon fill="#63b8ff" stroke="#63b8ff" points="493.8,-24.79 502.73,-19.08 492.19,-17.98 493.8,-24.79"/>
</a>
</g>
</g>
<!-- Node41 -->
<g id="Node000041" class="node">
<title>Node41</title>
<g id="a_Node000041"><a xlink:href="IConnect_8h.html" target="_top" xlink:title="Interface for Connect.h.">
<polygon fill="white" stroke="#666666" points="1437,-294 1369,-294 1369,-275 1437,-275 1437,-294"/>
<text text-anchor="middle" x="1403" y="-282" font-family="Helvetica,sans-Serif" font-size="10.00">IConnect.h</text>
</a>
</g>
</g>
<!-- Node40&#45;&gt;Node41 -->
<g id="edge62_Node000040_Node000041" class="edge">
<title>Node40&#45;&gt;Node41</title>
<g id="a_edge62_Node000040_Node000041"><a xlink:title=" ">
<path fill="none" stroke="#63b8ff" d="M1403,-329.75C1403,-322.8 1403,-312.85 1403,-304.13"/>
<polygon fill="#63b8ff" stroke="#63b8ff" points="1406.5,-304.09 1403,-294.09 1399.5,-304.09 1406.5,-304.09"/>
</a>
</g>
</g>
<!-- Node41&#45;&gt;Node6 -->
<g id="edge65_Node000041_Node000006" class="edge">
<title>Node41&#45;&gt;Node6</title>
<g id="a_edge65_Node000041_Node000006"><a xlink:title=" ">
<path fill="none" stroke="#63b8ff" d="M1437.27,-279.12C1537.76,-264.96 1819.21,-215.1 1732,-110 1679.52,-46.76 1074.71,-17.89 927.26,-11.77"/>
<polygon fill="#63b8ff" stroke="#63b8ff" points="927.2,-8.26 917.07,-11.35 926.92,-15.26 927.2,-8.26"/>
</a>
</g>
</g>
<!-- Node41&#45;&gt;Node15 -->
<g id="edge64_Node000041_Node000015" class="edge">
<title>Node41&#45;&gt;Node15</title>
<g id="a_edge64_Node000041_Node000015"><a xlink:title=" ">
<path fill="none" stroke="#63b8ff" d="M1399.31,-274.64C1393.38,-261.3 1380.57,-235.92 1363,-220 1314.93,-176.45 1244.3,-147.22 1201.39,-132.26"/>
<polygon fill="#63b8ff" stroke="#63b8ff" points="1202.49,-128.94 1191.89,-129.03 1200.23,-135.57 1202.49,-128.94"/>
</a>
</g>
</g>
<!-- Node41&#45;&gt;Node16 -->
<g id="edge63_Node000041_Node000016" class="edge">
<title>Node41&#45;&gt;Node16</title>
<g id="a_edge63_Node000041_Node000016"><a xlink:title=" ">
<path fill="none" stroke="#63b8ff" d="M1390.47,-274.98C1378.6,-266.92 1360.54,-254.65 1346.39,-245.03"/>
<polygon fill="#63b8ff" stroke="#63b8ff" points="1348,-241.9 1337.76,-239.17 1344.06,-247.69 1348,-241.9"/>
</a>
</g>
</g>
<!-- Node42 -->
<g id="Node000042" class="node">
<title>Node42</title>
<g id="a_Node000042"><a xlink:title=" ">
<polygon fill="#e0e0e0" stroke="#999999" points="1761,-239 1711,-239 1711,-220 1761,-220 1761,-239"/>
<text text-anchor="middle" x="1736" y="-227" font-family="Helvetica,sans-Serif" font-size="10.00">chrono</text>
</a>
</g>
</g>
<!-- Node41&#45;&gt;Node42 -->
<g id="edge66_Node000041_Node000042" class="edge">
<title>Node41&#45;&gt;Node42</title>
<g id="a_edge66_Node000041_Node000042"><a xlink:title=" ">
<path fill="none" stroke="#63b8ff" d="M1437.07,-279.07C1491.97,-271.76 1603.34,-256.28 1697,-239 1698.27,-238.77 1699.55,-238.52 1700.85,-238.27"/>
<polygon fill="#63b8ff" stroke="#63b8ff" points="1701.77,-241.65 1710.87,-236.23 1700.37,-234.8 1701.77,-241.65"/>
</a>
</g>
</g>
</g>
</svg>
