<?xml version="1.0" encoding="UTF-8" standalone="no"?>
<!DOCTYPE svg PUBLIC "-//W3C//DTD SVG 1.1//EN"
 "http://www.w3.org/Graphics/SVG/1.1/DTD/svg11.dtd">
<!-- Generated by graphviz version 2.43.0 (0)
 -->
<!-- Title: /home/runner/work/Catena/Catena/sdks/cpp/connections/REST/include/interface/ISocketReader.h Pages: 1 -->
<!--zoomable 489 -->

<svg id="main" version="1.1" xmlns="http://www.w3.org/2000/svg" xmlns:xlink="http://www.w3.org/1999/xlink" xml:space="preserve" onload="init(evt)">
<style type="text/css"><![CDATA[
.node, .edge {opacity: 0.7;}
.node.selected, .edge.selected {opacity: 1;}
.edge:hover path { stroke: red; }
.edge:hover polygon { stroke: red; fill: red; }
]]></style>

<defs>
  <circle id="rim" cx="0" cy="0" r="7"/>
  <circle id="rim2" cx="0" cy="0" r="3.5"/>
  <g id="zoomPlus">
    <use xlink:href="#rim" fill="#404040"><set attributeName="fill" to="#808080" begin="zoomplus.mouseover" end="zoomplus.mouseout"/></use>
    <path d="M-4,0h8M0,-4v8" fill="none" stroke="white" stroke-width="1.5" pointer-events="none"/>
  </g>
  <g id="zoomMin">
    <use xlink:href="#rim" fill="#404040"><set attributeName="fill" to="#808080" begin="zoomminus.mouseover" end="zoomminus.mouseout"/></use>
    <path d="M-4,0h8" fill="none" stroke="white" stroke-width="1.5" pointer-events="none"/>
  </g>
  <g id="arrowUp" transform="translate(30 24)">
    <use xlink:href="#rim"/>
    <path pointer-events="none" fill="none" stroke="white" stroke-width="1.5" d="M0,-3.0v7 M-2.5,-0.5L0,-3.0L2.5,-0.5"/>
  </g>
  <g id="arrowRight" transform="rotate(90) translate(36 -43)">
    <use xlink:href="#rim"/>
    <path pointer-events="none" fill="none" stroke="white" stroke-width="1.5" d="M0,-3.0v7 M-2.5,-0.5L0,-3.0L2.5,-0.5"/>
  </g>
  <g id="arrowDown" transform="rotate(180) translate(-30 -48)">
    <use xlink:href="#rim"/>
    <path pointer-events="none" fill="none" stroke="white" stroke-width="1.5" d="M0,-3.0v7 M-2.5,-0.5L0,-3.0L2.5,-0.5"/>
  </g>
  <g id="arrowLeft" transform="rotate(270) translate(-36 17)">
    <use xlink:href="#rim"/>
    <path pointer-events="none" fill="none" stroke="white" stroke-width="1.5" d="M0,-3.0v7 M-2.5,-0.5L0,-3.0L2.5,-0.5"/>
  </g>
  <g id="resetDef">
    <use xlink:href="#rim2" fill="#404040"><set attributeName="fill" to="#808080" begin="reset.mouseover" end="reset.mouseout"/></use>
  </g>
</defs>
<script type="application/ecmascript">
var viewWidth = 1883;
var viewHeight = 489;
var sectionId = 'dynsection-0';
</script>
<script type="application/ecmascript" xlink:href="svg.min.js"/>
<svg id="graph" class="graph">
<g id="viewport">
<title>/home/runner/work/Catena/Catena/sdks/cpp/connections/REST/include/interface/ISocketReader.h</title>
<!-- Node1 -->
<g id="Node000001" class="node">
<title>Node1</title>
<g id="a_Node000001"><a xlink:title="Interface for the SocketReader class.">
<polygon fill="#999999" stroke="#666666" points="710,-481 500,-481 500,-440 710,-440 710,-481"/>
<text text-anchor="start" x="508" y="-469" font-family="Helvetica,sans-Serif" font-size="10.00">/home/runner/work/Catena</text>
<text text-anchor="start" x="508" y="-458" font-family="Helvetica,sans-Serif" font-size="10.00">/Catena/sdks/cpp/connections</text>
<text text-anchor="middle" x="605" y="-447" font-family="Helvetica,sans-Serif" font-size="10.00">/REST/include/interface/ISocketReader.h</text>
</a>
</g>
</g>
<!-- Node2 -->
<g id="Node000002" class="node">
<title>Node2</title>
<g id="a_Node000002"><a xlink:title=" ">
<polygon fill="#e0e0e0" stroke="#999999" points="88,-404 0,-404 0,-385 88,-385 88,-404"/>
<text text-anchor="middle" x="44" y="-392" font-family="Helvetica,sans-Serif" font-size="10.00">boost/asio.hpp</text>
</a>
</g>
</g>
<!-- Node1&#45;&gt;Node2 -->
<g id="edge1_Node000001_Node000002" class="edge">
<title>Node1&#45;&gt;Node2</title>
<g id="a_edge1_Node000001_Node000002"><a xlink:title=" ">
<path fill="none" stroke="#63b8ff" d="M499.74,-449.56C399.18,-439.7 243.12,-423.47 98.19,-404.1"/>
<polygon fill="#63b8ff" stroke="#63b8ff" points="98.6,-400.63 88.22,-402.76 97.67,-407.56 98.6,-400.63"/>
</a>
</g>
</g>
<!-- Node3 -->
<g id="Node000003" class="node">
<title>Node3</title>
<g id="a_Node000003"><a xlink:title=" ">
<polygon fill="#e0e0e0" stroke="#999999" points="210,-404 106,-404 106,-385 210,-385 210,-404"/>
<text text-anchor="middle" x="158" y="-392" font-family="Helvetica,sans-Serif" font-size="10.00">boost/asio/ssl.hpp</text>
</a>
</g>
</g>
<!-- Node1&#45;&gt;Node3 -->
<g id="edge2_Node000001_Node000003" class="edge">
<title>Node1&#45;&gt;Node3</title>
<g id="a_edge2_Node000001_Node000003"><a xlink:title=" ">
<path fill="none" stroke="#63b8ff" d="M499.92,-444.45C413.08,-432.02 292.72,-414.79 220.4,-404.43"/>
<polygon fill="#63b8ff" stroke="#63b8ff" points="220.48,-400.91 210.08,-402.96 219.49,-407.84 220.48,-400.91"/>
</a>
</g>
</g>
<!-- Node4 -->
<g id="Node000004" class="node">
<title>Node4</title>
<g id="a_Node000004"><a xlink:href="ISubscriptionManager_8h.html" target="_top" xlink:title="Interface for managing parameter subscriptions in Catena.">
<polygon fill="white" stroke="#666666" points="1059.5,-404 928.5,-404 928.5,-385 1059.5,-385 1059.5,-404"/>
<text text-anchor="middle" x="994" y="-392" font-family="Helvetica,sans-Serif" font-size="10.00">ISubscriptionManager.h</text>
</a>
</g>
</g>
<!-- Node1&#45;&gt;Node4 -->
<g id="edge3_Node000001_Node000004" class="edge">
<title>Node1&#45;&gt;Node4</title>
<g id="a_edge3_Node000001_Node000004"><a xlink:title=" ">
<path fill="none" stroke="#63b8ff" d="M710.01,-442.22C781.06,-430.53 872.48,-415.49 932.12,-405.68"/>
<polygon fill="#63b8ff" stroke="#63b8ff" points="932.85,-409.11 942.15,-404.03 931.71,-402.2 932.85,-409.11"/>
</a>
</g>
</g>
<!-- Node6 -->
<g id="Node000006" class="node">
<title>Node6</title>
<g id="a_Node000006"><a xlink:title=" ">
<polygon fill="#e0e0e0" stroke="#999999" points="1429,-19 1385,-19 1385,0 1429,0 1429,-19"/>
<text text-anchor="middle" x="1407" y="-7" font-family="Helvetica,sans-Serif" font-size="10.00">string</text>
</a>
</g>
</g>
<!-- Node1&#45;&gt;Node6 -->
<g id="edge62_Node000001_Node000006" class="edge">
<title>Node1&#45;&gt;Node6</title>
<g id="a_edge62_Node000001_Node000006"><a xlink:title=" ">
<path fill="none" stroke="#63b8ff" d="M710.24,-459.1C986.81,-456.67 1713,-440.74 1713,-340.5 1713,-340.5 1713,-340.5 1713,-118.5 1713,-79.67 1687.14,-73.49 1653,-55 1583.49,-17.36 1488.37,-10.75 1439.26,-10.07"/>
<polygon fill="#63b8ff" stroke="#63b8ff" points="1439.24,-6.57 1429.22,-10.01 1439.2,-13.57 1439.24,-6.57"/>
</a>
</g>
</g>
<!-- Node18 -->
<g id="Node000018" class="node">
<title>Node18</title>
<g id="a_Node000018"><a xlink:title=" ">
<polygon fill="#e0e0e0" stroke="#999999" points="611.5,-19 518.5,-19 518.5,0 611.5,0 611.5,-19"/>
<text text-anchor="middle" x="565" y="-7" font-family="Helvetica,sans-Serif" font-size="10.00">unordered_map</text>
</a>
</g>
</g>
<!-- Node1&#45;&gt;Node18 -->
<g id="edge63_Node000001_Node000018" class="edge">
<title>Node1&#45;&gt;Node18</title>
<g id="a_edge63_Node000001_Node000018"><a xlink:title=" ">
<path fill="none" stroke="#63b8ff" d="M499.83,-446.18C391.38,-429.42 238,-395.93 238,-340.5 238,-340.5 238,-340.5 238,-118.5 238,-62.24 414.72,-30.33 508.33,-17.38"/>
<polygon fill="#63b8ff" stroke="#63b8ff" points="509.06,-20.81 518.5,-16 508.12,-13.87 509.06,-20.81"/>
</a>
</g>
</g>
<!-- Node40 -->
<g id="Node000040" class="node">
<title>Node40</title>
<g id="a_Node000040"><a xlink:title=" ">
<polygon fill="#e0e0e0" stroke="#999999" points="1874.5,-404 1741.5,-404 1741.5,-385 1874.5,-385 1874.5,-404"/>
<text text-anchor="middle" x="1808" y="-392" font-family="Helvetica,sans-Serif" font-size="10.00">interface/IServiceImpl.h</text>
</a>
</g>
</g>
<!-- Node1&#45;&gt;Node40 -->
<g id="edge61_Node000001_Node000040" class="edge">
<title>Node1&#45;&gt;Node40</title>
<g id="a_edge61_Node000001_Node000040"><a xlink:title=" ">
<path fill="none" stroke="#63b8ff" d="M710.31,-456.23C909.2,-449.62 1353.65,-432.8 1727,-404 1728.31,-403.9 1729.63,-403.79 1730.96,-403.69"/>
<polygon fill="#63b8ff" stroke="#63b8ff" points="1731.62,-407.14 1741.28,-402.8 1731.02,-400.17 1731.62,-407.14"/>
</a>
</g>
</g>
<!-- Node5 -->
<g id="Node000005" class="node">
<title>Node5</title>
<g id="a_Node000005"><a xlink:title=" ">
<polygon fill="#e0e0e0" stroke="#999999" points="1032,-349 1000,-349 1000,-330 1032,-330 1032,-349"/>
<text text-anchor="middle" x="1016" y="-337" font-family="Helvetica,sans-Serif" font-size="10.00">set</text>
</a>
</g>
</g>
<!-- Node4&#45;&gt;Node5 -->
<g id="edge4_Node000004_Node000005" class="edge">
<title>Node4&#45;&gt;Node5</title>
<g id="a_edge4_Node000004_Node000005"><a xlink:title=" ">
<path fill="none" stroke="#63b8ff" d="M997.63,-384.75C1000.58,-377.65 1004.83,-367.4 1008.51,-358.56"/>
<polygon fill="#63b8ff" stroke="#63b8ff" points="1011.83,-359.67 1012.43,-349.09 1005.37,-356.98 1011.83,-359.67"/>
</a>
</g>
</g>
<!-- Node4&#45;&gt;Node6 -->
<g id="edge5_Node000004_Node000006" class="edge">
<title>Node4&#45;&gt;Node6</title>
<g id="a_edge5_Node000004_Node000006"><a xlink:title=" ">
<path fill="none" stroke="#63b8ff" d="M1059.61,-389.93C1230.28,-379.79 1675,-347.41 1675,-285.5 1675,-285.5 1675,-285.5 1675,-118.5 1675,-82.85 1656.26,-73.85 1626,-55 1567.31,-18.45 1484.2,-11.22 1439.12,-10.2"/>
<polygon fill="#63b8ff" stroke="#63b8ff" points="1439.08,-6.7 1429.04,-10.07 1438.99,-13.7 1439.08,-6.7"/>
</a>
</g>
</g>
<!-- Node7 -->
<g id="Node000007" class="node">
<title>Node7</title>
<g id="a_Node000007"><a xlink:href="IDevice_8h.html" target="_top" xlink:title="Interface for device.">
<polygon fill="white" stroke="#666666" points="930,-349 868,-349 868,-330 930,-330 930,-349"/>
<text text-anchor="middle" x="899" y="-337" font-family="Helvetica,sans-Serif" font-size="10.00">IDevice.h</text>
</a>
</g>
</g>
<!-- Node4&#45;&gt;Node7 -->
<g id="edge6_Node000004_Node000007" class="edge">
<title>Node4&#45;&gt;Node7</title>
<g id="a_edge6_Node000004_Node000007"><a xlink:title=" ">
<path fill="none" stroke="#63b8ff" d="M978.74,-384.98C963.87,-376.69 941.02,-363.94 923.58,-354.22"/>
<polygon fill="#63b8ff" stroke="#63b8ff" points="924.98,-350.99 914.54,-349.17 921.57,-357.1 924.98,-350.99"/>
</a>
</g>
</g>
<!-- Node8 -->
<g id="Node000008" class="node">
<title>Node8</title>
<g id="a_Node000008"><a xlink:href="Authorization_8h.html" target="_top" xlink:title="Class for handling authorization information.">
<polygon fill="white" stroke="#666666" points="1017.5,-294 926.5,-294 926.5,-275 1017.5,-275 1017.5,-294"/>
<text text-anchor="middle" x="972" y="-282" font-family="Helvetica,sans-Serif" font-size="10.00">Authorization.h</text>
</a>
</g>
</g>
<!-- Node4&#45;&gt;Node8 -->
<g id="edge60_Node000004_Node000008" class="edge">
<title>Node4&#45;&gt;Node8</title>
<g id="a_edge60_Node000004_Node000008"><a xlink:title=" ">
<path fill="none" stroke="#63b8ff" d="M992.2,-384.66C988.64,-367.17 980.62,-327.8 975.82,-304.27"/>
<polygon fill="#63b8ff" stroke="#63b8ff" points="979.19,-303.26 973.76,-294.16 972.33,-304.66 979.19,-303.26"/>
</a>
</g>
</g>
<!-- Node21 -->
<g id="Node000021" class="node">
<title>Node21</title>
<g id="a_Node000021"><a xlink:href="IParam_8h.html" target="_top" xlink:title="Interface for parameters.">
<polygon fill="white" stroke="#666666" points="1075.5,-239 1016.5,-239 1016.5,-220 1075.5,-220 1075.5,-239"/>
<text text-anchor="middle" x="1046" y="-227" font-family="Helvetica,sans-Serif" font-size="10.00">IParam.h</text>
</a>
</g>
</g>
<!-- Node4&#45;&gt;Node21 -->
<g id="edge59_Node000004_Node000021" class="edge">
<title>Node4&#45;&gt;Node21</title>
<g id="a_edge59_Node000004_Node000021"><a xlink:title=" ">
<path fill="none" stroke="#63b8ff" d="M1007.72,-384.73C1018.77,-376.84 1033.64,-364.16 1041,-349 1056.67,-316.69 1053.31,-273.42 1049.58,-249.1"/>
<polygon fill="#63b8ff" stroke="#63b8ff" points="1053,-248.36 1047.85,-239.1 1046.1,-249.55 1053,-248.36"/>
</a>
</g>
</g>
<!-- Node7&#45;&gt;Node6 -->
<g id="edge55_Node000007_Node000006" class="edge">
<title>Node7&#45;&gt;Node6</title>
<g id="a_edge55_Node000007_Node000006"><a xlink:title=" ">
<path fill="none" stroke="#63b8ff" d="M930.24,-335.6C1070.71,-322.38 1637,-266.8 1637,-230.5 1637,-230.5 1637,-230.5 1637,-118.5 1637,-32.18 1502.62,-14.72 1439.29,-11.29"/>
<polygon fill="#63b8ff" stroke="#63b8ff" points="1439.2,-7.78 1429.05,-10.82 1438.88,-14.77 1439.2,-7.78"/>
</a>
</g>
</g>
<!-- Node7&#45;&gt;Node8 -->
<g id="edge7_Node000007_Node000008" class="edge">
<title>Node7&#45;&gt;Node8</title>
<g id="a_edge7_Node000007_Node000008"><a xlink:title=" ">
<path fill="none" stroke="#63b8ff" d="M910.73,-329.98C921.73,-322 938.42,-309.88 951.6,-300.31"/>
<polygon fill="#63b8ff" stroke="#63b8ff" points="954.02,-302.88 960.06,-294.17 949.91,-297.21 954.02,-302.88"/>
</a>
</g>
</g>
<!-- Node9 -->
<g id="Node000009" class="node">
<title>Node9</title>
<g id="a_Node000009"><a xlink:href="Path_8h.html" target="_top" xlink:title="Handles Path objects used to uniquely identify and access OIDs.">
<polygon fill="white" stroke="#666666" points="1305.5,-184 1258.5,-184 1258.5,-165 1305.5,-165 1305.5,-184"/>
<text text-anchor="middle" x="1282" y="-172" font-family="Helvetica,sans-Serif" font-size="10.00">Path.h</text>
</a>
</g>
</g>
<!-- Node7&#45;&gt;Node9 -->
<g id="edge47_Node000007_Node000009" class="edge">
<title>Node7&#45;&gt;Node9</title>
<g id="a_edge47_Node000007_Node000009"><a xlink:title=" ">
<path fill="none" stroke="#63b8ff" d="M930.22,-330.72C960.34,-322.82 1006.99,-309.56 1046,-294 1126.39,-261.92 1216.56,-212.71 1258.37,-189.08"/>
<polygon fill="#63b8ff" stroke="#63b8ff" points="1260.26,-192.03 1267.23,-184.04 1256.8,-185.94 1260.26,-192.03"/>
</a>
</g>
</g>
<!-- Node11 -->
<g id="Node000011" class="node">
<title>Node11</title>
<g id="a_Node000011"><a xlink:title=" ">
<polygon fill="#e0e0e0" stroke="#999999" points="1608.5,-129 1561.5,-129 1561.5,-110 1608.5,-110 1608.5,-129"/>
<text text-anchor="middle" x="1585" y="-117" font-family="Helvetica,sans-Serif" font-size="10.00">vector</text>
</a>
</g>
</g>
<!-- Node7&#45;&gt;Node11 -->
<g id="edge56_Node000007_Node000011" class="edge">
<title>Node7&#45;&gt;Node11</title>
<g id="a_edge56_Node000007_Node000011"><a xlink:title=" ">
<path fill="none" stroke="#63b8ff" d="M930.32,-331.82C966.95,-323.79 1029.29,-309.46 1082,-294 1262.63,-241.01 1474.42,-162.44 1553.3,-132.6"/>
<polygon fill="#63b8ff" stroke="#63b8ff" points="1554.57,-135.86 1562.68,-129.04 1552.09,-129.31 1554.57,-135.86"/>
</a>
</g>
</g>
<!-- Node20 -->
<g id="Node000020" class="node">
<title>Node20</title>
<g id="a_Node000020"><a xlink:title=" ">
<polygon fill="#e0e0e0" stroke="#999999" points="385.5,-129 266.5,-129 266.5,-110 385.5,-110 385.5,-129"/>
<text text-anchor="middle" x="326" y="-117" font-family="Helvetica,sans-Serif" font-size="10.00">interface/device.pb.h</text>
</a>
</g>
</g>
<!-- Node7&#45;&gt;Node20 -->
<g id="edge54_Node000007_Node000020" class="edge">
<title>Node7&#45;&gt;Node20</title>
<g id="a_edge54_Node000007_Node000020"><a xlink:title=" ">
<path fill="none" stroke="#63b8ff" d="M867.82,-338.07C812.26,-336.4 693.21,-328.67 600,-294 494.08,-254.6 385.81,-170.32 343.99,-135.76"/>
<polygon fill="#63b8ff" stroke="#63b8ff" points="346.02,-132.9 336.1,-129.18 341.54,-138.27 346.02,-132.9"/>
</a>
</g>
</g>
<!-- Node7&#45;&gt;Node21 -->
<g id="edge48_Node000007_Node000021" class="edge">
<title>Node7&#45;&gt;Node21</title>
<g id="a_edge48_Node000007_Node000021"><a xlink:title=" ">
<path fill="none" stroke="#63b8ff" d="M930.11,-335.46C958.76,-331.05 1000.56,-320.26 1026,-294 1037.68,-281.95 1042.54,-263.14 1044.56,-249.12"/>
<polygon fill="#63b8ff" stroke="#63b8ff" points="1048.05,-249.44 1045.66,-239.12 1041.09,-248.68 1048.05,-249.44"/>
</a>
</g>
</g>
<!-- Node32 -->
<g id="Node000032" class="node">
<title>Node32</title>
<g id="a_Node000032"><a xlink:href="Status_8h.html" target="_top" xlink:title="Communicates failure status using gRPC&#39;s codes.">
<polygon fill="white" stroke="#666666" points="781,-184 725,-184 725,-165 781,-165 781,-184"/>
<text text-anchor="middle" x="753" y="-172" font-family="Helvetica,sans-Serif" font-size="10.00">Status.h</text>
</a>
</g>
</g>
<!-- Node7&#45;&gt;Node32 -->
<g id="edge52_Node000007_Node000032" class="edge">
<title>Node7&#45;&gt;Node32</title>
<g id="a_edge52_Node000007_Node000032"><a xlink:title=" ">
<path fill="none" stroke="#63b8ff" d="M867.99,-337.15C811.56,-333.97 695.62,-323.88 671,-294 650.09,-268.61 654.18,-248.26 671,-220 680.69,-203.71 698.66,-193.01 715.31,-186.2"/>
<polygon fill="#63b8ff" stroke="#63b8ff" points="716.75,-189.4 724.89,-182.63 714.3,-182.84 716.75,-189.4"/>
</a>
</g>
</g>
<!-- Node36 -->
<g id="Node000036" class="node">
<title>Node36</title>
<g id="a_Node000036"><a xlink:href="ILanguagePack_8h.html" target="_top" xlink:title="Interface for language packs.">
<polygon fill="white" stroke="#666666" points="789,-74 691,-74 691,-55 789,-55 789,-74"/>
<text text-anchor="middle" x="740" y="-62" font-family="Helvetica,sans-Serif" font-size="10.00">ILanguagePack.h</text>
</a>
</g>
</g>
<!-- Node7&#45;&gt;Node36 -->
<g id="edge49_Node000007_Node000036" class="edge">
<title>Node7&#45;&gt;Node36</title>
<g id="a_edge49_Node000007_Node000036"><a xlink:title=" ">
<path fill="none" stroke="#63b8ff" d="M867.92,-335.84C810.49,-330.45 690.44,-316.75 656,-294 627.77,-275.35 614,-264.34 614,-230.5 614,-230.5 614,-230.5 614,-173.5 614,-125.23 667.96,-93.89 705.26,-77.99"/>
<polygon fill="#63b8ff" stroke="#63b8ff" points="706.87,-81.11 714.8,-74.09 704.22,-74.63 706.87,-81.11"/>
</a>
</g>
</g>
<!-- Node37 -->
<g id="Node000037" class="node">
<title>Node37</title>
<g id="a_Node000037"><a xlink:title=" ">
<polygon fill="#e0e0e0" stroke="#999999" points="761.5,-294 680.5,-294 680.5,-275 761.5,-275 761.5,-294"/>
<text text-anchor="middle" x="721" y="-282" font-family="Helvetica,sans-Serif" font-size="10.00">vdk/signals.h</text>
</a>
</g>
</g>
<!-- Node7&#45;&gt;Node37 -->
<g id="edge53_Node000007_Node000037" class="edge">
<title>Node7&#45;&gt;Node37</title>
<g id="a_edge53_Node000007_Node000037"><a xlink:title=" ">
<path fill="none" stroke="#63b8ff" d="M870.4,-329.98C840.39,-321.05 793.02,-306.94 759.68,-297.02"/>
<polygon fill="#63b8ff" stroke="#63b8ff" points="760.41,-293.58 749.82,-294.08 758.41,-300.29 760.41,-293.58"/>
</a>
</g>
</g>
<!-- Node38 -->
<g id="Node000038" class="node">
<title>Node38</title>
<g id="a_Node000038"><a xlink:title=" ">
<polygon fill="#e0e0e0" stroke="#999999" points="842,-294 780,-294 780,-275 842,-275 842,-294"/>
<text text-anchor="middle" x="811" y="-282" font-family="Helvetica,sans-Serif" font-size="10.00">coroutine</text>
</a>
</g>
</g>
<!-- Node7&#45;&gt;Node38 -->
<g id="edge57_Node000007_Node000038" class="edge">
<title>Node7&#45;&gt;Node38</title>
<g id="a_edge57_Node000007_Node000038"><a xlink:title=" ">
<path fill="none" stroke="#63b8ff" d="M884.86,-329.98C871.21,-321.77 850.31,-309.18 834.22,-299.49"/>
<polygon fill="#63b8ff" stroke="#63b8ff" points="835.77,-296.33 825.4,-294.17 832.16,-302.33 835.77,-296.33"/>
</a>
</g>
</g>
<!-- Node39 -->
<g id="Node000039" class="node">
<title>Node39</title>
<g id="a_Node000039"><a xlink:title=" ">
<polygon fill="#e0e0e0" stroke="#999999" points="908,-294 860,-294 860,-275 908,-275 908,-294"/>
<text text-anchor="middle" x="884" y="-282" font-family="Helvetica,sans-Serif" font-size="10.00">mutex</text>
</a>
</g>
</g>
<!-- Node7&#45;&gt;Node39 -->
<g id="edge58_Node000007_Node000039" class="edge">
<title>Node7&#45;&gt;Node39</title>
<g id="a_edge58_Node000007_Node000039"><a xlink:title=" ">
<path fill="none" stroke="#63b8ff" d="M896.52,-329.75C894.54,-322.72 891.68,-312.62 889.19,-303.84"/>
<polygon fill="#63b8ff" stroke="#63b8ff" points="892.52,-302.76 886.43,-294.09 885.79,-304.66 892.52,-302.76"/>
</a>
</g>
</g>
<!-- Node8&#45;&gt;Node9 -->
<g id="edge8_Node000008_Node000009" class="edge">
<title>Node8&#45;&gt;Node9</title>
<g id="a_edge8_Node000008_Node000009"><a xlink:title=" ">
<path fill="none" stroke="#63b8ff" d="M996.58,-274.94C1051.8,-255.7 1185.69,-209.05 1248.47,-187.18"/>
<polygon fill="#63b8ff" stroke="#63b8ff" points="1249.97,-190.36 1258.27,-183.77 1247.67,-183.75 1249.97,-190.36"/>
</a>
</g>
</g>
<!-- Node14 -->
<g id="Node000014" class="node">
<title>Node14</title>
<g id="a_Node000014"><a xlink:href="Enums_8h.html" target="_top" xlink:title="tools for using EnumDecorators.">
<polygon fill="white" stroke="#666666" points="543.5,-184 484.5,-184 484.5,-165 543.5,-165 543.5,-184"/>
<text text-anchor="middle" x="514" y="-172" font-family="Helvetica,sans-Serif" font-size="10.00">Enums.h</text>
</a>
</g>
</g>
<!-- Node8&#45;&gt;Node14 -->
<g id="edge14_Node000008_Node000014" class="edge">
<title>Node8&#45;&gt;Node14</title>
<g id="a_edge14_Node000008_Node000014"><a xlink:title=" ">
<path fill="none" stroke="#63b8ff" d="M926.39,-276.42C923.21,-275.94 920.06,-275.46 917,-275 807.73,-258.56 777.65,-267.92 671,-239 623.63,-226.15 571.28,-203.06 540.59,-188.55"/>
<polygon fill="#63b8ff" stroke="#63b8ff" points="541.95,-185.32 531.42,-184.16 538.93,-191.63 541.95,-185.32"/>
</a>
</g>
</g>
<!-- Node8&#45;&gt;Node21 -->
<g id="edge23_Node000008_Node000021" class="edge">
<title>Node8&#45;&gt;Node21</title>
<g id="a_edge23_Node000008_Node000021"><a xlink:title=" ">
<path fill="none" stroke="#63b8ff" d="M983.89,-274.98C995.15,-266.92 1012.29,-254.65 1025.71,-245.03"/>
<polygon fill="#63b8ff" stroke="#63b8ff" points="1027.8,-247.84 1033.89,-239.17 1023.73,-242.15 1027.8,-247.84"/>
</a>
</g>
</g>
<!-- Node25 -->
<g id="Node000025" class="node">
<title>Node25</title>
<g id="a_Node000025"><a xlink:href="IParamDescriptor_8h.html" target="_top" xlink:title="Interface class for ParamDescriptor.">
<polygon fill="white" stroke="#666666" points="1021.5,-184 912.5,-184 912.5,-165 1021.5,-165 1021.5,-184"/>
<text text-anchor="middle" x="967" y="-172" font-family="Helvetica,sans-Serif" font-size="10.00">IParamDescriptor.h</text>
</a>
</g>
</g>
<!-- Node8&#45;&gt;Node25 -->
<g id="edge44_Node000008_Node000025" class="edge">
<title>Node8&#45;&gt;Node25</title>
<g id="a_edge44_Node000008_Node000025"><a xlink:title=" ">
<path fill="none" stroke="#63b8ff" d="M971.59,-274.66C970.78,-257.17 968.96,-217.8 967.87,-194.27"/>
<polygon fill="#63b8ff" stroke="#63b8ff" points="971.36,-193.99 967.4,-184.16 964.37,-194.31 971.36,-193.99"/>
</a>
</g>
</g>
<!-- Node27 -->
<g id="Node000027" class="node">
<title>Node27</title>
<g id="a_Node000027"><a xlink:title=" ">
<polygon fill="#e0e0e0" stroke="#999999" points="1018.5,-74 953.5,-74 953.5,-55 1018.5,-55 1018.5,-74"/>
<text text-anchor="middle" x="986" y="-62" font-family="Helvetica,sans-Serif" font-size="10.00">functional</text>
</a>
</g>
</g>
<!-- Node8&#45;&gt;Node27 -->
<g id="edge46_Node000008_Node000027" class="edge">
<title>Node8&#45;&gt;Node27</title>
<g id="a_edge46_Node000008_Node000027"><a xlink:title=" ">
<path fill="none" stroke="#63b8ff" d="M932.97,-274.98C879.99,-262 784.11,-233.44 716,-184 684.85,-161.39 645.66,-138.97 671,-110 710.56,-64.77 879.64,-83.35 939,-74 940.46,-73.77 941.94,-73.53 943.44,-73.29"/>
<polygon fill="#63b8ff" stroke="#63b8ff" points="944.14,-76.72 953.42,-71.59 942.97,-69.82 944.14,-76.72"/>
</a>
</g>
</g>
<!-- Node35 -->
<g id="Node000035" class="node">
<title>Node35</title>
<g id="a_Node000035"><a xlink:title=" ">
<polygon fill="#e0e0e0" stroke="#999999" points="760,-239 680,-239 680,-220 760,-220 760,-239"/>
<text text-anchor="middle" x="720" y="-227" font-family="Helvetica,sans-Serif" font-size="10.00">jwt&#45;cpp/jwt.h</text>
</a>
</g>
</g>
<!-- Node8&#45;&gt;Node35 -->
<g id="edge45_Node000008_Node000035" class="edge">
<title>Node8&#45;&gt;Node35</title>
<g id="a_edge45_Node000008_Node000035"><a xlink:title=" ">
<path fill="none" stroke="#63b8ff" d="M931.51,-274.98C887.7,-265.77 817.77,-251.06 770.43,-241.11"/>
<polygon fill="#63b8ff" stroke="#63b8ff" points="770.89,-237.63 760.39,-238.99 769.45,-244.48 770.89,-237.63"/>
</a>
</g>
</g>
<!-- Node9&#45;&gt;Node6 -->
<g id="edge10_Node000009_Node000006" class="edge">
<title>Node9&#45;&gt;Node6</title>
<g id="a_edge10_Node000009_Node000006"><a xlink:title=" ">
<path fill="none" stroke="#63b8ff" d="M1305.69,-168.06C1310.42,-167.01 1315.36,-165.95 1320,-165 1362.96,-156.21 1485.97,-162.71 1514,-129 1546.8,-89.55 1476.24,-45.2 1434.64,-23.66"/>
<polygon fill="#63b8ff" stroke="#63b8ff" points="1436.01,-20.43 1425.5,-19.06 1432.85,-26.68 1436.01,-20.43"/>
</a>
</g>
</g>
<!-- Node10 -->
<g id="Node000010" class="node">
<title>Node10</title>
<g id="a_Node000010"><a xlink:title=" ">
<polygon fill="#e0e0e0" stroke="#999999" points="1435,-129 1375,-129 1375,-110 1435,-110 1435,-129"/>
<text text-anchor="middle" x="1405" y="-117" font-family="Helvetica,sans-Serif" font-size="10.00">iostream</text>
</a>
</g>
</g>
<!-- Node9&#45;&gt;Node10 -->
<g id="edge9_Node000009_Node000010" class="edge">
<title>Node9&#45;&gt;Node10</title>
<g id="a_edge9_Node000009_Node000010"><a xlink:title=" ">
<path fill="none" stroke="#63b8ff" d="M1301.76,-164.98C1321.73,-156.38 1352.8,-142.99 1375.65,-133.15"/>
<polygon fill="#63b8ff" stroke="#63b8ff" points="1377.08,-136.34 1384.88,-129.17 1374.31,-129.91 1377.08,-136.34"/>
</a>
</g>
</g>
<!-- Node9&#45;&gt;Node11 -->
<g id="edge11_Node000009_Node000011" class="edge">
<title>Node9&#45;&gt;Node11</title>
<g id="a_edge11_Node000009_Node000011"><a xlink:title=" ">
<path fill="none" stroke="#63b8ff" d="M1305.67,-167.96C1310.4,-166.93 1315.35,-165.89 1320,-165 1420.34,-145.84 1446.66,-148.16 1547,-129 1548.45,-128.72 1549.93,-128.43 1551.43,-128.13"/>
<polygon fill="#63b8ff" stroke="#63b8ff" points="1552.27,-131.53 1561.33,-126.04 1550.82,-124.68 1552.27,-131.53"/>
</a>
</g>
</g>
<!-- Node12 -->
<g id="Node000012" class="node">
<title>Node12</title>
<g id="a_Node000012"><a xlink:title=" ">
<polygon fill="#e0e0e0" stroke="#999999" points="1504.5,-129 1453.5,-129 1453.5,-110 1504.5,-110 1504.5,-129"/>
<text text-anchor="middle" x="1479" y="-117" font-family="Helvetica,sans-Serif" font-size="10.00">variant</text>
</a>
</g>
</g>
<!-- Node9&#45;&gt;Node12 -->
<g id="edge12_Node000009_Node000012" class="edge">
<title>Node9&#45;&gt;Node12</title>
<g id="a_edge12_Node000009_Node000012"><a xlink:title=" ">
<path fill="none" stroke="#63b8ff" d="M1305.76,-167.11C1340.03,-157.89 1403.57,-140.79 1443.44,-130.07"/>
<polygon fill="#63b8ff" stroke="#63b8ff" points="1444.53,-133.4 1453.28,-127.42 1442.71,-126.64 1444.53,-133.4"/>
</a>
</g>
</g>
<!-- Node13 -->
<g id="Node000013" class="node">
<title>Node13</title>
<g id="a_Node000013"><a xlink:title=" ">
<polygon fill="#e0e0e0" stroke="#999999" points="1357,-129 1299,-129 1299,-110 1357,-110 1357,-129"/>
<text text-anchor="middle" x="1328" y="-117" font-family="Helvetica,sans-Serif" font-size="10.00">memory</text>
</a>
</g>
</g>
<!-- Node9&#45;&gt;Node13 -->
<g id="edge13_Node000009_Node000013" class="edge">
<title>Node9&#45;&gt;Node13</title>
<g id="a_edge13_Node000009_Node000013"><a xlink:title=" ">
<path fill="none" stroke="#63b8ff" d="M1289.6,-164.75C1296.16,-157.18 1305.82,-146.05 1313.81,-136.84"/>
<polygon fill="#63b8ff" stroke="#63b8ff" points="1316.63,-138.94 1320.55,-129.09 1311.35,-134.35 1316.63,-138.94"/>
</a>
</g>
</g>
<!-- Node15 -->
<g id="Node000015" class="node">
<title>Node15</title>
<g id="a_Node000015"><a xlink:href="EnumDecorator_8h.html" target="_top" xlink:title="Provides an enum with useful extra functionality.">
<polygon fill="white" stroke="#666666" points="586,-129 442,-129 442,-110 586,-110 586,-129"/>
<text text-anchor="middle" x="514" y="-117" font-family="Helvetica,sans-Serif" font-size="10.00">patterns/EnumDecorator.h</text>
</a>
</g>
</g>
<!-- Node14&#45;&gt;Node15 -->
<g id="edge15_Node000014_Node000015" class="edge">
<title>Node14&#45;&gt;Node15</title>
<g id="a_edge15_Node000014_Node000015"><a xlink:title=" ">
<path fill="none" stroke="#63b8ff" d="M514,-164.75C514,-157.8 514,-147.85 514,-139.13"/>
<polygon fill="#63b8ff" stroke="#63b8ff" points="517.5,-139.09 514,-129.09 510.5,-139.09 517.5,-139.09"/>
</a>
</g>
</g>
<!-- Node17 -->
<g id="Node000017" class="node">
<title>Node17</title>
<g id="a_Node000017"><a xlink:title=" ">
<polygon fill="#e0e0e0" stroke="#999999" points="419,-74 369,-74 369,-55 419,-55 419,-74"/>
<text text-anchor="middle" x="394" y="-62" font-family="Helvetica,sans-Serif" font-size="10.00">cstdint</text>
</a>
</g>
</g>
<!-- Node14&#45;&gt;Node17 -->
<g id="edge22_Node000014_Node000017" class="edge">
<title>Node14&#45;&gt;Node17</title>
<g id="a_edge22_Node000014_Node000017"><a xlink:title=" ">
<path fill="none" stroke="#63b8ff" d="M491.38,-164.86C473.92,-157.36 449.96,-145.16 433,-129 419.42,-116.06 408.71,-97.4 401.97,-83.65"/>
<polygon fill="#63b8ff" stroke="#63b8ff" points="405.01,-81.87 397.62,-74.28 398.66,-84.82 405.01,-81.87"/>
</a>
</g>
</g>
<!-- Node14&#45;&gt;Node20 -->
<g id="edge21_Node000014_Node000020" class="edge">
<title>Node14&#45;&gt;Node20</title>
<g id="a_edge21_Node000014_Node000020"><a xlink:title=" ">
<path fill="none" stroke="#63b8ff" d="M484.21,-165.1C452.36,-156.12 401.67,-141.83 366.27,-131.85"/>
<polygon fill="#63b8ff" stroke="#63b8ff" points="366.85,-128.38 356.27,-129.03 364.95,-135.12 366.85,-128.38"/>
</a>
</g>
</g>
<!-- Node15&#45;&gt;Node6 -->
<g id="edge19_Node000015_Node000006" class="edge">
<title>Node15&#45;&gt;Node6</title>
<g id="a_edge19_Node000015_Node000006"><a xlink:title=" ">
<path fill="none" stroke="#63b8ff" d="M586.14,-113.23C682.26,-105.71 846.95,-90.9 905,-74 923.51,-68.61 925.44,-60.23 944,-55 1100.69,-10.86 1297.7,-8.64 1374.38,-9.69"/>
<polygon fill="#63b8ff" stroke="#63b8ff" points="1374.74,-13.2 1384.8,-9.87 1374.86,-6.2 1374.74,-13.2"/>
</a>
</g>
</g>
<!-- Node16 -->
<g id="Node000016" class="node">
<title>Node16</title>
<g id="a_Node000016"><a xlink:href="ReflectionMacros_8h.html" target="_top" xlink:title="adapted from https://github.com/tapika/TestCppReflect">
<polygon fill="white" stroke="#666666" points="673,-74 563,-74 563,-55 673,-55 673,-74"/>
<text text-anchor="middle" x="618" y="-62" font-family="Helvetica,sans-Serif" font-size="10.00">ReflectionMacros.h</text>
</a>
</g>
</g>
<!-- Node15&#45;&gt;Node16 -->
<g id="edge16_Node000015_Node000016" class="edge">
<title>Node15&#45;&gt;Node16</title>
<g id="a_edge16_Node000015_Node000016"><a xlink:title=" ">
<path fill="none" stroke="#63b8ff" d="M530.71,-109.98C547.21,-101.57 572.7,-88.59 591.88,-78.81"/>
<polygon fill="#63b8ff" stroke="#63b8ff" points="593.67,-81.83 600.99,-74.17 590.49,-75.59 593.67,-81.83"/>
</a>
</g>
</g>
<!-- Node15&#45;&gt;Node17 -->
<g id="edge17_Node000015_Node000017" class="edge">
<title>Node15&#45;&gt;Node17</title>
<g id="a_edge17_Node000015_Node000017"><a xlink:title=" ">
<path fill="none" stroke="#63b8ff" d="M494.72,-109.98C475.33,-101.42 445.19,-88.11 422.93,-78.28"/>
<polygon fill="#63b8ff" stroke="#63b8ff" points="424.19,-75.01 413.63,-74.17 421.36,-81.41 424.19,-75.01"/>
</a>
</g>
</g>
<!-- Node15&#45;&gt;Node18 -->
<g id="edge18_Node000015_Node000018" class="edge">
<title>Node15&#45;&gt;Node18</title>
<g id="a_edge18_Node000015_Node000018"><a xlink:title=" ">
<path fill="none" stroke="#63b8ff" d="M518.17,-109.66C526.55,-91.93 545.53,-51.73 556.59,-28.32"/>
<polygon fill="#63b8ff" stroke="#63b8ff" points="559.81,-29.7 560.91,-19.16 553.48,-26.71 559.81,-29.7"/>
</a>
</g>
</g>
<!-- Node19 -->
<g id="Node000019" class="node">
<title>Node19</title>
<g id="a_Node000019"><a xlink:title=" ">
<polygon fill="#e0e0e0" stroke="#999999" points="506.5,-74 437.5,-74 437.5,-55 506.5,-55 506.5,-74"/>
<text text-anchor="middle" x="472" y="-62" font-family="Helvetica,sans-Serif" font-size="10.00">type_traits</text>
</a>
</g>
</g>
<!-- Node15&#45;&gt;Node19 -->
<g id="edge20_Node000015_Node000019" class="edge">
<title>Node15&#45;&gt;Node19</title>
<g id="a_edge20_Node000015_Node000019"><a xlink:title=" ">
<path fill="none" stroke="#63b8ff" d="M507.06,-109.75C501.13,-102.26 492.43,-91.28 485.18,-82.13"/>
<polygon fill="#63b8ff" stroke="#63b8ff" points="487.76,-79.75 478.81,-74.09 482.27,-84.1 487.76,-79.75"/>
</a>
</g>
</g>
<!-- Node21&#45;&gt;Node9 -->
<g id="edge39_Node000021_Node000009" class="edge">
<title>Node21&#45;&gt;Node9</title>
<g id="a_edge39_Node000021_Node000009"><a xlink:title=" ">
<path fill="none" stroke="#63b8ff" d="M1075.89,-221.79C1120.05,-211.87 1202.48,-193.36 1248.58,-183"/>
<polygon fill="#63b8ff" stroke="#63b8ff" points="1249.4,-186.41 1258.39,-180.8 1247.86,-179.58 1249.4,-186.41"/>
</a>
</g>
</g>
<!-- Node21&#45;&gt;Node14 -->
<g id="edge24_Node000021_Node000014" class="edge">
<title>Node21&#45;&gt;Node14</title>
<g id="a_edge24_Node000021_Node000014"><a xlink:title=" ">
<path fill="none" stroke="#63b8ff" d="M1016.26,-225.54C926.12,-216.56 655.92,-189.64 553.74,-179.46"/>
<polygon fill="#63b8ff" stroke="#63b8ff" points="553.83,-175.95 543.53,-178.44 553.14,-182.92 553.83,-175.95"/>
</a>
</g>
</g>
<!-- Node22 -->
<g id="Node000022" class="node">
<title>Node22</title>
<g id="a_Node000022"><a xlink:href="IConstraint_8h.html" target="_top" xlink:title="Interface for constraints.">
<polygon fill="white" stroke="#666666" points="1157.5,-184 1078.5,-184 1078.5,-165 1157.5,-165 1157.5,-184"/>
<text text-anchor="middle" x="1118" y="-172" font-family="Helvetica,sans-Serif" font-size="10.00">IConstraint.h</text>
</a>
</g>
</g>
<!-- Node21&#45;&gt;Node22 -->
<g id="edge25_Node000021_Node000022" class="edge">
<title>Node21&#45;&gt;Node22</title>
<g id="a_edge25_Node000021_Node000022"><a xlink:title=" ">
<path fill="none" stroke="#63b8ff" d="M1057.57,-219.98C1068.42,-212 1084.88,-199.88 1097.88,-190.31"/>
<polygon fill="#63b8ff" stroke="#63b8ff" points="1100.24,-192.92 1106.22,-184.17 1096.09,-187.28 1100.24,-192.92"/>
</a>
</g>
</g>
<!-- Node23 -->
<g id="Node000023" class="node">
<title>Node23</title>
<g id="a_Node000023"><a xlink:title=" ">
<polygon fill="#e0e0e0" stroke="#999999" points="1126.5,-129 1007.5,-129 1007.5,-110 1126.5,-110 1126.5,-129"/>
<text text-anchor="middle" x="1067" y="-117" font-family="Helvetica,sans-Serif" font-size="10.00">interface/param.pb.h</text>
</a>
</g>
</g>
<!-- Node21&#45;&gt;Node23 -->
<g id="edge43_Node000021_Node000023" class="edge">
<title>Node21&#45;&gt;Node23</title>
<g id="a_edge43_Node000021_Node000023"><a xlink:title=" ">
<path fill="none" stroke="#63b8ff" d="M1047.72,-219.66C1051.12,-202.17 1058.77,-162.8 1063.35,-139.27"/>
<polygon fill="#63b8ff" stroke="#63b8ff" points="1066.84,-139.64 1065.32,-129.16 1059.97,-138.31 1066.84,-139.64"/>
</a>
</g>
</g>
<!-- Node21&#45;&gt;Node25 -->
<g id="edge28_Node000021_Node000025" class="edge">
<title>Node21&#45;&gt;Node25</title>
<g id="a_edge28_Node000021_Node000025"><a xlink:title=" ">
<path fill="none" stroke="#63b8ff" d="M1033.31,-219.98C1021.17,-211.84 1002.64,-199.41 988.25,-189.76"/>
<polygon fill="#63b8ff" stroke="#63b8ff" points="990.18,-186.84 979.92,-184.17 986.28,-192.65 990.18,-186.84"/>
</a>
</g>
</g>
<!-- Node21&#45;&gt;Node32 -->
<g id="edge40_Node000021_Node000032" class="edge">
<title>Node21&#45;&gt;Node32</title>
<g id="a_edge40_Node000021_Node000032"><a xlink:title=" ">
<path fill="none" stroke="#63b8ff" d="M1016.29,-223.13C962.77,-213.44 850.21,-193.08 791.1,-182.39"/>
<polygon fill="#63b8ff" stroke="#63b8ff" points="791.52,-178.91 781.06,-180.58 790.28,-185.8 791.52,-178.91"/>
</a>
</g>
</g>
<!-- Node22&#45;&gt;Node23 -->
<g id="edge26_Node000022_Node000023" class="edge">
<title>Node22&#45;&gt;Node23</title>
<g id="a_edge26_Node000022_Node000023"><a xlink:title=" ">
<path fill="none" stroke="#63b8ff" d="M1109.58,-164.75C1102.23,-157.11 1091.37,-145.82 1082.46,-136.56"/>
<polygon fill="#63b8ff" stroke="#63b8ff" points="1084.72,-133.87 1075.26,-129.09 1079.68,-138.72 1084.72,-133.87"/>
</a>
</g>
</g>
<!-- Node24 -->
<g id="Node000024" class="node">
<title>Node24</title>
<g id="a_Node000024"><a xlink:title=" ">
<polygon fill="#e0e0e0" stroke="#999999" points="1281,-129 1145,-129 1145,-110 1281,-110 1281,-129"/>
<text text-anchor="middle" x="1213" y="-117" font-family="Helvetica,sans-Serif" font-size="10.00">interface/constraint.pb.h</text>
</a>
</g>
</g>
<!-- Node22&#45;&gt;Node24 -->
<g id="edge27_Node000022_Node000024" class="edge">
<title>Node22&#45;&gt;Node24</title>
<g id="a_edge27_Node000022_Node000024"><a xlink:title=" ">
<path fill="none" stroke="#63b8ff" d="M1133.26,-164.98C1148.13,-156.69 1170.98,-143.94 1188.42,-134.22"/>
<polygon fill="#63b8ff" stroke="#63b8ff" points="1190.43,-137.1 1197.46,-129.17 1187.02,-130.99 1190.43,-137.1"/>
</a>
</g>
</g>
<!-- Node25&#45;&gt;Node23 -->
<g id="edge38_Node000025_Node000023" class="edge">
<title>Node25&#45;&gt;Node23</title>
<g id="a_edge38_Node000025_Node000023"><a xlink:title=" ">
<path fill="none" stroke="#63b8ff" d="M983.07,-164.98C998.86,-156.61 1023.22,-143.7 1041.63,-133.95"/>
<polygon fill="#63b8ff" stroke="#63b8ff" points="1043.44,-136.95 1050.64,-129.17 1040.17,-130.76 1043.44,-136.95"/>
</a>
</g>
</g>
<!-- Node26 -->
<g id="Node000026" class="node">
<title>Node26</title>
<g id="a_Node000026"><a xlink:href="Tags_8h.html" target="_top" xlink:title="Tags to differentiate collections with the same type for template specialization.">
<polygon fill="white" stroke="#666666" points="989.5,-129 942.5,-129 942.5,-110 989.5,-110 989.5,-129"/>
<text text-anchor="middle" x="966" y="-117" font-family="Helvetica,sans-Serif" font-size="10.00">Tags.h</text>
</a>
</g>
</g>
<!-- Node25&#45;&gt;Node26 -->
<g id="edge29_Node000025_Node000026" class="edge">
<title>Node25&#45;&gt;Node26</title>
<g id="a_edge29_Node000025_Node000026"><a xlink:title=" ">
<path fill="none" stroke="#63b8ff" d="M966.83,-164.75C966.7,-157.8 966.52,-147.85 966.35,-139.13"/>
<polygon fill="#63b8ff" stroke="#63b8ff" points="969.85,-139.02 966.16,-129.09 962.85,-139.15 969.85,-139.02"/>
</a>
</g>
</g>
<!-- Node28 -->
<g id="Node000028" class="node">
<title>Node28</title>
<g id="a_Node000028"><a xlink:href="PolyglotText_8h.html" target="_top" xlink:title="Polyglot Text serialization and deserialization to protobuf.">
<polygon fill="white" stroke="#666666" points="924,-129 838,-129 838,-110 924,-110 924,-129"/>
<text text-anchor="middle" x="881" y="-117" font-family="Helvetica,sans-Serif" font-size="10.00">PolyglotText.h</text>
</a>
</g>
</g>
<!-- Node25&#45;&gt;Node28 -->
<g id="edge32_Node000025_Node000028" class="edge">
<title>Node25&#45;&gt;Node28</title>
<g id="a_edge32_Node000025_Node000028"><a xlink:title=" ">
<path fill="none" stroke="#63b8ff" d="M953.18,-164.98C939.85,-156.77 919.42,-144.18 903.69,-134.49"/>
<polygon fill="#63b8ff" stroke="#63b8ff" points="905.42,-131.44 895.07,-129.17 901.75,-137.4 905.42,-131.44"/>
</a>
</g>
</g>
<!-- Node26&#45;&gt;Node6 -->
<g id="edge31_Node000026_Node000006" class="edge">
<title>Node26&#45;&gt;Node6</title>
<g id="a_edge31_Node000026_Node000006"><a xlink:title=" ">
<path fill="none" stroke="#63b8ff" d="M989.75,-112.13C992.53,-111.4 995.33,-110.68 998,-110 1138.12,-74.35 1305.94,-34.38 1374.96,-18.05"/>
<polygon fill="#63b8ff" stroke="#63b8ff" points="1375.86,-21.44 1384.79,-15.73 1374.25,-14.62 1375.86,-21.44"/>
</a>
</g>
</g>
<!-- Node26&#45;&gt;Node27 -->
<g id="edge30_Node000026_Node000027" class="edge">
<title>Node26&#45;&gt;Node27</title>
<g id="a_edge30_Node000026_Node000027"><a xlink:title=" ">
<path fill="none" stroke="#63b8ff" d="M969.3,-109.75C971.98,-102.65 975.85,-92.4 979.19,-83.56"/>
<polygon fill="#63b8ff" stroke="#63b8ff" points="982.5,-84.68 982.76,-74.09 975.95,-82.21 982.5,-84.68"/>
</a>
</g>
</g>
<!-- Node29 -->
<g id="Node000029" class="node">
<title>Node29</title>
<g id="a_Node000029"><a xlink:href="IPolyglotText_8h.html" target="_top" xlink:title="Catena&#39;s multi&#45;language text interface.">
<polygon fill="white" stroke="#666666" points="896.5,-74 807.5,-74 807.5,-55 896.5,-55 896.5,-74"/>
<text text-anchor="middle" x="852" y="-62" font-family="Helvetica,sans-Serif" font-size="10.00">IPolyglotText.h</text>
</a>
</g>
</g>
<!-- Node28&#45;&gt;Node29 -->
<g id="edge33_Node000028_Node000029" class="edge">
<title>Node28&#45;&gt;Node29</title>
<g id="a_edge33_Node000028_Node000029"><a xlink:title=" ">
<path fill="none" stroke="#63b8ff" d="M876.21,-109.75C872.24,-102.49 866.47,-91.95 861.57,-82.98"/>
<polygon fill="#63b8ff" stroke="#63b8ff" points="864.57,-81.18 856.7,-74.09 858.43,-84.54 864.57,-81.18"/>
</a>
</g>
</g>
<!-- Node29&#45;&gt;Node6 -->
<g id="edge36_Node000029_Node000006" class="edge">
<title>Node29&#45;&gt;Node6</title>
<g id="a_edge36_Node000029_Node000006"><a xlink:title=" ">
<path fill="none" stroke="#63b8ff" d="M896.74,-56.8C901.55,-56.15 906.37,-55.54 911,-55 1085.28,-34.64 1294.97,-18.59 1374.39,-12.82"/>
<polygon fill="#63b8ff" stroke="#63b8ff" points="1374.99,-16.28 1384.71,-12.07 1374.48,-9.3 1374.99,-16.28"/>
</a>
</g>
</g>
<!-- Node29&#45;&gt;Node18 -->
<g id="edge35_Node000029_Node000018" class="edge">
<title>Node29&#45;&gt;Node18</title>
<g id="a_edge35_Node000029_Node000018"><a xlink:title=" ">
<path fill="none" stroke="#63b8ff" d="M807.47,-55.28C757.22,-46 675.41,-30.89 620.91,-20.82"/>
<polygon fill="#63b8ff" stroke="#63b8ff" points="621.53,-17.38 611.06,-19.01 620.26,-24.26 621.53,-17.38"/>
</a>
</g>
</g>
<!-- Node30 -->
<g id="Node000030" class="node">
<title>Node30</title>
<g id="a_Node000030"><a xlink:title=" ">
<polygon fill="#e0e0e0" stroke="#999999" points="855,-19 723,-19 723,0 855,0 855,-19"/>
<text text-anchor="middle" x="789" y="-7" font-family="Helvetica,sans-Serif" font-size="10.00">interface/language.pb.h</text>
</a>
</g>
</g>
<!-- Node29&#45;&gt;Node30 -->
<g id="edge34_Node000029_Node000030" class="edge">
<title>Node29&#45;&gt;Node30</title>
<g id="a_edge34_Node000029_Node000030"><a xlink:title=" ">
<path fill="none" stroke="#63b8ff" d="M841.88,-54.98C832.56,-47.15 818.53,-35.34 807.26,-25.86"/>
<polygon fill="#63b8ff" stroke="#63b8ff" points="809.21,-22.93 799.31,-19.17 804.71,-28.29 809.21,-22.93"/>
</a>
</g>
</g>
<!-- Node31 -->
<g id="Node000031" class="node">
<title>Node31</title>
<g id="a_Node000031"><a xlink:title=" ">
<polygon fill="#e0e0e0" stroke="#999999" points="956.5,-19 873.5,-19 873.5,0 956.5,0 956.5,-19"/>
<text text-anchor="middle" x="915" y="-7" font-family="Helvetica,sans-Serif" font-size="10.00">initializer_list</text>
</a>
</g>
</g>
<!-- Node29&#45;&gt;Node31 -->
<g id="edge37_Node000029_Node000031" class="edge">
<title>Node29&#45;&gt;Node31</title>
<g id="a_edge37_Node000029_Node000031"><a xlink:title=" ">
<path fill="none" stroke="#63b8ff" d="M862.12,-54.98C871.44,-47.15 885.47,-35.34 896.74,-25.86"/>
<polygon fill="#63b8ff" stroke="#63b8ff" points="899.29,-28.29 904.69,-19.17 894.79,-22.93 899.29,-28.29"/>
</a>
</g>
</g>
<!-- Node33 -->
<g id="Node000033" class="node">
<title>Node33</title>
<g id="a_Node000033"><a xlink:title=" ">
<polygon fill="#e0e0e0" stroke="#999999" points="820,-129 764,-129 764,-110 820,-110 820,-129"/>
<text text-anchor="middle" x="792" y="-117" font-family="Helvetica,sans-Serif" font-size="10.00">sstream</text>
</a>
</g>
</g>
<!-- Node32&#45;&gt;Node33 -->
<g id="edge41_Node000032_Node000033" class="edge">
<title>Node32&#45;&gt;Node33</title>
<g id="a_edge41_Node000032_Node000033"><a xlink:title=" ">
<path fill="none" stroke="#63b8ff" d="M759.44,-164.75C764.89,-157.34 772.86,-146.5 779.56,-137.41"/>
<polygon fill="#63b8ff" stroke="#63b8ff" points="782.57,-139.22 785.68,-129.09 776.93,-135.07 782.57,-139.22"/>
</a>
</g>
</g>
<!-- Node34 -->
<g id="Node000034" class="node">
<title>Node34</title>
<g id="a_Node000034"><a xlink:title=" ">
<polygon fill="#e0e0e0" stroke="#999999" points="745.5,-129 680.5,-129 680.5,-110 745.5,-110 745.5,-129"/>
<text text-anchor="middle" x="713" y="-117" font-family="Helvetica,sans-Serif" font-size="10.00">stdexcept</text>
</a>
</g>
</g>
<!-- Node32&#45;&gt;Node34 -->
<g id="edge42_Node000032_Node000034" class="edge">
<title>Node32&#45;&gt;Node34</title>
<g id="a_edge42_Node000032_Node000034"><a xlink:title=" ">
<path fill="none" stroke="#63b8ff" d="M746.39,-164.75C740.74,-157.26 732.46,-146.28 725.55,-137.13"/>
<polygon fill="#63b8ff" stroke="#63b8ff" points="728.3,-134.96 719.48,-129.09 722.71,-139.18 728.3,-134.96"/>
</a>
</g>
</g>
<!-- Node36&#45;&gt;Node6 -->
<g id="edge50_Node000036_Node000006" class="edge">
<title>Node36&#45;&gt;Node6</title>
<g id="a_edge50_Node000036_Node000006"><a xlink:title=" ">
<path fill="none" stroke="#63b8ff" d="M789.02,-56.06C792.05,-55.68 795.07,-55.32 798,-55 1017.74,-30.9 1283.57,-16.54 1374.6,-12.04"/>
<polygon fill="#63b8ff" stroke="#63b8ff" points="1375.01,-15.52 1384.83,-11.54 1374.67,-8.53 1375.01,-15.52"/>
</a>
</g>
</g>
<!-- Node36&#45;&gt;Node18 -->
<g id="edge51_Node000036_Node000018" class="edge">
<title>Node36&#45;&gt;Node18</title>
<g id="a_edge51_Node000036_Node000018"><a xlink:title=" ">
<path fill="none" stroke="#63b8ff" d="M711.88,-54.98C682.38,-46.05 635.81,-31.94 603.03,-22.02"/>
<polygon fill="#63b8ff" stroke="#63b8ff" points="603.92,-18.63 593.34,-19.08 601.89,-25.33 603.92,-18.63"/>
</a>
</g>
</g>
</g>
</svg>

<g id="navigator" transform="translate(0 0)" fill="#404254">
  <rect fill="#f2f5e9" fill-opacity="0.5" stroke="#606060" stroke-width=".5" x="0" y="0" width="60" height="60"/>
  <use id="zoomplus" xlink:href="#zoomPlus" x="17" y="9" onmousedown="handleZoom(evt,'in')"/>
  <use id="zoomminus" xlink:href="#zoomMin" x="42" y="9" onmousedown="handleZoom(evt,'out')"/>
  <use id="reset" xlink:href="#resetDef" x="30" y="36" onmousedown="handleReset()"/>
   <use id="arrowup" xlink:href="#arrowUp" x="0" y="0" onmousedown="handlePan(0,-1)"/>
  <use id="arrowright" xlink:href="#arrowRight" x="0" y="0" onmousedown="handlePan(1,0)"/>
  <use id="arrowdown" xlink:href="#arrowDown" x="0" y="0" onmousedown="handlePan(0,1)"/>
  <use id="arrowleft" xlink:href="#arrowLeft" x="0" y="0" onmousedown="handlePan(-1,0)"/>
</g>
<svg viewBox="0 0 15 15" width="100%" height="30px" preserveAspectRatio="xMaxYMin meet">
 <g id="arrow_out" transform="scale(0.3 0.3)">
  <a xlink:href="ISocketReader_8h__incl_org.svg" target="_base">
   <rect id="button" ry="5" rx="5" y="6" x="6" height="38" width="38"
        fill="#f2f5e9" fill-opacity="0.5" stroke="#606060" stroke-width="1.0"/>
   <path id="arrow"
     d="M 11.500037,31.436501 C 11.940474,20.09759 22.043105,11.32322 32.158766,21.979434 L 37.068811,17.246167 C 37.068811,17.246167 37.088388,32 37.088388,32 L 22.160133,31.978069 C 22.160133,31.978069 26.997745,27.140456 26.997745,27.140456 C 18.528582,18.264221 13.291696,25.230495 11.500037,31.436501 z"
     style="fill:#404040;"/>
  </a>
 </g>
</svg>

<style type='text/css'>
<![CDATA[
[data-mouse-over-selected='false'] { opacity: 0.7; }
[data-mouse-over-selected='true']  { opacity: 1.0; }
]]>
</style>
<script type="application/ecmascript"><![CDATA[
document.addEventListener('DOMContentLoaded', (event) => {
  highlightEdges();
  highlightAdjacentNodes();
});
]]></script>
</svg>
