<?xml version="1.0" encoding="UTF-8" standalone="no"?>
<!DOCTYPE svg PUBLIC "-//W3C//DTD SVG 1.1//EN"
 "http://www.w3.org/Graphics/SVG/1.1/DTD/svg11.dtd">
<!-- Generated by graphviz version 2.43.0 (0)
 -->
<!-- Title: /home/runner/work/Catena/Catena/sdks/cpp/connections/REST/include/interface/ISocketWriter.h Pages: 1 -->
<svg width="3190pt" height="291pt"
 viewBox="0.00 0.00 3189.51 291.00" xmlns="http://www.w3.org/2000/svg" xmlns:xlink="http://www.w3.org/1999/xlink">
<g id="graph0" class="graph" transform="scale(1 1) rotate(0) translate(4 287)">
<title>/home/runner/work/Catena/Catena/sdks/cpp/connections/REST/include/interface/ISocketWriter.h</title>
<!-- Node1 -->
<g id="Node000001" class="node">
<title>Node1</title>
<g id="a_Node000001"><a xlink:title="Interface for the SocketWriter class.">
<polygon fill="#999999" stroke="#666666" points="1611.01,-283 1405.01,-283 1405.01,-242 1611.01,-242 1611.01,-283"/>
<text text-anchor="start" x="1413.01" y="-271" font-family="Helvetica,sans-Serif" font-size="10.00">/home/runner/work/Catena</text>
<text text-anchor="start" x="1413.01" y="-260" font-family="Helvetica,sans-Serif" font-size="10.00">/Catena/sdks/cpp/connections</text>
<text text-anchor="middle" x="1508.01" y="-249" font-family="Helvetica,sans-Serif" font-size="10.00">/REST/include/interface/ISocketWriter.h</text>
</a>
</g>
</g>
<!-- Node2 -->
<g id="Node000002" class="node">
<title>Node2</title>
<g id="a_Node000002"><a xlink:href="SocketWriter_8h.html" target="_top" xlink:title="Helper class used to write to a socket using boost.">
<polygon fill="white" stroke="#666666" points="1588.51,-206 1427.51,-206 1427.51,-165 1588.51,-165 1588.51,-206"/>
<text text-anchor="start" x="1435.51" y="-194" font-family="Helvetica,sans-Serif" font-size="10.00">/home/runner/work/Catena</text>
<text text-anchor="start" x="1435.51" y="-183" font-family="Helvetica,sans-Serif" font-size="10.00">/Catena/sdks/cpp/connections</text>
<text text-anchor="middle" x="1508.01" y="-172" font-family="Helvetica,sans-Serif" font-size="10.00">/REST/include/SocketWriter.h</text>
</a>
</g>
</g>
<!-- Node1&#45;&gt;Node2 -->
<g id="edge1_Node000001_Node000002" class="edge">
<title>Node1&#45;&gt;Node2</title>
<g id="a_edge1_Node000001_Node000002"><a xlink:title=" ">
<path fill="none" stroke="#63b8ff" d="M1508.01,-231.69C1508.01,-223.08 1508.01,-213.9 1508.01,-206.07"/>
<polygon fill="#63b8ff" stroke="#63b8ff" points="1504.51,-231.79 1508.01,-241.79 1511.51,-231.79 1504.51,-231.79"/>
</a>
</g>
</g>
<!-- Node3 -->
<g id="Node000003" class="node">
<title>Node3</title>
<g id="a_Node000003"><a xlink:href="REST_2include_2ServiceImpl_8h.html" target="_top" xlink:title="Implements REST API.">
<polygon fill="white" stroke="#666666" points="1387.51,-41 1226.51,-41 1226.51,0 1387.51,0 1387.51,-41"/>
<text text-anchor="start" x="1234.51" y="-29" font-family="Helvetica,sans-Serif" font-size="10.00">/home/runner/work/Catena</text>
<text text-anchor="start" x="1234.51" y="-18" font-family="Helvetica,sans-Serif" font-size="10.00">/Catena/sdks/cpp/connections</text>
<text text-anchor="middle" x="1307.01" y="-7" font-family="Helvetica,sans-Serif" font-size="10.00">/REST/include/ServiceImpl.h</text>
</a>
</g>
</g>
<!-- Node2&#45;&gt;Node3 -->
<g id="edge2_Node000002_Node000003" class="edge">
<title>Node2&#45;&gt;Node3</title>
<g id="a_edge2_Node000002_Node000003"><a xlink:title=" ">
<path fill="none" stroke="#63b8ff" d="M1417.38,-184.56C1100.81,-184.34 60.91,-179.74 12.01,-129 -4.02,-112.36 -3.98,-93.69 12.01,-77 54.09,-33.08 949.14,-23.76 1226.09,-21.92"/>
<polygon fill="#63b8ff" stroke="#63b8ff" points="1417.43,-188.06 1427.43,-184.57 1417.43,-181.06 1417.43,-188.06"/>
</a>
</g>
</g>
<!-- Node4 -->
<g id="Node000004" class="node">
<title>Node4</title>
<g id="a_Node000004"><a xlink:href="REST_2include_2controllers_2AddLanguage_8h.html" target="_top" xlink:title="Implements REST AddLanguage controller.">
<polygon fill="white" stroke="#666666" points="236.51,-123.5 21.51,-123.5 21.51,-82.5 236.51,-82.5 236.51,-123.5"/>
<text text-anchor="start" x="29.51" y="-111.5" font-family="Helvetica,sans-Serif" font-size="10.00">/home/runner/work/Catena</text>
<text text-anchor="start" x="29.51" y="-100.5" font-family="Helvetica,sans-Serif" font-size="10.00">/Catena/sdks/cpp/connections</text>
<text text-anchor="middle" x="129.01" y="-89.5" font-family="Helvetica,sans-Serif" font-size="10.00">/REST/include/controllers/AddLanguage.h</text>
</a>
</g>
</g>
<!-- Node2&#45;&gt;Node4 -->
<g id="edge3_Node000002_Node000004" class="edge">
<title>Node2&#45;&gt;Node4</title>
<g id="a_edge3_Node000002_Node000004"><a xlink:title=" ">
<path fill="none" stroke="#63b8ff" d="M1417.16,-182.47C1167.2,-176.58 472.78,-158.01 246.01,-129 234.99,-127.59 223.46,-125.68 212.13,-123.53"/>
<polygon fill="#63b8ff" stroke="#63b8ff" points="1417.22,-185.97 1427.3,-182.71 1417.38,-178.98 1417.22,-185.97"/>
</a>
</g>
</g>
<!-- Node5 -->
<g id="Node000005" class="node">
<title>Node5</title>
<g id="a_Node000005"><a xlink:href="AssetRequest_8h.html" target="_top" xlink:title="Implements REST AssetRequest controller.">
<polygon fill="white" stroke="#666666" points="471.01,-123.5 255.01,-123.5 255.01,-82.5 471.01,-82.5 471.01,-123.5"/>
<text text-anchor="start" x="263.01" y="-111.5" font-family="Helvetica,sans-Serif" font-size="10.00">/home/runner/work/Catena</text>
<text text-anchor="start" x="263.01" y="-100.5" font-family="Helvetica,sans-Serif" font-size="10.00">/Catena/sdks/cpp/connections</text>
<text text-anchor="middle" x="363.01" y="-89.5" font-family="Helvetica,sans-Serif" font-size="10.00">/REST/include/controllers/AssetRequest.h</text>
</a>
</g>
</g>
<!-- Node2&#45;&gt;Node5 -->
<g id="edge4_Node000002_Node000005" class="edge">
<title>Node2&#45;&gt;Node5</title>
<g id="a_edge4_Node000002_Node000005"><a xlink:title=" ">
<path fill="none" stroke="#63b8ff" d="M1417.11,-184.36C1237.31,-183.02 823.92,-174.74 480.01,-129 469.2,-127.56 457.91,-125.66 446.78,-123.55"/>
<polygon fill="#63b8ff" stroke="#63b8ff" points="1417.29,-187.86 1427.31,-184.43 1417.33,-180.86 1417.29,-187.86"/>
</a>
</g>
</g>
<!-- Node6 -->
<g id="Node000006" class="node">
<title>Node6</title>
<g id="a_Node000006"><a xlink:href="REST_2include_2controllers_2BasicParamInfoRequest_8h.html" target="_top" xlink:title="Implements REST BasicParamInfoRequest controller.">
<polygon fill="white" stroke="#666666" points="686.51,-129 489.51,-129 489.51,-77 686.51,-77 686.51,-129"/>
<text text-anchor="start" x="497.51" y="-117" font-family="Helvetica,sans-Serif" font-size="10.00">/home/runner/work/Catena</text>
<text text-anchor="start" x="497.51" y="-106" font-family="Helvetica,sans-Serif" font-size="10.00">/Catena/sdks/cpp/connections</text>
<text text-anchor="start" x="497.51" y="-95" font-family="Helvetica,sans-Serif" font-size="10.00">/REST/include/controllers/BasicParam</text>
<text text-anchor="middle" x="588.01" y="-84" font-family="Helvetica,sans-Serif" font-size="10.00">InfoRequest.h</text>
</a>
</g>
</g>
<!-- Node2&#45;&gt;Node6 -->
<g id="edge5_Node000002_Node000006" class="edge">
<title>Node2&#45;&gt;Node6</title>
<g id="a_edge5_Node000002_Node000006"><a xlink:title=" ">
<path fill="none" stroke="#63b8ff" d="M1417.21,-183.07C1266.43,-179.64 955.21,-168.02 695.01,-129 692.28,-128.59 689.51,-128.15 686.72,-127.67"/>
<polygon fill="#63b8ff" stroke="#63b8ff" points="1417.27,-186.57 1427.35,-183.3 1417.43,-179.58 1417.27,-186.57"/>
</a>
</g>
</g>
<!-- Node7 -->
<g id="Node000007" class="node">
<title>Node7</title>
<g id="a_Node000007"><a xlink:href="connections_2REST_2include_2controllers_2Connect_8h.html" target="_top" xlink:title="Implements REST Connect controller.">
<polygon fill="white" stroke="#666666" points="893.51,-123.5 704.51,-123.5 704.51,-82.5 893.51,-82.5 893.51,-123.5"/>
<text text-anchor="start" x="712.51" y="-111.5" font-family="Helvetica,sans-Serif" font-size="10.00">/home/runner/work/Catena</text>
<text text-anchor="start" x="712.51" y="-100.5" font-family="Helvetica,sans-Serif" font-size="10.00">/Catena/sdks/cpp/connections</text>
<text text-anchor="middle" x="799.01" y="-89.5" font-family="Helvetica,sans-Serif" font-size="10.00">/REST/include/controllers/Connect.h</text>
</a>
</g>
</g>
<!-- Node2&#45;&gt;Node7 -->
<g id="edge6_Node000002_Node000007" class="edge">
<title>Node2&#45;&gt;Node7</title>
<g id="a_edge6_Node000002_Node000007"><a xlink:title=" ">
<path fill="none" stroke="#63b8ff" d="M1416.99,-180.34C1297.97,-173.94 1083.28,-159.13 902.01,-129 892.85,-127.48 883.29,-125.58 873.85,-123.52"/>
<polygon fill="#63b8ff" stroke="#63b8ff" points="1416.98,-183.84 1427.15,-180.87 1417.35,-176.85 1416.98,-183.84"/>
</a>
</g>
</g>
<!-- Node8 -->
<g id="Node000008" class="node">
<title>Node8</title>
<g id="a_Node000008"><a xlink:href="REST_2include_2controllers_2DeviceRequest_8h.html" target="_top" xlink:title="Implements REST DeviceRequest controller.">
<polygon fill="white" stroke="#666666" points="1134.51,-123.5 911.51,-123.5 911.51,-82.5 1134.51,-82.5 1134.51,-123.5"/>
<text text-anchor="start" x="919.51" y="-111.5" font-family="Helvetica,sans-Serif" font-size="10.00">/home/runner/work/Catena</text>
<text text-anchor="start" x="919.51" y="-100.5" font-family="Helvetica,sans-Serif" font-size="10.00">/Catena/sdks/cpp/connections</text>
<text text-anchor="middle" x="1023.01" y="-89.5" font-family="Helvetica,sans-Serif" font-size="10.00">/REST/include/controllers/DeviceRequest.h</text>
</a>
</g>
</g>
<!-- Node2&#45;&gt;Node8 -->
<g id="edge7_Node000002_Node000008" class="edge">
<title>Node2&#45;&gt;Node8</title>
<g id="a_edge7_Node000002_Node000008"><a xlink:title=" ">
<path fill="none" stroke="#63b8ff" d="M1417.02,-171.98C1343.26,-161.5 1236.71,-145.63 1144.01,-129 1134.62,-127.31 1124.83,-125.46 1115.08,-123.54"/>
<polygon fill="#63b8ff" stroke="#63b8ff" points="1416.82,-175.48 1427.21,-173.42 1417.8,-168.55 1416.82,-175.48"/>
</a>
</g>
</g>
<!-- Node9 -->
<g id="Node000009" class="node">
<title>Node9</title>
<g id="a_Node000009"><a xlink:href="REST_2include_2controllers_2ExecuteCommand_8h.html" target="_top" xlink:title="Implements REST ExecuteCommand controller.">
<polygon fill="white" stroke="#666666" points="1391.01,-123.5 1153.01,-123.5 1153.01,-82.5 1391.01,-82.5 1391.01,-123.5"/>
<text text-anchor="start" x="1161.01" y="-111.5" font-family="Helvetica,sans-Serif" font-size="10.00">/home/runner/work/Catena</text>
<text text-anchor="start" x="1161.01" y="-100.5" font-family="Helvetica,sans-Serif" font-size="10.00">/Catena/sdks/cpp/connections</text>
<text text-anchor="middle" x="1272.01" y="-89.5" font-family="Helvetica,sans-Serif" font-size="10.00">/REST/include/controllers/ExecuteCommand.h</text>
</a>
</g>
</g>
<!-- Node2&#45;&gt;Node9 -->
<g id="edge8_Node000002_Node000009" class="edge">
<title>Node2&#45;&gt;Node9</title>
<g id="a_edge8_Node000002_Node000009"><a xlink:title=" ">
<path fill="none" stroke="#63b8ff" d="M1440.86,-161.59C1405.63,-149.58 1362.94,-135.01 1329.29,-123.54"/>
<polygon fill="#63b8ff" stroke="#63b8ff" points="1439.99,-164.99 1450.58,-164.91 1442.25,-158.37 1439.99,-164.99"/>
</a>
</g>
</g>
<!-- Node10 -->
<g id="Node000010" class="node">
<title>Node10</title>
<g id="a_Node000010"><a xlink:href="REST_2include_2controllers_2GetParam_8h.html" target="_top" xlink:title="Implements REST GetParam controller.">
<polygon fill="white" stroke="#666666" points="1606.51,-123.5 1409.51,-123.5 1409.51,-82.5 1606.51,-82.5 1606.51,-123.5"/>
<text text-anchor="start" x="1417.51" y="-111.5" font-family="Helvetica,sans-Serif" font-size="10.00">/home/runner/work/Catena</text>
<text text-anchor="start" x="1417.51" y="-100.5" font-family="Helvetica,sans-Serif" font-size="10.00">/Catena/sdks/cpp/connections</text>
<text text-anchor="middle" x="1508.01" y="-89.5" font-family="Helvetica,sans-Serif" font-size="10.00">/REST/include/controllers/GetParam.h</text>
</a>
</g>
</g>
<!-- Node2&#45;&gt;Node10 -->
<g id="edge9_Node000002_Node000010" class="edge">
<title>Node2&#45;&gt;Node10</title>
<g id="a_edge9_Node000002_Node000010"><a xlink:title=" ">
<path fill="none" stroke="#63b8ff" d="M1508.01,-154.37C1508.01,-144.1 1508.01,-132.9 1508.01,-123.67"/>
<polygon fill="#63b8ff" stroke="#63b8ff" points="1504.51,-154.6 1508.01,-164.6 1511.51,-154.6 1504.51,-154.6"/>
</a>
</g>
</g>
<!-- Node11 -->
<g id="Node000011" class="node">
<title>Node11</title>
<g id="a_Node000011"><a xlink:href="REST_2include_2controllers_2GetPopulatedSlots_8h.html" target="_top" xlink:title="Implements REST GetPopulatedSlots controller.">
<polygon fill="white" stroke="#666666" points="1831.01,-129 1625.01,-129 1625.01,-77 1831.01,-77 1831.01,-129"/>
<text text-anchor="start" x="1633.01" y="-117" font-family="Helvetica,sans-Serif" font-size="10.00">/home/runner/work/Catena</text>
<text text-anchor="start" x="1633.01" y="-106" font-family="Helvetica,sans-Serif" font-size="10.00">/Catena/sdks/cpp/connections</text>
<text text-anchor="start" x="1633.01" y="-95" font-family="Helvetica,sans-Serif" font-size="10.00">/REST/include/controllers/GetPopulated</text>
<text text-anchor="middle" x="1728.01" y="-84" font-family="Helvetica,sans-Serif" font-size="10.00">Slots.h</text>
</a>
</g>
</g>
<!-- Node2&#45;&gt;Node11 -->
<g id="edge10_Node000002_Node000011" class="edge">
<title>Node2&#45;&gt;Node11</title>
<g id="a_edge10_Node000002_Node000011"><a xlink:title=" ">
<path fill="none" stroke="#63b8ff" d="M1571.12,-161.41C1598.79,-151.28 1631.33,-139.38 1659.59,-129.04"/>
<polygon fill="#63b8ff" stroke="#63b8ff" points="1569.74,-158.19 1561.55,-164.91 1572.14,-164.76 1569.74,-158.19"/>
</a>
</g>
</g>
<!-- Node12 -->
<g id="Node000012" class="node">
<title>Node12</title>
<g id="a_Node000012"><a xlink:href="REST_2include_2controllers_2GetValue_8h.html" target="_top" xlink:title="Implements REST GetValue controller.">
<polygon fill="white" stroke="#666666" points="2043.01,-123.5 1849.01,-123.5 1849.01,-82.5 2043.01,-82.5 2043.01,-123.5"/>
<text text-anchor="start" x="1857.01" y="-111.5" font-family="Helvetica,sans-Serif" font-size="10.00">/home/runner/work/Catena</text>
<text text-anchor="start" x="1857.01" y="-100.5" font-family="Helvetica,sans-Serif" font-size="10.00">/Catena/sdks/cpp/connections</text>
<text text-anchor="middle" x="1946.01" y="-89.5" font-family="Helvetica,sans-Serif" font-size="10.00">/REST/include/controllers/GetValue.h</text>
</a>
</g>
</g>
<!-- Node2&#45;&gt;Node12 -->
<g id="edge11_Node000002_Node000012" class="edge">
<title>Node2&#45;&gt;Node12</title>
<g id="a_edge11_Node000002_Node000012"><a xlink:title=" ">
<path fill="none" stroke="#63b8ff" d="M1598.88,-170.97C1665.77,-160.6 1758.82,-145.34 1840.01,-129 1848.35,-127.32 1857.04,-125.46 1865.69,-123.53"/>
<polygon fill="#63b8ff" stroke="#63b8ff" points="1598.14,-167.54 1588.79,-172.52 1599.21,-174.46 1598.14,-167.54"/>
</a>
</g>
</g>
<!-- Node13 -->
<g id="Node000013" class="node">
<title>Node13</title>
<g id="a_Node000013"><a xlink:href="REST_2include_2controllers_2LanguagePackRequest_8h.html" target="_top" xlink:title="Implements REST LanguagePackRequest controller.">
<polygon fill="white" stroke="#666666" points="2271.01,-129 2061.01,-129 2061.01,-77 2271.01,-77 2271.01,-129"/>
<text text-anchor="start" x="2069.01" y="-117" font-family="Helvetica,sans-Serif" font-size="10.00">/home/runner/work/Catena</text>
<text text-anchor="start" x="2069.01" y="-106" font-family="Helvetica,sans-Serif" font-size="10.00">/Catena/sdks/cpp/connections</text>
<text text-anchor="start" x="2069.01" y="-95" font-family="Helvetica,sans-Serif" font-size="10.00">/REST/include/controllers/LanguagePack</text>
<text text-anchor="middle" x="2166.01" y="-84" font-family="Helvetica,sans-Serif" font-size="10.00">Request.h</text>
</a>
</g>
</g>
<!-- Node2&#45;&gt;Node13 -->
<g id="edge12_Node000002_Node000013" class="edge">
<title>Node2&#45;&gt;Node13</title>
<g id="a_edge12_Node000002_Node000013"><a xlink:title=" ">
<path fill="none" stroke="#63b8ff" d="M1598.81,-178.42C1707.15,-170.44 1893.55,-154.37 2052.01,-129 2054.91,-128.54 2057.85,-128.04 2060.81,-127.53"/>
<polygon fill="#63b8ff" stroke="#63b8ff" points="1598.3,-174.95 1588.58,-179.17 1598.81,-181.93 1598.3,-174.95"/>
</a>
</g>
</g>
<!-- Node14 -->
<g id="Node000014" class="node">
<title>Node14</title>
<g id="a_Node000014"><a xlink:href="REST_2include_2controllers_2ListLanguages_8h.html" target="_top" xlink:title="Implements REST ListLanguages controller.">
<polygon fill="white" stroke="#666666" points="2508.51,-123.5 2289.51,-123.5 2289.51,-82.5 2508.51,-82.5 2508.51,-123.5"/>
<text text-anchor="start" x="2297.51" y="-111.5" font-family="Helvetica,sans-Serif" font-size="10.00">/home/runner/work/Catena</text>
<text text-anchor="start" x="2297.51" y="-100.5" font-family="Helvetica,sans-Serif" font-size="10.00">/Catena/sdks/cpp/connections</text>
<text text-anchor="middle" x="2399.01" y="-89.5" font-family="Helvetica,sans-Serif" font-size="10.00">/REST/include/controllers/ListLanguages.h</text>
</a>
</g>
</g>
<!-- Node2&#45;&gt;Node14 -->
<g id="edge13_Node000002_Node000014" class="edge">
<title>Node2&#45;&gt;Node14</title>
<g id="a_edge13_Node000002_Node000014"><a xlink:title=" ">
<path fill="none" stroke="#63b8ff" d="M1598.85,-181.95C1743.6,-176.99 2035.22,-163.35 2280.01,-129 2290.67,-127.5 2301.81,-125.61 2312.81,-123.54"/>
<polygon fill="#63b8ff" stroke="#63b8ff" points="1598.56,-178.46 1588.69,-182.29 1598.8,-185.45 1598.56,-178.46"/>
</a>
</g>
</g>
<!-- Node15 -->
<g id="Node000015" class="node">
<title>Node15</title>
<g id="a_Node000015"><a xlink:href="REST_2include_2controllers_2MultiSetValue_8h.html" target="_top" xlink:title="Implements REST MultiSetValue controller.">
<polygon fill="white" stroke="#666666" points="3181.51,-123.5 2964.51,-123.5 2964.51,-82.5 3181.51,-82.5 3181.51,-123.5"/>
<text text-anchor="start" x="2972.51" y="-111.5" font-family="Helvetica,sans-Serif" font-size="10.00">/home/runner/work/Catena</text>
<text text-anchor="start" x="2972.51" y="-100.5" font-family="Helvetica,sans-Serif" font-size="10.00">/Catena/sdks/cpp/connections</text>
<text text-anchor="middle" x="3073.01" y="-89.5" font-family="Helvetica,sans-Serif" font-size="10.00">/REST/include/controllers/MultiSetValue.h</text>
</a>
</g>
</g>
<!-- Node2&#45;&gt;Node15 -->
<g id="edge14_Node000002_Node000015" class="edge">
<title>Node2&#45;&gt;Node15</title>
<g id="a_edge14_Node000002_Node000015"><a xlink:title=" ">
<path fill="none" stroke="#63b8ff" d="M1599.05,-183.06C1873.75,-178.4 2691.68,-162.06 2956.01,-129 2967.14,-127.61 2978.78,-125.69 2990.22,-123.53"/>
<polygon fill="#63b8ff" stroke="#63b8ff" points="1598.67,-179.57 1588.73,-183.24 1598.78,-186.57 1598.67,-179.57"/>
</a>
</g>
</g>
<!-- Node17 -->
<g id="Node000017" class="node">
<title>Node17</title>
<g id="a_Node000017"><a xlink:href="Subscriptions_8h.html" target="_top" xlink:title="Implements Catena REST Subscriptions.">
<polygon fill="white" stroke="#666666" points="2946.51,-123.5 2731.51,-123.5 2731.51,-82.5 2946.51,-82.5 2946.51,-123.5"/>
<text text-anchor="start" x="2739.51" y="-111.5" font-family="Helvetica,sans-Serif" font-size="10.00">/home/runner/work/Catena</text>
<text text-anchor="start" x="2739.51" y="-100.5" font-family="Helvetica,sans-Serif" font-size="10.00">/Catena/sdks/cpp/connections</text>
<text text-anchor="middle" x="2839.01" y="-89.5" font-family="Helvetica,sans-Serif" font-size="10.00">/REST/include/controllers/Subscriptions.h</text>
</a>
</g>
</g>
<!-- Node2&#45;&gt;Node17 -->
<g id="edge16_Node000002_Node000017" class="edge">
<title>Node2&#45;&gt;Node17</title>
<g id="a_edge16_Node000002_Node000017"><a xlink:title=" ">
<path fill="none" stroke="#63b8ff" d="M1598.78,-182.29C1842.05,-176.06 2504.89,-156.97 2722.01,-129 2733.03,-127.58 2744.56,-125.66 2755.89,-123.52"/>
<polygon fill="#63b8ff" stroke="#63b8ff" points="1598.46,-178.8 1588.56,-182.55 1598.64,-185.8 1598.46,-178.8"/>
</a>
</g>
</g>
<!-- Node18 -->
<g id="Node000018" class="node">
<title>Node18</title>
<g id="a_Node000018"><a xlink:href="REST_2include_2interface_2ICallData_8h.html" target="_top" xlink:title="Interface class for REST controllers.">
<polygon fill="white" stroke="#666666" points="2713.01,-123.5 2527.01,-123.5 2527.01,-82.5 2713.01,-82.5 2713.01,-123.5"/>
<text text-anchor="start" x="2535.01" y="-111.5" font-family="Helvetica,sans-Serif" font-size="10.00">/home/runner/work/Catena</text>
<text text-anchor="start" x="2535.01" y="-100.5" font-family="Helvetica,sans-Serif" font-size="10.00">/Catena/sdks/cpp/connections</text>
<text text-anchor="middle" x="2620.01" y="-89.5" font-family="Helvetica,sans-Serif" font-size="10.00">/REST/include/interface/ICallData.h</text>
</a>
</g>
</g>
<!-- Node2&#45;&gt;Node18 -->
<g id="edge17_Node000002_Node000018" class="edge">
<title>Node2&#45;&gt;Node18</title>
<g id="a_edge17_Node000002_Node000018"><a xlink:title=" ">
<path fill="none" stroke="#63b8ff" d="M1598.7,-185.05C1776.08,-184.92 2180.97,-178.6 2517.01,-129 2526.66,-127.58 2536.73,-125.67 2546.63,-123.54"/>
<polygon fill="#63b8ff" stroke="#63b8ff" points="1598.63,-181.55 1588.63,-185.06 1598.63,-188.55 1598.63,-181.55"/>
</a>
</g>
</g>
<!-- Node16 -->
<g id="Node000016" class="node">
<title>Node16</title>
<g id="a_Node000016"><a xlink:href="REST_2include_2controllers_2SetValue_8h.html" target="_top" xlink:title="Implements REST SetValue controller.">
<polygon fill="white" stroke="#666666" points="3169.01,-41 2977.01,-41 2977.01,0 3169.01,0 3169.01,-41"/>
<text text-anchor="start" x="2985.01" y="-29" font-family="Helvetica,sans-Serif" font-size="10.00">/home/runner/work/Catena</text>
<text text-anchor="start" x="2985.01" y="-18" font-family="Helvetica,sans-Serif" font-size="10.00">/Catena/sdks/cpp/connections</text>
<text text-anchor="middle" x="3073.01" y="-7" font-family="Helvetica,sans-Serif" font-size="10.00">/REST/include/controllers/SetValue.h</text>
</a>
</g>
</g>
<!-- Node15&#45;&gt;Node16 -->
<g id="edge15_Node000015_Node000016" class="edge">
<title>Node15&#45;&gt;Node16</title>
<g id="a_edge15_Node000015_Node000016"><a xlink:title=" ">
<path fill="none" stroke="#63b8ff" d="M3073.01,-71.87C3073.01,-61.6 3073.01,-50.4 3073.01,-41.17"/>
<polygon fill="#63b8ff" stroke="#63b8ff" points="3069.51,-72.1 3073.01,-82.1 3076.51,-72.1 3069.51,-72.1"/>
</a>
</g>
</g>
<!-- Node18&#45;&gt;Node3 -->
<g id="edge18_Node000018_Node000003" class="edge">
<title>Node18&#45;&gt;Node3</title>
<g id="a_edge18_Node000018_Node000003"><a xlink:title=" ">
<path fill="none" stroke="#63b8ff" d="M2537.24,-80.45C2530.43,-79.12 2523.62,-77.94 2517.01,-77 2298.04,-45.7 1621.83,-28.36 1387.75,-23.18"/>
<polygon fill="#63b8ff" stroke="#63b8ff" points="2536.7,-83.91 2547.2,-82.49 2538.11,-77.06 2536.7,-83.91"/>
</a>
</g>
</g>
</g>
</svg>
