<?xml version="1.0" encoding="UTF-8" standalone="no"?>
<!DOCTYPE svg PUBLIC "-//W3C//DTD SVG 1.1//EN"
 "http://www.w3.org/Graphics/SVG/1.1/DTD/svg11.dtd">
<!-- Generated by graphviz version 2.43.0 (0)
 -->
<!-- Title: /home/runner/work/Catena/Catena/sdks/cpp/connections/REST/include/interface/ISocketWriter.h Pages: 1 -->
<!--zoomable 291 -->

<svg id="main" version="1.1" xmlns="http://www.w3.org/2000/svg" xmlns:xlink="http://www.w3.org/1999/xlink" xml:space="preserve" onload="init(evt)">
<style type="text/css"><![CDATA[
.node, .edge {opacity: 0.7;}
.node.selected, .edge.selected {opacity: 1;}
.edge:hover path { stroke: red; }
.edge:hover polygon { stroke: red; fill: red; }
]]></style>

<defs>
  <circle id="rim" cx="0" cy="0" r="7"/>
  <circle id="rim2" cx="0" cy="0" r="3.5"/>
  <g id="zoomPlus">
    <use xlink:href="#rim" fill="#404040"><set attributeName="fill" to="#808080" begin="zoomplus.mouseover" end="zoomplus.mouseout"/></use>
    <path d="M-4,0h8M0,-4v8" fill="none" stroke="white" stroke-width="1.5" pointer-events="none"/>
  </g>
  <g id="zoomMin">
    <use xlink:href="#rim" fill="#404040"><set attributeName="fill" to="#808080" begin="zoomminus.mouseover" end="zoomminus.mouseout"/></use>
    <path d="M-4,0h8" fill="none" stroke="white" stroke-width="1.5" pointer-events="none"/>
  </g>
  <g id="arrowUp" transform="translate(30 24)">
    <use xlink:href="#rim"/>
    <path pointer-events="none" fill="none" stroke="white" stroke-width="1.5" d="M0,-3.0v7 M-2.5,-0.5L0,-3.0L2.5,-0.5"/>
  </g>
  <g id="arrowRight" transform="rotate(90) translate(36 -43)">
    <use xlink:href="#rim"/>
    <path pointer-events="none" fill="none" stroke="white" stroke-width="1.5" d="M0,-3.0v7 M-2.5,-0.5L0,-3.0L2.5,-0.5"/>
  </g>
  <g id="arrowDown" transform="rotate(180) translate(-30 -48)">
    <use xlink:href="#rim"/>
    <path pointer-events="none" fill="none" stroke="white" stroke-width="1.5" d="M0,-3.0v7 M-2.5,-0.5L0,-3.0L2.5,-0.5"/>
  </g>
  <g id="arrowLeft" transform="rotate(270) translate(-36 17)">
    <use xlink:href="#rim"/>
    <path pointer-events="none" fill="none" stroke="white" stroke-width="1.5" d="M0,-3.0v7 M-2.5,-0.5L0,-3.0L2.5,-0.5"/>
  </g>
  <g id="resetDef">
    <use xlink:href="#rim2" fill="#404040"><set attributeName="fill" to="#808080" begin="reset.mouseover" end="reset.mouseout"/></use>
  </g>
</defs>
<script type="application/ecmascript">
var viewWidth = 3007;
var viewHeight = 291;
var sectionId = 'dynsection-1';
</script>
<script type="application/ecmascript" xlink:href="svg.min.js"/>
<svg id="graph" class="graph">
<g id="viewport">
<title>/home/runner/work/Catena/Catena/sdks/cpp/connections/REST/include/interface/ISocketWriter.h</title>
<!-- Node1 -->
<g id="Node000001" class="node">
<title>Node1</title>
<g id="a_Node000001"><a xlink:title="Interface for the SocketWriter class.">
<polygon fill="#999999" stroke="#666666" points="1669,-283 1463,-283 1463,-242 1669,-242 1669,-283"/>
<text text-anchor="start" x="1471" y="-271" font-family="Helvetica,sans-Serif" font-size="10.00">/home/runner/work/Catena</text>
<text text-anchor="start" x="1471" y="-260" font-family="Helvetica,sans-Serif" font-size="10.00">/Catena/sdks/cpp/connections</text>
<text text-anchor="middle" x="1566" y="-249" font-family="Helvetica,sans-Serif" font-size="10.00">/REST/include/interface/ISocketWriter.h</text>
</a>
</g>
</g>
<!-- Node2 -->
<g id="Node000002" class="node">
<title>Node2</title>
<g id="a_Node000002"><a xlink:href="SocketWriter_8h.html" target="_top" xlink:title="Helper class used to write to a socket using boost.">
<polygon fill="white" stroke="#666666" points="1646.5,-206 1485.5,-206 1485.5,-165 1646.5,-165 1646.5,-206"/>
<text text-anchor="start" x="1493.5" y="-194" font-family="Helvetica,sans-Serif" font-size="10.00">/home/runner/work/Catena</text>
<text text-anchor="start" x="1493.5" y="-183" font-family="Helvetica,sans-Serif" font-size="10.00">/Catena/sdks/cpp/connections</text>
<text text-anchor="middle" x="1566" y="-172" font-family="Helvetica,sans-Serif" font-size="10.00">/REST/include/SocketWriter.h</text>
</a>
</g>
</g>
<!-- Node1&#45;&gt;Node2 -->
<g id="edge1_Node000001_Node000002" class="edge">
<title>Node1&#45;&gt;Node2</title>
<g id="a_edge1_Node000001_Node000002"><a xlink:title=" ">
<path fill="none" stroke="#63b8ff" d="M1566,-231.69C1566,-223.08 1566,-213.9 1566,-206.07"/>
<polygon fill="#63b8ff" stroke="#63b8ff" points="1562.5,-231.79 1566,-241.79 1569.5,-231.79 1562.5,-231.79"/>
</a>
</g>
</g>
<!-- Node3 -->
<g id="Node000003" class="node">
<title>Node3</title>
<g id="a_Node000003"><a xlink:href="REST_2include_2ServiceImpl_8h.html" target="_top" xlink:title="Implements REST API.">
<polygon fill="white" stroke="#666666" points="1369.5,-41 1208.5,-41 1208.5,0 1369.5,0 1369.5,-41"/>
<text text-anchor="start" x="1216.5" y="-29" font-family="Helvetica,sans-Serif" font-size="10.00">/home/runner/work/Catena</text>
<text text-anchor="start" x="1216.5" y="-18" font-family="Helvetica,sans-Serif" font-size="10.00">/Catena/sdks/cpp/connections</text>
<text text-anchor="middle" x="1289" y="-7" font-family="Helvetica,sans-Serif" font-size="10.00">/REST/include/ServiceImpl.h</text>
</a>
</g>
</g>
<!-- Node2&#45;&gt;Node3 -->
<g id="edge2_Node000002_Node000003" class="edge">
<title>Node2&#45;&gt;Node3</title>
<g id="a_edge2_Node000002_Node000003"><a xlink:title=" ">
<path fill="none" stroke="#63b8ff" d="M1656.84,-182.21C1879.73,-176.15 2437.61,-158.14 2465,-129 2480.83,-112.16 2480.95,-93.72 2465,-77 2427.22,-37.39 1628.98,-25.21 1369.62,-22.29"/>
<polygon fill="#63b8ff" stroke="#63b8ff" points="1656.71,-178.71 1646.8,-182.48 1656.89,-185.71 1656.71,-178.71"/>
</a>
</g>
</g>
<!-- Node4 -->
<g id="Node000004" class="node">
<title>Node4</title>
<g id="a_Node000004"><a xlink:href="REST_2include_2controllers_2AddLanguage_8h.html" target="_top" xlink:title="Implements REST AddLanguage controller.">
<polygon fill="white" stroke="#666666" points="419.5,-123.5 204.5,-123.5 204.5,-82.5 419.5,-82.5 419.5,-123.5"/>
<text text-anchor="start" x="212.5" y="-111.5" font-family="Helvetica,sans-Serif" font-size="10.00">/home/runner/work/Catena</text>
<text text-anchor="start" x="212.5" y="-100.5" font-family="Helvetica,sans-Serif" font-size="10.00">/Catena/sdks/cpp/connections</text>
<text text-anchor="middle" x="312" y="-89.5" font-family="Helvetica,sans-Serif" font-size="10.00">/REST/include/controllers/AddLanguage.h</text>
</a>
</g>
</g>
<!-- Node2&#45;&gt;Node4 -->
<g id="edge3_Node000002_Node000004" class="edge">
<title>Node2&#45;&gt;Node4</title>
<g id="a_edge3_Node000002_Node000004"><a xlink:title=" ">
<path fill="none" stroke="#63b8ff" d="M1475.1,-185.09C1281.61,-185.26 815.04,-179.8 428,-129 417.17,-127.58 405.86,-125.68 394.72,-123.55"/>
<polygon fill="#63b8ff" stroke="#63b8ff" points="1475.23,-188.59 1485.23,-185.08 1475.22,-181.59 1475.23,-188.59"/>
</a>
</g>
</g>
<!-- Node5 -->
<g id="Node000005" class="node">
<title>Node5</title>
<g id="a_Node000005"><a xlink:href="REST_2include_2controllers_2BasicParamInfoRequest_8h.html" target="_top" xlink:title="Implements REST BasicParamInfoRequest controller.">
<polygon fill="white" stroke="#666666" points="634.5,-129 437.5,-129 437.5,-77 634.5,-77 634.5,-129"/>
<text text-anchor="start" x="445.5" y="-117" font-family="Helvetica,sans-Serif" font-size="10.00">/home/runner/work/Catena</text>
<text text-anchor="start" x="445.5" y="-106" font-family="Helvetica,sans-Serif" font-size="10.00">/Catena/sdks/cpp/connections</text>
<text text-anchor="start" x="445.5" y="-95" font-family="Helvetica,sans-Serif" font-size="10.00">/REST/include/controllers/BasicParam</text>
<text text-anchor="middle" x="536" y="-84" font-family="Helvetica,sans-Serif" font-size="10.00">InfoRequest.h</text>
</a>
</g>
</g>
<!-- Node2&#45;&gt;Node5 -->
<g id="edge4_Node000002_Node000005" class="edge">
<title>Node2&#45;&gt;Node5</title>
<g id="a_edge4_Node000002_Node000005"><a xlink:title=" ">
<path fill="none" stroke="#63b8ff" d="M1475.11,-184.13C1309,-182.31 945.63,-173.13 643,-129 640.26,-128.6 637.49,-128.17 634.7,-127.7"/>
<polygon fill="#63b8ff" stroke="#63b8ff" points="1475.25,-187.63 1485.28,-184.23 1475.32,-180.63 1475.25,-187.63"/>
</a>
</g>
</g>
<!-- Node6 -->
<g id="Node000006" class="node">
<title>Node6</title>
<g id="a_Node000006"><a xlink:href="connections_2REST_2include_2controllers_2Connect_8h.html" target="_top" xlink:title="Implements REST Connect controller.">
<polygon fill="white" stroke="#666666" points="841.5,-123.5 652.5,-123.5 652.5,-82.5 841.5,-82.5 841.5,-123.5"/>
<text text-anchor="start" x="660.5" y="-111.5" font-family="Helvetica,sans-Serif" font-size="10.00">/home/runner/work/Catena</text>
<text text-anchor="start" x="660.5" y="-100.5" font-family="Helvetica,sans-Serif" font-size="10.00">/Catena/sdks/cpp/connections</text>
<text text-anchor="middle" x="747" y="-89.5" font-family="Helvetica,sans-Serif" font-size="10.00">/REST/include/controllers/Connect.h</text>
</a>
</g>
</g>
<!-- Node2&#45;&gt;Node6 -->
<g id="edge5_Node000002_Node000006" class="edge">
<title>Node2&#45;&gt;Node6</title>
<g id="a_edge5_Node000002_Node000006"><a xlink:title=" ">
<path fill="none" stroke="#63b8ff" d="M1475.24,-182.14C1338.78,-177.53 1072.98,-164.47 850,-129 840.64,-127.51 830.88,-125.61 821.26,-123.52"/>
<polygon fill="#63b8ff" stroke="#63b8ff" points="1475.13,-185.63 1485.24,-182.47 1475.36,-178.64 1475.13,-185.63"/>
</a>
</g>
</g>
<!-- Node7 -->
<g id="Node000007" class="node">
<title>Node7</title>
<g id="a_Node000007"><a xlink:href="REST_2include_2controllers_2DeviceRequest_8h.html" target="_top" xlink:title="Implements REST DeviceRequest controller.">
<polygon fill="white" stroke="#666666" points="1082.5,-123.5 859.5,-123.5 859.5,-82.5 1082.5,-82.5 1082.5,-123.5"/>
<text text-anchor="start" x="867.5" y="-111.5" font-family="Helvetica,sans-Serif" font-size="10.00">/home/runner/work/Catena</text>
<text text-anchor="start" x="867.5" y="-100.5" font-family="Helvetica,sans-Serif" font-size="10.00">/Catena/sdks/cpp/connections</text>
<text text-anchor="middle" x="971" y="-89.5" font-family="Helvetica,sans-Serif" font-size="10.00">/REST/include/controllers/DeviceRequest.h</text>
</a>
</g>
</g>
<!-- Node2&#45;&gt;Node7 -->
<g id="edge6_Node000002_Node000007" class="edge">
<title>Node2&#45;&gt;Node7</title>
<g id="a_edge6_Node000002_Node000007"><a xlink:title=" ">
<path fill="none" stroke="#63b8ff" d="M1474.97,-176.22C1379.3,-166.96 1224.58,-150.42 1092,-129 1081.94,-127.38 1071.45,-125.49 1061.03,-123.5"/>
<polygon fill="#63b8ff" stroke="#63b8ff" points="1474.9,-179.73 1485.19,-177.2 1475.57,-172.76 1474.9,-179.73"/>
</a>
</g>
</g>
<!-- Node8 -->
<g id="Node000008" class="node">
<title>Node8</title>
<g id="a_Node000008"><a xlink:href="REST_2include_2controllers_2ExecuteCommand_8h.html" target="_top" xlink:title="Implements REST ExecuteCommand controller.">
<polygon fill="white" stroke="#666666" points="1339,-123.5 1101,-123.5 1101,-82.5 1339,-82.5 1339,-123.5"/>
<text text-anchor="start" x="1109" y="-111.5" font-family="Helvetica,sans-Serif" font-size="10.00">/home/runner/work/Catena</text>
<text text-anchor="start" x="1109" y="-100.5" font-family="Helvetica,sans-Serif" font-size="10.00">/Catena/sdks/cpp/connections</text>
<text text-anchor="middle" x="1220" y="-89.5" font-family="Helvetica,sans-Serif" font-size="10.00">/REST/include/controllers/ExecuteCommand.h</text>
</a>
</g>
</g>
<!-- Node2&#45;&gt;Node8 -->
<g id="edge7_Node000002_Node000008" class="edge">
<title>Node2&#45;&gt;Node8</title>
<g id="a_edge7_Node000002_Node000008"><a xlink:title=" ">
<path fill="none" stroke="#63b8ff" d="M1475.56,-163.46C1422.44,-151.1 1355.76,-135.59 1303.83,-123.5"/>
<polygon fill="#63b8ff" stroke="#63b8ff" points="1474.78,-166.87 1485.32,-165.73 1476.37,-160.05 1474.78,-166.87"/>
</a>
</g>
</g>
<!-- Node9 -->
<g id="Node000009" class="node">
<title>Node9</title>
<g id="a_Node000009"><a xlink:href="REST_2include_2controllers_2GetParam_8h.html" target="_top" xlink:title="Implements REST GetParam controller.">
<polygon fill="white" stroke="#666666" points="1554.5,-123.5 1357.5,-123.5 1357.5,-82.5 1554.5,-82.5 1554.5,-123.5"/>
<text text-anchor="start" x="1365.5" y="-111.5" font-family="Helvetica,sans-Serif" font-size="10.00">/home/runner/work/Catena</text>
<text text-anchor="start" x="1365.5" y="-100.5" font-family="Helvetica,sans-Serif" font-size="10.00">/Catena/sdks/cpp/connections</text>
<text text-anchor="middle" x="1456" y="-89.5" font-family="Helvetica,sans-Serif" font-size="10.00">/REST/include/controllers/GetParam.h</text>
</a>
</g>
</g>
<!-- Node2&#45;&gt;Node9 -->
<g id="edge8_Node000002_Node000009" class="edge">
<title>Node2&#45;&gt;Node9</title>
<g id="a_edge8_Node000002_Node000009"><a xlink:title=" ">
<path fill="none" stroke="#63b8ff" d="M1530.78,-158.72C1515.3,-147.4 1497.41,-134.31 1483.01,-123.77"/>
<polygon fill="#63b8ff" stroke="#63b8ff" points="1528.95,-161.73 1539.09,-164.81 1533.09,-156.08 1528.95,-161.73"/>
</a>
</g>
</g>
<!-- Node10 -->
<g id="Node000010" class="node">
<title>Node10</title>
<g id="a_Node000010"><a xlink:href="REST_2include_2controllers_2GetPopulatedSlots_8h.html" target="_top" xlink:title="Implements REST GetPopulatedSlots controller.">
<polygon fill="white" stroke="#666666" points="1779,-129 1573,-129 1573,-77 1779,-77 1779,-129"/>
<text text-anchor="start" x="1581" y="-117" font-family="Helvetica,sans-Serif" font-size="10.00">/home/runner/work/Catena</text>
<text text-anchor="start" x="1581" y="-106" font-family="Helvetica,sans-Serif" font-size="10.00">/Catena/sdks/cpp/connections</text>
<text text-anchor="start" x="1581" y="-95" font-family="Helvetica,sans-Serif" font-size="10.00">/REST/include/controllers/GetPopulated</text>
<text text-anchor="middle" x="1676" y="-84" font-family="Helvetica,sans-Serif" font-size="10.00">Slots.h</text>
</a>
</g>
</g>
<!-- Node2&#45;&gt;Node10 -->
<g id="edge9_Node000002_Node000010" class="edge">
<title>Node2&#45;&gt;Node10</title>
<g id="a_edge9_Node000002_Node000010"><a xlink:title=" ">
<path fill="none" stroke="#63b8ff" d="M1601.11,-158.81C1614.01,-149.36 1628.61,-138.68 1641.46,-129.28"/>
<polygon fill="#63b8ff" stroke="#63b8ff" points="1598.91,-156.08 1592.91,-164.81 1603.05,-161.73 1598.91,-156.08"/>
</a>
</g>
</g>
<!-- Node11 -->
<g id="Node000011" class="node">
<title>Node11</title>
<g id="a_Node000011"><a xlink:href="REST_2include_2controllers_2GetValue_8h.html" target="_top" xlink:title="Implements REST GetValue controller.">
<polygon fill="white" stroke="#666666" points="1991,-123.5 1797,-123.5 1797,-82.5 1991,-82.5 1991,-123.5"/>
<text text-anchor="start" x="1805" y="-111.5" font-family="Helvetica,sans-Serif" font-size="10.00">/home/runner/work/Catena</text>
<text text-anchor="start" x="1805" y="-100.5" font-family="Helvetica,sans-Serif" font-size="10.00">/Catena/sdks/cpp/connections</text>
<text text-anchor="middle" x="1894" y="-89.5" font-family="Helvetica,sans-Serif" font-size="10.00">/REST/include/controllers/GetValue.h</text>
</a>
</g>
</g>
<!-- Node2&#45;&gt;Node11 -->
<g id="edge10_Node000002_Node000011" class="edge">
<title>Node2&#45;&gt;Node11</title>
<g id="a_edge10_Node000002_Node000011"><a xlink:title=" ">
<path fill="none" stroke="#63b8ff" d="M1655.59,-162.51C1705.24,-150.33 1766.43,-135.31 1814.39,-123.54"/>
<polygon fill="#63b8ff" stroke="#63b8ff" points="1654.7,-159.13 1645.82,-164.91 1656.36,-165.93 1654.7,-159.13"/>
</a>
</g>
</g>
<!-- Node12 -->
<g id="Node000012" class="node">
<title>Node12</title>
<g id="a_Node000012"><a xlink:href="REST_2include_2controllers_2LanguagePackRequest_8h.html" target="_top" xlink:title="Implements REST LanguagePackRequest controller.">
<polygon fill="white" stroke="#666666" points="2219,-129 2009,-129 2009,-77 2219,-77 2219,-129"/>
<text text-anchor="start" x="2017" y="-117" font-family="Helvetica,sans-Serif" font-size="10.00">/home/runner/work/Catena</text>
<text text-anchor="start" x="2017" y="-106" font-family="Helvetica,sans-Serif" font-size="10.00">/Catena/sdks/cpp/connections</text>
<text text-anchor="start" x="2017" y="-95" font-family="Helvetica,sans-Serif" font-size="10.00">/REST/include/controllers/LanguagePack</text>
<text text-anchor="middle" x="2114" y="-84" font-family="Helvetica,sans-Serif" font-size="10.00">Request.h</text>
</a>
</g>
</g>
<!-- Node2&#45;&gt;Node12 -->
<g id="edge11_Node000002_Node000012" class="edge">
<title>Node2&#45;&gt;Node12</title>
<g id="a_edge11_Node000002_Node000012"><a xlink:title=" ">
<path fill="none" stroke="#63b8ff" d="M1656.66,-175.27C1744.71,-165.76 1881.99,-149.44 2000,-129 2002.89,-128.5 2005.83,-127.97 2008.78,-127.43"/>
<polygon fill="#63b8ff" stroke="#63b8ff" points="1656.28,-171.8 1646.71,-176.34 1657.02,-178.76 1656.28,-171.8"/>
</a>
</g>
</g>
<!-- Node13 -->
<g id="Node000013" class="node">
<title>Node13</title>
<g id="a_Node000013"><a xlink:href="REST_2include_2controllers_2ListLanguages_8h.html" target="_top" xlink:title="Implements REST ListLanguages controller.">
<polygon fill="white" stroke="#666666" points="2456.5,-123.5 2237.5,-123.5 2237.5,-82.5 2456.5,-82.5 2456.5,-123.5"/>
<text text-anchor="start" x="2245.5" y="-111.5" font-family="Helvetica,sans-Serif" font-size="10.00">/home/runner/work/Catena</text>
<text text-anchor="start" x="2245.5" y="-100.5" font-family="Helvetica,sans-Serif" font-size="10.00">/Catena/sdks/cpp/connections</text>
<text text-anchor="middle" x="2347" y="-89.5" font-family="Helvetica,sans-Serif" font-size="10.00">/REST/include/controllers/ListLanguages.h</text>
</a>
</g>
</g>
<!-- Node2&#45;&gt;Node13 -->
<g id="edge12_Node000002_Node000013" class="edge">
<title>Node2&#45;&gt;Node13</title>
<g id="a_edge12_Node000002_Node000013"><a xlink:title=" ">
<path fill="none" stroke="#63b8ff" d="M1656.76,-180.44C1784.68,-173.92 2025.09,-158.7 2228,-129 2238.44,-127.47 2249.35,-125.59 2260.13,-123.54"/>
<polygon fill="#63b8ff" stroke="#63b8ff" points="1656.43,-176.96 1646.61,-180.95 1656.78,-183.95 1656.43,-176.96"/>
</a>
</g>
</g>
<!-- Node14 -->
<g id="Node000014" class="node">
<title>Node14</title>
<g id="a_Node000014"><a xlink:href="REST_2include_2controllers_2MultiSetValue_8h.html" target="_top" xlink:title="Implements REST MultiSetValue controller.">
<polygon fill="white" stroke="#666666" points="2998.5,-123.5 2781.5,-123.5 2781.5,-82.5 2998.5,-82.5 2998.5,-123.5"/>
<text text-anchor="start" x="2789.5" y="-111.5" font-family="Helvetica,sans-Serif" font-size="10.00">/home/runner/work/Catena</text>
<text text-anchor="start" x="2789.5" y="-100.5" font-family="Helvetica,sans-Serif" font-size="10.00">/Catena/sdks/cpp/connections</text>
<text text-anchor="middle" x="2890" y="-89.5" font-family="Helvetica,sans-Serif" font-size="10.00">/REST/include/controllers/MultiSetValue.h</text>
</a>
</g>
</g>
<!-- Node2&#45;&gt;Node14 -->
<g id="edge13_Node000002_Node000014" class="edge">
<title>Node2&#45;&gt;Node14</title>
<g id="a_edge13_Node000002_Node000014"><a xlink:title=" ">
<path fill="none" stroke="#63b8ff" d="M1657.09,-185.35C1858.83,-186.13 2358.2,-182 2772,-129 2783.11,-127.58 2794.73,-125.66 2806.17,-123.51"/>
<polygon fill="#63b8ff" stroke="#63b8ff" points="1656.85,-181.85 1646.84,-185.31 1656.82,-188.85 1656.85,-181.85"/>
</a>
</g>
</g>
<!-- Node16 -->
<g id="Node000016" class="node">
<title>Node16</title>
<g id="a_Node000016"><a xlink:href="REST_2include_2controllers_2UpdateSubscriptions_8h.html" target="_top" xlink:title="Implements Catena REST UpdateSubscriptions.">
<polygon fill="white" stroke="#666666" points="2763,-123.5 2513,-123.5 2513,-82.5 2763,-82.5 2763,-123.5"/>
<text text-anchor="start" x="2521" y="-111.5" font-family="Helvetica,sans-Serif" font-size="10.00">/home/runner/work/Catena</text>
<text text-anchor="start" x="2521" y="-100.5" font-family="Helvetica,sans-Serif" font-size="10.00">/Catena/sdks/cpp/connections</text>
<text text-anchor="middle" x="2638" y="-89.5" font-family="Helvetica,sans-Serif" font-size="10.00">/REST/include/controllers/UpdateSubscriptions.h</text>
</a>
</g>
</g>
<!-- Node2&#45;&gt;Node16 -->
<g id="edge15_Node000002_Node000016" class="edge">
<title>Node2&#45;&gt;Node16</title>
<g id="a_edge15_Node000002_Node000016"><a xlink:title=" ">
<path fill="none" stroke="#63b8ff" d="M1657.02,-182.66C1824.3,-178.5 2191.65,-165.65 2499,-129 2511.54,-127.5 2524.66,-125.6 2537.62,-123.51"/>
<polygon fill="#63b8ff" stroke="#63b8ff" points="1656.69,-179.17 1646.78,-182.91 1656.86,-186.17 1656.69,-179.17"/>
</a>
</g>
</g>
<!-- Node17 -->
<g id="Node000017" class="node">
<title>Node17</title>
<g id="a_Node000017"><a xlink:href="REST_2include_2interface_2ICallData_8h.html" target="_top" xlink:title="Interface class for REST controllers.">
<polygon fill="white" stroke="#666666" points="186,-123.5 0,-123.5 0,-82.5 186,-82.5 186,-123.5"/>
<text text-anchor="start" x="8" y="-111.5" font-family="Helvetica,sans-Serif" font-size="10.00">/home/runner/work/Catena</text>
<text text-anchor="start" x="8" y="-100.5" font-family="Helvetica,sans-Serif" font-size="10.00">/Catena/sdks/cpp/connections</text>
<text text-anchor="middle" x="93" y="-89.5" font-family="Helvetica,sans-Serif" font-size="10.00">/REST/include/interface/ICallData.h</text>
</a>
</g>
</g>
<!-- Node2&#45;&gt;Node17 -->
<g id="edge16_Node000002_Node000017" class="edge">
<title>Node2&#45;&gt;Node17</title>
<g id="a_edge16_Node000002_Node000017"><a xlink:title=" ">
<path fill="none" stroke="#63b8ff" d="M1474.76,-183.19C1209.76,-178.99 443.18,-164.08 195,-129 185.25,-127.62 175.08,-125.71 165.09,-123.56"/>
<polygon fill="#63b8ff" stroke="#63b8ff" points="1475.06,-186.69 1485.11,-183.35 1475.17,-179.69 1475.06,-186.69"/>
</a>
</g>
</g>
<!-- Node15 -->
<g id="Node000015" class="node">
<title>Node15</title>
<g id="a_Node000015"><a xlink:href="REST_2include_2controllers_2SetValue_8h.html" target="_top" xlink:title="Implements REST SetValue controller.">
<polygon fill="white" stroke="#666666" points="2986,-41 2794,-41 2794,0 2986,0 2986,-41"/>
<text text-anchor="start" x="2802" y="-29" font-family="Helvetica,sans-Serif" font-size="10.00">/home/runner/work/Catena</text>
<text text-anchor="start" x="2802" y="-18" font-family="Helvetica,sans-Serif" font-size="10.00">/Catena/sdks/cpp/connections</text>
<text text-anchor="middle" x="2890" y="-7" font-family="Helvetica,sans-Serif" font-size="10.00">/REST/include/controllers/SetValue.h</text>
</a>
</g>
</g>
<!-- Node14&#45;&gt;Node15 -->
<g id="edge14_Node000014_Node000015" class="edge">
<title>Node14&#45;&gt;Node15</title>
<g id="a_edge14_Node000014_Node000015"><a xlink:title=" ">
<path fill="none" stroke="#63b8ff" d="M2890,-71.87C2890,-61.6 2890,-50.4 2890,-41.17"/>
<polygon fill="#63b8ff" stroke="#63b8ff" points="2886.5,-72.1 2890,-82.1 2893.5,-72.1 2886.5,-72.1"/>
</a>
</g>
</g>
<!-- Node17&#45;&gt;Node3 -->
<g id="edge17_Node000017_Node000003" class="edge">
<title>Node17&#45;&gt;Node3</title>
<g id="a_edge17_Node000017_Node000003"><a xlink:title=" ">
<path fill="none" stroke="#63b8ff" d="M175.62,-80.36C182.15,-79.07 188.67,-77.93 195,-77 390.57,-48.34 989.87,-29.63 1208.29,-23.61"/>
<polygon fill="#63b8ff" stroke="#63b8ff" points="174.46,-77.02 165.38,-82.47 175.88,-83.88 174.46,-77.02"/>
</a>
</g>
</g>
</g>
</svg>

<g id="navigator" transform="translate(0 0)" fill="#404254">
  <rect fill="#f2f5e9" fill-opacity="0.5" stroke="#606060" stroke-width=".5" x="0" y="0" width="60" height="60"/>
  <use id="zoomplus" xlink:href="#zoomPlus" x="17" y="9" onmousedown="handleZoom(evt,'in')"/>
  <use id="zoomminus" xlink:href="#zoomMin" x="42" y="9" onmousedown="handleZoom(evt,'out')"/>
  <use id="reset" xlink:href="#resetDef" x="30" y="36" onmousedown="handleReset()"/>
   <use id="arrowup" xlink:href="#arrowUp" x="0" y="0" onmousedown="handlePan(0,-1)"/>
  <use id="arrowright" xlink:href="#arrowRight" x="0" y="0" onmousedown="handlePan(1,0)"/>
  <use id="arrowdown" xlink:href="#arrowDown" x="0" y="0" onmousedown="handlePan(0,1)"/>
  <use id="arrowleft" xlink:href="#arrowLeft" x="0" y="0" onmousedown="handlePan(-1,0)"/>
</g>
<svg viewBox="0 0 15 15" width="100%" height="30px" preserveAspectRatio="xMaxYMin meet">
 <g id="arrow_out" transform="scale(0.3 0.3)">
  <a xlink:href="ISocketWriter_8h__dep__incl_org.svg" target="_base">
   <rect id="button" ry="5" rx="5" y="6" x="6" height="38" width="38"
        fill="#f2f5e9" fill-opacity="0.5" stroke="#606060" stroke-width="1.0"/>
   <path id="arrow"
     d="M 11.500037,31.436501 C 11.940474,20.09759 22.043105,11.32322 32.158766,21.979434 L 37.068811,17.246167 C 37.068811,17.246167 37.088388,32 37.088388,32 L 22.160133,31.978069 C 22.160133,31.978069 26.997745,27.140456 26.997745,27.140456 C 18.528582,18.264221 13.291696,25.230495 11.500037,31.436501 z"
     style="fill:#404040;"/>
  </a>
 </g>
</svg>

<style type='text/css'>
<![CDATA[
[data-mouse-over-selected='false'] { opacity: 0.7; }
[data-mouse-over-selected='true']  { opacity: 1.0; }
]]>
</style>
<script type="application/ecmascript"><![CDATA[
document.addEventListener('DOMContentLoaded', (event) => {
  highlightEdges();
  highlightAdjacentNodes();
});
]]></script>
</svg>
