<?xml version="1.0" encoding="UTF-8" standalone="no"?>
<!DOCTYPE svg PUBLIC "-//W3C//DTD SVG 1.1//EN"
 "http://www.w3.org/Graphics/SVG/1.1/DTD/svg11.dtd">
<!-- Generated by graphviz version 2.43.0 (0)
 -->
<!-- Title: /home/runner/work/Catena/Catena/sdks/cpp/connections/REST/include/interface/ISocketReader.h Pages: 1 -->
<svg width="1959pt" height="489pt"
 viewBox="0.00 0.00 1958.50 489.00" xmlns="http://www.w3.org/2000/svg" xmlns:xlink="http://www.w3.org/1999/xlink">
<g id="graph0" class="graph" transform="scale(1 1) rotate(0) translate(4 485)">
<title>/home/runner/work/Catena/Catena/sdks/cpp/connections/REST/include/interface/ISocketReader.h</title>
<!-- Node1 -->
<g id="Node000001" class="node">
<title>Node1</title>
<g id="a_Node000001"><a xlink:title="Interface for the SocketReader class.">
<polygon fill="#999999" stroke="#666666" points="1291,-481 1081,-481 1081,-440 1291,-440 1291,-481"/>
<text text-anchor="start" x="1089" y="-469" font-family="Helvetica,sans-Serif" font-size="10.00">/home/runner/work/Catena</text>
<text text-anchor="start" x="1089" y="-458" font-family="Helvetica,sans-Serif" font-size="10.00">/Catena/sdks/cpp/connections</text>
<text text-anchor="middle" x="1186" y="-447" font-family="Helvetica,sans-Serif" font-size="10.00">/REST/include/interface/ISocketReader.h</text>
</a>
</g>
</g>
<!-- Node2 -->
<g id="Node000002" class="node">
<title>Node2</title>
<g id="a_Node000002"><a xlink:title=" ">
<polygon fill="#e0e0e0" stroke="#999999" points="88,-404 0,-404 0,-385 88,-385 88,-404"/>
<text text-anchor="middle" x="44" y="-392" font-family="Helvetica,sans-Serif" font-size="10.00">boost/asio.hpp</text>
</a>
</g>
</g>
<!-- Node1&#45;&gt;Node2 -->
<g id="edge1_Node000001_Node000002" class="edge">
<title>Node1&#45;&gt;Node2</title>
<g id="a_edge1_Node000001_Node000002"><a xlink:title=" ">
<path fill="none" stroke="#63b8ff" d="M1080.96,-457.92C888.12,-454.18 464.56,-442.13 98.2,-404"/>
<polygon fill="#63b8ff" stroke="#63b8ff" points="98.51,-400.52 88.2,-402.95 97.78,-407.48 98.51,-400.52"/>
</a>
</g>
</g>
<!-- Node3 -->
<g id="Node000003" class="node">
<title>Node3</title>
<g id="a_Node000003"><a xlink:title=" ">
<polygon fill="#e0e0e0" stroke="#999999" points="210,-404 106,-404 106,-385 210,-385 210,-404"/>
<text text-anchor="middle" x="158" y="-392" font-family="Helvetica,sans-Serif" font-size="10.00">boost/asio/ssl.hpp</text>
</a>
</g>
</g>
<!-- Node1&#45;&gt;Node3 -->
<g id="edge2_Node000001_Node000003" class="edge">
<title>Node1&#45;&gt;Node3</title>
<g id="a_edge2_Node000001_Node000003"><a xlink:title=" ">
<path fill="none" stroke="#63b8ff" d="M1080.83,-455.86C903.74,-449.19 534.86,-432.95 224,-404 222.74,-403.88 221.46,-403.76 220.18,-403.63"/>
<polygon fill="#63b8ff" stroke="#63b8ff" points="220.52,-400.15 210.2,-402.57 219.77,-407.11 220.52,-400.15"/>
</a>
</g>
</g>
<!-- Node4 -->
<g id="Node000004" class="node">
<title>Node4</title>
<g id="a_Node000004"><a xlink:href="ISubscriptionManager_8h.html" target="_top" xlink:title="Interface for managing parameter subscriptions in Catena.">
<polygon fill="white" stroke="#666666" points="1251.5,-404 1120.5,-404 1120.5,-385 1251.5,-385 1251.5,-404"/>
<text text-anchor="middle" x="1186" y="-392" font-family="Helvetica,sans-Serif" font-size="10.00">ISubscriptionManager.h</text>
</a>
</g>
</g>
<!-- Node1&#45;&gt;Node4 -->
<g id="edge3_Node000001_Node000004" class="edge">
<title>Node1&#45;&gt;Node4</title>
<g id="a_edge3_Node000001_Node000004"><a xlink:title=" ">
<path fill="none" stroke="#63b8ff" d="M1186,-439.95C1186,-431.85 1186,-422.5 1186,-414.47"/>
<polygon fill="#63b8ff" stroke="#63b8ff" points="1189.5,-414.26 1186,-404.26 1182.5,-414.26 1189.5,-414.26"/>
</a>
</g>
</g>
<!-- Node6 -->
<g id="Node000006" class="node">
<title>Node6</title>
<g id="a_Node000006"><a xlink:title=" ">
<polygon fill="#e0e0e0" stroke="#999999" points="917,-19 873,-19 873,0 917,0 917,-19"/>
<text text-anchor="middle" x="895" y="-7" font-family="Helvetica,sans-Serif" font-size="10.00">string</text>
</a>
</g>
</g>
<!-- Node1&#45;&gt;Node6 -->
<g id="edge68_Node000001_Node000006" class="edge">
<title>Node1&#45;&gt;Node6</title>
<g id="a_edge68_Node000001_Node000006"><a xlink:title=" ">
<path fill="none" stroke="#63b8ff" d="M1291.03,-460C1463.8,-457.96 1789,-440.8 1789,-340.5 1789,-340.5 1789,-340.5 1789,-118.5 1789,-29.86 1087.38,-13.51 927.26,-10.94"/>
<polygon fill="#63b8ff" stroke="#63b8ff" points="927.15,-7.43 917.1,-10.78 927.04,-14.43 927.15,-7.43"/>
</a>
</g>
</g>
<!-- Node13 -->
<g id="Node000013" class="node">
<title>Node13</title>
<g id="a_Node000013"><a xlink:title=" ">
<polygon fill="#e0e0e0" stroke="#999999" points="581.5,-19 488.5,-19 488.5,0 581.5,0 581.5,-19"/>
<text text-anchor="middle" x="535" y="-7" font-family="Helvetica,sans-Serif" font-size="10.00">unordered_map</text>
</a>
</g>
</g>
<!-- Node1&#45;&gt;Node13 -->
<g id="edge69_Node000001_Node000013" class="edge">
<title>Node1&#45;&gt;Node13</title>
<g id="a_edge69_Node000001_Node000013"><a xlink:title=" ">
<path fill="none" stroke="#63b8ff" d="M1080.93,-457.13C834.1,-450.18 238,-424.68 238,-340.5 238,-340.5 238,-340.5 238,-118.5 238,-89.04 234.84,-74.41 257,-55 289.06,-26.91 406.49,-16.44 478.07,-12.62"/>
<polygon fill="#63b8ff" stroke="#63b8ff" points="478.47,-16.1 488.28,-12.1 478.12,-9.11 478.47,-16.1"/>
</a>
</g>
</g>
<!-- Node40 -->
<g id="Node000040" class="node">
<title>Node40</title>
<g id="a_Node000040"><a xlink:href="IConnectionQueue_8h.html" target="_top" xlink:title="Pure virtual class for the ConnectionQueue object.">
<polygon fill="white" stroke="#666666" points="1489.5,-349 1356.5,-349 1356.5,-330 1489.5,-330 1489.5,-349"/>
<text text-anchor="middle" x="1423" y="-337" font-family="Helvetica,sans-Serif" font-size="10.00">rpc/IConnectionQueue.h</text>
</a>
</g>
</g>
<!-- Node1&#45;&gt;Node40 -->
<g id="edge61_Node000001_Node000040" class="edge">
<title>Node1&#45;&gt;Node40</title>
<g id="a_edge61_Node000001_Node000040"><a xlink:title=" ">
<path fill="none" stroke="#63b8ff" d="M1224.87,-439.98C1273.48,-415.58 1355.36,-374.46 1397,-353.55"/>
<polygon fill="#63b8ff" stroke="#63b8ff" points="1398.6,-356.67 1405.96,-349.05 1395.46,-350.41 1398.6,-356.67"/>
</a>
</g>
</g>
<!-- Node43 -->
<g id="Node000043" class="node">
<title>Node43</title>
<g id="a_Node000043"><a xlink:title=" ">
<polygon fill="#e0e0e0" stroke="#999999" points="1950.5,-404 1817.5,-404 1817.5,-385 1950.5,-385 1950.5,-404"/>
<text text-anchor="middle" x="1884" y="-392" font-family="Helvetica,sans-Serif" font-size="10.00">interface/IServiceImpl.h</text>
</a>
</g>
</g>
<!-- Node1&#45;&gt;Node43 -->
<g id="edge67_Node000001_Node000043" class="edge">
<title>Node1&#45;&gt;Node43</title>
<g id="a_edge67_Node000001_Node000043"><a xlink:title=" ">
<path fill="none" stroke="#63b8ff" d="M1291.12,-450.52C1413.96,-439.92 1623.3,-421.51 1803,-404 1804.31,-403.87 1805.62,-403.74 1806.95,-403.61"/>
<polygon fill="#63b8ff" stroke="#63b8ff" points="1807.66,-407.06 1817.26,-402.58 1806.96,-400.09 1807.66,-407.06"/>
</a>
</g>
</g>
<!-- Node5 -->
<g id="Node000005" class="node">
<title>Node5</title>
<g id="a_Node000005"><a xlink:title=" ">
<polygon fill="#e0e0e0" stroke="#999999" points="1301,-239 1269,-239 1269,-220 1301,-220 1301,-239"/>
<text text-anchor="middle" x="1285" y="-227" font-family="Helvetica,sans-Serif" font-size="10.00">set</text>
</a>
</g>
</g>
<!-- Node4&#45;&gt;Node5 -->
<g id="edge4_Node000004_Node000005" class="edge">
<title>Node4&#45;&gt;Node5</title>
<g id="a_edge4_Node000004_Node000005"><a xlink:title=" ">
<path fill="none" stroke="#63b8ff" d="M1191.32,-384.74C1207.04,-358.87 1253.43,-282.48 1274.44,-247.88"/>
<polygon fill="#63b8ff" stroke="#63b8ff" points="1277.45,-249.67 1279.65,-239.31 1271.47,-246.04 1277.45,-249.67"/>
</a>
</g>
</g>
<!-- Node4&#45;&gt;Node6 -->
<g id="edge5_Node000004_Node000006" class="edge">
<title>Node4&#45;&gt;Node6</title>
<g id="a_edge5_Node000004_Node000006"><a xlink:title=" ">
<path fill="none" stroke="#63b8ff" d="M1120.18,-392.24C917.26,-387.5 315,-366.59 315,-285.5 315,-285.5 315,-285.5 315,-228.5 315,-122.09 379.42,-89.76 480,-55 550.85,-30.52 778.25,-16.54 862.88,-12.08"/>
<polygon fill="#63b8ff" stroke="#63b8ff" points="863.12,-15.57 872.93,-11.56 862.76,-8.58 863.12,-15.57"/>
</a>
</g>
</g>
<!-- Node7 -->
<g id="Node000007" class="node">
<title>Node7</title>
<g id="a_Node000007"><a xlink:href="IDevice_8h.html" target="_top" xlink:title="Interface for device.">
<polygon fill="white" stroke="#666666" points="733,-349 671,-349 671,-330 733,-330 733,-349"/>
<text text-anchor="middle" x="702" y="-337" font-family="Helvetica,sans-Serif" font-size="10.00">IDevice.h</text>
</a>
</g>
</g>
<!-- Node4&#45;&gt;Node7 -->
<g id="edge6_Node000004_Node000007" class="edge">
<title>Node4&#45;&gt;Node7</title>
<g id="a_edge6_Node000004_Node000007"><a xlink:title=" ">
<path fill="none" stroke="#63b8ff" d="M1120.47,-386.32C1019.18,-375.23 827.5,-354.24 743.36,-345.03"/>
<polygon fill="#63b8ff" stroke="#63b8ff" points="743.49,-341.52 733.17,-343.91 742.73,-348.48 743.49,-341.52"/>
</a>
</g>
</g>
<!-- Node8 -->
<g id="Node000008" class="node">
<title>Node8</title>
<g id="a_Node000008"><a xlink:href="Authorizer_8h.html" target="_top" xlink:title="Class for handling authorization information.">
<polygon fill="white" stroke="#666666" points="1223.5,-294 1148.5,-294 1148.5,-275 1223.5,-275 1223.5,-294"/>
<text text-anchor="middle" x="1186" y="-282" font-family="Helvetica,sans-Serif" font-size="10.00">Authorizer.h</text>
</a>
</g>
</g>
<!-- Node4&#45;&gt;Node8 -->
<g id="edge60_Node000004_Node000008" class="edge">
<title>Node4&#45;&gt;Node8</title>
<g id="a_edge60_Node000004_Node000008"><a xlink:title=" ">
<path fill="none" stroke="#63b8ff" d="M1186,-384.66C1186,-367.17 1186,-327.8 1186,-304.27"/>
<polygon fill="#63b8ff" stroke="#63b8ff" points="1189.5,-304.16 1186,-294.16 1182.5,-304.16 1189.5,-304.16"/>
</a>
</g>
</g>
<!-- Node16 -->
<g id="Node000016" class="node">
<title>Node16</title>
<g id="a_Node000016"><a xlink:href="IParam_8h.html" target="_top" xlink:title="Interface for parameters.">
<polygon fill="white" stroke="#666666" points="1378.5,-239 1319.5,-239 1319.5,-220 1378.5,-220 1378.5,-239"/>
<text text-anchor="middle" x="1349" y="-227" font-family="Helvetica,sans-Serif" font-size="10.00">IParam.h</text>
</a>
</g>
</g>
<!-- Node4&#45;&gt;Node16 -->
<g id="edge59_Node000004_Node000016" class="edge">
<title>Node4&#45;&gt;Node16</title>
<g id="a_edge59_Node000004_Node000016"><a xlink:title=" ">
<path fill="none" stroke="#63b8ff" d="M1195.46,-384.74C1205.03,-375.84 1220.18,-361.61 1233,-349 1269.56,-313.04 1311.4,-269.75 1333.48,-246.74"/>
<polygon fill="#63b8ff" stroke="#63b8ff" points="1336.28,-248.88 1340.67,-239.23 1331.22,-244.04 1336.28,-248.88"/>
</a>
</g>
</g>
<!-- Node7&#45;&gt;Node6 -->
<g id="edge55_Node000007_Node000006" class="edge">
<title>Node7&#45;&gt;Node6</title>
<g id="a_edge55_Node000007_Node000006"><a xlink:title=" ">
<path fill="none" stroke="#63b8ff" d="M670.86,-339.2C621.11,-339 521.99,-333.19 450,-294 416.16,-275.58 391,-269.02 391,-230.5 391,-230.5 391,-230.5 391,-173.5 391,-144.04 388.27,-129.89 410,-110 477.15,-48.54 765.19,-20.67 862.64,-12.88"/>
<polygon fill="#63b8ff" stroke="#63b8ff" points="863.07,-16.35 872.77,-12.08 862.53,-9.37 863.07,-16.35"/>
</a>
</g>
</g>
<!-- Node7&#45;&gt;Node8 -->
<g id="edge7_Node000007_Node000008" class="edge">
<title>Node7&#45;&gt;Node8</title>
<g id="a_edge7_Node000007_Node000008"><a xlink:title=" ">
<path fill="none" stroke="#63b8ff" d="M733.01,-335.1C815.33,-326.09 1039.76,-301.51 1138.41,-290.71"/>
<polygon fill="#63b8ff" stroke="#63b8ff" points="1138.84,-294.19 1148.4,-289.62 1138.08,-287.23 1138.84,-294.19"/>
</a>
</g>
</g>
<!-- Node15 -->
<g id="Node000015" class="node">
<title>Node15</title>
<g id="a_Node000015"><a xlink:title=" ">
<polygon fill="#e0e0e0" stroke="#999999" points="1223.5,-129 1104.5,-129 1104.5,-110 1223.5,-110 1223.5,-129"/>
<text text-anchor="middle" x="1164" y="-117" font-family="Helvetica,sans-Serif" font-size="10.00">interface/device.pb.h</text>
</a>
</g>
</g>
<!-- Node7&#45;&gt;Node15 -->
<g id="edge54_Node000007_Node000015" class="edge">
<title>Node7&#45;&gt;Node15</title>
<g id="a_edge54_Node000007_Node000015"><a xlink:title=" ">
<path fill="none" stroke="#63b8ff" d="M725.91,-329.85C784.8,-308.22 940.99,-248.84 1064,-184 1092.56,-168.95 1123.69,-148.48 1143.5,-134.9"/>
<polygon fill="#63b8ff" stroke="#63b8ff" points="1145.53,-137.76 1151.76,-129.19 1141.54,-132 1145.53,-137.76"/>
</a>
</g>
</g>
<!-- Node7&#45;&gt;Node16 -->
<g id="edge48_Node000007_Node000016" class="edge">
<title>Node7&#45;&gt;Node16</title>
<g id="a_edge48_Node000007_Node000016"><a xlink:title=" ">
<path fill="none" stroke="#63b8ff" d="M733.16,-337.56C832.01,-334.33 1137.56,-322.23 1232,-294 1268.39,-283.12 1306.28,-260.04 1328.74,-244.9"/>
<polygon fill="#63b8ff" stroke="#63b8ff" points="1330.85,-247.7 1337.11,-239.15 1326.88,-241.94 1330.85,-247.7"/>
</a>
</g>
</g>
<!-- Node27 -->
<g id="Node000027" class="node">
<title>Node27</title>
<g id="a_Node000027"><a xlink:href="Path_8h.html" target="_top" xlink:title="Handles Path objects used to uniquely identify and access OIDs.">
<polygon fill="white" stroke="#666666" points="690.5,-184 643.5,-184 643.5,-165 690.5,-165 690.5,-184"/>
<text text-anchor="middle" x="667" y="-172" font-family="Helvetica,sans-Serif" font-size="10.00">Path.h</text>
</a>
</g>
</g>
<!-- Node7&#45;&gt;Node27 -->
<g id="edge47_Node000007_Node000027" class="edge">
<title>Node7&#45;&gt;Node27</title>
<g id="a_edge47_Node000007_Node000027"><a xlink:title=" ">
<path fill="none" stroke="#63b8ff" d="M698.32,-329.79C694.71,-320.92 689.28,-306.72 686,-294 677.07,-259.32 671.57,-217.79 668.91,-194.24"/>
<polygon fill="#63b8ff" stroke="#63b8ff" points="672.39,-193.81 667.84,-184.24 665.43,-194.55 672.39,-193.81"/>
</a>
</g>
</g>
<!-- Node29 -->
<g id="Node000029" class="node">
<title>Node29</title>
<g id="a_Node000029"><a xlink:title=" ">
<polygon fill="#e0e0e0" stroke="#999999" points="466.5,-129 419.5,-129 419.5,-110 466.5,-110 466.5,-129"/>
<text text-anchor="middle" x="443" y="-117" font-family="Helvetica,sans-Serif" font-size="10.00">vector</text>
</a>
</g>
</g>
<!-- Node7&#45;&gt;Node29 -->
<g id="edge56_Node000007_Node000029" class="edge">
<title>Node7&#45;&gt;Node29</title>
<g id="a_edge56_Node000007_Node000029"><a xlink:title=" ">
<path fill="none" stroke="#63b8ff" d="M691.85,-329.95C652.77,-297.06 511.75,-178.36 461.19,-135.81"/>
<polygon fill="#63b8ff" stroke="#63b8ff" points="463.27,-132.99 453.36,-129.22 458.76,-138.34 463.27,-132.99"/>
</a>
</g>
</g>
<!-- Node32 -->
<g id="Node000032" class="node">
<title>Node32</title>
<g id="a_Node000032"><a xlink:href="Status_8h.html" target="_top" xlink:title="Communicates failure status using gRPC&#39;s codes.">
<polygon fill="white" stroke="#666666" points="867,-184 811,-184 811,-165 867,-165 867,-184"/>
<text text-anchor="middle" x="839" y="-172" font-family="Helvetica,sans-Serif" font-size="10.00">Status.h</text>
</a>
</g>
</g>
<!-- Node7&#45;&gt;Node32 -->
<g id="edge52_Node000007_Node000032" class="edge">
<title>Node7&#45;&gt;Node32</title>
<g id="a_edge52_Node000007_Node000032"><a xlink:title=" ">
<path fill="none" stroke="#63b8ff" d="M727.27,-329.96C745.32,-322.78 769.12,-310.94 785,-294 812.48,-264.69 827.83,-218.97 834.65,-193.75"/>
<polygon fill="#63b8ff" stroke="#63b8ff" points="838.05,-194.57 837.13,-184.02 831.27,-192.84 838.05,-194.57"/>
</a>
</g>
</g>
<!-- Node36 -->
<g id="Node000036" class="node">
<title>Node36</title>
<g id="a_Node000036"><a xlink:href="ILanguagePack_8h.html" target="_top" xlink:title="Interface for language packs.">
<polygon fill="white" stroke="#666666" points="364,-74 266,-74 266,-55 364,-55 364,-74"/>
<text text-anchor="middle" x="315" y="-62" font-family="Helvetica,sans-Serif" font-size="10.00">ILanguagePack.h</text>
</a>
</g>
</g>
<!-- Node7&#45;&gt;Node36 -->
<g id="edge49_Node000007_Node000036" class="edge">
<title>Node7&#45;&gt;Node36</title>
<g id="a_edge49_Node000007_Node000036"><a xlink:title=" ">
<path fill="none" stroke="#63b8ff" d="M670.76,-338.47C598.02,-337.74 420.26,-332.02 377,-294 314.64,-239.2 312.09,-128.66 313.79,-84.43"/>
<polygon fill="#63b8ff" stroke="#63b8ff" points="317.29,-84.41 314.3,-74.24 310.3,-84.05 317.29,-84.41"/>
</a>
</g>
</g>
<!-- Node37 -->
<g id="Node000037" class="node">
<title>Node37</title>
<g id="a_Node000037"><a xlink:title=" ">
<polygon fill="#e0e0e0" stroke="#999999" points="776.5,-294 695.5,-294 695.5,-275 776.5,-275 776.5,-294"/>
<text text-anchor="middle" x="736" y="-282" font-family="Helvetica,sans-Serif" font-size="10.00">vdk/signals.h</text>
</a>
</g>
</g>
<!-- Node7&#45;&gt;Node37 -->
<g id="edge53_Node000007_Node000037" class="edge">
<title>Node7&#45;&gt;Node37</title>
<g id="a_edge53_Node000007_Node000037"><a xlink:title=" ">
<path fill="none" stroke="#63b8ff" d="M707.61,-329.75C712.32,-322.42 719.17,-311.73 724.97,-302.7"/>
<polygon fill="#63b8ff" stroke="#63b8ff" points="728.04,-304.4 730.49,-294.09 722.14,-300.62 728.04,-304.4"/>
</a>
</g>
</g>
<!-- Node38 -->
<g id="Node000038" class="node">
<title>Node38</title>
<g id="a_Node000038"><a xlink:title=" ">
<polygon fill="#e0e0e0" stroke="#999999" points="521,-294 459,-294 459,-275 521,-275 521,-294"/>
<text text-anchor="middle" x="490" y="-282" font-family="Helvetica,sans-Serif" font-size="10.00">coroutine</text>
</a>
</g>
</g>
<!-- Node7&#45;&gt;Node38 -->
<g id="edge57_Node000007_Node000038" class="edge">
<title>Node7&#45;&gt;Node38</title>
<g id="a_edge57_Node000007_Node000038"><a xlink:title=" ">
<path fill="none" stroke="#63b8ff" d="M670.72,-330.68C633.66,-321.42 571.82,-305.95 530.97,-295.74"/>
<polygon fill="#63b8ff" stroke="#63b8ff" points="531.61,-292.3 521.06,-293.27 529.92,-299.09 531.61,-292.3"/>
</a>
</g>
</g>
<!-- Node39 -->
<g id="Node000039" class="node">
<title>Node39</title>
<g id="a_Node000039"><a xlink:title=" ">
<polygon fill="#e0e0e0" stroke="#999999" points="587,-294 539,-294 539,-275 587,-275 587,-294"/>
<text text-anchor="middle" x="563" y="-282" font-family="Helvetica,sans-Serif" font-size="10.00">mutex</text>
</a>
</g>
</g>
<!-- Node7&#45;&gt;Node39 -->
<g id="edge58_Node000007_Node000039" class="edge">
<title>Node7&#45;&gt;Node39</title>
<g id="a_edge58_Node000007_Node000039"><a xlink:title=" ">
<path fill="none" stroke="#63b8ff" d="M679.67,-329.98C656.8,-321.27 621.04,-307.63 595.14,-297.75"/>
<polygon fill="#63b8ff" stroke="#63b8ff" points="596.33,-294.46 585.74,-294.17 593.84,-301 596.33,-294.46"/>
</a>
</g>
</g>
<!-- Node8&#45;&gt;Node5 -->
<g id="edge46_Node000008_Node000005" class="edge">
<title>Node8&#45;&gt;Node5</title>
<g id="a_edge46_Node000008_Node000005"><a xlink:title=" ">
<path fill="none" stroke="#63b8ff" d="M1201.91,-274.98C1217.55,-266.61 1241.66,-253.7 1259.88,-243.95"/>
<polygon fill="#63b8ff" stroke="#63b8ff" points="1261.64,-246.98 1268.8,-239.17 1258.34,-240.8 1261.64,-246.98"/>
</a>
</g>
</g>
<!-- Node9 -->
<g id="Node000009" class="node">
<title>Node9</title>
<g id="a_Node000009"><a xlink:href="Enums_8h.html" target="_top" xlink:title="tools for using EnumDecorators.">
<polygon fill="white" stroke="#666666" points="1055.5,-184 996.5,-184 996.5,-165 1055.5,-165 1055.5,-184"/>
<text text-anchor="middle" x="1026" y="-172" font-family="Helvetica,sans-Serif" font-size="10.00">Enums.h</text>
</a>
</g>
</g>
<!-- Node8&#45;&gt;Node9 -->
<g id="edge8_Node000008_Node000009" class="edge">
<title>Node8&#45;&gt;Node9</title>
<g id="a_edge8_Node000008_Node000009"><a xlink:title=" ">
<path fill="none" stroke="#63b8ff" d="M1182.7,-274.84C1177.13,-261.3 1164.61,-235.11 1146,-220 1122.73,-201.11 1090.66,-189.77 1065.52,-183.27"/>
<polygon fill="#63b8ff" stroke="#63b8ff" points="1066.12,-179.81 1055.57,-180.85 1064.46,-186.61 1066.12,-179.81"/>
</a>
</g>
</g>
<!-- Node8&#45;&gt;Node16 -->
<g id="edge17_Node000008_Node000016" class="edge">
<title>Node8&#45;&gt;Node16</title>
<g id="a_edge17_Node000008_Node000016"><a xlink:title=" ">
<path fill="none" stroke="#63b8ff" d="M1212.19,-274.98C1239.44,-266.13 1282.3,-252.19 1312.78,-242.28"/>
<polygon fill="#63b8ff" stroke="#63b8ff" points="1314.18,-245.5 1322.61,-239.08 1312.01,-238.85 1314.18,-245.5"/>
</a>
</g>
</g>
<!-- Node20 -->
<g id="Node000020" class="node">
<title>Node20</title>
<g id="a_Node000020"><a xlink:href="IParamDescriptor_8h.html" target="_top" xlink:title="Interface class for ParamDescriptor.">
<polygon fill="white" stroke="#666666" points="1631.5,-184 1522.5,-184 1522.5,-165 1631.5,-165 1631.5,-184"/>
<text text-anchor="middle" x="1577" y="-172" font-family="Helvetica,sans-Serif" font-size="10.00">IParamDescriptor.h</text>
</a>
</g>
</g>
<!-- Node8&#45;&gt;Node20 -->
<g id="edge43_Node000008_Node000020" class="edge">
<title>Node8&#45;&gt;Node20</title>
<g id="a_edge43_Node000008_Node000020"><a xlink:title=" ">
<path fill="none" stroke="#63b8ff" d="M1193.14,-274.76C1205.24,-260.61 1231.3,-232.96 1260,-220 1282.48,-209.84 1426.23,-192.37 1512.25,-182.62"/>
<polygon fill="#63b8ff" stroke="#63b8ff" points="1512.89,-186.07 1522.44,-181.47 1512.11,-179.11 1512.89,-186.07"/>
</a>
</g>
</g>
<!-- Node22 -->
<g id="Node000022" class="node">
<title>Node22</title>
<g id="a_Node000022"><a xlink:title=" ">
<polygon fill="#e0e0e0" stroke="#999999" points="1284.5,-74 1219.5,-74 1219.5,-55 1284.5,-55 1284.5,-74"/>
<text text-anchor="middle" x="1252" y="-62" font-family="Helvetica,sans-Serif" font-size="10.00">functional</text>
</a>
</g>
</g>
<!-- Node8&#45;&gt;Node22 -->
<g id="edge45_Node000008_Node000022" class="edge">
<title>Node8&#45;&gt;Node22</title>
<g id="a_edge45_Node000008_Node000022"><a xlink:title=" ">
<path fill="none" stroke="#63b8ff" d="M1188.59,-274.95C1198.32,-242.81 1232.86,-128.72 1246.45,-83.83"/>
<polygon fill="#63b8ff" stroke="#63b8ff" points="1249.81,-84.81 1249.36,-74.22 1243.11,-82.78 1249.81,-84.81"/>
</a>
</g>
</g>
<!-- Node35 -->
<g id="Node000035" class="node">
<title>Node35</title>
<g id="a_Node000035"><a xlink:title=" ">
<polygon fill="#e0e0e0" stroke="#999999" points="1137,-239 1057,-239 1057,-220 1137,-220 1137,-239"/>
<text text-anchor="middle" x="1097" y="-227" font-family="Helvetica,sans-Serif" font-size="10.00">jwt&#45;cpp/jwt.h</text>
</a>
</g>
</g>
<!-- Node8&#45;&gt;Node35 -->
<g id="edge44_Node000008_Node000035" class="edge">
<title>Node8&#45;&gt;Node35</title>
<g id="a_edge44_Node000008_Node000035"><a xlink:title=" ">
<path fill="none" stroke="#63b8ff" d="M1171.7,-274.98C1157.9,-266.77 1136.76,-254.18 1120.49,-244.49"/>
<polygon fill="#63b8ff" stroke="#63b8ff" points="1121.94,-241.28 1111.56,-239.17 1118.36,-247.29 1121.94,-241.28"/>
</a>
</g>
</g>
<!-- Node10 -->
<g id="Node000010" class="node">
<title>Node10</title>
<g id="a_Node000010"><a xlink:href="EnumDecorator_8h.html" target="_top" xlink:title="Provides an enum with useful extra functionality.">
<polygon fill="white" stroke="#666666" points="1048,-129 904,-129 904,-110 1048,-110 1048,-129"/>
<text text-anchor="middle" x="976" y="-117" font-family="Helvetica,sans-Serif" font-size="10.00">patterns/EnumDecorator.h</text>
</a>
</g>
</g>
<!-- Node9&#45;&gt;Node10 -->
<g id="edge9_Node000009_Node000010" class="edge">
<title>Node9&#45;&gt;Node10</title>
<g id="a_edge9_Node000009_Node000010"><a xlink:title=" ">
<path fill="none" stroke="#63b8ff" d="M1017.74,-164.75C1010.54,-157.11 999.89,-145.82 991.15,-136.56"/>
<polygon fill="#63b8ff" stroke="#63b8ff" points="993.51,-133.96 984.1,-129.09 988.42,-138.76 993.51,-133.96"/>
</a>
</g>
</g>
<!-- Node12 -->
<g id="Node000012" class="node">
<title>Node12</title>
<g id="a_Node000012"><a xlink:title=" ">
<polygon fill="#e0e0e0" stroke="#999999" points="1101,-74 1051,-74 1051,-55 1101,-55 1101,-74"/>
<text text-anchor="middle" x="1076" y="-62" font-family="Helvetica,sans-Serif" font-size="10.00">cstdint</text>
</a>
</g>
</g>
<!-- Node9&#45;&gt;Node12 -->
<g id="edge16_Node000009_Node000012" class="edge">
<title>Node9&#45;&gt;Node12</title>
<g id="a_edge16_Node000009_Node000012"><a xlink:title=" ">
<path fill="none" stroke="#63b8ff" d="M1033.31,-164.82C1040.24,-156.21 1050.53,-142.4 1057,-129 1063.96,-114.57 1068.97,-97.06 1072.09,-84.08"/>
<polygon fill="#63b8ff" stroke="#63b8ff" points="1075.57,-84.56 1074.35,-74.03 1068.74,-83.02 1075.57,-84.56"/>
</a>
</g>
</g>
<!-- Node9&#45;&gt;Node15 -->
<g id="edge15_Node000009_Node000015" class="edge">
<title>Node9&#45;&gt;Node15</title>
<g id="a_edge15_Node000009_Node000015"><a xlink:title=" ">
<path fill="none" stroke="#63b8ff" d="M1048.17,-164.98C1070.77,-156.3 1106.06,-142.75 1131.75,-132.88"/>
<polygon fill="#63b8ff" stroke="#63b8ff" points="1133.34,-136.02 1141.42,-129.17 1130.83,-129.49 1133.34,-136.02"/>
</a>
</g>
</g>
<!-- Node10&#45;&gt;Node6 -->
<g id="edge13_Node000010_Node000006" class="edge">
<title>Node10&#45;&gt;Node6</title>
<g id="a_edge13_Node000010_Node000006"><a xlink:title=" ">
<path fill="none" stroke="#63b8ff" d="M958.29,-109.95C944.33,-102.34 925.39,-89.97 914,-74 904.5,-60.68 899.69,-42.57 897.29,-29.09"/>
<polygon fill="#63b8ff" stroke="#63b8ff" points="900.74,-28.45 895.8,-19.08 893.81,-29.48 900.74,-28.45"/>
</a>
</g>
</g>
<!-- Node11 -->
<g id="Node000011" class="node">
<title>Node11</title>
<g id="a_Node000011"><a xlink:href="ReflectionMacros_8h.html" target="_top" xlink:title="adapted from https://github.com/tapika/TestCppReflect">
<polygon fill="white" stroke="#666666" points="1033,-74 923,-74 923,-55 1033,-55 1033,-74"/>
<text text-anchor="middle" x="978" y="-62" font-family="Helvetica,sans-Serif" font-size="10.00">ReflectionMacros.h</text>
</a>
</g>
</g>
<!-- Node10&#45;&gt;Node11 -->
<g id="edge10_Node000010_Node000011" class="edge">
<title>Node10&#45;&gt;Node11</title>
<g id="a_edge10_Node000010_Node000011"><a xlink:title=" ">
<path fill="none" stroke="#63b8ff" d="M976.33,-109.75C976.59,-102.8 976.97,-92.85 977.3,-84.13"/>
<polygon fill="#63b8ff" stroke="#63b8ff" points="980.8,-84.21 977.68,-74.09 973.8,-83.95 980.8,-84.21"/>
</a>
</g>
</g>
<!-- Node10&#45;&gt;Node12 -->
<g id="edge11_Node000010_Node000012" class="edge">
<title>Node10&#45;&gt;Node12</title>
<g id="a_edge11_Node000010_Node000012"><a xlink:title=" ">
<path fill="none" stroke="#63b8ff" d="M992.07,-109.98C1007.86,-101.61 1032.22,-88.7 1050.63,-78.95"/>
<polygon fill="#63b8ff" stroke="#63b8ff" points="1052.44,-81.95 1059.64,-74.17 1049.17,-75.76 1052.44,-81.95"/>
</a>
</g>
</g>
<!-- Node10&#45;&gt;Node13 -->
<g id="edge12_Node000010_Node000013" class="edge">
<title>Node10&#45;&gt;Node13</title>
<g id="a_edge12_Node000010_Node000013"><a xlink:title=" ">
<path fill="none" stroke="#63b8ff" d="M939.22,-109.95C901.3,-101.1 840.46,-86.79 788,-74 714.32,-56.03 628.77,-34.4 578.41,-21.59"/>
<polygon fill="#63b8ff" stroke="#63b8ff" points="579.08,-18.14 568.52,-19.07 577.35,-24.93 579.08,-18.14"/>
</a>
</g>
</g>
<!-- Node14 -->
<g id="Node000014" class="node">
<title>Node14</title>
<g id="a_Node000014"><a xlink:title=" ">
<polygon fill="#e0e0e0" stroke="#999999" points="866.5,-74 797.5,-74 797.5,-55 866.5,-55 866.5,-74"/>
<text text-anchor="middle" x="832" y="-62" font-family="Helvetica,sans-Serif" font-size="10.00">type_traits</text>
</a>
</g>
</g>
<!-- Node10&#45;&gt;Node14 -->
<g id="edge14_Node000010_Node000014" class="edge">
<title>Node10&#45;&gt;Node14</title>
<g id="a_edge14_Node000010_Node000014"><a xlink:title=" ">
<path fill="none" stroke="#63b8ff" d="M952.86,-109.98C929.18,-101.27 892.13,-87.63 865.29,-77.75"/>
<polygon fill="#63b8ff" stroke="#63b8ff" points="866.15,-74.34 855.56,-74.17 863.73,-80.91 866.15,-74.34"/>
</a>
</g>
</g>
<!-- Node16&#45;&gt;Node9 -->
<g id="edge18_Node000016_Node000009" class="edge">
<title>Node16&#45;&gt;Node9</title>
<g id="a_edge18_Node000016_Node000009"><a xlink:title=" ">
<path fill="none" stroke="#63b8ff" d="M1319.23,-221.82C1316.12,-221.18 1313,-220.56 1310,-220 1223.13,-203.74 1120.55,-188.68 1065.56,-180.94"/>
<polygon fill="#63b8ff" stroke="#63b8ff" points="1065.92,-177.46 1055.54,-179.54 1064.95,-184.39 1065.92,-177.46"/>
</a>
</g>
</g>
<!-- Node17 -->
<g id="Node000017" class="node">
<title>Node17</title>
<g id="a_Node000017"><a xlink:href="IConstraint_8h.html" target="_top" xlink:title="Interface for constraints.">
<polygon fill="white" stroke="#666666" points="1465.5,-184 1386.5,-184 1386.5,-165 1465.5,-165 1465.5,-184"/>
<text text-anchor="middle" x="1426" y="-172" font-family="Helvetica,sans-Serif" font-size="10.00">IConstraint.h</text>
</a>
</g>
</g>
<!-- Node16&#45;&gt;Node17 -->
<g id="edge19_Node000016_Node000017" class="edge">
<title>Node16&#45;&gt;Node17</title>
<g id="a_edge19_Node000016_Node000017"><a xlink:title=" ">
<path fill="none" stroke="#63b8ff" d="M1361.37,-219.98C1373.09,-211.92 1390.92,-199.65 1404.89,-190.03"/>
<polygon fill="#63b8ff" stroke="#63b8ff" points="1407.15,-192.72 1413.4,-184.17 1403.18,-186.96 1407.15,-192.72"/>
</a>
</g>
</g>
<!-- Node18 -->
<g id="Node000018" class="node">
<title>Node18</title>
<g id="a_Node000018"><a xlink:title=" ">
<polygon fill="#e0e0e0" stroke="#999999" points="1553.5,-129 1434.5,-129 1434.5,-110 1553.5,-110 1553.5,-129"/>
<text text-anchor="middle" x="1494" y="-117" font-family="Helvetica,sans-Serif" font-size="10.00">interface/param.pb.h</text>
</a>
</g>
</g>
<!-- Node16&#45;&gt;Node18 -->
<g id="edge42_Node000016_Node000018" class="edge">
<title>Node16&#45;&gt;Node18</title>
<g id="a_edge42_Node000016_Node000018"><a xlink:title=" ">
<path fill="none" stroke="#63b8ff" d="M1378.56,-225.49C1406.78,-221.08 1448.66,-210.29 1474,-184 1485.65,-171.92 1490.51,-153.12 1492.55,-139.1"/>
<polygon fill="#63b8ff" stroke="#63b8ff" points="1496.03,-139.43 1493.65,-129.11 1489.07,-138.67 1496.03,-139.43"/>
</a>
</g>
</g>
<!-- Node16&#45;&gt;Node20 -->
<g id="edge22_Node000016_Node000020" class="edge">
<title>Node16&#45;&gt;Node20</title>
<g id="a_edge22_Node000016_Node000020"><a xlink:title=" ">
<path fill="none" stroke="#63b8ff" d="M1378.81,-221.57C1417.41,-212.6 1485.12,-196.86 1530.51,-186.31"/>
<polygon fill="#63b8ff" stroke="#63b8ff" points="1531.45,-189.68 1540.4,-184.01 1529.87,-182.86 1531.45,-189.68"/>
</a>
</g>
</g>
<!-- Node16&#45;&gt;Node27 -->
<g id="edge33_Node000016_Node000027" class="edge">
<title>Node16&#45;&gt;Node27</title>
<g id="a_edge33_Node000016_Node000027"><a xlink:title=" ">
<path fill="none" stroke="#63b8ff" d="M1319.27,-221.55C1316.15,-220.97 1313.02,-220.43 1310,-220 1279.6,-215.66 828.3,-186.03 700.5,-177.68"/>
<polygon fill="#63b8ff" stroke="#63b8ff" points="700.71,-174.19 690.5,-177.03 700.25,-181.17 700.71,-174.19"/>
</a>
</g>
</g>
<!-- Node16&#45;&gt;Node32 -->
<g id="edge39_Node000016_Node000032" class="edge">
<title>Node16&#45;&gt;Node32</title>
<g id="a_edge39_Node000016_Node000032"><a xlink:title=" ">
<path fill="none" stroke="#63b8ff" d="M1319.26,-221.63C1316.14,-221.03 1313.01,-220.47 1310,-220 1150.19,-195.13 957.57,-182.19 877.16,-177.54"/>
<polygon fill="#63b8ff" stroke="#63b8ff" points="877.2,-174.04 867.02,-176.97 876.8,-181.03 877.2,-174.04"/>
</a>
</g>
</g>
<!-- Node17&#45;&gt;Node18 -->
<g id="edge20_Node000017_Node000018" class="edge">
<title>Node17&#45;&gt;Node18</title>
<g id="a_edge20_Node000017_Node000018"><a xlink:title=" ">
<path fill="none" stroke="#63b8ff" d="M1436.93,-164.98C1447.08,-157.07 1462.42,-145.11 1474.65,-135.58"/>
<polygon fill="#63b8ff" stroke="#63b8ff" points="1477.14,-138.08 1482.88,-129.17 1472.84,-132.56 1477.14,-138.08"/>
</a>
</g>
</g>
<!-- Node19 -->
<g id="Node000019" class="node">
<title>Node19</title>
<g id="a_Node000019"><a xlink:title=" ">
<polygon fill="#e0e0e0" stroke="#999999" points="1416,-129 1280,-129 1280,-110 1416,-110 1416,-129"/>
<text text-anchor="middle" x="1348" y="-117" font-family="Helvetica,sans-Serif" font-size="10.00">interface/constraint.pb.h</text>
</a>
</g>
</g>
<!-- Node17&#45;&gt;Node19 -->
<g id="edge21_Node000017_Node000019" class="edge">
<title>Node17&#45;&gt;Node19</title>
<g id="a_edge21_Node000017_Node000019"><a xlink:title=" ">
<path fill="none" stroke="#63b8ff" d="M1413.47,-164.98C1401.6,-156.92 1383.54,-144.65 1369.39,-135.03"/>
<polygon fill="#63b8ff" stroke="#63b8ff" points="1371,-131.9 1360.76,-129.17 1367.06,-137.69 1371,-131.9"/>
</a>
</g>
</g>
<!-- Node20&#45;&gt;Node18 -->
<g id="edge32_Node000020_Node000018" class="edge">
<title>Node20&#45;&gt;Node18</title>
<g id="a_edge32_Node000020_Node000018"><a xlink:title=" ">
<path fill="none" stroke="#63b8ff" d="M1563.66,-164.98C1550.91,-156.84 1531.45,-144.41 1516.33,-134.76"/>
<polygon fill="#63b8ff" stroke="#63b8ff" points="1517.89,-131.6 1507.58,-129.17 1514.12,-137.5 1517.89,-131.6"/>
</a>
</g>
</g>
<!-- Node21 -->
<g id="Node000021" class="node">
<title>Node21</title>
<g id="a_Node000021"><a xlink:href="Tags_8h.html" target="_top" xlink:title="Tags to differentiate collections with the same type for template specialization.">
<polygon fill="white" stroke="#666666" points="1618.5,-129 1571.5,-129 1571.5,-110 1618.5,-110 1618.5,-129"/>
<text text-anchor="middle" x="1595" y="-117" font-family="Helvetica,sans-Serif" font-size="10.00">Tags.h</text>
</a>
</g>
</g>
<!-- Node20&#45;&gt;Node21 -->
<g id="edge23_Node000020_Node000021" class="edge">
<title>Node20&#45;&gt;Node21</title>
<g id="a_edge23_Node000020_Node000021"><a xlink:title=" ">
<path fill="none" stroke="#63b8ff" d="M1579.97,-164.75C1582.36,-157.72 1585.79,-147.62 1588.77,-138.84"/>
<polygon fill="#63b8ff" stroke="#63b8ff" points="1592.18,-139.68 1592.08,-129.09 1585.55,-137.43 1592.18,-139.68"/>
</a>
</g>
</g>
<!-- Node23 -->
<g id="Node000023" class="node">
<title>Node23</title>
<g id="a_Node000023"><a xlink:href="PolyglotText_8h.html" target="_top" xlink:title="Polyglot Text serialization and deserialization to protobuf.">
<polygon fill="white" stroke="#666666" points="1723,-129 1637,-129 1637,-110 1723,-110 1723,-129"/>
<text text-anchor="middle" x="1680" y="-117" font-family="Helvetica,sans-Serif" font-size="10.00">PolyglotText.h</text>
</a>
</g>
</g>
<!-- Node20&#45;&gt;Node23 -->
<g id="edge26_Node000020_Node000023" class="edge">
<title>Node20&#45;&gt;Node23</title>
<g id="a_edge26_Node000020_Node000023"><a xlink:title=" ">
<path fill="none" stroke="#63b8ff" d="M1593.55,-164.98C1609.89,-156.57 1635.13,-143.59 1654.13,-133.81"/>
<polygon fill="#63b8ff" stroke="#63b8ff" points="1655.86,-136.86 1663.15,-129.17 1652.66,-130.63 1655.86,-136.86"/>
</a>
</g>
</g>
<!-- Node21&#45;&gt;Node6 -->
<g id="edge25_Node000021_Node000006" class="edge">
<title>Node21&#45;&gt;Node6</title>
<g id="a_edge25_Node000021_Node000006"><a xlink:title=" ">
<path fill="none" stroke="#63b8ff" d="M1571.27,-112.1C1568.16,-111.34 1565.01,-110.62 1562,-110 1460.67,-89.07 1430.71,-105 1332,-74 1313.6,-68.22 1311.52,-60.37 1293,-55 1161.16,-16.75 995.95,-11.03 927.26,-10.42"/>
<polygon fill="#63b8ff" stroke="#63b8ff" points="927.1,-6.92 917.08,-10.36 927.06,-13.92 927.1,-6.92"/>
</a>
</g>
</g>
<!-- Node21&#45;&gt;Node22 -->
<g id="edge24_Node000021_Node000022" class="edge">
<title>Node21&#45;&gt;Node22</title>
<g id="a_edge24_Node000021_Node000022"><a xlink:title=" ">
<path fill="none" stroke="#63b8ff" d="M1571.28,-112.04C1568.17,-111.3 1565.02,-110.59 1562,-110 1446.24,-87.25 1415.52,-92.5 1299,-74 1297.54,-73.77 1296.06,-73.53 1294.56,-73.28"/>
<polygon fill="#63b8ff" stroke="#63b8ff" points="1295.03,-69.81 1284.59,-71.58 1293.85,-76.71 1295.03,-69.81"/>
</a>
</g>
</g>
<!-- Node24 -->
<g id="Node000024" class="node">
<title>Node24</title>
<g id="a_Node000024"><a xlink:href="IPolyglotText_8h.html" target="_top" xlink:title="Catena&#39;s multi&#45;language text interface.">
<polygon fill="white" stroke="#666666" points="1430.5,-74 1341.5,-74 1341.5,-55 1430.5,-55 1430.5,-74"/>
<text text-anchor="middle" x="1386" y="-62" font-family="Helvetica,sans-Serif" font-size="10.00">IPolyglotText.h</text>
</a>
</g>
</g>
<!-- Node23&#45;&gt;Node24 -->
<g id="edge27_Node000023_Node000024" class="edge">
<title>Node23&#45;&gt;Node24</title>
<g id="a_edge27_Node000023_Node000024"><a xlink:title=" ">
<path fill="none" stroke="#63b8ff" d="M1636.94,-110.74C1584.88,-101.35 1497.21,-85.55 1440.49,-75.32"/>
<polygon fill="#63b8ff" stroke="#63b8ff" points="1441.09,-71.87 1430.63,-73.54 1439.85,-78.76 1441.09,-71.87"/>
</a>
</g>
</g>
<!-- Node24&#45;&gt;Node6 -->
<g id="edge30_Node000024_Node000006" class="edge">
<title>Node24&#45;&gt;Node6</title>
<g id="a_edge30_Node000024_Node000006"><a xlink:title=" ">
<path fill="none" stroke="#63b8ff" d="M1341.25,-56.86C1336.44,-56.2 1331.62,-55.57 1327,-55 1177.89,-36.59 999.16,-19.88 927.27,-13.37"/>
<polygon fill="#63b8ff" stroke="#63b8ff" points="927.34,-9.87 917.06,-12.46 926.71,-16.84 927.34,-9.87"/>
</a>
</g>
</g>
<!-- Node24&#45;&gt;Node13 -->
<g id="edge29_Node000024_Node000013" class="edge">
<title>Node24&#45;&gt;Node13</title>
<g id="a_edge29_Node000024_Node000013"><a xlink:title=" ">
<path fill="none" stroke="#63b8ff" d="M1341.09,-59.1C1325.83,-57.68 1308.68,-56.18 1293,-55 1031.21,-35.36 718,-19.35 591.81,-13.2"/>
<polygon fill="#63b8ff" stroke="#63b8ff" points="591.77,-9.7 581.61,-12.71 591.43,-16.69 591.77,-9.7"/>
</a>
</g>
</g>
<!-- Node25 -->
<g id="Node000025" class="node">
<title>Node25</title>
<g id="a_Node000025"><a xlink:title=" ">
<polygon fill="#e0e0e0" stroke="#999999" points="1515,-19 1383,-19 1383,0 1515,0 1515,-19"/>
<text text-anchor="middle" x="1449" y="-7" font-family="Helvetica,sans-Serif" font-size="10.00">interface/language.pb.h</text>
</a>
</g>
</g>
<!-- Node24&#45;&gt;Node25 -->
<g id="edge28_Node000024_Node000025" class="edge">
<title>Node24&#45;&gt;Node25</title>
<g id="a_edge28_Node000024_Node000025"><a xlink:title=" ">
<path fill="none" stroke="#63b8ff" d="M1396.12,-54.98C1405.44,-47.15 1419.47,-35.34 1430.74,-25.86"/>
<polygon fill="#63b8ff" stroke="#63b8ff" points="1433.29,-28.29 1438.69,-19.17 1428.79,-22.93 1433.29,-28.29"/>
</a>
</g>
</g>
<!-- Node26 -->
<g id="Node000026" class="node">
<title>Node26</title>
<g id="a_Node000026"><a xlink:title=" ">
<polygon fill="#e0e0e0" stroke="#999999" points="1364.5,-19 1281.5,-19 1281.5,0 1364.5,0 1364.5,-19"/>
<text text-anchor="middle" x="1323" y="-7" font-family="Helvetica,sans-Serif" font-size="10.00">initializer_list</text>
</a>
</g>
</g>
<!-- Node24&#45;&gt;Node26 -->
<g id="edge31_Node000024_Node000026" class="edge">
<title>Node24&#45;&gt;Node26</title>
<g id="a_edge31_Node000024_Node000026"><a xlink:title=" ">
<path fill="none" stroke="#63b8ff" d="M1375.88,-54.98C1366.56,-47.15 1352.53,-35.34 1341.26,-25.86"/>
<polygon fill="#63b8ff" stroke="#63b8ff" points="1343.21,-22.93 1333.31,-19.17 1338.71,-28.29 1343.21,-22.93"/>
</a>
</g>
</g>
<!-- Node27&#45;&gt;Node6 -->
<g id="edge35_Node000027_Node000006" class="edge">
<title>Node27&#45;&gt;Node6</title>
<g id="a_edge35_Node000027_Node000006"><a xlink:title=" ">
<path fill="none" stroke="#63b8ff" d="M673.76,-164.92C690.84,-143.7 737.98,-88.1 788,-55 811.43,-39.5 841.13,-27.67 863.29,-20.12"/>
<polygon fill="#63b8ff" stroke="#63b8ff" points="864.49,-23.41 872.89,-16.95 862.3,-16.76 864.49,-23.41"/>
</a>
</g>
</g>
<!-- Node28 -->
<g id="Node000028" class="node">
<title>Node28</title>
<g id="a_Node000028"><a xlink:title=" ">
<polygon fill="#e0e0e0" stroke="#999999" points="690,-129 630,-129 630,-110 690,-110 690,-129"/>
<text text-anchor="middle" x="660" y="-117" font-family="Helvetica,sans-Serif" font-size="10.00">iostream</text>
</a>
</g>
</g>
<!-- Node27&#45;&gt;Node28 -->
<g id="edge34_Node000027_Node000028" class="edge">
<title>Node27&#45;&gt;Node28</title>
<g id="a_edge34_Node000027_Node000028"><a xlink:title=" ">
<path fill="none" stroke="#63b8ff" d="M665.84,-164.75C664.93,-157.8 663.61,-147.85 662.46,-139.13"/>
<polygon fill="#63b8ff" stroke="#63b8ff" points="665.91,-138.54 661.13,-129.09 658.97,-139.46 665.91,-138.54"/>
</a>
</g>
</g>
<!-- Node27&#45;&gt;Node29 -->
<g id="edge36_Node000027_Node000029" class="edge">
<title>Node27&#45;&gt;Node29</title>
<g id="a_edge36_Node000027_Node000029"><a xlink:title=" ">
<path fill="none" stroke="#63b8ff" d="M643.32,-168.11C602.68,-158.85 520.42,-140.03 476.52,-129.31"/>
<polygon fill="#63b8ff" stroke="#63b8ff" points="477.29,-125.89 466.74,-126.9 475.61,-132.69 477.29,-125.89"/>
</a>
</g>
</g>
<!-- Node30 -->
<g id="Node000030" class="node">
<title>Node30</title>
<g id="a_Node000030"><a xlink:title=" ">
<polygon fill="#e0e0e0" stroke="#999999" points="535.5,-129 484.5,-129 484.5,-110 535.5,-110 535.5,-129"/>
<text text-anchor="middle" x="510" y="-117" font-family="Helvetica,sans-Serif" font-size="10.00">variant</text>
</a>
</g>
</g>
<!-- Node27&#45;&gt;Node30 -->
<g id="edge37_Node000027_Node000030" class="edge">
<title>Node27&#45;&gt;Node30</title>
<g id="a_edge37_Node000027_Node000030"><a xlink:title=" ">
<path fill="none" stroke="#63b8ff" d="M643.5,-165.57C617.36,-156.74 574.9,-142.41 544.89,-132.28"/>
<polygon fill="#63b8ff" stroke="#63b8ff" points="545.82,-128.9 535.23,-129.02 543.58,-135.53 545.82,-128.9"/>
</a>
</g>
</g>
<!-- Node31 -->
<g id="Node000031" class="node">
<title>Node31</title>
<g id="a_Node000031"><a xlink:title=" ">
<polygon fill="#e0e0e0" stroke="#999999" points="612,-129 554,-129 554,-110 612,-110 612,-129"/>
<text text-anchor="middle" x="583" y="-117" font-family="Helvetica,sans-Serif" font-size="10.00">memory</text>
</a>
</g>
</g>
<!-- Node27&#45;&gt;Node31 -->
<g id="edge38_Node000027_Node000031" class="edge">
<title>Node27&#45;&gt;Node31</title>
<g id="a_edge38_Node000027_Node000031"><a xlink:title=" ">
<path fill="none" stroke="#63b8ff" d="M653.5,-164.98C640.6,-156.84 620.9,-144.41 605.6,-134.76"/>
<polygon fill="#63b8ff" stroke="#63b8ff" points="607.07,-131.55 596.74,-129.17 603.33,-137.47 607.07,-131.55"/>
</a>
</g>
</g>
<!-- Node33 -->
<g id="Node000033" class="node">
<title>Node33</title>
<g id="a_Node000033"><a xlink:title=" ">
<polygon fill="#e0e0e0" stroke="#999999" points="802,-129 746,-129 746,-110 802,-110 802,-129"/>
<text text-anchor="middle" x="774" y="-117" font-family="Helvetica,sans-Serif" font-size="10.00">sstream</text>
</a>
</g>
</g>
<!-- Node32&#45;&gt;Node33 -->
<g id="edge40_Node000032_Node000033" class="edge">
<title>Node32&#45;&gt;Node33</title>
<g id="a_edge40_Node000032_Node000033"><a xlink:title=" ">
<path fill="none" stroke="#63b8ff" d="M828.56,-164.98C818.85,-157.07 804.18,-145.11 792.5,-135.58"/>
<polygon fill="#63b8ff" stroke="#63b8ff" points="794.6,-132.78 784.63,-129.17 790.17,-138.2 794.6,-132.78"/>
</a>
</g>
</g>
<!-- Node34 -->
<g id="Node000034" class="node">
<title>Node34</title>
<g id="a_Node000034"><a xlink:title=" ">
<polygon fill="#e0e0e0" stroke="#999999" points="885.5,-129 820.5,-129 820.5,-110 885.5,-110 885.5,-129"/>
<text text-anchor="middle" x="853" y="-117" font-family="Helvetica,sans-Serif" font-size="10.00">stdexcept</text>
</a>
</g>
</g>
<!-- Node32&#45;&gt;Node34 -->
<g id="edge41_Node000032_Node000034" class="edge">
<title>Node32&#45;&gt;Node34</title>
<g id="a_edge41_Node000032_Node000034"><a xlink:title=" ">
<path fill="none" stroke="#63b8ff" d="M841.31,-164.75C843.17,-157.72 845.84,-147.62 848.15,-138.84"/>
<polygon fill="#63b8ff" stroke="#63b8ff" points="851.56,-139.65 850.73,-129.09 844.79,-137.86 851.56,-139.65"/>
</a>
</g>
</g>
<!-- Node36&#45;&gt;Node6 -->
<g id="edge50_Node000036_Node000006" class="edge">
<title>Node36&#45;&gt;Node6</title>
<g id="a_edge50_Node000036_Node000006"><a xlink:title=" ">
<path fill="none" stroke="#63b8ff" d="M364.15,-56.64C368.83,-56.05 373.5,-55.5 378,-55 560.96,-34.8 781.21,-18.49 862.67,-12.74"/>
<polygon fill="#63b8ff" stroke="#63b8ff" points="863.06,-16.22 872.79,-12.03 862.57,-9.24 863.06,-16.22"/>
</a>
</g>
</g>
<!-- Node36&#45;&gt;Node13 -->
<g id="edge51_Node000036_Node000013" class="edge">
<title>Node36&#45;&gt;Node13</title>
<g id="a_edge51_Node000036_Node000013"><a xlink:title=" ">
<path fill="none" stroke="#63b8ff" d="M350.35,-54.98C388.16,-45.87 448.26,-31.4 489.57,-21.45"/>
<polygon fill="#63b8ff" stroke="#63b8ff" points="490.47,-24.83 499.38,-19.08 488.83,-18.02 490.47,-24.83"/>
</a>
</g>
</g>
<!-- Node41 -->
<g id="Node000041" class="node">
<title>Node41</title>
<g id="a_Node000041"><a xlink:href="IConnect_8h.html" target="_top" xlink:title="Interface for Connect.h.">
<polygon fill="white" stroke="#666666" points="1457,-294 1389,-294 1389,-275 1457,-275 1457,-294"/>
<text text-anchor="middle" x="1423" y="-282" font-family="Helvetica,sans-Serif" font-size="10.00">IConnect.h</text>
</a>
</g>
</g>
<!-- Node40&#45;&gt;Node41 -->
<g id="edge62_Node000040_Node000041" class="edge">
<title>Node40&#45;&gt;Node41</title>
<g id="a_edge62_Node000040_Node000041"><a xlink:title=" ">
<path fill="none" stroke="#63b8ff" d="M1423,-329.75C1423,-322.8 1423,-312.85 1423,-304.13"/>
<polygon fill="#63b8ff" stroke="#63b8ff" points="1426.5,-304.09 1423,-294.09 1419.5,-304.09 1426.5,-304.09"/>
</a>
</g>
</g>
<!-- Node41&#45;&gt;Node6 -->
<g id="edge65_Node000041_Node000006" class="edge">
<title>Node41&#45;&gt;Node6</title>
<g id="a_edge65_Node000041_Node000006"><a xlink:title=" ">
<path fill="none" stroke="#63b8ff" d="M1457.34,-278.34C1553.72,-262.48 1814.5,-209.43 1732,-110 1679.52,-46.76 1074.71,-17.89 927.26,-11.77"/>
<polygon fill="#63b8ff" stroke="#63b8ff" points="927.2,-8.26 917.07,-11.35 926.92,-15.26 927.2,-8.26"/>
</a>
</g>
</g>
<!-- Node41&#45;&gt;Node15 -->
<g id="edge64_Node000041_Node000015" class="edge">
<title>Node41&#45;&gt;Node15</title>
<g id="a_edge64_Node000041_Node000015"><a xlink:title=" ">
<path fill="none" stroke="#63b8ff" d="M1420.15,-274.98C1415.31,-261.62 1404.26,-235.68 1387,-220 1335.62,-173.33 1258.75,-145.66 1210.01,-131.77"/>
<polygon fill="#63b8ff" stroke="#63b8ff" points="1210.93,-128.4 1200.35,-129.1 1209.06,-135.14 1210.93,-128.4"/>
</a>
</g>
</g>
<!-- Node41&#45;&gt;Node16 -->
<g id="edge63_Node000041_Node000016" class="edge">
<title>Node41&#45;&gt;Node16</title>
<g id="a_edge63_Node000041_Node000016"><a xlink:title=" ">
<path fill="none" stroke="#63b8ff" d="M1411.11,-274.98C1399.85,-266.92 1382.71,-254.65 1369.29,-245.03"/>
<polygon fill="#63b8ff" stroke="#63b8ff" points="1371.27,-242.15 1361.11,-239.17 1367.2,-247.84 1371.27,-242.15"/>
</a>
</g>
</g>
<!-- Node42 -->
<g id="Node000042" class="node">
<title>Node42</title>
<g id="a_Node000042"><a xlink:title=" ">
<polygon fill="#e0e0e0" stroke="#999999" points="1761,-239 1711,-239 1711,-220 1761,-220 1761,-239"/>
<text text-anchor="middle" x="1736" y="-227" font-family="Helvetica,sans-Serif" font-size="10.00">chrono</text>
</a>
</g>
</g>
<!-- Node41&#45;&gt;Node42 -->
<g id="edge66_Node000041_Node000042" class="edge">
<title>Node41&#45;&gt;Node42</title>
<g id="a_edge66_Node000041_Node000042"><a xlink:title=" ">
<path fill="none" stroke="#63b8ff" d="M1457.28,-278.54C1509.26,-270.87 1611.07,-255.33 1697,-239 1698.26,-238.76 1699.55,-238.51 1700.85,-238.25"/>
<polygon fill="#63b8ff" stroke="#63b8ff" points="1701.78,-241.63 1710.87,-236.19 1700.36,-234.78 1701.78,-241.63"/>
</a>
</g>
</g>
</g>
</svg>
