<?xml version="1.0" encoding="UTF-8" standalone="no"?>
<!DOCTYPE svg PUBLIC "-//W3C//DTD SVG 1.1//EN"
 "http://www.w3.org/Graphics/SVG/1.1/DTD/svg11.dtd">
<!-- Generated by graphviz version 2.43.0 (0)
 -->
<!-- Title: /home/runner/work/Catena/Catena/sdks/cpp/connections/REST/include/interface/ISocketWriter.h Pages: 1 -->
<svg width="2202pt" height="368pt"
 viewBox="0.00 0.00 2202.00 368.00" xmlns="http://www.w3.org/2000/svg" xmlns:xlink="http://www.w3.org/1999/xlink">
<g id="graph0" class="graph" transform="scale(1 1) rotate(0) translate(4 364)">
<title>/home/runner/work/Catena/Catena/sdks/cpp/connections/REST/include/interface/ISocketWriter.h</title>
<!-- Node1 -->
<g id="Node000001" class="node">
<title>Node1</title>
<g id="a_Node000001"><a xlink:title="Interface for the SocketWriter class.">
<polygon fill="#999999" stroke="#666666" points="1171.5,-360 965.5,-360 965.5,-319 1171.5,-319 1171.5,-360"/>
<text text-anchor="start" x="973.5" y="-348" font-family="Helvetica,sans-Serif" font-size="10.00">/home/runner/work/Catena</text>
<text text-anchor="start" x="973.5" y="-337" font-family="Helvetica,sans-Serif" font-size="10.00">/Catena/sdks/cpp/connections</text>
<text text-anchor="middle" x="1068.5" y="-326" font-family="Helvetica,sans-Serif" font-size="10.00">/REST/include/interface/ISocketWriter.h</text>
</a>
</g>
</g>
<!-- Node2 -->
<g id="Node000002" class="node">
<title>Node2</title>
<g id="a_Node000002"><a xlink:href="SocketWriter_8h.html" target="_top" xlink:title="Helper class used to write to a socket using boost.">
<polygon fill="white" stroke="#666666" points="1149,-283 988,-283 988,-242 1149,-242 1149,-283"/>
<text text-anchor="start" x="996" y="-271" font-family="Helvetica,sans-Serif" font-size="10.00">/home/runner/work/Catena</text>
<text text-anchor="start" x="996" y="-260" font-family="Helvetica,sans-Serif" font-size="10.00">/Catena/sdks/cpp/connections</text>
<text text-anchor="middle" x="1068.5" y="-249" font-family="Helvetica,sans-Serif" font-size="10.00">/REST/include/SocketWriter.h</text>
</a>
</g>
</g>
<!-- Node1&#45;&gt;Node2 -->
<g id="edge1_Node000001_Node000002" class="edge">
<title>Node1&#45;&gt;Node2</title>
<g id="a_edge1_Node000001_Node000002"><a xlink:title=" ">
<path fill="none" stroke="#63b8ff" d="M1068.5,-308.69C1068.5,-300.08 1068.5,-290.9 1068.5,-283.07"/>
<polygon fill="#63b8ff" stroke="#63b8ff" points="1065,-308.79 1068.5,-318.79 1072,-308.79 1065,-308.79"/>
</a>
</g>
</g>
<!-- Node3 -->
<g id="Node000003" class="node">
<title>Node3</title>
<g id="a_Node000003"><a xlink:href="REST_2include_2ServiceImpl_8h_source.html" target="_top" xlink:title=" ">
<polygon fill="white" stroke="#666666" points="161,-123.5 0,-123.5 0,-82.5 161,-82.5 161,-123.5"/>
<text text-anchor="start" x="8" y="-111.5" font-family="Helvetica,sans-Serif" font-size="10.00">/home/runner/work/Catena</text>
<text text-anchor="start" x="8" y="-100.5" font-family="Helvetica,sans-Serif" font-size="10.00">/Catena/sdks/cpp/connections</text>
<text text-anchor="middle" x="80.5" y="-89.5" font-family="Helvetica,sans-Serif" font-size="10.00">/REST/include/ServiceImpl.h</text>
</a>
</g>
</g>
<!-- Node2&#45;&gt;Node3 -->
<g id="edge2_Node000002_Node000003" class="edge">
<title>Node2&#45;&gt;Node3</title>
<g id="a_edge2_Node000002_Node000003"><a xlink:title=" ">
<path fill="none" stroke="#63b8ff" d="M977.98,-254.79C872.35,-246.32 692.63,-229.9 539.5,-206 373.54,-180.09 332.67,-168.85 169.5,-129 162.64,-127.32 155.51,-125.49 148.4,-123.59"/>
<polygon fill="#63b8ff" stroke="#63b8ff" points="977.72,-258.28 987.96,-255.59 978.27,-251.3 977.72,-258.28"/>
</a>
</g>
</g>
<!-- Node4 -->
<g id="Node000004" class="node">
<title>Node4</title>
<g id="a_Node000004"><a xlink:href="REST_2include_2controllers_2AddLanguage_8h.html" target="_top" xlink:title="Implements REST AddLanguage RPC.">
<polygon fill="white" stroke="#666666" points="394,-123.5 179,-123.5 179,-82.5 394,-82.5 394,-123.5"/>
<text text-anchor="start" x="187" y="-111.5" font-family="Helvetica,sans-Serif" font-size="10.00">/home/runner/work/Catena</text>
<text text-anchor="start" x="187" y="-100.5" font-family="Helvetica,sans-Serif" font-size="10.00">/Catena/sdks/cpp/connections</text>
<text text-anchor="middle" x="286.5" y="-89.5" font-family="Helvetica,sans-Serif" font-size="10.00">/REST/include/controllers/AddLanguage.h</text>
</a>
</g>
</g>
<!-- Node2&#45;&gt;Node4 -->
<g id="edge3_Node000002_Node000004" class="edge">
<title>Node2&#45;&gt;Node4</title>
<g id="a_edge3_Node000002_Node000004"><a xlink:title=" ">
<path fill="none" stroke="#63b8ff" d="M977.63,-248.65C907.88,-238.36 809.31,-222.89 723.5,-206 596.42,-180.98 450.09,-145.44 363.12,-123.59"/>
<polygon fill="#63b8ff" stroke="#63b8ff" points="977.3,-252.14 987.7,-250.13 978.32,-245.21 977.3,-252.14"/>
</a>
</g>
</g>
<!-- Node5 -->
<g id="Node000005" class="node">
<title>Node5</title>
<g id="a_Node000005"><a xlink:href="connections_2REST_2include_2controllers_2Connect_8h.html" target="_top" xlink:title="Implements REST Connect RPC.">
<polygon fill="white" stroke="#666666" points="601,-123.5 412,-123.5 412,-82.5 601,-82.5 601,-123.5"/>
<text text-anchor="start" x="420" y="-111.5" font-family="Helvetica,sans-Serif" font-size="10.00">/home/runner/work/Catena</text>
<text text-anchor="start" x="420" y="-100.5" font-family="Helvetica,sans-Serif" font-size="10.00">/Catena/sdks/cpp/connections</text>
<text text-anchor="middle" x="506.5" y="-89.5" font-family="Helvetica,sans-Serif" font-size="10.00">/REST/include/controllers/Connect.h</text>
</a>
</g>
</g>
<!-- Node2&#45;&gt;Node5 -->
<g id="edge4_Node000002_Node000005" class="edge">
<title>Node2&#45;&gt;Node5</title>
<g id="a_edge4_Node000002_Node000005"><a xlink:title=" ">
<path fill="none" stroke="#63b8ff" d="M986.38,-239.25C949.41,-229.18 905.24,-217.08 865.5,-206 764.08,-177.73 646.76,-144.25 574.6,-123.57"/>
<polygon fill="#63b8ff" stroke="#63b8ff" points="985.54,-242.65 996.11,-241.9 987.38,-235.89 985.54,-242.65"/>
</a>
</g>
</g>
<!-- Node6 -->
<g id="Node000006" class="node">
<title>Node6</title>
<g id="a_Node000006"><a xlink:href="REST_2include_2controllers_2DeviceRequest_8h.html" target="_top" xlink:title="Implements REST DeviceRequest RPC.">
<polygon fill="white" stroke="#666666" points="842,-123.5 619,-123.5 619,-82.5 842,-82.5 842,-123.5"/>
<text text-anchor="start" x="627" y="-111.5" font-family="Helvetica,sans-Serif" font-size="10.00">/home/runner/work/Catena</text>
<text text-anchor="start" x="627" y="-100.5" font-family="Helvetica,sans-Serif" font-size="10.00">/Catena/sdks/cpp/connections</text>
<text text-anchor="middle" x="730.5" y="-89.5" font-family="Helvetica,sans-Serif" font-size="10.00">/REST/include/controllers/DeviceRequest.h</text>
</a>
</g>
</g>
<!-- Node2&#45;&gt;Node6 -->
<g id="edge5_Node000002_Node000006" class="edge">
<title>Node2&#45;&gt;Node6</title>
<g id="a_edge5_Node000002_Node000006"><a xlink:title=" ">
<path fill="none" stroke="#63b8ff" d="M1017.26,-237.63C950.31,-206.43 834.32,-152.38 772.36,-123.5"/>
<polygon fill="#63b8ff" stroke="#63b8ff" points="1015.83,-240.82 1026.38,-241.87 1018.79,-234.47 1015.83,-240.82"/>
</a>
</g>
</g>
<!-- Node7 -->
<g id="Node000007" class="node">
<title>Node7</title>
<g id="a_Node000007"><a xlink:href="REST_2include_2controllers_2GetParam_8h_source.html" target="_top" xlink:title=" ">
<polygon fill="white" stroke="#666666" points="1057,-123.5 860,-123.5 860,-82.5 1057,-82.5 1057,-123.5"/>
<text text-anchor="start" x="868" y="-111.5" font-family="Helvetica,sans-Serif" font-size="10.00">/home/runner/work/Catena</text>
<text text-anchor="start" x="868" y="-100.5" font-family="Helvetica,sans-Serif" font-size="10.00">/Catena/sdks/cpp/connections</text>
<text text-anchor="middle" x="958.5" y="-89.5" font-family="Helvetica,sans-Serif" font-size="10.00">/REST/include/controllers/GetParam.h</text>
</a>
</g>
</g>
<!-- Node2&#45;&gt;Node7 -->
<g id="edge6_Node000002_Node000007" class="edge">
<title>Node2&#45;&gt;Node7</title>
<g id="a_edge6_Node000002_Node000007"><a xlink:title=" ">
<path fill="none" stroke="#63b8ff" d="M1000.86,-237.05C987.44,-229.15 974.91,-218.97 966.5,-206 950.46,-181.26 951.85,-145.72 954.82,-123.78"/>
<polygon fill="#63b8ff" stroke="#63b8ff" points="999.32,-240.2 1009.78,-241.92 1002.68,-234.06 999.32,-240.2"/>
</a>
</g>
</g>
<!-- Node8 -->
<g id="Node000008" class="node">
<title>Node8</title>
<g id="a_Node000008"><a xlink:href="REST_2include_2controllers_2GetPopulatedSlots_8h.html" target="_top" xlink:title="Implements REST GetPopulatedSlots RPC.">
<polygon fill="white" stroke="#666666" points="1281.5,-129 1075.5,-129 1075.5,-77 1281.5,-77 1281.5,-129"/>
<text text-anchor="start" x="1083.5" y="-117" font-family="Helvetica,sans-Serif" font-size="10.00">/home/runner/work/Catena</text>
<text text-anchor="start" x="1083.5" y="-106" font-family="Helvetica,sans-Serif" font-size="10.00">/Catena/sdks/cpp/connections</text>
<text text-anchor="start" x="1083.5" y="-95" font-family="Helvetica,sans-Serif" font-size="10.00">/REST/include/controllers/GetPopulated</text>
<text text-anchor="middle" x="1178.5" y="-84" font-family="Helvetica,sans-Serif" font-size="10.00">Slots.h</text>
</a>
</g>
</g>
<!-- Node2&#45;&gt;Node8 -->
<g id="edge7_Node000002_Node000008" class="edge">
<title>Node2&#45;&gt;Node8</title>
<g id="a_edge7_Node000002_Node000008"><a xlink:title=" ">
<path fill="none" stroke="#63b8ff" d="M1136.14,-237.05C1149.56,-229.15 1162.09,-218.97 1170.5,-206 1185.29,-183.2 1185.26,-151.22 1182.84,-129.18"/>
<polygon fill="#63b8ff" stroke="#63b8ff" points="1134.32,-234.06 1127.22,-241.92 1137.68,-240.2 1134.32,-234.06"/>
</a>
</g>
</g>
<!-- Node9 -->
<g id="Node000009" class="node">
<title>Node9</title>
<g id="a_Node000009"><a xlink:href="REST_2include_2controllers_2GetValue_8h.html" target="_top" xlink:title="Implements REST GetValue RPC.">
<polygon fill="white" stroke="#666666" points="1493.5,-123.5 1299.5,-123.5 1299.5,-82.5 1493.5,-82.5 1493.5,-123.5"/>
<text text-anchor="start" x="1307.5" y="-111.5" font-family="Helvetica,sans-Serif" font-size="10.00">/home/runner/work/Catena</text>
<text text-anchor="start" x="1307.5" y="-100.5" font-family="Helvetica,sans-Serif" font-size="10.00">/Catena/sdks/cpp/connections</text>
<text text-anchor="middle" x="1396.5" y="-89.5" font-family="Helvetica,sans-Serif" font-size="10.00">/REST/include/controllers/GetValue.h</text>
</a>
</g>
</g>
<!-- Node2&#45;&gt;Node9 -->
<g id="edge8_Node000002_Node000009" class="edge">
<title>Node2&#45;&gt;Node9</title>
<g id="a_edge8_Node000002_Node000009"><a xlink:title=" ">
<path fill="none" stroke="#63b8ff" d="M1122.16,-237.82C1143.78,-228.14 1168.91,-216.71 1191.5,-206 1250.05,-178.24 1317.15,-144.48 1358.17,-123.61"/>
<polygon fill="#63b8ff" stroke="#63b8ff" points="1120.51,-234.72 1112.81,-241.99 1123.36,-241.11 1120.51,-234.72"/>
</a>
</g>
</g>
<!-- Node10 -->
<g id="Node000010" class="node">
<title>Node10</title>
<g id="a_Node000010"><a xlink:href="REST_2include_2controllers_2LanguagePackRequest_8h.html" target="_top" xlink:title="Implements REST LanguagePackRequest RPC.">
<polygon fill="white" stroke="#666666" points="1721.5,-129 1511.5,-129 1511.5,-77 1721.5,-77 1721.5,-129"/>
<text text-anchor="start" x="1519.5" y="-117" font-family="Helvetica,sans-Serif" font-size="10.00">/home/runner/work/Catena</text>
<text text-anchor="start" x="1519.5" y="-106" font-family="Helvetica,sans-Serif" font-size="10.00">/Catena/sdks/cpp/connections</text>
<text text-anchor="start" x="1519.5" y="-95" font-family="Helvetica,sans-Serif" font-size="10.00">/REST/include/controllers/LanguagePack</text>
<text text-anchor="middle" x="1616.5" y="-84" font-family="Helvetica,sans-Serif" font-size="10.00">Request.h</text>
</a>
</g>
</g>
<!-- Node2&#45;&gt;Node10 -->
<g id="edge9_Node000002_Node000010" class="edge">
<title>Node2&#45;&gt;Node10</title>
<g id="a_edge9_Node000002_Node000010"><a xlink:title=" ">
<path fill="none" stroke="#63b8ff" d="M1146.37,-239.12C1247.5,-210.05 1423.54,-159.46 1529.13,-129.11"/>
<polygon fill="#63b8ff" stroke="#63b8ff" points="1145.16,-235.82 1136.52,-241.95 1147.1,-242.55 1145.16,-235.82"/>
</a>
</g>
</g>
<!-- Node11 -->
<g id="Node000011" class="node">
<title>Node11</title>
<g id="a_Node000011"><a xlink:href="REST_2include_2controllers_2ListLanguages_8h_source.html" target="_top" xlink:title=" ">
<polygon fill="white" stroke="#666666" points="1959,-123.5 1740,-123.5 1740,-82.5 1959,-82.5 1959,-123.5"/>
<text text-anchor="start" x="1748" y="-111.5" font-family="Helvetica,sans-Serif" font-size="10.00">/home/runner/work/Catena</text>
<text text-anchor="start" x="1748" y="-100.5" font-family="Helvetica,sans-Serif" font-size="10.00">/Catena/sdks/cpp/connections</text>
<text text-anchor="middle" x="1849.5" y="-89.5" font-family="Helvetica,sans-Serif" font-size="10.00">/REST/include/controllers/ListLanguages.h</text>
</a>
</g>
</g>
<!-- Node2&#45;&gt;Node11 -->
<g id="edge10_Node000002_Node000011" class="edge">
<title>Node2&#45;&gt;Node11</title>
<g id="a_edge10_Node000002_Node000011"><a xlink:title=" ">
<path fill="none" stroke="#63b8ff" d="M1159.18,-243.68C1286.77,-218.52 1526.51,-170.99 1730.5,-129 1739.08,-127.23 1748.01,-125.38 1756.94,-123.52"/>
<polygon fill="#63b8ff" stroke="#63b8ff" points="1158.2,-240.3 1149.06,-245.67 1159.55,-247.17 1158.2,-240.3"/>
</a>
</g>
</g>
<!-- Node12 -->
<g id="Node000012" class="node">
<title>Node12</title>
<g id="a_Node000012"><a xlink:href="REST_2include_2controllers_2MultiSetValue_8h.html" target="_top" xlink:title="Implements REST MultiSetValue RPC.">
<polygon fill="white" stroke="#666666" points="2194,-123.5 1977,-123.5 1977,-82.5 2194,-82.5 2194,-123.5"/>
<text text-anchor="start" x="1985" y="-111.5" font-family="Helvetica,sans-Serif" font-size="10.00">/home/runner/work/Catena</text>
<text text-anchor="start" x="1985" y="-100.5" font-family="Helvetica,sans-Serif" font-size="10.00">/Catena/sdks/cpp/connections</text>
<text text-anchor="middle" x="2085.5" y="-89.5" font-family="Helvetica,sans-Serif" font-size="10.00">/REST/include/controllers/MultiSetValue.h</text>
</a>
</g>
</g>
<!-- Node2&#45;&gt;Node12 -->
<g id="edge11_Node000002_Node000012" class="edge">
<title>Node2&#45;&gt;Node12</title>
<g id="a_edge11_Node000002_Node000012"><a xlink:title=" ">
<path fill="none" stroke="#63b8ff" d="M1159.04,-250.24C1321.53,-229.56 1673.16,-182.71 1967.5,-129 1976.77,-127.31 1986.43,-125.44 1996.05,-123.51"/>
<polygon fill="#63b8ff" stroke="#63b8ff" points="1158.56,-246.77 1149.08,-251.5 1159.45,-253.71 1158.56,-246.77"/>
</a>
</g>
</g>
<!-- Node14 -->
<g id="Node000014" class="node">
<title>Node14</title>
<g id="a_Node000014"><a xlink:href="ICallData_8h.html" target="_top" xlink:title="Interface class for REST RPCs.">
<polygon fill="white" stroke="#666666" points="1161.5,-206 975.5,-206 975.5,-165 1161.5,-165 1161.5,-206"/>
<text text-anchor="start" x="983.5" y="-194" font-family="Helvetica,sans-Serif" font-size="10.00">/home/runner/work/Catena</text>
<text text-anchor="start" x="983.5" y="-183" font-family="Helvetica,sans-Serif" font-size="10.00">/Catena/sdks/cpp/connections</text>
<text text-anchor="middle" x="1068.5" y="-172" font-family="Helvetica,sans-Serif" font-size="10.00">/REST/include/interface/ICallData.h</text>
</a>
</g>
</g>
<!-- Node2&#45;&gt;Node14 -->
<g id="edge13_Node000002_Node000014" class="edge">
<title>Node2&#45;&gt;Node14</title>
<g id="a_edge13_Node000002_Node000014"><a xlink:title=" ">
<path fill="none" stroke="#63b8ff" d="M1068.5,-231.69C1068.5,-223.08 1068.5,-213.9 1068.5,-206.07"/>
<polygon fill="#63b8ff" stroke="#63b8ff" points="1065,-231.79 1068.5,-241.79 1072,-231.79 1065,-231.79"/>
</a>
</g>
</g>
<!-- Node13 -->
<g id="Node000013" class="node">
<title>Node13</title>
<g id="a_Node000013"><a xlink:href="REST_2include_2controllers_2SetValue_8h.html" target="_top" xlink:title="Implements REST SetValue RPC.">
<polygon fill="white" stroke="#666666" points="2181.5,-41 1989.5,-41 1989.5,0 2181.5,0 2181.5,-41"/>
<text text-anchor="start" x="1997.5" y="-29" font-family="Helvetica,sans-Serif" font-size="10.00">/home/runner/work/Catena</text>
<text text-anchor="start" x="1997.5" y="-18" font-family="Helvetica,sans-Serif" font-size="10.00">/Catena/sdks/cpp/connections</text>
<text text-anchor="middle" x="2085.5" y="-7" font-family="Helvetica,sans-Serif" font-size="10.00">/REST/include/controllers/SetValue.h</text>
</a>
</g>
</g>
<!-- Node12&#45;&gt;Node13 -->
<g id="edge12_Node000012_Node000013" class="edge">
<title>Node12&#45;&gt;Node13</title>
<g id="a_edge12_Node000012_Node000013"><a xlink:title=" ">
<path fill="none" stroke="#63b8ff" d="M2085.5,-71.87C2085.5,-61.6 2085.5,-50.4 2085.5,-41.17"/>
<polygon fill="#63b8ff" stroke="#63b8ff" points="2082,-72.1 2085.5,-82.1 2089,-72.1 2082,-72.1"/>
</a>
</g>
</g>
<!-- Node14&#45;&gt;Node3 -->
<g id="edge14_Node000014_Node000003" class="edge">
<title>Node14&#45;&gt;Node3</title>
<g id="a_edge14_Node000014_Node000003"><a xlink:title=" ">
<path fill="none" stroke="#63b8ff" d="M965.15,-185.21C797.09,-184.77 454.69,-177.29 169.5,-129 161.11,-127.58 152.38,-125.68 143.81,-123.55"/>
<polygon fill="#63b8ff" stroke="#63b8ff" points="965.22,-188.71 975.23,-185.22 965.23,-181.71 965.22,-188.71"/>
</a>
</g>
</g>
<!-- Node14&#45;&gt;Node4 -->
<g id="edge15_Node000014_Node000004" class="edge">
<title>Node14&#45;&gt;Node4</title>
<g id="a_edge15_Node000014_Node000004"><a xlink:title=" ">
<path fill="none" stroke="#63b8ff" d="M965.35,-180.04C834.05,-173.42 600.47,-158.46 402.5,-129 392.21,-127.47 381.47,-125.57 370.85,-123.51"/>
<polygon fill="#63b8ff" stroke="#63b8ff" points="965.24,-183.54 975.41,-180.54 965.59,-176.55 965.24,-183.54"/>
</a>
</g>
</g>
<!-- Node14&#45;&gt;Node5 -->
<g id="edge16_Node000014_Node000005" class="edge">
<title>Node14&#45;&gt;Node5</title>
<g id="a_edge16_Node000014_Node000005"><a xlink:title=" ">
<path fill="none" stroke="#63b8ff" d="M965.26,-175.52C871.89,-166.57 730.86,-150.99 609.5,-129 600.72,-127.41 591.57,-125.52 582.5,-123.51"/>
<polygon fill="#63b8ff" stroke="#63b8ff" points="964.98,-179.01 975.27,-176.47 965.65,-172.04 964.98,-179.01"/>
</a>
</g>
</g>
<!-- Node14&#45;&gt;Node6 -->
<g id="edge17_Node000014_Node000006" class="edge">
<title>Node14&#45;&gt;Node6</title>
<g id="a_edge17_Node000014_Node000006"><a xlink:title=" ">
<path fill="none" stroke="#63b8ff" d="M976.5,-162.59C925.28,-150.39 862.06,-135.33 812.53,-123.54"/>
<polygon fill="#63b8ff" stroke="#63b8ff" points="975.71,-166 986.25,-164.91 977.33,-159.19 975.71,-166"/>
</a>
</g>
</g>
<!-- Node14&#45;&gt;Node7 -->
<g id="edge18_Node000014_Node000007" class="edge">
<title>Node14&#45;&gt;Node7</title>
<g id="a_edge18_Node000014_Node000007"><a xlink:title=" ">
<path fill="none" stroke="#63b8ff" d="M1033.28,-158.72C1017.8,-147.4 999.91,-134.31 985.51,-123.77"/>
<polygon fill="#63b8ff" stroke="#63b8ff" points="1031.45,-161.73 1041.59,-164.81 1035.59,-156.08 1031.45,-161.73"/>
</a>
</g>
</g>
<!-- Node14&#45;&gt;Node8 -->
<g id="edge19_Node000014_Node000008" class="edge">
<title>Node14&#45;&gt;Node8</title>
<g id="a_edge19_Node000014_Node000008"><a xlink:title=" ">
<path fill="none" stroke="#63b8ff" d="M1103.61,-158.81C1116.51,-149.36 1131.11,-138.68 1143.96,-129.28"/>
<polygon fill="#63b8ff" stroke="#63b8ff" points="1101.41,-156.08 1095.41,-164.81 1105.55,-161.73 1101.41,-156.08"/>
</a>
</g>
</g>
<!-- Node14&#45;&gt;Node9 -->
<g id="edge20_Node000014_Node000009" class="edge">
<title>Node14&#45;&gt;Node9</title>
<g id="a_edge20_Node000014_Node000009"><a xlink:title=" ">
<path fill="none" stroke="#63b8ff" d="M1158.09,-162.51C1207.74,-150.33 1268.93,-135.31 1316.89,-123.54"/>
<polygon fill="#63b8ff" stroke="#63b8ff" points="1157.2,-159.13 1148.32,-164.91 1158.86,-165.93 1157.2,-159.13"/>
</a>
</g>
</g>
<!-- Node14&#45;&gt;Node10 -->
<g id="edge21_Node000014_Node000010" class="edge">
<title>Node14&#45;&gt;Node10</title>
<g id="a_edge21_Node000014_Node000010"><a xlink:title=" ">
<path fill="none" stroke="#63b8ff" d="M1171.57,-173.92C1259.74,-164.26 1389.89,-148.51 1502.5,-129 1505.39,-128.5 1508.33,-127.97 1511.28,-127.43"/>
<polygon fill="#63b8ff" stroke="#63b8ff" points="1171.12,-170.45 1161.56,-175.02 1171.88,-177.41 1171.12,-170.45"/>
</a>
</g>
</g>
<!-- Node14&#45;&gt;Node11 -->
<g id="edge22_Node000014_Node000011" class="edge">
<title>Node14&#45;&gt;Node11</title>
<g id="a_edge22_Node000014_Node000011"><a xlink:title=" ">
<path fill="none" stroke="#63b8ff" d="M1171.55,-179.81C1302.15,-172.96 1533.92,-157.78 1730.5,-129 1740.94,-127.47 1751.85,-125.59 1762.63,-123.54"/>
<polygon fill="#63b8ff" stroke="#63b8ff" points="1171.36,-176.31 1161.56,-180.33 1171.72,-183.3 1171.36,-176.31"/>
</a>
</g>
</g>
<!-- Node14&#45;&gt;Node12 -->
<g id="edge23_Node000014_Node000012" class="edge">
<title>Node14&#45;&gt;Node12</title>
<g id="a_edge23_Node000014_Node000012"><a xlink:title=" ">
<path fill="none" stroke="#63b8ff" d="M1171.86,-183.05C1339.57,-179.6 1681.08,-167.97 1967.5,-129 1978.29,-127.53 1989.56,-125.63 2000.68,-123.53"/>
<polygon fill="#63b8ff" stroke="#63b8ff" points="1171.73,-179.55 1161.8,-183.25 1171.87,-186.55 1171.73,-179.55"/>
</a>
</g>
</g>
</g>
</svg>
