<?xml version="1.0" encoding="UTF-8" standalone="no"?>
<!DOCTYPE svg PUBLIC "-//W3C//DTD SVG 1.1//EN"
 "http://www.w3.org/Graphics/SVG/1.1/DTD/svg11.dtd">
<!-- Generated by graphviz version 2.43.0 (0)
 -->
<!-- Title: /home/runner/work/Catena/Catena/sdks/cpp/connections/REST/include/interface/ISocketReader.h Pages: 1 -->
<!--zoomable 291 -->

<svg id="main" version="1.1" xmlns="http://www.w3.org/2000/svg" xmlns:xlink="http://www.w3.org/1999/xlink" xml:space="preserve" onload="init(evt)">
<style type="text/css"><![CDATA[
.node, .edge {opacity: 0.7;}
.node.selected, .edge.selected {opacity: 1;}
.edge:hover path { stroke: red; }
.edge:hover polygon { stroke: red; fill: red; }
]]></style>

<defs>
  <circle id="rim" cx="0" cy="0" r="7"/>
  <circle id="rim2" cx="0" cy="0" r="3.5"/>
  <g id="zoomPlus">
    <use xlink:href="#rim" fill="#404040"><set attributeName="fill" to="#808080" begin="zoomplus.mouseover" end="zoomplus.mouseout"/></use>
    <path d="M-4,0h8M0,-4v8" fill="none" stroke="white" stroke-width="1.5" pointer-events="none"/>
  </g>
  <g id="zoomMin">
    <use xlink:href="#rim" fill="#404040"><set attributeName="fill" to="#808080" begin="zoomminus.mouseover" end="zoomminus.mouseout"/></use>
    <path d="M-4,0h8" fill="none" stroke="white" stroke-width="1.5" pointer-events="none"/>
  </g>
  <g id="arrowUp" transform="translate(30 24)">
    <use xlink:href="#rim"/>
    <path pointer-events="none" fill="none" stroke="white" stroke-width="1.5" d="M0,-3.0v7 M-2.5,-0.5L0,-3.0L2.5,-0.5"/>
  </g>
  <g id="arrowRight" transform="rotate(90) translate(36 -43)">
    <use xlink:href="#rim"/>
    <path pointer-events="none" fill="none" stroke="white" stroke-width="1.5" d="M0,-3.0v7 M-2.5,-0.5L0,-3.0L2.5,-0.5"/>
  </g>
  <g id="arrowDown" transform="rotate(180) translate(-30 -48)">
    <use xlink:href="#rim"/>
    <path pointer-events="none" fill="none" stroke="white" stroke-width="1.5" d="M0,-3.0v7 M-2.5,-0.5L0,-3.0L2.5,-0.5"/>
  </g>
  <g id="arrowLeft" transform="rotate(270) translate(-36 17)">
    <use xlink:href="#rim"/>
    <path pointer-events="none" fill="none" stroke="white" stroke-width="1.5" d="M0,-3.0v7 M-2.5,-0.5L0,-3.0L2.5,-0.5"/>
  </g>
  <g id="resetDef">
    <use xlink:href="#rim2" fill="#404040"><set attributeName="fill" to="#808080" begin="reset.mouseover" end="reset.mouseout"/></use>
  </g>
</defs>
<script type="application/ecmascript">
var viewWidth = 3178;
var viewHeight = 291;
var sectionId = 'dynsection-1';
</script>
<script type="application/ecmascript" xlink:href="svg.min.js"/>
<svg id="graph" class="graph">
<g id="viewport">
<title>/home/runner/work/Catena/Catena/sdks/cpp/connections/REST/include/interface/ISocketReader.h</title>
<!-- Node1 -->
<g id="Node000001" class="node">
<title>Node1</title>
<g id="a_Node000001"><a xlink:title="Interface for the SocketReader class.">
<polygon fill="#999999" stroke="#666666" points="1652.5,-283 1442.5,-283 1442.5,-242 1652.5,-242 1652.5,-283"/>
<text text-anchor="start" x="1450.5" y="-271" font-family="Helvetica,sans-Serif" font-size="10.00">/home/runner/work/Catena</text>
<text text-anchor="start" x="1450.5" y="-260" font-family="Helvetica,sans-Serif" font-size="10.00">/Catena/sdks/cpp/connections</text>
<text text-anchor="middle" x="1547.5" y="-249" font-family="Helvetica,sans-Serif" font-size="10.00">/REST/include/interface/ISocketReader.h</text>
</a>
</g>
</g>
<!-- Node2 -->
<g id="Node000002" class="node">
<title>Node2</title>
<g id="a_Node000002"><a xlink:href="SocketReader_8h.html" target="_top" xlink:title="Helper class used to read from a socket using boost.">
<polygon fill="white" stroke="#666666" points="161,-200.5 0,-200.5 0,-159.5 161,-159.5 161,-200.5"/>
<text text-anchor="start" x="8" y="-188.5" font-family="Helvetica,sans-Serif" font-size="10.00">/home/runner/work/Catena</text>
<text text-anchor="start" x="8" y="-177.5" font-family="Helvetica,sans-Serif" font-size="10.00">/Catena/sdks/cpp/connections</text>
<text text-anchor="middle" x="80.5" y="-166.5" font-family="Helvetica,sans-Serif" font-size="10.00">/REST/include/SocketReader.h</text>
</a>
</g>
</g>
<!-- Node1&#45;&gt;Node2 -->
<g id="edge1_Node000001_Node000002" class="edge">
<title>Node1&#45;&gt;Node2</title>
<g id="a_edge1_Node000001_Node000002"><a xlink:title=" ">
<path fill="none" stroke="#63b8ff" d="M1431.88,-260.31C1145.93,-256.82 411.27,-244.29 169.5,-206 160.94,-204.64 152.03,-202.75 143.3,-200.6"/>
<polygon fill="#63b8ff" stroke="#63b8ff" points="1432.23,-263.82 1442.27,-260.44 1432.32,-256.82 1432.23,-263.82"/>
</a>
</g>
</g>
<!-- Node5 -->
<g id="Node000005" class="node">
<title>Node5</title>
<g id="a_Node000005"><a xlink:href="REST_2include_2controllers_2AddLanguage_8h.html" target="_top" xlink:title="Implements REST AddLanguage controller.">
<polygon fill="white" stroke="#666666" points="394,-200.5 179,-200.5 179,-159.5 394,-159.5 394,-200.5"/>
<text text-anchor="start" x="187" y="-188.5" font-family="Helvetica,sans-Serif" font-size="10.00">/home/runner/work/Catena</text>
<text text-anchor="start" x="187" y="-177.5" font-family="Helvetica,sans-Serif" font-size="10.00">/Catena/sdks/cpp/connections</text>
<text text-anchor="middle" x="286.5" y="-166.5" font-family="Helvetica,sans-Serif" font-size="10.00">/REST/include/controllers/AddLanguage.h</text>
</a>
</g>
</g>
<!-- Node1&#45;&gt;Node5 -->
<g id="edge5_Node000001_Node000005" class="edge">
<title>Node1&#45;&gt;Node5</title>
<g id="a_edge5_Node000001_Node000005"><a xlink:title=" ">
<path fill="none" stroke="#63b8ff" d="M1431.83,-262.06C1224.71,-261.69 777.25,-254.67 403.5,-206 392.58,-204.58 381.17,-202.67 369.94,-200.55"/>
<polygon fill="#63b8ff" stroke="#63b8ff" points="1432.1,-265.56 1442.11,-262.07 1432.11,-258.56 1432.1,-265.56"/>
</a>
</g>
</g>
<!-- Node6 -->
<g id="Node000006" class="node">
<title>Node6</title>
<g id="a_Node000006"><a xlink:href="AssetRequest_8h.html" target="_top" xlink:title="Implements REST AssetRequest controller.">
<polygon fill="white" stroke="#666666" points="628.5,-200.5 412.5,-200.5 412.5,-159.5 628.5,-159.5 628.5,-200.5"/>
<text text-anchor="start" x="420.5" y="-188.5" font-family="Helvetica,sans-Serif" font-size="10.00">/home/runner/work/Catena</text>
<text text-anchor="start" x="420.5" y="-177.5" font-family="Helvetica,sans-Serif" font-size="10.00">/Catena/sdks/cpp/connections</text>
<text text-anchor="middle" x="520.5" y="-166.5" font-family="Helvetica,sans-Serif" font-size="10.00">/REST/include/controllers/AssetRequest.h</text>
</a>
</g>
</g>
<!-- Node1&#45;&gt;Node6 -->
<g id="edge6_Node000001_Node000006" class="edge">
<title>Node1&#45;&gt;Node6</title>
<g id="a_edge6_Node000001_Node000006"><a xlink:title=" ">
<path fill="none" stroke="#63b8ff" d="M1432.09,-259.98C1258.79,-256.46 921.38,-244.76 637.5,-206 626.8,-204.54 615.62,-202.64 604.59,-200.54"/>
<polygon fill="#63b8ff" stroke="#63b8ff" points="1432.18,-263.48 1442.25,-260.18 1432.32,-256.49 1432.18,-263.48"/>
</a>
</g>
</g>
<!-- Node7 -->
<g id="Node000007" class="node">
<title>Node7</title>
<g id="a_Node000007"><a xlink:href="REST_2include_2controllers_2BasicParamInfoRequest_8h.html" target="_top" xlink:title="Implements REST BasicParamInfoRequest controller.">
<polygon fill="white" stroke="#666666" points="844,-206 647,-206 647,-154 844,-154 844,-206"/>
<text text-anchor="start" x="655" y="-194" font-family="Helvetica,sans-Serif" font-size="10.00">/home/runner/work/Catena</text>
<text text-anchor="start" x="655" y="-183" font-family="Helvetica,sans-Serif" font-size="10.00">/Catena/sdks/cpp/connections</text>
<text text-anchor="start" x="655" y="-172" font-family="Helvetica,sans-Serif" font-size="10.00">/REST/include/controllers/BasicParam</text>
<text text-anchor="middle" x="745.5" y="-161" font-family="Helvetica,sans-Serif" font-size="10.00">InfoRequest.h</text>
</a>
</g>
</g>
<!-- Node1&#45;&gt;Node7 -->
<g id="edge7_Node000001_Node000007" class="edge">
<title>Node1&#45;&gt;Node7</title>
<g id="a_edge7_Node000001_Node000007"><a xlink:title=" ">
<path fill="none" stroke="#63b8ff" d="M1432.23,-257.58C1293.85,-251.66 1055.09,-237.57 852.5,-206 849.77,-205.57 847,-205.12 844.21,-204.63"/>
<polygon fill="#63b8ff" stroke="#63b8ff" points="1432.29,-261.09 1442.43,-258.01 1432.59,-254.09 1432.29,-261.09"/>
</a>
</g>
</g>
<!-- Node8 -->
<g id="Node000008" class="node">
<title>Node8</title>
<g id="a_Node000008"><a xlink:href="connections_2REST_2include_2controllers_2Connect_8h.html" target="_top" xlink:title="Implements REST Connect controller.">
<polygon fill="white" stroke="#666666" points="1051,-200.5 862,-200.5 862,-159.5 1051,-159.5 1051,-200.5"/>
<text text-anchor="start" x="870" y="-188.5" font-family="Helvetica,sans-Serif" font-size="10.00">/home/runner/work/Catena</text>
<text text-anchor="start" x="870" y="-177.5" font-family="Helvetica,sans-Serif" font-size="10.00">/Catena/sdks/cpp/connections</text>
<text text-anchor="middle" x="956.5" y="-166.5" font-family="Helvetica,sans-Serif" font-size="10.00">/REST/include/controllers/Connect.h</text>
</a>
</g>
</g>
<!-- Node1&#45;&gt;Node8 -->
<g id="edge8_Node000001_Node000008" class="edge">
<title>Node1&#45;&gt;Node8</title>
<g id="a_edge8_Node000001_Node000008"><a xlink:title=" ">
<path fill="none" stroke="#63b8ff" d="M1432.18,-252.47C1332.93,-243.73 1186.12,-228.48 1059.5,-206 1050.62,-204.42 1041.37,-202.54 1032.21,-200.51"/>
<polygon fill="#63b8ff" stroke="#63b8ff" points="1431.97,-255.97 1442.24,-253.35 1432.58,-249 1431.97,-255.97"/>
</a>
</g>
</g>
<!-- Node9 -->
<g id="Node000009" class="node">
<title>Node9</title>
<g id="a_Node000009"><a xlink:href="REST_2include_2controllers_2DeviceRequest_8h.html" target="_top" xlink:title="Implements REST DeviceRequest controller.">
<polygon fill="white" stroke="#666666" points="1292,-200.5 1069,-200.5 1069,-159.5 1292,-159.5 1292,-200.5"/>
<text text-anchor="start" x="1077" y="-188.5" font-family="Helvetica,sans-Serif" font-size="10.00">/home/runner/work/Catena</text>
<text text-anchor="start" x="1077" y="-177.5" font-family="Helvetica,sans-Serif" font-size="10.00">/Catena/sdks/cpp/connections</text>
<text text-anchor="middle" x="1180.5" y="-166.5" font-family="Helvetica,sans-Serif" font-size="10.00">/REST/include/controllers/DeviceRequest.h</text>
</a>
</g>
</g>
<!-- Node1&#45;&gt;Node9 -->
<g id="edge9_Node000001_Node000009" class="edge">
<title>Node1&#45;&gt;Node9</title>
<g id="a_edge9_Node000001_Node000009"><a xlink:title=" ">
<path fill="none" stroke="#63b8ff" d="M1448.3,-239.74C1392.57,-227.52 1323.57,-212.38 1269.57,-200.54"/>
<polygon fill="#63b8ff" stroke="#63b8ff" points="1447.67,-243.19 1458.19,-241.91 1449.17,-236.35 1447.67,-243.19"/>
</a>
</g>
</g>
<!-- Node10 -->
<g id="Node000010" class="node">
<title>Node10</title>
<g id="a_Node000010"><a xlink:href="REST_2include_2controllers_2ExecuteCommand_8h.html" target="_top" xlink:title="Implements REST ExecuteCommand controller.">
<polygon fill="white" stroke="#666666" points="1548.5,-200.5 1310.5,-200.5 1310.5,-159.5 1548.5,-159.5 1548.5,-200.5"/>
<text text-anchor="start" x="1318.5" y="-188.5" font-family="Helvetica,sans-Serif" font-size="10.00">/home/runner/work/Catena</text>
<text text-anchor="start" x="1318.5" y="-177.5" font-family="Helvetica,sans-Serif" font-size="10.00">/Catena/sdks/cpp/connections</text>
<text text-anchor="middle" x="1429.5" y="-166.5" font-family="Helvetica,sans-Serif" font-size="10.00">/REST/include/controllers/ExecuteCommand.h</text>
</a>
</g>
</g>
<!-- Node1&#45;&gt;Node10 -->
<g id="edge10_Node000001_Node000010" class="edge">
<title>Node1&#45;&gt;Node10</title>
<g id="a_edge10_Node000001_Node000010"><a xlink:title=" ">
<path fill="none" stroke="#63b8ff" d="M1510.18,-236.04C1493.47,-224.64 1474.07,-211.4 1458.48,-200.77"/>
<polygon fill="#63b8ff" stroke="#63b8ff" points="1508.4,-239.06 1518.63,-241.81 1512.35,-233.28 1508.4,-239.06"/>
</a>
</g>
</g>
<!-- Node11 -->
<g id="Node000011" class="node">
<title>Node11</title>
<g id="a_Node000011"><a xlink:href="REST_2include_2controllers_2GetParam_8h.html" target="_top" xlink:title="Implements REST GetParam controller.">
<polygon fill="white" stroke="#666666" points="1764,-200.5 1567,-200.5 1567,-159.5 1764,-159.5 1764,-200.5"/>
<text text-anchor="start" x="1575" y="-188.5" font-family="Helvetica,sans-Serif" font-size="10.00">/home/runner/work/Catena</text>
<text text-anchor="start" x="1575" y="-177.5" font-family="Helvetica,sans-Serif" font-size="10.00">/Catena/sdks/cpp/connections</text>
<text text-anchor="middle" x="1665.5" y="-166.5" font-family="Helvetica,sans-Serif" font-size="10.00">/REST/include/controllers/GetParam.h</text>
</a>
</g>
</g>
<!-- Node1&#45;&gt;Node11 -->
<g id="edge11_Node000001_Node000011" class="edge">
<title>Node1&#45;&gt;Node11</title>
<g id="a_edge11_Node000001_Node000011"><a xlink:title=" ">
<path fill="none" stroke="#63b8ff" d="M1584.82,-236.04C1601.53,-224.64 1620.93,-211.4 1636.52,-200.77"/>
<polygon fill="#63b8ff" stroke="#63b8ff" points="1582.65,-233.28 1576.37,-241.81 1586.6,-239.06 1582.65,-233.28"/>
</a>
</g>
</g>
<!-- Node12 -->
<g id="Node000012" class="node">
<title>Node12</title>
<g id="a_Node000012"><a xlink:href="REST_2include_2controllers_2GetPopulatedSlots_8h.html" target="_top" xlink:title="Implements REST GetPopulatedSlots controller.">
<polygon fill="white" stroke="#666666" points="1988.5,-206 1782.5,-206 1782.5,-154 1988.5,-154 1988.5,-206"/>
<text text-anchor="start" x="1790.5" y="-194" font-family="Helvetica,sans-Serif" font-size="10.00">/home/runner/work/Catena</text>
<text text-anchor="start" x="1790.5" y="-183" font-family="Helvetica,sans-Serif" font-size="10.00">/Catena/sdks/cpp/connections</text>
<text text-anchor="start" x="1790.5" y="-172" font-family="Helvetica,sans-Serif" font-size="10.00">/REST/include/controllers/GetPopulated</text>
<text text-anchor="middle" x="1885.5" y="-161" font-family="Helvetica,sans-Serif" font-size="10.00">Slots.h</text>
</a>
</g>
</g>
<!-- Node1&#45;&gt;Node12 -->
<g id="edge12_Node000001_Node000012" class="edge">
<title>Node1&#45;&gt;Node12</title>
<g id="a_edge12_Node000001_Node000012"><a xlink:title=" ">
<path fill="none" stroke="#63b8ff" d="M1639.61,-239.56C1683.74,-229.05 1736.76,-216.43 1782.25,-205.59"/>
<polygon fill="#63b8ff" stroke="#63b8ff" points="1638.67,-236.19 1629.75,-241.91 1640.29,-243 1638.67,-236.19"/>
</a>
</g>
</g>
<!-- Node13 -->
<g id="Node000013" class="node">
<title>Node13</title>
<g id="a_Node000013"><a xlink:href="REST_2include_2controllers_2GetValue_8h.html" target="_top" xlink:title="Implements REST GetValue controller.">
<polygon fill="white" stroke="#666666" points="2200.5,-200.5 2006.5,-200.5 2006.5,-159.5 2200.5,-159.5 2200.5,-200.5"/>
<text text-anchor="start" x="2014.5" y="-188.5" font-family="Helvetica,sans-Serif" font-size="10.00">/home/runner/work/Catena</text>
<text text-anchor="start" x="2014.5" y="-177.5" font-family="Helvetica,sans-Serif" font-size="10.00">/Catena/sdks/cpp/connections</text>
<text text-anchor="middle" x="2103.5" y="-166.5" font-family="Helvetica,sans-Serif" font-size="10.00">/REST/include/controllers/GetValue.h</text>
</a>
</g>
</g>
<!-- Node1&#45;&gt;Node13 -->
<g id="edge13_Node000001_Node000013" class="edge">
<title>Node1&#45;&gt;Node13</title>
<g id="a_edge13_Node000001_Node000013"><a xlink:title=" ">
<path fill="none" stroke="#63b8ff" d="M1662.64,-250.79C1753.87,-241.46 1884.35,-226.26 1997.5,-206 2006.43,-204.4 2015.74,-202.52 2024.97,-200.53"/>
<polygon fill="#63b8ff" stroke="#63b8ff" points="1662.15,-247.32 1652.55,-251.81 1662.85,-254.29 1662.15,-247.32"/>
</a>
</g>
</g>
<!-- Node14 -->
<g id="Node000014" class="node">
<title>Node14</title>
<g id="a_Node000014"><a xlink:href="REST_2include_2controllers_2LanguagePackRequest_8h.html" target="_top" xlink:title="Implements REST LanguagePackRequest controller.">
<polygon fill="white" stroke="#666666" points="2428.5,-206 2218.5,-206 2218.5,-154 2428.5,-154 2428.5,-206"/>
<text text-anchor="start" x="2226.5" y="-194" font-family="Helvetica,sans-Serif" font-size="10.00">/home/runner/work/Catena</text>
<text text-anchor="start" x="2226.5" y="-183" font-family="Helvetica,sans-Serif" font-size="10.00">/Catena/sdks/cpp/connections</text>
<text text-anchor="start" x="2226.5" y="-172" font-family="Helvetica,sans-Serif" font-size="10.00">/REST/include/controllers/LanguagePack</text>
<text text-anchor="middle" x="2323.5" y="-161" font-family="Helvetica,sans-Serif" font-size="10.00">Request.h</text>
</a>
</g>
</g>
<!-- Node1&#45;&gt;Node14 -->
<g id="edge14_Node000001_Node000014" class="edge">
<title>Node1&#45;&gt;Node14</title>
<g id="a_edge14_Node000001_Node000014"><a xlink:title=" ">
<path fill="none" stroke="#63b8ff" d="M1662.79,-256.46C1795.3,-249.6 2019.02,-234.74 2209.5,-206 2212.41,-205.56 2215.35,-205.09 2218.31,-204.6"/>
<polygon fill="#63b8ff" stroke="#63b8ff" points="1662.43,-252.98 1652.62,-256.98 1662.79,-259.97 1662.43,-252.98"/>
</a>
</g>
</g>
<!-- Node15 -->
<g id="Node000015" class="node">
<title>Node15</title>
<g id="a_Node000015"><a xlink:href="REST_2include_2controllers_2ListLanguages_8h.html" target="_top" xlink:title="Implements REST ListLanguages controller.">
<polygon fill="white" stroke="#666666" points="2666,-200.5 2447,-200.5 2447,-159.5 2666,-159.5 2666,-200.5"/>
<text text-anchor="start" x="2455" y="-188.5" font-family="Helvetica,sans-Serif" font-size="10.00">/home/runner/work/Catena</text>
<text text-anchor="start" x="2455" y="-177.5" font-family="Helvetica,sans-Serif" font-size="10.00">/Catena/sdks/cpp/connections</text>
<text text-anchor="middle" x="2556.5" y="-166.5" font-family="Helvetica,sans-Serif" font-size="10.00">/REST/include/controllers/ListLanguages.h</text>
</a>
</g>
</g>
<!-- Node1&#45;&gt;Node15 -->
<g id="edge15_Node000001_Node000015" class="edge">
<title>Node1&#45;&gt;Node15</title>
<g id="a_edge15_Node000001_Node000015"><a xlink:title=" ">
<path fill="none" stroke="#63b8ff" d="M1663.03,-259.63C1833.28,-255.66 2161.25,-243.43 2437.5,-206 2448.38,-204.53 2459.75,-202.62 2470.96,-200.52"/>
<polygon fill="#63b8ff" stroke="#63b8ff" points="1662.71,-256.13 1652.8,-259.86 1662.87,-263.13 1662.71,-256.13"/>
</a>
</g>
</g>
<!-- Node16 -->
<g id="Node000016" class="node">
<title>Node16</title>
<g id="a_Node000016"><a xlink:href="REST_2include_2controllers_2MultiSetValue_8h.html" target="_top" xlink:title="Implements REST MultiSetValue controller.">
<polygon fill="white" stroke="#666666" points="2901,-200.5 2684,-200.5 2684,-159.5 2901,-159.5 2901,-200.5"/>
<text text-anchor="start" x="2692" y="-188.5" font-family="Helvetica,sans-Serif" font-size="10.00">/home/runner/work/Catena</text>
<text text-anchor="start" x="2692" y="-177.5" font-family="Helvetica,sans-Serif" font-size="10.00">/Catena/sdks/cpp/connections</text>
<text text-anchor="middle" x="2792.5" y="-166.5" font-family="Helvetica,sans-Serif" font-size="10.00">/REST/include/controllers/MultiSetValue.h</text>
</a>
</g>
</g>
<!-- Node1&#45;&gt;Node16 -->
<g id="edge16_Node000001_Node000016" class="edge">
<title>Node1&#45;&gt;Node16</title>
<g id="a_edge16_Node000001_Node000016"><a xlink:title=" ">
<path fill="none" stroke="#63b8ff" d="M1662.75,-261.95C1867.49,-261.38 2307.69,-254.02 2675.5,-206 2686.42,-204.57 2697.83,-202.67 2709.06,-200.54"/>
<polygon fill="#63b8ff" stroke="#63b8ff" points="1662.58,-258.45 1652.59,-261.97 1662.59,-265.45 1662.58,-258.45"/>
</a>
</g>
</g>
<!-- Node18 -->
<g id="Node000018" class="node">
<title>Node18</title>
<g id="a_Node000018"><a xlink:href="REST_2include_2controllers_2UpdateSubscriptions_8h.html" target="_top" xlink:title="Implements Catena REST UpdateSubscriptions.">
<polygon fill="white" stroke="#666666" points="3169.5,-200.5 2919.5,-200.5 2919.5,-159.5 3169.5,-159.5 3169.5,-200.5"/>
<text text-anchor="start" x="2927.5" y="-188.5" font-family="Helvetica,sans-Serif" font-size="10.00">/home/runner/work/Catena</text>
<text text-anchor="start" x="2927.5" y="-177.5" font-family="Helvetica,sans-Serif" font-size="10.00">/Catena/sdks/cpp/connections</text>
<text text-anchor="middle" x="3044.5" y="-166.5" font-family="Helvetica,sans-Serif" font-size="10.00">/REST/include/controllers/UpdateSubscriptions.h</text>
</a>
</g>
</g>
<!-- Node1&#45;&gt;Node18 -->
<g id="edge18_Node000001_Node000018" class="edge">
<title>Node1&#45;&gt;Node18</title>
<g id="a_edge18_Node000001_Node000018"><a xlink:title=" ">
<path fill="none" stroke="#63b8ff" d="M1662.92,-262.38C1898.33,-262.95 2450.5,-258 2910.5,-206 2923.08,-204.58 2936.26,-202.66 2949.23,-200.51"/>
<polygon fill="#63b8ff" stroke="#63b8ff" points="1662.64,-258.88 1652.63,-262.35 1662.62,-265.88 1662.64,-258.88"/>
</a>
</g>
</g>
<!-- Node3 -->
<g id="Node000003" class="node">
<title>Node3</title>
<g id="a_Node000003"><a xlink:href="REST_2include_2ServiceImpl_8h.html" target="_top" xlink:title="Implements REST API.">
<polygon fill="white" stroke="#666666" points="161,-41 0,-41 0,0 161,0 161,-41"/>
<text text-anchor="start" x="8" y="-29" font-family="Helvetica,sans-Serif" font-size="10.00">/home/runner/work/Catena</text>
<text text-anchor="start" x="8" y="-18" font-family="Helvetica,sans-Serif" font-size="10.00">/Catena/sdks/cpp/connections</text>
<text text-anchor="middle" x="80.5" y="-7" font-family="Helvetica,sans-Serif" font-size="10.00">/REST/include/ServiceImpl.h</text>
</a>
</g>
</g>
<!-- Node2&#45;&gt;Node3 -->
<g id="edge2_Node000002_Node000003" class="edge">
<title>Node2&#45;&gt;Node3</title>
<g id="a_edge2_Node000002_Node000003"><a xlink:title=" ">
<path fill="none" stroke="#63b8ff" d="M56.81,-151.24C49.82,-141.39 43.1,-129.8 39.5,-118 34.19,-100.57 33.8,-94.31 39.5,-77 43.88,-63.69 52.82,-50.95 61.24,-41.04"/>
<polygon fill="#63b8ff" stroke="#63b8ff" points="54.13,-153.51 62.93,-159.41 59.73,-149.31 54.13,-153.51"/>
</a>
</g>
</g>
<!-- Node4 -->
<g id="Node000004" class="node">
<title>Node4</title>
<g id="a_Node000004"><a xlink:href="REST_2include_2interface_2ICallData_8h.html" target="_top" xlink:title="Interface class for REST controllers.">
<polygon fill="white" stroke="#666666" points="234.5,-118 48.5,-118 48.5,-77 234.5,-77 234.5,-118"/>
<text text-anchor="start" x="56.5" y="-106" font-family="Helvetica,sans-Serif" font-size="10.00">/home/runner/work/Catena</text>
<text text-anchor="start" x="56.5" y="-95" font-family="Helvetica,sans-Serif" font-size="10.00">/Catena/sdks/cpp/connections</text>
<text text-anchor="middle" x="141.5" y="-84" font-family="Helvetica,sans-Serif" font-size="10.00">/REST/include/interface/ICallData.h</text>
</a>
</g>
</g>
<!-- Node2&#45;&gt;Node4 -->
<g id="edge3_Node000002_Node000004" class="edge">
<title>Node2&#45;&gt;Node4</title>
<g id="a_edge3_Node000002_Node000004"><a xlink:title=" ">
<path fill="none" stroke="#63b8ff" d="M101.63,-151.12C109.85,-140.26 119.09,-128.08 126.59,-118.17"/>
<polygon fill="#63b8ff" stroke="#63b8ff" points="98.83,-149.02 95.58,-159.1 104.41,-153.24 98.83,-149.02"/>
</a>
</g>
</g>
<!-- Node4&#45;&gt;Node3 -->
<g id="edge4_Node000004_Node000003" class="edge">
<title>Node4&#45;&gt;Node3</title>
<g id="a_edge4_Node000004_Node000003"><a xlink:title=" ">
<path fill="none" stroke="#63b8ff" d="M119.1,-68.95C111.57,-59.7 103.34,-49.58 96.42,-41.07"/>
<polygon fill="#63b8ff" stroke="#63b8ff" points="116.45,-71.25 125.47,-76.79 121.88,-66.83 116.45,-71.25"/>
</a>
</g>
</g>
<!-- Node17 -->
<g id="Node000017" class="node">
<title>Node17</title>
<g id="a_Node000017"><a xlink:href="REST_2include_2controllers_2SetValue_8h.html" target="_top" xlink:title="Implements REST SetValue controller.">
<polygon fill="white" stroke="#666666" points="2888.5,-118 2696.5,-118 2696.5,-77 2888.5,-77 2888.5,-118"/>
<text text-anchor="start" x="2704.5" y="-106" font-family="Helvetica,sans-Serif" font-size="10.00">/home/runner/work/Catena</text>
<text text-anchor="start" x="2704.5" y="-95" font-family="Helvetica,sans-Serif" font-size="10.00">/Catena/sdks/cpp/connections</text>
<text text-anchor="middle" x="2792.5" y="-84" font-family="Helvetica,sans-Serif" font-size="10.00">/REST/include/controllers/SetValue.h</text>
</a>
</g>
</g>
<!-- Node16&#45;&gt;Node17 -->
<g id="edge17_Node000016_Node000017" class="edge">
<title>Node16&#45;&gt;Node17</title>
<g id="a_edge17_Node000016_Node000017"><a xlink:title=" ">
<path fill="none" stroke="#63b8ff" d="M2792.5,-148.87C2792.5,-138.6 2792.5,-127.4 2792.5,-118.17"/>
<polygon fill="#63b8ff" stroke="#63b8ff" points="2789,-149.1 2792.5,-159.1 2796,-149.1 2789,-149.1"/>
</a>
</g>
</g>
</g>
</svg>

<g id="navigator" transform="translate(0 0)" fill="#404254">
  <rect fill="#f2f5e9" fill-opacity="0.5" stroke="#606060" stroke-width=".5" x="0" y="0" width="60" height="60"/>
  <use id="zoomplus" xlink:href="#zoomPlus" x="17" y="9" onmousedown="handleZoom(evt,'in')"/>
  <use id="zoomminus" xlink:href="#zoomMin" x="42" y="9" onmousedown="handleZoom(evt,'out')"/>
  <use id="reset" xlink:href="#resetDef" x="30" y="36" onmousedown="handleReset()"/>
   <use id="arrowup" xlink:href="#arrowUp" x="0" y="0" onmousedown="handlePan(0,-1)"/>
  <use id="arrowright" xlink:href="#arrowRight" x="0" y="0" onmousedown="handlePan(1,0)"/>
  <use id="arrowdown" xlink:href="#arrowDown" x="0" y="0" onmousedown="handlePan(0,1)"/>
  <use id="arrowleft" xlink:href="#arrowLeft" x="0" y="0" onmousedown="handlePan(-1,0)"/>
</g>
<svg viewBox="0 0 15 15" width="100%" height="30px" preserveAspectRatio="xMaxYMin meet">
 <g id="arrow_out" transform="scale(0.3 0.3)">
  <a xlink:href="ISocketReader_8h__dep__incl_org.svg" target="_base">
   <rect id="button" ry="5" rx="5" y="6" x="6" height="38" width="38"
        fill="#f2f5e9" fill-opacity="0.5" stroke="#606060" stroke-width="1.0"/>
   <path id="arrow"
     d="M 11.500037,31.436501 C 11.940474,20.09759 22.043105,11.32322 32.158766,21.979434 L 37.068811,17.246167 C 37.068811,17.246167 37.088388,32 37.088388,32 L 22.160133,31.978069 C 22.160133,31.978069 26.997745,27.140456 26.997745,27.140456 C 18.528582,18.264221 13.291696,25.230495 11.500037,31.436501 z"
     style="fill:#404040;"/>
  </a>
 </g>
</svg>

<style type='text/css'>
<![CDATA[
[data-mouse-over-selected='false'] { opacity: 0.7; }
[data-mouse-over-selected='true']  { opacity: 1.0; }
]]>
</style>
<script type="application/ecmascript"><![CDATA[
document.addEventListener('DOMContentLoaded', (event) => {
  highlightEdges();
  highlightAdjacentNodes();
});
]]></script>
</svg>
