<?xml version="1.0" encoding="UTF-8" standalone="no"?>
<!DOCTYPE svg PUBLIC "-//W3C//DTD SVG 1.1//EN"
 "http://www.w3.org/Graphics/SVG/1.1/DTD/svg11.dtd">
<!-- Generated by graphviz version 2.43.0 (0)
 -->
<!-- Title: /home/runner/work/Catena/Catena/sdks/cpp/common/include/ISubscriptionManager.h Pages: 1 -->
<svg width="1438pt" height="489pt"
 viewBox="0.00 0.00 1437.56 489.00" xmlns="http://www.w3.org/2000/svg" xmlns:xlink="http://www.w3.org/1999/xlink">
<g id="graph0" class="graph" transform="scale(1 1) rotate(0) translate(4 485)">
<title>/home/runner/work/Catena/Catena/sdks/cpp/common/include/ISubscriptionManager.h</title>
<!-- Node1 -->
<g id="Node000001" class="node">
<title>Node1</title>
<g id="a_Node000001"><a xlink:title="Interface for managing parameter subscriptions in Catena.">
<polygon fill="#999999" stroke="#666666" points="349.06,-481 177.06,-481 177.06,-440 349.06,-440 349.06,-481"/>
<text text-anchor="start" x="185.06" y="-469" font-family="Helvetica,sans-Serif" font-size="10.00">/home/runner/work/Catena</text>
<text text-anchor="start" x="185.06" y="-458" font-family="Helvetica,sans-Serif" font-size="10.00">/Catena/sdks/cpp/common</text>
<text text-anchor="middle" x="263.06" y="-447" font-family="Helvetica,sans-Serif" font-size="10.00">/include/ISubscriptionManager.h</text>
</a>
</g>
</g>
<!-- Node2 -->
<g id="Node000002" class="node">
<title>Node2</title>
<g id="a_Node000002"><a xlink:title=" ">
<polygon fill="#e0e0e0" stroke="#999999" points="109.06,-294 77.06,-294 77.06,-275 109.06,-275 109.06,-294"/>
<text text-anchor="middle" x="93.06" y="-282" font-family="Helvetica,sans-Serif" font-size="10.00">set</text>
</a>
</g>
</g>
<!-- Node1&#45;&gt;Node2 -->
<g id="edge1_Node000001_Node000002" class="edge">
<title>Node1&#45;&gt;Node2</title>
<g id="a_edge1_Node000001_Node000002"><a xlink:title=" ">
<path fill="none" stroke="#63b8ff" d="M243.89,-439.88C209.95,-405.14 139.92,-333.47 108.69,-301.5"/>
<polygon fill="#63b8ff" stroke="#63b8ff" points="111.12,-298.98 101.63,-294.27 106.12,-303.87 111.12,-298.98"/>
</a>
</g>
</g>
<!-- Node3 -->
<g id="Node000003" class="node">
<title>Node3</title>
<g id="a_Node000003"><a xlink:title=" ">
<polygon fill="#e0e0e0" stroke="#999999" points="1062.06,-19 1018.06,-19 1018.06,0 1062.06,0 1062.06,-19"/>
<text text-anchor="middle" x="1040.06" y="-7" font-family="Helvetica,sans-Serif" font-size="10.00">string</text>
</a>
</g>
</g>
<!-- Node1&#45;&gt;Node3 -->
<g id="edge2_Node000001_Node000003" class="edge">
<title>Node1&#45;&gt;Node3</title>
<g id="a_edge2_Node000001_Node000003"><a xlink:title=" ">
<path fill="none" stroke="#63b8ff" d="M176.91,-455.19C100.55,-446.18 1.06,-419.31 1.06,-340.5 1.06,-340.5 1.06,-340.5 1.06,-118.5 1.06,-89.04 -3.18,-73.1 20.06,-55 59.93,-23.94 838.59,-12.9 1007.79,-10.86"/>
<polygon fill="#63b8ff" stroke="#63b8ff" points="1007.87,-14.36 1017.83,-10.74 1007.78,-7.36 1007.87,-14.36"/>
</a>
</g>
</g>
<!-- Node4 -->
<g id="Node000004" class="node">
<title>Node4</title>
<g id="a_Node000004"><a xlink:href="IDevice_8h.html" target="_top" xlink:title="Interface for device.">
<polygon fill="white" stroke="#666666" points="863.06,-404 801.06,-404 801.06,-385 863.06,-385 863.06,-404"/>
<text text-anchor="middle" x="832.06" y="-392" font-family="Helvetica,sans-Serif" font-size="10.00">IDevice.h</text>
</a>
</g>
</g>
<!-- Node1&#45;&gt;Node4 -->
<g id="edge3_Node000001_Node000004" class="edge">
<title>Node1&#45;&gt;Node4</title>
<g id="a_edge3_Node000001_Node000004"><a xlink:title=" ">
<path fill="none" stroke="#63b8ff" d="M349.17,-449.81C473.46,-435.83 698.36,-410.54 790.74,-400.15"/>
<polygon fill="#63b8ff" stroke="#63b8ff" points="791.27,-403.61 800.82,-399.01 790.49,-396.65 791.27,-403.61"/>
</a>
</g>
</g>
<!-- Node5 -->
<g id="Node000005" class="node">
<title>Node5</title>
<g id="a_Node000005"><a xlink:href="Authorizer_8h.html" target="_top" xlink:title="Class for handling authorization information.">
<polygon fill="white" stroke="#666666" points="300.56,-349 225.56,-349 225.56,-330 300.56,-330 300.56,-349"/>
<text text-anchor="middle" x="263.06" y="-337" font-family="Helvetica,sans-Serif" font-size="10.00">Authorizer.h</text>
</a>
</g>
</g>
<!-- Node1&#45;&gt;Node5 -->
<g id="edge59_Node000001_Node000005" class="edge">
<title>Node1&#45;&gt;Node5</title>
<g id="a_edge59_Node000001_Node000005"><a xlink:title=" ">
<path fill="none" stroke="#63b8ff" d="M263.06,-439.85C263.06,-417.48 263.06,-381.19 263.06,-359.21"/>
<polygon fill="#63b8ff" stroke="#63b8ff" points="266.56,-359.18 263.06,-349.18 259.56,-359.18 266.56,-359.18"/>
</a>
</g>
</g>
<!-- Node7 -->
<g id="Node000007" class="node">
<title>Node7</title>
<g id="a_Node000007"><a xlink:href="IParam_8h.html" target="_top" xlink:title="Interface for parameters.">
<polygon fill="white" stroke="#666666" points="650.56,-239 591.56,-239 591.56,-220 650.56,-220 650.56,-239"/>
<text text-anchor="middle" x="621.06" y="-227" font-family="Helvetica,sans-Serif" font-size="10.00">IParam.h</text>
</a>
</g>
</g>
<!-- Node1&#45;&gt;Node7 -->
<g id="edge58_Node000001_Node000007" class="edge">
<title>Node1&#45;&gt;Node7</title>
<g id="a_edge58_Node000001_Node000007"><a xlink:title=" ">
<path fill="none" stroke="#63b8ff" d="M293.58,-439.98C364.19,-394.81 537.44,-283.99 598.95,-244.64"/>
<polygon fill="#63b8ff" stroke="#63b8ff" points="600.98,-247.5 607.51,-239.16 597.2,-241.61 600.98,-247.5"/>
</a>
</g>
</g>
<!-- Node4&#45;&gt;Node3 -->
<g id="edge54_Node000004_Node000003" class="edge">
<title>Node4&#45;&gt;Node3</title>
<g id="a_edge54_Node000004_Node000003"><a xlink:title=" ">
<path fill="none" stroke="#63b8ff" d="M801.02,-386.09C766.61,-376.34 718.38,-357.21 738.06,-330 820.89,-215.5 1040.06,-371.82 1040.06,-230.5 1040.06,-230.5 1040.06,-230.5 1040.06,-118.5 1040.06,-87.19 1040.06,-50.77 1040.06,-29.23"/>
<polygon fill="#63b8ff" stroke="#63b8ff" points="1043.56,-29.18 1040.06,-19.18 1036.56,-29.18 1043.56,-29.18"/>
</a>
</g>
</g>
<!-- Node4&#45;&gt;Node5 -->
<g id="edge4_Node000004_Node000005" class="edge">
<title>Node4&#45;&gt;Node5</title>
<g id="a_edge4_Node000004_Node000005"><a xlink:title=" ">
<path fill="none" stroke="#63b8ff" d="M800.66,-390.57C706.22,-381.78 424.36,-355.52 311.03,-344.97"/>
<polygon fill="#63b8ff" stroke="#63b8ff" points="311.2,-341.47 300.92,-344.03 310.55,-348.44 311.2,-341.47"/>
</a>
</g>
</g>
<!-- Node4&#45;&gt;Node7 -->
<g id="edge46_Node000004_Node000007" class="edge">
<title>Node4&#45;&gt;Node7</title>
<g id="a_edge46_Node000004_Node000007"><a xlink:title=" ">
<path fill="none" stroke="#63b8ff" d="M801.06,-388.34C773.41,-382.51 732.96,-370.85 704.06,-349 667.96,-321.71 641.56,-274.14 629.09,-248.35"/>
<polygon fill="#63b8ff" stroke="#63b8ff" points="632.14,-246.62 624.74,-239.04 625.8,-249.58 632.14,-246.62"/>
</a>
</g>
</g>
<!-- Node14 -->
<g id="Node000014" class="node">
<title>Node14</title>
<g id="a_Node000014"><a xlink:title=" ">
<polygon fill="#e0e0e0" stroke="#999999" points="392.56,-129 273.56,-129 273.56,-110 392.56,-110 392.56,-129"/>
<text text-anchor="middle" x="333.06" y="-117" font-family="Helvetica,sans-Serif" font-size="10.00">interface/device.pb.h</text>
</a>
</g>
</g>
<!-- Node4&#45;&gt;Node14 -->
<g id="edge53_Node000004_Node000014" class="edge">
<title>Node4&#45;&gt;Node14</title>
<g id="a_edge53_Node000004_Node000014"><a xlink:title=" ">
<path fill="none" stroke="#63b8ff" d="M800.77,-391.85C706.09,-386.01 429.06,-362.37 429.06,-285.5 429.06,-285.5 429.06,-285.5 429.06,-228.5 429.06,-185.72 386.45,-152.01 358.01,-134.27"/>
<polygon fill="#63b8ff" stroke="#63b8ff" points="359.72,-131.21 349.34,-129.08 356.13,-137.22 359.72,-131.21"/>
</a>
</g>
</g>
<!-- Node25 -->
<g id="Node000025" class="node">
<title>Node25</title>
<g id="a_Node000025"><a xlink:href="Path_8h.html" target="_top" xlink:title="Handles Path objects used to uniquely identify and access OIDs.">
<polygon fill="white" stroke="#666666" points="1159.56,-184 1112.56,-184 1112.56,-165 1159.56,-165 1159.56,-184"/>
<text text-anchor="middle" x="1136.06" y="-172" font-family="Helvetica,sans-Serif" font-size="10.00">Path.h</text>
</a>
</g>
</g>
<!-- Node4&#45;&gt;Node25 -->
<g id="edge45_Node000004_Node000025" class="edge">
<title>Node4&#45;&gt;Node25</title>
<g id="a_edge45_Node000004_Node000025"><a xlink:title=" ">
<path fill="none" stroke="#63b8ff" d="M863.29,-390.4C898.76,-385.77 957.36,-374.64 1001.06,-349 1065.47,-311.2 1110.29,-229.81 1127.84,-193.56"/>
<polygon fill="#63b8ff" stroke="#63b8ff" points="1131.14,-194.77 1132.23,-184.23 1124.8,-191.79 1131.14,-194.77"/>
</a>
</g>
</g>
<!-- Node27 -->
<g id="Node000027" class="node">
<title>Node27</title>
<g id="a_Node000027"><a xlink:title=" ">
<polygon fill="#e0e0e0" stroke="#999999" points="1377.56,-129 1330.56,-129 1330.56,-110 1377.56,-110 1377.56,-129"/>
<text text-anchor="middle" x="1354.06" y="-117" font-family="Helvetica,sans-Serif" font-size="10.00">vector</text>
</a>
</g>
</g>
<!-- Node4&#45;&gt;Node27 -->
<g id="edge55_Node000004_Node000027" class="edge">
<title>Node4&#45;&gt;Node27</title>
<g id="a_edge55_Node000004_Node000027"><a xlink:title=" ">
<path fill="none" stroke="#63b8ff" d="M863.28,-392.53C963.57,-388.57 1271.06,-369.58 1271.06,-285.5 1271.06,-285.5 1271.06,-285.5 1271.06,-228.5 1271.06,-188.1 1308.03,-153.52 1332.62,-134.99"/>
<polygon fill="#63b8ff" stroke="#63b8ff" points="1334.68,-137.82 1340.72,-129.12 1330.57,-132.15 1334.68,-137.82"/>
</a>
</g>
</g>
<!-- Node30 -->
<g id="Node000030" class="node">
<title>Node30</title>
<g id="a_Node000030"><a xlink:href="Status_8h.html" target="_top" xlink:title="Communicates failure status using gRPC&#39;s codes.">
<polygon fill="white" stroke="#666666" points="972.06,-184 916.06,-184 916.06,-165 972.06,-165 972.06,-184"/>
<text text-anchor="middle" x="944.06" y="-172" font-family="Helvetica,sans-Serif" font-size="10.00">Status.h</text>
</a>
</g>
</g>
<!-- Node4&#45;&gt;Node30 -->
<g id="edge51_Node000004_Node000030" class="edge">
<title>Node4&#45;&gt;Node30</title>
<g id="a_edge51_Node000004_Node000030"><a xlink:title=" ">
<path fill="none" stroke="#63b8ff" d="M863.26,-394.38C898.79,-393.49 955.48,-385.88 983.06,-349 1018.9,-301.07 978.09,-226.23 956.17,-192.73"/>
<polygon fill="#63b8ff" stroke="#63b8ff" points="958.83,-190.41 950.32,-184.08 953.03,-194.33 958.83,-190.41"/>
</a>
</g>
</g>
<!-- Node34 -->
<g id="Node000034" class="node">
<title>Node34</title>
<g id="a_Node000034"><a xlink:href="ILanguagePack_8h.html" target="_top" xlink:title="Interface for language packs.">
<polygon fill="white" stroke="#666666" points="1204.06,-74 1106.06,-74 1106.06,-55 1204.06,-55 1204.06,-74"/>
<text text-anchor="middle" x="1155.06" y="-62" font-family="Helvetica,sans-Serif" font-size="10.00">ILanguagePack.h</text>
</a>
</g>
</g>
<!-- Node4&#45;&gt;Node34 -->
<g id="edge47_Node000004_Node000034" class="edge">
<title>Node4&#45;&gt;Node34</title>
<g id="a_edge47_Node000004_Node000034"><a xlink:title=" ">
<path fill="none" stroke="#63b8ff" d="M863.11,-392.47C930.54,-389.71 1095.12,-380.08 1229.06,-349 1310.47,-330.11 1406.06,-369.08 1406.06,-285.5 1406.06,-285.5 1406.06,-285.5 1406.06,-173.5 1406.06,-144.04 1408.92,-129.75 1387.06,-110 1380.6,-104.16 1280.66,-86.5 1214.08,-75.26"/>
<polygon fill="#63b8ff" stroke="#63b8ff" points="1214.55,-71.79 1204.11,-73.58 1213.39,-78.69 1214.55,-71.79"/>
</a>
</g>
</g>
<!-- Node35 -->
<g id="Node000035" class="node">
<title>Node35</title>
<g id="a_Node000035"><a xlink:title=" ">
<polygon fill="#e0e0e0" stroke="#999999" points="827.56,-349 746.56,-349 746.56,-330 827.56,-330 827.56,-349"/>
<text text-anchor="middle" x="787.06" y="-337" font-family="Helvetica,sans-Serif" font-size="10.00">vdk/signals.h</text>
</a>
</g>
</g>
<!-- Node4&#45;&gt;Node35 -->
<g id="edge52_Node000004_Node000035" class="edge">
<title>Node4&#45;&gt;Node35</title>
<g id="a_edge52_Node000004_Node000035"><a xlink:title=" ">
<path fill="none" stroke="#63b8ff" d="M824.63,-384.75C818.21,-377.18 808.75,-366.05 800.94,-356.84"/>
<polygon fill="#63b8ff" stroke="#63b8ff" points="803.49,-354.45 794.35,-349.09 798.16,-358.98 803.49,-354.45"/>
</a>
</g>
</g>
<!-- Node36 -->
<g id="Node000036" class="node">
<title>Node36</title>
<g id="a_Node000036"><a xlink:title=" ">
<polygon fill="#e0e0e0" stroke="#999999" points="908.06,-349 846.06,-349 846.06,-330 908.06,-330 908.06,-349"/>
<text text-anchor="middle" x="877.06" y="-337" font-family="Helvetica,sans-Serif" font-size="10.00">coroutine</text>
</a>
</g>
</g>
<!-- Node4&#45;&gt;Node36 -->
<g id="edge56_Node000004_Node000036" class="edge">
<title>Node4&#45;&gt;Node36</title>
<g id="a_edge56_Node000004_Node000036"><a xlink:title=" ">
<path fill="none" stroke="#63b8ff" d="M839.49,-384.75C845.91,-377.18 855.37,-366.05 863.18,-356.84"/>
<polygon fill="#63b8ff" stroke="#63b8ff" points="865.96,-358.98 869.77,-349.09 860.63,-354.45 865.96,-358.98"/>
</a>
</g>
</g>
<!-- Node37 -->
<g id="Node000037" class="node">
<title>Node37</title>
<g id="a_Node000037"><a xlink:title=" ">
<polygon fill="#e0e0e0" stroke="#999999" points="974.06,-349 926.06,-349 926.06,-330 974.06,-330 974.06,-349"/>
<text text-anchor="middle" x="950.06" y="-337" font-family="Helvetica,sans-Serif" font-size="10.00">mutex</text>
</a>
</g>
</g>
<!-- Node4&#45;&gt;Node37 -->
<g id="edge57_Node000004_Node000037" class="edge">
<title>Node4&#45;&gt;Node37</title>
<g id="a_edge57_Node000004_Node000037"><a xlink:title=" ">
<path fill="none" stroke="#63b8ff" d="M851.02,-384.98C870.09,-376.42 899.72,-363.11 921.61,-353.28"/>
<polygon fill="#63b8ff" stroke="#63b8ff" points="923.07,-356.46 930.76,-349.17 920.2,-350.07 923.07,-356.46"/>
</a>
</g>
</g>
<!-- Node5&#45;&gt;Node2 -->
<g id="edge44_Node000005_Node000002" class="edge">
<title>Node5&#45;&gt;Node2</title>
<g id="a_edge44_Node000005_Node000002"><a xlink:title=" ">
<path fill="none" stroke="#63b8ff" d="M234.37,-329.97C207,-321.78 164.41,-308.86 118.92,-294.21"/>
<polygon fill="#63b8ff" stroke="#63b8ff" points="119.77,-290.81 109.17,-291.06 117.61,-297.47 119.77,-290.81"/>
</a>
</g>
</g>
<!-- Node6 -->
<g id="Node000006" class="node">
<title>Node6</title>
<g id="a_Node000006"><a xlink:href="IAuthorizer_8h.html" target="_top" xlink:title="Interface for the Authorizer class.">
<polygon fill="white" stroke="#666666" points="205.06,-294 127.06,-294 127.06,-275 205.06,-275 205.06,-294"/>
<text text-anchor="middle" x="166.06" y="-282" font-family="Helvetica,sans-Serif" font-size="10.00">IAuthorizer.h</text>
</a>
</g>
</g>
<!-- Node5&#45;&gt;Node6 -->
<g id="edge5_Node000005_Node000006" class="edge">
<title>Node5&#45;&gt;Node6</title>
<g id="a_edge5_Node000005_Node000006"><a xlink:title=" ">
<path fill="none" stroke="#63b8ff" d="M247.47,-329.98C232.29,-321.69 208.96,-308.94 191.16,-299.22"/>
<polygon fill="#63b8ff" stroke="#63b8ff" points="192.38,-295.89 181.93,-294.17 189.03,-302.04 192.38,-295.89"/>
</a>
</g>
</g>
<!-- Node20 -->
<g id="Node000020" class="node">
<title>Node20</title>
<g id="a_Node000020"><a xlink:title=" ">
<polygon fill="#e0e0e0" stroke="#999999" points="460.56,-74 395.56,-74 395.56,-55 460.56,-55 460.56,-74"/>
<text text-anchor="middle" x="428.06" y="-62" font-family="Helvetica,sans-Serif" font-size="10.00">functional</text>
</a>
</g>
</g>
<!-- Node5&#45;&gt;Node20 -->
<g id="edge43_Node000005_Node000020" class="edge">
<title>Node5&#45;&gt;Node20</title>
<g id="a_edge43_Node000005_Node000020"><a xlink:title=" ">
<path fill="none" stroke="#63b8ff" d="M278.19,-329.73C289.87,-321.99 305.18,-309.55 312.06,-294 315.48,-286.28 313.4,-283.34 312.06,-275 299.98,-199.59 217.66,-170.66 264.06,-110 271.56,-100.2 339.33,-84.19 385.37,-74.29"/>
<polygon fill="#63b8ff" stroke="#63b8ff" points="386.36,-77.66 395.41,-72.15 384.9,-70.81 386.36,-77.66"/>
</a>
</g>
</g>
<!-- Node33 -->
<g id="Node000033" class="node">
<title>Node33</title>
<g id="a_Node000033"><a xlink:title=" ">
<polygon fill="#e0e0e0" stroke="#999999" points="303.06,-294 223.06,-294 223.06,-275 303.06,-275 303.06,-294"/>
<text text-anchor="middle" x="263.06" y="-282" font-family="Helvetica,sans-Serif" font-size="10.00">jwt&#45;cpp/jwt.h</text>
</a>
</g>
</g>
<!-- Node5&#45;&gt;Node33 -->
<g id="edge42_Node000005_Node000033" class="edge">
<title>Node5&#45;&gt;Node33</title>
<g id="a_edge42_Node000005_Node000033"><a xlink:title=" ">
<path fill="none" stroke="#63b8ff" d="M263.06,-329.75C263.06,-322.8 263.06,-312.85 263.06,-304.13"/>
<polygon fill="#63b8ff" stroke="#63b8ff" points="266.56,-304.09 263.06,-294.09 259.56,-304.09 266.56,-304.09"/>
</a>
</g>
</g>
<!-- Node6&#45;&gt;Node7 -->
<g id="edge6_Node000006_Node000007" class="edge">
<title>Node6&#45;&gt;Node7</title>
<g id="a_edge6_Node000006_Node000007"><a xlink:title=" ">
<path fill="none" stroke="#63b8ff" d="M205.32,-276.33C208.27,-275.86 211.21,-275.41 214.06,-275 348.19,-255.81 508.24,-240.53 581.23,-233.97"/>
<polygon fill="#63b8ff" stroke="#63b8ff" points="581.71,-237.44 591.36,-233.07 581.08,-230.47 581.71,-237.44"/>
</a>
</g>
</g>
<!-- Node8 -->
<g id="Node000008" class="node">
<title>Node8</title>
<g id="a_Node000008"><a xlink:href="Enums_8h.html" target="_top" xlink:title="tools for using EnumDecorators.">
<polygon fill="white" stroke="#666666" points="195.56,-184 136.56,-184 136.56,-165 195.56,-165 195.56,-184"/>
<text text-anchor="middle" x="166.06" y="-172" font-family="Helvetica,sans-Serif" font-size="10.00">Enums.h</text>
</a>
</g>
</g>
<!-- Node6&#45;&gt;Node8 -->
<g id="edge41_Node000006_Node000008" class="edge">
<title>Node6&#45;&gt;Node8</title>
<g id="a_edge41_Node000006_Node000008"><a xlink:title=" ">
<path fill="none" stroke="#63b8ff" d="M166.06,-274.66C166.06,-257.17 166.06,-217.8 166.06,-194.27"/>
<polygon fill="#63b8ff" stroke="#63b8ff" points="169.56,-194.16 166.06,-184.16 162.56,-194.16 169.56,-194.16"/>
</a>
</g>
</g>
<!-- Node18 -->
<g id="Node000018" class="node">
<title>Node18</title>
<g id="a_Node000018"><a xlink:href="IParamDescriptor_8h.html" target="_top" xlink:title="Interface class for ParamDescriptor.">
<polygon fill="white" stroke="#666666" points="573.56,-184 464.56,-184 464.56,-165 573.56,-165 573.56,-184"/>
<text text-anchor="middle" x="519.06" y="-172" font-family="Helvetica,sans-Serif" font-size="10.00">IParamDescriptor.h</text>
</a>
</g>
</g>
<!-- Node6&#45;&gt;Node18 -->
<g id="edge40_Node000006_Node000018" class="edge">
<title>Node6&#45;&gt;Node18</title>
<g id="a_edge40_Node000006_Node000018"><a xlink:title=" ">
<path fill="none" stroke="#63b8ff" d="M194.05,-274.94C257,-255.68 409.77,-208.94 481.14,-187.1"/>
<polygon fill="#63b8ff" stroke="#63b8ff" points="482.52,-190.34 491.06,-184.07 480.48,-183.64 482.52,-190.34"/>
</a>
</g>
</g>
<!-- Node7&#45;&gt;Node8 -->
<g id="edge7_Node000007_Node000008" class="edge">
<title>Node7&#45;&gt;Node8</title>
<g id="a_edge7_Node000007_Node000008"><a xlink:title=" ">
<path fill="none" stroke="#63b8ff" d="M591.56,-225.06C512.47,-215.85 295.67,-190.6 205.85,-180.13"/>
<polygon fill="#63b8ff" stroke="#63b8ff" points="206.13,-176.64 195.79,-178.96 205.32,-183.6 206.13,-176.64"/>
</a>
</g>
</g>
<!-- Node15 -->
<g id="Node000015" class="node">
<title>Node15</title>
<g id="a_Node000015"><a xlink:href="IConstraint_8h.html" target="_top" xlink:title="Interface for constraints.">
<polygon fill="white" stroke="#666666" points="728.56,-184 649.56,-184 649.56,-165 728.56,-165 728.56,-184"/>
<text text-anchor="middle" x="689.06" y="-172" font-family="Helvetica,sans-Serif" font-size="10.00">IConstraint.h</text>
</a>
</g>
</g>
<!-- Node7&#45;&gt;Node15 -->
<g id="edge16_Node000007_Node000015" class="edge">
<title>Node7&#45;&gt;Node15</title>
<g id="a_edge16_Node000007_Node000015"><a xlink:title=" ">
<path fill="none" stroke="#63b8ff" d="M631.99,-219.98C642.14,-212.07 657.48,-200.11 669.71,-190.58"/>
<polygon fill="#63b8ff" stroke="#63b8ff" points="672.2,-193.08 677.94,-184.17 667.9,-187.56 672.2,-193.08"/>
</a>
</g>
</g>
<!-- Node16 -->
<g id="Node000016" class="node">
<title>Node16</title>
<g id="a_Node000016"><a xlink:title=" ">
<polygon fill="#e0e0e0" stroke="#999999" points="699.56,-129 580.56,-129 580.56,-110 699.56,-110 699.56,-129"/>
<text text-anchor="middle" x="640.06" y="-117" font-family="Helvetica,sans-Serif" font-size="10.00">interface/param.pb.h</text>
</a>
</g>
</g>
<!-- Node7&#45;&gt;Node16 -->
<g id="edge39_Node000007_Node000016" class="edge">
<title>Node7&#45;&gt;Node16</title>
<g id="a_edge39_Node000007_Node000016"><a xlink:title=" ">
<path fill="none" stroke="#63b8ff" d="M622.61,-219.66C625.69,-202.17 632.62,-162.8 636.76,-139.27"/>
<polygon fill="#63b8ff" stroke="#63b8ff" points="640.25,-139.61 638.54,-129.16 633.36,-138.4 640.25,-139.61"/>
</a>
</g>
</g>
<!-- Node7&#45;&gt;Node18 -->
<g id="edge19_Node000007_Node000018" class="edge">
<title>Node7&#45;&gt;Node18</title>
<g id="a_edge19_Node000007_Node000018"><a xlink:title=" ">
<path fill="none" stroke="#63b8ff" d="M604.67,-219.98C588.48,-211.57 563.49,-198.59 544.68,-188.81"/>
<polygon fill="#63b8ff" stroke="#63b8ff" points="546.23,-185.68 535.75,-184.17 543.01,-191.89 546.23,-185.68"/>
</a>
</g>
</g>
<!-- Node7&#45;&gt;Node25 -->
<g id="edge30_Node000007_Node000025" class="edge">
<title>Node7&#45;&gt;Node25</title>
<g id="a_edge30_Node000007_Node000025"><a xlink:title=" ">
<path fill="none" stroke="#63b8ff" d="M650.6,-225.46C740.02,-216.26 1007.45,-188.74 1102.27,-178.98"/>
<polygon fill="#63b8ff" stroke="#63b8ff" points="1102.85,-182.44 1112.44,-177.93 1102.14,-175.47 1102.85,-182.44"/>
</a>
</g>
</g>
<!-- Node7&#45;&gt;Node30 -->
<g id="edge36_Node000007_Node000030" class="edge">
<title>Node7&#45;&gt;Node30</title>
<g id="a_edge36_Node000007_Node000030"><a xlink:title=" ">
<path fill="none" stroke="#63b8ff" d="M650.58,-223.66C709.27,-214.03 840.55,-192.48 905.77,-181.78"/>
<polygon fill="#63b8ff" stroke="#63b8ff" points="906.35,-185.23 915.65,-180.16 905.22,-178.33 906.35,-185.23"/>
</a>
</g>
</g>
<!-- Node9 -->
<g id="Node000009" class="node">
<title>Node9</title>
<g id="a_Node000009"><a xlink:href="EnumDecorator_8h.html" target="_top" xlink:title="Provides an enum with useful extra functionality.">
<polygon fill="white" stroke="#666666" points="217.06,-129 73.06,-129 73.06,-110 217.06,-110 217.06,-129"/>
<text text-anchor="middle" x="145.06" y="-117" font-family="Helvetica,sans-Serif" font-size="10.00">patterns/EnumDecorator.h</text>
</a>
</g>
</g>
<!-- Node8&#45;&gt;Node9 -->
<g id="edge8_Node000008_Node000009" class="edge">
<title>Node8&#45;&gt;Node9</title>
<g id="a_edge8_Node000008_Node000009"><a xlink:title=" ">
<path fill="none" stroke="#63b8ff" d="M162.59,-164.75C159.78,-157.65 155.72,-147.4 152.21,-138.56"/>
<polygon fill="#63b8ff" stroke="#63b8ff" points="155.4,-137.1 148.46,-129.09 148.89,-139.68 155.4,-137.1"/>
</a>
</g>
</g>
<!-- Node11 -->
<g id="Node000011" class="node">
<title>Node11</title>
<g id="a_Node000011"><a xlink:title=" ">
<polygon fill="#e0e0e0" stroke="#999999" points="79.06,-74 29.06,-74 29.06,-55 79.06,-55 79.06,-74"/>
<text text-anchor="middle" x="54.06" y="-62" font-family="Helvetica,sans-Serif" font-size="10.00">cstdint</text>
</a>
</g>
</g>
<!-- Node8&#45;&gt;Node11 -->
<g id="edge15_Node000008_Node000011" class="edge">
<title>Node8&#45;&gt;Node11</title>
<g id="a_edge15_Node000008_Node000011"><a xlink:title=" ">
<path fill="none" stroke="#63b8ff" d="M136.25,-168.5C112.9,-162.97 81.54,-151.63 64.06,-129 54.36,-116.44 52.35,-98.25 52.48,-84.55"/>
<polygon fill="#63b8ff" stroke="#63b8ff" points="55.99,-84.48 52.97,-74.32 48.99,-84.14 55.99,-84.48"/>
</a>
</g>
</g>
<!-- Node8&#45;&gt;Node14 -->
<g id="edge14_Node000008_Node000014" class="edge">
<title>Node8&#45;&gt;Node14</title>
<g id="a_edge14_Node000008_Node000014"><a xlink:title=" ">
<path fill="none" stroke="#63b8ff" d="M192.89,-164.98C220.93,-156.09 265.11,-142.07 296.36,-132.15"/>
<polygon fill="#63b8ff" stroke="#63b8ff" points="297.55,-135.44 306.02,-129.08 295.43,-128.77 297.55,-135.44"/>
</a>
</g>
</g>
<!-- Node9&#45;&gt;Node3 -->
<g id="edge12_Node000009_Node000003" class="edge">
<title>Node9&#45;&gt;Node3</title>
<g id="a_edge12_Node000009_Node000003"><a xlink:title=" ">
<path fill="none" stroke="#63b8ff" d="M179.49,-109.97C211.91,-101.68 261.68,-88.27 304.06,-74 325.8,-66.68 329.67,-60.02 352.06,-55 479.47,-26.41 889.47,-14.23 1007.8,-11.25"/>
<polygon fill="#63b8ff" stroke="#63b8ff" points="1008.11,-14.75 1018.02,-11 1007.93,-7.75 1008.11,-14.75"/>
</a>
</g>
</g>
<!-- Node10 -->
<g id="Node000010" class="node">
<title>Node10</title>
<g id="a_Node000010"><a xlink:href="ReflectionMacros_8h.html" target="_top" xlink:title="adapted from https://github.com/tapika/TestCppReflect">
<polygon fill="white" stroke="#666666" points="207.06,-74 97.06,-74 97.06,-55 207.06,-55 207.06,-74"/>
<text text-anchor="middle" x="152.06" y="-62" font-family="Helvetica,sans-Serif" font-size="10.00">ReflectionMacros.h</text>
</a>
</g>
</g>
<!-- Node9&#45;&gt;Node10 -->
<g id="edge9_Node000009_Node000010" class="edge">
<title>Node9&#45;&gt;Node10</title>
<g id="a_edge9_Node000009_Node000010"><a xlink:title=" ">
<path fill="none" stroke="#63b8ff" d="M146.22,-109.75C147.13,-102.8 148.45,-92.85 149.6,-84.13"/>
<polygon fill="#63b8ff" stroke="#63b8ff" points="153.09,-84.46 150.93,-74.09 146.15,-83.54 153.09,-84.46"/>
</a>
</g>
</g>
<!-- Node9&#45;&gt;Node11 -->
<g id="edge10_Node000009_Node000011" class="edge">
<title>Node9&#45;&gt;Node11</title>
<g id="a_edge10_Node000009_Node000011"><a xlink:title=" ">
<path fill="none" stroke="#63b8ff" d="M130.44,-109.98C116.2,-101.69 94.31,-88.94 77.61,-79.22"/>
<polygon fill="#63b8ff" stroke="#63b8ff" points="79.35,-76.18 68.95,-74.17 75.83,-82.23 79.35,-76.18"/>
</a>
</g>
</g>
<!-- Node12 -->
<g id="Node000012" class="node">
<title>Node12</title>
<g id="a_Node000012"><a xlink:title=" ">
<polygon fill="#e0e0e0" stroke="#999999" points="1177.56,-19 1084.56,-19 1084.56,0 1177.56,0 1177.56,-19"/>
<text text-anchor="middle" x="1131.06" y="-7" font-family="Helvetica,sans-Serif" font-size="10.00">unordered_map</text>
</a>
</g>
</g>
<!-- Node9&#45;&gt;Node12 -->
<g id="edge11_Node000009_Node000012" class="edge">
<title>Node9&#45;&gt;Node12</title>
<g id="a_edge11_Node000009_Node000012"><a xlink:title=" ">
<path fill="none" stroke="#63b8ff" d="M193.87,-109.97C234.14,-102.35 292.49,-89.93 342.06,-74 362.73,-67.36 365.9,-59.87 387.06,-55 683.74,13.23 768.06,-48.38 1071.06,-19 1072.13,-18.9 1073.22,-18.79 1074.31,-18.67"/>
<polygon fill="#63b8ff" stroke="#63b8ff" points="1074.73,-22.15 1084.27,-17.53 1073.94,-15.19 1074.73,-22.15"/>
</a>
</g>
</g>
<!-- Node13 -->
<g id="Node000013" class="node">
<title>Node13</title>
<g id="a_Node000013"><a xlink:title=" ">
<polygon fill="#e0e0e0" stroke="#999999" points="294.56,-74 225.56,-74 225.56,-55 294.56,-55 294.56,-74"/>
<text text-anchor="middle" x="260.06" y="-62" font-family="Helvetica,sans-Serif" font-size="10.00">type_traits</text>
</a>
</g>
</g>
<!-- Node9&#45;&gt;Node13 -->
<g id="edge13_Node000009_Node000013" class="edge">
<title>Node9&#45;&gt;Node13</title>
<g id="a_edge13_Node000009_Node000013"><a xlink:title=" ">
<path fill="none" stroke="#63b8ff" d="M163.54,-109.98C182.04,-101.46 210.74,-88.23 232.04,-78.41"/>
<polygon fill="#63b8ff" stroke="#63b8ff" points="233.63,-81.53 241.25,-74.17 230.7,-75.18 233.63,-81.53"/>
</a>
</g>
</g>
<!-- Node15&#45;&gt;Node16 -->
<g id="edge17_Node000015_Node000016" class="edge">
<title>Node15&#45;&gt;Node16</title>
<g id="a_edge17_Node000015_Node000016"><a xlink:title=" ">
<path fill="none" stroke="#63b8ff" d="M680.97,-164.75C673.9,-157.11 663.47,-145.82 654.91,-136.56"/>
<polygon fill="#63b8ff" stroke="#63b8ff" points="657.36,-134.06 648,-129.09 652.22,-138.81 657.36,-134.06"/>
</a>
</g>
</g>
<!-- Node17 -->
<g id="Node000017" class="node">
<title>Node17</title>
<g id="a_Node000017"><a xlink:title=" ">
<polygon fill="#e0e0e0" stroke="#999999" points="854.06,-129 718.06,-129 718.06,-110 854.06,-110 854.06,-129"/>
<text text-anchor="middle" x="786.06" y="-117" font-family="Helvetica,sans-Serif" font-size="10.00">interface/constraint.pb.h</text>
</a>
</g>
</g>
<!-- Node15&#45;&gt;Node17 -->
<g id="edge18_Node000015_Node000017" class="edge">
<title>Node15&#45;&gt;Node17</title>
<g id="a_edge18_Node000015_Node000017"><a xlink:title=" ">
<path fill="none" stroke="#63b8ff" d="M704.64,-164.98C719.83,-156.69 743.16,-143.94 760.96,-134.22"/>
<polygon fill="#63b8ff" stroke="#63b8ff" points="763.09,-137.04 770.19,-129.17 759.74,-130.89 763.09,-137.04"/>
</a>
</g>
</g>
<!-- Node18&#45;&gt;Node16 -->
<g id="edge29_Node000018_Node000016" class="edge">
<title>Node18&#45;&gt;Node16</title>
<g id="a_edge29_Node000018_Node000016"><a xlink:title=" ">
<path fill="none" stroke="#63b8ff" d="M538.5,-164.98C558.05,-156.42 588.44,-143.11 610.88,-133.28"/>
<polygon fill="#63b8ff" stroke="#63b8ff" points="612.51,-136.39 620.27,-129.17 609.7,-129.98 612.51,-136.39"/>
</a>
</g>
</g>
<!-- Node19 -->
<g id="Node000019" class="node">
<title>Node19</title>
<g id="a_Node000019"><a xlink:href="Tags_8h.html" target="_top" xlink:title="Tags to differentiate collections with the same type for template specialization.">
<polygon fill="white" stroke="#666666" points="457.56,-129 410.56,-129 410.56,-110 457.56,-110 457.56,-129"/>
<text text-anchor="middle" x="434.06" y="-117" font-family="Helvetica,sans-Serif" font-size="10.00">Tags.h</text>
</a>
</g>
</g>
<!-- Node18&#45;&gt;Node19 -->
<g id="edge20_Node000018_Node000019" class="edge">
<title>Node18&#45;&gt;Node19</title>
<g id="a_edge20_Node000018_Node000019"><a xlink:title=" ">
<path fill="none" stroke="#63b8ff" d="M505.4,-164.98C492.22,-156.77 472.03,-144.18 456.49,-134.49"/>
<polygon fill="#63b8ff" stroke="#63b8ff" points="458.3,-131.49 447.96,-129.17 454.6,-137.43 458.3,-131.49"/>
</a>
</g>
</g>
<!-- Node21 -->
<g id="Node000021" class="node">
<title>Node21</title>
<g id="a_Node000021"><a xlink:href="PolyglotText_8h.html" target="_top" xlink:title="Polyglot Text serialization and deserialization to protobuf.">
<polygon fill="white" stroke="#666666" points="562.06,-129 476.06,-129 476.06,-110 562.06,-110 562.06,-129"/>
<text text-anchor="middle" x="519.06" y="-117" font-family="Helvetica,sans-Serif" font-size="10.00">PolyglotText.h</text>
</a>
</g>
</g>
<!-- Node18&#45;&gt;Node21 -->
<g id="edge23_Node000018_Node000021" class="edge">
<title>Node18&#45;&gt;Node21</title>
<g id="a_edge23_Node000018_Node000021"><a xlink:title=" ">
<path fill="none" stroke="#63b8ff" d="M519.06,-164.75C519.06,-157.8 519.06,-147.85 519.06,-139.13"/>
<polygon fill="#63b8ff" stroke="#63b8ff" points="522.56,-139.09 519.06,-129.09 515.56,-139.09 522.56,-139.09"/>
</a>
</g>
</g>
<!-- Node19&#45;&gt;Node3 -->
<g id="edge22_Node000019_Node000003" class="edge">
<title>Node19&#45;&gt;Node3</title>
<g id="a_edge22_Node000019_Node000003"><a xlink:title=" ">
<path fill="none" stroke="#63b8ff" d="M457.8,-112.14C460.9,-111.38 464.05,-110.65 467.06,-110 671.49,-66 920.19,-28.07 1007.72,-15.19"/>
<polygon fill="#63b8ff" stroke="#63b8ff" points="1008.43,-18.62 1017.81,-13.71 1007.41,-11.69 1008.43,-18.62"/>
</a>
</g>
</g>
<!-- Node19&#45;&gt;Node20 -->
<g id="edge21_Node000019_Node000020" class="edge">
<title>Node19&#45;&gt;Node20</title>
<g id="a_edge21_Node000019_Node000020"><a xlink:title=" ">
<path fill="none" stroke="#63b8ff" d="M433.07,-109.75C432.28,-102.8 431.16,-92.85 430.17,-84.13"/>
<polygon fill="#63b8ff" stroke="#63b8ff" points="433.63,-83.63 429.03,-74.09 426.68,-84.42 433.63,-83.63"/>
</a>
</g>
</g>
<!-- Node22 -->
<g id="Node000022" class="node">
<title>Node22</title>
<g id="a_Node000022"><a xlink:href="IPolyglotText_8h.html" target="_top" xlink:title="Catena&#39;s multi&#45;language text interface.">
<polygon fill="white" stroke="#666666" points="1311.56,-74 1222.56,-74 1222.56,-55 1311.56,-55 1311.56,-74"/>
<text text-anchor="middle" x="1267.06" y="-62" font-family="Helvetica,sans-Serif" font-size="10.00">IPolyglotText.h</text>
</a>
</g>
</g>
<!-- Node21&#45;&gt;Node22 -->
<g id="edge24_Node000021_Node000022" class="edge">
<title>Node21&#45;&gt;Node22</title>
<g id="a_edge24_Node000021_Node000022"><a xlink:title=" ">
<path fill="none" stroke="#63b8ff" d="M562.11,-111.22C565.47,-110.76 568.82,-110.35 572.06,-110 852.42,-79.73 927.57,-103.65 1212.11,-73.97"/>
<polygon fill="#63b8ff" stroke="#63b8ff" points="1212.74,-77.43 1222.32,-72.9 1212,-70.47 1212.74,-77.43"/>
</a>
</g>
</g>
<!-- Node22&#45;&gt;Node3 -->
<g id="edge27_Node000022_Node000003" class="edge">
<title>Node22&#45;&gt;Node3</title>
<g id="a_edge27_Node000022_Node000003"><a xlink:title=" ">
<path fill="none" stroke="#63b8ff" d="M1230.08,-54.92C1191.6,-45.98 1129.59,-31.56 1076.06,-19 1074.79,-18.7 1073.5,-18.4 1072.2,-18.09"/>
<polygon fill="#63b8ff" stroke="#63b8ff" points="1072.68,-14.61 1062.14,-15.72 1071.07,-21.42 1072.68,-14.61"/>
</a>
</g>
</g>
<!-- Node22&#45;&gt;Node12 -->
<g id="edge26_Node000022_Node000012" class="edge">
<title>Node22&#45;&gt;Node12</title>
<g id="a_edge26_Node000022_Node000012"><a xlink:title=" ">
<path fill="none" stroke="#63b8ff" d="M1245.21,-54.98C1222.94,-46.3 1188.16,-32.75 1162.84,-22.88"/>
<polygon fill="#63b8ff" stroke="#63b8ff" points="1163.9,-19.54 1153.31,-19.17 1161.35,-26.06 1163.9,-19.54"/>
</a>
</g>
</g>
<!-- Node23 -->
<g id="Node000023" class="node">
<title>Node23</title>
<g id="a_Node000023"><a xlink:title=" ">
<polygon fill="#e0e0e0" stroke="#999999" points="1328.06,-19 1196.06,-19 1196.06,0 1328.06,0 1328.06,-19"/>
<text text-anchor="middle" x="1262.06" y="-7" font-family="Helvetica,sans-Serif" font-size="10.00">interface/language.pb.h</text>
</a>
</g>
</g>
<!-- Node22&#45;&gt;Node23 -->
<g id="edge25_Node000022_Node000023" class="edge">
<title>Node22&#45;&gt;Node23</title>
<g id="a_edge25_Node000022_Node000023"><a xlink:title=" ">
<path fill="none" stroke="#63b8ff" d="M1266.23,-54.75C1265.58,-47.8 1264.64,-37.85 1263.82,-29.13"/>
<polygon fill="#63b8ff" stroke="#63b8ff" points="1267.29,-28.72 1262.87,-19.09 1260.32,-29.37 1267.29,-28.72"/>
</a>
</g>
</g>
<!-- Node24 -->
<g id="Node000024" class="node">
<title>Node24</title>
<g id="a_Node000024"><a xlink:title=" ">
<polygon fill="#e0e0e0" stroke="#999999" points="1429.56,-19 1346.56,-19 1346.56,0 1429.56,0 1429.56,-19"/>
<text text-anchor="middle" x="1388.06" y="-7" font-family="Helvetica,sans-Serif" font-size="10.00">initializer_list</text>
</a>
</g>
</g>
<!-- Node22&#45;&gt;Node24 -->
<g id="edge28_Node000022_Node000024" class="edge">
<title>Node22&#45;&gt;Node24</title>
<g id="a_edge28_Node000022_Node000024"><a xlink:title=" ">
<path fill="none" stroke="#63b8ff" d="M1286.5,-54.98C1306.05,-46.42 1336.44,-33.11 1358.88,-23.28"/>
<polygon fill="#63b8ff" stroke="#63b8ff" points="1360.51,-26.39 1368.27,-19.17 1357.7,-19.98 1360.51,-26.39"/>
</a>
</g>
</g>
<!-- Node25&#45;&gt;Node3 -->
<g id="edge32_Node000025_Node000003" class="edge">
<title>Node25&#45;&gt;Node3</title>
<g id="a_edge32_Node000025_Node000003"><a xlink:title=" ">
<path fill="none" stroke="#63b8ff" d="M1127.22,-164.88C1118.77,-156.32 1106.01,-142.54 1097.06,-129 1075.12,-95.8 1056.63,-52.88 1047.07,-28.86"/>
<polygon fill="#63b8ff" stroke="#63b8ff" points="1050.22,-27.3 1043.32,-19.26 1043.69,-29.85 1050.22,-27.3"/>
</a>
</g>
</g>
<!-- Node26 -->
<g id="Node000026" class="node">
<title>Node26</title>
<g id="a_Node000026"><a xlink:title=" ">
<polygon fill="#e0e0e0" stroke="#999999" points="1166.06,-129 1106.06,-129 1106.06,-110 1166.06,-110 1166.06,-129"/>
<text text-anchor="middle" x="1136.06" y="-117" font-family="Helvetica,sans-Serif" font-size="10.00">iostream</text>
</a>
</g>
</g>
<!-- Node25&#45;&gt;Node26 -->
<g id="edge31_Node000025_Node000026" class="edge">
<title>Node25&#45;&gt;Node26</title>
<g id="a_edge31_Node000025_Node000026"><a xlink:title=" ">
<path fill="none" stroke="#63b8ff" d="M1136.06,-164.75C1136.06,-157.8 1136.06,-147.85 1136.06,-139.13"/>
<polygon fill="#63b8ff" stroke="#63b8ff" points="1139.56,-139.09 1136.06,-129.09 1132.56,-139.09 1139.56,-139.09"/>
</a>
</g>
</g>
<!-- Node25&#45;&gt;Node27 -->
<g id="edge33_Node000025_Node000027" class="edge">
<title>Node25&#45;&gt;Node27</title>
<g id="a_edge33_Node000025_Node000027"><a xlink:title=" ">
<path fill="none" stroke="#63b8ff" d="M1159.74,-167.93C1193.24,-160.03 1256.62,-144.97 1320.45,-129.12"/>
<polygon fill="#63b8ff" stroke="#63b8ff" points="1321.42,-132.49 1330.28,-126.67 1319.73,-125.69 1321.42,-132.49"/>
</a>
</g>
</g>
<!-- Node28 -->
<g id="Node000028" class="node">
<title>Node28</title>
<g id="a_Node000028"><a xlink:title=" ">
<polygon fill="#e0e0e0" stroke="#999999" points="1235.56,-129 1184.56,-129 1184.56,-110 1235.56,-110 1235.56,-129"/>
<text text-anchor="middle" x="1210.06" y="-117" font-family="Helvetica,sans-Serif" font-size="10.00">variant</text>
</a>
</g>
</g>
<!-- Node25&#45;&gt;Node28 -->
<g id="edge34_Node000025_Node000028" class="edge">
<title>Node25&#45;&gt;Node28</title>
<g id="a_edge34_Node000025_Node000028"><a xlink:title=" ">
<path fill="none" stroke="#63b8ff" d="M1147.95,-164.98C1159.21,-156.92 1176.35,-144.65 1189.77,-135.03"/>
<polygon fill="#63b8ff" stroke="#63b8ff" points="1191.86,-137.84 1197.95,-129.17 1187.79,-132.15 1191.86,-137.84"/>
</a>
</g>
</g>
<!-- Node29 -->
<g id="Node000029" class="node">
<title>Node29</title>
<g id="a_Node000029"><a xlink:title=" ">
<polygon fill="#e0e0e0" stroke="#999999" points="1312.06,-129 1254.06,-129 1254.06,-110 1312.06,-110 1312.06,-129"/>
<text text-anchor="middle" x="1283.06" y="-117" font-family="Helvetica,sans-Serif" font-size="10.00">memory</text>
</a>
</g>
</g>
<!-- Node25&#45;&gt;Node29 -->
<g id="edge35_Node000025_Node000029" class="edge">
<title>Node25&#45;&gt;Node29</title>
<g id="a_edge35_Node000025_Node000029"><a xlink:title=" ">
<path fill="none" stroke="#63b8ff" d="M1159.68,-164.98C1183.96,-156.23 1222.01,-142.51 1249.43,-132.62"/>
<polygon fill="#63b8ff" stroke="#63b8ff" points="1250.79,-135.85 1259.01,-129.17 1248.42,-129.27 1250.79,-135.85"/>
</a>
</g>
</g>
<!-- Node31 -->
<g id="Node000031" class="node">
<title>Node31</title>
<g id="a_Node000031"><a xlink:title=" ">
<polygon fill="#e0e0e0" stroke="#999999" points="1012.06,-129 956.06,-129 956.06,-110 1012.06,-110 1012.06,-129"/>
<text text-anchor="middle" x="984.06" y="-117" font-family="Helvetica,sans-Serif" font-size="10.00">sstream</text>
</a>
</g>
</g>
<!-- Node30&#45;&gt;Node31 -->
<g id="edge37_Node000030_Node000031" class="edge">
<title>Node30&#45;&gt;Node31</title>
<g id="a_edge37_Node000030_Node000031"><a xlink:title=" ">
<path fill="none" stroke="#63b8ff" d="M950.66,-164.75C956.31,-157.26 964.6,-146.28 971.51,-137.13"/>
<polygon fill="#63b8ff" stroke="#63b8ff" points="974.35,-139.18 977.58,-129.09 968.76,-134.96 974.35,-139.18"/>
</a>
</g>
</g>
<!-- Node32 -->
<g id="Node000032" class="node">
<title>Node32</title>
<g id="a_Node000032"><a xlink:title=" ">
<polygon fill="#e0e0e0" stroke="#999999" points="937.56,-129 872.56,-129 872.56,-110 937.56,-110 937.56,-129"/>
<text text-anchor="middle" x="905.06" y="-117" font-family="Helvetica,sans-Serif" font-size="10.00">stdexcept</text>
</a>
</g>
</g>
<!-- Node30&#45;&gt;Node32 -->
<g id="edge38_Node000030_Node000032" class="edge">
<title>Node30&#45;&gt;Node32</title>
<g id="a_edge38_Node000030_Node000032"><a xlink:title=" ">
<path fill="none" stroke="#63b8ff" d="M937.62,-164.75C932.17,-157.34 924.19,-146.5 917.5,-137.41"/>
<polygon fill="#63b8ff" stroke="#63b8ff" points="920.13,-135.07 911.38,-129.09 914.49,-139.22 920.13,-135.07"/>
</a>
</g>
</g>
<!-- Node34&#45;&gt;Node3 -->
<g id="edge48_Node000034_Node000003" class="edge">
<title>Node34&#45;&gt;Node3</title>
<g id="a_edge48_Node000034_Node000003"><a xlink:title=" ">
<path fill="none" stroke="#63b8ff" d="M1136.58,-54.98C1118.08,-46.46 1089.38,-33.23 1068.08,-23.41"/>
<polygon fill="#63b8ff" stroke="#63b8ff" points="1069.42,-20.18 1058.87,-19.17 1066.49,-26.53 1069.42,-20.18"/>
</a>
</g>
</g>
<!-- Node34&#45;&gt;Node12 -->
<g id="edge49_Node000034_Node000012" class="edge">
<title>Node34&#45;&gt;Node12</title>
<g id="a_edge49_Node000034_Node000012"><a xlink:title=" ">
<path fill="none" stroke="#63b8ff" d="M1151.1,-54.75C1147.85,-47.57 1143.14,-37.18 1139.11,-28.27"/>
<polygon fill="#63b8ff" stroke="#63b8ff" points="1142.26,-26.75 1134.95,-19.09 1135.89,-29.64 1142.26,-26.75"/>
</a>
</g>
</g>
<!-- Node34&#45;&gt;Node23 -->
<g id="edge50_Node000034_Node000023" class="edge">
<title>Node34&#45;&gt;Node23</title>
<g id="a_edge50_Node000034_Node000023"><a xlink:title=" ">
<path fill="none" stroke="#63b8ff" d="M1172.25,-54.98C1189.31,-46.54 1215.69,-33.47 1235.45,-23.68"/>
<polygon fill="#63b8ff" stroke="#63b8ff" points="1237.15,-26.75 1244.56,-19.17 1234.04,-20.47 1237.15,-26.75"/>
</a>
</g>
</g>
</g>
</svg>
