<?xml version="1.0" encoding="UTF-8" standalone="no"?>
<!DOCTYPE svg PUBLIC "-//W3C//DTD SVG 1.1//EN"
 "http://www.w3.org/Graphics/SVG/1.1/DTD/svg11.dtd">
<!-- Generated by graphviz version 2.43.0 (0)
 -->
<!-- Title: /home/runner/work/Catena/Catena/sdks/cpp/common/include/LanguagePack.h Pages: 1 -->
<!--zoomable 330 -->
<svg id="main" version="1.1" xmlns="http://www.w3.org/2000/svg" xmlns:xlink="http://www.w3.org/1999/xlink" xml:space="preserve" onload="init(evt)">
<style type="text/css"><![CDATA[
.edge:hover path { stroke: red; }
.edge:hover polygon { stroke: red; fill: red; }
]]></style>
<script type="text/javascript"><![CDATA[
var edges = document.getElementsByTagName('g');
if (edges && edges.length) {
  for (var i=0;i<edges.length;i++) {
    if (edges[i].id.substr(0,4)=='edge') {
      edges[i].setAttribute('class','edge');
    }
  }
}
]]></script>
        <defs>
                <circle id="rim" cx="0" cy="0" r="7"/>
                <circle id="rim2" cx="0" cy="0" r="3.5"/>
                <g id="zoomPlus">
                        <use xlink:href="#rim" fill="#404040">
                                <set attributeName="fill" to="#808080" begin="zoomplus.mouseover" end="zoomplus.mouseout"/>
                        </use>
                        <path d="M-4,0h8M0,-4v8" fill="none" stroke="white" stroke-width="1.5" pointer-events="none"/>
                </g>
                <g id="zoomMin">
                        <use xlink:href="#rim" fill="#404040">
                                <set attributeName="fill" to="#808080" begin="zoomminus.mouseover" end="zoomminus.mouseout"/>
                        </use>
                        <path d="M-4,0h8" fill="none" stroke="white" stroke-width="1.5" pointer-events="none"/>
                </g>
                <g id="dirArrow">
                        <path fill="none" stroke="white" stroke-width="1.5" d="M0,-3.0v7 M-2.5,-0.5L0,-3.0L2.5,-0.5"/>
                </g>
               <g id="resetDef">
                       <use xlink:href="#rim2" fill="#404040">
                               <set attributeName="fill" to="#808080" begin="reset.mouseover" end="reset.mouseout"/>
                       </use>
               </g>
        </defs>

<script type="text/javascript">
var viewWidth = 1690;
var viewHeight = 330;
var sectionId = 'dynsection-0';
</script>
<script xlink:href="svgpan.js"/>
<svg id="graph" class="graph">
<g id="viewport">
<title>/home/runner/work/Catena/Catena/sdks/cpp/common/include/LanguagePack.h</title>
<polygon fill="white" stroke="transparent" points="-4,4 -4,-326 1686,-326 1686,4 -4,4"/>
<!-- Node1 -->
<g id="node1" class="node">
<title>Node1</title>
<g id="a_node1"><a xlink:title="multi language support in 2 classes: LanguagePack and LanguagePacks">
<polygon fill="#bfbfbf" stroke="black" points="1309.5,-280.5 1309.5,-321.5 1455.5,-321.5 1455.5,-280.5 1309.5,-280.5"/>
<text text-anchor="start" x="1317.5" y="-309.5" font-family="Helvetica,sans-Serif" font-size="10.00">/home/runner/work/Catena</text>
<text text-anchor="start" x="1317.5" y="-298.5" font-family="Helvetica,sans-Serif" font-size="10.00">/Catena/sdks/cpp/common</text>
<text text-anchor="middle" x="1382.5" y="-287.5" font-family="Helvetica,sans-Serif" font-size="10.00">/include/LanguagePack.h</text>
</a>
</g>
</g>
<!-- Node2 -->
<g id="node2" class="node">
<title>Node2</title>
<g id="a_node2"><a xlink:href="ILanguagePack_8h_source.html" target="_top" xlink:title=" ">
<polygon fill="white" stroke="black" points="66.5,-168.5 66.5,-187.5 164.5,-187.5 164.5,-168.5 66.5,-168.5"/>
<text text-anchor="middle" x="115.5" y="-175.5" font-family="Helvetica,sans-Serif" font-size="10.00">ILanguagePack.h</text>
</a>
</g>
</g>
<!-- Node1&#45;&gt;Node2 -->
<g id="edge1" class="edge">
<title>Node1&#45;&gt;Node2</title>
<path fill="none" stroke="midnightblue" d="M1309.42,-294.46C1121.49,-279.94 606.16,-238.41 178.5,-188 177.23,-187.85 175.96,-187.7 174.67,-187.54"/>
<polygon fill="midnightblue" stroke="midnightblue" points="175.01,-184.05 164.65,-186.26 174.13,-191 175.01,-184.05"/>
</g>
<!-- Node3 -->
<g id="node3" class="node">
<title>Node3</title>
<g id="a_node3"><a xlink:title=" ">
<polygon fill="white" stroke="#bfbfbf" points="1051.5,-0.5 1051.5,-19.5 1095.5,-19.5 1095.5,-0.5 1051.5,-0.5"/>
<text text-anchor="middle" x="1073.5" y="-7.5" font-family="Helvetica,sans-Serif" font-size="10.00">string</text>
</a>
</g>
</g>
<!-- Node1&#45;&gt;Node3 -->
<g id="edge50" class="edge">
<title>Node1&#45;&gt;Node3</title>
<path fill="none" stroke="midnightblue" d="M1392.68,-280.47C1403.94,-257.02 1420.5,-216.21 1420.5,-179 1420.5,-179 1420.5,-179 1420.5,-121 1420.5,-90.77 1423.53,-75.58 1400.5,-56 1356.49,-18.59 1179.03,-12.19 1105.58,-11.16"/>
<polygon fill="midnightblue" stroke="midnightblue" points="1105.56,-7.66 1095.52,-11.05 1105.48,-14.66 1105.56,-7.66"/>
</g>
<!-- Node4 -->
<g id="node4" class="node">
<title>Node4</title>
<g id="a_node4"><a xlink:title=" ">
<polygon fill="white" stroke="#bfbfbf" points="0,-0.5 0,-19.5 93,-19.5 93,-0.5 0,-0.5"/>
<text text-anchor="middle" x="46.5" y="-7.5" font-family="Helvetica,sans-Serif" font-size="10.00">unordered_map</text>
</a>
</g>
</g>
<!-- Node1&#45;&gt;Node4 -->
<g id="edge51" class="edge">
<title>Node1&#45;&gt;Node4</title>
<path fill="none" stroke="midnightblue" d="M1309.17,-297.46C1023.46,-287.08 0.5,-245.31 0.5,-179 0.5,-179 0.5,-179 0.5,-121 0.5,-85.82 20.78,-48.86 34.41,-28"/>
<polygon fill="midnightblue" stroke="midnightblue" points="37.38,-29.85 40.1,-19.61 31.59,-25.92 37.38,-29.85"/>
</g>
<!-- Node5 -->
<g id="node5" class="node">
<title>Node5</title>
<g id="a_node5"><a xlink:href="Device_8h.html" target="_top" xlink:title="Device class definition.">
<polygon fill="white" stroke="black" points="861,-224.5 861,-243.5 920,-243.5 920,-224.5 861,-224.5"/>
<text text-anchor="middle" x="890.5" y="-231.5" font-family="Helvetica,sans-Serif" font-size="10.00">Device.h</text>
</a>
</g>
</g>
<!-- Node1&#45;&gt;Node5 -->
<g id="edge4" class="edge">
<title>Node1&#45;&gt;Node5</title>
<path fill="none" stroke="midnightblue" d="M1309.37,-290.34C1203.87,-276.4 1012.57,-251.13 930.1,-240.23"/>
<polygon fill="midnightblue" stroke="midnightblue" points="930.5,-236.75 920.13,-238.91 929.58,-243.69 930.5,-236.75"/>
</g>
<!-- Node8 -->
<g id="node8" class="node">
<title>Node8</title>
<g id="a_node8"><a xlink:title=" ">
<polygon fill="white" stroke="#bfbfbf" points="1345,-56.5 1345,-75.5 1392,-75.5 1392,-56.5 1345,-56.5"/>
<text text-anchor="middle" x="1368.5" y="-63.5" font-family="Helvetica,sans-Serif" font-size="10.00">vector</text>
</a>
</g>
</g>
<!-- Node1&#45;&gt;Node8 -->
<g id="edge53" class="edge">
<title>Node1&#45;&gt;Node8</title>
<path fill="none" stroke="midnightblue" d="M1381.31,-280.13C1378.64,-235.78 1372.24,-129.18 1369.63,-85.82"/>
<polygon fill="midnightblue" stroke="midnightblue" points="1373.11,-85.36 1369.02,-75.59 1366.12,-85.78 1373.11,-85.36"/>
</g>
<!-- Node34 -->
<g id="node34" class="node">
<title>Node34</title>
<g id="a_node34"><a xlink:title=" ">
<polygon fill="white" stroke="#bfbfbf" points="1448.5,-224.5 1448.5,-243.5 1580.5,-243.5 1580.5,-224.5 1448.5,-224.5"/>
<text text-anchor="middle" x="1514.5" y="-231.5" font-family="Helvetica,sans-Serif" font-size="10.00">interface/language.pb.h</text>
</a>
</g>
</g>
<!-- Node1&#45;&gt;Node34 -->
<g id="edge49" class="edge">
<title>Node1&#45;&gt;Node34</title>
<path fill="none" stroke="midnightblue" d="M1422.1,-280.5C1443.32,-270.05 1468.88,-257.46 1487.74,-248.18"/>
<polygon fill="midnightblue" stroke="midnightblue" points="1489.5,-251.21 1496.93,-243.65 1486.41,-244.93 1489.5,-251.21"/>
</g>
<!-- Node35 -->
<g id="node35" class="node">
<title>Node35</title>
<g id="a_node35"><a xlink:title=" ">
<polygon fill="white" stroke="#bfbfbf" points="1599,-224.5 1599,-243.5 1682,-243.5 1682,-224.5 1599,-224.5"/>
<text text-anchor="middle" x="1640.5" y="-231.5" font-family="Helvetica,sans-Serif" font-size="10.00">initializer_list</text>
</a>
</g>
</g>
<!-- Node1&#45;&gt;Node35 -->
<g id="edge52" class="edge">
<title>Node1&#45;&gt;Node35</title>
<path fill="none" stroke="midnightblue" d="M1455.74,-281.55C1501.28,-270.07 1558.3,-255.71 1596.86,-245.99"/>
<polygon fill="midnightblue" stroke="midnightblue" points="1597.89,-249.34 1606.73,-243.51 1596.18,-242.56 1597.89,-249.34"/>
</g>
<!-- Node2&#45;&gt;Node3 -->
<g id="edge2" class="edge">
<title>Node2&#45;&gt;Node3</title>
<path fill="none" stroke="midnightblue" d="M164.5,-176.57C228.05,-174.57 341.41,-165.98 431.5,-132 489.17,-110.25 489.24,-76.13 547.5,-56 639.65,-24.16 941.91,-14.16 1041.42,-11.69"/>
<polygon fill="midnightblue" stroke="midnightblue" points="1041.56,-15.19 1051.47,-11.45 1041.39,-8.19 1041.56,-15.19"/>
</g>
<!-- Node2&#45;&gt;Node4 -->
<g id="edge3" class="edge">
<title>Node2&#45;&gt;Node4</title>
<path fill="none" stroke="midnightblue" d="M111.79,-168.08C100.88,-141.83 68.76,-64.55 54.03,-29.12"/>
<polygon fill="midnightblue" stroke="midnightblue" points="57.13,-27.46 50.06,-19.57 50.67,-30.15 57.13,-27.46"/>
</g>
<!-- Node5&#45;&gt;Node2 -->
<g id="edge36" class="edge">
<title>Node5&#45;&gt;Node2</title>
<path fill="none" stroke="midnightblue" d="M860.93,-231.97C763.3,-228.38 442.47,-215.15 178.5,-188 177.23,-187.87 175.95,-187.73 174.66,-187.59"/>
<polygon fill="midnightblue" stroke="midnightblue" points="174.98,-184.1 164.63,-186.4 174.15,-191.05 174.98,-184.1"/>
</g>
<!-- Node5&#45;&gt;Node3 -->
<g id="edge43" class="edge">
<title>Node5&#45;&gt;Node3</title>
<path fill="none" stroke="midnightblue" d="M920.15,-230.88C985.59,-225.82 1140.22,-211.66 1186.5,-188 1248.62,-156.24 1270.09,-140.58 1296.5,-76 1299.86,-67.77 1302.13,-62.88 1296.5,-56 1272.77,-27 1161.68,-16.27 1105.79,-12.65"/>
<polygon fill="midnightblue" stroke="midnightblue" points="1105.9,-9.15 1095.71,-12.04 1105.48,-16.14 1105.9,-9.15"/>
</g>
<!-- Node5&#45;&gt;Node4 -->
<g id="edge42" class="edge">
<title>Node5&#45;&gt;Node4</title>
<path fill="none" stroke="midnightblue" d="M860.54,-232.49C714.9,-229.85 86.58,-216.85 57.5,-188 14.91,-145.75 30.78,-65.28 40.79,-29.24"/>
<polygon fill="midnightblue" stroke="midnightblue" points="44.17,-30.16 43.64,-19.58 37.46,-28.18 44.17,-30.16"/>
</g>
<!-- Node6 -->
<g id="node6" class="node">
<title>Node6</title>
<g id="a_node6"><a xlink:href="Path_8h.html" target="_top" xlink:title="Handles Path objects used to uniquely identify and access OIDs.">
<polygon fill="white" stroke="black" points="1161,-112.5 1161,-131.5 1208,-131.5 1208,-112.5 1161,-112.5"/>
<text text-anchor="middle" x="1184.5" y="-119.5" font-family="Helvetica,sans-Serif" font-size="10.00">Path.h</text>
</a>
</g>
</g>
<!-- Node5&#45;&gt;Node6 -->
<g id="edge5" class="edge">
<title>Node5&#45;&gt;Node6</title>
<path fill="none" stroke="midnightblue" d="M920.45,-232.02C984.01,-229.35 1129.54,-219.82 1165.5,-188 1178.55,-176.45 1182.86,-156.49 1184.17,-141.72"/>
<polygon fill="midnightblue" stroke="midnightblue" points="1187.67,-141.84 1184.69,-131.67 1180.68,-141.48 1187.67,-141.84"/>
</g>
<!-- Node5&#45;&gt;Node8 -->
<g id="edge45" class="edge">
<title>Node5&#45;&gt;Node8</title>
<path fill="none" stroke="midnightblue" d="M920.12,-231.66C1012.12,-227.26 1288.65,-212.15 1320.5,-188 1352.96,-163.39 1363.51,-113.45 1366.91,-86.05"/>
<polygon fill="midnightblue" stroke="midnightblue" points="1370.42,-86.13 1367.97,-75.83 1363.45,-85.41 1370.42,-86.13"/>
</g>
<!-- Node11 -->
<g id="node11" class="node">
<title>Node11</title>
<g id="a_node11"><a xlink:href="Enums_8h.html" target="_top" xlink:title="tools for using EnumDecorators.">
<polygon fill="white" stroke="black" points="364,-112.5 364,-131.5 423,-131.5 423,-112.5 364,-112.5"/>
<text text-anchor="middle" x="393.5" y="-119.5" font-family="Helvetica,sans-Serif" font-size="10.00">Enums.h</text>
</a>
</g>
</g>
<!-- Node5&#45;&gt;Node11 -->
<g id="edge11" class="edge">
<title>Node5&#45;&gt;Node11</title>
<path fill="none" stroke="midnightblue" d="M860.71,-231.55C801.35,-228.12 664.47,-217.44 553.5,-188 504.86,-175.1 451.23,-151.17 420.05,-136.23"/>
<polygon fill="midnightblue" stroke="midnightblue" points="421.28,-132.93 410.76,-131.71 418.22,-139.23 421.28,-132.93"/>
</g>
<!-- Node15 -->
<g id="node15" class="node">
<title>Node15</title>
<g id="a_node15"><a xlink:title=" ">
<polygon fill="white" stroke="#bfbfbf" points="118,-0.5 118,-19.5 187,-19.5 187,-0.5 118,-0.5"/>
<text text-anchor="middle" x="152.5" y="-7.5" font-family="Helvetica,sans-Serif" font-size="10.00">type_traits</text>
</a>
</g>
</g>
<!-- Node5&#45;&gt;Node15 -->
<g id="edge47" class="edge">
<title>Node5&#45;&gt;Node15</title>
<path fill="none" stroke="midnightblue" d="M860.88,-233.15C786.48,-232.88 586.22,-228.16 425.5,-188 299.46,-156.51 230.12,-182.35 155.5,-76 146.18,-62.72 146.37,-43.88 148.34,-29.91"/>
<polygon fill="midnightblue" stroke="midnightblue" points="151.81,-30.4 150.15,-19.93 144.92,-29.15 151.81,-30.4"/>
</g>
<!-- Node16 -->
<g id="node16" class="node">
<title>Node16</title>
<g id="a_node16"><a xlink:title=" ">
<polygon fill="white" stroke="#bfbfbf" points="181,-56.5 181,-75.5 300,-75.5 300,-56.5 181,-56.5"/>
<text text-anchor="middle" x="240.5" y="-63.5" font-family="Helvetica,sans-Serif" font-size="10.00">interface/device.pb.h</text>
</a>
</g>
</g>
<!-- Node5&#45;&gt;Node16 -->
<g id="edge41" class="edge">
<title>Node5&#45;&gt;Node16</title>
<path fill="none" stroke="midnightblue" d="M860.97,-232.44C794.13,-230.57 626.58,-222.52 491.5,-188 427.77,-171.72 413.64,-160.8 354.5,-132 321.73,-116.05 285.41,-94.65 262.76,-80.84"/>
<polygon fill="midnightblue" stroke="midnightblue" points="264.58,-77.85 254.22,-75.6 260.92,-83.82 264.58,-77.85"/>
</g>
<!-- Node17 -->
<g id="node17" class="node">
<title>Node17</title>
<g id="a_node17"><a xlink:href="signals_8h_source.html" target="_top" xlink:title=" ">
<polygon fill="white" stroke="black" points="563,-168.5 563,-187.5 644,-187.5 644,-168.5 563,-168.5"/>
<text text-anchor="middle" x="603.5" y="-175.5" font-family="Helvetica,sans-Serif" font-size="10.00">vdk/signals.h</text>
</a>
</g>
</g>
<!-- Node5&#45;&gt;Node17 -->
<g id="edge20" class="edge">
<title>Node5&#45;&gt;Node17</title>
<path fill="none" stroke="midnightblue" d="M860.87,-227.42C812.13,-218.25 714.48,-199.88 654.47,-188.59"/>
<polygon fill="midnightblue" stroke="midnightblue" points="654.92,-185.11 644.45,-186.7 653.63,-191.99 654.92,-185.11"/>
</g>
<!-- Node22 -->
<g id="node22" class="node">
<title>Node22</title>
<g id="a_node22"><a xlink:href="IParam_8h.html" target="_top" xlink:title="Interface for parameters.">
<polygon fill="white" stroke="black" points="777,-168.5 777,-187.5 836,-187.5 836,-168.5 777,-168.5"/>
<text text-anchor="middle" x="806.5" y="-175.5" font-family="Helvetica,sans-Serif" font-size="10.00">IParam.h</text>
</a>
</g>
</g>
<!-- Node5&#45;&gt;Node22 -->
<g id="edge26" class="edge">
<title>Node5&#45;&gt;Node22</title>
<path fill="none" stroke="midnightblue" d="M877,-224.32C863.9,-215.9 843.79,-202.97 828.39,-193.07"/>
<polygon fill="midnightblue" stroke="midnightblue" points="830.27,-190.12 819.96,-187.65 826.48,-196.01 830.27,-190.12"/>
</g>
<!-- Node26 -->
<g id="node26" class="node">
<title>Node26</title>
<g id="a_node26"><a xlink:href="Status_8h.html" target="_top" xlink:title="Communicates failure status using gRPC&#39;s codes.">
<polygon fill="white" stroke="black" points="863.5,-112.5 863.5,-131.5 919.5,-131.5 919.5,-112.5 863.5,-112.5"/>
<text text-anchor="middle" x="891.5" y="-119.5" font-family="Helvetica,sans-Serif" font-size="10.00">Status.h</text>
</a>
</g>
</g>
<!-- Node5&#45;&gt;Node26 -->
<g id="edge40" class="edge">
<title>Node5&#45;&gt;Node26</title>
<path fill="none" stroke="midnightblue" d="M888.45,-224.18C885.8,-211.69 881.73,-188.12 883.5,-168 884.28,-159.2 885.89,-149.54 887.47,-141.43"/>
<polygon fill="midnightblue" stroke="midnightblue" points="890.91,-142.07 889.51,-131.57 884.06,-140.65 890.91,-142.07"/>
</g>
<!-- Node29 -->
<g id="node29" class="node">
<title>Node29</title>
<g id="a_node29"><a xlink:href="Tags_8h.html" target="_top" xlink:title="Tags to differentiate collections with the same type for template specialization.">
<polygon fill="white" stroke="black" points="893,-168.5 893,-187.5 940,-187.5 940,-168.5 893,-168.5"/>
<text text-anchor="middle" x="916.5" y="-175.5" font-family="Helvetica,sans-Serif" font-size="10.00">Tags.h</text>
</a>
</g>
</g>
<!-- Node5&#45;&gt;Node29 -->
<g id="edge37" class="edge">
<title>Node5&#45;&gt;Node29</title>
<path fill="none" stroke="midnightblue" d="M894.79,-224.08C898.35,-216.69 903.52,-205.95 907.92,-196.81"/>
<polygon fill="midnightblue" stroke="midnightblue" points="911.1,-198.28 912.29,-187.75 904.79,-195.24 911.1,-198.28"/>
</g>
<!-- Node31 -->
<g id="node31" class="node">
<title>Node31</title>
<g id="a_node31"><a xlink:title=" ">
<polygon fill="white" stroke="#bfbfbf" points="958.5,-168.5 958.5,-187.5 1006.5,-187.5 1006.5,-168.5 958.5,-168.5"/>
<text text-anchor="middle" x="982.5" y="-175.5" font-family="Helvetica,sans-Serif" font-size="10.00">mutex</text>
</a>
</g>
</g>
<!-- Node5&#45;&gt;Node31 -->
<g id="edge44" class="edge">
<title>Node5&#45;&gt;Node31</title>
<path fill="none" stroke="midnightblue" d="M905.28,-224.32C919.77,-215.82 942.07,-202.73 958.99,-192.8"/>
<polygon fill="midnightblue" stroke="midnightblue" points="960.9,-195.74 967.76,-187.65 957.36,-189.7 960.9,-195.74"/>
</g>
<!-- Node32 -->
<g id="node32" class="node">
<title>Node32</title>
<g id="a_node32"><a xlink:title=" ">
<polygon fill="white" stroke="#bfbfbf" points="1024.5,-168.5 1024.5,-187.5 1076.5,-187.5 1076.5,-168.5 1024.5,-168.5"/>
<text text-anchor="middle" x="1050.5" y="-175.5" font-family="Helvetica,sans-Serif" font-size="10.00">cassert</text>
</a>
</g>
</g>
<!-- Node5&#45;&gt;Node32 -->
<g id="edge46" class="edge">
<title>Node5&#45;&gt;Node32</title>
<path fill="none" stroke="midnightblue" d="M915.85,-224.44C942.77,-215.36 985.5,-200.94 1015.59,-190.78"/>
<polygon fill="midnightblue" stroke="midnightblue" points="1016.91,-194.03 1025.27,-187.52 1014.67,-187.4 1016.91,-194.03"/>
</g>
<!-- Node33 -->
<g id="node33" class="node">
<title>Node33</title>
<g id="a_node33"><a xlink:title=" ">
<polygon fill="white" stroke="#bfbfbf" points="1094.5,-168.5 1094.5,-187.5 1156.5,-187.5 1156.5,-168.5 1094.5,-168.5"/>
<text text-anchor="middle" x="1125.5" y="-175.5" font-family="Helvetica,sans-Serif" font-size="10.00">coroutine</text>
</a>
</g>
</g>
<!-- Node5&#45;&gt;Node33 -->
<g id="edge48" class="edge">
<title>Node5&#45;&gt;Node33</title>
<path fill="none" stroke="midnightblue" d="M920.26,-226.16C961.92,-216.59 1037.74,-199.17 1084.65,-188.39"/>
<polygon fill="midnightblue" stroke="midnightblue" points="1085.52,-191.78 1094.49,-186.13 1083.96,-184.95 1085.52,-191.78"/>
</g>
<!-- Node6&#45;&gt;Node3 -->
<g id="edge7" class="edge">
<title>Node6&#45;&gt;Node3</title>
<path fill="none" stroke="midnightblue" d="M1175.79,-112.37C1157.15,-93.89 1113.15,-50.29 1089.39,-26.74"/>
<polygon fill="midnightblue" stroke="midnightblue" points="1091.74,-24.14 1082.17,-19.59 1086.81,-29.12 1091.74,-24.14"/>
</g>
<!-- Node7 -->
<g id="node7" class="node">
<title>Node7</title>
<g id="a_node7"><a xlink:title=" ">
<polygon fill="white" stroke="#bfbfbf" points="1158.5,-56.5 1158.5,-75.5 1218.5,-75.5 1218.5,-56.5 1158.5,-56.5"/>
<text text-anchor="middle" x="1188.5" y="-63.5" font-family="Helvetica,sans-Serif" font-size="10.00">iostream</text>
</a>
</g>
</g>
<!-- Node6&#45;&gt;Node7 -->
<g id="edge6" class="edge">
<title>Node6&#45;&gt;Node7</title>
<path fill="none" stroke="midnightblue" d="M1185.16,-112.08C1185.68,-105.01 1186.44,-94.86 1187.09,-85.99"/>
<polygon fill="midnightblue" stroke="midnightblue" points="1190.6,-85.98 1187.85,-75.75 1183.62,-85.47 1190.6,-85.98"/>
</g>
<!-- Node6&#45;&gt;Node8 -->
<g id="edge8" class="edge">
<title>Node6&#45;&gt;Node8</title>
<path fill="none" stroke="midnightblue" d="M1208.18,-114.05C1240.47,-104.57 1298.5,-87.54 1335.17,-76.78"/>
<polygon fill="midnightblue" stroke="midnightblue" points="1336.3,-80.1 1344.91,-73.92 1334.33,-73.38 1336.3,-80.1"/>
</g>
<!-- Node9 -->
<g id="node9" class="node">
<title>Node9</title>
<g id="a_node9"><a xlink:title=" ">
<polygon fill="white" stroke="#bfbfbf" points="1237,-56.5 1237,-75.5 1288,-75.5 1288,-56.5 1237,-56.5"/>
<text text-anchor="middle" x="1262.5" y="-63.5" font-family="Helvetica,sans-Serif" font-size="10.00">variant</text>
</a>
</g>
</g>
<!-- Node6&#45;&gt;Node9 -->
<g id="edge9" class="edge">
<title>Node6&#45;&gt;Node9</title>
<path fill="none" stroke="midnightblue" d="M1197.03,-112.32C1209.09,-103.98 1227.53,-91.21 1241.77,-81.35"/>
<polygon fill="midnightblue" stroke="midnightblue" points="1243.77,-84.22 1250,-75.65 1239.78,-78.47 1243.77,-84.22"/>
</g>
<!-- Node10 -->
<g id="node10" class="node">
<title>Node10</title>
<g id="a_node10"><a xlink:title=" ">
<polygon fill="white" stroke="#bfbfbf" points="1044.5,-56.5 1044.5,-75.5 1102.5,-75.5 1102.5,-56.5 1044.5,-56.5"/>
<text text-anchor="middle" x="1073.5" y="-63.5" font-family="Helvetica,sans-Serif" font-size="10.00">memory</text>
</a>
</g>
</g>
<!-- Node6&#45;&gt;Node10 -->
<g id="edge10" class="edge">
<title>Node6&#45;&gt;Node10</title>
<path fill="none" stroke="midnightblue" d="M1166.67,-112.32C1148.78,-103.62 1121.02,-90.12 1100.45,-80.11"/>
<polygon fill="midnightblue" stroke="midnightblue" points="1101.81,-76.88 1091.29,-75.65 1098.75,-83.18 1101.81,-76.88"/>
</g>
<!-- Node12 -->
<g id="node12" class="node">
<title>Node12</title>
<g id="a_node12"><a xlink:href="EnumDecorator_8h.html" target="_top" xlink:title="Provides an enum with useful extra functionality.">
<polygon fill="white" stroke="black" points="318.5,-56.5 318.5,-75.5 462.5,-75.5 462.5,-56.5 318.5,-56.5"/>
<text text-anchor="middle" x="390.5" y="-63.5" font-family="Helvetica,sans-Serif" font-size="10.00">patterns/EnumDecorator.h</text>
</a>
</g>
</g>
<!-- Node11&#45;&gt;Node12 -->
<g id="edge12" class="edge">
<title>Node11&#45;&gt;Node12</title>
<path fill="none" stroke="midnightblue" d="M393,-112.08C392.61,-105.01 392.05,-94.86 391.55,-85.99"/>
<polygon fill="midnightblue" stroke="midnightblue" points="395.04,-85.54 390.99,-75.75 388.05,-85.93 395.04,-85.54"/>
</g>
<!-- Node14 -->
<g id="node14" class="node">
<title>Node14</title>
<g id="a_node14"><a xlink:title=" ">
<polygon fill="white" stroke="#bfbfbf" points="464.5,-0.5 464.5,-19.5 514.5,-19.5 514.5,-0.5 464.5,-0.5"/>
<text text-anchor="middle" x="489.5" y="-7.5" font-family="Helvetica,sans-Serif" font-size="10.00">cstdint</text>
</a>
</g>
</g>
<!-- Node11&#45;&gt;Node14 -->
<g id="edge19" class="edge">
<title>Node11&#45;&gt;Node14</title>
<path fill="none" stroke="midnightblue" d="M418.41,-112.47C435.71,-105.31 458.01,-93.43 471.5,-76 481.79,-62.7 486.2,-43.87 488.09,-29.9"/>
<polygon fill="midnightblue" stroke="midnightblue" points="491.57,-30.24 489.13,-19.93 484.61,-29.51 491.57,-30.24"/>
</g>
<!-- Node11&#45;&gt;Node16 -->
<g id="edge18" class="edge">
<title>Node11&#45;&gt;Node16</title>
<path fill="none" stroke="midnightblue" d="M369.26,-112.44C343.63,-103.4 303.01,-89.06 274.26,-78.92"/>
<polygon fill="midnightblue" stroke="midnightblue" points="275.22,-75.54 264.63,-75.52 272.89,-82.15 275.22,-75.54"/>
</g>
<!-- Node12&#45;&gt;Node3 -->
<g id="edge16" class="edge">
<title>Node12&#45;&gt;Node3</title>
<path fill="none" stroke="midnightblue" d="M462.62,-59.3C609.34,-47.7 937.44,-21.76 1041.32,-13.54"/>
<polygon fill="midnightblue" stroke="midnightblue" points="1041.79,-17.02 1051.48,-12.74 1041.24,-10.04 1041.79,-17.02"/>
</g>
<!-- Node12&#45;&gt;Node4 -->
<g id="edge15" class="edge">
<title>Node12&#45;&gt;Node4</title>
<path fill="none" stroke="midnightblue" d="M335.99,-56.44C272.33,-46.45 167.54,-30 103.03,-19.87"/>
<polygon fill="midnightblue" stroke="midnightblue" points="103.45,-16.4 93.03,-18.3 102.37,-23.31 103.45,-16.4"/>
</g>
<!-- Node13 -->
<g id="node13" class="node">
<title>Node13</title>
<g id="a_node13"><a xlink:href="ReflectionMacros_8h_source.html" target="_top" xlink:title=" ">
<polygon fill="white" stroke="black" points="335.5,-0.5 335.5,-19.5 445.5,-19.5 445.5,-0.5 335.5,-0.5"/>
<text text-anchor="middle" x="390.5" y="-7.5" font-family="Helvetica,sans-Serif" font-size="10.00">ReflectionMacros.h</text>
</a>
</g>
</g>
<!-- Node12&#45;&gt;Node13 -->
<g id="edge13" class="edge">
<title>Node12&#45;&gt;Node13</title>
<path fill="none" stroke="midnightblue" d="M390.5,-56.08C390.5,-49.01 390.5,-38.86 390.5,-29.99"/>
<polygon fill="midnightblue" stroke="midnightblue" points="394,-29.75 390.5,-19.75 387,-29.75 394,-29.75"/>
</g>
<!-- Node12&#45;&gt;Node14 -->
<g id="edge14" class="edge">
<title>Node12&#45;&gt;Node14</title>
<path fill="none" stroke="midnightblue" d="M406.41,-56.32C422.14,-47.74 446.44,-34.49 464.71,-24.52"/>
<polygon fill="midnightblue" stroke="midnightblue" points="466.53,-27.52 473.63,-19.65 463.18,-21.37 466.53,-27.52"/>
</g>
<!-- Node12&#45;&gt;Node15 -->
<g id="edge17" class="edge">
<title>Node12&#45;&gt;Node15</title>
<path fill="none" stroke="midnightblue" d="M352.79,-56.44C310.5,-46.85 241.99,-31.3 197.09,-21.12"/>
<polygon fill="midnightblue" stroke="midnightblue" points="197.85,-17.7 187.33,-18.9 196.3,-24.53 197.85,-17.7"/>
</g>
<!-- Node17&#45;&gt;Node15 -->
<g id="edge25" class="edge">
<title>Node17&#45;&gt;Node15</title>
<path fill="none" stroke="midnightblue" d="M562.68,-172.96C465.89,-162.54 226.43,-131.63 171.5,-76 159.51,-63.85 155.01,-44.58 153.36,-30.17"/>
<polygon fill="midnightblue" stroke="midnightblue" points="156.82,-29.58 152.56,-19.88 149.84,-30.12 156.82,-29.58"/>
</g>
<!-- Node18 -->
<g id="node18" class="node">
<title>Node18</title>
<g id="a_node18"><a xlink:title=" ">
<polygon fill="white" stroke="#bfbfbf" points="614,-112.5 614,-131.5 651,-131.5 651,-112.5 614,-112.5"/>
<text text-anchor="middle" x="632.5" y="-119.5" font-family="Helvetica,sans-Serif" font-size="10.00">new</text>
</a>
</g>
</g>
<!-- Node17&#45;&gt;Node18 -->
<g id="edge21" class="edge">
<title>Node17&#45;&gt;Node18</title>
<path fill="none" stroke="midnightblue" d="M608.29,-168.08C612.26,-160.69 618.03,-149.95 622.93,-140.81"/>
<polygon fill="midnightblue" stroke="midnightblue" points="626.15,-142.22 627.8,-131.75 619.99,-138.91 626.15,-142.22"/>
</g>
<!-- Node19 -->
<g id="node19" class="node">
<title>Node19</title>
<g id="a_node19"><a xlink:title=" ">
<polygon fill="white" stroke="#bfbfbf" points="669,-112.5 669,-131.5 710,-131.5 710,-112.5 669,-112.5"/>
<text text-anchor="middle" x="689.5" y="-119.5" font-family="Helvetica,sans-Serif" font-size="10.00">tuple</text>
</a>
</g>
</g>
<!-- Node17&#45;&gt;Node19 -->
<g id="edge22" class="edge">
<title>Node17&#45;&gt;Node19</title>
<path fill="none" stroke="midnightblue" d="M617.32,-168.32C630.73,-159.9 651.32,-146.97 667.09,-137.07"/>
<polygon fill="midnightblue" stroke="midnightblue" points="669.11,-139.94 675.72,-131.65 665.39,-134.01 669.11,-139.94"/>
</g>
<!-- Node20 -->
<g id="node20" class="node">
<title>Node20</title>
<g id="a_node20"><a xlink:title=" ">
<polygon fill="white" stroke="#bfbfbf" points="480,-112.5 480,-131.5 533,-131.5 533,-112.5 480,-112.5"/>
<text text-anchor="middle" x="506.5" y="-119.5" font-family="Helvetica,sans-Serif" font-size="10.00">cstddef</text>
</a>
</g>
</g>
<!-- Node17&#45;&gt;Node20 -->
<g id="edge23" class="edge">
<title>Node17&#45;&gt;Node20</title>
<path fill="none" stroke="midnightblue" d="M587.92,-168.32C572.5,-159.74 548.69,-146.49 530.79,-136.52"/>
<polygon fill="midnightblue" stroke="midnightblue" points="532.49,-133.46 522.05,-131.65 529.08,-139.58 532.49,-133.46"/>
</g>
<!-- Node21 -->
<g id="node21" class="node">
<title>Node21</title>
<g id="a_node21"><a xlink:title=" ">
<polygon fill="white" stroke="#bfbfbf" points="551,-112.5 551,-131.5 596,-131.5 596,-112.5 551,-112.5"/>
<text text-anchor="middle" x="573.5" y="-119.5" font-family="Helvetica,sans-Serif" font-size="10.00">utility</text>
</a>
</g>
</g>
<!-- Node17&#45;&gt;Node21 -->
<g id="edge24" class="edge">
<title>Node17&#45;&gt;Node21</title>
<path fill="none" stroke="midnightblue" d="M598.55,-168.08C594.4,-160.61 588.35,-149.72 583.23,-140.52"/>
<polygon fill="midnightblue" stroke="midnightblue" points="586.28,-138.79 578.36,-131.75 580.16,-142.19 586.28,-138.79"/>
</g>
<!-- Node22&#45;&gt;Node6 -->
<g id="edge31" class="edge">
<title>Node22&#45;&gt;Node6</title>
<path fill="none" stroke="midnightblue" d="M836.16,-172.76C905.5,-162.86 1077.85,-138.24 1150.91,-127.8"/>
<polygon fill="midnightblue" stroke="midnightblue" points="1151.54,-131.24 1160.94,-126.37 1150.55,-124.31 1151.54,-131.24"/>
</g>
<!-- Node22&#45;&gt;Node11 -->
<g id="edge27" class="edge">
<title>Node22&#45;&gt;Node11</title>
<path fill="none" stroke="midnightblue" d="M776.8,-173.12C703.81,-163.57 515.63,-138.97 433.19,-128.19"/>
<polygon fill="midnightblue" stroke="midnightblue" points="433.58,-124.71 423.21,-126.88 432.67,-131.65 433.58,-124.71"/>
</g>
<!-- Node23 -->
<g id="node23" class="node">
<title>Node23</title>
<g id="a_node23"><a xlink:href="IConstraint_8h.html" target="_top" xlink:title="Interface for constraints.">
<polygon fill="white" stroke="black" points="767,-112.5 767,-131.5 846,-131.5 846,-112.5 767,-112.5"/>
<text text-anchor="middle" x="806.5" y="-119.5" font-family="Helvetica,sans-Serif" font-size="10.00">IConstraint.h</text>
</a>
</g>
</g>
<!-- Node22&#45;&gt;Node23 -->
<g id="edge28" class="edge">
<title>Node22&#45;&gt;Node23</title>
<path fill="none" stroke="midnightblue" d="M806.5,-168.08C806.5,-161.01 806.5,-150.86 806.5,-141.99"/>
<polygon fill="midnightblue" stroke="midnightblue" points="810,-141.75 806.5,-131.75 803,-141.75 810,-141.75"/>
</g>
<!-- Node24 -->
<g id="node24" class="node">
<title>Node24</title>
<g id="a_node24"><a xlink:title=" ">
<polygon fill="white" stroke="#bfbfbf" points="557,-56.5 557,-75.5 676,-75.5 676,-56.5 557,-56.5"/>
<text text-anchor="middle" x="616.5" y="-63.5" font-family="Helvetica,sans-Serif" font-size="10.00">interface/param.pb.h</text>
</a>
</g>
</g>
<!-- Node22&#45;&gt;Node24 -->
<g id="edge35" class="edge">
<title>Node22&#45;&gt;Node24</title>
<path fill="none" stroke="midnightblue" d="M796.45,-168.41C780.61,-155.17 748.56,-129.45 718.5,-112 696.35,-99.14 669.84,-87.55 649.4,-79.36"/>
<polygon fill="midnightblue" stroke="midnightblue" points="650.48,-76.02 639.9,-75.61 647.92,-82.53 650.48,-76.02"/>
</g>
<!-- Node22&#45;&gt;Node26 -->
<g id="edge32" class="edge">
<title>Node22&#45;&gt;Node26</title>
<path fill="none" stroke="midnightblue" d="M820.16,-168.32C833.42,-159.9 853.77,-146.97 869.35,-137.07"/>
<polygon fill="midnightblue" stroke="midnightblue" points="871.31,-139.97 877.88,-131.65 867.56,-134.06 871.31,-139.97"/>
</g>
<!-- Node23&#45;&gt;Node24 -->
<g id="edge29" class="edge">
<title>Node23&#45;&gt;Node24</title>
<path fill="none" stroke="midnightblue" d="M776.39,-112.44C743.87,-103.2 691.92,-88.44 656.11,-78.26"/>
<polygon fill="midnightblue" stroke="midnightblue" points="657.04,-74.88 646.47,-75.52 655.13,-81.62 657.04,-74.88"/>
</g>
<!-- Node25 -->
<g id="node25" class="node">
<title>Node25</title>
<g id="a_node25"><a xlink:title=" ">
<polygon fill="white" stroke="#bfbfbf" points="694.5,-56.5 694.5,-75.5 830.5,-75.5 830.5,-56.5 694.5,-56.5"/>
<text text-anchor="middle" x="762.5" y="-63.5" font-family="Helvetica,sans-Serif" font-size="10.00">interface/constraint.pb.h</text>
</a>
</g>
</g>
<!-- Node23&#45;&gt;Node25 -->
<g id="edge30" class="edge">
<title>Node23&#45;&gt;Node25</title>
<path fill="none" stroke="midnightblue" d="M799.23,-112.08C792.96,-104.38 783.71,-93.03 776.07,-83.65"/>
<polygon fill="midnightblue" stroke="midnightblue" points="778.66,-81.29 769.63,-75.75 773.23,-85.71 778.66,-81.29"/>
</g>
<!-- Node27 -->
<g id="node27" class="node">
<title>Node27</title>
<g id="a_node27"><a xlink:title=" ">
<polygon fill="white" stroke="#bfbfbf" points="848.5,-56.5 848.5,-75.5 904.5,-75.5 904.5,-56.5 848.5,-56.5"/>
<text text-anchor="middle" x="876.5" y="-63.5" font-family="Helvetica,sans-Serif" font-size="10.00">sstream</text>
</a>
</g>
</g>
<!-- Node26&#45;&gt;Node27 -->
<g id="edge33" class="edge">
<title>Node26&#45;&gt;Node27</title>
<path fill="none" stroke="midnightblue" d="M889.02,-112.08C887.01,-104.85 884.11,-94.41 881.61,-85.4"/>
<polygon fill="midnightblue" stroke="midnightblue" points="884.98,-84.45 878.93,-75.75 878.24,-86.32 884.98,-84.45"/>
</g>
<!-- Node28 -->
<g id="node28" class="node">
<title>Node28</title>
<g id="a_node28"><a xlink:title=" ">
<polygon fill="white" stroke="#bfbfbf" points="923,-56.5 923,-75.5 988,-75.5 988,-56.5 923,-56.5"/>
<text text-anchor="middle" x="955.5" y="-63.5" font-family="Helvetica,sans-Serif" font-size="10.00">stdexcept</text>
</a>
</g>
</g>
<!-- Node26&#45;&gt;Node28 -->
<g id="edge34" class="edge">
<title>Node26&#45;&gt;Node28</title>
<path fill="none" stroke="midnightblue" d="M901.78,-112.32C911.34,-104.26 925.78,-92.08 937.28,-82.37"/>
<polygon fill="midnightblue" stroke="midnightblue" points="939.64,-84.96 945.03,-75.83 935.13,-79.61 939.64,-84.96"/>
</g>
<!-- Node29&#45;&gt;Node3 -->
<g id="edge39" class="edge">
<title>Node29&#45;&gt;Node3</title>
<path fill="none" stroke="midnightblue" d="M924.94,-168.08C950.3,-141.27 1026.03,-61.19 1058.48,-26.89"/>
<polygon fill="midnightblue" stroke="midnightblue" points="1061.07,-29.24 1065.4,-19.57 1055.98,-24.43 1061.07,-29.24"/>
</g>
<!-- Node30 -->
<g id="node30" class="node">
<title>Node30</title>
<g id="a_node30"><a xlink:title=" ">
<polygon fill="white" stroke="#bfbfbf" points="1045,-112.5 1045,-131.5 1110,-131.5 1110,-112.5 1045,-112.5"/>
<text text-anchor="middle" x="1077.5" y="-119.5" font-family="Helvetica,sans-Serif" font-size="10.00">functional</text>
</a>
</g>
</g>
<!-- Node29&#45;&gt;Node30 -->
<g id="edge38" class="edge">
<title>Node29&#45;&gt;Node30</title>
<path fill="none" stroke="midnightblue" d="M940.26,-169.03C967.25,-159.98 1011.56,-145.12 1042.51,-134.74"/>
<polygon fill="midnightblue" stroke="midnightblue" points="1043.68,-138.03 1052.05,-131.54 1041.46,-131.4 1043.68,-138.03"/>
</g>
</g>
</svg>
        <g id="navigator" transform="translate(0 0)" fill="#404254">
                <rect fill="#f2f5e9" fill-opacity="0.5" stroke="#606060" stroke-width=".5" x="0" y="0" width="60" height="60"/>
                <use id="zoomplus" xlink:href="#zoomPlus" x="17" y="9" onmousedown="handleZoom(evt,'in')"/>
                <use id="zoomminus" xlink:href="#zoomMin" x="42" y="9" onmousedown="handleZoom(evt,'out')"/>
                <use id="reset" xlink:href="#resetDef" x="30" y="36" onmousedown="handleReset()"/>
                <g id="arrowUp" xlink:href="#dirArrow" transform="translate(30 24)" onmousedown="handlePan(0,-1)">
                  <use xlink:href="#rim" fill="#404040">
                        <set attributeName="fill" to="#808080" begin="arrowUp.mouseover" end="arrowUp.mouseout"/>
                  </use>
                  <path fill="none" stroke="white" stroke-width="1.5" d="M0,-3.0v7 M-2.5,-0.5L0,-3.0L2.5,-0.5"/>
                </g>
                <g id="arrowRight" xlink:href="#dirArrow" transform="rotate(90) translate(36 -43)" onmousedown="handlePan(1,0)">
                  <use xlink:href="#rim" fill="#404040">
                        <set attributeName="fill" to="#808080" begin="arrowRight.mouseover" end="arrowRight.mouseout"/>
                  </use>
                  <path fill="none" stroke="white" stroke-width="1.5" d="M0,-3.0v7 M-2.5,-0.5L0,-3.0L2.5,-0.5"/>
                </g>
                <g id="arrowDown" xlink:href="#dirArrow" transform="rotate(180) translate(-30 -48)" onmousedown="handlePan(0,1)">
                  <use xlink:href="#rim" fill="#404040">
                        <set attributeName="fill" to="#808080" begin="arrowDown.mouseover" end="arrowDown.mouseout"/>
                  </use>
                  <path fill="none" stroke="white" stroke-width="1.5" d="M0,-3.0v7 M-2.5,-0.5L0,-3.0L2.5,-0.5"/>
                </g>
                <g id="arrowLeft" xlink:href="#dirArrow" transform="rotate(270) translate(-36 17)" onmousedown="handlePan(-1,0)">
                  <use xlink:href="#rim" fill="#404040">
                        <set attributeName="fill" to="#808080" begin="arrowLeft.mouseover" end="arrowLeft.mouseout"/>
                  </use>
                  <path fill="none" stroke="white" stroke-width="1.5" d="M0,-3.0v7 M-2.5,-0.5L0,-3.0L2.5,-0.5"/>
                </g>
        </g>
        <svg viewBox="0 0 15 15" width="100%" height="30px" preserveAspectRatio="xMaxYMin meet">
         <g id="arrow_out" transform="scale(0.3 0.3)">
          <a xlink:href="LanguagePack_8h__incl_org.svg" target="_base">
           <rect id="button" ry="5" rx="5" y="6" x="6" height="38" width="38"
                fill="#f2f5e9" fill-opacity="0.5" stroke="#606060" stroke-width="1.0"/>
           <path id="arrow"
             d="M 11.500037,31.436501 C 11.940474,20.09759 22.043105,11.32322 32.158766,21.979434 L 37.068811,17.246167 C 37.068811,17.246167 37.088388,32 37.088388,32 L 22.160133,31.978069 C 22.160133,31.978069 26.997745,27.140456 26.997745,27.140456 C 18.528582,18.264221 13.291696,25.230495 11.500037,31.436501 z"
             style="fill:#404040;"/>
          </a>
         </g>
        </svg>
</svg>
