<?xml version="1.0" encoding="UTF-8" standalone="no"?>
<!DOCTYPE svg PUBLIC "-//W3C//DTD SVG 1.1//EN"
 "http://www.w3.org/Graphics/SVG/1.1/DTD/svg11.dtd">
<!-- Generated by graphviz version 2.43.0 (0)
 -->
<!-- Title: /home/runner/work/Catena/Catena/sdks/cpp/common/include/Logger.h Pages: 1 -->
<svg width="2796pt" height="291pt"
 viewBox="0.00 0.00 2796.00 291.00" xmlns="http://www.w3.org/2000/svg" xmlns:xlink="http://www.w3.org/1999/xlink">
<g id="graph0" class="graph" transform="scale(1 1) rotate(0) translate(4 287)">
<title>/home/runner/work/Catena/Catena/sdks/cpp/common/include/Logger.h</title>
<!-- Node1 -->
<g id="Node000001" class="node">
<title>Node1</title>
<g id="a_Node000001"><a xlink:title="Logger class.">
<polygon fill="#999999" stroke="#666666" points="1410.5,-283 1264.5,-283 1264.5,-242 1410.5,-242 1410.5,-283"/>
<text text-anchor="start" x="1272.5" y="-271" font-family="Helvetica,sans-Serif" font-size="10.00">/home/runner/work/Catena</text>
<text text-anchor="start" x="1272.5" y="-260" font-family="Helvetica,sans-Serif" font-size="10.00">/Catena/sdks/cpp/common</text>
<text text-anchor="middle" x="1337.5" y="-249" font-family="Helvetica,sans-Serif" font-size="10.00">/include/Logger.h</text>
</a>
</g>
</g>
<!-- Node2 -->
<g id="Node000002" class="node">
<title>Node2</title>
<g id="a_Node000002"><a xlink:href="common_2include_2rpc_2Connect_8h.html" target="_top" xlink:title="Pure virtual class for Connect RPCs used to share update code.">
<polygon fill="white" stroke="#666666" points="268.5,-200.5 122.5,-200.5 122.5,-159.5 268.5,-159.5 268.5,-200.5"/>
<text text-anchor="start" x="130.5" y="-188.5" font-family="Helvetica,sans-Serif" font-size="10.00">/home/runner/work/Catena</text>
<text text-anchor="start" x="130.5" y="-177.5" font-family="Helvetica,sans-Serif" font-size="10.00">/Catena/sdks/cpp/common</text>
<text text-anchor="middle" x="195.5" y="-166.5" font-family="Helvetica,sans-Serif" font-size="10.00">/include/rpc/Connect.h</text>
</a>
</g>
</g>
<!-- Node1&#45;&gt;Node2 -->
<g id="edge1_Node000001_Node000002" class="edge">
<title>Node1&#45;&gt;Node2</title>
<g id="a_edge1_Node000001_Node000002"><a xlink:title=" ">
<path fill="none" stroke="#63b8ff" d="M1254.16,-259.76C1038.27,-254.82 464.66,-238.92 277.5,-206 269.58,-204.61 261.36,-202.69 253.31,-200.53"/>
<polygon fill="#63b8ff" stroke="#63b8ff" points="1254.4,-263.26 1264.48,-259.99 1254.56,-256.26 1254.4,-263.26"/>
</a>
</g>
</g>
<!-- Node3 -->
<g id="Node000003" class="node">
<title>Node3</title>
<g id="a_Node000003"><a xlink:href="connections_2REST_2include_2controllers_2Connect_8h.html" target="_top" xlink:title="Implements REST Connect controller.">
<polygon fill="white" stroke="#666666" points="189,-118 0,-118 0,-77 189,-77 189,-118"/>
<text text-anchor="start" x="8" y="-106" font-family="Helvetica,sans-Serif" font-size="10.00">/home/runner/work/Catena</text>
<text text-anchor="start" x="8" y="-95" font-family="Helvetica,sans-Serif" font-size="10.00">/Catena/sdks/cpp/connections</text>
<text text-anchor="middle" x="94.5" y="-84" font-family="Helvetica,sans-Serif" font-size="10.00">/REST/include/controllers/Connect.h</text>
</a>
</g>
</g>
<!-- Node1&#45;&gt;Node3 -->
<g id="edge6_Node000001_Node000003" class="edge">
<title>Node1&#45;&gt;Node3</title>
<g id="a_edge6_Node000001_Node000003"><a xlink:title=" ">
<path fill="none" stroke="#63b8ff" d="M1254.32,-260.56C985.7,-257.15 156.33,-243.61 113.5,-206 88.86,-184.37 88.85,-142.88 91.43,-118.25"/>
<polygon fill="#63b8ff" stroke="#63b8ff" points="1254.35,-264.06 1264.4,-260.68 1254.44,-257.06 1254.35,-264.06"/>
</a>
</g>
</g>
<!-- Node6 -->
<g id="Node000006" class="node">
<title>Node6</title>
<g id="a_Node000006"><a xlink:href="AssetRequest_8h.html" target="_top" xlink:title="Implements REST AssetRequest controller.">
<polygon fill="white" stroke="#666666" points="502.5,-200.5 286.5,-200.5 286.5,-159.5 502.5,-159.5 502.5,-200.5"/>
<text text-anchor="start" x="294.5" y="-188.5" font-family="Helvetica,sans-Serif" font-size="10.00">/home/runner/work/Catena</text>
<text text-anchor="start" x="294.5" y="-177.5" font-family="Helvetica,sans-Serif" font-size="10.00">/Catena/sdks/cpp/connections</text>
<text text-anchor="middle" x="394.5" y="-166.5" font-family="Helvetica,sans-Serif" font-size="10.00">/REST/include/controllers/AssetRequest.h</text>
</a>
</g>
</g>
<!-- Node1&#45;&gt;Node6 -->
<g id="edge5_Node000001_Node000006" class="edge">
<title>Node1&#45;&gt;Node6</title>
<g id="a_edge5_Node000001_Node000006"><a xlink:title=" ">
<path fill="none" stroke="#63b8ff" d="M1254.48,-259.85C1105.15,-256.02 781.62,-243.74 511.5,-206 500.91,-204.52 489.84,-202.62 478.92,-200.54"/>
<polygon fill="#63b8ff" stroke="#63b8ff" points="1254.41,-263.35 1264.49,-260.11 1254.58,-256.36 1254.41,-263.35"/>
</a>
</g>
</g>
<!-- Node7 -->
<g id="Node000007" class="node">
<title>Node7</title>
<g id="a_Node000007"><a xlink:href="REST_2include_2controllers_2DeviceRequest_8h.html" target="_top" xlink:title="Implements REST DeviceRequest controller.">
<polygon fill="white" stroke="#666666" points="744,-200.5 521,-200.5 521,-159.5 744,-159.5 744,-200.5"/>
<text text-anchor="start" x="529" y="-188.5" font-family="Helvetica,sans-Serif" font-size="10.00">/home/runner/work/Catena</text>
<text text-anchor="start" x="529" y="-177.5" font-family="Helvetica,sans-Serif" font-size="10.00">/Catena/sdks/cpp/connections</text>
<text text-anchor="middle" x="632.5" y="-166.5" font-family="Helvetica,sans-Serif" font-size="10.00">/REST/include/controllers/DeviceRequest.h</text>
</a>
</g>
</g>
<!-- Node1&#45;&gt;Node7 -->
<g id="edge7_Node000001_Node000007" class="edge">
<title>Node1&#45;&gt;Node7</title>
<g id="a_edge7_Node000001_Node000007"><a xlink:title=" ">
<path fill="none" stroke="#63b8ff" d="M1254.33,-256.46C1140.75,-248.92 930.94,-232.68 753.5,-206 743.11,-204.44 732.26,-202.56 721.51,-200.54"/>
<polygon fill="#63b8ff" stroke="#63b8ff" points="1254.14,-259.95 1264.35,-257.12 1254.6,-252.97 1254.14,-259.95"/>
</a>
</g>
</g>
<!-- Node8 -->
<g id="Node000008" class="node">
<title>Node8</title>
<g id="a_Node000008"><a xlink:href="REST_2include_2controllers_2ExecuteCommand_8h.html" target="_top" xlink:title="Implements REST ExecuteCommand controller.">
<polygon fill="white" stroke="#666666" points="1000.5,-200.5 762.5,-200.5 762.5,-159.5 1000.5,-159.5 1000.5,-200.5"/>
<text text-anchor="start" x="770.5" y="-188.5" font-family="Helvetica,sans-Serif" font-size="10.00">/home/runner/work/Catena</text>
<text text-anchor="start" x="770.5" y="-177.5" font-family="Helvetica,sans-Serif" font-size="10.00">/Catena/sdks/cpp/connections</text>
<text text-anchor="middle" x="881.5" y="-166.5" font-family="Helvetica,sans-Serif" font-size="10.00">/REST/include/controllers/ExecuteCommand.h</text>
</a>
</g>
</g>
<!-- Node1&#45;&gt;Node8 -->
<g id="edge8_Node000001_Node000008" class="edge">
<title>Node1&#45;&gt;Node8</title>
<g id="a_edge8_Node000001_Node000008"><a xlink:title=" ">
<path fill="none" stroke="#63b8ff" d="M1254.47,-248.05C1188.1,-237.15 1092.73,-221.17 1009.5,-206 1000.03,-204.27 990.18,-202.43 980.33,-200.56"/>
<polygon fill="#63b8ff" stroke="#63b8ff" points="1254.02,-251.52 1264.45,-249.68 1255.15,-244.61 1254.02,-251.52"/>
</a>
</g>
</g>
<!-- Node9 -->
<g id="Node000009" class="node">
<title>Node9</title>
<g id="a_Node000009"><a xlink:href="REST_2include_2controllers_2GetParam_8h.html" target="_top" xlink:title="Implements REST GetParam controller.">
<polygon fill="white" stroke="#666666" points="1216,-200.5 1019,-200.5 1019,-159.5 1216,-159.5 1216,-200.5"/>
<text text-anchor="start" x="1027" y="-188.5" font-family="Helvetica,sans-Serif" font-size="10.00">/home/runner/work/Catena</text>
<text text-anchor="start" x="1027" y="-177.5" font-family="Helvetica,sans-Serif" font-size="10.00">/Catena/sdks/cpp/connections</text>
<text text-anchor="middle" x="1117.5" y="-166.5" font-family="Helvetica,sans-Serif" font-size="10.00">/REST/include/controllers/GetParam.h</text>
</a>
</g>
</g>
<!-- Node1&#45;&gt;Node9 -->
<g id="edge9_Node000001_Node000009" class="edge">
<title>Node1&#45;&gt;Node9</title>
<g id="a_edge9_Node000001_Node000009"><a xlink:title=" ">
<path fill="none" stroke="#63b8ff" d="M1274.48,-238.44C1241.72,-226.45 1202.13,-211.97 1170.9,-200.54"/>
<polygon fill="#63b8ff" stroke="#63b8ff" points="1273.37,-241.76 1283.96,-241.91 1275.77,-235.19 1273.37,-241.76"/>
</a>
</g>
</g>
<!-- Node10 -->
<g id="Node000010" class="node">
<title>Node10</title>
<g id="a_Node000010"><a xlink:href="REST_2include_2controllers_2GetPopulatedSlots_8h.html" target="_top" xlink:title="Implements REST GetPopulatedSlots controller.">
<polygon fill="white" stroke="#666666" points="1440.5,-206 1234.5,-206 1234.5,-154 1440.5,-154 1440.5,-206"/>
<text text-anchor="start" x="1242.5" y="-194" font-family="Helvetica,sans-Serif" font-size="10.00">/home/runner/work/Catena</text>
<text text-anchor="start" x="1242.5" y="-183" font-family="Helvetica,sans-Serif" font-size="10.00">/Catena/sdks/cpp/connections</text>
<text text-anchor="start" x="1242.5" y="-172" font-family="Helvetica,sans-Serif" font-size="10.00">/REST/include/controllers/GetPopulated</text>
<text text-anchor="middle" x="1337.5" y="-161" font-family="Helvetica,sans-Serif" font-size="10.00">Slots.h</text>
</a>
</g>
</g>
<!-- Node1&#45;&gt;Node10 -->
<g id="edge10_Node000001_Node000010" class="edge">
<title>Node1&#45;&gt;Node10</title>
<g id="a_edge10_Node000001_Node000010"><a xlink:title=" ">
<path fill="none" stroke="#63b8ff" d="M1337.5,-231.49C1337.5,-223.15 1337.5,-214.19 1337.5,-206.16"/>
<polygon fill="#63b8ff" stroke="#63b8ff" points="1334,-231.6 1337.5,-241.6 1341,-231.6 1334,-231.6"/>
</a>
</g>
</g>
<!-- Node11 -->
<g id="Node000011" class="node">
<title>Node11</title>
<g id="a_Node000011"><a xlink:href="REST_2include_2controllers_2GetValue_8h.html" target="_top" xlink:title="Implements REST GetValue controller.">
<polygon fill="white" stroke="#666666" points="1652.5,-200.5 1458.5,-200.5 1458.5,-159.5 1652.5,-159.5 1652.5,-200.5"/>
<text text-anchor="start" x="1466.5" y="-188.5" font-family="Helvetica,sans-Serif" font-size="10.00">/home/runner/work/Catena</text>
<text text-anchor="start" x="1466.5" y="-177.5" font-family="Helvetica,sans-Serif" font-size="10.00">/Catena/sdks/cpp/connections</text>
<text text-anchor="middle" x="1555.5" y="-166.5" font-family="Helvetica,sans-Serif" font-size="10.00">/REST/include/controllers/GetValue.h</text>
</a>
</g>
</g>
<!-- Node1&#45;&gt;Node11 -->
<g id="edge11_Node000001_Node000011" class="edge">
<title>Node1&#45;&gt;Node11</title>
<g id="a_edge11_Node000001_Node000011"><a xlink:title=" ">
<path fill="none" stroke="#63b8ff" d="M1399.95,-238.44C1432.41,-226.45 1471.64,-211.97 1502.59,-200.54"/>
<polygon fill="#63b8ff" stroke="#63b8ff" points="1398.72,-235.16 1390.55,-241.91 1401.14,-241.73 1398.72,-235.16"/>
</a>
</g>
</g>
<!-- Node12 -->
<g id="Node000012" class="node">
<title>Node12</title>
<g id="a_Node000012"><a xlink:href="connections_2REST_2include_2controllers_2LanguagePack_8h.html" target="_top" xlink:title="Implements REST LanguagePack controller.">
<polygon fill="white" stroke="#666666" points="1890,-200.5 1671,-200.5 1671,-159.5 1890,-159.5 1890,-200.5"/>
<text text-anchor="start" x="1679" y="-188.5" font-family="Helvetica,sans-Serif" font-size="10.00">/home/runner/work/Catena</text>
<text text-anchor="start" x="1679" y="-177.5" font-family="Helvetica,sans-Serif" font-size="10.00">/Catena/sdks/cpp/connections</text>
<text text-anchor="middle" x="1780.5" y="-166.5" font-family="Helvetica,sans-Serif" font-size="10.00">/REST/include/controllers/LanguagePack.h</text>
</a>
</g>
</g>
<!-- Node1&#45;&gt;Node12 -->
<g id="edge12_Node000001_Node000012" class="edge">
<title>Node1&#45;&gt;Node12</title>
<g id="a_edge12_Node000001_Node000012"><a xlink:title=" ">
<path fill="none" stroke="#63b8ff" d="M1420.94,-248.09C1486.46,-237.34 1579.95,-221.54 1661.5,-206 1670.52,-204.28 1679.91,-202.42 1689.29,-200.53"/>
<polygon fill="#63b8ff" stroke="#63b8ff" points="1419.97,-244.7 1410.67,-249.77 1421.1,-251.61 1419.97,-244.7"/>
</a>
</g>
</g>
<!-- Node13 -->
<g id="Node000013" class="node">
<title>Node13</title>
<g id="a_Node000013"><a xlink:href="Languages_8h.html" target="_top" xlink:title="Implements REST Languages controller.">
<polygon fill="white" stroke="#666666" points="2110.5,-200.5 1908.5,-200.5 1908.5,-159.5 2110.5,-159.5 2110.5,-200.5"/>
<text text-anchor="start" x="1916.5" y="-188.5" font-family="Helvetica,sans-Serif" font-size="10.00">/home/runner/work/Catena</text>
<text text-anchor="start" x="1916.5" y="-177.5" font-family="Helvetica,sans-Serif" font-size="10.00">/Catena/sdks/cpp/connections</text>
<text text-anchor="middle" x="2009.5" y="-166.5" font-family="Helvetica,sans-Serif" font-size="10.00">/REST/include/controllers/Languages.h</text>
</a>
</g>
</g>
<!-- Node1&#45;&gt;Node13 -->
<g id="edge13_Node000001_Node000013" class="edge">
<title>Node1&#45;&gt;Node13</title>
<g id="a_edge13_Node000001_Node000013"><a xlink:title=" ">
<path fill="none" stroke="#63b8ff" d="M1420.97,-256.46C1530.93,-249.08 1730.08,-233.19 1898.5,-206 1908.15,-204.44 1918.22,-202.55 1928.19,-200.52"/>
<polygon fill="#63b8ff" stroke="#63b8ff" points="1420.68,-252.97 1410.94,-257.12 1421.15,-259.95 1420.68,-252.97"/>
</a>
</g>
</g>
<!-- Node14 -->
<g id="Node000014" class="node">
<title>Node14</title>
<g id="a_Node000014"><a xlink:href="REST_2include_2controllers_2MultiSetValue_8h.html" target="_top" xlink:title="Implements REST MultiSetValue controller.">
<polygon fill="white" stroke="#666666" points="2346,-200.5 2129,-200.5 2129,-159.5 2346,-159.5 2346,-200.5"/>
<text text-anchor="start" x="2137" y="-188.5" font-family="Helvetica,sans-Serif" font-size="10.00">/home/runner/work/Catena</text>
<text text-anchor="start" x="2137" y="-177.5" font-family="Helvetica,sans-Serif" font-size="10.00">/Catena/sdks/cpp/connections</text>
<text text-anchor="middle" x="2237.5" y="-166.5" font-family="Helvetica,sans-Serif" font-size="10.00">/REST/include/controllers/MultiSetValue.h</text>
</a>
</g>
</g>
<!-- Node1&#45;&gt;Node14 -->
<g id="edge14_Node000001_Node000014" class="edge">
<title>Node1&#45;&gt;Node14</title>
<g id="a_edge14_Node000001_Node000014"><a xlink:title=" ">
<path fill="none" stroke="#63b8ff" d="M1420.67,-259.36C1563.98,-254.84 1866.46,-241.61 2119.5,-206 2130.08,-204.51 2141.12,-202.62 2152.03,-200.56"/>
<polygon fill="#63b8ff" stroke="#63b8ff" points="1420.51,-255.87 1410.63,-259.67 1420.73,-262.86 1420.51,-255.87"/>
</a>
</g>
</g>
<!-- Node16 -->
<g id="Node000016" class="node">
<title>Node16</title>
<g id="a_Node000016"><a xlink:href="REST_2include_2controllers_2ParamInfoRequest_8h.html" target="_top" xlink:title="Implements REST ParamInfoRequest controller.">
<polygon fill="white" stroke="#666666" points="2554.5,-206 2364.5,-206 2364.5,-154 2554.5,-154 2554.5,-206"/>
<text text-anchor="start" x="2372.5" y="-194" font-family="Helvetica,sans-Serif" font-size="10.00">/home/runner/work/Catena</text>
<text text-anchor="start" x="2372.5" y="-183" font-family="Helvetica,sans-Serif" font-size="10.00">/Catena/sdks/cpp/connections</text>
<text text-anchor="start" x="2372.5" y="-172" font-family="Helvetica,sans-Serif" font-size="10.00">/REST/include/controllers/ParamInfo</text>
<text text-anchor="middle" x="2459.5" y="-161" font-family="Helvetica,sans-Serif" font-size="10.00">Request.h</text>
</a>
</g>
</g>
<!-- Node1&#45;&gt;Node16 -->
<g id="edge16_Node000001_Node000016" class="edge">
<title>Node1&#45;&gt;Node16</title>
<g id="a_edge16_Node000001_Node000016"><a xlink:title=" ">
<path fill="none" stroke="#63b8ff" d="M1420.92,-262.05C1595.39,-262.09 2011.21,-256.34 2355.5,-206 2358.44,-205.57 2361.42,-205.1 2364.42,-204.59"/>
<polygon fill="#63b8ff" stroke="#63b8ff" points="1420.78,-258.55 1410.78,-262.04 1420.78,-265.55 1420.78,-258.55"/>
</a>
</g>
</g>
<!-- Node17 -->
<g id="Node000017" class="node">
<title>Node17</title>
<g id="a_Node000017"><a xlink:href="Subscriptions_8h.html" target="_top" xlink:title="Implements Catena REST Subscriptions.">
<polygon fill="white" stroke="#666666" points="2788,-200.5 2573,-200.5 2573,-159.5 2788,-159.5 2788,-200.5"/>
<text text-anchor="start" x="2581" y="-188.5" font-family="Helvetica,sans-Serif" font-size="10.00">/home/runner/work/Catena</text>
<text text-anchor="start" x="2581" y="-177.5" font-family="Helvetica,sans-Serif" font-size="10.00">/Catena/sdks/cpp/connections</text>
<text text-anchor="middle" x="2680.5" y="-166.5" font-family="Helvetica,sans-Serif" font-size="10.00">/REST/include/controllers/Subscriptions.h</text>
</a>
</g>
</g>
<!-- Node1&#45;&gt;Node17 -->
<g id="edge17_Node000001_Node000017" class="edge">
<title>Node1&#45;&gt;Node17</title>
<g id="a_edge17_Node000001_Node000017"><a xlink:title=" ">
<path fill="none" stroke="#63b8ff" d="M1420.94,-259.52C1659.55,-253.58 2341.74,-234.51 2563.5,-206 2574.52,-204.58 2586.05,-202.67 2597.38,-200.52"/>
<polygon fill="#63b8ff" stroke="#63b8ff" points="1420.51,-256.03 1410.6,-259.78 1420.68,-263.03 1420.51,-256.03"/>
</a>
</g>
</g>
<!-- Node2&#45;&gt;Node3 -->
<g id="edge2_Node000002_Node000003" class="edge">
<title>Node2&#45;&gt;Node3</title>
<g id="a_edge2_Node000002_Node000003"><a xlink:title=" ">
<path fill="none" stroke="#63b8ff" d="M162.76,-152.91C148.64,-141.65 132.4,-128.71 119.3,-118.27"/>
<polygon fill="#63b8ff" stroke="#63b8ff" points="160.79,-155.81 170.79,-159.31 165.15,-150.34 160.79,-155.81"/>
</a>
</g>
</g>
<!-- Node4 -->
<g id="Node000004" class="node">
<title>Node4</title>
<g id="a_Node000004"><a xlink:href="connections_2gRPC_2include_2controllers_2Connect_8h.html" target="_top" xlink:title="Implements Catena gRPC Connect.">
<polygon fill="white" stroke="#666666" points="397.5,-118 207.5,-118 207.5,-77 397.5,-77 397.5,-118"/>
<text text-anchor="start" x="215.5" y="-106" font-family="Helvetica,sans-Serif" font-size="10.00">/home/runner/work/Catena</text>
<text text-anchor="start" x="215.5" y="-95" font-family="Helvetica,sans-Serif" font-size="10.00">/Catena/sdks/cpp/connections</text>
<text text-anchor="middle" x="302.5" y="-84" font-family="Helvetica,sans-Serif" font-size="10.00">/gRPC/include/controllers/Connect.h</text>
</a>
</g>
</g>
<!-- Node2&#45;&gt;Node4 -->
<g id="edge3_Node000002_Node000004" class="edge">
<title>Node2&#45;&gt;Node4</title>
<g id="a_edge3_Node000002_Node000004"><a xlink:title=" ">
<path fill="none" stroke="#63b8ff" d="M229.76,-153.22C244.82,-141.9 262.22,-128.81 276.22,-118.27"/>
<polygon fill="#63b8ff" stroke="#63b8ff" points="227.56,-150.5 221.68,-159.31 231.77,-156.09 227.56,-150.5"/>
</a>
</g>
</g>
<!-- Node5 -->
<g id="Node000005" class="node">
<title>Node5</title>
<g id="a_Node000005"><a xlink:href="gRPC_2include_2ServiceImpl_8h.html" target="_top" xlink:title="Implements Catena gRPC request handlers.">
<polygon fill="white" stroke="#666666" points="383,-41 222,-41 222,0 383,0 383,-41"/>
<text text-anchor="start" x="230" y="-29" font-family="Helvetica,sans-Serif" font-size="10.00">/home/runner/work/Catena</text>
<text text-anchor="start" x="230" y="-18" font-family="Helvetica,sans-Serif" font-size="10.00">/Catena/sdks/cpp/connections</text>
<text text-anchor="middle" x="302.5" y="-7" font-family="Helvetica,sans-Serif" font-size="10.00">/gRPC/include/ServiceImpl.h</text>
</a>
</g>
</g>
<!-- Node4&#45;&gt;Node5 -->
<g id="edge4_Node000004_Node000005" class="edge">
<title>Node4&#45;&gt;Node5</title>
<g id="a_edge4_Node000004_Node000005"><a xlink:title=" ">
<path fill="none" stroke="#63b8ff" d="M302.5,-66.69C302.5,-58.08 302.5,-48.9 302.5,-41.07"/>
<polygon fill="#63b8ff" stroke="#63b8ff" points="299,-66.79 302.5,-76.79 306,-66.79 299,-66.79"/>
</a>
</g>
</g>
<!-- Node15 -->
<g id="Node000015" class="node">
<title>Node15</title>
<g id="a_Node000015"><a xlink:href="REST_2include_2controllers_2SetValue_8h.html" target="_top" xlink:title="Implements REST SetValue controller.">
<polygon fill="white" stroke="#666666" points="2333.5,-118 2141.5,-118 2141.5,-77 2333.5,-77 2333.5,-118"/>
<text text-anchor="start" x="2149.5" y="-106" font-family="Helvetica,sans-Serif" font-size="10.00">/home/runner/work/Catena</text>
<text text-anchor="start" x="2149.5" y="-95" font-family="Helvetica,sans-Serif" font-size="10.00">/Catena/sdks/cpp/connections</text>
<text text-anchor="middle" x="2237.5" y="-84" font-family="Helvetica,sans-Serif" font-size="10.00">/REST/include/controllers/SetValue.h</text>
</a>
</g>
</g>
<!-- Node14&#45;&gt;Node15 -->
<g id="edge15_Node000014_Node000015" class="edge">
<title>Node14&#45;&gt;Node15</title>
<g id="a_edge15_Node000014_Node000015"><a xlink:title=" ">
<path fill="none" stroke="#63b8ff" d="M2237.5,-148.87C2237.5,-138.6 2237.5,-127.4 2237.5,-118.17"/>
<polygon fill="#63b8ff" stroke="#63b8ff" points="2234,-149.1 2237.5,-159.1 2241,-149.1 2234,-149.1"/>
</a>
</g>
</g>
</g>
</svg>
