<?xml version="1.0" encoding="UTF-8" standalone="no"?>
<!DOCTYPE svg PUBLIC "-//W3C//DTD SVG 1.1//EN"
 "http://www.w3.org/Graphics/SVG/1.1/DTD/svg11.dtd">
<!-- Generated by graphviz version 2.43.0 (0)
 -->
<!-- Title: /home/runner/work/Catena/Catena/sdks/cpp/common/include/Logger.h Pages: 1 -->
<svg width="1372pt" height="104pt"
 viewBox="0.00 0.00 1372.00 104.00" xmlns="http://www.w3.org/2000/svg" xmlns:xlink="http://www.w3.org/1999/xlink">
<g id="graph0" class="graph" transform="scale(1 1) rotate(0) translate(4 100)">
<title>/home/runner/work/Catena/Catena/sdks/cpp/common/include/Logger.h</title>
<!-- Node1 -->
<g id="Node000001" class="node">
<title>Node1</title>
<g id="a_Node000001"><a xlink:title="Logger class.">
<polygon fill="#999999" stroke="#666666" points="886,-96 740,-96 740,-55 886,-55 886,-96"/>
<text text-anchor="start" x="748" y="-84" font-family="Helvetica,sans-Serif" font-size="10.00">/home/runner/work/Catena</text>
<text text-anchor="start" x="748" y="-73" font-family="Helvetica,sans-Serif" font-size="10.00">/Catena/sdks/cpp/common</text>
<text text-anchor="middle" x="813" y="-62" font-family="Helvetica,sans-Serif" font-size="10.00">/include/Logger.h</text>
</a>
</g>
</g>
<!-- Node2 -->
<g id="Node000002" class="node">
<title>Node2</title>
<g id="a_Node000002"><a xlink:title=" ">
<polygon fill="#e0e0e0" stroke="#999999" points="82,-19 0,-19 0,0 82,0 82,-19"/>
<text text-anchor="middle" x="41" y="-7" font-family="Helvetica,sans-Serif" font-size="10.00">absl/log/log.h</text>
</a>
</g>
</g>
<!-- Node1&#45;&gt;Node2 -->
<g id="edge1_Node000001_Node000002" class="edge">
<title>Node1&#45;&gt;Node2</title>
<g id="a_edge1_Node000001_Node000002"><a xlink:title=" ">
<path fill="none" stroke="#63b8ff" d="M739.76,-71.09C610.87,-64.61 334.97,-48.55 92.23,-19.04"/>
<polygon fill="#63b8ff" stroke="#63b8ff" points="92.51,-15.55 82.16,-17.8 91.66,-22.49 92.51,-15.55"/>
</a>
</g>
</g>
<!-- Node3 -->
<g id="Node000003" class="node">
<title>Node3</title>
<g id="a_Node000003"><a xlink:title=" ">
<polygon fill="#e0e0e0" stroke="#999999" points="207.5,-19 100.5,-19 100.5,0 207.5,0 207.5,-19"/>
<text text-anchor="middle" x="154" y="-7" font-family="Helvetica,sans-Serif" font-size="10.00">absl/log/log_sink.h</text>
</a>
</g>
</g>
<!-- Node1&#45;&gt;Node3 -->
<g id="edge2_Node000001_Node000003" class="edge">
<title>Node1&#45;&gt;Node3</title>
<g id="a_edge2_Node000001_Node000003"><a xlink:title=" ">
<path fill="none" stroke="#63b8ff" d="M739.83,-68.73C629.09,-59.77 412.05,-41.31 217.86,-19.17"/>
<polygon fill="#63b8ff" stroke="#63b8ff" points="218.08,-15.68 207.75,-18.01 217.29,-22.63 218.08,-15.68"/>
</a>
</g>
</g>
<!-- Node4 -->
<g id="Node000004" class="node">
<title>Node4</title>
<g id="a_Node000004"><a xlink:title=" ">
<polygon fill="#e0e0e0" stroke="#999999" points="374.5,-19 225.5,-19 225.5,0 374.5,0 374.5,-19"/>
<text text-anchor="middle" x="300" y="-7" font-family="Helvetica,sans-Serif" font-size="10.00">absl/log/log_sink_registry.h</text>
</a>
</g>
</g>
<!-- Node1&#45;&gt;Node4 -->
<g id="edge3_Node000001_Node000004" class="edge">
<title>Node1&#45;&gt;Node4</title>
<g id="a_edge3_Node000001_Node000004"><a xlink:title=" ">
<path fill="none" stroke="#63b8ff" d="M739.77,-65.36C644.05,-53.42 477.05,-32.59 378.7,-20.32"/>
<polygon fill="#63b8ff" stroke="#63b8ff" points="378.88,-16.81 368.53,-19.05 378.02,-23.76 378.88,-16.81"/>
</a>
</g>
</g>
<!-- Node5 -->
<g id="Node000005" class="node">
<title>Node5</title>
<g id="a_Node000005"><a xlink:title=" ">
<polygon fill="#e0e0e0" stroke="#999999" points="503.5,-19 392.5,-19 392.5,0 503.5,0 503.5,-19"/>
<text text-anchor="middle" x="448" y="-7" font-family="Helvetica,sans-Serif" font-size="10.00">absl/log/log_entry.h</text>
</a>
</g>
</g>
<!-- Node1&#45;&gt;Node5 -->
<g id="edge4_Node000001_Node000005" class="edge">
<title>Node1&#45;&gt;Node5</title>
<g id="a_edge4_Node000001_Node000005"><a xlink:title=" ">
<path fill="none" stroke="#63b8ff" d="M739.58,-61.63C671.05,-49.61 570.12,-31.91 506.77,-20.8"/>
<polygon fill="#63b8ff" stroke="#63b8ff" points="507.01,-17.29 496.55,-19.01 505.8,-24.19 507.01,-17.29"/>
</a>
</g>
</g>
<!-- Node6 -->
<g id="Node000006" class="node">
<title>Node6</title>
<g id="a_Node000006"><a xlink:title=" ">
<polygon fill="#e0e0e0" stroke="#999999" points="616.5,-19 521.5,-19 521.5,0 616.5,0 616.5,-19"/>
<text text-anchor="middle" x="569" y="-7" font-family="Helvetica,sans-Serif" font-size="10.00">absl/log/check.h</text>
</a>
</g>
</g>
<!-- Node1&#45;&gt;Node6 -->
<g id="edge5_Node000001_Node000006" class="edge">
<title>Node1&#45;&gt;Node6</title>
<g id="a_edge5_Node000001_Node000006"><a xlink:title=" ">
<path fill="none" stroke="#63b8ff" d="M739.79,-55.3C697.89,-44.31 646.78,-30.9 611.46,-21.64"/>
<polygon fill="#63b8ff" stroke="#63b8ff" points="612.04,-18.17 601.48,-19.02 610.26,-24.94 612.04,-18.17"/>
</a>
</g>
</g>
<!-- Node7 -->
<g id="Node000007" class="node">
<title>Node7</title>
<g id="a_Node000007"><a xlink:title=" ">
<polygon fill="#e0e0e0" stroke="#999999" points="743.5,-19 634.5,-19 634.5,0 743.5,0 743.5,-19"/>
<text text-anchor="middle" x="689" y="-7" font-family="Helvetica,sans-Serif" font-size="10.00">absl/log/initialize.h</text>
</a>
</g>
</g>
<!-- Node1&#45;&gt;Node7 -->
<g id="edge6_Node000001_Node000007" class="edge">
<title>Node1&#45;&gt;Node7</title>
<g id="a_edge6_Node000001_Node000007"><a xlink:title=" ">
<path fill="none" stroke="#63b8ff" d="M775.12,-54.95C755.53,-44.84 732.13,-32.76 714.67,-23.75"/>
<polygon fill="#63b8ff" stroke="#63b8ff" points="716.14,-20.57 705.65,-19.09 712.93,-26.79 716.14,-20.57"/>
</a>
</g>
</g>
<!-- Node8 -->
<g id="Node000008" class="node">
<title>Node8</title>
<g id="a_Node000008"><a xlink:title=" ">
<polygon fill="#e0e0e0" stroke="#999999" points="864,-19 762,-19 762,0 864,0 864,-19"/>
<text text-anchor="middle" x="813" y="-7" font-family="Helvetica,sans-Serif" font-size="10.00">absl/log/globals.h</text>
</a>
</g>
</g>
<!-- Node1&#45;&gt;Node8 -->
<g id="edge7_Node000001_Node000008" class="edge">
<title>Node1&#45;&gt;Node8</title>
<g id="a_edge7_Node000001_Node000008"><a xlink:title=" ">
<path fill="none" stroke="#63b8ff" d="M813,-54.95C813,-46.85 813,-37.5 813,-29.47"/>
<polygon fill="#63b8ff" stroke="#63b8ff" points="816.5,-29.26 813,-19.26 809.5,-29.26 816.5,-29.26"/>
</a>
</g>
</g>
<!-- Node9 -->
<g id="Node000009" class="node">
<title>Node9</title>
<g id="a_Node000009"><a xlink:title=" ">
<polygon fill="#e0e0e0" stroke="#999999" points="986,-19 882,-19 882,0 986,0 986,-19"/>
<text text-anchor="middle" x="934" y="-7" font-family="Helvetica,sans-Serif" font-size="10.00">absl/flags/usage.h</text>
</a>
</g>
</g>
<!-- Node1&#45;&gt;Node9 -->
<g id="edge8_Node000001_Node000009" class="edge">
<title>Node1&#45;&gt;Node9</title>
<g id="a_edge8_Node000001_Node000009"><a xlink:title=" ">
<path fill="none" stroke="#63b8ff" d="M849.96,-54.95C868.9,-44.93 891.49,-32.99 908.47,-24"/>
<polygon fill="#63b8ff" stroke="#63b8ff" points="910.55,-26.86 917.76,-19.09 907.28,-20.67 910.55,-26.86"/>
</a>
</g>
</g>
<!-- Node10 -->
<g id="Node000010" class="node">
<title>Node10</title>
<g id="a_Node000010"><a xlink:title=" ">
<polygon fill="#e0e0e0" stroke="#999999" points="1052,-19 1004,-19 1004,0 1052,0 1052,-19"/>
<text text-anchor="middle" x="1028" y="-7" font-family="Helvetica,sans-Serif" font-size="10.00">mutex</text>
</a>
</g>
</g>
<!-- Node1&#45;&gt;Node10 -->
<g id="edge9_Node000001_Node000010" class="edge">
<title>Node1&#45;&gt;Node10</title>
<g id="a_edge9_Node000001_Node000010"><a xlink:title=" ">
<path fill="none" stroke="#63b8ff" d="M878.68,-54.95C916.73,-43.62 963.07,-29.83 993.94,-20.64"/>
<polygon fill="#63b8ff" stroke="#63b8ff" points="995.19,-23.92 1003.78,-17.71 993.19,-17.21 995.19,-23.92"/>
</a>
</g>
</g>
<!-- Node11 -->
<g id="Node000011" class="node">
<title>Node11</title>
<g id="a_Node000011"><a xlink:title=" ">
<polygon fill="#e0e0e0" stroke="#999999" points="1130,-19 1070,-19 1070,0 1130,0 1130,-19"/>
<text text-anchor="middle" x="1100" y="-7" font-family="Helvetica,sans-Serif" font-size="10.00">iostream</text>
</a>
</g>
</g>
<!-- Node1&#45;&gt;Node11 -->
<g id="edge10_Node000001_Node000011" class="edge">
<title>Node1&#45;&gt;Node11</title>
<g id="a_edge10_Node000001_Node000011"><a xlink:title=" ">
<path fill="none" stroke="#63b8ff" d="M886.16,-58.18C941.32,-45.88 1014.9,-29.48 1059.79,-19.47"/>
<polygon fill="#63b8ff" stroke="#63b8ff" points="1060.74,-22.84 1069.74,-17.25 1059.22,-16.01 1060.74,-22.84"/>
</a>
</g>
</g>
<!-- Node12 -->
<g id="Node000012" class="node">
<title>Node12</title>
<g id="a_Node000012"><a xlink:title=" ">
<polygon fill="#e0e0e0" stroke="#999999" points="1203.5,-19 1148.5,-19 1148.5,0 1203.5,0 1203.5,-19"/>
<text text-anchor="middle" x="1176" y="-7" font-family="Helvetica,sans-Serif" font-size="10.00">fstream</text>
</a>
</g>
</g>
<!-- Node1&#45;&gt;Node12 -->
<g id="edge11_Node000001_Node000012" class="edge">
<title>Node1&#45;&gt;Node12</title>
<g id="a_edge11_Node000001_Node000012"><a xlink:title=" ">
<path fill="none" stroke="#63b8ff" d="M886.05,-63.29C950,-53.19 1045.63,-37.42 1138.33,-19.04"/>
<polygon fill="#63b8ff" stroke="#63b8ff" points="1139.03,-22.47 1148.16,-17.08 1137.66,-15.6 1139.03,-22.47"/>
</a>
</g>
</g>
<!-- Node13 -->
<g id="Node000013" class="node">
<title>Node13</title>
<g id="a_Node000013"><a xlink:title=" ">
<polygon fill="#e0e0e0" stroke="#999999" points="1278,-19 1222,-19 1222,0 1278,0 1278,-19"/>
<text text-anchor="middle" x="1250" y="-7" font-family="Helvetica,sans-Serif" font-size="10.00">sstream</text>
</a>
</g>
</g>
<!-- Node1&#45;&gt;Node13 -->
<g id="edge12_Node000001_Node000013" class="edge">
<title>Node1&#45;&gt;Node13</title>
<g id="a_edge12_Node000001_Node000013"><a xlink:title=" ">
<path fill="none" stroke="#63b8ff" d="M886.3,-66.29C964.55,-57.08 1092.35,-40.78 1211.72,-19.1"/>
<polygon fill="#63b8ff" stroke="#63b8ff" points="1212.57,-22.5 1221.77,-17.25 1211.3,-15.61 1212.57,-22.5"/>
</a>
</g>
</g>
<!-- Node14 -->
<g id="Node000014" class="node">
<title>Node14</title>
<g id="a_Node000014"><a xlink:title=" ">
<polygon fill="#e0e0e0" stroke="#999999" points="1364,-19 1296,-19 1296,0 1364,0 1364,-19"/>
<text text-anchor="middle" x="1330" y="-7" font-family="Helvetica,sans-Serif" font-size="10.00">filesystem</text>
</a>
</g>
</g>
<!-- Node1&#45;&gt;Node14 -->
<g id="edge13_Node000001_Node000014" class="edge">
<title>Node1&#45;&gt;Node14</title>
<g id="a_edge13_Node000001_Node000014"><a xlink:title=" ">
<path fill="none" stroke="#63b8ff" d="M886.32,-67.72C977.58,-58.88 1138.38,-41.97 1285.65,-19.1"/>
<polygon fill="#63b8ff" stroke="#63b8ff" points="1286.44,-22.52 1295.78,-17.52 1285.35,-15.61 1286.44,-22.52"/>
</a>
</g>
</g>
</g>
</svg>
