<?xml version="1.0" encoding="UTF-8" standalone="no"?>
<!DOCTYPE svg PUBLIC "-//W3C//DTD SVG 1.1//EN"
 "http://www.w3.org/Graphics/SVG/1.1/DTD/svg11.dtd">
<!-- Generated by graphviz version 2.43.0 (0)
 -->
<!-- Title: /home/runner/work/Catena/Catena/sdks/cpp/common/include/Menu.h Pages: 1 -->
<!--zoomable 434 -->

<svg id="main" version="1.1" xmlns="http://www.w3.org/2000/svg" xmlns:xlink="http://www.w3.org/1999/xlink" xml:space="preserve" onload="init(evt)">
<style type="text/css"><![CDATA[
.node, .edge {opacity: 0.7;}
.node.selected, .edge.selected {opacity: 1;}
.edge:hover path { stroke: red; }
.edge:hover polygon { stroke: red; fill: red; }
]]></style>

<defs>
  <circle id="rim" cx="0" cy="0" r="7"/>
  <circle id="rim2" cx="0" cy="0" r="3.5"/>
  <g id="zoomPlus">
    <use xlink:href="#rim" fill="#404040"><set attributeName="fill" to="#808080" begin="zoomplus.mouseover" end="zoomplus.mouseout"/></use>
    <path d="M-4,0h8M0,-4v8" fill="none" stroke="white" stroke-width="1.5" pointer-events="none"/>
  </g>
  <g id="zoomMin">
    <use xlink:href="#rim" fill="#404040"><set attributeName="fill" to="#808080" begin="zoomminus.mouseover" end="zoomminus.mouseout"/></use>
    <path d="M-4,0h8" fill="none" stroke="white" stroke-width="1.5" pointer-events="none"/>
  </g>
  <g id="arrowUp" transform="translate(30 24)">
    <use xlink:href="#rim"/>
    <path pointer-events="none" fill="none" stroke="white" stroke-width="1.5" d="M0,-3.0v7 M-2.5,-0.5L0,-3.0L2.5,-0.5"/>
  </g>
  <g id="arrowRight" transform="rotate(90) translate(36 -43)">
    <use xlink:href="#rim"/>
    <path pointer-events="none" fill="none" stroke="white" stroke-width="1.5" d="M0,-3.0v7 M-2.5,-0.5L0,-3.0L2.5,-0.5"/>
  </g>
  <g id="arrowDown" transform="rotate(180) translate(-30 -48)">
    <use xlink:href="#rim"/>
    <path pointer-events="none" fill="none" stroke="white" stroke-width="1.5" d="M0,-3.0v7 M-2.5,-0.5L0,-3.0L2.5,-0.5"/>
  </g>
  <g id="arrowLeft" transform="rotate(270) translate(-36 17)">
    <use xlink:href="#rim"/>
    <path pointer-events="none" fill="none" stroke="white" stroke-width="1.5" d="M0,-3.0v7 M-2.5,-0.5L0,-3.0L2.5,-0.5"/>
  </g>
  <g id="resetDef">
    <use xlink:href="#rim2" fill="#404040"><set attributeName="fill" to="#808080" begin="reset.mouseover" end="reset.mouseout"/></use>
  </g>
</defs>
<script type="application/ecmascript">
var viewWidth = 1674;
var viewHeight = 434;
var sectionId = 'dynsection-0';
</script>
<script type="application/ecmascript" xlink:href="svg.min.js"/>
<svg id="graph" class="graph">
<g id="viewport">
<title>/home/runner/work/Catena/Catena/sdks/cpp/common/include/Menu.h</title>
<!-- Node1 -->
<g id="Node000001" class="node">
<title>Node1</title>
<g id="a_Node000001"><a xlink:title="Menus support.">
<polygon fill="#999999" stroke="#666666" points="312.5,-426 166.5,-426 166.5,-385 312.5,-385 312.5,-426"/>
<text text-anchor="start" x="174.5" y="-414" font-family="Helvetica,sans-Serif" font-size="10.00">/home/runner/work/Catena</text>
<text text-anchor="start" x="174.5" y="-403" font-family="Helvetica,sans-Serif" font-size="10.00">/Catena/sdks/cpp/common</text>
<text text-anchor="middle" x="239.5" y="-392" font-family="Helvetica,sans-Serif" font-size="10.00">/include/Menu.h</text>
</a>
</g>
</g>
<!-- Node2 -->
<g id="Node000002" class="node">
<title>Node2</title>
<g id="a_Node000002"><a xlink:href="IMenu_8h.html" target="_top" xlink:title="Interface for Menus.">
<polygon fill="white" stroke="#666666" points="85.5,-294 29.5,-294 29.5,-275 85.5,-275 85.5,-294"/>
<text text-anchor="middle" x="57.5" y="-282" font-family="Helvetica,sans-Serif" font-size="10.00">IMenu.h</text>
</a>
</g>
</g>
<!-- Node1&#45;&gt;Node2 -->
<g id="edge1_Node000001_Node000002" class="edge">
<title>Node1&#45;&gt;Node2</title>
<g id="a_edge1_Node000001_Node000002"><a xlink:title=" ">
<path fill="none" stroke="#63b8ff" d="M166.42,-396.87C133.06,-389.68 95.69,-375.79 71.5,-349 60.63,-336.95 57.55,-318.41 56.94,-304.47"/>
<polygon fill="#63b8ff" stroke="#63b8ff" points="60.44,-304.07 56.9,-294.08 53.44,-304.1 60.44,-304.07"/>
</a>
</g>
</g>
<!-- Node3 -->
<g id="Node000003" class="node">
<title>Node3</title>
<g id="a_Node000003"><a xlink:title=" ">
<polygon fill="#e0e0e0" stroke="#999999" points="115,-239 0,-239 0,-220 115,-220 115,-239"/>
<text text-anchor="middle" x="57.5" y="-227" font-family="Helvetica,sans-Serif" font-size="10.00">interface/menu.pb.h</text>
</a>
</g>
</g>
<!-- Node1&#45;&gt;Node3 -->
<g id="edge62_Node000001_Node000003" class="edge">
<title>Node1&#45;&gt;Node3</title>
<g id="a_edge62_Node000001_Node000003"><a xlink:title=" ">
<path fill="none" stroke="#63b8ff" d="M166.06,-393.92C130.64,-386.03 89.09,-372.39 57.5,-349 27.95,-327.12 8,-309.58 20.5,-275 24.44,-264.09 32.36,-253.96 39.86,-246.14"/>
<polygon fill="#63b8ff" stroke="#63b8ff" points="42.34,-248.61 47.06,-239.13 37.45,-243.6 42.34,-248.61"/>
</a>
</g>
</g>
<!-- Node4 -->
<g id="Node000004" class="node">
<title>Node4</title>
<g id="a_Node000004"><a xlink:href="IMenuGroup_8h.html" target="_top" xlink:title="Interface for MenuGroup.">
<polygon fill="white" stroke="#666666" points="166,-349 81,-349 81,-330 166,-330 166,-349"/>
<text text-anchor="middle" x="123.5" y="-337" font-family="Helvetica,sans-Serif" font-size="10.00">IMenuGroup.h</text>
</a>
</g>
</g>
<!-- Node1&#45;&gt;Node4 -->
<g id="edge3_Node000001_Node000004" class="edge">
<title>Node1&#45;&gt;Node4</title>
<g id="a_edge3_Node000001_Node000004"><a xlink:title=" ">
<path fill="none" stroke="#63b8ff" d="M204.07,-384.95C185.91,-374.93 164.26,-362.99 147.97,-354"/>
<polygon fill="#63b8ff" stroke="#63b8ff" points="149.52,-350.86 139.07,-349.09 146.14,-356.99 149.52,-350.86"/>
</a>
</g>
</g>
<!-- Node5 -->
<g id="Node000005" class="node">
<title>Node5</title>
<g id="a_Node000005"><a xlink:title=" ">
<polygon fill="#e0e0e0" stroke="#999999" points="1073.5,-19 1029.5,-19 1029.5,0 1073.5,0 1073.5,-19"/>
<text text-anchor="middle" x="1051.5" y="-7" font-family="Helvetica,sans-Serif" font-size="10.00">string</text>
</a>
</g>
</g>
<!-- Node1&#45;&gt;Node5 -->
<g id="edge63_Node000001_Node000005" class="edge">
<title>Node1&#45;&gt;Node5</title>
<g id="a_edge63_Node000001_Node000005"><a xlink:title=" ">
<path fill="none" stroke="#63b8ff" d="M312.67,-402.27C603.97,-392.91 1665.5,-354.09 1665.5,-285.5 1665.5,-285.5 1665.5,-285.5 1665.5,-118.5 1665.5,-63.96 1612.34,-71.93 1560.5,-55 1471.2,-25.84 1181.23,-14.47 1083.78,-11.41"/>
<polygon fill="#63b8ff" stroke="#63b8ff" points="1083.76,-7.91 1073.65,-11.1 1083.54,-14.91 1083.76,-7.91"/>
</a>
</g>
</g>
<!-- Node6 -->
<g id="Node000006" class="node">
<title>Node6</title>
<g id="a_Node000006"><a xlink:title=" ">
<polygon fill="#e0e0e0" stroke="#999999" points="326,-19 233,-19 233,0 326,0 326,-19"/>
<text text-anchor="middle" x="279.5" y="-7" font-family="Helvetica,sans-Serif" font-size="10.00">unordered_map</text>
</a>
</g>
</g>
<!-- Node1&#45;&gt;Node6 -->
<g id="edge64_Node000001_Node000006" class="edge">
<title>Node1&#45;&gt;Node6</title>
<g id="a_edge64_Node000001_Node000006"><a xlink:title=" ">
<path fill="none" stroke="#63b8ff" d="M229.98,-384.93C215.47,-353.27 189.5,-288.49 189.5,-230.5 189.5,-230.5 189.5,-230.5 189.5,-118.5 189.5,-76.84 229.52,-42.72 256.18,-24.6"/>
<polygon fill="#63b8ff" stroke="#63b8ff" points="258.18,-27.48 264.64,-19.09 254.35,-21.62 258.18,-27.48"/>
</a>
</g>
</g>
<!-- Node7 -->
<g id="Node000007" class="node">
<title>Node7</title>
<g id="a_Node000007"><a xlink:href="IDevice_8h.html" target="_top" xlink:title="Interface for device.">
<polygon fill="white" stroke="#666666" points="706.5,-349 644.5,-349 644.5,-330 706.5,-330 706.5,-349"/>
<text text-anchor="middle" x="675.5" y="-337" font-family="Helvetica,sans-Serif" font-size="10.00">IDevice.h</text>
</a>
</g>
</g>
<!-- Node1&#45;&gt;Node7 -->
<g id="edge8_Node000001_Node000007" class="edge">
<title>Node1&#45;&gt;Node7</title>
<g id="a_edge8_Node000001_Node000007"><a xlink:title=" ">
<path fill="none" stroke="#63b8ff" d="M312.97,-393.72C405.26,-380.17 560.46,-357.39 634.2,-346.56"/>
<polygon fill="#63b8ff" stroke="#63b8ff" points="635.08,-349.97 644.47,-345.06 634.07,-343.04 635.08,-349.97"/>
</a>
</g>
</g>
<!-- Node11 -->
<g id="Node000011" class="node">
<title>Node11</title>
<g id="a_Node000011"><a xlink:title=" ">
<polygon fill="#e0e0e0" stroke="#999999" points="303,-129 256,-129 256,-110 303,-110 303,-129"/>
<text text-anchor="middle" x="279.5" y="-117" font-family="Helvetica,sans-Serif" font-size="10.00">vector</text>
</a>
</g>
</g>
<!-- Node1&#45;&gt;Node11 -->
<g id="edge65_Node000001_Node000011" class="edge">
<title>Node1&#45;&gt;Node11</title>
<g id="a_edge65_Node000001_Node000011"><a xlink:title=" ">
<path fill="none" stroke="#63b8ff" d="M248.52,-384.75C258.29,-361.51 272.5,-321.52 272.5,-285.5 272.5,-285.5 272.5,-285.5 272.5,-228.5 272.5,-197.12 275.48,-160.73 277.55,-139.21"/>
<polygon fill="#63b8ff" stroke="#63b8ff" points="281.04,-139.47 278.56,-129.17 274.08,-138.77 281.04,-139.47"/>
</a>
</g>
</g>
<!-- Node27 -->
<g id="Node000027" class="node">
<title>Node27</title>
<g id="a_Node000027"><a xlink:href="PolyglotText_8h.html" target="_top" xlink:title="Polyglot Text serialization and deserialization to protobuf.">
<polygon fill="white" stroke="#666666" points="865.5,-129 779.5,-129 779.5,-110 865.5,-110 865.5,-129"/>
<text text-anchor="middle" x="822.5" y="-117" font-family="Helvetica,sans-Serif" font-size="10.00">PolyglotText.h</text>
</a>
</g>
</g>
<!-- Node1&#45;&gt;Node27 -->
<g id="edge61_Node000001_Node000027" class="edge">
<title>Node1&#45;&gt;Node27</title>
<g id="a_edge61_Node000001_Node000027"><a xlink:title=" ">
<path fill="none" stroke="#63b8ff" d="M279.57,-384.98C391.01,-330.69 702.5,-178.96 795.78,-133.52"/>
<polygon fill="#63b8ff" stroke="#63b8ff" points="797.38,-136.63 804.84,-129.1 794.32,-130.33 797.38,-136.63"/>
</a>
</g>
</g>
<!-- Node2&#45;&gt;Node3 -->
<g id="edge2_Node000002_Node000003" class="edge">
<title>Node2&#45;&gt;Node3</title>
<g id="a_edge2_Node000002_Node000003"><a xlink:title=" ">
<path fill="none" stroke="#63b8ff" d="M57.5,-274.75C57.5,-267.8 57.5,-257.85 57.5,-249.13"/>
<polygon fill="#63b8ff" stroke="#63b8ff" points="61,-249.09 57.5,-239.09 54,-249.09 61,-249.09"/>
</a>
</g>
</g>
<!-- Node4&#45;&gt;Node2 -->
<g id="edge5_Node000004_Node000002" class="edge">
<title>Node4&#45;&gt;Node2</title>
<g id="a_edge5_Node000004_Node000002"><a xlink:title=" ">
<path fill="none" stroke="#63b8ff" d="M112.9,-329.98C103.04,-322.07 88.15,-310.11 76.28,-300.58"/>
<polygon fill="#63b8ff" stroke="#63b8ff" points="78.29,-297.7 68.3,-294.17 73.9,-303.16 78.29,-297.7"/>
</a>
</g>
</g>
<!-- Node4&#45;&gt;Node3 -->
<g id="edge4_Node000004_Node000003" class="edge">
<title>Node4&#45;&gt;Node3</title>
<g id="a_edge4_Node000004_Node000003"><a xlink:title=" ">
<path fill="none" stroke="#63b8ff" d="M120.42,-329.92C115.73,-317.36 106.11,-293.47 94.5,-275 88.23,-265.02 79.94,-254.85 72.8,-246.75"/>
<polygon fill="#63b8ff" stroke="#63b8ff" points="75.22,-244.21 65.9,-239.16 70.04,-248.92 75.22,-244.21"/>
</a>
</g>
</g>
<!-- Node4&#45;&gt;Node5 -->
<g id="edge6_Node000004_Node000005" class="edge">
<title>Node4&#45;&gt;Node5</title>
<g id="a_edge6_Node000004_Node000005"><a xlink:title=" ">
<path fill="none" stroke="#63b8ff" d="M142.09,-329.8C172.01,-314.37 227.5,-279.18 227.5,-230.5 227.5,-230.5 227.5,-230.5 227.5,-173.5 227.5,-144.04 224,-129.01 246.5,-110 261.6,-97.24 869.99,-30.26 1018.88,-14.04"/>
<polygon fill="#63b8ff" stroke="#63b8ff" points="1019.61,-17.48 1029.17,-12.92 1018.85,-10.52 1019.61,-17.48"/>
</a>
</g>
</g>
<!-- Node4&#45;&gt;Node6 -->
<g id="edge7_Node000004_Node000006" class="edge">
<title>Node4&#45;&gt;Node6</title>
<g id="a_edge7_Node000004_Node000006"><a xlink:title=" ">
<path fill="none" stroke="#63b8ff" d="M127.39,-329.74C135.09,-311.6 151.5,-268.46 151.5,-230.5 151.5,-230.5 151.5,-230.5 151.5,-118.5 151.5,-88.33 154.63,-76.79 175.5,-55 190.43,-39.41 211.72,-29 231.15,-22.2"/>
<polygon fill="#63b8ff" stroke="#63b8ff" points="232.37,-25.49 240.8,-19.06 230.2,-18.83 232.37,-25.49"/>
</a>
</g>
</g>
<!-- Node7&#45;&gt;Node5 -->
<g id="edge57_Node000007_Node000005" class="edge">
<title>Node7&#45;&gt;Node5</title>
<g id="a_edge57_Node000007_Node000005"><a xlink:title=" ">
<path fill="none" stroke="#63b8ff" d="M706.63,-338.31C870.7,-336.93 1627.5,-325.42 1627.5,-230.5 1627.5,-230.5 1627.5,-230.5 1627.5,-118.5 1627.5,-52.6 1556.99,-72.67 1493.5,-55 1344.43,-13.51 1157.53,-9.72 1083.66,-10.02"/>
<polygon fill="#63b8ff" stroke="#63b8ff" points="1083.58,-6.52 1073.6,-10.09 1083.63,-13.52 1083.58,-6.52"/>
</a>
</g>
</g>
<!-- Node8 -->
<g id="Node000008" class="node">
<title>Node8</title>
<g id="a_Node000008"><a xlink:href="Authorization_8h.html" target="_top" xlink:title="Class for handling authorization information.">
<polygon fill="white" stroke="#666666" points="1029,-294 938,-294 938,-275 1029,-275 1029,-294"/>
<text text-anchor="middle" x="983.5" y="-282" font-family="Helvetica,sans-Serif" font-size="10.00">Authorization.h</text>
</a>
</g>
</g>
<!-- Node7&#45;&gt;Node8 -->
<g id="edge9_Node000007_Node000008" class="edge">
<title>Node7&#45;&gt;Node8</title>
<g id="a_edge9_Node000007_Node000008"><a xlink:title=" ">
<path fill="none" stroke="#63b8ff" d="M706.73,-333.13C758.55,-324.21 863.02,-306.23 927.74,-295.1"/>
<polygon fill="#63b8ff" stroke="#63b8ff" points="928.51,-298.51 937.77,-293.37 927.32,-291.62 928.51,-298.51"/>
</a>
</g>
</g>
<!-- Node9 -->
<g id="Node000009" class="node">
<title>Node9</title>
<g id="a_Node000009"><a xlink:href="Path_8h.html" target="_top" xlink:title="Handles Path objects used to uniquely identify and access OIDs.">
<polygon fill="white" stroke="#666666" points="585,-184 538,-184 538,-165 585,-165 585,-184"/>
<text text-anchor="middle" x="561.5" y="-172" font-family="Helvetica,sans-Serif" font-size="10.00">Path.h</text>
</a>
</g>
</g>
<!-- Node7&#45;&gt;Node9 -->
<g id="edge49_Node000007_Node000009" class="edge">
<title>Node7&#45;&gt;Node9</title>
<g id="a_edge49_Node000007_Node000009"><a xlink:title=" ">
<path fill="none" stroke="#63b8ff" d="M644.11,-331.91C622.82,-325.76 595.85,-314.36 580.5,-294 558.42,-264.71 557.72,-219.67 559.44,-194.39"/>
<polygon fill="#63b8ff" stroke="#63b8ff" points="562.94,-194.56 560.33,-184.29 555.97,-193.94 562.94,-194.56"/>
</a>
</g>
</g>
<!-- Node7&#45;&gt;Node11 -->
<g id="edge58_Node000007_Node000011" class="edge">
<title>Node7&#45;&gt;Node11</title>
<g id="a_edge58_Node000007_Node000011"><a xlink:title=" ">
<path fill="none" stroke="#63b8ff" d="M644.48,-337.17C577.74,-333.78 423.13,-322.96 380.5,-294 324.32,-255.84 295.15,-175.26 284.42,-138.94"/>
<polygon fill="#63b8ff" stroke="#63b8ff" points="287.75,-137.86 281.67,-129.19 281.01,-139.76 287.75,-137.86"/>
</a>
</g>
</g>
<!-- Node19 -->
<g id="Node000019" class="node">
<title>Node19</title>
<g id="a_Node000019"><a xlink:title=" ">
<polygon fill="#e0e0e0" stroke="#999999" points="1599,-129 1480,-129 1480,-110 1599,-110 1599,-129"/>
<text text-anchor="middle" x="1539.5" y="-117" font-family="Helvetica,sans-Serif" font-size="10.00">interface/device.pb.h</text>
</a>
</g>
</g>
<!-- Node7&#45;&gt;Node19 -->
<g id="edge56_Node000007_Node000019" class="edge">
<title>Node7&#45;&gt;Node19</title>
<g id="a_edge56_Node000007_Node000019"><a xlink:title=" ">
<path fill="none" stroke="#63b8ff" d="M706.9,-336.58C770.21,-332.28 917.48,-320.15 1038.5,-294 1198.29,-259.47 1236.05,-240.38 1389.5,-184 1432.67,-168.14 1481.52,-146.81 1511.41,-133.35"/>
<polygon fill="#63b8ff" stroke="#63b8ff" points="1513.12,-136.42 1520.79,-129.11 1510.24,-130.04 1513.12,-136.42"/>
</a>
</g>
</g>
<!-- Node20 -->
<g id="Node000020" class="node">
<title>Node20</title>
<g id="a_Node000020"><a xlink:href="IParam_8h.html" target="_top" xlink:title="Interface for parameters.">
<polygon fill="white" stroke="#666666" points="955,-239 896,-239 896,-220 955,-220 955,-239"/>
<text text-anchor="middle" x="925.5" y="-227" font-family="Helvetica,sans-Serif" font-size="10.00">IParam.h</text>
</a>
</g>
</g>
<!-- Node7&#45;&gt;Node20 -->
<g id="edge50_Node000007_Node000020" class="edge">
<title>Node7&#45;&gt;Node20</title>
<g id="a_edge50_Node000007_Node000020"><a xlink:title=" ">
<path fill="none" stroke="#63b8ff" d="M706.79,-332.02C737.99,-324.93 786.85,-312.11 826.5,-294 856,-280.52 887.01,-259.32 906.29,-245.17"/>
<polygon fill="#63b8ff" stroke="#63b8ff" points="908.6,-247.82 914.52,-239.04 904.41,-242.21 908.6,-247.82"/>
</a>
</g>
</g>
<!-- Node31 -->
<g id="Node000031" class="node">
<title>Node31</title>
<g id="a_Node000031"><a xlink:href="Status_8h.html" target="_top" xlink:title="Communicates failure status using gRPC&#39;s codes.">
<polygon fill="white" stroke="#666666" points="502.5,-184 446.5,-184 446.5,-165 502.5,-165 502.5,-184"/>
<text text-anchor="middle" x="474.5" y="-172" font-family="Helvetica,sans-Serif" font-size="10.00">Status.h</text>
</a>
</g>
</g>
<!-- Node7&#45;&gt;Node31 -->
<g id="edge54_Node000007_Node000031" class="edge">
<title>Node7&#45;&gt;Node31</title>
<g id="a_edge54_Node000007_Node000031"><a xlink:title=" ">
<path fill="none" stroke="#63b8ff" d="M644.15,-330.47C621.07,-323.48 589.78,-311.67 566.5,-294 529.13,-265.65 498.81,-218.54 484.11,-193.1"/>
<polygon fill="#63b8ff" stroke="#63b8ff" points="487.06,-191.2 479.11,-184.21 480.96,-194.64 487.06,-191.2"/>
</a>
</g>
</g>
<!-- Node35 -->
<g id="Node000035" class="node">
<title>Node35</title>
<g id="a_Node000035"><a xlink:href="ILanguagePack_8h.html" target="_top" xlink:title="Interface for language packs.">
<polygon fill="white" stroke="#666666" points="347.5,-74 249.5,-74 249.5,-55 347.5,-55 347.5,-74"/>
<text text-anchor="middle" x="298.5" y="-62" font-family="Helvetica,sans-Serif" font-size="10.00">ILanguagePack.h</text>
</a>
</g>
</g>
<!-- Node7&#45;&gt;Node35 -->
<g id="edge51_Node000007_Node000035" class="edge">
<title>Node7&#45;&gt;Node35</title>
<g id="a_edge51_Node000007_Node000035"><a xlink:title=" ">
<path fill="none" stroke="#63b8ff" d="M644.49,-331.62C616.81,-324.67 575.78,-312.32 543.5,-294 445.36,-238.29 429.45,-209.64 350.5,-129 335.92,-114.11 321.03,-95.51 310.94,-82.3"/>
<polygon fill="#63b8ff" stroke="#63b8ff" points="313.59,-80 304.78,-74.12 308,-84.21 313.59,-80"/>
</a>
</g>
</g>
<!-- Node36 -->
<g id="Node000036" class="node">
<title>Node36</title>
<g id="a_Node000036"><a xlink:title=" ">
<polygon fill="#e0e0e0" stroke="#999999" points="671,-294 590,-294 590,-275 671,-275 671,-294"/>
<text text-anchor="middle" x="630.5" y="-282" font-family="Helvetica,sans-Serif" font-size="10.00">vdk/signals.h</text>
</a>
</g>
</g>
<!-- Node7&#45;&gt;Node36 -->
<g id="edge55_Node000007_Node000036" class="edge">
<title>Node7&#45;&gt;Node36</title>
<g id="a_edge55_Node000007_Node000036"><a xlink:title=" ">
<path fill="none" stroke="#63b8ff" d="M668.07,-329.75C661.65,-322.18 652.19,-311.05 644.38,-301.84"/>
<polygon fill="#63b8ff" stroke="#63b8ff" points="646.93,-299.45 637.79,-294.09 641.6,-303.98 646.93,-299.45"/>
</a>
</g>
</g>
<!-- Node37 -->
<g id="Node000037" class="node">
<title>Node37</title>
<g id="a_Node000037"><a xlink:title=" ">
<polygon fill="#e0e0e0" stroke="#999999" points="751.5,-294 689.5,-294 689.5,-275 751.5,-275 751.5,-294"/>
<text text-anchor="middle" x="720.5" y="-282" font-family="Helvetica,sans-Serif" font-size="10.00">coroutine</text>
</a>
</g>
</g>
<!-- Node7&#45;&gt;Node37 -->
<g id="edge59_Node000007_Node000037" class="edge">
<title>Node7&#45;&gt;Node37</title>
<g id="a_edge59_Node000007_Node000037"><a xlink:title=" ">
<path fill="none" stroke="#63b8ff" d="M682.93,-329.75C689.35,-322.18 698.81,-311.05 706.62,-301.84"/>
<polygon fill="#63b8ff" stroke="#63b8ff" points="709.4,-303.98 713.21,-294.09 704.07,-299.45 709.4,-303.98"/>
</a>
</g>
</g>
<!-- Node38 -->
<g id="Node000038" class="node">
<title>Node38</title>
<g id="a_Node000038"><a xlink:title=" ">
<polygon fill="#e0e0e0" stroke="#999999" points="817.5,-294 769.5,-294 769.5,-275 817.5,-275 817.5,-294"/>
<text text-anchor="middle" x="793.5" y="-282" font-family="Helvetica,sans-Serif" font-size="10.00">mutex</text>
</a>
</g>
</g>
<!-- Node7&#45;&gt;Node38 -->
<g id="edge60_Node000007_Node000038" class="edge">
<title>Node7&#45;&gt;Node38</title>
<g id="a_edge60_Node000007_Node000038"><a xlink:title=" ">
<path fill="none" stroke="#63b8ff" d="M694.46,-329.98C713.53,-321.42 743.16,-308.11 765.05,-298.28"/>
<polygon fill="#63b8ff" stroke="#63b8ff" points="766.51,-301.46 774.2,-294.17 763.64,-295.07 766.51,-301.46"/>
</a>
</g>
</g>
<!-- Node8&#45;&gt;Node9 -->
<g id="edge10_Node000008_Node000009" class="edge">
<title>Node8&#45;&gt;Node9</title>
<g id="a_edge10_Node000008_Node000009"><a xlink:title=" ">
<path fill="none" stroke="#63b8ff" d="M950.03,-274.94C871.12,-254.74 674.1,-204.32 595.07,-184.09"/>
<polygon fill="#63b8ff" stroke="#63b8ff" points="595.72,-180.64 585.16,-181.56 593.98,-187.43 595.72,-180.64"/>
</a>
</g>
</g>
<!-- Node14 -->
<g id="Node000014" class="node">
<title>Node14</title>
<g id="a_Node000014"><a xlink:href="Enums_8h.html" target="_top" xlink:title="tools for using EnumDecorators.">
<polygon fill="white" stroke="#666666" points="1229,-184 1170,-184 1170,-165 1229,-165 1229,-184"/>
<text text-anchor="middle" x="1199.5" y="-172" font-family="Helvetica,sans-Serif" font-size="10.00">Enums.h</text>
</a>
</g>
</g>
<!-- Node8&#45;&gt;Node14 -->
<g id="edge16_Node000008_Node000014" class="edge">
<title>Node8&#45;&gt;Node14</title>
<g id="a_edge16_Node000008_Node000014"><a xlink:title=" ">
<path fill="none" stroke="#63b8ff" d="M983.49,-274.69C983.98,-260.93 987.02,-234.45 1002.5,-220 1002.86,-219.66 1102.36,-197.29 1159.79,-184.41"/>
<polygon fill="#63b8ff" stroke="#63b8ff" points="1160.66,-187.8 1169.65,-182.19 1159.13,-180.97 1160.66,-187.8"/>
</a>
</g>
</g>
<!-- Node8&#45;&gt;Node20 -->
<g id="edge25_Node000008_Node000020" class="edge">
<title>Node8&#45;&gt;Node20</title>
<g id="a_edge25_Node000008_Node000020"><a xlink:title=" ">
<path fill="none" stroke="#63b8ff" d="M974.18,-274.98C965.69,-267.23 952.94,-255.58 942.62,-246.14"/>
<polygon fill="#63b8ff" stroke="#63b8ff" points="944.73,-243.33 934.99,-239.17 940.01,-248.5 944.73,-243.33"/>
</a>
</g>
</g>
<!-- Node24 -->
<g id="Node000024" class="node">
<title>Node24</title>
<g id="a_Node000024"><a xlink:href="IParamDescriptor_8h.html" target="_top" xlink:title="Interface class for ParamDescriptor.">
<polygon fill="white" stroke="#666666" points="1152,-184 1043,-184 1043,-165 1152,-165 1152,-184"/>
<text text-anchor="middle" x="1097.5" y="-172" font-family="Helvetica,sans-Serif" font-size="10.00">IParamDescriptor.h</text>
</a>
</g>
</g>
<!-- Node8&#45;&gt;Node24 -->
<g id="edge46_Node000008_Node000024" class="edge">
<title>Node8&#45;&gt;Node24</title>
<g id="a_edge46_Node000008_Node000024"><a xlink:title=" ">
<path fill="none" stroke="#63b8ff" d="M1029.27,-278.61C1054.77,-273.28 1084.52,-262.17 1100.5,-239 1109.5,-225.95 1107.46,-207.56 1103.93,-193.93"/>
<polygon fill="#63b8ff" stroke="#63b8ff" points="1107.23,-192.75 1100.97,-184.2 1100.53,-194.79 1107.23,-192.75"/>
</a>
</g>
</g>
<!-- Node26 -->
<g id="Node000026" class="node">
<title>Node26</title>
<g id="a_Node000026"><a xlink:title=" ">
<polygon fill="#e0e0e0" stroke="#999999" points="1484,-74 1419,-74 1419,-55 1484,-55 1484,-74"/>
<text text-anchor="middle" x="1451.5" y="-62" font-family="Helvetica,sans-Serif" font-size="10.00">functional</text>
</a>
</g>
</g>
<!-- Node8&#45;&gt;Node26 -->
<g id="edge48_Node000008_Node000026" class="edge">
<title>Node8&#45;&gt;Node26</title>
<g id="a_edge48_Node000008_Node000026"><a xlink:title=" ">
<path fill="none" stroke="#63b8ff" d="M1009.73,-274.92C1036.77,-266.05 1080.14,-251.73 1117.5,-239 1257.87,-191.19 1330.04,-236.2 1432.5,-129 1444.04,-116.92 1448.6,-98.12 1450.39,-84.1"/>
<polygon fill="#63b8ff" stroke="#63b8ff" points="1453.88,-84.39 1451.31,-74.11 1446.91,-83.75 1453.88,-84.39"/>
</a>
</g>
</g>
<!-- Node34 -->
<g id="Node000034" class="node">
<title>Node34</title>
<g id="a_Node000034"><a xlink:title=" ">
<polygon fill="#e0e0e0" stroke="#999999" points="1091.5,-239 1011.5,-239 1011.5,-220 1091.5,-220 1091.5,-239"/>
<text text-anchor="middle" x="1051.5" y="-227" font-family="Helvetica,sans-Serif" font-size="10.00">jwt&#45;cpp/jwt.h</text>
</a>
</g>
</g>
<!-- Node8&#45;&gt;Node34 -->
<g id="edge47_Node000008_Node000034" class="edge">
<title>Node8&#45;&gt;Node34</title>
<g id="a_edge47_Node000008_Node000034"><a xlink:title=" ">
<path fill="none" stroke="#63b8ff" d="M994.43,-274.98C1004.58,-267.07 1019.92,-255.11 1032.15,-245.58"/>
<polygon fill="#63b8ff" stroke="#63b8ff" points="1034.64,-248.08 1040.38,-239.17 1030.34,-242.56 1034.64,-248.08"/>
</a>
</g>
</g>
<!-- Node9&#45;&gt;Node5 -->
<g id="edge12_Node000009_Node000005" class="edge">
<title>Node9&#45;&gt;Node5</title>
<g id="a_edge12_Node000009_Node000005"><a xlink:title=" ">
<path fill="none" stroke="#63b8ff" d="M585.25,-167.97C625.51,-158.49 705.43,-139.16 732.5,-129 750.18,-122.36 753.12,-117.39 770.5,-110 858.91,-72.41 966.85,-37.02 1019.51,-20.4"/>
<polygon fill="#63b8ff" stroke="#63b8ff" points="1020.79,-23.67 1029.29,-17.33 1018.7,-16.99 1020.79,-23.67"/>
</a>
</g>
</g>
<!-- Node10 -->
<g id="Node000010" class="node">
<title>Node10</title>
<g id="a_Node000010"><a xlink:title=" ">
<polygon fill="#e0e0e0" stroke="#999999" points="577.5,-129 517.5,-129 517.5,-110 577.5,-110 577.5,-129"/>
<text text-anchor="middle" x="547.5" y="-117" font-family="Helvetica,sans-Serif" font-size="10.00">iostream</text>
</a>
</g>
</g>
<!-- Node9&#45;&gt;Node10 -->
<g id="edge11_Node000009_Node000010" class="edge">
<title>Node9&#45;&gt;Node10</title>
<g id="a_edge11_Node000009_Node000010"><a xlink:title=" ">
<path fill="none" stroke="#63b8ff" d="M559.19,-164.75C557.33,-157.72 554.66,-147.62 552.35,-138.84"/>
<polygon fill="#63b8ff" stroke="#63b8ff" points="555.71,-137.86 549.77,-129.09 548.94,-139.65 555.71,-137.86"/>
</a>
</g>
</g>
<!-- Node9&#45;&gt;Node11 -->
<g id="edge13_Node000009_Node000011" class="edge">
<title>Node9&#45;&gt;Node11</title>
<g id="a_edge13_Node000009_Node000011"><a xlink:title=" ">
<path fill="none" stroke="#63b8ff" d="M537.94,-169.07C487.97,-159.68 371.19,-137.73 313.29,-126.85"/>
<polygon fill="#63b8ff" stroke="#63b8ff" points="313.66,-123.36 303.19,-124.95 312.37,-130.24 313.66,-123.36"/>
</a>
</g>
</g>
<!-- Node12 -->
<g id="Node000012" class="node">
<title>Node12</title>
<g id="a_Node000012"><a xlink:title=" ">
<polygon fill="#e0e0e0" stroke="#999999" points="647,-129 596,-129 596,-110 647,-110 647,-129"/>
<text text-anchor="middle" x="621.5" y="-117" font-family="Helvetica,sans-Serif" font-size="10.00">variant</text>
</a>
</g>
</g>
<!-- Node9&#45;&gt;Node12 -->
<g id="edge14_Node000009_Node000012" class="edge">
<title>Node9&#45;&gt;Node12</title>
<g id="a_edge14_Node000009_Node000012"><a xlink:title=" ">
<path fill="none" stroke="#63b8ff" d="M571.14,-164.98C580.01,-157.15 593.37,-145.34 604.11,-135.86"/>
<polygon fill="#63b8ff" stroke="#63b8ff" points="606.51,-138.41 611.68,-129.17 601.87,-133.17 606.51,-138.41"/>
</a>
</g>
</g>
<!-- Node13 -->
<g id="Node000013" class="node">
<title>Node13</title>
<g id="a_Node000013"><a xlink:title=" ">
<polygon fill="#e0e0e0" stroke="#999999" points="723.5,-129 665.5,-129 665.5,-110 723.5,-110 723.5,-129"/>
<text text-anchor="middle" x="694.5" y="-117" font-family="Helvetica,sans-Serif" font-size="10.00">memory</text>
</a>
</g>
</g>
<!-- Node9&#45;&gt;Node13 -->
<g id="edge15_Node000009_Node000013" class="edge">
<title>Node9&#45;&gt;Node13</title>
<g id="a_edge15_Node000009_Node000013"><a xlink:title=" ">
<path fill="none" stroke="#63b8ff" d="M582.87,-164.98C604.65,-156.3 638.66,-142.75 663.42,-132.88"/>
<polygon fill="#63b8ff" stroke="#63b8ff" points="664.75,-136.12 672.74,-129.17 662.16,-129.62 664.75,-136.12"/>
</a>
</g>
</g>
<!-- Node15 -->
<g id="Node000015" class="node">
<title>Node15</title>
<g id="a_Node000015"><a xlink:href="EnumDecorator_8h.html" target="_top" xlink:title="Provides an enum with useful extra functionality.">
<polygon fill="white" stroke="#666666" points="1357.5,-129 1213.5,-129 1213.5,-110 1357.5,-110 1357.5,-129"/>
<text text-anchor="middle" x="1285.5" y="-117" font-family="Helvetica,sans-Serif" font-size="10.00">patterns/EnumDecorator.h</text>
</a>
</g>
</g>
<!-- Node14&#45;&gt;Node15 -->
<g id="edge17_Node000014_Node000015" class="edge">
<title>Node14&#45;&gt;Node15</title>
<g id="a_edge17_Node000014_Node000015"><a xlink:title=" ">
<path fill="none" stroke="#63b8ff" d="M1213.32,-164.98C1226.65,-156.77 1247.08,-144.18 1262.81,-134.49"/>
<polygon fill="#63b8ff" stroke="#63b8ff" points="1264.75,-137.4 1271.43,-129.17 1261.08,-131.44 1264.75,-137.4"/>
</a>
</g>
</g>
<!-- Node17 -->
<g id="Node000017" class="node">
<title>Node17</title>
<g id="a_Node000017"><a xlink:title=" ">
<polygon fill="#e0e0e0" stroke="#999999" points="1067.5,-74 1017.5,-74 1017.5,-55 1067.5,-55 1067.5,-74"/>
<text text-anchor="middle" x="1042.5" y="-62" font-family="Helvetica,sans-Serif" font-size="10.00">cstdint</text>
</a>
</g>
</g>
<!-- Node14&#45;&gt;Node17 -->
<g id="edge24_Node000014_Node000017" class="edge">
<title>Node14&#45;&gt;Node17</title>
<g id="a_edge24_Node000014_Node000017"><a xlink:title=" ">
<path fill="none" stroke="#63b8ff" d="M1197.22,-164.83C1193.23,-151.26 1183.72,-125.04 1166.5,-110 1152.94,-98.15 1109.15,-84.04 1077.45,-74.94"/>
<polygon fill="#63b8ff" stroke="#63b8ff" points="1078.21,-71.52 1067.63,-72.17 1076.3,-78.25 1078.21,-71.52"/>
</a>
</g>
</g>
<!-- Node14&#45;&gt;Node19 -->
<g id="edge23_Node000014_Node000019" class="edge">
<title>Node14&#45;&gt;Node19</title>
<g id="a_edge23_Node000014_Node000019"><a xlink:title=" ">
<path fill="none" stroke="#63b8ff" d="M1229.08,-168.89C1283.55,-160.4 1400.88,-142.11 1474.67,-130.61"/>
<polygon fill="#63b8ff" stroke="#63b8ff" points="1475.44,-134.03 1484.78,-129.03 1474.36,-127.11 1475.44,-134.03"/>
</a>
</g>
</g>
<!-- Node15&#45;&gt;Node5 -->
<g id="edge21_Node000015_Node000005" class="edge">
<title>Node15&#45;&gt;Node5</title>
<g id="a_edge21_Node000015_Node000005"><a xlink:title=" ">
<path fill="none" stroke="#63b8ff" d="M1299.22,-109.93C1317.63,-97.38 1346.29,-73.5 1330.5,-55 1299.14,-18.24 1150.78,-11.7 1084.1,-10.64"/>
<polygon fill="#63b8ff" stroke="#63b8ff" points="1083.8,-7.14 1073.76,-10.51 1083.71,-14.14 1083.8,-7.14"/>
</a>
</g>
</g>
<!-- Node15&#45;&gt;Node6 -->
<g id="edge20_Node000015_Node000006" class="edge">
<title>Node15&#45;&gt;Node6</title>
<g id="a_edge20_Node000015_Node000006"><a xlink:title=" ">
<path fill="none" stroke="#63b8ff" d="M1242.57,-109.94C1207.52,-102.34 1157,-89.96 1114.5,-74 1096.82,-67.36 1094.77,-59.78 1076.5,-55 920.05,-14.03 515.35,-34.57 336.37,-18.91"/>
<polygon fill="#63b8ff" stroke="#63b8ff" points="336.49,-15.4 326.21,-17.95 335.84,-22.37 336.49,-15.4"/>
</a>
</g>
</g>
<!-- Node16 -->
<g id="Node000016" class="node">
<title>Node16</title>
<g id="a_Node000016"><a xlink:href="ReflectionMacros_8h.html" target="_top" xlink:title="adapted from https://github.com/tapika/TestCppReflect">
<polygon fill="white" stroke="#666666" points="1233.5,-74 1123.5,-74 1123.5,-55 1233.5,-55 1233.5,-74"/>
<text text-anchor="middle" x="1178.5" y="-62" font-family="Helvetica,sans-Serif" font-size="10.00">ReflectionMacros.h</text>
</a>
</g>
</g>
<!-- Node15&#45;&gt;Node16 -->
<g id="edge18_Node000015_Node000016" class="edge">
<title>Node15&#45;&gt;Node16</title>
<g id="a_edge18_Node000015_Node000016"><a xlink:title=" ">
<path fill="none" stroke="#63b8ff" d="M1268.31,-109.98C1251.25,-101.54 1224.87,-88.47 1205.1,-78.68"/>
<polygon fill="#63b8ff" stroke="#63b8ff" points="1206.52,-75.47 1196,-74.17 1203.41,-81.75 1206.52,-75.47"/>
</a>
</g>
</g>
<!-- Node15&#45;&gt;Node17 -->
<g id="edge19_Node000015_Node000017" class="edge">
<title>Node15&#45;&gt;Node17</title>
<g id="a_edge19_Node000015_Node000017"><a xlink:title=" ">
<path fill="none" stroke="#63b8ff" d="M1246.46,-109.98C1199.78,-99.8 1122.37,-82.92 1077.54,-73.14"/>
<polygon fill="#63b8ff" stroke="#63b8ff" points="1078.2,-69.71 1067.69,-70.99 1076.71,-76.54 1078.2,-69.71"/>
</a>
</g>
</g>
<!-- Node18 -->
<g id="Node000018" class="node">
<title>Node18</title>
<g id="a_Node000018"><a xlink:title=" ">
<polygon fill="#e0e0e0" stroke="#999999" points="1321,-74 1252,-74 1252,-55 1321,-55 1321,-74"/>
<text text-anchor="middle" x="1286.5" y="-62" font-family="Helvetica,sans-Serif" font-size="10.00">type_traits</text>
</a>
</g>
</g>
<!-- Node15&#45;&gt;Node18 -->
<g id="edge22_Node000015_Node000018" class="edge">
<title>Node15&#45;&gt;Node18</title>
<g id="a_edge22_Node000015_Node000018"><a xlink:title=" ">
<path fill="none" stroke="#63b8ff" d="M1285.67,-109.75C1285.8,-102.8 1285.98,-92.85 1286.15,-84.13"/>
<polygon fill="#63b8ff" stroke="#63b8ff" points="1289.65,-84.15 1286.34,-74.09 1282.65,-84.02 1289.65,-84.15"/>
</a>
</g>
</g>
<!-- Node20&#45;&gt;Node9 -->
<g id="edge41_Node000020_Node000009" class="edge">
<title>Node20&#45;&gt;Node9</title>
<g id="a_edge41_Node000020_Node000009"><a xlink:title=" ">
<path fill="none" stroke="#63b8ff" d="M895.71,-224.16C828.69,-214.4 666.36,-190.77 595.52,-180.45"/>
<polygon fill="#63b8ff" stroke="#63b8ff" points="595.75,-176.95 585.35,-178.97 594.75,-183.88 595.75,-176.95"/>
</a>
</g>
</g>
<!-- Node20&#45;&gt;Node14 -->
<g id="edge26_Node000020_Node000014" class="edge">
<title>Node20&#45;&gt;Node14</title>
<g id="a_edge26_Node000020_Node000014"><a xlink:title=" ">
<path fill="none" stroke="#63b8ff" d="M955.32,-222.72C960.06,-221.8 964.91,-220.87 969.5,-220 1051.71,-204.35 1074.81,-201.66 1159.82,-184.3"/>
<polygon fill="#63b8ff" stroke="#63b8ff" points="1160.56,-187.72 1169.65,-182.28 1159.15,-180.86 1160.56,-187.72"/>
</a>
</g>
</g>
<!-- Node21 -->
<g id="Node000021" class="node">
<title>Node21</title>
<g id="a_Node000021"><a xlink:href="IConstraint_8h.html" target="_top" xlink:title="Interface for constraints.">
<polygon fill="white" stroke="#666666" points="986,-184 907,-184 907,-165 986,-165 986,-184"/>
<text text-anchor="middle" x="946.5" y="-172" font-family="Helvetica,sans-Serif" font-size="10.00">IConstraint.h</text>
</a>
</g>
</g>
<!-- Node20&#45;&gt;Node21 -->
<g id="edge27_Node000020_Node000021" class="edge">
<title>Node20&#45;&gt;Node21</title>
<g id="a_edge27_Node000020_Node000021"><a xlink:title=" ">
<path fill="none" stroke="#63b8ff" d="M928.97,-219.75C931.78,-212.65 935.84,-202.4 939.35,-193.56"/>
<polygon fill="#63b8ff" stroke="#63b8ff" points="942.67,-194.68 943.1,-184.09 936.16,-192.1 942.67,-194.68"/>
</a>
</g>
</g>
<!-- Node22 -->
<g id="Node000022" class="node">
<title>Node22</title>
<g id="a_Node000022"><a xlink:title=" ">
<polygon fill="#e0e0e0" stroke="#999999" points="1157,-129 1038,-129 1038,-110 1157,-110 1157,-129"/>
<text text-anchor="middle" x="1097.5" y="-117" font-family="Helvetica,sans-Serif" font-size="10.00">interface/param.pb.h</text>
</a>
</g>
</g>
<!-- Node20&#45;&gt;Node22 -->
<g id="edge45_Node000020_Node000022" class="edge">
<title>Node20&#45;&gt;Node22</title>
<g id="a_edge45_Node000020_Node000022"><a xlink:title=" ">
<path fill="none" stroke="#63b8ff" d="M939.28,-219.84C968.85,-201.28 1038.59,-157.49 1074.8,-134.75"/>
<polygon fill="#63b8ff" stroke="#63b8ff" points="1077.04,-137.48 1083.65,-129.2 1073.32,-131.55 1077.04,-137.48"/>
</a>
</g>
</g>
<!-- Node20&#45;&gt;Node24 -->
<g id="edge30_Node000020_Node000024" class="edge">
<title>Node20&#45;&gt;Node24</title>
<g id="a_edge30_Node000020_Node000024"><a xlink:title=" ">
<path fill="none" stroke="#63b8ff" d="M953.13,-219.98C982.01,-211.09 1027.51,-197.07 1059.7,-187.15"/>
<polygon fill="#63b8ff" stroke="#63b8ff" points="1061.12,-190.37 1069.65,-184.08 1059.06,-183.68 1061.12,-190.37"/>
</a>
</g>
</g>
<!-- Node20&#45;&gt;Node31 -->
<g id="edge42_Node000020_Node000031" class="edge">
<title>Node20&#45;&gt;Node31</title>
<g id="a_edge42_Node000020_Node000031"><a xlink:title=" ">
<path fill="none" stroke="#63b8ff" d="M895.56,-225.6C829.3,-219.09 665.28,-202.42 528.5,-184 523.4,-183.31 518.04,-182.54 512.75,-181.74"/>
<polygon fill="#63b8ff" stroke="#63b8ff" points="513.19,-178.26 502.77,-180.19 512.12,-185.18 513.19,-178.26"/>
</a>
</g>
</g>
<!-- Node21&#45;&gt;Node22 -->
<g id="edge28_Node000021_Node000022" class="edge">
<title>Node21&#45;&gt;Node22</title>
<g id="a_edge28_Node000021_Node000022"><a xlink:title=" ">
<path fill="none" stroke="#63b8ff" d="M970.76,-164.98C995.82,-156.19 1035.13,-142.39 1063.33,-132.49"/>
<polygon fill="#63b8ff" stroke="#63b8ff" points="1064.52,-135.78 1072.8,-129.17 1062.2,-129.18 1064.52,-135.78"/>
</a>
</g>
</g>
<!-- Node23 -->
<g id="Node000023" class="node">
<title>Node23</title>
<g id="a_Node000023"><a xlink:title=" ">
<polygon fill="#e0e0e0" stroke="#999999" points="1019.5,-129 883.5,-129 883.5,-110 1019.5,-110 1019.5,-129"/>
<text text-anchor="middle" x="951.5" y="-117" font-family="Helvetica,sans-Serif" font-size="10.00">interface/constraint.pb.h</text>
</a>
</g>
</g>
<!-- Node21&#45;&gt;Node23 -->
<g id="edge29_Node000021_Node000023" class="edge">
<title>Node21&#45;&gt;Node23</title>
<g id="a_edge29_Node000021_Node000023"><a xlink:title=" ">
<path fill="none" stroke="#63b8ff" d="M947.33,-164.75C947.98,-157.8 948.92,-147.85 949.74,-139.13"/>
<polygon fill="#63b8ff" stroke="#63b8ff" points="953.23,-139.37 950.69,-129.09 946.27,-138.72 953.23,-139.37"/>
</a>
</g>
</g>
<!-- Node24&#45;&gt;Node22 -->
<g id="edge40_Node000024_Node000022" class="edge">
<title>Node24&#45;&gt;Node22</title>
<g id="a_edge40_Node000024_Node000022"><a xlink:title=" ">
<path fill="none" stroke="#63b8ff" d="M1097.5,-164.75C1097.5,-157.8 1097.5,-147.85 1097.5,-139.13"/>
<polygon fill="#63b8ff" stroke="#63b8ff" points="1101,-139.09 1097.5,-129.09 1094,-139.09 1101,-139.09"/>
</a>
</g>
</g>
<!-- Node25 -->
<g id="Node000025" class="node">
<title>Node25</title>
<g id="a_Node000025"><a xlink:href="Tags_8h.html" target="_top" xlink:title="Tags to differentiate collections with the same type for template specialization.">
<polygon fill="white" stroke="#666666" points="1423,-129 1376,-129 1376,-110 1423,-110 1423,-129"/>
<text text-anchor="middle" x="1399.5" y="-117" font-family="Helvetica,sans-Serif" font-size="10.00">Tags.h</text>
</a>
</g>
</g>
<!-- Node24&#45;&gt;Node25 -->
<g id="edge31_Node000024_Node000025" class="edge">
<title>Node24&#45;&gt;Node25</title>
<g id="a_edge31_Node000024_Node000025"><a xlink:title=" ">
<path fill="none" stroke="#63b8ff" d="M1152.12,-165.91C1204.42,-158.31 1285.73,-145.66 1365.54,-129.03"/>
<polygon fill="#63b8ff" stroke="#63b8ff" points="1366.7,-132.37 1375.77,-126.88 1365.26,-125.52 1366.7,-132.37"/>
</a>
</g>
</g>
<!-- Node24&#45;&gt;Node27 -->
<g id="edge34_Node000024_Node000027" class="edge">
<title>Node24&#45;&gt;Node27</title>
<g id="a_edge34_Node000024_Node000027"><a xlink:title=" ">
<path fill="none" stroke="#63b8ff" d="M1053.32,-164.98C1004.92,-155.66 927.32,-140.7 875.64,-130.74"/>
<polygon fill="#63b8ff" stroke="#63b8ff" points="876.15,-127.28 865.67,-128.82 874.82,-134.15 876.15,-127.28"/>
</a>
</g>
</g>
<!-- Node25&#45;&gt;Node5 -->
<g id="edge33_Node000025_Node000005" class="edge">
<title>Node25&#45;&gt;Node5</title>
<g id="a_edge33_Node000025_Node000005"><a xlink:title=" ">
<path fill="none" stroke="#63b8ff" d="M1395,-109.79C1387.21,-95.68 1369.78,-68.1 1346.5,-55 1301.94,-29.93 1150.64,-17.06 1083.75,-12.48"/>
<polygon fill="#63b8ff" stroke="#63b8ff" points="1083.98,-8.99 1073.77,-11.82 1083.52,-15.98 1083.98,-8.99"/>
</a>
</g>
</g>
<!-- Node25&#45;&gt;Node26 -->
<g id="edge32_Node000025_Node000026" class="edge">
<title>Node25&#45;&gt;Node26</title>
<g id="a_edge32_Node000025_Node000026"><a xlink:title=" ">
<path fill="none" stroke="#63b8ff" d="M1408.09,-109.75C1415.66,-102.03 1426.88,-90.6 1436.01,-81.28"/>
<polygon fill="#63b8ff" stroke="#63b8ff" points="1438.57,-83.68 1443.07,-74.09 1433.57,-78.78 1438.57,-83.68"/>
</a>
</g>
</g>
<!-- Node28 -->
<g id="Node000028" class="node">
<title>Node28</title>
<g id="a_Node000028"><a xlink:href="IPolyglotText_8h.html" target="_top" xlink:title="Catena&#39;s multi&#45;language text interface.">
<polygon fill="white" stroke="#666666" points="455,-74 366,-74 366,-55 455,-55 455,-74"/>
<text text-anchor="middle" x="410.5" y="-62" font-family="Helvetica,sans-Serif" font-size="10.00">IPolyglotText.h</text>
</a>
</g>
</g>
<!-- Node27&#45;&gt;Node28 -->
<g id="edge35_Node000027_Node000028" class="edge">
<title>Node27&#45;&gt;Node28</title>
<g id="a_edge35_Node000027_Node000028"><a xlink:title=" ">
<path fill="none" stroke="#63b8ff" d="M779.19,-112.93C703.62,-103.21 547.88,-83.17 465.07,-72.52"/>
<polygon fill="#63b8ff" stroke="#63b8ff" points="465.46,-69.04 455.1,-71.24 464.57,-75.98 465.46,-69.04"/>
</a>
</g>
</g>
<!-- Node28&#45;&gt;Node5 -->
<g id="edge38_Node000028_Node000005" class="edge">
<title>Node28&#45;&gt;Node5</title>
<g id="a_edge38_Node000028_Node000005"><a xlink:title=" ">
<path fill="none" stroke="#63b8ff" d="M455.24,-56.73C460.05,-56.1 464.87,-55.51 469.5,-55 678.36,-32 930.7,-17.06 1019.06,-12.22"/>
<polygon fill="#63b8ff" stroke="#63b8ff" points="1019.45,-15.7 1029.25,-11.66 1019.07,-8.71 1019.45,-15.7"/>
</a>
</g>
</g>
<!-- Node28&#45;&gt;Node6 -->
<g id="edge37_Node000028_Node000006" class="edge">
<title>Node28&#45;&gt;Node6</title>
<g id="a_edge37_Node000028_Node000006"><a xlink:title=" ">
<path fill="none" stroke="#63b8ff" d="M389.45,-54.98C368.09,-46.34 334.8,-32.87 310.44,-23.02"/>
<polygon fill="#63b8ff" stroke="#63b8ff" points="311.51,-19.68 300.93,-19.17 308.89,-26.17 311.51,-19.68"/>
</a>
</g>
</g>
<!-- Node29 -->
<g id="Node000029" class="node">
<title>Node29</title>
<g id="a_Node000029"><a xlink:title=" ">
<polygon fill="#e0e0e0" stroke="#999999" points="476.5,-19 344.5,-19 344.5,0 476.5,0 476.5,-19"/>
<text text-anchor="middle" x="410.5" y="-7" font-family="Helvetica,sans-Serif" font-size="10.00">interface/language.pb.h</text>
</a>
</g>
</g>
<!-- Node28&#45;&gt;Node29 -->
<g id="edge36_Node000028_Node000029" class="edge">
<title>Node28&#45;&gt;Node29</title>
<g id="a_edge36_Node000028_Node000029"><a xlink:title=" ">
<path fill="none" stroke="#63b8ff" d="M410.5,-54.75C410.5,-47.8 410.5,-37.85 410.5,-29.13"/>
<polygon fill="#63b8ff" stroke="#63b8ff" points="414,-29.09 410.5,-19.09 407,-29.09 414,-29.09"/>
</a>
</g>
</g>
<!-- Node30 -->
<g id="Node000030" class="node">
<title>Node30</title>
<g id="a_Node000030"><a xlink:title=" ">
<polygon fill="#e0e0e0" stroke="#999999" points="578,-19 495,-19 495,0 578,0 578,-19"/>
<text text-anchor="middle" x="536.5" y="-7" font-family="Helvetica,sans-Serif" font-size="10.00">initializer_list</text>
</a>
</g>
</g>
<!-- Node28&#45;&gt;Node30 -->
<g id="edge39_Node000028_Node000030" class="edge">
<title>Node28&#45;&gt;Node30</title>
<g id="a_edge39_Node000028_Node000030"><a xlink:title=" ">
<path fill="none" stroke="#63b8ff" d="M430.74,-54.98C451.2,-46.38 483.03,-32.99 506.43,-23.15"/>
<polygon fill="#63b8ff" stroke="#63b8ff" points="508.03,-26.27 515.89,-19.17 505.31,-19.82 508.03,-26.27"/>
</a>
</g>
</g>
<!-- Node32 -->
<g id="Node000032" class="node">
<title>Node32</title>
<g id="a_Node000032"><a xlink:title=" ">
<polygon fill="#e0e0e0" stroke="#999999" points="415.5,-129 359.5,-129 359.5,-110 415.5,-110 415.5,-129"/>
<text text-anchor="middle" x="387.5" y="-117" font-family="Helvetica,sans-Serif" font-size="10.00">sstream</text>
</a>
</g>
</g>
<!-- Node31&#45;&gt;Node32 -->
<g id="edge43_Node000031_Node000032" class="edge">
<title>Node31&#45;&gt;Node32</title>
<g id="a_edge43_Node000031_Node000032"><a xlink:title=" ">
<path fill="none" stroke="#63b8ff" d="M460.52,-164.98C447.03,-156.77 426.37,-144.18 410.46,-134.49"/>
<polygon fill="#63b8ff" stroke="#63b8ff" points="412.09,-131.38 401.73,-129.17 408.45,-137.36 412.09,-131.38"/>
</a>
</g>
</g>
<!-- Node33 -->
<g id="Node000033" class="node">
<title>Node33</title>
<g id="a_Node000033"><a xlink:title=" ">
<polygon fill="#e0e0e0" stroke="#999999" points="499,-129 434,-129 434,-110 499,-110 499,-129"/>
<text text-anchor="middle" x="466.5" y="-117" font-family="Helvetica,sans-Serif" font-size="10.00">stdexcept</text>
</a>
</g>
</g>
<!-- Node31&#45;&gt;Node33 -->
<g id="edge44_Node000031_Node000033" class="edge">
<title>Node31&#45;&gt;Node33</title>
<g id="a_edge44_Node000031_Node000033"><a xlink:title=" ">
<path fill="none" stroke="#63b8ff" d="M473.18,-164.75C472.13,-157.8 470.63,-147.85 469.31,-139.13"/>
<polygon fill="#63b8ff" stroke="#63b8ff" points="472.75,-138.45 467.8,-129.09 465.83,-139.5 472.75,-138.45"/>
</a>
</g>
</g>
<!-- Node35&#45;&gt;Node5 -->
<g id="edge52_Node000035_Node000005" class="edge">
<title>Node35&#45;&gt;Node5</title>
<g id="a_edge52_Node000035_Node000005"><a xlink:title=" ">
<path fill="none" stroke="#63b8ff" d="M347.51,-56.03C350.55,-55.66 353.56,-55.31 356.5,-55 610.9,-28.26 919.49,-15.32 1018.95,-11.64"/>
<polygon fill="#63b8ff" stroke="#63b8ff" points="1019.37,-15.13 1029.24,-11.26 1019.12,-8.13 1019.37,-15.13"/>
</a>
</g>
</g>
<!-- Node35&#45;&gt;Node6 -->
<g id="edge53_Node000035_Node000006" class="edge">
<title>Node35&#45;&gt;Node6</title>
<g id="a_edge53_Node000035_Node000006"><a xlink:title=" ">
<path fill="none" stroke="#63b8ff" d="M295.36,-54.75C292.82,-47.65 289.14,-37.4 285.97,-28.56"/>
<polygon fill="#63b8ff" stroke="#63b8ff" points="289.25,-27.32 282.58,-19.09 282.66,-29.68 289.25,-27.32"/>
</a>
</g>
</g>
</g>
</svg>

<g id="navigator" transform="translate(0 0)" fill="#404254">
  <rect fill="#f2f5e9" fill-opacity="0.5" stroke="#606060" stroke-width=".5" x="0" y="0" width="60" height="60"/>
  <use id="zoomplus" xlink:href="#zoomPlus" x="17" y="9" onmousedown="handleZoom(evt,'in')"/>
  <use id="zoomminus" xlink:href="#zoomMin" x="42" y="9" onmousedown="handleZoom(evt,'out')"/>
  <use id="reset" xlink:href="#resetDef" x="30" y="36" onmousedown="handleReset()"/>
   <use id="arrowup" xlink:href="#arrowUp" x="0" y="0" onmousedown="handlePan(0,-1)"/>
  <use id="arrowright" xlink:href="#arrowRight" x="0" y="0" onmousedown="handlePan(1,0)"/>
  <use id="arrowdown" xlink:href="#arrowDown" x="0" y="0" onmousedown="handlePan(0,1)"/>
  <use id="arrowleft" xlink:href="#arrowLeft" x="0" y="0" onmousedown="handlePan(-1,0)"/>
</g>
<svg viewBox="0 0 15 15" width="100%" height="30px" preserveAspectRatio="xMaxYMin meet">
 <g id="arrow_out" transform="scale(0.3 0.3)">
  <a xlink:href="Menu_8h__incl_org.svg" target="_base">
   <rect id="button" ry="5" rx="5" y="6" x="6" height="38" width="38"
        fill="#f2f5e9" fill-opacity="0.5" stroke="#606060" stroke-width="1.0"/>
   <path id="arrow"
     d="M 11.500037,31.436501 C 11.940474,20.09759 22.043105,11.32322 32.158766,21.979434 L 37.068811,17.246167 C 37.068811,17.246167 37.088388,32 37.088388,32 L 22.160133,31.978069 C 22.160133,31.978069 26.997745,27.140456 26.997745,27.140456 C 18.528582,18.264221 13.291696,25.230495 11.500037,31.436501 z"
     style="fill:#404040;"/>
  </a>
 </g>
</svg>

<style type='text/css'>
<![CDATA[
[data-mouse-over-selected='false'] { opacity: 0.7; }
[data-mouse-over-selected='true']  { opacity: 1.0; }
]]>
</style>
<script type="application/ecmascript"><![CDATA[
document.addEventListener('DOMContentLoaded', (event) => {
  highlightEdges();
  highlightAdjacentNodes();
});
]]></script>
</svg>
