<?xml version="1.0" encoding="UTF-8" standalone="no"?>
<!DOCTYPE svg PUBLIC "-//W3C//DTD SVG 1.1//EN"
 "http://www.w3.org/Graphics/SVG/1.1/DTD/svg11.dtd">
<!-- Generated by graphviz version 2.43.0 (0)
 -->
<!-- Title: /home/runner/work/Catena/Catena/sdks/cpp/common/include/MenuGroup.h Pages: 1 -->
<svg width="1867pt" height="500pt"
 viewBox="0.00 0.00 1867.00 500.00" xmlns="http://www.w3.org/2000/svg" xmlns:xlink="http://www.w3.org/1999/xlink">
<g id="graph0" class="graph" transform="scale(1 1) rotate(0) translate(4 496)">
<title>/home/runner/work/Catena/Catena/sdks/cpp/common/include/MenuGroup.h</title>
<!-- Node1 -->
<g id="Node000001" class="node">
<title>Node1</title>
<g id="a_Node000001"><a xlink:title="MenuGroups support.">
<polygon fill="#999999" stroke="#666666" points="1653,-492 1507,-492 1507,-451 1653,-451 1653,-492"/>
<text text-anchor="start" x="1515" y="-480" font-family="Helvetica,sans-Serif" font-size="10.00">/home/runner/work/Catena</text>
<text text-anchor="start" x="1515" y="-469" font-family="Helvetica,sans-Serif" font-size="10.00">/Catena/sdks/cpp/common</text>
<text text-anchor="middle" x="1580" y="-458" font-family="Helvetica,sans-Serif" font-size="10.00">/include/MenuGroup.h</text>
</a>
</g>
</g>
<!-- Node2 -->
<g id="Node000002" class="node">
<title>Node2</title>
<g id="a_Node000002"><a xlink:href="IMenuGroup_8h.html" target="_top" xlink:title="Interface for MenuGroup.">
<polygon fill="white" stroke="#666666" points="1716.5,-85 1631.5,-85 1631.5,-66 1716.5,-66 1716.5,-85"/>
<text text-anchor="middle" x="1674" y="-73" font-family="Helvetica,sans-Serif" font-size="10.00">IMenuGroup.h</text>
</a>
</g>
</g>
<!-- Node1&#45;&gt;Node2 -->
<g id="edge1_Node000001_Node000002" class="edge">
<title>Node1&#45;&gt;Node2</title>
<g id="a_edge1_Node000001_Node000002"><a xlink:title=" ">
<path fill="none" stroke="#63b8ff" d="M1645.89,-450.95C1690.74,-433.12 1742,-401.75 1742,-351.5 1742,-351.5 1742,-351.5 1742,-184.5 1742,-146.75 1711.88,-111.41 1691.73,-91.99"/>
<polygon fill="#63b8ff" stroke="#63b8ff" points="1694.04,-89.36 1684.33,-85.13 1689.28,-94.5 1694.04,-89.36"/>
</a>
</g>
</g>
<!-- Node3 -->
<g id="Node000003" class="node">
<title>Node3</title>
<g id="a_Node000003"><a xlink:title=" ">
<polygon fill="#e0e0e0" stroke="#999999" points="1140,-24.5 1096,-24.5 1096,-5.5 1140,-5.5 1140,-24.5"/>
<text text-anchor="middle" x="1118" y="-12.5" font-family="Helvetica,sans-Serif" font-size="10.00">string</text>
</a>
</g>
</g>
<!-- Node1&#45;&gt;Node3 -->
<g id="edge72_Node000001_Node000003" class="edge">
<title>Node1&#45;&gt;Node3</title>
<g id="a_edge72_Node000001_Node000003"><a xlink:title=" ">
<path fill="none" stroke="#63b8ff" d="M1506.96,-468.88C1196.22,-461.49 0,-428.09 0,-351.5 0,-351.5 0,-351.5 0,-129.5 0,-73.43 55.25,-81.95 109,-66 204.33,-37.71 922.63,-20.3 1085.31,-16.7"/>
<polygon fill="#63b8ff" stroke="#63b8ff" points="1085.71,-20.19 1095.63,-16.47 1085.56,-13.19 1085.71,-20.19"/>
</a>
</g>
</g>
<!-- Node4 -->
<g id="Node000004" class="node">
<title>Node4</title>
<g id="a_Node000004"><a xlink:title=" ">
<polygon fill="#e0e0e0" stroke="#999999" points="1605.5,-24.5 1512.5,-24.5 1512.5,-5.5 1605.5,-5.5 1605.5,-24.5"/>
<text text-anchor="middle" x="1559" y="-12.5" font-family="Helvetica,sans-Serif" font-size="10.00">unordered_map</text>
</a>
</g>
</g>
<!-- Node1&#45;&gt;Node4 -->
<g id="edge73_Node000001_Node000004" class="edge">
<title>Node1&#45;&gt;Node4</title>
<g id="a_edge73_Node000001_Node000004"><a xlink:title=" ">
<path fill="none" stroke="#63b8ff" d="M1653.29,-464.77C1724.19,-454.75 1821,-427.21 1821,-351.5 1821,-351.5 1821,-351.5 1821,-129.5 1821,-84.11 1781.48,-86.54 1741,-66 1701.47,-45.94 1652.89,-33.12 1615.87,-25.49"/>
<polygon fill="#63b8ff" stroke="#63b8ff" points="1616.24,-21.99 1605.75,-23.47 1614.88,-28.86 1616.24,-21.99"/>
</a>
</g>
</g>
<!-- Node5 -->
<g id="Node000005" class="node">
<title>Node5</title>
<g id="a_Node000005"><a xlink:href="PolyglotText_8h.html" target="_top" xlink:title="Polyglot Text serialization and deserialization to protobuf.">
<polygon fill="white" stroke="#666666" points="1542,-140 1456,-140 1456,-121 1542,-121 1542,-140"/>
<text text-anchor="middle" x="1499" y="-128" font-family="Helvetica,sans-Serif" font-size="10.00">PolyglotText.h</text>
</a>
</g>
</g>
<!-- Node1&#45;&gt;Node5 -->
<g id="edge4_Node000001_Node000005" class="edge">
<title>Node1&#45;&gt;Node5</title>
<g id="a_edge4_Node000001_Node000005"><a xlink:title=" ">
<path fill="none" stroke="#63b8ff" d="M1606.27,-450.85C1631.56,-429.48 1666,-392.79 1666,-351.5 1666,-351.5 1666,-351.5 1666,-239.5 1666,-184.26 1600.78,-155.89 1551.86,-142.37"/>
<polygon fill="#63b8ff" stroke="#63b8ff" points="1552.57,-138.94 1542.01,-139.79 1550.79,-145.71 1552.57,-138.94"/>
</a>
</g>
</g>
<!-- Node8 -->
<g id="Node000008" class="node">
<title>Node8</title>
<g id="a_Node000008"><a xlink:title=" ">
<polygon fill="#e0e0e0" stroke="#999999" points="1786.5,-24.5 1703.5,-24.5 1703.5,-5.5 1786.5,-5.5 1786.5,-24.5"/>
<text text-anchor="middle" x="1745" y="-12.5" font-family="Helvetica,sans-Serif" font-size="10.00">initializer_list</text>
</a>
</g>
</g>
<!-- Node1&#45;&gt;Node8 -->
<g id="edge74_Node000001_Node000008" class="edge">
<title>Node1&#45;&gt;Node8</title>
<g id="a_edge74_Node000001_Node000008"><a xlink:title=" ">
<path fill="none" stroke="#63b8ff" d="M1653.3,-469.54C1735.97,-464.12 1859,-441.02 1859,-351.5 1859,-351.5 1859,-351.5 1859,-129.5 1859,-81.38 1807.36,-46.62 1773.59,-29.03"/>
<polygon fill="#63b8ff" stroke="#63b8ff" points="1775.11,-25.88 1764.6,-24.53 1771.97,-32.14 1775.11,-25.88"/>
</a>
</g>
</g>
<!-- Node10 -->
<g id="Node000010" class="node">
<title>Node10</title>
<g id="a_Node000010"><a xlink:href="IDevice_8h.html" target="_top" xlink:title="Interface for device.">
<polygon fill="white" stroke="#666666" points="1044,-360 982,-360 982,-341 1044,-341 1044,-360"/>
<text text-anchor="middle" x="1013" y="-348" font-family="Helvetica,sans-Serif" font-size="10.00">IDevice.h</text>
</a>
</g>
</g>
<!-- Node1&#45;&gt;Node10 -->
<g id="edge14_Node000001_Node000010" class="edge">
<title>Node1&#45;&gt;Node10</title>
<g id="a_edge14_Node000001_Node000010"><a xlink:title=" ">
<path fill="none" stroke="#63b8ff" d="M1506.85,-457.26C1448.13,-446.45 1363.62,-430.48 1290,-415 1205.86,-397.31 1107.91,-374.28 1053.95,-361.38"/>
<polygon fill="#63b8ff" stroke="#63b8ff" points="1054.62,-357.94 1044.07,-359.01 1052.98,-364.74 1054.62,-357.94"/>
</a>
</g>
</g>
<!-- Node14 -->
<g id="Node000014" class="node">
<title>Node14</title>
<g id="a_Node000014"><a xlink:title=" ">
<polygon fill="#e0e0e0" stroke="#999999" points="1315.5,-140 1268.5,-140 1268.5,-121 1315.5,-121 1315.5,-140"/>
<text text-anchor="middle" x="1292" y="-128" font-family="Helvetica,sans-Serif" font-size="10.00">vector</text>
</a>
</g>
</g>
<!-- Node1&#45;&gt;Node14 -->
<g id="edge75_Node000001_Node000014" class="edge">
<title>Node1&#45;&gt;Node14</title>
<g id="a_edge75_Node000001_Node000014"><a xlink:title=" ">
<path fill="none" stroke="#63b8ff" d="M1506.76,-469.22C1425,-463.44 1304,-439.95 1304,-351.5 1304,-351.5 1304,-351.5 1304,-239.5 1304,-208 1298.89,-171.64 1295.34,-150.16"/>
<polygon fill="#63b8ff" stroke="#63b8ff" points="1298.76,-149.4 1293.62,-140.14 1291.87,-150.59 1298.76,-149.4"/>
</a>
</g>
</g>
<!-- Node38 -->
<g id="Node000038" class="node">
<title>Node38</title>
<g id="a_Node000038"><a xlink:href="Menu_8h.html" target="_top" xlink:title="Menus support.">
<polygon fill="white" stroke="#666666" points="1463.5,-415 1410.5,-415 1410.5,-396 1463.5,-396 1463.5,-415"/>
<text text-anchor="middle" x="1437" y="-403" font-family="Helvetica,sans-Serif" font-size="10.00">Menu.h</text>
</a>
</g>
</g>
<!-- Node1&#45;&gt;Node38 -->
<g id="edge61_Node000001_Node000038" class="edge">
<title>Node1&#45;&gt;Node38</title>
<g id="a_edge61_Node000001_Node000038"><a xlink:title=" ">
<path fill="none" stroke="#63b8ff" d="M1536.32,-450.95C1513.31,-440.65 1485.74,-428.31 1465.5,-419.25"/>
<polygon fill="#63b8ff" stroke="#63b8ff" points="1466.75,-415.98 1456.2,-415.09 1463.9,-422.37 1466.75,-415.98"/>
</a>
</g>
</g>
<!-- Node40 -->
<g id="Node000040" class="node">
<title>Node40</title>
<g id="a_Node000040"><a xlink:title=" ">
<polygon fill="#e0e0e0" stroke="#999999" points="1637.5,-360 1522.5,-360 1522.5,-341 1637.5,-341 1637.5,-360"/>
<text text-anchor="middle" x="1580" y="-348" font-family="Helvetica,sans-Serif" font-size="10.00">interface/menu.pb.h</text>
</a>
</g>
</g>
<!-- Node1&#45;&gt;Node40 -->
<g id="edge71_Node000001_Node000040" class="edge">
<title>Node1&#45;&gt;Node40</title>
<g id="a_edge71_Node000001_Node000040"><a xlink:title=" ">
<path fill="none" stroke="#63b8ff" d="M1580,-450.85C1580,-428.48 1580,-392.19 1580,-370.21"/>
<polygon fill="#63b8ff" stroke="#63b8ff" points="1583.5,-370.18 1580,-360.18 1576.5,-370.18 1583.5,-370.18"/>
</a>
</g>
</g>
<!-- Node2&#45;&gt;Node3 -->
<g id="edge2_Node000002_Node000003" class="edge">
<title>Node2&#45;&gt;Node3</title>
<g id="a_edge2_Node000002_Node000003"><a xlink:title=" ">
<path fill="none" stroke="#63b8ff" d="M1631.29,-70.01C1524.05,-58.72 1245.21,-29.38 1150.23,-19.39"/>
<polygon fill="#63b8ff" stroke="#63b8ff" points="1150.4,-15.89 1140.09,-18.32 1149.67,-22.85 1150.4,-15.89"/>
</a>
</g>
</g>
<!-- Node2&#45;&gt;Node4 -->
<g id="edge3_Node000002_Node000004" class="edge">
<title>Node2&#45;&gt;Node4</title>
<g id="a_edge3_Node000002_Node000004"><a xlink:title=" ">
<path fill="none" stroke="#63b8ff" d="M1657.03,-65.87C1638.09,-56.23 1607.21,-40.53 1585.17,-29.31"/>
<polygon fill="#63b8ff" stroke="#63b8ff" points="1586.54,-26.08 1576.04,-24.67 1583.36,-32.32 1586.54,-26.08"/>
</a>
</g>
</g>
<!-- Node5&#45;&gt;Node3 -->
<g id="edge11_Node000005_Node000003" class="edge">
<title>Node5&#45;&gt;Node3</title>
<g id="a_edge11_Node000005_Node000003"><a xlink:title=" ">
<path fill="none" stroke="#63b8ff" d="M1455.92,-121.08C1420.44,-113.52 1369.14,-101.12 1326,-85 1308.31,-78.39 1305.57,-72.91 1288,-66 1241.17,-47.58 1184.78,-32.28 1150.16,-23.64"/>
<polygon fill="#63b8ff" stroke="#63b8ff" points="1150.7,-20.17 1140.15,-21.18 1149.03,-26.97 1150.7,-20.17"/>
</a>
</g>
</g>
<!-- Node5&#45;&gt;Node4 -->
<g id="edge12_Node000005_Node000004" class="edge">
<title>Node5&#45;&gt;Node4</title>
<g id="a_edge12_Node000005_Node000004"><a xlink:title=" ">
<path fill="none" stroke="#63b8ff" d="M1533.22,-120.93C1551.71,-114.37 1572.96,-103.24 1584,-85 1594.05,-68.39 1583.28,-47.11 1572.91,-32.6"/>
<polygon fill="#63b8ff" stroke="#63b8ff" points="1575.58,-30.33 1566.7,-24.54 1570.04,-34.6 1575.58,-30.33"/>
</a>
</g>
</g>
<!-- Node6 -->
<g id="Node000006" class="node">
<title>Node6</title>
<g id="a_Node000006"><a xlink:href="IPolyglotText_8h.html" target="_top" xlink:title="Catena&#39;s multi&#45;language text interface.">
<polygon fill="white" stroke="#666666" points="1424.5,-85 1335.5,-85 1335.5,-66 1424.5,-66 1424.5,-85"/>
<text text-anchor="middle" x="1380" y="-73" font-family="Helvetica,sans-Serif" font-size="10.00">IPolyglotText.h</text>
</a>
</g>
</g>
<!-- Node5&#45;&gt;Node6 -->
<g id="edge5_Node000005_Node000006" class="edge">
<title>Node5&#45;&gt;Node6</title>
<g id="a_edge5_Node000005_Node000006"><a xlink:title=" ">
<path fill="none" stroke="#63b8ff" d="M1479.88,-120.98C1460.65,-112.42 1430.77,-99.11 1408.69,-89.28"/>
<polygon fill="#63b8ff" stroke="#63b8ff" points="1410.03,-86.04 1399.47,-85.17 1407.18,-92.44 1410.03,-86.04"/>
</a>
</g>
</g>
<!-- Node5&#45;&gt;Node8 -->
<g id="edge13_Node000005_Node000008" class="edge">
<title>Node5&#45;&gt;Node8</title>
<g id="a_edge13_Node000005_Node000008"><a xlink:title=" ">
<path fill="none" stroke="#63b8ff" d="M1542.34,-126.28C1600.3,-121.09 1698.83,-108.97 1725,-85 1738.91,-72.26 1743.37,-50.48 1744.68,-34.79"/>
<polygon fill="#63b8ff" stroke="#63b8ff" points="1748.19,-34.83 1745.18,-24.67 1741.19,-34.48 1748.19,-34.83"/>
</a>
</g>
</g>
<!-- Node9 -->
<g id="Node000009" class="node">
<title>Node9</title>
<g id="a_Node000009"><a xlink:title=" ">
<polygon fill="#e0e0e0" stroke="#999999" points="1575,-85 1443,-85 1443,-66 1575,-66 1575,-85"/>
<text text-anchor="middle" x="1509" y="-73" font-family="Helvetica,sans-Serif" font-size="10.00">interface/language.pb.h</text>
</a>
</g>
</g>
<!-- Node5&#45;&gt;Node9 -->
<g id="edge10_Node000005_Node000009" class="edge">
<title>Node5&#45;&gt;Node9</title>
<g id="a_edge10_Node000005_Node000009"><a xlink:title=" ">
<path fill="none" stroke="#63b8ff" d="M1500.65,-120.75C1501.96,-113.8 1503.84,-103.85 1505.48,-95.13"/>
<polygon fill="#63b8ff" stroke="#63b8ff" points="1508.96,-95.56 1507.38,-85.09 1502.09,-94.27 1508.96,-95.56"/>
</a>
</g>
</g>
<!-- Node6&#45;&gt;Node3 -->
<g id="edge8_Node000006_Node000003" class="edge">
<title>Node6&#45;&gt;Node3</title>
<g id="a_edge8_Node000006_Node000003"><a xlink:title=" ">
<path fill="none" stroke="#63b8ff" d="M1341.9,-65.99C1290.2,-54.45 1198.73,-34.03 1150.25,-23.2"/>
<polygon fill="#63b8ff" stroke="#63b8ff" points="1150.83,-19.74 1140.31,-20.98 1149.3,-26.58 1150.83,-19.74"/>
</a>
</g>
</g>
<!-- Node6&#45;&gt;Node4 -->
<g id="edge7_Node000006_Node000004" class="edge">
<title>Node6&#45;&gt;Node4</title>
<g id="a_edge7_Node000006_Node000004"><a xlink:title=" ">
<path fill="none" stroke="#63b8ff" d="M1406.03,-65.99C1436.92,-55.9 1488.58,-39.01 1523.22,-27.69"/>
<polygon fill="#63b8ff" stroke="#63b8ff" points="1524.52,-30.95 1532.94,-24.52 1522.35,-24.3 1524.52,-30.95"/>
</a>
</g>
</g>
<!-- Node7 -->
<g id="Node000007" class="node">
<title>Node7</title>
<g id="a_Node000007"><a xlink:title=" ">
<polygon fill="#e0e0e0" stroke="#999999" points="1450.5,-30 1309.5,-30 1309.5,0 1450.5,0 1450.5,-30"/>
<text text-anchor="start" x="1317.5" y="-18" font-family="Helvetica,sans-Serif" font-size="10.00">google/protobuf/message</text>
<text text-anchor="middle" x="1380" y="-7" font-family="Helvetica,sans-Serif" font-size="10.00">_lite.h</text>
</a>
</g>
</g>
<!-- Node6&#45;&gt;Node7 -->
<g id="edge6_Node000006_Node000007" class="edge">
<title>Node6&#45;&gt;Node7</title>
<g id="a_edge6_Node000006_Node000007"><a xlink:title=" ">
<path fill="none" stroke="#63b8ff" d="M1380,-65.87C1380,-59.11 1380,-49.35 1380,-40.26"/>
<polygon fill="#63b8ff" stroke="#63b8ff" points="1383.5,-40.11 1380,-30.11 1376.5,-40.11 1383.5,-40.11"/>
</a>
</g>
</g>
<!-- Node6&#45;&gt;Node8 -->
<g id="edge9_Node000006_Node000008" class="edge">
<title>Node6&#45;&gt;Node8</title>
<g id="a_edge9_Node000006_Node000008"><a xlink:title=" ">
<path fill="none" stroke="#63b8ff" d="M1424.76,-67.33C1492.61,-56.45 1621.22,-35.84 1693.09,-24.32"/>
<polygon fill="#63b8ff" stroke="#63b8ff" points="1693.94,-27.73 1703.26,-22.69 1692.84,-20.82 1693.94,-27.73"/>
</a>
</g>
</g>
<!-- Node10&#45;&gt;Node3 -->
<g id="edge57_Node000010_Node000003" class="edge">
<title>Node10&#45;&gt;Node3</title>
<g id="a_edge57_Node000010_Node000003"><a xlink:title=" ">
<path fill="none" stroke="#63b8ff" d="M981.94,-349.4C815.63,-348.46 38,-338.84 38,-241.5 38,-241.5 38,-241.5 38,-129.5 38,-21.3 906.44,-15.88 1085.82,-15.92"/>
<polygon fill="#63b8ff" stroke="#63b8ff" points="1085.93,-19.42 1095.94,-15.93 1085.94,-12.42 1085.93,-19.42"/>
</a>
</g>
</g>
<!-- Node11 -->
<g id="Node000011" class="node">
<title>Node11</title>
<g id="a_Node000011"><a xlink:href="Authorization_8h.html" target="_top" xlink:title="Class for handling authorization information.">
<polygon fill="white" stroke="#666666" points="844.5,-305 753.5,-305 753.5,-286 844.5,-286 844.5,-305"/>
<text text-anchor="middle" x="799" y="-293" font-family="Helvetica,sans-Serif" font-size="10.00">Authorization.h</text>
</a>
</g>
</g>
<!-- Node10&#45;&gt;Node11 -->
<g id="edge15_Node000010_Node000011" class="edge">
<title>Node10&#45;&gt;Node11</title>
<g id="a_edge15_Node000010_Node000011"><a xlink:title=" ">
<path fill="none" stroke="#63b8ff" d="M981.88,-341.79C945.36,-332.75 884.55,-317.69 843.16,-307.44"/>
<polygon fill="#63b8ff" stroke="#63b8ff" points="843.89,-304.01 833.34,-305.01 842.21,-310.81 843.89,-304.01"/>
</a>
</g>
</g>
<!-- Node12 -->
<g id="Node000012" class="node">
<title>Node12</title>
<g id="a_Node000012"><a xlink:href="Path_8h.html" target="_top" xlink:title="Handles Path objects used to uniquely identify and access OIDs.">
<polygon fill="white" stroke="#666666" points="596.5,-195 549.5,-195 549.5,-176 596.5,-176 596.5,-195"/>
<text text-anchor="middle" x="573" y="-183" font-family="Helvetica,sans-Serif" font-size="10.00">Path.h</text>
</a>
</g>
</g>
<!-- Node10&#45;&gt;Node12 -->
<g id="edge49_Node000010_Node000012" class="edge">
<title>Node10&#45;&gt;Node12</title>
<g id="a_edge49_Node000010_Node000012"><a xlink:title=" ">
<path fill="none" stroke="#63b8ff" d="M982,-348.61C924.87,-346.21 799.71,-337.36 700,-305 650.27,-288.86 630.32,-289.45 596,-250 585.06,-237.42 579.18,-219.23 576.11,-205.53"/>
<polygon fill="#63b8ff" stroke="#63b8ff" points="579.47,-204.47 574.14,-195.31 572.59,-205.8 579.47,-204.47"/>
</a>
</g>
</g>
<!-- Node10&#45;&gt;Node14 -->
<g id="edge58_Node000010_Node000014" class="edge">
<title>Node10&#45;&gt;Node14</title>
<g id="a_edge58_Node000010_Node000014"><a xlink:title=" ">
<path fill="none" stroke="#63b8ff" d="M1044.27,-347.4C1100.04,-343.03 1213.47,-331.11 1242,-305 1264.99,-283.96 1282.43,-190.93 1289.07,-150.44"/>
<polygon fill="#63b8ff" stroke="#63b8ff" points="1292.57,-150.74 1290.69,-140.31 1285.66,-149.63 1292.57,-150.74"/>
</a>
</g>
</g>
<!-- Node22 -->
<g id="Node000022" class="node">
<title>Node22</title>
<g id="a_Node000022"><a xlink:title=" ">
<polygon fill="#e0e0e0" stroke="#999999" points="939.5,-140 820.5,-140 820.5,-121 939.5,-121 939.5,-140"/>
<text text-anchor="middle" x="880" y="-128" font-family="Helvetica,sans-Serif" font-size="10.00">interface/device.pb.h</text>
</a>
</g>
</g>
<!-- Node10&#45;&gt;Node22 -->
<g id="edge56_Node000010_Node000022" class="edge">
<title>Node10&#45;&gt;Node22</title>
<g id="a_edge56_Node000010_Node000022"><a xlink:title=" ">
<path fill="none" stroke="#63b8ff" d="M998.5,-340.83C986.13,-332.82 968.55,-319.93 957,-305 918.59,-255.36 894.71,-183.54 885,-150.03"/>
<polygon fill="#63b8ff" stroke="#63b8ff" points="888.32,-148.9 882.25,-140.22 881.58,-150.79 888.32,-148.9"/>
</a>
</g>
</g>
<!-- Node23 -->
<g id="Node000023" class="node">
<title>Node23</title>
<g id="a_Node000023"><a xlink:href="IParam_8h.html" target="_top" xlink:title="Interface for parameters.">
<polygon fill="white" stroke="#666666" points="664.5,-250 605.5,-250 605.5,-231 664.5,-231 664.5,-250"/>
<text text-anchor="middle" x="635" y="-238" font-family="Helvetica,sans-Serif" font-size="10.00">IParam.h</text>
</a>
</g>
</g>
<!-- Node10&#45;&gt;Node23 -->
<g id="edge50_Node000010_Node000023" class="edge">
<title>Node10&#45;&gt;Node23</title>
<g id="a_edge50_Node000010_Node000023"><a xlink:title=" ">
<path fill="none" stroke="#63b8ff" d="M981.83,-348C930.74,-344.75 826.61,-334.76 744,-305 710.62,-292.98 675.83,-270.74 654.79,-256.03"/>
<polygon fill="#63b8ff" stroke="#63b8ff" points="656.57,-253 646.4,-250.05 652.51,-258.7 656.57,-253"/>
</a>
</g>
</g>
<!-- Node30 -->
<g id="Node000030" class="node">
<title>Node30</title>
<g id="a_Node000030"><a xlink:href="Status_8h.html" target="_top" xlink:title="Communicates failure status using gRPC&#39;s codes.">
<polygon fill="white" stroke="#666666" points="1065,-195 1009,-195 1009,-176 1065,-176 1065,-195"/>
<text text-anchor="middle" x="1037" y="-183" font-family="Helvetica,sans-Serif" font-size="10.00">Status.h</text>
</a>
</g>
</g>
<!-- Node10&#45;&gt;Node30 -->
<g id="edge54_Node000010_Node000030" class="edge">
<title>Node10&#45;&gt;Node30</title>
<g id="a_edge54_Node000010_Node000030"><a xlink:title=" ">
<path fill="none" stroke="#63b8ff" d="M997.57,-340.8C985.65,-333.11 970.04,-320.69 963,-305 959.54,-297.3 960.35,-294.02 963,-286 974.15,-252.33 1001.6,-220.78 1019.75,-202.57"/>
<polygon fill="#63b8ff" stroke="#63b8ff" points="1022.62,-204.67 1027.34,-195.19 1017.74,-199.65 1022.62,-204.67"/>
</a>
</g>
</g>
<!-- Node34 -->
<g id="Node000034" class="node">
<title>Node34</title>
<g id="a_Node000034"><a xlink:href="ILanguagePack_8h.html" target="_top" xlink:title="Interface for language packs.">
<polygon fill="white" stroke="#666666" points="1167,-85 1069,-85 1069,-66 1167,-66 1167,-85"/>
<text text-anchor="middle" x="1118" y="-73" font-family="Helvetica,sans-Serif" font-size="10.00">ILanguagePack.h</text>
</a>
</g>
</g>
<!-- Node10&#45;&gt;Node34 -->
<g id="edge51_Node000010_Node000034" class="edge">
<title>Node10&#45;&gt;Node34</title>
<g id="a_edge51_Node000010_Node000034"><a xlink:title=" ">
<path fill="none" stroke="#63b8ff" d="M1044.03,-346.26C1093.07,-340.54 1185.36,-327.1 1209,-305 1230.52,-284.88 1228,-270.96 1228,-241.5 1228,-241.5 1228,-241.5 1228,-184.5 1228,-139.07 1179.64,-106.4 1147.05,-89.55"/>
<polygon fill="#63b8ff" stroke="#63b8ff" points="1148.43,-86.33 1137.92,-85.02 1145.32,-92.6 1148.43,-86.33"/>
</a>
</g>
</g>
<!-- Node35 -->
<g id="Node000035" class="node">
<title>Node35</title>
<g id="a_Node000035"><a xlink:title=" ">
<polygon fill="#e0e0e0" stroke="#999999" points="1053.5,-305 972.5,-305 972.5,-286 1053.5,-286 1053.5,-305"/>
<text text-anchor="middle" x="1013" y="-293" font-family="Helvetica,sans-Serif" font-size="10.00">vdk/signals.h</text>
</a>
</g>
</g>
<!-- Node10&#45;&gt;Node35 -->
<g id="edge55_Node000010_Node000035" class="edge">
<title>Node10&#45;&gt;Node35</title>
<g id="a_edge55_Node000010_Node000035"><a xlink:title=" ">
<path fill="none" stroke="#63b8ff" d="M1013,-340.75C1013,-333.8 1013,-323.85 1013,-315.13"/>
<polygon fill="#63b8ff" stroke="#63b8ff" points="1016.5,-315.09 1013,-305.09 1009.5,-315.09 1016.5,-315.09"/>
</a>
</g>
</g>
<!-- Node36 -->
<g id="Node000036" class="node">
<title>Node36</title>
<g id="a_Node000036"><a xlink:title=" ">
<polygon fill="#e0e0e0" stroke="#999999" points="1134,-305 1072,-305 1072,-286 1134,-286 1134,-305"/>
<text text-anchor="middle" x="1103" y="-293" font-family="Helvetica,sans-Serif" font-size="10.00">coroutine</text>
</a>
</g>
</g>
<!-- Node10&#45;&gt;Node36 -->
<g id="edge59_Node000010_Node000036" class="edge">
<title>Node10&#45;&gt;Node36</title>
<g id="a_edge59_Node000010_Node000036"><a xlink:title=" ">
<path fill="none" stroke="#63b8ff" d="M1027.46,-340.98C1041.42,-332.77 1062.79,-320.18 1079.25,-310.49"/>
<polygon fill="#63b8ff" stroke="#63b8ff" points="1081.44,-313.26 1088.28,-305.17 1077.88,-307.23 1081.44,-313.26"/>
</a>
</g>
</g>
<!-- Node37 -->
<g id="Node000037" class="node">
<title>Node37</title>
<g id="a_Node000037"><a xlink:title=" ">
<polygon fill="#e0e0e0" stroke="#999999" points="1200,-305 1152,-305 1152,-286 1200,-286 1200,-305"/>
<text text-anchor="middle" x="1176" y="-293" font-family="Helvetica,sans-Serif" font-size="10.00">mutex</text>
</a>
</g>
</g>
<!-- Node10&#45;&gt;Node37 -->
<g id="edge60_Node000010_Node000037" class="edge">
<title>Node10&#45;&gt;Node37</title>
<g id="a_edge60_Node000010_Node000037"><a xlink:title=" ">
<path fill="none" stroke="#63b8ff" d="M1039.19,-340.98C1067.08,-331.91 1111.34,-317.52 1141.93,-307.58"/>
<polygon fill="#63b8ff" stroke="#63b8ff" points="1143.31,-310.81 1151.74,-304.39 1141.15,-304.15 1143.31,-310.81"/>
</a>
</g>
</g>
<!-- Node11&#45;&gt;Node12 -->
<g id="edge16_Node000011_Node000012" class="edge">
<title>Node11&#45;&gt;Node12</title>
<g id="a_edge16_Node000011_Node000012"><a xlink:title=" ">
<path fill="none" stroke="#63b8ff" d="M782.41,-285.82C758.44,-273.35 712.62,-249.79 673,-231 649.39,-219.81 622.29,-207.8 602.27,-199.08"/>
<polygon fill="#63b8ff" stroke="#63b8ff" points="603.62,-195.85 593.05,-195.08 600.83,-202.27 603.62,-195.85"/>
</a>
</g>
</g>
<!-- Node17 -->
<g id="Node000017" class="node">
<title>Node17</title>
<g id="a_Node000017"><a xlink:href="Enums_8h.html" target="_top" xlink:title="tools for using EnumDecorators.">
<polygon fill="white" stroke="#666666" points="750.5,-195 691.5,-195 691.5,-176 750.5,-176 750.5,-195"/>
<text text-anchor="middle" x="721" y="-183" font-family="Helvetica,sans-Serif" font-size="10.00">Enums.h</text>
</a>
</g>
</g>
<!-- Node11&#45;&gt;Node17 -->
<g id="edge22_Node000011_Node000017" class="edge">
<title>Node11&#45;&gt;Node17</title>
<g id="a_edge22_Node000011_Node000017"><a xlink:title=" ">
<path fill="none" stroke="#63b8ff" d="M786.83,-285.74C776.05,-277.49 760.44,-264.29 750,-250 739.85,-236.1 732.03,-218.08 727.09,-204.79"/>
<polygon fill="#63b8ff" stroke="#63b8ff" points="730.37,-203.58 723.75,-195.31 723.77,-205.9 730.37,-203.58"/>
</a>
</g>
</g>
<!-- Node11&#45;&gt;Node23 -->
<g id="edge31_Node000011_Node000023" class="edge">
<title>Node11&#45;&gt;Node23</title>
<g id="a_edge31_Node000011_Node000023"><a xlink:title=" ">
<path fill="none" stroke="#63b8ff" d="M772.65,-285.98C745.24,-277.13 702.11,-263.19 671.44,-253.28"/>
<polygon fill="#63b8ff" stroke="#63b8ff" points="672.15,-249.83 661.56,-250.08 670,-256.49 672.15,-249.83"/>
</a>
</g>
</g>
<!-- Node27 -->
<g id="Node000027" class="node">
<title>Node27</title>
<g id="a_Node000027"><a xlink:href="IParamDescriptor_8h.html" target="_top" xlink:title="Interface class for ParamDescriptor.">
<polygon fill="white" stroke="#666666" points="877.5,-195 768.5,-195 768.5,-176 877.5,-176 877.5,-195"/>
<text text-anchor="middle" x="823" y="-183" font-family="Helvetica,sans-Serif" font-size="10.00">IParamDescriptor.h</text>
</a>
</g>
</g>
<!-- Node11&#45;&gt;Node27 -->
<g id="edge46_Node000011_Node000027" class="edge">
<title>Node11&#45;&gt;Node27</title>
<g id="a_edge46_Node000011_Node000027"><a xlink:title=" ">
<path fill="none" stroke="#63b8ff" d="M814.13,-285.73C825.81,-277.99 841.12,-265.55 848,-250 854.94,-234.33 846.06,-216.1 837.02,-203.2"/>
<polygon fill="#63b8ff" stroke="#63b8ff" points="839.78,-201.05 830.93,-195.22 834.21,-205.29 839.78,-201.05"/>
</a>
</g>
</g>
<!-- Node29 -->
<g id="Node000029" class="node">
<title>Node29</title>
<g id="a_Node000029"><a xlink:title=" ">
<polygon fill="#e0e0e0" stroke="#999999" points="1050.5,-85 985.5,-85 985.5,-66 1050.5,-66 1050.5,-85"/>
<text text-anchor="middle" x="1018" y="-73" font-family="Helvetica,sans-Serif" font-size="10.00">functional</text>
</a>
</g>
</g>
<!-- Node11&#45;&gt;Node29 -->
<g id="edge48_Node000011_Node000029" class="edge">
<title>Node11&#45;&gt;Node29</title>
<g id="a_edge48_Node000011_Node000029"><a xlink:title=" ">
<path fill="none" stroke="#63b8ff" d="M844.78,-292.08C928.41,-284.84 1103.5,-255.87 1171,-140 1175.25,-132.7 1176.07,-127.75 1171,-121 1164.2,-111.94 1103.42,-96.24 1060.55,-86.12"/>
<polygon fill="#63b8ff" stroke="#63b8ff" points="1061.15,-82.67 1050.62,-83.8 1059.56,-89.49 1061.15,-82.67"/>
</a>
</g>
</g>
<!-- Node33 -->
<g id="Node000033" class="node">
<title>Node33</title>
<g id="a_Node000033"><a xlink:title=" ">
<polygon fill="#e0e0e0" stroke="#999999" points="839,-250 759,-250 759,-231 839,-231 839,-250"/>
<text text-anchor="middle" x="799" y="-238" font-family="Helvetica,sans-Serif" font-size="10.00">jwt&#45;cpp/jwt.h</text>
</a>
</g>
</g>
<!-- Node11&#45;&gt;Node33 -->
<g id="edge47_Node000011_Node000033" class="edge">
<title>Node11&#45;&gt;Node33</title>
<g id="a_edge47_Node000011_Node000033"><a xlink:title=" ">
<path fill="none" stroke="#63b8ff" d="M799,-285.75C799,-278.8 799,-268.85 799,-260.13"/>
<polygon fill="#63b8ff" stroke="#63b8ff" points="802.5,-260.09 799,-250.09 795.5,-260.09 802.5,-260.09"/>
</a>
</g>
</g>
<!-- Node12&#45;&gt;Node3 -->
<g id="edge18_Node000012_Node000003" class="edge">
<title>Node12&#45;&gt;Node3</title>
<g id="a_edge18_Node000012_Node000003"><a xlink:title=" ">
<path fill="none" stroke="#63b8ff" d="M549.22,-184.6C490.22,-184.02 344.83,-177.02 387,-121 440.12,-50.42 491.19,-82.37 578,-66 768.35,-30.11 1001.51,-19.61 1085.73,-16.88"/>
<polygon fill="#63b8ff" stroke="#63b8ff" points="1086.05,-20.37 1095.93,-16.56 1085.83,-13.37 1086.05,-20.37"/>
</a>
</g>
</g>
<!-- Node13 -->
<g id="Node000013" class="node">
<title>Node13</title>
<g id="a_Node000013"><a xlink:title=" ">
<polygon fill="#e0e0e0" stroke="#999999" points="602,-140 542,-140 542,-121 602,-121 602,-140"/>
<text text-anchor="middle" x="572" y="-128" font-family="Helvetica,sans-Serif" font-size="10.00">iostream</text>
</a>
</g>
</g>
<!-- Node12&#45;&gt;Node13 -->
<g id="edge17_Node000012_Node000013" class="edge">
<title>Node12&#45;&gt;Node13</title>
<g id="a_edge17_Node000012_Node000013"><a xlink:title=" ">
<path fill="none" stroke="#63b8ff" d="M572.83,-175.75C572.7,-168.8 572.52,-158.85 572.35,-150.13"/>
<polygon fill="#63b8ff" stroke="#63b8ff" points="575.85,-150.02 572.16,-140.09 568.85,-150.15 575.85,-150.02"/>
</a>
</g>
</g>
<!-- Node12&#45;&gt;Node14 -->
<g id="edge19_Node000012_Node000014" class="edge">
<title>Node12&#45;&gt;Node14</title>
<g id="a_edge19_Node000012_Node000014"><a xlink:title=" ">
<path fill="none" stroke="#63b8ff" d="M596.81,-182.61C618.89,-180.86 652.66,-178.21 682,-176 901.74,-159.42 1166.09,-140.48 1258.31,-133.9"/>
<polygon fill="#63b8ff" stroke="#63b8ff" points="1258.72,-137.38 1268.45,-133.18 1258.22,-130.4 1258.72,-137.38"/>
</a>
</g>
</g>
<!-- Node15 -->
<g id="Node000015" class="node">
<title>Node15</title>
<g id="a_Node000015"><a xlink:title=" ">
<polygon fill="#e0e0e0" stroke="#999999" points="447.5,-140 396.5,-140 396.5,-121 447.5,-121 447.5,-140"/>
<text text-anchor="middle" x="422" y="-128" font-family="Helvetica,sans-Serif" font-size="10.00">variant</text>
</a>
</g>
</g>
<!-- Node12&#45;&gt;Node15 -->
<g id="edge20_Node000012_Node000015" class="edge">
<title>Node12&#45;&gt;Node15</title>
<g id="a_edge20_Node000012_Node000015"><a xlink:title=" ">
<path fill="none" stroke="#63b8ff" d="M549.41,-176.22C524.33,-167.42 484.44,-153.42 455.98,-143.43"/>
<polygon fill="#63b8ff" stroke="#63b8ff" points="457.02,-140.08 446.43,-140.07 454.71,-146.69 457.02,-140.08"/>
</a>
</g>
</g>
<!-- Node16 -->
<g id="Node000016" class="node">
<title>Node16</title>
<g id="a_Node000016"><a xlink:title=" ">
<polygon fill="#e0e0e0" stroke="#999999" points="524,-140 466,-140 466,-121 524,-121 524,-140"/>
<text text-anchor="middle" x="495" y="-128" font-family="Helvetica,sans-Serif" font-size="10.00">memory</text>
</a>
</g>
</g>
<!-- Node12&#45;&gt;Node16 -->
<g id="edge21_Node000012_Node000016" class="edge">
<title>Node12&#45;&gt;Node16</title>
<g id="a_edge21_Node000012_Node000016"><a xlink:title=" ">
<path fill="none" stroke="#63b8ff" d="M560.47,-175.98C548.6,-167.92 530.54,-155.65 516.39,-146.03"/>
<polygon fill="#63b8ff" stroke="#63b8ff" points="518,-142.9 507.76,-140.17 514.06,-148.69 518,-142.9"/>
</a>
</g>
</g>
<!-- Node18 -->
<g id="Node000018" class="node">
<title>Node18</title>
<g id="a_Node000018"><a xlink:href="EnumDecorator_8h.html" target="_top" xlink:title="Provides an enum with useful extra functionality.">
<polygon fill="white" stroke="#666666" points="802,-140 658,-140 658,-121 802,-121 802,-140"/>
<text text-anchor="middle" x="730" y="-128" font-family="Helvetica,sans-Serif" font-size="10.00">patterns/EnumDecorator.h</text>
</a>
</g>
</g>
<!-- Node17&#45;&gt;Node18 -->
<g id="edge23_Node000017_Node000018" class="edge">
<title>Node17&#45;&gt;Node18</title>
<g id="a_edge23_Node000017_Node000018"><a xlink:title=" ">
<path fill="none" stroke="#63b8ff" d="M722.49,-175.75C723.67,-168.8 725.36,-158.85 726.84,-150.13"/>
<polygon fill="#63b8ff" stroke="#63b8ff" points="730.32,-150.53 728.54,-140.09 723.42,-149.36 730.32,-150.53"/>
</a>
</g>
</g>
<!-- Node20 -->
<g id="Node000020" class="node">
<title>Node20</title>
<g id="a_Node000020"><a xlink:title=" ">
<polygon fill="#e0e0e0" stroke="#999999" points="637,-85 587,-85 587,-66 637,-66 637,-85"/>
<text text-anchor="middle" x="612" y="-73" font-family="Helvetica,sans-Serif" font-size="10.00">cstdint</text>
</a>
</g>
</g>
<!-- Node17&#45;&gt;Node20 -->
<g id="edge30_Node000017_Node000020" class="edge">
<title>Node17&#45;&gt;Node20</title>
<g id="a_edge30_Node000017_Node000020"><a xlink:title=" ">
<path fill="none" stroke="#63b8ff" d="M701.79,-175.9C686.16,-168.18 664.28,-155.68 649,-140 636.09,-126.75 625.93,-108.13 619.55,-94.48"/>
<polygon fill="#63b8ff" stroke="#63b8ff" points="622.68,-92.9 615.43,-85.18 616.28,-95.74 622.68,-92.9"/>
</a>
</g>
</g>
<!-- Node17&#45;&gt;Node22 -->
<g id="edge29_Node000017_Node000022" class="edge">
<title>Node17&#45;&gt;Node22</title>
<g id="a_edge29_Node000017_Node000022"><a xlink:title=" ">
<path fill="none" stroke="#63b8ff" d="M746.55,-175.98C773.12,-167.13 814.94,-153.19 844.67,-143.28"/>
<polygon fill="#63b8ff" stroke="#63b8ff" points="845.87,-146.56 854.25,-140.08 843.66,-139.92 845.87,-146.56"/>
</a>
</g>
</g>
<!-- Node18&#45;&gt;Node3 -->
<g id="edge27_Node000018_Node000003" class="edge">
<title>Node18&#45;&gt;Node3</title>
<g id="a_edge27_Node000018_Node000003"><a xlink:title=" ">
<path fill="none" stroke="#63b8ff" d="M715.93,-120.87C697.06,-108.25 667.7,-84.29 684,-66 710.69,-36.05 989.69,-21.46 1085.73,-17.29"/>
<polygon fill="#63b8ff" stroke="#63b8ff" points="1085.89,-20.79 1095.74,-16.86 1085.6,-13.79 1085.89,-20.79"/>
</a>
</g>
</g>
<!-- Node18&#45;&gt;Node4 -->
<g id="edge26_Node000018_Node000004" class="edge">
<title>Node18&#45;&gt;Node4</title>
<g id="a_edge26_Node000018_Node000004"><a xlink:title=" ">
<path fill="none" stroke="#63b8ff" d="M762.45,-120.96C826.8,-104.05 965.34,-67.76 976,-66 1188.39,-30.96 1244.96,-52.93 1459,-30 1473.03,-28.5 1488.12,-26.56 1502.21,-24.6"/>
<polygon fill="#63b8ff" stroke="#63b8ff" points="1502.86,-28.04 1512.27,-23.18 1501.88,-21.11 1502.86,-28.04"/>
</a>
</g>
</g>
<!-- Node19 -->
<g id="Node000019" class="node">
<title>Node19</title>
<g id="a_Node000019"><a xlink:href="ReflectionMacros_8h.html" target="_top" xlink:title="adapted from https://github.com/tapika/TestCppReflect">
<polygon fill="white" stroke="#666666" points="891,-85 781,-85 781,-66 891,-66 891,-85"/>
<text text-anchor="middle" x="836" y="-73" font-family="Helvetica,sans-Serif" font-size="10.00">ReflectionMacros.h</text>
</a>
</g>
</g>
<!-- Node18&#45;&gt;Node19 -->
<g id="edge24_Node000018_Node000019" class="edge">
<title>Node18&#45;&gt;Node19</title>
<g id="a_edge24_Node000018_Node000019"><a xlink:title=" ">
<path fill="none" stroke="#63b8ff" d="M747.03,-120.98C763.93,-112.54 790.06,-99.47 809.64,-89.68"/>
<polygon fill="#63b8ff" stroke="#63b8ff" points="811.28,-92.77 818.66,-85.17 808.15,-86.51 811.28,-92.77"/>
</a>
</g>
</g>
<!-- Node18&#45;&gt;Node20 -->
<g id="edge25_Node000018_Node000020" class="edge">
<title>Node18&#45;&gt;Node20</title>
<g id="a_edge25_Node000018_Node000020"><a xlink:title=" ">
<path fill="none" stroke="#63b8ff" d="M711.04,-120.98C691.97,-112.42 662.34,-99.11 640.45,-89.28"/>
<polygon fill="#63b8ff" stroke="#63b8ff" points="641.86,-86.07 631.3,-85.17 638.99,-92.46 641.86,-86.07"/>
</a>
</g>
</g>
<!-- Node21 -->
<g id="Node000021" class="node">
<title>Node21</title>
<g id="a_Node000021"><a xlink:title=" ">
<polygon fill="#e0e0e0" stroke="#999999" points="762.5,-85 693.5,-85 693.5,-66 762.5,-66 762.5,-85"/>
<text text-anchor="middle" x="728" y="-73" font-family="Helvetica,sans-Serif" font-size="10.00">type_traits</text>
</a>
</g>
</g>
<!-- Node18&#45;&gt;Node21 -->
<g id="edge28_Node000018_Node000021" class="edge">
<title>Node18&#45;&gt;Node21</title>
<g id="a_edge28_Node000018_Node000021"><a xlink:title=" ">
<path fill="none" stroke="#63b8ff" d="M729.67,-120.75C729.41,-113.8 729.03,-103.85 728.7,-95.13"/>
<polygon fill="#63b8ff" stroke="#63b8ff" points="732.2,-94.95 728.32,-85.09 725.2,-95.21 732.2,-94.95"/>
</a>
</g>
</g>
<!-- Node23&#45;&gt;Node12 -->
<g id="edge41_Node000023_Node000012" class="edge">
<title>Node23&#45;&gt;Node12</title>
<g id="a_edge41_Node000023_Node000012"><a xlink:title=" ">
<path fill="none" stroke="#63b8ff" d="M625.04,-230.98C615.87,-223.15 602.06,-211.34 590.97,-201.86"/>
<polygon fill="#63b8ff" stroke="#63b8ff" points="593.02,-199.01 583.14,-195.17 588.47,-204.33 593.02,-199.01"/>
</a>
</g>
</g>
<!-- Node23&#45;&gt;Node17 -->
<g id="edge32_Node000023_Node000017" class="edge">
<title>Node23&#45;&gt;Node17</title>
<g id="a_edge32_Node000023_Node000017"><a xlink:title=" ">
<path fill="none" stroke="#63b8ff" d="M648.82,-230.98C662.15,-222.77 682.58,-210.18 698.31,-200.49"/>
<polygon fill="#63b8ff" stroke="#63b8ff" points="700.25,-203.4 706.93,-195.17 696.58,-197.44 700.25,-203.4"/>
</a>
</g>
</g>
<!-- Node24 -->
<g id="Node000024" class="node">
<title>Node24</title>
<g id="a_Node000024"><a xlink:href="IConstraint_8h.html" target="_top" xlink:title="Interface for constraints.">
<polygon fill="white" stroke="#666666" points="311.5,-195 232.5,-195 232.5,-176 311.5,-176 311.5,-195"/>
<text text-anchor="middle" x="272" y="-183" font-family="Helvetica,sans-Serif" font-size="10.00">IConstraint.h</text>
</a>
</g>
</g>
<!-- Node23&#45;&gt;Node24 -->
<g id="edge33_Node000023_Node000024" class="edge">
<title>Node23&#45;&gt;Node24</title>
<g id="a_edge33_Node000023_Node000024"><a xlink:title=" ">
<path fill="none" stroke="#63b8ff" d="M605.29,-235.16C543.11,-226.08 398.67,-204.99 321.96,-193.79"/>
<polygon fill="#63b8ff" stroke="#63b8ff" points="322,-190.26 311.6,-192.28 320.99,-197.19 322,-190.26"/>
</a>
</g>
</g>
<!-- Node25 -->
<g id="Node000025" class="node">
<title>Node25</title>
<g id="a_Node000025"><a xlink:title=" ">
<polygon fill="#e0e0e0" stroke="#999999" points="185.5,-140 66.5,-140 66.5,-121 185.5,-121 185.5,-140"/>
<text text-anchor="middle" x="126" y="-128" font-family="Helvetica,sans-Serif" font-size="10.00">interface/param.pb.h</text>
</a>
</g>
</g>
<!-- Node23&#45;&gt;Node25 -->
<g id="edge45_Node000023_Node000025" class="edge">
<title>Node23&#45;&gt;Node25</title>
<g id="a_edge45_Node000023_Node000025"><a xlink:title=" ">
<path fill="none" stroke="#63b8ff" d="M605.3,-238.1C523.05,-233.93 293.7,-220.3 223,-195 192.41,-184.05 161.82,-161.66 143.41,-146.61"/>
<polygon fill="#63b8ff" stroke="#63b8ff" points="145.53,-143.83 135.62,-140.09 141.04,-149.19 145.53,-143.83"/>
</a>
</g>
</g>
<!-- Node23&#45;&gt;Node27 -->
<g id="edge36_Node000023_Node000027" class="edge">
<title>Node23&#45;&gt;Node27</title>
<g id="a_edge36_Node000023_Node000027"><a xlink:title=" ">
<path fill="none" stroke="#63b8ff" d="M664.79,-231.1C696.64,-222.12 747.33,-207.83 782.73,-197.85"/>
<polygon fill="#63b8ff" stroke="#63b8ff" points="784.05,-201.12 792.73,-195.03 782.15,-194.38 784.05,-201.12"/>
</a>
</g>
</g>
<!-- Node23&#45;&gt;Node30 -->
<g id="edge42_Node000023_Node000030" class="edge">
<title>Node23&#45;&gt;Node30</title>
<g id="a_edge42_Node000023_Node000030"><a xlink:title=" ">
<path fill="none" stroke="#63b8ff" d="M664.56,-235.6C736.14,-226.17 918.76,-202.09 998.63,-191.56"/>
<polygon fill="#63b8ff" stroke="#63b8ff" points="999.29,-195 1008.74,-190.23 998.37,-188.06 999.29,-195"/>
</a>
</g>
</g>
<!-- Node24&#45;&gt;Node25 -->
<g id="edge34_Node000024_Node000025" class="edge">
<title>Node24&#45;&gt;Node25</title>
<g id="a_edge34_Node000024_Node000025"><a xlink:title=" ">
<path fill="none" stroke="#63b8ff" d="M248.54,-175.98C224.42,-167.23 186.63,-153.51 159.4,-143.62"/>
<polygon fill="#63b8ff" stroke="#63b8ff" points="160.48,-140.29 149.88,-140.17 158.09,-146.87 160.48,-140.29"/>
</a>
</g>
</g>
<!-- Node26 -->
<g id="Node000026" class="node">
<title>Node26</title>
<g id="a_Node000026"><a xlink:title=" ">
<polygon fill="#e0e0e0" stroke="#999999" points="340,-140 204,-140 204,-121 340,-121 340,-140"/>
<text text-anchor="middle" x="272" y="-128" font-family="Helvetica,sans-Serif" font-size="10.00">interface/constraint.pb.h</text>
</a>
</g>
</g>
<!-- Node24&#45;&gt;Node26 -->
<g id="edge35_Node000024_Node000026" class="edge">
<title>Node24&#45;&gt;Node26</title>
<g id="a_edge35_Node000024_Node000026"><a xlink:title=" ">
<path fill="none" stroke="#63b8ff" d="M272,-175.75C272,-168.8 272,-158.85 272,-150.13"/>
<polygon fill="#63b8ff" stroke="#63b8ff" points="275.5,-150.09 272,-140.09 268.5,-150.09 275.5,-150.09"/>
</a>
</g>
</g>
<!-- Node27&#45;&gt;Node5 -->
<g id="edge40_Node000027_Node000005" class="edge">
<title>Node27&#45;&gt;Node5</title>
<g id="a_edge40_Node000027_Node000005"><a xlink:title=" ">
<path fill="none" stroke="#63b8ff" d="M877.75,-180.21C1005.08,-170.22 1319.85,-145.55 1445.73,-135.68"/>
<polygon fill="#63b8ff" stroke="#63b8ff" points="1446.19,-139.15 1455.88,-134.88 1445.64,-132.17 1446.19,-139.15"/>
</a>
</g>
</g>
<!-- Node28 -->
<g id="Node000028" class="node">
<title>Node28</title>
<g id="a_Node000028"><a xlink:href="Tags_8h.html" target="_top" xlink:title="Tags to differentiate collections with the same type for template specialization.">
<polygon fill="white" stroke="#666666" points="1004.5,-140 957.5,-140 957.5,-121 1004.5,-121 1004.5,-140"/>
<text text-anchor="middle" x="981" y="-128" font-family="Helvetica,sans-Serif" font-size="10.00">Tags.h</text>
</a>
</g>
</g>
<!-- Node27&#45;&gt;Node28 -->
<g id="edge37_Node000027_Node000028" class="edge">
<title>Node27&#45;&gt;Node28</title>
<g id="a_edge37_Node000027_Node000028"><a xlink:title=" ">
<path fill="none" stroke="#63b8ff" d="M848.39,-175.98C875.42,-166.91 918.33,-152.52 947.98,-142.58"/>
<polygon fill="#63b8ff" stroke="#63b8ff" points="949.12,-145.89 957.48,-139.39 946.89,-139.25 949.12,-145.89"/>
</a>
</g>
</g>
<!-- Node28&#45;&gt;Node3 -->
<g id="edge39_Node000028_Node000003" class="edge">
<title>Node28&#45;&gt;Node3</title>
<g id="a_edge39_Node000028_Node000003"><a xlink:title=" ">
<path fill="none" stroke="#63b8ff" d="M977.07,-120.77C971.8,-107.59 964.37,-82.43 976,-66 1000.74,-31.07 1051.94,-20.37 1085.62,-17.19"/>
<polygon fill="#63b8ff" stroke="#63b8ff" points="1086.18,-20.66 1095.89,-16.4 1085.65,-13.68 1086.18,-20.66"/>
</a>
</g>
</g>
<!-- Node28&#45;&gt;Node29 -->
<g id="edge38_Node000028_Node000029" class="edge">
<title>Node28&#45;&gt;Node29</title>
<g id="a_edge38_Node000028_Node000029"><a xlink:title=" ">
<path fill="none" stroke="#63b8ff" d="M987.11,-120.75C992.28,-113.34 999.85,-102.5 1006.19,-93.41"/>
<polygon fill="#63b8ff" stroke="#63b8ff" points="1009.15,-95.29 1012,-85.09 1003.41,-91.29 1009.15,-95.29"/>
</a>
</g>
</g>
<!-- Node31 -->
<g id="Node000031" class="node">
<title>Node31</title>
<g id="a_Node000031"><a xlink:title=" ">
<polygon fill="#e0e0e0" stroke="#999999" points="1162,-140 1106,-140 1106,-121 1162,-121 1162,-140"/>
<text text-anchor="middle" x="1134" y="-128" font-family="Helvetica,sans-Serif" font-size="10.00">sstream</text>
</a>
</g>
</g>
<!-- Node30&#45;&gt;Node31 -->
<g id="edge43_Node000030_Node000031" class="edge">
<title>Node30&#45;&gt;Node31</title>
<g id="a_edge43_Node000030_Node000031"><a xlink:title=" ">
<path fill="none" stroke="#63b8ff" d="M1052.58,-175.98C1067.77,-167.69 1091.1,-154.94 1108.9,-145.22"/>
<polygon fill="#63b8ff" stroke="#63b8ff" points="1111.03,-148.04 1118.13,-140.17 1107.68,-141.89 1111.03,-148.04"/>
</a>
</g>
</g>
<!-- Node32 -->
<g id="Node000032" class="node">
<title>Node32</title>
<g id="a_Node000032"><a xlink:title=" ">
<polygon fill="#e0e0e0" stroke="#999999" points="1087.5,-140 1022.5,-140 1022.5,-121 1087.5,-121 1087.5,-140"/>
<text text-anchor="middle" x="1055" y="-128" font-family="Helvetica,sans-Serif" font-size="10.00">stdexcept</text>
</a>
</g>
</g>
<!-- Node30&#45;&gt;Node32 -->
<g id="edge44_Node000030_Node000032" class="edge">
<title>Node30&#45;&gt;Node32</title>
<g id="a_edge44_Node000030_Node000032"><a xlink:title=" ">
<path fill="none" stroke="#63b8ff" d="M1039.97,-175.75C1042.36,-168.72 1045.79,-158.62 1048.77,-149.84"/>
<polygon fill="#63b8ff" stroke="#63b8ff" points="1052.18,-150.68 1052.08,-140.09 1045.55,-148.43 1052.18,-150.68"/>
</a>
</g>
</g>
<!-- Node34&#45;&gt;Node3 -->
<g id="edge52_Node000034_Node000003" class="edge">
<title>Node34&#45;&gt;Node3</title>
<g id="a_edge52_Node000034_Node000003"><a xlink:title=" ">
<path fill="none" stroke="#63b8ff" d="M1118,-65.87C1118,-57.75 1118,-45.31 1118,-34.89"/>
<polygon fill="#63b8ff" stroke="#63b8ff" points="1121.5,-34.67 1118,-24.67 1114.5,-34.67 1121.5,-34.67"/>
</a>
</g>
</g>
<!-- Node34&#45;&gt;Node4 -->
<g id="edge53_Node000034_Node000004" class="edge">
<title>Node34&#45;&gt;Node4</title>
<g id="a_edge53_Node000034_Node000004"><a xlink:title=" ">
<path fill="none" stroke="#63b8ff" d="M1167.15,-68.23C1233.44,-59.75 1355.17,-44.04 1459,-30 1473.05,-28.1 1488.2,-26 1502.36,-24.02"/>
<polygon fill="#63b8ff" stroke="#63b8ff" points="1503.04,-27.46 1512.46,-22.61 1502.07,-20.53 1503.04,-27.46"/>
</a>
</g>
</g>
<!-- Node38&#45;&gt;Node3 -->
<g id="edge68_Node000038_Node000003" class="edge">
<title>Node38&#45;&gt;Node3</title>
<g id="a_edge68_Node000038_Node000003"><a xlink:title=" ">
<path fill="none" stroke="#63b8ff" d="M1428.59,-395.8C1412.73,-378.44 1380,-337.63 1380,-296.5 1380,-296.5 1380,-296.5 1380,-239.5 1380,-181.25 1367.69,-159.53 1324,-121 1285.42,-86.97 1259.87,-108.28 1214,-85 1184.45,-70 1154,-46.48 1135.53,-31.15"/>
<polygon fill="#63b8ff" stroke="#63b8ff" points="1137.6,-28.32 1127.7,-24.55 1133.09,-33.67 1137.6,-28.32"/>
</a>
</g>
</g>
<!-- Node38&#45;&gt;Node4 -->
<g id="edge69_Node000038_Node000004" class="edge">
<title>Node38&#45;&gt;Node4</title>
<g id="a_edge69_Node000038_Node000004"><a xlink:title=" ">
<path fill="none" stroke="#63b8ff" d="M1446.38,-395.89C1492.56,-353.3 1694.67,-163.95 1725,-85 1743.28,-37.41 1670.66,-22.46 1615.69,-17.87"/>
<polygon fill="#63b8ff" stroke="#63b8ff" points="1615.89,-14.38 1605.66,-17.13 1615.37,-21.36 1615.89,-14.38"/>
</a>
</g>
</g>
<!-- Node38&#45;&gt;Node5 -->
<g id="edge66_Node000038_Node000005" class="edge">
<title>Node38&#45;&gt;Node5</title>
<g id="a_edge66_Node000038_Node000005"><a xlink:title=" ">
<path fill="none" stroke="#63b8ff" d="M1439.56,-395.91C1444.75,-377.74 1456,-334 1456,-296.5 1456,-296.5 1456,-296.5 1456,-239.5 1456,-205.53 1474.59,-169.53 1487.33,-148.87"/>
<polygon fill="#63b8ff" stroke="#63b8ff" points="1490.39,-150.58 1492.84,-140.27 1484.5,-146.8 1490.39,-150.58"/>
</a>
</g>
</g>
<!-- Node38&#45;&gt;Node10 -->
<g id="edge65_Node000038_Node000010" class="edge">
<title>Node38&#45;&gt;Node10</title>
<g id="a_edge65_Node000038_Node000010"><a xlink:title=" ">
<path fill="none" stroke="#63b8ff" d="M1410.48,-401.18C1338.7,-392.21 1140.27,-367.41 1053.97,-356.62"/>
<polygon fill="#63b8ff" stroke="#63b8ff" points="1054.37,-353.14 1044.02,-355.38 1053.51,-360.09 1054.37,-353.14"/>
</a>
</g>
</g>
<!-- Node38&#45;&gt;Node14 -->
<g id="edge70_Node000038_Node000014" class="edge">
<title>Node38&#45;&gt;Node14</title>
<g id="a_edge70_Node000038_Node000014"><a xlink:title=" ">
<path fill="none" stroke="#63b8ff" d="M1416.07,-395.86C1400.37,-388.43 1379.36,-376.32 1366,-360 1346.89,-336.66 1342,-326.67 1342,-296.5 1342,-296.5 1342,-296.5 1342,-239.5 1342,-204.56 1320.18,-168.66 1305.37,-148.31"/>
<polygon fill="#63b8ff" stroke="#63b8ff" points="1307.99,-145.97 1299.16,-140.11 1302.41,-150.2 1307.99,-145.97"/>
</a>
</g>
</g>
<!-- Node39 -->
<g id="Node000039" class="node">
<title>Node39</title>
<g id="a_Node000039"><a xlink:href="IMenu_8h.html" target="_top" xlink:title="Interface for Menus.">
<polygon fill="white" stroke="#666666" points="1279,-85 1223,-85 1223,-66 1279,-66 1279,-85"/>
<text text-anchor="middle" x="1251" y="-73" font-family="Helvetica,sans-Serif" font-size="10.00">IMenu.h</text>
</a>
</g>
</g>
<!-- Node38&#45;&gt;Node39 -->
<g id="edge62_Node000038_Node000039" class="edge">
<title>Node38&#45;&gt;Node39</title>
<g id="a_edge62_Node000038_Node000039"><a xlink:title=" ">
<path fill="none" stroke="#63b8ff" d="M1434.44,-395.91C1429.25,-377.74 1418,-334 1418,-296.5 1418,-296.5 1418,-296.5 1418,-184.5 1418,-152.06 1406.99,-141.68 1382,-121 1374.58,-114.86 1325.02,-98.94 1289.04,-87.91"/>
<polygon fill="#63b8ff" stroke="#63b8ff" points="1289.89,-84.51 1279.31,-84.94 1287.85,-91.2 1289.89,-84.51"/>
</a>
</g>
</g>
<!-- Node38&#45;&gt;Node40 -->
<g id="edge67_Node000038_Node000040" class="edge">
<title>Node38&#45;&gt;Node40</title>
<g id="a_edge67_Node000038_Node000040"><a xlink:title=" ">
<path fill="none" stroke="#63b8ff" d="M1459.98,-395.98C1483.5,-387.27 1520.29,-373.63 1546.94,-363.75"/>
<polygon fill="#63b8ff" stroke="#63b8ff" points="1548.45,-366.93 1556.61,-360.17 1546.01,-360.36 1548.45,-366.93"/>
</a>
</g>
</g>
<!-- Node39&#45;&gt;Node3 -->
<g id="edge63_Node000039_Node000003" class="edge">
<title>Node39&#45;&gt;Node3</title>
<g id="a_edge63_Node000039_Node000003"><a xlink:title=" ">
<path fill="none" stroke="#63b8ff" d="M1231.66,-65.99C1209.3,-56.16 1172.29,-39.88 1146.6,-28.58"/>
<polygon fill="#63b8ff" stroke="#63b8ff" points="1147.93,-25.34 1137.36,-24.52 1145.11,-31.75 1147.93,-25.34"/>
</a>
</g>
</g>
<!-- Node39&#45;&gt;Node4 -->
<g id="edge64_Node000039_Node000004" class="edge">
<title>Node39&#45;&gt;Node4</title>
<g id="a_edge64_Node000039_Node000004"><a xlink:title=" ">
<path fill="none" stroke="#63b8ff" d="M1279.15,-69.15C1329.97,-59.5 1437.86,-39.01 1503.84,-26.48"/>
<polygon fill="#63b8ff" stroke="#63b8ff" points="1504.88,-29.84 1514.05,-24.54 1503.58,-22.96 1504.88,-29.84"/>
</a>
</g>
</g>
</g>
</svg>
