<?xml version="1.0" encoding="UTF-8" standalone="no"?>
<!DOCTYPE svg PUBLIC "-//W3C//DTD SVG 1.1//EN"
 "http://www.w3.org/Graphics/SVG/1.1/DTD/svg11.dtd">
<!-- Generated by graphviz version 2.43.0 (0)
 -->
<!-- Title: /home/runner/work/Catena/Catena/sdks/cpp/common/include/MenuGroup.h Pages: 1 -->
<!--zoomable 500 -->

<svg id="main" version="1.1" xmlns="http://www.w3.org/2000/svg" xmlns:xlink="http://www.w3.org/1999/xlink" xml:space="preserve" onload="init(evt)">
<style type="text/css"><![CDATA[
.node, .edge {opacity: 0.7;}
.node.selected, .edge.selected {opacity: 1;}
.edge:hover path { stroke: red; }
.edge:hover polygon { stroke: red; fill: red; }
]]></style>

<defs>
  <circle id="rim" cx="0" cy="0" r="7"/>
  <circle id="rim2" cx="0" cy="0" r="3.5"/>
  <g id="zoomPlus">
    <use xlink:href="#rim" fill="#404040"><set attributeName="fill" to="#808080" begin="zoomplus.mouseover" end="zoomplus.mouseout"/></use>
    <path d="M-4,0h8M0,-4v8" fill="none" stroke="white" stroke-width="1.5" pointer-events="none"/>
  </g>
  <g id="zoomMin">
    <use xlink:href="#rim" fill="#404040"><set attributeName="fill" to="#808080" begin="zoomminus.mouseover" end="zoomminus.mouseout"/></use>
    <path d="M-4,0h8" fill="none" stroke="white" stroke-width="1.5" pointer-events="none"/>
  </g>
  <g id="arrowUp" transform="translate(30 24)">
    <use xlink:href="#rim"/>
    <path pointer-events="none" fill="none" stroke="white" stroke-width="1.5" d="M0,-3.0v7 M-2.5,-0.5L0,-3.0L2.5,-0.5"/>
  </g>
  <g id="arrowRight" transform="rotate(90) translate(36 -43)">
    <use xlink:href="#rim"/>
    <path pointer-events="none" fill="none" stroke="white" stroke-width="1.5" d="M0,-3.0v7 M-2.5,-0.5L0,-3.0L2.5,-0.5"/>
  </g>
  <g id="arrowDown" transform="rotate(180) translate(-30 -48)">
    <use xlink:href="#rim"/>
    <path pointer-events="none" fill="none" stroke="white" stroke-width="1.5" d="M0,-3.0v7 M-2.5,-0.5L0,-3.0L2.5,-0.5"/>
  </g>
  <g id="arrowLeft" transform="rotate(270) translate(-36 17)">
    <use xlink:href="#rim"/>
    <path pointer-events="none" fill="none" stroke="white" stroke-width="1.5" d="M0,-3.0v7 M-2.5,-0.5L0,-3.0L2.5,-0.5"/>
  </g>
  <g id="resetDef">
    <use xlink:href="#rim2" fill="#404040"><set attributeName="fill" to="#808080" begin="reset.mouseover" end="reset.mouseout"/></use>
  </g>
</defs>
<script type="application/ecmascript">
var viewWidth = 1857;
var viewHeight = 500;
var sectionId = 'dynsection-0';
</script>
<script type="application/ecmascript" xlink:href="svg.min.js"/>
<svg id="graph" class="graph">
<g id="viewport">
<title>/home/runner/work/Catena/Catena/sdks/cpp/common/include/MenuGroup.h</title>
<!-- Node1 -->
<g id="Node000001" class="node">
<title>Node1</title>
<g id="a_Node000001"><a xlink:title="MenuGroups support.">
<polygon fill="#999999" stroke="#666666" points="241.5,-492 95.5,-492 95.5,-451 241.5,-451 241.5,-492"/>
<text text-anchor="start" x="103.5" y="-480" font-family="Helvetica,sans-Serif" font-size="10.00">/home/runner/work/Catena</text>
<text text-anchor="start" x="103.5" y="-469" font-family="Helvetica,sans-Serif" font-size="10.00">/Catena/sdks/cpp/common</text>
<text text-anchor="middle" x="168.5" y="-458" font-family="Helvetica,sans-Serif" font-size="10.00">/include/MenuGroup.h</text>
</a>
</g>
</g>
<!-- Node2 -->
<g id="Node000002" class="node">
<title>Node2</title>
<g id="a_Node000002"><a xlink:href="IMenuGroup_8h.html" target="_top" xlink:title="Interface for MenuGroup.">
<polygon fill="white" stroke="#666666" points="128,-140 43,-140 43,-121 128,-121 128,-140"/>
<text text-anchor="middle" x="85.5" y="-128" font-family="Helvetica,sans-Serif" font-size="10.00">IMenuGroup.h</text>
</a>
</g>
</g>
<!-- Node1&#45;&gt;Node2 -->
<g id="edge1_Node000001_Node000002" class="edge">
<title>Node1&#45;&gt;Node2</title>
<g id="a_edge1_Node000001_Node000002"><a xlink:title=" ">
<path fill="none" stroke="#63b8ff" d="M163.41,-450.86C157.78,-427.39 149.5,-386.86 149.5,-351.5 149.5,-351.5 149.5,-351.5 149.5,-239.5 149.5,-202.53 121.4,-167.14 102.44,-147.46"/>
<polygon fill="#63b8ff" stroke="#63b8ff" points="104.77,-144.84 95.22,-140.26 99.83,-149.8 104.77,-144.84"/>
</a>
</g>
</g>
<!-- Node7 -->
<g id="Node000007" class="node">
<title>Node7</title>
<g id="a_Node000007"><a xlink:href="PolyglotText_8h.html" target="_top" xlink:title="Polyglot Text serialization and deserialization to protobuf.">
<polygon fill="white" stroke="#666666" points="422.5,-195 336.5,-195 336.5,-176 422.5,-176 422.5,-195"/>
<text text-anchor="middle" x="379.5" y="-183" font-family="Helvetica,sans-Serif" font-size="10.00">PolyglotText.h</text>
</a>
</g>
</g>
<!-- Node1&#45;&gt;Node7 -->
<g id="edge7_Node000001_Node000007" class="edge">
<title>Node1&#45;&gt;Node7</title>
<g id="a_edge7_Node000001_Node000007"><a xlink:title=" ">
<path fill="none" stroke="#63b8ff" d="M224.49,-450.97C266.04,-432.49 315.5,-400.26 315.5,-351.5 315.5,-351.5 315.5,-351.5 315.5,-294.5 315.5,-257.53 343.6,-222.14 362.56,-202.46"/>
<polygon fill="#63b8ff" stroke="#63b8ff" points="365.17,-204.8 369.78,-195.26 360.23,-199.84 365.17,-204.8"/>
</a>
</g>
</g>
<!-- Node10 -->
<g id="Node000010" class="node">
<title>Node10</title>
<g id="a_Node000010"><a xlink:title=" ">
<polygon fill="#e0e0e0" stroke="#999999" points="215,-79.5 132,-79.5 132,-60.5 215,-60.5 215,-79.5"/>
<text text-anchor="middle" x="173.5" y="-67.5" font-family="Helvetica,sans-Serif" font-size="10.00">initializer_list</text>
</a>
</g>
</g>
<!-- Node1&#45;&gt;Node10 -->
<g id="edge65_Node000001_Node000010" class="edge">
<title>Node1&#45;&gt;Node10</title>
<g id="a_edge65_Node000001_Node000010"><a xlink:title=" ">
<path fill="none" stroke="#63b8ff" d="M108.08,-450.98C64.93,-432.82 14.5,-401 14.5,-351.5 14.5,-351.5 14.5,-351.5 14.5,-184.5 14.5,-155.04 13.22,-142.37 33.5,-121 40.8,-113.31 96.41,-94.89 135.3,-82.69"/>
<polygon fill="#63b8ff" stroke="#63b8ff" points="136.77,-85.89 145.28,-79.58 134.69,-79.21 136.77,-85.89"/>
</a>
</g>
</g>
<!-- Node12 -->
<g id="Node000012" class="node">
<title>Node12</title>
<g id="a_Node000012"><a xlink:href="IDevice_8h.html" target="_top" xlink:title="Interface for device.">
<polygon fill="white" stroke="#666666" points="1044.5,-415 982.5,-415 982.5,-396 1044.5,-396 1044.5,-415"/>
<text text-anchor="middle" x="1013.5" y="-403" font-family="Helvetica,sans-Serif" font-size="10.00">IDevice.h</text>
</a>
</g>
</g>
<!-- Node1&#45;&gt;Node12 -->
<g id="edge17_Node000001_Node000012" class="edge">
<title>Node1&#45;&gt;Node12</title>
<g id="a_edge17_Node000001_Node000012"><a xlink:title=" ">
<path fill="none" stroke="#63b8ff" d="M241.64,-464.96C413.4,-451.95 838.11,-419.78 972.22,-409.63"/>
<polygon fill="#63b8ff" stroke="#63b8ff" points="972.76,-413.1 982.47,-408.85 972.23,-406.12 972.76,-413.1"/>
</a>
</g>
</g>
<!-- Node3 -->
<g id="Node000003" class="node">
<title>Node3</title>
<g id="a_Node000003"><a xlink:title=" ">
<polygon fill="#e0e0e0" stroke="#999999" points="115,-19 0,-19 0,0 115,0 115,-19"/>
<text text-anchor="middle" x="57.5" y="-7" font-family="Helvetica,sans-Serif" font-size="10.00">interface/menu.pb.h</text>
</a>
</g>
</g>
<!-- Node2&#45;&gt;Node3 -->
<g id="edge2_Node000002_Node000003" class="edge">
<title>Node2&#45;&gt;Node3</title>
<g id="a_edge2_Node000002_Node000003"><a xlink:title=" ">
<path fill="none" stroke="#63b8ff" d="M75.06,-120.87C66.08,-112.7 53.76,-99.55 48.5,-85 41.87,-66.66 46.07,-44.3 50.7,-28.89"/>
<polygon fill="#63b8ff" stroke="#63b8ff" points="54.14,-29.65 54,-19.05 47.5,-27.42 54.14,-29.65"/>
</a>
</g>
</g>
<!-- Node4 -->
<g id="Node000004" class="node">
<title>Node4</title>
<g id="a_Node000004"><a xlink:href="IMenu_8h.html" target="_top" xlink:title="Interface for Menus.">
<polygon fill="white" stroke="#666666" points="113.5,-79.5 57.5,-79.5 57.5,-60.5 113.5,-60.5 113.5,-79.5"/>
<text text-anchor="middle" x="85.5" y="-67.5" font-family="Helvetica,sans-Serif" font-size="10.00">IMenu.h</text>
</a>
</g>
</g>
<!-- Node2&#45;&gt;Node4 -->
<g id="edge3_Node000002_Node000004" class="edge">
<title>Node2&#45;&gt;Node4</title>
<g id="a_edge3_Node000002_Node000004"><a xlink:title=" ">
<path fill="none" stroke="#63b8ff" d="M85.5,-120.87C85.5,-112.75 85.5,-100.31 85.5,-89.89"/>
<polygon fill="#63b8ff" stroke="#63b8ff" points="89,-89.67 85.5,-79.67 82,-89.67 89,-89.67"/>
</a>
</g>
</g>
<!-- Node5 -->
<g id="Node000005" class="node">
<title>Node5</title>
<g id="a_Node000005"><a xlink:title=" ">
<polygon fill="#e0e0e0" stroke="#999999" points="773.5,-79.5 729.5,-79.5 729.5,-60.5 773.5,-60.5 773.5,-79.5"/>
<text text-anchor="middle" x="751.5" y="-67.5" font-family="Helvetica,sans-Serif" font-size="10.00">string</text>
</a>
</g>
</g>
<!-- Node2&#45;&gt;Node5 -->
<g id="edge5_Node000002_Node000005" class="edge">
<title>Node2&#45;&gt;Node5</title>
<g id="a_edge5_Node000002_Node000005"><a xlink:title=" ">
<path fill="none" stroke="#63b8ff" d="M128.07,-125.41C143.06,-123.99 160.03,-122.4 175.5,-121 382.54,-102.24 631.59,-81.11 719.16,-73.72"/>
<polygon fill="#63b8ff" stroke="#63b8ff" points="719.59,-77.2 729.26,-72.87 719,-70.22 719.59,-77.2"/>
</a>
</g>
</g>
<!-- Node6 -->
<g id="Node000006" class="node">
<title>Node6</title>
<g id="a_Node000006"><a xlink:title=" ">
<polygon fill="#e0e0e0" stroke="#999999" points="530,-79.5 437,-79.5 437,-60.5 530,-60.5 530,-79.5"/>
<text text-anchor="middle" x="483.5" y="-67.5" font-family="Helvetica,sans-Serif" font-size="10.00">unordered_map</text>
</a>
</g>
</g>
<!-- Node2&#45;&gt;Node6 -->
<g id="edge6_Node000002_Node000006" class="edge">
<title>Node2&#45;&gt;Node6</title>
<g id="a_edge6_Node000002_Node000006"><a xlink:title=" ">
<path fill="none" stroke="#63b8ff" d="M128,-125.65C193.08,-119.37 321.16,-105.55 428.5,-85 433.21,-84.1 438.12,-83.03 442.98,-81.9"/>
<polygon fill="#63b8ff" stroke="#63b8ff" points="443.92,-85.27 452.81,-79.51 442.27,-78.47 443.92,-85.27"/>
</a>
</g>
</g>
<!-- Node4&#45;&gt;Node3 -->
<g id="edge4_Node000004_Node000003" class="edge">
<title>Node4&#45;&gt;Node3</title>
<g id="a_edge4_Node000004_Node000003"><a xlink:title=" ">
<path fill="none" stroke="#63b8ff" d="M81.37,-60.37C77.36,-51.99 71.15,-39.01 66.06,-28.39"/>
<polygon fill="#63b8ff" stroke="#63b8ff" points="69.12,-26.68 61.65,-19.17 62.81,-29.7 69.12,-26.68"/>
</a>
</g>
</g>
<!-- Node7&#45;&gt;Node5 -->
<g id="edge14_Node000007_Node000005" class="edge">
<title>Node7&#45;&gt;Node5</title>
<g id="a_edge14_Node000007_Node000005"><a xlink:title=" ">
<path fill="none" stroke="#63b8ff" d="M399.65,-175.97C430.91,-162.95 493.15,-137.86 547.5,-121 607.41,-102.41 678.92,-86.23 719.39,-77.61"/>
<polygon fill="#63b8ff" stroke="#63b8ff" points="720.16,-81.02 729.22,-75.53 718.72,-74.17 720.16,-81.02"/>
</a>
</g>
</g>
<!-- Node7&#45;&gt;Node6 -->
<g id="edge15_Node000007_Node000006" class="edge">
<title>Node7&#45;&gt;Node6</title>
<g id="a_edge15_Node000007_Node000006"><a xlink:title=" ">
<path fill="none" stroke="#63b8ff" d="M391.84,-175.76C403.31,-167.31 420.52,-153.81 433.5,-140 448.79,-123.73 463.43,-102.66 472.87,-88.1"/>
<polygon fill="#63b8ff" stroke="#63b8ff" points="475.87,-89.91 478.28,-79.6 469.96,-86.16 475.87,-89.91"/>
</a>
</g>
</g>
<!-- Node8 -->
<g id="Node000008" class="node">
<title>Node8</title>
<g id="a_Node000008"><a xlink:href="IPolyglotText_8h.html" target="_top" xlink:title="Catena&#39;s multi&#45;language text interface.">
<polygon fill="white" stroke="#666666" points="424,-140 335,-140 335,-121 424,-121 424,-140"/>
<text text-anchor="middle" x="379.5" y="-128" font-family="Helvetica,sans-Serif" font-size="10.00">IPolyglotText.h</text>
</a>
</g>
</g>
<!-- Node7&#45;&gt;Node8 -->
<g id="edge8_Node000007_Node000008" class="edge">
<title>Node7&#45;&gt;Node8</title>
<g id="a_edge8_Node000007_Node000008"><a xlink:title=" ">
<path fill="none" stroke="#63b8ff" d="M379.5,-175.75C379.5,-168.8 379.5,-158.85 379.5,-150.13"/>
<polygon fill="#63b8ff" stroke="#63b8ff" points="383,-150.09 379.5,-140.09 376,-150.09 383,-150.09"/>
</a>
</g>
</g>
<!-- Node7&#45;&gt;Node10 -->
<g id="edge16_Node000007_Node000010" class="edge">
<title>Node7&#45;&gt;Node10</title>
<g id="a_edge16_Node000007_Node000010"><a xlink:title=" ">
<path fill="none" stroke="#63b8ff" d="M336.31,-181.2C282.64,-176.11 195.64,-164.27 175.5,-140 164.05,-126.19 165.3,-104.95 168.32,-89.68"/>
<polygon fill="#63b8ff" stroke="#63b8ff" points="171.76,-90.35 170.67,-79.81 164.95,-88.72 171.76,-90.35"/>
</a>
</g>
</g>
<!-- Node11 -->
<g id="Node000011" class="node">
<title>Node11</title>
<g id="a_Node000011"><a xlink:title=" ">
<polygon fill="#e0e0e0" stroke="#999999" points="316.5,-140 184.5,-140 184.5,-121 316.5,-121 316.5,-140"/>
<text text-anchor="middle" x="250.5" y="-128" font-family="Helvetica,sans-Serif" font-size="10.00">interface/language.pb.h</text>
</a>
</g>
</g>
<!-- Node7&#45;&gt;Node11 -->
<g id="edge13_Node000007_Node000011" class="edge">
<title>Node7&#45;&gt;Node11</title>
<g id="a_edge13_Node000007_Node000011"><a xlink:title=" ">
<path fill="none" stroke="#63b8ff" d="M358.77,-175.98C337.74,-167.34 304.95,-153.87 280.96,-144.02"/>
<polygon fill="#63b8ff" stroke="#63b8ff" points="282.18,-140.73 271.6,-140.17 279.52,-147.21 282.18,-140.73"/>
</a>
</g>
</g>
<!-- Node8&#45;&gt;Node5 -->
<g id="edge11_Node000008_Node000005" class="edge">
<title>Node8&#45;&gt;Node5</title>
<g id="a_edge11_Node000008_Node000005"><a xlink:title=" ">
<path fill="none" stroke="#63b8ff" d="M424,-122.5C499.97,-110.55 652.91,-86.5 719.4,-76.05"/>
<polygon fill="#63b8ff" stroke="#63b8ff" points="719.97,-79.5 729.31,-74.49 718.89,-72.59 719.97,-79.5"/>
</a>
</g>
</g>
<!-- Node8&#45;&gt;Node6 -->
<g id="edge10_Node000008_Node000006" class="edge">
<title>Node8&#45;&gt;Node6</title>
<g id="a_edge10_Node000008_Node000006"><a xlink:title=" ">
<path fill="none" stroke="#63b8ff" d="M394.85,-120.87C411.82,-111.32 439.4,-95.81 459.29,-84.62"/>
<polygon fill="#63b8ff" stroke="#63b8ff" points="461.09,-87.62 468.09,-79.67 457.66,-81.52 461.09,-87.62"/>
</a>
</g>
</g>
<!-- Node9 -->
<g id="Node000009" class="node">
<title>Node9</title>
<g id="a_Node000009"><a xlink:title=" ">
<polygon fill="#e0e0e0" stroke="#999999" points="419,-85 278,-85 278,-55 419,-55 419,-85"/>
<text text-anchor="start" x="286" y="-73" font-family="Helvetica,sans-Serif" font-size="10.00">google/protobuf/message</text>
<text text-anchor="middle" x="348.5" y="-62" font-family="Helvetica,sans-Serif" font-size="10.00">_lite.h</text>
</a>
</g>
</g>
<!-- Node8&#45;&gt;Node9 -->
<g id="edge9_Node000008_Node000009" class="edge">
<title>Node8&#45;&gt;Node9</title>
<g id="a_edge9_Node000008_Node000009"><a xlink:title=" ">
<path fill="none" stroke="#63b8ff" d="M374.93,-120.87C371.19,-113.81 365.72,-103.5 360.73,-94.08"/>
<polygon fill="#63b8ff" stroke="#63b8ff" points="363.75,-92.31 355.98,-85.11 357.57,-95.59 363.75,-92.31"/>
</a>
</g>
</g>
<!-- Node8&#45;&gt;Node10 -->
<g id="edge12_Node000008_Node000010" class="edge">
<title>Node8&#45;&gt;Node10</title>
<g id="a_edge12_Node000008_Node000010"><a xlink:title=" ">
<path fill="none" stroke="#63b8ff" d="M349.55,-120.99C313.54,-110.77 253,-93.58 213.15,-82.26"/>
<polygon fill="#63b8ff" stroke="#63b8ff" points="214.07,-78.88 203.49,-79.52 212.15,-85.62 214.07,-78.88"/>
</a>
</g>
</g>
<!-- Node12&#45;&gt;Node5 -->
<g id="edge61_Node000012_Node000005" class="edge">
<title>Node12&#45;&gt;Node5</title>
<g id="a_edge61_Node000012_Node000005"><a xlink:title=" ">
<path fill="none" stroke="#63b8ff" d="M1044.71,-403.81C1196.3,-400.07 1848.5,-379.18 1848.5,-296.5 1848.5,-296.5 1848.5,-296.5 1848.5,-184.5 1848.5,-74.56 965.51,-70.53 783.92,-70.87"/>
<polygon fill="#63b8ff" stroke="#63b8ff" points="783.9,-67.37 773.91,-70.89 783.92,-74.37 783.9,-67.37"/>
</a>
</g>
</g>
<!-- Node13 -->
<g id="Node000013" class="node">
<title>Node13</title>
<g id="a_Node000013"><a xlink:href="Authorization_8h.html" target="_top" xlink:title="Class for handling authorization information.">
<polygon fill="white" stroke="#666666" points="1103,-360 1012,-360 1012,-341 1103,-341 1103,-360"/>
<text text-anchor="middle" x="1057.5" y="-348" font-family="Helvetica,sans-Serif" font-size="10.00">Authorization.h</text>
</a>
</g>
</g>
<!-- Node12&#45;&gt;Node13 -->
<g id="edge18_Node000012_Node000013" class="edge">
<title>Node12&#45;&gt;Node13</title>
<g id="a_edge18_Node000012_Node000013"><a xlink:title=" ">
<path fill="none" stroke="#63b8ff" d="M1020.77,-395.75C1027.04,-388.18 1036.29,-377.05 1043.93,-367.84"/>
<polygon fill="#63b8ff" stroke="#63b8ff" points="1046.67,-370.02 1050.37,-360.09 1041.29,-365.55 1046.67,-370.02"/>
</a>
</g>
</g>
<!-- Node14 -->
<g id="Node000014" class="node">
<title>Node14</title>
<g id="a_Node000014"><a xlink:href="Path_8h.html" target="_top" xlink:title="Handles Path objects used to uniquely identify and access OIDs.">
<polygon fill="white" stroke="#666666" points="1444,-250 1397,-250 1397,-231 1444,-231 1444,-250"/>
<text text-anchor="middle" x="1420.5" y="-238" font-family="Helvetica,sans-Serif" font-size="10.00">Path.h</text>
</a>
</g>
</g>
<!-- Node12&#45;&gt;Node14 -->
<g id="edge53_Node000012_Node000014" class="edge">
<title>Node12&#45;&gt;Node14</title>
<g id="a_edge53_Node000012_Node000014"><a xlink:title=" ">
<path fill="none" stroke="#63b8ff" d="M1036.64,-396C1060.48,-387.18 1098.7,-372.91 1131.5,-360 1226.79,-322.51 1338.74,-275.85 1390.93,-253.95"/>
<polygon fill="#63b8ff" stroke="#63b8ff" points="1392.39,-257.13 1400.26,-250.03 1389.68,-250.68 1392.39,-257.13"/>
</a>
</g>
</g>
<!-- Node16 -->
<g id="Node000016" class="node">
<title>Node16</title>
<g id="a_Node000016"><a xlink:title=" ">
<polygon fill="#e0e0e0" stroke="#999999" points="1663,-195 1616,-195 1616,-176 1663,-176 1663,-195"/>
<text text-anchor="middle" x="1639.5" y="-183" font-family="Helvetica,sans-Serif" font-size="10.00">vector</text>
</a>
</g>
</g>
<!-- Node12&#45;&gt;Node16 -->
<g id="edge62_Node000012_Node000016" class="edge">
<title>Node12&#45;&gt;Node16</title>
<g id="a_edge62_Node000012_Node000016"><a xlink:title=" ">
<path fill="none" stroke="#63b8ff" d="M1044.67,-396.19C1075.92,-387.7 1125.32,-373.83 1167.5,-360 1335.82,-304.82 1533.81,-228.13 1608.72,-198.68"/>
<polygon fill="#63b8ff" stroke="#63b8ff" points="1610.03,-201.93 1618.05,-195 1607.46,-195.41 1610.03,-201.93"/>
</a>
</g>
</g>
<!-- Node24 -->
<g id="Node000024" class="node">
<title>Node24</title>
<g id="a_Node000024"><a xlink:title=" ">
<polygon fill="#e0e0e0" stroke="#999999" points="739,-195 620,-195 620,-176 739,-176 739,-195"/>
<text text-anchor="middle" x="679.5" y="-183" font-family="Helvetica,sans-Serif" font-size="10.00">interface/device.pb.h</text>
</a>
</g>
</g>
<!-- Node12&#45;&gt;Node24 -->
<g id="edge60_Node000012_Node000024" class="edge">
<title>Node12&#45;&gt;Node24</title>
<g id="a_edge60_Node000012_Node000024"><a xlink:title=" ">
<path fill="none" stroke="#63b8ff" d="M982.27,-402.69C921.92,-398.61 792.15,-386.9 757.5,-360 706.89,-320.71 688.19,-241.33 682.1,-205.18"/>
<polygon fill="#63b8ff" stroke="#63b8ff" points="685.53,-204.42 680.55,-195.07 678.61,-205.49 685.53,-204.42"/>
</a>
</g>
</g>
<!-- Node25 -->
<g id="Node000025" class="node">
<title>Node25</title>
<g id="a_Node000025"><a xlink:href="IParam_8h.html" target="_top" xlink:title="Interface for parameters.">
<polygon fill="white" stroke="#666666" points="1159,-305 1100,-305 1100,-286 1159,-286 1159,-305"/>
<text text-anchor="middle" x="1129.5" y="-293" font-family="Helvetica,sans-Serif" font-size="10.00">IParam.h</text>
</a>
</g>
</g>
<!-- Node12&#45;&gt;Node25 -->
<g id="edge54_Node000012_Node000025" class="edge">
<title>Node12&#45;&gt;Node25</title>
<g id="a_edge54_Node000012_Node000025"><a xlink:title=" ">
<path fill="none" stroke="#63b8ff" d="M1044.6,-398.01C1066.6,-391.84 1095.16,-380.38 1112.5,-360 1123.02,-347.64 1127.09,-329.42 1128.64,-315.66"/>
<polygon fill="#63b8ff" stroke="#63b8ff" points="1132.16,-315.62 1129.43,-305.38 1125.18,-315.09 1132.16,-315.62"/>
</a>
</g>
</g>
<!-- Node32 -->
<g id="Node000032" class="node">
<title>Node32</title>
<g id="a_Node000032"><a xlink:href="Status_8h.html" target="_top" xlink:title="Communicates failure status using gRPC&#39;s codes.">
<polygon fill="white" stroke="#666666" points="1681.5,-250 1625.5,-250 1625.5,-231 1681.5,-231 1681.5,-250"/>
<text text-anchor="middle" x="1653.5" y="-238" font-family="Helvetica,sans-Serif" font-size="10.00">Status.h</text>
</a>
</g>
</g>
<!-- Node12&#45;&gt;Node32 -->
<g id="edge58_Node000012_Node000032" class="edge">
<title>Node12&#45;&gt;Node32</title>
<g id="a_edge58_Node000012_Node000032"><a xlink:title=" ">
<path fill="none" stroke="#63b8ff" d="M1044.62,-404.97C1145.49,-406.04 1462.05,-405.59 1551.5,-360 1595.89,-337.38 1629.06,-286.28 1644.28,-259.16"/>
<polygon fill="#63b8ff" stroke="#63b8ff" points="1647.53,-260.52 1649.22,-250.06 1641.38,-257.18 1647.53,-260.52"/>
</a>
</g>
</g>
<!-- Node36 -->
<g id="Node000036" class="node">
<title>Node36</title>
<g id="a_Node000036"><a xlink:href="ILanguagePack_8h.html" target="_top" xlink:title="Interface for language packs.">
<polygon fill="white" stroke="#666666" points="654.5,-140 556.5,-140 556.5,-121 654.5,-121 654.5,-140"/>
<text text-anchor="middle" x="605.5" y="-128" font-family="Helvetica,sans-Serif" font-size="10.00">ILanguagePack.h</text>
</a>
</g>
</g>
<!-- Node12&#45;&gt;Node36 -->
<g id="edge55_Node000012_Node000036" class="edge">
<title>Node12&#45;&gt;Node36</title>
<g id="a_edge55_Node000012_Node000036"><a xlink:title=" ">
<path fill="none" stroke="#63b8ff" d="M982.45,-401.69C923.02,-395.89 795.7,-381.33 757.5,-360 672.01,-312.26 650.47,-284.83 611.5,-195 605.36,-180.86 604.13,-163.32 604.28,-150.26"/>
<polygon fill="#63b8ff" stroke="#63b8ff" points="607.78,-150.26 604.68,-140.13 600.78,-149.99 607.78,-150.26"/>
</a>
</g>
</g>
<!-- Node37 -->
<g id="Node000037" class="node">
<title>Node37</title>
<g id="a_Node000037"><a xlink:title=" ">
<polygon fill="#e0e0e0" stroke="#999999" points="847,-360 766,-360 766,-341 847,-341 847,-360"/>
<text text-anchor="middle" x="806.5" y="-348" font-family="Helvetica,sans-Serif" font-size="10.00">vdk/signals.h</text>
</a>
</g>
</g>
<!-- Node12&#45;&gt;Node37 -->
<g id="edge59_Node000012_Node000037" class="edge">
<title>Node12&#45;&gt;Node37</title>
<g id="a_edge59_Node000012_Node000037"><a xlink:title=" ">
<path fill="none" stroke="#63b8ff" d="M982.06,-396.45C946.79,-387.42 889.35,-372.71 849.84,-362.6"/>
<polygon fill="#63b8ff" stroke="#63b8ff" points="850.51,-359.16 839.95,-360.07 848.77,-365.94 850.51,-359.16"/>
</a>
</g>
</g>
<!-- Node38 -->
<g id="Node000038" class="node">
<title>Node38</title>
<g id="a_Node000038"><a xlink:title=" ">
<polygon fill="#e0e0e0" stroke="#999999" points="927.5,-360 865.5,-360 865.5,-341 927.5,-341 927.5,-360"/>
<text text-anchor="middle" x="896.5" y="-348" font-family="Helvetica,sans-Serif" font-size="10.00">coroutine</text>
</a>
</g>
</g>
<!-- Node12&#45;&gt;Node38 -->
<g id="edge63_Node000012_Node000038" class="edge">
<title>Node12&#45;&gt;Node38</title>
<g id="a_edge63_Node000012_Node000038"><a xlink:title=" ">
<path fill="none" stroke="#63b8ff" d="M994.7,-395.98C975.88,-387.46 946.68,-374.23 925,-364.41"/>
<polygon fill="#63b8ff" stroke="#63b8ff" points="926.19,-361.11 915.64,-360.17 923.3,-367.48 926.19,-361.11"/>
</a>
</g>
</g>
<!-- Node39 -->
<g id="Node000039" class="node">
<title>Node39</title>
<g id="a_Node000039"><a xlink:title=" ">
<polygon fill="#e0e0e0" stroke="#999999" points="993.5,-360 945.5,-360 945.5,-341 993.5,-341 993.5,-360"/>
<text text-anchor="middle" x="969.5" y="-348" font-family="Helvetica,sans-Serif" font-size="10.00">mutex</text>
</a>
</g>
</g>
<!-- Node12&#45;&gt;Node39 -->
<g id="edge64_Node000012_Node000039" class="edge">
<title>Node12&#45;&gt;Node39</title>
<g id="a_edge64_Node000012_Node000039"><a xlink:title=" ">
<path fill="none" stroke="#63b8ff" d="M1006.23,-395.75C999.96,-388.18 990.71,-377.05 983.07,-367.84"/>
<polygon fill="#63b8ff" stroke="#63b8ff" points="985.71,-365.55 976.63,-360.09 980.33,-370.02 985.71,-365.55"/>
</a>
</g>
</g>
<!-- Node13&#45;&gt;Node14 -->
<g id="edge19_Node000013_Node000014" class="edge">
<title>Node13&#45;&gt;Node14</title>
<g id="a_edge19_Node000013_Node000014"><a xlink:title=" ">
<path fill="none" stroke="#63b8ff" d="M1086.29,-340.94C1152.62,-321.2 1315.93,-272.61 1386.79,-251.53"/>
<polygon fill="#63b8ff" stroke="#63b8ff" points="1387.96,-254.83 1396.55,-248.63 1385.97,-248.12 1387.96,-254.83"/>
</a>
</g>
</g>
<!-- Node19 -->
<g id="Node000019" class="node">
<title>Node19</title>
<g id="a_Node000019"><a xlink:href="Enums_8h.html" target="_top" xlink:title="tools for using EnumDecorators.">
<polygon fill="white" stroke="#666666" points="906,-250 847,-250 847,-231 906,-231 906,-250"/>
<text text-anchor="middle" x="876.5" y="-238" font-family="Helvetica,sans-Serif" font-size="10.00">Enums.h</text>
</a>
</g>
</g>
<!-- Node13&#45;&gt;Node19 -->
<g id="edge25_Node000013_Node000019" class="edge">
<title>Node13&#45;&gt;Node19</title>
<g id="a_edge25_Node000013_Node000019"><a xlink:title=" ">
<path fill="none" stroke="#63b8ff" d="M1014.53,-340.94C975.9,-332.53 922.8,-318.95 906.5,-305 892.92,-293.37 885.05,-274.23 880.81,-260"/>
<polygon fill="#63b8ff" stroke="#63b8ff" points="884.18,-259.05 878.24,-250.28 877.41,-260.84 884.18,-259.05"/>
</a>
</g>
</g>
<!-- Node13&#45;&gt;Node25 -->
<g id="edge34_Node000013_Node000025" class="edge">
<title>Node13&#45;&gt;Node25</title>
<g id="a_edge34_Node000013_Node000025"><a xlink:title=" ">
<path fill="none" stroke="#63b8ff" d="M1069.07,-340.98C1079.92,-333 1096.38,-320.88 1109.38,-311.31"/>
<polygon fill="#63b8ff" stroke="#63b8ff" points="1111.74,-313.92 1117.72,-305.17 1107.59,-308.28 1111.74,-313.92"/>
</a>
</g>
</g>
<!-- Node29 -->
<g id="Node000029" class="node">
<title>Node29</title>
<g id="a_Node000029"><a xlink:href="IParamDescriptor_8h.html" target="_top" xlink:title="Interface class for ParamDescriptor.">
<polygon fill="white" stroke="#666666" points="1033,-250 924,-250 924,-231 1033,-231 1033,-250"/>
<text text-anchor="middle" x="978.5" y="-238" font-family="Helvetica,sans-Serif" font-size="10.00">IParamDescriptor.h</text>
</a>
</g>
</g>
<!-- Node13&#45;&gt;Node29 -->
<g id="edge50_Node000013_Node000029" class="edge">
<title>Node13&#45;&gt;Node29</title>
<g id="a_edge50_Node000013_Node000029"><a xlink:title=" ">
<path fill="none" stroke="#63b8ff" d="M1051.04,-340.66C1037.89,-322.69 1007.86,-281.64 990.85,-258.38"/>
<polygon fill="#63b8ff" stroke="#63b8ff" points="993.56,-256.16 984.83,-250.16 987.91,-260.3 993.56,-256.16"/>
</a>
</g>
</g>
<!-- Node31 -->
<g id="Node000031" class="node">
<title>Node31</title>
<g id="a_Node000031"><a xlink:title=" ">
<polygon fill="#e0e0e0" stroke="#999999" points="1098,-140 1033,-140 1033,-121 1098,-121 1098,-140"/>
<text text-anchor="middle" x="1065.5" y="-128" font-family="Helvetica,sans-Serif" font-size="10.00">functional</text>
</a>
</g>
</g>
<!-- Node13&#45;&gt;Node31 -->
<g id="edge52_Node000013_Node000031" class="edge">
<title>Node13&#45;&gt;Node31</title>
<g id="a_edge52_Node000013_Node000031"><a xlink:title=" ">
<path fill="none" stroke="#63b8ff" d="M1056.35,-340.78C1053.21,-315.29 1045.19,-238.72 1053.5,-176 1054.66,-167.27 1057.03,-157.83 1059.37,-149.9"/>
<polygon fill="#63b8ff" stroke="#63b8ff" points="1062.75,-150.82 1062.41,-140.23 1056.07,-148.72 1062.75,-150.82"/>
</a>
</g>
</g>
<!-- Node35 -->
<g id="Node000035" class="node">
<title>Node35</title>
<g id="a_Node000035"><a xlink:title=" ">
<polygon fill="#e0e0e0" stroke="#999999" points="995.5,-305 915.5,-305 915.5,-286 995.5,-286 995.5,-305"/>
<text text-anchor="middle" x="955.5" y="-293" font-family="Helvetica,sans-Serif" font-size="10.00">jwt&#45;cpp/jwt.h</text>
</a>
</g>
</g>
<!-- Node13&#45;&gt;Node35 -->
<g id="edge51_Node000013_Node000035" class="edge">
<title>Node13&#45;&gt;Node35</title>
<g id="a_edge51_Node000013_Node000035"><a xlink:title=" ">
<path fill="none" stroke="#63b8ff" d="M1041.11,-340.98C1024.93,-332.57 999.93,-319.59 981.12,-309.81"/>
<polygon fill="#63b8ff" stroke="#63b8ff" points="982.67,-306.68 972.19,-305.17 979.45,-312.89 982.67,-306.68"/>
</a>
</g>
</g>
<!-- Node14&#45;&gt;Node5 -->
<g id="edge21_Node000014_Node000005" class="edge">
<title>Node14&#45;&gt;Node5</title>
<g id="a_edge21_Node000014_Node000005"><a xlink:title=" ">
<path fill="none" stroke="#63b8ff" d="M1444.33,-237.71C1494.88,-233.05 1605.34,-217.88 1568.5,-176 1515.57,-115.83 929.02,-80.53 783.85,-72.68"/>
<polygon fill="#63b8ff" stroke="#63b8ff" points="783.97,-69.18 773.8,-72.14 783.6,-76.17 783.97,-69.18"/>
</a>
</g>
</g>
<!-- Node15 -->
<g id="Node000015" class="node">
<title>Node15</title>
<g id="a_Node000015"><a xlink:title=" ">
<polygon fill="#e0e0e0" stroke="#999999" points="1489.5,-195 1429.5,-195 1429.5,-176 1489.5,-176 1489.5,-195"/>
<text text-anchor="middle" x="1459.5" y="-183" font-family="Helvetica,sans-Serif" font-size="10.00">iostream</text>
</a>
</g>
</g>
<!-- Node14&#45;&gt;Node15 -->
<g id="edge20_Node000014_Node000015" class="edge">
<title>Node14&#45;&gt;Node15</title>
<g id="a_edge20_Node000014_Node000015"><a xlink:title=" ">
<path fill="none" stroke="#63b8ff" d="M1426.94,-230.75C1432.39,-223.34 1440.36,-212.5 1447.06,-203.41"/>
<polygon fill="#63b8ff" stroke="#63b8ff" points="1450.07,-205.22 1453.18,-195.09 1444.43,-201.07 1450.07,-205.22"/>
</a>
</g>
</g>
<!-- Node14&#45;&gt;Node16 -->
<g id="edge22_Node000014_Node000016" class="edge">
<title>Node14&#45;&gt;Node16</title>
<g id="a_edge22_Node000014_Node000016"><a xlink:title=" ">
<path fill="none" stroke="#63b8ff" d="M1444.35,-233.73C1483.44,-224.27 1561.22,-205.45 1605.88,-194.64"/>
<polygon fill="#63b8ff" stroke="#63b8ff" points="1606.78,-198.02 1615.68,-192.27 1605.13,-191.22 1606.78,-198.02"/>
</a>
</g>
</g>
<!-- Node17 -->
<g id="Node000017" class="node">
<title>Node17</title>
<g id="a_Node000017"><a xlink:title=" ">
<polygon fill="#e0e0e0" stroke="#999999" points="1559,-195 1508,-195 1508,-176 1559,-176 1559,-195"/>
<text text-anchor="middle" x="1533.5" y="-183" font-family="Helvetica,sans-Serif" font-size="10.00">variant</text>
</a>
</g>
</g>
<!-- Node14&#45;&gt;Node17 -->
<g id="edge23_Node000014_Node000017" class="edge">
<title>Node14&#45;&gt;Node17</title>
<g id="a_edge23_Node000014_Node000017"><a xlink:title=" ">
<path fill="none" stroke="#63b8ff" d="M1438.66,-230.98C1456.75,-222.5 1484.78,-209.35 1505.69,-199.54"/>
<polygon fill="#63b8ff" stroke="#63b8ff" points="1507.45,-202.59 1515.01,-195.17 1504.47,-196.25 1507.45,-202.59"/>
</a>
</g>
</g>
<!-- Node18 -->
<g id="Node000018" class="node">
<title>Node18</title>
<g id="a_Node000018"><a xlink:title=" ">
<polygon fill="#e0e0e0" stroke="#999999" points="1411.5,-195 1353.5,-195 1353.5,-176 1411.5,-176 1411.5,-195"/>
<text text-anchor="middle" x="1382.5" y="-183" font-family="Helvetica,sans-Serif" font-size="10.00">memory</text>
</a>
</g>
</g>
<!-- Node14&#45;&gt;Node18 -->
<g id="edge24_Node000014_Node000018" class="edge">
<title>Node14&#45;&gt;Node18</title>
<g id="a_edge24_Node000014_Node000018"><a xlink:title=" ">
<path fill="none" stroke="#63b8ff" d="M1414.23,-230.75C1408.91,-223.34 1401.14,-212.5 1394.62,-203.41"/>
<polygon fill="#63b8ff" stroke="#63b8ff" points="1397.33,-201.18 1388.66,-195.09 1391.64,-205.26 1397.33,-201.18"/>
</a>
</g>
</g>
<!-- Node20 -->
<g id="Node000020" class="node">
<title>Node20</title>
<g id="a_Node000020"><a xlink:href="EnumDecorator_8h.html" target="_top" xlink:title="Provides an enum with useful extra functionality.">
<polygon fill="white" stroke="#666666" points="901.5,-195 757.5,-195 757.5,-176 901.5,-176 901.5,-195"/>
<text text-anchor="middle" x="829.5" y="-183" font-family="Helvetica,sans-Serif" font-size="10.00">patterns/EnumDecorator.h</text>
</a>
</g>
</g>
<!-- Node19&#45;&gt;Node20 -->
<g id="edge26_Node000019_Node000020" class="edge">
<title>Node19&#45;&gt;Node20</title>
<g id="a_edge26_Node000019_Node000020"><a xlink:title=" ">
<path fill="none" stroke="#63b8ff" d="M868.74,-230.75C862.03,-223.18 852.16,-212.05 843.99,-202.84"/>
<polygon fill="#63b8ff" stroke="#63b8ff" points="846.37,-200.25 837.12,-195.09 841.13,-204.89 846.37,-200.25"/>
</a>
</g>
</g>
<!-- Node22 -->
<g id="Node000022" class="node">
<title>Node22</title>
<g id="a_Node000022"><a xlink:title=" ">
<polygon fill="#e0e0e0" stroke="#999999" points="976.5,-140 926.5,-140 926.5,-121 976.5,-121 976.5,-140"/>
<text text-anchor="middle" x="951.5" y="-128" font-family="Helvetica,sans-Serif" font-size="10.00">cstdint</text>
</a>
</g>
</g>
<!-- Node19&#45;&gt;Node22 -->
<g id="edge33_Node000019_Node000022" class="edge">
<title>Node19&#45;&gt;Node22</title>
<g id="a_edge33_Node000019_Node000022"><a xlink:title=" ">
<path fill="none" stroke="#63b8ff" d="M883.48,-230.79C890.51,-221.93 901.55,-207.72 910.5,-195 921.21,-179.77 932.64,-161.93 940.7,-149.04"/>
<polygon fill="#63b8ff" stroke="#63b8ff" points="943.84,-150.61 946.14,-140.27 937.89,-146.92 943.84,-150.61"/>
</a>
</g>
</g>
<!-- Node19&#45;&gt;Node24 -->
<g id="edge32_Node000019_Node000024" class="edge">
<title>Node19&#45;&gt;Node24</title>
<g id="a_edge32_Node000019_Node000024"><a xlink:title=" ">
<path fill="none" stroke="#63b8ff" d="M846.58,-231.45C813.23,-222.48 759.05,-207.9 721.47,-197.79"/>
<polygon fill="#63b8ff" stroke="#63b8ff" points="721.9,-194.28 711.34,-195.07 720.09,-201.04 721.9,-194.28"/>
</a>
</g>
</g>
<!-- Node20&#45;&gt;Node5 -->
<g id="edge30_Node000020_Node000005" class="edge">
<title>Node20&#45;&gt;Node5</title>
<g id="a_edge30_Node000020_Node000005"><a xlink:title=" ">
<path fill="none" stroke="#63b8ff" d="M844.85,-175.95C864.24,-164.01 893.51,-141.51 879.5,-121 858.2,-89.81 814.28,-78.07 783.87,-73.66"/>
<polygon fill="#63b8ff" stroke="#63b8ff" points="784.1,-70.16 773.74,-72.38 783.23,-77.11 784.1,-70.16"/>
</a>
</g>
</g>
<!-- Node20&#45;&gt;Node6 -->
<g id="edge29_Node000020_Node000006" class="edge">
<title>Node20&#45;&gt;Node6</title>
<g id="a_edge29_Node000020_Node000006"><a xlink:title=" ">
<path fill="none" stroke="#63b8ff" d="M760.33,-175.99C682.96,-166.09 565.98,-149.85 547.5,-140 524.84,-127.92 505.88,-104.67 494.62,-88.51"/>
<polygon fill="#63b8ff" stroke="#63b8ff" points="497.37,-86.33 488.91,-79.96 491.55,-90.22 497.37,-86.33"/>
</a>
</g>
</g>
<!-- Node21 -->
<g id="Node000021" class="node">
<title>Node21</title>
<g id="a_Node000021"><a xlink:href="ReflectionMacros_8h.html" target="_top" xlink:title="adapted from https://github.com/tapika/TestCppReflect">
<polygon fill="white" stroke="#666666" points="870.5,-140 760.5,-140 760.5,-121 870.5,-121 870.5,-140"/>
<text text-anchor="middle" x="815.5" y="-128" font-family="Helvetica,sans-Serif" font-size="10.00">ReflectionMacros.h</text>
</a>
</g>
</g>
<!-- Node20&#45;&gt;Node21 -->
<g id="edge27_Node000020_Node000021" class="edge">
<title>Node20&#45;&gt;Node21</title>
<g id="a_edge27_Node000020_Node000021"><a xlink:title=" ">
<path fill="none" stroke="#63b8ff" d="M827.19,-175.75C825.33,-168.72 822.66,-158.62 820.35,-149.84"/>
<polygon fill="#63b8ff" stroke="#63b8ff" points="823.71,-148.86 817.77,-140.09 816.94,-150.65 823.71,-148.86"/>
</a>
</g>
</g>
<!-- Node20&#45;&gt;Node22 -->
<g id="edge28_Node000020_Node000022" class="edge">
<title>Node20&#45;&gt;Node22</title>
<g id="a_edge28_Node000020_Node000022"><a xlink:title=" ">
<path fill="none" stroke="#63b8ff" d="M849.1,-175.98C868.82,-167.42 899.45,-154.11 922.08,-144.28"/>
<polygon fill="#63b8ff" stroke="#63b8ff" points="923.76,-147.37 931.54,-140.17 920.98,-140.94 923.76,-147.37"/>
</a>
</g>
</g>
<!-- Node23 -->
<g id="Node000023" class="node">
<title>Node23</title>
<g id="a_Node000023"><a xlink:title=" ">
<polygon fill="#e0e0e0" stroke="#999999" points="742,-140 673,-140 673,-121 742,-121 742,-140"/>
<text text-anchor="middle" x="707.5" y="-128" font-family="Helvetica,sans-Serif" font-size="10.00">type_traits</text>
</a>
</g>
</g>
<!-- Node20&#45;&gt;Node23 -->
<g id="edge31_Node000020_Node000023" class="edge">
<title>Node20&#45;&gt;Node23</title>
<g id="a_edge31_Node000020_Node000023"><a xlink:title=" ">
<path fill="none" stroke="#63b8ff" d="M809.9,-175.98C790.18,-167.42 759.55,-154.11 736.92,-144.28"/>
<polygon fill="#63b8ff" stroke="#63b8ff" points="738.02,-140.94 727.46,-140.17 735.24,-147.37 738.02,-140.94"/>
</a>
</g>
</g>
<!-- Node25&#45;&gt;Node14 -->
<g id="edge45_Node000025_Node000014" class="edge">
<title>Node25&#45;&gt;Node14</title>
<g id="a_edge45_Node000025_Node000014"><a xlink:title=" ">
<path fill="none" stroke="#63b8ff" d="M1159,-289.13C1213.41,-279.22 1329.24,-258.12 1386.71,-247.65"/>
<polygon fill="#63b8ff" stroke="#63b8ff" points="1387.52,-251.06 1396.73,-245.83 1386.27,-244.18 1387.52,-251.06"/>
</a>
</g>
</g>
<!-- Node25&#45;&gt;Node19 -->
<g id="edge35_Node000025_Node000019" class="edge">
<title>Node25&#45;&gt;Node19</title>
<g id="a_edge35_Node000025_Node000019"><a xlink:title=" ">
<path fill="none" stroke="#63b8ff" d="M1099.71,-288.4C1060.2,-280.29 988.05,-265.4 916.41,-250.18"/>
<polygon fill="#63b8ff" stroke="#63b8ff" points="916.81,-246.68 906.3,-248.03 915.36,-253.53 916.81,-246.68"/>
</a>
</g>
</g>
<!-- Node26 -->
<g id="Node000026" class="node">
<title>Node26</title>
<g id="a_Node000026"><a xlink:href="IConstraint_8h.html" target="_top" xlink:title="Interface for constraints.">
<polygon fill="white" stroke="#666666" points="1229,-250 1150,-250 1150,-231 1229,-231 1229,-250"/>
<text text-anchor="middle" x="1189.5" y="-238" font-family="Helvetica,sans-Serif" font-size="10.00">IConstraint.h</text>
</a>
</g>
</g>
<!-- Node25&#45;&gt;Node26 -->
<g id="edge36_Node000025_Node000026" class="edge">
<title>Node25&#45;&gt;Node26</title>
<g id="a_edge36_Node000025_Node000026"><a xlink:title=" ">
<path fill="none" stroke="#63b8ff" d="M1139.14,-285.98C1148.01,-278.15 1161.37,-266.34 1172.11,-256.86"/>
<polygon fill="#63b8ff" stroke="#63b8ff" points="1174.51,-259.41 1179.68,-250.17 1169.87,-254.17 1174.51,-259.41"/>
</a>
</g>
</g>
<!-- Node27 -->
<g id="Node000027" class="node">
<title>Node27</title>
<g id="a_Node000027"><a xlink:title=" ">
<polygon fill="#e0e0e0" stroke="#999999" points="1181,-195 1062,-195 1062,-176 1181,-176 1181,-195"/>
<text text-anchor="middle" x="1121.5" y="-183" font-family="Helvetica,sans-Serif" font-size="10.00">interface/param.pb.h</text>
</a>
</g>
</g>
<!-- Node25&#45;&gt;Node27 -->
<g id="edge49_Node000025_Node000027" class="edge">
<title>Node25&#45;&gt;Node27</title>
<g id="a_edge49_Node000025_Node000027"><a xlink:title=" ">
<path fill="none" stroke="#63b8ff" d="M1128.85,-285.66C1127.55,-268.17 1124.63,-228.8 1122.89,-205.27"/>
<polygon fill="#63b8ff" stroke="#63b8ff" points="1126.37,-204.87 1122.14,-195.16 1119.39,-205.39 1126.37,-204.87"/>
</a>
</g>
</g>
<!-- Node25&#45;&gt;Node29 -->
<g id="edge39_Node000025_Node000029" class="edge">
<title>Node25&#45;&gt;Node29</title>
<g id="a_edge39_Node000025_Node000029"><a xlink:title=" ">
<path fill="none" stroke="#63b8ff" d="M1105.24,-285.98C1080.18,-277.19 1040.87,-263.39 1012.67,-253.49"/>
<polygon fill="#63b8ff" stroke="#63b8ff" points="1013.8,-250.18 1003.2,-250.17 1011.48,-256.78 1013.8,-250.18"/>
</a>
</g>
</g>
<!-- Node25&#45;&gt;Node32 -->
<g id="edge46_Node000025_Node000032" class="edge">
<title>Node25&#45;&gt;Node32</title>
<g id="a_edge46_Node000025_Node000032"><a xlink:title=" ">
<path fill="none" stroke="#63b8ff" d="M1159.17,-291.5C1248.58,-282.46 1515.33,-255.47 1615.2,-245.37"/>
<polygon fill="#63b8ff" stroke="#63b8ff" points="1615.83,-248.83 1625.43,-244.34 1615.13,-241.86 1615.83,-248.83"/>
</a>
</g>
</g>
<!-- Node26&#45;&gt;Node27 -->
<g id="edge37_Node000026_Node000027" class="edge">
<title>Node26&#45;&gt;Node27</title>
<g id="a_edge37_Node000026_Node000027"><a xlink:title=" ">
<path fill="none" stroke="#63b8ff" d="M1178.57,-230.98C1168.42,-223.07 1153.08,-211.11 1140.85,-201.58"/>
<polygon fill="#63b8ff" stroke="#63b8ff" points="1142.66,-198.56 1132.62,-195.17 1138.36,-204.08 1142.66,-198.56"/>
</a>
</g>
</g>
<!-- Node28 -->
<g id="Node000028" class="node">
<title>Node28</title>
<g id="a_Node000028"><a xlink:title=" ">
<polygon fill="#e0e0e0" stroke="#999999" points="1335.5,-195 1199.5,-195 1199.5,-176 1335.5,-176 1335.5,-195"/>
<text text-anchor="middle" x="1267.5" y="-183" font-family="Helvetica,sans-Serif" font-size="10.00">interface/constraint.pb.h</text>
</a>
</g>
</g>
<!-- Node26&#45;&gt;Node28 -->
<g id="edge38_Node000026_Node000028" class="edge">
<title>Node26&#45;&gt;Node28</title>
<g id="a_edge38_Node000026_Node000028"><a xlink:title=" ">
<path fill="none" stroke="#63b8ff" d="M1202.03,-230.98C1213.9,-222.92 1231.96,-210.65 1246.11,-201.03"/>
<polygon fill="#63b8ff" stroke="#63b8ff" points="1248.44,-203.69 1254.74,-195.17 1244.5,-197.9 1248.44,-203.69"/>
</a>
</g>
</g>
<!-- Node29&#45;&gt;Node7 -->
<g id="edge43_Node000029_Node000007" class="edge">
<title>Node29&#45;&gt;Node7</title>
<g id="a_edge43_Node000029_Node000007"><a xlink:title=" ">
<path fill="none" stroke="#63b8ff" d="M923.89,-231.96C921.05,-231.62 918.24,-231.3 915.5,-231 739.06,-211.79 529.14,-196.57 432.73,-190.01"/>
<polygon fill="#63b8ff" stroke="#63b8ff" points="432.86,-186.51 422.65,-189.33 432.39,-193.5 432.86,-186.51"/>
</a>
</g>
</g>
<!-- Node29&#45;&gt;Node27 -->
<g id="edge44_Node000029_Node000027" class="edge">
<title>Node29&#45;&gt;Node27</title>
<g id="a_edge44_Node000029_Node000027"><a xlink:title=" ">
<path fill="none" stroke="#63b8ff" d="M1001.48,-230.98C1025,-222.27 1061.79,-208.63 1088.44,-198.75"/>
<polygon fill="#63b8ff" stroke="#63b8ff" points="1089.95,-201.93 1098.11,-195.17 1087.51,-195.36 1089.95,-201.93"/>
</a>
</g>
</g>
<!-- Node30 -->
<g id="Node000030" class="node">
<title>Node30</title>
<g id="a_Node000030"><a xlink:href="Tags_8h.html" target="_top" xlink:title="Tags to differentiate collections with the same type for template specialization.">
<polygon fill="white" stroke="#666666" points="1005,-195 958,-195 958,-176 1005,-176 1005,-195"/>
<text text-anchor="middle" x="981.5" y="-183" font-family="Helvetica,sans-Serif" font-size="10.00">Tags.h</text>
</a>
</g>
</g>
<!-- Node29&#45;&gt;Node30 -->
<g id="edge40_Node000029_Node000030" class="edge">
<title>Node29&#45;&gt;Node30</title>
<g id="a_edge40_Node000029_Node000030"><a xlink:title=" ">
<path fill="none" stroke="#63b8ff" d="M979,-230.75C979.39,-223.8 979.95,-213.85 980.45,-205.13"/>
<polygon fill="#63b8ff" stroke="#63b8ff" points="983.94,-205.27 981.01,-195.09 976.95,-204.88 983.94,-205.27"/>
</a>
</g>
</g>
<!-- Node30&#45;&gt;Node5 -->
<g id="edge42_Node000030_Node000005" class="edge">
<title>Node30&#45;&gt;Node5</title>
<g id="a_edge42_Node000030_Node000005"><a xlink:title=" ">
<path fill="none" stroke="#63b8ff" d="M985.48,-175.57C990.79,-162.13 998.14,-136.63 985.5,-121 960.47,-90.06 841.86,-77.43 783.74,-73.03"/>
<polygon fill="#63b8ff" stroke="#63b8ff" points="783.86,-69.53 773.63,-72.3 783.36,-76.51 783.86,-69.53"/>
</a>
</g>
</g>
<!-- Node30&#45;&gt;Node31 -->
<g id="edge41_Node000030_Node000031" class="edge">
<title>Node30&#45;&gt;Node31</title>
<g id="a_edge41_Node000030_Node000031"><a xlink:title=" ">
<path fill="none" stroke="#63b8ff" d="M995,-175.98C1007.9,-167.84 1027.6,-155.41 1042.9,-145.76"/>
<polygon fill="#63b8ff" stroke="#63b8ff" points="1045.17,-148.47 1051.76,-140.17 1041.43,-142.55 1045.17,-148.47"/>
</a>
</g>
</g>
<!-- Node33 -->
<g id="Node000033" class="node">
<title>Node33</title>
<g id="a_Node000033"><a xlink:title=" ">
<polygon fill="#e0e0e0" stroke="#999999" points="1820.5,-195 1764.5,-195 1764.5,-176 1820.5,-176 1820.5,-195"/>
<text text-anchor="middle" x="1792.5" y="-183" font-family="Helvetica,sans-Serif" font-size="10.00">sstream</text>
</a>
</g>
</g>
<!-- Node32&#45;&gt;Node33 -->
<g id="edge47_Node000032_Node000033" class="edge">
<title>Node32&#45;&gt;Node33</title>
<g id="a_edge47_Node000032_Node000033"><a xlink:title=" ">
<path fill="none" stroke="#63b8ff" d="M1675.83,-230.98C1698.7,-222.27 1734.46,-208.63 1760.36,-198.75"/>
<polygon fill="#63b8ff" stroke="#63b8ff" points="1761.66,-202 1769.76,-195.17 1759.17,-195.46 1761.66,-202"/>
</a>
</g>
</g>
<!-- Node34 -->
<g id="Node000034" class="node">
<title>Node34</title>
<g id="a_Node000034"><a xlink:title=" ">
<polygon fill="#e0e0e0" stroke="#999999" points="1746,-195 1681,-195 1681,-176 1746,-176 1746,-195"/>
<text text-anchor="middle" x="1713.5" y="-183" font-family="Helvetica,sans-Serif" font-size="10.00">stdexcept</text>
</a>
</g>
</g>
<!-- Node32&#45;&gt;Node34 -->
<g id="edge48_Node000032_Node000034" class="edge">
<title>Node32&#45;&gt;Node34</title>
<g id="a_edge48_Node000032_Node000034"><a xlink:title=" ">
<path fill="none" stroke="#63b8ff" d="M1663.14,-230.98C1672.01,-223.15 1685.37,-211.34 1696.11,-201.86"/>
<polygon fill="#63b8ff" stroke="#63b8ff" points="1698.51,-204.41 1703.68,-195.17 1693.87,-199.17 1698.51,-204.41"/>
</a>
</g>
</g>
<!-- Node36&#45;&gt;Node5 -->
<g id="edge56_Node000036_Node000005" class="edge">
<title>Node36&#45;&gt;Node5</title>
<g id="a_edge56_Node000036_Node000005"><a xlink:title=" ">
<path fill="none" stroke="#63b8ff" d="M626.73,-120.99C651.49,-111.07 692.62,-94.59 720.85,-83.28"/>
<polygon fill="#63b8ff" stroke="#63b8ff" points="722.26,-86.49 730.24,-79.52 719.66,-79.99 722.26,-86.49"/>
</a>
</g>
</g>
<!-- Node36&#45;&gt;Node6 -->
<g id="edge57_Node000036_Node000006" class="edge">
<title>Node36&#45;&gt;Node6</title>
<g id="a_edge57_Node000036_Node000006"><a xlink:title=" ">
<path fill="none" stroke="#63b8ff" d="M587.76,-120.99C567.43,-111.25 533.89,-95.16 510.36,-83.88"/>
<polygon fill="#63b8ff" stroke="#63b8ff" points="511.79,-80.68 501.26,-79.52 508.76,-87 511.79,-80.68"/>
</a>
</g>
</g>
</g>
</svg>

<g id="navigator" transform="translate(0 0)" fill="#404254">
  <rect fill="#f2f5e9" fill-opacity="0.5" stroke="#606060" stroke-width=".5" x="0" y="0" width="60" height="60"/>
  <use id="zoomplus" xlink:href="#zoomPlus" x="17" y="9" onmousedown="handleZoom(evt,'in')"/>
  <use id="zoomminus" xlink:href="#zoomMin" x="42" y="9" onmousedown="handleZoom(evt,'out')"/>
  <use id="reset" xlink:href="#resetDef" x="30" y="36" onmousedown="handleReset()"/>
   <use id="arrowup" xlink:href="#arrowUp" x="0" y="0" onmousedown="handlePan(0,-1)"/>
  <use id="arrowright" xlink:href="#arrowRight" x="0" y="0" onmousedown="handlePan(1,0)"/>
  <use id="arrowdown" xlink:href="#arrowDown" x="0" y="0" onmousedown="handlePan(0,1)"/>
  <use id="arrowleft" xlink:href="#arrowLeft" x="0" y="0" onmousedown="handlePan(-1,0)"/>
</g>
<svg viewBox="0 0 15 15" width="100%" height="30px" preserveAspectRatio="xMaxYMin meet">
 <g id="arrow_out" transform="scale(0.3 0.3)">
  <a xlink:href="MenuGroup_8h__incl_org.svg" target="_base">
   <rect id="button" ry="5" rx="5" y="6" x="6" height="38" width="38"
        fill="#f2f5e9" fill-opacity="0.5" stroke="#606060" stroke-width="1.0"/>
   <path id="arrow"
     d="M 11.500037,31.436501 C 11.940474,20.09759 22.043105,11.32322 32.158766,21.979434 L 37.068811,17.246167 C 37.068811,17.246167 37.088388,32 37.088388,32 L 22.160133,31.978069 C 22.160133,31.978069 26.997745,27.140456 26.997745,27.140456 C 18.528582,18.264221 13.291696,25.230495 11.500037,31.436501 z"
     style="fill:#404040;"/>
  </a>
 </g>
</svg>

<style type='text/css'>
<![CDATA[
[data-mouse-over-selected='false'] { opacity: 0.7; }
[data-mouse-over-selected='true']  { opacity: 1.0; }
]]>
</style>
<script type="application/ecmascript"><![CDATA[
document.addEventListener('DOMContentLoaded', (event) => {
  highlightEdges();
  highlightAdjacentNodes();
});
]]></script>
</svg>
