<?xml version="1.0" encoding="UTF-8" standalone="no"?>
<!DOCTYPE svg PUBLIC "-//W3C//DTD SVG 1.1//EN"
 "http://www.w3.org/Graphics/SVG/1.1/DTD/svg11.dtd">
<!-- Generated by graphviz version 2.43.0 (0)
 -->
<!-- Title: /home/runner/work/Catena/Catena/sdks/cpp/common/include/NamedChoiceConstraint.h Pages: 1 -->
<!--zoomable 445 -->

<svg id="main" version="1.1" xmlns="http://www.w3.org/2000/svg" xmlns:xlink="http://www.w3.org/1999/xlink" xml:space="preserve" onload="init(evt)">
<style type="text/css"><![CDATA[
.node, .edge {opacity: 0.7;}
.node.selected, .edge.selected {opacity: 1;}
.edge:hover path { stroke: red; }
.edge:hover polygon { stroke: red; fill: red; }
]]></style>

<defs>
  <circle id="rim" cx="0" cy="0" r="7"/>
  <circle id="rim2" cx="0" cy="0" r="3.5"/>
  <g id="zoomPlus">
    <use xlink:href="#rim" fill="#404040"><set attributeName="fill" to="#808080" begin="zoomplus.mouseover" end="zoomplus.mouseout"/></use>
    <path d="M-4,0h8M0,-4v8" fill="none" stroke="white" stroke-width="1.5" pointer-events="none"/>
  </g>
  <g id="zoomMin">
    <use xlink:href="#rim" fill="#404040"><set attributeName="fill" to="#808080" begin="zoomminus.mouseover" end="zoomminus.mouseout"/></use>
    <path d="M-4,0h8" fill="none" stroke="white" stroke-width="1.5" pointer-events="none"/>
  </g>
  <g id="arrowUp" transform="translate(30 24)">
    <use xlink:href="#rim"/>
    <path pointer-events="none" fill="none" stroke="white" stroke-width="1.5" d="M0,-3.0v7 M-2.5,-0.5L0,-3.0L2.5,-0.5"/>
  </g>
  <g id="arrowRight" transform="rotate(90) translate(36 -43)">
    <use xlink:href="#rim"/>
    <path pointer-events="none" fill="none" stroke="white" stroke-width="1.5" d="M0,-3.0v7 M-2.5,-0.5L0,-3.0L2.5,-0.5"/>
  </g>
  <g id="arrowDown" transform="rotate(180) translate(-30 -48)">
    <use xlink:href="#rim"/>
    <path pointer-events="none" fill="none" stroke="white" stroke-width="1.5" d="M0,-3.0v7 M-2.5,-0.5L0,-3.0L2.5,-0.5"/>
  </g>
  <g id="arrowLeft" transform="rotate(270) translate(-36 17)">
    <use xlink:href="#rim"/>
    <path pointer-events="none" fill="none" stroke="white" stroke-width="1.5" d="M0,-3.0v7 M-2.5,-0.5L0,-3.0L2.5,-0.5"/>
  </g>
  <g id="resetDef">
    <use xlink:href="#rim2" fill="#404040"><set attributeName="fill" to="#808080" begin="reset.mouseover" end="reset.mouseout"/></use>
  </g>
</defs>
<script type="application/ecmascript">
var viewWidth = 1554;
var viewHeight = 445;
var sectionId = 'dynsection-0';
</script>
<script type="application/ecmascript" xlink:href="svg.min.js"/>
<svg id="graph" class="graph">
<g id="viewport">
<title>/home/runner/work/Catena/Catena/sdks/cpp/common/include/NamedChoiceConstraint.h</title>
<!-- Node1 -->
<g id="Node000001" class="node">
<title>Node1</title>
<g id="a_Node000001"><a xlink:title="A constraint that checks if a value is within some named choices.">
<polygon fill="#999999" stroke="#666666" points="543,-437 358,-437 358,-396 543,-396 543,-437"/>
<text text-anchor="start" x="366" y="-425" font-family="Helvetica,sans-Serif" font-size="10.00">/home/runner/work/Catena</text>
<text text-anchor="start" x="366" y="-414" font-family="Helvetica,sans-Serif" font-size="10.00">/Catena/sdks/cpp/common</text>
<text text-anchor="middle" x="450.5" y="-403" font-family="Helvetica,sans-Serif" font-size="10.00">/include/NamedChoiceConstraint.h</text>
</a>
</g>
</g>
<!-- Node2 -->
<g id="Node000002" class="node">
<title>Node2</title>
<g id="a_Node000002"><a xlink:href="IConstraint_8h.html" target="_top" xlink:title="Interface for constraints.">
<polygon fill="white" stroke="#666666" points="422,-195 343,-195 343,-176 422,-176 422,-195"/>
<text text-anchor="middle" x="382.5" y="-183" font-family="Helvetica,sans-Serif" font-size="10.00">IConstraint.h</text>
</a>
</g>
</g>
<!-- Node1&#45;&gt;Node2 -->
<g id="edge1_Node000001_Node000002" class="edge">
<title>Node1&#45;&gt;Node2</title>
<g id="a_edge1_Node000001_Node000002"><a xlink:title=" ">
<path fill="none" stroke="#63b8ff" d="M444.7,-395.98C431.76,-352.39 400.67,-247.68 388,-205.04"/>
<polygon fill="#63b8ff" stroke="#63b8ff" points="391.34,-203.98 385.14,-195.39 384.63,-205.98 391.34,-203.98"/>
</a>
</g>
</g>
<!-- Node5 -->
<g id="Node000005" class="node">
<title>Node5</title>
<g id="a_Node000005"><a xlink:href="IParam_8h.html" target="_top" xlink:title="Interface for parameters.">
<polygon fill="white" stroke="#666666" points="715,-250 656,-250 656,-231 715,-231 715,-250"/>
<text text-anchor="middle" x="685.5" y="-238" font-family="Helvetica,sans-Serif" font-size="10.00">IParam.h</text>
</a>
</g>
</g>
<!-- Node1&#45;&gt;Node5 -->
<g id="edge4_Node000001_Node000005" class="edge">
<title>Node1&#45;&gt;Node5</title>
<g id="a_edge4_Node000001_Node000005"><a xlink:title=" ">
<path fill="none" stroke="#63b8ff" d="M473.32,-395.96C504.25,-369.8 561.6,-322.47 613.5,-286 629.18,-274.98 647.57,-263.64 661.84,-255.16"/>
<polygon fill="#63b8ff" stroke="#63b8ff" points="663.71,-258.13 670.56,-250.04 660.16,-252.09 663.71,-258.13"/>
</a>
</g>
</g>
<!-- Node11 -->
<g id="Node000011" class="node">
<title>Node11</title>
<g id="a_Node000011"><a xlink:title=" ">
<polygon fill="#e0e0e0" stroke="#999999" points="702.5,-24.5 658.5,-24.5 658.5,-5.5 702.5,-5.5 702.5,-24.5"/>
<text text-anchor="middle" x="680.5" y="-12.5" font-family="Helvetica,sans-Serif" font-size="10.00">string</text>
</a>
</g>
</g>
<!-- Node1&#45;&gt;Node11 -->
<g id="edge62_Node000001_Node000011" class="edge">
<title>Node1&#45;&gt;Node11</title>
<g id="a_edge62_Node000001_Node000011"><a xlink:title=" ">
<path fill="none" stroke="#63b8ff" d="M357.64,-397.72C268.24,-377.87 146.5,-342.41 146.5,-296.5 146.5,-296.5 146.5,-296.5 146.5,-184.5 146.5,-155.04 144.3,-141.45 165.5,-121 169.86,-116.79 370.57,-67.26 376.5,-66 474.81,-45.15 592.57,-27.97 648.27,-20.31"/>
<polygon fill="#63b8ff" stroke="#63b8ff" points="648.81,-23.77 658.25,-18.94 647.86,-16.83 648.81,-23.77"/>
</a>
</g>
</g>
<!-- Node15 -->
<g id="Node000015" class="node">
<title>Node15</title>
<g id="a_Node000015"><a xlink:href="Tags_8h.html" target="_top" xlink:title="Tags to differentiate collections with the same type for template specialization.">
<polygon fill="white" stroke="#666666" points="656,-140 609,-140 609,-121 656,-121 656,-140"/>
<text text-anchor="middle" x="632.5" y="-128" font-family="Helvetica,sans-Serif" font-size="10.00">Tags.h</text>
</a>
</g>
</g>
<!-- Node1&#45;&gt;Node15 -->
<g id="edge39_Node000001_Node000015" class="edge">
<title>Node1&#45;&gt;Node15</title>
<g id="a_edge39_Node000001_Node000015"><a xlink:title=" ">
<path fill="none" stroke="#63b8ff" d="M463.01,-395.98C496.74,-343.35 589.18,-199.09 621.32,-148.95"/>
<polygon fill="#63b8ff" stroke="#63b8ff" points="624.45,-150.54 626.9,-140.23 618.56,-146.76 624.45,-150.54"/>
</a>
</g>
</g>
<!-- Node17 -->
<g id="Node000017" class="node">
<title>Node17</title>
<g id="a_Node000017"><a xlink:href="PolyglotText_8h.html" target="_top" xlink:title="Polyglot Text serialization and deserialization to protobuf.">
<polygon fill="white" stroke="#666666" points="552.5,-140 466.5,-140 466.5,-121 552.5,-121 552.5,-140"/>
<text text-anchor="middle" x="509.5" y="-128" font-family="Helvetica,sans-Serif" font-size="10.00">PolyglotText.h</text>
</a>
</g>
</g>
<!-- Node1&#45;&gt;Node17 -->
<g id="edge40_Node000001_Node000017" class="edge">
<title>Node1&#45;&gt;Node17</title>
<g id="a_edge40_Node000001_Node000017"><a xlink:title=" ">
<path fill="none" stroke="#63b8ff" d="M450.5,-395.71C450.5,-372.09 450.5,-331.41 450.5,-296.5 450.5,-296.5 450.5,-296.5 450.5,-239.5 450.5,-203.23 476.44,-167.58 493.92,-147.67"/>
<polygon fill="#63b8ff" stroke="#63b8ff" points="496.63,-149.89 500.79,-140.14 491.47,-145.17 496.63,-149.89"/>
</a>
</g>
</g>
<!-- Node19 -->
<g id="Node000019" class="node">
<title>Node19</title>
<g id="a_Node000019"><a xlink:title=" ">
<polygon fill="#e0e0e0" stroke="#999999" points="141,-30 0,-30 0,0 141,0 141,-30"/>
<text text-anchor="start" x="8" y="-18" font-family="Helvetica,sans-Serif" font-size="10.00">google/protobuf/message</text>
<text text-anchor="middle" x="70.5" y="-7" font-family="Helvetica,sans-Serif" font-size="10.00">_lite.h</text>
</a>
</g>
</g>
<!-- Node1&#45;&gt;Node19 -->
<g id="edge61_Node000001_Node000019" class="edge">
<title>Node1&#45;&gt;Node19</title>
<g id="a_edge61_Node000001_Node000019"><a xlink:title=" ">
<path fill="none" stroke="#63b8ff" d="M357.72,-413.26C292.7,-408.39 205.46,-395.07 136.5,-360 100.22,-341.55 70.5,-337.21 70.5,-296.5 70.5,-296.5 70.5,-296.5 70.5,-129.5 70.5,-98.85 70.5,-63.54 70.5,-40.56"/>
<polygon fill="#63b8ff" stroke="#63b8ff" points="74,-40.33 70.5,-30.33 67,-40.33 74,-40.33"/>
</a>
</g>
</g>
<!-- Node20 -->
<g id="Node000020" class="node">
<title>Node20</title>
<g id="a_Node000020"><a xlink:title=" ">
<polygon fill="#e0e0e0" stroke="#999999" points="242,-24.5 159,-24.5 159,-5.5 242,-5.5 242,-24.5"/>
<text text-anchor="middle" x="200.5" y="-12.5" font-family="Helvetica,sans-Serif" font-size="10.00">initializer_list</text>
</a>
</g>
</g>
<!-- Node1&#45;&gt;Node20 -->
<g id="edge64_Node000001_Node000020" class="edge">
<title>Node1&#45;&gt;Node20</title>
<g id="a_edge64_Node000001_Node000020"><a xlink:title=" ">
<path fill="none" stroke="#63b8ff" d="M357.95,-406.71C305.95,-399.18 240.95,-385.33 187.5,-360 146.79,-340.71 108.5,-341.55 108.5,-296.5 108.5,-296.5 108.5,-296.5 108.5,-129.5 108.5,-85.75 150.27,-49.42 177.52,-30.38"/>
<polygon fill="#63b8ff" stroke="#63b8ff" points="179.78,-33.08 186.12,-24.6 175.87,-27.27 179.78,-33.08"/>
</a>
</g>
</g>
<!-- Node30 -->
<g id="Node000030" class="node">
<title>Node30</title>
<g id="a_Node000030"><a xlink:href="IDevice_8h.html" target="_top" xlink:title="Interface for device.">
<polygon fill="white" stroke="#666666" points="865.5,-360 803.5,-360 803.5,-341 865.5,-341 865.5,-360"/>
<text text-anchor="middle" x="834.5" y="-348" font-family="Helvetica,sans-Serif" font-size="10.00">IDevice.h</text>
</a>
</g>
</g>
<!-- Node1&#45;&gt;Node30 -->
<g id="edge41_Node000001_Node000030" class="edge">
<title>Node1&#45;&gt;Node30</title>
<g id="a_edge41_Node000001_Node000030"><a xlink:title=" ">
<path fill="none" stroke="#63b8ff" d="M543.46,-400.01C623.02,-386.75 733.85,-368.28 793.15,-358.39"/>
<polygon fill="#63b8ff" stroke="#63b8ff" points="793.97,-361.8 803.26,-356.71 792.82,-354.9 793.97,-361.8"/>
</a>
</g>
</g>
<!-- Node37 -->
<g id="Node000037" class="node">
<title>Node37</title>
<g id="a_Node000037"><a xlink:title=" ">
<polygon fill="#e0e0e0" stroke="#999999" points="969.5,-360 883.5,-360 883.5,-341 969.5,-341 969.5,-360"/>
<text text-anchor="middle" x="926.5" y="-348" font-family="Helvetica,sans-Serif" font-size="10.00">unordered_set</text>
</a>
</g>
</g>
<!-- Node1&#45;&gt;Node37 -->
<g id="edge63_Node000001_Node000037" class="edge">
<title>Node1&#45;&gt;Node37</title>
<g id="a_edge63_Node000001_Node000037"><a xlink:title=" ">
<path fill="none" stroke="#63b8ff" d="M543.26,-404.22C626.88,-393.86 753.5,-377.67 873.3,-360.14"/>
<polygon fill="#63b8ff" stroke="#63b8ff" points="874,-363.57 883.39,-358.66 872.98,-356.65 874,-363.57"/>
</a>
</g>
</g>
<!-- Node3 -->
<g id="Node000003" class="node">
<title>Node3</title>
<g id="a_Node000003"><a xlink:title=" ">
<polygon fill="#e0e0e0" stroke="#999999" points="448,-140 329,-140 329,-121 448,-121 448,-140"/>
<text text-anchor="middle" x="388.5" y="-128" font-family="Helvetica,sans-Serif" font-size="10.00">interface/param.pb.h</text>
</a>
</g>
</g>
<!-- Node2&#45;&gt;Node3 -->
<g id="edge2_Node000002_Node000003" class="edge">
<title>Node2&#45;&gt;Node3</title>
<g id="a_edge2_Node000002_Node000003"><a xlink:title=" ">
<path fill="none" stroke="#63b8ff" d="M383.49,-175.75C384.28,-168.8 385.4,-158.85 386.39,-150.13"/>
<polygon fill="#63b8ff" stroke="#63b8ff" points="389.88,-150.42 387.53,-140.09 382.92,-149.63 389.88,-150.42"/>
</a>
</g>
</g>
<!-- Node4 -->
<g id="Node000004" class="node">
<title>Node4</title>
<g id="a_Node000004"><a xlink:title=" ">
<polygon fill="#e0e0e0" stroke="#999999" points="310.5,-140 174.5,-140 174.5,-121 310.5,-121 310.5,-140"/>
<text text-anchor="middle" x="242.5" y="-128" font-family="Helvetica,sans-Serif" font-size="10.00">interface/constraint.pb.h</text>
</a>
</g>
</g>
<!-- Node2&#45;&gt;Node4 -->
<g id="edge3_Node000002_Node000004" class="edge">
<title>Node2&#45;&gt;Node4</title>
<g id="a_edge3_Node000002_Node000004"><a xlink:title=" ">
<path fill="none" stroke="#63b8ff" d="M360.01,-175.98C336.98,-167.27 300.96,-153.63 274.87,-143.75"/>
<polygon fill="#63b8ff" stroke="#63b8ff" points="275.99,-140.44 265.4,-140.17 273.52,-146.98 275.99,-140.44"/>
</a>
</g>
</g>
<!-- Node5&#45;&gt;Node2 -->
<g id="edge14_Node000005_Node000002" class="edge">
<title>Node5&#45;&gt;Node2</title>
<g id="a_edge14_Node000005_Node000002"><a xlink:title=" ">
<path fill="none" stroke="#63b8ff" d="M655.9,-234.32C603.99,-225.24 496.03,-206.36 432.41,-195.23"/>
<polygon fill="#63b8ff" stroke="#63b8ff" points="432.66,-191.72 422.21,-193.45 431.46,-198.62 432.66,-191.72"/>
</a>
</g>
</g>
<!-- Node5&#45;&gt;Node3 -->
<g id="edge38_Node000005_Node000003" class="edge">
<title>Node5&#45;&gt;Node3</title>
<g id="a_edge38_Node000005_Node000003"><a xlink:title=" ">
<path fill="none" stroke="#63b8ff" d="M661.95,-230.94C609.31,-211.79 482.03,-165.51 421.52,-143.51"/>
<polygon fill="#63b8ff" stroke="#63b8ff" points="422.65,-140.19 412.06,-140.07 420.26,-146.77 422.65,-140.19"/>
</a>
</g>
</g>
<!-- Node6 -->
<g id="Node000006" class="node">
<title>Node6</title>
<g id="a_Node000006"><a xlink:href="Enums_8h.html" target="_top" xlink:title="tools for using EnumDecorators.">
<polygon fill="white" stroke="#666666" points="1010,-195 951,-195 951,-176 1010,-176 1010,-195"/>
<text text-anchor="middle" x="980.5" y="-183" font-family="Helvetica,sans-Serif" font-size="10.00">Enums.h</text>
</a>
</g>
</g>
<!-- Node5&#45;&gt;Node6 -->
<g id="edge5_Node000005_Node000006" class="edge">
<title>Node5&#45;&gt;Node6</title>
<g id="a_edge5_Node000005_Node000006"><a xlink:title=" ">
<path fill="none" stroke="#63b8ff" d="M715.14,-234.18C768.59,-224.57 881.13,-204.35 941.04,-193.59"/>
<polygon fill="#63b8ff" stroke="#63b8ff" points="941.66,-197.03 950.88,-191.82 940.42,-190.14 941.66,-197.03"/>
</a>
</g>
</g>
<!-- Node14 -->
<g id="Node000014" class="node">
<title>Node14</title>
<g id="a_Node000014"><a xlink:href="IParamDescriptor_8h.html" target="_top" xlink:title="Interface class for ParamDescriptor.">
<polygon fill="white" stroke="#666666" points="740,-195 631,-195 631,-176 740,-176 740,-195"/>
<text text-anchor="middle" x="685.5" y="-183" font-family="Helvetica,sans-Serif" font-size="10.00">IParamDescriptor.h</text>
</a>
</g>
</g>
<!-- Node5&#45;&gt;Node14 -->
<g id="edge15_Node000005_Node000014" class="edge">
<title>Node5&#45;&gt;Node14</title>
<g id="a_edge15_Node000005_Node000014"><a xlink:title=" ">
<path fill="none" stroke="#63b8ff" d="M685.5,-230.75C685.5,-223.8 685.5,-213.85 685.5,-205.13"/>
<polygon fill="#63b8ff" stroke="#63b8ff" points="689,-205.09 685.5,-195.09 682,-205.09 689,-205.09"/>
</a>
</g>
</g>
<!-- Node22 -->
<g id="Node000022" class="node">
<title>Node22</title>
<g id="a_Node000022"><a xlink:href="Path_8h.html" target="_top" xlink:title="Handles Path objects used to uniquely identify and access OIDs.">
<polygon fill="white" stroke="#666666" points="1293,-195 1246,-195 1246,-176 1293,-176 1293,-195"/>
<text text-anchor="middle" x="1269.5" y="-183" font-family="Helvetica,sans-Serif" font-size="10.00">Path.h</text>
</a>
</g>
</g>
<!-- Node5&#45;&gt;Node22 -->
<g id="edge29_Node000005_Node000022" class="edge">
<title>Node5&#45;&gt;Node22</title>
<g id="a_edge29_Node000005_Node000022"><a xlink:title=" ">
<path fill="none" stroke="#63b8ff" d="M715.26,-236.8C814.14,-227.83 1131.3,-199.04 1235.78,-189.56"/>
<polygon fill="#63b8ff" stroke="#63b8ff" points="1236.13,-193.04 1245.77,-188.65 1235.49,-186.07 1236.13,-193.04"/>
</a>
</g>
</g>
<!-- Node27 -->
<g id="Node000027" class="node">
<title>Node27</title>
<g id="a_Node000027"><a xlink:href="Status_8h.html" target="_top" xlink:title="Communicates failure status using gRPC&#39;s codes.">
<polygon fill="white" stroke="#666666" points="814.5,-195 758.5,-195 758.5,-176 814.5,-176 814.5,-195"/>
<text text-anchor="middle" x="786.5" y="-183" font-family="Helvetica,sans-Serif" font-size="10.00">Status.h</text>
</a>
</g>
</g>
<!-- Node5&#45;&gt;Node27 -->
<g id="edge35_Node000005_Node000027" class="edge">
<title>Node5&#45;&gt;Node27</title>
<g id="a_edge35_Node000005_Node000027"><a xlink:title=" ">
<path fill="none" stroke="#63b8ff" d="M701.73,-230.98C717.68,-222.61 742.28,-209.7 760.88,-199.95"/>
<polygon fill="#63b8ff" stroke="#63b8ff" points="762.75,-202.92 769.98,-195.17 759.5,-196.72 762.75,-202.92"/>
</a>
</g>
</g>
<!-- Node7 -->
<g id="Node000007" class="node">
<title>Node7</title>
<g id="a_Node000007"><a xlink:href="EnumDecorator_8h.html" target="_top" xlink:title="Provides an enum with useful extra functionality.">
<polygon fill="white" stroke="#666666" points="1052.5,-140 908.5,-140 908.5,-121 1052.5,-121 1052.5,-140"/>
<text text-anchor="middle" x="980.5" y="-128" font-family="Helvetica,sans-Serif" font-size="10.00">patterns/EnumDecorator.h</text>
</a>
</g>
</g>
<!-- Node6&#45;&gt;Node7 -->
<g id="edge6_Node000006_Node000007" class="edge">
<title>Node6&#45;&gt;Node7</title>
<g id="a_edge6_Node000006_Node000007"><a xlink:title=" ">
<path fill="none" stroke="#63b8ff" d="M980.5,-175.75C980.5,-168.8 980.5,-158.85 980.5,-150.13"/>
<polygon fill="#63b8ff" stroke="#63b8ff" points="984,-150.09 980.5,-140.09 977,-150.09 984,-150.09"/>
</a>
</g>
</g>
<!-- Node9 -->
<g id="Node000009" class="node">
<title>Node9</title>
<g id="a_Node000009"><a xlink:title=" ">
<polygon fill="#e0e0e0" stroke="#999999" points="873.5,-85 823.5,-85 823.5,-66 873.5,-66 873.5,-85"/>
<text text-anchor="middle" x="848.5" y="-73" font-family="Helvetica,sans-Serif" font-size="10.00">cstdint</text>
</a>
</g>
</g>
<!-- Node6&#45;&gt;Node9 -->
<g id="edge13_Node000006_Node000009" class="edge">
<title>Node6&#45;&gt;Node9</title>
<g id="a_edge13_Node000006_Node000009"><a xlink:title=" ">
<path fill="none" stroke="#63b8ff" d="M959.82,-175.89C942.58,-168.09 917.93,-155.47 899.5,-140 883.48,-126.56 868.95,-107.46 859.54,-93.72"/>
<polygon fill="#63b8ff" stroke="#63b8ff" points="862.33,-91.6 853.88,-85.2 856.5,-95.47 862.33,-91.6"/>
</a>
</g>
</g>
<!-- Node13 -->
<g id="Node000013" class="node">
<title>Node13</title>
<g id="a_Node000013"><a xlink:title=" ">
<polygon fill="#e0e0e0" stroke="#999999" points="1190,-140 1071,-140 1071,-121 1190,-121 1190,-140"/>
<text text-anchor="middle" x="1130.5" y="-128" font-family="Helvetica,sans-Serif" font-size="10.00">interface/device.pb.h</text>
</a>
</g>
</g>
<!-- Node6&#45;&gt;Node13 -->
<g id="edge12_Node000006_Node000013" class="edge">
<title>Node6&#45;&gt;Node13</title>
<g id="a_edge12_Node000006_Node000013"><a xlink:title=" ">
<path fill="none" stroke="#63b8ff" d="M1004.6,-175.98C1029.38,-167.23 1068.2,-153.51 1096.19,-143.62"/>
<polygon fill="#63b8ff" stroke="#63b8ff" points="1097.7,-146.8 1105.96,-140.17 1095.37,-140.2 1097.7,-146.8"/>
</a>
</g>
</g>
<!-- Node8 -->
<g id="Node000008" class="node">
<title>Node8</title>
<g id="a_Node000008"><a xlink:href="ReflectionMacros_8h.html" target="_top" xlink:title="adapted from https://github.com/tapika/TestCppReflect">
<polygon fill="white" stroke="#666666" points="1127.5,-85 1017.5,-85 1017.5,-66 1127.5,-66 1127.5,-85"/>
<text text-anchor="middle" x="1072.5" y="-73" font-family="Helvetica,sans-Serif" font-size="10.00">ReflectionMacros.h</text>
</a>
</g>
</g>
<!-- Node7&#45;&gt;Node8 -->
<g id="edge7_Node000007_Node000008" class="edge">
<title>Node7&#45;&gt;Node8</title>
<g id="a_edge7_Node000007_Node000008"><a xlink:title=" ">
<path fill="none" stroke="#63b8ff" d="M995.28,-120.98C1009.68,-112.69 1031.81,-99.94 1048.69,-90.22"/>
<polygon fill="#63b8ff" stroke="#63b8ff" points="1050.53,-93.19 1057.45,-85.17 1047.04,-87.13 1050.53,-93.19"/>
</a>
</g>
</g>
<!-- Node7&#45;&gt;Node9 -->
<g id="edge8_Node000007_Node000009" class="edge">
<title>Node7&#45;&gt;Node9</title>
<g id="a_edge8_Node000007_Node000009"><a xlink:title=" ">
<path fill="none" stroke="#63b8ff" d="M959.29,-120.98C937.77,-112.34 904.22,-98.87 879.67,-89.02"/>
<polygon fill="#63b8ff" stroke="#63b8ff" points="880.68,-85.65 870.09,-85.17 878.07,-92.14 880.68,-85.65"/>
</a>
</g>
</g>
<!-- Node10 -->
<g id="Node000010" class="node">
<title>Node10</title>
<g id="a_Node000010"><a xlink:title=" ">
<polygon fill="#e0e0e0" stroke="#999999" points="513,-24.5 420,-24.5 420,-5.5 513,-5.5 513,-24.5"/>
<text text-anchor="middle" x="466.5" y="-12.5" font-family="Helvetica,sans-Serif" font-size="10.00">unordered_map</text>
</a>
</g>
</g>
<!-- Node7&#45;&gt;Node10 -->
<g id="edge9_Node000007_Node000010" class="edge">
<title>Node7&#45;&gt;Node10</title>
<g id="a_edge9_Node000007_Node000010"><a xlink:title=" ">
<path fill="none" stroke="#63b8ff" d="M970.75,-120.96C954.01,-106.84 918.15,-78.9 882.5,-66 849.49,-54.05 629.65,-31.69 523.57,-21.41"/>
<polygon fill="#63b8ff" stroke="#63b8ff" points="523.65,-17.9 513.36,-20.43 522.98,-24.87 523.65,-17.9"/>
</a>
</g>
</g>
<!-- Node7&#45;&gt;Node11 -->
<g id="edge10_Node000007_Node000011" class="edge">
<title>Node7&#45;&gt;Node11</title>
<g id="a_edge10_Node000007_Node000011"><a xlink:title=" ">
<path fill="none" stroke="#63b8ff" d="M1035.71,-120.93C1075.45,-113.49 1124.16,-101.35 1136.5,-85 1141.59,-78.26 1142.14,-72.29 1136.5,-66 1108.23,-34.46 812.01,-20.81 712.73,-17.1"/>
<polygon fill="#63b8ff" stroke="#63b8ff" points="712.81,-13.6 702.68,-16.73 712.55,-20.59 712.81,-13.6"/>
</a>
</g>
</g>
<!-- Node12 -->
<g id="Node000012" class="node">
<title>Node12</title>
<g id="a_Node000012"><a xlink:title=" ">
<polygon fill="#e0e0e0" stroke="#999999" points="999,-85 930,-85 930,-66 999,-66 999,-85"/>
<text text-anchor="middle" x="964.5" y="-73" font-family="Helvetica,sans-Serif" font-size="10.00">type_traits</text>
</a>
</g>
</g>
<!-- Node7&#45;&gt;Node12 -->
<g id="edge11_Node000007_Node000012" class="edge">
<title>Node7&#45;&gt;Node12</title>
<g id="a_edge11_Node000007_Node000012"><a xlink:title=" ">
<path fill="none" stroke="#63b8ff" d="M977.86,-120.75C975.74,-113.72 972.69,-103.62 970.04,-94.84"/>
<polygon fill="#63b8ff" stroke="#63b8ff" points="973.33,-93.65 967.09,-85.09 966.63,-95.67 973.33,-93.65"/>
</a>
</g>
</g>
<!-- Node14&#45;&gt;Node15 -->
<g id="edge16_Node000014_Node000015" class="edge">
<title>Node14&#45;&gt;Node15</title>
<g id="a_edge16_Node000014_Node000015"><a xlink:title=" ">
<path fill="none" stroke="#63b8ff" d="M676.75,-175.75C669.03,-168.03 657.6,-156.6 648.28,-147.28"/>
<polygon fill="#63b8ff" stroke="#63b8ff" points="650.64,-144.69 641.09,-140.09 645.69,-149.64 650.64,-144.69"/>
</a>
</g>
</g>
<!-- Node14&#45;&gt;Node17 -->
<g id="edge19_Node000014_Node000017" class="edge">
<title>Node14&#45;&gt;Node17</title>
<g id="a_edge19_Node000014_Node000017"><a xlink:title=" ">
<path fill="none" stroke="#63b8ff" d="M657.22,-175.98C627.55,-167.05 580.71,-152.94 547.75,-143.02"/>
<polygon fill="#63b8ff" stroke="#63b8ff" points="548.58,-139.61 538,-140.08 546.57,-146.32 548.58,-139.61"/>
</a>
</g>
</g>
<!-- Node15&#45;&gt;Node11 -->
<g id="edge18_Node000015_Node000011" class="edge">
<title>Node15&#45;&gt;Node11</title>
<g id="a_edge18_Node000015_Node000011"><a xlink:title=" ">
<path fill="none" stroke="#63b8ff" d="M644.73,-120.82C654.93,-112.8 668.84,-99.91 675.5,-85 682.62,-69.08 683.27,-49.02 682.5,-34.64"/>
<polygon fill="#63b8ff" stroke="#63b8ff" points="685.98,-34.2 681.68,-24.52 679,-34.77 685.98,-34.2"/>
</a>
</g>
</g>
<!-- Node16 -->
<g id="Node000016" class="node">
<title>Node16</title>
<g id="a_Node000016"><a xlink:title=" ">
<polygon fill="#e0e0e0" stroke="#999999" points="797,-85 732,-85 732,-66 797,-66 797,-85"/>
<text text-anchor="middle" x="764.5" y="-73" font-family="Helvetica,sans-Serif" font-size="10.00">functional</text>
</a>
</g>
</g>
<!-- Node15&#45;&gt;Node16 -->
<g id="edge17_Node000015_Node000016" class="edge">
<title>Node15&#45;&gt;Node16</title>
<g id="a_edge17_Node000015_Node000016"><a xlink:title=" ">
<path fill="none" stroke="#63b8ff" d="M653.71,-120.98C675.23,-112.34 708.78,-98.87 733.33,-89.02"/>
<polygon fill="#63b8ff" stroke="#63b8ff" points="734.93,-92.14 742.91,-85.17 732.32,-85.65 734.93,-92.14"/>
</a>
</g>
</g>
<!-- Node17&#45;&gt;Node10 -->
<g id="edge27_Node000017_Node000010" class="edge">
<title>Node17&#45;&gt;Node10</title>
<g id="a_edge27_Node000017_Node000010"><a xlink:title=" ">
<path fill="none" stroke="#63b8ff" d="M467.18,-120.95C432.47,-112.97 387.35,-100.07 376.5,-85 358.57,-60.09 395.84,-39.94 427.74,-27.98"/>
<polygon fill="#63b8ff" stroke="#63b8ff" points="429.15,-31.19 437.4,-24.53 426.8,-24.6 429.15,-31.19"/>
</a>
</g>
</g>
<!-- Node17&#45;&gt;Node11 -->
<g id="edge26_Node000017_Node000011" class="edge">
<title>Node17&#45;&gt;Node11</title>
<g id="a_edge26_Node000017_Node000011"><a xlink:title=" ">
<path fill="none" stroke="#63b8ff" d="M552.7,-123.38C580.86,-117.53 616.98,-106.29 642.5,-85 658.54,-71.62 668.97,-49.64 674.77,-34.09"/>
<polygon fill="#63b8ff" stroke="#63b8ff" points="678.11,-35.13 678.06,-24.53 671.5,-32.85 678.11,-35.13"/>
</a>
</g>
</g>
<!-- Node18 -->
<g id="Node000018" class="node">
<title>Node18</title>
<g id="a_Node000018"><a xlink:href="IPolyglotText_8h.html" target="_top" xlink:title="Catena&#39;s multi&#45;language text interface.">
<polygon fill="white" stroke="#666666" points="291,-85 202,-85 202,-66 291,-66 291,-85"/>
<text text-anchor="middle" x="246.5" y="-73" font-family="Helvetica,sans-Serif" font-size="10.00">IPolyglotText.h</text>
</a>
</g>
</g>
<!-- Node17&#45;&gt;Node18 -->
<g id="edge20_Node000017_Node000018" class="edge">
<title>Node17&#45;&gt;Node18</title>
<g id="a_edge20_Node000017_Node000018"><a xlink:title=" ">
<path fill="none" stroke="#63b8ff" d="M467.24,-120.98C421.46,-111.76 348.36,-97.03 298.95,-87.07"/>
<polygon fill="#63b8ff" stroke="#63b8ff" points="299.58,-83.63 289.09,-85.08 298.2,-90.49 299.58,-83.63"/>
</a>
</g>
</g>
<!-- Node17&#45;&gt;Node20 -->
<g id="edge28_Node000017_Node000020" class="edge">
<title>Node17&#45;&gt;Node20</title>
<g id="a_edge28_Node000017_Node000020"><a xlink:title=" ">
<path fill="none" stroke="#63b8ff" d="M466.41,-122.5C463.06,-121.99 459.73,-121.48 456.5,-121 397.93,-112.31 231.44,-129.61 192.5,-85 180.52,-71.27 185.47,-49.7 191.54,-34.34"/>
<polygon fill="#63b8ff" stroke="#63b8ff" points="194.88,-35.43 195.72,-24.87 188.48,-32.6 194.88,-35.43"/>
</a>
</g>
</g>
<!-- Node21 -->
<g id="Node000021" class="node">
<title>Node21</title>
<g id="a_Node000021"><a xlink:title=" ">
<polygon fill="#e0e0e0" stroke="#999999" points="517.5,-85 385.5,-85 385.5,-66 517.5,-66 517.5,-85"/>
<text text-anchor="middle" x="451.5" y="-73" font-family="Helvetica,sans-Serif" font-size="10.00">interface/language.pb.h</text>
</a>
</g>
</g>
<!-- Node17&#45;&gt;Node21 -->
<g id="edge25_Node000017_Node000021" class="edge">
<title>Node17&#45;&gt;Node21</title>
<g id="a_edge25_Node000017_Node000021"><a xlink:title=" ">
<path fill="none" stroke="#63b8ff" d="M500.18,-120.98C491.69,-113.23 478.94,-101.58 468.62,-92.14"/>
<polygon fill="#63b8ff" stroke="#63b8ff" points="470.73,-89.33 460.99,-85.17 466.01,-94.5 470.73,-89.33"/>
</a>
</g>
</g>
<!-- Node18&#45;&gt;Node10 -->
<g id="edge22_Node000018_Node000010" class="edge">
<title>Node18&#45;&gt;Node10</title>
<g id="a_edge22_Node000018_Node000010"><a xlink:title=" ">
<path fill="none" stroke="#63b8ff" d="M278.49,-65.99C317.1,-55.73 382.14,-38.43 424.7,-27.12"/>
<polygon fill="#63b8ff" stroke="#63b8ff" points="425.71,-30.47 434.47,-24.52 423.91,-23.7 425.71,-30.47"/>
</a>
</g>
</g>
<!-- Node18&#45;&gt;Node11 -->
<g id="edge23_Node000018_Node000011" class="edge">
<title>Node18&#45;&gt;Node11</title>
<g id="a_edge23_Node000018_Node000011"><a xlink:title=" ">
<path fill="none" stroke="#63b8ff" d="M291.31,-68.46C379.01,-56.64 571.45,-30.7 648.08,-20.37"/>
<polygon fill="#63b8ff" stroke="#63b8ff" points="648.66,-23.82 658.1,-19.02 647.72,-16.89 648.66,-23.82"/>
</a>
</g>
</g>
<!-- Node18&#45;&gt;Node19 -->
<g id="edge21_Node000018_Node000019" class="edge">
<title>Node18&#45;&gt;Node19</title>
<g id="a_edge21_Node000018_Node000019"><a xlink:title=" ">
<path fill="none" stroke="#63b8ff" d="M220.91,-65.99C195.25,-57.46 155,-44.09 122.59,-33.32"/>
<polygon fill="#63b8ff" stroke="#63b8ff" points="123.41,-29.9 112.81,-30.06 121.2,-36.54 123.41,-29.9"/>
</a>
</g>
</g>
<!-- Node18&#45;&gt;Node20 -->
<g id="edge24_Node000018_Node000020" class="edge">
<title>Node18&#45;&gt;Node20</title>
<g id="a_edge24_Node000018_Node000020"><a xlink:title=" ">
<path fill="none" stroke="#63b8ff" d="M239.71,-65.87C232.85,-57.14 222.07,-43.43 213.55,-32.59"/>
<polygon fill="#63b8ff" stroke="#63b8ff" points="216.25,-30.36 207.32,-24.67 210.75,-34.69 216.25,-30.36"/>
</a>
</g>
</g>
<!-- Node22&#45;&gt;Node11 -->
<g id="edge31_Node000022_Node000011" class="edge">
<title>Node22&#45;&gt;Node11</title>
<g id="a_edge31_Node000022_Node000011"><a xlink:title=" ">
<path fill="none" stroke="#63b8ff" d="M1293.1,-183.14C1344.47,-179.31 1458.98,-165.66 1422.5,-121 1376.72,-64.96 850.13,-27.02 712.99,-18.05"/>
<polygon fill="#63b8ff" stroke="#63b8ff" points="712.93,-14.54 702.72,-17.38 712.47,-21.52 712.93,-14.54"/>
</a>
</g>
</g>
<!-- Node23 -->
<g id="Node000023" class="node">
<title>Node23</title>
<g id="a_Node000023"><a xlink:title=" ">
<polygon fill="#e0e0e0" stroke="#999999" points="1413.5,-140 1353.5,-140 1353.5,-121 1413.5,-121 1413.5,-140"/>
<text text-anchor="middle" x="1383.5" y="-128" font-family="Helvetica,sans-Serif" font-size="10.00">iostream</text>
</a>
</g>
</g>
<!-- Node22&#45;&gt;Node23 -->
<g id="edge30_Node000022_Node000023" class="edge">
<title>Node22&#45;&gt;Node23</title>
<g id="a_edge30_Node000022_Node000023"><a xlink:title=" ">
<path fill="none" stroke="#63b8ff" d="M1287.82,-175.98C1306.16,-167.46 1334.61,-154.23 1355.73,-144.41"/>
<polygon fill="#63b8ff" stroke="#63b8ff" points="1357.26,-147.56 1364.85,-140.17 1354.31,-141.21 1357.26,-147.56"/>
</a>
</g>
</g>
<!-- Node24 -->
<g id="Node000024" class="node">
<title>Node24</title>
<g id="a_Node000024"><a xlink:title=" ">
<polygon fill="#e0e0e0" stroke="#999999" points="1517,-140 1470,-140 1470,-121 1517,-121 1517,-140"/>
<text text-anchor="middle" x="1493.5" y="-128" font-family="Helvetica,sans-Serif" font-size="10.00">vector</text>
</a>
</g>
</g>
<!-- Node22&#45;&gt;Node24 -->
<g id="edge32_Node000022_Node000024" class="edge">
<title>Node22&#45;&gt;Node24</title>
<g id="a_edge32_Node000022_Node000024"><a xlink:title=" ">
<path fill="none" stroke="#63b8ff" d="M1293.05,-178.93C1333.04,-169.46 1414.36,-150.23 1460.18,-139.38"/>
<polygon fill="#63b8ff" stroke="#63b8ff" points="1461.01,-142.79 1469.93,-137.08 1459.39,-135.97 1461.01,-142.79"/>
</a>
</g>
</g>
<!-- Node25 -->
<g id="Node000025" class="node">
<title>Node25</title>
<g id="a_Node000025"><a xlink:title=" ">
<polygon fill="#e0e0e0" stroke="#999999" points="1259,-140 1208,-140 1208,-121 1259,-121 1259,-140"/>
<text text-anchor="middle" x="1233.5" y="-128" font-family="Helvetica,sans-Serif" font-size="10.00">variant</text>
</a>
</g>
</g>
<!-- Node22&#45;&gt;Node25 -->
<g id="edge33_Node000022_Node000025" class="edge">
<title>Node22&#45;&gt;Node25</title>
<g id="a_edge33_Node000022_Node000025"><a xlink:title=" ">
<path fill="none" stroke="#63b8ff" d="M1263.56,-175.75C1258.52,-168.34 1251.16,-157.5 1244.99,-148.41"/>
<polygon fill="#63b8ff" stroke="#63b8ff" points="1247.85,-146.39 1239.33,-140.09 1242.06,-150.33 1247.85,-146.39"/>
</a>
</g>
</g>
<!-- Node26 -->
<g id="Node000026" class="node">
<title>Node26</title>
<g id="a_Node000026"><a xlink:title=" ">
<polygon fill="#e0e0e0" stroke="#999999" points="1335.5,-140 1277.5,-140 1277.5,-121 1335.5,-121 1335.5,-140"/>
<text text-anchor="middle" x="1306.5" y="-128" font-family="Helvetica,sans-Serif" font-size="10.00">memory</text>
</a>
</g>
</g>
<!-- Node22&#45;&gt;Node26 -->
<g id="edge34_Node000022_Node000026" class="edge">
<title>Node22&#45;&gt;Node26</title>
<g id="a_edge34_Node000022_Node000026"><a xlink:title=" ">
<path fill="none" stroke="#63b8ff" d="M1275.61,-175.75C1280.78,-168.34 1288.35,-157.5 1294.69,-148.41"/>
<polygon fill="#63b8ff" stroke="#63b8ff" points="1297.65,-150.29 1300.5,-140.09 1291.91,-146.29 1297.65,-150.29"/>
</a>
</g>
</g>
<!-- Node28 -->
<g id="Node000028" class="node">
<title>Node28</title>
<g id="a_Node000028"><a xlink:title=" ">
<polygon fill="#e0e0e0" stroke="#999999" points="730.5,-140 674.5,-140 674.5,-121 730.5,-121 730.5,-140"/>
<text text-anchor="middle" x="702.5" y="-128" font-family="Helvetica,sans-Serif" font-size="10.00">sstream</text>
</a>
</g>
</g>
<!-- Node27&#45;&gt;Node28 -->
<g id="edge36_Node000027_Node000028" class="edge">
<title>Node27&#45;&gt;Node28</title>
<g id="a_edge36_Node000027_Node000028"><a xlink:title=" ">
<path fill="none" stroke="#63b8ff" d="M773,-175.98C760.1,-167.84 740.4,-155.41 725.1,-145.76"/>
<polygon fill="#63b8ff" stroke="#63b8ff" points="726.57,-142.55 716.24,-140.17 722.83,-148.47 726.57,-142.55"/>
</a>
</g>
</g>
<!-- Node29 -->
<g id="Node000029" class="node">
<title>Node29</title>
<g id="a_Node000029"><a xlink:title=" ">
<polygon fill="#e0e0e0" stroke="#999999" points="814,-140 749,-140 749,-121 814,-121 814,-140"/>
<text text-anchor="middle" x="781.5" y="-128" font-family="Helvetica,sans-Serif" font-size="10.00">stdexcept</text>
</a>
</g>
</g>
<!-- Node27&#45;&gt;Node29 -->
<g id="edge37_Node000027_Node000029" class="edge">
<title>Node27&#45;&gt;Node29</title>
<g id="a_edge37_Node000027_Node000029"><a xlink:title=" ">
<path fill="none" stroke="#63b8ff" d="M785.67,-175.75C785.02,-168.8 784.08,-158.85 783.26,-150.13"/>
<polygon fill="#63b8ff" stroke="#63b8ff" points="786.73,-149.72 782.31,-140.09 779.77,-150.37 786.73,-149.72"/>
</a>
</g>
</g>
<!-- Node30&#45;&gt;Node5 -->
<g id="edge50_Node000030_Node000005" class="edge">
<title>Node30&#45;&gt;Node5</title>
<g id="a_edge50_Node000030_Node000005"><a xlink:title=" ">
<path fill="none" stroke="#63b8ff" d="M803.14,-347.62C749.78,-343.7 644.9,-332.59 622.5,-305 607.29,-286.27 633.75,-266.88 656.9,-254.54"/>
<polygon fill="#63b8ff" stroke="#63b8ff" points="658.5,-257.65 665.84,-250.01 655.34,-251.41 658.5,-257.65"/>
</a>
</g>
</g>
<!-- Node30&#45;&gt;Node11 -->
<g id="edge57_Node000030_Node000011" class="edge">
<title>Node30&#45;&gt;Node11</title>
<g id="a_edge57_Node000030_Node000011"><a xlink:title=" ">
<path fill="none" stroke="#63b8ff" d="M865.89,-342.54C868.79,-341.98 871.7,-341.46 874.5,-341 1023.26,-316.67 1545.5,-392.24 1545.5,-241.5 1545.5,-241.5 1545.5,-241.5 1545.5,-129.5 1545.5,-43.9 870.91,-20.97 713.2,-16.78"/>
<polygon fill="#63b8ff" stroke="#63b8ff" points="712.84,-13.27 702.75,-16.51 712.66,-20.27 712.84,-13.27"/>
</a>
</g>
</g>
<!-- Node30&#45;&gt;Node13 -->
<g id="edge56_Node000030_Node000013" class="edge">
<title>Node30&#45;&gt;Node13</title>
<g id="a_edge56_Node000030_Node000013"><a xlink:title=" ">
<path fill="none" stroke="#63b8ff" d="M865.51,-342.49C915.59,-331.09 1009.31,-309.35 1015.5,-305 1072.81,-264.66 1109.29,-185.87 1123.61,-150.04"/>
<polygon fill="#63b8ff" stroke="#63b8ff" points="1127,-150.97 1127.34,-140.38 1120.47,-148.45 1127,-150.97"/>
</a>
</g>
</g>
<!-- Node30&#45;&gt;Node22 -->
<g id="edge49_Node000030_Node000022" class="edge">
<title>Node30&#45;&gt;Node22</title>
<g id="a_edge49_Node000030_Node000022"><a xlink:title=" ">
<path fill="none" stroke="#63b8ff" d="M865.91,-342.63C868.81,-342.06 871.71,-341.5 874.5,-341 982.39,-321.6 1017.79,-348.29 1118.5,-305 1175.41,-280.54 1229.29,-229.12 1254.53,-202.79"/>
<polygon fill="#63b8ff" stroke="#63b8ff" points="1257.38,-204.87 1261.69,-195.19 1252.28,-200.07 1257.38,-204.87"/>
</a>
</g>
</g>
<!-- Node30&#45;&gt;Node24 -->
<g id="edge58_Node000030_Node000024" class="edge">
<title>Node30&#45;&gt;Node24</title>
<g id="a_edge58_Node000030_Node000024"><a xlink:title=" ">
<path fill="none" stroke="#63b8ff" d="M865.9,-342.58C868.8,-342.02 871.7,-341.48 874.5,-341 995.55,-320.22 1031.1,-341.1 1148.5,-305 1278.47,-265.04 1419.05,-179.49 1471.85,-145.68"/>
<polygon fill="#63b8ff" stroke="#63b8ff" points="1473.88,-148.53 1480.39,-140.17 1470.09,-142.65 1473.88,-148.53"/>
</a>
</g>
</g>
<!-- Node30&#45;&gt;Node27 -->
<g id="edge54_Node000030_Node000027" class="edge">
<title>Node30&#45;&gt;Node27</title>
<g id="a_edge54_Node000030_Node000027"><a xlink:title=" ">
<path fill="none" stroke="#63b8ff" d="M844.3,-340.81C856.48,-328.89 874.83,-306.6 867.5,-286 855.16,-251.29 824.96,-219.9 805.13,-202.03"/>
<polygon fill="#63b8ff" stroke="#63b8ff" points="807.18,-199.17 797.34,-195.23 802.57,-204.44 807.18,-199.17"/>
</a>
</g>
</g>
<!-- Node31 -->
<g id="Node000031" class="node">
<title>Node31</title>
<g id="a_Node000031"><a xlink:href="Authorization_8h.html" target="_top" xlink:title="Class for handling authorization information.">
<polygon fill="white" stroke="#666666" points="1006,-305 915,-305 915,-286 1006,-286 1006,-305"/>
<text text-anchor="middle" x="960.5" y="-293" font-family="Helvetica,sans-Serif" font-size="10.00">Authorization.h</text>
</a>
</g>
</g>
<!-- Node30&#45;&gt;Node31 -->
<g id="edge42_Node000030_Node000031" class="edge">
<title>Node30&#45;&gt;Node31</title>
<g id="a_edge42_Node000030_Node000031"><a xlink:title=" ">
<path fill="none" stroke="#63b8ff" d="M854.74,-340.98C875.2,-332.38 907.03,-318.99 930.43,-309.15"/>
<polygon fill="#63b8ff" stroke="#63b8ff" points="932.03,-312.27 939.89,-305.17 929.31,-305.82 932.03,-312.27"/>
</a>
</g>
</g>
<!-- Node33 -->
<g id="Node000033" class="node">
<title>Node33</title>
<g id="a_Node000033"><a xlink:href="ILanguagePack_8h.html" target="_top" xlink:title="Interface for language packs.">
<polygon fill="white" stroke="#666666" points="633.5,-85 535.5,-85 535.5,-66 633.5,-66 633.5,-85"/>
<text text-anchor="middle" x="584.5" y="-73" font-family="Helvetica,sans-Serif" font-size="10.00">ILanguagePack.h</text>
</a>
</g>
</g>
<!-- Node30&#45;&gt;Node33 -->
<g id="edge51_Node000030_Node000033" class="edge">
<title>Node30&#45;&gt;Node33</title>
<g id="a_edge51_Node000030_Node000033"><a xlink:title=" ">
<path fill="none" stroke="#63b8ff" d="M803.49,-347.61C748.87,-343.61 638.89,-332.3 613.5,-305 558.75,-246.13 572.11,-138.81 580.37,-95.44"/>
<polygon fill="#63b8ff" stroke="#63b8ff" points="583.84,-95.92 582.4,-85.42 576.98,-94.52 583.84,-95.92"/>
</a>
</g>
</g>
<!-- Node34 -->
<g id="Node000034" class="node">
<title>Node34</title>
<g id="a_Node000034"><a xlink:title=" ">
<polygon fill="#e0e0e0" stroke="#999999" points="712,-305 631,-305 631,-286 712,-286 712,-305"/>
<text text-anchor="middle" x="671.5" y="-293" font-family="Helvetica,sans-Serif" font-size="10.00">vdk/signals.h</text>
</a>
</g>
</g>
<!-- Node30&#45;&gt;Node34 -->
<g id="edge55_Node000030_Node000034" class="edge">
<title>Node30&#45;&gt;Node34</title>
<g id="a_edge55_Node000030_Node000034"><a xlink:title=" ">
<path fill="none" stroke="#63b8ff" d="M808.31,-340.98C781.06,-332.13 738.2,-318.19 707.72,-308.28"/>
<polygon fill="#63b8ff" stroke="#63b8ff" points="708.49,-304.85 697.89,-305.08 706.32,-311.5 708.49,-304.85"/>
</a>
</g>
</g>
<!-- Node35 -->
<g id="Node000035" class="node">
<title>Node35</title>
<g id="a_Node000035"><a xlink:title=" ">
<polygon fill="#e0e0e0" stroke="#999999" points="792.5,-305 730.5,-305 730.5,-286 792.5,-286 792.5,-305"/>
<text text-anchor="middle" x="761.5" y="-293" font-family="Helvetica,sans-Serif" font-size="10.00">coroutine</text>
</a>
</g>
</g>
<!-- Node30&#45;&gt;Node35 -->
<g id="edge59_Node000030_Node000035" class="edge">
<title>Node30&#45;&gt;Node35</title>
<g id="a_edge59_Node000030_Node000035"><a xlink:title=" ">
<path fill="none" stroke="#63b8ff" d="M822.77,-340.98C811.77,-333 795.08,-320.88 781.9,-311.31"/>
<polygon fill="#63b8ff" stroke="#63b8ff" points="783.59,-308.21 773.44,-305.17 779.48,-313.88 783.59,-308.21"/>
</a>
</g>
</g>
<!-- Node36 -->
<g id="Node000036" class="node">
<title>Node36</title>
<g id="a_Node000036"><a xlink:title=" ">
<polygon fill="#e0e0e0" stroke="#999999" points="858.5,-305 810.5,-305 810.5,-286 858.5,-286 858.5,-305"/>
<text text-anchor="middle" x="834.5" y="-293" font-family="Helvetica,sans-Serif" font-size="10.00">mutex</text>
</a>
</g>
</g>
<!-- Node30&#45;&gt;Node36 -->
<g id="edge60_Node000030_Node000036" class="edge">
<title>Node30&#45;&gt;Node36</title>
<g id="a_edge60_Node000030_Node000036"><a xlink:title=" ">
<path fill="none" stroke="#63b8ff" d="M834.5,-340.75C834.5,-333.8 834.5,-323.85 834.5,-315.13"/>
<polygon fill="#63b8ff" stroke="#63b8ff" points="838,-315.09 834.5,-305.09 831,-315.09 838,-315.09"/>
</a>
</g>
</g>
<!-- Node31&#45;&gt;Node5 -->
<g id="edge45_Node000031_Node000005" class="edge">
<title>Node31&#45;&gt;Node5</title>
<g id="a_edge45_Node000031_Node000005"><a xlink:title=" ">
<path fill="none" stroke="#63b8ff" d="M916.32,-285.98C863.48,-275.8 775.82,-258.91 725.1,-249.13"/>
<polygon fill="#63b8ff" stroke="#63b8ff" points="725.65,-245.67 715.17,-247.22 724.32,-252.55 725.65,-245.67"/>
</a>
</g>
</g>
<!-- Node31&#45;&gt;Node6 -->
<g id="edge44_Node000031_Node000006" class="edge">
<title>Node31&#45;&gt;Node6</title>
<g id="a_edge44_Node000031_Node000006"><a xlink:title=" ">
<path fill="none" stroke="#63b8ff" d="M978.85,-285.88C992.29,-278.46 1009.52,-266.36 1017.5,-250 1025.66,-233.29 1012.53,-215.02 999.71,-202.39"/>
<polygon fill="#63b8ff" stroke="#63b8ff" points="1001.71,-199.47 991.97,-195.32 996.99,-204.64 1001.71,-199.47"/>
</a>
</g>
</g>
<!-- Node31&#45;&gt;Node14 -->
<g id="edge46_Node000031_Node000014" class="edge">
<title>Node31&#45;&gt;Node14</title>
<g id="a_edge46_Node000031_Node000014"><a xlink:title=" ">
<path fill="none" stroke="#63b8ff" d="M938.46,-285.84C889.77,-266.72 772.89,-220.82 716.7,-198.75"/>
<polygon fill="#63b8ff" stroke="#63b8ff" points="717.85,-195.44 707.26,-195.05 715.29,-201.96 717.85,-195.44"/>
</a>
</g>
</g>
<!-- Node31&#45;&gt;Node16 -->
<g id="edge48_Node000031_Node000016" class="edge">
<title>Node31&#45;&gt;Node16</title>
<g id="a_edge48_Node000031_Node000016"><a xlink:title=" ">
<path fill="none" stroke="#63b8ff" d="M949.03,-285.68C938.39,-277.19 922.43,-263.65 910.5,-250 864.98,-197.94 871.09,-171.17 823.5,-121 812.66,-109.58 798.66,-98.88 787.01,-90.84"/>
<polygon fill="#63b8ff" stroke="#63b8ff" points="788.91,-87.9 778.66,-85.24 785.02,-93.71 788.91,-87.9"/>
</a>
</g>
</g>
<!-- Node31&#45;&gt;Node22 -->
<g id="edge43_Node000031_Node000022" class="edge">
<title>Node31&#45;&gt;Node22</title>
<g id="a_edge43_Node000031_Node000022"><a xlink:title=" ">
<path fill="none" stroke="#63b8ff" d="M947.96,-285.93C930.8,-273.19 903.8,-248.82 919.5,-231 940.25,-207.45 1152.17,-193.08 1235.81,-188.29"/>
<polygon fill="#63b8ff" stroke="#63b8ff" points="1236.03,-191.78 1245.81,-187.73 1235.63,-184.8 1236.03,-191.78"/>
</a>
</g>
</g>
<!-- Node32 -->
<g id="Node000032" class="node">
<title>Node32</title>
<g id="a_Node000032"><a xlink:title=" ">
<polygon fill="#e0e0e0" stroke="#999999" points="1008.5,-250 928.5,-250 928.5,-231 1008.5,-231 1008.5,-250"/>
<text text-anchor="middle" x="968.5" y="-238" font-family="Helvetica,sans-Serif" font-size="10.00">jwt&#45;cpp/jwt.h</text>
</a>
</g>
</g>
<!-- Node31&#45;&gt;Node32 -->
<g id="edge47_Node000031_Node000032" class="edge">
<title>Node31&#45;&gt;Node32</title>
<g id="a_edge47_Node000031_Node000032"><a xlink:title=" ">
<path fill="none" stroke="#63b8ff" d="M961.82,-285.75C962.87,-278.8 964.37,-268.85 965.69,-260.13"/>
<polygon fill="#63b8ff" stroke="#63b8ff" points="969.17,-260.5 967.2,-250.09 962.25,-259.45 969.17,-260.5"/>
</a>
</g>
</g>
<!-- Node33&#45;&gt;Node10 -->
<g id="edge53_Node000033_Node000010" class="edge">
<title>Node33&#45;&gt;Node10</title>
<g id="a_edge53_Node000033_Node000010"><a xlink:title=" ">
<path fill="none" stroke="#63b8ff" d="M567.34,-65.99C547.77,-56.29 515.53,-40.31 492.78,-29.03"/>
<polygon fill="#63b8ff" stroke="#63b8ff" points="494.19,-25.82 483.68,-24.52 491.08,-32.09 494.19,-25.82"/>
</a>
</g>
</g>
<!-- Node33&#45;&gt;Node11 -->
<g id="edge52_Node000033_Node000011" class="edge">
<title>Node33&#45;&gt;Node11</title>
<g id="a_edge52_Node000033_Node000011"><a xlink:title=" ">
<path fill="none" stroke="#63b8ff" d="M598.67,-65.87C614.19,-56.41 639.33,-41.09 657.65,-29.92"/>
<polygon fill="#63b8ff" stroke="#63b8ff" points="659.56,-32.86 666.28,-24.67 655.92,-26.88 659.56,-32.86"/>
</a>
</g>
</g>
</g>
</svg>

<g id="navigator" transform="translate(0 0)" fill="#404254">
  <rect fill="#f2f5e9" fill-opacity="0.5" stroke="#606060" stroke-width=".5" x="0" y="0" width="60" height="60"/>
  <use id="zoomplus" xlink:href="#zoomPlus" x="17" y="9" onmousedown="handleZoom(evt,'in')"/>
  <use id="zoomminus" xlink:href="#zoomMin" x="42" y="9" onmousedown="handleZoom(evt,'out')"/>
  <use id="reset" xlink:href="#resetDef" x="30" y="36" onmousedown="handleReset()"/>
   <use id="arrowup" xlink:href="#arrowUp" x="0" y="0" onmousedown="handlePan(0,-1)"/>
  <use id="arrowright" xlink:href="#arrowRight" x="0" y="0" onmousedown="handlePan(1,0)"/>
  <use id="arrowdown" xlink:href="#arrowDown" x="0" y="0" onmousedown="handlePan(0,1)"/>
  <use id="arrowleft" xlink:href="#arrowLeft" x="0" y="0" onmousedown="handlePan(-1,0)"/>
</g>
<svg viewBox="0 0 15 15" width="100%" height="30px" preserveAspectRatio="xMaxYMin meet">
 <g id="arrow_out" transform="scale(0.3 0.3)">
  <a xlink:href="NamedChoiceConstraint_8h__incl_org.svg" target="_base">
   <rect id="button" ry="5" rx="5" y="6" x="6" height="38" width="38"
        fill="#f2f5e9" fill-opacity="0.5" stroke="#606060" stroke-width="1.0"/>
   <path id="arrow"
     d="M 11.500037,31.436501 C 11.940474,20.09759 22.043105,11.32322 32.158766,21.979434 L 37.068811,17.246167 C 37.068811,17.246167 37.088388,32 37.088388,32 L 22.160133,31.978069 C 22.160133,31.978069 26.997745,27.140456 26.997745,27.140456 C 18.528582,18.264221 13.291696,25.230495 11.500037,31.436501 z"
     style="fill:#404040;"/>
  </a>
 </g>
</svg>

<style type='text/css'>
<![CDATA[
[data-mouse-over-selected='false'] { opacity: 0.7; }
[data-mouse-over-selected='true']  { opacity: 1.0; }
]]>
</style>
<script type="application/ecmascript"><![CDATA[
document.addEventListener('DOMContentLoaded', (event) => {
  highlightEdges();
  highlightAdjacentNodes();
});
]]></script>
</svg>
