<?xml version="1.0" encoding="UTF-8" standalone="no"?>
<!DOCTYPE svg PUBLIC "-//W3C//DTD SVG 1.1//EN"
 "http://www.w3.org/Graphics/SVG/1.1/DTD/svg11.dtd">
<!-- Generated by graphviz version 2.43.0 (0)
 -->
<!-- Title: /home/runner/work/Catena/Catena/sdks/cpp/common/include/NamedChoiceConstraint.h Pages: 1 -->
<svg width="1891pt" height="445pt"
 viewBox="0.00 0.00 1890.50 445.00" xmlns="http://www.w3.org/2000/svg" xmlns:xlink="http://www.w3.org/1999/xlink">
<g id="graph0" class="graph" transform="scale(1 1) rotate(0) translate(4 441)">
<title>/home/runner/work/Catena/Catena/sdks/cpp/common/include/NamedChoiceConstraint.h</title>
<!-- Node1 -->
<g id="Node000001" class="node">
<title>Node1</title>
<g id="a_Node000001"><a xlink:title="A constraint that checks if a value is within some named choices.">
<polygon fill="#999999" stroke="#666666" points="663.5,-437 478.5,-437 478.5,-396 663.5,-396 663.5,-437"/>
<text text-anchor="start" x="486.5" y="-425" font-family="Helvetica,sans-Serif" font-size="10.00">/home/runner/work/Catena</text>
<text text-anchor="start" x="486.5" y="-414" font-family="Helvetica,sans-Serif" font-size="10.00">/Catena/sdks/cpp/common</text>
<text text-anchor="middle" x="571" y="-403" font-family="Helvetica,sans-Serif" font-size="10.00">/include/NamedChoiceConstraint.h</text>
</a>
</g>
</g>
<!-- Node2 -->
<g id="Node000002" class="node">
<title>Node2</title>
<g id="a_Node000002"><a xlink:href="IConstraint_8h.html" target="_top" xlink:title="Interface for constraints.">
<polygon fill="white" stroke="#666666" points="1534.5,-140 1455.5,-140 1455.5,-121 1534.5,-121 1534.5,-140"/>
<text text-anchor="middle" x="1495" y="-128" font-family="Helvetica,sans-Serif" font-size="10.00">IConstraint.h</text>
</a>
</g>
</g>
<!-- Node1&#45;&gt;Node2 -->
<g id="edge1_Node000001_Node000002" class="edge">
<title>Node1&#45;&gt;Node2</title>
<g id="a_edge1_Node000001_Node000002"><a xlink:title=" ">
<path fill="none" stroke="#63b8ff" d="M663.83,-413.16C898.14,-406.03 1495,-379.7 1495,-296.5 1495,-296.5 1495,-296.5 1495,-239.5 1495,-208.19 1495,-171.77 1495,-150.23"/>
<polygon fill="#63b8ff" stroke="#63b8ff" points="1498.5,-150.18 1495,-140.18 1491.5,-150.18 1498.5,-150.18"/>
</a>
</g>
</g>
<!-- Node5 -->
<g id="Node000005" class="node">
<title>Node5</title>
<g id="a_Node000005"><a xlink:href="IParam_8h.html" target="_top" xlink:title="Interface for parameters.">
<polygon fill="white" stroke="#666666" points="1408.5,-195 1349.5,-195 1349.5,-176 1408.5,-176 1408.5,-195"/>
<text text-anchor="middle" x="1379" y="-183" font-family="Helvetica,sans-Serif" font-size="10.00">IParam.h</text>
</a>
</g>
</g>
<!-- Node1&#45;&gt;Node5 -->
<g id="edge4_Node000001_Node000005" class="edge">
<title>Node1&#45;&gt;Node5</title>
<g id="a_edge4_Node000001_Node000005"><a xlink:title=" ">
<path fill="none" stroke="#63b8ff" d="M663.85,-409.92C870.1,-396.57 1352.03,-359.79 1400,-305 1424.79,-276.69 1404.31,-229.57 1389.98,-204.11"/>
<polygon fill="#63b8ff" stroke="#63b8ff" points="1392.82,-202.04 1384.72,-195.21 1386.8,-205.6 1392.82,-202.04"/>
</a>
</g>
</g>
<!-- Node11 -->
<g id="Node000011" class="node">
<title>Node11</title>
<g id="a_Node000011"><a xlink:title=" ">
<polygon fill="#e0e0e0" stroke="#999999" points="435,-19 391,-19 391,0 435,0 435,-19"/>
<text text-anchor="middle" x="413" y="-7" font-family="Helvetica,sans-Serif" font-size="10.00">string</text>
</a>
</g>
</g>
<!-- Node1&#45;&gt;Node11 -->
<g id="edge73_Node000001_Node000011" class="edge">
<title>Node1&#45;&gt;Node11</title>
<g id="a_edge73_Node000001_Node000011"><a xlink:title=" ">
<path fill="none" stroke="#63b8ff" d="M478.31,-415.06C316.6,-411.78 0,-393.02 0,-296.5 0,-296.5 0,-296.5 0,-129.5 0,-90.11 14.63,-75.92 48,-55 103.15,-20.43 302.02,-12.7 380.66,-10.98"/>
<polygon fill="#63b8ff" stroke="#63b8ff" points="381.01,-14.48 390.93,-10.78 380.87,-7.48 381.01,-14.48"/>
</a>
</g>
</g>
<!-- Node22 -->
<g id="Node000022" class="node">
<title>Node22</title>
<g id="a_Node000022"><a xlink:href="Tags_8h.html" target="_top" xlink:title="Tags to differentiate collections with the same type for template specialization.">
<polygon fill="white" stroke="#666666" points="682.5,-195 635.5,-195 635.5,-176 682.5,-176 682.5,-195"/>
<text text-anchor="middle" x="659" y="-183" font-family="Helvetica,sans-Serif" font-size="10.00">Tags.h</text>
</a>
</g>
</g>
<!-- Node1&#45;&gt;Node22 -->
<g id="edge25_Node000001_Node000022" class="edge">
<title>Node1&#45;&gt;Node22</title>
<g id="a_edge25_Node000001_Node000022"><a xlink:title=" ">
<path fill="none" stroke="#63b8ff" d="M571.12,-395.92C571.88,-369.92 575.4,-322.99 590,-286 602.85,-253.44 628.17,-221.15 644.31,-202.54"/>
<polygon fill="#63b8ff" stroke="#63b8ff" points="646.98,-204.81 651,-195.01 641.74,-200.16 646.98,-204.81"/>
</a>
</g>
</g>
<!-- Node24 -->
<g id="Node000024" class="node">
<title>Node24</title>
<g id="a_Node000024"><a xlink:href="PolyglotText_8h.html" target="_top" xlink:title="Polyglot Text serialization and deserialization to protobuf.">
<polygon fill="white" stroke="#666666" points="383,-195 297,-195 297,-176 383,-176 383,-195"/>
<text text-anchor="middle" x="340" y="-183" font-family="Helvetica,sans-Serif" font-size="10.00">PolyglotText.h</text>
</a>
</g>
</g>
<!-- Node1&#45;&gt;Node24 -->
<g id="edge28_Node000001_Node000024" class="edge">
<title>Node1&#45;&gt;Node24</title>
<g id="a_edge28_Node000001_Node000024"><a xlink:title=" ">
<path fill="none" stroke="#63b8ff" d="M551.31,-395.98C506.5,-351.56 397.65,-243.65 356.3,-202.66"/>
<polygon fill="#63b8ff" stroke="#63b8ff" points="358.54,-199.95 348.97,-195.39 353.61,-204.92 358.54,-199.95"/>
</a>
</g>
</g>
<!-- Node26 -->
<g id="Node000026" class="node">
<title>Node26</title>
<g id="a_Node000026"><a xlink:title=" ">
<polygon fill="#e0e0e0" stroke="#999999" points="207.5,-85 66.5,-85 66.5,-55 207.5,-55 207.5,-85"/>
<text text-anchor="start" x="74.5" y="-73" font-family="Helvetica,sans-Serif" font-size="10.00">google/protobuf/message</text>
<text text-anchor="middle" x="137" y="-62" font-family="Helvetica,sans-Serif" font-size="10.00">_lite.h</text>
</a>
</g>
</g>
<!-- Node1&#45;&gt;Node26 -->
<g id="edge72_Node000001_Node000026" class="edge">
<title>Node1&#45;&gt;Node26</title>
<g id="a_edge72_Node000001_Node000026"><a xlink:title=" ">
<path fill="none" stroke="#63b8ff" d="M478.35,-408.33C381.88,-399.75 237.99,-383.55 188,-360 150,-342.1 118,-338.5 118,-296.5 118,-296.5 118,-296.5 118,-184.5 118,-153.28 125.08,-117.89 130.59,-95.05"/>
<polygon fill="#63b8ff" stroke="#63b8ff" points="134.02,-95.76 133.06,-85.21 127.24,-94.05 134.02,-95.76"/>
</a>
</g>
</g>
<!-- Node27 -->
<g id="Node000027" class="node">
<title>Node27</title>
<g id="a_Node000027"><a xlink:title=" ">
<polygon fill="#e0e0e0" stroke="#999999" points="308.5,-79.5 225.5,-79.5 225.5,-60.5 308.5,-60.5 308.5,-79.5"/>
<text text-anchor="middle" x="267" y="-67.5" font-family="Helvetica,sans-Serif" font-size="10.00">initializer_list</text>
</a>
</g>
</g>
<!-- Node1&#45;&gt;Node27 -->
<g id="edge75_Node000001_Node000027" class="edge">
<title>Node1&#45;&gt;Node27</title>
<g id="a_edge75_Node000001_Node000027"><a xlink:title=" ">
<path fill="none" stroke="#63b8ff" d="M478.38,-407.61C356.07,-394.59 156,-363.11 156,-296.5 156,-296.5 156,-296.5 156,-184.5 156,-137.09 206.12,-102.15 239,-84.32"/>
<polygon fill="#63b8ff" stroke="#63b8ff" points="240.92,-87.27 248.17,-79.55 237.68,-81.06 240.92,-87.27"/>
</a>
</g>
</g>
<!-- Node29 -->
<g id="Node000029" class="node">
<title>Node29</title>
<g id="a_Node000029"><a xlink:href="IDevice_8h.html" target="_top" xlink:title="Interface for device.">
<polygon fill="white" stroke="#666666" points="926,-360 864,-360 864,-341 926,-341 926,-360"/>
<text text-anchor="middle" x="895" y="-348" font-family="Helvetica,sans-Serif" font-size="10.00">IDevice.h</text>
</a>
</g>
</g>
<!-- Node1&#45;&gt;Node29 -->
<g id="edge38_Node000001_Node000029" class="edge">
<title>Node1&#45;&gt;Node29</title>
<g id="a_edge38_Node000001_Node000029"><a xlink:title=" ">
<path fill="none" stroke="#63b8ff" d="M663.85,-397.16C726.56,-384.77 806.3,-369.02 853.85,-359.63"/>
<polygon fill="#63b8ff" stroke="#63b8ff" points="854.65,-363.04 863.78,-357.67 853.29,-356.17 854.65,-363.04"/>
</a>
</g>
</g>
<!-- Node40 -->
<g id="Node000040" class="node">
<title>Node40</title>
<g id="a_Node000040"><a xlink:title=" ">
<polygon fill="#e0e0e0" stroke="#999999" points="1609,-360 1523,-360 1523,-341 1609,-341 1609,-360"/>
<text text-anchor="middle" x="1566" y="-348" font-family="Helvetica,sans-Serif" font-size="10.00">unordered_set</text>
</a>
</g>
</g>
<!-- Node1&#45;&gt;Node40 -->
<g id="edge74_Node000001_Node000040" class="edge">
<title>Node1&#45;&gt;Node40</title>
<g id="a_edge74_Node000001_Node000040"><a xlink:title=" ">
<path fill="none" stroke="#63b8ff" d="M663.75,-412.75C832.38,-407.13 1200.3,-392.09 1509,-360 1510.26,-359.87 1511.53,-359.73 1512.82,-359.58"/>
<polygon fill="#63b8ff" stroke="#63b8ff" points="1513.29,-363.05 1522.79,-358.36 1512.44,-356.11 1513.29,-363.05"/>
</a>
</g>
</g>
<!-- Node3 -->
<g id="Node000003" class="node">
<title>Node3</title>
<g id="a_Node000003"><a xlink:title=" ">
<polygon fill="#e0e0e0" stroke="#999999" points="1570.5,-79.5 1451.5,-79.5 1451.5,-60.5 1570.5,-60.5 1570.5,-79.5"/>
<text text-anchor="middle" x="1511" y="-67.5" font-family="Helvetica,sans-Serif" font-size="10.00">interface/param.pb.h</text>
</a>
</g>
</g>
<!-- Node2&#45;&gt;Node3 -->
<g id="edge2_Node000002_Node000003" class="edge">
<title>Node2&#45;&gt;Node3</title>
<g id="a_edge2_Node000002_Node000003"><a xlink:title=" ">
<path fill="none" stroke="#63b8ff" d="M1497.36,-120.87C1499.61,-112.66 1503.06,-100.04 1505.93,-89.55"/>
<polygon fill="#63b8ff" stroke="#63b8ff" points="1509.37,-90.24 1508.63,-79.67 1502.62,-88.39 1509.37,-90.24"/>
</a>
</g>
</g>
<!-- Node4 -->
<g id="Node000004" class="node">
<title>Node4</title>
<g id="a_Node000004"><a xlink:title=" ">
<polygon fill="#e0e0e0" stroke="#999999" points="1725,-79.5 1589,-79.5 1589,-60.5 1725,-60.5 1725,-79.5"/>
<text text-anchor="middle" x="1657" y="-67.5" font-family="Helvetica,sans-Serif" font-size="10.00">interface/constraint.pb.h</text>
</a>
</g>
</g>
<!-- Node2&#45;&gt;Node4 -->
<g id="edge3_Node000002_Node000004" class="edge">
<title>Node2&#45;&gt;Node4</title>
<g id="a_edge3_Node000002_Node000004"><a xlink:title=" ">
<path fill="none" stroke="#63b8ff" d="M1518.56,-120.99C1546.27,-110.99 1592.47,-94.3 1623.81,-82.99"/>
<polygon fill="#63b8ff" stroke="#63b8ff" points="1625.2,-86.21 1633.42,-79.52 1622.82,-79.62 1625.2,-86.21"/>
</a>
</g>
</g>
<!-- Node5&#45;&gt;Node2 -->
<g id="edge14_Node000005_Node000002" class="edge">
<title>Node5&#45;&gt;Node2</title>
<g id="a_edge14_Node000005_Node000002"><a xlink:title=" ">
<path fill="none" stroke="#63b8ff" d="M1397.64,-175.98C1416.3,-167.46 1445.25,-154.23 1466.74,-144.41"/>
<polygon fill="#63b8ff" stroke="#63b8ff" points="1468.38,-147.51 1476.02,-140.17 1465.47,-141.14 1468.38,-147.51"/>
</a>
</g>
</g>
<!-- Node5&#45;&gt;Node3 -->
<g id="edge24_Node000005_Node000003" class="edge">
<title>Node5&#45;&gt;Node3</title>
<g id="a_edge24_Node000005_Node000003"><a xlink:title=" ">
<path fill="none" stroke="#63b8ff" d="M1387.41,-175.99C1399.86,-163.52 1424.07,-139.74 1446,-121 1460.6,-108.52 1477.86,-95.32 1490.92,-85.61"/>
<polygon fill="#63b8ff" stroke="#63b8ff" points="1493.24,-88.25 1499.21,-79.5 1489.08,-82.62 1493.24,-88.25"/>
</a>
</g>
</g>
<!-- Node6 -->
<g id="Node000006" class="node">
<title>Node6</title>
<g id="a_Node000006"><a xlink:href="Enums_8h.html" target="_top" xlink:title="tools for using EnumDecorators.">
<polygon fill="white" stroke="#666666" points="986.5,-140 927.5,-140 927.5,-121 986.5,-121 986.5,-140"/>
<text text-anchor="middle" x="957" y="-128" font-family="Helvetica,sans-Serif" font-size="10.00">Enums.h</text>
</a>
</g>
</g>
<!-- Node5&#45;&gt;Node6 -->
<g id="edge5_Node000005_Node000006" class="edge">
<title>Node5&#45;&gt;Node6</title>
<g id="a_edge5_Node000005_Node000006"><a xlink:title=" ">
<path fill="none" stroke="#63b8ff" d="M1349.33,-180.77C1275.02,-171.44 1080.91,-147.06 996.81,-136.5"/>
<polygon fill="#63b8ff" stroke="#63b8ff" points="997,-133 986.64,-135.22 996.13,-139.94 997,-133"/>
</a>
</g>
</g>
<!-- Node14 -->
<g id="Node000014" class="node">
<title>Node14</title>
<g id="a_Node000014"><a xlink:href="Path_8h.html" target="_top" xlink:title="Handles Path objects used to uniquely identify and access OIDs.">
<polygon fill="white" stroke="#666666" points="1280.5,-140 1233.5,-140 1233.5,-121 1280.5,-121 1280.5,-140"/>
<text text-anchor="middle" x="1257" y="-128" font-family="Helvetica,sans-Serif" font-size="10.00">Path.h</text>
</a>
</g>
</g>
<!-- Node5&#45;&gt;Node14 -->
<g id="edge15_Node000005_Node000014" class="edge">
<title>Node5&#45;&gt;Node14</title>
<g id="a_edge15_Node000005_Node000014"><a xlink:title=" ">
<path fill="none" stroke="#63b8ff" d="M1359.4,-175.98C1339.68,-167.42 1309.05,-154.11 1286.42,-144.28"/>
<polygon fill="#63b8ff" stroke="#63b8ff" points="1287.52,-140.94 1276.96,-140.17 1284.74,-147.37 1287.52,-140.94"/>
</a>
</g>
</g>
<!-- Node19 -->
<g id="Node000019" class="node">
<title>Node19</title>
<g id="a_Node000019"><a xlink:href="Status_8h.html" target="_top" xlink:title="Communicates failure status using gRPC&#39;s codes.">
<polygon fill="white" stroke="#666666" points="1703,-140 1647,-140 1647,-121 1703,-121 1703,-140"/>
<text text-anchor="middle" x="1675" y="-128" font-family="Helvetica,sans-Serif" font-size="10.00">Status.h</text>
</a>
</g>
</g>
<!-- Node5&#45;&gt;Node19 -->
<g id="edge21_Node000005_Node000019" class="edge">
<title>Node5&#45;&gt;Node19</title>
<g id="a_edge21_Node000005_Node000019"><a xlink:title=" ">
<path fill="none" stroke="#63b8ff" d="M1408.74,-179.18C1462.67,-169.52 1576.58,-149.12 1636.42,-138.41"/>
<polygon fill="#63b8ff" stroke="#63b8ff" points="1637.36,-141.79 1646.59,-136.59 1636.13,-134.9 1637.36,-141.79"/>
</a>
</g>
</g>
<!-- Node7 -->
<g id="Node000007" class="node">
<title>Node7</title>
<g id="a_Node000007"><a xlink:href="EnumDecorator_8h.html" target="_top" xlink:title="Provides an enum with useful extra functionality.">
<polygon fill="white" stroke="#666666" points="1029,-79.5 885,-79.5 885,-60.5 1029,-60.5 1029,-79.5"/>
<text text-anchor="middle" x="957" y="-67.5" font-family="Helvetica,sans-Serif" font-size="10.00">patterns/EnumDecorator.h</text>
</a>
</g>
</g>
<!-- Node6&#45;&gt;Node7 -->
<g id="edge6_Node000006_Node000007" class="edge">
<title>Node6&#45;&gt;Node7</title>
<g id="a_edge6_Node000006_Node000007"><a xlink:title=" ">
<path fill="none" stroke="#63b8ff" d="M957,-120.87C957,-112.75 957,-100.31 957,-89.89"/>
<polygon fill="#63b8ff" stroke="#63b8ff" points="960.5,-89.67 957,-79.67 953.5,-89.67 960.5,-89.67"/>
</a>
</g>
</g>
<!-- Node9 -->
<g id="Node000009" class="node">
<title>Node9</title>
<g id="a_Node000009"><a xlink:title=" ">
<polygon fill="#e0e0e0" stroke="#999999" points="1061,-19 1011,-19 1011,0 1061,0 1061,-19"/>
<text text-anchor="middle" x="1036" y="-7" font-family="Helvetica,sans-Serif" font-size="10.00">cstdint</text>
</a>
</g>
</g>
<!-- Node6&#45;&gt;Node9 -->
<g id="edge13_Node000006_Node000009" class="edge">
<title>Node6&#45;&gt;Node9</title>
<g id="a_edge13_Node000006_Node000009"><a xlink:title=" ">
<path fill="none" stroke="#63b8ff" d="M986.79,-121.57C1005.05,-115 1026.97,-103.64 1038,-85 1048.06,-67.99 1045.41,-44.75 1041.62,-28.78"/>
<polygon fill="#63b8ff" stroke="#63b8ff" points="1044.98,-27.77 1038.97,-19.05 1038.22,-29.61 1044.98,-27.77"/>
</a>
</g>
</g>
<!-- Node13 -->
<g id="Node000013" class="node">
<title>Node13</title>
<g id="a_Node000013"><a xlink:title=" ">
<polygon fill="#e0e0e0" stroke="#999999" points="790.5,-79.5 671.5,-79.5 671.5,-60.5 790.5,-60.5 790.5,-79.5"/>
<text text-anchor="middle" x="731" y="-67.5" font-family="Helvetica,sans-Serif" font-size="10.00">interface/device.pb.h</text>
</a>
</g>
</g>
<!-- Node6&#45;&gt;Node13 -->
<g id="edge12_Node000006_Node000013" class="edge">
<title>Node6&#45;&gt;Node13</title>
<g id="a_edge12_Node000006_Node000013"><a xlink:title=" ">
<path fill="none" stroke="#63b8ff" d="M927.45,-121.85C888.19,-111.69 818.55,-93.66 773.6,-82.03"/>
<polygon fill="#63b8ff" stroke="#63b8ff" points="774.41,-78.62 763.85,-79.5 772.65,-85.4 774.41,-78.62"/>
</a>
</g>
</g>
<!-- Node8 -->
<g id="Node000008" class="node">
<title>Node8</title>
<g id="a_Node000008"><a xlink:href="ReflectionMacros_8h.html" target="_top" xlink:title="adapted from https://github.com/tapika/TestCppReflect">
<polygon fill="white" stroke="#666666" points="993,-19 883,-19 883,0 993,0 993,-19"/>
<text text-anchor="middle" x="938" y="-7" font-family="Helvetica,sans-Serif" font-size="10.00">ReflectionMacros.h</text>
</a>
</g>
</g>
<!-- Node7&#45;&gt;Node8 -->
<g id="edge7_Node000007_Node000008" class="edge">
<title>Node7&#45;&gt;Node8</title>
<g id="a_edge7_Node000007_Node000008"><a xlink:title=" ">
<path fill="none" stroke="#63b8ff" d="M954.2,-60.37C951.5,-52.07 947.35,-39.28 943.92,-28.72"/>
<polygon fill="#63b8ff" stroke="#63b8ff" points="947.23,-27.6 940.82,-19.17 940.58,-29.76 947.23,-27.6"/>
</a>
</g>
</g>
<!-- Node7&#45;&gt;Node9 -->
<g id="edge8_Node000007_Node000009" class="edge">
<title>Node7&#45;&gt;Node9</title>
<g id="a_edge8_Node000007_Node000009"><a xlink:title=" ">
<path fill="none" stroke="#63b8ff" d="M968.66,-60.37C981.14,-51.12 1001.18,-36.28 1016.16,-25.19"/>
<polygon fill="#63b8ff" stroke="#63b8ff" points="1018.34,-27.93 1024.3,-19.17 1014.18,-22.31 1018.34,-27.93"/>
</a>
</g>
</g>
<!-- Node10 -->
<g id="Node000010" class="node">
<title>Node10</title>
<g id="a_Node000010"><a xlink:title=" ">
<polygon fill="#e0e0e0" stroke="#999999" points="650.5,-19 557.5,-19 557.5,0 650.5,0 650.5,-19"/>
<text text-anchor="middle" x="604" y="-7" font-family="Helvetica,sans-Serif" font-size="10.00">unordered_map</text>
</a>
</g>
</g>
<!-- Node7&#45;&gt;Node10 -->
<g id="edge9_Node000007_Node000010" class="edge">
<title>Node7&#45;&gt;Node10</title>
<g id="a_edge9_Node000007_Node000010"><a xlink:title=" ">
<path fill="none" stroke="#63b8ff" d="M905.67,-60.49C840.47,-49.69 728.3,-31.1 660.66,-19.89"/>
<polygon fill="#63b8ff" stroke="#63b8ff" points="661.04,-16.41 650.6,-18.22 659.89,-23.31 661.04,-16.41"/>
</a>
</g>
</g>
<!-- Node7&#45;&gt;Node11 -->
<g id="edge10_Node000007_Node000011" class="edge">
<title>Node7&#45;&gt;Node11</title>
<g id="a_edge10_Node000007_Node000011"><a xlink:title=" ">
<path fill="none" stroke="#63b8ff" d="M884.88,-60.77C867.87,-58.86 849.8,-56.84 833,-55 688.45,-39.18 515.8,-21.17 445.34,-13.85"/>
<polygon fill="#63b8ff" stroke="#63b8ff" points="445.62,-10.36 435.32,-12.81 444.9,-17.32 445.62,-10.36"/>
</a>
</g>
</g>
<!-- Node12 -->
<g id="Node000012" class="node">
<title>Node12</title>
<g id="a_Node000012"><a xlink:title=" ">
<polygon fill="#e0e0e0" stroke="#999999" points="1148.5,-19 1079.5,-19 1079.5,0 1148.5,0 1148.5,-19"/>
<text text-anchor="middle" x="1114" y="-7" font-family="Helvetica,sans-Serif" font-size="10.00">type_traits</text>
</a>
</g>
</g>
<!-- Node7&#45;&gt;Node12 -->
<g id="edge11_Node000007_Node000012" class="edge">
<title>Node7&#45;&gt;Node12</title>
<g id="a_edge11_Node000007_Node000012"><a xlink:title=" ">
<path fill="none" stroke="#63b8ff" d="M979.83,-60.49C1006.57,-50.53 1051.08,-33.95 1081.44,-22.63"/>
<polygon fill="#63b8ff" stroke="#63b8ff" points="1082.99,-25.79 1091.14,-19.02 1080.55,-19.23 1082.99,-25.79"/>
</a>
</g>
</g>
<!-- Node14&#45;&gt;Node11 -->
<g id="edge17_Node000014_Node000011" class="edge">
<title>Node14&#45;&gt;Node11</title>
<g id="a_edge17_Node000014_Node000011"><a xlink:title=" ">
<path fill="none" stroke="#63b8ff" d="M1233.3,-122.94C1230.19,-122.22 1227.03,-121.54 1224,-121 1070.95,-93.53 1027.13,-121.55 876,-85 840.3,-76.37 834.65,-63.84 799,-55 731.95,-38.37 525.13,-19.87 445.09,-13.13"/>
<polygon fill="#63b8ff" stroke="#63b8ff" points="445.36,-9.64 435.1,-12.3 444.78,-16.62 445.36,-9.64"/>
</a>
</g>
</g>
<!-- Node15 -->
<g id="Node000015" class="node">
<title>Node15</title>
<g id="a_Node000015"><a xlink:title=" ">
<polygon fill="#e0e0e0" stroke="#999999" points="1287,-79.5 1227,-79.5 1227,-60.5 1287,-60.5 1287,-79.5"/>
<text text-anchor="middle" x="1257" y="-67.5" font-family="Helvetica,sans-Serif" font-size="10.00">iostream</text>
</a>
</g>
</g>
<!-- Node14&#45;&gt;Node15 -->
<g id="edge16_Node000014_Node000015" class="edge">
<title>Node14&#45;&gt;Node15</title>
<g id="a_edge16_Node000014_Node000015"><a xlink:title=" ">
<path fill="none" stroke="#63b8ff" d="M1257,-120.87C1257,-112.75 1257,-100.31 1257,-89.89"/>
<polygon fill="#63b8ff" stroke="#63b8ff" points="1260.5,-89.67 1257,-79.67 1253.5,-89.67 1260.5,-89.67"/>
</a>
</g>
</g>
<!-- Node16 -->
<g id="Node000016" class="node">
<title>Node16</title>
<g id="a_Node000016"><a xlink:title=" ">
<polygon fill="#e0e0e0" stroke="#999999" points="1170.5,-79.5 1123.5,-79.5 1123.5,-60.5 1170.5,-60.5 1170.5,-79.5"/>
<text text-anchor="middle" x="1147" y="-67.5" font-family="Helvetica,sans-Serif" font-size="10.00">vector</text>
</a>
</g>
</g>
<!-- Node14&#45;&gt;Node16 -->
<g id="edge18_Node000014_Node000016" class="edge">
<title>Node14&#45;&gt;Node16</title>
<g id="a_edge18_Node000014_Node000016"><a xlink:title=" ">
<path fill="none" stroke="#63b8ff" d="M1240.77,-120.87C1222.73,-111.28 1193.38,-95.67 1172.32,-84.47"/>
<polygon fill="#63b8ff" stroke="#63b8ff" points="1173.77,-81.27 1163.3,-79.67 1170.48,-87.45 1173.77,-81.27"/>
</a>
</g>
</g>
<!-- Node17 -->
<g id="Node000017" class="node">
<title>Node17</title>
<g id="a_Node000017"><a xlink:title=" ">
<polygon fill="#e0e0e0" stroke="#999999" points="1356.5,-79.5 1305.5,-79.5 1305.5,-60.5 1356.5,-60.5 1356.5,-79.5"/>
<text text-anchor="middle" x="1331" y="-67.5" font-family="Helvetica,sans-Serif" font-size="10.00">variant</text>
</a>
</g>
</g>
<!-- Node14&#45;&gt;Node17 -->
<g id="edge19_Node000014_Node000017" class="edge">
<title>Node14&#45;&gt;Node17</title>
<g id="a_edge19_Node000014_Node000017"><a xlink:title=" ">
<path fill="none" stroke="#63b8ff" d="M1267.92,-120.87C1279.51,-111.71 1298.03,-97.06 1312.02,-86.01"/>
<polygon fill="#63b8ff" stroke="#63b8ff" points="1314.36,-88.61 1320.04,-79.67 1310.02,-83.12 1314.36,-88.61"/>
</a>
</g>
</g>
<!-- Node18 -->
<g id="Node000018" class="node">
<title>Node18</title>
<g id="a_Node000018"><a xlink:title=" ">
<polygon fill="#e0e0e0" stroke="#999999" points="1433,-79.5 1375,-79.5 1375,-60.5 1433,-60.5 1433,-79.5"/>
<text text-anchor="middle" x="1404" y="-67.5" font-family="Helvetica,sans-Serif" font-size="10.00">memory</text>
</a>
</g>
</g>
<!-- Node14&#45;&gt;Node18 -->
<g id="edge20_Node000014_Node000018" class="edge">
<title>Node14&#45;&gt;Node18</title>
<g id="a_edge20_Node000014_Node000018"><a xlink:title=" ">
<path fill="none" stroke="#63b8ff" d="M1278.38,-120.99C1303.31,-111.07 1344.72,-94.59 1373.14,-83.28"/>
<polygon fill="#63b8ff" stroke="#63b8ff" points="1374.6,-86.47 1382.6,-79.52 1372.01,-79.96 1374.6,-86.47"/>
</a>
</g>
</g>
<!-- Node20 -->
<g id="Node000020" class="node">
<title>Node20</title>
<g id="a_Node000020"><a xlink:title=" ">
<polygon fill="#e0e0e0" stroke="#999999" points="1799,-79.5 1743,-79.5 1743,-60.5 1799,-60.5 1799,-79.5"/>
<text text-anchor="middle" x="1771" y="-67.5" font-family="Helvetica,sans-Serif" font-size="10.00">sstream</text>
</a>
</g>
</g>
<!-- Node19&#45;&gt;Node20 -->
<g id="edge22_Node000019_Node000020" class="edge">
<title>Node19&#45;&gt;Node20</title>
<g id="a_edge22_Node000019_Node000020"><a xlink:title=" ">
<path fill="none" stroke="#63b8ff" d="M1689.17,-120.87C1704.69,-111.41 1729.83,-96.09 1748.15,-84.92"/>
<polygon fill="#63b8ff" stroke="#63b8ff" points="1750.06,-87.86 1756.78,-79.67 1746.42,-81.88 1750.06,-87.86"/>
</a>
</g>
</g>
<!-- Node21 -->
<g id="Node000021" class="node">
<title>Node21</title>
<g id="a_Node000021"><a xlink:title=" ">
<polygon fill="#e0e0e0" stroke="#999999" points="1882.5,-79.5 1817.5,-79.5 1817.5,-60.5 1882.5,-60.5 1882.5,-79.5"/>
<text text-anchor="middle" x="1850" y="-67.5" font-family="Helvetica,sans-Serif" font-size="10.00">stdexcept</text>
</a>
</g>
</g>
<!-- Node19&#45;&gt;Node21 -->
<g id="edge23_Node000019_Node000021" class="edge">
<title>Node19&#45;&gt;Node21</title>
<g id="a_edge23_Node000019_Node000021"><a xlink:title=" ">
<path fill="none" stroke="#63b8ff" d="M1700.45,-120.99C1730.64,-110.9 1781.16,-94.01 1815.02,-82.69"/>
<polygon fill="#63b8ff" stroke="#63b8ff" points="1816.15,-86.01 1824.52,-79.52 1813.93,-79.37 1816.15,-86.01"/>
</a>
</g>
</g>
<!-- Node22&#45;&gt;Node11 -->
<g id="edge27_Node000022_Node000011" class="edge">
<title>Node22&#45;&gt;Node11</title>
<g id="a_edge27_Node000022_Node000011"><a xlink:title=" ">
<path fill="none" stroke="#63b8ff" d="M645.98,-175.9C620.32,-158.87 561.46,-119.54 513,-85 484.59,-64.75 452.32,-40.47 432.31,-25.26"/>
<polygon fill="#63b8ff" stroke="#63b8ff" points="434.36,-22.42 424.28,-19.15 430.12,-27.99 434.36,-22.42"/>
</a>
</g>
</g>
<!-- Node23 -->
<g id="Node000023" class="node">
<title>Node23</title>
<g id="a_Node000023"><a xlink:title=" ">
<polygon fill="#e0e0e0" stroke="#999999" points="697.5,-140 632.5,-140 632.5,-121 697.5,-121 697.5,-140"/>
<text text-anchor="middle" x="665" y="-128" font-family="Helvetica,sans-Serif" font-size="10.00">functional</text>
</a>
</g>
</g>
<!-- Node22&#45;&gt;Node23 -->
<g id="edge26_Node000022_Node000023" class="edge">
<title>Node22&#45;&gt;Node23</title>
<g id="a_edge26_Node000022_Node000023"><a xlink:title=" ">
<path fill="none" stroke="#63b8ff" d="M659.99,-175.75C660.78,-168.8 661.9,-158.85 662.89,-150.13"/>
<polygon fill="#63b8ff" stroke="#63b8ff" points="666.38,-150.42 664.03,-140.09 659.42,-149.63 666.38,-150.42"/>
</a>
</g>
</g>
<!-- Node24&#45;&gt;Node10 -->
<g id="edge36_Node000024_Node000010" class="edge">
<title>Node24&#45;&gt;Node10</title>
<g id="a_edge36_Node000024_Node000010"><a xlink:title=" ">
<path fill="none" stroke="#63b8ff" d="M383.31,-183.33C420.63,-180.15 473.88,-170.12 509,-140 540.28,-113.18 520.63,-87.46 546,-55 555.37,-43.01 568.7,-32.48 580.21,-24.69"/>
<polygon fill="#63b8ff" stroke="#63b8ff" points="582.44,-27.41 588.94,-19.04 578.64,-21.53 582.44,-27.41"/>
</a>
</g>
</g>
<!-- Node24&#45;&gt;Node11 -->
<g id="edge35_Node000024_Node000011" class="edge">
<title>Node24&#45;&gt;Node11</title>
<g id="a_edge35_Node000024_Node000011"><a xlink:title=" ">
<path fill="none" stroke="#63b8ff" d="M342.14,-175.72C345.27,-163.32 351.54,-140.08 359,-121 372.22,-87.18 391.71,-49.53 403.3,-28.06"/>
<polygon fill="#63b8ff" stroke="#63b8ff" points="406.44,-29.61 408.16,-19.16 400.3,-26.26 406.44,-29.61"/>
</a>
</g>
</g>
<!-- Node25 -->
<g id="Node000025" class="node">
<title>Node25</title>
<g id="a_Node000025"><a xlink:href="IPolyglotText_8h.html" target="_top" xlink:title="Catena&#39;s multi&#45;language text interface.">
<polygon fill="white" stroke="#666666" points="311.5,-140 222.5,-140 222.5,-121 311.5,-121 311.5,-140"/>
<text text-anchor="middle" x="267" y="-128" font-family="Helvetica,sans-Serif" font-size="10.00">IPolyglotText.h</text>
</a>
</g>
</g>
<!-- Node24&#45;&gt;Node25 -->
<g id="edge29_Node000024_Node000025" class="edge">
<title>Node24&#45;&gt;Node25</title>
<g id="a_edge29_Node000024_Node000025"><a xlink:title=" ">
<path fill="none" stroke="#63b8ff" d="M328.27,-175.98C317.27,-168 300.58,-155.88 287.4,-146.31"/>
<polygon fill="#63b8ff" stroke="#63b8ff" points="289.09,-143.21 278.94,-140.17 284.98,-148.88 289.09,-143.21"/>
</a>
</g>
</g>
<!-- Node24&#45;&gt;Node27 -->
<g id="edge37_Node000024_Node000027" class="edge">
<title>Node24&#45;&gt;Node27</title>
<g id="a_edge37_Node000024_Node000027"><a xlink:title=" ">
<path fill="none" stroke="#63b8ff" d="M296.75,-181.76C267.87,-177.41 231.85,-166.58 213,-140 199.13,-120.44 222.82,-98.8 243.08,-85.06"/>
<polygon fill="#63b8ff" stroke="#63b8ff" points="245.19,-87.86 251.71,-79.51 241.41,-81.98 245.19,-87.86"/>
</a>
</g>
</g>
<!-- Node28 -->
<g id="Node000028" class="node">
<title>Node28</title>
<g id="a_Node000028"><a xlink:title=" ">
<polygon fill="#e0e0e0" stroke="#999999" points="500,-140 368,-140 368,-121 500,-121 500,-140"/>
<text text-anchor="middle" x="434" y="-128" font-family="Helvetica,sans-Serif" font-size="10.00">interface/language.pb.h</text>
</a>
</g>
</g>
<!-- Node24&#45;&gt;Node28 -->
<g id="edge34_Node000024_Node000028" class="edge">
<title>Node24&#45;&gt;Node28</title>
<g id="a_edge34_Node000024_Node000028"><a xlink:title=" ">
<path fill="none" stroke="#63b8ff" d="M355.1,-175.98C369.82,-167.69 392.42,-154.94 409.67,-145.22"/>
<polygon fill="#63b8ff" stroke="#63b8ff" points="411.63,-148.13 418.62,-140.17 408.19,-142.03 411.63,-148.13"/>
</a>
</g>
</g>
<!-- Node25&#45;&gt;Node10 -->
<g id="edge31_Node000025_Node000010" class="edge">
<title>Node25&#45;&gt;Node10</title>
<g id="a_edge31_Node000025_Node000010"><a xlink:title=" ">
<path fill="none" stroke="#63b8ff" d="M290.68,-120.92C329.24,-106.96 408.05,-78.53 475,-55 506.77,-43.83 543.02,-31.35 568.99,-22.45"/>
<polygon fill="#63b8ff" stroke="#63b8ff" points="570.43,-25.66 578.76,-19.11 568.16,-19.04 570.43,-25.66"/>
</a>
</g>
</g>
<!-- Node25&#45;&gt;Node11 -->
<g id="edge32_Node000025_Node000011" class="edge">
<title>Node25&#45;&gt;Node11</title>
<g id="a_edge32_Node000025_Node000011"><a xlink:title=" ">
<path fill="none" stroke="#63b8ff" d="M277.5,-120.94C302,-100.97 363.23,-51.06 394.3,-25.75"/>
<polygon fill="#63b8ff" stroke="#63b8ff" points="396.66,-28.33 402.2,-19.3 392.24,-22.91 396.66,-28.33"/>
</a>
</g>
</g>
<!-- Node25&#45;&gt;Node26 -->
<g id="edge30_Node000025_Node000026" class="edge">
<title>Node25&#45;&gt;Node26</title>
<g id="a_edge30_Node000025_Node000026"><a xlink:title=" ">
<path fill="none" stroke="#63b8ff" d="M248.1,-120.99C229.71,-112.72 201.2,-99.89 177.66,-89.3"/>
<polygon fill="#63b8ff" stroke="#63b8ff" points="178.81,-85.98 168.25,-85.06 175.94,-92.36 178.81,-85.98"/>
</a>
</g>
</g>
<!-- Node25&#45;&gt;Node27 -->
<g id="edge33_Node000025_Node000027" class="edge">
<title>Node25&#45;&gt;Node27</title>
<g id="a_edge33_Node000025_Node000027"><a xlink:title=" ">
<path fill="none" stroke="#63b8ff" d="M267,-120.87C267,-112.75 267,-100.31 267,-89.89"/>
<polygon fill="#63b8ff" stroke="#63b8ff" points="270.5,-89.67 267,-79.67 263.5,-89.67 270.5,-89.67"/>
</a>
</g>
</g>
<!-- Node29&#45;&gt;Node5 -->
<g id="edge61_Node000029_Node000005" class="edge">
<title>Node29&#45;&gt;Node5</title>
<g id="a_edge61_Node000029_Node000005"><a xlink:title=" ">
<path fill="none" stroke="#63b8ff" d="M926.4,-348.35C979.49,-345.57 1089.73,-336.22 1177,-305 1214.62,-291.54 1313.52,-228.91 1357.45,-200.54"/>
<polygon fill="#63b8ff" stroke="#63b8ff" points="1359.45,-203.41 1365.94,-195.03 1355.65,-197.53 1359.45,-203.41"/>
</a>
</g>
</g>
<!-- Node29&#45;&gt;Node11 -->
<g id="edge68_Node000029_Node000011" class="edge">
<title>Node29&#45;&gt;Node11</title>
<g id="a_edge68_Node000029_Node000011"><a xlink:title=" ">
<path fill="none" stroke="#63b8ff" d="M863.85,-347.07C808.21,-342.27 688.33,-329.8 590,-305 341.51,-242.32 193.82,-301.7 57,-85 49.88,-73.73 48.18,-65 57,-55 78.28,-30.9 296.76,-16.73 380.54,-12.15"/>
<polygon fill="#63b8ff" stroke="#63b8ff" points="380.96,-15.63 390.76,-11.6 380.58,-8.64 380.96,-15.63"/>
</a>
</g>
</g>
<!-- Node29&#45;&gt;Node13 -->
<g id="edge67_Node000029_Node000013" class="edge">
<title>Node29&#45;&gt;Node13</title>
<g id="a_edge67_Node000029_Node000013"><a xlink:title=" ">
<path fill="none" stroke="#63b8ff" d="M863.81,-346.44C836.26,-342.02 797.14,-331.24 775,-305 721.42,-241.48 724.86,-133.42 728.8,-89.94"/>
<polygon fill="#63b8ff" stroke="#63b8ff" points="732.29,-90.22 729.83,-79.92 725.33,-89.51 732.29,-90.22"/>
</a>
</g>
</g>
<!-- Node29&#45;&gt;Node14 -->
<g id="edge60_Node000029_Node000014" class="edge">
<title>Node29&#45;&gt;Node14</title>
<g id="a_edge60_Node000029_Node000014"><a xlink:title=" ">
<path fill="none" stroke="#63b8ff" d="M926.33,-347.56C986.58,-342.23 1119.66,-322.47 1199,-250 1229.05,-222.55 1245.33,-176.11 1252.48,-150.27"/>
<polygon fill="#63b8ff" stroke="#63b8ff" points="1255.94,-150.84 1255.06,-140.28 1249.17,-149.08 1255.94,-150.84"/>
</a>
</g>
</g>
<!-- Node29&#45;&gt;Node16 -->
<g id="edge69_Node000029_Node000016" class="edge">
<title>Node29&#45;&gt;Node16</title>
<g id="a_edge69_Node000029_Node000016"><a xlink:title=" ">
<path fill="none" stroke="#63b8ff" d="M895.68,-340.84C898.23,-313.51 909.49,-227.8 953,-176 976.1,-148.5 1069.5,-104.93 1117.78,-83.6"/>
<polygon fill="#63b8ff" stroke="#63b8ff" points="1119.33,-86.74 1127.08,-79.52 1116.52,-80.33 1119.33,-86.74"/>
</a>
</g>
</g>
<!-- Node29&#45;&gt;Node19 -->
<g id="edge65_Node000029_Node000019" class="edge">
<title>Node29&#45;&gt;Node19</title>
<g id="a_edge65_Node000029_Node000019"><a xlink:title=" ">
<path fill="none" stroke="#63b8ff" d="M926.11,-348.67C1021.93,-345.82 1311.39,-334.89 1400,-305 1507.86,-268.61 1616.43,-181.89 1657.67,-146.72"/>
<polygon fill="#63b8ff" stroke="#63b8ff" points="1660.13,-149.21 1665.42,-140.03 1655.56,-143.91 1660.13,-149.21"/>
</a>
</g>
</g>
<!-- Node30 -->
<g id="Node000030" class="node">
<title>Node30</title>
<g id="a_Node000030"><a xlink:href="Authorization_8h.html" target="_top" xlink:title="Class for handling authorization information.">
<polygon fill="white" stroke="#666666" points="1046.5,-305 955.5,-305 955.5,-286 1046.5,-286 1046.5,-305"/>
<text text-anchor="middle" x="1001" y="-293" font-family="Helvetica,sans-Serif" font-size="10.00">Authorization.h</text>
</a>
</g>
</g>
<!-- Node29&#45;&gt;Node30 -->
<g id="edge39_Node000029_Node000030" class="edge">
<title>Node29&#45;&gt;Node30</title>
<g id="a_edge39_Node000029_Node000030"><a xlink:title=" ">
<path fill="none" stroke="#63b8ff" d="M912.03,-340.98C928.93,-332.54 955.06,-319.47 974.64,-309.68"/>
<polygon fill="#63b8ff" stroke="#63b8ff" points="976.28,-312.77 983.66,-305.17 973.15,-306.51 976.28,-312.77"/>
</a>
</g>
</g>
<!-- Node36 -->
<g id="Node000036" class="node">
<title>Node36</title>
<g id="a_Node000036"><a xlink:href="ILanguagePack_8h.html" target="_top" xlink:title="Interface for language packs.">
<polygon fill="white" stroke="#666666" points="653,-79.5 555,-79.5 555,-60.5 653,-60.5 653,-79.5"/>
<text text-anchor="middle" x="604" y="-67.5" font-family="Helvetica,sans-Serif" font-size="10.00">ILanguagePack.h</text>
</a>
</g>
</g>
<!-- Node29&#45;&gt;Node36 -->
<g id="edge62_Node000029_Node000036" class="edge">
<title>Node29&#45;&gt;Node36</title>
<g id="a_edge62_Node000029_Node000036"><a xlink:title=" ">
<path fill="none" stroke="#63b8ff" d="M863.98,-343C835.28,-336.17 792.04,-323.79 758,-305 691.14,-268.09 664.33,-261.05 626,-195 606.68,-161.71 603.53,-115.57 603.44,-89.99"/>
<polygon fill="#63b8ff" stroke="#63b8ff" points="606.95,-89.85 603.57,-79.81 599.95,-89.76 606.95,-89.85"/>
</a>
</g>
</g>
<!-- Node37 -->
<g id="Node000037" class="node">
<title>Node37</title>
<g id="a_Node000037"><a xlink:title=" ">
<polygon fill="#e0e0e0" stroke="#999999" points="1310.5,-305 1229.5,-305 1229.5,-286 1310.5,-286 1310.5,-305"/>
<text text-anchor="middle" x="1270" y="-293" font-family="Helvetica,sans-Serif" font-size="10.00">vdk/signals.h</text>
</a>
</g>
</g>
<!-- Node29&#45;&gt;Node37 -->
<g id="edge66_Node000029_Node000037" class="edge">
<title>Node29&#45;&gt;Node37</title>
<g id="a_edge66_Node000029_Node000037"><a xlink:title=" ">
<path fill="none" stroke="#63b8ff" d="M926.36,-345.3C983.7,-337.58 1109.28,-320.52 1215,-305 1216.46,-304.79 1217.95,-304.57 1219.45,-304.34"/>
<polygon fill="#63b8ff" stroke="#63b8ff" points="1220.09,-307.79 1229.46,-302.84 1219.05,-300.86 1220.09,-307.79"/>
</a>
</g>
</g>
<!-- Node38 -->
<g id="Node000038" class="node">
<title>Node38</title>
<g id="a_Node000038"><a xlink:title=" ">
<polygon fill="#e0e0e0" stroke="#999999" points="1391,-305 1329,-305 1329,-286 1391,-286 1391,-305"/>
<text text-anchor="middle" x="1360" y="-293" font-family="Helvetica,sans-Serif" font-size="10.00">coroutine</text>
</a>
</g>
</g>
<!-- Node29&#45;&gt;Node38 -->
<g id="edge70_Node000029_Node000038" class="edge">
<title>Node29&#45;&gt;Node38</title>
<g id="a_edge70_Node000029_Node000038"><a xlink:title=" ">
<path fill="none" stroke="#63b8ff" d="M926.26,-347.29C995.15,-342.2 1165.39,-328.36 1318.65,-304.88"/>
<polygon fill="#63b8ff" stroke="#63b8ff" points="1319.37,-308.31 1328.72,-303.32 1318.3,-301.39 1319.37,-308.31"/>
</a>
</g>
</g>
<!-- Node39 -->
<g id="Node000039" class="node">
<title>Node39</title>
<g id="a_Node000039"><a xlink:title=" ">
<polygon fill="#e0e0e0" stroke="#999999" points="647,-305 599,-305 599,-286 647,-286 647,-305"/>
<text text-anchor="middle" x="623" y="-293" font-family="Helvetica,sans-Serif" font-size="10.00">mutex</text>
</a>
</g>
</g>
<!-- Node29&#45;&gt;Node39 -->
<g id="edge71_Node000029_Node000039" class="edge">
<title>Node29&#45;&gt;Node39</title>
<g id="a_edge71_Node000029_Node000039"><a xlink:title=" ">
<path fill="none" stroke="#63b8ff" d="M863.9,-343.91C819.01,-335.78 733.49,-320 661,-305 659.73,-304.74 658.44,-304.47 657.14,-304.19"/>
<polygon fill="#63b8ff" stroke="#63b8ff" points="657.61,-300.71 647.1,-302.01 656.13,-307.55 657.61,-300.71"/>
</a>
</g>
</g>
<!-- Node30&#45;&gt;Node5 -->
<g id="edge42_Node000030_Node000005" class="edge">
<title>Node30&#45;&gt;Node5</title>
<g id="a_edge42_Node000030_Node000005"><a xlink:title=" ">
<path fill="none" stroke="#63b8ff" d="M1046.21,-285.92C1086.59,-277.89 1147.2,-264.9 1199,-250 1252.12,-234.72 1312.45,-212.39 1348.03,-198.69"/>
<polygon fill="#63b8ff" stroke="#63b8ff" points="1349.32,-201.94 1357.38,-195.06 1346.79,-195.41 1349.32,-201.94"/>
</a>
</g>
</g>
<!-- Node30&#45;&gt;Node6 -->
<g id="edge41_Node000030_Node000006" class="edge">
<title>Node30&#45;&gt;Node6</title>
<g id="a_edge41_Node000030_Node000006"><a xlink:title=" ">
<path fill="none" stroke="#63b8ff" d="M982.38,-285.87C968.3,-278.37 949.63,-266.16 939,-250 920.7,-222.16 917.26,-207.86 927,-176 930.09,-165.9 936.32,-156.02 942.31,-148.15"/>
<polygon fill="#63b8ff" stroke="#63b8ff" points="945.18,-150.16 948.79,-140.2 939.76,-145.74 945.18,-150.16"/>
</a>
</g>
</g>
<!-- Node30&#45;&gt;Node14 -->
<g id="edge40_Node000030_Node000014" class="edge">
<title>Node30&#45;&gt;Node14</title>
<g id="a_edge40_Node000030_Node000014"><a xlink:title=" ">
<path fill="none" stroke="#63b8ff" d="M1014.11,-285.82C1033.07,-273.35 1069.35,-249.79 1101,-231 1129.4,-214.14 1137.98,-212.47 1166,-195 1191.29,-179.23 1219.24,-159.34 1237.41,-146.06"/>
<polygon fill="#63b8ff" stroke="#63b8ff" points="1239.5,-148.86 1245.48,-140.12 1235.35,-143.22 1239.5,-148.86"/>
</a>
</g>
</g>
<!-- Node30&#45;&gt;Node23 -->
<g id="edge59_Node000030_Node000023" class="edge">
<title>Node30&#45;&gt;Node23</title>
<g id="a_edge59_Node000030_Node000023"><a xlink:title=" ">
<path fill="none" stroke="#63b8ff" d="M983.41,-285.97C928.2,-259.18 758.09,-176.66 691.82,-144.51"/>
<polygon fill="#63b8ff" stroke="#63b8ff" points="693.35,-141.36 682.82,-140.15 690.29,-147.66 693.35,-141.36"/>
</a>
</g>
</g>
<!-- Node31 -->
<g id="Node000031" class="node">
<title>Node31</title>
<g id="a_Node000031"><a xlink:href="ParamDescriptor_8h.html" target="_top" xlink:title="Interface for accessing parameter descriptions.">
<polygon fill="white" stroke="#666666" points="1054,-250 948,-250 948,-231 1054,-231 1054,-250"/>
<text text-anchor="middle" x="1001" y="-238" font-family="Helvetica,sans-Serif" font-size="10.00">ParamDescriptor.h</text>
</a>
</g>
</g>
<!-- Node30&#45;&gt;Node31 -->
<g id="edge43_Node000030_Node000031" class="edge">
<title>Node30&#45;&gt;Node31</title>
<g id="a_edge43_Node000030_Node000031"><a xlink:title=" ">
<path fill="none" stroke="#63b8ff" d="M1001,-285.75C1001,-278.8 1001,-268.85 1001,-260.13"/>
<polygon fill="#63b8ff" stroke="#63b8ff" points="1004.5,-260.09 1001,-250.09 997.5,-260.09 1004.5,-260.09"/>
</a>
</g>
</g>
<!-- Node35 -->
<g id="Node000035" class="node">
<title>Node35</title>
<g id="a_Node000035"><a xlink:title=" ">
<polygon fill="#e0e0e0" stroke="#999999" points="1190,-250 1110,-250 1110,-231 1190,-231 1190,-250"/>
<text text-anchor="middle" x="1150" y="-238" font-family="Helvetica,sans-Serif" font-size="10.00">jwt&#45;cpp/jwt.h</text>
</a>
</g>
</g>
<!-- Node30&#45;&gt;Node35 -->
<g id="edge58_Node000030_Node000035" class="edge">
<title>Node30&#45;&gt;Node35</title>
<g id="a_edge58_Node000030_Node000035"><a xlink:title=" ">
<path fill="none" stroke="#63b8ff" d="M1024.94,-285.98C1049.56,-277.23 1088.12,-263.51 1115.92,-253.62"/>
<polygon fill="#63b8ff" stroke="#63b8ff" points="1117.38,-256.82 1125.62,-250.17 1115.03,-250.22 1117.38,-256.82"/>
</a>
</g>
</g>
<!-- Node31&#45;&gt;Node2 -->
<g id="edge46_Node000031_Node000002" class="edge">
<title>Node31&#45;&gt;Node2</title>
<g id="a_edge46_Node000031_Node000002"><a xlink:title=" ">
<path fill="none" stroke="#63b8ff" d="M1054.15,-231.8C1106.51,-223.86 1188.64,-210.5 1259,-195 1329.45,-179.48 1410.42,-156.57 1456.86,-142.92"/>
<polygon fill="#63b8ff" stroke="#63b8ff" points="1457.91,-146.26 1466.51,-140.08 1455.93,-139.55 1457.91,-146.26"/>
</a>
</g>
</g>
<!-- Node31&#45;&gt;Node3 -->
<g id="edge51_Node000031_Node000003" class="edge">
<title>Node31&#45;&gt;Node3</title>
<g id="a_edge51_Node000031_Node000003"><a xlink:title=" ">
<path fill="none" stroke="#63b8ff" d="M1036,-230.94C1069.57,-222.53 1121.56,-208.95 1166,-195 1283.06,-158.25 1419.44,-106.53 1479.68,-83.23"/>
<polygon fill="#63b8ff" stroke="#63b8ff" points="1480.96,-86.49 1489.01,-79.61 1478.42,-79.96 1480.96,-86.49"/>
</a>
</g>
</g>
<!-- Node31&#45;&gt;Node5 -->
<g id="edge45_Node000031_Node000005" class="edge">
<title>Node31&#45;&gt;Node5</title>
<g id="a_edge45_Node000031_Node000005"><a xlink:title=" ">
<path fill="none" stroke="#63b8ff" d="M1054.07,-233.4C1120.07,-225.59 1236.13,-211.12 1335,-195 1336.3,-194.79 1337.61,-194.57 1338.94,-194.34"/>
<polygon fill="#63b8ff" stroke="#63b8ff" points="1340,-197.71 1349.22,-192.5 1338.76,-190.82 1340,-197.71"/>
</a>
</g>
</g>
<!-- Node31&#45;&gt;Node10 -->
<g id="edge54_Node000031_Node000010" class="edge">
<title>Node31&#45;&gt;Node10</title>
<g id="a_edge54_Node000031_Node000010"><a xlink:title=" ">
<path fill="none" stroke="#63b8ff" d="M991.57,-230.76C952.46,-194.56 804.84,-58.06 799,-55 755.75,-32.36 701.19,-21.17 660.79,-15.67"/>
<polygon fill="#63b8ff" stroke="#63b8ff" points="661.21,-12.2 650.84,-14.4 660.32,-19.14 661.21,-12.2"/>
</a>
</g>
</g>
<!-- Node31&#45;&gt;Node11 -->
<g id="edge53_Node000031_Node000011" class="edge">
<title>Node31&#45;&gt;Node11</title>
<g id="a_edge53_Node000031_Node000011"><a xlink:title=" ">
<path fill="none" stroke="#63b8ff" d="M982.74,-230.96C937,-209.84 813.51,-154.45 706,-121 636.4,-99.35 611.8,-116.36 546,-85 526.58,-75.74 526.31,-66.31 508,-55 487.68,-42.45 463.25,-31.08 444.25,-22.98"/>
<polygon fill="#63b8ff" stroke="#63b8ff" points="445.44,-19.68 434.86,-19.05 442.73,-26.14 445.44,-19.68"/>
</a>
</g>
</g>
<!-- Node31&#45;&gt;Node12 -->
<g id="edge55_Node000031_Node000012" class="edge">
<title>Node31&#45;&gt;Node12</title>
<g id="a_edge55_Node000031_Node000012"><a xlink:title=" ">
<path fill="none" stroke="#63b8ff" d="M1054.1,-231.4C1075.77,-225.2 1098.81,-214.28 1112,-195 1113.16,-193.31 1113.74,-76.41 1113.93,-29.58"/>
<polygon fill="#63b8ff" stroke="#63b8ff" points="1117.43,-29.32 1113.97,-19.3 1110.43,-29.29 1117.43,-29.32"/>
</a>
</g>
</g>
<!-- Node31&#45;&gt;Node16 -->
<g id="edge52_Node000031_Node000016" class="edge">
<title>Node31&#45;&gt;Node16</title>
<g id="a_edge52_Node000031_Node000016"><a xlink:title=" ">
<path fill="none" stroke="#63b8ff" d="M988.35,-230.88C971.74,-218.48 946.19,-195 960,-176 990.5,-134.05 1026.13,-166.01 1071,-140 1095.2,-125.97 1118.29,-103.21 1132.54,-87.7"/>
<polygon fill="#63b8ff" stroke="#63b8ff" points="1135.43,-89.71 1139.49,-79.93 1130.22,-85.04 1135.43,-89.71"/>
</a>
</g>
</g>
<!-- Node31&#45;&gt;Node22 -->
<g id="edge44_Node000031_Node000022" class="edge">
<title>Node31&#45;&gt;Node22</title>
<g id="a_edge44_Node000031_Node000022"><a xlink:title=" ">
<path fill="none" stroke="#63b8ff" d="M947.94,-231.28C876.79,-220.25 752.52,-200.99 692.86,-191.75"/>
<polygon fill="#63b8ff" stroke="#63b8ff" points="693.25,-188.27 682.84,-190.19 692.18,-195.18 693.25,-188.27"/>
</a>
</g>
</g>
<!-- Node31&#45;&gt;Node24 -->
<g id="edge47_Node000031_Node000024" class="edge">
<title>Node31&#45;&gt;Node24</title>
<g id="a_edge47_Node000031_Node000024"><a xlink:title=" ">
<path fill="none" stroke="#63b8ff" d="M947.75,-235.23C823.74,-225.29 516.84,-200.68 393.04,-190.75"/>
<polygon fill="#63b8ff" stroke="#63b8ff" points="393.29,-187.26 383.04,-189.95 392.73,-194.24 393.29,-187.26"/>
</a>
</g>
</g>
<!-- Node32 -->
<g id="Node000032" class="node">
<title>Node32</title>
<g id="a_Node000032"><a xlink:href="IsVector_8h.html" target="_top" xlink:title="Checks if a type is a vector.">
<polygon fill="white" stroke="#666666" points="1215,-140 1123,-140 1123,-121 1215,-121 1215,-140"/>
<text text-anchor="middle" x="1169" y="-128" font-family="Helvetica,sans-Serif" font-size="10.00">meta/IsVector.h</text>
</a>
</g>
</g>
<!-- Node31&#45;&gt;Node32 -->
<g id="edge48_Node000031_Node000032" class="edge">
<title>Node31&#45;&gt;Node32</title>
<g id="a_edge48_Node000031_Node000032"><a xlink:title=" ">
<path fill="none" stroke="#63b8ff" d="M1042.24,-230.99C1079.26,-222.62 1130.03,-209.07 1145,-195 1157.47,-183.28 1163.51,-164.43 1166.41,-150.31"/>
<polygon fill="#63b8ff" stroke="#63b8ff" points="1169.9,-150.66 1168.12,-140.22 1163,-149.49 1169.9,-150.66"/>
</a>
</g>
</g>
<!-- Node33 -->
<g id="Node000033" class="node">
<title>Node33</title>
<g id="a_Node000033"><a xlink:title=" ">
<polygon fill="#e0e0e0" stroke="#999999" points="1033,-195 969,-195 969,-176 1033,-176 1033,-195"/>
<text text-anchor="middle" x="1001" y="-183" font-family="Helvetica,sans-Serif" font-size="10.00">algorithm</text>
</a>
</g>
</g>
<!-- Node31&#45;&gt;Node33 -->
<g id="edge56_Node000031_Node000033" class="edge">
<title>Node31&#45;&gt;Node33</title>
<g id="a_edge56_Node000031_Node000033"><a xlink:title=" ">
<path fill="none" stroke="#63b8ff" d="M1001,-230.75C1001,-223.8 1001,-213.85 1001,-205.13"/>
<polygon fill="#63b8ff" stroke="#63b8ff" points="1004.5,-205.09 1001,-195.09 997.5,-205.09 1004.5,-205.09"/>
</a>
</g>
</g>
<!-- Node34 -->
<g id="Node000034" class="node">
<title>Node34</title>
<g id="a_Node000034"><a xlink:title=" ">
<polygon fill="#e0e0e0" stroke="#999999" points="1103,-195 1051,-195 1051,-176 1103,-176 1103,-195"/>
<text text-anchor="middle" x="1077" y="-183" font-family="Helvetica,sans-Serif" font-size="10.00">cassert</text>
</a>
</g>
</g>
<!-- Node31&#45;&gt;Node34 -->
<g id="edge57_Node000031_Node000034" class="edge">
<title>Node31&#45;&gt;Node34</title>
<g id="a_edge57_Node000031_Node000034"><a xlink:title=" ">
<path fill="none" stroke="#63b8ff" d="M1013.21,-230.98C1024.78,-222.92 1042.38,-210.65 1056.16,-201.03"/>
<polygon fill="#63b8ff" stroke="#63b8ff" points="1058.37,-203.76 1064.57,-195.17 1054.36,-198.02 1058.37,-203.76"/>
</a>
</g>
</g>
<!-- Node32&#45;&gt;Node12 -->
<g id="edge50_Node000032_Node000012" class="edge">
<title>Node32&#45;&gt;Node12</title>
<g id="a_edge50_Node000032_Node000012"><a xlink:title=" ">
<path fill="none" stroke="#63b8ff" d="M1173.37,-120.65C1179.91,-106.07 1190.32,-76.47 1179,-55 1171.76,-41.27 1158.17,-30.97 1145.28,-23.76"/>
<polygon fill="#63b8ff" stroke="#63b8ff" points="1146.61,-20.51 1136.12,-19.05 1143.41,-26.73 1146.61,-20.51"/>
</a>
</g>
</g>
<!-- Node32&#45;&gt;Node16 -->
<g id="edge49_Node000032_Node000016" class="edge">
<title>Node32&#45;&gt;Node16</title>
<g id="a_edge49_Node000032_Node000016"><a xlink:title=" ">
<path fill="none" stroke="#63b8ff" d="M1165.75,-120.87C1162.63,-112.57 1157.82,-99.78 1153.85,-89.22"/>
<polygon fill="#63b8ff" stroke="#63b8ff" points="1157.06,-87.8 1150.26,-79.67 1150.5,-90.26 1157.06,-87.8"/>
</a>
</g>
</g>
<!-- Node36&#45;&gt;Node10 -->
<g id="edge64_Node000036_Node000010" class="edge">
<title>Node36&#45;&gt;Node10</title>
<g id="a_edge64_Node000036_Node000010"><a xlink:title=" ">
<path fill="none" stroke="#63b8ff" d="M604,-60.37C604,-52.25 604,-39.81 604,-29.39"/>
<polygon fill="#63b8ff" stroke="#63b8ff" points="607.5,-29.17 604,-19.17 600.5,-29.17 607.5,-29.17"/>
</a>
</g>
</g>
<!-- Node36&#45;&gt;Node11 -->
<g id="edge63_Node000036_Node000011" class="edge">
<title>Node36&#45;&gt;Node11</title>
<g id="a_edge63_Node000036_Node000011"><a xlink:title=" ">
<path fill="none" stroke="#63b8ff" d="M576.23,-60.49C541.33,-49.81 481.57,-31.5 444.86,-20.26"/>
<polygon fill="#63b8ff" stroke="#63b8ff" points="445.74,-16.87 435.15,-17.28 443.69,-23.56 445.74,-16.87"/>
</a>
</g>
</g>
</g>
</svg>
