<?xml version="1.0" encoding="UTF-8" standalone="no"?>
<!DOCTYPE svg PUBLIC "-//W3C//DTD SVG 1.1//EN"
 "http://www.w3.org/Graphics/SVG/1.1/DTD/svg11.dtd">
<!-- Generated by graphviz version 2.43.0 (0)
 -->
<!-- Title: /home/runner/work/Catena/Catena/sdks/cpp/common/include/NamedChoiceConstraint.h Pages: 1 -->
<!--zoomable 341 -->
<svg id="main" version="1.1" xmlns="http://www.w3.org/2000/svg" xmlns:xlink="http://www.w3.org/1999/xlink" xml:space="preserve" onload="init(evt)">
<style type="text/css"><![CDATA[
.edge:hover path { stroke: red; }
.edge:hover polygon { stroke: red; fill: red; }
]]></style>
<script type="text/javascript"><![CDATA[
var edges = document.getElementsByTagName('g');
if (edges && edges.length) {
  for (var i=0;i<edges.length;i++) {
    if (edges[i].id.substr(0,4)=='edge') {
      edges[i].setAttribute('class','edge');
    }
  }
}
]]></script>
        <defs>
                <circle id="rim" cx="0" cy="0" r="7"/>
                <circle id="rim2" cx="0" cy="0" r="3.5"/>
                <g id="zoomPlus">
                        <use xlink:href="#rim" fill="#404040">
                                <set attributeName="fill" to="#808080" begin="zoomplus.mouseover" end="zoomplus.mouseout"/>
                        </use>
                        <path d="M-4,0h8M0,-4v8" fill="none" stroke="white" stroke-width="1.5" pointer-events="none"/>
                </g>
                <g id="zoomMin">
                        <use xlink:href="#rim" fill="#404040">
                                <set attributeName="fill" to="#808080" begin="zoomminus.mouseover" end="zoomminus.mouseout"/>
                        </use>
                        <path d="M-4,0h8" fill="none" stroke="white" stroke-width="1.5" pointer-events="none"/>
                </g>
                <g id="dirArrow">
                        <path fill="none" stroke="white" stroke-width="1.5" d="M0,-3.0v7 M-2.5,-0.5L0,-3.0L2.5,-0.5"/>
                </g>
               <g id="resetDef">
                       <use xlink:href="#rim2" fill="#404040">
                               <set attributeName="fill" to="#808080" begin="reset.mouseover" end="reset.mouseout"/>
                       </use>
               </g>
        </defs>

<script type="text/javascript">
var viewWidth = 1983;
var viewHeight = 341;
var sectionId = 'dynsection-0';
</script>
<script xlink:href="svgpan.js"/>
<svg id="graph" class="graph">
<g id="viewport">
<title>/home/runner/work/Catena/Catena/sdks/cpp/common/include/NamedChoiceConstraint.h</title>
<polygon fill="white" stroke="transparent" points="-4,4 -4,-337 1978.5,-337 1978.5,4 -4,4"/>
<!-- Node1 -->
<g id="node1" class="node">
<title>Node1</title>
<g id="a_node1"><a xlink:title="A constraint that checks if a value is within some named choices.">
<polygon fill="#bfbfbf" stroke="black" points="385.5,-291.5 385.5,-332.5 570.5,-332.5 570.5,-291.5 385.5,-291.5"/>
<text text-anchor="start" x="393.5" y="-320.5" font-family="Helvetica,sans-Serif" font-size="10.00">/home/runner/work/Catena</text>
<text text-anchor="start" x="393.5" y="-309.5" font-family="Helvetica,sans-Serif" font-size="10.00">/Catena/sdks/cpp/common</text>
<text text-anchor="middle" x="478" y="-298.5" font-family="Helvetica,sans-Serif" font-size="10.00">/include/NamedChoiceConstraint.h</text>
</a>
</g>
</g>
<!-- Node2 -->
<g id="node2" class="node">
<title>Node2</title>
<g id="a_node2"><a xlink:href="IConstraint_8h.html" target="_top" xlink:title="Interface for constraints.">
<polygon fill="white" stroke="black" points="677.5,-123.5 677.5,-142.5 756.5,-142.5 756.5,-123.5 677.5,-123.5"/>
<text text-anchor="middle" x="717" y="-130.5" font-family="Helvetica,sans-Serif" font-size="10.00">IConstraint.h</text>
</a>
</g>
</g>
<!-- Node1&#45;&gt;Node2 -->
<g id="edge1" class="edge">
<title>Node1&#45;&gt;Node2</title>
<path fill="none" stroke="midnightblue" d="M504.49,-291.38C552.83,-255.58 654.3,-180.44 697.19,-148.67"/>
<polygon fill="midnightblue" stroke="midnightblue" points="699.46,-151.35 705.41,-142.58 695.29,-145.72 699.46,-151.35"/>
</g>
<!-- Node5 -->
<g id="node5" class="node">
<title>Node5</title>
<g id="a_node5"><a xlink:href="IParam_8h.html" target="_top" xlink:title="Interface for parameters.">
<polygon fill="white" stroke="black" points="948.5,-179.5 948.5,-198.5 1007.5,-198.5 1007.5,-179.5 948.5,-179.5"/>
<text text-anchor="middle" x="978" y="-186.5" font-family="Helvetica,sans-Serif" font-size="10.00">IParam.h</text>
</a>
</g>
</g>
<!-- Node1&#45;&gt;Node5 -->
<g id="edge4" class="edge">
<title>Node1&#45;&gt;Node5</title>
<path fill="none" stroke="midnightblue" d="M558.61,-291.49C667.35,-265.18 856.8,-219.33 938.57,-199.54"/>
<polygon fill="midnightblue" stroke="midnightblue" points="939.56,-202.9 948.46,-197.15 937.91,-196.1 939.56,-202.9"/>
</g>
<!-- Node11 -->
<g id="node11" class="node">
<title>Node11</title>
<g id="a_node11"><a xlink:title=" ">
<polygon fill="white" stroke="#bfbfbf" points="687,-6 687,-25 731,-25 731,-6 687,-6"/>
<text text-anchor="middle" x="709" y="-13" font-family="Helvetica,sans-Serif" font-size="10.00">string</text>
</a>
</g>
</g>
<!-- Node1&#45;&gt;Node11 -->
<g id="edge63" class="edge">
<title>Node1&#45;&gt;Node11</title>
<path fill="none" stroke="midnightblue" d="M456.02,-291.44C419.6,-256.57 354.03,-181.82 389,-123 419.23,-72.15 601.1,-35.22 676.4,-21.92"/>
<polygon fill="midnightblue" stroke="midnightblue" points="677.45,-25.29 686.7,-20.13 676.25,-18.39 677.45,-25.29"/>
</g>
<!-- Node22 -->
<g id="node22" class="node">
<title>Node22</title>
<g id="a_node22"><a xlink:href="Tags_8h.html" target="_top" xlink:title="Tags to differentiate collections with the same type for template specialization.">
<polygon fill="white" stroke="black" points="454.5,-179.5 454.5,-198.5 501.5,-198.5 501.5,-179.5 454.5,-179.5"/>
<text text-anchor="middle" x="478" y="-186.5" font-family="Helvetica,sans-Serif" font-size="10.00">Tags.h</text>
</a>
</g>
</g>
<!-- Node1&#45;&gt;Node22 -->
<g id="edge25" class="edge">
<title>Node1&#45;&gt;Node22</title>
<path fill="none" stroke="midnightblue" d="M478,-291.29C478,-268.48 478,-231.19 478,-208.78"/>
<polygon fill="midnightblue" stroke="midnightblue" points="481.5,-208.57 478,-198.57 474.5,-208.57 481.5,-208.57"/>
</g>
<!-- Node24 -->
<g id="node24" class="node">
<title>Node24</title>
<g id="a_node24"><a xlink:href="PolyglotText_8h.html" target="_top" xlink:title="Polyglot Text serialization and deserialization to protobuf.">
<polygon fill="white" stroke="black" points="256,-123.5 256,-142.5 342,-142.5 342,-123.5 256,-123.5"/>
<text text-anchor="middle" x="299" y="-130.5" font-family="Helvetica,sans-Serif" font-size="10.00">PolyglotText.h</text>
</a>
</g>
</g>
<!-- Node1&#45;&gt;Node24 -->
<g id="edge28" class="edge">
<title>Node1&#45;&gt;Node24</title>
<path fill="none" stroke="midnightblue" d="M413.86,-291.43C393.47,-282.8 372.06,-270.91 356,-255 326.53,-225.82 310.44,-178.48 303.4,-152.5"/>
<polygon fill="midnightblue" stroke="midnightblue" points="306.72,-151.33 300.86,-142.51 299.93,-153.06 306.72,-151.33"/>
</g>
<!-- Node26 -->
<g id="node26" class="node">
<title>Node26</title>
<g id="a_node26"><a xlink:title=" ">
<polygon fill="white" stroke="#bfbfbf" points="182.5,-0.5 182.5,-30.5 323.5,-30.5 323.5,-0.5 182.5,-0.5"/>
<text text-anchor="start" x="190.5" y="-18.5" font-family="Helvetica,sans-Serif" font-size="10.00">google/protobuf/message</text>
<text text-anchor="middle" x="253" y="-7.5" font-family="Helvetica,sans-Serif" font-size="10.00">_lite.h</text>
</a>
</g>
</g>
<!-- Node1&#45;&gt;Node26 -->
<g id="edge62" class="edge">
<title>Node1&#45;&gt;Node26</title>
<path fill="none" stroke="midnightblue" d="M385.49,-304.27C256.44,-292.28 38,-261.45 38,-190 38,-190 38,-190 38,-132 38,-68.68 111.26,-39.93 172.25,-26.97"/>
<polygon fill="midnightblue" stroke="midnightblue" points="173.19,-30.35 182.3,-24.94 171.81,-23.48 173.19,-30.35"/>
</g>
<!-- Node27 -->
<g id="node27" class="node">
<title>Node27</title>
<g id="a_node27"><a xlink:title=" ">
<polygon fill="white" stroke="#bfbfbf" points="34.5,-6 34.5,-25 117.5,-25 117.5,-6 34.5,-6"/>
<text text-anchor="middle" x="76" y="-13" font-family="Helvetica,sans-Serif" font-size="10.00">initializer_list</text>
</a>
</g>
</g>
<!-- Node1&#45;&gt;Node27 -->
<g id="edge65" class="edge">
<title>Node1&#45;&gt;Node27</title>
<path fill="none" stroke="midnightblue" d="M385.35,-304.57C283.16,-296.36 126.02,-280.15 72,-255 32.92,-236.8 0,-233.11 0,-190 0,-190 0,-190 0,-132 0,-90.31 34.98,-52.03 57.48,-31.72"/>
<polygon fill="midnightblue" stroke="midnightblue" points="59.86,-34.28 65.11,-25.08 55.27,-29 59.86,-34.28"/>
</g>
<!-- Node29 -->
<g id="node29" class="node">
<title>Node29</title>
<g id="a_node29"><a xlink:href="Device_8h.html" target="_top" xlink:title="Device class definition.">
<polygon fill="white" stroke="black" points="1195.5,-235.5 1195.5,-254.5 1254.5,-254.5 1254.5,-235.5 1195.5,-235.5"/>
<text text-anchor="middle" x="1225" y="-242.5" font-family="Helvetica,sans-Serif" font-size="10.00">Device.h</text>
</a>
</g>
</g>
<!-- Node1&#45;&gt;Node29 -->
<g id="edge38" class="edge">
<title>Node1&#45;&gt;Node29</title>
<path fill="none" stroke="midnightblue" d="M570.72,-302.93C734.79,-288.66 1069.8,-259.5 1185.02,-249.48"/>
<polygon fill="midnightblue" stroke="midnightblue" points="1185.5,-252.95 1195.16,-248.6 1184.89,-245.98 1185.5,-252.95"/>
</g>
<!-- Node37 -->
<g id="node37" class="node">
<title>Node37</title>
<g id="a_node37"><a xlink:title=" ">
<polygon fill="white" stroke="#bfbfbf" points="1273,-235.5 1273,-254.5 1359,-254.5 1359,-235.5 1273,-235.5"/>
<text text-anchor="middle" x="1316" y="-242.5" font-family="Helvetica,sans-Serif" font-size="10.00">unordered_set</text>
</a>
</g>
</g>
<!-- Node1&#45;&gt;Node37 -->
<g id="edge64" class="edge">
<title>Node1&#45;&gt;Node37</title>
<path fill="none" stroke="midnightblue" d="M570.55,-307.41C715.86,-301.12 1006.51,-285.84 1262.67,-255.04"/>
<polygon fill="midnightblue" stroke="midnightblue" points="1263.41,-258.48 1272.92,-253.8 1262.57,-251.53 1263.41,-258.48"/>
</g>
<!-- Node3 -->
<g id="node3" class="node">
<title>Node3</title>
<g id="a_node3"><a xlink:title=" ">
<polygon fill="white" stroke="#bfbfbf" points="706.5,-67.5 706.5,-86.5 825.5,-86.5 825.5,-67.5 706.5,-67.5"/>
<text text-anchor="middle" x="766" y="-74.5" font-family="Helvetica,sans-Serif" font-size="10.00">interface/param.pb.h</text>
</a>
</g>
</g>
<!-- Node2&#45;&gt;Node3 -->
<g id="edge2" class="edge">
<title>Node2&#45;&gt;Node3</title>
<path fill="none" stroke="midnightblue" d="M725.09,-123.08C732.16,-115.3 742.59,-103.8 751.15,-94.37"/>
<polygon fill="midnightblue" stroke="midnightblue" points="753.93,-96.51 758.06,-86.75 748.75,-91.8 753.93,-96.51"/>
</g>
<!-- Node4 -->
<g id="node4" class="node">
<title>Node4</title>
<g id="a_node4"><a xlink:title=" ">
<polygon fill="white" stroke="#bfbfbf" points="552,-67.5 552,-86.5 688,-86.5 688,-67.5 552,-67.5"/>
<text text-anchor="middle" x="620" y="-74.5" font-family="Helvetica,sans-Serif" font-size="10.00">interface/constraint.pb.h</text>
</a>
</g>
</g>
<!-- Node2&#45;&gt;Node4 -->
<g id="edge3" class="edge">
<title>Node2&#45;&gt;Node4</title>
<path fill="none" stroke="midnightblue" d="M701.42,-123.32C686,-114.74 662.19,-101.49 644.29,-91.52"/>
<polygon fill="midnightblue" stroke="midnightblue" points="645.99,-88.46 635.55,-86.65 642.58,-94.58 645.99,-88.46"/>
</g>
<!-- Node5&#45;&gt;Node2 -->
<g id="edge14" class="edge">
<title>Node5&#45;&gt;Node2</title>
<path fill="none" stroke="midnightblue" d="M948.31,-181.86C904.13,-172.72 820.53,-155.42 766.86,-144.32"/>
<polygon fill="midnightblue" stroke="midnightblue" points="767.37,-140.85 756.87,-142.25 765.95,-147.7 767.37,-140.85"/>
</g>
<!-- Node5&#45;&gt;Node3 -->
<g id="edge24" class="edge">
<title>Node5&#45;&gt;Node3</title>
<path fill="none" stroke="midnightblue" d="M961.36,-179.37C924.44,-160.21 835.45,-114.04 791.47,-91.22"/>
<polygon fill="midnightblue" stroke="midnightblue" points="793.05,-88.09 782.56,-86.59 789.82,-94.3 793.05,-88.09"/>
</g>
<!-- Node6 -->
<g id="node6" class="node">
<title>Node6</title>
<g id="a_node6"><a xlink:href="Enums_8h.html" target="_top" xlink:title="tools for using EnumDecorators.">
<polygon fill="white" stroke="black" points="1665.5,-123.5 1665.5,-142.5 1724.5,-142.5 1724.5,-123.5 1665.5,-123.5"/>
<text text-anchor="middle" x="1695" y="-130.5" font-family="Helvetica,sans-Serif" font-size="10.00">Enums.h</text>
</a>
</g>
</g>
<!-- Node5&#45;&gt;Node6 -->
<g id="edge5" class="edge">
<title>Node5&#45;&gt;Node6</title>
<path fill="none" stroke="midnightblue" d="M1007.72,-180.62C1010.84,-180.01 1013.98,-179.45 1017,-179 1141.45,-160.63 1529.15,-141.63 1655.06,-135.81"/>
<polygon fill="midnightblue" stroke="midnightblue" points="1655.56,-139.29 1665.39,-135.33 1655.24,-132.29 1655.56,-139.29"/>
</g>
<!-- Node14 -->
<g id="node14" class="node">
<title>Node14</title>
<g id="a_node14"><a xlink:href="Path_8h.html" target="_top" xlink:title="Handles Path objects used to uniquely identify and access OIDs.">
<polygon fill="white" stroke="black" points="1066.5,-123.5 1066.5,-142.5 1113.5,-142.5 1113.5,-123.5 1066.5,-123.5"/>
<text text-anchor="middle" x="1090" y="-130.5" font-family="Helvetica,sans-Serif" font-size="10.00">Path.h</text>
</a>
</g>
</g>
<!-- Node5&#45;&gt;Node14 -->
<g id="edge15" class="edge">
<title>Node5&#45;&gt;Node14</title>
<path fill="none" stroke="midnightblue" d="M995.99,-179.32C1014.04,-170.62 1042.05,-157.12 1062.8,-147.11"/>
<polygon fill="midnightblue" stroke="midnightblue" points="1064.56,-150.15 1072.05,-142.65 1061.52,-143.84 1064.56,-150.15"/>
</g>
<!-- Node19 -->
<g id="node19" class="node">
<title>Node19</title>
<g id="a_node19"><a xlink:href="Status_8h.html" target="_top" xlink:title="Communicates failure status using gRPC&#39;s codes.">
<polygon fill="white" stroke="black" points="1410,-123.5 1410,-142.5 1466,-142.5 1466,-123.5 1410,-123.5"/>
<text text-anchor="middle" x="1438" y="-130.5" font-family="Helvetica,sans-Serif" font-size="10.00">Status.h</text>
</a>
</g>
</g>
<!-- Node5&#45;&gt;Node19 -->
<g id="edge21" class="edge">
<title>Node5&#45;&gt;Node19</title>
<path fill="none" stroke="midnightblue" d="M1007.74,-180.75C1010.85,-180.11 1013.98,-179.51 1017,-179 1156.91,-155.47 1325.16,-141.84 1399.49,-136.56"/>
<polygon fill="midnightblue" stroke="midnightblue" points="1400.03,-140.03 1409.76,-135.84 1399.54,-133.05 1400.03,-140.03"/>
</g>
<!-- Node7 -->
<g id="node7" class="node">
<title>Node7</title>
<g id="a_node7"><a xlink:href="EnumDecorator_8h.html" target="_top" xlink:title="Provides an enum with useful extra functionality.">
<polygon fill="white" stroke="black" points="1623,-67.5 1623,-86.5 1767,-86.5 1767,-67.5 1623,-67.5"/>
<text text-anchor="middle" x="1695" y="-74.5" font-family="Helvetica,sans-Serif" font-size="10.00">patterns/EnumDecorator.h</text>
</a>
</g>
</g>
<!-- Node6&#45;&gt;Node7 -->
<g id="edge6" class="edge">
<title>Node6&#45;&gt;Node7</title>
<path fill="none" stroke="midnightblue" d="M1695,-123.08C1695,-116.01 1695,-105.86 1695,-96.99"/>
<polygon fill="midnightblue" stroke="midnightblue" points="1698.5,-96.75 1695,-86.75 1691.5,-96.75 1698.5,-96.75"/>
</g>
<!-- Node9 -->
<g id="node9" class="node">
<title>Node9</title>
<g id="a_node9"><a xlink:title=" ">
<polygon fill="white" stroke="#bfbfbf" points="1769,-6 1769,-25 1819,-25 1819,-6 1769,-6"/>
<text text-anchor="middle" x="1794" y="-13" font-family="Helvetica,sans-Serif" font-size="10.00">cstdint</text>
</a>
</g>
</g>
<!-- Node6&#45;&gt;Node9 -->
<g id="edge13" class="edge">
<title>Node6&#45;&gt;Node9</title>
<path fill="none" stroke="midnightblue" d="M1721.74,-123.49C1739.64,-116.45 1762.35,-104.71 1776,-87 1787.43,-72.17 1791.66,-50.88 1793.19,-35.58"/>
<polygon fill="midnightblue" stroke="midnightblue" points="1796.71,-35.48 1793.92,-25.26 1789.73,-34.99 1796.71,-35.48"/>
</g>
<!-- Node13 -->
<g id="node13" class="node">
<title>Node13</title>
<g id="a_node13"><a xlink:title=" ">
<polygon fill="white" stroke="#bfbfbf" points="1823.5,-67.5 1823.5,-86.5 1942.5,-86.5 1942.5,-67.5 1823.5,-67.5"/>
<text text-anchor="middle" x="1883" y="-74.5" font-family="Helvetica,sans-Serif" font-size="10.00">interface/device.pb.h</text>
</a>
</g>
</g>
<!-- Node6&#45;&gt;Node13 -->
<g id="edge12" class="edge">
<title>Node6&#45;&gt;Node13</title>
<path fill="none" stroke="midnightblue" d="M1724.79,-123.44C1756.83,-114.24 1807.93,-99.56 1843.35,-89.39"/>
<polygon fill="midnightblue" stroke="midnightblue" points="1844.71,-92.64 1853.35,-86.52 1842.77,-85.91 1844.71,-92.64"/>
</g>
<!-- Node8 -->
<g id="node8" class="node">
<title>Node8</title>
<g id="a_node8"><a xlink:href="ReflectionMacros_8h_source.html" target="_top" xlink:title=" ">
<polygon fill="white" stroke="black" points="1640,-6 1640,-25 1750,-25 1750,-6 1640,-6"/>
<text text-anchor="middle" x="1695" y="-13" font-family="Helvetica,sans-Serif" font-size="10.00">ReflectionMacros.h</text>
</a>
</g>
</g>
<!-- Node7&#45;&gt;Node8 -->
<g id="edge7" class="edge">
<title>Node7&#45;&gt;Node8</title>
<path fill="none" stroke="midnightblue" d="M1695,-67.48C1695,-59.08 1695,-45.98 1695,-35.16"/>
<polygon fill="midnightblue" stroke="midnightblue" points="1698.5,-35.01 1695,-25.01 1691.5,-35.01 1698.5,-35.01"/>
</g>
<!-- Node7&#45;&gt;Node9 -->
<g id="edge8" class="edge">
<title>Node7&#45;&gt;Node9</title>
<path fill="none" stroke="midnightblue" d="M1709.18,-67.48C1725.36,-57.75 1752.03,-41.73 1771.14,-30.24"/>
<polygon fill="midnightblue" stroke="midnightblue" points="1773.07,-33.16 1779.84,-25.01 1769.47,-27.16 1773.07,-33.16"/>
</g>
<!-- Node10 -->
<g id="node10" class="node">
<title>Node10</title>
<g id="a_node10"><a xlink:title=" ">
<polygon fill="white" stroke="#bfbfbf" points="1269.5,-6 1269.5,-25 1362.5,-25 1362.5,-6 1269.5,-6"/>
<text text-anchor="middle" x="1316" y="-13" font-family="Helvetica,sans-Serif" font-size="10.00">unordered_map</text>
</a>
</g>
</g>
<!-- Node7&#45;&gt;Node10 -->
<g id="edge9" class="edge">
<title>Node7&#45;&gt;Node10</title>
<path fill="none" stroke="midnightblue" d="M1640.7,-67.48C1569.59,-56.31 1445.48,-36.83 1373.04,-25.46"/>
<polygon fill="midnightblue" stroke="midnightblue" points="1373.16,-21.93 1362.74,-23.84 1372.08,-28.85 1373.16,-21.93"/>
</g>
<!-- Node7&#45;&gt;Node11 -->
<g id="edge10" class="edge">
<title>Node7&#45;&gt;Node11</title>
<path fill="none" stroke="midnightblue" d="M1622.6,-67.76C1619.69,-67.49 1616.82,-67.24 1614,-67 1272.98,-38.56 858.3,-22 741.17,-17.66"/>
<polygon fill="midnightblue" stroke="midnightblue" points="741.2,-14.15 731.08,-17.28 740.95,-21.15 741.2,-14.15"/>
</g>
<!-- Node12 -->
<g id="node12" class="node">
<title>Node12</title>
<g id="a_node12"><a xlink:title=" ">
<polygon fill="white" stroke="#bfbfbf" points="1905.5,-6 1905.5,-25 1974.5,-25 1974.5,-6 1905.5,-6"/>
<text text-anchor="middle" x="1940" y="-13" font-family="Helvetica,sans-Serif" font-size="10.00">type_traits</text>
</a>
</g>
</g>
<!-- Node7&#45;&gt;Node12 -->
<g id="edge11" class="edge">
<title>Node7&#45;&gt;Node12</title>
<path fill="none" stroke="midnightblue" d="M1730.1,-67.48C1773.62,-56.91 1847.83,-38.88 1895.35,-27.34"/>
<polygon fill="midnightblue" stroke="midnightblue" points="1896.47,-30.67 1905.36,-24.91 1894.81,-23.87 1896.47,-30.67"/>
</g>
<!-- Node14&#45;&gt;Node11 -->
<g id="edge17" class="edge">
<title>Node14&#45;&gt;Node11</title>
<path fill="none" stroke="midnightblue" d="M1083,-123.13C1071.12,-108.74 1045.49,-80.59 1017,-67 923.99,-22.64 799.21,-16.32 741.18,-16"/>
<polygon fill="midnightblue" stroke="midnightblue" points="741.14,-12.5 731.14,-16 741.14,-19.5 741.14,-12.5"/>
</g>
<!-- Node15 -->
<g id="node15" class="node">
<title>Node15</title>
<g id="a_node15"><a xlink:title=" ">
<polygon fill="white" stroke="#bfbfbf" points="1210,-67.5 1210,-86.5 1270,-86.5 1270,-67.5 1210,-67.5"/>
<text text-anchor="middle" x="1240" y="-74.5" font-family="Helvetica,sans-Serif" font-size="10.00">iostream</text>
</a>
</g>
</g>
<!-- Node14&#45;&gt;Node15 -->
<g id="edge16" class="edge">
<title>Node14&#45;&gt;Node15</title>
<path fill="none" stroke="midnightblue" d="M1113.77,-123.44C1138.89,-114.4 1178.71,-100.06 1206.9,-89.92"/>
<polygon fill="midnightblue" stroke="midnightblue" points="1208.12,-93.2 1216.34,-86.52 1205.75,-86.61 1208.12,-93.2"/>
</g>
<!-- Node16 -->
<g id="node16" class="node">
<title>Node16</title>
<g id="a_node16"><a xlink:title=" ">
<polygon fill="white" stroke="#bfbfbf" points="960.5,-67.5 960.5,-86.5 1007.5,-86.5 1007.5,-67.5 960.5,-67.5"/>
<text text-anchor="middle" x="984" y="-74.5" font-family="Helvetica,sans-Serif" font-size="10.00">vector</text>
</a>
</g>
</g>
<!-- Node14&#45;&gt;Node16 -->
<g id="edge18" class="edge">
<title>Node14&#45;&gt;Node16</title>
<path fill="none" stroke="midnightblue" d="M1072.97,-123.32C1055.97,-114.66 1029.62,-101.24 1010.01,-91.25"/>
<polygon fill="midnightblue" stroke="midnightblue" points="1011.49,-88.08 1000.99,-86.65 1008.31,-94.31 1011.49,-88.08"/>
</g>
<!-- Node17 -->
<g id="node17" class="node">
<title>Node17</title>
<g id="a_node17"><a xlink:title=" ">
<polygon fill="white" stroke="#bfbfbf" points="1064.5,-67.5 1064.5,-86.5 1115.5,-86.5 1115.5,-67.5 1064.5,-67.5"/>
<text text-anchor="middle" x="1090" y="-74.5" font-family="Helvetica,sans-Serif" font-size="10.00">variant</text>
</a>
</g>
</g>
<!-- Node14&#45;&gt;Node17 -->
<g id="edge19" class="edge">
<title>Node14&#45;&gt;Node17</title>
<path fill="none" stroke="midnightblue" d="M1090,-123.08C1090,-116.01 1090,-105.86 1090,-96.99"/>
<polygon fill="midnightblue" stroke="midnightblue" points="1093.5,-96.75 1090,-86.75 1086.5,-96.75 1093.5,-96.75"/>
</g>
<!-- Node18 -->
<g id="node18" class="node">
<title>Node18</title>
<g id="a_node18"><a xlink:title=" ">
<polygon fill="white" stroke="#bfbfbf" points="1134,-67.5 1134,-86.5 1192,-86.5 1192,-67.5 1134,-67.5"/>
<text text-anchor="middle" x="1163" y="-74.5" font-family="Helvetica,sans-Serif" font-size="10.00">memory</text>
</a>
</g>
</g>
<!-- Node14&#45;&gt;Node18 -->
<g id="edge20" class="edge">
<title>Node14&#45;&gt;Node18</title>
<path fill="none" stroke="midnightblue" d="M1101.73,-123.32C1112.84,-115.11 1129.74,-102.6 1142.98,-92.81"/>
<polygon fill="midnightblue" stroke="midnightblue" points="1145.1,-95.59 1151.06,-86.83 1140.94,-89.97 1145.1,-95.59"/>
</g>
<!-- Node20 -->
<g id="node20" class="node">
<title>Node20</title>
<g id="a_node20"><a xlink:title=" ">
<polygon fill="white" stroke="#bfbfbf" points="1362,-67.5 1362,-86.5 1418,-86.5 1418,-67.5 1362,-67.5"/>
<text text-anchor="middle" x="1390" y="-74.5" font-family="Helvetica,sans-Serif" font-size="10.00">sstream</text>
</a>
</g>
</g>
<!-- Node19&#45;&gt;Node20 -->
<g id="edge22" class="edge">
<title>Node19&#45;&gt;Node20</title>
<path fill="none" stroke="midnightblue" d="M1430.07,-123.08C1423.15,-115.3 1412.93,-103.8 1404.55,-94.37"/>
<polygon fill="midnightblue" stroke="midnightblue" points="1407.04,-91.9 1397.78,-86.75 1401.81,-96.55 1407.04,-91.9"/>
</g>
<!-- Node21 -->
<g id="node21" class="node">
<title>Node21</title>
<g id="a_node21"><a xlink:title=" ">
<polygon fill="white" stroke="#bfbfbf" points="1436.5,-67.5 1436.5,-86.5 1501.5,-86.5 1501.5,-67.5 1436.5,-67.5"/>
<text text-anchor="middle" x="1469" y="-74.5" font-family="Helvetica,sans-Serif" font-size="10.00">stdexcept</text>
</a>
</g>
</g>
<!-- Node19&#45;&gt;Node21 -->
<g id="edge23" class="edge">
<title>Node19&#45;&gt;Node21</title>
<path fill="none" stroke="midnightblue" d="M1443.12,-123.08C1447.41,-115.61 1453.66,-104.72 1458.94,-95.52"/>
<polygon fill="midnightblue" stroke="midnightblue" points="1462.03,-97.17 1463.98,-86.75 1455.96,-93.68 1462.03,-97.17"/>
</g>
<!-- Node22&#45;&gt;Node11 -->
<g id="edge27" class="edge">
<title>Node22&#45;&gt;Node11</title>
<path fill="none" stroke="midnightblue" d="M477.54,-179.24C476.87,-157.08 478.34,-98.34 510,-67 533.41,-43.82 626.77,-27.79 676.86,-20.66"/>
<polygon fill="midnightblue" stroke="midnightblue" points="677.42,-24.12 686.85,-19.28 676.46,-17.18 677.42,-24.12"/>
</g>
<!-- Node23 -->
<g id="node23" class="node">
<title>Node23</title>
<g id="a_node23"><a xlink:title=" ">
<polygon fill="white" stroke="#bfbfbf" points="398.5,-123.5 398.5,-142.5 463.5,-142.5 463.5,-123.5 398.5,-123.5"/>
<text text-anchor="middle" x="431" y="-130.5" font-family="Helvetica,sans-Serif" font-size="10.00">functional</text>
</a>
</g>
</g>
<!-- Node22&#45;&gt;Node23 -->
<g id="edge26" class="edge">
<title>Node22&#45;&gt;Node23</title>
<path fill="none" stroke="midnightblue" d="M470.24,-179.08C463.46,-171.3 453.46,-159.8 445.24,-150.37"/>
<polygon fill="midnightblue" stroke="midnightblue" points="447.82,-148 438.62,-142.75 442.54,-152.59 447.82,-148"/>
</g>
<!-- Node24&#45;&gt;Node10 -->
<g id="edge36" class="edge">
<title>Node24&#45;&gt;Node10</title>
<path fill="none" stroke="midnightblue" d="M324.64,-123.39C368.7,-109 461.89,-80.32 543,-67 808.26,-23.43 1130.54,-17.11 1259.09,-16.44"/>
<polygon fill="midnightblue" stroke="midnightblue" points="1259.48,-19.93 1269.46,-16.39 1259.45,-12.93 1259.48,-19.93"/>
</g>
<!-- Node24&#45;&gt;Node11 -->
<g id="edge35" class="edge">
<title>Node24&#45;&gt;Node11</title>
<path fill="none" stroke="midnightblue" d="M308.65,-123.41C325.23,-109.17 360.73,-80.89 396,-67 493.39,-28.64 618.8,-19.41 676.87,-17.19"/>
<polygon fill="midnightblue" stroke="midnightblue" points="677.03,-20.69 686.9,-16.85 676.79,-13.69 677.03,-20.69"/>
</g>
<!-- Node25 -->
<g id="node25" class="node">
<title>Node25</title>
<g id="a_node25"><a xlink:href="IPolyglotText_8h.html" target="_top" xlink:title="Catena&#39;s multi&#45;language text interface.">
<polygon fill="white" stroke="black" points="254.5,-67.5 254.5,-86.5 343.5,-86.5 343.5,-67.5 254.5,-67.5"/>
<text text-anchor="middle" x="299" y="-74.5" font-family="Helvetica,sans-Serif" font-size="10.00">IPolyglotText.h</text>
</a>
</g>
</g>
<!-- Node24&#45;&gt;Node25 -->
<g id="edge29" class="edge">
<title>Node24&#45;&gt;Node25</title>
<path fill="none" stroke="midnightblue" d="M299,-123.08C299,-116.01 299,-105.86 299,-96.99"/>
<polygon fill="midnightblue" stroke="midnightblue" points="302.5,-96.75 299,-86.75 295.5,-96.75 302.5,-96.75"/>
</g>
<!-- Node24&#45;&gt;Node27 -->
<g id="edge37" class="edge">
<title>Node24&#45;&gt;Node27</title>
<path fill="none" stroke="midnightblue" d="M255.73,-127.71C202.88,-121.6 117.69,-108.67 95,-87 81.13,-73.76 77.02,-51.55 75.97,-35.59"/>
<polygon fill="midnightblue" stroke="midnightblue" points="79.46,-35.19 75.66,-25.3 72.47,-35.4 79.46,-35.19"/>
</g>
<!-- Node28 -->
<g id="node28" class="node">
<title>Node28</title>
<g id="a_node28"><a xlink:title=" ">
<polygon fill="white" stroke="#bfbfbf" points="104,-67.5 104,-86.5 236,-86.5 236,-67.5 104,-67.5"/>
<text text-anchor="middle" x="170" y="-74.5" font-family="Helvetica,sans-Serif" font-size="10.00">interface/language.pb.h</text>
</a>
</g>
</g>
<!-- Node24&#45;&gt;Node28 -->
<g id="edge34" class="edge">
<title>Node24&#45;&gt;Node28</title>
<path fill="none" stroke="midnightblue" d="M278.56,-123.44C257.33,-114.56 223.9,-100.56 199.75,-90.45"/>
<polygon fill="midnightblue" stroke="midnightblue" points="200.92,-87.15 190.34,-86.52 198.22,-93.61 200.92,-87.15"/>
</g>
<!-- Node25&#45;&gt;Node10 -->
<g id="edge31" class="edge">
<title>Node25&#45;&gt;Node10</title>
<path fill="none" stroke="midnightblue" d="M343.69,-72.92C369.98,-71.13 403.87,-68.87 434,-67 745.38,-47.71 1118.78,-27.19 1259.05,-19.58"/>
<polygon fill="midnightblue" stroke="midnightblue" points="1259.34,-23.06 1269.14,-19.03 1258.96,-16.07 1259.34,-23.06"/>
</g>
<!-- Node25&#45;&gt;Node11 -->
<g id="edge32" class="edge">
<title>Node25&#45;&gt;Node11</title>
<path fill="none" stroke="midnightblue" d="M343.77,-69.13C348.57,-68.4 353.39,-67.68 358,-67 475.44,-49.59 615.12,-29.76 676.9,-21.03"/>
<polygon fill="midnightblue" stroke="midnightblue" points="677.4,-24.49 686.81,-19.63 676.42,-17.56 677.4,-24.49"/>
</g>
<!-- Node25&#45;&gt;Node26 -->
<g id="edge30" class="edge">
<title>Node25&#45;&gt;Node26</title>
<path fill="none" stroke="midnightblue" d="M292.41,-67.48C286.59,-59.94 277.84,-48.63 270.06,-38.57"/>
<polygon fill="midnightblue" stroke="midnightblue" points="272.73,-36.29 263.84,-30.52 267.19,-40.58 272.73,-36.29"/>
</g>
<!-- Node25&#45;&gt;Node27 -->
<g id="edge33" class="edge">
<title>Node25&#45;&gt;Node27</title>
<path fill="none" stroke="midnightblue" d="M267.05,-67.48C227.8,-57 161.12,-39.21 117.83,-27.66"/>
<polygon fill="midnightblue" stroke="midnightblue" points="118.46,-24.21 107.89,-25.01 116.65,-30.97 118.46,-24.21"/>
</g>
<!-- Node29&#45;&gt;Node5 -->
<g id="edge42" class="edge">
<title>Node29&#45;&gt;Node5</title>
<path fill="none" stroke="midnightblue" d="M1195.35,-237.72C1156.79,-229.52 1087.09,-214.6 1017.6,-199.11"/>
<polygon fill="midnightblue" stroke="midnightblue" points="1018.32,-195.69 1007.8,-196.92 1016.8,-202.52 1018.32,-195.69"/>
</g>
<!-- Node29&#45;&gt;Node6 -->
<g id="edge40" class="edge">
<title>Node29&#45;&gt;Node6</title>
<path fill="none" stroke="midnightblue" d="M1254.75,-236.81C1257.86,-236.16 1260.99,-235.54 1264,-235 1388.82,-212.72 1424.81,-232.84 1547,-199 1592.44,-186.42 1641.98,-162.35 1670.67,-147.3"/>
<polygon fill="midnightblue" stroke="midnightblue" points="1672.38,-150.35 1679.56,-142.57 1669.09,-144.17 1672.38,-150.35"/>
</g>
<!-- Node29&#45;&gt;Node10 -->
<g id="edge55" class="edge">
<title>Node29&#45;&gt;Node10</title>
<path fill="none" stroke="midnightblue" d="M1254.73,-236.72C1257.85,-236.08 1260.98,-235.49 1264,-235 1418.34,-209.77 1861.57,-214.59 1952,-87 1957.14,-79.75 1958.03,-73.53 1952,-67 1932.46,-45.85 1524.92,-25.73 1372.7,-18.93"/>
<polygon fill="midnightblue" stroke="midnightblue" points="1372.76,-15.43 1362.61,-18.48 1372.45,-22.42 1372.76,-15.43"/>
</g>
<!-- Node29&#45;&gt;Node11 -->
<g id="edge56" class="edge">
<title>Node29&#45;&gt;Node11</title>
<path fill="none" stroke="midnightblue" d="M1195.17,-242.36C1073.33,-234.95 616.32,-199.83 543,-87 510.3,-36.68 619.59,-22.19 676.61,-18.09"/>
<polygon fill="midnightblue" stroke="midnightblue" points="677.18,-21.56 686.93,-17.42 676.72,-14.57 677.18,-21.56"/>
</g>
<!-- Node29&#45;&gt;Node12 -->
<g id="edge60" class="edge">
<title>Node29&#45;&gt;Node12</title>
<path fill="none" stroke="midnightblue" d="M1254.72,-236.67C1257.84,-236.04 1260.98,-235.47 1264,-235 1550.15,-190.65 1657.16,-285.92 1909,-143 1940.44,-125.16 1953.73,-120.22 1968,-87 1975.83,-68.76 1964.74,-47.56 1954.29,-33.21"/>
<polygon fill="midnightblue" stroke="midnightblue" points="1956.96,-30.95 1948.04,-25.25 1951.46,-35.27 1956.96,-30.95"/>
</g>
<!-- Node29&#45;&gt;Node13 -->
<g id="edge54" class="edge">
<title>Node29&#45;&gt;Node13</title>
<path fill="none" stroke="midnightblue" d="M1254.74,-236.76C1257.86,-236.12 1260.99,-235.51 1264,-235 1406.83,-210.67 1447.21,-233.22 1588,-199 1655.53,-182.58 1669.69,-169.35 1734,-143 1776.23,-125.7 1824.57,-104.32 1854.44,-90.91"/>
<polygon fill="midnightblue" stroke="midnightblue" points="1856.15,-93.99 1863.83,-86.69 1853.27,-87.6 1856.15,-93.99"/>
</g>
<!-- Node29&#45;&gt;Node14 -->
<g id="edge39" class="edge">
<title>Node29&#45;&gt;Node14</title>
<path fill="none" stroke="midnightblue" d="M1254.57,-236.97C1306.05,-224.7 1406.8,-200.53 1408,-199 1413.48,-192 1413.83,-185.71 1408,-179 1371.5,-136.97 1198.47,-133.13 1124.1,-133.47"/>
<polygon fill="midnightblue" stroke="midnightblue" points="1123.85,-129.97 1113.87,-133.55 1123.9,-136.97 1123.85,-129.97"/>
</g>
<!-- Node29&#45;&gt;Node16 -->
<g id="edge58" class="edge">
<title>Node29&#45;&gt;Node16</title>
<path fill="none" stroke="midnightblue" d="M1195.22,-243.96C1128.97,-243.16 972.62,-237.18 940,-199 913.39,-167.85 947.43,-119.28 968.92,-94.2"/>
<polygon fill="midnightblue" stroke="midnightblue" points="971.6,-96.46 975.62,-86.66 966.37,-91.81 971.6,-96.46"/>
</g>
<!-- Node29&#45;&gt;Node19 -->
<g id="edge47" class="edge">
<title>Node29&#45;&gt;Node19</title>
<path fill="none" stroke="midnightblue" d="M1254.81,-237.1C1257.91,-236.39 1261.02,-235.68 1264,-235 1335.07,-218.81 1372.7,-250.78 1424,-199 1435.92,-186.97 1438.78,-167.37 1439.04,-152.83"/>
<polygon fill="midnightblue" stroke="midnightblue" points="1442.53,-152.42 1438.82,-142.5 1435.54,-152.57 1442.53,-152.42"/>
</g>
<!-- Node29&#45;&gt;Node22 -->
<g id="edge46" class="edge">
<title>Node29&#45;&gt;Node22</title>
<path fill="none" stroke="midnightblue" d="M1195.43,-243.91C1097.85,-243.23 777.36,-237.96 516,-199 514.53,-198.78 513.04,-198.53 511.53,-198.27"/>
<polygon fill="midnightblue" stroke="midnightblue" points="512.09,-194.81 501.6,-196.24 510.7,-201.67 512.09,-194.81"/>
</g>
<!-- Node30 -->
<g id="node30" class="node">
<title>Node30</title>
<g id="a_node30"><a xlink:title=" ">
<polygon fill="white" stroke="#bfbfbf" points="1025.5,-179.5 1025.5,-198.5 1106.5,-198.5 1106.5,-179.5 1025.5,-179.5"/>
<text text-anchor="middle" x="1066" y="-186.5" font-family="Helvetica,sans-Serif" font-size="10.00">vdk/signals.h</text>
</a>
</g>
</g>
<!-- Node29&#45;&gt;Node30 -->
<g id="edge41" class="edge">
<title>Node29&#45;&gt;Node30</title>
<path fill="none" stroke="midnightblue" d="M1199.81,-235.44C1173.06,-226.36 1130.6,-211.94 1100.69,-201.78"/>
<polygon fill="midnightblue" stroke="midnightblue" points="1101.67,-198.42 1091.08,-198.52 1099.42,-205.05 1101.67,-198.42"/>
</g>
<!-- Node31 -->
<g id="node31" class="node">
<title>Node31</title>
<g id="a_node31"><a xlink:href="ILanguagePack_8h_source.html" target="_top" xlink:title=" ">
<polygon fill="white" stroke="black" points="844,-67.5 844,-86.5 942,-86.5 942,-67.5 844,-67.5"/>
<text text-anchor="middle" x="893" y="-74.5" font-family="Helvetica,sans-Serif" font-size="10.00">ILanguagePack.h</text>
</a>
</g>
</g>
<!-- Node29&#45;&gt;Node31 -->
<g id="edge43" class="edge">
<title>Node29&#45;&gt;Node31</title>
<path fill="none" stroke="midnightblue" d="M1211.52,-235.29C1191.2,-222.31 1151.35,-197.47 1116,-179 1048.73,-143.85 966.79,-108.59 923.39,-90.48"/>
<polygon fill="midnightblue" stroke="midnightblue" points="924.55,-87.17 913.97,-86.57 921.86,-93.64 924.55,-87.17"/>
</g>
<!-- Node32 -->
<g id="node32" class="node">
<title>Node32</title>
<g id="a_node32"><a xlink:href="IMenu_8h.html" target="_top" xlink:title="Interface for Menus.">
<polygon fill="white" stroke="black" points="1288,-67.5 1288,-86.5 1344,-86.5 1344,-67.5 1288,-67.5"/>
<text text-anchor="middle" x="1316" y="-74.5" font-family="Helvetica,sans-Serif" font-size="10.00">IMenu.h</text>
</a>
</g>
</g>
<!-- Node29&#45;&gt;Node32 -->
<g id="edge48" class="edge">
<title>Node29&#45;&gt;Node32</title>
<path fill="none" stroke="midnightblue" d="M1214.98,-235.24C1202.06,-222.82 1182.33,-199.35 1192,-179 1211.79,-137.36 1258.07,-107.25 1288.15,-91.23"/>
<polygon fill="midnightblue" stroke="midnightblue" points="1290,-94.21 1297.3,-86.52 1286.8,-87.99 1290,-94.21"/>
</g>
<!-- Node33 -->
<g id="node33" class="node">
<title>Node33</title>
<g id="a_node33"><a xlink:href="IMenuGroup_8h.html" target="_top" xlink:title="Interface for MenuGroup.">
<polygon fill="white" stroke="black" points="1519.5,-67.5 1519.5,-86.5 1604.5,-86.5 1604.5,-67.5 1519.5,-67.5"/>
<text text-anchor="middle" x="1562" y="-74.5" font-family="Helvetica,sans-Serif" font-size="10.00">IMenuGroup.h</text>
</a>
</g>
</g>
<!-- Node29&#45;&gt;Node33 -->
<g id="edge51" class="edge">
<title>Node29&#45;&gt;Node33</title>
<path fill="none" stroke="midnightblue" d="M1254.79,-237.03C1257.9,-236.33 1261.01,-235.65 1264,-235 1343.32,-217.87 1371.63,-237.63 1443,-199 1490.75,-173.16 1531.42,-121.82 1550.45,-95.09"/>
<polygon fill="midnightblue" stroke="midnightblue" points="1553.43,-96.95 1556.26,-86.74 1547.68,-92.95 1553.43,-96.95"/>
</g>
<!-- Node34 -->
<g id="node34" class="node">
<title>Node34</title>
<g id="a_node34"><a xlink:title=" ">
<polygon fill="white" stroke="#bfbfbf" points="1201,-179.5 1201,-198.5 1249,-198.5 1249,-179.5 1201,-179.5"/>
<text text-anchor="middle" x="1225" y="-186.5" font-family="Helvetica,sans-Serif" font-size="10.00">mutex</text>
</a>
</g>
</g>
<!-- Node29&#45;&gt;Node34 -->
<g id="edge57" class="edge">
<title>Node29&#45;&gt;Node34</title>
<path fill="none" stroke="midnightblue" d="M1225,-235.08C1225,-228.01 1225,-217.86 1225,-208.99"/>
<polygon fill="midnightblue" stroke="midnightblue" points="1228.5,-208.75 1225,-198.75 1221.5,-208.75 1228.5,-208.75"/>
</g>
<!-- Node35 -->
<g id="node35" class="node">
<title>Node35</title>
<g id="a_node35"><a xlink:title=" ">
<polygon fill="white" stroke="#bfbfbf" points="1267,-179.5 1267,-198.5 1319,-198.5 1319,-179.5 1267,-179.5"/>
<text text-anchor="middle" x="1293" y="-186.5" font-family="Helvetica,sans-Serif" font-size="10.00">cassert</text>
</a>
</g>
</g>
<!-- Node29&#45;&gt;Node35 -->
<g id="edge59" class="edge">
<title>Node29&#45;&gt;Node35</title>
<path fill="none" stroke="midnightblue" d="M1235.93,-235.32C1246.17,-227.18 1261.72,-214.84 1274,-205.09"/>
<polygon fill="midnightblue" stroke="midnightblue" points="1276.22,-207.79 1281.88,-198.83 1271.87,-202.31 1276.22,-207.79"/>
</g>
<!-- Node36 -->
<g id="node36" class="node">
<title>Node36</title>
<g id="a_node36"><a xlink:title=" ">
<polygon fill="white" stroke="#bfbfbf" points="1337,-179.5 1337,-198.5 1399,-198.5 1399,-179.5 1337,-179.5"/>
<text text-anchor="middle" x="1368" y="-186.5" font-family="Helvetica,sans-Serif" font-size="10.00">coroutine</text>
</a>
</g>
</g>
<!-- Node29&#45;&gt;Node36 -->
<g id="edge61" class="edge">
<title>Node29&#45;&gt;Node36</title>
<path fill="none" stroke="midnightblue" d="M1247.66,-235.44C1271.4,-226.48 1308.91,-212.31 1335.74,-202.18"/>
<polygon fill="midnightblue" stroke="midnightblue" points="1337.33,-205.32 1345.45,-198.52 1334.86,-198.77 1337.33,-205.32"/>
</g>
<!-- Node31&#45;&gt;Node10 -->
<g id="edge45" class="edge">
<title>Node31&#45;&gt;Node10</title>
<path fill="none" stroke="midnightblue" d="M942.25,-68.44C945.55,-67.95 948.82,-67.46 952,-67 1060.61,-51.18 1187.64,-33.82 1259.27,-24.13"/>
<polygon fill="midnightblue" stroke="midnightblue" points="1259.99,-27.56 1269.43,-22.76 1259.05,-20.63 1259.99,-27.56"/>
</g>
<!-- Node31&#45;&gt;Node11 -->
<g id="edge44" class="edge">
<title>Node31&#45;&gt;Node11</title>
<path fill="none" stroke="midnightblue" d="M866.64,-67.48C833.54,-56.77 776.78,-38.42 741.16,-26.9"/>
<polygon fill="midnightblue" stroke="midnightblue" points="741.86,-23.45 731.27,-23.7 739.71,-30.11 741.86,-23.45"/>
</g>
<!-- Node32&#45;&gt;Node10 -->
<g id="edge50" class="edge">
<title>Node32&#45;&gt;Node10</title>
<path fill="none" stroke="midnightblue" d="M1316,-67.48C1316,-59.08 1316,-45.98 1316,-35.16"/>
<polygon fill="midnightblue" stroke="midnightblue" points="1319.5,-35.01 1316,-25.01 1312.5,-35.01 1319.5,-35.01"/>
</g>
<!-- Node32&#45;&gt;Node11 -->
<g id="edge49" class="edge">
<title>Node32&#45;&gt;Node11</title>
<path fill="none" stroke="midnightblue" d="M1287.81,-68.68C1284.85,-68.05 1281.87,-67.47 1279,-67 1075.99,-33.51 828.38,-21.16 741.21,-17.66"/>
<polygon fill="midnightblue" stroke="midnightblue" points="741.29,-14.16 731.16,-17.27 741.01,-21.15 741.29,-14.16"/>
</g>
<!-- Node33&#45;&gt;Node10 -->
<g id="edge53" class="edge">
<title>Node33&#45;&gt;Node10</title>
<path fill="none" stroke="midnightblue" d="M1526.75,-67.48C1483.1,-56.92 1408.66,-38.91 1360.94,-27.37"/>
<polygon fill="midnightblue" stroke="midnightblue" points="1361.72,-23.96 1351.18,-25.01 1360.08,-30.76 1361.72,-23.96"/>
</g>
<!-- Node33&#45;&gt;Node11 -->
<g id="edge52" class="edge">
<title>Node33&#45;&gt;Node11</title>
<path fill="none" stroke="midnightblue" d="M1519.48,-68.13C1516.61,-67.71 1513.77,-67.33 1511,-67 1213.34,-31.48 850.36,-20.01 741.4,-17.24"/>
<polygon fill="midnightblue" stroke="midnightblue" points="741.17,-13.73 731.09,-16.99 741,-20.73 741.17,-13.73"/>
</g>
</g>
</svg>
        <g id="navigator" transform="translate(0 0)" fill="#404254">
                <rect fill="#f2f5e9" fill-opacity="0.5" stroke="#606060" stroke-width=".5" x="0" y="0" width="60" height="60"/>
                <use id="zoomplus" xlink:href="#zoomPlus" x="17" y="9" onmousedown="handleZoom(evt,'in')"/>
                <use id="zoomminus" xlink:href="#zoomMin" x="42" y="9" onmousedown="handleZoom(evt,'out')"/>
                <use id="reset" xlink:href="#resetDef" x="30" y="36" onmousedown="handleReset()"/>
                <g id="arrowUp" xlink:href="#dirArrow" transform="translate(30 24)" onmousedown="handlePan(0,-1)">
                  <use xlink:href="#rim" fill="#404040">
                        <set attributeName="fill" to="#808080" begin="arrowUp.mouseover" end="arrowUp.mouseout"/>
                  </use>
                  <path fill="none" stroke="white" stroke-width="1.5" d="M0,-3.0v7 M-2.5,-0.5L0,-3.0L2.5,-0.5"/>
                </g>
                <g id="arrowRight" xlink:href="#dirArrow" transform="rotate(90) translate(36 -43)" onmousedown="handlePan(1,0)">
                  <use xlink:href="#rim" fill="#404040">
                        <set attributeName="fill" to="#808080" begin="arrowRight.mouseover" end="arrowRight.mouseout"/>
                  </use>
                  <path fill="none" stroke="white" stroke-width="1.5" d="M0,-3.0v7 M-2.5,-0.5L0,-3.0L2.5,-0.5"/>
                </g>
                <g id="arrowDown" xlink:href="#dirArrow" transform="rotate(180) translate(-30 -48)" onmousedown="handlePan(0,1)">
                  <use xlink:href="#rim" fill="#404040">
                        <set attributeName="fill" to="#808080" begin="arrowDown.mouseover" end="arrowDown.mouseout"/>
                  </use>
                  <path fill="none" stroke="white" stroke-width="1.5" d="M0,-3.0v7 M-2.5,-0.5L0,-3.0L2.5,-0.5"/>
                </g>
                <g id="arrowLeft" xlink:href="#dirArrow" transform="rotate(270) translate(-36 17)" onmousedown="handlePan(-1,0)">
                  <use xlink:href="#rim" fill="#404040">
                        <set attributeName="fill" to="#808080" begin="arrowLeft.mouseover" end="arrowLeft.mouseout"/>
                  </use>
                  <path fill="none" stroke="white" stroke-width="1.5" d="M0,-3.0v7 M-2.5,-0.5L0,-3.0L2.5,-0.5"/>
                </g>
        </g>
        <svg viewBox="0 0 15 15" width="100%" height="30px" preserveAspectRatio="xMaxYMin meet">
         <g id="arrow_out" transform="scale(0.3 0.3)">
          <a xlink:href="NamedChoiceConstraint_8h__incl_org.svg" target="_base">
           <rect id="button" ry="5" rx="5" y="6" x="6" height="38" width="38"
                fill="#f2f5e9" fill-opacity="0.5" stroke="#606060" stroke-width="1.0"/>
           <path id="arrow"
             d="M 11.500037,31.436501 C 11.940474,20.09759 22.043105,11.32322 32.158766,21.979434 L 37.068811,17.246167 C 37.068811,17.246167 37.088388,32 37.088388,32 L 22.160133,31.978069 C 22.160133,31.978069 26.997745,27.140456 26.997745,27.140456 C 18.528582,18.264221 13.291696,25.230495 11.500037,31.436501 z"
             style="fill:#404040;"/>
          </a>
         </g>
        </svg>
</svg>
