<?xml version="1.0" encoding="UTF-8" standalone="no"?>
<!DOCTYPE svg PUBLIC "-//W3C//DTD SVG 1.1//EN"
 "http://www.w3.org/Graphics/SVG/1.1/DTD/svg11.dtd">
<!-- Generated by graphviz version 2.43.0 (0)
 -->
<!-- Title: catena::common::validFromProto Pages: 1 -->
<svg width="355pt" height="142pt"
 viewBox="0.00 0.00 355.00 141.50" xmlns="http://www.w3.org/2000/svg" xmlns:xlink="http://www.w3.org/1999/xlink">

<svg id="main" version="1.1" xmlns="http://www.w3.org/2000/svg" xmlns:xlink="http://www.w3.org/1999/xlink" xml:space="preserve" onload="init(evt)">
<style type="text/css"><![CDATA[
.node, .edge {opacity: 0.7;}
.node.selected, .edge.selected {opacity: 1;}
.edge:hover path { stroke: red; }
.edge:hover polygon { stroke: red; fill: red; }
]]></style>
<script type="application/ecmascript" xlink:href="svg.min.js"/>
<svg id="graph" class="graph">
<g id="graph0" class="graph" transform="scale(1 1) rotate(0) translate(4 137.5)">
<title>catena::common::validFromProto</title>
<!-- Node1 -->
<g id="Node000001" class="node">
<title>Node1</title>
<g id="a_Node000001"><a xlink:title=" ">
<polygon fill="#999999" stroke="#666666" points="347,-78 194,-78 194,-48 347,-48 347,-78"/>
<text text-anchor="start" x="202" y="-66" font-family="Helvetica,sans-Serif" font-size="10.00">catena::common::validFrom</text>
<text text-anchor="middle" x="270.5" y="-55" font-family="Helvetica,sans-Serif" font-size="10.00">Proto</text>
</a>
</g>
</g>
<!-- Node1&#45;&gt;Node1 -->
<g id="edge5_Node000001_Node000001" class="edge">
<title>Node1&#45;&gt;Node1</title>
<g id="a_edge5_Node000001_Node000001"><a xlink:title=" ">
<path fill="none" stroke="#63b8ff" d="M303.76,-88.6C299.21,-92.97 288.13,-96 270.5,-96 240.81,-96 229.68,-87.41 237.1,-78.28"/>
<polygon fill="#63b8ff" stroke="#63b8ff" points="307.26,-88.32 303.9,-78.28 300.26,-88.23 307.26,-88.32"/>
</a>
</g>
</g>
<!-- Node2 -->
<g id="Node000002" class="node">
<title>Node2</title>
<g id="a_Node000002"><a xlink:href="namespacecatena_1_1common.html#a5ad5f48a946620a675877d2301531370" target="_top" xlink:title=" ">
<polygon fill="white" stroke="#666666" points="155.5,-115.5 2.5,-115.5 2.5,-96.5 155.5,-96.5 155.5,-115.5"/>
<text text-anchor="middle" x="79" y="-103.5" font-family="Helvetica,sans-Serif" font-size="10.00">catena::common::fromProto</text>
</a>
</g>
</g>
<!-- Node1&#45;&gt;Node2 -->
<g id="edge1_Node000001_Node000002" class="edge">
<title>Node1&#45;&gt;Node2</title>
<g id="a_edge1_Node000001_Node000002"><a xlink:title=" ">
<path fill="none" stroke="#63b8ff" d="M193.28,-80.3C168.95,-85.82 142.93,-91.72 121.96,-96.48"/>
<polygon fill="#63b8ff" stroke="#63b8ff" points="194.24,-83.67 203.22,-78.04 192.7,-76.84 194.24,-83.67"/>
</a>
</g>
</g>
<!-- Node3 -->
<g id="Node000003" class="node">
<title>Node3</title>
<g id="a_Node000003"><a xlink:href="classcatena_1_1common_1_1ParamWithValue.html#a93a1437fd14b795386ca38db3db5facd" target="_top" xlink:title="Insert/append value to array overload of validateSetValue_.">
<polygon fill="white" stroke="#666666" points="158,-78 0,-78 0,-48 158,-48 158,-78"/>
<text text-anchor="start" x="8" y="-66" font-family="Helvetica,sans-Serif" font-size="10.00">catena::common::ParamWith</text>
<text text-anchor="middle" x="79" y="-55" font-family="Helvetica,sans-Serif" font-size="10.00">Value::validateSetValue_</text>
</a>
</g>
</g>
<!-- Node1&#45;&gt;Node3 -->
<g id="edge3_Node000001_Node000003" class="edge">
<title>Node1&#45;&gt;Node3</title>
<g id="a_edge3_Node000001_Node000003"><a xlink:title=" ">
<path fill="none" stroke="#63b8ff" d="M183.51,-63C175.03,-63 166.46,-63 158.07,-63"/>
<polygon fill="#63b8ff" stroke="#63b8ff" points="183.79,-66.5 193.79,-63 183.79,-59.5 183.79,-66.5"/>
</a>
</g>
</g>
<!-- Node4 -->
<g id="Node000004" class="node">
<title>Node4</title>
<g id="a_Node000004"><a xlink:href="classcatena_1_1common_1_1ParamWithValue.html#aa4013b24573981dcbe131d9692f81578" target="_top" xlink:title="Default overload of validateSetValue_ used in cases where type(U) == type(V).">
<polygon fill="white" stroke="#666666" points="158,-30 0,-30 0,0 158,0 158,-30"/>
<text text-anchor="start" x="8" y="-18" font-family="Helvetica,sans-Serif" font-size="10.00">catena::common::ParamWith</text>
<text text-anchor="middle" x="79" y="-7" font-family="Helvetica,sans-Serif" font-size="10.00">Value::validateSetValue_</text>
</a>
</g>
</g>
<!-- Node1&#45;&gt;Node4 -->
<g id="edge4_Node000001_Node000004" class="edge">
<title>Node1&#45;&gt;Node4</title>
<g id="a_edge4_Node000001_Node000004"><a xlink:title=" ">
<path fill="none" stroke="#63b8ff" d="M200.1,-45.42C180.12,-40.36 158.53,-34.89 139.23,-30"/>
<polygon fill="#63b8ff" stroke="#63b8ff" points="199.51,-48.88 210.06,-47.94 201.23,-42.1 199.51,-48.88"/>
</a>
</g>
</g>
<!-- Node2&#45;&gt;Node2 -->
<g id="edge2_Node000002_Node000002" class="edge">
<title>Node2&#45;&gt;Node2</title>
<g id="a_edge2_Node000002_Node000002"><a xlink:title=" ">
<path fill="none" stroke="#63b8ff" d="M114.61,-123.57C114.09,-129.12 102.22,-133.5 79,-133.5 45.23,-133.5 35.47,-124.23 49.72,-115.58"/>
<polygon fill="#63b8ff" stroke="#63b8ff" points="117.23,-121.25 108.28,-115.58 111.75,-125.6 117.23,-121.25"/>
</a>
</g>
</g>
</g>
</svg>
</svg>

<style type='text/css'>
<![CDATA[
[data-mouse-over-selected='false'] { opacity: 0.7; }
[data-mouse-over-selected='true']  { opacity: 1.0; }
]]>
</style>
<script type="application/ecmascript"><![CDATA[
document.addEventListener('DOMContentLoaded', (event) => {
  highlightEdges();
  highlightAdjacentNodes();
});
]]></script>
</svg>
