<?xml version="1.0" encoding="UTF-8" standalone="no"?>
<!DOCTYPE svg PUBLIC "-//W3C//DTD SVG 1.1//EN"
 "http://www.w3.org/Graphics/SVG/1.1/DTD/svg11.dtd">
<!-- Generated by graphviz version 2.43.0 (0)
 -->
<!-- Title: /home/runner/work/Catena/Catena/sdks/cpp/common/include/ParamDescriptor.h Pages: 1 -->
<svg width="1776pt" height="445pt"
 viewBox="0.00 0.00 1776.00 445.00" xmlns="http://www.w3.org/2000/svg" xmlns:xlink="http://www.w3.org/1999/xlink">
<g id="graph0" class="graph" transform="scale(1 1) rotate(0) translate(4 441)">
<title>/home/runner/work/Catena/Catena/sdks/cpp/common/include/ParamDescriptor.h</title>
<!-- Node1 -->
<g id="Node000001" class="node">
<title>Node1</title>
<g id="a_Node000001"><a xlink:title="Interface for accessing parameter descriptions.">
<polygon fill="#999999" stroke="#666666" points="899,-437 752,-437 752,-396 899,-396 899,-437"/>
<text text-anchor="start" x="760" y="-425" font-family="Helvetica,sans-Serif" font-size="10.00">/home/runner/work/Catena</text>
<text text-anchor="start" x="760" y="-414" font-family="Helvetica,sans-Serif" font-size="10.00">/Catena/sdks/cpp/common</text>
<text text-anchor="middle" x="825.5" y="-403" font-family="Helvetica,sans-Serif" font-size="10.00">/include/ParamDescriptor.h</text>
</a>
</g>
</g>
<!-- Node2 -->
<g id="Node000002" class="node">
<title>Node2</title>
<g id="a_Node000002"><a xlink:href="Tags_8h.html" target="_top" xlink:title="Tags to differentiate collections with the same type for template specialization.">
<polygon fill="white" stroke="#666666" points="577,-195 530,-195 530,-176 577,-176 577,-195"/>
<text text-anchor="middle" x="553.5" y="-183" font-family="Helvetica,sans-Serif" font-size="10.00">Tags.h</text>
</a>
</g>
</g>
<!-- Node1&#45;&gt;Node2 -->
<g id="edge1_Node000001_Node000002" class="edge">
<title>Node1&#45;&gt;Node2</title>
<g id="a_edge1_Node000001_Node000002"><a xlink:title=" ">
<path fill="none" stroke="#63b8ff" d="M751.92,-405.73C709.9,-397.84 657.4,-383.97 615.5,-360 555.21,-325.51 531.22,-314.11 504.5,-250 496.61,-231.07 514.03,-212.89 530.24,-200.88"/>
<polygon fill="#63b8ff" stroke="#63b8ff" points="532.23,-203.75 538.46,-195.18 528.25,-198 532.23,-203.75"/>
</a>
</g>
</g>
<!-- Node4 -->
<g id="Node000004" class="node">
<title>Node4</title>
<g id="a_Node000004"><a xlink:title=" ">
<polygon fill="#e0e0e0" stroke="#999999" points="608.5,-24.5 564.5,-24.5 564.5,-5.5 608.5,-5.5 608.5,-24.5"/>
<text text-anchor="middle" x="586.5" y="-12.5" font-family="Helvetica,sans-Serif" font-size="10.00">string</text>
</a>
</g>
</g>
<!-- Node1&#45;&gt;Node4 -->
<g id="edge65_Node000001_Node000004" class="edge">
<title>Node1&#45;&gt;Node4</title>
<g id="a_edge65_Node000001_Node000004"><a xlink:title=" ">
<path fill="none" stroke="#63b8ff" d="M751.96,-396.36C704.47,-379.07 651.5,-348.19 651.5,-296.5 651.5,-296.5 651.5,-296.5 651.5,-184.5 651.5,-125.91 616.86,-63.07 598.16,-33.41"/>
<polygon fill="#63b8ff" stroke="#63b8ff" points="600.87,-31.16 592.5,-24.67 595,-34.97 600.87,-31.16"/>
</a>
</g>
</g>
<!-- Node5 -->
<g id="Node000005" class="node">
<title>Node5</title>
<g id="a_Node000005"><a xlink:href="IParam_8h.html" target="_top" xlink:title="Interface for parameters.">
<polygon fill="white" stroke="#666666" points="1107,-195 1048,-195 1048,-176 1107,-176 1107,-195"/>
<text text-anchor="middle" x="1077.5" y="-183" font-family="Helvetica,sans-Serif" font-size="10.00">IParam.h</text>
</a>
</g>
</g>
<!-- Node1&#45;&gt;Node5 -->
<g id="edge4_Node000001_Node000005" class="edge">
<title>Node1&#45;&gt;Node5</title>
<g id="a_edge4_Node000001_Node000005"><a xlink:title=" ">
<path fill="none" stroke="#63b8ff" d="M899.48,-409.97C1023.98,-398.96 1266.87,-369.56 1318.5,-305 1376.3,-232.72 1199.55,-201.28 1117.25,-190.81"/>
<polygon fill="#63b8ff" stroke="#63b8ff" points="1117.59,-187.32 1107.23,-189.58 1116.73,-194.27 1117.59,-187.32"/>
</a>
</g>
</g>
<!-- Node10 -->
<g id="Node000010" class="node">
<title>Node10</title>
<g id="a_Node000010"><a xlink:title=" ">
<polygon fill="#e0e0e0" stroke="#999999" points="422,-24.5 329,-24.5 329,-5.5 422,-5.5 422,-24.5"/>
<text text-anchor="middle" x="375.5" y="-12.5" font-family="Helvetica,sans-Serif" font-size="10.00">unordered_map</text>
</a>
</g>
</g>
<!-- Node1&#45;&gt;Node10 -->
<g id="edge66_Node000001_Node000010" class="edge">
<title>Node1&#45;&gt;Node10</title>
<g id="a_edge66_Node000001_Node000010"><a xlink:title=" ">
<path fill="none" stroke="#63b8ff" d="M751.93,-411.43C563.72,-400.03 79.5,-364.12 79.5,-296.5 79.5,-296.5 79.5,-296.5 79.5,-129.5 79.5,-100.04 76.53,-85.63 98.5,-66 114.74,-51.49 242.65,-32.95 318.86,-23.02"/>
<polygon fill="#63b8ff" stroke="#63b8ff" points="319.33,-26.49 328.79,-21.74 318.43,-19.55 319.33,-26.49"/>
</a>
</g>
</g>
<!-- Node13 -->
<g id="Node000013" class="node">
<title>Node13</title>
<g id="a_Node000013"><a xlink:href="IConstraint_8h.html" target="_top" xlink:title="Interface for constraints.">
<polygon fill="white" stroke="#666666" points="1600,-140 1521,-140 1521,-121 1600,-121 1600,-140"/>
<text text-anchor="middle" x="1560.5" y="-128" font-family="Helvetica,sans-Serif" font-size="10.00">IConstraint.h</text>
</a>
</g>
</g>
<!-- Node1&#45;&gt;Node13 -->
<g id="edge27_Node000001_Node000013" class="edge">
<title>Node1&#45;&gt;Node13</title>
<g id="a_edge27_Node000001_Node000013"><a xlink:title=" ">
<path fill="none" stroke="#63b8ff" d="M899.11,-415.61C1045.45,-414.8 1367.28,-407.46 1465.5,-360 1500.46,-343.11 1525.5,-335.33 1525.5,-296.5 1525.5,-296.5 1525.5,-296.5 1525.5,-239.5 1525.5,-206.3 1540.65,-170.03 1551.02,-149.11"/>
<polygon fill="#63b8ff" stroke="#63b8ff" points="1554.16,-150.64 1555.63,-140.15 1547.94,-147.44 1554.16,-150.64"/>
</a>
</g>
</g>
<!-- Node14 -->
<g id="Node000014" class="node">
<title>Node14</title>
<g id="a_Node000014"><a xlink:title=" ">
<polygon fill="#e0e0e0" stroke="#999999" points="1768,-85 1649,-85 1649,-66 1768,-66 1768,-85"/>
<text text-anchor="middle" x="1708.5" y="-73" font-family="Helvetica,sans-Serif" font-size="10.00">interface/param.pb.h</text>
</a>
</g>
</g>
<!-- Node1&#45;&gt;Node14 -->
<g id="edge63_Node000001_Node000014" class="edge">
<title>Node1&#45;&gt;Node14</title>
<g id="a_edge63_Node000001_Node000014"><a xlink:title=" ">
<path fill="none" stroke="#63b8ff" d="M899.2,-412.79C1104.61,-404.28 1668.5,-373.87 1668.5,-296.5 1668.5,-296.5 1668.5,-296.5 1668.5,-184.5 1668.5,-150.67 1685.97,-114.38 1697.82,-93.66"/>
<polygon fill="#63b8ff" stroke="#63b8ff" points="1700.84,-95.44 1702.94,-85.06 1694.82,-91.86 1700.84,-95.44"/>
</a>
</g>
</g>
<!-- Node18 -->
<g id="Node000018" class="node">
<title>Node18</title>
<g id="a_Node000018"><a xlink:title=" ">
<polygon fill="#e0e0e0" stroke="#999999" points="1476,-85 1429,-85 1429,-66 1476,-66 1476,-85"/>
<text text-anchor="middle" x="1452.5" y="-73" font-family="Helvetica,sans-Serif" font-size="10.00">vector</text>
</a>
</g>
</g>
<!-- Node1&#45;&gt;Node18 -->
<g id="edge64_Node000001_Node000018" class="edge">
<title>Node1&#45;&gt;Node18</title>
<g id="a_edge64_Node000001_Node000018"><a xlink:title=" ">
<path fill="none" stroke="#63b8ff" d="M899.15,-409.14C1064.63,-393.85 1451.5,-352.16 1451.5,-296.5 1451.5,-296.5 1451.5,-296.5 1451.5,-184.5 1451.5,-153.19 1451.93,-116.77 1452.22,-95.23"/>
<polygon fill="#63b8ff" stroke="#63b8ff" points="1455.72,-95.23 1452.37,-85.18 1448.72,-95.13 1455.72,-95.23"/>
</a>
</g>
</g>
<!-- Node24 -->
<g id="Node000024" class="node">
<title>Node24</title>
<g id="a_Node000024"><a xlink:href="PolyglotText_8h.html" target="_top" xlink:title="Polyglot Text serialization and deserialization to protobuf.">
<polygon fill="white" stroke="#666666" points="418.5,-140 332.5,-140 332.5,-121 418.5,-121 418.5,-140"/>
<text text-anchor="middle" x="375.5" y="-128" font-family="Helvetica,sans-Serif" font-size="10.00">PolyglotText.h</text>
</a>
</g>
</g>
<!-- Node1&#45;&gt;Node24 -->
<g id="edge28_Node000001_Node000024" class="edge">
<title>Node1&#45;&gt;Node24</title>
<g id="a_edge28_Node000001_Node000024"><a xlink:title=" ">
<path fill="none" stroke="#63b8ff" d="M751.56,-410.41C627.89,-399.85 392.5,-370.08 392.5,-296.5 392.5,-296.5 392.5,-296.5 392.5,-239.5 392.5,-207.8 385.27,-171.51 380.24,-150.09"/>
<polygon fill="#63b8ff" stroke="#63b8ff" points="383.57,-148.99 377.79,-140.11 376.77,-150.65 383.57,-148.99"/>
</a>
</g>
</g>
<!-- Node29 -->
<g id="Node000029" class="node">
<title>Node29</title>
<g id="a_Node000029"><a xlink:href="IParamDescriptor_8h.html" target="_top" xlink:title="Interface class for ParamDescriptor.">
<polygon fill="white" stroke="#666666" points="623,-250 514,-250 514,-231 623,-231 623,-250"/>
<text text-anchor="middle" x="568.5" y="-238" font-family="Helvetica,sans-Serif" font-size="10.00">IParamDescriptor.h</text>
</a>
</g>
</g>
<!-- Node1&#45;&gt;Node29 -->
<g id="edge38_Node000001_Node000029" class="edge">
<title>Node1&#45;&gt;Node29</title>
<g id="a_edge38_Node000001_Node000029"><a xlink:title=" ">
<path fill="none" stroke="#63b8ff" d="M751.74,-406.87C714.39,-399.43 670.16,-385.63 637.5,-360 603.9,-333.64 583.51,-286.04 574.31,-259.91"/>
<polygon fill="#63b8ff" stroke="#63b8ff" points="577.54,-258.52 571.05,-250.15 570.9,-260.74 577.54,-258.52"/>
</a>
</g>
</g>
<!-- Node30 -->
<g id="Node000030" class="node">
<title>Node30</title>
<g id="a_Node000030"><a xlink:href="IDevice_8h.html" target="_top" xlink:title="Interface for device.">
<polygon fill="white" stroke="#666666" points="1065.5,-360 1003.5,-360 1003.5,-341 1065.5,-341 1065.5,-360"/>
<text text-anchor="middle" x="1034.5" y="-348" font-family="Helvetica,sans-Serif" font-size="10.00">IDevice.h</text>
</a>
</g>
</g>
<!-- Node1&#45;&gt;Node30 -->
<g id="edge42_Node000001_Node000030" class="edge">
<title>Node1&#45;&gt;Node30</title>
<g id="a_edge42_Node000001_Node000030"><a xlink:title=" ">
<path fill="none" stroke="#63b8ff" d="M889.34,-395.95C924.61,-385.15 967.2,-372.11 997.09,-362.95"/>
<polygon fill="#63b8ff" stroke="#63b8ff" points="998.18,-366.28 1006.72,-360.01 996.13,-359.59 998.18,-366.28"/>
</a>
</g>
</g>
<!-- Node31 -->
<g id="Node000031" class="node">
<title>Node31</title>
<g id="a_Node000031"><a xlink:href="Authorization_8h.html" target="_top" xlink:title="Class for handling authorization information.">
<polygon fill="white" stroke="#666666" points="871,-305 780,-305 780,-286 871,-286 871,-305"/>
<text text-anchor="middle" x="825.5" y="-293" font-family="Helvetica,sans-Serif" font-size="10.00">Authorization.h</text>
</a>
</g>
</g>
<!-- Node1&#45;&gt;Node31 -->
<g id="edge62_Node000001_Node000031" class="edge">
<title>Node1&#45;&gt;Node31</title>
<g id="a_edge62_Node000001_Node000031"><a xlink:title=" ">
<path fill="none" stroke="#63b8ff" d="M825.5,-395.85C825.5,-373.48 825.5,-337.19 825.5,-315.21"/>
<polygon fill="#63b8ff" stroke="#63b8ff" points="829,-315.18 825.5,-305.18 822,-315.18 829,-315.18"/>
</a>
</g>
</g>
<!-- Node3 -->
<g id="Node000003" class="node">
<title>Node3</title>
<g id="a_Node000003"><a xlink:title=" ">
<polygon fill="#e0e0e0" stroke="#999999" points="623,-140 558,-140 558,-121 623,-121 623,-140"/>
<text text-anchor="middle" x="590.5" y="-128" font-family="Helvetica,sans-Serif" font-size="10.00">functional</text>
</a>
</g>
</g>
<!-- Node2&#45;&gt;Node3 -->
<g id="edge2_Node000002_Node000003" class="edge">
<title>Node2&#45;&gt;Node3</title>
<g id="a_edge2_Node000002_Node000003"><a xlink:title=" ">
<path fill="none" stroke="#63b8ff" d="M559.61,-175.75C564.78,-168.34 572.35,-157.5 578.69,-148.41"/>
<polygon fill="#63b8ff" stroke="#63b8ff" points="581.65,-150.29 584.5,-140.09 575.91,-146.29 581.65,-150.29"/>
</a>
</g>
</g>
<!-- Node2&#45;&gt;Node4 -->
<g id="edge3_Node000002_Node000004" class="edge">
<title>Node2&#45;&gt;Node4</title>
<g id="a_edge3_Node000002_Node000004"><a xlink:title=" ">
<path fill="none" stroke="#63b8ff" d="M552.26,-175.99C551.02,-167.05 549.2,-152.57 548.5,-140 548.03,-131.57 547.04,-129.32 548.5,-121 554.09,-89.15 568.53,-54.22 577.91,-33.75"/>
<polygon fill="#63b8ff" stroke="#63b8ff" points="581.08,-35.24 582.17,-24.7 574.75,-32.26 581.08,-35.24"/>
</a>
</g>
</g>
<!-- Node6 -->
<g id="Node000006" class="node">
<title>Node6</title>
<g id="a_Node000006"><a xlink:href="Enums_8h.html" target="_top" xlink:title="tools for using EnumDecorators.">
<polygon fill="white" stroke="#666666" points="951,-140 892,-140 892,-121 951,-121 951,-140"/>
<text text-anchor="middle" x="921.5" y="-128" font-family="Helvetica,sans-Serif" font-size="10.00">Enums.h</text>
</a>
</g>
</g>
<!-- Node5&#45;&gt;Node6 -->
<g id="edge5_Node000005_Node000006" class="edge">
<title>Node5&#45;&gt;Node6</title>
<g id="a_edge5_Node000005_Node000006"><a xlink:title=" ">
<path fill="none" stroke="#63b8ff" d="M1052.44,-175.98C1026.47,-167.16 985.69,-153.31 956.54,-143.41"/>
<polygon fill="#63b8ff" stroke="#63b8ff" points="957.35,-139.99 946.76,-140.08 955.1,-146.61 957.35,-139.99"/>
</a>
</g>
</g>
<!-- Node5&#45;&gt;Node13 -->
<g id="edge14_Node000005_Node000013" class="edge">
<title>Node5&#45;&gt;Node13</title>
<g id="a_edge14_Node000005_Node000013"><a xlink:title=" ">
<path fill="none" stroke="#63b8ff" d="M1107.14,-181.93C1176.77,-175.78 1356.21,-159.29 1505.5,-140 1507.21,-139.78 1508.95,-139.55 1510.71,-139.31"/>
<polygon fill="#63b8ff" stroke="#63b8ff" points="1511.47,-142.73 1520.88,-137.86 1510.49,-135.8 1511.47,-142.73"/>
</a>
</g>
</g>
<!-- Node5&#45;&gt;Node14 -->
<g id="edge26_Node000005_Node000014" class="edge">
<title>Node5&#45;&gt;Node14</title>
<g id="a_edge26_Node000005_Node000014"><a xlink:title=" ">
<path fill="none" stroke="#63b8ff" d="M1107.4,-180.18C1159.77,-172.55 1271.48,-155.96 1365.5,-140 1468.01,-122.6 1587.29,-99.98 1654.75,-86.96"/>
<polygon fill="#63b8ff" stroke="#63b8ff" points="1655.56,-90.37 1664.72,-85.04 1654.23,-83.5 1655.56,-90.37"/>
</a>
</g>
</g>
<!-- Node16 -->
<g id="Node000016" class="node">
<title>Node16</title>
<g id="a_Node000016"><a xlink:href="Path_8h.html" target="_top" xlink:title="Handles Path objects used to uniquely identify and access OIDs.">
<polygon fill="white" stroke="#666666" points="1101,-140 1054,-140 1054,-121 1101,-121 1101,-140"/>
<text text-anchor="middle" x="1077.5" y="-128" font-family="Helvetica,sans-Serif" font-size="10.00">Path.h</text>
</a>
</g>
</g>
<!-- Node5&#45;&gt;Node16 -->
<g id="edge17_Node000005_Node000016" class="edge">
<title>Node5&#45;&gt;Node16</title>
<g id="a_edge17_Node000005_Node000016"><a xlink:title=" ">
<path fill="none" stroke="#63b8ff" d="M1077.5,-175.75C1077.5,-168.8 1077.5,-158.85 1077.5,-150.13"/>
<polygon fill="#63b8ff" stroke="#63b8ff" points="1081,-150.09 1077.5,-140.09 1074,-150.09 1081,-150.09"/>
</a>
</g>
</g>
<!-- Node21 -->
<g id="Node000021" class="node">
<title>Node21</title>
<g id="a_Node000021"><a xlink:href="Status_8h.html" target="_top" xlink:title="Communicates failure status using gRPC&#39;s codes.">
<polygon fill="white" stroke="#666666" points="1356.5,-140 1300.5,-140 1300.5,-121 1356.5,-121 1356.5,-140"/>
<text text-anchor="middle" x="1328.5" y="-128" font-family="Helvetica,sans-Serif" font-size="10.00">Status.h</text>
</a>
</g>
</g>
<!-- Node5&#45;&gt;Node21 -->
<g id="edge23_Node000005_Node000021" class="edge">
<title>Node5&#45;&gt;Node21</title>
<g id="a_edge23_Node000005_Node000021"><a xlink:title=" ">
<path fill="none" stroke="#63b8ff" d="M1107.28,-178.21C1152.96,-168.57 1240.29,-150.13 1290.48,-139.53"/>
<polygon fill="#63b8ff" stroke="#63b8ff" points="1291.24,-142.94 1300.3,-137.45 1289.79,-136.1 1291.24,-142.94"/>
</a>
</g>
</g>
<!-- Node7 -->
<g id="Node000007" class="node">
<title>Node7</title>
<g id="a_Node000007"><a xlink:href="EnumDecorator_8h.html" target="_top" xlink:title="Provides an enum with useful extra functionality.">
<polygon fill="white" stroke="#666666" points="991.5,-85 847.5,-85 847.5,-66 991.5,-66 991.5,-85"/>
<text text-anchor="middle" x="919.5" y="-73" font-family="Helvetica,sans-Serif" font-size="10.00">patterns/EnumDecorator.h</text>
</a>
</g>
</g>
<!-- Node6&#45;&gt;Node7 -->
<g id="edge6_Node000006_Node000007" class="edge">
<title>Node6&#45;&gt;Node7</title>
<g id="a_edge6_Node000006_Node000007"><a xlink:title=" ">
<path fill="none" stroke="#63b8ff" d="M921.17,-120.75C920.91,-113.8 920.53,-103.85 920.2,-95.13"/>
<polygon fill="#63b8ff" stroke="#63b8ff" points="923.7,-94.95 919.82,-85.09 916.7,-95.21 923.7,-94.95"/>
</a>
</g>
</g>
<!-- Node9 -->
<g id="Node000009" class="node">
<title>Node9</title>
<g id="a_Node000009"><a xlink:title=" ">
<polygon fill="#e0e0e0" stroke="#999999" points="1043.5,-24.5 993.5,-24.5 993.5,-5.5 1043.5,-5.5 1043.5,-24.5"/>
<text text-anchor="middle" x="1018.5" y="-12.5" font-family="Helvetica,sans-Serif" font-size="10.00">cstdint</text>
</a>
</g>
</g>
<!-- Node6&#45;&gt;Node9 -->
<g id="edge13_Node000006_Node000009" class="edge">
<title>Node6&#45;&gt;Node9</title>
<g id="a_edge13_Node000006_Node000009"><a xlink:title=" ">
<path fill="none" stroke="#63b8ff" d="M947.55,-120.97C965,-113.96 987.15,-102.33 1000.5,-85 1011.7,-70.46 1015.96,-49.63 1017.57,-34.66"/>
<polygon fill="#63b8ff" stroke="#63b8ff" points="1021.07,-34.8 1018.35,-24.56 1014.09,-34.26 1021.07,-34.8"/>
</a>
</g>
</g>
<!-- Node12 -->
<g id="Node000012" class="node">
<title>Node12</title>
<g id="a_Node000012"><a xlink:title=" ">
<polygon fill="#e0e0e0" stroke="#999999" points="791,-85 672,-85 672,-66 791,-66 791,-85"/>
<text text-anchor="middle" x="731.5" y="-73" font-family="Helvetica,sans-Serif" font-size="10.00">interface/device.pb.h</text>
</a>
</g>
</g>
<!-- Node6&#45;&gt;Node12 -->
<g id="edge12_Node000006_Node000012" class="edge">
<title>Node6&#45;&gt;Node12</title>
<g id="a_edge12_Node000006_Node000012"><a xlink:title=" ">
<path fill="none" stroke="#63b8ff" d="M891.81,-121.22C859.57,-112.22 807.86,-97.8 771.93,-87.78"/>
<polygon fill="#63b8ff" stroke="#63b8ff" points="772.81,-84.39 762.24,-85.07 770.93,-91.13 772.81,-84.39"/>
</a>
</g>
</g>
<!-- Node7&#45;&gt;Node4 -->
<g id="edge10_Node000007_Node000004" class="edge">
<title>Node7&#45;&gt;Node4</title>
<g id="a_edge10_Node000007_Node000004"><a xlink:title=" ">
<path fill="none" stroke="#63b8ff" d="M871.08,-65.99C802.13,-53.88 677.54,-31.99 618.8,-21.67"/>
<polygon fill="#63b8ff" stroke="#63b8ff" points="619.08,-18.17 608.63,-19.89 617.87,-25.06 619.08,-18.17"/>
</a>
</g>
</g>
<!-- Node8 -->
<g id="Node000008" class="node">
<title>Node8</title>
<g id="a_Node000008"><a xlink:href="ReflectionMacros_8h.html" target="_top" xlink:title="adapted from https://github.com/tapika/TestCppReflect">
<polygon fill="white" stroke="#666666" points="974.5,-24.5 864.5,-24.5 864.5,-5.5 974.5,-5.5 974.5,-24.5"/>
<text text-anchor="middle" x="919.5" y="-12.5" font-family="Helvetica,sans-Serif" font-size="10.00">ReflectionMacros.h</text>
</a>
</g>
</g>
<!-- Node7&#45;&gt;Node8 -->
<g id="edge7_Node000007_Node000008" class="edge">
<title>Node7&#45;&gt;Node8</title>
<g id="a_edge7_Node000007_Node000008"><a xlink:title=" ">
<path fill="none" stroke="#63b8ff" d="M919.5,-65.87C919.5,-57.75 919.5,-45.31 919.5,-34.89"/>
<polygon fill="#63b8ff" stroke="#63b8ff" points="923,-34.67 919.5,-24.67 916,-34.67 923,-34.67"/>
</a>
</g>
</g>
<!-- Node7&#45;&gt;Node9 -->
<g id="edge8_Node000007_Node000009" class="edge">
<title>Node7&#45;&gt;Node9</title>
<g id="a_edge8_Node000007_Node000009"><a xlink:title=" ">
<path fill="none" stroke="#63b8ff" d="M934.11,-65.87C950.19,-56.36 976.28,-40.95 995.2,-29.77"/>
<polygon fill="#63b8ff" stroke="#63b8ff" points="997,-32.77 1003.83,-24.67 993.44,-26.74 997,-32.77"/>
</a>
</g>
</g>
<!-- Node7&#45;&gt;Node10 -->
<g id="edge9_Node000007_Node000010" class="edge">
<title>Node7&#45;&gt;Node10</title>
<g id="a_edge9_Node000007_Node000010"><a xlink:title=" ">
<path fill="none" stroke="#63b8ff" d="M847.26,-66.73C737.7,-54.95 531.76,-32.8 432.22,-22.1"/>
<polygon fill="#63b8ff" stroke="#63b8ff" points="432.38,-18.6 422.06,-21.01 431.63,-25.56 432.38,-18.6"/>
</a>
</g>
</g>
<!-- Node11 -->
<g id="Node000011" class="node">
<title>Node11</title>
<g id="a_Node000011"><a xlink:title=" ">
<polygon fill="#e0e0e0" stroke="#999999" points="846,-24.5 777,-24.5 777,-5.5 846,-5.5 846,-24.5"/>
<text text-anchor="middle" x="811.5" y="-12.5" font-family="Helvetica,sans-Serif" font-size="10.00">type_traits</text>
</a>
</g>
</g>
<!-- Node7&#45;&gt;Node11 -->
<g id="edge11_Node000007_Node000011" class="edge">
<title>Node7&#45;&gt;Node11</title>
<g id="a_edge11_Node000007_Node000011"><a xlink:title=" ">
<path fill="none" stroke="#63b8ff" d="M903.56,-65.87C885.86,-56.28 857.04,-40.67 836.36,-29.47"/>
<polygon fill="#63b8ff" stroke="#63b8ff" points="837.96,-26.35 827.5,-24.67 834.63,-32.51 837.96,-26.35"/>
</a>
</g>
</g>
<!-- Node13&#45;&gt;Node14 -->
<g id="edge15_Node000013_Node000014" class="edge">
<title>Node13&#45;&gt;Node14</title>
<g id="a_edge15_Node000013_Node000014"><a xlink:title=" ">
<path fill="none" stroke="#63b8ff" d="M1584.28,-120.98C1608.73,-112.23 1647.03,-98.51 1674.65,-88.62"/>
<polygon fill="#63b8ff" stroke="#63b8ff" points="1676.05,-91.84 1684.29,-85.17 1673.69,-85.25 1676.05,-91.84"/>
</a>
</g>
</g>
<!-- Node15 -->
<g id="Node000015" class="node">
<title>Node15</title>
<g id="a_Node000015"><a xlink:title=" ">
<polygon fill="#e0e0e0" stroke="#999999" points="1630.5,-85 1494.5,-85 1494.5,-66 1630.5,-66 1630.5,-85"/>
<text text-anchor="middle" x="1562.5" y="-73" font-family="Helvetica,sans-Serif" font-size="10.00">interface/constraint.pb.h</text>
</a>
</g>
</g>
<!-- Node13&#45;&gt;Node15 -->
<g id="edge16_Node000013_Node000015" class="edge">
<title>Node13&#45;&gt;Node15</title>
<g id="a_edge16_Node000013_Node000015"><a xlink:title=" ">
<path fill="none" stroke="#63b8ff" d="M1560.83,-120.75C1561.09,-113.8 1561.47,-103.85 1561.8,-95.13"/>
<polygon fill="#63b8ff" stroke="#63b8ff" points="1565.3,-95.21 1562.18,-85.09 1558.3,-94.95 1565.3,-95.21"/>
</a>
</g>
</g>
<!-- Node16&#45;&gt;Node4 -->
<g id="edge19_Node000016_Node000004" class="edge">
<title>Node16&#45;&gt;Node4</title>
<g id="a_edge19_Node000016_Node000004"><a xlink:title=" ">
<path fill="none" stroke="#63b8ff" d="M1053.91,-127.24C1010.42,-122.6 915.05,-110.26 838.5,-85 820.19,-78.96 817.66,-72.47 799.5,-66 737.15,-43.81 661.01,-28.66 618.73,-21.25"/>
<polygon fill="#63b8ff" stroke="#63b8ff" points="619.18,-17.78 608.73,-19.53 618,-24.68 619.18,-17.78"/>
</a>
</g>
</g>
<!-- Node17 -->
<g id="Node000017" class="node">
<title>Node17</title>
<g id="a_Node000017"><a xlink:title=" ">
<polygon fill="#e0e0e0" stroke="#999999" points="1107.5,-85 1047.5,-85 1047.5,-66 1107.5,-66 1107.5,-85"/>
<text text-anchor="middle" x="1077.5" y="-73" font-family="Helvetica,sans-Serif" font-size="10.00">iostream</text>
</a>
</g>
</g>
<!-- Node16&#45;&gt;Node17 -->
<g id="edge18_Node000016_Node000017" class="edge">
<title>Node16&#45;&gt;Node17</title>
<g id="a_edge18_Node000016_Node000017"><a xlink:title=" ">
<path fill="none" stroke="#63b8ff" d="M1077.5,-120.75C1077.5,-113.8 1077.5,-103.85 1077.5,-95.13"/>
<polygon fill="#63b8ff" stroke="#63b8ff" points="1081,-95.09 1077.5,-85.09 1074,-95.09 1081,-95.09"/>
</a>
</g>
</g>
<!-- Node16&#45;&gt;Node18 -->
<g id="edge20_Node000016_Node000018" class="edge">
<title>Node16&#45;&gt;Node18</title>
<g id="a_edge20_Node000016_Node000018"><a xlink:title=" ">
<path fill="none" stroke="#63b8ff" d="M1101.38,-127.49C1155.97,-122.65 1294.23,-109.1 1418.73,-85.13"/>
<polygon fill="#63b8ff" stroke="#63b8ff" points="1419.67,-88.51 1428.81,-83.16 1418.33,-81.64 1419.67,-88.51"/>
</a>
</g>
</g>
<!-- Node19 -->
<g id="Node000019" class="node">
<title>Node19</title>
<g id="a_Node000019"><a xlink:title=" ">
<polygon fill="#e0e0e0" stroke="#999999" points="1177,-85 1126,-85 1126,-66 1177,-66 1177,-85"/>
<text text-anchor="middle" x="1151.5" y="-73" font-family="Helvetica,sans-Serif" font-size="10.00">variant</text>
</a>
</g>
</g>
<!-- Node16&#45;&gt;Node19 -->
<g id="edge21_Node000016_Node000019" class="edge">
<title>Node16&#45;&gt;Node19</title>
<g id="a_edge21_Node000016_Node000019"><a xlink:title=" ">
<path fill="none" stroke="#63b8ff" d="M1089.39,-120.98C1100.65,-112.92 1117.79,-100.65 1131.21,-91.03"/>
<polygon fill="#63b8ff" stroke="#63b8ff" points="1133.3,-93.84 1139.39,-85.17 1129.23,-88.15 1133.3,-93.84"/>
</a>
</g>
</g>
<!-- Node20 -->
<g id="Node000020" class="node">
<title>Node20</title>
<g id="a_Node000020"><a xlink:title=" ">
<polygon fill="#e0e0e0" stroke="#999999" points="1253.5,-85 1195.5,-85 1195.5,-66 1253.5,-66 1253.5,-85"/>
<text text-anchor="middle" x="1224.5" y="-73" font-family="Helvetica,sans-Serif" font-size="10.00">memory</text>
</a>
</g>
</g>
<!-- Node16&#45;&gt;Node20 -->
<g id="edge22_Node000016_Node000020" class="edge">
<title>Node16&#45;&gt;Node20</title>
<g id="a_edge22_Node000016_Node000020"><a xlink:title=" ">
<path fill="none" stroke="#63b8ff" d="M1101.12,-120.98C1125.4,-112.23 1163.45,-98.51 1190.87,-88.62"/>
<polygon fill="#63b8ff" stroke="#63b8ff" points="1192.23,-91.85 1200.45,-85.17 1189.86,-85.27 1192.23,-91.85"/>
</a>
</g>
</g>
<!-- Node22 -->
<g id="Node000022" class="node">
<title>Node22</title>
<g id="a_Node000022"><a xlink:title=" ">
<polygon fill="#e0e0e0" stroke="#999999" points="1327.5,-85 1271.5,-85 1271.5,-66 1327.5,-66 1327.5,-85"/>
<text text-anchor="middle" x="1299.5" y="-73" font-family="Helvetica,sans-Serif" font-size="10.00">sstream</text>
</a>
</g>
</g>
<!-- Node21&#45;&gt;Node22 -->
<g id="edge24_Node000021_Node000022" class="edge">
<title>Node21&#45;&gt;Node22</title>
<g id="a_edge24_Node000021_Node000022"><a xlink:title=" ">
<path fill="none" stroke="#63b8ff" d="M1323.71,-120.75C1319.74,-113.49 1313.97,-102.95 1309.07,-93.98"/>
<polygon fill="#63b8ff" stroke="#63b8ff" points="1312.07,-92.18 1304.2,-85.09 1305.93,-95.54 1312.07,-92.18"/>
</a>
</g>
</g>
<!-- Node23 -->
<g id="Node000023" class="node">
<title>Node23</title>
<g id="a_Node000023"><a xlink:title=" ">
<polygon fill="#e0e0e0" stroke="#999999" points="1411,-85 1346,-85 1346,-66 1411,-66 1411,-85"/>
<text text-anchor="middle" x="1378.5" y="-73" font-family="Helvetica,sans-Serif" font-size="10.00">stdexcept</text>
</a>
</g>
</g>
<!-- Node21&#45;&gt;Node23 -->
<g id="edge25_Node000021_Node000023" class="edge">
<title>Node21&#45;&gt;Node23</title>
<g id="a_edge25_Node000021_Node000023"><a xlink:title=" ">
<path fill="none" stroke="#63b8ff" d="M1336.76,-120.75C1343.96,-113.11 1354.61,-101.82 1363.35,-92.56"/>
<polygon fill="#63b8ff" stroke="#63b8ff" points="1366.08,-94.76 1370.4,-85.09 1360.99,-89.96 1366.08,-94.76"/>
</a>
</g>
</g>
<!-- Node24&#45;&gt;Node4 -->
<g id="edge35_Node000024_Node000004" class="edge">
<title>Node24&#45;&gt;Node4</title>
<g id="a_edge35_Node000024_Node000004"><a xlink:title=" ">
<path fill="none" stroke="#63b8ff" d="M415.75,-120.94C443.61,-113.91 480.87,-102.28 510.5,-85 534.66,-70.91 557.76,-48.17 572.02,-32.67"/>
<polygon fill="#63b8ff" stroke="#63b8ff" points="574.91,-34.69 578.98,-24.91 569.7,-30.02 574.91,-34.69"/>
</a>
</g>
</g>
<!-- Node24&#45;&gt;Node10 -->
<g id="edge36_Node000024_Node000010" class="edge">
<title>Node24&#45;&gt;Node10</title>
<g id="a_edge36_Node000024_Node000010"><a xlink:title=" ">
<path fill="none" stroke="#63b8ff" d="M375.5,-120.97C375.5,-102.73 375.5,-59.57 375.5,-34.64"/>
<polygon fill="#63b8ff" stroke="#63b8ff" points="379,-34.63 375.5,-24.63 372,-34.63 379,-34.63"/>
</a>
</g>
</g>
<!-- Node25 -->
<g id="Node000025" class="node">
<title>Node25</title>
<g id="a_Node000025"><a xlink:href="IPolyglotText_8h.html" target="_top" xlink:title="Catena&#39;s multi&#45;language text interface.">
<polygon fill="white" stroke="#666666" points="197,-85 108,-85 108,-66 197,-66 197,-85"/>
<text text-anchor="middle" x="152.5" y="-73" font-family="Helvetica,sans-Serif" font-size="10.00">IPolyglotText.h</text>
</a>
</g>
</g>
<!-- Node24&#45;&gt;Node25 -->
<g id="edge29_Node000024_Node000025" class="edge">
<title>Node24&#45;&gt;Node25</title>
<g id="a_edge29_Node000024_Node000025"><a xlink:title=" ">
<path fill="none" stroke="#63b8ff" d="M339.67,-120.98C301.34,-111.87 240.42,-97.4 198.55,-87.45"/>
<polygon fill="#63b8ff" stroke="#63b8ff" points="199.15,-83.99 188.61,-85.08 197.53,-90.8 199.15,-83.99"/>
</a>
</g>
</g>
<!-- Node27 -->
<g id="Node000027" class="node">
<title>Node27</title>
<g id="a_Node000027"><a xlink:title=" ">
<polygon fill="#e0e0e0" stroke="#999999" points="83,-24.5 0,-24.5 0,-5.5 83,-5.5 83,-24.5"/>
<text text-anchor="middle" x="41.5" y="-12.5" font-family="Helvetica,sans-Serif" font-size="10.00">initializer_list</text>
</a>
</g>
</g>
<!-- Node24&#45;&gt;Node27 -->
<g id="edge37_Node000024_Node000027" class="edge">
<title>Node24&#45;&gt;Node27</title>
<g id="a_edge37_Node000024_Node000027"><a xlink:title=" ">
<path fill="none" stroke="#63b8ff" d="M332.42,-126.29C264.85,-120.65 137.6,-107.38 98.5,-85 77.5,-72.98 60.96,-50.06 51.23,-33.95"/>
<polygon fill="#63b8ff" stroke="#63b8ff" points="54.08,-31.88 46.06,-24.95 48,-35.36 54.08,-31.88"/>
</a>
</g>
</g>
<!-- Node28 -->
<g id="Node000028" class="node">
<title>Node28</title>
<g id="a_Node000028"><a xlink:title=" ">
<polygon fill="#e0e0e0" stroke="#999999" points="347.5,-85 215.5,-85 215.5,-66 347.5,-66 347.5,-85"/>
<text text-anchor="middle" x="281.5" y="-73" font-family="Helvetica,sans-Serif" font-size="10.00">interface/language.pb.h</text>
</a>
</g>
</g>
<!-- Node24&#45;&gt;Node28 -->
<g id="edge34_Node000024_Node000028" class="edge">
<title>Node24&#45;&gt;Node28</title>
<g id="a_edge34_Node000024_Node000028"><a xlink:title=" ">
<path fill="none" stroke="#63b8ff" d="M360.4,-120.98C345.68,-112.69 323.08,-99.94 305.83,-90.22"/>
<polygon fill="#63b8ff" stroke="#63b8ff" points="307.31,-87.03 296.88,-85.17 303.87,-93.13 307.31,-87.03"/>
</a>
</g>
</g>
<!-- Node25&#45;&gt;Node4 -->
<g id="edge32_Node000025_Node000004" class="edge">
<title>Node25&#45;&gt;Node4</title>
<g id="a_edge32_Node000025_Node000004"><a xlink:title=" ">
<path fill="none" stroke="#63b8ff" d="M197.28,-67.36C200.4,-66.89 203.49,-66.43 206.5,-66 335.01,-47.43 488.4,-28.12 554.07,-19.99"/>
<polygon fill="#63b8ff" stroke="#63b8ff" points="554.71,-23.43 564.2,-18.73 553.85,-16.49 554.71,-23.43"/>
</a>
</g>
</g>
<!-- Node25&#45;&gt;Node10 -->
<g id="edge31_Node000025_Node000010" class="edge">
<title>Node25&#45;&gt;Node10</title>
<g id="a_edge31_Node000025_Node000010"><a xlink:title=" ">
<path fill="none" stroke="#63b8ff" d="M184.93,-65.99C224.07,-55.73 289.99,-38.43 333.13,-27.12"/>
<polygon fill="#63b8ff" stroke="#63b8ff" points="334.25,-30.44 343.03,-24.52 332.47,-23.67 334.25,-30.44"/>
</a>
</g>
</g>
<!-- Node26 -->
<g id="Node000026" class="node">
<title>Node26</title>
<g id="a_Node000026"><a xlink:title=" ">
<polygon fill="#e0e0e0" stroke="#999999" points="242,-30 101,-30 101,0 242,0 242,-30"/>
<text text-anchor="start" x="109" y="-18" font-family="Helvetica,sans-Serif" font-size="10.00">google/protobuf/message</text>
<text text-anchor="middle" x="171.5" y="-7" font-family="Helvetica,sans-Serif" font-size="10.00">_lite.h</text>
</a>
</g>
</g>
<!-- Node25&#45;&gt;Node26 -->
<g id="edge30_Node000025_Node000026" class="edge">
<title>Node25&#45;&gt;Node26</title>
<g id="a_edge30_Node000025_Node000026"><a xlink:title=" ">
<path fill="none" stroke="#63b8ff" d="M155.3,-65.87C157.55,-58.96 160.81,-48.93 163.81,-39.67"/>
<polygon fill="#63b8ff" stroke="#63b8ff" points="167.16,-40.71 166.92,-30.11 160.5,-38.54 167.16,-40.71"/>
</a>
</g>
</g>
<!-- Node25&#45;&gt;Node27 -->
<g id="edge33_Node000025_Node000027" class="edge">
<title>Node25&#45;&gt;Node27</title>
<g id="a_edge33_Node000025_Node000027"><a xlink:title=" ">
<path fill="none" stroke="#63b8ff" d="M136.12,-65.87C117.92,-56.28 88.3,-40.67 67.05,-29.47"/>
<polygon fill="#63b8ff" stroke="#63b8ff" points="68.42,-26.23 57.95,-24.67 65.16,-32.43 68.42,-26.23"/>
</a>
</g>
</g>
<!-- Node29&#45;&gt;Node2 -->
<g id="edge39_Node000029_Node000002" class="edge">
<title>Node29&#45;&gt;Node2</title>
<g id="a_edge39_Node000029_Node000002"><a xlink:title=" ">
<path fill="none" stroke="#63b8ff" d="M566.02,-230.75C564.04,-223.72 561.18,-213.62 558.69,-204.84"/>
<polygon fill="#63b8ff" stroke="#63b8ff" points="562.02,-203.76 555.93,-195.09 555.29,-205.66 562.02,-203.76"/>
</a>
</g>
</g>
<!-- Node29&#45;&gt;Node5 -->
<g id="edge40_Node000029_Node000005" class="edge">
<title>Node29&#45;&gt;Node5</title>
<g id="a_edge40_Node000029_Node000005"><a xlink:title=" ">
<path fill="none" stroke="#63b8ff" d="M623.46,-233.78C726.69,-223.03 947.32,-200.05 1037.67,-190.65"/>
<polygon fill="#63b8ff" stroke="#63b8ff" points="1038.19,-194.11 1047.78,-189.6 1037.47,-187.15 1038.19,-194.11"/>
</a>
</g>
</g>
<!-- Node29&#45;&gt;Node24 -->
<g id="edge41_Node000029_Node000024" class="edge">
<title>Node29&#45;&gt;Node24</title>
<g id="a_edge41_Node000029_Node000024"><a xlink:title=" ">
<path fill="none" stroke="#63b8ff" d="M553.03,-230.84C519.49,-212.08 439.87,-167.52 399.64,-145.01"/>
<polygon fill="#63b8ff" stroke="#63b8ff" points="401.21,-141.88 390.77,-140.05 397.79,-147.98 401.21,-141.88"/>
</a>
</g>
</g>
<!-- Node30&#45;&gt;Node4 -->
<g id="edge58_Node000030_Node000004" class="edge">
<title>Node30&#45;&gt;Node4</title>
<g id="a_edge58_Node000030_Node000004"><a xlink:title=" ">
<path fill="none" stroke="#63b8ff" d="M1021.22,-340.93C972.13,-309.06 796.8,-193.66 662.5,-85 641.22,-67.79 618.13,-46.4 603.05,-32.03"/>
<polygon fill="#63b8ff" stroke="#63b8ff" points="605.2,-29.25 595.56,-24.85 600.35,-34.3 605.2,-29.25"/>
</a>
</g>
</g>
<!-- Node30&#45;&gt;Node5 -->
<g id="edge51_Node000030_Node000005" class="edge">
<title>Node30&#45;&gt;Node5</title>
<g id="a_edge51_Node000030_Node000005"><a xlink:title=" ">
<path fill="none" stroke="#63b8ff" d="M1036.81,-340.74C1043.55,-315.2 1063.27,-240.43 1072.56,-205.23"/>
<polygon fill="#63b8ff" stroke="#63b8ff" points="1076.01,-205.87 1075.18,-195.31 1069.24,-204.08 1076.01,-205.87"/>
</a>
</g>
</g>
<!-- Node30&#45;&gt;Node12 -->
<g id="edge57_Node000030_Node000012" class="edge">
<title>Node30&#45;&gt;Node12</title>
<g id="a_edge57_Node000030_Node000012"><a xlink:title=" ">
<path fill="none" stroke="#63b8ff" d="M1026.37,-340.92C1007.44,-321.05 958.74,-270.55 915.5,-231 857.3,-177.76 784.68,-118.87 750.7,-91.73"/>
<polygon fill="#63b8ff" stroke="#63b8ff" points="752.56,-88.74 742.56,-85.24 748.2,-94.21 752.56,-88.74"/>
</a>
</g>
</g>
<!-- Node30&#45;&gt;Node16 -->
<g id="edge50_Node000030_Node000016" class="edge">
<title>Node30&#45;&gt;Node16</title>
<g id="a_edge50_Node000030_Node000016"><a xlink:title=" ">
<path fill="none" stroke="#63b8ff" d="M1032.79,-340.8C1028.07,-314.72 1016.64,-235.33 1039.5,-176 1043.72,-165.05 1051.87,-154.92 1059.54,-147.1"/>
<polygon fill="#63b8ff" stroke="#63b8ff" points="1062.06,-149.54 1066.89,-140.11 1057.23,-144.47 1062.06,-149.54"/>
</a>
</g>
</g>
<!-- Node30&#45;&gt;Node18 -->
<g id="edge59_Node000030_Node000018" class="edge">
<title>Node30&#45;&gt;Node18</title>
<g id="a_edge59_Node000030_Node000018"><a xlink:title=" ">
<path fill="none" stroke="#63b8ff" d="M1065.55,-347.13C1132.87,-341.65 1290.06,-326.86 1338.5,-305 1378.31,-287.03 1413.5,-285.18 1413.5,-241.5 1413.5,-241.5 1413.5,-241.5 1413.5,-184.5 1413.5,-150.92 1430.38,-114.78 1441.93,-93.98"/>
<polygon fill="#63b8ff" stroke="#63b8ff" points="1445.1,-95.49 1447.08,-85.08 1439.04,-91.98 1445.1,-95.49"/>
</a>
</g>
</g>
<!-- Node30&#45;&gt;Node21 -->
<g id="edge55_Node000030_Node000021" class="edge">
<title>Node30&#45;&gt;Node21</title>
<g id="a_edge55_Node000030_Node000021"><a xlink:title=" ">
<path fill="none" stroke="#63b8ff" d="M1065.51,-349.34C1132.04,-348.27 1285.15,-341.79 1318.5,-305 1357.63,-261.84 1343.42,-185.07 1334.07,-149.96"/>
<polygon fill="#63b8ff" stroke="#63b8ff" points="1337.38,-148.78 1331.28,-140.12 1330.64,-150.69 1337.38,-148.78"/>
</a>
</g>
</g>
<!-- Node30&#45;&gt;Node31 -->
<g id="edge43_Node000030_Node000031" class="edge">
<title>Node30&#45;&gt;Node31</title>
<g id="a_edge43_Node000030_Node000031"><a xlink:title=" ">
<path fill="none" stroke="#63b8ff" d="M1003.21,-341.57C967.52,-332.51 908.93,-317.66 868.85,-307.49"/>
<polygon fill="#63b8ff" stroke="#63b8ff" points="869.64,-304.08 859.08,-305.02 867.92,-310.87 869.64,-304.08"/>
</a>
</g>
</g>
<!-- Node33 -->
<g id="Node000033" class="node">
<title>Node33</title>
<g id="a_Node000033"><a xlink:href="ILanguagePack_8h.html" target="_top" xlink:title="Interface for language packs.">
<polygon fill="white" stroke="#666666" points="501.5,-85 403.5,-85 403.5,-66 501.5,-66 501.5,-85"/>
<text text-anchor="middle" x="452.5" y="-73" font-family="Helvetica,sans-Serif" font-size="10.00">ILanguagePack.h</text>
</a>
</g>
</g>
<!-- Node30&#45;&gt;Node33 -->
<g id="edge52_Node000030_Node000033" class="edge">
<title>Node30&#45;&gt;Node33</title>
<g id="a_edge52_Node000030_Node000033"><a xlink:title=" ">
<path fill="none" stroke="#63b8ff" d="M1003.43,-347.87C901.35,-341.9 578.62,-317.91 504.5,-250 459.73,-208.98 452.91,-131.13 452.27,-95.35"/>
<polygon fill="#63b8ff" stroke="#63b8ff" points="455.77,-95.29 452.23,-85.31 448.77,-95.32 455.77,-95.29"/>
</a>
</g>
</g>
<!-- Node34 -->
<g id="Node000034" class="node">
<title>Node34</title>
<g id="a_Node000034"><a xlink:title=" ">
<polygon fill="#e0e0e0" stroke="#999999" points="1163,-305 1082,-305 1082,-286 1163,-286 1163,-305"/>
<text text-anchor="middle" x="1122.5" y="-293" font-family="Helvetica,sans-Serif" font-size="10.00">vdk/signals.h</text>
</a>
</g>
</g>
<!-- Node30&#45;&gt;Node34 -->
<g id="edge56_Node000030_Node000034" class="edge">
<title>Node30&#45;&gt;Node34</title>
<g id="a_edge56_Node000030_Node000034"><a xlink:title=" ">
<path fill="none" stroke="#63b8ff" d="M1048.64,-340.98C1062.29,-332.77 1083.19,-320.18 1099.28,-310.49"/>
<polygon fill="#63b8ff" stroke="#63b8ff" points="1101.34,-313.33 1108.1,-305.17 1097.73,-307.33 1101.34,-313.33"/>
</a>
</g>
</g>
<!-- Node35 -->
<g id="Node000035" class="node">
<title>Node35</title>
<g id="a_Node000035"><a xlink:title=" ">
<polygon fill="#e0e0e0" stroke="#999999" points="1243.5,-305 1181.5,-305 1181.5,-286 1243.5,-286 1243.5,-305"/>
<text text-anchor="middle" x="1212.5" y="-293" font-family="Helvetica,sans-Serif" font-size="10.00">coroutine</text>
</a>
</g>
</g>
<!-- Node30&#45;&gt;Node35 -->
<g id="edge60_Node000030_Node000035" class="edge">
<title>Node30&#45;&gt;Node35</title>
<g id="a_edge60_Node000030_Node000035"><a xlink:title=" ">
<path fill="none" stroke="#63b8ff" d="M1063.1,-340.98C1093.11,-332.05 1140.48,-317.94 1173.82,-308.02"/>
<polygon fill="#63b8ff" stroke="#63b8ff" points="1175.09,-311.29 1183.68,-305.08 1173.09,-304.58 1175.09,-311.29"/>
</a>
</g>
</g>
<!-- Node36 -->
<g id="Node000036" class="node">
<title>Node36</title>
<g id="a_Node000036"><a xlink:title=" ">
<polygon fill="#e0e0e0" stroke="#999999" points="1309.5,-305 1261.5,-305 1261.5,-286 1309.5,-286 1309.5,-305"/>
<text text-anchor="middle" x="1285.5" y="-293" font-family="Helvetica,sans-Serif" font-size="10.00">mutex</text>
</a>
</g>
</g>
<!-- Node30&#45;&gt;Node36 -->
<g id="edge61_Node000030_Node000036" class="edge">
<title>Node30&#45;&gt;Node36</title>
<g id="a_edge61_Node000030_Node000036"><a xlink:title=" ">
<path fill="none" stroke="#63b8ff" d="M1065.65,-343.66C1106.15,-335.95 1179.3,-321.64 1251.24,-305.2"/>
<polygon fill="#63b8ff" stroke="#63b8ff" points="1252.42,-308.52 1261.38,-302.86 1250.85,-301.69 1252.42,-308.52"/>
</a>
</g>
</g>
<!-- Node31&#45;&gt;Node3 -->
<g id="edge49_Node000031_Node000003" class="edge">
<title>Node31&#45;&gt;Node3</title>
<g id="a_edge49_Node000031_Node000003"><a xlink:title=" ">
<path fill="none" stroke="#63b8ff" d="M792.22,-285.95C767.79,-278.73 734.48,-266.85 708.5,-250 664.25,-221.29 623.37,-173.64 603.37,-148.4"/>
<polygon fill="#63b8ff" stroke="#63b8ff" points="605.88,-145.93 596.98,-140.19 600.36,-150.23 605.88,-145.93"/>
</a>
</g>
</g>
<!-- Node31&#45;&gt;Node5 -->
<g id="edge46_Node000031_Node000005" class="edge">
<title>Node31&#45;&gt;Node5</title>
<g id="a_edge46_Node000031_Node000005"><a xlink:title=" ">
<path fill="none" stroke="#63b8ff" d="M845.7,-285.84C890.13,-266.8 996.54,-221.2 1048.27,-199.03"/>
<polygon fill="#63b8ff" stroke="#63b8ff" points="1049.74,-202.2 1057.56,-195.05 1046.99,-195.77 1049.74,-202.2"/>
</a>
</g>
</g>
<!-- Node31&#45;&gt;Node6 -->
<g id="edge45_Node000031_Node000006" class="edge">
<title>Node31&#45;&gt;Node6</title>
<g id="a_edge45_Node000031_Node000006"><a xlink:title=" ">
<path fill="none" stroke="#63b8ff" d="M828.11,-285.58C831.96,-273.02 839.76,-249.58 849.5,-231 863.3,-204.69 870.03,-200.03 887.5,-176 894.22,-166.76 901.93,-156.63 908.31,-148.37"/>
<polygon fill="#63b8ff" stroke="#63b8ff" points="911.23,-150.32 914.6,-140.27 905.7,-146.02 911.23,-150.32"/>
</a>
</g>
</g>
<!-- Node31&#45;&gt;Node16 -->
<g id="edge44_Node000031_Node000016" class="edge">
<title>Node31&#45;&gt;Node16</title>
<g id="a_edge44_Node000031_Node000016"><a xlink:title=" ">
<path fill="none" stroke="#63b8ff" d="M837.7,-285.9C866.07,-265.98 938.81,-215.4 1001.5,-176 1018.65,-165.22 1038.41,-153.68 1053.48,-145.05"/>
<polygon fill="#63b8ff" stroke="#63b8ff" points="1055.23,-148.08 1062.19,-140.09 1051.77,-142 1055.23,-148.08"/>
</a>
</g>
</g>
<!-- Node31&#45;&gt;Node29 -->
<g id="edge47_Node000031_Node000029" class="edge">
<title>Node31&#45;&gt;Node29</title>
<g id="a_edge47_Node000031_Node000029"><a xlink:title=" ">
<path fill="none" stroke="#63b8ff" d="M784.21,-285.98C739.57,-276.78 668.34,-262.09 620.05,-252.13"/>
<polygon fill="#63b8ff" stroke="#63b8ff" points="620.62,-248.67 610.12,-250.08 619.2,-255.53 620.62,-248.67"/>
</a>
</g>
</g>
<!-- Node32 -->
<g id="Node000032" class="node">
<title>Node32</title>
<g id="a_Node000032"><a xlink:title=" ">
<polygon fill="#e0e0e0" stroke="#999999" points="797.5,-250 717.5,-250 717.5,-231 797.5,-231 797.5,-250"/>
<text text-anchor="middle" x="757.5" y="-238" font-family="Helvetica,sans-Serif" font-size="10.00">jwt&#45;cpp/jwt.h</text>
</a>
</g>
</g>
<!-- Node31&#45;&gt;Node32 -->
<g id="edge48_Node000031_Node000032" class="edge">
<title>Node31&#45;&gt;Node32</title>
<g id="a_edge48_Node000031_Node000032"><a xlink:title=" ">
<path fill="none" stroke="#63b8ff" d="M814.57,-285.98C804.42,-278.07 789.08,-266.11 776.85,-256.58"/>
<polygon fill="#63b8ff" stroke="#63b8ff" points="778.66,-253.56 768.62,-250.17 774.36,-259.08 778.66,-253.56"/>
</a>
</g>
</g>
<!-- Node33&#45;&gt;Node4 -->
<g id="edge53_Node000033_Node000004" class="edge">
<title>Node33&#45;&gt;Node4</title>
<g id="a_edge53_Node000033_Node000004"><a xlink:title=" ">
<path fill="none" stroke="#63b8ff" d="M471.98,-65.99C494.51,-56.16 531.81,-39.88 557.69,-28.58"/>
<polygon fill="#63b8ff" stroke="#63b8ff" points="559.23,-31.73 566.99,-24.52 556.43,-25.31 559.23,-31.73"/>
</a>
</g>
</g>
<!-- Node33&#45;&gt;Node10 -->
<g id="edge54_Node000033_Node000010" class="edge">
<title>Node33&#45;&gt;Node10</title>
<g id="a_edge54_Node000033_Node000010"><a xlink:title=" ">
<path fill="none" stroke="#63b8ff" d="M441.14,-65.87C429.08,-56.71 409.8,-42.06 395.25,-31.01"/>
<polygon fill="#63b8ff" stroke="#63b8ff" points="396.99,-27.93 386.91,-24.67 392.75,-33.5 396.99,-27.93"/>
</a>
</g>
</g>
</g>
</svg>
