<?xml version="1.0" encoding="UTF-8" standalone="no"?>
<!DOCTYPE svg PUBLIC "-//W3C//DTD SVG 1.1//EN"
 "http://www.w3.org/Graphics/SVG/1.1/DTD/svg11.dtd">
<!-- Generated by graphviz version 2.43.0 (0)
 -->
<!-- Title: /home/runner/work/Catena/Catena/sdks/cpp/common/include/ParamDescriptor.h Pages: 1 -->
<svg width="2616pt" height="665pt"
 viewBox="0.00 0.00 2615.56 665.00" xmlns="http://www.w3.org/2000/svg" xmlns:xlink="http://www.w3.org/1999/xlink">
<g id="graph0" class="graph" transform="scale(1 1) rotate(0) translate(4 661)">
<title>/home/runner/work/Catena/Catena/sdks/cpp/common/include/ParamDescriptor.h</title>
<!-- Node1 -->
<g id="Node000001" class="node">
<title>Node1</title>
<g id="a_Node000001"><a xlink:title="Interface for accessing parameter descriptions.">
<polygon fill="#999999" stroke="#666666" points="811.5,-657 664.5,-657 664.5,-616 811.5,-616 811.5,-657"/>
<text text-anchor="start" x="672.5" y="-645" font-family="Helvetica,sans-Serif" font-size="10.00">/home/runner/work/Catena</text>
<text text-anchor="start" x="672.5" y="-634" font-family="Helvetica,sans-Serif" font-size="10.00">/Catena/sdks/cpp/common</text>
<text text-anchor="middle" x="738" y="-623" font-family="Helvetica,sans-Serif" font-size="10.00">/include/ParamDescriptor.h</text>
</a>
</g>
</g>
<!-- Node2 -->
<g id="Node000002" class="node">
<title>Node2</title>
<g id="a_Node000002"><a xlink:href="Authorization_8h.html" target="_top" xlink:title="Class for handling authorization information.">
<polygon fill="white" stroke="#666666" points="1285,-580 1139,-580 1139,-539 1285,-539 1285,-580"/>
<text text-anchor="start" x="1147" y="-568" font-family="Helvetica,sans-Serif" font-size="10.00">/home/runner/work/Catena</text>
<text text-anchor="start" x="1147" y="-557" font-family="Helvetica,sans-Serif" font-size="10.00">/Catena/sdks/cpp/common</text>
<text text-anchor="middle" x="1212" y="-546" font-family="Helvetica,sans-Serif" font-size="10.00">/include/Authorization.h</text>
</a>
</g>
</g>
<!-- Node1&#45;&gt;Node2 -->
<g id="edge1_Node000001_Node000002" class="edge">
<title>Node1&#45;&gt;Node2</title>
<g id="a_edge1_Node000001_Node000002"><a xlink:title=" ">
<path fill="none" stroke="#63b8ff" d="M821.43,-622.3C911.3,-608.08 1052.93,-585.67 1138.68,-572.1"/>
<polygon fill="#63b8ff" stroke="#63b8ff" points="820.87,-618.84 811.54,-623.86 821.97,-625.76 820.87,-618.84"/>
</a>
</g>
</g>
<!-- Node26 -->
<g id="Node000026" class="node">
<title>Node26</title>
<g id="a_Node000026"><a xlink:href="ParamWithValue_8h.html" target="_top" xlink:title="Interface for acessing parameter values.">
<polygon fill="white" stroke="#666666" points="613.5,-426 466.5,-426 466.5,-385 613.5,-385 613.5,-426"/>
<text text-anchor="start" x="474.5" y="-414" font-family="Helvetica,sans-Serif" font-size="10.00">/home/runner/work/Catena</text>
<text text-anchor="start" x="474.5" y="-403" font-family="Helvetica,sans-Serif" font-size="10.00">/Catena/sdks/cpp/common</text>
<text text-anchor="middle" x="540" y="-392" font-family="Helvetica,sans-Serif" font-size="10.00">/include/ParamWithValue.h</text>
</a>
</g>
</g>
<!-- Node1&#45;&gt;Node26 -->
<g id="edge51_Node000001_Node000026" class="edge">
<title>Node1&#45;&gt;Node26</title>
<g id="a_edge51_Node000001_Node000026"><a xlink:title=" ">
<path fill="none" stroke="#63b8ff" d="M714.55,-608.38C674.21,-561.72 592.6,-467.34 557.12,-426.3"/>
<polygon fill="#63b8ff" stroke="#63b8ff" points="711.93,-610.7 721.12,-615.98 717.23,-606.12 711.93,-610.7"/>
</a>
</g>
</g>
<!-- Node3 -->
<g id="Node000003" class="node">
<title>Node3</title>
<g id="a_Node000003"><a xlink:href="Device_8h.html" target="_top" xlink:title="Device class definition.">
<polygon fill="white" stroke="#666666" points="1285,-503 1139,-503 1139,-462 1285,-462 1285,-503"/>
<text text-anchor="start" x="1147" y="-491" font-family="Helvetica,sans-Serif" font-size="10.00">/home/runner/work/Catena</text>
<text text-anchor="start" x="1147" y="-480" font-family="Helvetica,sans-Serif" font-size="10.00">/Catena/sdks/cpp/common</text>
<text text-anchor="middle" x="1212" y="-469" font-family="Helvetica,sans-Serif" font-size="10.00">/include/Device.h</text>
</a>
</g>
</g>
<!-- Node2&#45;&gt;Node3 -->
<g id="edge2_Node000002_Node000003" class="edge">
<title>Node2&#45;&gt;Node3</title>
<g id="a_edge2_Node000002_Node000003"><a xlink:title=" ">
<path fill="none" stroke="#63b8ff" d="M1212,-528.69C1212,-520.08 1212,-510.9 1212,-503.07"/>
<polygon fill="#63b8ff" stroke="#63b8ff" points="1208.5,-528.79 1212,-538.79 1215.5,-528.79 1208.5,-528.79"/>
</a>
</g>
</g>
<!-- Node8 -->
<g id="Node000008" class="node">
<title>Node8</title>
<g id="a_Node000008"><a xlink:href="ServiceImpl_8h.html" target="_top" xlink:title="Implements Catena gRPC request handlers.">
<polygon fill="white" stroke="#666666" points="1180.5,-195 1019.5,-195 1019.5,-154 1180.5,-154 1180.5,-195"/>
<text text-anchor="start" x="1027.5" y="-183" font-family="Helvetica,sans-Serif" font-size="10.00">/home/runner/work/Catena</text>
<text text-anchor="start" x="1027.5" y="-172" font-family="Helvetica,sans-Serif" font-size="10.00">/Catena/sdks/cpp/connections</text>
<text text-anchor="middle" x="1100" y="-161" font-family="Helvetica,sans-Serif" font-size="10.00">/gRPC/include/ServiceImpl.h</text>
</a>
</g>
</g>
<!-- Node2&#45;&gt;Node8 -->
<g id="edge50_Node000002_Node000008" class="edge">
<title>Node2&#45;&gt;Node8</title>
<g id="a_edge50_Node000002_Node000008"><a xlink:title=" ">
<path fill="none" stroke="#63b8ff" d="M1295.76,-558.2C1596.5,-556.02 2604,-538.87 2604,-406.5 2604,-406.5 2604,-406.5 2604,-327.5 2604,-283.79 2618.24,-259.39 2585,-231 2531.3,-185.13 1482.71,-177.12 1180.73,-175.77"/>
<polygon fill="#63b8ff" stroke="#63b8ff" points="1295.34,-554.7 1285.37,-558.27 1295.39,-561.7 1295.34,-554.7"/>
</a>
</g>
</g>
<!-- Node2&#45;&gt;Node26 -->
<g id="edge45_Node000002_Node000026" class="edge">
<title>Node2&#45;&gt;Node26</title>
<g id="a_edge45_Node000002_Node000026"><a xlink:title=" ">
<path fill="none" stroke="#63b8ff" d="M1160.44,-534.87C1109.19,-512.43 1027.79,-479.59 954,-462 812.2,-428.21 771.81,-449.8 628,-426 623.37,-425.23 618.61,-424.38 613.83,-423.47"/>
<polygon fill="#63b8ff" stroke="#63b8ff" points="1159.09,-538.1 1169.65,-538.93 1161.92,-531.69 1159.09,-538.1"/>
</a>
</g>
</g>
<!-- Node29 -->
<g id="Node000029" class="node">
<title>Node29</title>
<g id="a_Node000029"><a xlink:href="common_2include_2rpc_2Connect_8h_source.html" target="_top" xlink:title=" ">
<polygon fill="white" stroke="#666666" points="1961,-426 1815,-426 1815,-385 1961,-385 1961,-426"/>
<text text-anchor="start" x="1823" y="-414" font-family="Helvetica,sans-Serif" font-size="10.00">/home/runner/work/Catena</text>
<text text-anchor="start" x="1823" y="-403" font-family="Helvetica,sans-Serif" font-size="10.00">/Catena/sdks/cpp/common</text>
<text text-anchor="middle" x="1888" y="-392" font-family="Helvetica,sans-Serif" font-size="10.00">/include/rpc/Connect.h</text>
</a>
</g>
</g>
<!-- Node2&#45;&gt;Node29 -->
<g id="edge48_Node000002_Node000029" class="edge">
<title>Node2&#45;&gt;Node29</title>
<g id="a_edge48_Node000002_Node000029"><a xlink:title=" ">
<path fill="none" stroke="#63b8ff" d="M1295.08,-539.82C1428.44,-509.83 1688.15,-451.44 1814.89,-422.94"/>
<polygon fill="#63b8ff" stroke="#63b8ff" points="1294.3,-536.41 1285.31,-542.02 1295.83,-543.24 1294.3,-536.41"/>
</a>
</g>
</g>
<!-- Node31 -->
<g id="Node000031" class="node">
<title>Node31</title>
<g id="a_Node000031"><a xlink:href="api_8h.html" target="_top" xlink:title="Implements REST API.">
<polygon fill="white" stroke="#666666" points="2140.5,-426 1979.5,-426 1979.5,-385 2140.5,-385 2140.5,-426"/>
<text text-anchor="start" x="1987.5" y="-414" font-family="Helvetica,sans-Serif" font-size="10.00">/home/runner/work/Catena</text>
<text text-anchor="start" x="1987.5" y="-403" font-family="Helvetica,sans-Serif" font-size="10.00">/Catena/sdks/cpp/connections</text>
<text text-anchor="middle" x="2060" y="-392" font-family="Helvetica,sans-Serif" font-size="10.00">/REST/include/api.h</text>
</a>
</g>
</g>
<!-- Node2&#45;&gt;Node31 -->
<g id="edge49_Node000002_Node000031" class="edge">
<title>Node2&#45;&gt;Node31</title>
<g id="a_edge49_Node000002_Node000031"><a xlink:title=" ">
<path fill="none" stroke="#63b8ff" d="M1295.54,-546.08C1366.94,-535.28 1472.35,-518.91 1564,-503 1744.95,-471.58 1790.01,-462.56 1970,-426 1972.98,-425.4 1976.01,-424.77 1979.07,-424.14"/>
<polygon fill="#63b8ff" stroke="#63b8ff" points="1294.62,-542.67 1285.26,-547.63 1295.67,-549.6 1294.62,-542.67"/>
</a>
</g>
</g>
<!-- Node37 -->
<g id="Node000037" class="node">
<title>Node37</title>
<g id="a_Node000037"><a xlink:href="StructInfo_8h.html" target="_top" xlink:title="Structured data serialization and deserialization to protobuf.">
<polygon fill="white" stroke="#666666" points="945,-503 799,-503 799,-462 945,-462 945,-503"/>
<text text-anchor="start" x="807" y="-491" font-family="Helvetica,sans-Serif" font-size="10.00">/home/runner/work/Catena</text>
<text text-anchor="start" x="807" y="-480" font-family="Helvetica,sans-Serif" font-size="10.00">/Catena/sdks/cpp/common</text>
<text text-anchor="middle" x="872" y="-469" font-family="Helvetica,sans-Serif" font-size="10.00">/include/StructInfo.h</text>
</a>
</g>
</g>
<!-- Node2&#45;&gt;Node37 -->
<g id="edge46_Node000002_Node000037" class="edge">
<title>Node2&#45;&gt;Node37</title>
<g id="a_edge46_Node000002_Node000037"><a xlink:title=" ">
<path fill="none" stroke="#63b8ff" d="M1128.72,-540.13C1072.56,-527.74 999.15,-511.55 945.22,-499.65"/>
<polygon fill="#63b8ff" stroke="#63b8ff" points="1128.12,-543.58 1138.64,-542.32 1129.63,-536.75 1128.12,-543.58"/>
</a>
</g>
</g>
<!-- Node4 -->
<g id="Node000004" class="node">
<title>Node4</title>
<g id="a_Node000004"><a xlink:href="IParamVisitor_8h.html" target="_top" xlink:title="Implements Catena IParamVisitor.">
<polygon fill="white" stroke="#666666" points="1759,-426 1613,-426 1613,-385 1759,-385 1759,-426"/>
<text text-anchor="start" x="1621" y="-414" font-family="Helvetica,sans-Serif" font-size="10.00">/home/runner/work/Catena</text>
<text text-anchor="start" x="1621" y="-403" font-family="Helvetica,sans-Serif" font-size="10.00">/Catena/sdks/cpp/common</text>
<text text-anchor="middle" x="1686" y="-392" font-family="Helvetica,sans-Serif" font-size="10.00">/include/IParamVisitor.h</text>
</a>
</g>
</g>
<!-- Node3&#45;&gt;Node4 -->
<g id="edge3_Node000003_Node000004" class="edge">
<title>Node3&#45;&gt;Node4</title>
<g id="a_edge3_Node000003_Node000004"><a xlink:title=" ">
<path fill="none" stroke="#63b8ff" d="M1295.27,-471.99C1374.88,-462.35 1498.11,-446.04 1604,-426 1606.88,-425.46 1609.8,-424.88 1612.75,-424.27"/>
<polygon fill="#63b8ff" stroke="#63b8ff" points="1294.81,-468.52 1285.3,-473.18 1295.65,-475.47 1294.81,-468.52"/>
</a>
</g>
</g>
<!-- Node5 -->
<g id="Node000005" class="node">
<title>Node5</title>
<g id="a_Node000005"><a xlink:href="ParamVisitor_8h.html" target="_top" xlink:title="Implements Catena ParamVisitor.">
<polygon fill="white" stroke="#666666" points="1648,-349 1502,-349 1502,-308 1648,-308 1648,-349"/>
<text text-anchor="start" x="1510" y="-337" font-family="Helvetica,sans-Serif" font-size="10.00">/home/runner/work/Catena</text>
<text text-anchor="start" x="1510" y="-326" font-family="Helvetica,sans-Serif" font-size="10.00">/Catena/sdks/cpp/common</text>
<text text-anchor="middle" x="1575" y="-315" font-family="Helvetica,sans-Serif" font-size="10.00">/include/ParamVisitor.h</text>
</a>
</g>
</g>
<!-- Node3&#45;&gt;Node5 -->
<g id="edge30_Node000003_Node000005" class="edge">
<title>Node3&#45;&gt;Node5</title>
<g id="a_edge30_Node000003_Node000005"><a xlink:title=" ">
<path fill="none" stroke="#63b8ff" d="M1295.45,-476.1C1446.78,-465.9 1752.36,-443.28 1768,-426 1780.23,-412.49 1778.96,-399.56 1768,-385 1764.15,-379.88 1701.08,-362.34 1648.08,-348.33"/>
<polygon fill="#63b8ff" stroke="#63b8ff" points="1295.01,-472.62 1285.27,-476.78 1295.48,-479.6 1295.01,-472.62"/>
</a>
</g>
</g>
<!-- Node6 -->
<g id="Node000006" class="node">
<title>Node6</title>
<g id="a_Node000006"><a xlink:href="SubscriptionManager_8h.html" target="_top" xlink:title="Centralized manager for parameter subscriptions in Catena.">
<polygon fill="white" stroke="#666666" points="726.5,-272 557.5,-272 557.5,-231 726.5,-231 726.5,-272"/>
<text text-anchor="start" x="565.5" y="-260" font-family="Helvetica,sans-Serif" font-size="10.00">/home/runner/work/Catena</text>
<text text-anchor="start" x="565.5" y="-249" font-family="Helvetica,sans-Serif" font-size="10.00">/Catena/sdks/cpp/common</text>
<text text-anchor="middle" x="642" y="-238" font-family="Helvetica,sans-Serif" font-size="10.00">/include/SubscriptionManager.h</text>
</a>
</g>
</g>
<!-- Node3&#45;&gt;Node6 -->
<g id="edge34_Node000003_Node000006" class="edge">
<title>Node3&#45;&gt;Node6</title>
<g id="a_edge34_Node000003_Node000006"><a xlink:title=" ">
<path fill="none" stroke="#63b8ff" d="M1128.64,-472.4C1097.67,-469.06 1062.24,-465.3 1030,-462 989.02,-457.81 690.3,-454.96 661,-426 619.73,-385.21 629.57,-308.36 637.15,-272.22"/>
<polygon fill="#63b8ff" stroke="#63b8ff" points="1128.64,-475.92 1138.96,-473.51 1129.39,-468.96 1128.64,-475.92"/>
</a>
</g>
</g>
<!-- Node3&#45;&gt;Node8 -->
<g id="edge44_Node000003_Node000008" class="edge">
<title>Node3&#45;&gt;Node8</title>
<g id="a_edge44_Node000003_Node000008"><a xlink:title=" ">
<path fill="none" stroke="#63b8ff" d="M1128.6,-470.9C1028.69,-457.81 873.55,-436.03 865,-426 788.78,-336.61 969.03,-236.46 1056.16,-195.04"/>
<polygon fill="#63b8ff" stroke="#63b8ff" points="1128.33,-474.4 1138.69,-472.22 1129.23,-467.46 1128.33,-474.4"/>
</a>
</g>
</g>
<!-- Node22 -->
<g id="Node000022" class="node">
<title>Node22</title>
<g id="a_Node000022"><a xlink:href="LanguagePack_8h.html" target="_top" xlink:title="multi language support in 2 classes: LanguagePack and LanguagePacks">
<polygon fill="white" stroke="#666666" points="1184,-426 1038,-426 1038,-385 1184,-385 1184,-426"/>
<text text-anchor="start" x="1046" y="-414" font-family="Helvetica,sans-Serif" font-size="10.00">/home/runner/work/Catena</text>
<text text-anchor="start" x="1046" y="-403" font-family="Helvetica,sans-Serif" font-size="10.00">/Catena/sdks/cpp/common</text>
<text text-anchor="middle" x="1111" y="-392" font-family="Helvetica,sans-Serif" font-size="10.00">/include/LanguagePack.h</text>
</a>
</g>
</g>
<!-- Node3&#45;&gt;Node22 -->
<g id="edge25_Node000003_Node000022" class="edge">
<title>Node3&#45;&gt;Node22</title>
<g id="a_edge25_Node000003_Node000022"><a xlink:title=" ">
<path fill="none" stroke="#63b8ff" d="M1177.41,-455.82C1164.35,-446.11 1149.7,-435.24 1137.49,-426.17"/>
<polygon fill="#63b8ff" stroke="#63b8ff" points="1175.61,-458.84 1185.73,-461.99 1179.79,-453.22 1175.61,-458.84"/>
</a>
</g>
</g>
<!-- Node23 -->
<g id="Node000023" class="node">
<title>Node23</title>
<g id="a_Node000023"><a xlink:href="Menu_8h.html" target="_top" xlink:title="Menus support.">
<polygon fill="white" stroke="#666666" points="1020,-426 874,-426 874,-385 1020,-385 1020,-426"/>
<text text-anchor="start" x="882" y="-414" font-family="Helvetica,sans-Serif" font-size="10.00">/home/runner/work/Catena</text>
<text text-anchor="start" x="882" y="-403" font-family="Helvetica,sans-Serif" font-size="10.00">/Catena/sdks/cpp/common</text>
<text text-anchor="middle" x="947" y="-392" font-family="Helvetica,sans-Serif" font-size="10.00">/include/Menu.h</text>
</a>
</g>
</g>
<!-- Node3&#45;&gt;Node23 -->
<g id="edge26_Node000003_Node000023" class="edge">
<title>Node3&#45;&gt;Node23</title>
<g id="a_edge26_Node000003_Node000023"><a xlink:title=" ">
<path fill="none" stroke="#63b8ff" d="M1133.26,-459.21C1096.02,-448.68 1051.96,-436.21 1016.05,-426.04"/>
<polygon fill="#63b8ff" stroke="#63b8ff" points="1132.49,-462.63 1143.07,-461.99 1134.4,-455.9 1132.49,-462.63"/>
</a>
</g>
</g>
<!-- Node24 -->
<g id="Node000024" class="node">
<title>Node24</title>
<g id="a_Node000024"><a xlink:href="MenuGroup_8h.html" target="_top" xlink:title="MenuGroups support.">
<polygon fill="white" stroke="#666666" points="1153,-349 1007,-349 1007,-308 1153,-308 1153,-349"/>
<text text-anchor="start" x="1015" y="-337" font-family="Helvetica,sans-Serif" font-size="10.00">/home/runner/work/Catena</text>
<text text-anchor="start" x="1015" y="-326" font-family="Helvetica,sans-Serif" font-size="10.00">/Catena/sdks/cpp/common</text>
<text text-anchor="middle" x="1080" y="-315" font-family="Helvetica,sans-Serif" font-size="10.00">/include/MenuGroup.h</text>
</a>
</g>
</g>
<!-- Node3&#45;&gt;Node24 -->
<g id="edge28_Node000003_Node000024" class="edge">
<title>Node3&#45;&gt;Node24</title>
<g id="a_edge28_Node000003_Node000024"><a xlink:title=" ">
<path fill="none" stroke="#63b8ff" d="M1212.79,-451.55C1211.85,-430.92 1207.51,-403.92 1193,-385 1180.76,-369.05 1162.73,-357.39 1144.64,-349"/>
<polygon fill="#63b8ff" stroke="#63b8ff" points="1209.29,-451.76 1213.01,-461.68 1216.29,-451.6 1209.29,-451.76"/>
</a>
</g>
</g>
<!-- Node25 -->
<g id="Node000025" class="node">
<title>Node25</title>
<g id="a_Node000025"><a xlink:href="NamedChoiceConstraint_8h.html" target="_top" xlink:title="A constraint that checks if a value is within some named choices.">
<polygon fill="white" stroke="#666666" points="1424.5,-426 1239.5,-426 1239.5,-385 1424.5,-385 1424.5,-426"/>
<text text-anchor="start" x="1247.5" y="-414" font-family="Helvetica,sans-Serif" font-size="10.00">/home/runner/work/Catena</text>
<text text-anchor="start" x="1247.5" y="-403" font-family="Helvetica,sans-Serif" font-size="10.00">/Catena/sdks/cpp/common</text>
<text text-anchor="middle" x="1332" y="-392" font-family="Helvetica,sans-Serif" font-size="10.00">/include/NamedChoiceConstraint.h</text>
</a>
</g>
</g>
<!-- Node3&#45;&gt;Node25 -->
<g id="edge29_Node000003_Node000025" class="edge">
<title>Node3&#45;&gt;Node25</title>
<g id="a_edge29_Node000003_Node000025"><a xlink:title=" ">
<path fill="none" stroke="#63b8ff" d="M1251.77,-456.64C1267.62,-446.74 1285.61,-435.5 1300.52,-426.17"/>
<polygon fill="#63b8ff" stroke="#63b8ff" points="1249.84,-453.72 1243.22,-461.99 1253.55,-459.66 1249.84,-453.72"/>
</a>
</g>
</g>
<!-- Node3&#45;&gt;Node26 -->
<g id="edge31_Node000003_Node000026" class="edge">
<title>Node3&#45;&gt;Node26</title>
<g id="a_edge31_Node000003_Node000026"><a xlink:title=" ">
<path fill="none" stroke="#63b8ff" d="M1128.79,-468.44C1112.32,-466.1 1095.13,-463.82 1079,-462 879.19,-439.4 826.86,-455.82 628,-426 623.36,-425.3 618.59,-424.5 613.8,-423.63"/>
<polygon fill="#63b8ff" stroke="#63b8ff" points="1128.54,-471.94 1138.94,-469.9 1129.54,-465.01 1128.54,-471.94"/>
</a>
</g>
</g>
<!-- Node27 -->
<g id="Node000027" class="node">
<title>Node27</title>
<g id="a_Node000027"><a xlink:href="PicklistConstraint_8h.html" target="_top" xlink:title="A constraint that checks if a value is in a list of strings.">
<polygon fill="white" stroke="#666666" points="1595,-426 1443,-426 1443,-385 1595,-385 1595,-426"/>
<text text-anchor="start" x="1451" y="-414" font-family="Helvetica,sans-Serif" font-size="10.00">/home/runner/work/Catena</text>
<text text-anchor="start" x="1451" y="-403" font-family="Helvetica,sans-Serif" font-size="10.00">/Catena/sdks/cpp/common</text>
<text text-anchor="middle" x="1519" y="-392" font-family="Helvetica,sans-Serif" font-size="10.00">/include/PicklistConstraint.h</text>
</a>
</g>
</g>
<!-- Node3&#45;&gt;Node27 -->
<g id="edge32_Node000003_Node000027" class="edge">
<title>Node3&#45;&gt;Node27</title>
<g id="a_edge32_Node000003_Node000027"><a xlink:title=" ">
<path fill="none" stroke="#63b8ff" d="M1295.1,-461.2C1341.17,-449.94 1398.04,-436.05 1442.94,-425.08"/>
<polygon fill="#63b8ff" stroke="#63b8ff" points="1294.03,-457.86 1285.14,-463.63 1295.69,-464.66 1294.03,-457.86"/>
</a>
</g>
</g>
<!-- Node28 -->
<g id="Node000028" class="node">
<title>Node28</title>
<g id="a_Node000028"><a xlink:href="RangeConstraint_8h.html" target="_top" xlink:title="A constraint that checks if a value is within a range.">
<polygon fill="white" stroke="#666666" points="818,-426 670,-426 670,-385 818,-385 818,-426"/>
<text text-anchor="start" x="678" y="-414" font-family="Helvetica,sans-Serif" font-size="10.00">/home/runner/work/Catena</text>
<text text-anchor="start" x="678" y="-403" font-family="Helvetica,sans-Serif" font-size="10.00">/Catena/sdks/cpp/common</text>
<text text-anchor="middle" x="744" y="-392" font-family="Helvetica,sans-Serif" font-size="10.00">/include/RangeConstraint.h</text>
</a>
</g>
</g>
<!-- Node3&#45;&gt;Node28 -->
<g id="edge33_Node000003_Node000028" class="edge">
<title>Node3&#45;&gt;Node28</title>
<g id="a_edge33_Node000003_Node000028"><a xlink:title=" ">
<path fill="none" stroke="#63b8ff" d="M1128.68,-469.27C1112.22,-466.86 1095.06,-464.35 1079,-462 969.23,-445.95 941.12,-446.01 832,-426 827.54,-425.18 822.95,-424.3 818.34,-423.37"/>
<polygon fill="#63b8ff" stroke="#63b8ff" points="1128.43,-472.77 1138.83,-470.76 1129.44,-465.85 1128.43,-472.77"/>
</a>
</g>
</g>
<!-- Node3&#45;&gt;Node29 -->
<g id="edge35_Node000003_Node000029" class="edge">
<title>Node3&#45;&gt;Node29</title>
<g id="a_edge35_Node000003_Node000029"><a xlink:title=" ">
<path fill="none" stroke="#63b8ff" d="M1295.47,-476.97C1410,-470 1622.03,-454.37 1801,-426 1805.43,-425.3 1809.98,-424.5 1814.55,-423.65"/>
<polygon fill="#63b8ff" stroke="#63b8ff" points="1295.14,-473.48 1285.37,-477.58 1295.57,-480.47 1295.14,-473.48"/>
</a>
</g>
</g>
<!-- Node3&#45;&gt;Node31 -->
<g id="edge37_Node000003_Node000031" class="edge">
<title>Node3&#45;&gt;Node31</title>
<g id="a_edge37_Node000003_Node000031"><a xlink:title=" ">
<path fill="none" stroke="#63b8ff" d="M1295.23,-479.22C1435.2,-474.54 1726.33,-461.14 1970,-426 1973.01,-425.57 1976.06,-425.09 1979.14,-424.58"/>
<polygon fill="#63b8ff" stroke="#63b8ff" points="1294.89,-475.73 1285.01,-479.56 1295.12,-482.73 1294.89,-475.73"/>
</a>
</g>
</g>
<!-- Node4&#45;&gt;Node5 -->
<g id="edge4_Node000004_Node000005" class="edge">
<title>Node4&#45;&gt;Node5</title>
<g id="a_edge4_Node000004_Node000005"><a xlink:title=" ">
<path fill="none" stroke="#63b8ff" d="M1648.81,-379.37C1634.24,-369.53 1617.79,-358.41 1604.12,-349.17"/>
<polygon fill="#63b8ff" stroke="#63b8ff" points="1646.88,-382.29 1657.13,-384.99 1650.8,-376.49 1646.88,-382.29"/>
</a>
</g>
</g>
<!-- Node5&#45;&gt;Node6 -->
<g id="edge5_Node000005_Node000006" class="edge">
<title>Node5&#45;&gt;Node6</title>
<g id="a_edge5_Node000005_Node000006"><a xlink:title=" ">
<path fill="none" stroke="#63b8ff" d="M1491.77,-320.81C1315.22,-306.62 904.79,-273.62 726.83,-259.32"/>
<polygon fill="#63b8ff" stroke="#63b8ff" points="1491.54,-324.3 1501.79,-321.61 1492.1,-317.32 1491.54,-324.3"/>
</a>
</g>
</g>
<!-- Node10 -->
<g id="Node000010" class="node">
<title>Node10</title>
<g id="a_Node000010"><a xlink:href="BasicParamInfoRequest_8h_source.html" target="_top" xlink:title=" ">
<polygon fill="white" stroke="#666666" points="2585.5,-118 2374.5,-118 2374.5,-77 2585.5,-77 2585.5,-118"/>
<text text-anchor="start" x="2382.5" y="-106" font-family="Helvetica,sans-Serif" font-size="10.00">/home/runner/work/Catena</text>
<text text-anchor="start" x="2382.5" y="-95" font-family="Helvetica,sans-Serif" font-size="10.00">/Catena/sdks/cpp/connections</text>
<text text-anchor="middle" x="2480" y="-84" font-family="Helvetica,sans-Serif" font-size="10.00">/gRPC/include/BasicParamInfoRequest.h</text>
</a>
</g>
</g>
<!-- Node5&#45;&gt;Node10 -->
<g id="edge24_Node000005_Node000010" class="edge">
<title>Node5&#45;&gt;Node10</title>
<g id="a_edge24_Node000005_Node000010"><a xlink:title=" ">
<path fill="none" stroke="#63b8ff" d="M1658.18,-306.45C1832.49,-262.34 2233.88,-160.78 2402.83,-118.03"/>
<polygon fill="#63b8ff" stroke="#63b8ff" points="1657.13,-303.11 1648.29,-308.95 1658.85,-309.89 1657.13,-303.11"/>
</a>
</g>
</g>
<!-- Node7 -->
<g id="Node000007" class="node">
<title>Node7</title>
<g id="a_Node000007"><a xlink:href="connections_2gRPC_2include_2Connect_8h.html" target="_top" xlink:title="Implements Catena gRPC Connect.">
<polygon fill="white" stroke="#666666" points="375.5,-118 214.5,-118 214.5,-77 375.5,-77 375.5,-118"/>
<text text-anchor="start" x="222.5" y="-106" font-family="Helvetica,sans-Serif" font-size="10.00">/home/runner/work/Catena</text>
<text text-anchor="start" x="222.5" y="-95" font-family="Helvetica,sans-Serif" font-size="10.00">/Catena/sdks/cpp/connections</text>
<text text-anchor="middle" x="295" y="-84" font-family="Helvetica,sans-Serif" font-size="10.00">/gRPC/include/Connect.h</text>
</a>
</g>
</g>
<!-- Node6&#45;&gt;Node7 -->
<g id="edge6_Node000006_Node000007" class="edge">
<title>Node6&#45;&gt;Node7</title>
<g id="a_edge6_Node000006_Node000007"><a xlink:title=" ">
<path fill="none" stroke="#63b8ff" d="M588.04,-226.86C519.74,-196.95 403.36,-145.97 339.76,-118.11"/>
<polygon fill="#63b8ff" stroke="#63b8ff" points="586.78,-230.13 597.35,-230.94 589.59,-223.72 586.78,-230.13"/>
</a>
</g>
</g>
<!-- Node6&#45;&gt;Node8 -->
<g id="edge7_Node000006_Node000008" class="edge">
<title>Node6&#45;&gt;Node8</title>
<g id="a_edge7_Node000006_Node000008"><a xlink:title=" ">
<path fill="none" stroke="#63b8ff" d="M736.53,-235.02C820.01,-221.35 940.41,-201.63 1019.41,-188.7"/>
<polygon fill="#63b8ff" stroke="#63b8ff" points="735.84,-231.59 726.54,-236.66 736.97,-238.49 735.84,-231.59"/>
</a>
</g>
</g>
<!-- Node21 -->
<g id="Node000021" class="node">
<title>Node21</title>
<g id="a_Node000021"><a xlink:href="UpdateSubscriptions_8h.html" target="_top" xlink:title="Implements Catena gRPC UpdateSubscriptions.">
<polygon fill="white" stroke="#666666" points="196,-118 0,-118 0,-77 196,-77 196,-118"/>
<text text-anchor="start" x="8" y="-106" font-family="Helvetica,sans-Serif" font-size="10.00">/home/runner/work/Catena</text>
<text text-anchor="start" x="8" y="-95" font-family="Helvetica,sans-Serif" font-size="10.00">/Catena/sdks/cpp/connections</text>
<text text-anchor="middle" x="98" y="-84" font-family="Helvetica,sans-Serif" font-size="10.00">/gRPC/include/UpdateSubscriptions.h</text>
</a>
</g>
</g>
<!-- Node6&#45;&gt;Node21 -->
<g id="edge23_Node000006_Node000021" class="edge">
<title>Node6&#45;&gt;Node21</title>
<g id="a_edge23_Node000006_Node000021"><a xlink:title=" ">
<path fill="none" stroke="#63b8ff" d="M552.22,-228.47C512.79,-218.58 466,-206.56 424,-195 332.38,-169.79 227.06,-138.12 161.51,-118.09"/>
<polygon fill="#63b8ff" stroke="#63b8ff" points="551.53,-231.9 562.08,-230.94 553.23,-225.11 551.53,-231.9"/>
</a>
</g>
</g>
<!-- Node8&#45;&gt;Node7 -->
<g id="edge10_Node000008_Node000007" class="edge">
<title>Node8&#45;&gt;Node7</title>
<g id="a_edge10_Node000008_Node000007"><a xlink:title=" ">
<path fill="none" stroke="#63b8ff" d="M1008.93,-170.48C872.48,-165.04 607.14,-150.93 384,-118 381.34,-117.61 378.64,-117.18 375.92,-116.73"/>
<polygon fill="#63b8ff" stroke="#63b8ff" points="1009.2,-173.99 1019.33,-170.88 1009.47,-166.99 1009.2,-173.99"/>
</a>
</g>
</g>
<!-- Node9 -->
<g id="Node000009" class="node">
<title>Node9</title>
<g id="a_Node000009"><a xlink:href="AddLanguage_8h.html" target="_top" xlink:title="Implements Catena gRPC AddLanguage.">
<polygon fill="white" stroke="#666666" points="1180.5,-118 1019.5,-118 1019.5,-77 1180.5,-77 1180.5,-118"/>
<text text-anchor="start" x="1027.5" y="-106" font-family="Helvetica,sans-Serif" font-size="10.00">/home/runner/work/Catena</text>
<text text-anchor="start" x="1027.5" y="-95" font-family="Helvetica,sans-Serif" font-size="10.00">/Catena/sdks/cpp/connections</text>
<text text-anchor="middle" x="1100" y="-84" font-family="Helvetica,sans-Serif" font-size="10.00">/gRPC/include/AddLanguage.h</text>
</a>
</g>
</g>
<!-- Node8&#45;&gt;Node9 -->
<g id="edge8_Node000008_Node000009" class="edge">
<title>Node8&#45;&gt;Node9</title>
<g id="a_edge8_Node000008_Node000009"><a xlink:title=" ">
<path fill="none" stroke="#63b8ff" d="M1100,-143.69C1100,-135.08 1100,-125.9 1100,-118.07"/>
<polygon fill="#63b8ff" stroke="#63b8ff" points="1096.5,-143.79 1100,-153.79 1103.5,-143.79 1096.5,-143.79"/>
</a>
</g>
</g>
<!-- Node8&#45;&gt;Node10 -->
<g id="edge9_Node000008_Node000010" class="edge">
<title>Node8&#45;&gt;Node10</title>
<g id="a_edge9_Node000008_Node000010"><a xlink:title=" ">
<path fill="none" stroke="#63b8ff" d="M1190.9,-173.42C1399.3,-172.4 1927.42,-164.94 2366,-118 2368.8,-117.7 2371.63,-117.38 2374.48,-117.03"/>
<polygon fill="#63b8ff" stroke="#63b8ff" points="1190.6,-169.92 1180.62,-173.47 1190.63,-176.92 1190.6,-169.92"/>
</a>
</g>
</g>
<!-- Node11 -->
<g id="Node000011" class="node">
<title>Node11</title>
<g id="a_Node000011"><a xlink:href="gRPC_2include_2DeviceRequest_8h.html" target="_top" xlink:title="Implements Catena gRPC DeviceRequest.">
<polygon fill="white" stroke="#666666" points="1367.5,-118 1198.5,-118 1198.5,-77 1367.5,-77 1367.5,-118"/>
<text text-anchor="start" x="1206.5" y="-106" font-family="Helvetica,sans-Serif" font-size="10.00">/home/runner/work/Catena</text>
<text text-anchor="start" x="1206.5" y="-95" font-family="Helvetica,sans-Serif" font-size="10.00">/Catena/sdks/cpp/connections</text>
<text text-anchor="middle" x="1283" y="-84" font-family="Helvetica,sans-Serif" font-size="10.00">/gRPC/include/DeviceRequest.h</text>
</a>
</g>
</g>
<!-- Node8&#45;&gt;Node11 -->
<g id="edge11_Node000008_Node000011" class="edge">
<title>Node8&#45;&gt;Node11</title>
<g id="a_edge11_Node000008_Node000011"><a xlink:title=" ">
<path fill="none" stroke="#63b8ff" d="M1157.02,-150.13C1182.16,-139.83 1211.36,-127.86 1235.32,-118.04"/>
<polygon fill="#63b8ff" stroke="#63b8ff" points="1155.53,-146.96 1147.6,-153.99 1158.18,-153.44 1155.53,-146.96"/>
</a>
</g>
</g>
<!-- Node12 -->
<g id="Node000012" class="node">
<title>Node12</title>
<g id="a_Node000012"><a xlink:href="ExecuteCommand_8h.html" target="_top" xlink:title="Implements Catena gRPC ExecuteCommand.">
<polygon fill="white" stroke="#666666" points="1570,-118 1386,-118 1386,-77 1570,-77 1570,-118"/>
<text text-anchor="start" x="1394" y="-106" font-family="Helvetica,sans-Serif" font-size="10.00">/home/runner/work/Catena</text>
<text text-anchor="start" x="1394" y="-95" font-family="Helvetica,sans-Serif" font-size="10.00">/Catena/sdks/cpp/connections</text>
<text text-anchor="middle" x="1478" y="-84" font-family="Helvetica,sans-Serif" font-size="10.00">/gRPC/include/ExecuteCommand.h</text>
</a>
</g>
</g>
<!-- Node8&#45;&gt;Node12 -->
<g id="edge12_Node000008_Node000012" class="edge">
<title>Node8&#45;&gt;Node12</title>
<g id="a_edge12_Node000008_Node000012"><a xlink:title=" ">
<path fill="none" stroke="#63b8ff" d="M1190.69,-155.51C1249.74,-143.79 1326.53,-128.55 1385.87,-116.78"/>
<polygon fill="#63b8ff" stroke="#63b8ff" points="1189.75,-152.12 1180.63,-157.5 1191.12,-158.99 1189.75,-152.12"/>
</a>
</g>
</g>
<!-- Node13 -->
<g id="Node000013" class="node">
<title>Node13</title>
<g id="a_Node000013"><a xlink:href="ExternalObjectRequest_8h.html" target="_top" xlink:title="Implements Catena gRPC ExternalObjectRequest.">
<polygon fill="white" stroke="#666666" points="1795.5,-118 1588.5,-118 1588.5,-77 1795.5,-77 1795.5,-118"/>
<text text-anchor="start" x="1596.5" y="-106" font-family="Helvetica,sans-Serif" font-size="10.00">/home/runner/work/Catena</text>
<text text-anchor="start" x="1596.5" y="-95" font-family="Helvetica,sans-Serif" font-size="10.00">/Catena/sdks/cpp/connections</text>
<text text-anchor="middle" x="1692" y="-84" font-family="Helvetica,sans-Serif" font-size="10.00">/gRPC/include/ExternalObjectRequest.h</text>
</a>
</g>
</g>
<!-- Node8&#45;&gt;Node13 -->
<g id="edge13_Node000008_Node000013" class="edge">
<title>Node8&#45;&gt;Node13</title>
<g id="a_edge13_Node000008_Node000013"><a xlink:title=" ">
<path fill="none" stroke="#63b8ff" d="M1190.7,-164.51C1287.18,-154.59 1444.15,-137.43 1579,-118 1582.05,-117.56 1585.15,-117.1 1588.28,-116.63"/>
<polygon fill="#63b8ff" stroke="#63b8ff" points="1190.28,-161.03 1180.69,-165.53 1191,-167.99 1190.28,-161.03"/>
</a>
</g>
</g>
<!-- Node14 -->
<g id="Node000014" class="node">
<title>Node14</title>
<g id="a_Node000014"><a xlink:href="GetParam_8h.html" target="_top" xlink:title="Implements Catena gRPC GetParam.">
<polygon fill="white" stroke="#666666" points="1974.5,-118 1813.5,-118 1813.5,-77 1974.5,-77 1974.5,-118"/>
<text text-anchor="start" x="1821.5" y="-106" font-family="Helvetica,sans-Serif" font-size="10.00">/home/runner/work/Catena</text>
<text text-anchor="start" x="1821.5" y="-95" font-family="Helvetica,sans-Serif" font-size="10.00">/Catena/sdks/cpp/connections</text>
<text text-anchor="middle" x="1894" y="-84" font-family="Helvetica,sans-Serif" font-size="10.00">/gRPC/include/GetParam.h</text>
</a>
</g>
</g>
<!-- Node8&#45;&gt;Node14 -->
<g id="edge14_Node000008_Node000014" class="edge">
<title>Node8&#45;&gt;Node14</title>
<g id="a_edge14_Node000008_Node000014"><a xlink:title=" ">
<path fill="none" stroke="#63b8ff" d="M1191.03,-170.32C1325.79,-164.72 1586.03,-150.45 1805,-118 1807.66,-117.61 1810.36,-117.18 1813.08,-116.72"/>
<polygon fill="#63b8ff" stroke="#63b8ff" points="1190.61,-166.84 1180.76,-170.74 1190.89,-173.83 1190.61,-166.84"/>
</a>
</g>
</g>
<!-- Node15 -->
<g id="Node000015" class="node">
<title>Node15</title>
<g id="a_Node000015"><a xlink:href="gRPC_2include_2GetPopulatedSlots_8h.html" target="_top" xlink:title="Implements Catena gRPC GetPopulatedSlots.">
<polygon fill="white" stroke="#666666" points="2177.5,-118 1992.5,-118 1992.5,-77 2177.5,-77 2177.5,-118"/>
<text text-anchor="start" x="2000.5" y="-106" font-family="Helvetica,sans-Serif" font-size="10.00">/home/runner/work/Catena</text>
<text text-anchor="start" x="2000.5" y="-95" font-family="Helvetica,sans-Serif" font-size="10.00">/Catena/sdks/cpp/connections</text>
<text text-anchor="middle" x="2085" y="-84" font-family="Helvetica,sans-Serif" font-size="10.00">/gRPC/include/GetPopulatedSlots.h</text>
</a>
</g>
</g>
<!-- Node8&#45;&gt;Node15 -->
<g id="edge15_Node000008_Node000015" class="edge">
<title>Node8&#45;&gt;Node15</title>
<g id="a_edge15_Node000008_Node000015"><a xlink:title=" ">
<path fill="none" stroke="#63b8ff" d="M1191.09,-171.62C1351.79,-167.46 1695.92,-154.7 1984,-118 1986.75,-117.65 1989.53,-117.27 1992.34,-116.87"/>
<polygon fill="#63b8ff" stroke="#63b8ff" points="1190.68,-168.13 1180.77,-171.88 1190.86,-175.13 1190.68,-168.13"/>
</a>
</g>
</g>
<!-- Node16 -->
<g id="Node000016" class="node">
<title>Node16</title>
<g id="a_Node000016"><a xlink:href="gRPC_2include_2GetValue_8h.html" target="_top" xlink:title="Implements Catena gRPC GetValue.">
<polygon fill="white" stroke="#666666" points="2356.5,-118 2195.5,-118 2195.5,-77 2356.5,-77 2356.5,-118"/>
<text text-anchor="start" x="2203.5" y="-106" font-family="Helvetica,sans-Serif" font-size="10.00">/home/runner/work/Catena</text>
<text text-anchor="start" x="2203.5" y="-95" font-family="Helvetica,sans-Serif" font-size="10.00">/Catena/sdks/cpp/connections</text>
<text text-anchor="middle" x="2276" y="-84" font-family="Helvetica,sans-Serif" font-size="10.00">/gRPC/include/GetValue.h</text>
</a>
</g>
</g>
<!-- Node8&#45;&gt;Node16 -->
<g id="edge16_Node000008_Node000016" class="edge">
<title>Node8&#45;&gt;Node16</title>
<g id="a_edge16_Node000008_Node000016"><a xlink:title=" ">
<path fill="none" stroke="#63b8ff" d="M1190.6,-173.9C1377.67,-173.62 1819.89,-167.25 2187,-118 2189.67,-117.64 2192.37,-117.25 2195.09,-116.82"/>
<polygon fill="#63b8ff" stroke="#63b8ff" points="1190.53,-170.4 1180.53,-173.91 1190.54,-177.4 1190.53,-170.4"/>
</a>
</g>
</g>
<!-- Node17 -->
<g id="Node000017" class="node">
<title>Node17</title>
<g id="a_Node000017"><a xlink:href="LanguagePackRequest_8h.html" target="_top" xlink:title="Implements Catena gRPC LanguagePackRequest.">
<polygon fill="white" stroke="#666666" points="598.5,-118 393.5,-118 393.5,-77 598.5,-77 598.5,-118"/>
<text text-anchor="start" x="401.5" y="-106" font-family="Helvetica,sans-Serif" font-size="10.00">/home/runner/work/Catena</text>
<text text-anchor="start" x="401.5" y="-95" font-family="Helvetica,sans-Serif" font-size="10.00">/Catena/sdks/cpp/connections</text>
<text text-anchor="middle" x="496" y="-84" font-family="Helvetica,sans-Serif" font-size="10.00">/gRPC/include/LanguagePackRequest.h</text>
</a>
</g>
</g>
<!-- Node8&#45;&gt;Node17 -->
<g id="edge17_Node000008_Node000017" class="edge">
<title>Node8&#45;&gt;Node17</title>
<g id="a_edge17_Node000008_Node000017"><a xlink:title=" ">
<path fill="none" stroke="#63b8ff" d="M1009.13,-164.97C910.04,-155.27 746.91,-138.14 607,-118 604.29,-117.61 601.54,-117.2 598.77,-116.78"/>
<polygon fill="#63b8ff" stroke="#63b8ff" points="1008.81,-168.45 1019.11,-165.94 1009.49,-161.49 1008.81,-168.45"/>
</a>
</g>
</g>
<!-- Node18 -->
<g id="Node000018" class="node">
<title>Node18</title>
<g id="a_Node000018"><a xlink:href="ListLanguages_8h.html" target="_top" xlink:title="Implements Catena gRPC ListLanguages.">
<polygon fill="white" stroke="#666666" points="781.5,-118 616.5,-118 616.5,-77 781.5,-77 781.5,-118"/>
<text text-anchor="start" x="624.5" y="-106" font-family="Helvetica,sans-Serif" font-size="10.00">/home/runner/work/Catena</text>
<text text-anchor="start" x="624.5" y="-95" font-family="Helvetica,sans-Serif" font-size="10.00">/Catena/sdks/cpp/connections</text>
<text text-anchor="middle" x="699" y="-84" font-family="Helvetica,sans-Serif" font-size="10.00">/gRPC/include/ListLanguages.h</text>
</a>
</g>
</g>
<!-- Node8&#45;&gt;Node18 -->
<g id="edge18_Node000008_Node000018" class="edge">
<title>Node8&#45;&gt;Node18</title>
<g id="a_edge18_Node000008_Node000018"><a xlink:title=" ">
<path fill="none" stroke="#63b8ff" d="M1009.38,-157.39C948.9,-146.53 867.62,-131.74 796,-118 791.28,-117.09 786.43,-116.15 781.53,-115.2"/>
<polygon fill="#63b8ff" stroke="#63b8ff" points="1008.82,-160.85 1019.28,-159.17 1010.05,-153.96 1008.82,-160.85"/>
</a>
</g>
</g>
<!-- Node19 -->
<g id="Node000019" class="node">
<title>Node19</title>
<g id="a_Node000019"><a xlink:href="gRPC_2include_2MultiSetValue_8h.html" target="_top" xlink:title="Generic CallData class for the SetValue and MultiSetValue RPCs.">
<polygon fill="white" stroke="#666666" points="1001.5,-118 838.5,-118 838.5,-77 1001.5,-77 1001.5,-118"/>
<text text-anchor="start" x="846.5" y="-106" font-family="Helvetica,sans-Serif" font-size="10.00">/home/runner/work/Catena</text>
<text text-anchor="start" x="846.5" y="-95" font-family="Helvetica,sans-Serif" font-size="10.00">/Catena/sdks/cpp/connections</text>
<text text-anchor="middle" x="920" y="-84" font-family="Helvetica,sans-Serif" font-size="10.00">/gRPC/include/MultiSetValue.h</text>
</a>
</g>
</g>
<!-- Node8&#45;&gt;Node19 -->
<g id="edge19_Node000008_Node000019" class="edge">
<title>Node8&#45;&gt;Node19</title>
<g id="a_edge19_Node000008_Node000019"><a xlink:title=" ">
<path fill="none" stroke="#63b8ff" d="M1043.92,-150.13C1019.19,-139.83 990.47,-127.86 966.9,-118.04"/>
<polygon fill="#63b8ff" stroke="#63b8ff" points="1042.6,-153.37 1053.18,-153.99 1045.29,-146.91 1042.6,-153.37"/>
</a>
</g>
</g>
<!-- Node20 -->
<g id="Node000020" class="node">
<title>Node20</title>
<g id="a_Node000020"><a xlink:href="gRPC_2include_2SetValue_8h.html" target="_top" xlink:title="Implements Catena gRPC SetValue.">
<polygon fill="white" stroke="#666666" points="945.5,-41 784.5,-41 784.5,0 945.5,0 945.5,-41"/>
<text text-anchor="start" x="792.5" y="-29" font-family="Helvetica,sans-Serif" font-size="10.00">/home/runner/work/Catena</text>
<text text-anchor="start" x="792.5" y="-18" font-family="Helvetica,sans-Serif" font-size="10.00">/Catena/sdks/cpp/connections</text>
<text text-anchor="middle" x="865" y="-7" font-family="Helvetica,sans-Serif" font-size="10.00">/gRPC/include/SetValue.h</text>
</a>
</g>
</g>
<!-- Node8&#45;&gt;Node20 -->
<g id="edge21_Node000008_Node000020" class="edge">
<title>Node8&#45;&gt;Node20</title>
<g id="a_edge21_Node000008_Node000020"><a xlink:title=" ">
<path fill="none" stroke="#63b8ff" d="M1009.3,-167.04C939.62,-159.96 851.61,-145.71 829,-118 810.46,-95.28 830.45,-62.07 847.21,-41.13"/>
<polygon fill="#63b8ff" stroke="#63b8ff" points="1009.14,-170.54 1019.43,-168.03 1009.82,-163.57 1009.14,-170.54"/>
</a>
</g>
</g>
<!-- Node8&#45;&gt;Node21 -->
<g id="edge22_Node000008_Node000021" class="edge">
<title>Node8&#45;&gt;Node21</title>
<g id="a_edge22_Node000008_Node000021"><a xlink:title=" ">
<path fill="none" stroke="#63b8ff" d="M1009.08,-171.41C846.98,-166.9 497.61,-153.61 205,-118 202.09,-117.65 199.15,-117.26 196.18,-116.86"/>
<polygon fill="#63b8ff" stroke="#63b8ff" points="1009.39,-174.92 1019.48,-171.7 1009.58,-167.93 1009.39,-174.92"/>
</a>
</g>
</g>
<!-- Node19&#45;&gt;Node20 -->
<g id="edge20_Node000019_Node000020" class="edge">
<title>Node19&#45;&gt;Node20</title>
<g id="a_edge20_Node000019_Node000020"><a xlink:title=" ">
<path fill="none" stroke="#63b8ff" d="M899.59,-68.67C892.87,-59.5 885.53,-49.5 879.35,-41.07"/>
<polygon fill="#63b8ff" stroke="#63b8ff" points="896.81,-70.8 905.55,-76.79 902.46,-66.66 896.81,-70.8"/>
</a>
</g>
</g>
<!-- Node23&#45;&gt;Node24 -->
<g id="edge27_Node000023_Node000024" class="edge">
<title>Node23&#45;&gt;Node24</title>
<g id="a_edge27_Node000023_Node000024"><a xlink:title=" ">
<path fill="none" stroke="#63b8ff" d="M990.59,-379.92C1008.28,-369.95 1028.43,-358.58 1045.11,-349.17"/>
<polygon fill="#63b8ff" stroke="#63b8ff" points="988.59,-377.03 981.6,-384.99 992.03,-383.13 988.59,-377.03"/>
</a>
</g>
</g>
<!-- Node30 -->
<g id="Node000030" class="node">
<title>Node30</title>
<g id="a_Node000030"><a xlink:href="connections_2REST_2include_2Connect_8h.html" target="_top" xlink:title="Implements REST Connect RPC.">
<polygon fill="white" stroke="#666666" points="1827.5,-349 1666.5,-349 1666.5,-308 1827.5,-308 1827.5,-349"/>
<text text-anchor="start" x="1674.5" y="-337" font-family="Helvetica,sans-Serif" font-size="10.00">/home/runner/work/Catena</text>
<text text-anchor="start" x="1674.5" y="-326" font-family="Helvetica,sans-Serif" font-size="10.00">/Catena/sdks/cpp/connections</text>
<text text-anchor="middle" x="1747" y="-315" font-family="Helvetica,sans-Serif" font-size="10.00">/REST/include/Connect.h</text>
</a>
</g>
</g>
<!-- Node29&#45;&gt;Node30 -->
<g id="edge36_Node000029_Node000030" class="edge">
<title>Node29&#45;&gt;Node30</title>
<g id="a_edge36_Node000029_Node000030"><a xlink:title=" ">
<path fill="none" stroke="#63b8ff" d="M1842.3,-380.19C1823.43,-370.15 1801.84,-358.67 1783.98,-349.17"/>
<polygon fill="#63b8ff" stroke="#63b8ff" points="1840.85,-383.38 1851.32,-384.99 1844.14,-377.2 1840.85,-383.38"/>
</a>
</g>
</g>
<!-- Node31&#45;&gt;Node30 -->
<g id="edge38_Node000031_Node000030" class="edge">
<title>Node31&#45;&gt;Node30</title>
<g id="a_edge38_Node000031_Node000030"><a xlink:title=" ">
<path fill="none" stroke="#63b8ff" d="M1969.39,-382.79C1924.58,-372.05 1870.97,-359.2 1827.6,-348.81"/>
<polygon fill="#63b8ff" stroke="#63b8ff" points="1968.85,-386.26 1979.39,-385.19 1970.49,-379.45 1968.85,-386.26"/>
</a>
</g>
</g>
<!-- Node32 -->
<g id="Node000032" class="node">
<title>Node32</title>
<g id="a_Node000032"><a xlink:href="REST_2include_2DeviceRequest_8h.html" target="_top" xlink:title="Implements REST DeviceRequest RPC.">
<polygon fill="white" stroke="#666666" points="2396,-349 2228,-349 2228,-308 2396,-308 2396,-349"/>
<text text-anchor="start" x="2236" y="-337" font-family="Helvetica,sans-Serif" font-size="10.00">/home/runner/work/Catena</text>
<text text-anchor="start" x="2236" y="-326" font-family="Helvetica,sans-Serif" font-size="10.00">/Catena/sdks/cpp/connections</text>
<text text-anchor="middle" x="2312" y="-315" font-family="Helvetica,sans-Serif" font-size="10.00">/REST/include/DeviceRequest.h</text>
</a>
</g>
</g>
<!-- Node31&#45;&gt;Node32 -->
<g id="edge39_Node000031_Node000032" class="edge">
<title>Node31&#45;&gt;Node32</title>
<g id="a_edge39_Node000031_Node000032"><a xlink:title=" ">
<path fill="none" stroke="#63b8ff" d="M2135.33,-382.08C2170.65,-371.57 2212.33,-359.16 2246.34,-349.04"/>
<polygon fill="#63b8ff" stroke="#63b8ff" points="2134.14,-378.78 2125.55,-384.99 2136.14,-385.49 2134.14,-378.78"/>
</a>
</g>
</g>
<!-- Node33 -->
<g id="Node000033" class="node">
<title>Node33</title>
<g id="a_Node000033"><a xlink:href="REST_2include_2GetPopulatedSlots_8h.html" target="_top" xlink:title="Implements REST GetPopulatedSlots RPC.">
<polygon fill="white" stroke="#666666" points="2030.5,-349 1845.5,-349 1845.5,-308 2030.5,-308 2030.5,-349"/>
<text text-anchor="start" x="1853.5" y="-337" font-family="Helvetica,sans-Serif" font-size="10.00">/home/runner/work/Catena</text>
<text text-anchor="start" x="1853.5" y="-326" font-family="Helvetica,sans-Serif" font-size="10.00">/Catena/sdks/cpp/connections</text>
<text text-anchor="middle" x="1938" y="-315" font-family="Helvetica,sans-Serif" font-size="10.00">/REST/include/GetPopulatedSlots.h</text>
</a>
</g>
</g>
<!-- Node31&#45;&gt;Node33 -->
<g id="edge40_Node000031_Node000033" class="edge">
<title>Node31&#45;&gt;Node33</title>
<g id="a_edge40_Node000031_Node000033"><a xlink:title=" ">
<path fill="none" stroke="#63b8ff" d="M2019.57,-379.64C2003.45,-369.74 1985.17,-358.5 1970,-349.17"/>
<polygon fill="#63b8ff" stroke="#63b8ff" points="2017.91,-382.73 2028.26,-384.99 2021.58,-376.77 2017.91,-382.73"/>
</a>
</g>
</g>
<!-- Node34 -->
<g id="Node000034" class="node">
<title>Node34</title>
<g id="a_Node000034"><a xlink:href="REST_2include_2GetValue_8h.html" target="_top" xlink:title="Implements REST GetValue RPC.">
<polygon fill="white" stroke="#666666" points="2209.5,-349 2048.5,-349 2048.5,-308 2209.5,-308 2209.5,-349"/>
<text text-anchor="start" x="2056.5" y="-337" font-family="Helvetica,sans-Serif" font-size="10.00">/home/runner/work/Catena</text>
<text text-anchor="start" x="2056.5" y="-326" font-family="Helvetica,sans-Serif" font-size="10.00">/Catena/sdks/cpp/connections</text>
<text text-anchor="middle" x="2129" y="-315" font-family="Helvetica,sans-Serif" font-size="10.00">/REST/include/GetValue.h</text>
</a>
</g>
</g>
<!-- Node31&#45;&gt;Node34 -->
<g id="edge41_Node000031_Node000034" class="edge">
<title>Node31&#45;&gt;Node34</title>
<g id="a_edge41_Node000031_Node000034"><a xlink:title=" ">
<path fill="none" stroke="#63b8ff" d="M2085.09,-377.23C2093.66,-367.91 2103.08,-357.67 2110.99,-349.07"/>
<polygon fill="#63b8ff" stroke="#63b8ff" points="2082.32,-375.07 2078.13,-384.79 2087.48,-379.81 2082.32,-375.07"/>
</a>
</g>
</g>
<!-- Node35 -->
<g id="Node000035" class="node">
<title>Node35</title>
<g id="a_Node000035"><a xlink:href="REST_2include_2MultiSetValue_8h.html" target="_top" xlink:title="Implements REST MultiSetValue RPC.">
<polygon fill="white" stroke="#666666" points="2576,-349 2414,-349 2414,-308 2576,-308 2576,-349"/>
<text text-anchor="start" x="2422" y="-337" font-family="Helvetica,sans-Serif" font-size="10.00">/home/runner/work/Catena</text>
<text text-anchor="start" x="2422" y="-326" font-family="Helvetica,sans-Serif" font-size="10.00">/Catena/sdks/cpp/connections</text>
<text text-anchor="middle" x="2495" y="-315" font-family="Helvetica,sans-Serif" font-size="10.00">/REST/include/MultiSetValue.h</text>
</a>
</g>
</g>
<!-- Node31&#45;&gt;Node35 -->
<g id="edge42_Node000031_Node000035" class="edge">
<title>Node31&#45;&gt;Node35</title>
<g id="a_edge42_Node000031_Node000035"><a xlink:title=" ">
<path fill="none" stroke="#63b8ff" d="M2150.8,-391.26C2220.51,-380.76 2319.06,-365.21 2405,-349 2407.83,-348.47 2410.7,-347.91 2413.6,-347.34"/>
<polygon fill="#63b8ff" stroke="#63b8ff" points="2150.1,-387.83 2140.73,-392.77 2151.14,-394.75 2150.1,-387.83"/>
</a>
</g>
</g>
<!-- Node36 -->
<g id="Node000036" class="node">
<title>Node36</title>
<g id="a_Node000036"><a xlink:href="REST_2include_2SetValue_8h.html" target="_top" xlink:title="Implements REST SetValue RPC.">
<polygon fill="white" stroke="#666666" points="2575.5,-272 2414.5,-272 2414.5,-231 2575.5,-231 2575.5,-272"/>
<text text-anchor="start" x="2422.5" y="-260" font-family="Helvetica,sans-Serif" font-size="10.00">/home/runner/work/Catena</text>
<text text-anchor="start" x="2422.5" y="-249" font-family="Helvetica,sans-Serif" font-size="10.00">/Catena/sdks/cpp/connections</text>
<text text-anchor="middle" x="2495" y="-238" font-family="Helvetica,sans-Serif" font-size="10.00">/REST/include/SetValue.h</text>
</a>
</g>
</g>
<!-- Node35&#45;&gt;Node36 -->
<g id="edge43_Node000035_Node000036" class="edge">
<title>Node35&#45;&gt;Node36</title>
<g id="a_edge43_Node000035_Node000036"><a xlink:title=" ">
<path fill="none" stroke="#63b8ff" d="M2495,-297.69C2495,-289.08 2495,-279.9 2495,-272.07"/>
<polygon fill="#63b8ff" stroke="#63b8ff" points="2491.5,-297.79 2495,-307.79 2498.5,-297.79 2491.5,-297.79"/>
</a>
</g>
</g>
<!-- Node37&#45;&gt;Node26 -->
<g id="edge47_Node000037_Node000026" class="edge">
<title>Node37&#45;&gt;Node26</title>
<g id="a_edge47_Node000037_Node000026"><a xlink:title=" ">
<path fill="none" stroke="#63b8ff" d="M788.87,-462.72C735.01,-450.55 665.52,-434.85 613.66,-423.14"/>
<polygon fill="#63b8ff" stroke="#63b8ff" points="788.2,-466.16 798.73,-464.95 789.75,-459.33 788.2,-466.16"/>
</a>
</g>
</g>
</g>
</svg>
