<?xml version="1.0" encoding="UTF-8" standalone="no"?>
<!DOCTYPE svg PUBLIC "-//W3C//DTD SVG 1.1//EN"
 "http://www.w3.org/Graphics/SVG/1.1/DTD/svg11.dtd">
<!-- Generated by graphviz version 2.43.0 (0)
 -->
<!-- Title: /home/runner/work/Catena/Catena/sdks/cpp/common/include/ParamVisitor.h Pages: 1 -->
<svg width="1413pt" height="500pt"
 viewBox="0.00 0.00 1412.50 500.00" xmlns="http://www.w3.org/2000/svg" xmlns:xlink="http://www.w3.org/1999/xlink">
<g id="graph0" class="graph" transform="scale(1 1) rotate(0) translate(4 496)">
<title>/home/runner/work/Catena/Catena/sdks/cpp/common/include/ParamVisitor.h</title>
<!-- Node1 -->
<g id="Node000001" class="node">
<title>Node1</title>
<g id="a_Node000001"><a xlink:title="Implements Catena ParamVisitor.">
<polygon fill="#999999" stroke="#666666" points="1235.5,-492 1089.5,-492 1089.5,-451 1235.5,-451 1235.5,-492"/>
<text text-anchor="start" x="1097.5" y="-480" font-family="Helvetica,sans-Serif" font-size="10.00">/home/runner/work/Catena</text>
<text text-anchor="start" x="1097.5" y="-469" font-family="Helvetica,sans-Serif" font-size="10.00">/Catena/sdks/cpp/common</text>
<text text-anchor="middle" x="1162.5" y="-458" font-family="Helvetica,sans-Serif" font-size="10.00">/include/ParamVisitor.h</text>
</a>
</g>
</g>
<!-- Node2 -->
<g id="Node000002" class="node">
<title>Node2</title>
<g id="a_Node000002"><a xlink:href="IParamVisitor_8h.html" target="_top" xlink:title="Implements Catena IParamVisitor.">
<polygon fill="white" stroke="#666666" points="1134.5,-415 1044.5,-415 1044.5,-396 1134.5,-396 1134.5,-415"/>
<text text-anchor="middle" x="1089.5" y="-403" font-family="Helvetica,sans-Serif" font-size="10.00">IParamVisitor.h</text>
</a>
</g>
</g>
<!-- Node1&#45;&gt;Node2 -->
<g id="edge1_Node000001_Node000002" class="edge">
<title>Node1&#45;&gt;Node2</title>
<g id="a_edge1_Node000001_Node000002"><a xlink:title=" ">
<path fill="none" stroke="#63b8ff" d="M1140.2,-450.95C1129.59,-441.65 1117.08,-430.68 1107.14,-421.96"/>
<polygon fill="#63b8ff" stroke="#63b8ff" points="1109.32,-419.22 1099.49,-415.26 1104.7,-424.48 1109.32,-419.22"/>
</a>
</g>
</g>
<!-- Node23 -->
<g id="Node000023" class="node">
<title>Node23</title>
<g id="a_Node000023"><a xlink:href="Path_8h.html" target="_top" xlink:title="Handles Path objects used to uniquely identify and access OIDs.">
<polygon fill="white" stroke="#666666" points="1290,-195 1243,-195 1243,-176 1290,-176 1290,-195"/>
<text text-anchor="middle" x="1266.5" y="-183" font-family="Helvetica,sans-Serif" font-size="10.00">Path.h</text>
</a>
</g>
</g>
<!-- Node1&#45;&gt;Node23 -->
<g id="edge59_Node000001_Node000023" class="edge">
<title>Node1&#45;&gt;Node23</title>
<g id="a_edge59_Node000001_Node000023"><a xlink:title=" ">
<path fill="none" stroke="#63b8ff" d="M1235.57,-458.54C1294.11,-444.29 1366.5,-414.03 1366.5,-351.5 1366.5,-351.5 1366.5,-351.5 1366.5,-294.5 1366.5,-251.15 1322.59,-217.83 1292.96,-200.28"/>
<polygon fill="#63b8ff" stroke="#63b8ff" points="1294.34,-197.04 1283.92,-195.14 1290.89,-203.13 1294.34,-197.04"/>
</a>
</g>
</g>
<!-- Node31 -->
<g id="Node000031" class="node">
<title>Node31</title>
<g id="a_Node000031"><a xlink:href="IDevice_8h.html" target="_top" xlink:title="Interface for device.">
<polygon fill="white" stroke="#666666" points="1120.5,-360 1058.5,-360 1058.5,-341 1120.5,-341 1120.5,-360"/>
<text text-anchor="middle" x="1089.5" y="-348" font-family="Helvetica,sans-Serif" font-size="10.00">IDevice.h</text>
</a>
</g>
</g>
<!-- Node1&#45;&gt;Node31 -->
<g id="edge60_Node000001_Node000031" class="edge">
<title>Node1&#45;&gt;Node31</title>
<g id="a_edge60_Node000001_Node000031"><a xlink:title=" ">
<path fill="none" stroke="#63b8ff" d="M1160.86,-450.81C1158.78,-434.97 1154.09,-412.68 1143.5,-396 1135.87,-383.98 1123.91,-373.64 1113.18,-365.96"/>
<polygon fill="#63b8ff" stroke="#63b8ff" points="1114.83,-362.85 1104.58,-360.16 1110.91,-368.65 1114.83,-362.85"/>
</a>
</g>
</g>
<!-- Node3 -->
<g id="Node000003" class="node">
<title>Node3</title>
<g id="a_Node000003"><a xlink:href="IParam_8h.html" target="_top" xlink:title="Interface for parameters.">
<polygon fill="white" stroke="#666666" points="757,-250 698,-250 698,-231 757,-231 757,-250"/>
<text text-anchor="middle" x="727.5" y="-238" font-family="Helvetica,sans-Serif" font-size="10.00">IParam.h</text>
</a>
</g>
</g>
<!-- Node2&#45;&gt;Node3 -->
<g id="edge2_Node000002_Node000003" class="edge">
<title>Node2&#45;&gt;Node3</title>
<g id="a_edge2_Node000002_Node000003"><a xlink:title=" ">
<path fill="none" stroke="#63b8ff" d="M1044.24,-399.71C978.52,-390.82 855.39,-366.68 771.5,-305 755.5,-293.24 743.29,-273.84 735.84,-259.57"/>
<polygon fill="#63b8ff" stroke="#63b8ff" points="738.82,-257.7 731.27,-250.27 732.54,-260.79 738.82,-257.7"/>
</a>
</g>
</g>
<!-- Node2&#45;&gt;Node23 -->
<g id="edge39_Node000002_Node000023" class="edge">
<title>Node2&#45;&gt;Node23</title>
<g id="a_edge39_Node000002_Node000023"><a xlink:title=" ">
<path fill="none" stroke="#63b8ff" d="M1111.56,-395.89C1145.41,-381.67 1210.35,-350.28 1249.5,-305 1272.11,-278.85 1276.19,-265.47 1273.5,-231 1272.84,-222.52 1271.47,-213.22 1270.13,-205.32"/>
<polygon fill="#63b8ff" stroke="#63b8ff" points="1273.54,-204.53 1268.3,-195.32 1266.65,-205.78 1273.54,-204.53"/>
</a>
</g>
</g>
<!-- Node2&#45;&gt;Node31 -->
<g id="edge40_Node000002_Node000031" class="edge">
<title>Node2&#45;&gt;Node31</title>
<g id="a_edge40_Node000002_Node000031"><a xlink:title=" ">
<path fill="none" stroke="#63b8ff" d="M1089.5,-395.75C1089.5,-388.8 1089.5,-378.85 1089.5,-370.13"/>
<polygon fill="#63b8ff" stroke="#63b8ff" points="1093,-370.09 1089.5,-360.09 1086,-370.09 1093,-370.09"/>
</a>
</g>
</g>
<!-- Node4 -->
<g id="Node000004" class="node">
<title>Node4</title>
<g id="a_Node000004"><a xlink:href="Enums_8h.html" target="_top" xlink:title="tools for using EnumDecorators.">
<polygon fill="white" stroke="#666666" points="726,-195 667,-195 667,-176 726,-176 726,-195"/>
<text text-anchor="middle" x="696.5" y="-183" font-family="Helvetica,sans-Serif" font-size="10.00">Enums.h</text>
</a>
</g>
</g>
<!-- Node3&#45;&gt;Node4 -->
<g id="edge3_Node000003_Node000004" class="edge">
<title>Node3&#45;&gt;Node4</title>
<g id="a_edge3_Node000003_Node000004"><a xlink:title=" ">
<path fill="none" stroke="#63b8ff" d="M722.38,-230.75C718.14,-223.49 711.97,-212.95 706.72,-203.98"/>
<polygon fill="#63b8ff" stroke="#63b8ff" points="709.59,-201.95 701.52,-195.09 703.55,-205.49 709.59,-201.95"/>
</a>
</g>
</g>
<!-- Node12 -->
<g id="Node000012" class="node">
<title>Node12</title>
<g id="a_Node000012"><a xlink:href="IConstraint_8h.html" target="_top" xlink:title="Interface for constraints.">
<polygon fill="white" stroke="#666666" points="411,-195 332,-195 332,-176 411,-176 411,-195"/>
<text text-anchor="middle" x="371.5" y="-183" font-family="Helvetica,sans-Serif" font-size="10.00">IConstraint.h</text>
</a>
</g>
</g>
<!-- Node3&#45;&gt;Node12 -->
<g id="edge12_Node000003_Node000012" class="edge">
<title>Node3&#45;&gt;Node12</title>
<g id="a_edge12_Node000003_Node000012"><a xlink:title=" ">
<path fill="none" stroke="#63b8ff" d="M697.76,-235.07C636.63,-225.97 496.32,-205.08 421.16,-193.89"/>
<polygon fill="#63b8ff" stroke="#63b8ff" points="421.41,-190.39 411.01,-192.38 420.38,-197.32 421.41,-190.39"/>
</a>
</g>
</g>
<!-- Node13 -->
<g id="Node000013" class="node">
<title>Node13</title>
<g id="a_Node000013"><a xlink:title=" ">
<polygon fill="#e0e0e0" stroke="#999999" points="431,-140 312,-140 312,-121 431,-121 431,-140"/>
<text text-anchor="middle" x="371.5" y="-128" font-family="Helvetica,sans-Serif" font-size="10.00">interface/param.pb.h</text>
</a>
</g>
</g>
<!-- Node3&#45;&gt;Node13 -->
<g id="edge38_Node000003_Node000013" class="edge">
<title>Node3&#45;&gt;Node13</title>
<g id="a_edge38_Node000003_Node000013"><a xlink:title=" ">
<path fill="none" stroke="#63b8ff" d="M699.27,-230.94C635.79,-211.68 481.72,-164.94 409.74,-143.1"/>
<polygon fill="#63b8ff" stroke="#63b8ff" points="410.32,-139.62 399.74,-140.07 408.29,-146.32 410.32,-139.62"/>
</a>
</g>
</g>
<!-- Node15 -->
<g id="Node000015" class="node">
<title>Node15</title>
<g id="a_Node000015"><a xlink:href="IParamDescriptor_8h.html" target="_top" xlink:title="Interface class for ParamDescriptor.">
<polygon fill="white" stroke="#666666" points="872,-195 763,-195 763,-176 872,-176 872,-195"/>
<text text-anchor="middle" x="817.5" y="-183" font-family="Helvetica,sans-Serif" font-size="10.00">IParamDescriptor.h</text>
</a>
</g>
</g>
<!-- Node3&#45;&gt;Node15 -->
<g id="edge15_Node000003_Node000015" class="edge">
<title>Node3&#45;&gt;Node15</title>
<g id="a_edge15_Node000003_Node000015"><a xlink:title=" ">
<path fill="none" stroke="#63b8ff" d="M741.96,-230.98C755.92,-222.77 777.29,-210.18 793.75,-200.49"/>
<polygon fill="#63b8ff" stroke="#63b8ff" points="795.94,-203.26 802.78,-195.17 792.38,-197.23 795.94,-203.26"/>
</a>
</g>
</g>
<!-- Node3&#45;&gt;Node23 -->
<g id="edge29_Node000003_Node000023" class="edge">
<title>Node3&#45;&gt;Node23</title>
<g id="a_edge29_Node000003_Node000023"><a xlink:title=" ">
<path fill="none" stroke="#63b8ff" d="M757.25,-236.57C850.19,-227.44 1134.8,-199.45 1232.87,-189.81"/>
<polygon fill="#63b8ff" stroke="#63b8ff" points="1233.22,-193.29 1242.83,-188.83 1232.53,-186.32 1233.22,-193.29"/>
</a>
</g>
</g>
<!-- Node28 -->
<g id="Node000028" class="node">
<title>Node28</title>
<g id="a_Node000028"><a xlink:href="Status_8h.html" target="_top" xlink:title="Communicates failure status using gRPC&#39;s codes.">
<polygon fill="white" stroke="#666666" points="226.5,-195 170.5,-195 170.5,-176 226.5,-176 226.5,-195"/>
<text text-anchor="middle" x="198.5" y="-183" font-family="Helvetica,sans-Serif" font-size="10.00">Status.h</text>
</a>
</g>
</g>
<!-- Node3&#45;&gt;Node28 -->
<g id="edge35_Node000003_Node000028" class="edge">
<title>Node3&#45;&gt;Node28</title>
<g id="a_edge35_Node000003_Node000028"><a xlink:title=" ">
<path fill="none" stroke="#63b8ff" d="M697.93,-236.54C607.88,-227.51 337.1,-200.39 236.59,-190.32"/>
<polygon fill="#63b8ff" stroke="#63b8ff" points="236.88,-186.83 226.58,-189.31 236.18,-193.79 236.88,-186.83"/>
</a>
</g>
</g>
<!-- Node5 -->
<g id="Node000005" class="node">
<title>Node5</title>
<g id="a_Node000005"><a xlink:href="EnumDecorator_8h.html" target="_top" xlink:title="Provides an enum with useful extra functionality.">
<polygon fill="white" stroke="#666666" points="768.5,-140 624.5,-140 624.5,-121 768.5,-121 768.5,-140"/>
<text text-anchor="middle" x="696.5" y="-128" font-family="Helvetica,sans-Serif" font-size="10.00">patterns/EnumDecorator.h</text>
</a>
</g>
</g>
<!-- Node4&#45;&gt;Node5 -->
<g id="edge4_Node000004_Node000005" class="edge">
<title>Node4&#45;&gt;Node5</title>
<g id="a_edge4_Node000004_Node000005"><a xlink:title=" ">
<path fill="none" stroke="#63b8ff" d="M696.5,-175.75C696.5,-168.8 696.5,-158.85 696.5,-150.13"/>
<polygon fill="#63b8ff" stroke="#63b8ff" points="700,-150.09 696.5,-140.09 693,-150.09 700,-150.09"/>
</a>
</g>
</g>
<!-- Node7 -->
<g id="Node000007" class="node">
<title>Node7</title>
<g id="a_Node000007"><a xlink:title=" ">
<polygon fill="#e0e0e0" stroke="#999999" points="436.5,-85 386.5,-85 386.5,-66 436.5,-66 436.5,-85"/>
<text text-anchor="middle" x="411.5" y="-73" font-family="Helvetica,sans-Serif" font-size="10.00">cstdint</text>
</a>
</g>
</g>
<!-- Node4&#45;&gt;Node7 -->
<g id="edge11_Node000004_Node000007" class="edge">
<title>Node4&#45;&gt;Node7</title>
<g id="a_edge11_Node000004_Node000007"><a xlink:title=" ">
<path fill="none" stroke="#63b8ff" d="M680.8,-175.86C650.96,-159.49 588.06,-125.17 577.5,-121 565.3,-116.18 491.57,-97 446.57,-85.45"/>
<polygon fill="#63b8ff" stroke="#63b8ff" points="447.18,-81.99 436.62,-82.9 445.44,-88.77 447.18,-81.99"/>
</a>
</g>
</g>
<!-- Node11 -->
<g id="Node000011" class="node">
<title>Node11</title>
<g id="a_Node000011"><a xlink:title=" ">
<polygon fill="#e0e0e0" stroke="#999999" points="568,-140 449,-140 449,-121 568,-121 568,-140"/>
<text text-anchor="middle" x="508.5" y="-128" font-family="Helvetica,sans-Serif" font-size="10.00">interface/device.pb.h</text>
</a>
</g>
</g>
<!-- Node4&#45;&gt;Node11 -->
<g id="edge10_Node000004_Node000011" class="edge">
<title>Node4&#45;&gt;Node11</title>
<g id="a_edge10_Node000004_Node000011"><a xlink:title=" ">
<path fill="none" stroke="#63b8ff" d="M666.71,-176.1C634.86,-167.12 584.17,-152.83 548.77,-142.85"/>
<polygon fill="#63b8ff" stroke="#63b8ff" points="549.35,-139.38 538.77,-140.03 547.45,-146.12 549.35,-139.38"/>
</a>
</g>
</g>
<!-- Node6 -->
<g id="Node000006" class="node">
<title>Node6</title>
<g id="a_Node000006"><a xlink:href="ReflectionMacros_8h.html" target="_top" xlink:title="adapted from https://github.com/tapika/TestCppReflect">
<polygon fill="white" stroke="#666666" points="652.5,-85 542.5,-85 542.5,-66 652.5,-66 652.5,-85"/>
<text text-anchor="middle" x="597.5" y="-73" font-family="Helvetica,sans-Serif" font-size="10.00">ReflectionMacros.h</text>
</a>
</g>
</g>
<!-- Node5&#45;&gt;Node6 -->
<g id="edge5_Node000005_Node000006" class="edge">
<title>Node5&#45;&gt;Node6</title>
<g id="a_edge5_Node000005_Node000006"><a xlink:title=" ">
<path fill="none" stroke="#63b8ff" d="M680.59,-120.98C664.95,-112.61 640.84,-99.7 622.62,-89.95"/>
<polygon fill="#63b8ff" stroke="#63b8ff" points="624.16,-86.8 613.7,-85.17 620.86,-92.98 624.16,-86.8"/>
</a>
</g>
</g>
<!-- Node5&#45;&gt;Node7 -->
<g id="edge6_Node000005_Node000007" class="edge">
<title>Node5&#45;&gt;Node7</title>
<g id="a_edge6_Node000005_Node000007"><a xlink:title=" ">
<path fill="none" stroke="#63b8ff" d="M643.16,-120.99C592.41,-112.66 514.02,-99.19 446.5,-85 446.4,-84.98 446.3,-84.96 446.2,-84.94"/>
<polygon fill="#63b8ff" stroke="#63b8ff" points="447.21,-81.58 436.69,-82.82 445.69,-88.41 447.21,-81.58"/>
</a>
</g>
</g>
<!-- Node8 -->
<g id="Node000008" class="node">
<title>Node8</title>
<g id="a_Node000008"><a xlink:title=" ">
<polygon fill="#e0e0e0" stroke="#999999" points="871,-24.5 778,-24.5 778,-5.5 871,-5.5 871,-24.5"/>
<text text-anchor="middle" x="824.5" y="-12.5" font-family="Helvetica,sans-Serif" font-size="10.00">unordered_map</text>
</a>
</g>
</g>
<!-- Node5&#45;&gt;Node8 -->
<g id="edge7_Node000005_Node000008" class="edge">
<title>Node5&#45;&gt;Node8</title>
<g id="a_edge7_Node000005_Node000008"><a xlink:title=" ">
<path fill="none" stroke="#63b8ff" d="M706.12,-120.97C727.62,-101.91 779.8,-55.63 807.14,-31.39"/>
<polygon fill="#63b8ff" stroke="#63b8ff" points="809.61,-33.88 814.77,-24.63 804.96,-28.65 809.61,-33.88"/>
</a>
</g>
</g>
<!-- Node9 -->
<g id="Node000009" class="node">
<title>Node9</title>
<g id="a_Node000009"><a xlink:title=" ">
<polygon fill="#e0e0e0" stroke="#999999" points="1189.5,-24.5 1145.5,-24.5 1145.5,-5.5 1189.5,-5.5 1189.5,-24.5"/>
<text text-anchor="middle" x="1167.5" y="-12.5" font-family="Helvetica,sans-Serif" font-size="10.00">string</text>
</a>
</g>
</g>
<!-- Node5&#45;&gt;Node9 -->
<g id="edge8_Node000005_Node000009" class="edge">
<title>Node5&#45;&gt;Node9</title>
<g id="a_edge8_Node000005_Node000009"><a xlink:title=" ">
<path fill="none" stroke="#63b8ff" d="M745.83,-120.98C784.07,-113.61 838.02,-101.53 883.5,-85 901.25,-78.55 903.65,-72.16 921.5,-66 995.81,-40.37 1087.52,-26.04 1135.22,-19.8"/>
<polygon fill="#63b8ff" stroke="#63b8ff" points="1135.79,-23.26 1145.27,-18.53 1134.9,-16.32 1135.79,-23.26"/>
</a>
</g>
</g>
<!-- Node10 -->
<g id="Node000010" class="node">
<title>Node10</title>
<g id="a_Node000010"><a xlink:title=" ">
<polygon fill="#e0e0e0" stroke="#999999" points="524,-85 455,-85 455,-66 524,-66 524,-85"/>
<text text-anchor="middle" x="489.5" y="-73" font-family="Helvetica,sans-Serif" font-size="10.00">type_traits</text>
</a>
</g>
</g>
<!-- Node5&#45;&gt;Node10 -->
<g id="edge9_Node000005_Node000010" class="edge">
<title>Node5&#45;&gt;Node10</title>
<g id="a_edge9_Node000005_Node000010"><a xlink:title=" ">
<path fill="none" stroke="#63b8ff" d="M663.24,-120.98C627.89,-111.93 571.83,-97.58 532.99,-87.64"/>
<polygon fill="#63b8ff" stroke="#63b8ff" points="533.57,-84.17 523.02,-85.08 531.84,-90.95 533.57,-84.17"/>
</a>
</g>
</g>
<!-- Node12&#45;&gt;Node13 -->
<g id="edge13_Node000012_Node000013" class="edge">
<title>Node12&#45;&gt;Node13</title>
<g id="a_edge13_Node000012_Node000013"><a xlink:title=" ">
<path fill="none" stroke="#63b8ff" d="M371.5,-175.75C371.5,-168.8 371.5,-158.85 371.5,-150.13"/>
<polygon fill="#63b8ff" stroke="#63b8ff" points="375,-150.09 371.5,-140.09 368,-150.09 375,-150.09"/>
</a>
</g>
</g>
<!-- Node14 -->
<g id="Node000014" class="node">
<title>Node14</title>
<g id="a_Node000014"><a xlink:title=" ">
<polygon fill="#e0e0e0" stroke="#999999" points="293.5,-140 157.5,-140 157.5,-121 293.5,-121 293.5,-140"/>
<text text-anchor="middle" x="225.5" y="-128" font-family="Helvetica,sans-Serif" font-size="10.00">interface/constraint.pb.h</text>
</a>
</g>
</g>
<!-- Node12&#45;&gt;Node14 -->
<g id="edge14_Node000012_Node000014" class="edge">
<title>Node12&#45;&gt;Node14</title>
<g id="a_edge14_Node000012_Node000014"><a xlink:title=" ">
<path fill="none" stroke="#63b8ff" d="M348.04,-175.98C323.92,-167.23 286.13,-153.51 258.9,-143.62"/>
<polygon fill="#63b8ff" stroke="#63b8ff" points="259.98,-140.29 249.38,-140.17 257.59,-146.87 259.98,-140.29"/>
</a>
</g>
</g>
<!-- Node16 -->
<g id="Node000016" class="node">
<title>Node16</title>
<g id="a_Node000016"><a xlink:href="Tags_8h.html" target="_top" xlink:title="Tags to differentiate collections with the same type for template specialization.">
<polygon fill="white" stroke="#666666" points="1010,-140 963,-140 963,-121 1010,-121 1010,-140"/>
<text text-anchor="middle" x="986.5" y="-128" font-family="Helvetica,sans-Serif" font-size="10.00">Tags.h</text>
</a>
</g>
</g>
<!-- Node15&#45;&gt;Node16 -->
<g id="edge16_Node000015_Node000016" class="edge">
<title>Node15&#45;&gt;Node16</title>
<g id="a_edge16_Node000015_Node000016"><a xlink:title=" ">
<path fill="none" stroke="#63b8ff" d="M844.65,-175.98C874.2,-166.72 921.47,-151.89 953.23,-141.93"/>
<polygon fill="#63b8ff" stroke="#63b8ff" points="954.46,-145.22 962.96,-138.88 952.37,-138.54 954.46,-145.22"/>
</a>
</g>
</g>
<!-- Node18 -->
<g id="Node000018" class="node">
<title>Node18</title>
<g id="a_Node000018"><a xlink:href="PolyglotText_8h.html" target="_top" xlink:title="Polyglot Text serialization and deserialization to protobuf.">
<polygon fill="white" stroke="#666666" points="872.5,-140 786.5,-140 786.5,-121 872.5,-121 872.5,-140"/>
<text text-anchor="middle" x="829.5" y="-128" font-family="Helvetica,sans-Serif" font-size="10.00">PolyglotText.h</text>
</a>
</g>
</g>
<!-- Node15&#45;&gt;Node18 -->
<g id="edge19_Node000015_Node000018" class="edge">
<title>Node15&#45;&gt;Node18</title>
<g id="a_edge19_Node000015_Node000018"><a xlink:title=" ">
<path fill="none" stroke="#63b8ff" d="M819.48,-175.75C821.07,-168.72 823.36,-158.62 825.35,-149.84"/>
<polygon fill="#63b8ff" stroke="#63b8ff" points="828.76,-150.62 827.56,-140.09 821.93,-149.07 828.76,-150.62"/>
</a>
</g>
</g>
<!-- Node16&#45;&gt;Node9 -->
<g id="edge18_Node000016_Node000009" class="edge">
<title>Node16&#45;&gt;Node9</title>
<g id="a_edge18_Node000016_Node000009"><a xlink:title=" ">
<path fill="none" stroke="#63b8ff" d="M1010.18,-124.04C1014.92,-122.99 1019.86,-121.93 1024.5,-121 1068.99,-112.05 1196.38,-119.8 1225.5,-85 1241.48,-65.91 1215.2,-43.9 1193.01,-29.97"/>
<polygon fill="#63b8ff" stroke="#63b8ff" points="1194.58,-26.83 1184.2,-24.7 1190.99,-32.84 1194.58,-26.83"/>
</a>
</g>
</g>
<!-- Node17 -->
<g id="Node000017" class="node">
<title>Node17</title>
<g id="a_Node000017"><a xlink:title=" ">
<polygon fill="#e0e0e0" stroke="#999999" points="1338,-85 1273,-85 1273,-66 1338,-66 1338,-85"/>
<text text-anchor="middle" x="1305.5" y="-73" font-family="Helvetica,sans-Serif" font-size="10.00">functional</text>
</a>
</g>
</g>
<!-- Node16&#45;&gt;Node17 -->
<g id="edge17_Node000016_Node000017" class="edge">
<title>Node16&#45;&gt;Node17</title>
<g id="a_edge17_Node000016_Node000017"><a xlink:title=" ">
<path fill="none" stroke="#63b8ff" d="M1010.17,-123.95C1014.9,-122.91 1019.85,-121.88 1024.5,-121 1127.9,-101.5 1154.72,-102.36 1258.5,-85 1259.96,-84.76 1261.44,-84.51 1262.93,-84.25"/>
<polygon fill="#63b8ff" stroke="#63b8ff" points="1263.65,-87.68 1272.9,-82.51 1262.45,-80.78 1263.65,-87.68"/>
</a>
</g>
</g>
<!-- Node18&#45;&gt;Node8 -->
<g id="edge27_Node000018_Node000008" class="edge">
<title>Node18&#45;&gt;Node8</title>
<g id="a_edge27_Node000018_Node000008"><a xlink:title=" ">
<path fill="none" stroke="#63b8ff" d="M812.92,-120.87C800.33,-113.3 783.96,-101.01 776.5,-85 767.1,-64.84 785.91,-44.22 802.67,-30.84"/>
<polygon fill="#63b8ff" stroke="#63b8ff" points="805.18,-33.34 811.09,-24.55 800.99,-27.73 805.18,-33.34"/>
</a>
</g>
</g>
<!-- Node18&#45;&gt;Node9 -->
<g id="edge26_Node000018_Node000009" class="edge">
<title>Node18&#45;&gt;Node9</title>
<g id="a_edge26_Node000018_Node000009"><a xlink:title=" ">
<path fill="none" stroke="#63b8ff" d="M872.66,-122.62C937.27,-112.16 1053.49,-92.67 1071.5,-85 1102.17,-71.94 1132.57,-47.68 1150.69,-31.68"/>
<polygon fill="#63b8ff" stroke="#63b8ff" points="1153.48,-33.88 1158.55,-24.58 1148.78,-28.69 1153.48,-33.88"/>
</a>
</g>
</g>
<!-- Node19 -->
<g id="Node000019" class="node">
<title>Node19</title>
<g id="a_Node000019"><a xlink:href="IPolyglotText_8h.html" target="_top" xlink:title="Catena&#39;s multi&#45;language text interface.">
<polygon fill="white" stroke="#666666" points="874,-85 785,-85 785,-66 874,-66 874,-85"/>
<text text-anchor="middle" x="829.5" y="-73" font-family="Helvetica,sans-Serif" font-size="10.00">IPolyglotText.h</text>
</a>
</g>
</g>
<!-- Node18&#45;&gt;Node19 -->
<g id="edge20_Node000018_Node000019" class="edge">
<title>Node18&#45;&gt;Node19</title>
<g id="a_edge20_Node000018_Node000019"><a xlink:title=" ">
<path fill="none" stroke="#63b8ff" d="M829.5,-120.75C829.5,-113.8 829.5,-103.85 829.5,-95.13"/>
<polygon fill="#63b8ff" stroke="#63b8ff" points="833,-95.09 829.5,-85.09 826,-95.09 833,-95.09"/>
</a>
</g>
</g>
<!-- Node21 -->
<g id="Node000021" class="node">
<title>Node21</title>
<g id="a_Node000021"><a xlink:title=" ">
<polygon fill="#e0e0e0" stroke="#999999" points="760,-24.5 677,-24.5 677,-5.5 760,-5.5 760,-24.5"/>
<text text-anchor="middle" x="718.5" y="-12.5" font-family="Helvetica,sans-Serif" font-size="10.00">initializer_list</text>
</a>
</g>
</g>
<!-- Node18&#45;&gt;Node21 -->
<g id="edge28_Node000018_Node000021" class="edge">
<title>Node18&#45;&gt;Node21</title>
<g id="a_edge28_Node000018_Node000021"><a xlink:title=" ">
<path fill="none" stroke="#63b8ff" d="M815.73,-120.99C802.95,-112.71 783.79,-99.32 769.5,-85 753.61,-69.09 738.73,-47.95 729.19,-33.29"/>
<polygon fill="#63b8ff" stroke="#63b8ff" points="732.05,-31.26 723.74,-24.7 726.15,-35.02 732.05,-31.26"/>
</a>
</g>
</g>
<!-- Node22 -->
<g id="Node000022" class="node">
<title>Node22</title>
<g id="a_Node000022"><a xlink:title=" ">
<polygon fill="#e0e0e0" stroke="#999999" points="1062.5,-85 930.5,-85 930.5,-66 1062.5,-66 1062.5,-85"/>
<text text-anchor="middle" x="996.5" y="-73" font-family="Helvetica,sans-Serif" font-size="10.00">interface/language.pb.h</text>
</a>
</g>
</g>
<!-- Node18&#45;&gt;Node22 -->
<g id="edge25_Node000018_Node000022" class="edge">
<title>Node18&#45;&gt;Node22</title>
<g id="a_edge25_Node000018_Node000022"><a xlink:title=" ">
<path fill="none" stroke="#63b8ff" d="M856.33,-120.98C884.37,-112.09 928.55,-98.07 959.8,-88.15"/>
<polygon fill="#63b8ff" stroke="#63b8ff" points="960.99,-91.44 969.46,-85.08 958.87,-84.77 960.99,-91.44"/>
</a>
</g>
</g>
<!-- Node19&#45;&gt;Node8 -->
<g id="edge22_Node000019_Node000008" class="edge">
<title>Node19&#45;&gt;Node8</title>
<g id="a_edge22_Node000019_Node000008"><a xlink:title=" ">
<path fill="none" stroke="#63b8ff" d="M828.76,-65.87C828.07,-57.75 827,-45.31 826.11,-34.89"/>
<polygon fill="#63b8ff" stroke="#63b8ff" points="829.58,-34.33 825.24,-24.67 822.61,-34.93 829.58,-34.33"/>
</a>
</g>
</g>
<!-- Node19&#45;&gt;Node9 -->
<g id="edge23_Node000019_Node000009" class="edge">
<title>Node19&#45;&gt;Node9</title>
<g id="a_edge23_Node000019_Node000009"><a xlink:title=" ">
<path fill="none" stroke="#63b8ff" d="M874.04,-66.79C943.03,-54.85 1074.13,-32.16 1134.98,-21.63"/>
<polygon fill="#63b8ff" stroke="#63b8ff" points="1135.89,-25.02 1145.15,-19.87 1134.7,-18.13 1135.89,-25.02"/>
</a>
</g>
</g>
<!-- Node20 -->
<g id="Node000020" class="node">
<title>Node20</title>
<g id="a_Node000020"><a xlink:title=" ">
<polygon fill="#e0e0e0" stroke="#999999" points="1030,-30 889,-30 889,0 1030,0 1030,-30"/>
<text text-anchor="start" x="897" y="-18" font-family="Helvetica,sans-Serif" font-size="10.00">google/protobuf/message</text>
<text text-anchor="middle" x="959.5" y="-7" font-family="Helvetica,sans-Serif" font-size="10.00">_lite.h</text>
</a>
</g>
</g>
<!-- Node19&#45;&gt;Node20 -->
<g id="edge21_Node000019_Node000020" class="edge">
<title>Node19&#45;&gt;Node20</title>
<g id="a_edge21_Node000019_Node000020"><a xlink:title=" ">
<path fill="none" stroke="#63b8ff" d="M848.4,-65.99C866.79,-57.72 895.3,-44.89 918.84,-34.3"/>
<polygon fill="#63b8ff" stroke="#63b8ff" points="920.56,-37.36 928.25,-30.06 917.69,-30.98 920.56,-37.36"/>
</a>
</g>
</g>
<!-- Node19&#45;&gt;Node21 -->
<g id="edge24_Node000019_Node000021" class="edge">
<title>Node19&#45;&gt;Node21</title>
<g id="a_edge24_Node000019_Node000021"><a xlink:title=" ">
<path fill="none" stroke="#63b8ff" d="M813.12,-65.87C794.92,-56.28 765.3,-40.67 744.05,-29.47"/>
<polygon fill="#63b8ff" stroke="#63b8ff" points="745.42,-26.23 734.95,-24.67 742.16,-32.43 745.42,-26.23"/>
</a>
</g>
</g>
<!-- Node23&#45;&gt;Node9 -->
<g id="edge31_Node000023_Node000009" class="edge">
<title>Node23&#45;&gt;Node9</title>
<g id="a_edge31_Node000023_Node000009"><a xlink:title=" ">
<path fill="none" stroke="#63b8ff" d="M1290.36,-178.58C1309.54,-172.43 1335.25,-160.71 1347.5,-140 1364.25,-111.69 1367.4,-92.18 1347.5,-66 1329.66,-42.53 1246.42,-27.19 1199.64,-20.26"/>
<polygon fill="#63b8ff" stroke="#63b8ff" points="1200.09,-16.79 1189.69,-18.83 1199.09,-23.71 1200.09,-16.79"/>
</a>
</g>
</g>
<!-- Node24 -->
<g id="Node000024" class="node">
<title>Node24</title>
<g id="a_Node000024"><a xlink:title=" ">
<polygon fill="#e0e0e0" stroke="#999999" points="1192.5,-140 1132.5,-140 1132.5,-121 1192.5,-121 1192.5,-140"/>
<text text-anchor="middle" x="1162.5" y="-128" font-family="Helvetica,sans-Serif" font-size="10.00">iostream</text>
</a>
</g>
</g>
<!-- Node23&#45;&gt;Node24 -->
<g id="edge30_Node000023_Node000024" class="edge">
<title>Node23&#45;&gt;Node24</title>
<g id="a_edge30_Node000023_Node000024"><a xlink:title=" ">
<path fill="none" stroke="#63b8ff" d="M1249.79,-175.98C1233.29,-167.57 1207.8,-154.59 1188.62,-144.81"/>
<polygon fill="#63b8ff" stroke="#63b8ff" points="1190.01,-141.59 1179.51,-140.17 1186.83,-147.83 1190.01,-141.59"/>
</a>
</g>
</g>
<!-- Node25 -->
<g id="Node000025" class="node">
<title>Node25</title>
<g id="a_Node000025"><a xlink:title=" ">
<polygon fill="#e0e0e0" stroke="#999999" points="1114,-140 1067,-140 1067,-121 1114,-121 1114,-140"/>
<text text-anchor="middle" x="1090.5" y="-128" font-family="Helvetica,sans-Serif" font-size="10.00">vector</text>
</a>
</g>
</g>
<!-- Node23&#45;&gt;Node25 -->
<g id="edge32_Node000023_Node000025" class="edge">
<title>Node23&#45;&gt;Node25</title>
<g id="a_edge32_Node000023_Node000025"><a xlink:title=" ">
<path fill="none" stroke="#63b8ff" d="M1242.76,-177.35C1212.11,-168.12 1158.57,-152 1123.84,-141.54"/>
<polygon fill="#63b8ff" stroke="#63b8ff" points="1124.72,-138.15 1114.14,-138.62 1122.71,-144.85 1124.72,-138.15"/>
</a>
</g>
</g>
<!-- Node26 -->
<g id="Node000026" class="node">
<title>Node26</title>
<g id="a_Node000026"><a xlink:title=" ">
<polygon fill="#e0e0e0" stroke="#999999" points="1262,-140 1211,-140 1211,-121 1262,-121 1262,-140"/>
<text text-anchor="middle" x="1236.5" y="-128" font-family="Helvetica,sans-Serif" font-size="10.00">variant</text>
</a>
</g>
</g>
<!-- Node23&#45;&gt;Node26 -->
<g id="edge33_Node000023_Node000026" class="edge">
<title>Node23&#45;&gt;Node26</title>
<g id="a_edge33_Node000023_Node000026"><a xlink:title=" ">
<path fill="none" stroke="#63b8ff" d="M1261.55,-175.75C1257.44,-168.49 1251.47,-157.95 1246.4,-148.98"/>
<polygon fill="#63b8ff" stroke="#63b8ff" points="1249.33,-147.07 1241.36,-140.09 1243.24,-150.52 1249.33,-147.07"/>
</a>
</g>
</g>
<!-- Node27 -->
<g id="Node000027" class="node">
<title>Node27</title>
<g id="a_Node000027"><a xlink:title=" ">
<polygon fill="#e0e0e0" stroke="#999999" points="1338.5,-140 1280.5,-140 1280.5,-121 1338.5,-121 1338.5,-140"/>
<text text-anchor="middle" x="1309.5" y="-128" font-family="Helvetica,sans-Serif" font-size="10.00">memory</text>
</a>
</g>
</g>
<!-- Node23&#45;&gt;Node27 -->
<g id="edge34_Node000023_Node000027" class="edge">
<title>Node23&#45;&gt;Node27</title>
<g id="a_edge34_Node000023_Node000027"><a xlink:title=" ">
<path fill="none" stroke="#63b8ff" d="M1273.6,-175.75C1279.67,-168.26 1288.59,-157.28 1296.01,-148.13"/>
<polygon fill="#63b8ff" stroke="#63b8ff" points="1298.95,-150.06 1302.53,-140.09 1293.51,-145.65 1298.95,-150.06"/>
</a>
</g>
</g>
<!-- Node29 -->
<g id="Node000029" class="node">
<title>Node29</title>
<g id="a_Node000029"><a xlink:title=" ">
<polygon fill="#e0e0e0" stroke="#999999" points="139.5,-140 83.5,-140 83.5,-121 139.5,-121 139.5,-140"/>
<text text-anchor="middle" x="111.5" y="-128" font-family="Helvetica,sans-Serif" font-size="10.00">sstream</text>
</a>
</g>
</g>
<!-- Node28&#45;&gt;Node29 -->
<g id="edge36_Node000028_Node000029" class="edge">
<title>Node28&#45;&gt;Node29</title>
<g id="a_edge36_Node000028_Node000029"><a xlink:title=" ">
<path fill="none" stroke="#63b8ff" d="M184.52,-175.98C171.03,-167.77 150.37,-155.18 134.46,-145.49"/>
<polygon fill="#63b8ff" stroke="#63b8ff" points="136.09,-142.38 125.73,-140.17 132.45,-148.36 136.09,-142.38"/>
</a>
</g>
</g>
<!-- Node30 -->
<g id="Node000030" class="node">
<title>Node30</title>
<g id="a_Node000030"><a xlink:title=" ">
<polygon fill="#e0e0e0" stroke="#999999" points="65,-140 0,-140 0,-121 65,-121 65,-140"/>
<text text-anchor="middle" x="32.5" y="-128" font-family="Helvetica,sans-Serif" font-size="10.00">stdexcept</text>
</a>
</g>
</g>
<!-- Node28&#45;&gt;Node30 -->
<g id="edge37_Node000028_Node000030" class="edge">
<title>Node28&#45;&gt;Node30</title>
<g id="a_edge37_Node000028_Node000030"><a xlink:title=" ">
<path fill="none" stroke="#63b8ff" d="M171.83,-175.98C143.96,-167.09 100.05,-153.07 68.98,-143.15"/>
<polygon fill="#63b8ff" stroke="#63b8ff" points="69.97,-139.79 59.38,-140.08 67.84,-146.46 69.97,-139.79"/>
</a>
</g>
</g>
<!-- Node31&#45;&gt;Node3 -->
<g id="edge49_Node000031_Node000003" class="edge">
<title>Node31&#45;&gt;Node3</title>
<g id="a_edge49_Node000031_Node000003"><a xlink:title=" ">
<path fill="none" stroke="#63b8ff" d="M1058.44,-349.68C1004.91,-348.9 892.82,-342.46 807.5,-305 782.02,-293.81 757.71,-272.48 742.72,-257.64"/>
<polygon fill="#63b8ff" stroke="#63b8ff" points="744.9,-254.86 735.4,-250.17 739.9,-259.76 744.9,-254.86"/>
</a>
</g>
</g>
<!-- Node31&#45;&gt;Node9 -->
<g id="edge55_Node000031_Node000009" class="edge">
<title>Node31&#45;&gt;Node9</title>
<g id="a_edge55_Node000031_Node000009"><a xlink:title=" ">
<path fill="none" stroke="#63b8ff" d="M1120.57,-347.81C1200.04,-341.66 1404.5,-313.5 1404.5,-186.5 1404.5,-186.5 1404.5,-186.5 1404.5,-129.5 1404.5,-39.83 1264.78,-20.95 1199.9,-17.01"/>
<polygon fill="#63b8ff" stroke="#63b8ff" points="1199.97,-13.51 1189.8,-16.48 1199.6,-20.5 1199.97,-13.51"/>
</a>
</g>
</g>
<!-- Node31&#45;&gt;Node23 -->
<g id="edge48_Node000031_Node000023" class="edge">
<title>Node31&#45;&gt;Node23</title>
<g id="a_edge48_Node000031_Node000023"><a xlink:title=" ">
<path fill="none" stroke="#63b8ff" d="M1120.51,-347.61C1151.81,-344.07 1199.56,-333.93 1228.5,-305 1255.66,-277.85 1263.43,-231.26 1265.63,-205.33"/>
<polygon fill="#63b8ff" stroke="#63b8ff" points="1269.15,-205.21 1266.31,-195.01 1262.16,-204.76 1269.15,-205.21"/>
</a>
</g>
</g>
<!-- Node31&#45;&gt;Node25 -->
<g id="edge56_Node000031_Node000025" class="edge">
<title>Node31&#45;&gt;Node25</title>
<g id="a_edge56_Node000031_Node000025"><a xlink:title=" ">
<path fill="none" stroke="#63b8ff" d="M1120.95,-345.66C1145.83,-340.78 1179.04,-329.77 1195.5,-305 1233.72,-247.5 1151.77,-176.28 1111.33,-146.1"/>
<polygon fill="#63b8ff" stroke="#63b8ff" points="1113.3,-143.21 1103.16,-140.14 1109.18,-148.87 1113.3,-143.21"/>
</a>
</g>
</g>
<!-- Node31&#45;&gt;Node28 -->
<g id="edge53_Node000031_Node000028" class="edge">
<title>Node31&#45;&gt;Node28</title>
<g id="a_edge53_Node000031_Node000028"><a xlink:title=" ">
<path fill="none" stroke="#63b8ff" d="M1058.25,-345.81C1001.14,-338.91 876.14,-323.12 771.5,-305 568.86,-269.91 328.38,-216.21 236.63,-195.28"/>
<polygon fill="#63b8ff" stroke="#63b8ff" points="237.22,-191.83 226.7,-193.01 235.66,-198.65 237.22,-191.83"/>
</a>
</g>
</g>
<!-- Node32 -->
<g id="Node000032" class="node">
<title>Node32</title>
<g id="a_Node000032"><a xlink:href="Authorization_8h.html" target="_top" xlink:title="Class for handling authorization information.">
<polygon fill="white" stroke="#666666" points="941,-305 850,-305 850,-286 941,-286 941,-305"/>
<text text-anchor="middle" x="895.5" y="-293" font-family="Helvetica,sans-Serif" font-size="10.00">Authorization.h</text>
</a>
</g>
</g>
<!-- Node31&#45;&gt;Node32 -->
<g id="edge41_Node000031_Node000032" class="edge">
<title>Node31&#45;&gt;Node32</title>
<g id="a_edge41_Node000031_Node000032"><a xlink:title=" ">
<path fill="none" stroke="#63b8ff" d="M1058.33,-340.98C1025.34,-331.97 973.1,-317.7 936.73,-307.76"/>
<polygon fill="#63b8ff" stroke="#63b8ff" points="937.48,-304.34 926.91,-305.08 935.64,-311.09 937.48,-304.34"/>
</a>
</g>
</g>
<!-- Node34 -->
<g id="Node000034" class="node">
<title>Node34</title>
<g id="a_Node000034"><a xlink:href="ILanguagePack_8h.html" target="_top" xlink:title="Interface for language packs.">
<polygon fill="white" stroke="#666666" points="1216.5,-85 1118.5,-85 1118.5,-66 1216.5,-66 1216.5,-85"/>
<text text-anchor="middle" x="1167.5" y="-73" font-family="Helvetica,sans-Serif" font-size="10.00">ILanguagePack.h</text>
</a>
</g>
</g>
<!-- Node31&#45;&gt;Node34 -->
<g id="edge50_Node000031_Node000034" class="edge">
<title>Node31&#45;&gt;Node34</title>
<g id="a_edge50_Node000031_Node000034"><a xlink:title=" ">
<path fill="none" stroke="#63b8ff" d="M1058.16,-348.68C997.77,-346.36 868.8,-337.63 841.5,-305 834.88,-297.08 824.81,-270.43 842.5,-231 852.16,-209.48 864.55,-211.4 881.5,-195 914.7,-162.88 913.94,-143.11 954.5,-121 980.52,-106.82 1054.65,-93.3 1108.14,-84.97"/>
<polygon fill="#63b8ff" stroke="#63b8ff" points="1108.86,-88.4 1118.21,-83.42 1107.79,-81.48 1108.86,-88.4"/>
</a>
</g>
</g>
<!-- Node35 -->
<g id="Node000035" class="node">
<title>Node35</title>
<g id="a_Node000035"><a xlink:title=" ">
<polygon fill="#e0e0e0" stroke="#999999" points="1040,-305 959,-305 959,-286 1040,-286 1040,-305"/>
<text text-anchor="middle" x="999.5" y="-293" font-family="Helvetica,sans-Serif" font-size="10.00">vdk/signals.h</text>
</a>
</g>
</g>
<!-- Node31&#45;&gt;Node35 -->
<g id="edge54_Node000031_Node000035" class="edge">
<title>Node31&#45;&gt;Node35</title>
<g id="a_edge54_Node000031_Node000035"><a xlink:title=" ">
<path fill="none" stroke="#63b8ff" d="M1075.04,-340.98C1061.08,-332.77 1039.71,-320.18 1023.25,-310.49"/>
<polygon fill="#63b8ff" stroke="#63b8ff" points="1024.62,-307.23 1014.22,-305.17 1021.06,-313.26 1024.62,-307.23"/>
</a>
</g>
</g>
<!-- Node36 -->
<g id="Node000036" class="node">
<title>Node36</title>
<g id="a_Node000036"><a xlink:title=" ">
<polygon fill="#e0e0e0" stroke="#999999" points="1120.5,-305 1058.5,-305 1058.5,-286 1120.5,-286 1120.5,-305"/>
<text text-anchor="middle" x="1089.5" y="-293" font-family="Helvetica,sans-Serif" font-size="10.00">coroutine</text>
</a>
</g>
</g>
<!-- Node31&#45;&gt;Node36 -->
<g id="edge57_Node000031_Node000036" class="edge">
<title>Node31&#45;&gt;Node36</title>
<g id="a_edge57_Node000031_Node000036"><a xlink:title=" ">
<path fill="none" stroke="#63b8ff" d="M1089.5,-340.75C1089.5,-333.8 1089.5,-323.85 1089.5,-315.13"/>
<polygon fill="#63b8ff" stroke="#63b8ff" points="1093,-315.09 1089.5,-305.09 1086,-315.09 1093,-315.09"/>
</a>
</g>
</g>
<!-- Node37 -->
<g id="Node000037" class="node">
<title>Node37</title>
<g id="a_Node000037"><a xlink:title=" ">
<polygon fill="#e0e0e0" stroke="#999999" points="1186.5,-305 1138.5,-305 1138.5,-286 1186.5,-286 1186.5,-305"/>
<text text-anchor="middle" x="1162.5" y="-293" font-family="Helvetica,sans-Serif" font-size="10.00">mutex</text>
</a>
</g>
</g>
<!-- Node31&#45;&gt;Node37 -->
<g id="edge58_Node000031_Node000037" class="edge">
<title>Node31&#45;&gt;Node37</title>
<g id="a_edge58_Node000031_Node000037"><a xlink:title=" ">
<path fill="none" stroke="#63b8ff" d="M1101.23,-340.98C1112.23,-333 1128.92,-320.88 1142.1,-311.31"/>
<polygon fill="#63b8ff" stroke="#63b8ff" points="1144.52,-313.88 1150.56,-305.17 1140.41,-308.21 1144.52,-313.88"/>
</a>
</g>
</g>
<!-- Node32&#45;&gt;Node3 -->
<g id="edge44_Node000032_Node000003" class="edge">
<title>Node32&#45;&gt;Node3</title>
<g id="a_edge44_Node000032_Node000003"><a xlink:title=" ">
<path fill="none" stroke="#63b8ff" d="M868.51,-285.98C840.3,-277.09 795.86,-263.07 764.42,-253.15"/>
<polygon fill="#63b8ff" stroke="#63b8ff" points="765.29,-249.75 754.7,-250.08 763.19,-256.43 765.29,-249.75"/>
</a>
</g>
</g>
<!-- Node32&#45;&gt;Node4 -->
<g id="edge43_Node000032_Node000004" class="edge">
<title>Node32&#45;&gt;Node4</title>
<g id="a_edge43_Node000032_Node000004"><a xlink:title=" ">
<path fill="none" stroke="#63b8ff" d="M879.55,-285.84C844.9,-267.04 762.52,-222.33 721.13,-199.87"/>
<polygon fill="#63b8ff" stroke="#63b8ff" points="722.71,-196.74 712.25,-195.05 719.37,-202.89 722.71,-196.74"/>
</a>
</g>
</g>
<!-- Node32&#45;&gt;Node15 -->
<g id="edge45_Node000032_Node000015" class="edge">
<title>Node32&#45;&gt;Node15</title>
<g id="a_edge45_Node000032_Node000015"><a xlink:title=" ">
<path fill="none" stroke="#63b8ff" d="M909.33,-285.89C927.16,-273.7 954.31,-250.69 940.5,-231 926.98,-211.73 904.24,-200.77 881.97,-194.55"/>
<polygon fill="#63b8ff" stroke="#63b8ff" points="882.69,-191.12 872.14,-192.09 880.99,-197.91 882.69,-191.12"/>
</a>
</g>
</g>
<!-- Node32&#45;&gt;Node17 -->
<g id="edge47_Node000032_Node000017" class="edge">
<title>Node32&#45;&gt;Node17</title>
<g id="a_edge47_Node000032_Node000017"><a xlink:title=" ">
<path fill="none" stroke="#63b8ff" d="M909.15,-285.87C921.85,-277.5 940.94,-264.05 955.5,-250 1008.29,-199.05 995.48,-158.57 1058.5,-121 1075.77,-110.7 1196.6,-92.11 1262.63,-82.55"/>
<polygon fill="#63b8ff" stroke="#63b8ff" points="1263.34,-85.98 1272.73,-81.09 1262.34,-79.05 1263.34,-85.98"/>
</a>
</g>
</g>
<!-- Node32&#45;&gt;Node23 -->
<g id="edge42_Node000032_Node000023" class="edge">
<title>Node32&#45;&gt;Node23</title>
<g id="a_edge42_Node000032_Node000023"><a xlink:title=" ">
<path fill="none" stroke="#63b8ff" d="M925.92,-286C957.57,-277.12 1008.56,-262.75 1052.5,-250 1116.46,-231.45 1190.97,-209.19 1233.05,-196.56"/>
<polygon fill="#63b8ff" stroke="#63b8ff" points="1234.21,-199.87 1242.78,-193.64 1232.19,-193.17 1234.21,-199.87"/>
</a>
</g>
</g>
<!-- Node33 -->
<g id="Node000033" class="node">
<title>Node33</title>
<g id="a_Node000033"><a xlink:title=" ">
<polygon fill="#e0e0e0" stroke="#999999" points="931.5,-250 851.5,-250 851.5,-231 931.5,-231 931.5,-250"/>
<text text-anchor="middle" x="891.5" y="-238" font-family="Helvetica,sans-Serif" font-size="10.00">jwt&#45;cpp/jwt.h</text>
</a>
</g>
</g>
<!-- Node32&#45;&gt;Node33 -->
<g id="edge46_Node000032_Node000033" class="edge">
<title>Node32&#45;&gt;Node33</title>
<g id="a_edge46_Node000032_Node000033"><a xlink:title=" ">
<path fill="none" stroke="#63b8ff" d="M894.84,-285.75C894.32,-278.8 893.56,-268.85 892.91,-260.13"/>
<polygon fill="#63b8ff" stroke="#63b8ff" points="896.39,-259.8 892.15,-250.09 889.41,-260.32 896.39,-259.8"/>
</a>
</g>
</g>
<!-- Node34&#45;&gt;Node8 -->
<g id="edge52_Node000034_Node000008" class="edge">
<title>Node34&#45;&gt;Node8</title>
<g id="a_edge52_Node000034_Node000008"><a xlink:title=" ">
<path fill="none" stroke="#63b8ff" d="M1118.25,-68.25C1060.89,-60.66 963.41,-46.75 880.5,-30 875.83,-29.06 870.97,-27.98 866.15,-26.86"/>
<polygon fill="#63b8ff" stroke="#63b8ff" points="866.91,-23.44 856.37,-24.5 865.27,-30.25 866.91,-23.44"/>
</a>
</g>
</g>
<!-- Node34&#45;&gt;Node9 -->
<g id="edge51_Node000034_Node000009" class="edge">
<title>Node34&#45;&gt;Node9</title>
<g id="a_edge51_Node000034_Node000009"><a xlink:title=" ">
<path fill="none" stroke="#63b8ff" d="M1167.5,-65.87C1167.5,-57.75 1167.5,-45.31 1167.5,-34.89"/>
<polygon fill="#63b8ff" stroke="#63b8ff" points="1171,-34.67 1167.5,-24.67 1164,-34.67 1171,-34.67"/>
</a>
</g>
</g>
</g>
</svg>
