<?xml version="1.0" encoding="UTF-8" standalone="no"?>
<!DOCTYPE svg PUBLIC "-//W3C//DTD SVG 1.1//EN"
 "http://www.w3.org/Graphics/SVG/1.1/DTD/svg11.dtd">
<!-- Generated by graphviz version 2.43.0 (0)
 -->
<!-- Title: /home/runner/work/Catena/Catena/sdks/cpp/common/include/ParamDescriptor.h Pages: 1 -->
<!--zoomable 489 -->

<svg id="main" version="1.1" xmlns="http://www.w3.org/2000/svg" xmlns:xlink="http://www.w3.org/1999/xlink" xml:space="preserve" onload="init(evt)">
<style type="text/css"><![CDATA[
.node, .edge {opacity: 0.7;}
.node.selected, .edge.selected {opacity: 1;}
.edge:hover path { stroke: red; }
.edge:hover polygon { stroke: red; fill: red; }
]]></style>

<defs>
  <circle id="rim" cx="0" cy="0" r="7"/>
  <circle id="rim2" cx="0" cy="0" r="3.5"/>
  <g id="zoomPlus">
    <use xlink:href="#rim" fill="#404040"><set attributeName="fill" to="#808080" begin="zoomplus.mouseover" end="zoomplus.mouseout"/></use>
    <path d="M-4,0h8M0,-4v8" fill="none" stroke="white" stroke-width="1.5" pointer-events="none"/>
  </g>
  <g id="zoomMin">
    <use xlink:href="#rim" fill="#404040"><set attributeName="fill" to="#808080" begin="zoomminus.mouseover" end="zoomminus.mouseout"/></use>
    <path d="M-4,0h8" fill="none" stroke="white" stroke-width="1.5" pointer-events="none"/>
  </g>
  <g id="arrowUp" transform="translate(30 24)">
    <use xlink:href="#rim"/>
    <path pointer-events="none" fill="none" stroke="white" stroke-width="1.5" d="M0,-3.0v7 M-2.5,-0.5L0,-3.0L2.5,-0.5"/>
  </g>
  <g id="arrowRight" transform="rotate(90) translate(36 -43)">
    <use xlink:href="#rim"/>
    <path pointer-events="none" fill="none" stroke="white" stroke-width="1.5" d="M0,-3.0v7 M-2.5,-0.5L0,-3.0L2.5,-0.5"/>
  </g>
  <g id="arrowDown" transform="rotate(180) translate(-30 -48)">
    <use xlink:href="#rim"/>
    <path pointer-events="none" fill="none" stroke="white" stroke-width="1.5" d="M0,-3.0v7 M-2.5,-0.5L0,-3.0L2.5,-0.5"/>
  </g>
  <g id="arrowLeft" transform="rotate(270) translate(-36 17)">
    <use xlink:href="#rim"/>
    <path pointer-events="none" fill="none" stroke="white" stroke-width="1.5" d="M0,-3.0v7 M-2.5,-0.5L0,-3.0L2.5,-0.5"/>
  </g>
  <g id="resetDef">
    <use xlink:href="#rim2" fill="#404040"><set attributeName="fill" to="#808080" begin="reset.mouseover" end="reset.mouseout"/></use>
  </g>
</defs>
<script type="application/ecmascript">
var viewWidth = 1523;
var viewHeight = 489;
var sectionId = 'dynsection-0';
</script>
<script type="application/ecmascript" xlink:href="svg.min.js"/>
<svg id="graph" class="graph">
<g id="viewport">
<title>/home/runner/work/Catena/Catena/sdks/cpp/common/include/ParamDescriptor.h</title>
<!-- Node1 -->
<g id="Node000001" class="node">
<title>Node1</title>
<g id="a_Node000001"><a xlink:title="Interface for accessing parameter descriptions.">
<polygon fill="#999999" stroke="#666666" points="480.5,-481 333.5,-481 333.5,-440 480.5,-440 480.5,-481"/>
<text text-anchor="start" x="341.5" y="-469" font-family="Helvetica,sans-Serif" font-size="10.00">/home/runner/work/Catena</text>
<text text-anchor="start" x="341.5" y="-458" font-family="Helvetica,sans-Serif" font-size="10.00">/Catena/sdks/cpp/common</text>
<text text-anchor="middle" x="407" y="-447" font-family="Helvetica,sans-Serif" font-size="10.00">/include/ParamDescriptor.h</text>
</a>
</g>
</g>
<!-- Node2 -->
<g id="Node000002" class="node">
<title>Node2</title>
<g id="a_Node000002"><a xlink:href="Tags_8h.html" target="_top" xlink:title="Tags to differentiate collections with the same type for template specialization.">
<polygon fill="white" stroke="#666666" points="333.5,-129 286.5,-129 286.5,-110 333.5,-110 333.5,-129"/>
<text text-anchor="middle" x="310" y="-117" font-family="Helvetica,sans-Serif" font-size="10.00">Tags.h</text>
</a>
</g>
</g>
<!-- Node1&#45;&gt;Node2 -->
<g id="edge1_Node000001_Node000002" class="edge">
<title>Node1&#45;&gt;Node2</title>
<g id="a_edge1_Node000001_Node000002"><a xlink:title=" ">
<path fill="none" stroke="#63b8ff" d="M384.2,-439.62C361.81,-417.78 331,-380.46 331,-340.5 331,-340.5 331,-340.5 331,-283.5 331,-230.88 320.1,-169.47 314.01,-139.25"/>
<polygon fill="#63b8ff" stroke="#63b8ff" points="317.4,-138.36 311.94,-129.28 310.54,-139.79 317.4,-138.36"/>
</a>
</g>
</g>
<!-- Node4 -->
<g id="Node000004" class="node">
<title>Node4</title>
<g id="a_Node000004"><a xlink:title=" ">
<polygon fill="#e0e0e0" stroke="#999999" points="437,-19 393,-19 393,0 437,0 437,-19"/>
<text text-anchor="middle" x="415" y="-7" font-family="Helvetica,sans-Serif" font-size="10.00">string</text>
</a>
</g>
</g>
<!-- Node1&#45;&gt;Node4 -->
<g id="edge61_Node000001_Node000004" class="edge">
<title>Node1&#45;&gt;Node4</title>
<g id="a_edge61_Node000001_Node000004"><a xlink:title=" ">
<path fill="none" stroke="#63b8ff" d="M347.8,-439.94C305.12,-421.69 255,-389.77 255,-340.5 255,-340.5 255,-340.5 255,-283.5 255,-205.77 237.35,-176.86 277,-110 301.85,-68.1 351.96,-38.89 384.47,-23.41"/>
<polygon fill="#63b8ff" stroke="#63b8ff" points="386.33,-26.41 393.95,-19.04 383.4,-20.05 386.33,-26.41"/>
</a>
</g>
</g>
<!-- Node5 -->
<g id="Node000005" class="node">
<title>Node5</title>
<g id="a_Node000005"><a xlink:href="IConstraint_8h.html" target="_top" xlink:title="Interface for constraints.">
<polygon fill="white" stroke="#666666" points="601.5,-184 522.5,-184 522.5,-165 601.5,-165 601.5,-184"/>
<text text-anchor="middle" x="562" y="-172" font-family="Helvetica,sans-Serif" font-size="10.00">IConstraint.h</text>
</a>
</g>
</g>
<!-- Node1&#45;&gt;Node5 -->
<g id="edge4_Node000001_Node000005" class="edge">
<title>Node1&#45;&gt;Node5</title>
<g id="a_edge4_Node000001_Node000005"><a xlink:title=" ">
<path fill="none" stroke="#63b8ff" d="M446.27,-439.82C479.92,-419.85 523,-385.51 523,-340.5 523,-340.5 523,-340.5 523,-283.5 523,-249.92 539.88,-213.78 551.43,-192.98"/>
<polygon fill="#63b8ff" stroke="#63b8ff" points="554.6,-194.49 556.58,-184.08 548.54,-190.98 554.6,-194.49"/>
</a>
</g>
</g>
<!-- Node8 -->
<g id="Node000008" class="node">
<title>Node8</title>
<g id="a_Node000008"><a xlink:href="PolyglotText_8h.html" target="_top" xlink:title="Polyglot Text serialization and deserialization to protobuf.">
<polygon fill="white" stroke="#666666" points="230,-129 144,-129 144,-110 230,-110 230,-129"/>
<text text-anchor="middle" x="187" y="-117" font-family="Helvetica,sans-Serif" font-size="10.00">PolyglotText.h</text>
</a>
</g>
</g>
<!-- Node1&#45;&gt;Node8 -->
<g id="edge7_Node000001_Node000008" class="edge">
<title>Node1&#45;&gt;Node8</title>
<g id="a_edge7_Node000001_Node000008"><a xlink:title=" ">
<path fill="none" stroke="#63b8ff" d="M333.33,-451.23C267.71,-439.28 182,-410.32 182,-340.5 182,-340.5 182,-340.5 182,-228.5 182,-197.16 184.13,-160.75 185.61,-139.22"/>
<polygon fill="#63b8ff" stroke="#63b8ff" points="189.1,-139.4 186.33,-129.17 182.12,-138.9 189.1,-139.4"/>
</a>
</g>
</g>
<!-- Node11 -->
<g id="Node000011" class="node">
<title>Node11</title>
<g id="a_Node000011"><a xlink:title=" ">
<polygon fill="#e0e0e0" stroke="#999999" points="123.5,-19 30.5,-19 30.5,0 123.5,0 123.5,-19"/>
<text text-anchor="middle" x="77" y="-7" font-family="Helvetica,sans-Serif" font-size="10.00">unordered_map</text>
</a>
</g>
</g>
<!-- Node1&#45;&gt;Node11 -->
<g id="edge62_Node000001_Node000011" class="edge">
<title>Node1&#45;&gt;Node11</title>
<g id="a_edge62_Node000001_Node000011"><a xlink:title=" ">
<path fill="none" stroke="#63b8ff" d="M333.3,-453.13C216.01,-440.93 0,-409.15 0,-340.5 0,-340.5 0,-340.5 0,-118.5 0,-89.04 2.28,-79.25 19,-55 27.61,-42.51 40.82,-31.98 52.47,-24.31"/>
<polygon fill="#63b8ff" stroke="#63b8ff" points="54.33,-27.27 60.96,-19.01 50.62,-21.33 54.33,-27.27"/>
</a>
</g>
</g>
<!-- Node13 -->
<g id="Node000013" class="node">
<title>Node13</title>
<g id="a_Node000013"><a xlink:href="IParamDescriptor_8h.html" target="_top" xlink:title="Interface class for ParamDescriptor.">
<polygon fill="white" stroke="#666666" points="465.5,-184 356.5,-184 356.5,-165 465.5,-165 465.5,-184"/>
<text text-anchor="middle" x="411" y="-172" font-family="Helvetica,sans-Serif" font-size="10.00">IParamDescriptor.h</text>
</a>
</g>
</g>
<!-- Node1&#45;&gt;Node13 -->
<g id="edge13_Node000001_Node000013" class="edge">
<title>Node1&#45;&gt;Node13</title>
<g id="a_edge13_Node000001_Node000013"><a xlink:title=" ">
<path fill="none" stroke="#63b8ff" d="M407,-439.71C407,-416.09 407,-375.41 407,-340.5 407,-340.5 407,-340.5 407,-283.5 407,-252.17 408.7,-215.76 409.89,-194.23"/>
<polygon fill="#63b8ff" stroke="#63b8ff" points="413.38,-194.36 410.46,-184.18 406.4,-193.96 413.38,-194.36"/>
</a>
</g>
</g>
<!-- Node14 -->
<g id="Node000014" class="node">
<title>Node14</title>
<g id="a_Node000014"><a xlink:href="IDevice_8h.html" target="_top" xlink:title="Interface for device.">
<polygon fill="white" stroke="#666666" points="1153,-404 1091,-404 1091,-385 1153,-385 1153,-404"/>
<text text-anchor="middle" x="1122" y="-392" font-family="Helvetica,sans-Serif" font-size="10.00">IDevice.h</text>
</a>
</g>
</g>
<!-- Node1&#45;&gt;Node14 -->
<g id="edge17_Node000001_Node000014" class="edge">
<title>Node1&#45;&gt;Node14</title>
<g id="a_edge17_Node000001_Node000014"><a xlink:title=" ">
<path fill="none" stroke="#63b8ff" d="M480.82,-452.89C630.12,-439.53 963.64,-409.67 1080.55,-399.21"/>
<polygon fill="#63b8ff" stroke="#63b8ff" points="1081.2,-402.67 1090.85,-398.29 1080.58,-395.69 1081.2,-402.67"/>
</a>
</g>
</g>
<!-- Node16 -->
<g id="Node000016" class="node">
<title>Node16</title>
<g id="a_Node000016"><a xlink:href="IAuthorizer_8h.html" target="_top" xlink:title="Interface for the Authorizer class.">
<polygon fill="white" stroke="#666666" points="794,-294 716,-294 716,-275 794,-275 794,-294"/>
<text text-anchor="middle" x="755" y="-282" font-family="Helvetica,sans-Serif" font-size="10.00">IAuthorizer.h</text>
</a>
</g>
</g>
<!-- Node1&#45;&gt;Node16 -->
<g id="edge59_Node000001_Node000016" class="edge">
<title>Node1&#45;&gt;Node16</title>
<g id="a_edge59_Node000001_Node000016"><a xlink:title=" ">
<path fill="none" stroke="#63b8ff" d="M455.95,-439.89C480.52,-429.72 510.6,-416.77 537,-404 609.21,-369.06 691.72,-322.25 731.33,-299.33"/>
<polygon fill="#63b8ff" stroke="#63b8ff" points="733.56,-302.08 740.45,-294.03 730.04,-296.03 733.56,-302.08"/>
</a>
</g>
</g>
<!-- Node26 -->
<g id="Node000026" class="node">
<title>Node26</title>
<g id="a_Node000026"><a xlink:title=" ">
<polygon fill="#e0e0e0" stroke="#999999" points="1486.5,-129 1439.5,-129 1439.5,-110 1486.5,-110 1486.5,-129"/>
<text text-anchor="middle" x="1463" y="-117" font-family="Helvetica,sans-Serif" font-size="10.00">vector</text>
</a>
</g>
</g>
<!-- Node1&#45;&gt;Node26 -->
<g id="edge60_Node000001_Node000026" class="edge">
<title>Node1&#45;&gt;Node26</title>
<g id="a_edge60_Node000001_Node000026"><a xlink:title=" ">
<path fill="none" stroke="#63b8ff" d="M480.88,-456.81C706.05,-447.91 1372.54,-416.09 1441,-349 1498.61,-292.55 1478.88,-182.54 1468.09,-138.94"/>
<polygon fill="#63b8ff" stroke="#63b8ff" points="1471.44,-137.94 1465.53,-129.14 1464.67,-139.7 1471.44,-137.94"/>
</a>
</g>
</g>
<!-- Node3 -->
<g id="Node000003" class="node">
<title>Node3</title>
<g id="a_Node000003"><a xlink:title=" ">
<polygon fill="#e0e0e0" stroke="#999999" points="947.5,-74 882.5,-74 882.5,-55 947.5,-55 947.5,-74"/>
<text text-anchor="middle" x="915" y="-62" font-family="Helvetica,sans-Serif" font-size="10.00">functional</text>
</a>
</g>
</g>
<!-- Node2&#45;&gt;Node3 -->
<g id="edge2_Node000002_Node000003" class="edge">
<title>Node2&#45;&gt;Node3</title>
<g id="a_edge2_Node000002_Node000003"><a xlink:title=" ">
<path fill="none" stroke="#63b8ff" d="M333.66,-111.69C336.45,-111.04 339.28,-110.46 342,-110 558.67,-73.64 616.18,-93.61 835,-74 847.05,-72.92 860.11,-71.6 872.11,-70.32"/>
<polygon fill="#63b8ff" stroke="#63b8ff" points="872.76,-73.77 882.33,-69.22 872.01,-66.81 872.76,-73.77"/>
</a>
</g>
</g>
<!-- Node2&#45;&gt;Node4 -->
<g id="edge3_Node000002_Node000004" class="edge">
<title>Node2&#45;&gt;Node4</title>
<g id="a_edge3_Node000002_Node000004"><a xlink:title=" ">
<path fill="none" stroke="#63b8ff" d="M318.59,-109.66C336.29,-91.46 377.04,-49.55 399.48,-26.47"/>
<polygon fill="#63b8ff" stroke="#63b8ff" points="402.12,-28.77 406.58,-19.16 397.1,-23.89 402.12,-28.77"/>
</a>
</g>
</g>
<!-- Node6 -->
<g id="Node000006" class="node">
<title>Node6</title>
<g id="a_Node000006"><a xlink:title=" ">
<polygon fill="#e0e0e0" stroke="#999999" points="470.5,-129 351.5,-129 351.5,-110 470.5,-110 470.5,-129"/>
<text text-anchor="middle" x="411" y="-117" font-family="Helvetica,sans-Serif" font-size="10.00">interface/param.pb.h</text>
</a>
</g>
</g>
<!-- Node5&#45;&gt;Node6 -->
<g id="edge5_Node000005_Node000006" class="edge">
<title>Node5&#45;&gt;Node6</title>
<g id="a_edge5_Node000005_Node000006"><a xlink:title=" ">
<path fill="none" stroke="#63b8ff" d="M537.74,-164.98C512.68,-156.19 473.37,-142.39 445.17,-132.49"/>
<polygon fill="#63b8ff" stroke="#63b8ff" points="446.3,-129.18 435.7,-129.17 443.98,-135.78 446.3,-129.18"/>
</a>
</g>
</g>
<!-- Node7 -->
<g id="Node000007" class="node">
<title>Node7</title>
<g id="a_Node000007"><a xlink:title=" ">
<polygon fill="#e0e0e0" stroke="#999999" points="625,-129 489,-129 489,-110 625,-110 625,-129"/>
<text text-anchor="middle" x="557" y="-117" font-family="Helvetica,sans-Serif" font-size="10.00">interface/constraint.pb.h</text>
</a>
</g>
</g>
<!-- Node5&#45;&gt;Node7 -->
<g id="edge6_Node000005_Node000007" class="edge">
<title>Node5&#45;&gt;Node7</title>
<g id="a_edge6_Node000005_Node000007"><a xlink:title=" ">
<path fill="none" stroke="#63b8ff" d="M561.17,-164.75C560.52,-157.8 559.58,-147.85 558.76,-139.13"/>
<polygon fill="#63b8ff" stroke="#63b8ff" points="562.23,-138.72 557.81,-129.09 555.27,-139.37 562.23,-138.72"/>
</a>
</g>
</g>
<!-- Node9 -->
<g id="Node000009" class="node">
<title>Node9</title>
<g id="a_Node000009"><a xlink:href="IPolyglotText_8h.html" target="_top" xlink:title="Catena&#39;s multi&#45;language text interface.">
<polygon fill="white" stroke="#666666" points="271.5,-74 182.5,-74 182.5,-55 271.5,-55 271.5,-74"/>
<text text-anchor="middle" x="227" y="-62" font-family="Helvetica,sans-Serif" font-size="10.00">IPolyglotText.h</text>
</a>
</g>
</g>
<!-- Node8&#45;&gt;Node9 -->
<g id="edge8_Node000008_Node000009" class="edge">
<title>Node8&#45;&gt;Node9</title>
<g id="a_edge8_Node000008_Node000009"><a xlink:title=" ">
<path fill="none" stroke="#63b8ff" d="M193.61,-109.75C199.26,-102.26 207.54,-91.28 214.45,-82.13"/>
<polygon fill="#63b8ff" stroke="#63b8ff" points="217.29,-84.18 220.52,-74.09 211.7,-79.96 217.29,-84.18"/>
</a>
</g>
</g>
<!-- Node9&#45;&gt;Node4 -->
<g id="edge11_Node000009_Node000004" class="edge">
<title>Node9&#45;&gt;Node4</title>
<g id="a_edge11_Node000009_Node000004"><a xlink:title=" ">
<path fill="none" stroke="#63b8ff" d="M257.21,-54.98C291.69,-45.26 347.85,-29.43 383.05,-19.51"/>
<polygon fill="#63b8ff" stroke="#63b8ff" points="384.14,-22.84 392.82,-16.75 382.24,-16.1 384.14,-22.84"/>
</a>
</g>
</g>
<!-- Node10 -->
<g id="Node000010" class="node">
<title>Node10</title>
<g id="a_Node000010"><a xlink:title=" ">
<polygon fill="#e0e0e0" stroke="#999999" points="375,-19 243,-19 243,0 375,0 375,-19"/>
<text text-anchor="middle" x="309" y="-7" font-family="Helvetica,sans-Serif" font-size="10.00">interface/language.pb.h</text>
</a>
</g>
</g>
<!-- Node9&#45;&gt;Node10 -->
<g id="edge9_Node000009_Node000010" class="edge">
<title>Node9&#45;&gt;Node10</title>
<g id="a_edge9_Node000009_Node000010"><a xlink:title=" ">
<path fill="none" stroke="#63b8ff" d="M240.17,-54.98C252.77,-46.84 272,-34.41 286.94,-24.76"/>
<polygon fill="#63b8ff" stroke="#63b8ff" points="289.09,-27.54 295.59,-19.17 285.29,-21.66 289.09,-27.54"/>
</a>
</g>
</g>
<!-- Node9&#45;&gt;Node11 -->
<g id="edge10_Node000009_Node000011" class="edge">
<title>Node9&#45;&gt;Node11</title>
<g id="a_edge10_Node000009_Node000011"><a xlink:title=" ">
<path fill="none" stroke="#63b8ff" d="M202.9,-54.98C178.12,-46.23 139.3,-32.51 111.31,-22.62"/>
<polygon fill="#63b8ff" stroke="#63b8ff" points="112.13,-19.2 101.54,-19.17 109.8,-25.8 112.13,-19.2"/>
</a>
</g>
</g>
<!-- Node12 -->
<g id="Node000012" class="node">
<title>Node12</title>
<g id="a_Node000012"><a xlink:title=" ">
<polygon fill="#e0e0e0" stroke="#999999" points="224.5,-19 141.5,-19 141.5,0 224.5,0 224.5,-19"/>
<text text-anchor="middle" x="183" y="-7" font-family="Helvetica,sans-Serif" font-size="10.00">initializer_list</text>
</a>
</g>
</g>
<!-- Node9&#45;&gt;Node12 -->
<g id="edge12_Node000009_Node000012" class="edge">
<title>Node9&#45;&gt;Node12</title>
<g id="a_edge12_Node000009_Node000012"><a xlink:title=" ">
<path fill="none" stroke="#63b8ff" d="M219.73,-54.75C213.46,-47.18 204.21,-36.05 196.57,-26.84"/>
<polygon fill="#63b8ff" stroke="#63b8ff" points="199.21,-24.55 190.13,-19.09 193.83,-29.02 199.21,-24.55"/>
</a>
</g>
</g>
<!-- Node13&#45;&gt;Node2 -->
<g id="edge14_Node000013_Node000002" class="edge">
<title>Node13&#45;&gt;Node2</title>
<g id="a_edge14_Node000013_Node000002"><a xlink:title=" ">
<path fill="none" stroke="#63b8ff" d="M394.77,-164.98C378.82,-156.61 354.22,-143.7 335.62,-133.95"/>
<polygon fill="#63b8ff" stroke="#63b8ff" points="337,-130.72 326.52,-129.17 333.75,-136.92 337,-130.72"/>
</a>
</g>
</g>
<!-- Node13&#45;&gt;Node6 -->
<g id="edge16_Node000013_Node000006" class="edge">
<title>Node13&#45;&gt;Node6</title>
<g id="a_edge16_Node000013_Node000006"><a xlink:title=" ">
<path fill="none" stroke="#63b8ff" d="M411,-164.75C411,-157.8 411,-147.85 411,-139.13"/>
<polygon fill="#63b8ff" stroke="#63b8ff" points="414.5,-139.09 411,-129.09 407.5,-139.09 414.5,-139.09"/>
</a>
</g>
</g>
<!-- Node13&#45;&gt;Node8 -->
<g id="edge15_Node000013_Node000008" class="edge">
<title>Node13&#45;&gt;Node8</title>
<g id="a_edge15_Node000013_Node000008"><a xlink:title=" ">
<path fill="none" stroke="#63b8ff" d="M375.01,-164.98C336.51,-155.87 275.31,-141.4 233.26,-131.45"/>
<polygon fill="#63b8ff" stroke="#63b8ff" points="233.81,-127.98 223.27,-129.08 232.2,-134.79 233.81,-127.98"/>
</a>
</g>
</g>
<!-- Node14&#45;&gt;Node4 -->
<g id="edge55_Node000014_Node000004" class="edge">
<title>Node14&#45;&gt;Node4</title>
<g id="a_edge55_Node000014_Node000004"><a xlink:title=" ">
<path fill="none" stroke="#63b8ff" d="M1153.01,-390.01C1230.94,-381.12 1429.59,-357.73 1441,-349 1507.58,-298.06 1515,-259.33 1515,-175.5 1515,-175.5 1515,-175.5 1515,-118.5 1515,-8.32 629.6,-8.91 447.5,-10.2"/>
<polygon fill="#63b8ff" stroke="#63b8ff" points="447.44,-6.7 437.47,-10.27 447.5,-13.7 447.44,-6.7"/>
</a>
</g>
</g>
<!-- Node15 -->
<g id="Node000015" class="node">
<title>Node15</title>
<g id="a_Node000015"><a xlink:href="Authorizer_8h.html" target="_top" xlink:title="Class for handling authorization information.">
<polygon fill="white" stroke="#666666" points="1126.5,-349 1051.5,-349 1051.5,-330 1126.5,-330 1126.5,-349"/>
<text text-anchor="middle" x="1089" y="-337" font-family="Helvetica,sans-Serif" font-size="10.00">Authorizer.h</text>
</a>
</g>
</g>
<!-- Node14&#45;&gt;Node15 -->
<g id="edge18_Node000014_Node000015" class="edge">
<title>Node14&#45;&gt;Node15</title>
<g id="a_edge18_Node000014_Node000015"><a xlink:title=" ">
<path fill="none" stroke="#63b8ff" d="M1116.55,-384.75C1111.99,-377.42 1105.33,-366.73 1099.71,-357.7"/>
<polygon fill="#63b8ff" stroke="#63b8ff" points="1102.6,-355.73 1094.35,-349.09 1096.66,-359.43 1102.6,-355.73"/>
</a>
</g>
</g>
<!-- Node17 -->
<g id="Node000017" class="node">
<title>Node17</title>
<g id="a_Node000017"><a xlink:href="IParam_8h.html" target="_top" xlink:title="Interface for parameters.">
<polygon fill="white" stroke="#666666" points="784.5,-239 725.5,-239 725.5,-220 784.5,-220 784.5,-239"/>
<text text-anchor="middle" x="755" y="-227" font-family="Helvetica,sans-Serif" font-size="10.00">IParam.h</text>
</a>
</g>
</g>
<!-- Node14&#45;&gt;Node17 -->
<g id="edge48_Node000014_Node000017" class="edge">
<title>Node14&#45;&gt;Node17</title>
<g id="a_edge48_Node000014_Node000017"><a xlink:title=" ">
<path fill="none" stroke="#63b8ff" d="M1090.97,-391.72C1047.36,-388.23 966.31,-378.08 904,-349 875.13,-335.53 805.25,-275.15 772.49,-246.15"/>
<polygon fill="#63b8ff" stroke="#63b8ff" points="774.46,-243.21 764.66,-239.18 769.81,-248.44 774.46,-243.21"/>
</a>
</g>
</g>
<!-- Node23 -->
<g id="Node000023" class="node">
<title>Node23</title>
<g id="a_Node000023"><a xlink:title=" ">
<polygon fill="#e0e0e0" stroke="#999999" points="1120.5,-129 1001.5,-129 1001.5,-110 1120.5,-110 1120.5,-129"/>
<text text-anchor="middle" x="1061" y="-117" font-family="Helvetica,sans-Serif" font-size="10.00">interface/device.pb.h</text>
</a>
</g>
</g>
<!-- Node14&#45;&gt;Node23 -->
<g id="edge54_Node000014_Node000023" class="edge">
<title>Node14&#45;&gt;Node23</title>
<g id="a_edge54_Node000014_Node000023"><a xlink:title=" ">
<path fill="none" stroke="#63b8ff" d="M1096.59,-384.91C1079.21,-377.82 1056.88,-366.12 1043,-349 1024.36,-326.02 1023,-315.09 1023,-285.5 1023,-285.5 1023,-285.5 1023,-228.5 1023,-195.02 1039.45,-158.84 1050.7,-138.01"/>
<polygon fill="#63b8ff" stroke="#63b8ff" points="1053.87,-139.53 1055.72,-129.1 1047.76,-136.1 1053.87,-139.53"/>
</a>
</g>
</g>
<!-- Node24 -->
<g id="Node000024" class="node">
<title>Node24</title>
<g id="a_Node000024"><a xlink:href="Path_8h.html" target="_top" xlink:title="Handles Path objects used to uniquely identify and access OIDs.">
<polygon fill="white" stroke="#666666" points="1299.5,-184 1252.5,-184 1252.5,-165 1299.5,-165 1299.5,-184"/>
<text text-anchor="middle" x="1276" y="-172" font-family="Helvetica,sans-Serif" font-size="10.00">Path.h</text>
</a>
</g>
</g>
<!-- Node14&#45;&gt;Node24 -->
<g id="edge47_Node000014_Node000024" class="edge">
<title>Node14&#45;&gt;Node24</title>
<g id="a_edge47_Node000014_Node000024"><a xlink:title=" ">
<path fill="none" stroke="#63b8ff" d="M1127.65,-384.79C1136.5,-371.64 1154.75,-346.52 1175,-330 1201.2,-308.63 1220.78,-320.32 1242,-294 1265.65,-264.67 1272.85,-219.64 1275.04,-194.38"/>
<polygon fill="#63b8ff" stroke="#63b8ff" points="1278.54,-194.5 1275.74,-184.29 1271.56,-194.02 1278.54,-194.5"/>
</a>
</g>
</g>
<!-- Node14&#45;&gt;Node26 -->
<g id="edge56_Node000014_Node000026" class="edge">
<title>Node14&#45;&gt;Node26</title>
<g id="a_edge56_Node000014_Node000026"><a xlink:title=" ">
<path fill="none" stroke="#63b8ff" d="M1153.12,-392.96C1221.22,-391.13 1380.52,-383.22 1420,-349 1442.26,-329.71 1439,-314.96 1439,-285.5 1439,-285.5 1439,-285.5 1439,-228.5 1439,-196.28 1449.31,-159.91 1456.41,-138.66"/>
<polygon fill="#63b8ff" stroke="#63b8ff" points="1459.78,-139.63 1459.76,-129.04 1453.17,-137.33 1459.78,-139.63"/>
</a>
</g>
</g>
<!-- Node29 -->
<g id="Node000029" class="node">
<title>Node29</title>
<g id="a_Node000029"><a xlink:href="Status_8h.html" target="_top" xlink:title="Communicates failure status using gRPC&#39;s codes.">
<polygon fill="white" stroke="#666666" points="783,-184 727,-184 727,-165 783,-165 783,-184"/>
<text text-anchor="middle" x="755" y="-172" font-family="Helvetica,sans-Serif" font-size="10.00">Status.h</text>
</a>
</g>
</g>
<!-- Node14&#45;&gt;Node29 -->
<g id="edge52_Node000014_Node000029" class="edge">
<title>Node14&#45;&gt;Node29</title>
<g id="a_edge52_Node000014_Node000029"><a xlink:title=" ">
<path fill="none" stroke="#63b8ff" d="M1095.23,-384.86C1071.85,-376.88 1037.32,-364 1009,-349 915.36,-299.39 814.27,-222.44 773.55,-190.35"/>
<polygon fill="#63b8ff" stroke="#63b8ff" points="775.59,-187.5 765.58,-184.03 771.25,-192.99 775.59,-187.5"/>
</a>
</g>
</g>
<!-- Node34 -->
<g id="Node000034" class="node">
<title>Node34</title>
<g id="a_Node000034"><a xlink:href="ILanguagePack_8h.html" target="_top" xlink:title="Interface for language packs.">
<polygon fill="white" stroke="#666666" points="126,-74 28,-74 28,-55 126,-55 126,-74"/>
<text text-anchor="middle" x="77" y="-62" font-family="Helvetica,sans-Serif" font-size="10.00">ILanguagePack.h</text>
</a>
</g>
</g>
<!-- Node14&#45;&gt;Node34 -->
<g id="edge49_Node000014_Node000034" class="edge">
<title>Node14&#45;&gt;Node34</title>
<g id="a_edge49_Node000014_Node000034"><a xlink:title=" ">
<path fill="none" stroke="#63b8ff" d="M1090.98,-389.14C1043.49,-382.21 950.06,-367.54 872,-349 539.41,-270.03 424.56,-310.68 135,-129 115.91,-117.02 99.17,-97.09 88.64,-82.75"/>
<polygon fill="#63b8ff" stroke="#63b8ff" points="91.29,-80.43 82.66,-74.28 85.57,-84.47 91.29,-80.43"/>
</a>
</g>
</g>
<!-- Node35 -->
<g id="Node000035" class="node">
<title>Node35</title>
<g id="a_Node000035"><a xlink:title=" ">
<polygon fill="#e0e0e0" stroke="#999999" points="1264.5,-349 1183.5,-349 1183.5,-330 1264.5,-330 1264.5,-349"/>
<text text-anchor="middle" x="1224" y="-337" font-family="Helvetica,sans-Serif" font-size="10.00">vdk/signals.h</text>
</a>
</g>
</g>
<!-- Node14&#45;&gt;Node35 -->
<g id="edge53_Node000014_Node000035" class="edge">
<title>Node14&#45;&gt;Node35</title>
<g id="a_edge53_Node000014_Node000035"><a xlink:title=" ">
<path fill="none" stroke="#63b8ff" d="M1138.39,-384.98C1154.57,-376.57 1179.57,-363.59 1198.38,-353.81"/>
<polygon fill="#63b8ff" stroke="#63b8ff" points="1200.05,-356.89 1207.31,-349.17 1196.83,-350.68 1200.05,-356.89"/>
</a>
</g>
</g>
<!-- Node36 -->
<g id="Node000036" class="node">
<title>Node36</title>
<g id="a_Node000036"><a xlink:title=" ">
<polygon fill="#e0e0e0" stroke="#999999" points="1345,-349 1283,-349 1283,-330 1345,-330 1345,-349"/>
<text text-anchor="middle" x="1314" y="-337" font-family="Helvetica,sans-Serif" font-size="10.00">coroutine</text>
</a>
</g>
</g>
<!-- Node14&#45;&gt;Node36 -->
<g id="edge57_Node000014_Node000036" class="edge">
<title>Node14&#45;&gt;Node36</title>
<g id="a_edge57_Node000014_Node000036"><a xlink:title=" ">
<path fill="none" stroke="#63b8ff" d="M1152.85,-384.98C1185.5,-375.97 1237.2,-361.7 1273.2,-351.76"/>
<polygon fill="#63b8ff" stroke="#63b8ff" points="1274.2,-355.12 1282.91,-349.08 1272.34,-348.37 1274.2,-355.12"/>
</a>
</g>
</g>
<!-- Node37 -->
<g id="Node000037" class="node">
<title>Node37</title>
<g id="a_Node000037"><a xlink:title=" ">
<polygon fill="#e0e0e0" stroke="#999999" points="1411,-349 1363,-349 1363,-330 1411,-330 1411,-349"/>
<text text-anchor="middle" x="1387" y="-337" font-family="Helvetica,sans-Serif" font-size="10.00">mutex</text>
</a>
</g>
</g>
<!-- Node14&#45;&gt;Node37 -->
<g id="edge58_Node000014_Node000037" class="edge">
<title>Node14&#45;&gt;Node37</title>
<g id="a_edge58_Node000014_Node000037"><a xlink:title=" ">
<path fill="none" stroke="#63b8ff" d="M1153.27,-388.14C1196.13,-380.66 1275.7,-366.28 1352.99,-349.11"/>
<polygon fill="#63b8ff" stroke="#63b8ff" points="1353.9,-352.5 1362.89,-346.9 1352.37,-345.67 1353.9,-352.5"/>
</a>
</g>
</g>
<!-- Node15&#45;&gt;Node3 -->
<g id="edge45_Node000015_Node000003" class="edge">
<title>Node15&#45;&gt;Node3</title>
<g id="a_edge45_Node000015_Node000003"><a xlink:title=" ">
<path fill="none" stroke="#63b8ff" d="M1089.24,-329.82C1089.67,-317.54 1090.86,-294.43 1094,-275 1105.97,-200.9 1177.39,-168.2 1130,-110 1129.31,-109.16 1019.95,-86.82 957.49,-74.12"/>
<polygon fill="#63b8ff" stroke="#63b8ff" points="958.02,-70.66 947.52,-72.1 956.62,-77.52 958.02,-70.66"/>
</a>
</g>
</g>
<!-- Node15&#45;&gt;Node16 -->
<g id="edge19_Node000015_Node000016" class="edge">
<title>Node15&#45;&gt;Node16</title>
<g id="a_edge19_Node000015_Node000016"><a xlink:title=" ">
<path fill="none" stroke="#63b8ff" d="M1051.34,-332.52C990.64,-322.89 871.23,-303.94 804,-293.28"/>
<polygon fill="#63b8ff" stroke="#63b8ff" points="804.5,-289.81 794.07,-291.7 803.4,-296.72 804.5,-289.81"/>
</a>
</g>
</g>
<!-- Node32 -->
<g id="Node000032" class="node">
<title>Node32</title>
<g id="a_Node000032"><a xlink:title=" ">
<polygon fill="#e0e0e0" stroke="#999999" points="1233,-294 1153,-294 1153,-275 1233,-275 1233,-294"/>
<text text-anchor="middle" x="1193" y="-282" font-family="Helvetica,sans-Serif" font-size="10.00">jwt&#45;cpp/jwt.h</text>
</a>
</g>
</g>
<!-- Node15&#45;&gt;Node32 -->
<g id="edge44_Node000015_Node000032" class="edge">
<title>Node15&#45;&gt;Node32</title>
<g id="a_edge44_Node000015_Node000032"><a xlink:title=" ">
<path fill="none" stroke="#63b8ff" d="M1105.71,-329.98C1122.21,-321.57 1147.7,-308.59 1166.88,-298.81"/>
<polygon fill="#63b8ff" stroke="#63b8ff" points="1168.67,-301.83 1175.99,-294.17 1165.49,-295.59 1168.67,-301.83"/>
</a>
</g>
</g>
<!-- Node33 -->
<g id="Node000033" class="node">
<title>Node33</title>
<g id="a_Node000033"><a xlink:title=" ">
<polygon fill="#e0e0e0" stroke="#999999" points="1135,-294 1103,-294 1103,-275 1135,-275 1135,-294"/>
<text text-anchor="middle" x="1119" y="-282" font-family="Helvetica,sans-Serif" font-size="10.00">set</text>
</a>
</g>
</g>
<!-- Node15&#45;&gt;Node33 -->
<g id="edge46_Node000015_Node000033" class="edge">
<title>Node15&#45;&gt;Node33</title>
<g id="a_edge46_Node000015_Node000033"><a xlink:title=" ">
<path fill="none" stroke="#63b8ff" d="M1093.95,-329.75C1098.06,-322.49 1104.03,-311.95 1109.1,-302.98"/>
<polygon fill="#63b8ff" stroke="#63b8ff" points="1112.26,-304.52 1114.14,-294.09 1106.17,-301.07 1112.26,-304.52"/>
</a>
</g>
</g>
<!-- Node16&#45;&gt;Node13 -->
<g id="edge42_Node000016_Node000013" class="edge">
<title>Node16&#45;&gt;Node13</title>
<g id="a_edge42_Node000016_Node000013"><a xlink:title=" ">
<path fill="none" stroke="#63b8ff" d="M727.72,-274.94C666.38,-255.68 517.5,-208.94 447.95,-187.1"/>
<polygon fill="#63b8ff" stroke="#63b8ff" points="448.87,-183.72 438.28,-184.07 446.78,-190.4 448.87,-183.72"/>
</a>
</g>
</g>
<!-- Node16&#45;&gt;Node17 -->
<g id="edge20_Node000016_Node000017" class="edge">
<title>Node16&#45;&gt;Node17</title>
<g id="a_edge20_Node000016_Node000017"><a xlink:title=" ">
<path fill="none" stroke="#63b8ff" d="M755,-274.75C755,-267.8 755,-257.85 755,-249.13"/>
<polygon fill="#63b8ff" stroke="#63b8ff" points="758.5,-249.09 755,-239.09 751.5,-249.09 758.5,-249.09"/>
</a>
</g>
</g>
<!-- Node18 -->
<g id="Node000018" class="node">
<title>Node18</title>
<g id="a_Node000018"><a xlink:href="Enums_8h.html" target="_top" xlink:title="tools for using EnumDecorators.">
<polygon fill="white" stroke="#666666" points="902.5,-184 843.5,-184 843.5,-165 902.5,-165 902.5,-184"/>
<text text-anchor="middle" x="873" y="-172" font-family="Helvetica,sans-Serif" font-size="10.00">Enums.h</text>
</a>
</g>
</g>
<!-- Node16&#45;&gt;Node18 -->
<g id="edge43_Node000016_Node000018" class="edge">
<title>Node16&#45;&gt;Node18</title>
<g id="a_edge43_Node000016_Node000018"><a xlink:title=" ">
<path fill="none" stroke="#63b8ff" d="M764.66,-274.66C784.64,-256.38 830.74,-214.18 855.88,-191.17"/>
<polygon fill="#63b8ff" stroke="#63b8ff" points="858.53,-193.49 863.54,-184.16 853.8,-188.33 858.53,-193.49"/>
</a>
</g>
</g>
<!-- Node17&#45;&gt;Node5 -->
<g id="edge30_Node000017_Node000005" class="edge">
<title>Node17&#45;&gt;Node5</title>
<g id="a_edge30_Node000017_Node000005"><a xlink:title=" ">
<path fill="none" stroke="#63b8ff" d="M725.27,-220.33C692.5,-211.34 639.6,-196.81 602.93,-186.74"/>
<polygon fill="#63b8ff" stroke="#63b8ff" points="603.62,-183.3 593.05,-184.03 601.76,-190.05 603.62,-183.3"/>
</a>
</g>
</g>
<!-- Node17&#45;&gt;Node6 -->
<g id="edge41_Node000017_Node000006" class="edge">
<title>Node17&#45;&gt;Node6</title>
<g id="a_edge41_Node000017_Node000006"><a xlink:title=" ">
<path fill="none" stroke="#63b8ff" d="M725.35,-226.62C678.74,-222.89 586.1,-212.3 513,-184 481.62,-171.85 449.29,-149.8 429.67,-135.15"/>
<polygon fill="#63b8ff" stroke="#63b8ff" points="431.67,-132.28 421.59,-129.01 427.43,-137.85 431.67,-132.28"/>
</a>
</g>
</g>
<!-- Node17&#45;&gt;Node13 -->
<g id="edge31_Node000017_Node000013" class="edge">
<title>Node17&#45;&gt;Node13</title>
<g id="a_edge31_Node000017_Node000013"><a xlink:title=" ">
<path fill="none" stroke="#63b8ff" d="M725.37,-223.94C670.19,-215.43 550.52,-197 475.78,-185.48"/>
<polygon fill="#63b8ff" stroke="#63b8ff" points="475.96,-181.97 465.54,-183.9 474.89,-188.89 475.96,-181.97"/>
</a>
</g>
</g>
<!-- Node17&#45;&gt;Node18 -->
<g id="edge21_Node000017_Node000018" class="edge">
<title>Node17&#45;&gt;Node18</title>
<g id="a_edge21_Node000017_Node000018"><a xlink:title=" ">
<path fill="none" stroke="#63b8ff" d="M773.96,-219.98C793.03,-211.42 822.66,-198.11 844.55,-188.28"/>
<polygon fill="#63b8ff" stroke="#63b8ff" points="846.01,-191.46 853.7,-184.17 843.14,-185.07 846.01,-191.46"/>
</a>
</g>
</g>
<!-- Node17&#45;&gt;Node24 -->
<g id="edge32_Node000017_Node000024" class="edge">
<title>Node17&#45;&gt;Node24</title>
<g id="a_edge32_Node000017_Node000024"><a xlink:title=" ">
<path fill="none" stroke="#63b8ff" d="M784.5,-225.5C874.76,-216.32 1146.8,-188.64 1242.36,-178.92"/>
<polygon fill="#63b8ff" stroke="#63b8ff" points="1242.75,-182.4 1252.35,-177.91 1242.05,-175.44 1242.75,-182.4"/>
</a>
</g>
</g>
<!-- Node17&#45;&gt;Node29 -->
<g id="edge38_Node000017_Node000029" class="edge">
<title>Node17&#45;&gt;Node29</title>
<g id="a_edge38_Node000017_Node000029"><a xlink:title=" ">
<path fill="none" stroke="#63b8ff" d="M755,-219.75C755,-212.8 755,-202.85 755,-194.13"/>
<polygon fill="#63b8ff" stroke="#63b8ff" points="758.5,-194.09 755,-184.09 751.5,-194.09 758.5,-194.09"/>
</a>
</g>
</g>
<!-- Node19 -->
<g id="Node000019" class="node">
<title>Node19</title>
<g id="a_Node000019"><a xlink:href="EnumDecorator_8h.html" target="_top" xlink:title="Provides an enum with useful extra functionality.">
<polygon fill="white" stroke="#666666" points="945,-129 801,-129 801,-110 945,-110 945,-129"/>
<text text-anchor="middle" x="873" y="-117" font-family="Helvetica,sans-Serif" font-size="10.00">patterns/EnumDecorator.h</text>
</a>
</g>
</g>
<!-- Node18&#45;&gt;Node19 -->
<g id="edge22_Node000018_Node000019" class="edge">
<title>Node18&#45;&gt;Node19</title>
<g id="a_edge22_Node000018_Node000019"><a xlink:title=" ">
<path fill="none" stroke="#63b8ff" d="M873,-164.75C873,-157.8 873,-147.85 873,-139.13"/>
<polygon fill="#63b8ff" stroke="#63b8ff" points="876.5,-139.09 873,-129.09 869.5,-139.09 876.5,-139.09"/>
</a>
</g>
</g>
<!-- Node21 -->
<g id="Node000021" class="node">
<title>Node21</title>
<g id="a_Node000021"><a xlink:title=" ">
<polygon fill="#e0e0e0" stroke="#999999" points="1016,-74 966,-74 966,-55 1016,-55 1016,-74"/>
<text text-anchor="middle" x="991" y="-62" font-family="Helvetica,sans-Serif" font-size="10.00">cstdint</text>
</a>
</g>
</g>
<!-- Node18&#45;&gt;Node21 -->
<g id="edge29_Node000018_Node000021" class="edge">
<title>Node18&#45;&gt;Node21</title>
<g id="a_edge29_Node000018_Node000021"><a xlink:title=" ">
<path fill="none" stroke="#63b8ff" d="M895.72,-164.97C913.24,-157.53 937.23,-145.35 954,-129 967.25,-116.08 977.36,-97.42 983.64,-83.67"/>
<polygon fill="#63b8ff" stroke="#63b8ff" points="986.94,-84.86 987.68,-74.29 980.51,-82.09 986.94,-84.86"/>
</a>
</g>
</g>
<!-- Node18&#45;&gt;Node23 -->
<g id="edge28_Node000018_Node000023" class="edge">
<title>Node18&#45;&gt;Node23</title>
<g id="a_edge28_Node000018_Node000023"><a xlink:title=" ">
<path fill="none" stroke="#63b8ff" d="M902.79,-165.1C934.64,-156.12 985.33,-141.83 1020.73,-131.85"/>
<polygon fill="#63b8ff" stroke="#63b8ff" points="1022.05,-135.12 1030.73,-129.03 1020.15,-128.38 1022.05,-135.12"/>
</a>
</g>
</g>
<!-- Node19&#45;&gt;Node4 -->
<g id="edge26_Node000019_Node000004" class="edge">
<title>Node19&#45;&gt;Node4</title>
<g id="a_edge26_Node000019_Node000004"><a xlink:title=" ">
<path fill="none" stroke="#63b8ff" d="M870.55,-109.74C866.07,-95.56 855.14,-67.87 835,-55 770.79,-13.98 534.02,-10.23 447.19,-10.28"/>
<polygon fill="#63b8ff" stroke="#63b8ff" points="447.13,-6.78 437.13,-10.3 447.14,-13.78 447.13,-6.78"/>
</a>
</g>
</g>
<!-- Node19&#45;&gt;Node11 -->
<g id="edge25_Node000019_Node000011" class="edge">
<title>Node19&#45;&gt;Node11</title>
<g id="a_edge25_Node000019_Node000011"><a xlink:title=" ">
<path fill="none" stroke="#63b8ff" d="M800.59,-110.73C797.69,-110.48 794.82,-110.23 792,-110 654.67,-98.81 303.74,-117.51 173,-74 156.78,-68.6 119.34,-42.04 96.31,-25.03"/>
<polygon fill="#63b8ff" stroke="#63b8ff" points="98.37,-22.2 88.26,-19.04 94.19,-27.82 98.37,-22.2"/>
</a>
</g>
</g>
<!-- Node20 -->
<g id="Node000020" class="node">
<title>Node20</title>
<g id="a_Node000020"><a xlink:href="ReflectionMacros_8h.html" target="_top" xlink:title="adapted from https://github.com/tapika/TestCppReflect">
<polygon fill="white" stroke="#666666" points="738,-74 628,-74 628,-55 738,-55 738,-74"/>
<text text-anchor="middle" x="683" y="-62" font-family="Helvetica,sans-Serif" font-size="10.00">ReflectionMacros.h</text>
</a>
</g>
</g>
<!-- Node19&#45;&gt;Node20 -->
<g id="edge23_Node000019_Node000020" class="edge">
<title>Node19&#45;&gt;Node20</title>
<g id="a_edge23_Node000019_Node000020"><a xlink:title=" ">
<path fill="none" stroke="#63b8ff" d="M842.47,-109.98C810.3,-101.01 759.44,-86.82 723.83,-76.89"/>
<polygon fill="#63b8ff" stroke="#63b8ff" points="724.34,-73.4 713.77,-74.08 722.46,-80.14 724.34,-73.4"/>
</a>
</g>
</g>
<!-- Node19&#45;&gt;Node21 -->
<g id="edge24_Node000019_Node000021" class="edge">
<title>Node19&#45;&gt;Node21</title>
<g id="a_edge24_Node000019_Node000021"><a xlink:title=" ">
<path fill="none" stroke="#63b8ff" d="M891.96,-109.98C911.03,-101.42 940.66,-88.11 962.55,-78.28"/>
<polygon fill="#63b8ff" stroke="#63b8ff" points="964.01,-81.46 971.7,-74.17 961.14,-75.07 964.01,-81.46"/>
</a>
</g>
</g>
<!-- Node22 -->
<g id="Node000022" class="node">
<title>Node22</title>
<g id="a_Node000022"><a xlink:title=" ">
<polygon fill="#e0e0e0" stroke="#999999" points="825.5,-74 756.5,-74 756.5,-55 825.5,-55 825.5,-74"/>
<text text-anchor="middle" x="791" y="-62" font-family="Helvetica,sans-Serif" font-size="10.00">type_traits</text>
</a>
</g>
</g>
<!-- Node19&#45;&gt;Node22 -->
<g id="edge27_Node000019_Node000022" class="edge">
<title>Node19&#45;&gt;Node22</title>
<g id="a_edge27_Node000019_Node000022"><a xlink:title=" ">
<path fill="none" stroke="#63b8ff" d="M859.83,-109.98C847.23,-101.84 828,-89.41 813.06,-79.76"/>
<polygon fill="#63b8ff" stroke="#63b8ff" points="814.71,-76.66 804.41,-74.17 810.91,-82.54 814.71,-76.66"/>
</a>
</g>
</g>
<!-- Node24&#45;&gt;Node4 -->
<g id="edge34_Node000024_Node000004" class="edge">
<title>Node24&#45;&gt;Node4</title>
<g id="a_edge34_Node000024_Node000004"><a xlink:title=" ">
<path fill="none" stroke="#63b8ff" d="M1299.52,-169.84C1341.13,-162.42 1420.77,-143.4 1392,-110 1328.91,-36.76 610.84,-15.2 447.79,-11.23"/>
<polygon fill="#63b8ff" stroke="#63b8ff" points="447.53,-7.72 437.45,-10.98 447.36,-14.72 447.53,-7.72"/>
</a>
</g>
</g>
<!-- Node25 -->
<g id="Node000025" class="node">
<title>Node25</title>
<g id="a_Node000025"><a xlink:title=" ">
<polygon fill="#e0e0e0" stroke="#999999" points="1383,-129 1323,-129 1323,-110 1383,-110 1383,-129"/>
<text text-anchor="middle" x="1353" y="-117" font-family="Helvetica,sans-Serif" font-size="10.00">iostream</text>
</a>
</g>
</g>
<!-- Node24&#45;&gt;Node25 -->
<g id="edge33_Node000024_Node000025" class="edge">
<title>Node24&#45;&gt;Node25</title>
<g id="a_edge33_Node000024_Node000025"><a xlink:title=" ">
<path fill="none" stroke="#63b8ff" d="M1288.37,-164.98C1300.09,-156.92 1317.92,-144.65 1331.89,-135.03"/>
<polygon fill="#63b8ff" stroke="#63b8ff" points="1334.15,-137.72 1340.4,-129.17 1330.18,-131.96 1334.15,-137.72"/>
</a>
</g>
</g>
<!-- Node24&#45;&gt;Node26 -->
<g id="edge35_Node000024_Node000026" class="edge">
<title>Node24&#45;&gt;Node26</title>
<g id="a_edge35_Node000024_Node000026"><a xlink:title=" ">
<path fill="none" stroke="#63b8ff" d="M1299.68,-166.79C1332.47,-157.49 1391.88,-140.66 1429.29,-130.06"/>
<polygon fill="#63b8ff" stroke="#63b8ff" points="1430.55,-133.34 1439.21,-127.24 1428.64,-126.6 1430.55,-133.34"/>
</a>
</g>
</g>
<!-- Node27 -->
<g id="Node000027" class="node">
<title>Node27</title>
<g id="a_Node000027"><a xlink:title=" ">
<polygon fill="#e0e0e0" stroke="#999999" points="1228.5,-129 1177.5,-129 1177.5,-110 1228.5,-110 1228.5,-129"/>
<text text-anchor="middle" x="1203" y="-117" font-family="Helvetica,sans-Serif" font-size="10.00">variant</text>
</a>
</g>
</g>
<!-- Node24&#45;&gt;Node27 -->
<g id="edge36_Node000024_Node000027" class="edge">
<title>Node24&#45;&gt;Node27</title>
<g id="a_edge36_Node000024_Node000027"><a xlink:title=" ">
<path fill="none" stroke="#63b8ff" d="M1264.27,-164.98C1253.27,-157 1236.58,-144.88 1223.4,-135.31"/>
<polygon fill="#63b8ff" stroke="#63b8ff" points="1225.09,-132.21 1214.94,-129.17 1220.98,-137.88 1225.09,-132.21"/>
</a>
</g>
</g>
<!-- Node28 -->
<g id="Node000028" class="node">
<title>Node28</title>
<g id="a_Node000028"><a xlink:title=" ">
<polygon fill="#e0e0e0" stroke="#999999" points="1305,-129 1247,-129 1247,-110 1305,-110 1305,-129"/>
<text text-anchor="middle" x="1276" y="-117" font-family="Helvetica,sans-Serif" font-size="10.00">memory</text>
</a>
</g>
</g>
<!-- Node24&#45;&gt;Node28 -->
<g id="edge37_Node000024_Node000028" class="edge">
<title>Node24&#45;&gt;Node28</title>
<g id="a_edge37_Node000024_Node000028"><a xlink:title=" ">
<path fill="none" stroke="#63b8ff" d="M1276,-164.75C1276,-157.8 1276,-147.85 1276,-139.13"/>
<polygon fill="#63b8ff" stroke="#63b8ff" points="1279.5,-139.09 1276,-129.09 1272.5,-139.09 1279.5,-139.09"/>
</a>
</g>
</g>
<!-- Node30 -->
<g id="Node000030" class="node">
<title>Node30</title>
<g id="a_Node000030"><a xlink:title=" ">
<polygon fill="#e0e0e0" stroke="#999999" points="783,-129 727,-129 727,-110 783,-110 783,-129"/>
<text text-anchor="middle" x="755" y="-117" font-family="Helvetica,sans-Serif" font-size="10.00">sstream</text>
</a>
</g>
</g>
<!-- Node29&#45;&gt;Node30 -->
<g id="edge39_Node000029_Node000030" class="edge">
<title>Node29&#45;&gt;Node30</title>
<g id="a_edge39_Node000029_Node000030"><a xlink:title=" ">
<path fill="none" stroke="#63b8ff" d="M755,-164.75C755,-157.8 755,-147.85 755,-139.13"/>
<polygon fill="#63b8ff" stroke="#63b8ff" points="758.5,-139.09 755,-129.09 751.5,-139.09 758.5,-139.09"/>
</a>
</g>
</g>
<!-- Node31 -->
<g id="Node000031" class="node">
<title>Node31</title>
<g id="a_Node000031"><a xlink:title=" ">
<polygon fill="#e0e0e0" stroke="#999999" points="708.5,-129 643.5,-129 643.5,-110 708.5,-110 708.5,-129"/>
<text text-anchor="middle" x="676" y="-117" font-family="Helvetica,sans-Serif" font-size="10.00">stdexcept</text>
</a>
</g>
</g>
<!-- Node29&#45;&gt;Node31 -->
<g id="edge40_Node000029_Node000031" class="edge">
<title>Node29&#45;&gt;Node31</title>
<g id="a_edge40_Node000029_Node000031"><a xlink:title=" ">
<path fill="none" stroke="#63b8ff" d="M742.31,-164.98C730.17,-156.84 711.64,-144.41 697.25,-134.76"/>
<polygon fill="#63b8ff" stroke="#63b8ff" points="699.18,-131.84 688.92,-129.17 695.28,-137.65 699.18,-131.84"/>
</a>
</g>
</g>
<!-- Node34&#45;&gt;Node4 -->
<g id="edge50_Node000034_Node000004" class="edge">
<title>Node34&#45;&gt;Node4</title>
<g id="a_edge50_Node000034_Node000004"><a xlink:title=" ">
<path fill="none" stroke="#63b8ff" d="M126.24,-58.26C185.13,-51.58 286.82,-38.71 382.86,-19.01"/>
<polygon fill="#63b8ff" stroke="#63b8ff" points="383.65,-22.42 392.73,-16.96 382.23,-15.57 383.65,-22.42"/>
</a>
</g>
</g>
<!-- Node34&#45;&gt;Node11 -->
<g id="edge51_Node000034_Node000011" class="edge">
<title>Node34&#45;&gt;Node11</title>
<g id="a_edge51_Node000034_Node000011"><a xlink:title=" ">
<path fill="none" stroke="#63b8ff" d="M77,-54.75C77,-47.8 77,-37.85 77,-29.13"/>
<polygon fill="#63b8ff" stroke="#63b8ff" points="80.5,-29.09 77,-19.09 73.5,-29.09 80.5,-29.09"/>
</a>
</g>
</g>
</g>
</svg>

<g id="navigator" transform="translate(0 0)" fill="#404254">
  <rect fill="#f2f5e9" fill-opacity="0.5" stroke="#606060" stroke-width=".5" x="0" y="0" width="60" height="60"/>
  <use id="zoomplus" xlink:href="#zoomPlus" x="17" y="9" onmousedown="handleZoom(evt,'in')"/>
  <use id="zoomminus" xlink:href="#zoomMin" x="42" y="9" onmousedown="handleZoom(evt,'out')"/>
  <use id="reset" xlink:href="#resetDef" x="30" y="36" onmousedown="handleReset()"/>
   <use id="arrowup" xlink:href="#arrowUp" x="0" y="0" onmousedown="handlePan(0,-1)"/>
  <use id="arrowright" xlink:href="#arrowRight" x="0" y="0" onmousedown="handlePan(1,0)"/>
  <use id="arrowdown" xlink:href="#arrowDown" x="0" y="0" onmousedown="handlePan(0,1)"/>
  <use id="arrowleft" xlink:href="#arrowLeft" x="0" y="0" onmousedown="handlePan(-1,0)"/>
</g>
<svg viewBox="0 0 15 15" width="100%" height="30px" preserveAspectRatio="xMaxYMin meet">
 <g id="arrow_out" transform="scale(0.3 0.3)">
  <a xlink:href="ParamDescriptor_8h__incl_org.svg" target="_base">
   <rect id="button" ry="5" rx="5" y="6" x="6" height="38" width="38"
        fill="#f2f5e9" fill-opacity="0.5" stroke="#606060" stroke-width="1.0"/>
   <path id="arrow"
     d="M 11.500037,31.436501 C 11.940474,20.09759 22.043105,11.32322 32.158766,21.979434 L 37.068811,17.246167 C 37.068811,17.246167 37.088388,32 37.088388,32 L 22.160133,31.978069 C 22.160133,31.978069 26.997745,27.140456 26.997745,27.140456 C 18.528582,18.264221 13.291696,25.230495 11.500037,31.436501 z"
     style="fill:#404040;"/>
  </a>
 </g>
</svg>

<style type='text/css'>
<![CDATA[
[data-mouse-over-selected='false'] { opacity: 0.7; }
[data-mouse-over-selected='true']  { opacity: 1.0; }
]]>
</style>
<script type="application/ecmascript"><![CDATA[
document.addEventListener('DOMContentLoaded', (event) => {
  highlightEdges();
  highlightAdjacentNodes();
});
]]></script>
</svg>
