<?xml version="1.0" encoding="UTF-8" standalone="no"?>
<!DOCTYPE svg PUBLIC "-//W3C//DTD SVG 1.1//EN"
 "http://www.w3.org/Graphics/SVG/1.1/DTD/svg11.dtd">
<!-- Generated by graphviz version 2.43.0 (0)
 -->
<!-- Title: /home/runner/work/Catena/Catena/sdks/cpp/full/include/ParamAccessor.h Pages: 1 -->
<svg width="2414pt" height="218pt"
 viewBox="0.00 0.00 2413.50 218.00" xmlns="http://www.w3.org/2000/svg" xmlns:xlink="http://www.w3.org/1999/xlink">
<g id="graph0" class="graph" transform="scale(1 1) rotate(0) translate(4 214)">
<title>/home/runner/work/Catena/Catena/sdks/cpp/full/include/ParamAccessor.h</title>
<polygon fill="white" stroke="transparent" points="-4,4 -4,-214 2409.5,-214 2409.5,4 -4,4"/>
<!-- Node1 -->
<g id="node1" class="node">
<title>Node1</title>
<g id="a_node1"><a xlink:title="Convenient access to Params in the DeviceModel.">
<polygon fill="#bfbfbf" stroke="black" points="1204.5,-168.5 1204.5,-209.5 1361.5,-209.5 1361.5,-168.5 1204.5,-168.5"/>
<text text-anchor="start" x="1212.5" y="-197.5" font-family="Helvetica,sans-Serif" font-size="10.00">/home/runner/work/Catena</text>
<text text-anchor="start" x="1212.5" y="-186.5" font-family="Helvetica,sans-Serif" font-size="10.00">/Catena/sdks/cpp/full/include</text>
<text text-anchor="middle" x="1283" y="-175.5" font-family="Helvetica,sans-Serif" font-size="10.00">/ParamAccessor.h</text>
</a>
</g>
</g>
<!-- Node2 -->
<g id="node2" class="node">
<title>Node2</title>
<g id="a_node2"><a xlink:title=" ">
<polygon fill="white" stroke="#bfbfbf" points="0,-112.5 0,-131.5 136,-131.5 136,-112.5 0,-112.5"/>
<text text-anchor="middle" x="68" y="-119.5" font-family="Helvetica,sans-Serif" font-size="10.00">interface/constraint.pb.h</text>
</a>
</g>
</g>
<!-- Node1&#45;&gt;Node2 -->
<g id="edge1" class="edge">
<title>Node1&#45;&gt;Node2</title>
<path fill="none" stroke="midnightblue" d="M1204.26,-185.73C1019.79,-180.07 545.34,-163.44 150,-132 148.89,-131.91 147.78,-131.82 146.66,-131.73"/>
<polygon fill="midnightblue" stroke="midnightblue" points="146.7,-128.22 136.43,-130.82 146.08,-135.19 146.7,-128.22"/>
</g>
<!-- Node3 -->
<g id="node3" class="node">
<title>Node3</title>
<g id="a_node3"><a xlink:title=" ">
<polygon fill="white" stroke="#bfbfbf" points="1261.5,-56.5 1261.5,-75.5 1380.5,-75.5 1380.5,-56.5 1261.5,-56.5"/>
<text text-anchor="middle" x="1321" y="-63.5" font-family="Helvetica,sans-Serif" font-size="10.00">interface/device.pb.h</text>
</a>
</g>
</g>
<!-- Node1&#45;&gt;Node3 -->
<g id="edge2" class="edge">
<title>Node1&#45;&gt;Node3</title>
<path fill="none" stroke="midnightblue" d="M1289.19,-168.29C1296.42,-145.27 1308.28,-107.5 1315.29,-85.17"/>
<polygon fill="midnightblue" stroke="midnightblue" points="1318.65,-86.16 1318.31,-75.57 1311.97,-84.07 1318.65,-86.16"/>
</g>
<!-- Node4 -->
<g id="node4" class="node">
<title>Node4</title>
<g id="a_node4"><a xlink:title=" ">
<polygon fill="white" stroke="#bfbfbf" points="338.5,-56.5 338.5,-75.5 457.5,-75.5 457.5,-56.5 338.5,-56.5"/>
<text text-anchor="middle" x="398" y="-63.5" font-family="Helvetica,sans-Serif" font-size="10.00">interface/param.pb.h</text>
</a>
</g>
</g>
<!-- Node1&#45;&gt;Node4 -->
<g id="edge3" class="edge">
<title>Node1&#45;&gt;Node4</title>
<path fill="none" stroke="midnightblue" d="M1204.46,-177.26C1033.71,-153.92 630.97,-98.85 468.14,-76.59"/>
<polygon fill="midnightblue" stroke="midnightblue" points="468.14,-73.06 457.76,-75.17 467.2,-79.99 468.14,-73.06"/>
</g>
<!-- Node5 -->
<g id="node5" class="node">
<title>Node5</title>
<g id="a_node5"><a xlink:href="Functory_8h.html" target="_top" xlink:title="Provides tools to create maps of functions.">
<polygon fill="white" stroke="black" points="1460,-112.5 1460,-131.5 1570,-131.5 1570,-112.5 1460,-112.5"/>
<text text-anchor="middle" x="1515" y="-119.5" font-family="Helvetica,sans-Serif" font-size="10.00">patterns/Functory.h</text>
</a>
</g>
</g>
<!-- Node1&#45;&gt;Node5 -->
<g id="edge4" class="edge">
<title>Node1&#45;&gt;Node5</title>
<path fill="none" stroke="midnightblue" d="M1352.61,-168.5C1392.4,-157.35 1440.92,-143.76 1474.5,-134.35"/>
<polygon fill="midnightblue" stroke="midnightblue" points="1475.74,-137.64 1484.42,-131.57 1473.85,-130.89 1475.74,-137.64"/>
</g>
<!-- Node8 -->
<g id="node8" class="node">
<title>Node8</title>
<g id="a_node8"><a xlink:title=" ">
<polygon fill="white" stroke="#bfbfbf" points="771,-0.5 771,-19.5 831,-19.5 831,-0.5 771,-0.5"/>
<text text-anchor="middle" x="801" y="-7.5" font-family="Helvetica,sans-Serif" font-size="10.00">iostream</text>
</a>
</g>
</g>
<!-- Node1&#45;&gt;Node8 -->
<g id="edge61" class="edge">
<title>Node1&#45;&gt;Node8</title>
<path fill="none" stroke="midnightblue" d="M1204.12,-184.71C985.86,-174.78 386.2,-141.73 329,-76 267.17,-4.96 643.05,-33.17 760.9,-19.74"/>
<polygon fill="midnightblue" stroke="midnightblue" points="761.4,-23.21 770.85,-18.41 760.47,-16.27 761.4,-23.21"/>
</g>
<!-- Node9 -->
<g id="node9" class="node">
<title>Node9</title>
<g id="a_node9"><a xlink:title=" ">
<polygon fill="white" stroke="#bfbfbf" points="614.5,-0.5 614.5,-19.5 683.5,-19.5 683.5,-0.5 614.5,-0.5"/>
<text text-anchor="middle" x="649" y="-7.5" font-family="Helvetica,sans-Serif" font-size="10.00">type_traits</text>
</a>
</g>
</g>
<!-- Node1&#45;&gt;Node9 -->
<g id="edge65" class="edge">
<title>Node1&#45;&gt;Node9</title>
<path fill="none" stroke="midnightblue" d="M1204.42,-186.08C981.23,-180.29 353.94,-161.56 266,-132 223.82,-117.82 203.89,-115.29 183,-76 178.83,-68.15 177.02,-62.58 183,-56 210.99,-25.18 492.68,-14.87 604.04,-11.98"/>
<polygon fill="midnightblue" stroke="midnightblue" points="604.36,-15.47 614.27,-11.72 604.19,-8.47 604.36,-15.47"/>
</g>
<!-- Node11 -->
<g id="node11" class="node">
<title>Node11</title>
<g id="a_node11"><a xlink:title=" ">
<polygon fill="white" stroke="#bfbfbf" points="2083,-0.5 2083,-19.5 2139,-19.5 2139,-0.5 2083,-0.5"/>
<text text-anchor="middle" x="2111" y="-7.5" font-family="Helvetica,sans-Serif" font-size="10.00">sstream</text>
</a>
</g>
</g>
<!-- Node1&#45;&gt;Node11 -->
<g id="edge64" class="edge">
<title>Node1&#45;&gt;Node11</title>
<path fill="none" stroke="midnightblue" d="M1361.54,-185.75C1541.64,-180.1 1979.97,-163.49 2124,-132 2192.3,-117.07 2231.33,-133.57 2271,-76 2302.31,-30.56 2205.91,-16.86 2149.24,-12.75"/>
<polygon fill="midnightblue" stroke="midnightblue" points="2149.37,-9.25 2139.16,-12.09 2148.91,-16.24 2149.37,-9.25"/>
</g>
<!-- Node12 -->
<g id="node12" class="node">
<title>Node12</title>
<g id="a_node12"><a xlink:title=" ">
<polygon fill="white" stroke="#bfbfbf" points="1098,-0.5 1098,-19.5 1142,-19.5 1142,-0.5 1098,-0.5"/>
<text text-anchor="middle" x="1120" y="-7.5" font-family="Helvetica,sans-Serif" font-size="10.00">string</text>
</a>
</g>
</g>
<!-- Node1&#45;&gt;Node12 -->
<g id="edge63" class="edge">
<title>Node1&#45;&gt;Node12</title>
<path fill="none" stroke="midnightblue" d="M1204.18,-182.61C1132.72,-175.89 1035.03,-161.48 1011,-132 977.79,-91.25 1050.32,-45.86 1092.51,-24.07"/>
<polygon fill="midnightblue" stroke="midnightblue" points="1094.15,-27.17 1101.51,-19.54 1091,-20.91 1094.15,-27.17"/>
</g>
<!-- Node14 -->
<g id="node14" class="node">
<title>Node14</title>
<g id="a_node14"><a xlink:title=" ">
<polygon fill="white" stroke="#bfbfbf" points="1398.5,-56.5 1398.5,-75.5 1463.5,-75.5 1463.5,-56.5 1398.5,-56.5"/>
<text text-anchor="middle" x="1431" y="-63.5" font-family="Helvetica,sans-Serif" font-size="10.00">functional</text>
</a>
</g>
</g>
<!-- Node1&#45;&gt;Node14 -->
<g id="edge60" class="edge">
<title>Node1&#45;&gt;Node14</title>
<path fill="none" stroke="midnightblue" d="M1307.11,-168.29C1336.67,-144.12 1386.12,-103.69 1412.73,-81.94"/>
<polygon fill="midnightblue" stroke="midnightblue" points="1414.99,-84.61 1420.51,-75.57 1410.55,-79.19 1414.99,-84.61"/>
</g>
<!-- Node15 -->
<g id="node15" class="node">
<title>Node15</title>
<g id="a_node15"><a xlink:href="Variant_8h.html" target="_top" xlink:title="Meta programming to test if an object is a std::variant.">
<polygon fill="white" stroke="black" points="192.5,-56.5 192.5,-75.5 281.5,-75.5 281.5,-56.5 192.5,-56.5"/>
<text text-anchor="middle" x="237" y="-63.5" font-family="Helvetica,sans-Serif" font-size="10.00">meta/Variant.h</text>
</a>
</g>
</g>
<!-- Node1&#45;&gt;Node15 -->
<g id="edge14" class="edge">
<title>Node1&#45;&gt;Node15</title>
<path fill="none" stroke="midnightblue" d="M1204.38,-186.95C985.02,-183.54 377.03,-170.67 296,-132 274.59,-121.78 257.4,-99.95 247.21,-84.41"/>
<polygon fill="midnightblue" stroke="midnightblue" points="250.06,-82.36 241.8,-75.71 244.11,-86.05 250.06,-82.36"/>
</g>
<!-- Node17 -->
<g id="node17" class="node">
<title>Node17</title>
<g id="a_node17"><a xlink:href="DeviceModel_8h.html" target="_top" xlink:title="API for using the Catena device model.">
<polygon fill="white" stroke="black" points="1019.5,-112.5 1019.5,-131.5 1108.5,-131.5 1108.5,-112.5 1019.5,-112.5"/>
<text text-anchor="middle" x="1064" y="-119.5" font-family="Helvetica,sans-Serif" font-size="10.00">DeviceModel.h</text>
</a>
</g>
</g>
<!-- Node1&#45;&gt;Node17 -->
<g id="edge17" class="edge">
<title>Node1&#45;&gt;Node17</title>
<path fill="none" stroke="midnightblue" d="M1217.29,-168.5C1179.89,-157.4 1134.32,-143.87 1102.64,-134.47"/>
<polygon fill="midnightblue" stroke="midnightblue" points="1103.45,-131.06 1092.86,-131.57 1101.46,-137.77 1103.45,-131.06"/>
</g>
<!-- Node23 -->
<g id="node23" class="node">
<title>Node23</title>
<g id="a_node23"><a xlink:href="Path_8h.html" target="_top" xlink:title="Handles Path objects used to uniquely identify and access OIDs.">
<polygon fill="white" stroke="black" points="1092.5,-56.5 1092.5,-75.5 1139.5,-75.5 1139.5,-56.5 1092.5,-56.5"/>
<text text-anchor="middle" x="1116" y="-63.5" font-family="Helvetica,sans-Serif" font-size="10.00">Path.h</text>
</a>
</g>
</g>
<!-- Node1&#45;&gt;Node23 -->
<g id="edge45" class="edge">
<title>Node1&#45;&gt;Node23</title>
<path fill="none" stroke="midnightblue" d="M1255.8,-168.29C1222.29,-144.01 1166.15,-103.34 1136.23,-81.66"/>
<polygon fill="midnightblue" stroke="midnightblue" points="1137.99,-78.61 1127.83,-75.57 1133.88,-84.28 1137.99,-78.61"/>
</g>
<!-- Node25 -->
<g id="node25" class="node">
<title>Node25</title>
<g id="a_node25"><a xlink:title=" ">
<polygon fill="white" stroke="#bfbfbf" points="1738,-0.5 1738,-19.5 1796,-19.5 1796,-0.5 1738,-0.5"/>
<text text-anchor="middle" x="1767" y="-7.5" font-family="Helvetica,sans-Serif" font-size="10.00">memory</text>
</a>
</g>
</g>
<!-- Node1&#45;&gt;Node25 -->
<g id="edge62" class="edge">
<title>Node1&#45;&gt;Node25</title>
<path fill="none" stroke="midnightblue" d="M1361.59,-185.09C1582.86,-176.08 2198.68,-144.94 2255,-76 2260.62,-69.12 2260.99,-62.57 2255,-56 2239.92,-39.46 1919.81,-19.7 1806.4,-13.2"/>
<polygon fill="midnightblue" stroke="midnightblue" points="1806.27,-9.68 1796.09,-12.61 1805.87,-16.67 1806.27,-9.68"/>
</g>
<!-- Node26 -->
<g id="node26" class="node">
<title>Node26</title>
<g id="a_node26"><a xlink:href="Status_8h.html" target="_top" xlink:title="Communicates failure status using gRPC&#39;s codes.">
<polygon fill="white" stroke="black" points="1956,-56.5 1956,-75.5 2012,-75.5 2012,-56.5 1956,-56.5"/>
<text text-anchor="middle" x="1984" y="-63.5" font-family="Helvetica,sans-Serif" font-size="10.00">Status.h</text>
</a>
</g>
</g>
<!-- Node1&#45;&gt;Node26 -->
<g id="edge46" class="edge">
<title>Node1&#45;&gt;Node26</title>
<path fill="none" stroke="midnightblue" d="M1361.65,-185.07C1500.95,-179.14 1785.16,-163.51 1879,-132 1912.28,-120.82 1945.95,-97.35 1965.89,-81.88"/>
<polygon fill="midnightblue" stroke="midnightblue" points="1968.14,-84.56 1973.8,-75.61 1963.79,-79.08 1968.14,-84.56"/>
</g>
<!-- Node28 -->
<g id="node28" class="node">
<title>Node28</title>
<g id="a_node28"><a xlink:href="Fake_8h.html" target="_top" xlink:title="FakeLock is used to create treadsafe recursive functions.">
<polygon fill="white" stroke="black" points="1196.5,-56.5 1196.5,-75.5 1243.5,-75.5 1243.5,-56.5 1196.5,-56.5"/>
<text text-anchor="middle" x="1220" y="-63.5" font-family="Helvetica,sans-Serif" font-size="10.00">Fake.h</text>
</a>
</g>
</g>
<!-- Node1&#45;&gt;Node28 -->
<g id="edge59" class="edge">
<title>Node1&#45;&gt;Node28</title>
<path fill="none" stroke="midnightblue" d="M1272.74,-168.29C1260.64,-145.06 1240.73,-106.82 1229.14,-84.56"/>
<polygon fill="midnightblue" stroke="midnightblue" points="1232.19,-82.83 1224.46,-75.57 1225.98,-86.06 1232.19,-82.83"/>
</g>
<!-- Node31 -->
<g id="node31" class="node">
<title>Node31</title>
<g id="a_node31"><a xlink:href="TypeTraits_8h.html" target="_top" xlink:title="TypeTraits for providing compile time type information for structs and std::variant objects.">
<polygon fill="white" stroke="black" points="1796,-112.5 1796,-131.5 1870,-131.5 1870,-112.5 1796,-112.5"/>
<text text-anchor="middle" x="1833" y="-119.5" font-family="Helvetica,sans-Serif" font-size="10.00">TypeTraits.h</text>
</a>
</g>
</g>
<!-- Node1&#45;&gt;Node31 -->
<g id="edge47" class="edge">
<title>Node1&#45;&gt;Node31</title>
<path fill="none" stroke="midnightblue" d="M1361.51,-178.72C1477.51,-165.01 1691.17,-139.76 1785.78,-128.58"/>
<polygon fill="midnightblue" stroke="midnightblue" points="1786.39,-132.03 1795.91,-127.38 1785.57,-125.08 1786.39,-132.03"/>
</g>
<!-- Node33 -->
<g id="node33" class="node">
<title>Node33</title>
<g id="a_node33"><a xlink:title=" ">
<polygon fill="white" stroke="#bfbfbf" points="2188.5,-56.5 2188.5,-75.5 2245.5,-75.5 2245.5,-56.5 2188.5,-56.5"/>
<text text-anchor="middle" x="2217" y="-63.5" font-family="Helvetica,sans-Serif" font-size="10.00">typeinfo</text>
</a>
</g>
</g>
<!-- Node1&#45;&gt;Node33 -->
<g id="edge66" class="edge">
<title>Node1&#45;&gt;Node33</title>
<path fill="none" stroke="midnightblue" d="M1361.81,-184.06C1481.3,-177.39 1715.23,-161.61 1912,-132 2008.72,-117.44 2120.82,-91.06 2178.42,-76.79"/>
<polygon fill="midnightblue" stroke="midnightblue" points="2179.34,-80.17 2188.2,-74.36 2177.65,-73.38 2179.34,-80.17"/>
</g>
<!-- Node34 -->
<g id="node34" class="node">
<title>Node34</title>
<g id="a_node34"><a xlink:title=" ">
<polygon fill="white" stroke="#bfbfbf" points="2340.5,-112.5 2340.5,-131.5 2405.5,-131.5 2405.5,-112.5 2340.5,-112.5"/>
<text text-anchor="middle" x="2373" y="-119.5" font-family="Helvetica,sans-Serif" font-size="10.00">typeindex</text>
</a>
</g>
</g>
<!-- Node1&#45;&gt;Node34 -->
<g id="edge67" class="edge">
<title>Node1&#45;&gt;Node34</title>
<path fill="none" stroke="midnightblue" d="M1361.82,-187.41C1536.24,-185.3 1967.8,-175.71 2326,-132 2327.47,-131.82 2328.96,-131.62 2330.47,-131.41"/>
<polygon fill="midnightblue" stroke="midnightblue" points="2331.15,-134.85 2340.47,-129.82 2330.05,-127.93 2331.15,-134.85"/>
</g>
<!-- Node6 -->
<g id="node6" class="node">
<title>Node6</title>
<g id="a_node6"><a xlink:href="Singleton_8h.html" target="_top" xlink:title="Singleton wrapper class definition.">
<polygon fill="white" stroke="black" points="1520.5,-56.5 1520.5,-75.5 1635.5,-75.5 1635.5,-56.5 1520.5,-56.5"/>
<text text-anchor="middle" x="1578" y="-63.5" font-family="Helvetica,sans-Serif" font-size="10.00">patterns/Singleton.h</text>
</a>
</g>
</g>
<!-- Node5&#45;&gt;Node6 -->
<g id="edge5" class="edge">
<title>Node5&#45;&gt;Node6</title>
<path fill="none" stroke="midnightblue" d="M1525.12,-112.32C1534.53,-104.26 1548.74,-92.08 1560.07,-82.37"/>
<polygon fill="midnightblue" stroke="midnightblue" points="1562.38,-85 1567.69,-75.83 1557.82,-79.68 1562.38,-85"/>
</g>
<!-- Node7 -->
<g id="node7" class="node">
<title>Node7</title>
<g id="a_node7"><a xlink:href="Streamable_8h.html" target="_top" xlink:title="Meta programming to test if an object is streamable.">
<polygon fill="white" stroke="black" points="750,-56.5 750,-75.5 860,-75.5 860,-56.5 750,-56.5"/>
<text text-anchor="middle" x="805" y="-63.5" font-family="Helvetica,sans-Serif" font-size="10.00">meta/Streamable.h</text>
</a>
</g>
</g>
<!-- Node5&#45;&gt;Node7 -->
<g id="edge6" class="edge">
<title>Node5&#45;&gt;Node7</title>
<path fill="none" stroke="midnightblue" d="M1459.67,-118.41C1349.63,-112.98 1095.31,-99.06 870.3,-75.95"/>
<polygon fill="midnightblue" stroke="midnightblue" points="870.59,-72.46 860.29,-74.92 869.87,-79.43 870.59,-72.46"/>
</g>
<!-- Node10 -->
<g id="node10" class="node">
<title>Node10</title>
<g id="a_node10"><a xlink:title=" ">
<polygon fill="white" stroke="#bfbfbf" points="1196,-0.5 1196,-19.5 1244,-19.5 1244,-0.5 1196,-0.5"/>
<text text-anchor="middle" x="1220" y="-7.5" font-family="Helvetica,sans-Serif" font-size="10.00">mutex</text>
</a>
</g>
</g>
<!-- Node5&#45;&gt;Node10 -->
<g id="edge9" class="edge">
<title>Node5&#45;&gt;Node10</title>
<path fill="none" stroke="midnightblue" d="M1570.18,-112.57C1616.6,-103.23 1671.5,-85.45 1645,-56 1631.94,-41.48 1352.8,-20.4 1254.16,-13.38"/>
<polygon fill="midnightblue" stroke="midnightblue" points="1254.34,-9.88 1244.12,-12.67 1253.84,-16.86 1254.34,-9.88"/>
</g>
<!-- Node5&#45;&gt;Node11 -->
<g id="edge10" class="edge">
<title>Node5&#45;&gt;Node11</title>
<path fill="none" stroke="midnightblue" d="M1570.27,-119.77C1683.84,-116.64 1939.61,-106.37 2021,-76 2050.18,-65.12 2078.37,-42.08 2095.2,-26.57"/>
<polygon fill="midnightblue" stroke="midnightblue" points="2097.66,-29.06 2102.51,-19.64 2092.84,-23.98 2097.66,-29.06"/>
</g>
<!-- Node5&#45;&gt;Node12 -->
<g id="edge11" class="edge">
<title>Node5&#45;&gt;Node12</title>
<path fill="none" stroke="midnightblue" d="M1512.04,-112.06C1506.74,-97.59 1494.16,-69.3 1473,-56 1418.77,-21.91 1250.52,-28.26 1187,-20 1175.62,-18.52 1163.16,-16.86 1152.11,-15.37"/>
<polygon fill="midnightblue" stroke="midnightblue" points="1152.4,-11.88 1142.02,-14.01 1151.46,-18.81 1152.4,-11.88"/>
</g>
<!-- Node13 -->
<g id="node13" class="node">
<title>Node13</title>
<g id="a_node13"><a xlink:title=" ">
<polygon fill="white" stroke="#bfbfbf" points="1692.5,-56.5 1692.5,-75.5 1785.5,-75.5 1785.5,-56.5 1692.5,-56.5"/>
<text text-anchor="middle" x="1739" y="-63.5" font-family="Helvetica,sans-Serif" font-size="10.00">unordered_map</text>
</a>
</g>
</g>
<!-- Node5&#45;&gt;Node13 -->
<g id="edge12" class="edge">
<title>Node5&#45;&gt;Node13</title>
<path fill="none" stroke="midnightblue" d="M1550.49,-112.44C1589.32,-103.08 1651.66,-88.06 1693.92,-77.87"/>
<polygon fill="midnightblue" stroke="midnightblue" points="1694.77,-81.26 1703.67,-75.52 1693.13,-74.46 1694.77,-81.26"/>
</g>
<!-- Node5&#45;&gt;Node14 -->
<g id="edge13" class="edge">
<title>Node5&#45;&gt;Node14</title>
<path fill="none" stroke="midnightblue" d="M1501.5,-112.32C1488.4,-103.9 1468.29,-90.97 1452.89,-81.07"/>
<polygon fill="midnightblue" stroke="midnightblue" points="1454.77,-78.12 1444.46,-75.65 1450.98,-84.01 1454.77,-78.12"/>
</g>
<!-- Node7&#45;&gt;Node8 -->
<g id="edge7" class="edge">
<title>Node7&#45;&gt;Node8</title>
<path fill="none" stroke="midnightblue" d="M804.34,-56.08C803.82,-49.01 803.06,-38.86 802.41,-29.99"/>
<polygon fill="midnightblue" stroke="midnightblue" points="805.88,-29.47 801.65,-19.75 798.9,-29.98 805.88,-29.47"/>
</g>
<!-- Node7&#45;&gt;Node9 -->
<g id="edge8" class="edge">
<title>Node7&#45;&gt;Node9</title>
<path fill="none" stroke="midnightblue" d="M780.28,-56.44C754.15,-47.4 712.74,-33.06 683.42,-22.92"/>
<polygon fill="midnightblue" stroke="midnightblue" points="684.2,-19.48 673.6,-19.52 681.91,-26.1 684.2,-19.48"/>
</g>
<!-- Node15&#45;&gt;Node9 -->
<g id="edge15" class="edge">
<title>Node15&#45;&gt;Node9</title>
<path fill="none" stroke="midnightblue" d="M281.76,-58.05C286.57,-57.34 291.38,-56.65 296,-56 406.64,-40.51 537.1,-24.45 604.18,-16.36"/>
<polygon fill="midnightblue" stroke="midnightblue" points="604.88,-19.8 614.39,-15.13 604.04,-12.85 604.88,-19.8"/>
</g>
<!-- Node16 -->
<g id="node16" class="node">
<title>Node16</title>
<g id="a_node16"><a xlink:title=" ">
<polygon fill="white" stroke="#bfbfbf" points="701.5,-0.5 701.5,-19.5 752.5,-19.5 752.5,-0.5 701.5,-0.5"/>
<text text-anchor="middle" x="727" y="-7.5" font-family="Helvetica,sans-Serif" font-size="10.00">variant</text>
</a>
</g>
</g>
<!-- Node15&#45;&gt;Node16 -->
<g id="edge16" class="edge">
<title>Node15&#45;&gt;Node16</title>
<path fill="none" stroke="midnightblue" d="M281.74,-57.88C286.55,-57.21 291.37,-56.56 296,-56 468.18,-35.06 516.09,-49.54 691.41,-19.8"/>
<polygon fill="midnightblue" stroke="midnightblue" points="692.23,-23.21 701.49,-18.07 691.04,-16.31 692.23,-23.21"/>
</g>
<!-- Node17&#45;&gt;Node3 -->
<g id="edge18" class="edge">
<title>Node17&#45;&gt;Node3</title>
<path fill="none" stroke="midnightblue" d="M1104.72,-112.44C1149.65,-103 1222,-87.8 1270.5,-77.61"/>
<polygon fill="midnightblue" stroke="midnightblue" points="1271.4,-81 1280.47,-75.52 1269.96,-74.15 1271.4,-81"/>
</g>
<!-- Node17&#45;&gt;Node4 -->
<g id="edge19" class="edge">
<title>Node17&#45;&gt;Node4</title>
<path fill="none" stroke="midnightblue" d="M1019.38,-118.3C920.62,-112.17 676.12,-96.16 472,-76 470.7,-75.87 469.38,-75.74 468.05,-75.6"/>
<polygon fill="midnightblue" stroke="midnightblue" points="468.06,-72.08 457.75,-74.5 467.32,-79.04 468.06,-72.08"/>
</g>
<!-- Node17&#45;&gt;Node8 -->
<g id="edge39" class="edge">
<title>Node17&#45;&gt;Node8</title>
<path fill="none" stroke="midnightblue" d="M1019.25,-120.8C892.77,-119.77 539.62,-113.52 505,-76 498.97,-69.47 499.17,-62.71 505,-56 541,-14.61 689.73,-28.88 760.55,-19.83"/>
<polygon fill="midnightblue" stroke="midnightblue" points="761.47,-23.23 770.82,-18.24 760.4,-16.31 761.47,-23.23"/>
</g>
<!-- Node17&#45;&gt;Node9 -->
<g id="edge41" class="edge">
<title>Node17&#45;&gt;Node9</title>
<path fill="none" stroke="midnightblue" d="M1019.3,-119.19C936.14,-115.2 761.26,-103.71 708,-76 686.95,-65.05 669.68,-43.38 659.38,-28.07"/>
<polygon fill="midnightblue" stroke="midnightblue" points="662.24,-26.05 653.9,-19.52 656.35,-29.83 662.24,-26.05"/>
</g>
<!-- Node17&#45;&gt;Node10 -->
<g id="edge37" class="edge">
<title>Node17&#45;&gt;Node10</title>
<path fill="none" stroke="midnightblue" d="M1064.25,-112.15C1065.12,-98.31 1068.8,-71.52 1084,-56 1110.93,-28.5 1155,-17.8 1185.64,-13.64"/>
<polygon fill="midnightblue" stroke="midnightblue" points="1186.36,-17.08 1195.87,-12.43 1185.53,-10.13 1186.36,-17.08"/>
</g>
<!-- Node17&#45;&gt;Node12 -->
<g id="edge40" class="edge">
<title>Node17&#45;&gt;Node12</title>
<path fill="none" stroke="midnightblue" d="M1058.64,-112.47C1051.26,-99.51 1039.93,-74.44 1050,-56 1058.29,-40.81 1074.15,-29.99 1088.67,-22.77"/>
<polygon fill="midnightblue" stroke="midnightblue" points="1090.29,-25.87 1097.93,-18.53 1087.38,-19.51 1090.29,-25.87"/>
</g>
<!-- Node17&#45;&gt;Node14 -->
<g id="edge42" class="edge">
<title>Node17&#45;&gt;Node14</title>
<path fill="none" stroke="midnightblue" d="M1108.73,-115.96C1169.81,-108.83 1282.91,-94.73 1388.51,-76.16"/>
<polygon fill="midnightblue" stroke="midnightblue" points="1389.14,-79.6 1398.37,-74.41 1387.91,-72.71 1389.14,-79.6"/>
</g>
<!-- Node18 -->
<g id="node18" class="node">
<title>Node18</title>
<g id="a_node18"><a xlink:href="signals_8h_source.html" target="_top" xlink:title=" ">
<polygon fill="white" stroke="black" points="878.5,-56.5 878.5,-75.5 959.5,-75.5 959.5,-56.5 878.5,-56.5"/>
<text text-anchor="middle" x="919" y="-63.5" font-family="Helvetica,sans-Serif" font-size="10.00">vdk/signals.h</text>
</a>
</g>
</g>
<!-- Node17&#45;&gt;Node18 -->
<g id="edge20" class="edge">
<title>Node17&#45;&gt;Node18</title>
<path fill="none" stroke="midnightblue" d="M1041.02,-112.44C1016.84,-103.44 978.58,-89.19 951.35,-79.05"/>
<polygon fill="midnightblue" stroke="midnightblue" points="952.46,-75.73 941.87,-75.52 950.02,-82.29 952.46,-75.73"/>
</g>
<!-- Node17&#45;&gt;Node23 -->
<g id="edge26" class="edge">
<title>Node17&#45;&gt;Node23</title>
<path fill="none" stroke="midnightblue" d="M1072.59,-112.08C1080.16,-104.22 1091.38,-92.57 1100.51,-83.08"/>
<polygon fill="midnightblue" stroke="midnightblue" points="1103.16,-85.38 1107.57,-75.75 1098.12,-80.53 1103.16,-85.38"/>
</g>
<!-- Node17&#45;&gt;Node25 -->
<g id="edge38" class="edge">
<title>Node17&#45;&gt;Node25</title>
<path fill="none" stroke="midnightblue" d="M1080.26,-112.37C1113.24,-94.87 1185.12,-56.83 1188,-56 1289.73,-26.73 1614.11,-15.2 1727.45,-12"/>
<polygon fill="midnightblue" stroke="midnightblue" points="1727.85,-15.49 1737.75,-11.72 1727.65,-8.5 1727.85,-15.49"/>
</g>
<!-- Node17&#45;&gt;Node26 -->
<g id="edge32" class="edge">
<title>Node17&#45;&gt;Node26</title>
<path fill="none" stroke="midnightblue" d="M1108.68,-118.38C1266.66,-109.1 1797.27,-77.96 1945.34,-69.27"/>
<polygon fill="midnightblue" stroke="midnightblue" points="1945.95,-72.74 1955.73,-68.66 1945.54,-65.75 1945.95,-72.74"/>
</g>
<!-- Node17&#45;&gt;Node28 -->
<g id="edge35" class="edge">
<title>Node17&#45;&gt;Node28</title>
<path fill="none" stroke="midnightblue" d="M1088.72,-112.44C1115.16,-103.29 1157.24,-88.73 1186.61,-78.56"/>
<polygon fill="midnightblue" stroke="midnightblue" points="1188.11,-81.74 1196.42,-75.16 1185.82,-75.13 1188.11,-81.74"/>
</g>
<!-- Node29 -->
<g id="node29" class="node">
<title>Node29</title>
<g id="a_node29"><a xlink:title=" ">
<polygon fill="white" stroke="#bfbfbf" points="514.5,-56.5 514.5,-75.5 569.5,-75.5 569.5,-56.5 514.5,-56.5"/>
<text text-anchor="middle" x="542" y="-63.5" font-family="Helvetica,sans-Serif" font-size="10.00">fstream</text>
</a>
</g>
</g>
<!-- Node17&#45;&gt;Node29 -->
<g id="edge43" class="edge">
<title>Node17&#45;&gt;Node29</title>
<path fill="none" stroke="midnightblue" d="M1019.25,-119.04C935.07,-114.87 747.29,-103.33 579.78,-75.88"/>
<polygon fill="midnightblue" stroke="midnightblue" points="580.23,-72.41 569.79,-74.22 579.08,-79.31 580.23,-72.41"/>
</g>
<!-- Node30 -->
<g id="node30" class="node">
<title>Node30</title>
<g id="a_node30"><a xlink:title=" ">
<polygon fill="white" stroke="#bfbfbf" points="588,-56.5 588,-75.5 656,-75.5 656,-56.5 588,-56.5"/>
<text text-anchor="middle" x="622" y="-63.5" font-family="Helvetica,sans-Serif" font-size="10.00">filesystem</text>
</a>
</g>
</g>
<!-- Node17&#45;&gt;Node30 -->
<g id="edge44" class="edge">
<title>Node17&#45;&gt;Node30</title>
<path fill="none" stroke="midnightblue" d="M1019.25,-116.94C946.02,-110.07 796.12,-95 670,-76 668.73,-75.81 667.44,-75.61 666.13,-75.4"/>
<polygon fill="midnightblue" stroke="midnightblue" points="666.48,-71.91 656.04,-73.69 665.31,-78.81 666.48,-71.91"/>
</g>
<!-- Node18&#45;&gt;Node9 -->
<g id="edge25" class="edge">
<title>Node18&#45;&gt;Node9</title>
<path fill="none" stroke="midnightblue" d="M878.16,-56.93C834.92,-48.38 764.4,-34.39 693.58,-20.11"/>
<polygon fill="midnightblue" stroke="midnightblue" points="694.08,-16.64 683.58,-18.09 692.69,-23.5 694.08,-16.64"/>
</g>
<!-- Node19 -->
<g id="node19" class="node">
<title>Node19</title>
<g id="a_node19"><a xlink:title=" ">
<polygon fill="white" stroke="#bfbfbf" points="971.5,-0.5 971.5,-19.5 1008.5,-19.5 1008.5,-0.5 971.5,-0.5"/>
<text text-anchor="middle" x="990" y="-7.5" font-family="Helvetica,sans-Serif" font-size="10.00">new</text>
</a>
</g>
</g>
<!-- Node18&#45;&gt;Node19 -->
<g id="edge21" class="edge">
<title>Node18&#45;&gt;Node19</title>
<path fill="none" stroke="midnightblue" d="M930.41,-56.32C941.11,-48.18 957.34,-35.84 970.16,-26.09"/>
<polygon fill="midnightblue" stroke="midnightblue" points="972.54,-28.67 978.39,-19.83 968.31,-23.1 972.54,-28.67"/>
</g>
<!-- Node20 -->
<g id="node20" class="node">
<title>Node20</title>
<g id="a_node20"><a xlink:title=" ">
<polygon fill="white" stroke="#bfbfbf" points="849.5,-0.5 849.5,-19.5 890.5,-19.5 890.5,-0.5 849.5,-0.5"/>
<text text-anchor="middle" x="870" y="-7.5" font-family="Helvetica,sans-Serif" font-size="10.00">tuple</text>
</a>
</g>
</g>
<!-- Node18&#45;&gt;Node20 -->
<g id="edge22" class="edge">
<title>Node18&#45;&gt;Node20</title>
<path fill="none" stroke="midnightblue" d="M910.91,-56.08C903.84,-48.3 893.41,-36.8 884.85,-27.37"/>
<polygon fill="midnightblue" stroke="midnightblue" points="887.25,-24.8 877.94,-19.75 882.07,-29.51 887.25,-24.8"/>
</g>
<!-- Node21 -->
<g id="node21" class="node">
<title>Node21</title>
<g id="a_node21"><a xlink:title=" ">
<polygon fill="white" stroke="#bfbfbf" points="1026.5,-0.5 1026.5,-19.5 1079.5,-19.5 1079.5,-0.5 1026.5,-0.5"/>
<text text-anchor="middle" x="1053" y="-7.5" font-family="Helvetica,sans-Serif" font-size="10.00">cstddef</text>
</a>
</g>
</g>
<!-- Node18&#45;&gt;Node21 -->
<g id="edge23" class="edge">
<title>Node18&#45;&gt;Node21</title>
<path fill="none" stroke="midnightblue" d="M940.23,-56.44C962.38,-47.52 997.32,-33.44 1022.44,-23.32"/>
<polygon fill="midnightblue" stroke="midnightblue" points="1023.9,-26.5 1031.87,-19.52 1021.28,-20.01 1023.9,-26.5"/>
</g>
<!-- Node22 -->
<g id="node22" class="node">
<title>Node22</title>
<g id="a_node22"><a xlink:title=" ">
<polygon fill="white" stroke="#bfbfbf" points="908.5,-0.5 908.5,-19.5 953.5,-19.5 953.5,-0.5 908.5,-0.5"/>
<text text-anchor="middle" x="931" y="-7.5" font-family="Helvetica,sans-Serif" font-size="10.00">utility</text>
</a>
</g>
</g>
<!-- Node18&#45;&gt;Node22 -->
<g id="edge24" class="edge">
<title>Node18&#45;&gt;Node22</title>
<path fill="none" stroke="midnightblue" d="M920.98,-56.08C922.57,-48.93 924.86,-38.64 926.85,-29.69"/>
<polygon fill="midnightblue" stroke="midnightblue" points="930.3,-30.27 929.06,-19.75 923.47,-28.75 930.3,-30.27"/>
</g>
<!-- Node23&#45;&gt;Node8 -->
<g id="edge27" class="edge">
<title>Node23&#45;&gt;Node8</title>
<path fill="none" stroke="midnightblue" d="M1092.37,-61.62C1044.69,-54.68 933.61,-37.98 841,-20 840.9,-19.98 840.8,-19.96 840.7,-19.94"/>
<polygon fill="midnightblue" stroke="midnightblue" points="841.6,-16.55 831.1,-17.97 840.19,-23.41 841.6,-16.55"/>
</g>
<!-- Node23&#45;&gt;Node12 -->
<g id="edge28" class="edge">
<title>Node23&#45;&gt;Node12</title>
<path fill="none" stroke="midnightblue" d="M1116.66,-56.08C1117.18,-49.01 1117.94,-38.86 1118.59,-29.99"/>
<polygon fill="midnightblue" stroke="midnightblue" points="1122.1,-29.98 1119.35,-19.75 1115.12,-29.47 1122.1,-29.98"/>
</g>
<!-- Node23&#45;&gt;Node16 -->
<g id="edge30" class="edge">
<title>Node23&#45;&gt;Node16</title>
<path fill="none" stroke="midnightblue" d="M1092.22,-63.01C1036.45,-58.14 892.77,-44.3 762.67,-19.89"/>
<polygon fill="midnightblue" stroke="midnightblue" points="763.01,-16.39 752.53,-17.96 761.7,-23.27 763.01,-16.39"/>
</g>
<!-- Node24 -->
<g id="node24" class="node">
<title>Node24</title>
<g id="a_node24"><a xlink:title=" ">
<polygon fill="white" stroke="#bfbfbf" points="1399.5,-0.5 1399.5,-19.5 1446.5,-19.5 1446.5,-0.5 1399.5,-0.5"/>
<text text-anchor="middle" x="1423" y="-7.5" font-family="Helvetica,sans-Serif" font-size="10.00">vector</text>
</a>
</g>
</g>
<!-- Node23&#45;&gt;Node24 -->
<g id="edge29" class="edge">
<title>Node23&#45;&gt;Node24</title>
<path fill="none" stroke="midnightblue" d="M1139.66,-59.14C1144.4,-58.04 1149.35,-56.94 1154,-56 1238.06,-39.03 1337.83,-23.55 1388.99,-15.94"/>
<polygon fill="midnightblue" stroke="midnightblue" points="1389.77,-19.37 1399.15,-14.44 1388.75,-12.44 1389.77,-19.37"/>
</g>
<!-- Node23&#45;&gt;Node25 -->
<g id="edge31" class="edge">
<title>Node23&#45;&gt;Node25</title>
<path fill="none" stroke="midnightblue" d="M1139.6,-58.8C1144.34,-57.72 1149.31,-56.72 1154,-56 1368.96,-22.87 1630.21,-13.97 1727.78,-11.72"/>
<polygon fill="midnightblue" stroke="midnightblue" points="1727.86,-15.22 1737.78,-11.5 1727.7,-8.22 1727.86,-15.22"/>
</g>
<!-- Node26&#45;&gt;Node11 -->
<g id="edge33" class="edge">
<title>Node26&#45;&gt;Node11</title>
<path fill="none" stroke="midnightblue" d="M2004.12,-56.44C2025.02,-47.56 2057.93,-33.56 2081.72,-23.45"/>
<polygon fill="midnightblue" stroke="midnightblue" points="2083.14,-26.65 2090.97,-19.52 2080.4,-20.21 2083.14,-26.65"/>
</g>
<!-- Node27 -->
<g id="node27" class="node">
<title>Node27</title>
<g id="a_node27"><a xlink:title=" ">
<polygon fill="white" stroke="#bfbfbf" points="1951.5,-0.5 1951.5,-19.5 2016.5,-19.5 2016.5,-0.5 1951.5,-0.5"/>
<text text-anchor="middle" x="1984" y="-7.5" font-family="Helvetica,sans-Serif" font-size="10.00">stdexcept</text>
</a>
</g>
</g>
<!-- Node26&#45;&gt;Node27 -->
<g id="edge34" class="edge">
<title>Node26&#45;&gt;Node27</title>
<path fill="none" stroke="midnightblue" d="M1984,-56.08C1984,-49.01 1984,-38.86 1984,-29.99"/>
<polygon fill="midnightblue" stroke="midnightblue" points="1987.5,-29.75 1984,-19.75 1980.5,-29.75 1987.5,-29.75"/>
</g>
<!-- Node28&#45;&gt;Node10 -->
<g id="edge36" class="edge">
<title>Node28&#45;&gt;Node10</title>
<path fill="none" stroke="midnightblue" d="M1220,-56.08C1220,-49.01 1220,-38.86 1220,-29.99"/>
<polygon fill="midnightblue" stroke="midnightblue" points="1223.5,-29.75 1220,-19.75 1216.5,-29.75 1223.5,-29.75"/>
</g>
<!-- Node31&#45;&gt;Node3 -->
<g id="edge48" class="edge">
<title>Node31&#45;&gt;Node3</title>
<path fill="none" stroke="midnightblue" d="M1795.91,-117.59C1721.41,-110.67 1547.98,-94.16 1391.13,-76.1"/>
<polygon fill="midnightblue" stroke="midnightblue" points="1391.16,-72.58 1380.83,-74.91 1390.36,-79.54 1391.16,-72.58"/>
</g>
<!-- Node31&#45;&gt;Node9 -->
<g id="edge54" class="edge">
<title>Node31&#45;&gt;Node9</title>
<path fill="none" stroke="midnightblue" d="M1795.89,-119.61C1606.24,-112.51 753.77,-80.35 741,-76 732.92,-73.25 693.08,-44.03 668.55,-25.71"/>
<polygon fill="midnightblue" stroke="midnightblue" points="670.4,-22.72 660.3,-19.53 666.2,-28.33 670.4,-22.72"/>
</g>
<!-- Node31&#45;&gt;Node11 -->
<g id="edge52" class="edge">
<title>Node31&#45;&gt;Node11</title>
<path fill="none" stroke="midnightblue" d="M1870.12,-121.35C1944.22,-121.16 2106.36,-116.06 2141,-76 2153.37,-61.7 2140.44,-41.44 2127.91,-27.35"/>
<polygon fill="midnightblue" stroke="midnightblue" points="2130.21,-24.69 2120.78,-19.86 2125.14,-29.52 2130.21,-24.69"/>
</g>
<!-- Node31&#45;&gt;Node12 -->
<g id="edge53" class="edge">
<title>Node31&#45;&gt;Node12</title>
<path fill="none" stroke="midnightblue" d="M1835.46,-112.38C1838.86,-98.37 1843.04,-70.73 1828,-56 1777.04,-6.08 1258.01,-26.75 1187,-20 1175.67,-18.92 1163.3,-17.37 1152.32,-15.86"/>
<polygon fill="midnightblue" stroke="midnightblue" points="1152.68,-12.37 1142.28,-14.43 1151.69,-19.3 1152.68,-12.37"/>
</g>
<!-- Node31&#45;&gt;Node13 -->
<g id="edge58" class="edge">
<title>Node31&#45;&gt;Node13</title>
<path fill="none" stroke="midnightblue" d="M1817.9,-112.32C1803.1,-103.82 1780.31,-90.73 1763.02,-80.8"/>
<polygon fill="midnightblue" stroke="midnightblue" points="1764.48,-77.6 1754.07,-75.65 1760.99,-83.67 1764.48,-77.6"/>
</g>
<!-- Node31&#45;&gt;Node14 -->
<g id="edge57" class="edge">
<title>Node31&#45;&gt;Node14</title>
<path fill="none" stroke="midnightblue" d="M1795.9,-116.02C1721.21,-105.98 1553.11,-83.4 1473.87,-72.76"/>
<polygon fill="midnightblue" stroke="midnightblue" points="1474.13,-69.26 1463.75,-71.4 1473.19,-76.2 1474.13,-69.26"/>
</g>
<!-- Node31&#45;&gt;Node21 -->
<g id="edge50" class="edge">
<title>Node31&#45;&gt;Node21</title>
<path fill="none" stroke="midnightblue" d="M1830.83,-112.38C1826.65,-97.84 1816,-68.77 1795,-56 1730.12,-16.54 1203.41,-30.55 1089.83,-19.5"/>
<polygon fill="midnightblue" stroke="midnightblue" points="1089.97,-15.99 1079.62,-18.27 1089.13,-22.94 1089.97,-15.99"/>
</g>
<!-- Node31&#45;&gt;Node24 -->
<g id="edge56" class="edge">
<title>Node31&#45;&gt;Node24</title>
<path fill="none" stroke="midnightblue" d="M1843.55,-112.13C1858.25,-98.73 1881.44,-73.09 1866,-56 1838.65,-25.73 1555.28,-14.79 1456.63,-11.88"/>
<polygon fill="midnightblue" stroke="midnightblue" points="1456.7,-8.38 1446.61,-11.59 1456.5,-15.37 1456.7,-8.38"/>
</g>
<!-- Node31&#45;&gt;Node25 -->
<g id="edge51" class="edge">
<title>Node31&#45;&gt;Node25</title>
<path fill="none" stroke="midnightblue" d="M1855.9,-112.32C1882.57,-100.87 1920.96,-79.42 1904,-56 1881.87,-25.44 1838.33,-15.27 1806.24,-12.07"/>
<polygon fill="midnightblue" stroke="midnightblue" points="1806.52,-8.58 1796.27,-11.26 1805.95,-15.56 1806.52,-8.58"/>
</g>
<!-- Node32 -->
<g id="node32" class="node">
<title>Node32</title>
<g id="a_node32"><a xlink:title=" ">
<polygon fill="white" stroke="#bfbfbf" points="2068,-56.5 2068,-75.5 2132,-75.5 2132,-56.5 2068,-56.5"/>
<text text-anchor="middle" x="2100" y="-63.5" font-family="Helvetica,sans-Serif" font-size="10.00">algorithm</text>
</a>
</g>
</g>
<!-- Node31&#45;&gt;Node32 -->
<g id="edge49" class="edge">
<title>Node31&#45;&gt;Node32</title>
<path fill="none" stroke="midnightblue" d="M1870.13,-113.49C1919.43,-103.52 2006.27,-85.96 2057.94,-75.51"/>
<polygon fill="midnightblue" stroke="midnightblue" points="2058.68,-78.93 2067.79,-73.52 2057.29,-72.07 2058.68,-78.93"/>
</g>
<!-- Node31&#45;&gt;Node33 -->
<g id="edge55" class="edge">
<title>Node31&#45;&gt;Node33</title>
<path fill="none" stroke="midnightblue" d="M1870.22,-117.01C1933.06,-110.08 2064.07,-94.73 2174,-76 2175.46,-75.75 2176.94,-75.49 2178.44,-75.22"/>
<polygon fill="midnightblue" stroke="midnightblue" points="2179.22,-78.63 2188.38,-73.3 2177.89,-71.76 2179.22,-78.63"/>
</g>
</g>
</svg>
