<?xml version="1.0" encoding="UTF-8" standalone="no"?>
<!DOCTYPE svg PUBLIC "-//W3C//DTD SVG 1.1//EN"
 "http://www.w3.org/Graphics/SVG/1.1/DTD/svg11.dtd">
<!-- Generated by graphviz version 2.43.0 (0)
 -->
<!-- Title: /home/runner/work/Catena/Catena/sdks/cpp/common/include/ParamVisitor.h Pages: 1 -->
<!--zoomable 500 -->

<svg id="main" version="1.1" xmlns="http://www.w3.org/2000/svg" xmlns:xlink="http://www.w3.org/1999/xlink" xml:space="preserve" onload="init(evt)">
<style type="text/css"><![CDATA[
.node, .edge {opacity: 0.7;}
.node.selected, .edge.selected {opacity: 1;}
.edge:hover path { stroke: red; }
.edge:hover polygon { stroke: red; fill: red; }
]]></style>

<defs>
  <circle id="rim" cx="0" cy="0" r="7"/>
  <circle id="rim2" cx="0" cy="0" r="3.5"/>
  <g id="zoomPlus">
    <use xlink:href="#rim" fill="#404040"><set attributeName="fill" to="#808080" begin="zoomplus.mouseover" end="zoomplus.mouseout"/></use>
    <path d="M-4,0h8M0,-4v8" fill="none" stroke="white" stroke-width="1.5" pointer-events="none"/>
  </g>
  <g id="zoomMin">
    <use xlink:href="#rim" fill="#404040"><set attributeName="fill" to="#808080" begin="zoomminus.mouseover" end="zoomminus.mouseout"/></use>
    <path d="M-4,0h8" fill="none" stroke="white" stroke-width="1.5" pointer-events="none"/>
  </g>
  <g id="arrowUp" transform="translate(30 24)">
    <use xlink:href="#rim"/>
    <path pointer-events="none" fill="none" stroke="white" stroke-width="1.5" d="M0,-3.0v7 M-2.5,-0.5L0,-3.0L2.5,-0.5"/>
  </g>
  <g id="arrowRight" transform="rotate(90) translate(36 -43)">
    <use xlink:href="#rim"/>
    <path pointer-events="none" fill="none" stroke="white" stroke-width="1.5" d="M0,-3.0v7 M-2.5,-0.5L0,-3.0L2.5,-0.5"/>
  </g>
  <g id="arrowDown" transform="rotate(180) translate(-30 -48)">
    <use xlink:href="#rim"/>
    <path pointer-events="none" fill="none" stroke="white" stroke-width="1.5" d="M0,-3.0v7 M-2.5,-0.5L0,-3.0L2.5,-0.5"/>
  </g>
  <g id="arrowLeft" transform="rotate(270) translate(-36 17)">
    <use xlink:href="#rim"/>
    <path pointer-events="none" fill="none" stroke="white" stroke-width="1.5" d="M0,-3.0v7 M-2.5,-0.5L0,-3.0L2.5,-0.5"/>
  </g>
  <g id="resetDef">
    <use xlink:href="#rim2" fill="#404040"><set attributeName="fill" to="#808080" begin="reset.mouseover" end="reset.mouseout"/></use>
  </g>
</defs>
<script type="application/ecmascript">
var viewWidth = 1644;
var viewHeight = 500;
var sectionId = 'dynsection-0';
</script>
<script type="application/ecmascript" xlink:href="svg.min.js"/>
<svg id="graph" class="graph">
<g id="viewport">
<title>/home/runner/work/Catena/Catena/sdks/cpp/common/include/ParamVisitor.h</title>
<!-- Node1 -->
<g id="Node000001" class="node">
<title>Node1</title>
<g id="a_Node000001"><a xlink:title="Implements Catena ParamVisitor.">
<polygon fill="#999999" stroke="#666666" points="364,-492 218,-492 218,-451 364,-451 364,-492"/>
<text text-anchor="start" x="226" y="-480" font-family="Helvetica,sans-Serif" font-size="10.00">/home/runner/work/Catena</text>
<text text-anchor="start" x="226" y="-469" font-family="Helvetica,sans-Serif" font-size="10.00">/Catena/sdks/cpp/common</text>
<text text-anchor="middle" x="291" y="-458" font-family="Helvetica,sans-Serif" font-size="10.00">/include/ParamVisitor.h</text>
</a>
</g>
</g>
<!-- Node2 -->
<g id="Node000002" class="node">
<title>Node2</title>
<g id="a_Node000002"><a xlink:href="IParamVisitor_8h.html" target="_top" xlink:title="Implements Catena IParamVisitor.">
<polygon fill="white" stroke="#666666" points="336,-415 246,-415 246,-396 336,-396 336,-415"/>
<text text-anchor="middle" x="291" y="-403" font-family="Helvetica,sans-Serif" font-size="10.00">IParamVisitor.h</text>
</a>
</g>
</g>
<!-- Node1&#45;&gt;Node2 -->
<g id="edge1_Node000001_Node000002" class="edge">
<title>Node1&#45;&gt;Node2</title>
<g id="a_edge1_Node000001_Node000002"><a xlink:title=" ">
<path fill="none" stroke="#63b8ff" d="M291,-450.95C291,-442.85 291,-433.5 291,-425.47"/>
<polygon fill="#63b8ff" stroke="#63b8ff" points="294.5,-425.26 291,-415.26 287.5,-425.26 294.5,-425.26"/>
</a>
</g>
</g>
<!-- Node15 -->
<g id="Node000015" class="node">
<title>Node15</title>
<g id="a_Node000015"><a xlink:href="Path_8h.html" target="_top" xlink:title="Handles Path objects used to uniquely identify and access OIDs.">
<polygon fill="white" stroke="#666666" points="240.5,-140 193.5,-140 193.5,-121 240.5,-121 240.5,-140"/>
<text text-anchor="middle" x="217" y="-128" font-family="Helvetica,sans-Serif" font-size="10.00">Path.h</text>
</a>
</g>
</g>
<!-- Node1&#45;&gt;Node15 -->
<g id="edge60_Node000001_Node000015" class="edge">
<title>Node1&#45;&gt;Node15</title>
<g id="a_edge60_Node000001_Node000015"><a xlink:title=" ">
<path fill="none" stroke="#63b8ff" d="M252.72,-450.84C219.6,-430.78 177,-396.27 177,-351.5 177,-351.5 177,-351.5 177,-239.5 177,-205.67 194.47,-169.38 206.32,-148.66"/>
<polygon fill="#63b8ff" stroke="#63b8ff" points="209.34,-150.44 211.44,-140.06 203.32,-146.86 209.34,-150.44"/>
</a>
</g>
</g>
<!-- Node23 -->
<g id="Node000023" class="node">
<title>Node23</title>
<g id="a_Node000023"><a xlink:href="IDevice_8h.html" target="_top" xlink:title="Interface for device.">
<polygon fill="white" stroke="#666666" points="512,-360 450,-360 450,-341 512,-341 512,-360"/>
<text text-anchor="middle" x="481" y="-348" font-family="Helvetica,sans-Serif" font-size="10.00">IDevice.h</text>
</a>
</g>
</g>
<!-- Node1&#45;&gt;Node23 -->
<g id="edge61_Node000001_Node000023" class="edge">
<title>Node1&#45;&gt;Node23</title>
<g id="a_edge61_Node000001_Node000023"><a xlink:title=" ">
<path fill="none" stroke="#63b8ff" d="M322.37,-450.85C360.72,-426.83 424.66,-386.79 458.46,-365.62"/>
<polygon fill="#63b8ff" stroke="#63b8ff" points="460.53,-368.45 467.15,-360.18 456.82,-362.52 460.53,-368.45"/>
</a>
</g>
</g>
<!-- Node3 -->
<g id="Node000003" class="node">
<title>Node3</title>
<g id="a_Node000003"><a xlink:href="IParam_8h.html" target="_top" xlink:title="Interface for parameters.">
<polygon fill="white" stroke="#666666" points="562.5,-195 503.5,-195 503.5,-176 562.5,-176 562.5,-195"/>
<text text-anchor="middle" x="533" y="-183" font-family="Helvetica,sans-Serif" font-size="10.00">IParam.h</text>
</a>
</g>
</g>
<!-- Node2&#45;&gt;Node3 -->
<g id="edge2_Node000002_Node000003" class="edge">
<title>Node2&#45;&gt;Node3</title>
<g id="a_edge2_Node000002_Node000003"><a xlink:title=" ">
<path fill="none" stroke="#63b8ff" d="M300.49,-395.95C336.92,-363.13 468.22,-244.85 515.71,-202.08"/>
<polygon fill="#63b8ff" stroke="#63b8ff" points="518.23,-204.52 523.32,-195.22 513.54,-199.32 518.23,-204.52"/>
</a>
</g>
</g>
<!-- Node2&#45;&gt;Node15 -->
<g id="edge25_Node000002_Node000015" class="edge">
<title>Node2&#45;&gt;Node15</title>
<g id="a_edge25_Node000002_Node000015"><a xlink:title=" ">
<path fill="none" stroke="#63b8ff" d="M279.12,-395.88C257.75,-379.26 215,-340.52 215,-296.5 215,-296.5 215,-296.5 215,-239.5 215,-208.18 215.85,-171.77 216.44,-150.23"/>
<polygon fill="#63b8ff" stroke="#63b8ff" points="219.94,-150.27 216.73,-140.18 212.95,-150.07 219.94,-150.27"/>
</a>
</g>
</g>
<!-- Node2&#45;&gt;Node23 -->
<g id="edge26_Node000002_Node000023" class="edge">
<title>Node2&#45;&gt;Node23</title>
<g id="a_edge26_Node000002_Node000023"><a xlink:title=" ">
<path fill="none" stroke="#63b8ff" d="M321.53,-395.98C353.7,-387.01 404.56,-372.82 440.17,-362.89"/>
<polygon fill="#63b8ff" stroke="#63b8ff" points="441.54,-366.14 450.23,-360.08 439.66,-359.4 441.54,-366.14"/>
</a>
</g>
</g>
<!-- Node4 -->
<g id="Node000004" class="node">
<title>Node4</title>
<g id="a_Node000004"><a xlink:href="Enums_8h.html" target="_top" xlink:title="tools for using EnumDecorators.">
<polygon fill="white" stroke="#666666" points="968.5,-140 909.5,-140 909.5,-121 968.5,-121 968.5,-140"/>
<text text-anchor="middle" x="939" y="-128" font-family="Helvetica,sans-Serif" font-size="10.00">Enums.h</text>
</a>
</g>
</g>
<!-- Node3&#45;&gt;Node4 -->
<g id="edge3_Node000003_Node000004" class="edge">
<title>Node3&#45;&gt;Node4</title>
<g id="a_edge3_Node000003_Node000004"><a xlink:title=" ">
<path fill="none" stroke="#63b8ff" d="M562.53,-180.65C634.21,-171.29 817.54,-147.36 898.98,-136.72"/>
<polygon fill="#63b8ff" stroke="#63b8ff" points="899.85,-140.14 909.31,-135.38 898.94,-133.2 899.85,-140.14"/>
</a>
</g>
</g>
<!-- Node12 -->
<g id="Node000012" class="node">
<title>Node12</title>
<g id="a_Node000012"><a xlink:href="IConstraint_8h.html" target="_top" xlink:title="Interface for constraints.">
<polygon fill="white" stroke="#666666" points="640.5,-140 561.5,-140 561.5,-121 640.5,-121 640.5,-140"/>
<text text-anchor="middle" x="601" y="-128" font-family="Helvetica,sans-Serif" font-size="10.00">IConstraint.h</text>
</a>
</g>
</g>
<!-- Node3&#45;&gt;Node12 -->
<g id="edge12_Node000003_Node000012" class="edge">
<title>Node3&#45;&gt;Node12</title>
<g id="a_edge12_Node000003_Node000012"><a xlink:title=" ">
<path fill="none" stroke="#63b8ff" d="M543.93,-175.98C554.08,-168.07 569.42,-156.11 581.65,-146.58"/>
<polygon fill="#63b8ff" stroke="#63b8ff" points="584.14,-149.08 589.88,-140.17 579.84,-143.56 584.14,-149.08"/>
</a>
</g>
</g>
<!-- Node13 -->
<g id="Node000013" class="node">
<title>Node13</title>
<g id="a_Node000013"><a xlink:title=" ">
<polygon fill="#e0e0e0" stroke="#999999" points="642.5,-85 523.5,-85 523.5,-66 642.5,-66 642.5,-85"/>
<text text-anchor="middle" x="583" y="-73" font-family="Helvetica,sans-Serif" font-size="10.00">interface/param.pb.h</text>
</a>
</g>
</g>
<!-- Node3&#45;&gt;Node13 -->
<g id="edge24_Node000003_Node000013" class="edge">
<title>Node3&#45;&gt;Node13</title>
<g id="a_edge24_Node000003_Node000013"><a xlink:title=" ">
<path fill="none" stroke="#63b8ff" d="M534.85,-175.99C537.75,-163.52 543.97,-139.74 553,-121 557.64,-111.36 564.16,-101.42 569.93,-93.39"/>
<polygon fill="#63b8ff" stroke="#63b8ff" points="572.83,-95.35 575.99,-85.24 567.21,-91.17 572.83,-95.35"/>
</a>
</g>
</g>
<!-- Node3&#45;&gt;Node15 -->
<g id="edge15_Node000003_Node000015" class="edge">
<title>Node3&#45;&gt;Node15</title>
<g id="a_edge15_Node000003_Node000015"><a xlink:title=" ">
<path fill="none" stroke="#63b8ff" d="M503.27,-179.51C444.3,-169.62 312.88,-147.58 250.77,-137.16"/>
<polygon fill="#63b8ff" stroke="#63b8ff" points="251.15,-133.68 240.71,-135.48 249.99,-140.58 251.15,-133.68"/>
</a>
</g>
</g>
<!-- Node20 -->
<g id="Node000020" class="node">
<title>Node20</title>
<g id="a_Node000020"><a xlink:href="Status_8h.html" target="_top" xlink:title="Communicates failure status using gRPC&#39;s codes.">
<polygon fill="white" stroke="#666666" points="486,-140 430,-140 430,-121 486,-121 486,-140"/>
<text text-anchor="middle" x="458" y="-128" font-family="Helvetica,sans-Serif" font-size="10.00">Status.h</text>
</a>
</g>
</g>
<!-- Node3&#45;&gt;Node20 -->
<g id="edge21_Node000003_Node000020" class="edge">
<title>Node3&#45;&gt;Node20</title>
<g id="a_edge21_Node000003_Node000020"><a xlink:title=" ">
<path fill="none" stroke="#63b8ff" d="M520.95,-175.98C509.54,-167.92 492.17,-155.65 478.57,-146.03"/>
<polygon fill="#63b8ff" stroke="#63b8ff" points="480.46,-143.08 470.27,-140.17 476.42,-148.8 480.46,-143.08"/>
</a>
</g>
</g>
<!-- Node5 -->
<g id="Node000005" class="node">
<title>Node5</title>
<g id="a_Node000005"><a xlink:href="EnumDecorator_8h.html" target="_top" xlink:title="Provides an enum with useful extra functionality.">
<polygon fill="white" stroke="#666666" points="1135,-85 991,-85 991,-66 1135,-66 1135,-85"/>
<text text-anchor="middle" x="1063" y="-73" font-family="Helvetica,sans-Serif" font-size="10.00">patterns/EnumDecorator.h</text>
</a>
</g>
</g>
<!-- Node4&#45;&gt;Node5 -->
<g id="edge4_Node000004_Node000005" class="edge">
<title>Node4&#45;&gt;Node5</title>
<g id="a_edge4_Node000004_Node000005"><a xlink:title=" ">
<path fill="none" stroke="#63b8ff" d="M958.92,-120.98C979.05,-112.38 1010.38,-98.99 1033.41,-89.15"/>
<polygon fill="#63b8ff" stroke="#63b8ff" points="1034.9,-92.32 1042.71,-85.17 1032.14,-85.88 1034.9,-92.32"/>
</a>
</g>
</g>
<!-- Node7 -->
<g id="Node000007" class="node">
<title>Node7</title>
<g id="a_Node000007"><a xlink:title=" ">
<polygon fill="#e0e0e0" stroke="#999999" points="945,-24.5 895,-24.5 895,-5.5 945,-5.5 945,-24.5"/>
<text text-anchor="middle" x="920" y="-12.5" font-family="Helvetica,sans-Serif" font-size="10.00">cstdint</text>
</a>
</g>
</g>
<!-- Node4&#45;&gt;Node7 -->
<g id="edge11_Node000004_Node000007" class="edge">
<title>Node4&#45;&gt;Node7</title>
<g id="a_edge11_Node000004_Node000007"><a xlink:title=" ">
<path fill="none" stroke="#63b8ff" d="M941.33,-120.75C944.24,-108.4 948.37,-85.19 944,-66 941.43,-54.69 935.96,-42.96 930.9,-33.7"/>
<polygon fill="#63b8ff" stroke="#63b8ff" points="933.76,-31.66 925.71,-24.77 927.7,-35.17 933.76,-31.66"/>
</a>
</g>
</g>
<!-- Node11 -->
<g id="Node000011" class="node">
<title>Node11</title>
<g id="a_Node000011"><a xlink:title=" ">
<polygon fill="#e0e0e0" stroke="#999999" points="934.5,-85 815.5,-85 815.5,-66 934.5,-66 934.5,-85"/>
<text text-anchor="middle" x="875" y="-73" font-family="Helvetica,sans-Serif" font-size="10.00">interface/device.pb.h</text>
</a>
</g>
</g>
<!-- Node4&#45;&gt;Node11 -->
<g id="edge10_Node000004_Node000011" class="edge">
<title>Node4&#45;&gt;Node11</title>
<g id="a_edge10_Node000004_Node000011"><a xlink:title=" ">
<path fill="none" stroke="#63b8ff" d="M928.72,-120.98C919.16,-113.07 904.72,-101.11 893.22,-91.58"/>
<polygon fill="#63b8ff" stroke="#63b8ff" points="895.4,-88.85 885.47,-85.17 890.94,-94.24 895.4,-88.85"/>
</a>
</g>
</g>
<!-- Node6 -->
<g id="Node000006" class="node">
<title>Node6</title>
<g id="a_Node000006"><a xlink:href="ReflectionMacros_8h.html" target="_top" xlink:title="adapted from https://github.com/tapika/TestCppReflect">
<polygon fill="white" stroke="#666666" points="1161,-24.5 1051,-24.5 1051,-5.5 1161,-5.5 1161,-24.5"/>
<text text-anchor="middle" x="1106" y="-12.5" font-family="Helvetica,sans-Serif" font-size="10.00">ReflectionMacros.h</text>
</a>
</g>
</g>
<!-- Node5&#45;&gt;Node6 -->
<g id="edge5_Node000005_Node000006" class="edge">
<title>Node5&#45;&gt;Node6</title>
<g id="a_edge5_Node000005_Node000006"><a xlink:title=" ">
<path fill="none" stroke="#63b8ff" d="M1069.34,-65.87C1075.7,-57.23 1085.64,-43.7 1093.57,-32.92"/>
<polygon fill="#63b8ff" stroke="#63b8ff" points="1096.53,-34.8 1099.63,-24.67 1090.89,-30.65 1096.53,-34.8"/>
</a>
</g>
</g>
<!-- Node5&#45;&gt;Node7 -->
<g id="edge6_Node000005_Node000007" class="edge">
<title>Node5&#45;&gt;Node7</title>
<g id="a_edge6_Node000005_Node000007"><a xlink:title=" ">
<path fill="none" stroke="#63b8ff" d="M1042.21,-65.99C1018.06,-56.12 978.02,-39.73 950.38,-28.43"/>
<polygon fill="#63b8ff" stroke="#63b8ff" points="951.4,-25.06 940.82,-24.52 948.75,-31.54 951.4,-25.06"/>
</a>
</g>
</g>
<!-- Node8 -->
<g id="Node000008" class="node">
<title>Node8</title>
<g id="a_Node000008"><a xlink:title=" ">
<polygon fill="#e0e0e0" stroke="#999999" points="1619.5,-24.5 1526.5,-24.5 1526.5,-5.5 1619.5,-5.5 1619.5,-24.5"/>
<text text-anchor="middle" x="1573" y="-12.5" font-family="Helvetica,sans-Serif" font-size="10.00">unordered_map</text>
</a>
</g>
</g>
<!-- Node5&#45;&gt;Node8 -->
<g id="edge7_Node000005_Node000008" class="edge">
<title>Node5&#45;&gt;Node8</title>
<g id="a_edge7_Node000005_Node000008"><a xlink:title=" ">
<path fill="none" stroke="#63b8ff" d="M1135.17,-70.83C1225.29,-65.47 1383.92,-53.48 1518,-30 1522.84,-29.15 1527.88,-28.1 1532.86,-26.96"/>
<polygon fill="#63b8ff" stroke="#63b8ff" points="1534.02,-30.29 1542.92,-24.53 1532.38,-23.48 1534.02,-30.29"/>
</a>
</g>
</g>
<!-- Node9 -->
<g id="Node000009" class="node">
<title>Node9</title>
<g id="a_Node000009"><a xlink:title=" ">
<polygon fill="#e0e0e0" stroke="#999999" points="1223,-24.5 1179,-24.5 1179,-5.5 1223,-5.5 1223,-24.5"/>
<text text-anchor="middle" x="1201" y="-12.5" font-family="Helvetica,sans-Serif" font-size="10.00">string</text>
</a>
</g>
</g>
<!-- Node5&#45;&gt;Node9 -->
<g id="edge8_Node000005_Node000009" class="edge">
<title>Node5&#45;&gt;Node9</title>
<g id="a_edge8_Node000005_Node000009"><a xlink:title=" ">
<path fill="none" stroke="#63b8ff" d="M1083.99,-65.99C1105.62,-57.17 1140.28,-42.89 1170,-30 1171,-29.57 1172.02,-29.12 1173.05,-28.67"/>
<polygon fill="#63b8ff" stroke="#63b8ff" points="1174.64,-31.79 1182.35,-24.53 1171.79,-25.4 1174.64,-31.79"/>
</a>
</g>
</g>
<!-- Node10 -->
<g id="Node000010" class="node">
<title>Node10</title>
<g id="a_Node000010"><a xlink:title=" ">
<polygon fill="#e0e0e0" stroke="#999999" points="1032.5,-24.5 963.5,-24.5 963.5,-5.5 1032.5,-5.5 1032.5,-24.5"/>
<text text-anchor="middle" x="998" y="-12.5" font-family="Helvetica,sans-Serif" font-size="10.00">type_traits</text>
</a>
</g>
</g>
<!-- Node5&#45;&gt;Node10 -->
<g id="edge9_Node000005_Node000010" class="edge">
<title>Node5&#45;&gt;Node10</title>
<g id="a_edge9_Node000005_Node000010"><a xlink:title=" ">
<path fill="none" stroke="#63b8ff" d="M1053.41,-65.87C1043.42,-56.88 1027.57,-42.61 1015.37,-31.64"/>
<polygon fill="#63b8ff" stroke="#63b8ff" points="1017.4,-28.76 1007.63,-24.67 1012.72,-33.96 1017.4,-28.76"/>
</a>
</g>
</g>
<!-- Node12&#45;&gt;Node13 -->
<g id="edge13_Node000012_Node000013" class="edge">
<title>Node12&#45;&gt;Node13</title>
<g id="a_edge13_Node000012_Node000013"><a xlink:title=" ">
<path fill="none" stroke="#63b8ff" d="M598.03,-120.75C595.64,-113.72 592.21,-103.62 589.23,-94.84"/>
<polygon fill="#63b8ff" stroke="#63b8ff" points="592.45,-93.43 585.92,-85.09 585.82,-95.68 592.45,-93.43"/>
</a>
</g>
</g>
<!-- Node14 -->
<g id="Node000014" class="node">
<title>Node14</title>
<g id="a_Node000014"><a xlink:title=" ">
<polygon fill="#e0e0e0" stroke="#999999" points="797,-85 661,-85 661,-66 797,-66 797,-85"/>
<text text-anchor="middle" x="729" y="-73" font-family="Helvetica,sans-Serif" font-size="10.00">interface/constraint.pb.h</text>
</a>
</g>
</g>
<!-- Node12&#45;&gt;Node14 -->
<g id="edge14_Node000012_Node000014" class="edge">
<title>Node12&#45;&gt;Node14</title>
<g id="a_edge14_Node000012_Node000014"><a xlink:title=" ">
<path fill="none" stroke="#63b8ff" d="M621.57,-120.98C642.43,-112.34 674.97,-98.87 698.77,-89.02"/>
<polygon fill="#63b8ff" stroke="#63b8ff" points="700.16,-92.23 708.06,-85.17 697.48,-85.76 700.16,-92.23"/>
</a>
</g>
</g>
<!-- Node15&#45;&gt;Node9 -->
<g id="edge17_Node000015_Node000009" class="edge">
<title>Node15&#45;&gt;Node9</title>
<g id="a_edge17_Node000015_Node000009"><a xlink:title=" ">
<path fill="none" stroke="#63b8ff" d="M219.09,-120.6C222.99,-106.23 232.87,-78.26 253,-66 340.08,-12.95 1070.76,-53.42 1170,-30 1171.74,-29.59 1173.5,-29.08 1175.25,-28.5"/>
<polygon fill="#63b8ff" stroke="#63b8ff" points="1177,-31.57 1185.01,-24.63 1174.42,-25.07 1177,-31.57"/>
</a>
</g>
</g>
<!-- Node16 -->
<g id="Node000016" class="node">
<title>Node16</title>
<g id="a_Node000016"><a xlink:title=" ">
<polygon fill="#e0e0e0" stroke="#999999" points="60,-85 0,-85 0,-66 60,-66 60,-85"/>
<text text-anchor="middle" x="30" y="-73" font-family="Helvetica,sans-Serif" font-size="10.00">iostream</text>
</a>
</g>
</g>
<!-- Node15&#45;&gt;Node16 -->
<g id="edge16_Node000015_Node000016" class="edge">
<title>Node15&#45;&gt;Node16</title>
<g id="a_edge16_Node000015_Node000016"><a xlink:title=" ">
<path fill="none" stroke="#63b8ff" d="M193.32,-122.79C162.41,-114.03 107.87,-98.57 70.38,-87.94"/>
<polygon fill="#63b8ff" stroke="#63b8ff" points="70.87,-84.44 60.29,-85.09 68.96,-91.18 70.87,-84.44"/>
</a>
</g>
</g>
<!-- Node17 -->
<g id="Node000017" class="node">
<title>Node17</title>
<g id="a_Node000017"><a xlink:title=" ">
<polygon fill="#e0e0e0" stroke="#999999" points="309.5,-85 262.5,-85 262.5,-66 309.5,-66 309.5,-85"/>
<text text-anchor="middle" x="286" y="-73" font-family="Helvetica,sans-Serif" font-size="10.00">vector</text>
</a>
</g>
</g>
<!-- Node15&#45;&gt;Node17 -->
<g id="edge18_Node000015_Node000017" class="edge">
<title>Node15&#45;&gt;Node17</title>
<g id="a_edge18_Node000015_Node000017"><a xlink:title=" ">
<path fill="none" stroke="#63b8ff" d="M228.09,-120.98C238.49,-113 254.26,-100.88 266.72,-91.31"/>
<polygon fill="#63b8ff" stroke="#63b8ff" points="268.91,-94.04 274.71,-85.17 264.65,-88.49 268.91,-94.04"/>
</a>
</g>
</g>
<!-- Node18 -->
<g id="Node000018" class="node">
<title>Node18</title>
<g id="a_Node000018"><a xlink:title=" ">
<polygon fill="#e0e0e0" stroke="#999999" points="129.5,-85 78.5,-85 78.5,-66 129.5,-66 129.5,-85"/>
<text text-anchor="middle" x="104" y="-73" font-family="Helvetica,sans-Serif" font-size="10.00">variant</text>
</a>
</g>
</g>
<!-- Node15&#45;&gt;Node18 -->
<g id="edge19_Node000015_Node000018" class="edge">
<title>Node15&#45;&gt;Node18</title>
<g id="a_edge19_Node000015_Node000018"><a xlink:title=" ">
<path fill="none" stroke="#63b8ff" d="M198.84,-120.98C180.75,-112.5 152.72,-99.35 131.81,-89.54"/>
<polygon fill="#63b8ff" stroke="#63b8ff" points="133.03,-86.25 122.49,-85.17 130.05,-92.59 133.03,-86.25"/>
</a>
</g>
</g>
<!-- Node19 -->
<g id="Node000019" class="node">
<title>Node19</title>
<g id="a_Node000019"><a xlink:title=" ">
<polygon fill="#e0e0e0" stroke="#999999" points="206,-85 148,-85 148,-66 206,-66 206,-85"/>
<text text-anchor="middle" x="177" y="-73" font-family="Helvetica,sans-Serif" font-size="10.00">memory</text>
</a>
</g>
</g>
<!-- Node15&#45;&gt;Node19 -->
<g id="edge20_Node000015_Node000019" class="edge">
<title>Node15&#45;&gt;Node19</title>
<g id="a_edge20_Node000015_Node000019"><a xlink:title=" ">
<path fill="none" stroke="#63b8ff" d="M210.39,-120.75C204.74,-113.26 196.46,-102.28 189.55,-93.13"/>
<polygon fill="#63b8ff" stroke="#63b8ff" points="192.3,-90.96 183.48,-85.09 186.71,-95.18 192.3,-90.96"/>
</a>
</g>
</g>
<!-- Node21 -->
<g id="Node000021" class="node">
<title>Node21</title>
<g id="a_Node000021"><a xlink:title=" ">
<polygon fill="#e0e0e0" stroke="#999999" points="422,-85 366,-85 366,-66 422,-66 422,-85"/>
<text text-anchor="middle" x="394" y="-73" font-family="Helvetica,sans-Serif" font-size="10.00">sstream</text>
</a>
</g>
</g>
<!-- Node20&#45;&gt;Node21 -->
<g id="edge22_Node000020_Node000021" class="edge">
<title>Node20&#45;&gt;Node21</title>
<g id="a_edge22_Node000020_Node000021"><a xlink:title=" ">
<path fill="none" stroke="#63b8ff" d="M447.72,-120.98C438.16,-113.07 423.72,-101.11 412.22,-91.58"/>
<polygon fill="#63b8ff" stroke="#63b8ff" points="414.4,-88.85 404.47,-85.17 409.94,-94.24 414.4,-88.85"/>
</a>
</g>
</g>
<!-- Node22 -->
<g id="Node000022" class="node">
<title>Node22</title>
<g id="a_Node000022"><a xlink:title=" ">
<polygon fill="#e0e0e0" stroke="#999999" points="505.5,-85 440.5,-85 440.5,-66 505.5,-66 505.5,-85"/>
<text text-anchor="middle" x="473" y="-73" font-family="Helvetica,sans-Serif" font-size="10.00">stdexcept</text>
</a>
</g>
</g>
<!-- Node20&#45;&gt;Node22 -->
<g id="edge23_Node000020_Node000022" class="edge">
<title>Node20&#45;&gt;Node22</title>
<g id="a_edge23_Node000020_Node000022"><a xlink:title=" ">
<path fill="none" stroke="#63b8ff" d="M460.48,-120.75C462.46,-113.72 465.32,-103.62 467.81,-94.84"/>
<polygon fill="#63b8ff" stroke="#63b8ff" points="471.21,-95.66 470.57,-85.09 464.48,-93.76 471.21,-95.66"/>
</a>
</g>
</g>
<!-- Node23&#45;&gt;Node3 -->
<g id="edge49_Node000023_Node000003" class="edge">
<title>Node23&#45;&gt;Node3</title>
<g id="a_edge49_Node000023_Node000003"><a xlink:title=" ">
<path fill="none" stroke="#63b8ff" d="M483.5,-340.85C487.06,-328.6 493.84,-305.53 500,-286 508.96,-257.59 519.95,-224.83 526.72,-204.9"/>
<polygon fill="#63b8ff" stroke="#63b8ff" points="530.09,-205.85 530,-195.26 523.46,-203.6 530.09,-205.85"/>
</a>
</g>
</g>
<!-- Node23&#45;&gt;Node9 -->
<g id="edge56_Node000023_Node000009" class="edge">
<title>Node23&#45;&gt;Node9</title>
<g id="a_edge56_Node000023_Node000009"><a xlink:title=" ">
<path fill="none" stroke="#63b8ff" d="M459.82,-340.95C426.86,-326.06 367,-292.07 367,-241.5 367,-241.5 367,-241.5 367,-184.5 367,-131.65 320.46,-104.19 357,-66 419.51,-0.66 1082.05,-50.99 1170,-30 1171.74,-29.59 1173.5,-29.07 1175.25,-28.49"/>
<polygon fill="#63b8ff" stroke="#63b8ff" points="1177,-31.56 1185,-24.62 1174.42,-25.06 1177,-31.56"/>
</a>
</g>
</g>
<!-- Node23&#45;&gt;Node11 -->
<g id="edge55_Node000023_Node000011" class="edge">
<title>Node23&#45;&gt;Node11</title>
<g id="a_edge55_Node000023_Node000011"><a xlink:title=" ">
<path fill="none" stroke="#63b8ff" d="M512.2,-348.3C574.6,-345.27 711.73,-335.26 746,-305 768.08,-285.5 765,-270.96 765,-241.5 765,-241.5 765,-241.5 765,-184.5 765,-139.07 813.36,-106.4 845.95,-89.55"/>
<polygon fill="#63b8ff" stroke="#63b8ff" points="847.68,-92.6 855.08,-85.02 844.57,-86.33 847.68,-92.6"/>
</a>
</g>
</g>
<!-- Node23&#45;&gt;Node15 -->
<g id="edge48_Node000023_Node000015" class="edge">
<title>Node23&#45;&gt;Node15</title>
<g id="a_edge48_Node000023_Node000015"><a xlink:title=" ">
<path fill="none" stroke="#63b8ff" d="M449.85,-347.55C414.31,-343.96 355.85,-333.8 315,-305 259.91,-266.16 231.91,-185.94 221.67,-149.82"/>
<polygon fill="#63b8ff" stroke="#63b8ff" points="225.04,-148.87 219.06,-140.13 218.28,-150.69 225.04,-148.87"/>
</a>
</g>
</g>
<!-- Node23&#45;&gt;Node17 -->
<g id="edge57_Node000023_Node000017" class="edge">
<title>Node23&#45;&gt;Node17</title>
<g id="a_edge57_Node000023_Node000017"><a xlink:title=" ">
<path fill="none" stroke="#63b8ff" d="M449.8,-346.69C420.84,-342.43 378.47,-331.76 353,-305 295.82,-244.93 287.11,-138.69 286.02,-95.53"/>
<polygon fill="#63b8ff" stroke="#63b8ff" points="289.52,-95.28 285.88,-85.33 282.52,-95.38 289.52,-95.28"/>
</a>
</g>
</g>
<!-- Node23&#45;&gt;Node20 -->
<g id="edge53_Node000023_Node000020" class="edge">
<title>Node23&#45;&gt;Node20</title>
<g id="a_edge53_Node000023_Node000020"><a xlink:title=" ">
<path fill="none" stroke="#63b8ff" d="M480.1,-340.95C476.72,-308.95 464.77,-195.68 459.99,-150.4"/>
<polygon fill="#63b8ff" stroke="#63b8ff" points="463.45,-149.8 458.92,-140.22 456.49,-150.54 463.45,-149.8"/>
</a>
</g>
</g>
<!-- Node24 -->
<g id="Node000024" class="node">
<title>Node24</title>
<g id="a_Node000024"><a xlink:href="Authorization_8h.html" target="_top" xlink:title="Class for handling authorization information.">
<polygon fill="white" stroke="#666666" points="916.5,-305 825.5,-305 825.5,-286 916.5,-286 916.5,-305"/>
<text text-anchor="middle" x="871" y="-293" font-family="Helvetica,sans-Serif" font-size="10.00">Authorization.h</text>
</a>
</g>
</g>
<!-- Node23&#45;&gt;Node24 -->
<g id="edge27_Node000023_Node000024" class="edge">
<title>Node23&#45;&gt;Node24</title>
<g id="a_edge27_Node000023_Node000024"><a xlink:title=" ">
<path fill="none" stroke="#63b8ff" d="M512.26,-345.25C578.19,-336.29 732.28,-315.35 815.43,-304.05"/>
<polygon fill="#63b8ff" stroke="#63b8ff" points="816.02,-307.5 825.46,-302.69 815.08,-300.57 816.02,-307.5"/>
</a>
</g>
</g>
<!-- Node34 -->
<g id="Node000034" class="node">
<title>Node34</title>
<g id="a_Node000034"><a xlink:href="ILanguagePack_8h.html" target="_top" xlink:title="Interface for language packs.">
<polygon fill="white" stroke="#666666" points="1622,-85 1524,-85 1524,-66 1622,-66 1622,-85"/>
<text text-anchor="middle" x="1573" y="-73" font-family="Helvetica,sans-Serif" font-size="10.00">ILanguagePack.h</text>
</a>
</g>
</g>
<!-- Node23&#45;&gt;Node34 -->
<g id="edge50_Node000023_Node000034" class="edge">
<title>Node23&#45;&gt;Node34</title>
<g id="a_edge50_Node000023_Node000034"><a xlink:title=" ">
<path fill="none" stroke="#63b8ff" d="M512.24,-349.51C682.21,-349.15 1488,-342.16 1488,-241.5 1488,-241.5 1488,-241.5 1488,-184.5 1488,-143.73 1525.86,-109.28 1551.05,-90.86"/>
<polygon fill="#63b8ff" stroke="#63b8ff" points="1553.17,-93.65 1559.34,-85.04 1549.15,-87.92 1553.17,-93.65"/>
</a>
</g>
</g>
<!-- Node35 -->
<g id="Node000035" class="node">
<title>Node35</title>
<g id="a_Node000035"><a xlink:title=" ">
<polygon fill="#e0e0e0" stroke="#999999" points="590.5,-305 509.5,-305 509.5,-286 590.5,-286 590.5,-305"/>
<text text-anchor="middle" x="550" y="-293" font-family="Helvetica,sans-Serif" font-size="10.00">vdk/signals.h</text>
</a>
</g>
</g>
<!-- Node23&#45;&gt;Node35 -->
<g id="edge54_Node000023_Node000035" class="edge">
<title>Node23&#45;&gt;Node35</title>
<g id="a_edge54_Node000023_Node000035"><a xlink:title=" ">
<path fill="none" stroke="#63b8ff" d="M492.09,-340.98C502.49,-333 518.26,-320.88 530.72,-311.31"/>
<polygon fill="#63b8ff" stroke="#63b8ff" points="532.91,-314.04 538.71,-305.17 528.65,-308.49 532.91,-314.04"/>
</a>
</g>
</g>
<!-- Node36 -->
<g id="Node000036" class="node">
<title>Node36</title>
<g id="a_Node000036"><a xlink:title=" ">
<polygon fill="#e0e0e0" stroke="#999999" points="671,-305 609,-305 609,-286 671,-286 671,-305"/>
<text text-anchor="middle" x="640" y="-293" font-family="Helvetica,sans-Serif" font-size="10.00">coroutine</text>
</a>
</g>
</g>
<!-- Node23&#45;&gt;Node36 -->
<g id="edge58_Node000023_Node000036" class="edge">
<title>Node23&#45;&gt;Node36</title>
<g id="a_edge58_Node000023_Node000036"><a xlink:title=" ">
<path fill="none" stroke="#63b8ff" d="M506.55,-340.98C533.12,-332.13 574.94,-318.19 604.67,-308.28"/>
<polygon fill="#63b8ff" stroke="#63b8ff" points="605.87,-311.56 614.25,-305.08 603.66,-304.92 605.87,-311.56"/>
</a>
</g>
</g>
<!-- Node37 -->
<g id="Node000037" class="node">
<title>Node37</title>
<g id="a_Node000037"><a xlink:title=" ">
<polygon fill="#e0e0e0" stroke="#999999" points="737,-305 689,-305 689,-286 737,-286 737,-305"/>
<text text-anchor="middle" x="713" y="-293" font-family="Helvetica,sans-Serif" font-size="10.00">mutex</text>
</a>
</g>
</g>
<!-- Node23&#45;&gt;Node37 -->
<g id="edge59_Node000023_Node000037" class="edge">
<title>Node23&#45;&gt;Node37</title>
<g id="a_edge59_Node000023_Node000037"><a xlink:title=" ">
<path fill="none" stroke="#63b8ff" d="M512.09,-342.87C549.4,-334.85 614.08,-320.71 678.89,-305.21"/>
<polygon fill="#63b8ff" stroke="#63b8ff" points="679.97,-308.55 688.87,-302.81 678.33,-301.74 679.97,-308.55"/>
</a>
</g>
</g>
<!-- Node24&#45;&gt;Node3 -->
<g id="edge30_Node000024_Node000003" class="edge">
<title>Node24&#45;&gt;Node3</title>
<g id="a_edge30_Node000024_Node000003"><a xlink:title=" ">
<path fill="none" stroke="#63b8ff" d="M844.2,-285.94C784.05,-266.72 638.24,-220.13 569.73,-198.24"/>
<polygon fill="#63b8ff" stroke="#63b8ff" points="570.4,-194.78 559.81,-195.07 568.27,-201.44 570.4,-194.78"/>
</a>
</g>
</g>
<!-- Node24&#45;&gt;Node4 -->
<g id="edge29_Node000024_Node000004" class="edge">
<title>Node24&#45;&gt;Node4</title>
<g id="a_edge29_Node000024_Node000004"><a xlink:title=" ">
<path fill="none" stroke="#63b8ff" d="M885.02,-285.73C896.38,-277.83 911.79,-265.16 920,-250 937.3,-218.05 939.85,-174.64 939.71,-150.21"/>
<polygon fill="#63b8ff" stroke="#63b8ff" points="943.21,-150.07 939.5,-140.15 936.21,-150.23 943.21,-150.07"/>
</a>
</g>
</g>
<!-- Node24&#45;&gt;Node15 -->
<g id="edge28_Node000024_Node000015" class="edge">
<title>Node24&#45;&gt;Node15</title>
<g id="a_edge28_Node000024_Node000015"><a xlink:title=" ">
<path fill="none" stroke="#63b8ff" d="M832.28,-285.94C793.07,-277.19 730.72,-263.08 677,-250 517.06,-211.06 326.87,-160.8 250.84,-140.55"/>
<polygon fill="#63b8ff" stroke="#63b8ff" points="251.45,-137.09 240.89,-137.89 249.65,-143.85 251.45,-137.09"/>
</a>
</g>
</g>
<!-- Node25 -->
<g id="Node000025" class="node">
<title>Node25</title>
<g id="a_Node000025"><a xlink:href="IParamDescriptor_8h.html" target="_top" xlink:title="Interface class for ParamDescriptor.">
<polygon fill="white" stroke="#666666" points="1114.5,-250 1005.5,-250 1005.5,-231 1114.5,-231 1114.5,-250"/>
<text text-anchor="middle" x="1060" y="-238" font-family="Helvetica,sans-Serif" font-size="10.00">IParamDescriptor.h</text>
</a>
</g>
</g>
<!-- Node24&#45;&gt;Node25 -->
<g id="edge31_Node000024_Node000025" class="edge">
<title>Node24&#45;&gt;Node25</title>
<g id="a_edge31_Node000024_Node000025"><a xlink:title=" ">
<path fill="none" stroke="#63b8ff" d="M901.37,-285.98C933.37,-277.01 983.96,-262.82 1019.38,-252.89"/>
<polygon fill="#63b8ff" stroke="#63b8ff" points="1020.71,-256.15 1029.4,-250.08 1018.82,-249.41 1020.71,-256.15"/>
</a>
</g>
</g>
<!-- Node27 -->
<g id="Node000027" class="node">
<title>Node27</title>
<g id="a_Node000027"><a xlink:title=" ">
<polygon fill="#e0e0e0" stroke="#999999" points="1072.5,-140 1007.5,-140 1007.5,-121 1072.5,-121 1072.5,-140"/>
<text text-anchor="middle" x="1040" y="-128" font-family="Helvetica,sans-Serif" font-size="10.00">functional</text>
</a>
</g>
</g>
<!-- Node24&#45;&gt;Node27 -->
<g id="edge47_Node000024_Node000027" class="edge">
<title>Node24&#45;&gt;Node27</title>
<g id="a_edge47_Node000024_Node000027"><a xlink:title=" ">
<path fill="none" stroke="#63b8ff" d="M885.95,-285.97C899.88,-277.68 920.85,-264.28 937,-250 973.57,-217.65 1009.39,-172.56 1027.61,-148.39"/>
<polygon fill="#63b8ff" stroke="#63b8ff" points="1030.52,-150.33 1033.69,-140.22 1024.91,-146.15 1030.52,-150.33"/>
</a>
</g>
</g>
<!-- Node33 -->
<g id="Node000033" class="node">
<title>Node33</title>
<g id="a_Node000033"><a xlink:title=" ">
<polygon fill="#e0e0e0" stroke="#999999" points="911,-250 831,-250 831,-231 911,-231 911,-250"/>
<text text-anchor="middle" x="871" y="-238" font-family="Helvetica,sans-Serif" font-size="10.00">jwt&#45;cpp/jwt.h</text>
</a>
</g>
</g>
<!-- Node24&#45;&gt;Node33 -->
<g id="edge46_Node000024_Node000033" class="edge">
<title>Node24&#45;&gt;Node33</title>
<g id="a_edge46_Node000024_Node000033"><a xlink:title=" ">
<path fill="none" stroke="#63b8ff" d="M871,-285.75C871,-278.8 871,-268.85 871,-260.13"/>
<polygon fill="#63b8ff" stroke="#63b8ff" points="874.5,-260.09 871,-250.09 867.5,-260.09 874.5,-260.09"/>
</a>
</g>
</g>
<!-- Node25&#45;&gt;Node3 -->
<g id="edge35_Node000025_Node000003" class="edge">
<title>Node25&#45;&gt;Node3</title>
<g id="a_edge35_Node000025_Node000003"><a xlink:title=" ">
<path fill="none" stroke="#63b8ff" d="M1005.09,-233.98C898.48,-223.26 665.75,-199.85 572.65,-190.49"/>
<polygon fill="#63b8ff" stroke="#63b8ff" points="572.83,-186.99 562.53,-189.47 572.12,-193.95 572.83,-186.99"/>
</a>
</g>
</g>
<!-- Node26 -->
<g id="Node000026" class="node">
<title>Node26</title>
<g id="a_Node000026"><a xlink:href="Tags_8h.html" target="_top" xlink:title="Tags to differentiate collections with the same type for template specialization.">
<polygon fill="white" stroke="#666666" points="1083.5,-195 1036.5,-195 1036.5,-176 1083.5,-176 1083.5,-195"/>
<text text-anchor="middle" x="1060" y="-183" font-family="Helvetica,sans-Serif" font-size="10.00">Tags.h</text>
</a>
</g>
</g>
<!-- Node25&#45;&gt;Node26 -->
<g id="edge32_Node000025_Node000026" class="edge">
<title>Node25&#45;&gt;Node26</title>
<g id="a_edge32_Node000025_Node000026"><a xlink:title=" ">
<path fill="none" stroke="#63b8ff" d="M1060,-230.75C1060,-223.8 1060,-213.85 1060,-205.13"/>
<polygon fill="#63b8ff" stroke="#63b8ff" points="1063.5,-205.09 1060,-195.09 1056.5,-205.09 1063.5,-205.09"/>
</a>
</g>
</g>
<!-- Node28 -->
<g id="Node000028" class="node">
<title>Node28</title>
<g id="a_Node000028"><a xlink:href="PolyglotText_8h.html" target="_top" xlink:title="Polyglot Text serialization and deserialization to protobuf.">
<polygon fill="white" stroke="#666666" points="1329,-140 1243,-140 1243,-121 1329,-121 1329,-140"/>
<text text-anchor="middle" x="1286" y="-128" font-family="Helvetica,sans-Serif" font-size="10.00">PolyglotText.h</text>
</a>
</g>
</g>
<!-- Node25&#45;&gt;Node28 -->
<g id="edge36_Node000025_Node000028" class="edge">
<title>Node25&#45;&gt;Node28</title>
<g id="a_edge36_Node000025_Node000028"><a xlink:title=" ">
<path fill="none" stroke="#63b8ff" d="M1078.11,-230.84C1117.72,-211.92 1212.2,-166.77 1258.91,-144.45"/>
<polygon fill="#63b8ff" stroke="#63b8ff" points="1260.6,-147.52 1268.11,-140.05 1257.58,-141.2 1260.6,-147.52"/>
</a>
</g>
</g>
<!-- Node26&#45;&gt;Node9 -->
<g id="edge34_Node000026_Node000009" class="edge">
<title>Node26&#45;&gt;Node9</title>
<g id="a_edge34_Node000026_Node000009"><a xlink:title=" ">
<path fill="none" stroke="#63b8ff" d="M1067.45,-175.74C1082.14,-158.45 1115.89,-118.66 1144,-85 1159.01,-67.03 1176.1,-46.3 1187.62,-32.29"/>
<polygon fill="#63b8ff" stroke="#63b8ff" points="1190.36,-34.47 1194.01,-24.52 1184.96,-30.03 1190.36,-34.47"/>
</a>
</g>
</g>
<!-- Node26&#45;&gt;Node27 -->
<g id="edge33_Node000026_Node000027" class="edge">
<title>Node26&#45;&gt;Node27</title>
<g id="a_edge33_Node000026_Node000027"><a xlink:title=" ">
<path fill="none" stroke="#63b8ff" d="M1056.7,-175.75C1054.02,-168.65 1050.15,-158.4 1046.81,-149.56"/>
<polygon fill="#63b8ff" stroke="#63b8ff" points="1050.05,-148.21 1043.24,-140.09 1043.5,-150.68 1050.05,-148.21"/>
</a>
</g>
</g>
<!-- Node28&#45;&gt;Node8 -->
<g id="edge44_Node000028_Node000008" class="edge">
<title>Node28&#45;&gt;Node8</title>
<g id="a_edge44_Node000028_Node000008"><a xlink:title=" ">
<path fill="none" stroke="#63b8ff" d="M1329.06,-127.08C1417.15,-121.68 1611.33,-107.36 1631,-85 1647.6,-66.12 1620.52,-43.76 1598.04,-29.72"/>
<polygon fill="#63b8ff" stroke="#63b8ff" points="1599.83,-26.71 1589.45,-24.6 1596.25,-32.73 1599.83,-26.71"/>
</a>
</g>
</g>
<!-- Node28&#45;&gt;Node9 -->
<g id="edge43_Node000028_Node000009" class="edge">
<title>Node28&#45;&gt;Node9</title>
<g id="a_edge43_Node000028_Node000009"><a xlink:title=" ">
<path fill="none" stroke="#63b8ff" d="M1279.44,-121C1272.56,-112.07 1261.46,-97.59 1252,-85 1238.64,-67.22 1223.52,-46.71 1213.23,-32.7"/>
<polygon fill="#63b8ff" stroke="#63b8ff" points="1215.97,-30.52 1207.24,-24.53 1210.33,-34.66 1215.97,-30.52"/>
</a>
</g>
</g>
<!-- Node29 -->
<g id="Node000029" class="node">
<title>Node29</title>
<g id="a_Node000029"><a xlink:href="IPolyglotText_8h.html" target="_top" xlink:title="Catena&#39;s multi&#45;language text interface.">
<polygon fill="white" stroke="#666666" points="1506.5,-85 1417.5,-85 1417.5,-66 1506.5,-66 1506.5,-85"/>
<text text-anchor="middle" x="1462" y="-73" font-family="Helvetica,sans-Serif" font-size="10.00">IPolyglotText.h</text>
</a>
</g>
</g>
<!-- Node28&#45;&gt;Node29 -->
<g id="edge37_Node000028_Node000029" class="edge">
<title>Node28&#45;&gt;Node29</title>
<g id="a_edge37_Node000028_Node000029"><a xlink:title=" ">
<path fill="none" stroke="#63b8ff" d="M1314.28,-120.98C1343.95,-112.05 1390.79,-97.94 1423.75,-88.02"/>
<polygon fill="#63b8ff" stroke="#63b8ff" points="1424.93,-91.32 1433.5,-85.08 1422.92,-84.61 1424.93,-91.32"/>
</a>
</g>
</g>
<!-- Node31 -->
<g id="Node000031" class="node">
<title>Node31</title>
<g id="a_Node000031"><a xlink:title=" ">
<polygon fill="#e0e0e0" stroke="#999999" points="1337.5,-24.5 1254.5,-24.5 1254.5,-5.5 1337.5,-5.5 1337.5,-24.5"/>
<text text-anchor="middle" x="1296" y="-12.5" font-family="Helvetica,sans-Serif" font-size="10.00">initializer_list</text>
</a>
</g>
</g>
<!-- Node28&#45;&gt;Node31 -->
<g id="edge45_Node000028_Node000031" class="edge">
<title>Node28&#45;&gt;Node31</title>
<g id="a_edge45_Node000028_Node000031"><a xlink:title=" ">
<path fill="none" stroke="#63b8ff" d="M1277.52,-120.66C1267,-108.57 1251.23,-86.1 1258,-66 1262.32,-53.18 1271.37,-41.05 1279.56,-31.95"/>
<polygon fill="#63b8ff" stroke="#63b8ff" points="1282.29,-34.15 1286.67,-24.5 1277.23,-29.31 1282.29,-34.15"/>
</a>
</g>
</g>
<!-- Node32 -->
<g id="Node000032" class="node">
<title>Node32</title>
<g id="a_Node000032"><a xlink:title=" ">
<polygon fill="#e0e0e0" stroke="#999999" points="1399,-85 1267,-85 1267,-66 1399,-66 1399,-85"/>
<text text-anchor="middle" x="1333" y="-73" font-family="Helvetica,sans-Serif" font-size="10.00">interface/language.pb.h</text>
</a>
</g>
</g>
<!-- Node28&#45;&gt;Node32 -->
<g id="edge42_Node000028_Node000032" class="edge">
<title>Node28&#45;&gt;Node32</title>
<g id="a_edge42_Node000028_Node000032"><a xlink:title=" ">
<path fill="none" stroke="#63b8ff" d="M1293.76,-120.75C1300.47,-113.18 1310.34,-102.05 1318.51,-92.84"/>
<polygon fill="#63b8ff" stroke="#63b8ff" points="1321.37,-94.89 1325.38,-85.09 1316.13,-90.25 1321.37,-94.89"/>
</a>
</g>
</g>
<!-- Node29&#45;&gt;Node8 -->
<g id="edge39_Node000029_Node000008" class="edge">
<title>Node29&#45;&gt;Node8</title>
<g id="a_edge39_Node000029_Node000008"><a xlink:title=" ">
<path fill="none" stroke="#63b8ff" d="M1478.38,-65.87C1496.58,-56.28 1526.2,-40.67 1547.45,-29.47"/>
<polygon fill="#63b8ff" stroke="#63b8ff" points="1549.34,-32.43 1556.55,-24.67 1546.08,-26.23 1549.34,-32.43"/>
</a>
</g>
</g>
<!-- Node29&#45;&gt;Node9 -->
<g id="edge40_Node000029_Node000009" class="edge">
<title>Node29&#45;&gt;Node9</title>
<g id="a_edge40_Node000029_Node000009"><a xlink:title=" ">
<path fill="none" stroke="#63b8ff" d="M1417.44,-66.65C1373.56,-58.6 1304.76,-45.15 1246,-30 1241.81,-28.92 1237.43,-27.69 1233.12,-26.41"/>
<polygon fill="#63b8ff" stroke="#63b8ff" points="1233.89,-22.99 1223.31,-23.42 1231.85,-29.69 1233.89,-22.99"/>
</a>
</g>
</g>
<!-- Node30 -->
<g id="Node000030" class="node">
<title>Node30</title>
<g id="a_Node000030"><a xlink:title=" ">
<polygon fill="#e0e0e0" stroke="#999999" points="1508.5,-30 1367.5,-30 1367.5,0 1508.5,0 1508.5,-30"/>
<text text-anchor="start" x="1375.5" y="-18" font-family="Helvetica,sans-Serif" font-size="10.00">google/protobuf/message</text>
<text text-anchor="middle" x="1438" y="-7" font-family="Helvetica,sans-Serif" font-size="10.00">_lite.h</text>
</a>
</g>
</g>
<!-- Node29&#45;&gt;Node30 -->
<g id="edge38_Node000029_Node000030" class="edge">
<title>Node29&#45;&gt;Node30</title>
<g id="a_edge38_Node000029_Node000030"><a xlink:title=" ">
<path fill="none" stroke="#63b8ff" d="M1458.46,-65.87C1455.59,-58.89 1451.42,-48.71 1447.59,-39.38"/>
<polygon fill="#63b8ff" stroke="#63b8ff" points="1450.82,-38.04 1443.79,-30.11 1444.35,-40.69 1450.82,-38.04"/>
</a>
</g>
</g>
<!-- Node29&#45;&gt;Node31 -->
<g id="edge41_Node000029_Node000031" class="edge">
<title>Node29&#45;&gt;Node31</title>
<g id="a_edge41_Node000029_Node000031"><a xlink:title=" ">
<path fill="none" stroke="#63b8ff" d="M1437.86,-65.99C1409.46,-55.99 1362.12,-39.3 1330.01,-27.99"/>
<polygon fill="#63b8ff" stroke="#63b8ff" points="1330.76,-24.54 1320.17,-24.52 1328.44,-31.14 1330.76,-24.54"/>
</a>
</g>
</g>
<!-- Node34&#45;&gt;Node8 -->
<g id="edge52_Node000034_Node000008" class="edge">
<title>Node34&#45;&gt;Node8</title>
<g id="a_edge52_Node000034_Node000008"><a xlink:title=" ">
<path fill="none" stroke="#63b8ff" d="M1573,-65.87C1573,-57.75 1573,-45.31 1573,-34.89"/>
<polygon fill="#63b8ff" stroke="#63b8ff" points="1576.5,-34.67 1573,-24.67 1569.5,-34.67 1576.5,-34.67"/>
</a>
</g>
</g>
<!-- Node34&#45;&gt;Node9 -->
<g id="edge51_Node000034_Node000009" class="edge">
<title>Node34&#45;&gt;Node9</title>
<g id="a_edge51_Node000034_Node000009"><a xlink:title=" ">
<path fill="none" stroke="#63b8ff" d="M1523.88,-67.13C1521.22,-66.74 1518.58,-66.36 1516,-66 1396.13,-49.07 1364.22,-56.07 1246,-30 1241.78,-29.07 1237.38,-27.92 1233.05,-26.7"/>
<polygon fill="#63b8ff" stroke="#63b8ff" points="1233.82,-23.27 1223.23,-23.73 1231.8,-29.97 1233.82,-23.27"/>
</a>
</g>
</g>
</g>
</svg>

<g id="navigator" transform="translate(0 0)" fill="#404254">
  <rect fill="#f2f5e9" fill-opacity="0.5" stroke="#606060" stroke-width=".5" x="0" y="0" width="60" height="60"/>
  <use id="zoomplus" xlink:href="#zoomPlus" x="17" y="9" onmousedown="handleZoom(evt,'in')"/>
  <use id="zoomminus" xlink:href="#zoomMin" x="42" y="9" onmousedown="handleZoom(evt,'out')"/>
  <use id="reset" xlink:href="#resetDef" x="30" y="36" onmousedown="handleReset()"/>
   <use id="arrowup" xlink:href="#arrowUp" x="0" y="0" onmousedown="handlePan(0,-1)"/>
  <use id="arrowright" xlink:href="#arrowRight" x="0" y="0" onmousedown="handlePan(1,0)"/>
  <use id="arrowdown" xlink:href="#arrowDown" x="0" y="0" onmousedown="handlePan(0,1)"/>
  <use id="arrowleft" xlink:href="#arrowLeft" x="0" y="0" onmousedown="handlePan(-1,0)"/>
</g>
<svg viewBox="0 0 15 15" width="100%" height="30px" preserveAspectRatio="xMaxYMin meet">
 <g id="arrow_out" transform="scale(0.3 0.3)">
  <a xlink:href="ParamVisitor_8h__incl_org.svg" target="_base">
   <rect id="button" ry="5" rx="5" y="6" x="6" height="38" width="38"
        fill="#f2f5e9" fill-opacity="0.5" stroke="#606060" stroke-width="1.0"/>
   <path id="arrow"
     d="M 11.500037,31.436501 C 11.940474,20.09759 22.043105,11.32322 32.158766,21.979434 L 37.068811,17.246167 C 37.068811,17.246167 37.088388,32 37.088388,32 L 22.160133,31.978069 C 22.160133,31.978069 26.997745,27.140456 26.997745,27.140456 C 18.528582,18.264221 13.291696,25.230495 11.500037,31.436501 z"
     style="fill:#404040;"/>
  </a>
 </g>
</svg>

<style type='text/css'>
<![CDATA[
[data-mouse-over-selected='false'] { opacity: 0.7; }
[data-mouse-over-selected='true']  { opacity: 1.0; }
]]>
</style>
<script type="application/ecmascript"><![CDATA[
document.addEventListener('DOMContentLoaded', (event) => {
  highlightEdges();
  highlightAdjacentNodes();
});
]]></script>
</svg>
