<?xml version="1.0" encoding="UTF-8" standalone="no"?>
<!DOCTYPE svg PUBLIC "-//W3C//DTD SVG 1.1//EN"
 "http://www.w3.org/Graphics/SVG/1.1/DTD/svg11.dtd">
<!-- Generated by graphviz version 2.43.0 (0)
 -->
<!-- Title: /home/runner/work/Catena/Catena/sdks/cpp/common/include/ParamVisitor.h Pages: 1 -->
<svg width="1636pt" height="544pt"
 viewBox="0.00 0.00 1635.50 544.00" xmlns="http://www.w3.org/2000/svg" xmlns:xlink="http://www.w3.org/1999/xlink">
<g id="graph0" class="graph" transform="scale(1 1) rotate(0) translate(4 540)">
<title>/home/runner/work/Catena/Catena/sdks/cpp/common/include/ParamVisitor.h</title>
<!-- Node1 -->
<g id="Node000001" class="node">
<title>Node1</title>
<g id="a_Node000001"><a xlink:title="Implements Catena ParamVisitor.">
<polygon fill="#999999" stroke="#666666" points="1306.5,-536 1160.5,-536 1160.5,-495 1306.5,-495 1306.5,-536"/>
<text text-anchor="start" x="1168.5" y="-524" font-family="Helvetica,sans-Serif" font-size="10.00">/home/runner/work/Catena</text>
<text text-anchor="start" x="1168.5" y="-513" font-family="Helvetica,sans-Serif" font-size="10.00">/Catena/sdks/cpp/common</text>
<text text-anchor="middle" x="1233.5" y="-502" font-family="Helvetica,sans-Serif" font-size="10.00">/include/ParamVisitor.h</text>
</a>
</g>
</g>
<!-- Node2 -->
<g id="Node000002" class="node">
<title>Node2</title>
<g id="a_Node000002"><a xlink:href="IParamVisitor_8h.html" target="_top" xlink:title="Implements Catena IParamVisitor.">
<polygon fill="white" stroke="#666666" points="1278.5,-459 1188.5,-459 1188.5,-440 1278.5,-440 1278.5,-459"/>
<text text-anchor="middle" x="1233.5" y="-447" font-family="Helvetica,sans-Serif" font-size="10.00">IParamVisitor.h</text>
</a>
</g>
</g>
<!-- Node1&#45;&gt;Node2 -->
<g id="edge1_Node000001_Node000002" class="edge">
<title>Node1&#45;&gt;Node2</title>
<g id="a_edge1_Node000001_Node000002"><a xlink:title=" ">
<path fill="none" stroke="#63b8ff" d="M1233.5,-494.95C1233.5,-486.85 1233.5,-477.5 1233.5,-469.47"/>
<polygon fill="#63b8ff" stroke="#63b8ff" points="1237,-469.26 1233.5,-459.26 1230,-469.26 1237,-469.26"/>
</a>
</g>
</g>
<!-- Node22 -->
<g id="Node000022" class="node">
<title>Node22</title>
<g id="a_Node000022"><a xlink:href="Path_8h.html" target="_top" xlink:title="Handles Path objects used to uniquely identify and access OIDs.">
<polygon fill="white" stroke="#666666" points="1365,-184 1318,-184 1318,-165 1365,-165 1365,-184"/>
<text text-anchor="middle" x="1341.5" y="-172" font-family="Helvetica,sans-Serif" font-size="10.00">Path.h</text>
</a>
</g>
</g>
<!-- Node1&#45;&gt;Node22 -->
<g id="edge58_Node000001_Node000022" class="edge">
<title>Node1&#45;&gt;Node22</title>
<g id="a_edge58_Node000001_Node000022"><a xlink:title=" ">
<path fill="none" stroke="#63b8ff" d="M1264.82,-494.99C1293.83,-474.23 1332.5,-438.5 1332.5,-395.5 1332.5,-395.5 1332.5,-395.5 1332.5,-283.5 1332.5,-252.08 1336.33,-215.7 1338.99,-194.2"/>
<polygon fill="#63b8ff" stroke="#63b8ff" points="1342.48,-194.52 1340.29,-184.16 1335.54,-193.63 1342.48,-194.52"/>
</a>
</g>
</g>
<!-- Node30 -->
<g id="Node000030" class="node">
<title>Node30</title>
<g id="a_Node000030"><a xlink:href="IDevice_8h.html" target="_top" xlink:title="Interface for device.">
<polygon fill="white" stroke="#666666" points="570.5,-404 508.5,-404 508.5,-385 570.5,-385 570.5,-404"/>
<text text-anchor="middle" x="539.5" y="-392" font-family="Helvetica,sans-Serif" font-size="10.00">IDevice.h</text>
</a>
</g>
</g>
<!-- Node1&#45;&gt;Node30 -->
<g id="edge59_Node000001_Node000030" class="edge">
<title>Node1&#45;&gt;Node30</title>
<g id="a_edge59_Node000001_Node000030"><a xlink:title=" ">
<path fill="none" stroke="#63b8ff" d="M1160.21,-501.93C1014.93,-477.02 694.58,-422.09 580.69,-402.56"/>
<polygon fill="#63b8ff" stroke="#63b8ff" points="581.08,-399.08 570.64,-400.84 579.9,-405.98 581.08,-399.08"/>
</a>
</g>
</g>
<!-- Node3 -->
<g id="Node000003" class="node">
<title>Node3</title>
<g id="a_Node000003"><a xlink:href="IParam_8h.html" target="_top" xlink:title="Interface for parameters.">
<polygon fill="white" stroke="#666666" points="1051,-239 992,-239 992,-220 1051,-220 1051,-239"/>
<text text-anchor="middle" x="1021.5" y="-227" font-family="Helvetica,sans-Serif" font-size="10.00">IParam.h</text>
</a>
</g>
</g>
<!-- Node2&#45;&gt;Node3 -->
<g id="edge2_Node000002_Node000003" class="edge">
<title>Node2&#45;&gt;Node3</title>
<g id="a_edge2_Node000002_Node000003"><a xlink:title=" ">
<path fill="none" stroke="#63b8ff" d="M1228.99,-439.86C1214.4,-412.59 1165.9,-327.04 1105.5,-275 1090.03,-261.67 1069.9,-250.83 1053.22,-243.19"/>
<polygon fill="#63b8ff" stroke="#63b8ff" points="1054.42,-239.9 1043.86,-239.07 1051.6,-246.3 1054.42,-239.9"/>
</a>
</g>
</g>
<!-- Node2&#45;&gt;Node22 -->
<g id="edge36_Node000002_Node000022" class="edge">
<title>Node2&#45;&gt;Node22</title>
<g id="a_edge36_Node000002_Node000022"><a xlink:title=" ">
<path fill="none" stroke="#63b8ff" d="M1241.76,-439.77C1257.34,-422.37 1289.5,-381.47 1289.5,-340.5 1289.5,-340.5 1289.5,-340.5 1289.5,-283.5 1289.5,-248.15 1312.39,-212.16 1327.8,-191.95"/>
<polygon fill="#63b8ff" stroke="#63b8ff" points="1330.58,-194.07 1334.05,-184.06 1325.1,-189.73 1330.58,-194.07"/>
</a>
</g>
</g>
<!-- Node2&#45;&gt;Node30 -->
<g id="edge37_Node000002_Node000030" class="edge">
<title>Node2&#45;&gt;Node30</title>
<g id="a_edge37_Node000002_Node000030"><a xlink:title=" ">
<path fill="none" stroke="#63b8ff" d="M1188.5,-445.06C1061.69,-435.38 702.72,-407.96 580.69,-398.65"/>
<polygon fill="#63b8ff" stroke="#63b8ff" points="580.87,-395.15 570.64,-397.88 580.34,-402.13 580.87,-395.15"/>
</a>
</g>
</g>
<!-- Node4 -->
<g id="Node000004" class="node">
<title>Node4</title>
<g id="a_Node000004"><a xlink:href="Enums_8h.html" target="_top" xlink:title="tools for using EnumDecorators.">
<polygon fill="white" stroke="#666666" points="799,-184 740,-184 740,-165 799,-165 799,-184"/>
<text text-anchor="middle" x="769.5" y="-172" font-family="Helvetica,sans-Serif" font-size="10.00">Enums.h</text>
</a>
</g>
</g>
<!-- Node3&#45;&gt;Node4 -->
<g id="edge3_Node000003_Node000004" class="edge">
<title>Node3&#45;&gt;Node4</title>
<g id="a_edge3_Node000003_Node000004"><a xlink:title=" ">
<path fill="none" stroke="#63b8ff" d="M991.6,-222.21C946.23,-212.67 859.92,-194.52 809.29,-183.87"/>
<polygon fill="#63b8ff" stroke="#63b8ff" points="809.86,-180.41 799.36,-181.78 808.42,-187.26 809.86,-180.41"/>
</a>
</g>
</g>
<!-- Node12 -->
<g id="Node000012" class="node">
<title>Node12</title>
<g id="a_Node000012"><a xlink:href="IConstraint_8h.html" target="_top" xlink:title="Interface for constraints.">
<polygon fill="white" stroke="#666666" points="1129,-184 1050,-184 1050,-165 1129,-165 1129,-184"/>
<text text-anchor="middle" x="1089.5" y="-172" font-family="Helvetica,sans-Serif" font-size="10.00">IConstraint.h</text>
</a>
</g>
</g>
<!-- Node3&#45;&gt;Node12 -->
<g id="edge12_Node000003_Node000012" class="edge">
<title>Node3&#45;&gt;Node12</title>
<g id="a_edge12_Node000003_Node000012"><a xlink:title=" ">
<path fill="none" stroke="#63b8ff" d="M1032.43,-219.98C1042.58,-212.07 1057.92,-200.11 1070.15,-190.58"/>
<polygon fill="#63b8ff" stroke="#63b8ff" points="1072.64,-193.08 1078.38,-184.17 1068.34,-187.56 1072.64,-193.08"/>
</a>
</g>
</g>
<!-- Node13 -->
<g id="Node000013" class="node">
<title>Node13</title>
<g id="a_Node000013"><a xlink:title=" ">
<polygon fill="#e0e0e0" stroke="#999999" points="1145,-129 1026,-129 1026,-110 1145,-110 1145,-129"/>
<text text-anchor="middle" x="1085.5" y="-117" font-family="Helvetica,sans-Serif" font-size="10.00">interface/param.pb.h</text>
</a>
</g>
</g>
<!-- Node3&#45;&gt;Node13 -->
<g id="edge35_Node000003_Node000013" class="edge">
<title>Node3&#45;&gt;Node13</title>
<g id="a_edge35_Node000003_Node000013"><a xlink:title=" ">
<path fill="none" stroke="#63b8ff" d="M1022.9,-219.74C1025.24,-206.97 1030.76,-182.82 1041.5,-165 1048.11,-154.03 1057.97,-143.72 1066.68,-135.8"/>
<polygon fill="#63b8ff" stroke="#63b8ff" points="1068.97,-138.44 1074.22,-129.24 1064.38,-133.16 1068.97,-138.44"/>
</a>
</g>
</g>
<!-- Node15 -->
<g id="Node000015" class="node">
<title>Node15</title>
<g id="a_Node000015"><a xlink:href="IParamDescriptor_8h.html" target="_top" xlink:title="Interface class for ParamDescriptor.">
<polygon fill="white" stroke="#666666" points="993,-184 884,-184 884,-165 993,-165 993,-184"/>
<text text-anchor="middle" x="938.5" y="-172" font-family="Helvetica,sans-Serif" font-size="10.00">IParamDescriptor.h</text>
</a>
</g>
</g>
<!-- Node3&#45;&gt;Node15 -->
<g id="edge15_Node000003_Node000015" class="edge">
<title>Node3&#45;&gt;Node15</title>
<g id="a_edge15_Node000003_Node000015"><a xlink:title=" ">
<path fill="none" stroke="#63b8ff" d="M1008.16,-219.98C995.41,-211.84 975.95,-199.41 960.83,-189.76"/>
<polygon fill="#63b8ff" stroke="#63b8ff" points="962.39,-186.6 952.08,-184.17 958.62,-192.5 962.39,-186.6"/>
</a>
</g>
</g>
<!-- Node3&#45;&gt;Node22 -->
<g id="edge26_Node000003_Node000022" class="edge">
<title>Node3&#45;&gt;Node22</title>
<g id="a_edge26_Node000003_Node000022"><a xlink:title=" ">
<path fill="none" stroke="#63b8ff" d="M1051.03,-223.61C1110.56,-213.75 1244.64,-191.54 1307.62,-181.11"/>
<polygon fill="#63b8ff" stroke="#63b8ff" points="1308.51,-184.51 1317.81,-179.42 1307.37,-177.61 1308.51,-184.51"/>
</a>
</g>
</g>
<!-- Node27 -->
<g id="Node000027" class="node">
<title>Node27</title>
<g id="a_Node000027"><a xlink:href="Status_8h.html" target="_top" xlink:title="Communicates failure status using gRPC&#39;s codes.">
<polygon fill="white" stroke="#666666" points="486.5,-184 430.5,-184 430.5,-165 486.5,-165 486.5,-184"/>
<text text-anchor="middle" x="458.5" y="-172" font-family="Helvetica,sans-Serif" font-size="10.00">Status.h</text>
</a>
</g>
</g>
<!-- Node3&#45;&gt;Node27 -->
<g id="edge32_Node000003_Node000027" class="edge">
<title>Node3&#45;&gt;Node27</title>
<g id="a_edge32_Node000003_Node000027"><a xlink:title=" ">
<path fill="none" stroke="#63b8ff" d="M991.63,-225.69C896.79,-216.76 602.56,-189.06 496.83,-179.11"/>
<polygon fill="#63b8ff" stroke="#63b8ff" points="496.9,-175.6 486.62,-178.15 496.25,-182.57 496.9,-175.6"/>
</a>
</g>
</g>
<!-- Node5 -->
<g id="Node000005" class="node">
<title>Node5</title>
<g id="a_Node000005"><a xlink:href="EnumDecorator_8h.html" target="_top" xlink:title="Provides an enum with useful extra functionality.">
<polygon fill="white" stroke="#666666" points="761.5,-129 617.5,-129 617.5,-110 761.5,-110 761.5,-129"/>
<text text-anchor="middle" x="689.5" y="-117" font-family="Helvetica,sans-Serif" font-size="10.00">patterns/EnumDecorator.h</text>
</a>
</g>
</g>
<!-- Node4&#45;&gt;Node5 -->
<g id="edge4_Node000004_Node000005" class="edge">
<title>Node4&#45;&gt;Node5</title>
<g id="a_edge4_Node000004_Node000005"><a xlink:title=" ">
<path fill="none" stroke="#63b8ff" d="M756.65,-164.98C744.36,-156.84 725.59,-144.41 711.02,-134.76"/>
<polygon fill="#63b8ff" stroke="#63b8ff" points="712.86,-131.78 702.59,-129.17 708.99,-137.61 712.86,-131.78"/>
</a>
</g>
</g>
<!-- Node7 -->
<g id="Node000007" class="node">
<title>Node7</title>
<g id="a_Node000007"><a xlink:title=" ">
<polygon fill="#e0e0e0" stroke="#999999" points="776.5,-74 726.5,-74 726.5,-55 776.5,-55 776.5,-74"/>
<text text-anchor="middle" x="751.5" y="-62" font-family="Helvetica,sans-Serif" font-size="10.00">cstdint</text>
</a>
</g>
</g>
<!-- Node4&#45;&gt;Node7 -->
<g id="edge11_Node000004_Node000007" class="edge">
<title>Node4&#45;&gt;Node7</title>
<g id="a_edge11_Node000004_Node000007"><a xlink:title=" ">
<path fill="none" stroke="#63b8ff" d="M770.82,-164.76C772.41,-152.42 774.43,-129.23 770.5,-110 768.61,-100.74 764.71,-91.03 760.93,-83.04"/>
<polygon fill="#63b8ff" stroke="#63b8ff" points="764.01,-81.37 756.38,-74.02 757.76,-84.53 764.01,-81.37"/>
</a>
</g>
</g>
<!-- Node11 -->
<g id="Node000011" class="node">
<title>Node11</title>
<g id="a_Node000011"><a xlink:title=" ">
<polygon fill="#e0e0e0" stroke="#999999" points="599,-129 480,-129 480,-110 599,-110 599,-129"/>
<text text-anchor="middle" x="539.5" y="-117" font-family="Helvetica,sans-Serif" font-size="10.00">interface/device.pb.h</text>
</a>
</g>
</g>
<!-- Node4&#45;&gt;Node11 -->
<g id="edge10_Node000004_Node000011" class="edge">
<title>Node4&#45;&gt;Node11</title>
<g id="a_edge10_Node000004_Node000011"><a xlink:title=" ">
<path fill="none" stroke="#63b8ff" d="M739.9,-166.68C701.1,-157.74 632.58,-141.95 586.61,-131.36"/>
<polygon fill="#63b8ff" stroke="#63b8ff" points="587.12,-127.88 576.59,-129.05 585.55,-134.7 587.12,-127.88"/>
</a>
</g>
</g>
<!-- Node6 -->
<g id="Node000006" class="node">
<title>Node6</title>
<g id="a_Node000006"><a xlink:href="ReflectionMacros_8h.html" target="_top" xlink:title="adapted from https://github.com/tapika/TestCppReflect">
<polygon fill="white" stroke="#666666" points="670.5,-74 560.5,-74 560.5,-55 670.5,-55 670.5,-74"/>
<text text-anchor="middle" x="615.5" y="-62" font-family="Helvetica,sans-Serif" font-size="10.00">ReflectionMacros.h</text>
</a>
</g>
</g>
<!-- Node5&#45;&gt;Node6 -->
<g id="edge5_Node000005_Node000006" class="edge">
<title>Node5&#45;&gt;Node6</title>
<g id="a_edge5_Node000005_Node000006"><a xlink:title=" ">
<path fill="none" stroke="#63b8ff" d="M677.61,-109.98C666.35,-101.92 649.21,-89.65 635.79,-80.03"/>
<polygon fill="#63b8ff" stroke="#63b8ff" points="637.77,-77.15 627.61,-74.17 633.7,-82.84 637.77,-77.15"/>
</a>
</g>
</g>
<!-- Node5&#45;&gt;Node7 -->
<g id="edge6_Node000005_Node000007" class="edge">
<title>Node5&#45;&gt;Node7</title>
<g id="a_edge6_Node000005_Node000007"><a xlink:title=" ">
<path fill="none" stroke="#63b8ff" d="M699.46,-109.98C708.63,-102.15 722.44,-90.34 733.53,-80.86"/>
<polygon fill="#63b8ff" stroke="#63b8ff" points="736.03,-83.33 741.36,-74.17 731.48,-78.01 736.03,-83.33"/>
</a>
</g>
</g>
<!-- Node8 -->
<g id="Node000008" class="node">
<title>Node8</title>
<g id="a_Node000008"><a xlink:title=" ">
<polygon fill="#e0e0e0" stroke="#999999" points="379,-19 286,-19 286,0 379,0 379,-19"/>
<text text-anchor="middle" x="332.5" y="-7" font-family="Helvetica,sans-Serif" font-size="10.00">unordered_map</text>
</a>
</g>
</g>
<!-- Node5&#45;&gt;Node8 -->
<g id="edge7_Node000005_Node000008" class="edge">
<title>Node5&#45;&gt;Node8</title>
<g id="a_edge7_Node000005_Node000008"><a xlink:title=" ">
<path fill="none" stroke="#63b8ff" d="M622.58,-109.94C576.97,-102.99 515.64,-91.45 463.5,-74 424.18,-60.84 381.46,-38.47 355.85,-24.1"/>
<polygon fill="#63b8ff" stroke="#63b8ff" points="357.33,-20.92 346.91,-19.02 353.87,-27.01 357.33,-20.92"/>
</a>
</g>
</g>
<!-- Node9 -->
<g id="Node000009" class="node">
<title>Node9</title>
<g id="a_Node000009"><a xlink:title=" ">
<polygon fill="#e0e0e0" stroke="#999999" points="767.5,-19 723.5,-19 723.5,0 767.5,0 767.5,-19"/>
<text text-anchor="middle" x="745.5" y="-7" font-family="Helvetica,sans-Serif" font-size="10.00">string</text>
</a>
</g>
</g>
<!-- Node5&#45;&gt;Node9 -->
<g id="edge8_Node000005_Node000009" class="edge">
<title>Node5&#45;&gt;Node9</title>
<g id="a_edge8_Node000005_Node000009"><a xlink:title=" ">
<path fill="none" stroke="#63b8ff" d="M692.91,-109.68C697.83,-97.24 707.44,-73.94 717.5,-55 722.43,-45.73 728.58,-35.81 733.86,-27.69"/>
<polygon fill="#63b8ff" stroke="#63b8ff" points="736.92,-29.41 739.53,-19.14 731.09,-25.54 736.92,-29.41"/>
</a>
</g>
</g>
<!-- Node10 -->
<g id="Node000010" class="node">
<title>Node10</title>
<g id="a_Node000010"><a xlink:title=" ">
<polygon fill="#e0e0e0" stroke="#999999" points="542,-74 473,-74 473,-55 542,-55 542,-74"/>
<text text-anchor="middle" x="507.5" y="-62" font-family="Helvetica,sans-Serif" font-size="10.00">type_traits</text>
</a>
</g>
</g>
<!-- Node5&#45;&gt;Node10 -->
<g id="edge9_Node000005_Node000010" class="edge">
<title>Node5&#45;&gt;Node10</title>
<g id="a_edge9_Node000005_Node000010"><a xlink:title=" ">
<path fill="none" stroke="#63b8ff" d="M660.26,-109.98C629.44,-101.01 580.72,-86.82 546.61,-76.89"/>
<polygon fill="#63b8ff" stroke="#63b8ff" points="547.55,-73.52 536.97,-74.08 545.59,-80.24 547.55,-73.52"/>
</a>
</g>
</g>
<!-- Node12&#45;&gt;Node13 -->
<g id="edge13_Node000012_Node000013" class="edge">
<title>Node12&#45;&gt;Node13</title>
<g id="a_edge13_Node000012_Node000013"><a xlink:title=" ">
<path fill="none" stroke="#63b8ff" d="M1088.84,-164.75C1088.32,-157.8 1087.56,-147.85 1086.91,-139.13"/>
<polygon fill="#63b8ff" stroke="#63b8ff" points="1090.39,-138.8 1086.15,-129.09 1083.41,-139.32 1090.39,-138.8"/>
</a>
</g>
</g>
<!-- Node14 -->
<g id="Node000014" class="node">
<title>Node14</title>
<g id="a_Node000014"><a xlink:title=" ">
<polygon fill="#e0e0e0" stroke="#999999" points="1299.5,-129 1163.5,-129 1163.5,-110 1299.5,-110 1299.5,-129"/>
<text text-anchor="middle" x="1231.5" y="-117" font-family="Helvetica,sans-Serif" font-size="10.00">interface/constraint.pb.h</text>
</a>
</g>
</g>
<!-- Node12&#45;&gt;Node14 -->
<g id="edge14_Node000012_Node000014" class="edge">
<title>Node12&#45;&gt;Node14</title>
<g id="a_edge14_Node000012_Node000014"><a xlink:title=" ">
<path fill="none" stroke="#63b8ff" d="M1112.31,-164.98C1135.67,-156.27 1172.2,-142.63 1198.67,-132.75"/>
<polygon fill="#63b8ff" stroke="#63b8ff" points="1200.13,-135.95 1208.27,-129.17 1197.68,-129.39 1200.13,-135.95"/>
</a>
</g>
</g>
<!-- Node15&#45;&gt;Node13 -->
<g id="edge25_Node000015_Node000013" class="edge">
<title>Node15&#45;&gt;Node13</title>
<g id="a_edge25_Node000015_Node000013"><a xlink:title=" ">
<path fill="none" stroke="#63b8ff" d="M962.12,-164.98C986.4,-156.23 1024.45,-142.51 1051.87,-132.62"/>
<polygon fill="#63b8ff" stroke="#63b8ff" points="1053.23,-135.85 1061.45,-129.17 1050.86,-129.27 1053.23,-135.85"/>
</a>
</g>
</g>
<!-- Node16 -->
<g id="Node000016" class="node">
<title>Node16</title>
<g id="a_Node000016"><a xlink:href="Tags_8h.html" target="_top" xlink:title="Tags to differentiate collections with the same type for template specialization.">
<polygon fill="white" stroke="#666666" points="903,-129 856,-129 856,-110 903,-110 903,-129"/>
<text text-anchor="middle" x="879.5" y="-117" font-family="Helvetica,sans-Serif" font-size="10.00">Tags.h</text>
</a>
</g>
</g>
<!-- Node15&#45;&gt;Node16 -->
<g id="edge16_Node000015_Node000016" class="edge">
<title>Node15&#45;&gt;Node16</title>
<g id="a_edge16_Node000015_Node000016"><a xlink:title=" ">
<path fill="none" stroke="#63b8ff" d="M929.02,-164.98C920.3,-157.15 907.16,-145.34 896.6,-135.86"/>
<polygon fill="#63b8ff" stroke="#63b8ff" points="898.93,-133.25 889.15,-129.17 894.25,-138.46 898.93,-133.25"/>
</a>
</g>
</g>
<!-- Node18 -->
<g id="Node000018" class="node">
<title>Node18</title>
<g id="a_Node000018"><a xlink:href="PolyglotText_8h.html" target="_top" xlink:title="Polyglot Text serialization and deserialization to protobuf.">
<polygon fill="white" stroke="#666666" points="1007.5,-129 921.5,-129 921.5,-110 1007.5,-110 1007.5,-129"/>
<text text-anchor="middle" x="964.5" y="-117" font-family="Helvetica,sans-Serif" font-size="10.00">PolyglotText.h</text>
</a>
</g>
</g>
<!-- Node15&#45;&gt;Node18 -->
<g id="edge19_Node000015_Node000018" class="edge">
<title>Node15&#45;&gt;Node18</title>
<g id="a_edge19_Node000015_Node000018"><a xlink:title=" ">
<path fill="none" stroke="#63b8ff" d="M942.79,-164.75C946.31,-157.57 951.41,-147.18 955.78,-138.27"/>
<polygon fill="#63b8ff" stroke="#63b8ff" points="959.02,-139.61 960.29,-129.09 952.74,-136.53 959.02,-139.61"/>
</a>
</g>
</g>
<!-- Node16&#45;&gt;Node9 -->
<g id="edge18_Node000016_Node000009" class="edge">
<title>Node16&#45;&gt;Node9</title>
<g id="a_edge18_Node000016_Node000009"><a xlink:title=" ">
<path fill="none" stroke="#63b8ff" d="M880.72,-109.57C882.04,-96.14 882.45,-70.65 869.5,-55 846.9,-27.69 806.23,-17.14 777.64,-13.06"/>
<polygon fill="#63b8ff" stroke="#63b8ff" points="778.06,-9.59 767.71,-11.83 777.2,-16.53 778.06,-9.59"/>
</a>
</g>
</g>
<!-- Node17 -->
<g id="Node000017" class="node">
<title>Node17</title>
<g id="a_Node000017"><a xlink:title=" ">
<polygon fill="#e0e0e0" stroke="#999999" points="860,-74 795,-74 795,-55 860,-55 860,-74"/>
<text text-anchor="middle" x="827.5" y="-62" font-family="Helvetica,sans-Serif" font-size="10.00">functional</text>
</a>
</g>
</g>
<!-- Node16&#45;&gt;Node17 -->
<g id="edge17_Node000016_Node000017" class="edge">
<title>Node16&#45;&gt;Node17</title>
<g id="a_edge17_Node000016_Node000017"><a xlink:title=" ">
<path fill="none" stroke="#63b8ff" d="M870.91,-109.75C863.34,-102.03 852.12,-90.6 842.99,-81.28"/>
<polygon fill="#63b8ff" stroke="#63b8ff" points="845.43,-78.78 835.93,-74.09 840.43,-83.68 845.43,-78.78"/>
</a>
</g>
</g>
<!-- Node19 -->
<g id="Node000019" class="node">
<title>Node19</title>
<g id="a_Node000019"><a xlink:href="IPolyglotText_8h.html" target="_top" xlink:title="Catena&#39;s multi&#45;language text interface.">
<polygon fill="white" stroke="#666666" points="1006,-74 917,-74 917,-55 1006,-55 1006,-74"/>
<text text-anchor="middle" x="961.5" y="-62" font-family="Helvetica,sans-Serif" font-size="10.00">IPolyglotText.h</text>
</a>
</g>
</g>
<!-- Node18&#45;&gt;Node19 -->
<g id="edge20_Node000018_Node000019" class="edge">
<title>Node18&#45;&gt;Node19</title>
<g id="a_edge20_Node000018_Node000019"><a xlink:title=" ">
<path fill="none" stroke="#63b8ff" d="M964,-109.75C963.61,-102.8 963.05,-92.85 962.55,-84.13"/>
<polygon fill="#63b8ff" stroke="#63b8ff" points="966.05,-83.88 961.99,-74.09 959.06,-84.27 966.05,-83.88"/>
</a>
</g>
</g>
<!-- Node19&#45;&gt;Node8 -->
<g id="edge22_Node000019_Node000008" class="edge">
<title>Node19&#45;&gt;Node8</title>
<g id="a_edge22_Node000019_Node000008"><a xlink:title=" ">
<path fill="none" stroke="#63b8ff" d="M916.59,-59.26C901.61,-57.88 884.84,-56.34 869.5,-55 694.44,-39.66 487.14,-22.87 389.18,-15.02"/>
<polygon fill="#63b8ff" stroke="#63b8ff" points="389.45,-11.53 379.2,-14.22 388.89,-18.51 389.45,-11.53"/>
</a>
</g>
</g>
<!-- Node19&#45;&gt;Node9 -->
<g id="edge23_Node000019_Node000009" class="edge">
<title>Node19&#45;&gt;Node9</title>
<g id="a_edge23_Node000019_Node000009"><a xlink:title=" ">
<path fill="none" stroke="#63b8ff" d="M926.8,-54.98C885.55,-44.86 817.29,-28.11 777.34,-18.31"/>
<polygon fill="#63b8ff" stroke="#63b8ff" points="778.13,-14.9 767.59,-15.92 776.47,-21.7 778.13,-14.9"/>
</a>
</g>
</g>
<!-- Node20 -->
<g id="Node000020" class="node">
<title>Node20</title>
<g id="a_Node000020"><a xlink:title=" ">
<polygon fill="#e0e0e0" stroke="#999999" points="964.5,-19 832.5,-19 832.5,0 964.5,0 964.5,-19"/>
<text text-anchor="middle" x="898.5" y="-7" font-family="Helvetica,sans-Serif" font-size="10.00">interface/language.pb.h</text>
</a>
</g>
</g>
<!-- Node19&#45;&gt;Node20 -->
<g id="edge21_Node000019_Node000020" class="edge">
<title>Node19&#45;&gt;Node20</title>
<g id="a_edge21_Node000019_Node000020"><a xlink:title=" ">
<path fill="none" stroke="#63b8ff" d="M951.38,-54.98C942.06,-47.15 928.03,-35.34 916.76,-25.86"/>
<polygon fill="#63b8ff" stroke="#63b8ff" points="918.71,-22.93 908.81,-19.17 914.21,-28.29 918.71,-22.93"/>
</a>
</g>
</g>
<!-- Node21 -->
<g id="Node000021" class="node">
<title>Node21</title>
<g id="a_Node000021"><a xlink:title=" ">
<polygon fill="#e0e0e0" stroke="#999999" points="1066,-19 983,-19 983,0 1066,0 1066,-19"/>
<text text-anchor="middle" x="1024.5" y="-7" font-family="Helvetica,sans-Serif" font-size="10.00">initializer_list</text>
</a>
</g>
</g>
<!-- Node19&#45;&gt;Node21 -->
<g id="edge24_Node000019_Node000021" class="edge">
<title>Node19&#45;&gt;Node21</title>
<g id="a_edge24_Node000019_Node000021"><a xlink:title=" ">
<path fill="none" stroke="#63b8ff" d="M971.62,-54.98C980.94,-47.15 994.97,-35.34 1006.24,-25.86"/>
<polygon fill="#63b8ff" stroke="#63b8ff" points="1008.79,-28.29 1014.19,-19.17 1004.29,-22.93 1008.79,-28.29"/>
</a>
</g>
</g>
<!-- Node22&#45;&gt;Node9 -->
<g id="edge28_Node000022_Node000009" class="edge">
<title>Node22&#45;&gt;Node9</title>
<g id="a_edge28_Node000022_Node000009"><a xlink:title=" ">
<path fill="none" stroke="#63b8ff" d="M1351.86,-164.96C1366.31,-152.03 1389.19,-127.19 1374.5,-110 1354.74,-86.87 904.06,-29.97 778,-14.46"/>
<polygon fill="#63b8ff" stroke="#63b8ff" points="778.17,-10.96 767.82,-13.21 777.32,-17.9 778.17,-10.96"/>
</a>
</g>
</g>
<!-- Node23 -->
<g id="Node000023" class="node">
<title>Node23</title>
<g id="a_Node000023"><a xlink:title=" ">
<polygon fill="#e0e0e0" stroke="#999999" points="1481.5,-129 1421.5,-129 1421.5,-110 1481.5,-110 1481.5,-129"/>
<text text-anchor="middle" x="1451.5" y="-117" font-family="Helvetica,sans-Serif" font-size="10.00">iostream</text>
</a>
</g>
</g>
<!-- Node22&#45;&gt;Node23 -->
<g id="edge27_Node000022_Node000023" class="edge">
<title>Node22&#45;&gt;Node23</title>
<g id="a_edge27_Node000022_Node000023"><a xlink:title=" ">
<path fill="none" stroke="#63b8ff" d="M1359.17,-164.98C1376.79,-156.5 1404.08,-143.35 1424.43,-133.54"/>
<polygon fill="#63b8ff" stroke="#63b8ff" points="1426.02,-136.66 1433.51,-129.17 1422.98,-130.36 1426.02,-136.66"/>
</a>
</g>
</g>
<!-- Node24 -->
<g id="Node000024" class="node">
<title>Node24</title>
<g id="a_Node000024"><a xlink:title=" ">
<polygon fill="#e0e0e0" stroke="#999999" points="1365,-129 1318,-129 1318,-110 1365,-110 1365,-129"/>
<text text-anchor="middle" x="1341.5" y="-117" font-family="Helvetica,sans-Serif" font-size="10.00">vector</text>
</a>
</g>
</g>
<!-- Node22&#45;&gt;Node24 -->
<g id="edge29_Node000022_Node000024" class="edge">
<title>Node22&#45;&gt;Node24</title>
<g id="a_edge29_Node000022_Node000024"><a xlink:title=" ">
<path fill="none" stroke="#63b8ff" d="M1341.5,-164.75C1341.5,-157.8 1341.5,-147.85 1341.5,-139.13"/>
<polygon fill="#63b8ff" stroke="#63b8ff" points="1345,-139.09 1341.5,-129.09 1338,-139.09 1345,-139.09"/>
</a>
</g>
</g>
<!-- Node25 -->
<g id="Node000025" class="node">
<title>Node25</title>
<g id="a_Node000025"><a xlink:title=" ">
<polygon fill="#e0e0e0" stroke="#999999" points="1551,-129 1500,-129 1500,-110 1551,-110 1551,-129"/>
<text text-anchor="middle" x="1525.5" y="-117" font-family="Helvetica,sans-Serif" font-size="10.00">variant</text>
</a>
</g>
</g>
<!-- Node22&#45;&gt;Node25 -->
<g id="edge30_Node000022_Node000025" class="edge">
<title>Node22&#45;&gt;Node25</title>
<g id="a_edge30_Node000022_Node000025"><a xlink:title=" ">
<path fill="none" stroke="#63b8ff" d="M1365.18,-166.68C1396.85,-157.56 1453.27,-141.3 1490.03,-130.72"/>
<polygon fill="#63b8ff" stroke="#63b8ff" points="1491.2,-134.02 1499.84,-127.89 1489.27,-127.29 1491.2,-134.02"/>
</a>
</g>
</g>
<!-- Node26 -->
<g id="Node000026" class="node">
<title>Node26</title>
<g id="a_Node000026"><a xlink:title=" ">
<polygon fill="#e0e0e0" stroke="#999999" points="1627.5,-129 1569.5,-129 1569.5,-110 1627.5,-110 1627.5,-129"/>
<text text-anchor="middle" x="1598.5" y="-117" font-family="Helvetica,sans-Serif" font-size="10.00">memory</text>
</a>
</g>
</g>
<!-- Node22&#45;&gt;Node26 -->
<g id="edge31_Node000022_Node000026" class="edge">
<title>Node22&#45;&gt;Node26</title>
<g id="a_edge31_Node000022_Node000026"><a xlink:title=" ">
<path fill="none" stroke="#63b8ff" d="M1365.19,-168.84C1403.75,-161.23 1482.72,-145.5 1559.61,-129.16"/>
<polygon fill="#63b8ff" stroke="#63b8ff" points="1560.42,-132.56 1569.47,-127.06 1558.96,-125.72 1560.42,-132.56"/>
</a>
</g>
</g>
<!-- Node28 -->
<g id="Node000028" class="node">
<title>Node28</title>
<g id="a_Node000028"><a xlink:title=" ">
<polygon fill="#e0e0e0" stroke="#999999" points="461.5,-129 405.5,-129 405.5,-110 461.5,-110 461.5,-129"/>
<text text-anchor="middle" x="433.5" y="-117" font-family="Helvetica,sans-Serif" font-size="10.00">sstream</text>
</a>
</g>
</g>
<!-- Node27&#45;&gt;Node28 -->
<g id="edge33_Node000027_Node000028" class="edge">
<title>Node27&#45;&gt;Node28</title>
<g id="a_edge33_Node000027_Node000028"><a xlink:title=" ">
<path fill="none" stroke="#63b8ff" d="M454.37,-164.75C450.99,-157.57 446.08,-147.18 441.88,-138.27"/>
<polygon fill="#63b8ff" stroke="#63b8ff" points="444.98,-136.64 437.55,-129.09 438.65,-139.63 444.98,-136.64"/>
</a>
</g>
</g>
<!-- Node29 -->
<g id="Node000029" class="node">
<title>Node29</title>
<g id="a_Node000029"><a xlink:title=" ">
<polygon fill="#e0e0e0" stroke="#999999" points="387,-129 322,-129 322,-110 387,-110 387,-129"/>
<text text-anchor="middle" x="354.5" y="-117" font-family="Helvetica,sans-Serif" font-size="10.00">stdexcept</text>
</a>
</g>
</g>
<!-- Node27&#45;&gt;Node29 -->
<g id="edge34_Node000027_Node000029" class="edge">
<title>Node27&#45;&gt;Node29</title>
<g id="a_edge34_Node000027_Node000029"><a xlink:title=" ">
<path fill="none" stroke="#63b8ff" d="M441.79,-164.98C425.29,-156.57 399.8,-143.59 380.62,-133.81"/>
<polygon fill="#63b8ff" stroke="#63b8ff" points="382.01,-130.59 371.51,-129.17 378.83,-136.83 382.01,-130.59"/>
</a>
</g>
</g>
<!-- Node30&#45;&gt;Node3 -->
<g id="edge47_Node000030_Node000003" class="edge">
<title>Node30&#45;&gt;Node3</title>
<g id="a_edge47_Node000030_Node000003"><a xlink:title=" ">
<path fill="none" stroke="#63b8ff" d="M570.51,-393.29C677.85,-391.81 1030.34,-380.33 1090.5,-294 1104.63,-273.72 1077.72,-255.16 1053.49,-243.41"/>
<polygon fill="#63b8ff" stroke="#63b8ff" points="1054.63,-240.08 1044.08,-239.1 1051.72,-246.45 1054.63,-240.08"/>
</a>
</g>
</g>
<!-- Node30&#45;&gt;Node9 -->
<g id="edge54_Node000030_Node000009" class="edge">
<title>Node30&#45;&gt;Node9</title>
<g id="a_edge54_Node000030_Node000009"><a xlink:title=" ">
<path fill="none" stroke="#63b8ff" d="M508.34,-393.63C442.15,-392.09 293.5,-378.32 293.5,-285.5 293.5,-285.5 293.5,-285.5 293.5,-173.5 293.5,-144.04 292.29,-131.43 312.5,-110 367.92,-51.23 622.52,-22.02 713.26,-13.34"/>
<polygon fill="#63b8ff" stroke="#63b8ff" points="713.62,-16.83 723.25,-12.41 712.97,-9.86 713.62,-16.83"/>
</a>
</g>
</g>
<!-- Node30&#45;&gt;Node11 -->
<g id="edge53_Node000030_Node000011" class="edge">
<title>Node30&#45;&gt;Node11</title>
<g id="a_edge53_Node000030_Node000011"><a xlink:title=" ">
<path fill="none" stroke="#63b8ff" d="M539.5,-384.82C539.5,-366.48 539.5,-322.44 539.5,-285.5 539.5,-285.5 539.5,-285.5 539.5,-228.5 539.5,-197.19 539.5,-160.77 539.5,-139.23"/>
<polygon fill="#63b8ff" stroke="#63b8ff" points="543,-139.18 539.5,-129.18 536,-139.18 543,-139.18"/>
</a>
</g>
</g>
<!-- Node30&#45;&gt;Node22 -->
<g id="edge46_Node000030_Node000022" class="edge">
<title>Node30&#45;&gt;Node22</title>
<g id="a_edge46_Node000030_Node000022"><a xlink:title=" ">
<path fill="none" stroke="#63b8ff" d="M570.71,-392.76C690.64,-389.71 1117.94,-376.97 1171.5,-349 1236.78,-314.91 1221.25,-269.81 1275.5,-220 1288.2,-208.34 1304.19,-197.48 1317.25,-189.41"/>
<polygon fill="#63b8ff" stroke="#63b8ff" points="1319.39,-192.2 1326.15,-184.05 1315.78,-186.21 1319.39,-192.2"/>
</a>
</g>
</g>
<!-- Node30&#45;&gt;Node24 -->
<g id="edge55_Node000030_Node000024" class="edge">
<title>Node30&#45;&gt;Node24</title>
<g id="a_edge55_Node000030_Node000024"><a xlink:title=" ">
<path fill="none" stroke="#63b8ff" d="M570.69,-392.11C664.02,-387.74 940,-373.06 1026.5,-349 1088.84,-331.66 1157.5,-350.2 1157.5,-285.5 1157.5,-285.5 1157.5,-285.5 1157.5,-228.5 1157.5,-193.96 1255.14,-152.43 1308.16,-132.43"/>
<polygon fill="#63b8ff" stroke="#63b8ff" points="1309.67,-135.6 1317.82,-128.83 1307.23,-129.04 1309.67,-135.6"/>
</a>
</g>
</g>
<!-- Node30&#45;&gt;Node27 -->
<g id="edge51_Node000030_Node000027" class="edge">
<title>Node30&#45;&gt;Node27</title>
<g id="a_edge51_Node000030_Node000027"><a xlink:title=" ">
<path fill="none" stroke="#63b8ff" d="M536.32,-384.95C524.38,-352.81 481.99,-238.72 465.31,-193.83"/>
<polygon fill="#63b8ff" stroke="#63b8ff" points="468.51,-192.38 461.74,-184.22 461.94,-194.82 468.51,-192.38"/>
</a>
</g>
</g>
<!-- Node31 -->
<g id="Node000031" class="node">
<title>Node31</title>
<g id="a_Node000031"><a xlink:href="Authorizer_8h.html" target="_top" xlink:title="Class for handling authorization information.">
<polygon fill="white" stroke="#666666" points="932,-349 857,-349 857,-330 932,-330 932,-349"/>
<text text-anchor="middle" x="894.5" y="-337" font-family="Helvetica,sans-Serif" font-size="10.00">Authorizer.h</text>
</a>
</g>
</g>
<!-- Node30&#45;&gt;Node31 -->
<g id="edge38_Node000030_Node000031" class="edge">
<title>Node30&#45;&gt;Node31</title>
<g id="a_edge38_Node000030_Node000031"><a xlink:title=" ">
<path fill="none" stroke="#63b8ff" d="M570.69,-388.84C632.99,-379.54 773.13,-358.62 846.95,-347.6"/>
<polygon fill="#63b8ff" stroke="#63b8ff" points="847.54,-351.05 856.91,-346.11 846.51,-344.13 847.54,-351.05"/>
</a>
</g>
</g>
<!-- Node35 -->
<g id="Node000035" class="node">
<title>Node35</title>
<g id="a_Node000035"><a xlink:href="ILanguagePack_8h.html" target="_top" xlink:title="Interface for language packs.">
<polygon fill="white" stroke="#666666" points="304.5,-74 206.5,-74 206.5,-55 304.5,-55 304.5,-74"/>
<text text-anchor="middle" x="255.5" y="-62" font-family="Helvetica,sans-Serif" font-size="10.00">ILanguagePack.h</text>
</a>
</g>
</g>
<!-- Node30&#45;&gt;Node35 -->
<g id="edge48_Node000030_Node000035" class="edge">
<title>Node30&#45;&gt;Node35</title>
<g id="a_edge48_Node000030_Node000035"><a xlink:title=" ">
<path fill="none" stroke="#63b8ff" d="M508.12,-391.96C446.77,-388.36 313.95,-377.4 279.5,-349 256.22,-329.81 255.5,-315.67 255.5,-285.5 255.5,-285.5 255.5,-285.5 255.5,-173.5 255.5,-142.19 255.5,-105.77 255.5,-84.23"/>
<polygon fill="#63b8ff" stroke="#63b8ff" points="259,-84.18 255.5,-74.18 252,-84.18 259,-84.18"/>
</a>
</g>
</g>
<!-- Node36 -->
<g id="Node000036" class="node">
<title>Node36</title>
<g id="a_Node000036"><a xlink:title=" ">
<polygon fill="#e0e0e0" stroke="#999999" points="81,-349 0,-349 0,-330 81,-330 81,-349"/>
<text text-anchor="middle" x="40.5" y="-337" font-family="Helvetica,sans-Serif" font-size="10.00">vdk/signals.h</text>
</a>
</g>
</g>
<!-- Node30&#45;&gt;Node36 -->
<g id="edge52_Node000030_Node000036" class="edge">
<title>Node30&#45;&gt;Node36</title>
<g id="a_edge52_Node000030_Node000036"><a xlink:title=" ">
<path fill="none" stroke="#63b8ff" d="M508.39,-391.17C436.78,-385.64 254.61,-370.65 91.35,-349.02"/>
<polygon fill="#63b8ff" stroke="#63b8ff" points="91.5,-345.51 81.12,-347.65 90.57,-352.44 91.5,-345.51"/>
</a>
</g>
</g>
<!-- Node37 -->
<g id="Node000037" class="node">
<title>Node37</title>
<g id="a_Node000037"><a xlink:title=" ">
<polygon fill="#e0e0e0" stroke="#999999" points="161.5,-349 99.5,-349 99.5,-330 161.5,-330 161.5,-349"/>
<text text-anchor="middle" x="130.5" y="-337" font-family="Helvetica,sans-Serif" font-size="10.00">coroutine</text>
</a>
</g>
</g>
<!-- Node30&#45;&gt;Node37 -->
<g id="edge56_Node000030_Node000037" class="edge">
<title>Node30&#45;&gt;Node37</title>
<g id="a_edge56_Node000030_Node000037"><a xlink:title=" ">
<path fill="none" stroke="#63b8ff" d="M508.26,-390.68C446.14,-384.88 302.48,-370.44 172.06,-349.13"/>
<polygon fill="#63b8ff" stroke="#63b8ff" points="172.33,-345.63 161.89,-347.45 171.19,-352.53 172.33,-345.63"/>
</a>
</g>
</g>
<!-- Node38 -->
<g id="Node000038" class="node">
<title>Node38</title>
<g id="a_Node000038"><a xlink:title=" ">
<polygon fill="#e0e0e0" stroke="#999999" points="227.5,-349 179.5,-349 179.5,-330 227.5,-330 227.5,-349"/>
<text text-anchor="middle" x="203.5" y="-337" font-family="Helvetica,sans-Serif" font-size="10.00">mutex</text>
</a>
</g>
</g>
<!-- Node30&#45;&gt;Node38 -->
<g id="edge57_Node000030_Node000038" class="edge">
<title>Node30&#45;&gt;Node38</title>
<g id="a_edge57_Node000030_Node000038"><a xlink:title=" ">
<path fill="none" stroke="#63b8ff" d="M508.49,-389.62C454.19,-382.65 338.44,-367.06 241.5,-349 240.23,-348.76 238.94,-348.51 237.63,-348.26"/>
<polygon fill="#63b8ff" stroke="#63b8ff" points="238.07,-344.77 227.57,-346.16 236.64,-351.63 238.07,-344.77"/>
</a>
</g>
</g>
<!-- Node31&#45;&gt;Node17 -->
<g id="edge44_Node000031_Node000017" class="edge">
<title>Node31&#45;&gt;Node17</title>
<g id="a_edge44_Node000031_Node000017"><a xlink:title=" ">
<path fill="none" stroke="#63b8ff" d="M881.69,-329.69C870.84,-321.6 855.63,-308.66 846.5,-294 830.93,-268.99 827.5,-259.96 827.5,-230.5 827.5,-230.5 827.5,-230.5 827.5,-173.5 827.5,-142.19 827.5,-105.77 827.5,-84.23"/>
<polygon fill="#63b8ff" stroke="#63b8ff" points="831,-84.18 827.5,-74.18 824,-84.18 831,-84.18"/>
</a>
</g>
</g>
<!-- Node32 -->
<g id="Node000032" class="node">
<title>Node32</title>
<g id="a_Node000032"><a xlink:href="IAuthorizer_8h.html" target="_top" xlink:title="Interface for the Authorizer class.">
<polygon fill="white" stroke="#666666" points="933.5,-294 855.5,-294 855.5,-275 933.5,-275 933.5,-294"/>
<text text-anchor="middle" x="894.5" y="-282" font-family="Helvetica,sans-Serif" font-size="10.00">IAuthorizer.h</text>
</a>
</g>
</g>
<!-- Node31&#45;&gt;Node32 -->
<g id="edge39_Node000031_Node000032" class="edge">
<title>Node31&#45;&gt;Node32</title>
<g id="a_edge39_Node000031_Node000032"><a xlink:title=" ">
<path fill="none" stroke="#63b8ff" d="M894.5,-329.75C894.5,-322.8 894.5,-312.85 894.5,-304.13"/>
<polygon fill="#63b8ff" stroke="#63b8ff" points="898,-304.09 894.5,-294.09 891,-304.09 898,-304.09"/>
</a>
</g>
</g>
<!-- Node33 -->
<g id="Node000033" class="node">
<title>Node33</title>
<g id="a_Node000033"><a xlink:title=" ">
<polygon fill="#e0e0e0" stroke="#999999" points="1081.5,-294 1001.5,-294 1001.5,-275 1081.5,-275 1081.5,-294"/>
<text text-anchor="middle" x="1041.5" y="-282" font-family="Helvetica,sans-Serif" font-size="10.00">jwt&#45;cpp/jwt.h</text>
</a>
</g>
</g>
<!-- Node31&#45;&gt;Node33 -->
<g id="edge43_Node000031_Node000033" class="edge">
<title>Node31&#45;&gt;Node33</title>
<g id="a_edge43_Node000031_Node000033"><a xlink:title=" ">
<path fill="none" stroke="#63b8ff" d="M918.12,-329.98C942.4,-321.23 980.45,-307.51 1007.87,-297.62"/>
<polygon fill="#63b8ff" stroke="#63b8ff" points="1009.23,-300.85 1017.45,-294.17 1006.86,-294.27 1009.23,-300.85"/>
</a>
</g>
</g>
<!-- Node34 -->
<g id="Node000034" class="node">
<title>Node34</title>
<g id="a_Node000034"><a xlink:title=" ">
<polygon fill="#e0e0e0" stroke="#999999" points="983.5,-294 951.5,-294 951.5,-275 983.5,-275 983.5,-294"/>
<text text-anchor="middle" x="967.5" y="-282" font-family="Helvetica,sans-Serif" font-size="10.00">set</text>
</a>
</g>
</g>
<!-- Node31&#45;&gt;Node34 -->
<g id="edge45_Node000031_Node000034" class="edge">
<title>Node31&#45;&gt;Node34</title>
<g id="a_edge45_Node000031_Node000034"><a xlink:title=" ">
<path fill="none" stroke="#63b8ff" d="M906.23,-329.98C917.23,-322 933.92,-309.88 947.1,-300.31"/>
<polygon fill="#63b8ff" stroke="#63b8ff" points="949.52,-302.88 955.56,-294.17 945.41,-297.21 949.52,-302.88"/>
</a>
</g>
</g>
<!-- Node32&#45;&gt;Node3 -->
<g id="edge40_Node000032_Node000003" class="edge">
<title>Node32&#45;&gt;Node3</title>
<g id="a_edge40_Node000032_Node000003"><a xlink:title=" ">
<path fill="none" stroke="#63b8ff" d="M914.9,-274.98C935.52,-266.38 967.61,-252.99 991.19,-243.15"/>
<polygon fill="#63b8ff" stroke="#63b8ff" points="992.84,-246.25 1000.72,-239.17 990.15,-239.79 992.84,-246.25"/>
</a>
</g>
</g>
<!-- Node32&#45;&gt;Node4 -->
<g id="edge42_Node000032_Node000004" class="edge">
<title>Node32&#45;&gt;Node4</title>
<g id="a_edge42_Node000032_Node000004"><a xlink:title=" ">
<path fill="none" stroke="#63b8ff" d="M884.27,-274.66C863.01,-256.3 813.84,-213.81 787.29,-190.87"/>
<polygon fill="#63b8ff" stroke="#63b8ff" points="789.38,-188.05 779.52,-184.16 784.8,-193.34 789.38,-188.05"/>
</a>
</g>
</g>
<!-- Node32&#45;&gt;Node15 -->
<g id="edge41_Node000032_Node000015" class="edge">
<title>Node32&#45;&gt;Node15</title>
<g id="a_edge41_Node000032_Node000015"><a xlink:title=" ">
<path fill="none" stroke="#63b8ff" d="M898.1,-274.66C905.29,-257.01 921.56,-217.09 931.11,-193.64"/>
<polygon fill="#63b8ff" stroke="#63b8ff" points="934.44,-194.74 934.97,-184.16 927.96,-192.1 934.44,-194.74"/>
</a>
</g>
</g>
<!-- Node35&#45;&gt;Node8 -->
<g id="edge50_Node000035_Node000008" class="edge">
<title>Node35&#45;&gt;Node8</title>
<g id="a_edge50_Node000035_Node000008"><a xlink:title=" ">
<path fill="none" stroke="#63b8ff" d="M267.87,-54.98C279.59,-46.92 297.42,-34.65 311.39,-25.03"/>
<polygon fill="#63b8ff" stroke="#63b8ff" points="313.65,-27.72 319.9,-19.17 309.68,-21.96 313.65,-27.72"/>
</a>
</g>
</g>
<!-- Node35&#45;&gt;Node9 -->
<g id="edge49_Node000035_Node000009" class="edge">
<title>Node35&#45;&gt;Node9</title>
<g id="a_edge49_Node000035_Node000009"><a xlink:title=" ">
<path fill="none" stroke="#63b8ff" d="M304.73,-58.18C404.82,-47.35 629.66,-23.03 713.33,-13.98"/>
<polygon fill="#63b8ff" stroke="#63b8ff" points="713.93,-17.44 723.49,-12.88 713.17,-10.48 713.93,-17.44"/>
</a>
</g>
</g>
</g>
</svg>
