<?xml version="1.0" encoding="UTF-8" standalone="no"?>
<!DOCTYPE svg PUBLIC "-//W3C//DTD SVG 1.1//EN"
 "http://www.w3.org/Graphics/SVG/1.1/DTD/svg11.dtd">
<!-- Generated by graphviz version 2.43.0 (0)
 -->
<!-- Title: /home/runner/work/Catena/Catena/sdks/cpp/common/include/ParamVisitor.h Pages: 1 -->
<svg width="1344pt" height="544pt"
 viewBox="0.00 0.00 1344.00 544.00" xmlns="http://www.w3.org/2000/svg" xmlns:xlink="http://www.w3.org/1999/xlink">
<g id="graph0" class="graph" transform="scale(1 1) rotate(0) translate(4 540)">
<title>/home/runner/work/Catena/Catena/sdks/cpp/common/include/ParamVisitor.h</title>
<!-- Node1 -->
<g id="Node000001" class="node">
<title>Node1</title>
<g id="a_Node000001"><a xlink:title="Implements Catena ParamVisitor.">
<polygon fill="#999999" stroke="#666666" points="667,-536 521,-536 521,-495 667,-495 667,-536"/>
<text text-anchor="start" x="529" y="-524" font-family="Helvetica,sans-Serif" font-size="10.00">/home/runner/work/Catena</text>
<text text-anchor="start" x="529" y="-513" font-family="Helvetica,sans-Serif" font-size="10.00">/Catena/sdks/cpp/common</text>
<text text-anchor="middle" x="594" y="-502" font-family="Helvetica,sans-Serif" font-size="10.00">/include/ParamVisitor.h</text>
</a>
</g>
</g>
<!-- Node2 -->
<g id="Node000002" class="node">
<title>Node2</title>
<g id="a_Node000002"><a xlink:href="IParamVisitor_8h.html" target="_top" xlink:title="Implements Catena IParamVisitor.">
<polygon fill="white" stroke="#666666" points="639,-459 549,-459 549,-440 639,-440 639,-459"/>
<text text-anchor="middle" x="594" y="-447" font-family="Helvetica,sans-Serif" font-size="10.00">IParamVisitor.h</text>
</a>
</g>
</g>
<!-- Node1&#45;&gt;Node2 -->
<g id="edge1_Node000001_Node000002" class="edge">
<title>Node1&#45;&gt;Node2</title>
<g id="a_edge1_Node000001_Node000002"><a xlink:title=" ">
<path fill="none" stroke="#63b8ff" d="M594,-494.95C594,-486.85 594,-477.5 594,-469.47"/>
<polygon fill="#63b8ff" stroke="#63b8ff" points="597.5,-469.26 594,-459.26 590.5,-469.26 597.5,-469.26"/>
</a>
</g>
</g>
<!-- Node25 -->
<g id="Node000025" class="node">
<title>Node25</title>
<g id="a_Node000025"><a xlink:href="Path_8h.html" target="_top" xlink:title="Handles Path objects used to uniquely identify and access OIDs.">
<polygon fill="white" stroke="#666666" points="252.5,-184 205.5,-184 205.5,-165 252.5,-165 252.5,-184"/>
<text text-anchor="middle" x="229" y="-172" font-family="Helvetica,sans-Serif" font-size="10.00">Path.h</text>
</a>
</g>
</g>
<!-- Node1&#45;&gt;Node25 -->
<g id="edge60_Node000001_Node000025" class="edge">
<title>Node1&#45;&gt;Node25</title>
<g id="a_edge60_Node000001_Node000025"><a xlink:title=" ">
<path fill="none" stroke="#63b8ff" d="M520.55,-507.94C404.31,-495.51 191,-463.44 191,-395.5 191,-395.5 191,-395.5 191,-283.5 191,-250.02 207.45,-213.84 218.7,-193.01"/>
<polygon fill="#63b8ff" stroke="#63b8ff" points="221.87,-194.53 223.72,-184.1 215.76,-191.1 221.87,-194.53"/>
</a>
</g>
</g>
<!-- Node30 -->
<g id="Node000030" class="node">
<title>Node30</title>
<g id="a_Node000030"><a xlink:href="IDevice_8h.html" target="_top" xlink:title="Interface for the Device class.">
<polygon fill="white" stroke="#666666" points="698,-404 636,-404 636,-385 698,-385 698,-404"/>
<text text-anchor="middle" x="667" y="-392" font-family="Helvetica,sans-Serif" font-size="10.00">IDevice.h</text>
</a>
</g>
</g>
<!-- Node1&#45;&gt;Node30 -->
<g id="edge61_Node000001_Node000030" class="edge">
<title>Node1&#45;&gt;Node30</title>
<g id="a_edge61_Node000001_Node000030"><a xlink:title=" ">
<path fill="none" stroke="#63b8ff" d="M617.7,-494.92C628.27,-485.1 640.1,-472.45 648,-459 656.12,-445.19 661.02,-427.62 663.81,-414.46"/>
<polygon fill="#63b8ff" stroke="#63b8ff" points="667.33,-414.72 665.74,-404.24 660.45,-413.42 667.33,-414.72"/>
</a>
</g>
</g>
<!-- Node3 -->
<g id="Node000003" class="node">
<title>Node3</title>
<g id="a_Node000003"><a xlink:href="IParam_8h.html" target="_top" xlink:title="Interface for parameters.">
<polygon fill="white" stroke="#666666" points="836.5,-239 777.5,-239 777.5,-220 836.5,-220 836.5,-239"/>
<text text-anchor="middle" x="807" y="-227" font-family="Helvetica,sans-Serif" font-size="10.00">IParam.h</text>
</a>
</g>
</g>
<!-- Node2&#45;&gt;Node3 -->
<g id="edge2_Node000002_Node000003" class="edge">
<title>Node2&#45;&gt;Node3</title>
<g id="a_edge2_Node000002_Node000003"><a xlink:title=" ">
<path fill="none" stroke="#63b8ff" d="M593.74,-439.74C593.57,-418.61 595.87,-364.04 622,-330 627.4,-322.97 731.42,-269.17 781.06,-243.74"/>
<polygon fill="#63b8ff" stroke="#63b8ff" points="782.91,-246.72 790.22,-239.05 779.72,-240.49 782.91,-246.72"/>
</a>
</g>
</g>
<!-- Node2&#45;&gt;Node25 -->
<g id="edge37_Node000002_Node000025" class="edge">
<title>Node2&#45;&gt;Node25</title>
<g id="a_edge37_Node000002_Node000025"><a xlink:title=" ">
<path fill="none" stroke="#63b8ff" d="M548.88,-444.71C451.22,-435.26 229,-406.5 229,-340.5 229,-340.5 229,-340.5 229,-283.5 229,-252.19 229,-215.77 229,-194.23"/>
<polygon fill="#63b8ff" stroke="#63b8ff" points="232.5,-194.18 229,-184.18 225.5,-194.18 232.5,-194.18"/>
</a>
</g>
</g>
<!-- Node2&#45;&gt;Node30 -->
<g id="edge38_Node000002_Node000030" class="edge">
<title>Node2&#45;&gt;Node30</title>
<g id="a_edge38_Node000002_Node000030"><a xlink:title=" ">
<path fill="none" stroke="#63b8ff" d="M605.73,-439.98C616.73,-432 633.42,-419.88 646.6,-410.31"/>
<polygon fill="#63b8ff" stroke="#63b8ff" points="649.02,-412.88 655.06,-404.17 644.91,-407.21 649.02,-412.88"/>
</a>
</g>
</g>
<!-- Node4 -->
<g id="Node000004" class="node">
<title>Node4</title>
<g id="a_Node000004"><a xlink:href="Enums_8h.html" target="_top" xlink:title="Tools for using EnumDecorators.">
<polygon fill="white" stroke="#666666" points="643.5,-184 584.5,-184 584.5,-165 643.5,-165 643.5,-184"/>
<text text-anchor="middle" x="614" y="-172" font-family="Helvetica,sans-Serif" font-size="10.00">Enums.h</text>
</a>
</g>
</g>
<!-- Node3&#45;&gt;Node4 -->
<g id="edge3_Node000003_Node000004" class="edge">
<title>Node3&#45;&gt;Node4</title>
<g id="a_edge3_Node000003_Node000004"><a xlink:title=" ">
<path fill="none" stroke="#63b8ff" d="M777.27,-220.33C744.12,-211.23 690.34,-196.46 653.64,-186.38"/>
<polygon fill="#63b8ff" stroke="#63b8ff" points="654.34,-182.95 643.77,-183.67 652.48,-189.7 654.34,-182.95"/>
</a>
</g>
</g>
<!-- Node12 -->
<g id="Node000012" class="node">
<title>Node12</title>
<g id="a_Node000012"><a xlink:href="IConstraint_8h.html" target="_top" xlink:title="Interface for constraints.">
<polygon fill="white" stroke="#666666" points="997.5,-184 918.5,-184 918.5,-165 997.5,-165 997.5,-184"/>
<text text-anchor="middle" x="958" y="-172" font-family="Helvetica,sans-Serif" font-size="10.00">IConstraint.h</text>
</a>
</g>
</g>
<!-- Node3&#45;&gt;Node12 -->
<g id="edge12_Node000003_Node000012" class="edge">
<title>Node3&#45;&gt;Node12</title>
<g id="a_edge12_Node000003_Node000012"><a xlink:title=" ">
<path fill="none" stroke="#63b8ff" d="M831.26,-219.98C856.32,-211.19 895.63,-197.39 923.83,-187.49"/>
<polygon fill="#63b8ff" stroke="#63b8ff" points="925.02,-190.78 933.3,-184.17 922.7,-184.18 925.02,-190.78"/>
</a>
</g>
</g>
<!-- Node13 -->
<g id="Node000013" class="node">
<title>Node13</title>
<g id="a_Node000013"><a xlink:title=" ">
<polygon fill="#e0e0e0" stroke="#999999" points="992.5,-129 873.5,-129 873.5,-110 992.5,-110 992.5,-129"/>
<text text-anchor="middle" x="933" y="-117" font-family="Helvetica,sans-Serif" font-size="10.00">interface/param.pb.h</text>
</a>
</g>
</g>
<!-- Node3&#45;&gt;Node13 -->
<g id="edge36_Node000003_Node000013" class="edge">
<title>Node3&#45;&gt;Node13</title>
<g id="a_edge36_Node000003_Node000013"><a xlink:title=" ">
<path fill="none" stroke="#63b8ff" d="M821.04,-219.84C834.39,-211.35 854.78,-197.73 871,-184 888.53,-169.16 906.67,-150.07 918.76,-136.72"/>
<polygon fill="#63b8ff" stroke="#63b8ff" points="921.4,-139.02 925.45,-129.23 916.18,-134.35 921.4,-139.02"/>
</a>
</g>
</g>
<!-- Node15 -->
<g id="Node000015" class="node">
<title>Node15</title>
<g id="a_Node000015"><a xlink:href="IParamDescriptor_8h.html" target="_top" xlink:title="Interface class for ParamDescriptor.">
<polygon fill="white" stroke="#666666" points="861.5,-184 752.5,-184 752.5,-165 861.5,-165 861.5,-184"/>
<text text-anchor="middle" x="807" y="-172" font-family="Helvetica,sans-Serif" font-size="10.00">IParamDescriptor.h</text>
</a>
</g>
</g>
<!-- Node3&#45;&gt;Node15 -->
<g id="edge15_Node000003_Node000015" class="edge">
<title>Node3&#45;&gt;Node15</title>
<g id="a_edge15_Node000003_Node000015"><a xlink:title=" ">
<path fill="none" stroke="#63b8ff" d="M807,-219.75C807,-212.8 807,-202.85 807,-194.13"/>
<polygon fill="#63b8ff" stroke="#63b8ff" points="810.5,-194.09 807,-184.09 803.5,-194.09 810.5,-194.09"/>
</a>
</g>
</g>
<!-- Node22 -->
<g id="Node000022" class="node">
<title>Node22</title>
<g id="a_Node000022"><a xlink:href="Status_8h.html" target="_top" xlink:title="Communicates failure status using gRPC&#39;s codes.">
<polygon fill="white" stroke="#666666" points="1259,-129 1203,-129 1203,-110 1259,-110 1259,-129"/>
<text text-anchor="middle" x="1231" y="-117" font-family="Helvetica,sans-Serif" font-size="10.00">Status.h</text>
</a>
</g>
</g>
<!-- Node3&#45;&gt;Node22 -->
<g id="edge35_Node000003_Node000022" class="edge">
<title>Node3&#45;&gt;Node22</title>
<g id="a_edge35_Node000003_Node000022"><a xlink:title=" ">
<path fill="none" stroke="#63b8ff" d="M836.61,-222.47C875.76,-214.36 946.82,-199.21 1007,-184 1072.81,-167.37 1148.66,-145.23 1193.07,-131.97"/>
<polygon fill="#63b8ff" stroke="#63b8ff" points="1194.28,-135.26 1202.85,-129.04 1192.27,-128.56 1194.28,-135.26"/>
</a>
</g>
</g>
<!-- Node3&#45;&gt;Node25 -->
<g id="edge29_Node000003_Node000025" class="edge">
<title>Node3&#45;&gt;Node25</title>
<g id="a_edge29_Node000003_Node000025"><a xlink:title=" ">
<path fill="none" stroke="#63b8ff" d="M777.14,-225.76C679.02,-216.76 366.84,-188.14 262.97,-178.62"/>
<polygon fill="#63b8ff" stroke="#63b8ff" points="263.03,-175.11 252.75,-177.68 262.39,-182.08 263.03,-175.11"/>
</a>
</g>
</g>
<!-- Node5 -->
<g id="Node000005" class="node">
<title>Node5</title>
<g id="a_Node000005"><a xlink:href="EnumDecorator_8h.html" target="_top" xlink:title="Provides an enum with useful extra functionality.">
<polygon fill="white" stroke="#666666" points="686,-129 542,-129 542,-110 686,-110 686,-129"/>
<text text-anchor="middle" x="614" y="-117" font-family="Helvetica,sans-Serif" font-size="10.00">patterns/EnumDecorator.h</text>
</a>
</g>
</g>
<!-- Node4&#45;&gt;Node5 -->
<g id="edge4_Node000004_Node000005" class="edge">
<title>Node4&#45;&gt;Node5</title>
<g id="a_edge4_Node000004_Node000005"><a xlink:title=" ">
<path fill="none" stroke="#63b8ff" d="M614,-164.75C614,-157.8 614,-147.85 614,-139.13"/>
<polygon fill="#63b8ff" stroke="#63b8ff" points="617.5,-139.09 614,-129.09 610.5,-139.09 617.5,-139.09"/>
</a>
</g>
</g>
<!-- Node7 -->
<g id="Node000007" class="node">
<title>Node7</title>
<g id="a_Node000007"><a xlink:title=" ">
<polygon fill="#e0e0e0" stroke="#999999" points="539,-74 489,-74 489,-55 539,-55 539,-74"/>
<text text-anchor="middle" x="514" y="-62" font-family="Helvetica,sans-Serif" font-size="10.00">cstdint</text>
</a>
</g>
</g>
<!-- Node4&#45;&gt;Node7 -->
<g id="edge11_Node000004_Node000007" class="edge">
<title>Node4&#45;&gt;Node7</title>
<g id="a_edge11_Node000004_Node000007"><a xlink:title=" ">
<path fill="none" stroke="#63b8ff" d="M587.49,-164.98C569.69,-157.98 547.02,-146.35 533,-129 522.72,-116.27 518,-98.09 515.83,-84.45"/>
<polygon fill="#63b8ff" stroke="#63b8ff" points="519.27,-83.75 514.55,-74.27 512.32,-84.63 519.27,-83.75"/>
</a>
</g>
</g>
<!-- Node11 -->
<g id="Node000011" class="node">
<title>Node11</title>
<g id="a_Node000011"><a xlink:title=" ">
<polygon fill="#e0e0e0" stroke="#999999" points="485.5,-129 366.5,-129 366.5,-110 485.5,-110 485.5,-129"/>
<text text-anchor="middle" x="426" y="-117" font-family="Helvetica,sans-Serif" font-size="10.00">interface/device.pb.h</text>
</a>
</g>
</g>
<!-- Node4&#45;&gt;Node11 -->
<g id="edge10_Node000004_Node000011" class="edge">
<title>Node4&#45;&gt;Node11</title>
<g id="a_edge10_Node000004_Node000011"><a xlink:title=" ">
<path fill="none" stroke="#63b8ff" d="M584.21,-165.1C552.36,-156.12 501.67,-141.83 466.27,-131.85"/>
<polygon fill="#63b8ff" stroke="#63b8ff" points="466.85,-128.38 456.27,-129.03 464.95,-135.12 466.85,-128.38"/>
</a>
</g>
</g>
<!-- Node6 -->
<g id="Node000006" class="node">
<title>Node6</title>
<g id="a_Node000006"><a xlink:href="ReflectionMacros_8h.html" target="_top" xlink:title="adapted from https://github.com/tapika/TestCppReflect">
<polygon fill="white" stroke="#666666" points="793,-74 683,-74 683,-55 793,-55 793,-74"/>
<text text-anchor="middle" x="738" y="-62" font-family="Helvetica,sans-Serif" font-size="10.00">ReflectionMacros.h</text>
</a>
</g>
</g>
<!-- Node5&#45;&gt;Node6 -->
<g id="edge5_Node000005_Node000006" class="edge">
<title>Node5&#45;&gt;Node6</title>
<g id="a_edge5_Node000005_Node000006"><a xlink:title=" ">
<path fill="none" stroke="#63b8ff" d="M633.92,-109.98C654.05,-101.38 685.38,-87.99 708.41,-78.15"/>
<polygon fill="#63b8ff" stroke="#63b8ff" points="709.9,-81.32 717.71,-74.17 707.14,-74.88 709.9,-81.32"/>
</a>
</g>
</g>
<!-- Node5&#45;&gt;Node7 -->
<g id="edge6_Node000005_Node000007" class="edge">
<title>Node5&#45;&gt;Node7</title>
<g id="a_edge6_Node000005_Node000007"><a xlink:title=" ">
<path fill="none" stroke="#63b8ff" d="M597.93,-109.98C582.14,-101.61 557.78,-88.7 539.37,-78.95"/>
<polygon fill="#63b8ff" stroke="#63b8ff" points="540.83,-75.76 530.36,-74.17 537.56,-81.95 540.83,-75.76"/>
</a>
</g>
</g>
<!-- Node8 -->
<g id="Node000008" class="node">
<title>Node8</title>
<g id="a_Node000008"><a xlink:title=" ">
<polygon fill="#e0e0e0" stroke="#999999" points="1134.5,-19 1041.5,-19 1041.5,0 1134.5,0 1134.5,-19"/>
<text text-anchor="middle" x="1088" y="-7" font-family="Helvetica,sans-Serif" font-size="10.00">unordered_map</text>
</a>
</g>
</g>
<!-- Node5&#45;&gt;Node8 -->
<g id="edge7_Node000005_Node000008" class="edge">
<title>Node5&#45;&gt;Node8</title>
<g id="a_edge7_Node000005_Node000008"><a xlink:title=" ">
<path fill="none" stroke="#63b8ff" d="M686.17,-110.09C776.81,-99.34 923.5,-81.26 948,-74 966.87,-68.41 970.12,-63.22 988,-55 1011.89,-44.01 1039.16,-31.9 1059.19,-23.1"/>
<polygon fill="#63b8ff" stroke="#63b8ff" points="1060.64,-26.28 1068.39,-19.05 1057.83,-19.87 1060.64,-26.28"/>
</a>
</g>
</g>
<!-- Node9 -->
<g id="Node000009" class="node">
<title>Node9</title>
<g id="a_Node000009"><a xlink:title=" ">
<polygon fill="#e0e0e0" stroke="#999999" points="712,-19 668,-19 668,0 712,0 712,-19"/>
<text text-anchor="middle" x="690" y="-7" font-family="Helvetica,sans-Serif" font-size="10.00">string</text>
</a>
</g>
</g>
<!-- Node5&#45;&gt;Node9 -->
<g id="edge8_Node000005_Node000009" class="edge">
<title>Node5&#45;&gt;Node9</title>
<g id="a_edge8_Node000005_Node000009"><a xlink:title=" ">
<path fill="none" stroke="#63b8ff" d="M604.9,-109.82C592.75,-97.14 574.06,-73.1 586,-55 601.8,-31.05 633.45,-19.94 657.71,-14.82"/>
<polygon fill="#63b8ff" stroke="#63b8ff" points="658.39,-18.25 667.58,-12.97 657.11,-11.37 658.39,-18.25"/>
</a>
</g>
</g>
<!-- Node10 -->
<g id="Node000010" class="node">
<title>Node10</title>
<g id="a_Node000010"><a xlink:title=" ">
<polygon fill="#e0e0e0" stroke="#999999" points="664.5,-74 595.5,-74 595.5,-55 664.5,-55 664.5,-74"/>
<text text-anchor="middle" x="630" y="-62" font-family="Helvetica,sans-Serif" font-size="10.00">type_traits</text>
</a>
</g>
</g>
<!-- Node5&#45;&gt;Node10 -->
<g id="edge9_Node000005_Node000010" class="edge">
<title>Node5&#45;&gt;Node10</title>
<g id="a_edge9_Node000005_Node000010"><a xlink:title=" ">
<path fill="none" stroke="#63b8ff" d="M616.64,-109.75C618.76,-102.72 621.81,-92.62 624.46,-83.84"/>
<polygon fill="#63b8ff" stroke="#63b8ff" points="627.87,-84.67 627.41,-74.09 621.17,-82.65 627.87,-84.67"/>
</a>
</g>
</g>
<!-- Node12&#45;&gt;Node13 -->
<g id="edge13_Node000012_Node000013" class="edge">
<title>Node12&#45;&gt;Node13</title>
<g id="a_edge13_Node000012_Node000013"><a xlink:title=" ">
<path fill="none" stroke="#63b8ff" d="M953.87,-164.75C950.49,-157.57 945.58,-147.18 941.38,-138.27"/>
<polygon fill="#63b8ff" stroke="#63b8ff" points="944.48,-136.64 937.05,-129.09 938.15,-139.63 944.48,-136.64"/>
</a>
</g>
</g>
<!-- Node14 -->
<g id="Node000014" class="node">
<title>Node14</title>
<g id="a_Node000014"><a xlink:title=" ">
<polygon fill="#e0e0e0" stroke="#999999" points="1147,-129 1011,-129 1011,-110 1147,-110 1147,-129"/>
<text text-anchor="middle" x="1079" y="-117" font-family="Helvetica,sans-Serif" font-size="10.00">interface/constraint.pb.h</text>
</a>
</g>
</g>
<!-- Node12&#45;&gt;Node14 -->
<g id="edge14_Node000012_Node000014" class="edge">
<title>Node12&#45;&gt;Node14</title>
<g id="a_edge14_Node000012_Node000014"><a xlink:title=" ">
<path fill="none" stroke="#63b8ff" d="M977.44,-164.98C996.99,-156.42 1027.38,-143.11 1049.82,-133.28"/>
<polygon fill="#63b8ff" stroke="#63b8ff" points="1051.45,-136.39 1059.21,-129.17 1048.64,-129.98 1051.45,-136.39"/>
</a>
</g>
</g>
<!-- Node15&#45;&gt;Node13 -->
<g id="edge28_Node000015_Node000013" class="edge">
<title>Node15&#45;&gt;Node13</title>
<g id="a_edge28_Node000015_Node000013"><a xlink:title=" ">
<path fill="none" stroke="#63b8ff" d="M827.24,-164.98C847.7,-156.38 879.53,-142.99 902.93,-133.15"/>
<polygon fill="#63b8ff" stroke="#63b8ff" points="904.53,-136.27 912.39,-129.17 901.81,-129.82 904.53,-136.27"/>
</a>
</g>
</g>
<!-- Node16 -->
<g id="Node000016" class="node">
<title>Node16</title>
<g id="a_Node000016"><a xlink:href="Tags_8h.html" target="_top" xlink:title="Tags to differentiate collections with the same type for template specialization.">
<polygon fill="white" stroke="#666666" points="855.5,-129 808.5,-129 808.5,-110 855.5,-110 855.5,-129"/>
<text text-anchor="middle" x="832" y="-117" font-family="Helvetica,sans-Serif" font-size="10.00">Tags.h</text>
</a>
</g>
</g>
<!-- Node15&#45;&gt;Node16 -->
<g id="edge16_Node000015_Node000016" class="edge">
<title>Node15&#45;&gt;Node16</title>
<g id="a_edge16_Node000015_Node000016"><a xlink:title=" ">
<path fill="none" stroke="#63b8ff" d="M811.13,-164.75C814.51,-157.57 819.42,-147.18 823.62,-138.27"/>
<polygon fill="#63b8ff" stroke="#63b8ff" points="826.85,-139.63 827.95,-129.09 820.52,-136.64 826.85,-139.63"/>
</a>
</g>
</g>
<!-- Node18 -->
<g id="Node000018" class="node">
<title>Node18</title>
<g id="a_Node000018"><a xlink:href="PolyglotText_8h.html" target="_top" xlink:title="Polyglot Text serialization and deserialization to protobuf.">
<polygon fill="white" stroke="#666666" points="790,-129 704,-129 704,-110 790,-110 790,-129"/>
<text text-anchor="middle" x="747" y="-117" font-family="Helvetica,sans-Serif" font-size="10.00">PolyglotText.h</text>
</a>
</g>
</g>
<!-- Node15&#45;&gt;Node18 -->
<g id="edge19_Node000015_Node000018" class="edge">
<title>Node15&#45;&gt;Node18</title>
<g id="a_edge19_Node000015_Node000018"><a xlink:title=" ">
<path fill="none" stroke="#63b8ff" d="M797.36,-164.98C788.49,-157.15 775.13,-145.34 764.39,-135.86"/>
<polygon fill="#63b8ff" stroke="#63b8ff" points="766.63,-133.17 756.82,-129.17 761.99,-138.41 766.63,-133.17"/>
</a>
</g>
</g>
<!-- Node15&#45;&gt;Node22 -->
<g id="edge25_Node000015_Node000022" class="edge">
<title>Node15&#45;&gt;Node22</title>
<g id="a_edge25_Node000015_Node000022"><a xlink:title=" ">
<path fill="none" stroke="#63b8ff" d="M861.56,-166.68C948.72,-155.79 1117.2,-134.72 1192.74,-125.28"/>
<polygon fill="#63b8ff" stroke="#63b8ff" points="1193.27,-128.74 1202.76,-124.03 1192.4,-121.8 1193.27,-128.74"/>
</a>
</g>
</g>
<!-- Node16&#45;&gt;Node9 -->
<g id="edge18_Node000016_Node000009" class="edge">
<title>Node16&#45;&gt;Node9</title>
<g id="a_edge18_Node000016_Node000009"><a xlink:title=" ">
<path fill="none" stroke="#63b8ff" d="M830.1,-109.9C826.7,-96.44 818.36,-70.35 802,-55 779.84,-34.2 746.77,-22.68 722.31,-16.6"/>
<polygon fill="#63b8ff" stroke="#63b8ff" points="722.94,-13.15 712.41,-14.32 721.36,-19.98 722.94,-13.15"/>
</a>
</g>
</g>
<!-- Node17 -->
<g id="Node000017" class="node">
<title>Node17</title>
<g id="a_Node000017"><a xlink:title=" ">
<polygon fill="#e0e0e0" stroke="#999999" points="1061.5,-74 996.5,-74 996.5,-55 1061.5,-55 1061.5,-74"/>
<text text-anchor="middle" x="1029" y="-62" font-family="Helvetica,sans-Serif" font-size="10.00">functional</text>
</a>
</g>
</g>
<!-- Node16&#45;&gt;Node17 -->
<g id="edge17_Node000016_Node000017" class="edge">
<title>Node16&#45;&gt;Node17</title>
<g id="a_edge17_Node000016_Node000017"><a xlink:title=" ">
<path fill="none" stroke="#63b8ff" d="M855.76,-112.11C888.4,-103.33 947.61,-87.4 987.61,-76.63"/>
<polygon fill="#63b8ff" stroke="#63b8ff" points="988.6,-79.99 997.34,-74.02 986.78,-73.23 988.6,-79.99"/>
</a>
</g>
</g>
<!-- Node19 -->
<g id="Node000019" class="node">
<title>Node19</title>
<g id="a_Node000019"><a xlink:href="IPolyglotText_8h.html" target="_top" xlink:title="Catena&#39;s multi&#45;language text interface.">
<polygon fill="white" stroke="#666666" points="938.5,-74 849.5,-74 849.5,-55 938.5,-55 938.5,-74"/>
<text text-anchor="middle" x="894" y="-62" font-family="Helvetica,sans-Serif" font-size="10.00">IPolyglotText.h</text>
</a>
</g>
</g>
<!-- Node18&#45;&gt;Node19 -->
<g id="edge20_Node000018_Node000019" class="edge">
<title>Node18&#45;&gt;Node19</title>
<g id="a_edge20_Node000018_Node000019"><a xlink:title=" ">
<path fill="none" stroke="#63b8ff" d="M770.62,-109.98C794.9,-101.23 832.95,-87.51 860.37,-77.62"/>
<polygon fill="#63b8ff" stroke="#63b8ff" points="861.73,-80.85 869.95,-74.17 859.36,-74.27 861.73,-80.85"/>
</a>
</g>
</g>
<!-- Node19&#45;&gt;Node8 -->
<g id="edge22_Node000019_Node000008" class="edge">
<title>Node19&#45;&gt;Node8</title>
<g id="a_edge22_Node000019_Node000008"><a xlink:title=" ">
<path fill="none" stroke="#63b8ff" d="M925.17,-54.98C958.16,-45.97 1010.4,-31.7 1046.77,-21.76"/>
<polygon fill="#63b8ff" stroke="#63b8ff" points="1047.86,-25.09 1056.59,-19.08 1046.02,-18.34 1047.86,-25.09"/>
</a>
</g>
</g>
<!-- Node19&#45;&gt;Node9 -->
<g id="edge23_Node000019_Node000009" class="edge">
<title>Node19&#45;&gt;Node9</title>
<g id="a_edge23_Node000019_Node000009"><a xlink:title=" ">
<path fill="none" stroke="#63b8ff" d="M861.22,-54.98C822.93,-45.03 759.98,-28.68 722.01,-18.82"/>
<polygon fill="#63b8ff" stroke="#63b8ff" points="722.57,-15.34 712.01,-16.22 720.81,-22.12 722.57,-15.34"/>
</a>
</g>
</g>
<!-- Node20 -->
<g id="Node000020" class="node">
<title>Node20</title>
<g id="a_Node000020"><a xlink:title=" ">
<polygon fill="#e0e0e0" stroke="#999999" points="1023,-19 891,-19 891,0 1023,0 1023,-19"/>
<text text-anchor="middle" x="957" y="-7" font-family="Helvetica,sans-Serif" font-size="10.00">interface/language.pb.h</text>
</a>
</g>
</g>
<!-- Node19&#45;&gt;Node20 -->
<g id="edge21_Node000019_Node000020" class="edge">
<title>Node19&#45;&gt;Node20</title>
<g id="a_edge21_Node000019_Node000020"><a xlink:title=" ">
<path fill="none" stroke="#63b8ff" d="M904.12,-54.98C913.44,-47.15 927.47,-35.34 938.74,-25.86"/>
<polygon fill="#63b8ff" stroke="#63b8ff" points="941.29,-28.29 946.69,-19.17 936.79,-22.93 941.29,-28.29"/>
</a>
</g>
</g>
<!-- Node21 -->
<g id="Node000021" class="node">
<title>Node21</title>
<g id="a_Node000021"><a xlink:title=" ">
<polygon fill="#e0e0e0" stroke="#999999" points="872.5,-19 789.5,-19 789.5,0 872.5,0 872.5,-19"/>
<text text-anchor="middle" x="831" y="-7" font-family="Helvetica,sans-Serif" font-size="10.00">initializer_list</text>
</a>
</g>
</g>
<!-- Node19&#45;&gt;Node21 -->
<g id="edge24_Node000019_Node000021" class="edge">
<title>Node19&#45;&gt;Node21</title>
<g id="a_edge24_Node000019_Node000021"><a xlink:title=" ">
<path fill="none" stroke="#63b8ff" d="M883.88,-54.98C874.56,-47.15 860.53,-35.34 849.26,-25.86"/>
<polygon fill="#63b8ff" stroke="#63b8ff" points="851.21,-22.93 841.31,-19.17 846.71,-28.29 851.21,-22.93"/>
</a>
</g>
</g>
<!-- Node23 -->
<g id="Node000023" class="node">
<title>Node23</title>
<g id="a_Node000023"><a xlink:title=" ">
<polygon fill="#e0e0e0" stroke="#999999" points="1136,-74 1080,-74 1080,-55 1136,-55 1136,-74"/>
<text text-anchor="middle" x="1108" y="-62" font-family="Helvetica,sans-Serif" font-size="10.00">sstream</text>
</a>
</g>
</g>
<!-- Node22&#45;&gt;Node23 -->
<g id="edge26_Node000022_Node000023" class="edge">
<title>Node22&#45;&gt;Node23</title>
<g id="a_edge26_Node000022_Node000023"><a xlink:title=" ">
<path fill="none" stroke="#63b8ff" d="M1211.24,-109.98C1191.27,-101.38 1160.2,-87.99 1137.35,-78.15"/>
<polygon fill="#63b8ff" stroke="#63b8ff" points="1138.69,-74.91 1128.12,-74.17 1135.92,-81.34 1138.69,-74.91"/>
</a>
</g>
</g>
<!-- Node24 -->
<g id="Node000024" class="node">
<title>Node24</title>
<g id="a_Node000024"><a xlink:title=" ">
<polygon fill="#e0e0e0" stroke="#999999" points="1219.5,-74 1154.5,-74 1154.5,-55 1219.5,-55 1219.5,-74"/>
<text text-anchor="middle" x="1187" y="-62" font-family="Helvetica,sans-Serif" font-size="10.00">stdexcept</text>
</a>
</g>
</g>
<!-- Node22&#45;&gt;Node24 -->
<g id="edge27_Node000022_Node000024" class="edge">
<title>Node22&#45;&gt;Node24</title>
<g id="a_edge27_Node000022_Node000024"><a xlink:title=" ">
<path fill="none" stroke="#63b8ff" d="M1223.73,-109.75C1217.46,-102.18 1208.21,-91.05 1200.57,-81.84"/>
<polygon fill="#63b8ff" stroke="#63b8ff" points="1203.21,-79.55 1194.13,-74.09 1197.83,-84.02 1203.21,-79.55"/>
</a>
</g>
</g>
<!-- Node25&#45;&gt;Node9 -->
<g id="edge31_Node000025_Node000009" class="edge">
<title>Node25&#45;&gt;Node9</title>
<g id="a_edge31_Node000025_Node000009"><a xlink:title=" ">
<path fill="none" stroke="#63b8ff" d="M230.66,-164.97C233.5,-152.07 240.25,-127.25 253,-110 276.73,-77.9 287.08,-70.18 324,-55 384.22,-30.24 579.85,-16.73 657.66,-12.23"/>
<polygon fill="#63b8ff" stroke="#63b8ff" points="658.04,-15.71 667.83,-11.65 657.65,-8.72 658.04,-15.71"/>
</a>
</g>
</g>
<!-- Node26 -->
<g id="Node000026" class="node">
<title>Node26</title>
<g id="a_Node000026"><a xlink:title=" ">
<polygon fill="#e0e0e0" stroke="#999999" points="60,-129 0,-129 0,-110 60,-110 60,-129"/>
<text text-anchor="middle" x="30" y="-117" font-family="Helvetica,sans-Serif" font-size="10.00">iostream</text>
</a>
</g>
</g>
<!-- Node25&#45;&gt;Node26 -->
<g id="edge30_Node000025_Node000026" class="edge">
<title>Node25&#45;&gt;Node26</title>
<g id="a_edge30_Node000025_Node000026"><a xlink:title=" ">
<path fill="none" stroke="#63b8ff" d="M205.39,-167.21C171.98,-158.31 110.47,-141.93 69.9,-131.13"/>
<polygon fill="#63b8ff" stroke="#63b8ff" points="70.63,-127.7 60.06,-128.51 68.82,-134.46 70.63,-127.7"/>
</a>
</g>
</g>
<!-- Node27 -->
<g id="Node000027" class="node">
<title>Node27</title>
<g id="a_Node000027"><a xlink:title=" ">
<polygon fill="#e0e0e0" stroke="#999999" points="309.5,-129 262.5,-129 262.5,-110 309.5,-110 309.5,-129"/>
<text text-anchor="middle" x="286" y="-117" font-family="Helvetica,sans-Serif" font-size="10.00">vector</text>
</a>
</g>
</g>
<!-- Node25&#45;&gt;Node27 -->
<g id="edge32_Node000025_Node000027" class="edge">
<title>Node25&#45;&gt;Node27</title>
<g id="a_edge32_Node000025_Node000027"><a xlink:title=" ">
<path fill="none" stroke="#63b8ff" d="M238.16,-164.98C246.5,-157.23 259.03,-145.58 269.18,-136.14"/>
<polygon fill="#63b8ff" stroke="#63b8ff" points="271.74,-138.54 276.68,-129.17 266.97,-133.42 271.74,-138.54"/>
</a>
</g>
</g>
<!-- Node28 -->
<g id="Node000028" class="node">
<title>Node28</title>
<g id="a_Node000028"><a xlink:title=" ">
<polygon fill="#e0e0e0" stroke="#999999" points="129.5,-129 78.5,-129 78.5,-110 129.5,-110 129.5,-129"/>
<text text-anchor="middle" x="104" y="-117" font-family="Helvetica,sans-Serif" font-size="10.00">variant</text>
</a>
</g>
</g>
<!-- Node25&#45;&gt;Node28 -->
<g id="edge33_Node000025_Node000028" class="edge">
<title>Node25&#45;&gt;Node28</title>
<g id="a_edge33_Node000025_Node000028"><a xlink:title=" ">
<path fill="none" stroke="#63b8ff" d="M208.92,-164.98C188.63,-156.38 157.04,-142.99 133.83,-133.15"/>
<polygon fill="#63b8ff" stroke="#63b8ff" points="135.02,-129.85 124.45,-129.17 132.29,-136.3 135.02,-129.85"/>
</a>
</g>
</g>
<!-- Node29 -->
<g id="Node000029" class="node">
<title>Node29</title>
<g id="a_Node000029"><a xlink:title=" ">
<polygon fill="#e0e0e0" stroke="#999999" points="206,-129 148,-129 148,-110 206,-110 206,-129"/>
<text text-anchor="middle" x="177" y="-117" font-family="Helvetica,sans-Serif" font-size="10.00">memory</text>
</a>
</g>
</g>
<!-- Node25&#45;&gt;Node29 -->
<g id="edge34_Node000025_Node000029" class="edge">
<title>Node25&#45;&gt;Node29</title>
<g id="a_edge34_Node000025_Node000029"><a xlink:title=" ">
<path fill="none" stroke="#63b8ff" d="M220.41,-164.75C212.84,-157.03 201.62,-145.6 192.49,-136.28"/>
<polygon fill="#63b8ff" stroke="#63b8ff" points="194.93,-133.78 185.43,-129.09 189.93,-138.68 194.93,-133.78"/>
</a>
</g>
</g>
<!-- Node30&#45;&gt;Node3 -->
<g id="edge48_Node000030_Node000003" class="edge">
<title>Node30&#45;&gt;Node3</title>
<g id="a_edge48_Node000030_Node000003"><a xlink:title=" ">
<path fill="none" stroke="#63b8ff" d="M698.38,-391.22C749.47,-386.79 847.08,-375.06 868,-349 894.52,-315.97 851.92,-269.58 825.49,-245.83"/>
<polygon fill="#63b8ff" stroke="#63b8ff" points="827.74,-243.15 817.9,-239.23 823.15,-248.43 827.74,-243.15"/>
</a>
</g>
</g>
<!-- Node30&#45;&gt;Node9 -->
<g id="edge56_Node000030_Node000009" class="edge">
<title>Node30&#45;&gt;Node9</title>
<g id="a_edge56_Node000030_Node000009"><a xlink:title=" ">
<path fill="none" stroke="#63b8ff" d="M635.93,-389.89C554.84,-379.61 343,-346.87 343,-285.5 343,-285.5 343,-285.5 343,-228.5 343,-175.47 325.59,-152.73 357,-110 393.27,-60.67 581.33,-27.02 657.7,-15.19"/>
<polygon fill="#63b8ff" stroke="#63b8ff" points="658.35,-18.63 667.71,-13.67 657.3,-11.71 658.35,-18.63"/>
</a>
</g>
</g>
<!-- Node30&#45;&gt;Node11 -->
<g id="edge55_Node000030_Node000011" class="edge">
<title>Node30&#45;&gt;Node11</title>
<g id="a_edge55_Node000030_Node000011"><a xlink:title=" ">
<path fill="none" stroke="#63b8ff" d="M635.84,-393.73C569.23,-392.41 419,-379.07 419,-285.5 419,-285.5 419,-285.5 419,-228.5 419,-197.12 421.98,-160.73 424.05,-139.21"/>
<polygon fill="#63b8ff" stroke="#63b8ff" points="427.54,-139.47 425.06,-129.17 420.58,-138.77 427.54,-139.47"/>
</a>
</g>
</g>
<!-- Node30&#45;&gt;Node22 -->
<g id="edge53_Node000030_Node000022" class="edge">
<title>Node30&#45;&gt;Node22</title>
<g id="a_edge53_Node000030_Node000022"><a xlink:title=" ">
<path fill="none" stroke="#63b8ff" d="M698.03,-394.11C814.91,-395.61 1222,-393.11 1222,-285.5 1222,-285.5 1222,-285.5 1222,-228.5 1222,-197.08 1225.83,-160.7 1228.49,-139.2"/>
<polygon fill="#63b8ff" stroke="#63b8ff" points="1231.98,-139.52 1229.79,-129.16 1225.04,-138.63 1231.98,-139.52"/>
</a>
</g>
</g>
<!-- Node30&#45;&gt;Node25 -->
<g id="edge47_Node000030_Node000025" class="edge">
<title>Node30&#45;&gt;Node25</title>
<g id="a_edge47_Node000030_Node000025"><a xlink:title=" ">
<path fill="none" stroke="#63b8ff" d="M635.93,-393.9C555.67,-394.3 344.02,-391.24 291,-349 284.63,-343.92 249.13,-237.04 234.9,-193.61"/>
<polygon fill="#63b8ff" stroke="#63b8ff" points="238.21,-192.45 231.77,-184.03 231.55,-194.63 238.21,-192.45"/>
</a>
</g>
</g>
<!-- Node30&#45;&gt;Node27 -->
<g id="edge57_Node000030_Node000027" class="edge">
<title>Node30&#45;&gt;Node27</title>
<g id="a_edge57_Node000030_Node000027"><a xlink:title=" ">
<path fill="none" stroke="#63b8ff" d="M635.87,-393.37C561.48,-392.45 376.14,-386.36 329,-349 305.35,-330.26 305,-315.67 305,-285.5 305,-285.5 305,-285.5 305,-228.5 305,-196.56 296.84,-160.1 291.22,-138.77"/>
<polygon fill="#63b8ff" stroke="#63b8ff" points="294.58,-137.81 288.56,-129.09 287.83,-139.66 294.58,-137.81"/>
</a>
</g>
</g>
<!-- Node31 -->
<g id="Node000031" class="node">
<title>Node31</title>
<g id="a_Node000031"><a xlink:href="Authorizer_8h.html" target="_top" xlink:title="Class for handling authorization information.">
<polygon fill="white" stroke="#666666" points="574.5,-349 499.5,-349 499.5,-330 574.5,-330 574.5,-349"/>
<text text-anchor="middle" x="537" y="-337" font-family="Helvetica,sans-Serif" font-size="10.00">Authorizer.h</text>
</a>
</g>
</g>
<!-- Node30&#45;&gt;Node31 -->
<g id="edge39_Node000030_Node000031" class="edge">
<title>Node30&#45;&gt;Node31</title>
<g id="a_edge39_Node000030_Node000031"><a xlink:title=" ">
<path fill="none" stroke="#63b8ff" d="M646.11,-384.98C624.92,-376.34 591.87,-362.87 567.7,-353.02"/>
<polygon fill="#63b8ff" stroke="#63b8ff" points="568.85,-349.7 558.27,-349.17 566.21,-356.19 568.85,-349.7"/>
</a>
</g>
</g>
<!-- Node35 -->
<g id="Node000035" class="node">
<title>Node35</title>
<g id="a_Node000035"><a xlink:href="ILanguagePack_8h.html" target="_top" xlink:title="Interface class for language packs.">
<polygon fill="white" stroke="#666666" points="1336,-74 1238,-74 1238,-55 1336,-55 1336,-74"/>
<text text-anchor="middle" x="1287" y="-62" font-family="Helvetica,sans-Serif" font-size="10.00">ILanguagePack.h</text>
</a>
</g>
</g>
<!-- Node30&#45;&gt;Node35 -->
<g id="edge49_Node000030_Node000035" class="edge">
<title>Node30&#45;&gt;Node35</title>
<g id="a_edge49_Node000030_Node000035"><a xlink:title=" ">
<path fill="none" stroke="#63b8ff" d="M698.33,-392.89C796.96,-390.65 1099.95,-381.24 1192,-349 1239.93,-332.21 1287,-336.29 1287,-285.5 1287,-285.5 1287,-285.5 1287,-173.5 1287,-142.19 1287,-105.77 1287,-84.23"/>
<polygon fill="#63b8ff" stroke="#63b8ff" points="1290.5,-84.18 1287,-74.18 1283.5,-84.18 1290.5,-84.18"/>
</a>
</g>
</g>
<!-- Node36 -->
<g id="Node000036" class="node">
<title>Node36</title>
<g id="a_Node000036"><a xlink:title=" ">
<polygon fill="#e0e0e0" stroke="#999999" points="712.5,-349 631.5,-349 631.5,-330 712.5,-330 712.5,-349"/>
<text text-anchor="middle" x="672" y="-337" font-family="Helvetica,sans-Serif" font-size="10.00">vdk/signals.h</text>
</a>
</g>
</g>
<!-- Node30&#45;&gt;Node36 -->
<g id="edge54_Node000030_Node000036" class="edge">
<title>Node30&#45;&gt;Node36</title>
<g id="a_edge54_Node000030_Node000036"><a xlink:title=" ">
<path fill="none" stroke="#63b8ff" d="M667.83,-384.75C668.48,-377.8 669.42,-367.85 670.24,-359.13"/>
<polygon fill="#63b8ff" stroke="#63b8ff" points="673.73,-359.37 671.19,-349.09 666.77,-358.72 673.73,-359.37"/>
</a>
</g>
</g>
<!-- Node37 -->
<g id="Node000037" class="node">
<title>Node37</title>
<g id="a_Node000037"><a xlink:title=" ">
<polygon fill="#e0e0e0" stroke="#999999" points="793,-349 731,-349 731,-330 793,-330 793,-349"/>
<text text-anchor="middle" x="762" y="-337" font-family="Helvetica,sans-Serif" font-size="10.00">coroutine</text>
</a>
</g>
</g>
<!-- Node30&#45;&gt;Node37 -->
<g id="edge58_Node000030_Node000037" class="edge">
<title>Node30&#45;&gt;Node37</title>
<g id="a_edge58_Node000030_Node000037"><a xlink:title=" ">
<path fill="none" stroke="#63b8ff" d="M682.26,-384.98C697.13,-376.69 719.98,-363.94 737.42,-354.22"/>
<polygon fill="#63b8ff" stroke="#63b8ff" points="739.43,-357.1 746.46,-349.17 736.02,-350.99 739.43,-357.1"/>
</a>
</g>
</g>
<!-- Node38 -->
<g id="Node000038" class="node">
<title>Node38</title>
<g id="a_Node000038"><a xlink:title=" ">
<polygon fill="#e0e0e0" stroke="#999999" points="859,-349 811,-349 811,-330 859,-330 859,-349"/>
<text text-anchor="middle" x="835" y="-337" font-family="Helvetica,sans-Serif" font-size="10.00">mutex</text>
</a>
</g>
</g>
<!-- Node30&#45;&gt;Node38 -->
<g id="edge59_Node000030_Node000038" class="edge">
<title>Node30&#45;&gt;Node38</title>
<g id="a_edge59_Node000030_Node000038"><a xlink:title=" ">
<path fill="none" stroke="#63b8ff" d="M693.99,-384.98C723.12,-375.8 769.56,-361.15 801.12,-351.19"/>
<polygon fill="#63b8ff" stroke="#63b8ff" points="802.32,-354.48 810.8,-348.13 800.21,-347.8 802.32,-354.48"/>
</a>
</g>
</g>
<!-- Node31&#45;&gt;Node17 -->
<g id="edge45_Node000031_Node000017" class="edge">
<title>Node31&#45;&gt;Node17</title>
<g id="a_edge45_Node000031_Node000017"><a xlink:title=" ">
<path fill="none" stroke="#63b8ff" d="M574.53,-334.15C711.29,-318.04 1175,-261.15 1175,-230.5 1175,-230.5 1175,-230.5 1175,-173.5 1175,-144.04 1176.34,-131.31 1156,-110 1144.1,-97.53 1103.74,-84.66 1071.67,-75.98"/>
<polygon fill="#63b8ff" stroke="#63b8ff" points="1072.16,-72.49 1061.59,-73.32 1070.37,-79.26 1072.16,-72.49"/>
</a>
</g>
</g>
<!-- Node32 -->
<g id="Node000032" class="node">
<title>Node32</title>
<g id="a_Node000032"><a xlink:href="IAuthorizer_8h.html" target="_top" xlink:title="Interface for the Authorizer class.">
<polygon fill="white" stroke="#666666" points="673,-294 595,-294 595,-275 673,-275 673,-294"/>
<text text-anchor="middle" x="634" y="-282" font-family="Helvetica,sans-Serif" font-size="10.00">IAuthorizer.h</text>
</a>
</g>
</g>
<!-- Node31&#45;&gt;Node32 -->
<g id="edge40_Node000031_Node000032" class="edge">
<title>Node31&#45;&gt;Node32</title>
<g id="a_edge40_Node000031_Node000032"><a xlink:title=" ">
<path fill="none" stroke="#63b8ff" d="M552.58,-329.98C567.77,-321.69 591.1,-308.94 608.9,-299.22"/>
<polygon fill="#63b8ff" stroke="#63b8ff" points="611.03,-302.04 618.13,-294.17 607.68,-295.89 611.03,-302.04"/>
</a>
</g>
</g>
<!-- Node33 -->
<g id="Node000033" class="node">
<title>Node33</title>
<g id="a_Node000033"><a xlink:title=" ">
<polygon fill="#e0e0e0" stroke="#999999" points="577,-294 497,-294 497,-275 577,-275 577,-294"/>
<text text-anchor="middle" x="537" y="-282" font-family="Helvetica,sans-Serif" font-size="10.00">jwt&#45;cpp/jwt.h</text>
</a>
</g>
</g>
<!-- Node31&#45;&gt;Node33 -->
<g id="edge44_Node000031_Node000033" class="edge">
<title>Node31&#45;&gt;Node33</title>
<g id="a_edge44_Node000031_Node000033"><a xlink:title=" ">
<path fill="none" stroke="#63b8ff" d="M537,-329.75C537,-322.8 537,-312.85 537,-304.13"/>
<polygon fill="#63b8ff" stroke="#63b8ff" points="540.5,-304.09 537,-294.09 533.5,-304.09 540.5,-304.09"/>
</a>
</g>
</g>
<!-- Node34 -->
<g id="Node000034" class="node">
<title>Node34</title>
<g id="a_Node000034"><a xlink:title=" ">
<polygon fill="#e0e0e0" stroke="#999999" points="479,-294 447,-294 447,-275 479,-275 479,-294"/>
<text text-anchor="middle" x="463" y="-282" font-family="Helvetica,sans-Serif" font-size="10.00">set</text>
</a>
</g>
</g>
<!-- Node31&#45;&gt;Node34 -->
<g id="edge46_Node000031_Node000034" class="edge">
<title>Node31&#45;&gt;Node34</title>
<g id="a_edge46_Node000031_Node000034"><a xlink:title=" ">
<path fill="none" stroke="#63b8ff" d="M525.11,-329.98C513.85,-321.92 496.71,-309.65 483.29,-300.03"/>
<polygon fill="#63b8ff" stroke="#63b8ff" points="485.27,-297.15 475.11,-294.17 481.2,-302.84 485.27,-297.15"/>
</a>
</g>
</g>
<!-- Node32&#45;&gt;Node3 -->
<g id="edge41_Node000032_Node000003" class="edge">
<title>Node32&#45;&gt;Node3</title>
<g id="a_edge41_Node000032_Node000003"><a xlink:title=" ">
<path fill="none" stroke="#63b8ff" d="M661.8,-274.98C690.97,-266.05 737,-251.94 769.4,-242.02"/>
<polygon fill="#63b8ff" stroke="#63b8ff" points="770.45,-245.36 778.99,-239.08 768.4,-238.66 770.45,-245.36"/>
</a>
</g>
</g>
<!-- Node32&#45;&gt;Node4 -->
<g id="edge43_Node000032_Node000004" class="edge">
<title>Node32&#45;&gt;Node4</title>
<g id="a_edge43_Node000032_Node000004"><a xlink:title=" ">
<path fill="none" stroke="#63b8ff" d="M632.36,-274.66C629.12,-257.17 621.83,-217.8 617.48,-194.27"/>
<polygon fill="#63b8ff" stroke="#63b8ff" points="620.87,-193.35 615.6,-184.16 613.98,-194.63 620.87,-193.35"/>
</a>
</g>
</g>
<!-- Node32&#45;&gt;Node15 -->
<g id="edge42_Node000032_Node000015" class="edge">
<title>Node32&#45;&gt;Node15</title>
<g id="a_edge42_Node000032_Node000015"><a xlink:title=" ">
<path fill="none" stroke="#63b8ff" d="M647.86,-274.84C677.6,-256.28 747.75,-212.49 784.17,-189.75"/>
<polygon fill="#63b8ff" stroke="#63b8ff" points="786.44,-192.46 793.07,-184.2 782.73,-186.52 786.44,-192.46"/>
</a>
</g>
</g>
<!-- Node35&#45;&gt;Node8 -->
<g id="edge52_Node000035_Node000008" class="edge">
<title>Node35&#45;&gt;Node8</title>
<g id="a_edge52_Node000035_Node000008"><a xlink:title=" ">
<path fill="none" stroke="#63b8ff" d="M1255.03,-54.98C1221.18,-45.97 1167.6,-31.7 1130.29,-21.76"/>
<polygon fill="#63b8ff" stroke="#63b8ff" points="1130.79,-18.27 1120.22,-19.08 1128.99,-25.04 1130.79,-18.27"/>
</a>
</g>
</g>
<!-- Node35&#45;&gt;Node9 -->
<g id="edge51_Node000035_Node000009" class="edge">
<title>Node35&#45;&gt;Node9</title>
<g id="a_edge51_Node000035_Node000009"><a xlink:title=" ">
<path fill="none" stroke="#63b8ff" d="M1237.98,-56.09C1234.95,-55.7 1231.93,-55.33 1229,-55 1030.52,-32.51 980,-36.29 781,-19 761.49,-17.31 739.65,-15.27 722.26,-13.62"/>
<polygon fill="#63b8ff" stroke="#63b8ff" points="722.35,-10.11 712.06,-12.64 721.68,-17.08 722.35,-10.11"/>
</a>
</g>
</g>
<!-- Node35&#45;&gt;Node20 -->
<g id="edge50_Node000035_Node000020" class="edge">
<title>Node35&#45;&gt;Node20</title>
<g id="a_edge50_Node000035_Node000020"><a xlink:title=" ">
<path fill="none" stroke="#63b8ff" d="M1237.95,-55.62C1180.01,-46.32 1083.48,-30.81 1020.04,-20.62"/>
<polygon fill="#63b8ff" stroke="#63b8ff" points="1020.58,-17.17 1010.15,-19.04 1019.47,-24.08 1020.58,-17.17"/>
</a>
</g>
</g>
</g>
</svg>
