<?xml version="1.0" encoding="UTF-8" standalone="no"?>
<!DOCTYPE svg PUBLIC "-//W3C//DTD SVG 1.1//EN"
 "http://www.w3.org/Graphics/SVG/1.1/DTD/svg11.dtd">
<!-- Generated by graphviz version 2.43.0 (0)
 -->
<!-- Title: /home/runner/work/Catena/Catena/sdks/cpp/common/include/ParamDescriptor.h Pages: 1 -->
<svg width="1362pt" height="489pt"
 viewBox="0.00 0.00 1362.00 489.00" xmlns="http://www.w3.org/2000/svg" xmlns:xlink="http://www.w3.org/1999/xlink">
<g id="graph0" class="graph" transform="scale(1 1) rotate(0) translate(4 485)">
<title>/home/runner/work/Catena/Catena/sdks/cpp/common/include/ParamDescriptor.h</title>
<!-- Node1 -->
<g id="Node000001" class="node">
<title>Node1</title>
<g id="a_Node000001"><a xlink:title="Interface for accessing parameter descriptions.">
<polygon fill="#999999" stroke="#666666" points="436.5,-481 289.5,-481 289.5,-440 436.5,-440 436.5,-481"/>
<text text-anchor="start" x="297.5" y="-469" font-family="Helvetica,sans-Serif" font-size="10.00">/home/runner/work/Catena</text>
<text text-anchor="start" x="297.5" y="-458" font-family="Helvetica,sans-Serif" font-size="10.00">/Catena/sdks/cpp/common</text>
<text text-anchor="middle" x="363" y="-447" font-family="Helvetica,sans-Serif" font-size="10.00">/include/ParamDescriptor.h</text>
</a>
</g>
</g>
<!-- Node2 -->
<g id="Node000002" class="node">
<title>Node2</title>
<g id="a_Node000002"><a xlink:href="Tags_8h.html" target="_top" xlink:title="Tags to differentiate collections with the same type for template specialization.">
<polygon fill="white" stroke="#666666" points="113.5,-129 66.5,-129 66.5,-110 113.5,-110 113.5,-129"/>
<text text-anchor="middle" x="90" y="-117" font-family="Helvetica,sans-Serif" font-size="10.00">Tags.h</text>
</a>
</g>
</g>
<!-- Node1&#45;&gt;Node2 -->
<g id="edge1_Node000001_Node000002" class="edge">
<title>Node1&#45;&gt;Node2</title>
<g id="a_edge1_Node000001_Node000002"><a xlink:title=" ">
<path fill="none" stroke="#63b8ff" d="M289.46,-459.38C204.43,-454.91 76,-432.87 76,-340.5 76,-340.5 76,-340.5 76,-228.5 76,-196.93 81.96,-160.59 86.1,-139.14"/>
<polygon fill="#63b8ff" stroke="#63b8ff" points="89.57,-139.62 88.11,-129.13 82.71,-138.24 89.57,-139.62"/>
</a>
</g>
</g>
<!-- Node4 -->
<g id="Node000004" class="node">
<title>Node4</title>
<g id="a_Node000004"><a xlink:title=" ">
<polygon fill="#e0e0e0" stroke="#999999" points="556,-19 512,-19 512,0 556,0 556,-19"/>
<text text-anchor="middle" x="534" y="-7" font-family="Helvetica,sans-Serif" font-size="10.00">string</text>
</a>
</g>
</g>
<!-- Node1&#45;&gt;Node4 -->
<g id="edge63_Node000001_Node000004" class="edge">
<title>Node1&#45;&gt;Node4</title>
<g id="a_edge63_Node000001_Node000004"><a xlink:title=" ">
<path fill="none" stroke="#63b8ff" d="M289.1,-450.49C182.97,-435.44 0,-400.77 0,-340.5 0,-340.5 0,-340.5 0,-118.5 0,-80.87 22.46,-72.06 56,-55 134.24,-15.21 407.32,-10.77 501.66,-10.45"/>
<polygon fill="#63b8ff" stroke="#63b8ff" points="501.75,-13.95 511.74,-10.43 501.74,-6.95 501.75,-13.95"/>
</a>
</g>
</g>
<!-- Node5 -->
<g id="Node000005" class="node">
<title>Node5</title>
<g id="a_Node000005"><a xlink:href="IConstraint_8h.html" target="_top" xlink:title="Interface for constraints.">
<polygon fill="white" stroke="#666666" points="294.5,-184 215.5,-184 215.5,-165 294.5,-165 294.5,-184"/>
<text text-anchor="middle" x="255" y="-172" font-family="Helvetica,sans-Serif" font-size="10.00">IConstraint.h</text>
</a>
</g>
</g>
<!-- Node1&#45;&gt;Node5 -->
<g id="edge4_Node000001_Node000005" class="edge">
<title>Node1&#45;&gt;Node5</title>
<g id="a_edge4_Node000001_Node000005"><a xlink:title=" ">
<path fill="none" stroke="#63b8ff" d="M289.38,-442.19C239.27,-425.54 182,-394.65 182,-340.5 182,-340.5 182,-340.5 182,-283.5 182,-244.97 214.29,-209.92 235.92,-190.77"/>
<polygon fill="#63b8ff" stroke="#63b8ff" points="238.25,-193.38 243.59,-184.23 233.71,-188.05 238.25,-193.38"/>
</a>
</g>
</g>
<!-- Node8 -->
<g id="Node000008" class="node">
<title>Node8</title>
<g id="a_Node000008"><a xlink:href="PolyglotText_8h.html" target="_top" xlink:title="Polyglot Text serialization and deserialization to protobuf.">
<polygon fill="white" stroke="#666666" points="822,-129 736,-129 736,-110 822,-110 822,-129"/>
<text text-anchor="middle" x="779" y="-117" font-family="Helvetica,sans-Serif" font-size="10.00">PolyglotText.h</text>
</a>
</g>
</g>
<!-- Node1&#45;&gt;Node8 -->
<g id="edge7_Node000001_Node000008" class="edge">
<title>Node1&#45;&gt;Node8</title>
<g id="a_edge7_Node000001_Node000008"><a xlink:title=" ">
<path fill="none" stroke="#63b8ff" d="M436.7,-459.5C591.86,-457.52 938,-441.74 938,-340.5 938,-340.5 938,-340.5 938,-228.5 938,-174.76 875.08,-145.89 828.4,-131.87"/>
<polygon fill="#63b8ff" stroke="#63b8ff" points="829.29,-128.49 818.71,-129.1 827.36,-135.22 829.29,-128.49"/>
</a>
</g>
</g>
<!-- Node11 -->
<g id="Node000011" class="node">
<title>Node11</title>
<g id="a_Node000011"><a xlink:title=" ">
<polygon fill="#e0e0e0" stroke="#999999" points="1107.5,-19 1014.5,-19 1014.5,0 1107.5,0 1107.5,-19"/>
<text text-anchor="middle" x="1061" y="-7" font-family="Helvetica,sans-Serif" font-size="10.00">unordered_map</text>
</a>
</g>
</g>
<!-- Node1&#45;&gt;Node11 -->
<g id="edge64_Node000001_Node000011" class="edge">
<title>Node1&#45;&gt;Node11</title>
<g id="a_edge64_Node000001_Node000011"><a xlink:title=" ">
<path fill="none" stroke="#63b8ff" d="M436.82,-458.28C616.55,-454.73 1072.88,-442.13 1220,-404 1283.8,-387.47 1354,-406.4 1354,-340.5 1354,-340.5 1354,-340.5 1354,-118.5 1354,-68.68 1203,-34.73 1117.8,-19.54"/>
<polygon fill="#63b8ff" stroke="#63b8ff" points="1118.2,-16.06 1107.75,-17.78 1117,-22.95 1118.2,-16.06"/>
</a>
</g>
</g>
<!-- Node13 -->
<g id="Node000013" class="node">
<title>Node13</title>
<g id="a_Node000013"><a xlink:href="IParamDescriptor_8h.html" target="_top" xlink:title="Interface class for ParamDescriptor.">
<polygon fill="white" stroke="#666666" points="438.5,-184 329.5,-184 329.5,-165 438.5,-165 438.5,-184"/>
<text text-anchor="middle" x="384" y="-172" font-family="Helvetica,sans-Serif" font-size="10.00">IParamDescriptor.h</text>
</a>
</g>
</g>
<!-- Node1&#45;&gt;Node13 -->
<g id="edge13_Node000001_Node000013" class="edge">
<title>Node1&#45;&gt;Node13</title>
<g id="a_edge13_Node000001_Node000013"><a xlink:title=" ">
<path fill="none" stroke="#63b8ff" d="M328.91,-439.87C298.25,-419.38 258,-384.17 258,-340.5 258,-340.5 258,-340.5 258,-283.5 258,-235.23 311.96,-203.89 349.26,-187.99"/>
<polygon fill="#63b8ff" stroke="#63b8ff" points="350.87,-191.11 358.8,-184.09 348.22,-184.63 350.87,-191.11"/>
</a>
</g>
</g>
<!-- Node17 -->
<g id="Node000017" class="node">
<title>Node17</title>
<g id="a_Node000017"><a xlink:href="IDevice_8h.html" target="_top" xlink:title="Interface for the Device class.">
<polygon fill="white" stroke="#666666" points="804,-404 742,-404 742,-385 804,-385 804,-404"/>
<text text-anchor="middle" x="773" y="-392" font-family="Helvetica,sans-Serif" font-size="10.00">IDevice.h</text>
</a>
</g>
</g>
<!-- Node1&#45;&gt;Node17 -->
<g id="edge20_Node000001_Node000017" class="edge">
<title>Node1&#45;&gt;Node17</title>
<g id="a_edge20_Node000001_Node000017"><a xlink:title=" ">
<path fill="none" stroke="#63b8ff" d="M436.77,-447.98C522.96,-434.53 662.52,-412.75 731.58,-401.97"/>
<polygon fill="#63b8ff" stroke="#63b8ff" points="732.3,-405.4 741.64,-400.4 731.22,-398.48 732.3,-405.4"/>
</a>
</g>
</g>
<!-- Node19 -->
<g id="Node000019" class="node">
<title>Node19</title>
<g id="a_Node000019"><a xlink:href="IAuthorizer_8h.html" target="_top" xlink:title="Interface for the Authorizer class.">
<polygon fill="white" stroke="#666666" points="402,-294 324,-294 324,-275 402,-275 402,-294"/>
<text text-anchor="middle" x="363" y="-282" font-family="Helvetica,sans-Serif" font-size="10.00">IAuthorizer.h</text>
</a>
</g>
</g>
<!-- Node1&#45;&gt;Node19 -->
<g id="edge61_Node000001_Node000019" class="edge">
<title>Node1&#45;&gt;Node19</title>
<g id="a_edge61_Node000001_Node000019"><a xlink:title=" ">
<path fill="none" stroke="#63b8ff" d="M363,-439.88C363,-406.17 363,-337.69 363,-304.45"/>
<polygon fill="#63b8ff" stroke="#63b8ff" points="366.5,-304.27 363,-294.27 359.5,-304.27 366.5,-304.27"/>
</a>
</g>
</g>
<!-- Node29 -->
<g id="Node000029" class="node">
<title>Node29</title>
<g id="a_Node000029"><a xlink:title=" ">
<polygon fill="#e0e0e0" stroke="#999999" points="1287.5,-129 1240.5,-129 1240.5,-110 1287.5,-110 1287.5,-129"/>
<text text-anchor="middle" x="1264" y="-117" font-family="Helvetica,sans-Serif" font-size="10.00">vector</text>
</a>
</g>
</g>
<!-- Node1&#45;&gt;Node29 -->
<g id="edge62_Node000001_Node000029" class="edge">
<title>Node1&#45;&gt;Node29</title>
<g id="a_edge62_Node000001_Node000029"><a xlink:title=" ">
<path fill="none" stroke="#63b8ff" d="M436.59,-458.02C660.13,-452.57 1316,-429.03 1316,-340.5 1316,-340.5 1316,-340.5 1316,-228.5 1316,-193.15 1293.11,-157.16 1277.7,-136.95"/>
<polygon fill="#63b8ff" stroke="#63b8ff" points="1280.4,-134.73 1271.45,-129.06 1274.92,-139.07 1280.4,-134.73"/>
</a>
</g>
</g>
<!-- Node3 -->
<g id="Node000003" class="node">
<title>Node3</title>
<g id="a_Node000003"><a xlink:title=" ">
<polygon fill="#e0e0e0" stroke="#999999" points="179.5,-74 114.5,-74 114.5,-55 179.5,-55 179.5,-74"/>
<text text-anchor="middle" x="147" y="-62" font-family="Helvetica,sans-Serif" font-size="10.00">functional</text>
</a>
</g>
</g>
<!-- Node2&#45;&gt;Node3 -->
<g id="edge2_Node000002_Node000003" class="edge">
<title>Node2&#45;&gt;Node3</title>
<g id="a_edge2_Node000002_Node000003"><a xlink:title=" ">
<path fill="none" stroke="#63b8ff" d="M99.16,-109.98C107.5,-102.23 120.03,-90.58 130.18,-81.14"/>
<polygon fill="#63b8ff" stroke="#63b8ff" points="132.74,-83.54 137.68,-74.17 127.97,-78.42 132.74,-83.54"/>
</a>
</g>
</g>
<!-- Node2&#45;&gt;Node4 -->
<g id="edge3_Node000002_Node000004" class="edge">
<title>Node2&#45;&gt;Node4</title>
<g id="a_edge3_Node000002_Node000004"><a xlink:title=" ">
<path fill="none" stroke="#63b8ff" d="M89.2,-109.97C88.43,-96.13 89.18,-68.91 105,-55 134.68,-28.91 407.16,-15.59 501.8,-11.72"/>
<polygon fill="#63b8ff" stroke="#63b8ff" points="502.07,-15.21 511.92,-11.31 501.79,-8.22 502.07,-15.21"/>
</a>
</g>
</g>
<!-- Node6 -->
<g id="Node000006" class="node">
<title>Node6</title>
<g id="a_Node000006"><a xlink:title=" ">
<polygon fill="#e0e0e0" stroke="#999999" points="443.5,-129 324.5,-129 324.5,-110 443.5,-110 443.5,-129"/>
<text text-anchor="middle" x="384" y="-117" font-family="Helvetica,sans-Serif" font-size="10.00">interface/param.pb.h</text>
</a>
</g>
</g>
<!-- Node5&#45;&gt;Node6 -->
<g id="edge5_Node000005_Node000006" class="edge">
<title>Node5&#45;&gt;Node6</title>
<g id="a_edge5_Node000005_Node000006"><a xlink:title=" ">
<path fill="none" stroke="#63b8ff" d="M275.73,-164.98C296.76,-156.34 329.55,-142.87 353.54,-133.02"/>
<polygon fill="#63b8ff" stroke="#63b8ff" points="354.98,-136.21 362.9,-129.17 352.32,-129.73 354.98,-136.21"/>
</a>
</g>
</g>
<!-- Node7 -->
<g id="Node000007" class="node">
<title>Node7</title>
<g id="a_Node000007"><a xlink:title=" ">
<polygon fill="#e0e0e0" stroke="#999999" points="306,-129 170,-129 170,-110 306,-110 306,-129"/>
<text text-anchor="middle" x="238" y="-117" font-family="Helvetica,sans-Serif" font-size="10.00">interface/constraint.pb.h</text>
</a>
</g>
</g>
<!-- Node5&#45;&gt;Node7 -->
<g id="edge6_Node000005_Node000007" class="edge">
<title>Node5&#45;&gt;Node7</title>
<g id="a_edge6_Node000005_Node000007"><a xlink:title=" ">
<path fill="none" stroke="#63b8ff" d="M252.19,-164.75C249.94,-157.72 246.7,-147.62 243.88,-138.84"/>
<polygon fill="#63b8ff" stroke="#63b8ff" points="247.14,-137.54 240.75,-129.09 240.48,-139.68 247.14,-137.54"/>
</a>
</g>
</g>
<!-- Node9 -->
<g id="Node000009" class="node">
<title>Node9</title>
<g id="a_Node000009"><a xlink:href="IPolyglotText_8h.html" target="_top" xlink:title="Catena&#39;s multi&#45;language text interface.">
<polygon fill="white" stroke="#666666" points="1105.5,-74 1016.5,-74 1016.5,-55 1105.5,-55 1105.5,-74"/>
<text text-anchor="middle" x="1061" y="-62" font-family="Helvetica,sans-Serif" font-size="10.00">IPolyglotText.h</text>
</a>
</g>
</g>
<!-- Node8&#45;&gt;Node9 -->
<g id="edge8_Node000008_Node000009" class="edge">
<title>Node8&#45;&gt;Node9</title>
<g id="a_edge8_Node000008_Node000009"><a xlink:title=" ">
<path fill="none" stroke="#63b8ff" d="M822.14,-110.39C871.56,-101.1 952.65,-85.86 1006.43,-75.76"/>
<polygon fill="#63b8ff" stroke="#63b8ff" points="1007.29,-79.16 1016.47,-73.87 1006,-72.28 1007.29,-79.16"/>
</a>
</g>
</g>
<!-- Node9&#45;&gt;Node4 -->
<g id="edge11_Node000009_Node000004" class="edge">
<title>Node9&#45;&gt;Node4</title>
<g id="a_edge11_Node000009_Node000004"><a xlink:title=" ">
<path fill="none" stroke="#63b8ff" d="M1016.25,-56.82C1011.45,-56.17 1006.62,-55.55 1002,-55 839.02,-35.52 643.29,-19.18 566.84,-13.07"/>
<polygon fill="#63b8ff" stroke="#63b8ff" points="566.69,-9.55 556.45,-12.25 566.14,-16.53 566.69,-9.55"/>
</a>
</g>
</g>
<!-- Node10 -->
<g id="Node000010" class="node">
<title>Node10</title>
<g id="a_Node000010"><a xlink:title=" ">
<polygon fill="#e0e0e0" stroke="#999999" points="1258,-19 1126,-19 1126,0 1258,0 1258,-19"/>
<text text-anchor="middle" x="1192" y="-7" font-family="Helvetica,sans-Serif" font-size="10.00">interface/language.pb.h</text>
</a>
</g>
</g>
<!-- Node9&#45;&gt;Node10 -->
<g id="edge9_Node000009_Node000010" class="edge">
<title>Node9&#45;&gt;Node10</title>
<g id="a_edge9_Node000009_Node000010"><a xlink:title=" ">
<path fill="none" stroke="#63b8ff" d="M1082.05,-54.98C1103.41,-46.34 1136.7,-32.87 1161.06,-23.02"/>
<polygon fill="#63b8ff" stroke="#63b8ff" points="1162.61,-26.17 1170.57,-19.17 1159.99,-19.68 1162.61,-26.17"/>
</a>
</g>
</g>
<!-- Node9&#45;&gt;Node11 -->
<g id="edge10_Node000009_Node000011" class="edge">
<title>Node9&#45;&gt;Node11</title>
<g id="a_edge10_Node000009_Node000011"><a xlink:title=" ">
<path fill="none" stroke="#63b8ff" d="M1061,-54.75C1061,-47.8 1061,-37.85 1061,-29.13"/>
<polygon fill="#63b8ff" stroke="#63b8ff" points="1064.5,-29.09 1061,-19.09 1057.5,-29.09 1064.5,-29.09"/>
</a>
</g>
</g>
<!-- Node12 -->
<g id="Node000012" class="node">
<title>Node12</title>
<g id="a_Node000012"><a xlink:title=" ">
<polygon fill="#e0e0e0" stroke="#999999" points="996.5,-19 913.5,-19 913.5,0 996.5,0 996.5,-19"/>
<text text-anchor="middle" x="955" y="-7" font-family="Helvetica,sans-Serif" font-size="10.00">initializer_list</text>
</a>
</g>
</g>
<!-- Node9&#45;&gt;Node12 -->
<g id="edge12_Node000009_Node000012" class="edge">
<title>Node9&#45;&gt;Node12</title>
<g id="a_edge12_Node000009_Node000012"><a xlink:title=" ">
<path fill="none" stroke="#63b8ff" d="M1043.97,-54.98C1027.07,-46.54 1000.94,-33.47 981.36,-23.68"/>
<polygon fill="#63b8ff" stroke="#63b8ff" points="982.85,-20.51 972.34,-19.17 979.72,-26.77 982.85,-20.51"/>
</a>
</g>
</g>
<!-- Node13&#45;&gt;Node2 -->
<g id="edge14_Node000013_Node000002" class="edge">
<title>Node13&#45;&gt;Node2</title>
<g id="a_edge14_Node000013_Node000002"><a xlink:title=" ">
<path fill="none" stroke="#63b8ff" d="M336.76,-164.98C277.24,-154.25 176.38,-136.07 123.94,-126.62"/>
<polygon fill="#63b8ff" stroke="#63b8ff" points="124.29,-123.12 113.83,-124.8 123.05,-130.01 124.29,-123.12"/>
</a>
</g>
</g>
<!-- Node13&#45;&gt;Node6 -->
<g id="edge19_Node000013_Node000006" class="edge">
<title>Node13&#45;&gt;Node6</title>
<g id="a_edge19_Node000013_Node000006"><a xlink:title=" ">
<path fill="none" stroke="#63b8ff" d="M384,-164.75C384,-157.8 384,-147.85 384,-139.13"/>
<polygon fill="#63b8ff" stroke="#63b8ff" points="387.5,-139.09 384,-129.09 380.5,-139.09 387.5,-139.09"/>
</a>
</g>
</g>
<!-- Node13&#45;&gt;Node8 -->
<g id="edge15_Node000013_Node000008" class="edge">
<title>Node13&#45;&gt;Node8</title>
<g id="a_edge15_Node000013_Node000008"><a xlink:title=" ">
<path fill="none" stroke="#63b8ff" d="M438.73,-166.96C504.44,-158.99 618.25,-144.78 725.83,-129.13"/>
<polygon fill="#63b8ff" stroke="#63b8ff" points="726.5,-132.57 735.89,-127.66 725.49,-125.64 726.5,-132.57"/>
</a>
</g>
</g>
<!-- Node14 -->
<g id="Node000014" class="node">
<title>Node14</title>
<g id="a_Node000014"><a xlink:href="Status_8h.html" target="_top" xlink:title="Communicates failure status using gRPC&#39;s codes.">
<polygon fill="white" stroke="#666666" points="718,-129 662,-129 662,-110 718,-110 718,-129"/>
<text text-anchor="middle" x="690" y="-117" font-family="Helvetica,sans-Serif" font-size="10.00">Status.h</text>
</a>
</g>
</g>
<!-- Node13&#45;&gt;Node14 -->
<g id="edge16_Node000013_Node000014" class="edge">
<title>Node13&#45;&gt;Node14</title>
<g id="a_edge16_Node000013_Node000014"><a xlink:title=" ">
<path fill="none" stroke="#63b8ff" d="M433.16,-164.98C493.95,-154.46 596.14,-136.76 651.53,-127.16"/>
<polygon fill="#63b8ff" stroke="#63b8ff" points="652.37,-130.57 661.63,-125.41 651.18,-123.67 652.37,-130.57"/>
</a>
</g>
</g>
<!-- Node15 -->
<g id="Node000015" class="node">
<title>Node15</title>
<g id="a_Node000015"><a xlink:title=" ">
<polygon fill="#e0e0e0" stroke="#999999" points="808,-74 752,-74 752,-55 808,-55 808,-74"/>
<text text-anchor="middle" x="780" y="-62" font-family="Helvetica,sans-Serif" font-size="10.00">sstream</text>
</a>
</g>
</g>
<!-- Node14&#45;&gt;Node15 -->
<g id="edge17_Node000014_Node000015" class="edge">
<title>Node14&#45;&gt;Node15</title>
<g id="a_edge17_Node000014_Node000015"><a xlink:title=" ">
<path fill="none" stroke="#63b8ff" d="M704.46,-109.98C718.42,-101.77 739.79,-89.18 756.25,-79.49"/>
<polygon fill="#63b8ff" stroke="#63b8ff" points="758.44,-82.26 765.28,-74.17 754.88,-76.23 758.44,-82.26"/>
</a>
</g>
</g>
<!-- Node16 -->
<g id="Node000016" class="node">
<title>Node16</title>
<g id="a_Node000016"><a xlink:title=" ">
<polygon fill="#e0e0e0" stroke="#999999" points="733.5,-74 668.5,-74 668.5,-55 733.5,-55 733.5,-74"/>
<text text-anchor="middle" x="701" y="-62" font-family="Helvetica,sans-Serif" font-size="10.00">stdexcept</text>
</a>
</g>
</g>
<!-- Node14&#45;&gt;Node16 -->
<g id="edge18_Node000014_Node000016" class="edge">
<title>Node14&#45;&gt;Node16</title>
<g id="a_edge18_Node000014_Node000016"><a xlink:title=" ">
<path fill="none" stroke="#63b8ff" d="M691.82,-109.75C693.26,-102.8 695.32,-92.85 697.13,-84.13"/>
<polygon fill="#63b8ff" stroke="#63b8ff" points="700.61,-84.59 699.22,-74.09 693.76,-83.17 700.61,-84.59"/>
</a>
</g>
</g>
<!-- Node17&#45;&gt;Node4 -->
<g id="edge57_Node000017_Node000004" class="edge">
<title>Node17&#45;&gt;Node4</title>
<g id="a_edge57_Node000017_Node000004"><a xlink:title=" ">
<path fill="none" stroke="#63b8ff" d="M741.75,-393.45C675.51,-392.56 516.65,-386.35 390,-349 222.71,-299.66 38,-349.92 38,-175.5 38,-175.5 38,-175.5 38,-118.5 38,-82.02 57.85,-72.24 90,-55 161.34,-16.74 412.14,-11.29 501.82,-10.58"/>
<polygon fill="#63b8ff" stroke="#63b8ff" points="501.95,-14.08 511.93,-10.51 501.91,-7.08 501.95,-14.08"/>
</a>
</g>
</g>
<!-- Node17&#45;&gt;Node14 -->
<g id="edge54_Node000017_Node000014" class="edge">
<title>Node17&#45;&gt;Node14</title>
<g id="a_edge54_Node000017_Node000014"><a xlink:title=" ">
<path fill="none" stroke="#63b8ff" d="M794.29,-384.9C809.9,-377.55 830.49,-365.54 843,-349 860.77,-325.51 862,-314.96 862,-285.5 862,-285.5 862,-285.5 862,-228.5 862,-195.69 771.11,-153.51 721.47,-132.92"/>
<polygon fill="#63b8ff" stroke="#63b8ff" points="722.71,-129.65 712.13,-129.1 720.06,-136.13 722.71,-129.65"/>
</a>
</g>
</g>
<!-- Node18 -->
<g id="Node000018" class="node">
<title>Node18</title>
<g id="a_Node000018"><a xlink:href="Authorizer_8h.html" target="_top" xlink:title="Class for handling authorization information.">
<polygon fill="white" stroke="#666666" points="473.5,-349 398.5,-349 398.5,-330 473.5,-330 473.5,-349"/>
<text text-anchor="middle" x="436" y="-337" font-family="Helvetica,sans-Serif" font-size="10.00">Authorizer.h</text>
</a>
</g>
</g>
<!-- Node17&#45;&gt;Node18 -->
<g id="edge21_Node000017_Node000018" class="edge">
<title>Node17&#45;&gt;Node18</title>
<g id="a_edge21_Node000017_Node000018"><a xlink:title=" ">
<path fill="none" stroke="#63b8ff" d="M741.9,-388.61C682.73,-379.3 553.61,-359 483.53,-347.98"/>
<polygon fill="#63b8ff" stroke="#63b8ff" points="484.06,-344.52 473.64,-346.42 482.97,-351.43 484.06,-344.52"/>
</a>
</g>
</g>
<!-- Node20 -->
<g id="Node000020" class="node">
<title>Node20</title>
<g id="a_Node000020"><a xlink:href="IParam_8h.html" target="_top" xlink:title="Interface for parameters.">
<polygon fill="white" stroke="#666666" points="499.5,-239 440.5,-239 440.5,-220 499.5,-220 499.5,-239"/>
<text text-anchor="middle" x="470" y="-227" font-family="Helvetica,sans-Serif" font-size="10.00">IParam.h</text>
</a>
</g>
</g>
<!-- Node17&#45;&gt;Node20 -->
<g id="edge49_Node000017_Node000020" class="edge">
<title>Node17&#45;&gt;Node20</title>
<g id="a_edge49_Node000017_Node000020"><a xlink:title=" ">
<path fill="none" stroke="#63b8ff" d="M741.86,-393.01C704.04,-390.89 640.1,-382.18 598,-349 568.8,-325.99 585.57,-301.01 559,-275 544.31,-260.62 524.06,-250 506.58,-242.74"/>
<polygon fill="#63b8ff" stroke="#63b8ff" points="507.79,-239.46 497.21,-239.06 505.23,-245.97 507.79,-239.46"/>
</a>
</g>
</g>
<!-- Node26 -->
<g id="Node000026" class="node">
<title>Node26</title>
<g id="a_Node000026"><a xlink:title=" ">
<polygon fill="#e0e0e0" stroke="#999999" points="959.5,-129 840.5,-129 840.5,-110 959.5,-110 959.5,-129"/>
<text text-anchor="middle" x="900" y="-117" font-family="Helvetica,sans-Serif" font-size="10.00">interface/device.pb.h</text>
</a>
</g>
</g>
<!-- Node17&#45;&gt;Node26 -->
<g id="edge56_Node000017_Node000026" class="edge">
<title>Node17&#45;&gt;Node26</title>
<g id="a_edge56_Node000017_Node000026"><a xlink:title=" ">
<path fill="none" stroke="#63b8ff" d="M798.4,-384.97C835.46,-370.72 900,-338.32 900,-285.5 900,-285.5 900,-285.5 900,-228.5 900,-197.19 900,-160.77 900,-139.23"/>
<polygon fill="#63b8ff" stroke="#63b8ff" points="903.5,-139.18 900,-129.18 896.5,-139.18 903.5,-139.18"/>
</a>
</g>
</g>
<!-- Node27 -->
<g id="Node000027" class="node">
<title>Node27</title>
<g id="a_Node000027"><a xlink:href="Path_8h.html" target="_top" xlink:title="Handles Path objects used to uniquely identify and access OIDs.">
<polygon fill="white" stroke="#666666" points="1069.5,-184 1022.5,-184 1022.5,-165 1069.5,-165 1069.5,-184"/>
<text text-anchor="middle" x="1046" y="-172" font-family="Helvetica,sans-Serif" font-size="10.00">Path.h</text>
</a>
</g>
</g>
<!-- Node17&#45;&gt;Node27 -->
<g id="edge48_Node000017_Node000027" class="edge">
<title>Node17&#45;&gt;Node27</title>
<g id="a_edge48_Node000017_Node000027"><a xlink:title=" ">
<path fill="none" stroke="#63b8ff" d="M804.01,-389.29C834.31,-383.96 880.62,-372.48 914,-349 974.29,-306.58 1019.25,-228.28 1037.31,-193.25"/>
<polygon fill="#63b8ff" stroke="#63b8ff" points="1040.48,-194.72 1041.86,-184.21 1034.23,-191.57 1040.48,-194.72"/>
</a>
</g>
</g>
<!-- Node17&#45;&gt;Node29 -->
<g id="edge58_Node000017_Node000029" class="edge">
<title>Node17&#45;&gt;Node29</title>
<g id="a_edge58_Node000017_Node000029"><a xlink:title=" ">
<path fill="none" stroke="#63b8ff" d="M804.07,-391.72C897.43,-385.53 1169,-361.04 1169,-285.5 1169,-285.5 1169,-285.5 1169,-228.5 1169,-185.91 1211.16,-152.14 1239.31,-134.33"/>
<polygon fill="#63b8ff" stroke="#63b8ff" points="1241.16,-137.31 1247.88,-129.12 1237.52,-131.32 1241.16,-137.31"/>
</a>
</g>
</g>
<!-- Node34 -->
<g id="Node000034" class="node">
<title>Node34</title>
<g id="a_Node000034"><a xlink:href="ILanguagePack_8h.html" target="_top" xlink:title="Interface class for language packs.">
<polygon fill="white" stroke="#666666" points="1231,-74 1133,-74 1133,-55 1231,-55 1231,-74"/>
<text text-anchor="middle" x="1182" y="-62" font-family="Helvetica,sans-Serif" font-size="10.00">ILanguagePack.h</text>
</a>
</g>
</g>
<!-- Node17&#45;&gt;Node34 -->
<g id="edge50_Node000017_Node000034" class="edge">
<title>Node17&#45;&gt;Node34</title>
<g id="a_edge50_Node000017_Node000034"><a xlink:title=" ">
<path fill="none" stroke="#63b8ff" d="M804.21,-393.52C914.31,-392.76 1278,-382.89 1278,-285.5 1278,-285.5 1278,-285.5 1278,-228.5 1278,-175.16 1327.15,-154 1297,-110 1284.14,-91.24 1262.16,-80.39 1240.83,-74.11"/>
<polygon fill="#63b8ff" stroke="#63b8ff" points="1241.67,-70.71 1231.11,-71.53 1239.88,-77.48 1241.67,-70.71"/>
</a>
</g>
</g>
<!-- Node35 -->
<g id="Node000035" class="node">
<title>Node35</title>
<g id="a_Node000035"><a xlink:title=" ">
<polygon fill="#e0e0e0" stroke="#999999" points="687.5,-349 606.5,-349 606.5,-330 687.5,-330 687.5,-349"/>
<text text-anchor="middle" x="647" y="-337" font-family="Helvetica,sans-Serif" font-size="10.00">vdk/signals.h</text>
</a>
</g>
</g>
<!-- Node17&#45;&gt;Node35 -->
<g id="edge55_Node000017_Node000035" class="edge">
<title>Node17&#45;&gt;Node35</title>
<g id="a_edge55_Node000017_Node000035"><a xlink:title=" ">
<path fill="none" stroke="#63b8ff" d="M752.76,-384.98C732.3,-376.38 700.47,-362.99 677.07,-353.15"/>
<polygon fill="#63b8ff" stroke="#63b8ff" points="678.19,-349.82 667.61,-349.17 675.47,-356.27 678.19,-349.82"/>
</a>
</g>
</g>
<!-- Node36 -->
<g id="Node000036" class="node">
<title>Node36</title>
<g id="a_Node000036"><a xlink:title=" ">
<polygon fill="#e0e0e0" stroke="#999999" points="768,-349 706,-349 706,-330 768,-330 768,-349"/>
<text text-anchor="middle" x="737" y="-337" font-family="Helvetica,sans-Serif" font-size="10.00">coroutine</text>
</a>
</g>
</g>
<!-- Node17&#45;&gt;Node36 -->
<g id="edge59_Node000017_Node000036" class="edge">
<title>Node17&#45;&gt;Node36</title>
<g id="a_edge59_Node000017_Node000036"><a xlink:title=" ">
<path fill="none" stroke="#63b8ff" d="M767.06,-384.75C762.02,-377.34 754.66,-366.5 748.49,-357.41"/>
<polygon fill="#63b8ff" stroke="#63b8ff" points="751.35,-355.39 742.83,-349.09 745.56,-359.33 751.35,-355.39"/>
</a>
</g>
</g>
<!-- Node37 -->
<g id="Node000037" class="node">
<title>Node37</title>
<g id="a_Node000037"><a xlink:title=" ">
<polygon fill="#e0e0e0" stroke="#999999" points="834,-349 786,-349 786,-330 834,-330 834,-349"/>
<text text-anchor="middle" x="810" y="-337" font-family="Helvetica,sans-Serif" font-size="10.00">mutex</text>
</a>
</g>
</g>
<!-- Node17&#45;&gt;Node37 -->
<g id="edge60_Node000017_Node000037" class="edge">
<title>Node17&#45;&gt;Node37</title>
<g id="a_edge60_Node000017_Node000037"><a xlink:title=" ">
<path fill="none" stroke="#63b8ff" d="M779.11,-384.75C784.28,-377.34 791.85,-366.5 798.19,-357.41"/>
<polygon fill="#63b8ff" stroke="#63b8ff" points="801.15,-359.29 804,-349.09 795.41,-355.29 801.15,-359.29"/>
</a>
</g>
</g>
<!-- Node18&#45;&gt;Node3 -->
<g id="edge46_Node000018_Node000003" class="edge">
<title>Node18&#45;&gt;Node3</title>
<g id="a_edge46_Node000018_Node000003"><a xlink:title=" ">
<path fill="none" stroke="#63b8ff" d="M400.76,-329.96C375.56,-322.83 341.55,-311.06 315,-294 230.61,-239.77 204.76,-219.27 161,-129 154.14,-114.86 150.6,-97.32 148.8,-84.26"/>
<polygon fill="#63b8ff" stroke="#63b8ff" points="152.26,-83.66 147.63,-74.13 145.3,-84.47 152.26,-83.66"/>
</a>
</g>
</g>
<!-- Node18&#45;&gt;Node19 -->
<g id="edge22_Node000018_Node000019" class="edge">
<title>Node18&#45;&gt;Node19</title>
<g id="a_edge22_Node000018_Node000019"><a xlink:title=" ">
<path fill="none" stroke="#63b8ff" d="M424.27,-329.98C413.27,-322 396.58,-309.88 383.4,-300.31"/>
<polygon fill="#63b8ff" stroke="#63b8ff" points="385.09,-297.21 374.94,-294.17 380.98,-302.88 385.09,-297.21"/>
</a>
</g>
</g>
<!-- Node32 -->
<g id="Node000032" class="node">
<title>Node32</title>
<g id="a_Node000032"><a xlink:title=" ">
<polygon fill="#e0e0e0" stroke="#999999" points="550,-294 470,-294 470,-275 550,-275 550,-294"/>
<text text-anchor="middle" x="510" y="-282" font-family="Helvetica,sans-Serif" font-size="10.00">jwt&#45;cpp/jwt.h</text>
</a>
</g>
</g>
<!-- Node18&#45;&gt;Node32 -->
<g id="edge45_Node000018_Node000032" class="edge">
<title>Node18&#45;&gt;Node32</title>
<g id="a_edge45_Node000018_Node000032"><a xlink:title=" ">
<path fill="none" stroke="#63b8ff" d="M447.89,-329.98C459.15,-321.92 476.29,-309.65 489.71,-300.03"/>
<polygon fill="#63b8ff" stroke="#63b8ff" points="491.8,-302.84 497.89,-294.17 487.73,-297.15 491.8,-302.84"/>
</a>
</g>
</g>
<!-- Node33 -->
<g id="Node000033" class="node">
<title>Node33</title>
<g id="a_Node000033"><a xlink:title=" ">
<polygon fill="#e0e0e0" stroke="#999999" points="452,-294 420,-294 420,-275 452,-275 452,-294"/>
<text text-anchor="middle" x="436" y="-282" font-family="Helvetica,sans-Serif" font-size="10.00">set</text>
</a>
</g>
</g>
<!-- Node18&#45;&gt;Node33 -->
<g id="edge47_Node000018_Node000033" class="edge">
<title>Node18&#45;&gt;Node33</title>
<g id="a_edge47_Node000018_Node000033"><a xlink:title=" ">
<path fill="none" stroke="#63b8ff" d="M436,-329.75C436,-322.8 436,-312.85 436,-304.13"/>
<polygon fill="#63b8ff" stroke="#63b8ff" points="439.5,-304.09 436,-294.09 432.5,-304.09 439.5,-304.09"/>
</a>
</g>
</g>
<!-- Node19&#45;&gt;Node13 -->
<g id="edge43_Node000019_Node000013" class="edge">
<title>Node19&#45;&gt;Node13</title>
<g id="a_edge43_Node000019_Node000013"><a xlink:title=" ">
<path fill="none" stroke="#63b8ff" d="M364.72,-274.66C368.12,-257.17 375.77,-217.8 380.35,-194.27"/>
<polygon fill="#63b8ff" stroke="#63b8ff" points="383.84,-194.64 382.32,-184.16 376.97,-193.31 383.84,-194.64"/>
</a>
</g>
</g>
<!-- Node19&#45;&gt;Node20 -->
<g id="edge23_Node000019_Node000020" class="edge">
<title>Node19&#45;&gt;Node20</title>
<g id="a_edge23_Node000019_Node000020"><a xlink:title=" ">
<path fill="none" stroke="#63b8ff" d="M380.19,-274.98C397.25,-266.54 423.63,-253.47 443.4,-243.68"/>
<polygon fill="#63b8ff" stroke="#63b8ff" points="445.09,-246.75 452.5,-239.17 441.98,-240.47 445.09,-246.75"/>
</a>
</g>
</g>
<!-- Node21 -->
<g id="Node000021" class="node">
<title>Node21</title>
<g id="a_Node000021"><a xlink:href="Enums_8h.html" target="_top" xlink:title="Tools for using EnumDecorators.">
<polygon fill="white" stroke="#666666" points="563.5,-184 504.5,-184 504.5,-165 563.5,-165 563.5,-184"/>
<text text-anchor="middle" x="534" y="-172" font-family="Helvetica,sans-Serif" font-size="10.00">Enums.h</text>
</a>
</g>
</g>
<!-- Node19&#45;&gt;Node21 -->
<g id="edge44_Node000019_Node000021" class="edge">
<title>Node19&#45;&gt;Node21</title>
<g id="a_edge44_Node000019_Node000021"><a xlink:title=" ">
<path fill="none" stroke="#63b8ff" d="M402.27,-275.57C439.96,-267.26 493.38,-253.43 509,-239 521.64,-227.33 527.98,-208.47 531.11,-194.33"/>
<polygon fill="#63b8ff" stroke="#63b8ff" points="534.6,-194.7 532.98,-184.23 527.71,-193.43 534.6,-194.7"/>
</a>
</g>
</g>
<!-- Node20&#45;&gt;Node5 -->
<g id="edge33_Node000020_Node000005" class="edge">
<title>Node20&#45;&gt;Node5</title>
<g id="a_edge33_Node000020_Node000005"><a xlink:title=" ">
<path fill="none" stroke="#63b8ff" d="M440.11,-221.13C403.57,-212.12 341.44,-196.81 299.33,-186.43"/>
<polygon fill="#63b8ff" stroke="#63b8ff" points="300.17,-183.03 289.62,-184.03 298.49,-189.83 300.17,-183.03"/>
</a>
</g>
</g>
<!-- Node20&#45;&gt;Node6 -->
<g id="edge42_Node000020_Node000006" class="edge">
<title>Node20&#45;&gt;Node6</title>
<g id="a_edge42_Node000020_Node000006"><a xlink:title=" ">
<path fill="none" stroke="#63b8ff" d="M468.76,-219.89C466.53,-206.88 460.82,-181.93 448,-165 438.27,-152.15 423.74,-141.63 410.98,-134.05"/>
<polygon fill="#63b8ff" stroke="#63b8ff" points="412.54,-130.9 402.1,-129.05 409.1,-137.01 412.54,-130.9"/>
</a>
</g>
</g>
<!-- Node20&#45;&gt;Node13 -->
<g id="edge34_Node000020_Node000013" class="edge">
<title>Node20&#45;&gt;Node13</title>
<g id="a_edge34_Node000020_Node000013"><a xlink:title=" ">
<path fill="none" stroke="#63b8ff" d="M456.18,-219.98C442.85,-211.77 422.42,-199.18 406.69,-189.49"/>
<polygon fill="#63b8ff" stroke="#63b8ff" points="408.42,-186.44 398.07,-184.17 404.75,-192.4 408.42,-186.44"/>
</a>
</g>
</g>
<!-- Node20&#45;&gt;Node14 -->
<g id="edge41_Node000020_Node000014" class="edge">
<title>Node20&#45;&gt;Node14</title>
<g id="a_edge41_Node000020_Node000014"><a xlink:title=" ">
<path fill="none" stroke="#63b8ff" d="M491.56,-219.85C512.57,-211.25 545.32,-197.46 573,-184 605.88,-168.01 642.81,-147.53 666.22,-134.22"/>
<polygon fill="#63b8ff" stroke="#63b8ff" points="668.13,-137.16 675.08,-129.16 664.66,-131.08 668.13,-137.16"/>
</a>
</g>
</g>
<!-- Node20&#45;&gt;Node21 -->
<g id="edge24_Node000020_Node000021" class="edge">
<title>Node20&#45;&gt;Node21</title>
<g id="a_edge24_Node000020_Node000021"><a xlink:title=" ">
<path fill="none" stroke="#63b8ff" d="M480.28,-219.98C489.84,-212.07 504.28,-200.11 515.78,-190.58"/>
<polygon fill="#63b8ff" stroke="#63b8ff" points="518.06,-193.24 523.53,-184.17 513.6,-187.85 518.06,-193.24"/>
</a>
</g>
</g>
<!-- Node20&#45;&gt;Node27 -->
<g id="edge35_Node000020_Node000027" class="edge">
<title>Node20&#45;&gt;Node27</title>
<g id="a_edge35_Node000020_Node000027"><a xlink:title=" ">
<path fill="none" stroke="#63b8ff" d="M499.76,-225.76C597.54,-216.76 908.64,-188.14 1012.14,-178.62"/>
<polygon fill="#63b8ff" stroke="#63b8ff" points="1012.7,-182.08 1022.33,-177.68 1012.06,-175.11 1012.7,-182.08"/>
</a>
</g>
</g>
<!-- Node22 -->
<g id="Node000022" class="node">
<title>Node22</title>
<g id="a_Node000022"><a xlink:href="EnumDecorator_8h.html" target="_top" xlink:title="Provides an enum with useful extra functionality.">
<polygon fill="white" stroke="#666666" points="606,-129 462,-129 462,-110 606,-110 606,-129"/>
<text text-anchor="middle" x="534" y="-117" font-family="Helvetica,sans-Serif" font-size="10.00">patterns/EnumDecorator.h</text>
</a>
</g>
</g>
<!-- Node21&#45;&gt;Node22 -->
<g id="edge25_Node000021_Node000022" class="edge">
<title>Node21&#45;&gt;Node22</title>
<g id="a_edge25_Node000021_Node000022"><a xlink:title=" ">
<path fill="none" stroke="#63b8ff" d="M534,-164.75C534,-157.8 534,-147.85 534,-139.13"/>
<polygon fill="#63b8ff" stroke="#63b8ff" points="537.5,-139.09 534,-129.09 530.5,-139.09 537.5,-139.09"/>
</a>
</g>
</g>
<!-- Node24 -->
<g id="Node000024" class="node">
<title>Node24</title>
<g id="a_Node000024"><a xlink:title=" ">
<polygon fill="#e0e0e0" stroke="#999999" points="650,-74 600,-74 600,-55 650,-55 650,-74"/>
<text text-anchor="middle" x="625" y="-62" font-family="Helvetica,sans-Serif" font-size="10.00">cstdint</text>
</a>
</g>
</g>
<!-- Node21&#45;&gt;Node24 -->
<g id="edge32_Node000021_Node000024" class="edge">
<title>Node21&#45;&gt;Node24</title>
<g id="a_edge32_Node000021_Node000024"><a xlink:title=" ">
<path fill="none" stroke="#63b8ff" d="M562.84,-164.95C580.71,-158.13 602.55,-146.73 615,-129 624.12,-116.01 626.19,-97.86 626.24,-84.29"/>
<polygon fill="#63b8ff" stroke="#63b8ff" points="629.73,-84.06 625.9,-74.18 622.73,-84.29 629.73,-84.06"/>
</a>
</g>
</g>
<!-- Node21&#45;&gt;Node26 -->
<g id="edge31_Node000021_Node000026" class="edge">
<title>Node21&#45;&gt;Node26</title>
<g id="a_edge31_Node000021_Node000026"><a xlink:title=" ">
<path fill="none" stroke="#63b8ff" d="M563.64,-169.21C621.5,-160.83 750.81,-142.1 831.19,-130.46"/>
<polygon fill="#63b8ff" stroke="#63b8ff" points="831.83,-133.91 841.22,-129.01 830.82,-126.98 831.83,-133.91"/>
</a>
</g>
</g>
<!-- Node22&#45;&gt;Node4 -->
<g id="edge29_Node000022_Node000004" class="edge">
<title>Node22&#45;&gt;Node4</title>
<g id="a_edge29_Node000022_Node000004"><a xlink:title=" ">
<path fill="none" stroke="#63b8ff" d="M534,-109.66C534,-92.17 534,-52.8 534,-29.27"/>
<polygon fill="#63b8ff" stroke="#63b8ff" points="537.5,-29.16 534,-19.16 530.5,-29.16 537.5,-29.16"/>
</a>
</g>
</g>
<!-- Node22&#45;&gt;Node11 -->
<g id="edge28_Node000022_Node000011" class="edge">
<title>Node22&#45;&gt;Node11</title>
<g id="a_edge28_Node000022_Node000011"><a xlink:title=" ">
<path fill="none" stroke="#63b8ff" d="M538.92,-109.61C547.43,-95.25 566.35,-67.3 591,-55 671.16,-15 898.77,-29.08 1004.11,-19.03"/>
<polygon fill="#63b8ff" stroke="#63b8ff" points="1004.65,-22.5 1014.22,-17.95 1003.9,-15.54 1004.65,-22.5"/>
</a>
</g>
</g>
<!-- Node23 -->
<g id="Node000023" class="node">
<title>Node23</title>
<g id="a_Node000023"><a xlink:href="ReflectionMacros_8h.html" target="_top" xlink:title="adapted from https://github.com/tapika/TestCppReflect">
<polygon fill="white" stroke="#666666" points="418,-74 308,-74 308,-55 418,-55 418,-74"/>
<text text-anchor="middle" x="363" y="-62" font-family="Helvetica,sans-Serif" font-size="10.00">ReflectionMacros.h</text>
</a>
</g>
</g>
<!-- Node22&#45;&gt;Node23 -->
<g id="edge26_Node000022_Node000023" class="edge">
<title>Node22&#45;&gt;Node23</title>
<g id="a_edge26_Node000022_Node000023"><a xlink:title=" ">
<path fill="none" stroke="#63b8ff" d="M506.53,-109.98C477.82,-101.09 432.58,-87.07 400.58,-77.15"/>
<polygon fill="#63b8ff" stroke="#63b8ff" points="401.28,-73.7 390.69,-74.08 399.2,-80.39 401.28,-73.7"/>
</a>
</g>
</g>
<!-- Node22&#45;&gt;Node24 -->
<g id="edge27_Node000022_Node000024" class="edge">
<title>Node22&#45;&gt;Node24</title>
<g id="a_edge27_Node000022_Node000024"><a xlink:title=" ">
<path fill="none" stroke="#63b8ff" d="M548.62,-109.98C562.86,-101.69 584.75,-88.94 601.45,-79.22"/>
<polygon fill="#63b8ff" stroke="#63b8ff" points="603.23,-82.23 610.11,-74.17 599.71,-76.18 603.23,-82.23"/>
</a>
</g>
</g>
<!-- Node25 -->
<g id="Node000025" class="node">
<title>Node25</title>
<g id="a_Node000025"><a xlink:title=" ">
<polygon fill="#e0e0e0" stroke="#999999" points="505.5,-74 436.5,-74 436.5,-55 505.5,-55 505.5,-74"/>
<text text-anchor="middle" x="471" y="-62" font-family="Helvetica,sans-Serif" font-size="10.00">type_traits</text>
</a>
</g>
</g>
<!-- Node22&#45;&gt;Node25 -->
<g id="edge30_Node000022_Node000025" class="edge">
<title>Node22&#45;&gt;Node25</title>
<g id="a_edge30_Node000022_Node000025"><a xlink:title=" ">
<path fill="none" stroke="#63b8ff" d="M523.88,-109.98C514.56,-102.15 500.53,-90.34 489.26,-80.86"/>
<polygon fill="#63b8ff" stroke="#63b8ff" points="491.21,-77.93 481.31,-74.17 486.71,-83.29 491.21,-77.93"/>
</a>
</g>
</g>
<!-- Node27&#45;&gt;Node4 -->
<g id="edge37_Node000027_Node000004" class="edge">
<title>Node27&#45;&gt;Node4</title>
<g id="a_edge37_Node000027_Node000004"><a xlink:title=" ">
<path fill="none" stroke="#63b8ff" d="M1037.28,-164.57C1023.75,-151.13 996.39,-125.63 969,-110 833.67,-32.8 642.51,-15.49 566.76,-11.61"/>
<polygon fill="#63b8ff" stroke="#63b8ff" points="566.59,-8.1 556.44,-11.13 566.26,-15.1 566.59,-8.1"/>
</a>
</g>
</g>
<!-- Node28 -->
<g id="Node000028" class="node">
<title>Node28</title>
<g id="a_Node000028"><a xlink:title=" ">
<polygon fill="#e0e0e0" stroke="#999999" points="1076,-129 1016,-129 1016,-110 1076,-110 1076,-129"/>
<text text-anchor="middle" x="1046" y="-117" font-family="Helvetica,sans-Serif" font-size="10.00">iostream</text>
</a>
</g>
</g>
<!-- Node27&#45;&gt;Node28 -->
<g id="edge36_Node000027_Node000028" class="edge">
<title>Node27&#45;&gt;Node28</title>
<g id="a_edge36_Node000027_Node000028"><a xlink:title=" ">
<path fill="none" stroke="#63b8ff" d="M1046,-164.75C1046,-157.8 1046,-147.85 1046,-139.13"/>
<polygon fill="#63b8ff" stroke="#63b8ff" points="1049.5,-139.09 1046,-129.09 1042.5,-139.09 1049.5,-139.09"/>
</a>
</g>
</g>
<!-- Node27&#45;&gt;Node29 -->
<g id="edge38_Node000027_Node000029" class="edge">
<title>Node27&#45;&gt;Node29</title>
<g id="a_edge38_Node000027_Node000029"><a xlink:title=" ">
<path fill="none" stroke="#63b8ff" d="M1069.68,-167.93C1103.18,-160.03 1166.56,-144.97 1230.39,-129.12"/>
<polygon fill="#63b8ff" stroke="#63b8ff" points="1231.36,-132.49 1240.22,-126.67 1229.67,-125.69 1231.36,-132.49"/>
</a>
</g>
</g>
<!-- Node30 -->
<g id="Node000030" class="node">
<title>Node30</title>
<g id="a_Node000030"><a xlink:title=" ">
<polygon fill="#e0e0e0" stroke="#999999" points="1145.5,-129 1094.5,-129 1094.5,-110 1145.5,-110 1145.5,-129"/>
<text text-anchor="middle" x="1120" y="-117" font-family="Helvetica,sans-Serif" font-size="10.00">variant</text>
</a>
</g>
</g>
<!-- Node27&#45;&gt;Node30 -->
<g id="edge39_Node000027_Node000030" class="edge">
<title>Node27&#45;&gt;Node30</title>
<g id="a_edge39_Node000027_Node000030"><a xlink:title=" ">
<path fill="none" stroke="#63b8ff" d="M1057.89,-164.98C1069.15,-156.92 1086.29,-144.65 1099.71,-135.03"/>
<polygon fill="#63b8ff" stroke="#63b8ff" points="1101.8,-137.84 1107.89,-129.17 1097.73,-132.15 1101.8,-137.84"/>
</a>
</g>
</g>
<!-- Node31 -->
<g id="Node000031" class="node">
<title>Node31</title>
<g id="a_Node000031"><a xlink:title=" ">
<polygon fill="#e0e0e0" stroke="#999999" points="1222,-129 1164,-129 1164,-110 1222,-110 1222,-129"/>
<text text-anchor="middle" x="1193" y="-117" font-family="Helvetica,sans-Serif" font-size="10.00">memory</text>
</a>
</g>
</g>
<!-- Node27&#45;&gt;Node31 -->
<g id="edge40_Node000027_Node000031" class="edge">
<title>Node27&#45;&gt;Node31</title>
<g id="a_edge40_Node000027_Node000031"><a xlink:title=" ">
<path fill="none" stroke="#63b8ff" d="M1069.62,-164.98C1093.9,-156.23 1131.95,-142.51 1159.37,-132.62"/>
<polygon fill="#63b8ff" stroke="#63b8ff" points="1160.73,-135.85 1168.95,-129.17 1158.36,-129.27 1160.73,-135.85"/>
</a>
</g>
</g>
<!-- Node34&#45;&gt;Node4 -->
<g id="edge52_Node000034_Node000004" class="edge">
<title>Node34&#45;&gt;Node4</title>
<g id="a_edge52_Node000034_Node000004"><a xlink:title=" ">
<path fill="none" stroke="#63b8ff" d="M1133,-57C1126.94,-56.28 1120.83,-55.59 1115,-55 906.31,-33.78 654.52,-17.74 566.36,-12.41"/>
<polygon fill="#63b8ff" stroke="#63b8ff" points="566.39,-8.91 556.2,-11.8 565.97,-15.89 566.39,-8.91"/>
</a>
</g>
</g>
<!-- Node34&#45;&gt;Node10 -->
<g id="edge51_Node000034_Node000010" class="edge">
<title>Node34&#45;&gt;Node10</title>
<g id="a_edge51_Node000034_Node000010"><a xlink:title=" ">
<path fill="none" stroke="#63b8ff" d="M1183.65,-54.75C1184.96,-47.8 1186.84,-37.85 1188.48,-29.13"/>
<polygon fill="#63b8ff" stroke="#63b8ff" points="1191.96,-29.56 1190.38,-19.09 1185.09,-28.27 1191.96,-29.56"/>
</a>
</g>
</g>
<!-- Node34&#45;&gt;Node11 -->
<g id="edge53_Node000034_Node000011" class="edge">
<title>Node34&#45;&gt;Node11</title>
<g id="a_edge53_Node000034_Node000011"><a xlink:title=" ">
<path fill="none" stroke="#63b8ff" d="M1162.56,-54.98C1143.01,-46.42 1112.62,-33.11 1090.18,-23.28"/>
<polygon fill="#63b8ff" stroke="#63b8ff" points="1091.36,-19.98 1080.79,-19.17 1088.55,-26.39 1091.36,-19.98"/>
</a>
</g>
</g>
</g>
</svg>
