<?xml version="1.0" encoding="UTF-8" standalone="no"?>
<!DOCTYPE svg PUBLIC "-//W3C//DTD SVG 1.1//EN"
 "http://www.w3.org/Graphics/SVG/1.1/DTD/svg11.dtd">
<!-- Generated by graphviz version 2.43.0 (0)
 -->
<!-- Title: /home/runner/work/Catena/Catena/sdks/cpp/common/include/Path.h Pages: 1 -->
<!--zoomable 518 -->
<svg id="main" version="1.1" xmlns="http://www.w3.org/2000/svg" xmlns:xlink="http://www.w3.org/1999/xlink" xml:space="preserve" onload="init(evt)">
<style type="text/css"><![CDATA[
.edge:hover path { stroke: red; }
.edge:hover polygon { stroke: red; fill: red; }
]]></style>
<script type="text/javascript"><![CDATA[
var edges = document.getElementsByTagName('g');
if (edges && edges.length) {
  for (var i=0;i<edges.length;i++) {
    if (edges[i].id.substr(0,4)=='edge') {
      edges[i].setAttribute('class','edge');
    }
  }
}
]]></script>
        <defs>
                <circle id="rim" cx="0" cy="0" r="7"/>
                <circle id="rim2" cx="0" cy="0" r="3.5"/>
                <g id="zoomPlus">
                        <use xlink:href="#rim" fill="#404040">
                                <set attributeName="fill" to="#808080" begin="zoomplus.mouseover" end="zoomplus.mouseout"/>
                        </use>
                        <path d="M-4,0h8M0,-4v8" fill="none" stroke="white" stroke-width="1.5" pointer-events="none"/>
                </g>
                <g id="zoomMin">
                        <use xlink:href="#rim" fill="#404040">
                                <set attributeName="fill" to="#808080" begin="zoomminus.mouseover" end="zoomminus.mouseout"/>
                        </use>
                        <path d="M-4,0h8" fill="none" stroke="white" stroke-width="1.5" pointer-events="none"/>
                </g>
                <g id="dirArrow">
                        <path fill="none" stroke="white" stroke-width="1.5" d="M0,-3.0v7 M-2.5,-0.5L0,-3.0L2.5,-0.5"/>
                </g>
               <g id="resetDef">
                       <use xlink:href="#rim2" fill="#404040">
                               <set attributeName="fill" to="#808080" begin="reset.mouseover" end="reset.mouseout"/>
                       </use>
               </g>
        </defs>

<script type="text/javascript">
var viewWidth = 1069;
var viewHeight = 518;
var sectionId = 'dynsection-1';
</script>
<script xlink:href="svgpan.js"/>
<svg id="graph" class="graph">
<g id="viewport">
<title>/home/runner/work/Catena/Catena/sdks/cpp/common/include/Path.h</title>
<polygon fill="white" stroke="transparent" points="-4,4 -4,-514 1064.66,-514 1064.66,4 -4,4"/>
<!-- Node1 -->
<g id="node1" class="node">
<title>Node1</title>
<g id="a_node1"><a xlink:title="Handles Path objects used to uniquely identify and access OIDs.">
<polygon fill="#bfbfbf" stroke="black" points="176.66,-468.5 176.66,-509.5 322.66,-509.5 322.66,-468.5 176.66,-468.5"/>
<text text-anchor="start" x="184.66" y="-497.5" font-family="Helvetica,sans-Serif" font-size="10.00">/home/runner/work/Catena</text>
<text text-anchor="start" x="184.66" y="-486.5" font-family="Helvetica,sans-Serif" font-size="10.00">/Catena/sdks/cpp/common</text>
<text text-anchor="middle" x="249.66" y="-475.5" font-family="Helvetica,sans-Serif" font-size="10.00">/include/Path.h</text>
</a>
</g>
</g>
<!-- Node2 -->
<g id="node2" class="node">
<title>Node2</title>
<g id="a_node2"><a xlink:href="Authorization_8h.html" target="_top" xlink:title="Class for handling authorization information.">
<polygon fill="white" stroke="black" points="93.66,-234.5 93.66,-275.5 239.66,-275.5 239.66,-234.5 93.66,-234.5"/>
<text text-anchor="start" x="101.66" y="-263.5" font-family="Helvetica,sans-Serif" font-size="10.00">/home/runner/work/Catena</text>
<text text-anchor="start" x="101.66" y="-252.5" font-family="Helvetica,sans-Serif" font-size="10.00">/Catena/sdks/cpp/common</text>
<text text-anchor="middle" x="166.66" y="-241.5" font-family="Helvetica,sans-Serif" font-size="10.00">/include/Authorization.h</text>
</a>
</g>
</g>
<!-- Node1&#45;&gt;Node2 -->
<g id="edge1" class="edge">
<title>Node1&#45;&gt;Node2</title>
<path fill="none" stroke="midnightblue" d="M225.41,-460.74C204.44,-435.2 175.67,-394.93 163.66,-354 155.95,-327.7 159.12,-295.72 162.54,-275.61"/>
<polygon fill="midnightblue" stroke="midnightblue" points="222.81,-463.08 231.92,-468.49 228.17,-458.58 222.81,-463.08"/>
</g>
<!-- Node3 -->
<g id="node3" class="node">
<title>Node3</title>
<g id="a_node3"><a xlink:href="Device_8h.html" target="_top" xlink:title="Device class definition.">
<polygon fill="white" stroke="black" points="374.66,-156.5 374.66,-197.5 520.66,-197.5 520.66,-156.5 374.66,-156.5"/>
<text text-anchor="start" x="382.66" y="-185.5" font-family="Helvetica,sans-Serif" font-size="10.00">/home/runner/work/Catena</text>
<text text-anchor="start" x="382.66" y="-174.5" font-family="Helvetica,sans-Serif" font-size="10.00">/Catena/sdks/cpp/common</text>
<text text-anchor="middle" x="447.66" y="-163.5" font-family="Helvetica,sans-Serif" font-size="10.00">/include/Device.h</text>
</a>
</g>
</g>
<!-- Node1&#45;&gt;Node3 -->
<g id="edge14" class="edge">
<title>Node1&#45;&gt;Node3</title>
<path fill="none" stroke="midnightblue" d="M332.87,-479.25C393.24,-470.99 467.53,-456.18 486.66,-432 542.58,-361.33 485.97,-244.04 459.6,-197.7"/>
<polygon fill="midnightblue" stroke="midnightblue" points="332.39,-475.79 322.93,-480.57 333.31,-482.73 332.39,-475.79"/>
</g>
<!-- Node8 -->
<g id="node8" class="node">
<title>Node8</title>
<g id="a_node8"><a xlink:href="ParamWithValue_8h.html" target="_top" xlink:title="Interface for acessing parameter values.">
<polygon fill="white" stroke="black" points="7.16,-78.5 7.16,-119.5 154.16,-119.5 154.16,-78.5 7.16,-78.5"/>
<text text-anchor="start" x="15.16" y="-107.5" font-family="Helvetica,sans-Serif" font-size="10.00">/home/runner/work/Catena</text>
<text text-anchor="start" x="15.16" y="-96.5" font-family="Helvetica,sans-Serif" font-size="10.00">/Catena/sdks/cpp/common</text>
<text text-anchor="middle" x="80.66" y="-85.5" font-family="Helvetica,sans-Serif" font-size="10.00">/include/ParamWithValue.h</text>
</a>
</g>
</g>
<!-- Node1&#45;&gt;Node8 -->
<g id="edge25" class="edge">
<title>Node1&#45;&gt;Node8</title>
<path fill="none" stroke="midnightblue" d="M166.57,-472.48C94.16,-453.58 0.66,-413.74 0.66,-334 0.66,-334 0.66,-334 0.66,-254 0.66,-209.63 -1.99,-194.72 19.66,-156 27.59,-141.82 40.4,-129.25 52.25,-119.63"/>
<polygon fill="midnightblue" stroke="midnightblue" points="166.09,-475.96 176.64,-475.01 167.79,-469.17 166.09,-475.96"/>
</g>
<!-- Node12 -->
<g id="node12" class="node">
<title>Node12</title>
<g id="a_node12"><a xlink:href="IParam_8h.html" target="_top" xlink:title="Interface for parameters.">
<polygon fill="white" stroke="black" points="331.66,-390.5 331.66,-431.5 477.66,-431.5 477.66,-390.5 331.66,-390.5"/>
<text text-anchor="start" x="339.66" y="-419.5" font-family="Helvetica,sans-Serif" font-size="10.00">/home/runner/work/Catena</text>
<text text-anchor="start" x="339.66" y="-408.5" font-family="Helvetica,sans-Serif" font-size="10.00">/Catena/sdks/cpp/common</text>
<text text-anchor="middle" x="404.66" y="-397.5" font-family="Helvetica,sans-Serif" font-size="10.00">/include/IParam.h</text>
</a>
</g>
</g>
<!-- Node1&#45;&gt;Node12 -->
<g id="edge15" class="edge">
<title>Node1&#45;&gt;Node12</title>
<path fill="none" stroke="midnightblue" d="M298.8,-463.91C320.11,-453.46 344.74,-441.38 364.88,-431.51"/>
<polygon fill="midnightblue" stroke="midnightblue" points="297.02,-460.88 289.58,-468.43 300.1,-467.17 297.02,-460.88"/>
</g>
<!-- Node2&#45;&gt;Node3 -->
<g id="edge2" class="edge">
<title>Node2&#45;&gt;Node3</title>
<path fill="none" stroke="midnightblue" d="M248.79,-231.79C288.94,-220.93 336.82,-207.98 375.54,-197.51"/>
<polygon fill="midnightblue" stroke="midnightblue" points="247.77,-228.44 239.03,-234.43 249.59,-235.2 247.77,-228.44"/>
</g>
<!-- Node2&#45;&gt;Node8 -->
<g id="edge11" class="edge">
<title>Node2&#45;&gt;Node8</title>
<path fill="none" stroke="midnightblue" d="M181.46,-224.98C189.71,-204.42 196.08,-176.89 183.66,-156 174.04,-139.82 157.93,-128.02 141.26,-119.55"/>
<polygon fill="midnightblue" stroke="midnightblue" points="178.24,-223.61 177.46,-234.18 184.66,-226.4 178.24,-223.61"/>
</g>
<!-- Node11 -->
<g id="node11" class="node">
<title>Node11</title>
<g id="a_node11"><a xlink:href="StructInfo_8h.html" target="_top" xlink:title="Structured data serialization and deserialization to protobuf.">
<polygon fill="white" stroke="black" points="28.66,-156.5 28.66,-197.5 174.66,-197.5 174.66,-156.5 28.66,-156.5"/>
<text text-anchor="start" x="36.66" y="-185.5" font-family="Helvetica,sans-Serif" font-size="10.00">/home/runner/work/Catena</text>
<text text-anchor="start" x="36.66" y="-174.5" font-family="Helvetica,sans-Serif" font-size="10.00">/Catena/sdks/cpp/common</text>
<text text-anchor="middle" x="101.66" y="-163.5" font-family="Helvetica,sans-Serif" font-size="10.00">/include/StructInfo.h</text>
</a>
</g>
</g>
<!-- Node2&#45;&gt;Node11 -->
<g id="edge12" class="edge">
<title>Node2&#45;&gt;Node11</title>
<path fill="none" stroke="midnightblue" d="M143.25,-226.63C135.01,-216.99 125.92,-206.36 118.35,-197.51"/>
<polygon fill="midnightblue" stroke="midnightblue" points="140.76,-229.1 149.92,-234.43 146.08,-224.55 140.76,-229.1"/>
</g>
<!-- Node4 -->
<g id="node4" class="node">
<title>Node4</title>
<g id="a_node4"><a xlink:href="LanguagePack_8h.html" target="_top" xlink:title="multi language support in 2 classes: LanguagePack and LanguagePacks">
<polygon fill="white" stroke="black" points="374.66,-78.5 374.66,-119.5 520.66,-119.5 520.66,-78.5 374.66,-78.5"/>
<text text-anchor="start" x="382.66" y="-107.5" font-family="Helvetica,sans-Serif" font-size="10.00">/home/runner/work/Catena</text>
<text text-anchor="start" x="382.66" y="-96.5" font-family="Helvetica,sans-Serif" font-size="10.00">/Catena/sdks/cpp/common</text>
<text text-anchor="middle" x="447.66" y="-85.5" font-family="Helvetica,sans-Serif" font-size="10.00">/include/LanguagePack.h</text>
</a>
</g>
</g>
<!-- Node3&#45;&gt;Node4 -->
<g id="edge3" class="edge">
<title>Node3&#45;&gt;Node4</title>
<path fill="none" stroke="midnightblue" d="M447.66,-146.3C447.66,-137.3 447.66,-127.65 447.66,-119.51"/>
<polygon fill="midnightblue" stroke="midnightblue" points="444.16,-146.43 447.66,-156.43 451.16,-146.43 444.16,-146.43"/>
</g>
<!-- Node5 -->
<g id="node5" class="node">
<title>Node5</title>
<g id="a_node5"><a xlink:href="Menu_8h.html" target="_top" xlink:title="Menus support.">
<polygon fill="white" stroke="black" points="172.66,-78.5 172.66,-119.5 318.66,-119.5 318.66,-78.5 172.66,-78.5"/>
<text text-anchor="start" x="180.66" y="-107.5" font-family="Helvetica,sans-Serif" font-size="10.00">/home/runner/work/Catena</text>
<text text-anchor="start" x="180.66" y="-96.5" font-family="Helvetica,sans-Serif" font-size="10.00">/Catena/sdks/cpp/common</text>
<text text-anchor="middle" x="245.66" y="-85.5" font-family="Helvetica,sans-Serif" font-size="10.00">/include/Menu.h</text>
</a>
</g>
</g>
<!-- Node3&#45;&gt;Node5 -->
<g id="edge4" class="edge">
<title>Node3&#45;&gt;Node5</title>
<path fill="none" stroke="midnightblue" d="M386.23,-152.89C357.88,-142.22 324.58,-129.69 297.51,-119.51"/>
<polygon fill="midnightblue" stroke="midnightblue" points="385.05,-156.18 395.64,-156.43 387.52,-149.63 385.05,-156.18"/>
</g>
<!-- Node6 -->
<g id="node6" class="node">
<title>Node6</title>
<g id="a_node6"><a xlink:href="MenuGroup_8h.html" target="_top" xlink:title="MenuGroups support.">
<polygon fill="white" stroke="black" points="222.66,-0.5 222.66,-41.5 368.66,-41.5 368.66,-0.5 222.66,-0.5"/>
<text text-anchor="start" x="230.66" y="-29.5" font-family="Helvetica,sans-Serif" font-size="10.00">/home/runner/work/Catena</text>
<text text-anchor="start" x="230.66" y="-18.5" font-family="Helvetica,sans-Serif" font-size="10.00">/Catena/sdks/cpp/common</text>
<text text-anchor="middle" x="295.66" y="-7.5" font-family="Helvetica,sans-Serif" font-size="10.00">/include/MenuGroup.h</text>
</a>
</g>
</g>
<!-- Node3&#45;&gt;Node6 -->
<g id="edge6" class="edge">
<title>Node3&#45;&gt;Node6</title>
<path fill="none" stroke="midnightblue" d="M404.76,-150.82C391.47,-141.97 377.28,-131.38 365.66,-120 341.16,-96.01 319.32,-62.54 306.79,-41.58"/>
<polygon fill="midnightblue" stroke="midnightblue" points="403.03,-153.87 413.33,-156.37 406.84,-148 403.03,-153.87"/>
</g>
<!-- Node7 -->
<g id="node7" class="node">
<title>Node7</title>
<g id="a_node7"><a xlink:href="NamedChoiceConstraint_8h.html" target="_top" xlink:title="A constraint that checks if a value is within some named choices.">
<polygon fill="white" stroke="black" points="705.16,-78.5 705.16,-119.5 890.16,-119.5 890.16,-78.5 705.16,-78.5"/>
<text text-anchor="start" x="713.16" y="-107.5" font-family="Helvetica,sans-Serif" font-size="10.00">/home/runner/work/Catena</text>
<text text-anchor="start" x="713.16" y="-96.5" font-family="Helvetica,sans-Serif" font-size="10.00">/Catena/sdks/cpp/common</text>
<text text-anchor="middle" x="797.66" y="-85.5" font-family="Helvetica,sans-Serif" font-size="10.00">/include/NamedChoiceConstraint.h</text>
</a>
</g>
</g>
<!-- Node3&#45;&gt;Node7 -->
<g id="edge7" class="edge">
<title>Node3&#45;&gt;Node7</title>
<path fill="none" stroke="midnightblue" d="M531.11,-157.88C584.3,-146.33 653.18,-131.37 707.6,-119.56"/>
<polygon fill="midnightblue" stroke="midnightblue" points="530.06,-154.53 521.03,-160.07 531.55,-161.37 530.06,-154.53"/>
</g>
<!-- Node3&#45;&gt;Node8 -->
<g id="edge8" class="edge">
<title>Node3&#45;&gt;Node8</title>
<path fill="none" stroke="midnightblue" d="M364.53,-156.8C363.23,-156.53 361.94,-156.26 360.66,-156 273.49,-138.02 250.74,-138.43 163.66,-120 160.62,-119.36 157.51,-118.68 154.38,-117.99"/>
<polygon fill="midnightblue" stroke="midnightblue" points="364.1,-160.29 374.61,-158.95 365.56,-153.45 364.1,-160.29"/>
</g>
<!-- Node9 -->
<g id="node9" class="node">
<title>Node9</title>
<g id="a_node9"><a xlink:href="PicklistConstraint_8h.html" target="_top" xlink:title="A constraint that checks if a value is in a list of strings.">
<polygon fill="white" stroke="black" points="908.66,-78.5 908.66,-119.5 1060.66,-119.5 1060.66,-78.5 908.66,-78.5"/>
<text text-anchor="start" x="916.66" y="-107.5" font-family="Helvetica,sans-Serif" font-size="10.00">/home/runner/work/Catena</text>
<text text-anchor="start" x="916.66" y="-96.5" font-family="Helvetica,sans-Serif" font-size="10.00">/Catena/sdks/cpp/common</text>
<text text-anchor="middle" x="984.66" y="-85.5" font-family="Helvetica,sans-Serif" font-size="10.00">/include/PicklistConstraint.h</text>
</a>
</g>
</g>
<!-- Node3&#45;&gt;Node9 -->
<g id="edge9" class="edge">
<title>Node3&#45;&gt;Node9</title>
<path fill="none" stroke="midnightblue" d="M530.94,-165.77C658.79,-150.05 889.69,-121.6 898.66,-120 901.83,-119.44 905.06,-118.83 908.32,-118.19"/>
<polygon fill="midnightblue" stroke="midnightblue" points="530.29,-162.32 520.79,-167.02 531.14,-169.27 530.29,-162.32"/>
</g>
<!-- Node10 -->
<g id="node10" class="node">
<title>Node10</title>
<g id="a_node10"><a xlink:href="RangeConstraint_8h.html" target="_top" xlink:title="A constraint that checks if a value is within a range.">
<polygon fill="white" stroke="black" points="538.66,-78.5 538.66,-119.5 686.66,-119.5 686.66,-78.5 538.66,-78.5"/>
<text text-anchor="start" x="546.66" y="-107.5" font-family="Helvetica,sans-Serif" font-size="10.00">/home/runner/work/Catena</text>
<text text-anchor="start" x="546.66" y="-96.5" font-family="Helvetica,sans-Serif" font-size="10.00">/Catena/sdks/cpp/common</text>
<text text-anchor="middle" x="612.66" y="-85.5" font-family="Helvetica,sans-Serif" font-size="10.00">/include/RangeConstraint.h</text>
</a>
</g>
</g>
<!-- Node3&#45;&gt;Node10 -->
<g id="edge10" class="edge">
<title>Node3&#45;&gt;Node10</title>
<path fill="none" stroke="midnightblue" d="M499.36,-152.19C522.18,-141.67 548.68,-129.47 570.32,-119.51"/>
<polygon fill="midnightblue" stroke="midnightblue" points="497.77,-149.07 490.15,-156.43 500.7,-155.42 497.77,-149.07"/>
</g>
<!-- Node5&#45;&gt;Node6 -->
<g id="edge5" class="edge">
<title>Node5&#45;&gt;Node6</title>
<path fill="none" stroke="midnightblue" d="M264.05,-70.05C270.29,-60.57 277.12,-50.18 282.83,-41.51"/>
<polygon fill="midnightblue" stroke="midnightblue" points="261.11,-68.15 258.54,-78.43 266.96,-72 261.11,-68.15"/>
</g>
<!-- Node11&#45;&gt;Node8 -->
<g id="edge13" class="edge">
<title>Node11&#45;&gt;Node8</title>
<path fill="none" stroke="midnightblue" d="M93.54,-146.59C91.03,-137.51 88.33,-127.74 86.05,-119.51"/>
<polygon fill="midnightblue" stroke="midnightblue" points="90.22,-147.72 96.25,-156.43 96.96,-145.86 90.22,-147.72"/>
</g>
<!-- Node12&#45;&gt;Node2 -->
<g id="edge16" class="edge">
<title>Node12&#45;&gt;Node2</title>
<path fill="none" stroke="midnightblue" d="M321.62,-398.15C267.84,-388.77 204.45,-373.93 185.66,-354 165.81,-332.94 163.77,-297.65 164.76,-275.66"/>
<polygon fill="midnightblue" stroke="midnightblue" points="321.09,-401.61 331.54,-399.84 322.27,-394.71 321.09,-401.61"/>
</g>
<!-- Node12&#45;&gt;Node3 -->
<g id="edge17" class="edge">
<title>Node12&#45;&gt;Node3</title>
<path fill="none" stroke="midnightblue" d="M410.2,-380.11C419.13,-331.94 436.46,-238.44 444.01,-197.73"/>
<polygon fill="midnightblue" stroke="midnightblue" points="406.71,-379.75 408.33,-390.22 413.59,-381.03 406.71,-379.75"/>
</g>
<!-- Node12&#45;&gt;Node7 -->
<g id="edge18" class="edge">
<title>Node12&#45;&gt;Node7</title>
<path fill="none" stroke="midnightblue" d="M437.37,-383.91C447.84,-374.91 459.17,-364.45 468.66,-354 486.86,-333.95 588.63,-171.73 610.66,-156 627.77,-143.79 672.17,-130.27 713.42,-119.58"/>
<polygon fill="midnightblue" stroke="midnightblue" points="434.97,-381.36 429.58,-390.49 439.48,-386.71 434.97,-381.36"/>
</g>
<!-- Node12&#45;&gt;Node8 -->
<g id="edge22" class="edge">
<title>Node12&#45;&gt;Node8</title>
<path fill="none" stroke="midnightblue" d="M392.77,-381.06C369.67,-328.38 313.65,-216.68 231.66,-156 208.85,-139.12 180.39,-126.82 154.35,-118.12"/>
<polygon fill="midnightblue" stroke="midnightblue" points="389.66,-382.68 396.83,-390.48 396.09,-379.91 389.66,-382.68"/>
</g>
<!-- Node12&#45;&gt;Node9 -->
<g id="edge23" class="edge">
<title>Node12&#45;&gt;Node9</title>
<path fill="none" stroke="midnightblue" d="M450.38,-385.57C562,-325.91 846.69,-173.74 948.1,-119.54"/>
<polygon fill="midnightblue" stroke="midnightblue" points="448.55,-382.57 441.38,-390.37 451.85,-388.75 448.55,-382.57"/>
</g>
<!-- Node12&#45;&gt;Node10 -->
<g id="edge24" class="edge">
<title>Node12&#45;&gt;Node10</title>
<path fill="none" stroke="midnightblue" d="M422.74,-381.95C453.18,-334.9 516.81,-237.24 572.66,-156 581.06,-143.79 590.7,-130.27 598.42,-119.57"/>
<polygon fill="midnightblue" stroke="midnightblue" points="419.77,-380.1 417.28,-390.4 425.65,-383.9 419.77,-380.1"/>
</g>
<!-- Node13 -->
<g id="node13" class="node">
<title>Node13</title>
<g id="a_node13"><a xlink:href="ParamDescriptor_8h_source.html" target="_top" xlink:title=" ">
<polygon fill="white" stroke="black" points="195.16,-312.5 195.16,-353.5 342.16,-353.5 342.16,-312.5 195.16,-312.5"/>
<text text-anchor="start" x="203.16" y="-341.5" font-family="Helvetica,sans-Serif" font-size="10.00">/home/runner/work/Catena</text>
<text text-anchor="start" x="203.16" y="-330.5" font-family="Helvetica,sans-Serif" font-size="10.00">/Catena/sdks/cpp/common</text>
<text text-anchor="middle" x="268.66" y="-319.5" font-family="Helvetica,sans-Serif" font-size="10.00">/include/ParamDescriptor.h</text>
</a>
</g>
</g>
<!-- Node12&#45;&gt;Node13 -->
<g id="edge19" class="edge">
<title>Node12&#45;&gt;Node13</title>
<path fill="none" stroke="midnightblue" d="M360.79,-385.49C342.27,-375.13 321,-363.25 303.57,-353.51"/>
<polygon fill="midnightblue" stroke="midnightblue" points="359.2,-388.61 369.64,-390.43 362.62,-382.49 359.2,-388.61"/>
</g>
<!-- Node13&#45;&gt;Node2 -->
<g id="edge20" class="edge">
<title>Node13&#45;&gt;Node2</title>
<path fill="none" stroke="midnightblue" d="M234.24,-306.35C220.71,-296.27 205.44,-284.89 192.84,-275.51"/>
<polygon fill="midnightblue" stroke="midnightblue" points="232.29,-309.26 242.4,-312.43 236.47,-303.65 232.29,-309.26"/>
</g>
<!-- Node13&#45;&gt;Node8 -->
<g id="edge21" class="edge">
<title>Node13&#45;&gt;Node8</title>
<path fill="none" stroke="midnightblue" d="M265.66,-302.35C260.08,-263.1 244.47,-194.39 201.66,-156 184.26,-140.39 161.75,-128.38 140.88,-119.56"/>
<polygon fill="midnightblue" stroke="midnightblue" points="262.2,-302.89 266.96,-312.36 269.15,-301.99 262.2,-302.89"/>
</g>
</g>
</svg>
        <g id="navigator" transform="translate(0 0)" fill="#404254">
                <rect fill="#f2f5e9" fill-opacity="0.5" stroke="#606060" stroke-width=".5" x="0" y="0" width="60" height="60"/>
                <use id="zoomplus" xlink:href="#zoomPlus" x="17" y="9" onmousedown="handleZoom(evt,'in')"/>
                <use id="zoomminus" xlink:href="#zoomMin" x="42" y="9" onmousedown="handleZoom(evt,'out')"/>
                <use id="reset" xlink:href="#resetDef" x="30" y="36" onmousedown="handleReset()"/>
                <g id="arrowUp" xlink:href="#dirArrow" transform="translate(30 24)" onmousedown="handlePan(0,-1)">
                  <use xlink:href="#rim" fill="#404040">
                        <set attributeName="fill" to="#808080" begin="arrowUp.mouseover" end="arrowUp.mouseout"/>
                  </use>
                  <path fill="none" stroke="white" stroke-width="1.5" d="M0,-3.0v7 M-2.5,-0.5L0,-3.0L2.5,-0.5"/>
                </g>
                <g id="arrowRight" xlink:href="#dirArrow" transform="rotate(90) translate(36 -43)" onmousedown="handlePan(1,0)">
                  <use xlink:href="#rim" fill="#404040">
                        <set attributeName="fill" to="#808080" begin="arrowRight.mouseover" end="arrowRight.mouseout"/>
                  </use>
                  <path fill="none" stroke="white" stroke-width="1.5" d="M0,-3.0v7 M-2.5,-0.5L0,-3.0L2.5,-0.5"/>
                </g>
                <g id="arrowDown" xlink:href="#dirArrow" transform="rotate(180) translate(-30 -48)" onmousedown="handlePan(0,1)">
                  <use xlink:href="#rim" fill="#404040">
                        <set attributeName="fill" to="#808080" begin="arrowDown.mouseover" end="arrowDown.mouseout"/>
                  </use>
                  <path fill="none" stroke="white" stroke-width="1.5" d="M0,-3.0v7 M-2.5,-0.5L0,-3.0L2.5,-0.5"/>
                </g>
                <g id="arrowLeft" xlink:href="#dirArrow" transform="rotate(270) translate(-36 17)" onmousedown="handlePan(-1,0)">
                  <use xlink:href="#rim" fill="#404040">
                        <set attributeName="fill" to="#808080" begin="arrowLeft.mouseover" end="arrowLeft.mouseout"/>
                  </use>
                  <path fill="none" stroke="white" stroke-width="1.5" d="M0,-3.0v7 M-2.5,-0.5L0,-3.0L2.5,-0.5"/>
                </g>
        </g>
        <svg viewBox="0 0 15 15" width="100%" height="30px" preserveAspectRatio="xMaxYMin meet">
         <g id="arrow_out" transform="scale(0.3 0.3)">
          <a xlink:href="Path_8h__dep__incl_org.svg" target="_base">
           <rect id="button" ry="5" rx="5" y="6" x="6" height="38" width="38"
                fill="#f2f5e9" fill-opacity="0.5" stroke="#606060" stroke-width="1.0"/>
           <path id="arrow"
             d="M 11.500037,31.436501 C 11.940474,20.09759 22.043105,11.32322 32.158766,21.979434 L 37.068811,17.246167 C 37.068811,17.246167 37.088388,32 37.088388,32 L 22.160133,31.978069 C 22.160133,31.978069 26.997745,27.140456 26.997745,27.140456 C 18.528582,18.264221 13.291696,25.230495 11.500037,31.436501 z"
             style="fill:#404040;"/>
          </a>
         </g>
        </svg>
</svg>
