<?xml version="1.0" encoding="UTF-8" standalone="no"?>
<!DOCTYPE svg PUBLIC "-//W3C//DTD SVG 1.1//EN"
 "http://www.w3.org/Graphics/SVG/1.1/DTD/svg11.dtd">
<!-- Generated by graphviz version 2.43.0 (0)
 -->
<!-- Title: /home/runner/work/Catena/Catena/sdks/cpp/common/include/Path.h Pages: 1 -->
<!--zoomable 518 -->
<svg id="main" version="1.1" xmlns="http://www.w3.org/2000/svg" xmlns:xlink="http://www.w3.org/1999/xlink" xml:space="preserve" onload="init(evt)">
<style type="text/css"><![CDATA[
.edge:hover path { stroke: red; }
.edge:hover polygon { stroke: red; fill: red; }
]]></style>
<script type="text/javascript"><![CDATA[
var edges = document.getElementsByTagName('g');
if (edges && edges.length) {
  for (var i=0;i<edges.length;i++) {
    if (edges[i].id.substr(0,4)=='edge') {
      edges[i].setAttribute('class','edge');
    }
  }
}
]]></script>
        <defs>
                <circle id="rim" cx="0" cy="0" r="7"/>
                <circle id="rim2" cx="0" cy="0" r="3.5"/>
                <g id="zoomPlus">
                        <use xlink:href="#rim" fill="#404040">
                                <set attributeName="fill" to="#808080" begin="zoomplus.mouseover" end="zoomplus.mouseout"/>
                        </use>
                        <path d="M-4,0h8M0,-4v8" fill="none" stroke="white" stroke-width="1.5" pointer-events="none"/>
                </g>
                <g id="zoomMin">
                        <use xlink:href="#rim" fill="#404040">
                                <set attributeName="fill" to="#808080" begin="zoomminus.mouseover" end="zoomminus.mouseout"/>
                        </use>
                        <path d="M-4,0h8" fill="none" stroke="white" stroke-width="1.5" pointer-events="none"/>
                </g>
                <g id="dirArrow">
                        <path fill="none" stroke="white" stroke-width="1.5" d="M0,-3.0v7 M-2.5,-0.5L0,-3.0L2.5,-0.5"/>
                </g>
               <g id="resetDef">
                       <use xlink:href="#rim2" fill="#404040">
                               <set attributeName="fill" to="#808080" begin="reset.mouseover" end="reset.mouseout"/>
                       </use>
               </g>
        </defs>

<script type="text/javascript">
var viewWidth = 1223;
var viewHeight = 518;
var sectionId = 'dynsection-1';
</script>
<script xlink:href="svgpan.js"/>
<svg id="graph" class="graph">
<g id="viewport">
<title>/home/runner/work/Catena/Catena/sdks/cpp/common/include/Path.h</title>
<polygon fill="white" stroke="transparent" points="-4,4 -4,-514 1218.5,-514 1218.5,4 -4,4"/>
<!-- Node1 -->
<g id="node1" class="node">
<title>Node1</title>
<g id="a_node1"><a xlink:title="Handles Path objects used to uniquely identify and access OIDs.">
<polygon fill="#bfbfbf" stroke="black" points="758,-468.5 758,-509.5 904,-509.5 904,-468.5 758,-468.5"/>
<text text-anchor="start" x="766" y="-497.5" font-family="Helvetica,sans-Serif" font-size="10.00">/home/runner/work/Catena</text>
<text text-anchor="start" x="766" y="-486.5" font-family="Helvetica,sans-Serif" font-size="10.00">/Catena/sdks/cpp/common</text>
<text text-anchor="middle" x="831" y="-475.5" font-family="Helvetica,sans-Serif" font-size="10.00">/include/Path.h</text>
</a>
</g>
</g>
<!-- Node2 -->
<g id="node2" class="node">
<title>Node2</title>
<g id="a_node2"><a xlink:href="IParam_8h.html" target="_top" xlink:title="Interface for parameters.">
<polygon fill="white" stroke="black" points="598,-390.5 598,-431.5 744,-431.5 744,-390.5 598,-390.5"/>
<text text-anchor="start" x="606" y="-419.5" font-family="Helvetica,sans-Serif" font-size="10.00">/home/runner/work/Catena</text>
<text text-anchor="start" x="606" y="-408.5" font-family="Helvetica,sans-Serif" font-size="10.00">/Catena/sdks/cpp/common</text>
<text text-anchor="middle" x="671" y="-397.5" font-family="Helvetica,sans-Serif" font-size="10.00">/include/IParam.h</text>
</a>
</g>
</g>
<!-- Node1&#45;&gt;Node2 -->
<g id="edge1" class="edge">
<title>Node1&#45;&gt;Node2</title>
<path fill="none" stroke="midnightblue" d="M780.58,-464.05C758.51,-453.57 732.95,-441.42 712.06,-431.51"/>
<polygon fill="midnightblue" stroke="midnightblue" points="779.26,-467.3 789.8,-468.43 782.26,-460.98 779.26,-467.3"/>
</g>
<!-- Node3 -->
<g id="node3" class="node">
<title>Node3</title>
<g id="a_node3"><a xlink:href="Device_8h.html" target="_top" xlink:title="Device class definition.">
<polygon fill="white" stroke="black" points="424.5,-312.5 424.5,-353.5 581.5,-353.5 581.5,-312.5 424.5,-312.5"/>
<text text-anchor="start" x="432.5" y="-341.5" font-family="Helvetica,sans-Serif" font-size="10.00">/home/runner/work/Catena</text>
<text text-anchor="start" x="432.5" y="-330.5" font-family="Helvetica,sans-Serif" font-size="10.00">/Catena/sdks/cpp/lite/include</text>
<text text-anchor="middle" x="503" y="-319.5" font-family="Helvetica,sans-Serif" font-size="10.00">/Device.h</text>
</a>
</g>
</g>
<!-- Node1&#45;&gt;Node3 -->
<g id="edge23" class="edge">
<title>Node1&#45;&gt;Node3</title>
<path fill="none" stroke="midnightblue" d="M747.85,-481.57C698.81,-474.77 637.13,-460.78 589,-432 556.36,-412.48 529.52,-376.38 514.93,-353.86"/>
<polygon fill="midnightblue" stroke="midnightblue" points="747.43,-485.05 757.8,-482.88 748.34,-478.11 747.43,-485.05"/>
</g>
<!-- Node7 -->
<g id="node7" class="node">
<title>Node7</title>
<g id="a_node7"><a xlink:href="AuthzInfo_8h.html" target="_top" xlink:title="Class for handling authorization information.">
<polygon fill="white" stroke="black" points="767.5,-156.5 767.5,-197.5 924.5,-197.5 924.5,-156.5 767.5,-156.5"/>
<text text-anchor="start" x="775.5" y="-185.5" font-family="Helvetica,sans-Serif" font-size="10.00">/home/runner/work/Catena</text>
<text text-anchor="start" x="775.5" y="-174.5" font-family="Helvetica,sans-Serif" font-size="10.00">/Catena/sdks/cpp/lite/include</text>
<text text-anchor="middle" x="846" y="-163.5" font-family="Helvetica,sans-Serif" font-size="10.00">/AuthzInfo.h</text>
</a>
</g>
</g>
<!-- Node1&#45;&gt;Node7 -->
<g id="edge22" class="edge">
<title>Node1&#45;&gt;Node7</title>
<path fill="none" stroke="midnightblue" d="M849.82,-459.61C874.63,-420.31 916.98,-346.23 933,-276 937.15,-257.8 941.94,-250.39 933,-234 924.48,-218.39 909.54,-206.48 894.42,-197.74"/>
<polygon fill="midnightblue" stroke="midnightblue" points="846.66,-458.06 844.22,-468.37 852.55,-461.83 846.66,-458.06"/>
</g>
<!-- Node8 -->
<g id="node8" class="node">
<title>Node8</title>
<g id="a_node8"><a xlink:href="ParamWithValue_8h.html" target="_top" xlink:title="Interface for acessing parameter values.">
<polygon fill="white" stroke="black" points="641.5,-0.5 641.5,-41.5 798.5,-41.5 798.5,-0.5 641.5,-0.5"/>
<text text-anchor="start" x="649.5" y="-29.5" font-family="Helvetica,sans-Serif" font-size="10.00">/home/runner/work/Catena</text>
<text text-anchor="start" x="649.5" y="-18.5" font-family="Helvetica,sans-Serif" font-size="10.00">/Catena/sdks/cpp/lite/include</text>
<text text-anchor="middle" x="720" y="-7.5" font-family="Helvetica,sans-Serif" font-size="10.00">/ParamWithValue.h</text>
</a>
</g>
</g>
<!-- Node1&#45;&gt;Node8 -->
<g id="edge24" class="edge">
<title>Node1&#45;&gt;Node8</title>
<path fill="none" stroke="midnightblue" d="M747.91,-481.29C537.46,-463.17 0,-409.52 0,-334 0,-334 0,-334 0,-176 0,-46.02 454.41,-25.37 641.23,-22.37"/>
<polygon fill="midnightblue" stroke="midnightblue" points="747.72,-484.78 757.98,-482.15 748.32,-477.81 747.72,-484.78"/>
</g>
<!-- Node12 -->
<g id="node12" class="node">
<title>Node12</title>
<g id="a_node12"><a xlink:href="DeviceModel_8h.html" target="_top" xlink:title="API for using the Catena device model.">
<polygon fill="white" stroke="black" points="1057.5,-390.5 1057.5,-431.5 1214.5,-431.5 1214.5,-390.5 1057.5,-390.5"/>
<text text-anchor="start" x="1065.5" y="-419.5" font-family="Helvetica,sans-Serif" font-size="10.00">/home/runner/work/Catena</text>
<text text-anchor="start" x="1065.5" y="-408.5" font-family="Helvetica,sans-Serif" font-size="10.00">/Catena/sdks/cpp/full/include</text>
<text text-anchor="middle" x="1136" y="-397.5" font-family="Helvetica,sans-Serif" font-size="10.00">/DeviceModel.h</text>
</a>
</g>
</g>
<!-- Node1&#45;&gt;Node12 -->
<g id="edge19" class="edge">
<title>Node1&#45;&gt;Node12</title>
<path fill="none" stroke="midnightblue" d="M914.02,-467.31C958.77,-456.16 1013.67,-442.48 1057.67,-431.52"/>
<polygon fill="midnightblue" stroke="midnightblue" points="912.91,-463.98 904.06,-469.8 914.6,-470.77 912.91,-463.98"/>
</g>
<!-- Node13 -->
<g id="node13" class="node">
<title>Node13</title>
<g id="a_node13"><a xlink:href="ParamAccessor_8h.html" target="_top" xlink:title="Convenient access to Params in the DeviceModel.">
<polygon fill="white" stroke="black" points="1038.5,-312.5 1038.5,-353.5 1195.5,-353.5 1195.5,-312.5 1038.5,-312.5"/>
<text text-anchor="start" x="1046.5" y="-341.5" font-family="Helvetica,sans-Serif" font-size="10.00">/home/runner/work/Catena</text>
<text text-anchor="start" x="1046.5" y="-330.5" font-family="Helvetica,sans-Serif" font-size="10.00">/Catena/sdks/cpp/full/include</text>
<text text-anchor="middle" x="1117" y="-319.5" font-family="Helvetica,sans-Serif" font-size="10.00">/ParamAccessor.h</text>
</a>
</g>
</g>
<!-- Node1&#45;&gt;Node13 -->
<g id="edge21" class="edge">
<title>Node1&#45;&gt;Node13</title>
<path fill="none" stroke="midnightblue" d="M913.68,-469.84C943.75,-461.1 977.17,-448.78 1005,-432 1027.88,-418.21 1028.05,-407.77 1048,-390 1062.05,-377.48 1078.38,-364.18 1091.63,-353.68"/>
<polygon fill="midnightblue" stroke="midnightblue" points="912.72,-466.47 904.05,-472.55 914.62,-473.21 912.72,-466.47"/>
</g>
<!-- Node2&#45;&gt;Node3 -->
<g id="edge2" class="edge">
<title>Node2&#45;&gt;Node3</title>
<path fill="none" stroke="midnightblue" d="M618.37,-386.19C595.12,-375.67 568.14,-363.47 546.12,-353.51"/>
<polygon fill="midnightblue" stroke="midnightblue" points="617.18,-389.5 627.74,-390.43 620.07,-383.12 617.18,-389.5"/>
</g>
<!-- Node5 -->
<g id="node5" class="node">
<title>Node5</title>
<g id="a_node5"><a xlink:href="NamedChoiceConstraint_8h.html" target="_top" xlink:title="A constraint that checks if a value is within some named choices.">
<polygon fill="white" stroke="black" points="28.5,-234.5 28.5,-275.5 185.5,-275.5 185.5,-234.5 28.5,-234.5"/>
<text text-anchor="start" x="36.5" y="-263.5" font-family="Helvetica,sans-Serif" font-size="10.00">/home/runner/work/Catena</text>
<text text-anchor="start" x="36.5" y="-252.5" font-family="Helvetica,sans-Serif" font-size="10.00">/Catena/sdks/cpp/lite/include</text>
<text text-anchor="middle" x="107" y="-241.5" font-family="Helvetica,sans-Serif" font-size="10.00">/NamedChoiceConstraint.h</text>
</a>
</g>
</g>
<!-- Node2&#45;&gt;Node5 -->
<g id="edge14" class="edge">
<title>Node2&#45;&gt;Node5</title>
<path fill="none" stroke="midnightblue" d="M587.88,-393.85C537.57,-383.57 472.27,-369.34 415,-354 325.97,-330.15 224.4,-296.57 163.02,-275.55"/>
<polygon fill="midnightblue" stroke="midnightblue" points="587.24,-397.29 597.74,-395.85 588.63,-390.43 587.24,-397.29"/>
</g>
<!-- Node6 -->
<g id="node6" class="node">
<title>Node6</title>
<g id="a_node6"><a xlink:href="ParamDescriptor_8h_source.html" target="_top" xlink:title=" ">
<polygon fill="white" stroke="black" points="767.5,-234.5 767.5,-275.5 924.5,-275.5 924.5,-234.5 767.5,-234.5"/>
<text text-anchor="start" x="775.5" y="-263.5" font-family="Helvetica,sans-Serif" font-size="10.00">/home/runner/work/Catena</text>
<text text-anchor="start" x="775.5" y="-252.5" font-family="Helvetica,sans-Serif" font-size="10.00">/Catena/sdks/cpp/lite/include</text>
<text text-anchor="middle" x="846" y="-241.5" font-family="Helvetica,sans-Serif" font-size="10.00">/ParamDescriptor.h</text>
</a>
</g>
</g>
<!-- Node2&#45;&gt;Node6 -->
<g id="edge15" class="edge">
<title>Node2&#45;&gt;Node6</title>
<path fill="none" stroke="midnightblue" d="M701.11,-383.51C735.98,-352.82 792.61,-302.98 823.74,-275.59"/>
<polygon fill="midnightblue" stroke="midnightblue" points="698.36,-381.26 693.16,-390.5 702.98,-386.52 698.36,-381.26"/>
</g>
<!-- Node2&#45;&gt;Node8 -->
<g id="edge16" class="edge">
<title>Node2&#45;&gt;Node8</title>
<path fill="none" stroke="midnightblue" d="M754.33,-400.03C837.49,-384.88 953,-347.39 953,-256 953,-256 953,-256 953,-176 953,-131.55 963.54,-110.3 933,-78 914.41,-58.35 851.3,-43.31 798.56,-33.79"/>
<polygon fill="midnightblue" stroke="midnightblue" points="753.61,-396.6 744.36,-401.77 754.81,-403.5 753.61,-396.6"/>
</g>
<!-- Node10 -->
<g id="node10" class="node">
<title>Node10</title>
<g id="a_node10"><a xlink:href="PicklistConstraint_8h.html" target="_top" xlink:title="A constraint that checks if a value is in a list of strings.">
<polygon fill="white" stroke="black" points="417.5,-234.5 417.5,-275.5 574.5,-275.5 574.5,-234.5 417.5,-234.5"/>
<text text-anchor="start" x="425.5" y="-263.5" font-family="Helvetica,sans-Serif" font-size="10.00">/home/runner/work/Catena</text>
<text text-anchor="start" x="425.5" y="-252.5" font-family="Helvetica,sans-Serif" font-size="10.00">/Catena/sdks/cpp/lite/include</text>
<text text-anchor="middle" x="496" y="-241.5" font-family="Helvetica,sans-Serif" font-size="10.00">/PicklistConstraint.h</text>
</a>
</g>
</g>
<!-- Node2&#45;&gt;Node10 -->
<g id="edge17" class="edge">
<title>Node2&#45;&gt;Node10</title>
<path fill="none" stroke="midnightblue" d="M651.96,-382.08C636.79,-361.16 614.16,-332.71 590,-312 573.56,-297.91 553.12,-285.26 535.5,-275.57"/>
<polygon fill="midnightblue" stroke="midnightblue" points="649.13,-384.14 657.78,-390.26 654.83,-380.08 649.13,-384.14"/>
</g>
<!-- Node11 -->
<g id="node11" class="node">
<title>Node11</title>
<g id="a_node11"><a xlink:href="RangeConstraint_8h.html" target="_top" xlink:title="A constraint that checks if a value is within a range.">
<polygon fill="white" stroke="black" points="592.5,-234.5 592.5,-275.5 749.5,-275.5 749.5,-234.5 592.5,-234.5"/>
<text text-anchor="start" x="600.5" y="-263.5" font-family="Helvetica,sans-Serif" font-size="10.00">/home/runner/work/Catena</text>
<text text-anchor="start" x="600.5" y="-252.5" font-family="Helvetica,sans-Serif" font-size="10.00">/Catena/sdks/cpp/lite/include</text>
<text text-anchor="middle" x="671" y="-241.5" font-family="Helvetica,sans-Serif" font-size="10.00">/RangeConstraint.h</text>
</a>
</g>
</g>
<!-- Node2&#45;&gt;Node11 -->
<g id="edge18" class="edge">
<title>Node2&#45;&gt;Node11</title>
<path fill="none" stroke="midnightblue" d="M671,-380.36C671,-349.61 671,-302.36 671,-275.83"/>
<polygon fill="midnightblue" stroke="midnightblue" points="667.5,-380.5 671,-390.5 674.5,-380.5 667.5,-380.5"/>
</g>
<!-- Node4 -->
<g id="node4" class="node">
<title>Node4</title>
<g id="a_node4"><a xlink:href="LanguagePack_8h.html" target="_top" xlink:title="multi language support in 2 classes: LanguagePack and LanguagePacks">
<polygon fill="white" stroke="black" points="242.5,-234.5 242.5,-275.5 399.5,-275.5 399.5,-234.5 242.5,-234.5"/>
<text text-anchor="start" x="250.5" y="-263.5" font-family="Helvetica,sans-Serif" font-size="10.00">/home/runner/work/Catena</text>
<text text-anchor="start" x="250.5" y="-252.5" font-family="Helvetica,sans-Serif" font-size="10.00">/Catena/sdks/cpp/lite/include</text>
<text text-anchor="middle" x="321" y="-241.5" font-family="Helvetica,sans-Serif" font-size="10.00">/LanguagePack.h</text>
</a>
</g>
</g>
<!-- Node3&#45;&gt;Node4 -->
<g id="edge3" class="edge">
<title>Node3&#45;&gt;Node4</title>
<path fill="none" stroke="midnightblue" d="M446.65,-308.47C421.32,-297.89 391.78,-285.56 367.71,-275.51"/>
<polygon fill="midnightblue" stroke="midnightblue" points="445.55,-311.8 456.13,-312.43 448.25,-305.34 445.55,-311.8"/>
</g>
<!-- Node3&#45;&gt;Node5 -->
<g id="edge4" class="edge">
<title>Node3&#45;&gt;Node5</title>
<path fill="none" stroke="midnightblue" d="M414.51,-316.34C354.01,-305.47 272.05,-290.4 200,-276 195.3,-275.06 190.48,-274.08 185.61,-273.07"/>
<polygon fill="midnightblue" stroke="midnightblue" points="413.94,-319.8 424.4,-318.12 415.18,-312.91 413.94,-319.8"/>
</g>
<!-- Node3&#45;&gt;Node6 -->
<g id="edge5" class="edge">
<title>Node3&#45;&gt;Node6</title>
<path fill="none" stroke="midnightblue" d="M591.67,-312.69C640.72,-301.97 702.75,-288.34 758,-276 761.06,-275.32 764.18,-274.62 767.32,-273.91"/>
<polygon fill="midnightblue" stroke="midnightblue" points="590.74,-309.31 581.72,-314.87 592.24,-316.15 590.74,-309.31"/>
</g>
<!-- Node3&#45;&gt;Node8 -->
<g id="edge11" class="edge">
<title>Node3&#45;&gt;Node8</title>
<path fill="none" stroke="midnightblue" d="M414.12,-319.22C339.99,-307.66 244.63,-290.3 233,-276 221.22,-261.52 222.77,-249.61 233,-234 324.1,-94.98 528.35,-46.63 641.24,-30.18"/>
<polygon fill="midnightblue" stroke="midnightblue" points="414.01,-322.75 424.43,-320.82 415.08,-315.83 414.01,-322.75"/>
</g>
<!-- Node3&#45;&gt;Node10 -->
<g id="edge12" class="edge">
<title>Node3&#45;&gt;Node10</title>
<path fill="none" stroke="midnightblue" d="M500.26,-302.3C499.44,-293.3 498.55,-283.65 497.8,-275.51"/>
<polygon fill="midnightblue" stroke="midnightblue" points="496.79,-302.79 501.2,-312.43 503.77,-302.15 496.79,-302.79"/>
</g>
<!-- Node3&#45;&gt;Node11 -->
<g id="edge13" class="edge">
<title>Node3&#45;&gt;Node11</title>
<path fill="none" stroke="midnightblue" d="M555.63,-308.19C578.88,-297.67 605.86,-285.47 627.88,-275.51"/>
<polygon fill="midnightblue" stroke="midnightblue" points="553.93,-305.12 546.26,-312.43 556.82,-311.5 553.93,-305.12"/>
</g>
<!-- Node6&#45;&gt;Node7 -->
<g id="edge6" class="edge">
<title>Node6&#45;&gt;Node7</title>
<path fill="none" stroke="midnightblue" d="M846,-224.3C846,-215.3 846,-205.65 846,-197.51"/>
<polygon fill="midnightblue" stroke="midnightblue" points="842.5,-224.43 846,-234.43 849.5,-224.43 842.5,-224.43"/>
</g>
<!-- Node6&#45;&gt;Node8 -->
<g id="edge10" class="edge">
<title>Node6&#45;&gt;Node8</title>
<path fill="none" stroke="midnightblue" d="M794.24,-229.23C780.95,-220.85 767.69,-210.41 758,-198 721.45,-151.19 718.22,-76.91 718.99,-41.73"/>
<polygon fill="midnightblue" stroke="midnightblue" points="792.56,-232.3 802.94,-234.44 796.15,-226.3 792.56,-232.3"/>
</g>
<!-- Node7&#45;&gt;Node8 -->
<g id="edge7" class="edge">
<title>Node7&#45;&gt;Node8</title>
<path fill="none" stroke="midnightblue" d="M795,-151.16C781.59,-142.73 768.08,-132.29 758,-120 738.9,-96.72 728.64,-62.74 723.75,-41.52"/>
<polygon fill="midnightblue" stroke="midnightblue" points="793.38,-154.26 803.76,-156.4 796.97,-148.26 793.38,-154.26"/>
</g>
<!-- Node9 -->
<g id="node9" class="node">
<title>Node9</title>
<g id="a_node9"><a xlink:href="StructInfo_8h.html" target="_top" xlink:title="Structured data serialization and deserialization to protobuf.">
<polygon fill="white" stroke="black" points="767.5,-78.5 767.5,-119.5 924.5,-119.5 924.5,-78.5 767.5,-78.5"/>
<text text-anchor="start" x="775.5" y="-107.5" font-family="Helvetica,sans-Serif" font-size="10.00">/home/runner/work/Catena</text>
<text text-anchor="start" x="775.5" y="-96.5" font-family="Helvetica,sans-Serif" font-size="10.00">/Catena/sdks/cpp/lite/include</text>
<text text-anchor="middle" x="846" y="-85.5" font-family="Helvetica,sans-Serif" font-size="10.00">/StructInfo.h</text>
</a>
</g>
</g>
<!-- Node7&#45;&gt;Node9 -->
<g id="edge8" class="edge">
<title>Node7&#45;&gt;Node9</title>
<path fill="none" stroke="midnightblue" d="M846,-146.3C846,-137.3 846,-127.65 846,-119.51"/>
<polygon fill="midnightblue" stroke="midnightblue" points="842.5,-146.43 846,-156.43 849.5,-146.43 842.5,-146.43"/>
</g>
<!-- Node9&#45;&gt;Node8 -->
<g id="edge9" class="edge">
<title>Node9&#45;&gt;Node8</title>
<path fill="none" stroke="midnightblue" d="M804.89,-73.2C787.84,-62.92 768.34,-51.16 752.34,-41.51"/>
<polygon fill="midnightblue" stroke="midnightblue" points="803.18,-76.26 813.55,-78.43 806.8,-70.27 803.18,-76.26"/>
</g>
<!-- Node12&#45;&gt;Node13 -->
<g id="edge20" class="edge">
<title>Node12&#45;&gt;Node13</title>
<path fill="none" stroke="midnightblue" d="M1128.65,-380.59C1126.38,-371.51 1123.94,-361.74 1121.88,-353.51"/>
<polygon fill="midnightblue" stroke="midnightblue" points="1125.29,-381.58 1131.11,-390.43 1132.08,-379.88 1125.29,-381.58"/>
</g>
</g>
</svg>
        <g id="navigator" transform="translate(0 0)" fill="#404254">
                <rect fill="#f2f5e9" fill-opacity="0.5" stroke="#606060" stroke-width=".5" x="0" y="0" width="60" height="60"/>
                <use id="zoomplus" xlink:href="#zoomPlus" x="17" y="9" onmousedown="handleZoom(evt,'in')"/>
                <use id="zoomminus" xlink:href="#zoomMin" x="42" y="9" onmousedown="handleZoom(evt,'out')"/>
                <use id="reset" xlink:href="#resetDef" x="30" y="36" onmousedown="handleReset()"/>
                <g id="arrowUp" xlink:href="#dirArrow" transform="translate(30 24)" onmousedown="handlePan(0,-1)">
                  <use xlink:href="#rim" fill="#404040">
                        <set attributeName="fill" to="#808080" begin="arrowUp.mouseover" end="arrowUp.mouseout"/>
                  </use>
                  <path fill="none" stroke="white" stroke-width="1.5" d="M0,-3.0v7 M-2.5,-0.5L0,-3.0L2.5,-0.5"/>
                </g>
                <g id="arrowRight" xlink:href="#dirArrow" transform="rotate(90) translate(36 -43)" onmousedown="handlePan(1,0)">
                  <use xlink:href="#rim" fill="#404040">
                        <set attributeName="fill" to="#808080" begin="arrowRight.mouseover" end="arrowRight.mouseout"/>
                  </use>
                  <path fill="none" stroke="white" stroke-width="1.5" d="M0,-3.0v7 M-2.5,-0.5L0,-3.0L2.5,-0.5"/>
                </g>
                <g id="arrowDown" xlink:href="#dirArrow" transform="rotate(180) translate(-30 -48)" onmousedown="handlePan(0,1)">
                  <use xlink:href="#rim" fill="#404040">
                        <set attributeName="fill" to="#808080" begin="arrowDown.mouseover" end="arrowDown.mouseout"/>
                  </use>
                  <path fill="none" stroke="white" stroke-width="1.5" d="M0,-3.0v7 M-2.5,-0.5L0,-3.0L2.5,-0.5"/>
                </g>
                <g id="arrowLeft" xlink:href="#dirArrow" transform="rotate(270) translate(-36 17)" onmousedown="handlePan(-1,0)">
                  <use xlink:href="#rim" fill="#404040">
                        <set attributeName="fill" to="#808080" begin="arrowLeft.mouseover" end="arrowLeft.mouseout"/>
                  </use>
                  <path fill="none" stroke="white" stroke-width="1.5" d="M0,-3.0v7 M-2.5,-0.5L0,-3.0L2.5,-0.5"/>
                </g>
        </g>
        <svg viewBox="0 0 15 15" width="100%" height="30px" preserveAspectRatio="xMaxYMin meet">
         <g id="arrow_out" transform="scale(0.3 0.3)">
          <a xlink:href="Path_8h__dep__incl_org.svg" target="_base">
           <rect id="button" ry="5" rx="5" y="6" x="6" height="38" width="38"
                fill="#f2f5e9" fill-opacity="0.5" stroke="#606060" stroke-width="1.0"/>
           <path id="arrow"
             d="M 11.500037,31.436501 C 11.940474,20.09759 22.043105,11.32322 32.158766,21.979434 L 37.068811,17.246167 C 37.068811,17.246167 37.088388,32 37.088388,32 L 22.160133,31.978069 C 22.160133,31.978069 26.997745,27.140456 26.997745,27.140456 C 18.528582,18.264221 13.291696,25.230495 11.500037,31.436501 z"
             style="fill:#404040;"/>
          </a>
         </g>
        </svg>
</svg>
