<?xml version="1.0" encoding="UTF-8" standalone="no"?>
<!DOCTYPE svg PUBLIC "-//W3C//DTD SVG 1.1//EN"
 "http://www.w3.org/Graphics/SVG/1.1/DTD/svg11.dtd">
<!-- Generated by graphviz version 2.43.0 (0)
 -->
<!-- Title: /home/runner/work/Catena/Catena/sdks/cpp/common/include/Path.h Pages: 1 -->
<svg width="1069pt" height="511pt"
 viewBox="0.00 0.00 1068.62 511.00" xmlns="http://www.w3.org/2000/svg" xmlns:xlink="http://www.w3.org/1999/xlink">
<g id="graph0" class="graph" transform="scale(1 1) rotate(0) translate(4 507)">
<title>/home/runner/work/Catena/Catena/sdks/cpp/common/include/Path.h</title>
<!-- Node1 -->
<g id="Node000001" class="node">
<title>Node1</title>
<g id="a_Node000001"><a xlink:title="Handles Path objects used to uniquely identify and access OIDs.">
<polygon fill="#999999" stroke="#666666" points="322.62,-503 176.62,-503 176.62,-462 322.62,-462 322.62,-503"/>
<text text-anchor="start" x="184.62" y="-491" font-family="Helvetica,sans-Serif" font-size="10.00">/home/runner/work/Catena</text>
<text text-anchor="start" x="184.62" y="-480" font-family="Helvetica,sans-Serif" font-size="10.00">/Catena/sdks/cpp/common</text>
<text text-anchor="middle" x="249.62" y="-469" font-family="Helvetica,sans-Serif" font-size="10.00">/include/Path.h</text>
</a>
</g>
</g>
<!-- Node2 -->
<g id="Node000002" class="node">
<title>Node2</title>
<g id="a_Node000002"><a xlink:href="Authorization_8h.html" target="_top" xlink:title="Class for handling authorization information.">
<polygon fill="white" stroke="#666666" points="239.62,-272 93.62,-272 93.62,-231 239.62,-231 239.62,-272"/>
<text text-anchor="start" x="101.62" y="-260" font-family="Helvetica,sans-Serif" font-size="10.00">/home/runner/work/Catena</text>
<text text-anchor="start" x="101.62" y="-249" font-family="Helvetica,sans-Serif" font-size="10.00">/Catena/sdks/cpp/common</text>
<text text-anchor="middle" x="166.62" y="-238" font-family="Helvetica,sans-Serif" font-size="10.00">/include/Authorization.h</text>
</a>
</g>
</g>
<!-- Node1&#45;&gt;Node2 -->
<g id="edge1_Node000001_Node000002" class="edge">
<title>Node1&#45;&gt;Node2</title>
<g id="a_edge1_Node000001_Node000002"><a xlink:title=" ">
<path fill="none" stroke="#63b8ff" d="M225,-454.15C204.07,-428.91 175.56,-389.34 163.62,-349 156,-323.28 159.08,-292.02 162.46,-272.18"/>
<polygon fill="#63b8ff" stroke="#63b8ff" points="222.37,-456.45 231.5,-461.82 227.71,-451.93 222.37,-456.45"/>
</a>
</g>
</g>
<!-- Node3 -->
<g id="Node000003" class="node">
<title>Node3</title>
<g id="a_Node000003"><a xlink:href="Device_8h.html" target="_top" xlink:title="Device class definition.">
<polygon fill="white" stroke="#666666" points="520.62,-195 374.62,-195 374.62,-154 520.62,-154 520.62,-195"/>
<text text-anchor="start" x="382.62" y="-183" font-family="Helvetica,sans-Serif" font-size="10.00">/home/runner/work/Catena</text>
<text text-anchor="start" x="382.62" y="-172" font-family="Helvetica,sans-Serif" font-size="10.00">/Catena/sdks/cpp/common</text>
<text text-anchor="middle" x="447.62" y="-161" font-family="Helvetica,sans-Serif" font-size="10.00">/include/Device.h</text>
</a>
</g>
</g>
<!-- Node1&#45;&gt;Node3 -->
<g id="edge14_Node000001_Node000003" class="edge">
<title>Node1&#45;&gt;Node3</title>
<g id="a_edge14_Node000001_Node000003"><a xlink:title=" ">
<path fill="none" stroke="#63b8ff" d="M332.82,-472.93C393.18,-464.8 467.47,-450.15 486.62,-426 541.72,-356.51 485.92,-241.22 459.66,-195.28"/>
<polygon fill="#63b8ff" stroke="#63b8ff" points="332.34,-469.47 322.88,-474.23 333.25,-476.41 332.34,-469.47"/>
</a>
</g>
</g>
<!-- Node8 -->
<g id="Node000008" class="node">
<title>Node8</title>
<g id="a_Node000008"><a xlink:href="ParamWithValue_8h.html" target="_top" xlink:title="Interface for acessing parameter values.">
<polygon fill="white" stroke="#666666" points="154.12,-118 7.12,-118 7.12,-77 154.12,-77 154.12,-118"/>
<text text-anchor="start" x="15.12" y="-106" font-family="Helvetica,sans-Serif" font-size="10.00">/home/runner/work/Catena</text>
<text text-anchor="start" x="15.12" y="-95" font-family="Helvetica,sans-Serif" font-size="10.00">/Catena/sdks/cpp/common</text>
<text text-anchor="middle" x="80.62" y="-84" font-family="Helvetica,sans-Serif" font-size="10.00">/include/ParamWithValue.h</text>
</a>
</g>
</g>
<!-- Node1&#45;&gt;Node8 -->
<g id="edge25_Node000001_Node000008" class="edge">
<title>Node1&#45;&gt;Node8</title>
<g id="a_edge25_Node000001_Node000008"><a xlink:title=" ">
<path fill="none" stroke="#63b8ff" d="M166.53,-466.52C94.12,-448.11 0.62,-408.95 0.62,-329.5 0.62,-329.5 0.62,-329.5 0.62,-250.5 0.62,-206.79 -1.85,-192.07 19.62,-154 27.5,-140.03 40.16,-127.66 51.91,-118.17"/>
<polygon fill="#63b8ff" stroke="#63b8ff" points="166.05,-470 176.59,-468.98 167.71,-463.2 166.05,-470"/>
</a>
</g>
</g>
<!-- Node12 -->
<g id="Node000012" class="node">
<title>Node12</title>
<g id="a_Node000012"><a xlink:href="IParam_8h.html" target="_top" xlink:title="Interface for parameters.">
<polygon fill="white" stroke="#666666" points="477.62,-426 331.62,-426 331.62,-385 477.62,-385 477.62,-426"/>
<text text-anchor="start" x="339.62" y="-414" font-family="Helvetica,sans-Serif" font-size="10.00">/home/runner/work/Catena</text>
<text text-anchor="start" x="339.62" y="-403" font-family="Helvetica,sans-Serif" font-size="10.00">/Catena/sdks/cpp/common</text>
<text text-anchor="middle" x="404.62" y="-392" font-family="Helvetica,sans-Serif" font-size="10.00">/include/IParam.h</text>
</a>
</g>
</g>
<!-- Node1&#45;&gt;Node12 -->
<g id="edge15_Node000001_Node000012" class="edge">
<title>Node1&#45;&gt;Node12</title>
<g id="a_edge15_Node000001_Node000012"><a xlink:title=" ">
<path fill="none" stroke="#63b8ff" d="M299.04,-457.59C320.07,-447.41 344.3,-435.69 364.23,-426.04"/>
<polygon fill="#63b8ff" stroke="#63b8ff" points="297.42,-454.48 289.94,-461.99 300.46,-460.79 297.42,-454.48"/>
</a>
</g>
</g>
<!-- Node2&#45;&gt;Node3 -->
<g id="edge2_Node000002_Node000003" class="edge">
<title>Node2&#45;&gt;Node3</title>
<g id="a_edge2_Node000002_Node000003"><a xlink:title=" ">
<path fill="none" stroke="#63b8ff" d="M249.61,-228.35C289.2,-217.78 336.15,-205.25 374.4,-195.04"/>
<polygon fill="#63b8ff" stroke="#63b8ff" points="248.47,-225.03 239.71,-230.99 250.28,-231.79 248.47,-225.03"/>
</a>
</g>
</g>
<!-- Node2&#45;&gt;Node8 -->
<g id="edge11_Node000002_Node000008" class="edge">
<title>Node2&#45;&gt;Node8</title>
<g id="a_edge11_Node000002_Node000008"><a xlink:title=" ">
<path fill="none" stroke="#63b8ff" d="M181.43,-221.64C189.59,-201.42 195.83,-174.46 183.62,-154 174.09,-138.04 158.21,-126.4 141.75,-118.03"/>
<polygon fill="#63b8ff" stroke="#63b8ff" points="178.15,-220.41 177.35,-230.97 184.57,-223.22 178.15,-220.41"/>
</a>
</g>
</g>
<!-- Node11 -->
<g id="Node000011" class="node">
<title>Node11</title>
<g id="a_Node000011"><a xlink:href="StructInfo_8h.html" target="_top" xlink:title="Structured data serialization and deserialization to protobuf.">
<polygon fill="white" stroke="#666666" points="174.62,-195 28.62,-195 28.62,-154 174.62,-154 174.62,-195"/>
<text text-anchor="start" x="36.62" y="-183" font-family="Helvetica,sans-Serif" font-size="10.00">/home/runner/work/Catena</text>
<text text-anchor="start" x="36.62" y="-172" font-family="Helvetica,sans-Serif" font-size="10.00">/Catena/sdks/cpp/common</text>
<text text-anchor="middle" x="101.62" y="-161" font-family="Helvetica,sans-Serif" font-size="10.00">/include/StructInfo.h</text>
</a>
</g>
</g>
<!-- Node2&#45;&gt;Node11 -->
<g id="edge12_Node000002_Node000011" class="edge">
<title>Node2&#45;&gt;Node11</title>
<g id="a_edge12_Node000002_Node000011"><a xlink:title=" ">
<path fill="none" stroke="#63b8ff" d="M142.99,-223.23C134.91,-213.91 126.03,-203.67 118.58,-195.07"/>
<polygon fill="#63b8ff" stroke="#63b8ff" points="140.35,-225.53 149.54,-230.79 145.64,-220.95 140.35,-225.53"/>
</a>
</g>
</g>
<!-- Node4 -->
<g id="Node000004" class="node">
<title>Node4</title>
<g id="a_Node000004"><a xlink:href="LanguagePack_8h.html" target="_top" xlink:title="multi language support in 2 classes: LanguagePack and LanguagePacks">
<polygon fill="white" stroke="#666666" points="520.62,-118 374.62,-118 374.62,-77 520.62,-77 520.62,-118"/>
<text text-anchor="start" x="382.62" y="-106" font-family="Helvetica,sans-Serif" font-size="10.00">/home/runner/work/Catena</text>
<text text-anchor="start" x="382.62" y="-95" font-family="Helvetica,sans-Serif" font-size="10.00">/Catena/sdks/cpp/common</text>
<text text-anchor="middle" x="447.62" y="-84" font-family="Helvetica,sans-Serif" font-size="10.00">/include/LanguagePack.h</text>
</a>
</g>
</g>
<!-- Node3&#45;&gt;Node4 -->
<g id="edge3_Node000003_Node000004" class="edge">
<title>Node3&#45;&gt;Node4</title>
<g id="a_edge3_Node000003_Node000004"><a xlink:title=" ">
<path fill="none" stroke="#63b8ff" d="M447.62,-143.69C447.62,-135.08 447.62,-125.9 447.62,-118.07"/>
<polygon fill="#63b8ff" stroke="#63b8ff" points="444.12,-143.79 447.62,-153.79 451.12,-143.79 444.12,-143.79"/>
</a>
</g>
</g>
<!-- Node5 -->
<g id="Node000005" class="node">
<title>Node5</title>
<g id="a_Node000005"><a xlink:href="Menu_8h.html" target="_top" xlink:title="Menus support.">
<polygon fill="white" stroke="#666666" points="318.62,-118 172.62,-118 172.62,-77 318.62,-77 318.62,-118"/>
<text text-anchor="start" x="180.62" y="-106" font-family="Helvetica,sans-Serif" font-size="10.00">/home/runner/work/Catena</text>
<text text-anchor="start" x="180.62" y="-95" font-family="Helvetica,sans-Serif" font-size="10.00">/Catena/sdks/cpp/common</text>
<text text-anchor="middle" x="245.62" y="-84" font-family="Helvetica,sans-Serif" font-size="10.00">/include/Menu.h</text>
</a>
</g>
</g>
<!-- Node3&#45;&gt;Node5 -->
<g id="edge4_Node000003_Node000005" class="edge">
<title>Node3&#45;&gt;Node5</title>
<g id="a_edge4_Node000003_Node000005"><a xlink:title=" ">
<path fill="none" stroke="#63b8ff" d="M385.41,-150.4C357.5,-140.04 324.93,-127.95 298.25,-118.04"/>
<polygon fill="#63b8ff" stroke="#63b8ff" points="384.48,-153.79 395.07,-153.99 386.92,-147.23 384.48,-153.79"/>
</a>
</g>
</g>
<!-- Node6 -->
<g id="Node000006" class="node">
<title>Node6</title>
<g id="a_Node000006"><a xlink:href="MenuGroup_8h.html" target="_top" xlink:title="MenuGroups support.">
<polygon fill="white" stroke="#666666" points="368.62,-41 222.62,-41 222.62,0 368.62,0 368.62,-41"/>
<text text-anchor="start" x="230.62" y="-29" font-family="Helvetica,sans-Serif" font-size="10.00">/home/runner/work/Catena</text>
<text text-anchor="start" x="230.62" y="-18" font-family="Helvetica,sans-Serif" font-size="10.00">/Catena/sdks/cpp/common</text>
<text text-anchor="middle" x="295.62" y="-7" font-family="Helvetica,sans-Serif" font-size="10.00">/include/MenuGroup.h</text>
</a>
</g>
</g>
<!-- Node3&#45;&gt;Node6 -->
<g id="edge6_Node000003_Node000006" class="edge">
<title>Node3&#45;&gt;Node6</title>
<g id="a_edge6_Node000003_Node000006"><a xlink:title=" ">
<path fill="none" stroke="#63b8ff" d="M404.41,-148.32C391.22,-139.6 377.17,-129.18 365.62,-118 341.38,-94.54 319.63,-61.83 307.02,-41.16"/>
<polygon fill="#63b8ff" stroke="#63b8ff" points="402.61,-151.33 412.92,-153.8 406.4,-145.44 402.61,-151.33"/>
</a>
</g>
</g>
<!-- Node7 -->
<g id="Node000007" class="node">
<title>Node7</title>
<g id="a_Node000007"><a xlink:href="NamedChoiceConstraint_8h.html" target="_top" xlink:title="A constraint that checks if a value is within some named choices.">
<polygon fill="white" stroke="#666666" points="890.12,-118 705.12,-118 705.12,-77 890.12,-77 890.12,-118"/>
<text text-anchor="start" x="713.12" y="-106" font-family="Helvetica,sans-Serif" font-size="10.00">/home/runner/work/Catena</text>
<text text-anchor="start" x="713.12" y="-95" font-family="Helvetica,sans-Serif" font-size="10.00">/Catena/sdks/cpp/common</text>
<text text-anchor="middle" x="797.62" y="-84" font-family="Helvetica,sans-Serif" font-size="10.00">/include/NamedChoiceConstraint.h</text>
</a>
</g>
</g>
<!-- Node3&#45;&gt;Node7 -->
<g id="edge7_Node000003_Node000007" class="edge">
<title>Node3&#45;&gt;Node7</title>
<g id="a_edge7_Node000003_Node000007"><a xlink:title=" ">
<path fill="none" stroke="#63b8ff" d="M531.01,-155.63C583.89,-144.3 652.3,-129.64 706.59,-118.01"/>
<polygon fill="#63b8ff" stroke="#63b8ff" points="530.03,-152.26 520.99,-157.78 531.5,-159.1 530.03,-152.26"/>
</a>
</g>
</g>
<!-- Node3&#45;&gt;Node8 -->
<g id="edge8_Node000003_Node000008" class="edge">
<title>Node3&#45;&gt;Node8</title>
<g id="a_edge8_Node000003_Node000008"><a xlink:title=" ">
<path fill="none" stroke="#63b8ff" d="M364.49,-154.79C363.19,-154.52 361.9,-154.26 360.62,-154 273.4,-136.26 250.75,-136.18 163.62,-118 160.58,-117.36 157.47,-116.7 154.34,-116.02"/>
<polygon fill="#63b8ff" stroke="#63b8ff" points="364.06,-158.28 374.56,-156.9 365.49,-151.43 364.06,-158.28"/>
</a>
</g>
</g>
<!-- Node9 -->
<g id="Node000009" class="node">
<title>Node9</title>
<g id="a_Node000009"><a xlink:href="PicklistConstraint_8h.html" target="_top" xlink:title="A constraint that checks if a value is in a list of strings.">
<polygon fill="white" stroke="#666666" points="1060.62,-118 908.62,-118 908.62,-77 1060.62,-77 1060.62,-118"/>
<text text-anchor="start" x="916.62" y="-106" font-family="Helvetica,sans-Serif" font-size="10.00">/home/runner/work/Catena</text>
<text text-anchor="start" x="916.62" y="-95" font-family="Helvetica,sans-Serif" font-size="10.00">/Catena/sdks/cpp/common</text>
<text text-anchor="middle" x="984.62" y="-84" font-family="Helvetica,sans-Serif" font-size="10.00">/include/PicklistConstraint.h</text>
</a>
</g>
</g>
<!-- Node3&#45;&gt;Node9 -->
<g id="edge9_Node000003_Node000009" class="edge">
<title>Node3&#45;&gt;Node9</title>
<g id="a_edge9_Node000003_Node000009"><a xlink:title=" ">
<path fill="none" stroke="#63b8ff" d="M530.8,-163.48C656.13,-148.36 880.77,-121.11 898.62,-118 901.79,-117.45 905.01,-116.85 908.27,-116.23"/>
<polygon fill="#63b8ff" stroke="#63b8ff" points="530.35,-160.01 520.84,-164.68 531.19,-166.96 530.35,-160.01"/>
</a>
</g>
</g>
<!-- Node10 -->
<g id="Node000010" class="node">
<title>Node10</title>
<g id="a_Node000010"><a xlink:href="RangeConstraint_8h.html" target="_top" xlink:title="A constraint that checks if a value is within a range.">
<polygon fill="white" stroke="#666666" points="686.62,-118 538.62,-118 538.62,-77 686.62,-77 686.62,-118"/>
<text text-anchor="start" x="546.62" y="-106" font-family="Helvetica,sans-Serif" font-size="10.00">/home/runner/work/Catena</text>
<text text-anchor="start" x="546.62" y="-95" font-family="Helvetica,sans-Serif" font-size="10.00">/Catena/sdks/cpp/common</text>
<text text-anchor="middle" x="612.62" y="-84" font-family="Helvetica,sans-Serif" font-size="10.00">/include/RangeConstraint.h</text>
</a>
</g>
</g>
<!-- Node3&#45;&gt;Node10 -->
<g id="edge10_Node000003_Node000010" class="edge">
<title>Node3&#45;&gt;Node10</title>
<g id="a_edge10_Node000003_Node000010"><a xlink:title=" ">
<path fill="none" stroke="#63b8ff" d="M499.93,-149.72C522.39,-139.51 548.31,-127.73 569.63,-118.04"/>
<polygon fill="#63b8ff" stroke="#63b8ff" points="498.19,-146.67 490.54,-153.99 501.09,-153.04 498.19,-146.67"/>
</a>
</g>
</g>
<!-- Node5&#45;&gt;Node6 -->
<g id="edge5_Node000005_Node000006" class="edge">
<title>Node5&#45;&gt;Node6</title>
<g id="a_edge5_Node000005_Node000006"><a xlink:title=" ">
<path fill="none" stroke="#63b8ff" d="M264.36,-68.39C270.42,-59.3 277.01,-49.41 282.57,-41.07"/>
<polygon fill="#63b8ff" stroke="#63b8ff" points="261.39,-66.53 258.75,-76.79 267.21,-70.42 261.39,-66.53"/>
</a>
</g>
</g>
<!-- Node11&#45;&gt;Node8 -->
<g id="edge13_Node000011_Node000008" class="edge">
<title>Node11&#45;&gt;Node8</title>
<g id="a_edge13_Node000011_Node000008"><a xlink:title=" ">
<path fill="none" stroke="#63b8ff" d="M93.35,-143.98C90.92,-135.28 88.31,-125.98 86.1,-118.07"/>
<polygon fill="#63b8ff" stroke="#63b8ff" points="90.03,-145.11 96.1,-153.79 96.77,-143.22 90.03,-145.11"/>
</a>
</g>
</g>
<!-- Node12&#45;&gt;Node2 -->
<g id="edge16_Node000012_Node000002" class="edge">
<title>Node12&#45;&gt;Node2</title>
<g id="a_edge16_Node000012_Node000002"><a xlink:title=" ">
<path fill="none" stroke="#63b8ff" d="M321.6,-392.83C267.83,-383.57 204.44,-368.87 185.62,-349 166.12,-328.43 163.92,-293.96 164.78,-272.27"/>
<polygon fill="#63b8ff" stroke="#63b8ff" points="321.07,-396.29 331.51,-394.5 322.23,-389.39 321.07,-396.29"/>
</a>
</g>
</g>
<!-- Node12&#45;&gt;Node3 -->
<g id="edge17_Node000012_Node000003" class="edge">
<title>Node12&#45;&gt;Node3</title>
<g id="a_edge17_Node000012_Node000003"><a xlink:title=" ">
<path fill="none" stroke="#63b8ff" d="M410.15,-375.02C419.06,-327.61 436.32,-235.66 443.9,-195.3"/>
<polygon fill="#63b8ff" stroke="#63b8ff" points="406.69,-374.5 408.28,-384.98 413.57,-375.79 406.69,-374.5"/>
</a>
</g>
</g>
<!-- Node12&#45;&gt;Node7 -->
<g id="edge18_Node000012_Node000007" class="edge">
<title>Node12&#45;&gt;Node7</title>
<g id="a_edge18_Node000012_Node000007"><a xlink:title=" ">
<path fill="none" stroke="#63b8ff" d="M437.56,-378.42C447.96,-369.55 459.18,-359.27 468.62,-349 504.88,-309.52 566.83,-184.93 610.62,-154 627.7,-141.94 671.82,-128.6 712.92,-118.02"/>
<polygon fill="#63b8ff" stroke="#63b8ff" points="435.24,-375.8 429.82,-384.9 439.73,-381.17 435.24,-375.8"/>
</a>
</g>
</g>
<!-- Node12&#45;&gt;Node8 -->
<g id="edge22_Node000012_Node000008" class="edge">
<title>Node12&#45;&gt;Node8</title>
<g id="a_edge22_Node000012_Node000008"><a xlink:title=" ">
<path fill="none" stroke="#63b8ff" d="M392.46,-375.56C369.09,-323.41 312.91,-213.59 231.62,-154 208.75,-137.24 180.28,-125.05 154.25,-116.43"/>
<polygon fill="#63b8ff" stroke="#63b8ff" points="389.34,-377.15 396.57,-384.89 395.75,-374.33 389.34,-377.15"/>
</a>
</g>
</g>
<!-- Node12&#45;&gt;Node9 -->
<g id="edge23_Node000012_Node000009" class="edge">
<title>Node12&#45;&gt;Node9</title>
<g id="a_edge23_Node000012_Node000009"><a xlink:title=" ">
<path fill="none" stroke="#63b8ff" d="M450.79,-380.14C562.48,-321.22 845.54,-171.88 947.39,-118.14"/>
<polygon fill="#63b8ff" stroke="#63b8ff" points="448.99,-377.13 441.78,-384.89 452.26,-383.32 448.99,-377.13"/>
</a>
</g>
</g>
<!-- Node12&#45;&gt;Node10 -->
<g id="edge24_Node000012_Node000010" class="edge">
<title>Node12&#45;&gt;Node10</title>
<g id="a_edge24_Node000012_Node000010"><a xlink:title=" ">
<path fill="none" stroke="#63b8ff" d="M422.95,-376.5C453.51,-329.98 517.01,-233.97 572.62,-154 580.96,-142.01 590.52,-128.73 598.2,-118.16"/>
<polygon fill="#63b8ff" stroke="#63b8ff" points="420.03,-374.58 417.47,-384.86 425.88,-378.42 420.03,-374.58"/>
</a>
</g>
</g>
<!-- Node13 -->
<g id="Node000013" class="node">
<title>Node13</title>
<g id="a_Node000013"><a xlink:href="ParamDescriptor_8h_source.html" target="_top" xlink:title=" ">
<polygon fill="white" stroke="#666666" points="342.12,-349 195.12,-349 195.12,-308 342.12,-308 342.12,-349"/>
<text text-anchor="start" x="203.12" y="-337" font-family="Helvetica,sans-Serif" font-size="10.00">/home/runner/work/Catena</text>
<text text-anchor="start" x="203.12" y="-326" font-family="Helvetica,sans-Serif" font-size="10.00">/Catena/sdks/cpp/common</text>
<text text-anchor="middle" x="268.62" y="-315" font-family="Helvetica,sans-Serif" font-size="10.00">/include/ParamDescriptor.h</text>
</a>
</g>
</g>
<!-- Node12&#45;&gt;Node13 -->
<g id="edge19_Node000012_Node000013" class="edge">
<title>Node12&#45;&gt;Node13</title>
<g id="a_edge19_Node000012_Node000013"><a xlink:title=" ">
<path fill="none" stroke="#63b8ff" d="M360.04,-379.92C341.96,-369.95 321.36,-358.58 304.29,-349.17"/>
<polygon fill="#63b8ff" stroke="#63b8ff" points="358.79,-383.23 369.24,-384.99 362.17,-377.1 358.79,-383.23"/>
</a>
</g>
</g>
<!-- Node13&#45;&gt;Node2 -->
<g id="edge20_Node000013_Node000002" class="edge">
<title>Node13&#45;&gt;Node2</title>
<g id="a_edge20_Node000013_Node000002"><a xlink:title=" ">
<path fill="none" stroke="#63b8ff" d="M233.69,-301.82C220.49,-292.11 205.7,-281.24 193.37,-272.17"/>
<polygon fill="#63b8ff" stroke="#63b8ff" points="231.96,-304.89 242.09,-307.99 236.1,-299.25 231.96,-304.89"/>
</a>
</g>
</g>
<!-- Node13&#45;&gt;Node8 -->
<g id="edge21_Node000013_Node000008" class="edge">
<title>Node13&#45;&gt;Node8</title>
<g id="a_edge21_Node000013_Node000008"><a xlink:title=" ">
<path fill="none" stroke="#63b8ff" d="M265.43,-297.68C259.67,-258.86 243.87,-191.54 201.62,-154 184.34,-138.65 162.1,-126.82 141.41,-118.11"/>
<polygon fill="#63b8ff" stroke="#63b8ff" points="261.99,-298.39 266.8,-307.83 268.93,-297.45 261.99,-298.39"/>
</a>
</g>
</g>
</g>
</svg>
