<?xml version="1.0" encoding="UTF-8" standalone="no"?>
<!DOCTYPE svg PUBLIC "-//W3C//DTD SVG 1.1//EN"
 "http://www.w3.org/Graphics/SVG/1.1/DTD/svg11.dtd">
<!-- Generated by graphviz version 2.43.0 (0)
 -->
<!-- Title: /home/runner/work/Catena/Catena/sdks/cpp/common/include/Path.h Pages: 1 -->
<!--zoomable 588 -->

<svg id="main" version="1.1" xmlns="http://www.w3.org/2000/svg" xmlns:xlink="http://www.w3.org/1999/xlink" xml:space="preserve" onload="init(evt)">
<style type="text/css"><![CDATA[
.node, .edge {opacity: 0.7;}
.node.selected, .edge.selected {opacity: 1;}
.edge:hover path { stroke: red; }
.edge:hover polygon { stroke: red; fill: red; }
]]></style>

<defs>
  <circle id="rim" cx="0" cy="0" r="7"/>
  <circle id="rim2" cx="0" cy="0" r="3.5"/>
  <g id="zoomPlus">
    <use xlink:href="#rim" fill="#404040"><set attributeName="fill" to="#808080" begin="zoomplus.mouseover" end="zoomplus.mouseout"/></use>
    <path d="M-4,0h8M0,-4v8" fill="none" stroke="white" stroke-width="1.5" pointer-events="none"/>
  </g>
  <g id="zoomMin">
    <use xlink:href="#rim" fill="#404040"><set attributeName="fill" to="#808080" begin="zoomminus.mouseover" end="zoomminus.mouseout"/></use>
    <path d="M-4,0h8" fill="none" stroke="white" stroke-width="1.5" pointer-events="none"/>
  </g>
  <g id="arrowUp" transform="translate(30 24)">
    <use xlink:href="#rim"/>
    <path pointer-events="none" fill="none" stroke="white" stroke-width="1.5" d="M0,-3.0v7 M-2.5,-0.5L0,-3.0L2.5,-0.5"/>
  </g>
  <g id="arrowRight" transform="rotate(90) translate(36 -43)">
    <use xlink:href="#rim"/>
    <path pointer-events="none" fill="none" stroke="white" stroke-width="1.5" d="M0,-3.0v7 M-2.5,-0.5L0,-3.0L2.5,-0.5"/>
  </g>
  <g id="arrowDown" transform="rotate(180) translate(-30 -48)">
    <use xlink:href="#rim"/>
    <path pointer-events="none" fill="none" stroke="white" stroke-width="1.5" d="M0,-3.0v7 M-2.5,-0.5L0,-3.0L2.5,-0.5"/>
  </g>
  <g id="arrowLeft" transform="rotate(270) translate(-36 17)">
    <use xlink:href="#rim"/>
    <path pointer-events="none" fill="none" stroke="white" stroke-width="1.5" d="M0,-3.0v7 M-2.5,-0.5L0,-3.0L2.5,-0.5"/>
  </g>
  <g id="resetDef">
    <use xlink:href="#rim2" fill="#404040"><set attributeName="fill" to="#808080" begin="reset.mouseover" end="reset.mouseout"/></use>
  </g>
</defs>
<script type="application/ecmascript">
var viewWidth = 2543;
var viewHeight = 588;
var sectionId = 'dynsection-1';
</script>
<script type="application/ecmascript" xlink:href="svg.min.js"/>
<svg id="graph" class="graph">
<g id="viewport">
<title>/home/runner/work/Catena/Catena/sdks/cpp/common/include/Path.h</title>
<!-- Node1 -->
<g id="Node000001" class="node">
<title>Node1</title>
<g id="a_Node000001"><a xlink:title="Handles Path objects used to uniquely identify and access OIDs.">
<polygon fill="#999999" stroke="#666666" points="1292,-580 1146,-580 1146,-539 1292,-539 1292,-580"/>
<text text-anchor="start" x="1154" y="-568" font-family="Helvetica,sans-Serif" font-size="10.00">/home/runner/work/Catena</text>
<text text-anchor="start" x="1154" y="-557" font-family="Helvetica,sans-Serif" font-size="10.00">/Catena/sdks/cpp/common</text>
<text text-anchor="middle" x="1219" y="-546" font-family="Helvetica,sans-Serif" font-size="10.00">/include/Path.h</text>
</a>
</g>
</g>
<!-- Node2 -->
<g id="Node000002" class="node">
<title>Node2</title>
<g id="a_Node000002"><a xlink:href="Authorization_8h.html" target="_top" xlink:title="Class for handling authorization information.">
<polygon fill="white" stroke="#666666" points="1272,-349 1126,-349 1126,-308 1272,-308 1272,-349"/>
<text text-anchor="start" x="1134" y="-337" font-family="Helvetica,sans-Serif" font-size="10.00">/home/runner/work/Catena</text>
<text text-anchor="start" x="1134" y="-326" font-family="Helvetica,sans-Serif" font-size="10.00">/Catena/sdks/cpp/common</text>
<text text-anchor="middle" x="1199" y="-315" font-family="Helvetica,sans-Serif" font-size="10.00">/include/Authorization.h</text>
</a>
</g>
</g>
<!-- Node1&#45;&gt;Node2 -->
<g id="edge1_Node000001_Node000002" class="edge">
<title>Node1&#45;&gt;Node2</title>
<g id="a_edge1_Node000001_Node000002"><a xlink:title=" ">
<path fill="none" stroke="#63b8ff" d="M1253.55,-532.46C1294.71,-498.17 1353.98,-436.23 1321,-385 1309.66,-367.39 1291.22,-355.3 1272.07,-347.03"/>
<polygon fill="#63b8ff" stroke="#63b8ff" points="1251.14,-529.91 1245.6,-538.94 1255.56,-535.34 1251.14,-529.91"/>
</a>
</g>
</g>
<!-- Node3 -->
<g id="Node000003" class="node">
<title>Node3</title>
<g id="a_Node000003"><a xlink:href="Device_8h.html" target="_top" xlink:title="Device class definition.">
<polygon fill="white" stroke="#666666" points="978,-272 832,-272 832,-231 978,-231 978,-272"/>
<text text-anchor="start" x="840" y="-260" font-family="Helvetica,sans-Serif" font-size="10.00">/home/runner/work/Catena</text>
<text text-anchor="start" x="840" y="-249" font-family="Helvetica,sans-Serif" font-size="10.00">/Catena/sdks/cpp/common</text>
<text text-anchor="middle" x="905" y="-238" font-family="Helvetica,sans-Serif" font-size="10.00">/include/Device.h</text>
</a>
</g>
</g>
<!-- Node1&#45;&gt;Node3 -->
<g id="edge30_Node000001_Node000003" class="edge">
<title>Node1&#45;&gt;Node3</title>
<g id="a_edge30_Node000001_Node000003"><a xlink:title=" ">
<path fill="none" stroke="#63b8ff" d="M1135.93,-543.08C1030.6,-521.55 858.49,-479.11 824,-426 795.43,-382.02 799.55,-354.4 824,-308 832.03,-292.77 846.33,-280.92 860.7,-272.15"/>
<polygon fill="#63b8ff" stroke="#63b8ff" points="1135.41,-546.54 1145.91,-545.1 1136.8,-539.68 1135.41,-546.54"/>
</a>
</g>
</g>
<!-- Node8 -->
<g id="Node000008" class="node">
<title>Node8</title>
<g id="a_Node000008"><a xlink:href="ParamWithValue_8h.html" target="_top" xlink:title="Interface for acessing parameter values.">
<polygon fill="white" stroke="#666666" points="1500.5,-195 1353.5,-195 1353.5,-154 1500.5,-154 1500.5,-195"/>
<text text-anchor="start" x="1361.5" y="-183" font-family="Helvetica,sans-Serif" font-size="10.00">/home/runner/work/Catena</text>
<text text-anchor="start" x="1361.5" y="-172" font-family="Helvetica,sans-Serif" font-size="10.00">/Catena/sdks/cpp/common</text>
<text text-anchor="middle" x="1427" y="-161" font-family="Helvetica,sans-Serif" font-size="10.00">/include/ParamWithValue.h</text>
</a>
</g>
</g>
<!-- Node1&#45;&gt;Node8 -->
<g id="edge44_Node000001_Node000008" class="edge">
<title>Node1&#45;&gt;Node8</title>
<g id="a_edge44_Node000001_Node000008"><a xlink:title=" ">
<path fill="none" stroke="#63b8ff" d="M1301.96,-544.48C1376.06,-526.64 1473,-487.77 1473,-406.5 1473,-406.5 1473,-406.5 1473,-327.5 1473,-278.15 1450.51,-223.5 1436.98,-195.09"/>
<polygon fill="#63b8ff" stroke="#63b8ff" points="1301.08,-541.09 1292.13,-546.75 1302.66,-547.91 1301.08,-541.09"/>
</a>
</g>
</g>
<!-- Node26 -->
<g id="Node000026" class="node">
<title>Node26</title>
<g id="a_Node000026"><a xlink:href="IParam_8h.html" target="_top" xlink:title="Interface for parameters.">
<polygon fill="white" stroke="#666666" points="1152,-503 1006,-503 1006,-462 1152,-462 1152,-503"/>
<text text-anchor="start" x="1014" y="-491" font-family="Helvetica,sans-Serif" font-size="10.00">/home/runner/work/Catena</text>
<text text-anchor="start" x="1014" y="-480" font-family="Helvetica,sans-Serif" font-size="10.00">/Catena/sdks/cpp/common</text>
<text text-anchor="middle" x="1079" y="-469" font-family="Helvetica,sans-Serif" font-size="10.00">/include/IParam.h</text>
</a>
</g>
</g>
<!-- Node1&#45;&gt;Node26 -->
<g id="edge31_Node000001_Node000026" class="edge">
<title>Node1&#45;&gt;Node26</title>
<g id="a_edge31_Node000001_Node000026"><a xlink:title=" ">
<path fill="none" stroke="#63b8ff" d="M1173.63,-534.19C1154.89,-524.15 1133.45,-512.67 1115.72,-503.17"/>
<polygon fill="#63b8ff" stroke="#63b8ff" points="1172.11,-537.35 1182.58,-538.99 1175.42,-531.18 1172.11,-537.35"/>
</a>
</g>
</g>
<!-- Node2&#45;&gt;Node3 -->
<g id="edge2_Node000002_Node000003" class="edge">
<title>Node2&#45;&gt;Node3</title>
<g id="a_edge2_Node000002_Node000003"><a xlink:title=" ">
<path fill="none" stroke="#63b8ff" d="M1115.99,-306.32C1072.62,-295.26 1020.02,-281.84 978.19,-271.17"/>
<polygon fill="#63b8ff" stroke="#63b8ff" points="1115.39,-309.78 1125.95,-308.86 1117.12,-303 1115.39,-309.78"/>
</a>
</g>
</g>
<!-- Node2&#45;&gt;Node8 -->
<g id="edge26_Node000002_Node000008" class="edge">
<title>Node2&#45;&gt;Node8</title>
<g id="a_edge26_Node000002_Node000008"><a xlink:title=" ">
<path fill="none" stroke="#63b8ff" d="M1195.67,-297.76C1195,-276.6 1197.85,-248.86 1214,-231 1216.46,-228.28 1292.8,-208.8 1353.38,-193.69"/>
<polygon fill="#63b8ff" stroke="#63b8ff" points="1192.18,-298.07 1196.26,-307.85 1199.17,-297.66 1192.18,-298.07"/>
</a>
</g>
</g>
<!-- Node11 -->
<g id="Node000011" class="node">
<title>Node11</title>
<g id="a_Node000011"><a xlink:href="ServiceImpl_8h.html" target="_top" xlink:title="Implements Catena gRPC request handlers.">
<polygon fill="white" stroke="#666666" points="1335.5,-195 1174.5,-195 1174.5,-154 1335.5,-154 1335.5,-195"/>
<text text-anchor="start" x="1182.5" y="-183" font-family="Helvetica,sans-Serif" font-size="10.00">/home/runner/work/Catena</text>
<text text-anchor="start" x="1182.5" y="-172" font-family="Helvetica,sans-Serif" font-size="10.00">/Catena/sdks/cpp/connections</text>
<text text-anchor="middle" x="1255" y="-161" font-family="Helvetica,sans-Serif" font-size="10.00">/gRPC/include/ServiceImpl.h</text>
</a>
</g>
</g>
<!-- Node2&#45;&gt;Node11 -->
<g id="edge29_Node000002_Node000011" class="edge">
<title>Node2&#45;&gt;Node11</title>
<g id="a_edge29_Node000002_Node000011"><a xlink:title=" ">
<path fill="none" stroke="#63b8ff" d="M1184.3,-298.18C1176.51,-278.33 1170.5,-251.99 1181,-231 1188.47,-216.06 1202.08,-204.1 1215.62,-195.16"/>
<polygon fill="#63b8ff" stroke="#63b8ff" points="1181.19,-299.81 1188.33,-307.63 1187.63,-297.06 1181.19,-299.81"/>
</a>
</g>
</g>
<!-- Node25 -->
<g id="Node000025" class="node">
<title>Node25</title>
<g id="a_Node000025"><a xlink:href="StructInfo_8h.html" target="_top" xlink:title="Structured data serialization and deserialization to protobuf.">
<polygon fill="white" stroke="#666666" points="1369,-272 1223,-272 1223,-231 1369,-231 1369,-272"/>
<text text-anchor="start" x="1231" y="-260" font-family="Helvetica,sans-Serif" font-size="10.00">/home/runner/work/Catena</text>
<text text-anchor="start" x="1231" y="-249" font-family="Helvetica,sans-Serif" font-size="10.00">/Catena/sdks/cpp/common</text>
<text text-anchor="middle" x="1296" y="-238" font-family="Helvetica,sans-Serif" font-size="10.00">/include/StructInfo.h</text>
</a>
</g>
</g>
<!-- Node2&#45;&gt;Node25 -->
<g id="edge27_Node000002_Node000025" class="edge">
<title>Node2&#45;&gt;Node25</title>
<g id="a_edge27_Node000002_Node000025"><a xlink:title=" ">
<path fill="none" stroke="#63b8ff" d="M1232.22,-301.82C1244.77,-292.11 1258.83,-281.24 1270.56,-272.17"/>
<polygon fill="#63b8ff" stroke="#63b8ff" points="1230,-299.1 1224.23,-307.99 1234.28,-304.64 1230,-299.1"/>
</a>
</g>
</g>
<!-- Node4 -->
<g id="Node000004" class="node">
<title>Node4</title>
<g id="a_Node000004"><a xlink:href="LanguagePack_8h.html" target="_top" xlink:title="multi language support in 2 classes: LanguagePack and LanguagePacks">
<polygon fill="white" stroke="#666666" points="751,-195 605,-195 605,-154 751,-154 751,-195"/>
<text text-anchor="start" x="613" y="-183" font-family="Helvetica,sans-Serif" font-size="10.00">/home/runner/work/Catena</text>
<text text-anchor="start" x="613" y="-172" font-family="Helvetica,sans-Serif" font-size="10.00">/Catena/sdks/cpp/common</text>
<text text-anchor="middle" x="678" y="-161" font-family="Helvetica,sans-Serif" font-size="10.00">/include/LanguagePack.h</text>
</a>
</g>
</g>
<!-- Node3&#45;&gt;Node4 -->
<g id="edge3_Node000003_Node000004" class="edge">
<title>Node3&#45;&gt;Node4</title>
<g id="a_edge3_Node000003_Node000004"><a xlink:title=" ">
<path fill="none" stroke="#63b8ff" d="M836.32,-227.81C804.69,-217.36 767.52,-205.08 737.15,-195.04"/>
<polygon fill="#63b8ff" stroke="#63b8ff" points="835.36,-231.18 845.95,-230.99 837.55,-224.53 835.36,-231.18"/>
</a>
</g>
</g>
<!-- Node5 -->
<g id="Node000005" class="node">
<title>Node5</title>
<g id="a_Node000005"><a xlink:href="Menu_8h.html" target="_top" xlink:title="Menus support.">
<polygon fill="white" stroke="#666666" points="953,-195 807,-195 807,-154 953,-154 953,-195"/>
<text text-anchor="start" x="815" y="-183" font-family="Helvetica,sans-Serif" font-size="10.00">/home/runner/work/Catena</text>
<text text-anchor="start" x="815" y="-172" font-family="Helvetica,sans-Serif" font-size="10.00">/Catena/sdks/cpp/common</text>
<text text-anchor="middle" x="880" y="-161" font-family="Helvetica,sans-Serif" font-size="10.00">/include/Menu.h</text>
</a>
</g>
</g>
<!-- Node3&#45;&gt;Node5 -->
<g id="edge4_Node000003_Node000005" class="edge">
<title>Node3&#45;&gt;Node5</title>
<g id="a_edge4_Node000003_Node000005"><a xlink:title=" ">
<path fill="none" stroke="#63b8ff" d="M895.25,-221.26C892.33,-212.48 889.19,-203.07 886.52,-195.07"/>
<polygon fill="#63b8ff" stroke="#63b8ff" points="891.95,-222.41 898.43,-230.79 898.59,-220.2 891.95,-222.41"/>
</a>
</g>
</g>
<!-- Node6 -->
<g id="Node000006" class="node">
<title>Node6</title>
<g id="a_Node000006"><a xlink:href="MenuGroup_8h.html" target="_top" xlink:title="MenuGroups support.">
<polygon fill="white" stroke="#666666" points="146,-118 0,-118 0,-77 146,-77 146,-118"/>
<text text-anchor="start" x="8" y="-106" font-family="Helvetica,sans-Serif" font-size="10.00">/home/runner/work/Catena</text>
<text text-anchor="start" x="8" y="-95" font-family="Helvetica,sans-Serif" font-size="10.00">/Catena/sdks/cpp/common</text>
<text text-anchor="middle" x="73" y="-84" font-family="Helvetica,sans-Serif" font-size="10.00">/include/MenuGroup.h</text>
</a>
</g>
</g>
<!-- Node3&#45;&gt;Node6 -->
<g id="edge6_Node000003_Node000006" class="edge">
<title>Node3&#45;&gt;Node6</title>
<g id="a_edge6_Node000003_Node000006"><a xlink:title=" ">
<path fill="none" stroke="#63b8ff" d="M849.53,-226.29C832.26,-217.59 813.66,-206.93 798,-195 778.24,-179.95 782.46,-164.61 760,-154 638.23,-96.46 288.24,-137.65 155,-118 152.1,-117.57 149.16,-117.09 146.2,-116.57"/>
<polygon fill="#63b8ff" stroke="#63b8ff" points="848.44,-229.66 858.95,-230.93 851.52,-223.38 848.44,-229.66"/>
</a>
</g>
</g>
<!-- Node7 -->
<g id="Node000007" class="node">
<title>Node7</title>
<g id="a_Node000007"><a xlink:href="NamedChoiceConstraint_8h.html" target="_top" xlink:title="A constraint that checks if a value is within some named choices.">
<polygon fill="white" stroke="#666666" points="1156.5,-195 971.5,-195 971.5,-154 1156.5,-154 1156.5,-195"/>
<text text-anchor="start" x="979.5" y="-183" font-family="Helvetica,sans-Serif" font-size="10.00">/home/runner/work/Catena</text>
<text text-anchor="start" x="979.5" y="-172" font-family="Helvetica,sans-Serif" font-size="10.00">/Catena/sdks/cpp/common</text>
<text text-anchor="middle" x="1064" y="-161" font-family="Helvetica,sans-Serif" font-size="10.00">/include/NamedChoiceConstraint.h</text>
</a>
</g>
</g>
<!-- Node3&#45;&gt;Node7 -->
<g id="edge7_Node000003_Node000007" class="edge">
<title>Node3&#45;&gt;Node7</title>
<g id="a_edge7_Node000003_Node000007"><a xlink:title=" ">
<path fill="none" stroke="#63b8ff" d="M955.41,-226.72C977.05,-216.51 1002.03,-204.73 1022.57,-195.04"/>
<polygon fill="#63b8ff" stroke="#63b8ff" points="953.91,-223.56 946.36,-230.99 956.9,-229.89 953.91,-223.56"/>
</a>
</g>
</g>
<!-- Node3&#45;&gt;Node8 -->
<g id="edge8_Node000003_Node000008" class="edge">
<title>Node3&#45;&gt;Node8</title>
<g id="a_edge8_Node000003_Node000008"><a xlink:title=" ">
<path fill="none" stroke="#63b8ff" d="M988.17,-242.71C1076.95,-233.77 1221.54,-217.4 1345,-195 1347.74,-194.5 1350.52,-193.97 1353.32,-193.42"/>
<polygon fill="#63b8ff" stroke="#63b8ff" points="987.77,-239.24 978.16,-243.71 988.46,-246.2 987.77,-239.24"/>
</a>
</g>
</g>
<!-- Node9 -->
<g id="Node000009" class="node">
<title>Node9</title>
<g id="a_Node000009"><a xlink:href="PicklistConstraint_8h.html" target="_top" xlink:title="A constraint that checks if a value is in a list of strings.">
<polygon fill="white" stroke="#666666" points="587,-195 435,-195 435,-154 587,-154 587,-195"/>
<text text-anchor="start" x="443" y="-183" font-family="Helvetica,sans-Serif" font-size="10.00">/home/runner/work/Catena</text>
<text text-anchor="start" x="443" y="-172" font-family="Helvetica,sans-Serif" font-size="10.00">/Catena/sdks/cpp/common</text>
<text text-anchor="middle" x="511" y="-161" font-family="Helvetica,sans-Serif" font-size="10.00">/include/PicklistConstraint.h</text>
</a>
</g>
</g>
<!-- Node3&#45;&gt;Node9 -->
<g id="edge9_Node000003_Node000009" class="edge">
<title>Node3&#45;&gt;Node9</title>
<g id="a_edge9_Node000003_Node000009"><a xlink:title=" ">
<path fill="none" stroke="#63b8ff" d="M821.88,-231.76C820.57,-231.5 819.28,-231.25 818,-231 719.86,-212.06 694.1,-214.19 596,-195 593.18,-194.45 590.3,-193.87 587.41,-193.27"/>
<polygon fill="#63b8ff" stroke="#63b8ff" points="821.47,-235.25 831.96,-233.8 822.86,-228.38 821.47,-235.25"/>
</a>
</g>
</g>
<!-- Node10 -->
<g id="Node000010" class="node">
<title>Node10</title>
<g id="a_Node000010"><a xlink:href="RangeConstraint_8h.html" target="_top" xlink:title="A constraint that checks if a value is within a range.">
<polygon fill="white" stroke="#666666" points="417,-195 269,-195 269,-154 417,-154 417,-195"/>
<text text-anchor="start" x="277" y="-183" font-family="Helvetica,sans-Serif" font-size="10.00">/home/runner/work/Catena</text>
<text text-anchor="start" x="277" y="-172" font-family="Helvetica,sans-Serif" font-size="10.00">/Catena/sdks/cpp/common</text>
<text text-anchor="middle" x="343" y="-161" font-family="Helvetica,sans-Serif" font-size="10.00">/include/RangeConstraint.h</text>
</a>
</g>
</g>
<!-- Node3&#45;&gt;Node10 -->
<g id="edge10_Node000003_Node000010" class="edge">
<title>Node3&#45;&gt;Node10</title>
<g id="a_edge10_Node000003_Node000010"><a xlink:title=" ">
<path fill="none" stroke="#63b8ff" d="M821.78,-243.79C725.91,-235.39 563.85,-219.1 426,-195 423.08,-194.49 420.12,-193.94 417.12,-193.36"/>
<polygon fill="#63b8ff" stroke="#63b8ff" points="821.73,-247.3 831.99,-244.68 822.33,-240.33 821.73,-247.3"/>
</a>
</g>
</g>
<!-- Node3&#45;&gt;Node11 -->
<g id="edge11_Node000003_Node000011" class="edge">
<title>Node3&#45;&gt;Node11</title>
<g id="a_edge11_Node000003_Node000011"><a xlink:title=" ">
<path fill="none" stroke="#63b8ff" d="M988.19,-232.95C1039.47,-222.09 1106.57,-207.83 1166,-195 1168.78,-194.4 1171.61,-193.79 1174.47,-193.17"/>
<polygon fill="#63b8ff" stroke="#63b8ff" points="987.21,-229.58 978.15,-235.07 988.66,-236.42 987.21,-229.58"/>
</a>
</g>
</g>
<!-- Node5&#45;&gt;Node6 -->
<g id="edge5_Node000005_Node000006" class="edge">
<title>Node5&#45;&gt;Node6</title>
<g id="a_edge5_Node000005_Node000006"><a xlink:title=" ">
<path fill="none" stroke="#63b8ff" d="M796.35,-154.48C795.23,-154.32 794.11,-154.15 793,-154 511.71,-114.81 436.03,-159.01 155,-118 152.1,-117.58 149.16,-117.1 146.19,-116.58"/>
<polygon fill="#63b8ff" stroke="#63b8ff" points="796.15,-158 806.58,-156.16 797.28,-151.09 796.15,-158"/>
</a>
</g>
</g>
<!-- Node12 -->
<g id="Node000012" class="node">
<title>Node12</title>
<g id="a_Node000012"><a xlink:href="AddLanguage_8h.html" target="_top" xlink:title="Implements Catena gRPC AddLanguage.">
<polygon fill="white" stroke="#666666" points="1939.5,-118 1778.5,-118 1778.5,-77 1939.5,-77 1939.5,-118"/>
<text text-anchor="start" x="1786.5" y="-106" font-family="Helvetica,sans-Serif" font-size="10.00">/home/runner/work/Catena</text>
<text text-anchor="start" x="1786.5" y="-95" font-family="Helvetica,sans-Serif" font-size="10.00">/Catena/sdks/cpp/connections</text>
<text text-anchor="middle" x="1859" y="-84" font-family="Helvetica,sans-Serif" font-size="10.00">/gRPC/include/AddLanguage.h</text>
</a>
</g>
</g>
<!-- Node11&#45;&gt;Node12 -->
<g id="edge12_Node000011_Node000012" class="edge">
<title>Node11&#45;&gt;Node12</title>
<g id="a_edge12_Node000011_Node000012"><a xlink:title=" ">
<path fill="none" stroke="#63b8ff" d="M1345.82,-153.99C1534.22,-126.56 1585.77,-145.86 1770,-118 1772.66,-117.6 1775.36,-117.16 1778.08,-116.7"/>
<polygon fill="#63b8ff" stroke="#63b8ff" points="1345.24,-150.54 1335.86,-155.47 1346.27,-157.46 1345.24,-150.54"/>
</a>
</g>
</g>
<!-- Node13 -->
<g id="Node000013" class="node">
<title>Node13</title>
<g id="a_Node000013"><a xlink:href="BasicParamInfoRequest_8h_source.html" target="_top" xlink:title=" ">
<polygon fill="white" stroke="#666666" points="2168.5,-118 1957.5,-118 1957.5,-77 2168.5,-77 2168.5,-118"/>
<text text-anchor="start" x="1965.5" y="-106" font-family="Helvetica,sans-Serif" font-size="10.00">/home/runner/work/Catena</text>
<text text-anchor="start" x="1965.5" y="-95" font-family="Helvetica,sans-Serif" font-size="10.00">/Catena/sdks/cpp/connections</text>
<text text-anchor="middle" x="2063" y="-84" font-family="Helvetica,sans-Serif" font-size="10.00">/gRPC/include/BasicParamInfoRequest.h</text>
</a>
</g>
</g>
<!-- Node11&#45;&gt;Node13 -->
<g id="edge13_Node000011_Node000013" class="edge">
<title>Node11&#45;&gt;Node13</title>
<g id="a_edge13_Node000011_Node000013"><a xlink:title=" ">
<path fill="none" stroke="#63b8ff" d="M1345.85,-154.01C1613.17,-118.17 1685.1,-148.34 1949,-118 1951.79,-117.68 1954.62,-117.33 1957.47,-116.97"/>
<polygon fill="#63b8ff" stroke="#63b8ff" points="1345.29,-150.55 1335.85,-155.37 1346.23,-157.49 1345.29,-150.55"/>
</a>
</g>
</g>
<!-- Node14 -->
<g id="Node000014" class="node">
<title>Node14</title>
<g id="a_Node000014"><a xlink:href="Connect_8h.html" target="_top" xlink:title="Implements Catena gRPC Connect.">
<polygon fill="white" stroke="#666666" points="2347.5,-118 2186.5,-118 2186.5,-77 2347.5,-77 2347.5,-118"/>
<text text-anchor="start" x="2194.5" y="-106" font-family="Helvetica,sans-Serif" font-size="10.00">/home/runner/work/Catena</text>
<text text-anchor="start" x="2194.5" y="-95" font-family="Helvetica,sans-Serif" font-size="10.00">/Catena/sdks/cpp/connections</text>
<text text-anchor="middle" x="2267" y="-84" font-family="Helvetica,sans-Serif" font-size="10.00">/gRPC/include/Connect.h</text>
</a>
</g>
</g>
<!-- Node11&#45;&gt;Node14 -->
<g id="edge14_Node000011_Node000014" class="edge">
<title>Node11&#45;&gt;Node14</title>
<g id="a_edge14_Node000011_Node000014"><a xlink:title=" ">
<path fill="none" stroke="#63b8ff" d="M1345.98,-154.01C1714.32,-107.66 1813.85,-165.4 2178,-118 2180.67,-117.65 2183.37,-117.27 2186.1,-116.85"/>
<polygon fill="#63b8ff" stroke="#63b8ff" points="1345.32,-150.57 1335.84,-155.31 1346.2,-157.51 1345.32,-150.57"/>
</a>
</g>
</g>
<!-- Node15 -->
<g id="Node000015" class="node">
<title>Node15</title>
<g id="a_Node000015"><a xlink:href="DeviceRequest_8h.html" target="_top" xlink:title="Implements Catena gRPC DeviceRequest.">
<polygon fill="white" stroke="#666666" points="2534.5,-118 2365.5,-118 2365.5,-77 2534.5,-77 2534.5,-118"/>
<text text-anchor="start" x="2373.5" y="-106" font-family="Helvetica,sans-Serif" font-size="10.00">/home/runner/work/Catena</text>
<text text-anchor="start" x="2373.5" y="-95" font-family="Helvetica,sans-Serif" font-size="10.00">/Catena/sdks/cpp/connections</text>
<text text-anchor="middle" x="2450" y="-84" font-family="Helvetica,sans-Serif" font-size="10.00">/gRPC/include/DeviceRequest.h</text>
</a>
</g>
</g>
<!-- Node11&#45;&gt;Node15 -->
<g id="edge15_Node000011_Node000015" class="edge">
<title>Node11&#45;&gt;Node15</title>
<g id="a_edge15_Node000011_Node000015"><a xlink:title=" ">
<path fill="none" stroke="#63b8ff" d="M1345.8,-154.04C1793.34,-99.21 1913.51,-171.98 2357,-118 2359.78,-117.66 2362.61,-117.28 2365.46,-116.87"/>
<polygon fill="#63b8ff" stroke="#63b8ff" points="1345.33,-150.57 1335.84,-155.28 1346.19,-157.52 1345.33,-150.57"/>
</a>
</g>
</g>
<!-- Node16 -->
<g id="Node000016" class="node">
<title>Node16</title>
<g id="a_Node000016"><a xlink:href="ExecuteCommand_8h.html" target="_top" xlink:title="Implements Catena gRPC ExecuteCommand.">
<polygon fill="white" stroke="#666666" points="348,-118 164,-118 164,-77 348,-77 348,-118"/>
<text text-anchor="start" x="172" y="-106" font-family="Helvetica,sans-Serif" font-size="10.00">/home/runner/work/Catena</text>
<text text-anchor="start" x="172" y="-95" font-family="Helvetica,sans-Serif" font-size="10.00">/Catena/sdks/cpp/connections</text>
<text text-anchor="middle" x="256" y="-84" font-family="Helvetica,sans-Serif" font-size="10.00">/gRPC/include/ExecuteCommand.h</text>
</a>
</g>
</g>
<!-- Node11&#45;&gt;Node16 -->
<g id="edge16_Node000011_Node000016" class="edge">
<title>Node11&#45;&gt;Node16</title>
<g id="a_edge16_Node000011_Node000016"><a xlink:title=" ">
<path fill="none" stroke="#63b8ff" d="M1164.01,-153.85C807.35,-108.29 711.11,-159.84 357,-118 354.07,-117.65 351.11,-117.27 348.11,-116.86"/>
<polygon fill="#63b8ff" stroke="#63b8ff" points="1163.73,-157.35 1174.1,-155.16 1164.63,-150.4 1163.73,-157.35"/>
</a>
</g>
</g>
<!-- Node17 -->
<g id="Node000017" class="node">
<title>Node17</title>
<g id="a_Node000017"><a xlink:href="ExternalObjectRequest_8h.html" target="_top" xlink:title="Implements Catena gRPC ExternalObjectRequest.">
<polygon fill="white" stroke="#666666" points="573.5,-118 366.5,-118 366.5,-77 573.5,-77 573.5,-118"/>
<text text-anchor="start" x="374.5" y="-106" font-family="Helvetica,sans-Serif" font-size="10.00">/home/runner/work/Catena</text>
<text text-anchor="start" x="374.5" y="-95" font-family="Helvetica,sans-Serif" font-size="10.00">/Catena/sdks/cpp/connections</text>
<text text-anchor="middle" x="470" y="-84" font-family="Helvetica,sans-Serif" font-size="10.00">/gRPC/include/ExternalObjectRequest.h</text>
</a>
</g>
</g>
<!-- Node11&#45;&gt;Node17 -->
<g id="edge17_Node000011_Node000017" class="edge">
<title>Node11&#45;&gt;Node17</title>
<g id="a_edge17_Node000011_Node000017"><a xlink:title=" ">
<path fill="none" stroke="#63b8ff" d="M1164.07,-153.84C906.68,-118.82 836.99,-147.96 582,-118 579.26,-117.68 576.48,-117.33 573.67,-116.97"/>
<polygon fill="#63b8ff" stroke="#63b8ff" points="1163.7,-157.32 1174.09,-155.22 1164.66,-150.38 1163.7,-157.32"/>
</a>
</g>
</g>
<!-- Node18 -->
<g id="Node000018" class="node">
<title>Node18</title>
<g id="a_Node000018"><a xlink:href="GetParam_8h.html" target="_top" xlink:title="Implements Catena gRPC GetParam.">
<polygon fill="white" stroke="#666666" points="752.5,-118 591.5,-118 591.5,-77 752.5,-77 752.5,-118"/>
<text text-anchor="start" x="599.5" y="-106" font-family="Helvetica,sans-Serif" font-size="10.00">/home/runner/work/Catena</text>
<text text-anchor="start" x="599.5" y="-95" font-family="Helvetica,sans-Serif" font-size="10.00">/Catena/sdks/cpp/connections</text>
<text text-anchor="middle" x="672" y="-84" font-family="Helvetica,sans-Serif" font-size="10.00">/gRPC/include/GetParam.h</text>
</a>
</g>
</g>
<!-- Node11&#45;&gt;Node18 -->
<g id="edge18_Node000011_Node000018" class="edge">
<title>Node11&#45;&gt;Node18</title>
<g id="a_edge18_Node000011_Node000018"><a xlink:title=" ">
<path fill="none" stroke="#63b8ff" d="M1164.11,-153.81C986.06,-127.31 936.99,-144.65 762,-118 759,-117.54 755.94,-117.05 752.86,-116.52"/>
<polygon fill="#63b8ff" stroke="#63b8ff" points="1163.66,-157.28 1174.08,-155.31 1164.71,-150.36 1163.66,-157.28"/>
</a>
</g>
</g>
<!-- Node19 -->
<g id="Node000019" class="node">
<title>Node19</title>
<g id="a_Node000019"><a xlink:href="GetPopulatedSlots_8h.html" target="_top" xlink:title="Implements Catena gRPC GetPopulatedSlots.">
<polygon fill="white" stroke="#666666" points="955.5,-118 770.5,-118 770.5,-77 955.5,-77 955.5,-118"/>
<text text-anchor="start" x="778.5" y="-106" font-family="Helvetica,sans-Serif" font-size="10.00">/home/runner/work/Catena</text>
<text text-anchor="start" x="778.5" y="-95" font-family="Helvetica,sans-Serif" font-size="10.00">/Catena/sdks/cpp/connections</text>
<text text-anchor="middle" x="863" y="-84" font-family="Helvetica,sans-Serif" font-size="10.00">/gRPC/include/GetPopulatedSlots.h</text>
</a>
</g>
</g>
<!-- Node11&#45;&gt;Node19 -->
<g id="edge19_Node000011_Node000019" class="edge">
<title>Node11&#45;&gt;Node19</title>
<g id="a_edge19_Node000011_Node000019"><a xlink:title=" ">
<path fill="none" stroke="#63b8ff" d="M1164.49,-153.73C1075.31,-136.14 1051.1,-133.94 965,-118 961.9,-117.43 958.74,-116.84 955.56,-116.24"/>
<polygon fill="#63b8ff" stroke="#63b8ff" points="1164.01,-157.2 1174.5,-155.72 1165.37,-150.34 1164.01,-157.2"/>
</a>
</g>
</g>
<!-- Node20 -->
<g id="Node000020" class="node">
<title>Node20</title>
<g id="a_Node000020"><a xlink:href="GetValue_8h.html" target="_top" xlink:title="Implements Catena gRPC GetValue.">
<polygon fill="white" stroke="#666666" points="1134.5,-118 973.5,-118 973.5,-77 1134.5,-77 1134.5,-118"/>
<text text-anchor="start" x="981.5" y="-106" font-family="Helvetica,sans-Serif" font-size="10.00">/home/runner/work/Catena</text>
<text text-anchor="start" x="981.5" y="-95" font-family="Helvetica,sans-Serif" font-size="10.00">/Catena/sdks/cpp/connections</text>
<text text-anchor="middle" x="1054" y="-84" font-family="Helvetica,sans-Serif" font-size="10.00">/gRPC/include/GetValue.h</text>
</a>
</g>
</g>
<!-- Node11&#45;&gt;Node20 -->
<g id="edge20_Node000011_Node000020" class="edge">
<title>Node11&#45;&gt;Node20</title>
<g id="a_edge20_Node000011_Node000020"><a xlink:title=" ">
<path fill="none" stroke="#63b8ff" d="M1193.1,-150.4C1165.33,-140.04 1132.92,-127.95 1106.37,-118.04"/>
<polygon fill="#63b8ff" stroke="#63b8ff" points="1192.12,-153.77 1202.71,-153.99 1194.57,-147.22 1192.12,-153.77"/>
</a>
</g>
</g>
<!-- Node21 -->
<g id="Node000021" class="node">
<title>Node21</title>
<g id="a_Node000021"><a xlink:href="LanguagePackRequest_8h.html" target="_top" xlink:title="Implements Catena gRPC LanguagePackRequest.">
<polygon fill="white" stroke="#666666" points="1357.5,-118 1152.5,-118 1152.5,-77 1357.5,-77 1357.5,-118"/>
<text text-anchor="start" x="1160.5" y="-106" font-family="Helvetica,sans-Serif" font-size="10.00">/home/runner/work/Catena</text>
<text text-anchor="start" x="1160.5" y="-95" font-family="Helvetica,sans-Serif" font-size="10.00">/Catena/sdks/cpp/connections</text>
<text text-anchor="middle" x="1255" y="-84" font-family="Helvetica,sans-Serif" font-size="10.00">/gRPC/include/LanguagePackRequest.h</text>
</a>
</g>
</g>
<!-- Node11&#45;&gt;Node21 -->
<g id="edge21_Node000011_Node000021" class="edge">
<title>Node11&#45;&gt;Node21</title>
<g id="a_edge21_Node000011_Node000021"><a xlink:title=" ">
<path fill="none" stroke="#63b8ff" d="M1255,-143.69C1255,-135.08 1255,-125.9 1255,-118.07"/>
<polygon fill="#63b8ff" stroke="#63b8ff" points="1251.5,-143.79 1255,-153.79 1258.5,-143.79 1251.5,-143.79"/>
</a>
</g>
</g>
<!-- Node22 -->
<g id="Node000022" class="node">
<title>Node22</title>
<g id="a_Node000022"><a xlink:href="ListLanguages_8h.html" target="_top" xlink:title="Implements Catena gRPC ListLanguages.">
<polygon fill="white" stroke="#666666" points="1540.5,-118 1375.5,-118 1375.5,-77 1540.5,-77 1540.5,-118"/>
<text text-anchor="start" x="1383.5" y="-106" font-family="Helvetica,sans-Serif" font-size="10.00">/home/runner/work/Catena</text>
<text text-anchor="start" x="1383.5" y="-95" font-family="Helvetica,sans-Serif" font-size="10.00">/Catena/sdks/cpp/connections</text>
<text text-anchor="middle" x="1458" y="-84" font-family="Helvetica,sans-Serif" font-size="10.00">/gRPC/include/ListLanguages.h</text>
</a>
</g>
</g>
<!-- Node11&#45;&gt;Node22 -->
<g id="edge22_Node000011_Node000022" class="edge">
<title>Node11&#45;&gt;Node22</title>
<g id="a_edge22_Node000011_Node000022"><a xlink:title=" ">
<path fill="none" stroke="#63b8ff" d="M1317.51,-150.4C1345.56,-140.04 1378.3,-127.95 1405.11,-118.04"/>
<polygon fill="#63b8ff" stroke="#63b8ff" points="1315.97,-147.24 1307.81,-153.99 1318.4,-153.81 1315.97,-147.24"/>
</a>
</g>
</g>
<!-- Node23 -->
<g id="Node000023" class="node">
<title>Node23</title>
<g id="a_Node000023"><a xlink:href="MultiSetValue_8h.html" target="_top" xlink:title="Generic CallData class for the SetValue and MultiSetValue RPCs.">
<polygon fill="white" stroke="#666666" points="1760.5,-118 1597.5,-118 1597.5,-77 1760.5,-77 1760.5,-118"/>
<text text-anchor="start" x="1605.5" y="-106" font-family="Helvetica,sans-Serif" font-size="10.00">/home/runner/work/Catena</text>
<text text-anchor="start" x="1605.5" y="-95" font-family="Helvetica,sans-Serif" font-size="10.00">/Catena/sdks/cpp/connections</text>
<text text-anchor="middle" x="1679" y="-84" font-family="Helvetica,sans-Serif" font-size="10.00">/gRPC/include/MultiSetValue.h</text>
</a>
</g>
</g>
<!-- Node11&#45;&gt;Node23 -->
<g id="edge23_Node000011_Node000023" class="edge">
<title>Node11&#45;&gt;Node23</title>
<g id="a_edge23_Node000011_Node000023"><a xlink:title=" ">
<path fill="none" stroke="#63b8ff" d="M1346.05,-153.87C1451.95,-134.77 1480.85,-136.09 1583,-118 1587.69,-117.17 1592.5,-116.29 1597.35,-115.38"/>
<polygon fill="#63b8ff" stroke="#63b8ff" points="1345.11,-150.48 1335.9,-155.72 1346.37,-157.37 1345.11,-150.48"/>
</a>
</g>
</g>
<!-- Node24 -->
<g id="Node000024" class="node">
<title>Node24</title>
<g id="a_Node000024"><a xlink:href="SetValue_8h.html" target="_top" xlink:title="Implements Catena gRPC SetValue.">
<polygon fill="white" stroke="#666666" points="1704.5,-41 1543.5,-41 1543.5,0 1704.5,0 1704.5,-41"/>
<text text-anchor="start" x="1551.5" y="-29" font-family="Helvetica,sans-Serif" font-size="10.00">/home/runner/work/Catena</text>
<text text-anchor="start" x="1551.5" y="-18" font-family="Helvetica,sans-Serif" font-size="10.00">/Catena/sdks/cpp/connections</text>
<text text-anchor="middle" x="1624" y="-7" font-family="Helvetica,sans-Serif" font-size="10.00">/gRPC/include/SetValue.h</text>
</a>
</g>
</g>
<!-- Node11&#45;&gt;Node24 -->
<g id="edge25_Node000011_Node000024" class="edge">
<title>Node11&#45;&gt;Node24</title>
<g id="a_edge25_Node000011_Node000024"><a xlink:title=" ">
<path fill="none" stroke="#63b8ff" d="M1345.94,-153.97C1438.23,-138.15 1473.61,-164.33 1550,-118 1565.89,-108.36 1594.9,-66.37 1611.49,-41.06"/>
<polygon fill="#63b8ff" stroke="#63b8ff" points="1345.12,-150.56 1335.92,-155.81 1346.39,-157.44 1345.12,-150.56"/>
</a>
</g>
</g>
<!-- Node23&#45;&gt;Node24 -->
<g id="edge24_Node000023_Node000024" class="edge">
<title>Node23&#45;&gt;Node24</title>
<g id="a_edge24_Node000023_Node000024"><a xlink:title=" ">
<path fill="none" stroke="#63b8ff" d="M1658.59,-68.67C1651.87,-59.5 1644.53,-49.5 1638.35,-41.07"/>
<polygon fill="#63b8ff" stroke="#63b8ff" points="1655.81,-70.8 1664.55,-76.79 1661.46,-66.66 1655.81,-70.8"/>
</a>
</g>
</g>
<!-- Node25&#45;&gt;Node8 -->
<g id="edge28_Node000025_Node000008" class="edge">
<title>Node25&#45;&gt;Node8</title>
<g id="a_edge28_Node000025_Node000008"><a xlink:title=" ">
<path fill="none" stroke="#63b8ff" d="M1338.93,-225.92C1356.36,-215.95 1376.2,-204.58 1392.64,-195.17"/>
<polygon fill="#63b8ff" stroke="#63b8ff" points="1337.02,-222.98 1330.08,-230.99 1340.49,-229.06 1337.02,-222.98"/>
</a>
</g>
</g>
<!-- Node26&#45;&gt;Node2 -->
<g id="edge32_Node000026_Node000002" class="edge">
<title>Node26&#45;&gt;Node2</title>
<g id="a_edge32_Node000026_Node000002"><a xlink:title=" ">
<path fill="none" stroke="#63b8ff" d="M1100.77,-453.93C1124.56,-423.78 1162.12,-376.21 1183.24,-349.47"/>
<polygon fill="#63b8ff" stroke="#63b8ff" points="1097.89,-451.92 1094.44,-461.94 1103.39,-456.26 1097.89,-451.92"/>
</a>
</g>
</g>
<!-- Node26&#45;&gt;Node3 -->
<g id="edge33_Node000026_Node000003" class="edge">
<title>Node26&#45;&gt;Node3</title>
<g id="a_edge33_Node000026_Node000003"><a xlink:title=" ">
<path fill="none" stroke="#63b8ff" d="M1060.92,-453.41C1055.75,-444.8 1050.35,-435.17 1046,-426 1022.08,-375.57 1039.06,-350.6 1003,-308 990.11,-292.78 971.94,-280.88 954.73,-272.06"/>
<polygon fill="#63b8ff" stroke="#63b8ff" points="1057.95,-455.26 1066.16,-461.96 1063.91,-451.6 1057.95,-455.26"/>
</a>
</g>
</g>
<!-- Node26&#45;&gt;Node7 -->
<g id="edge34_Node000026_Node000007" class="edge">
<title>Node26&#45;&gt;Node7</title>
<g id="a_edge34_Node000026_Node000007"><a xlink:title=" ">
<path fill="none" stroke="#63b8ff" d="M1077.53,-451.59C1074.49,-389.41 1067.54,-247.62 1064.97,-195.34"/>
<polygon fill="#63b8ff" stroke="#63b8ff" points="1074.05,-452.08 1078.04,-461.89 1081.04,-451.73 1074.05,-452.08"/>
</a>
</g>
</g>
<!-- Node26&#45;&gt;Node8 -->
<g id="edge38_Node000026_Node000008" class="edge">
<title>Node26&#45;&gt;Node8</title>
<g id="a_edge38_Node000026_Node000008"><a xlink:title=" ">
<path fill="none" stroke="#63b8ff" d="M1162.3,-479.33C1212.67,-474.19 1275.69,-460.52 1321,-426 1397.63,-367.63 1419.44,-243.22 1425.14,-195.08"/>
<polygon fill="#63b8ff" stroke="#63b8ff" points="1161.72,-475.87 1152.08,-480.28 1162.36,-482.84 1161.72,-475.87"/>
</a>
</g>
</g>
<!-- Node26&#45;&gt;Node9 -->
<g id="edge39_Node000026_Node000009" class="edge">
<title>Node26&#45;&gt;Node9</title>
<g id="a_edge39_Node000026_Node000009"><a xlink:title=" ">
<path fill="none" stroke="#63b8ff" d="M995.51,-467.58C933.24,-456.41 853.98,-440.28 824,-426 696.13,-365.08 573.77,-242.72 528.96,-195.1"/>
<polygon fill="#63b8ff" stroke="#63b8ff" points="995.28,-471.09 1005.74,-469.4 996.51,-464.2 995.28,-471.09"/>
</a>
</g>
</g>
<!-- Node26&#45;&gt;Node10 -->
<g id="edge40_Node000026_Node000010" class="edge">
<title>Node26&#45;&gt;Node10</title>
<g id="a_edge40_Node000026_Node000010"><a xlink:title=" ">
<path fill="none" stroke="#63b8ff" d="M995.66,-476.14C928.19,-469.74 831.62,-455.86 752,-426 593.34,-366.49 428.48,-243.3 367.53,-195.28"/>
<polygon fill="#63b8ff" stroke="#63b8ff" points="995.54,-479.64 1005.82,-477.07 996.18,-472.67 995.54,-479.64"/>
</a>
</g>
</g>
<!-- Node26&#45;&gt;Node11 -->
<g id="edge43_Node000026_Node000011" class="edge">
<title>Node26&#45;&gt;Node11</title>
<g id="a_edge43_Node000026_Node000011"><a xlink:title=" ">
<path fill="none" stroke="#63b8ff" d="M1081.89,-451.83C1086.15,-416.38 1096,-355.85 1117,-308 1133.8,-269.73 1141.04,-260.14 1171,-231 1185.16,-217.23 1203.18,-204.8 1218.9,-195.21"/>
<polygon fill="#63b8ff" stroke="#63b8ff" points="1078.39,-451.66 1080.74,-461.99 1085.34,-452.45 1078.39,-451.66"/>
</a>
</g>
</g>
<!-- Node27 -->
<g id="Node000027" class="node">
<title>Node27</title>
<g id="a_Node000027"><a xlink:href="ParamDescriptor_8h.html" target="_top" xlink:title="Interface for accessing parameter descriptions.">
<polygon fill="white" stroke="#666666" points="1311.5,-426 1164.5,-426 1164.5,-385 1311.5,-385 1311.5,-426"/>
<text text-anchor="start" x="1172.5" y="-414" font-family="Helvetica,sans-Serif" font-size="10.00">/home/runner/work/Catena</text>
<text text-anchor="start" x="1172.5" y="-403" font-family="Helvetica,sans-Serif" font-size="10.00">/Catena/sdks/cpp/common</text>
<text text-anchor="middle" x="1238" y="-392" font-family="Helvetica,sans-Serif" font-size="10.00">/include/ParamDescriptor.h</text>
</a>
</g>
</g>
<!-- Node26&#45;&gt;Node27 -->
<g id="edge35_Node000026_Node000027" class="edge">
<title>Node26&#45;&gt;Node27</title>
<g id="a_edge35_Node000026_Node000027"><a xlink:title=" ">
<path fill="none" stroke="#63b8ff" d="M1129.41,-457.72C1151.05,-447.51 1176.03,-435.73 1196.57,-426.04"/>
<polygon fill="#63b8ff" stroke="#63b8ff" points="1127.91,-454.56 1120.36,-461.99 1130.9,-460.89 1127.91,-454.56"/>
</a>
</g>
</g>
<!-- Node28 -->
<g id="Node000028" class="node">
<title>Node28</title>
<g id="a_Node000028"><a xlink:href="PeerInfo_8h.html" target="_top" xlink:title="Holds information about connected Peers.">
<polygon fill="white" stroke="#666666" points="993.5,-426 832.5,-426 832.5,-385 993.5,-385 993.5,-426"/>
<text text-anchor="start" x="840.5" y="-414" font-family="Helvetica,sans-Serif" font-size="10.00">/home/runner/work/Catena</text>
<text text-anchor="start" x="840.5" y="-403" font-family="Helvetica,sans-Serif" font-size="10.00">/Catena/sdks/cpp/connections</text>
<text text-anchor="middle" x="913" y="-392" font-family="Helvetica,sans-Serif" font-size="10.00">/gRPC/include/PeerInfo.h</text>
</a>
</g>
</g>
<!-- Node26&#45;&gt;Node28 -->
<g id="edge41_Node000026_Node000028" class="edge">
<title>Node26&#45;&gt;Node28</title>
<g id="a_edge41_Node000026_Node000028"><a xlink:title=" ">
<path fill="none" stroke="#63b8ff" d="M1026.67,-457.86C1004.01,-447.62 977.79,-435.77 956.25,-426.04"/>
<polygon fill="#63b8ff" stroke="#63b8ff" points="1025.26,-461.06 1035.82,-461.99 1028.15,-454.68 1025.26,-461.06"/>
</a>
</g>
</g>
<!-- Node27&#45;&gt;Node2 -->
<g id="edge36_Node000027_Node000002" class="edge">
<title>Node27&#45;&gt;Node2</title>
<g id="a_edge36_Node000027_Node000002"><a xlink:title=" ">
<path fill="none" stroke="#63b8ff" d="M1223.09,-375.83C1218.44,-366.89 1213.42,-357.24 1209.18,-349.07"/>
<polygon fill="#63b8ff" stroke="#63b8ff" points="1220.03,-377.54 1227.75,-384.79 1226.24,-374.31 1220.03,-377.54"/>
</a>
</g>
</g>
<!-- Node27&#45;&gt;Node8 -->
<g id="edge37_Node000027_Node000008" class="edge">
<title>Node27&#45;&gt;Node8</title>
<g id="a_edge37_Node000027_Node000008"><a xlink:title=" ">
<path fill="none" stroke="#63b8ff" d="M1271.34,-378.6C1301.84,-353.68 1346.85,-313.72 1378,-272 1396.21,-247.61 1411,-215.45 1419.4,-195.11"/>
<polygon fill="#63b8ff" stroke="#63b8ff" points="1269.1,-375.9 1263.53,-384.91 1273.5,-381.35 1269.1,-375.9"/>
</a>
</g>
</g>
<!-- Node29 -->
<g id="Node000029" class="node">
<title>Node29</title>
<g id="a_Node000029"><a xlink:href="PeerManager_8h.html" target="_top" xlink:title="Handles Connections to Peers.">
<polygon fill="white" stroke="#666666" points="993.5,-349 832.5,-349 832.5,-308 993.5,-308 993.5,-349"/>
<text text-anchor="start" x="840.5" y="-337" font-family="Helvetica,sans-Serif" font-size="10.00">/home/runner/work/Catena</text>
<text text-anchor="start" x="840.5" y="-326" font-family="Helvetica,sans-Serif" font-size="10.00">/Catena/sdks/cpp/connections</text>
<text text-anchor="middle" x="913" y="-315" font-family="Helvetica,sans-Serif" font-size="10.00">/gRPC/include/PeerManager.h</text>
</a>
</g>
</g>
<!-- Node28&#45;&gt;Node29 -->
<g id="edge42_Node000028_Node000029" class="edge">
<title>Node28&#45;&gt;Node29</title>
<g id="a_edge42_Node000028_Node000029"><a xlink:title=" ">
<path fill="none" stroke="#63b8ff" d="M913,-374.69C913,-366.08 913,-356.9 913,-349.07"/>
<polygon fill="#63b8ff" stroke="#63b8ff" points="909.5,-374.79 913,-384.79 916.5,-374.79 909.5,-374.79"/>
</a>
</g>
</g>
</g>
</svg>

<g id="navigator" transform="translate(0 0)" fill="#404254">
  <rect fill="#f2f5e9" fill-opacity="0.5" stroke="#606060" stroke-width=".5" x="0" y="0" width="60" height="60"/>
  <use id="zoomplus" xlink:href="#zoomPlus" x="17" y="9" onmousedown="handleZoom(evt,'in')"/>
  <use id="zoomminus" xlink:href="#zoomMin" x="42" y="9" onmousedown="handleZoom(evt,'out')"/>
  <use id="reset" xlink:href="#resetDef" x="30" y="36" onmousedown="handleReset()"/>
   <use id="arrowup" xlink:href="#arrowUp" x="0" y="0" onmousedown="handlePan(0,-1)"/>
  <use id="arrowright" xlink:href="#arrowRight" x="0" y="0" onmousedown="handlePan(1,0)"/>
  <use id="arrowdown" xlink:href="#arrowDown" x="0" y="0" onmousedown="handlePan(0,1)"/>
  <use id="arrowleft" xlink:href="#arrowLeft" x="0" y="0" onmousedown="handlePan(-1,0)"/>
</g>
<svg viewBox="0 0 15 15" width="100%" height="30px" preserveAspectRatio="xMaxYMin meet">
 <g id="arrow_out" transform="scale(0.3 0.3)">
  <a xlink:href="Path_8h__dep__incl_org.svg" target="_base">
   <rect id="button" ry="5" rx="5" y="6" x="6" height="38" width="38"
        fill="#f2f5e9" fill-opacity="0.5" stroke="#606060" stroke-width="1.0"/>
   <path id="arrow"
     d="M 11.500037,31.436501 C 11.940474,20.09759 22.043105,11.32322 32.158766,21.979434 L 37.068811,17.246167 C 37.068811,17.246167 37.088388,32 37.088388,32 L 22.160133,31.978069 C 22.160133,31.978069 26.997745,27.140456 26.997745,27.140456 C 18.528582,18.264221 13.291696,25.230495 11.500037,31.436501 z"
     style="fill:#404040;"/>
  </a>
 </g>
</svg>

<style type='text/css'>
<![CDATA[
[data-mouse-over-selected='false'] { opacity: 0.7; }
[data-mouse-over-selected='true']  { opacity: 1.0; }
]]>
</style>
<script type="application/ecmascript"><![CDATA[
document.addEventListener('DOMContentLoaded', (event) => {
  highlightEdges();
  highlightAdjacentNodes();
});
]]></script>
</svg>
