<?xml version="1.0" encoding="UTF-8" standalone="no"?>
<!DOCTYPE svg PUBLIC "-//W3C//DTD SVG 1.1//EN"
 "http://www.w3.org/Graphics/SVG/1.1/DTD/svg11.dtd">
<!-- Generated by graphviz version 2.43.0 (0)
 -->
<!-- Title: /home/runner/work/Catena/Catena/sdks/cpp/connections/gRPC/include/PeerInfo.h Pages: 1 -->
<!--zoomable 324 -->

<svg id="main" version="1.1" xmlns="http://www.w3.org/2000/svg" xmlns:xlink="http://www.w3.org/1999/xlink" xml:space="preserve" onload="init(evt)">
<style type="text/css"><![CDATA[
.node, .edge {opacity: 0.7;}
.node.selected, .edge.selected {opacity: 1;}
.edge:hover path { stroke: red; }
.edge:hover polygon { stroke: red; fill: red; }
]]></style>

<defs>
  <circle id="rim" cx="0" cy="0" r="7"/>
  <circle id="rim2" cx="0" cy="0" r="3.5"/>
  <g id="zoomPlus">
    <use xlink:href="#rim" fill="#404040"><set attributeName="fill" to="#808080" begin="zoomplus.mouseover" end="zoomplus.mouseout"/></use>
    <path d="M-4,0h8M0,-4v8" fill="none" stroke="white" stroke-width="1.5" pointer-events="none"/>
  </g>
  <g id="zoomMin">
    <use xlink:href="#rim" fill="#404040"><set attributeName="fill" to="#808080" begin="zoomminus.mouseover" end="zoomminus.mouseout"/></use>
    <path d="M-4,0h8" fill="none" stroke="white" stroke-width="1.5" pointer-events="none"/>
  </g>
  <g id="arrowUp" transform="translate(30 24)">
    <use xlink:href="#rim"/>
    <path pointer-events="none" fill="none" stroke="white" stroke-width="1.5" d="M0,-3.0v7 M-2.5,-0.5L0,-3.0L2.5,-0.5"/>
  </g>
  <g id="arrowRight" transform="rotate(90) translate(36 -43)">
    <use xlink:href="#rim"/>
    <path pointer-events="none" fill="none" stroke="white" stroke-width="1.5" d="M0,-3.0v7 M-2.5,-0.5L0,-3.0L2.5,-0.5"/>
  </g>
  <g id="arrowDown" transform="rotate(180) translate(-30 -48)">
    <use xlink:href="#rim"/>
    <path pointer-events="none" fill="none" stroke="white" stroke-width="1.5" d="M0,-3.0v7 M-2.5,-0.5L0,-3.0L2.5,-0.5"/>
  </g>
  <g id="arrowLeft" transform="rotate(270) translate(-36 17)">
    <use xlink:href="#rim"/>
    <path pointer-events="none" fill="none" stroke="white" stroke-width="1.5" d="M0,-3.0v7 M-2.5,-0.5L0,-3.0L2.5,-0.5"/>
  </g>
  <g id="resetDef">
    <use xlink:href="#rim2" fill="#404040"><set attributeName="fill" to="#808080" begin="reset.mouseover" end="reset.mouseout"/></use>
  </g>
</defs>
<script type="application/ecmascript">
var viewWidth = 1307;
var viewHeight = 324;
var sectionId = 'dynsection-0';
</script>
<script type="application/ecmascript" xlink:href="svg.min.js"/>
<svg id="graph" class="graph">
<g id="viewport">
<title>/home/runner/work/Catena/Catena/sdks/cpp/connections/gRPC/include/PeerInfo.h</title>
<!-- Node1 -->
<g id="Node000001" class="node">
<title>Node1</title>
<g id="a_Node000001"><a xlink:title="Holds information about connected Peers.">
<polygon fill="#999999" stroke="#666666" points="1061,-316 900,-316 900,-275 1061,-275 1061,-316"/>
<text text-anchor="start" x="908" y="-304" font-family="Helvetica,sans-Serif" font-size="10.00">/home/runner/work/Catena</text>
<text text-anchor="start" x="908" y="-293" font-family="Helvetica,sans-Serif" font-size="10.00">/Catena/sdks/cpp/connections</text>
<text text-anchor="middle" x="980.5" y="-282" font-family="Helvetica,sans-Serif" font-size="10.00">/gRPC/include/PeerInfo.h</text>
</a>
</g>
</g>
<!-- Node2 -->
<g id="Node000002" class="node">
<title>Node2</title>
<g id="a_Node000002"><a xlink:href="IParam_8h.html" target="_top" xlink:title="Interface for parameters.">
<polygon fill="white" stroke="#666666" points="644,-239 585,-239 585,-220 644,-220 644,-239"/>
<text text-anchor="middle" x="614.5" y="-227" font-family="Helvetica,sans-Serif" font-size="10.00">IParam.h</text>
</a>
</g>
</g>
<!-- Node1&#45;&gt;Node2 -->
<g id="edge1_Node000001_Node000002" class="edge">
<title>Node1&#45;&gt;Node2</title>
<g id="a_edge1_Node000001_Node000002"><a xlink:title=" ">
<path fill="none" stroke="#63b8ff" d="M899.73,-280.38C823.67,-267.08 712.92,-247.71 654.31,-237.46"/>
<polygon fill="#63b8ff" stroke="#63b8ff" points="654.79,-233.99 644.34,-235.72 653.59,-240.89 654.79,-233.99"/>
</a>
</g>
</g>
<!-- Node8 -->
<g id="Node000008" class="node">
<title>Node8</title>
<g id="a_Node000008"><a xlink:title=" ">
<polygon fill="#e0e0e0" stroke="#999999" points="517.5,-19 473.5,-19 473.5,0 517.5,0 517.5,-19"/>
<text text-anchor="middle" x="495.5" y="-7" font-family="Helvetica,sans-Serif" font-size="10.00">string</text>
</a>
</g>
</g>
<!-- Node1&#45;&gt;Node8 -->
<g id="edge36_Node000001_Node000008" class="edge">
<title>Node1&#45;&gt;Node8</title>
<g id="a_edge36_Node000001_Node000008"><a xlink:title=" ">
<path fill="none" stroke="#63b8ff" d="M985.16,-274.88C992.73,-237.63 1003.01,-156.25 961.5,-110 903.1,-44.94 623.5,-19.49 527.75,-12.59"/>
<polygon fill="#63b8ff" stroke="#63b8ff" points="527.74,-9.08 517.52,-11.87 527.25,-16.06 527.74,-9.08"/>
</a>
</g>
</g>
<!-- Node29 -->
<g id="Node000029" class="node">
<title>Node29</title>
<g id="a_Node000029"><a xlink:title=" ">
<polygon fill="#e0e0e0" stroke="#999999" points="1154.5,-239 1008.5,-239 1008.5,-220 1154.5,-220 1154.5,-239"/>
<text text-anchor="middle" x="1081.5" y="-227" font-family="Helvetica,sans-Serif" font-size="10.00">interface/service.grpc.pb.h</text>
</a>
</g>
</g>
<!-- Node1&#45;&gt;Node29 -->
<g id="edge35_Node000001_Node000029" class="edge">
<title>Node1&#45;&gt;Node29</title>
<g id="a_edge35_Node000001_Node000029"><a xlink:title=" ">
<path fill="none" stroke="#63b8ff" d="M1011.35,-274.95C1026.87,-265.12 1045.31,-253.43 1059.39,-244.51"/>
<polygon fill="#63b8ff" stroke="#63b8ff" points="1061.37,-247.4 1067.94,-239.09 1057.62,-241.49 1061.37,-247.4"/>
</a>
</g>
</g>
<!-- Node3 -->
<g id="Node000003" class="node">
<title>Node3</title>
<g id="a_Node000003"><a xlink:href="Enums_8h.html" target="_top" xlink:title="Tools for using EnumDecorators.">
<polygon fill="white" stroke="#666666" points="1158,-129 1099,-129 1099,-110 1158,-110 1158,-129"/>
<text text-anchor="middle" x="1128.5" y="-117" font-family="Helvetica,sans-Serif" font-size="10.00">Enums.h</text>
</a>
</g>
</g>
<!-- Node2&#45;&gt;Node3 -->
<g id="edge2_Node000002_Node000003" class="edge">
<title>Node2&#45;&gt;Node3</title>
<g id="a_edge2_Node000002_Node000003"><a xlink:title=" ">
<path fill="none" stroke="#63b8ff" d="M644.23,-224.26C693.11,-217.12 793.44,-201.71 877.5,-184 952.85,-168.12 1039.76,-145.06 1089.01,-131.54"/>
<polygon fill="#63b8ff" stroke="#63b8ff" points="1090.22,-134.83 1098.93,-128.8 1088.36,-128.08 1090.22,-134.83"/>
</a>
</g>
</g>
<!-- Node11 -->
<g id="Node000011" class="node">
<title>Node11</title>
<g id="a_Node000011"><a xlink:href="IConstraint_8h.html" target="_top" xlink:title="Interface for constraints.">
<polygon fill="white" stroke="#666666" points="439,-184 360,-184 360,-165 439,-165 439,-184"/>
<text text-anchor="middle" x="399.5" y="-172" font-family="Helvetica,sans-Serif" font-size="10.00">IConstraint.h</text>
</a>
</g>
</g>
<!-- Node2&#45;&gt;Node11 -->
<g id="edge11_Node000002_Node000011" class="edge">
<title>Node2&#45;&gt;Node11</title>
<g id="a_edge11_Node000002_Node000011"><a xlink:title=" ">
<path fill="none" stroke="#63b8ff" d="M584.61,-221.13C548.07,-212.12 485.94,-196.81 443.83,-186.43"/>
<polygon fill="#63b8ff" stroke="#63b8ff" points="444.67,-183.03 434.12,-184.03 442.99,-189.83 444.67,-183.03"/>
</a>
</g>
</g>
<!-- Node12 -->
<g id="Node000012" class="node">
<title>Node12</title>
<g id="a_Node000012"><a xlink:title=" ">
<polygon fill="#e0e0e0" stroke="#999999" points="313,-129 194,-129 194,-110 313,-110 313,-129"/>
<text text-anchor="middle" x="253.5" y="-117" font-family="Helvetica,sans-Serif" font-size="10.00">interface/param.pb.h</text>
</a>
</g>
</g>
<!-- Node2&#45;&gt;Node12 -->
<g id="edge34_Node000002_Node000012" class="edge">
<title>Node2&#45;&gt;Node12</title>
<g id="a_edge34_Node000002_Node000012"><a xlink:title=" ">
<path fill="none" stroke="#63b8ff" d="M584.94,-227.45C534.99,-224.83 431.43,-215.7 350.5,-184 320.41,-172.21 289.9,-150.23 271.34,-135.48"/>
<polygon fill="#63b8ff" stroke="#63b8ff" points="273.44,-132.67 263.47,-129.08 269.03,-138.11 273.44,-132.67"/>
</a>
</g>
</g>
<!-- Node14 -->
<g id="Node000014" class="node">
<title>Node14</title>
<g id="a_Node000014"><a xlink:href="IParamDescriptor_8h.html" target="_top" xlink:title="Interface class for ParamDescriptor.">
<polygon fill="white" stroke="#666666" points="236,-184 127,-184 127,-165 236,-165 236,-184"/>
<text text-anchor="middle" x="181.5" y="-172" font-family="Helvetica,sans-Serif" font-size="10.00">IParamDescriptor.h</text>
</a>
</g>
</g>
<!-- Node2&#45;&gt;Node14 -->
<g id="edge14_Node000002_Node000014" class="edge">
<title>Node2&#45;&gt;Node14</title>
<g id="a_edge14_Node000002_Node000014"><a xlink:title=" ">
<path fill="none" stroke="#63b8ff" d="M584.74,-224.86C515.33,-216.36 341.43,-195.08 246.25,-183.42"/>
<polygon fill="#63b8ff" stroke="#63b8ff" points="246.51,-179.93 236.16,-182.19 245.66,-186.88 246.51,-179.93"/>
</a>
</g>
</g>
<!-- Node21 -->
<g id="Node000021" class="node">
<title>Node21</title>
<g id="a_Node000021"><a xlink:href="Path_8h.html" target="_top" xlink:title="Handles Path objects used to uniquely identify and access OIDs.">
<polygon fill="white" stroke="#666666" points="638,-184 591,-184 591,-165 638,-165 638,-184"/>
<text text-anchor="middle" x="614.5" y="-172" font-family="Helvetica,sans-Serif" font-size="10.00">Path.h</text>
</a>
</g>
</g>
<!-- Node2&#45;&gt;Node21 -->
<g id="edge25_Node000002_Node000021" class="edge">
<title>Node2&#45;&gt;Node21</title>
<g id="a_edge25_Node000002_Node000021"><a xlink:title=" ">
<path fill="none" stroke="#63b8ff" d="M614.5,-219.75C614.5,-212.8 614.5,-202.85 614.5,-194.13"/>
<polygon fill="#63b8ff" stroke="#63b8ff" points="618,-194.09 614.5,-184.09 611,-194.09 618,-194.09"/>
</a>
</g>
</g>
<!-- Node26 -->
<g id="Node000026" class="node">
<title>Node26</title>
<g id="a_Node000026"><a xlink:href="Status_8h.html" target="_top" xlink:title="Communicates failure status using gRPC&#39;s codes.">
<polygon fill="white" stroke="#666666" points="868.5,-184 812.5,-184 812.5,-165 868.5,-165 868.5,-184"/>
<text text-anchor="middle" x="840.5" y="-172" font-family="Helvetica,sans-Serif" font-size="10.00">Status.h</text>
</a>
</g>
</g>
<!-- Node2&#45;&gt;Node26 -->
<g id="edge31_Node000002_Node000026" class="edge">
<title>Node2&#45;&gt;Node26</title>
<g id="a_edge31_Node000002_Node000026"><a xlink:title=" ">
<path fill="none" stroke="#63b8ff" d="M644.05,-221.57C684.67,-212.04 757.82,-194.89 802.48,-184.42"/>
<polygon fill="#63b8ff" stroke="#63b8ff" points="803.43,-187.79 812.37,-182.1 801.83,-180.97 803.43,-187.79"/>
</a>
</g>
</g>
<!-- Node4 -->
<g id="Node000004" class="node">
<title>Node4</title>
<g id="a_Node000004"><a xlink:href="EnumDecorator_8h.html" target="_top" xlink:title="Provides an enum with useful extra functionality.">
<polygon fill="white" stroke="#666666" points="1245.5,-74 1101.5,-74 1101.5,-55 1245.5,-55 1245.5,-74"/>
<text text-anchor="middle" x="1173.5" y="-62" font-family="Helvetica,sans-Serif" font-size="10.00">patterns/EnumDecorator.h</text>
</a>
</g>
</g>
<!-- Node3&#45;&gt;Node4 -->
<g id="edge3_Node000003_Node000004" class="edge">
<title>Node3&#45;&gt;Node4</title>
<g id="a_edge3_Node000003_Node000004"><a xlink:title=" ">
<path fill="none" stroke="#63b8ff" d="M1135.93,-109.75C1142.35,-102.18 1151.81,-91.05 1159.62,-81.84"/>
<polygon fill="#63b8ff" stroke="#63b8ff" points="1162.4,-83.98 1166.21,-74.09 1157.07,-79.45 1162.4,-83.98"/>
</a>
</g>
</g>
<!-- Node6 -->
<g id="Node000006" class="node">
<title>Node6</title>
<g id="a_Node000006"><a xlink:title=" ">
<polygon fill="#e0e0e0" stroke="#999999" points="1298.5,-19 1248.5,-19 1248.5,0 1298.5,0 1298.5,-19"/>
<text text-anchor="middle" x="1273.5" y="-7" font-family="Helvetica,sans-Serif" font-size="10.00">cstdint</text>
</a>
</g>
</g>
<!-- Node3&#45;&gt;Node6 -->
<g id="edge10_Node000003_Node000006" class="edge">
<title>Node3&#45;&gt;Node6</title>
<g id="a_edge10_Node000003_Node000006"><a xlink:title=" ">
<path fill="none" stroke="#63b8ff" d="M1158.1,-115.68C1186.62,-111.41 1229.06,-100.71 1254.5,-74 1266.02,-61.9 1270.59,-43.1 1272.38,-29.09"/>
<polygon fill="#63b8ff" stroke="#63b8ff" points="1275.87,-29.38 1273.3,-19.11 1268.9,-28.74 1275.87,-29.38"/>
</a>
</g>
</g>
<!-- Node10 -->
<g id="Node000010" class="node">
<title>Node10</title>
<g id="a_Node000010"><a xlink:title=" ">
<polygon fill="#e0e0e0" stroke="#999999" points="1083,-74 964,-74 964,-55 1083,-55 1083,-74"/>
<text text-anchor="middle" x="1023.5" y="-62" font-family="Helvetica,sans-Serif" font-size="10.00">interface/device.pb.h</text>
</a>
</g>
</g>
<!-- Node3&#45;&gt;Node10 -->
<g id="edge9_Node000003_Node000010" class="edge">
<title>Node3&#45;&gt;Node10</title>
<g id="a_edge9_Node000003_Node000010"><a xlink:title=" ">
<path fill="none" stroke="#63b8ff" d="M1111.63,-109.98C1094.89,-101.54 1069,-88.47 1049.61,-78.68"/>
<polygon fill="#63b8ff" stroke="#63b8ff" points="1051.18,-75.55 1040.68,-74.17 1048.03,-81.8 1051.18,-75.55"/>
</a>
</g>
</g>
<!-- Node5 -->
<g id="Node000005" class="node">
<title>Node5</title>
<g id="a_Node000005"><a xlink:href="ReflectionMacros_8h.html" target="_top" xlink:title="adapted from https://github.com/tapika/TestCppReflect">
<polygon fill="white" stroke="#666666" points="1229.5,-19 1119.5,-19 1119.5,0 1229.5,0 1229.5,-19"/>
<text text-anchor="middle" x="1174.5" y="-7" font-family="Helvetica,sans-Serif" font-size="10.00">ReflectionMacros.h</text>
</a>
</g>
</g>
<!-- Node4&#45;&gt;Node5 -->
<g id="edge4_Node000004_Node000005" class="edge">
<title>Node4&#45;&gt;Node5</title>
<g id="a_edge4_Node000004_Node000005"><a xlink:title=" ">
<path fill="none" stroke="#63b8ff" d="M1173.67,-54.75C1173.8,-47.8 1173.98,-37.85 1174.15,-29.13"/>
<polygon fill="#63b8ff" stroke="#63b8ff" points="1177.65,-29.15 1174.34,-19.09 1170.65,-29.02 1177.65,-29.15"/>
</a>
</g>
</g>
<!-- Node4&#45;&gt;Node6 -->
<g id="edge5_Node000004_Node000006" class="edge">
<title>Node4&#45;&gt;Node6</title>
<g id="a_edge5_Node000004_Node000006"><a xlink:title=" ">
<path fill="none" stroke="#63b8ff" d="M1189.57,-54.98C1205.36,-46.61 1229.72,-33.7 1248.13,-23.95"/>
<polygon fill="#63b8ff" stroke="#63b8ff" points="1249.94,-26.95 1257.14,-19.17 1246.67,-20.76 1249.94,-26.95"/>
</a>
</g>
</g>
<!-- Node7 -->
<g id="Node000007" class="node">
<title>Node7</title>
<g id="a_Node000007"><a xlink:title=" ">
<polygon fill="#e0e0e0" stroke="#999999" points="418,-19 325,-19 325,0 418,0 418,-19"/>
<text text-anchor="middle" x="371.5" y="-7" font-family="Helvetica,sans-Serif" font-size="10.00">unordered_map</text>
</a>
</g>
</g>
<!-- Node4&#45;&gt;Node7 -->
<g id="edge6_Node000004_Node000007" class="edge">
<title>Node4&#45;&gt;Node7</title>
<g id="a_edge6_Node000004_Node000007"><a xlink:title=" ">
<path fill="none" stroke="#63b8ff" d="M1101.09,-55.73C1098.19,-55.47 1095.32,-55.23 1092.5,-55 813.85,-32.41 743.3,-39.73 464.5,-19 452.87,-18.14 440.43,-17.09 428.56,-16.02"/>
<polygon fill="#63b8ff" stroke="#63b8ff" points="428.58,-12.51 418.31,-15.09 427.95,-19.48 428.58,-12.51"/>
</a>
</g>
</g>
<!-- Node4&#45;&gt;Node8 -->
<g id="edge7_Node000004_Node000008" class="edge">
<title>Node4&#45;&gt;Node8</title>
<g id="a_edge7_Node000004_Node000008"><a xlink:title=" ">
<path fill="none" stroke="#63b8ff" d="M1101.09,-55.79C1098.19,-55.52 1095.32,-55.25 1092.5,-55 877.14,-35.68 617.54,-18.37 527.83,-12.57"/>
<polygon fill="#63b8ff" stroke="#63b8ff" points="527.95,-9.07 517.75,-11.92 527.5,-16.05 527.95,-9.07"/>
</a>
</g>
</g>
<!-- Node9 -->
<g id="Node000009" class="node">
<title>Node9</title>
<g id="a_Node000009"><a xlink:title=" ">
<polygon fill="#e0e0e0" stroke="#999999" points="1101,-19 1032,-19 1032,0 1101,0 1101,-19"/>
<text text-anchor="middle" x="1066.5" y="-7" font-family="Helvetica,sans-Serif" font-size="10.00">type_traits</text>
</a>
</g>
</g>
<!-- Node4&#45;&gt;Node9 -->
<g id="edge8_Node000004_Node000009" class="edge">
<title>Node4&#45;&gt;Node9</title>
<g id="a_edge8_Node000004_Node000009"><a xlink:title=" ">
<path fill="none" stroke="#63b8ff" d="M1156.31,-54.98C1139.25,-46.54 1112.87,-33.47 1093.1,-23.68"/>
<polygon fill="#63b8ff" stroke="#63b8ff" points="1094.52,-20.47 1084,-19.17 1091.41,-26.75 1094.52,-20.47"/>
</a>
</g>
</g>
<!-- Node11&#45;&gt;Node12 -->
<g id="edge12_Node000011_Node000012" class="edge">
<title>Node11&#45;&gt;Node12</title>
<g id="a_edge12_Node000011_Node000012"><a xlink:title=" ">
<path fill="none" stroke="#63b8ff" d="M376.04,-164.98C351.92,-156.23 314.13,-142.51 286.9,-132.62"/>
<polygon fill="#63b8ff" stroke="#63b8ff" points="287.98,-129.29 277.38,-129.17 285.59,-135.87 287.98,-129.29"/>
</a>
</g>
</g>
<!-- Node13 -->
<g id="Node000013" class="node">
<title>Node13</title>
<g id="a_Node000013"><a xlink:title=" ">
<polygon fill="#e0e0e0" stroke="#999999" points="467.5,-129 331.5,-129 331.5,-110 467.5,-110 467.5,-129"/>
<text text-anchor="middle" x="399.5" y="-117" font-family="Helvetica,sans-Serif" font-size="10.00">interface/constraint.pb.h</text>
</a>
</g>
</g>
<!-- Node11&#45;&gt;Node13 -->
<g id="edge13_Node000011_Node000013" class="edge">
<title>Node11&#45;&gt;Node13</title>
<g id="a_edge13_Node000011_Node000013"><a xlink:title=" ">
<path fill="none" stroke="#63b8ff" d="M399.5,-164.75C399.5,-157.8 399.5,-147.85 399.5,-139.13"/>
<polygon fill="#63b8ff" stroke="#63b8ff" points="403,-139.09 399.5,-129.09 396,-139.09 403,-139.09"/>
</a>
</g>
</g>
<!-- Node14&#45;&gt;Node12 -->
<g id="edge24_Node000014_Node000012" class="edge">
<title>Node14&#45;&gt;Node12</title>
<g id="a_edge24_Node000014_Node000012"><a xlink:title=" ">
<path fill="none" stroke="#63b8ff" d="M193.07,-164.98C203.92,-157 220.38,-144.88 233.38,-135.31"/>
<polygon fill="#63b8ff" stroke="#63b8ff" points="235.74,-137.92 241.72,-129.17 231.59,-132.28 235.74,-137.92"/>
</a>
</g>
</g>
<!-- Node15 -->
<g id="Node000015" class="node">
<title>Node15</title>
<g id="a_Node000015"><a xlink:href="Tags_8h.html" target="_top" xlink:title="Tags to differentiate collections with the same type for template specialization.">
<polygon fill="white" stroke="#666666" points="176,-129 129,-129 129,-110 176,-110 176,-129"/>
<text text-anchor="middle" x="152.5" y="-117" font-family="Helvetica,sans-Serif" font-size="10.00">Tags.h</text>
</a>
</g>
</g>
<!-- Node14&#45;&gt;Node15 -->
<g id="edge15_Node000014_Node000015" class="edge">
<title>Node14&#45;&gt;Node15</title>
<g id="a_edge15_Node000014_Node000015"><a xlink:title=" ">
<path fill="none" stroke="#63b8ff" d="M176.71,-164.75C172.74,-157.49 166.97,-146.95 162.07,-137.98"/>
<polygon fill="#63b8ff" stroke="#63b8ff" points="165.07,-136.18 157.2,-129.09 158.93,-139.54 165.07,-136.18"/>
</a>
</g>
</g>
<!-- Node17 -->
<g id="Node000017" class="node">
<title>Node17</title>
<g id="a_Node000017"><a xlink:href="PolyglotText_8h.html" target="_top" xlink:title="Polyglot Text serialization and deserialization to protobuf.">
<polygon fill="white" stroke="#666666" points="110.5,-129 24.5,-129 24.5,-110 110.5,-110 110.5,-129"/>
<text text-anchor="middle" x="67.5" y="-117" font-family="Helvetica,sans-Serif" font-size="10.00">PolyglotText.h</text>
</a>
</g>
</g>
<!-- Node14&#45;&gt;Node17 -->
<g id="edge18_Node000014_Node000017" class="edge">
<title>Node14&#45;&gt;Node17</title>
<g id="a_edge18_Node000014_Node000017"><a xlink:title=" ">
<path fill="none" stroke="#63b8ff" d="M163.18,-164.98C144.84,-156.46 116.39,-143.23 95.27,-133.41"/>
<polygon fill="#63b8ff" stroke="#63b8ff" points="96.69,-130.21 86.15,-129.17 93.74,-136.56 96.69,-130.21"/>
</a>
</g>
</g>
<!-- Node15&#45;&gt;Node8 -->
<g id="edge17_Node000015_Node000008" class="edge">
<title>Node15&#45;&gt;Node8</title>
<g id="a_edge17_Node000015_Node000008"><a xlink:title=" ">
<path fill="none" stroke="#63b8ff" d="M176.08,-111.08C236.11,-92.17 394.83,-42.2 463.3,-20.64"/>
<polygon fill="#63b8ff" stroke="#63b8ff" points="464.62,-23.89 473.11,-17.55 462.52,-17.22 464.62,-23.89"/>
</a>
</g>
</g>
<!-- Node16 -->
<g id="Node000016" class="node">
<title>Node16</title>
<g id="a_Node000016"><a xlink:title=" ">
<polygon fill="#e0e0e0" stroke="#999999" points="232,-74 167,-74 167,-55 232,-55 232,-74"/>
<text text-anchor="middle" x="199.5" y="-62" font-family="Helvetica,sans-Serif" font-size="10.00">functional</text>
</a>
</g>
</g>
<!-- Node15&#45;&gt;Node16 -->
<g id="edge16_Node000015_Node000016" class="edge">
<title>Node15&#45;&gt;Node16</title>
<g id="a_edge16_Node000015_Node000016"><a xlink:title=" ">
<path fill="none" stroke="#63b8ff" d="M160.26,-109.75C166.97,-102.18 176.84,-91.05 185.01,-81.84"/>
<polygon fill="#63b8ff" stroke="#63b8ff" points="187.87,-83.89 191.88,-74.09 182.63,-79.25 187.87,-83.89"/>
</a>
</g>
</g>
<!-- Node18 -->
<g id="Node000018" class="node">
<title>Node18</title>
<g id="a_Node000018"><a xlink:href="IPolyglotText_8h.html" target="_top" xlink:title="Catena&#39;s multi&#45;language text interface.">
<polygon fill="white" stroke="#666666" points="149,-74 60,-74 60,-55 149,-55 149,-74"/>
<text text-anchor="middle" x="104.5" y="-62" font-family="Helvetica,sans-Serif" font-size="10.00">IPolyglotText.h</text>
</a>
</g>
</g>
<!-- Node17&#45;&gt;Node18 -->
<g id="edge19_Node000017_Node000018" class="edge">
<title>Node17&#45;&gt;Node18</title>
<g id="a_edge19_Node000017_Node000018"><a xlink:title=" ">
<path fill="none" stroke="#63b8ff" d="M73.61,-109.75C78.78,-102.34 86.35,-91.5 92.69,-82.41"/>
<polygon fill="#63b8ff" stroke="#63b8ff" points="95.65,-84.29 98.5,-74.09 89.91,-80.29 95.65,-84.29"/>
</a>
</g>
</g>
<!-- Node18&#45;&gt;Node7 -->
<g id="edge21_Node000018_Node000007" class="edge">
<title>Node18&#45;&gt;Node7</title>
<g id="a_edge21_Node000018_Node000007"><a xlink:title=" ">
<path fill="none" stroke="#63b8ff" d="M147.4,-54.98C193.87,-45.76 268.09,-31.03 318.26,-21.07"/>
<polygon fill="#63b8ff" stroke="#63b8ff" points="319.14,-24.46 328.27,-19.08 317.78,-17.6 319.14,-24.46"/>
</a>
</g>
</g>
<!-- Node18&#45;&gt;Node8 -->
<g id="edge22_Node000018_Node000008" class="edge">
<title>Node18&#45;&gt;Node8</title>
<g id="a_edge22_Node000018_Node000008"><a xlink:title=" ">
<path fill="none" stroke="#63b8ff" d="M149.02,-56.27C151.89,-55.83 154.73,-55.4 157.5,-55 269.66,-38.63 403.15,-21.85 463.3,-14.43"/>
<polygon fill="#63b8ff" stroke="#63b8ff" points="463.83,-17.9 473.32,-13.2 462.97,-10.95 463.83,-17.9"/>
</a>
</g>
</g>
<!-- Node19 -->
<g id="Node000019" class="node">
<title>Node19</title>
<g id="a_Node000019"><a xlink:title=" ">
<polygon fill="#e0e0e0" stroke="#999999" points="233.5,-19 101.5,-19 101.5,0 233.5,0 233.5,-19"/>
<text text-anchor="middle" x="167.5" y="-7" font-family="Helvetica,sans-Serif" font-size="10.00">interface/language.pb.h</text>
</a>
</g>
</g>
<!-- Node18&#45;&gt;Node19 -->
<g id="edge20_Node000018_Node000019" class="edge">
<title>Node18&#45;&gt;Node19</title>
<g id="a_edge20_Node000018_Node000019"><a xlink:title=" ">
<path fill="none" stroke="#63b8ff" d="M114.62,-54.98C123.94,-47.15 137.97,-35.34 149.24,-25.86"/>
<polygon fill="#63b8ff" stroke="#63b8ff" points="151.79,-28.29 157.19,-19.17 147.29,-22.93 151.79,-28.29"/>
</a>
</g>
</g>
<!-- Node20 -->
<g id="Node000020" class="node">
<title>Node20</title>
<g id="a_Node000020"><a xlink:title=" ">
<polygon fill="#e0e0e0" stroke="#999999" points="83,-19 0,-19 0,0 83,0 83,-19"/>
<text text-anchor="middle" x="41.5" y="-7" font-family="Helvetica,sans-Serif" font-size="10.00">initializer_list</text>
</a>
</g>
</g>
<!-- Node18&#45;&gt;Node20 -->
<g id="edge23_Node000018_Node000020" class="edge">
<title>Node18&#45;&gt;Node20</title>
<g id="a_edge23_Node000018_Node000020"><a xlink:title=" ">
<path fill="none" stroke="#63b8ff" d="M94.38,-54.98C85.06,-47.15 71.03,-35.34 59.76,-25.86"/>
<polygon fill="#63b8ff" stroke="#63b8ff" points="61.71,-22.93 51.81,-19.17 57.21,-28.29 61.71,-22.93"/>
</a>
</g>
</g>
<!-- Node21&#45;&gt;Node8 -->
<g id="edge27_Node000021_Node000008" class="edge">
<title>Node21&#45;&gt;Node8</title>
<g id="a_edge27_Node000021_Node000008"><a xlink:title=" ">
<path fill="none" stroke="#63b8ff" d="M590.68,-169.59C567.46,-164.46 533.03,-153.1 514.5,-129 492.03,-99.78 491.54,-54.36 493.39,-29.08"/>
<polygon fill="#63b8ff" stroke="#63b8ff" points="496.88,-29.29 494.33,-19.01 489.91,-28.64 496.88,-29.29"/>
</a>
</g>
</g>
<!-- Node22 -->
<g id="Node000022" class="node">
<title>Node22</title>
<g id="a_Node000022"><a xlink:title=" ">
<polygon fill="#e0e0e0" stroke="#999999" points="794.5,-129 734.5,-129 734.5,-110 794.5,-110 794.5,-129"/>
<text text-anchor="middle" x="764.5" y="-117" font-family="Helvetica,sans-Serif" font-size="10.00">iostream</text>
</a>
</g>
</g>
<!-- Node21&#45;&gt;Node22 -->
<g id="edge26_Node000021_Node000022" class="edge">
<title>Node21&#45;&gt;Node22</title>
<g id="a_edge26_Node000021_Node000022"><a xlink:title=" ">
<path fill="none" stroke="#63b8ff" d="M638.27,-165.1C663.24,-156.28 702.74,-142.32 730.9,-132.37"/>
<polygon fill="#63b8ff" stroke="#63b8ff" points="732.08,-135.67 740.35,-129.03 729.75,-129.07 732.08,-135.67"/>
</a>
</g>
</g>
<!-- Node23 -->
<g id="Node000023" class="node">
<title>Node23</title>
<g id="a_Node000023"><a xlink:title=" ">
<polygon fill="#e0e0e0" stroke="#999999" points="571,-129 524,-129 524,-110 571,-110 571,-129"/>
<text text-anchor="middle" x="547.5" y="-117" font-family="Helvetica,sans-Serif" font-size="10.00">vector</text>
</a>
</g>
</g>
<!-- Node21&#45;&gt;Node23 -->
<g id="edge28_Node000021_Node000023" class="edge">
<title>Node21&#45;&gt;Node23</title>
<g id="a_edge28_Node000021_Node000023"><a xlink:title=" ">
<path fill="none" stroke="#63b8ff" d="M603.74,-164.98C593.73,-157.07 578.61,-145.11 566.57,-135.58"/>
<polygon fill="#63b8ff" stroke="#63b8ff" points="568.47,-132.63 558.46,-129.17 564.13,-138.12 568.47,-132.63"/>
</a>
</g>
</g>
<!-- Node24 -->
<g id="Node000024" class="node">
<title>Node24</title>
<g id="a_Node000024"><a xlink:title=" ">
<polygon fill="#e0e0e0" stroke="#999999" points="640,-129 589,-129 589,-110 640,-110 640,-129"/>
<text text-anchor="middle" x="614.5" y="-117" font-family="Helvetica,sans-Serif" font-size="10.00">variant</text>
</a>
</g>
</g>
<!-- Node21&#45;&gt;Node24 -->
<g id="edge29_Node000021_Node000024" class="edge">
<title>Node21&#45;&gt;Node24</title>
<g id="a_edge29_Node000021_Node000024"><a xlink:title=" ">
<path fill="none" stroke="#63b8ff" d="M614.5,-164.75C614.5,-157.8 614.5,-147.85 614.5,-139.13"/>
<polygon fill="#63b8ff" stroke="#63b8ff" points="618,-139.09 614.5,-129.09 611,-139.09 618,-139.09"/>
</a>
</g>
</g>
<!-- Node25 -->
<g id="Node000025" class="node">
<title>Node25</title>
<g id="a_Node000025"><a xlink:title=" ">
<polygon fill="#e0e0e0" stroke="#999999" points="716.5,-129 658.5,-129 658.5,-110 716.5,-110 716.5,-129"/>
<text text-anchor="middle" x="687.5" y="-117" font-family="Helvetica,sans-Serif" font-size="10.00">memory</text>
</a>
</g>
</g>
<!-- Node21&#45;&gt;Node25 -->
<g id="edge30_Node000021_Node000025" class="edge">
<title>Node21&#45;&gt;Node25</title>
<g id="a_edge30_Node000021_Node000025"><a xlink:title=" ">
<path fill="none" stroke="#63b8ff" d="M626.23,-164.98C637.23,-157 653.92,-144.88 667.1,-135.31"/>
<polygon fill="#63b8ff" stroke="#63b8ff" points="669.52,-137.88 675.56,-129.17 665.41,-132.21 669.52,-137.88"/>
</a>
</g>
</g>
<!-- Node27 -->
<g id="Node000027" class="node">
<title>Node27</title>
<g id="a_Node000027"><a xlink:title=" ">
<polygon fill="#e0e0e0" stroke="#999999" points="868.5,-129 812.5,-129 812.5,-110 868.5,-110 868.5,-129"/>
<text text-anchor="middle" x="840.5" y="-117" font-family="Helvetica,sans-Serif" font-size="10.00">sstream</text>
</a>
</g>
</g>
<!-- Node26&#45;&gt;Node27 -->
<g id="edge32_Node000026_Node000027" class="edge">
<title>Node26&#45;&gt;Node27</title>
<g id="a_edge32_Node000026_Node000027"><a xlink:title=" ">
<path fill="none" stroke="#63b8ff" d="M840.5,-164.75C840.5,-157.8 840.5,-147.85 840.5,-139.13"/>
<polygon fill="#63b8ff" stroke="#63b8ff" points="844,-139.09 840.5,-129.09 837,-139.09 844,-139.09"/>
</a>
</g>
</g>
<!-- Node28 -->
<g id="Node000028" class="node">
<title>Node28</title>
<g id="a_Node000028"><a xlink:title=" ">
<polygon fill="#e0e0e0" stroke="#999999" points="952,-129 887,-129 887,-110 952,-110 952,-129"/>
<text text-anchor="middle" x="919.5" y="-117" font-family="Helvetica,sans-Serif" font-size="10.00">stdexcept</text>
</a>
</g>
</g>
<!-- Node26&#45;&gt;Node28 -->
<g id="edge33_Node000026_Node000028" class="edge">
<title>Node26&#45;&gt;Node28</title>
<g id="a_edge33_Node000026_Node000028"><a xlink:title=" ">
<path fill="none" stroke="#63b8ff" d="M853.19,-164.98C865.33,-156.84 883.86,-144.41 898.25,-134.76"/>
<polygon fill="#63b8ff" stroke="#63b8ff" points="900.22,-137.65 906.58,-129.17 896.32,-131.84 900.22,-137.65"/>
</a>
</g>
</g>
</g>
</svg>

<g id="navigator" transform="translate(0 0)" fill="#404254">
  <rect fill="#f2f5e9" fill-opacity="0.5" stroke="#606060" stroke-width=".5" x="0" y="0" width="60" height="60"/>
  <use id="zoomplus" xlink:href="#zoomPlus" x="17" y="9" onmousedown="handleZoom(evt,'in')"/>
  <use id="zoomminus" xlink:href="#zoomMin" x="42" y="9" onmousedown="handleZoom(evt,'out')"/>
  <use id="reset" xlink:href="#resetDef" x="30" y="36" onmousedown="handleReset()"/>
   <use id="arrowup" xlink:href="#arrowUp" x="0" y="0" onmousedown="handlePan(0,-1)"/>
  <use id="arrowright" xlink:href="#arrowRight" x="0" y="0" onmousedown="handlePan(1,0)"/>
  <use id="arrowdown" xlink:href="#arrowDown" x="0" y="0" onmousedown="handlePan(0,1)"/>
  <use id="arrowleft" xlink:href="#arrowLeft" x="0" y="0" onmousedown="handlePan(-1,0)"/>
</g>
<svg viewBox="0 0 15 15" width="100%" height="30px" preserveAspectRatio="xMaxYMin meet">
 <g id="arrow_out" transform="scale(0.3 0.3)">
  <a xlink:href="PeerInfo_8h__incl_org.svg" target="_base">
   <rect id="button" ry="5" rx="5" y="6" x="6" height="38" width="38"
        fill="#f2f5e9" fill-opacity="0.5" stroke="#606060" stroke-width="1.0"/>
   <path id="arrow"
     d="M 11.500037,31.436501 C 11.940474,20.09759 22.043105,11.32322 32.158766,21.979434 L 37.068811,17.246167 C 37.068811,17.246167 37.088388,32 37.088388,32 L 22.160133,31.978069 C 22.160133,31.978069 26.997745,27.140456 26.997745,27.140456 C 18.528582,18.264221 13.291696,25.230495 11.500037,31.436501 z"
     style="fill:#404040;"/>
  </a>
 </g>
</svg>

<style type='text/css'>
<![CDATA[
[data-mouse-over-selected='false'] { opacity: 0.7; }
[data-mouse-over-selected='true']  { opacity: 1.0; }
]]>
</style>
<script type="application/ecmascript"><![CDATA[
document.addEventListener('DOMContentLoaded', (event) => {
  highlightEdges();
  highlightAdjacentNodes();
});
]]></script>
</svg>
