<?xml version="1.0" encoding="UTF-8" standalone="no"?>
<!DOCTYPE svg PUBLIC "-//W3C//DTD SVG 1.1//EN"
 "http://www.w3.org/Graphics/SVG/1.1/DTD/svg11.dtd">
<!-- Generated by graphviz version 2.43.0 (0)
 -->
<!-- Title: /home/runner/work/Catena/Catena/sdks/cpp/connections/gRPC/include/PeerManager.h Pages: 1 -->
<!--zoomable 390 -->

<svg id="main" version="1.1" xmlns="http://www.w3.org/2000/svg" xmlns:xlink="http://www.w3.org/1999/xlink" xml:space="preserve" onload="init(evt)">
<style type="text/css"><![CDATA[
.node, .edge {opacity: 0.7;}
.node.selected, .edge.selected {opacity: 1;}
.edge:hover path { stroke: red; }
.edge:hover polygon { stroke: red; fill: red; }
]]></style>

<defs>
  <circle id="rim" cx="0" cy="0" r="7"/>
  <circle id="rim2" cx="0" cy="0" r="3.5"/>
  <g id="zoomPlus">
    <use xlink:href="#rim" fill="#404040"><set attributeName="fill" to="#808080" begin="zoomplus.mouseover" end="zoomplus.mouseout"/></use>
    <path d="M-4,0h8M0,-4v8" fill="none" stroke="white" stroke-width="1.5" pointer-events="none"/>
  </g>
  <g id="zoomMin">
    <use xlink:href="#rim" fill="#404040"><set attributeName="fill" to="#808080" begin="zoomminus.mouseover" end="zoomminus.mouseout"/></use>
    <path d="M-4,0h8" fill="none" stroke="white" stroke-width="1.5" pointer-events="none"/>
  </g>
  <g id="arrowUp" transform="translate(30 24)">
    <use xlink:href="#rim"/>
    <path pointer-events="none" fill="none" stroke="white" stroke-width="1.5" d="M0,-3.0v7 M-2.5,-0.5L0,-3.0L2.5,-0.5"/>
  </g>
  <g id="arrowRight" transform="rotate(90) translate(36 -43)">
    <use xlink:href="#rim"/>
    <path pointer-events="none" fill="none" stroke="white" stroke-width="1.5" d="M0,-3.0v7 M-2.5,-0.5L0,-3.0L2.5,-0.5"/>
  </g>
  <g id="arrowDown" transform="rotate(180) translate(-30 -48)">
    <use xlink:href="#rim"/>
    <path pointer-events="none" fill="none" stroke="white" stroke-width="1.5" d="M0,-3.0v7 M-2.5,-0.5L0,-3.0L2.5,-0.5"/>
  </g>
  <g id="arrowLeft" transform="rotate(270) translate(-36 17)">
    <use xlink:href="#rim"/>
    <path pointer-events="none" fill="none" stroke="white" stroke-width="1.5" d="M0,-3.0v7 M-2.5,-0.5L0,-3.0L2.5,-0.5"/>
  </g>
  <g id="resetDef">
    <use xlink:href="#rim2" fill="#404040"><set attributeName="fill" to="#808080" begin="reset.mouseover" end="reset.mouseout"/></use>
  </g>
</defs>
<script type="application/ecmascript">
var viewWidth = 1388;
var viewHeight = 390;
var sectionId = 'dynsection-0';
</script>
<script type="application/ecmascript" xlink:href="svg.min.js"/>
<svg id="graph" class="graph">
<g id="viewport">
<title>/home/runner/work/Catena/Catena/sdks/cpp/connections/gRPC/include/PeerManager.h</title>
<!-- Node1 -->
<g id="Node000001" class="node">
<title>Node1</title>
<g id="a_Node000001"><a xlink:title="Handles Connections to Peers.">
<polygon fill="#999999" stroke="#666666" points="506.5,-382 345.5,-382 345.5,-341 506.5,-341 506.5,-382"/>
<text text-anchor="start" x="353.5" y="-370" font-family="Helvetica,sans-Serif" font-size="10.00">/home/runner/work/Catena</text>
<text text-anchor="start" x="353.5" y="-359" font-family="Helvetica,sans-Serif" font-size="10.00">/Catena/sdks/cpp/connections</text>
<text text-anchor="middle" x="426" y="-348" font-family="Helvetica,sans-Serif" font-size="10.00">/gRPC/include/PeerManager.h</text>
</a>
</g>
</g>
<!-- Node2 -->
<g id="Node000002" class="node">
<title>Node2</title>
<g id="a_Node000002"><a xlink:href="Singleton_8h.html" target="_top" xlink:title="Singleton wrapper class definition.">
<polygon fill="white" stroke="#666666" points="328.5,-305 213.5,-305 213.5,-286 328.5,-286 328.5,-305"/>
<text text-anchor="middle" x="271" y="-293" font-family="Helvetica,sans-Serif" font-size="10.00">patterns/Singleton.h</text>
</a>
</g>
</g>
<!-- Node1&#45;&gt;Node2 -->
<g id="edge1_Node000001_Node000002" class="edge">
<title>Node1&#45;&gt;Node2</title>
<g id="a_edge1_Node000001_Node000002"><a xlink:title=" ">
<path fill="none" stroke="#63b8ff" d="M378.65,-340.95C353.48,-330.56 323.29,-318.09 301.29,-309.01"/>
<polygon fill="#63b8ff" stroke="#63b8ff" points="302.39,-305.67 291.81,-305.09 299.72,-312.14 302.39,-305.67"/>
</a>
</g>
</g>
<!-- Node3 -->
<g id="Node000003" class="node">
<title>Node3</title>
<g id="a_Node000003"><a xlink:href="PeerInfo_8h.html" target="_top" xlink:title="Holds information about connected Peers.">
<polygon fill="white" stroke="#666666" points="494,-305 428,-305 428,-286 494,-286 494,-305"/>
<text text-anchor="middle" x="461" y="-293" font-family="Helvetica,sans-Serif" font-size="10.00">PeerInfo.h</text>
</a>
</g>
</g>
<!-- Node1&#45;&gt;Node3 -->
<g id="edge2_Node000001_Node000003" class="edge">
<title>Node1&#45;&gt;Node3</title>
<g id="a_edge2_Node000001_Node000003"><a xlink:title=" ">
<path fill="none" stroke="#63b8ff" d="M436.69,-340.95C441.37,-332.39 446.82,-322.42 451.38,-314.1"/>
<polygon fill="#63b8ff" stroke="#63b8ff" points="454.48,-315.71 456.21,-305.26 448.34,-312.35 454.48,-315.71"/>
</a>
</g>
</g>
<!-- Node9 -->
<g id="Node000009" class="node">
<title>Node9</title>
<g id="a_Node000009"><a xlink:title=" ">
<polygon fill="#e0e0e0" stroke="#999999" points="1110.5,-24.5 1017.5,-24.5 1017.5,-5.5 1110.5,-5.5 1110.5,-24.5"/>
<text text-anchor="middle" x="1064" y="-12.5" font-family="Helvetica,sans-Serif" font-size="10.00">unordered_map</text>
</a>
</g>
</g>
<!-- Node1&#45;&gt;Node9 -->
<g id="edge42_Node000001_Node000009" class="edge">
<title>Node1&#45;&gt;Node9</title>
<g id="a_edge42_Node000001_Node000009"><a xlink:title=" ">
<path fill="none" stroke="#63b8ff" d="M506.52,-358.86C736.51,-353.12 1380,-329.23 1380,-241.5 1380,-241.5 1380,-241.5 1380,-129.5 1380,-66.39 1312.04,-88.3 1253,-66 1239.38,-60.86 1159.13,-40.15 1107.68,-27.05"/>
<polygon fill="#63b8ff" stroke="#63b8ff" points="1108.35,-23.61 1097.8,-24.54 1106.63,-30.4 1108.35,-23.61"/>
</a>
</g>
</g>
<!-- Node10 -->
<g id="Node000010" class="node">
<title>Node10</title>
<g id="a_Node000010"><a xlink:title=" ">
<polygon fill="#e0e0e0" stroke="#999999" points="884,-24.5 840,-24.5 840,-5.5 884,-5.5 884,-24.5"/>
<text text-anchor="middle" x="862" y="-12.5" font-family="Helvetica,sans-Serif" font-size="10.00">string</text>
</a>
</g>
</g>
<!-- Node1&#45;&gt;Node10 -->
<g id="edge43_Node000001_Node000010" class="edge">
<title>Node1&#45;&gt;Node10</title>
<g id="a_edge43_Node000001_Node000010"><a xlink:title=" ">
<path fill="none" stroke="#63b8ff" d="M405.67,-340.61C385.32,-318.49 357,-280.67 357,-241.5 357,-241.5 357,-241.5 357,-129.5 357,-32.21 718.31,-18.3 829.7,-16.32"/>
<polygon fill="#63b8ff" stroke="#63b8ff" points="830.03,-19.82 839.98,-16.16 829.92,-12.82 830.03,-19.82"/>
</a>
</g>
</g>
<!-- Node4 -->
<g id="Node000004" class="node">
<title>Node4</title>
<g id="a_Node000004"><a xlink:href="IParam_8h.html" target="_top" xlink:title="Interface for parameters.">
<polygon fill="white" stroke="#666666" points="652.5,-250 593.5,-250 593.5,-231 652.5,-231 652.5,-250"/>
<text text-anchor="middle" x="623" y="-238" font-family="Helvetica,sans-Serif" font-size="10.00">IParam.h</text>
</a>
</g>
</g>
<!-- Node3&#45;&gt;Node4 -->
<g id="edge3_Node000003_Node000004" class="edge">
<title>Node3&#45;&gt;Node4</title>
<g id="a_edge3_Node000003_Node000004"><a xlink:title=" ">
<path fill="none" stroke="#63b8ff" d="M487.03,-285.98C514.11,-277.13 556.71,-263.19 587.01,-253.28"/>
<polygon fill="#63b8ff" stroke="#63b8ff" points="588.35,-256.52 596.77,-250.08 586.18,-249.87 588.35,-256.52"/>
</a>
</g>
</g>
<!-- Node3&#45;&gt;Node10 -->
<g id="edge41_Node000003_Node000010" class="edge">
<title>Node3&#45;&gt;Node10</title>
<g id="a_edge41_Node000003_Node000010"><a xlink:title=" ">
<path fill="none" stroke="#63b8ff" d="M448.88,-285.95C438.24,-277.85 423.07,-264.74 414,-250 398.56,-224.91 395,-215.96 395,-186.5 395,-186.5 395,-186.5 395,-129.5 395,-39.86 724,-20.74 829.71,-16.91"/>
<polygon fill="#63b8ff" stroke="#63b8ff" points="829.91,-20.4 839.79,-16.56 829.68,-13.41 829.91,-20.4"/>
</a>
</g>
</g>
<!-- Node32 -->
<g id="Node000032" class="node">
<title>Node32</title>
<g id="a_Node000032"><a xlink:title=" ">
<polygon fill="#e0e0e0" stroke="#999999" points="569,-250 423,-250 423,-231 569,-231 569,-250"/>
<text text-anchor="middle" x="496" y="-238" font-family="Helvetica,sans-Serif" font-size="10.00">interface/service.grpc.pb.h</text>
</a>
</g>
</g>
<!-- Node3&#45;&gt;Node32 -->
<g id="edge40_Node000003_Node000032" class="edge">
<title>Node3&#45;&gt;Node32</title>
<g id="a_edge40_Node000003_Node000032"><a xlink:title=" ">
<path fill="none" stroke="#63b8ff" d="M466.78,-285.75C471.62,-278.42 478.68,-267.73 484.64,-258.7"/>
<polygon fill="#63b8ff" stroke="#63b8ff" points="487.74,-260.36 490.33,-250.09 481.9,-256.5 487.74,-260.36"/>
</a>
</g>
</g>
<!-- Node5 -->
<g id="Node000005" class="node">
<title>Node5</title>
<g id="a_Node000005"><a xlink:href="Enums_8h.html" target="_top" xlink:title="tools for using EnumDecorators.">
<polygon fill="white" stroke="#666666" points="223.5,-140 164.5,-140 164.5,-121 223.5,-121 223.5,-140"/>
<text text-anchor="middle" x="194" y="-128" font-family="Helvetica,sans-Serif" font-size="10.00">Enums.h</text>
</a>
</g>
</g>
<!-- Node4&#45;&gt;Node5 -->
<g id="edge4_Node000004_Node000005" class="edge">
<title>Node4&#45;&gt;Node5</title>
<g id="a_edge4_Node000004_Node000005"><a xlink:title=" ">
<path fill="none" stroke="#63b8ff" d="M593.17,-231.99C517.58,-212.96 318.46,-162.83 233.42,-141.42"/>
<polygon fill="#63b8ff" stroke="#63b8ff" points="234.18,-138.01 223.63,-138.96 232.47,-144.79 234.18,-138.01"/>
</a>
</g>
</g>
<!-- Node13 -->
<g id="Node000013" class="node">
<title>Node13</title>
<g id="a_Node000013"><a xlink:href="IConstraint_8h.html" target="_top" xlink:title="Interface for constraints.">
<polygon fill="white" stroke="#666666" points="662.5,-195 583.5,-195 583.5,-176 662.5,-176 662.5,-195"/>
<text text-anchor="middle" x="623" y="-183" font-family="Helvetica,sans-Serif" font-size="10.00">IConstraint.h</text>
</a>
</g>
</g>
<!-- Node4&#45;&gt;Node13 -->
<g id="edge13_Node000004_Node000013" class="edge">
<title>Node4&#45;&gt;Node13</title>
<g id="a_edge13_Node000004_Node000013"><a xlink:title=" ">
<path fill="none" stroke="#63b8ff" d="M623,-230.75C623,-223.8 623,-213.85 623,-205.13"/>
<polygon fill="#63b8ff" stroke="#63b8ff" points="626.5,-205.09 623,-195.09 619.5,-205.09 626.5,-205.09"/>
</a>
</g>
</g>
<!-- Node14 -->
<g id="Node000014" class="node">
<title>Node14</title>
<g id="a_Node000014"><a xlink:title=" ">
<polygon fill="#e0e0e0" stroke="#999999" points="542.5,-140 423.5,-140 423.5,-121 542.5,-121 542.5,-140"/>
<text text-anchor="middle" x="483" y="-128" font-family="Helvetica,sans-Serif" font-size="10.00">interface/param.pb.h</text>
</a>
</g>
</g>
<!-- Node4&#45;&gt;Node14 -->
<g id="edge39_Node000004_Node000014" class="edge">
<title>Node4&#45;&gt;Node14</title>
<g id="a_edge39_Node000004_Node000014"><a xlink:title=" ">
<path fill="none" stroke="#63b8ff" d="M611.54,-230.66C587.53,-212.14 531.71,-169.08 502.15,-146.28"/>
<polygon fill="#63b8ff" stroke="#63b8ff" points="504.28,-143.5 494.22,-140.16 500,-149.04 504.28,-143.5"/>
</a>
</g>
</g>
<!-- Node16 -->
<g id="Node000016" class="node">
<title>Node16</title>
<g id="a_Node000016"><a xlink:href="IParamDescriptor_8h.html" target="_top" xlink:title="Interface class for ParamDescriptor.">
<polygon fill="white" stroke="#666666" points="951.5,-195 842.5,-195 842.5,-176 951.5,-176 951.5,-195"/>
<text text-anchor="middle" x="897" y="-183" font-family="Helvetica,sans-Serif" font-size="10.00">IParamDescriptor.h</text>
</a>
</g>
</g>
<!-- Node4&#45;&gt;Node16 -->
<g id="edge16_Node000004_Node000016" class="edge">
<title>Node4&#45;&gt;Node16</title>
<g id="a_edge16_Node000004_Node000016"><a xlink:title=" ">
<path fill="none" stroke="#63b8ff" d="M652.58,-233.78C698.01,-224.99 785.67,-208.03 842.73,-197"/>
<polygon fill="#63b8ff" stroke="#63b8ff" points="843.5,-200.41 852.66,-195.08 842.17,-193.54 843.5,-200.41"/>
</a>
</g>
</g>
<!-- Node24 -->
<g id="Node000024" class="node">
<title>Node24</title>
<g id="a_Node000024"><a xlink:href="Path_8h.html" target="_top" xlink:title="Handles Path objects used to uniquely identify and access OIDs.">
<polygon fill="white" stroke="#666666" points="1170.5,-195 1123.5,-195 1123.5,-176 1170.5,-176 1170.5,-195"/>
<text text-anchor="middle" x="1147" y="-183" font-family="Helvetica,sans-Serif" font-size="10.00">Path.h</text>
</a>
</g>
</g>
<!-- Node4&#45;&gt;Node24 -->
<g id="edge30_Node000004_Node000024" class="edge">
<title>Node4&#45;&gt;Node24</title>
<g id="a_edge30_Node000004_Node000024"><a xlink:title=" ">
<path fill="none" stroke="#63b8ff" d="M652.67,-236.5C743.45,-227.32 1017.05,-199.64 1113.17,-189.92"/>
<polygon fill="#63b8ff" stroke="#63b8ff" points="1113.61,-193.39 1123.21,-188.91 1112.91,-186.43 1113.61,-193.39"/>
</a>
</g>
</g>
<!-- Node29 -->
<g id="Node000029" class="node">
<title>Node29</title>
<g id="a_Node000029"><a xlink:href="Status_8h.html" target="_top" xlink:title="Communicates failure status using gRPC&#39;s codes.">
<polygon fill="white" stroke="#666666" points="776,-195 720,-195 720,-176 776,-176 776,-195"/>
<text text-anchor="middle" x="748" y="-183" font-family="Helvetica,sans-Serif" font-size="10.00">Status.h</text>
</a>
</g>
</g>
<!-- Node4&#45;&gt;Node29 -->
<g id="edge36_Node000004_Node000029" class="edge">
<title>Node4&#45;&gt;Node29</title>
<g id="a_edge36_Node000004_Node000029"><a xlink:title=" ">
<path fill="none" stroke="#63b8ff" d="M643.08,-230.98C663.37,-222.38 694.96,-208.99 718.17,-199.15"/>
<polygon fill="#63b8ff" stroke="#63b8ff" points="719.71,-202.3 727.55,-195.17 716.98,-195.85 719.71,-202.3"/>
</a>
</g>
</g>
<!-- Node6 -->
<g id="Node000006" class="node">
<title>Node6</title>
<g id="a_Node000006"><a xlink:href="EnumDecorator_8h.html" target="_top" xlink:title="Provides an enum with useful extra functionality.">
<polygon fill="white" stroke="#666666" points="191,-85 47,-85 47,-66 191,-66 191,-85"/>
<text text-anchor="middle" x="119" y="-73" font-family="Helvetica,sans-Serif" font-size="10.00">patterns/EnumDecorator.h</text>
</a>
</g>
</g>
<!-- Node5&#45;&gt;Node6 -->
<g id="edge5_Node000005_Node000006" class="edge">
<title>Node5&#45;&gt;Node6</title>
<g id="a_edge5_Node000005_Node000006"><a xlink:title=" ">
<path fill="none" stroke="#63b8ff" d="M181.95,-120.98C170.54,-112.92 153.17,-100.65 139.57,-91.03"/>
<polygon fill="#63b8ff" stroke="#63b8ff" points="141.46,-88.08 131.27,-85.17 137.42,-93.8 141.46,-88.08"/>
</a>
</g>
</g>
<!-- Node8 -->
<g id="Node000008" class="node">
<title>Node8</title>
<g id="a_Node000008"><a xlink:title=" ">
<polygon fill="#e0e0e0" stroke="#999999" points="50,-24.5 0,-24.5 0,-5.5 50,-5.5 50,-24.5"/>
<text text-anchor="middle" x="25" y="-12.5" font-family="Helvetica,sans-Serif" font-size="10.00">cstdint</text>
</a>
</g>
</g>
<!-- Node5&#45;&gt;Node8 -->
<g id="edge12_Node000005_Node000008" class="edge">
<title>Node5&#45;&gt;Node8</title>
<g id="a_edge12_Node000005_Node000008"><a xlink:title=" ">
<path fill="none" stroke="#63b8ff" d="M164.25,-129.8C128.82,-128.43 70.36,-120.47 38,-85 25.82,-71.65 23.39,-50.63 23.5,-35.3"/>
<polygon fill="#63b8ff" stroke="#63b8ff" points="27.01,-35.04 23.96,-24.9 20.02,-34.73 27.01,-35.04"/>
</a>
</g>
</g>
<!-- Node12 -->
<g id="Node000012" class="node">
<title>Node12</title>
<g id="a_Node000012"><a xlink:title=" ">
<polygon fill="#e0e0e0" stroke="#999999" points="328.5,-85 209.5,-85 209.5,-66 328.5,-66 328.5,-85"/>
<text text-anchor="middle" x="269" y="-73" font-family="Helvetica,sans-Serif" font-size="10.00">interface/device.pb.h</text>
</a>
</g>
</g>
<!-- Node5&#45;&gt;Node12 -->
<g id="edge11_Node000005_Node000012" class="edge">
<title>Node5&#45;&gt;Node12</title>
<g id="a_edge11_Node000005_Node000012"><a xlink:title=" ">
<path fill="none" stroke="#63b8ff" d="M206.05,-120.98C217.46,-112.92 234.83,-100.65 248.43,-91.03"/>
<polygon fill="#63b8ff" stroke="#63b8ff" points="250.58,-93.8 256.73,-85.17 246.54,-88.08 250.58,-93.8"/>
</a>
</g>
</g>
<!-- Node7 -->
<g id="Node000007" class="node">
<title>Node7</title>
<g id="a_Node000007"><a xlink:href="ReflectionMacros_8h.html" target="_top" xlink:title="adapted from https://github.com/tapika/TestCppReflect">
<polygon fill="white" stroke="#666666" points="271,-24.5 161,-24.5 161,-5.5 271,-5.5 271,-24.5"/>
<text text-anchor="middle" x="216" y="-12.5" font-family="Helvetica,sans-Serif" font-size="10.00">ReflectionMacros.h</text>
</a>
</g>
</g>
<!-- Node6&#45;&gt;Node7 -->
<g id="edge6_Node000006_Node000007" class="edge">
<title>Node6&#45;&gt;Node7</title>
<g id="a_edge6_Node000006_Node000007"><a xlink:title=" ">
<path fill="none" stroke="#63b8ff" d="M133.31,-65.87C149,-56.41 174.4,-41.09 192.91,-29.92"/>
<polygon fill="#63b8ff" stroke="#63b8ff" points="194.87,-32.83 201.63,-24.67 191.26,-26.83 194.87,-32.83"/>
</a>
</g>
</g>
<!-- Node6&#45;&gt;Node8 -->
<g id="edge7_Node000006_Node000008" class="edge">
<title>Node6&#45;&gt;Node8</title>
<g id="a_edge7_Node000006_Node000008"><a xlink:title=" ">
<path fill="none" stroke="#63b8ff" d="M105.13,-65.87C90,-56.45 65.54,-41.23 47.62,-30.08"/>
<polygon fill="#63b8ff" stroke="#63b8ff" points="49.27,-26.98 38.93,-24.67 45.57,-32.92 49.27,-26.98"/>
</a>
</g>
</g>
<!-- Node6&#45;&gt;Node9 -->
<g id="edge8_Node000006_Node000009" class="edge">
<title>Node6&#45;&gt;Node9</title>
<g id="a_edge8_Node000006_Node000009"><a xlink:title=" ">
<path fill="none" stroke="#63b8ff" d="M191.41,-66.71C194.31,-66.46 197.18,-66.22 200,-66 507.47,-41.9 585.27,-50.59 893,-30 931.11,-27.45 973.95,-23.94 1007.21,-21.08"/>
<polygon fill="#63b8ff" stroke="#63b8ff" points="1007.55,-24.56 1017.21,-20.21 1006.95,-17.59 1007.55,-24.56"/>
</a>
</g>
</g>
<!-- Node6&#45;&gt;Node10 -->
<g id="edge9_Node000006_Node000010" class="edge">
<title>Node6&#45;&gt;Node10</title>
<g id="a_edge9_Node000006_Node000010"><a xlink:title=" ">
<path fill="none" stroke="#63b8ff" d="M191.41,-66.8C194.31,-66.52 197.18,-66.25 200,-66 441.79,-44.19 733.85,-24.42 829.78,-18.1"/>
<polygon fill="#63b8ff" stroke="#63b8ff" points="830.23,-21.58 839.98,-17.43 829.77,-14.59 830.23,-21.58"/>
</a>
</g>
</g>
<!-- Node11 -->
<g id="Node000011" class="node">
<title>Node11</title>
<g id="a_Node000011"><a xlink:title=" ">
<polygon fill="#e0e0e0" stroke="#999999" points="142.5,-24.5 73.5,-24.5 73.5,-5.5 142.5,-5.5 142.5,-24.5"/>
<text text-anchor="middle" x="108" y="-12.5" font-family="Helvetica,sans-Serif" font-size="10.00">type_traits</text>
</a>
</g>
</g>
<!-- Node6&#45;&gt;Node11 -->
<g id="edge10_Node000006_Node000011" class="edge">
<title>Node6&#45;&gt;Node11</title>
<g id="a_edge10_Node000006_Node000011"><a xlink:title=" ">
<path fill="none" stroke="#63b8ff" d="M117.38,-65.87C115.83,-57.66 113.46,-45.04 111.49,-34.55"/>
<polygon fill="#63b8ff" stroke="#63b8ff" points="114.92,-33.85 109.63,-24.67 108.04,-35.14 114.92,-33.85"/>
</a>
</g>
</g>
<!-- Node13&#45;&gt;Node14 -->
<g id="edge14_Node000013_Node000014" class="edge">
<title>Node13&#45;&gt;Node14</title>
<g id="a_edge14_Node000013_Node000014"><a xlink:title=" ">
<path fill="none" stroke="#63b8ff" d="M600.51,-175.98C577.48,-167.27 541.46,-153.63 515.37,-143.75"/>
<polygon fill="#63b8ff" stroke="#63b8ff" points="516.49,-140.44 505.9,-140.17 514.02,-146.98 516.49,-140.44"/>
</a>
</g>
</g>
<!-- Node15 -->
<g id="Node000015" class="node">
<title>Node15</title>
<g id="a_Node000015"><a xlink:title=" ">
<polygon fill="#e0e0e0" stroke="#999999" points="697,-140 561,-140 561,-121 697,-121 697,-140"/>
<text text-anchor="middle" x="629" y="-128" font-family="Helvetica,sans-Serif" font-size="10.00">interface/constraint.pb.h</text>
</a>
</g>
</g>
<!-- Node13&#45;&gt;Node15 -->
<g id="edge15_Node000013_Node000015" class="edge">
<title>Node13&#45;&gt;Node15</title>
<g id="a_edge15_Node000013_Node000015"><a xlink:title=" ">
<path fill="none" stroke="#63b8ff" d="M623.99,-175.75C624.78,-168.8 625.9,-158.85 626.89,-150.13"/>
<polygon fill="#63b8ff" stroke="#63b8ff" points="630.38,-150.42 628.03,-140.09 623.42,-149.63 630.38,-150.42"/>
</a>
</g>
</g>
<!-- Node17 -->
<g id="Node000017" class="node">
<title>Node17</title>
<g id="a_Node000017"><a xlink:href="Tags_8h.html" target="_top" xlink:title="Tags to differentiate collections with the same type for template specialization.">
<polygon fill="white" stroke="#666666" points="920.5,-140 873.5,-140 873.5,-121 920.5,-121 920.5,-140"/>
<text text-anchor="middle" x="897" y="-128" font-family="Helvetica,sans-Serif" font-size="10.00">Tags.h</text>
</a>
</g>
</g>
<!-- Node16&#45;&gt;Node17 -->
<g id="edge17_Node000016_Node000017" class="edge">
<title>Node16&#45;&gt;Node17</title>
<g id="a_edge17_Node000016_Node000017"><a xlink:title=" ">
<path fill="none" stroke="#63b8ff" d="M897,-175.75C897,-168.8 897,-158.85 897,-150.13"/>
<polygon fill="#63b8ff" stroke="#63b8ff" points="900.5,-150.09 897,-140.09 893.5,-150.09 900.5,-150.09"/>
</a>
</g>
</g>
<!-- Node19 -->
<g id="Node000019" class="node">
<title>Node19</title>
<g id="a_Node000019"><a xlink:href="PolyglotText_8h.html" target="_top" xlink:title="Polyglot Text serialization and deserialization to protobuf.">
<polygon fill="white" stroke="#666666" points="1063,-140 977,-140 977,-121 1063,-121 1063,-140"/>
<text text-anchor="middle" x="1020" y="-128" font-family="Helvetica,sans-Serif" font-size="10.00">PolyglotText.h</text>
</a>
</g>
</g>
<!-- Node16&#45;&gt;Node19 -->
<g id="edge20_Node000016_Node000019" class="edge">
<title>Node16&#45;&gt;Node19</title>
<g id="a_edge20_Node000016_Node000019"><a xlink:title=" ">
<path fill="none" stroke="#63b8ff" d="M916.76,-175.98C936.73,-167.38 967.8,-153.99 990.65,-144.15"/>
<polygon fill="#63b8ff" stroke="#63b8ff" points="992.08,-147.34 999.88,-140.17 989.31,-140.91 992.08,-147.34"/>
</a>
</g>
</g>
<!-- Node17&#45;&gt;Node10 -->
<g id="edge19_Node000017_Node000010" class="edge">
<title>Node17&#45;&gt;Node10</title>
<g id="a_edge19_Node000017_Node000010"><a xlink:title=" ">
<path fill="none" stroke="#63b8ff" d="M894.37,-120.97C888.72,-102.65 875.32,-59.18 867.65,-34.31"/>
<polygon fill="#63b8ff" stroke="#63b8ff" points="870.95,-33.15 864.66,-24.63 864.26,-35.22 870.95,-33.15"/>
</a>
</g>
</g>
<!-- Node18 -->
<g id="Node000018" class="node">
<title>Node18</title>
<g id="a_Node000018"><a xlink:title=" ">
<polygon fill="#e0e0e0" stroke="#999999" points="833.5,-85 768.5,-85 768.5,-66 833.5,-66 833.5,-85"/>
<text text-anchor="middle" x="801" y="-73" font-family="Helvetica,sans-Serif" font-size="10.00">functional</text>
</a>
</g>
</g>
<!-- Node17&#45;&gt;Node18 -->
<g id="edge18_Node000017_Node000018" class="edge">
<title>Node17&#45;&gt;Node18</title>
<g id="a_edge18_Node000017_Node000018"><a xlink:title=" ">
<path fill="none" stroke="#63b8ff" d="M881.58,-120.98C866.55,-112.69 843.46,-99.94 825.84,-90.22"/>
<polygon fill="#63b8ff" stroke="#63b8ff" points="827.15,-86.94 816.7,-85.17 823.77,-93.07 827.15,-86.94"/>
</a>
</g>
</g>
<!-- Node19&#45;&gt;Node9 -->
<g id="edge28_Node000019_Node000009" class="edge">
<title>Node19&#45;&gt;Node9</title>
<g id="a_edge28_Node000019_Node000009"><a xlink:title=" ">
<path fill="none" stroke="#63b8ff" d="M1055.44,-120.99C1074.26,-114.48 1095.76,-103.38 1107,-85 1118.35,-66.44 1100.45,-45.22 1084.4,-31.27"/>
<polygon fill="#63b8ff" stroke="#63b8ff" points="1086.3,-28.3 1076.34,-24.69 1081.87,-33.72 1086.3,-28.3"/>
</a>
</g>
</g>
<!-- Node19&#45;&gt;Node10 -->
<g id="edge27_Node000019_Node000010" class="edge">
<title>Node19&#45;&gt;Node10</title>
<g id="a_edge27_Node000019_Node000010"><a xlink:title=" ">
<path fill="none" stroke="#63b8ff" d="M1007.41,-120.68C994.67,-111.74 974.42,-97.48 957,-85 930.96,-66.35 901.1,-44.6 881.92,-30.58"/>
<polygon fill="#63b8ff" stroke="#63b8ff" points="883.8,-27.63 873.66,-24.55 879.67,-33.28 883.8,-27.63"/>
</a>
</g>
</g>
<!-- Node20 -->
<g id="Node000020" class="node">
<title>Node20</title>
<g id="a_Node000020"><a xlink:href="IPolyglotText_8h.html" target="_top" xlink:title="Catena&#39;s multi&#45;language text interface.">
<polygon fill="white" stroke="#666666" points="1243.5,-85 1154.5,-85 1154.5,-66 1243.5,-66 1243.5,-85"/>
<text text-anchor="middle" x="1199" y="-73" font-family="Helvetica,sans-Serif" font-size="10.00">IPolyglotText.h</text>
</a>
</g>
</g>
<!-- Node19&#45;&gt;Node20 -->
<g id="edge21_Node000019_Node000020" class="edge">
<title>Node19&#45;&gt;Node20</title>
<g id="a_edge21_Node000019_Node000020"><a xlink:title=" ">
<path fill="none" stroke="#63b8ff" d="M1048.76,-120.98C1078.94,-112.05 1126.57,-97.94 1160.1,-88.02"/>
<polygon fill="#63b8ff" stroke="#63b8ff" points="1161.42,-91.28 1170.02,-85.08 1159.43,-84.57 1161.42,-91.28"/>
</a>
</g>
</g>
<!-- Node22 -->
<g id="Node000022" class="node">
<title>Node22</title>
<g id="a_Node000022"><a xlink:title=" ">
<polygon fill="#e0e0e0" stroke="#999999" points="1370.5,-24.5 1287.5,-24.5 1287.5,-5.5 1370.5,-5.5 1370.5,-24.5"/>
<text text-anchor="middle" x="1329" y="-12.5" font-family="Helvetica,sans-Serif" font-size="10.00">initializer_list</text>
</a>
</g>
</g>
<!-- Node19&#45;&gt;Node22 -->
<g id="edge29_Node000019_Node000022" class="edge">
<title>Node19&#45;&gt;Node22</title>
<g id="a_edge29_Node000019_Node000022"><a xlink:title=" ">
<path fill="none" stroke="#63b8ff" d="M1063.18,-121.88C1128.18,-110.31 1244.54,-89.22 1253,-85 1278.29,-72.38 1301.42,-48.9 1315.36,-32.88"/>
<polygon fill="#63b8ff" stroke="#63b8ff" points="1318.35,-34.76 1322.11,-24.85 1312.99,-30.25 1318.35,-34.76"/>
</a>
</g>
</g>
<!-- Node23 -->
<g id="Node000023" class="node">
<title>Node23</title>
<g id="a_Node000023"><a xlink:title=" ">
<polygon fill="#e0e0e0" stroke="#999999" points="1098,-85 966,-85 966,-66 1098,-66 1098,-85"/>
<text text-anchor="middle" x="1032" y="-73" font-family="Helvetica,sans-Serif" font-size="10.00">interface/language.pb.h</text>
</a>
</g>
</g>
<!-- Node19&#45;&gt;Node23 -->
<g id="edge26_Node000019_Node000023" class="edge">
<title>Node19&#45;&gt;Node23</title>
<g id="a_edge26_Node000019_Node000023"><a xlink:title=" ">
<path fill="none" stroke="#63b8ff" d="M1021.98,-120.75C1023.57,-113.72 1025.86,-103.62 1027.85,-94.84"/>
<polygon fill="#63b8ff" stroke="#63b8ff" points="1031.26,-95.62 1030.06,-85.09 1024.43,-94.07 1031.26,-95.62"/>
</a>
</g>
</g>
<!-- Node20&#45;&gt;Node9 -->
<g id="edge23_Node000020_Node000009" class="edge">
<title>Node20&#45;&gt;Node9</title>
<g id="a_edge23_Node000020_Node000009"><a xlink:title=" ">
<path fill="none" stroke="#63b8ff" d="M1179.37,-65.99C1156.67,-56.16 1119.1,-39.88 1093.03,-28.58"/>
<polygon fill="#63b8ff" stroke="#63b8ff" points="1094.22,-25.28 1083.65,-24.52 1091.44,-31.7 1094.22,-25.28"/>
</a>
</g>
</g>
<!-- Node20&#45;&gt;Node10 -->
<g id="edge24_Node000020_Node000010" class="edge">
<title>Node20&#45;&gt;Node10</title>
<g id="a_edge24_Node000020_Node000010"><a xlink:title=" ">
<path fill="none" stroke="#63b8ff" d="M1154.25,-66.73C1085.34,-54.77 954.88,-32.12 894.35,-21.62"/>
<polygon fill="#63b8ff" stroke="#63b8ff" points="894.68,-18.12 884.23,-19.86 893.49,-25.02 894.68,-18.12"/>
</a>
</g>
</g>
<!-- Node21 -->
<g id="Node000021" class="node">
<title>Node21</title>
<g id="a_Node000021"><a xlink:title=" ">
<polygon fill="#e0e0e0" stroke="#999999" points="1269.5,-30 1128.5,-30 1128.5,0 1269.5,0 1269.5,-30"/>
<text text-anchor="start" x="1136.5" y="-18" font-family="Helvetica,sans-Serif" font-size="10.00">google/protobuf/message</text>
<text text-anchor="middle" x="1199" y="-7" font-family="Helvetica,sans-Serif" font-size="10.00">_lite.h</text>
</a>
</g>
</g>
<!-- Node20&#45;&gt;Node21 -->
<g id="edge22_Node000020_Node000021" class="edge">
<title>Node20&#45;&gt;Node21</title>
<g id="a_edge22_Node000020_Node000021"><a xlink:title=" ">
<path fill="none" stroke="#63b8ff" d="M1199,-65.87C1199,-59.11 1199,-49.35 1199,-40.26"/>
<polygon fill="#63b8ff" stroke="#63b8ff" points="1202.5,-40.11 1199,-30.11 1195.5,-40.11 1202.5,-40.11"/>
</a>
</g>
</g>
<!-- Node20&#45;&gt;Node22 -->
<g id="edge25_Node000020_Node000022" class="edge">
<title>Node20&#45;&gt;Node22</title>
<g id="a_edge25_Node000020_Node000022"><a xlink:title=" ">
<path fill="none" stroke="#63b8ff" d="M1217.9,-65.99C1239.66,-56.2 1275.62,-40.02 1300.71,-28.73"/>
<polygon fill="#63b8ff" stroke="#63b8ff" points="1302.39,-31.81 1310.07,-24.52 1299.52,-25.43 1302.39,-31.81"/>
</a>
</g>
</g>
<!-- Node24&#45;&gt;Node10 -->
<g id="edge32_Node000024_Node000010" class="edge">
<title>Node24&#45;&gt;Node10</title>
<g id="a_edge32_Node000024_Node000010"><a xlink:title=" ">
<path fill="none" stroke="#63b8ff" d="M1123.2,-183.18C1087.13,-180.21 1017.58,-170.64 968,-140 923.58,-112.55 888.17,-60.33 871.82,-33.25"/>
<polygon fill="#63b8ff" stroke="#63b8ff" points="874.77,-31.35 866.68,-24.5 868.73,-34.9 874.77,-31.35"/>
</a>
</g>
</g>
<!-- Node25 -->
<g id="Node000025" class="node">
<title>Node25</title>
<g id="a_Node000025"><a xlink:title=" ">
<polygon fill="#e0e0e0" stroke="#999999" points="1141,-140 1081,-140 1081,-121 1141,-121 1141,-140"/>
<text text-anchor="middle" x="1111" y="-128" font-family="Helvetica,sans-Serif" font-size="10.00">iostream</text>
</a>
</g>
</g>
<!-- Node24&#45;&gt;Node25 -->
<g id="edge31_Node000024_Node000025" class="edge">
<title>Node24&#45;&gt;Node25</title>
<g id="a_edge31_Node000024_Node000025"><a xlink:title=" ">
<path fill="none" stroke="#63b8ff" d="M1141.06,-175.75C1136.02,-168.34 1128.66,-157.5 1122.49,-148.41"/>
<polygon fill="#63b8ff" stroke="#63b8ff" points="1125.35,-146.39 1116.83,-140.09 1119.56,-150.33 1125.35,-146.39"/>
</a>
</g>
</g>
<!-- Node26 -->
<g id="Node000026" class="node">
<title>Node26</title>
<g id="a_Node000026"><a xlink:title=" ">
<polygon fill="#e0e0e0" stroke="#999999" points="1206.5,-140 1159.5,-140 1159.5,-121 1206.5,-121 1206.5,-140"/>
<text text-anchor="middle" x="1183" y="-128" font-family="Helvetica,sans-Serif" font-size="10.00">vector</text>
</a>
</g>
</g>
<!-- Node24&#45;&gt;Node26 -->
<g id="edge33_Node000024_Node000026" class="edge">
<title>Node24&#45;&gt;Node26</title>
<g id="a_edge33_Node000024_Node000026"><a xlink:title=" ">
<path fill="none" stroke="#63b8ff" d="M1152.94,-175.75C1157.98,-168.34 1165.34,-157.5 1171.51,-148.41"/>
<polygon fill="#63b8ff" stroke="#63b8ff" points="1174.44,-150.33 1177.17,-140.09 1168.65,-146.39 1174.44,-150.33"/>
</a>
</g>
</g>
<!-- Node27 -->
<g id="Node000027" class="node">
<title>Node27</title>
<g id="a_Node000027"><a xlink:title=" ">
<polygon fill="#e0e0e0" stroke="#999999" points="1275.5,-140 1224.5,-140 1224.5,-121 1275.5,-121 1275.5,-140"/>
<text text-anchor="middle" x="1250" y="-128" font-family="Helvetica,sans-Serif" font-size="10.00">variant</text>
</a>
</g>
</g>
<!-- Node24&#45;&gt;Node27 -->
<g id="edge34_Node000024_Node000027" class="edge">
<title>Node24&#45;&gt;Node27</title>
<g id="a_edge34_Node000024_Node000027"><a xlink:title=" ">
<path fill="none" stroke="#63b8ff" d="M1163.55,-175.98C1179.89,-167.57 1205.13,-154.59 1224.13,-144.81"/>
<polygon fill="#63b8ff" stroke="#63b8ff" points="1225.86,-147.86 1233.15,-140.17 1222.66,-141.63 1225.86,-147.86"/>
</a>
</g>
</g>
<!-- Node28 -->
<g id="Node000028" class="node">
<title>Node28</title>
<g id="a_Node000028"><a xlink:title=" ">
<polygon fill="#e0e0e0" stroke="#999999" points="1352,-140 1294,-140 1294,-121 1352,-121 1352,-140"/>
<text text-anchor="middle" x="1323" y="-128" font-family="Helvetica,sans-Serif" font-size="10.00">memory</text>
</a>
</g>
</g>
<!-- Node24&#45;&gt;Node28 -->
<g id="edge35_Node000024_Node000028" class="edge">
<title>Node24&#45;&gt;Node28</title>
<g id="a_edge35_Node000024_Node000028"><a xlink:title=" ">
<path fill="none" stroke="#63b8ff" d="M1170.74,-177.35C1200.03,-168.53 1250.21,-153.42 1284.91,-142.97"/>
<polygon fill="#63b8ff" stroke="#63b8ff" points="1286.14,-146.26 1294.7,-140.02 1284.12,-139.55 1286.14,-146.26"/>
</a>
</g>
</g>
<!-- Node30 -->
<g id="Node000030" class="node">
<title>Node30</title>
<g id="a_Node000030"><a xlink:title=" ">
<polygon fill="#e0e0e0" stroke="#999999" points="855,-140 799,-140 799,-121 855,-121 855,-140"/>
<text text-anchor="middle" x="827" y="-128" font-family="Helvetica,sans-Serif" font-size="10.00">sstream</text>
</a>
</g>
</g>
<!-- Node29&#45;&gt;Node30 -->
<g id="edge37_Node000029_Node000030" class="edge">
<title>Node29&#45;&gt;Node30</title>
<g id="a_edge37_Node000029_Node000030"><a xlink:title=" ">
<path fill="none" stroke="#63b8ff" d="M760.69,-175.98C772.83,-167.84 791.36,-155.41 805.75,-145.76"/>
<polygon fill="#63b8ff" stroke="#63b8ff" points="807.72,-148.65 814.08,-140.17 803.82,-142.84 807.72,-148.65"/>
</a>
</g>
</g>
<!-- Node31 -->
<g id="Node000031" class="node">
<title>Node31</title>
<g id="a_Node000031"><a xlink:title=" ">
<polygon fill="#e0e0e0" stroke="#999999" points="780.5,-140 715.5,-140 715.5,-121 780.5,-121 780.5,-140"/>
<text text-anchor="middle" x="748" y="-128" font-family="Helvetica,sans-Serif" font-size="10.00">stdexcept</text>
</a>
</g>
</g>
<!-- Node29&#45;&gt;Node31 -->
<g id="edge38_Node000029_Node000031" class="edge">
<title>Node29&#45;&gt;Node31</title>
<g id="a_edge38_Node000029_Node000031"><a xlink:title=" ">
<path fill="none" stroke="#63b8ff" d="M748,-175.75C748,-168.8 748,-158.85 748,-150.13"/>
<polygon fill="#63b8ff" stroke="#63b8ff" points="751.5,-150.09 748,-140.09 744.5,-150.09 751.5,-150.09"/>
</a>
</g>
</g>
</g>
</svg>

<g id="navigator" transform="translate(0 0)" fill="#404254">
  <rect fill="#f2f5e9" fill-opacity="0.5" stroke="#606060" stroke-width=".5" x="0" y="0" width="60" height="60"/>
  <use id="zoomplus" xlink:href="#zoomPlus" x="17" y="9" onmousedown="handleZoom(evt,'in')"/>
  <use id="zoomminus" xlink:href="#zoomMin" x="42" y="9" onmousedown="handleZoom(evt,'out')"/>
  <use id="reset" xlink:href="#resetDef" x="30" y="36" onmousedown="handleReset()"/>
   <use id="arrowup" xlink:href="#arrowUp" x="0" y="0" onmousedown="handlePan(0,-1)"/>
  <use id="arrowright" xlink:href="#arrowRight" x="0" y="0" onmousedown="handlePan(1,0)"/>
  <use id="arrowdown" xlink:href="#arrowDown" x="0" y="0" onmousedown="handlePan(0,1)"/>
  <use id="arrowleft" xlink:href="#arrowLeft" x="0" y="0" onmousedown="handlePan(-1,0)"/>
</g>
<svg viewBox="0 0 15 15" width="100%" height="30px" preserveAspectRatio="xMaxYMin meet">
 <g id="arrow_out" transform="scale(0.3 0.3)">
  <a xlink:href="PeerManager_8h__incl_org.svg" target="_base">
   <rect id="button" ry="5" rx="5" y="6" x="6" height="38" width="38"
        fill="#f2f5e9" fill-opacity="0.5" stroke="#606060" stroke-width="1.0"/>
   <path id="arrow"
     d="M 11.500037,31.436501 C 11.940474,20.09759 22.043105,11.32322 32.158766,21.979434 L 37.068811,17.246167 C 37.068811,17.246167 37.088388,32 37.088388,32 L 22.160133,31.978069 C 22.160133,31.978069 26.997745,27.140456 26.997745,27.140456 C 18.528582,18.264221 13.291696,25.230495 11.500037,31.436501 z"
     style="fill:#404040;"/>
  </a>
 </g>
</svg>

<style type='text/css'>
<![CDATA[
[data-mouse-over-selected='false'] { opacity: 0.7; }
[data-mouse-over-selected='true']  { opacity: 1.0; }
]]>
</style>
<script type="application/ecmascript"><![CDATA[
document.addEventListener('DOMContentLoaded', (event) => {
  highlightEdges();
  highlightAdjacentNodes();
});
]]></script>
</svg>
