<?xml version="1.0" encoding="UTF-8" standalone="no"?>
<!DOCTYPE svg PUBLIC "-//W3C//DTD SVG 1.1//EN"
 "http://www.w3.org/Graphics/SVG/1.1/DTD/svg11.dtd">
<!-- Generated by graphviz version 2.43.0 (0)
 -->
<!-- Title: /home/runner/work/Catena/Catena/sdks/cpp/connections/gRPC/include/PeerManager.h Pages: 1 -->
<svg width="1632pt" height="390pt"
 viewBox="0.00 0.00 1631.50 390.00" xmlns="http://www.w3.org/2000/svg" xmlns:xlink="http://www.w3.org/1999/xlink">
<g id="graph0" class="graph" transform="scale(1 1) rotate(0) translate(4 386)">
<title>/home/runner/work/Catena/Catena/sdks/cpp/connections/gRPC/include/PeerManager.h</title>
<!-- Node1 -->
<g id="Node000001" class="node">
<title>Node1</title>
<g id="a_Node000001"><a xlink:title="Handles Connections to Peers.">
<polygon fill="#999999" stroke="#666666" points="506.5,-382 345.5,-382 345.5,-341 506.5,-341 506.5,-382"/>
<text text-anchor="start" x="353.5" y="-370" font-family="Helvetica,sans-Serif" font-size="10.00">/home/runner/work/Catena</text>
<text text-anchor="start" x="353.5" y="-359" font-family="Helvetica,sans-Serif" font-size="10.00">/Catena/sdks/cpp/connections</text>
<text text-anchor="middle" x="426" y="-348" font-family="Helvetica,sans-Serif" font-size="10.00">/gRPC/include/PeerManager.h</text>
</a>
</g>
</g>
<!-- Node2 -->
<g id="Node000002" class="node">
<title>Node2</title>
<g id="a_Node000002"><a xlink:href="Singleton_8h.html" target="_top" xlink:title="Singleton wrapper class definition.">
<polygon fill="white" stroke="#666666" points="328.5,-305 213.5,-305 213.5,-286 328.5,-286 328.5,-305"/>
<text text-anchor="middle" x="271" y="-293" font-family="Helvetica,sans-Serif" font-size="10.00">patterns/Singleton.h</text>
</a>
</g>
</g>
<!-- Node1&#45;&gt;Node2 -->
<g id="edge1_Node000001_Node000002" class="edge">
<title>Node1&#45;&gt;Node2</title>
<g id="a_edge1_Node000001_Node000002"><a xlink:title=" ">
<path fill="none" stroke="#63b8ff" d="M378.65,-340.95C353.48,-330.56 323.29,-318.09 301.29,-309.01"/>
<polygon fill="#63b8ff" stroke="#63b8ff" points="302.39,-305.67 291.81,-305.09 299.72,-312.14 302.39,-305.67"/>
</a>
</g>
</g>
<!-- Node3 -->
<g id="Node000003" class="node">
<title>Node3</title>
<g id="a_Node000003"><a xlink:href="PeerInfo_8h.html" target="_top" xlink:title="Holds information about connected Peers.">
<polygon fill="white" stroke="#666666" points="494,-305 428,-305 428,-286 494,-286 494,-305"/>
<text text-anchor="middle" x="461" y="-293" font-family="Helvetica,sans-Serif" font-size="10.00">PeerInfo.h</text>
</a>
</g>
</g>
<!-- Node1&#45;&gt;Node3 -->
<g id="edge2_Node000001_Node000003" class="edge">
<title>Node1&#45;&gt;Node3</title>
<g id="a_edge2_Node000001_Node000003"><a xlink:title=" ">
<path fill="none" stroke="#63b8ff" d="M436.69,-340.95C441.37,-332.39 446.82,-322.42 451.38,-314.1"/>
<polygon fill="#63b8ff" stroke="#63b8ff" points="454.48,-315.71 456.21,-305.26 448.34,-312.35 454.48,-315.71"/>
</a>
</g>
</g>
<!-- Node9 -->
<g id="Node000009" class="node">
<title>Node9</title>
<g id="a_Node000009"><a xlink:title=" ">
<polygon fill="#e0e0e0" stroke="#999999" points="1363.5,-24.5 1270.5,-24.5 1270.5,-5.5 1363.5,-5.5 1363.5,-24.5"/>
<text text-anchor="middle" x="1317" y="-12.5" font-family="Helvetica,sans-Serif" font-size="10.00">unordered_map</text>
</a>
</g>
</g>
<!-- Node1&#45;&gt;Node9 -->
<g id="edge43_Node000001_Node000009" class="edge">
<title>Node1&#45;&gt;Node9</title>
<g id="a_edge43_Node000001_Node000009"><a xlink:title=" ">
<path fill="none" stroke="#63b8ff" d="M506.84,-358.84C736.95,-353.06 1379,-329.09 1379,-241.5 1379,-241.5 1379,-241.5 1379,-129.5 1379,-90.82 1350.93,-52.8 1332.56,-32.07"/>
<polygon fill="#63b8ff" stroke="#63b8ff" points="1334.97,-29.52 1325.62,-24.53 1329.82,-34.26 1334.97,-29.52"/>
</a>
</g>
</g>
<!-- Node10 -->
<g id="Node000010" class="node">
<title>Node10</title>
<g id="a_Node000010"><a xlink:title=" ">
<polygon fill="#e0e0e0" stroke="#999999" points="744,-24.5 700,-24.5 700,-5.5 744,-5.5 744,-24.5"/>
<text text-anchor="middle" x="722" y="-12.5" font-family="Helvetica,sans-Serif" font-size="10.00">string</text>
</a>
</g>
</g>
<!-- Node1&#45;&gt;Node10 -->
<g id="edge44_Node000001_Node000010" class="edge">
<title>Node1&#45;&gt;Node10</title>
<g id="a_edge44_Node000001_Node000010"><a xlink:title=" ">
<path fill="none" stroke="#63b8ff" d="M405.67,-340.61C385.32,-318.49 357,-280.67 357,-241.5 357,-241.5 357,-241.5 357,-129.5 357,-85.82 392.42,-84.47 432,-66 518.81,-25.49 634.02,-17.5 689.47,-16.12"/>
<polygon fill="#63b8ff" stroke="#63b8ff" points="689.8,-19.62 699.73,-15.93 689.67,-12.62 689.8,-19.62"/>
</a>
</g>
</g>
<!-- Node4 -->
<g id="Node000004" class="node">
<title>Node4</title>
<g id="a_Node000004"><a xlink:href="IParam_8h.html" target="_top" xlink:title="Interface for parameters.">
<polygon fill="white" stroke="#666666" points="851.5,-250 792.5,-250 792.5,-231 851.5,-231 851.5,-250"/>
<text text-anchor="middle" x="822" y="-238" font-family="Helvetica,sans-Serif" font-size="10.00">IParam.h</text>
</a>
</g>
</g>
<!-- Node3&#45;&gt;Node4 -->
<g id="edge3_Node000003_Node000004" class="edge">
<title>Node3&#45;&gt;Node4</title>
<g id="a_edge3_Node000003_Node000004"><a xlink:title=" ">
<path fill="none" stroke="#63b8ff" d="M494.31,-289.61C561.03,-279.81 710.74,-257.83 782.36,-247.32"/>
<polygon fill="#63b8ff" stroke="#63b8ff" points="782.96,-250.77 792.34,-245.85 781.94,-243.84 782.96,-250.77"/>
</a>
</g>
</g>
<!-- Node3&#45;&gt;Node10 -->
<g id="edge42_Node000003_Node000010" class="edge">
<title>Node3&#45;&gt;Node10</title>
<g id="a_edge42_Node000003_Node000010"><a xlink:title=" ">
<path fill="none" stroke="#63b8ff" d="M448.88,-285.95C438.24,-277.85 423.07,-264.74 414,-250 398.56,-224.91 395,-215.96 395,-186.5 395,-186.5 395,-186.5 395,-129.5 395,-67.54 607.17,-31.75 689.7,-20.18"/>
<polygon fill="#63b8ff" stroke="#63b8ff" points="690.35,-23.62 699.78,-18.8 689.4,-16.69 690.35,-23.62"/>
</a>
</g>
</g>
<!-- Node32 -->
<g id="Node000032" class="node">
<title>Node32</title>
<g id="a_Node000032"><a xlink:title=" ">
<polygon fill="#e0e0e0" stroke="#999999" points="569,-250 423,-250 423,-231 569,-231 569,-250"/>
<text text-anchor="middle" x="496" y="-238" font-family="Helvetica,sans-Serif" font-size="10.00">interface/service.grpc.pb.h</text>
</a>
</g>
</g>
<!-- Node3&#45;&gt;Node32 -->
<g id="edge41_Node000003_Node000032" class="edge">
<title>Node3&#45;&gt;Node32</title>
<g id="a_edge41_Node000003_Node000032"><a xlink:title=" ">
<path fill="none" stroke="#63b8ff" d="M466.78,-285.75C471.62,-278.42 478.68,-267.73 484.64,-258.7"/>
<polygon fill="#63b8ff" stroke="#63b8ff" points="487.74,-260.36 490.33,-250.09 481.9,-256.5 487.74,-260.36"/>
</a>
</g>
</g>
<!-- Node5 -->
<g id="Node000005" class="node">
<title>Node5</title>
<g id="a_Node000005"><a xlink:href="Enums_8h.html" target="_top" xlink:title="tools for using EnumDecorators.">
<polygon fill="white" stroke="#666666" points="223.5,-140 164.5,-140 164.5,-121 223.5,-121 223.5,-140"/>
<text text-anchor="middle" x="194" y="-128" font-family="Helvetica,sans-Serif" font-size="10.00">Enums.h</text>
</a>
</g>
</g>
<!-- Node4&#45;&gt;Node5 -->
<g id="edge4_Node000004_Node000005" class="edge">
<title>Node4&#45;&gt;Node5</title>
<g id="a_edge4_Node000004_Node000005"><a xlink:title=" ">
<path fill="none" stroke="#63b8ff" d="M792.13,-234.36C689.32,-216.68 350,-158.33 233.6,-138.31"/>
<polygon fill="#63b8ff" stroke="#63b8ff" points="234.13,-134.85 223.68,-136.6 232.95,-141.75 234.13,-134.85"/>
</a>
</g>
</g>
<!-- Node13 -->
<g id="Node000013" class="node">
<title>Node13</title>
<g id="a_Node000013"><a xlink:href="IConstraint_8h.html" target="_top" xlink:title="Interface for constraints.">
<polygon fill="white" stroke="#666666" points="1015.5,-195 936.5,-195 936.5,-176 1015.5,-176 1015.5,-195"/>
<text text-anchor="middle" x="976" y="-183" font-family="Helvetica,sans-Serif" font-size="10.00">IConstraint.h</text>
</a>
</g>
</g>
<!-- Node4&#45;&gt;Node13 -->
<g id="edge13_Node000004_Node000013" class="edge">
<title>Node4&#45;&gt;Node13</title>
<g id="a_edge13_Node000004_Node000013"><a xlink:title=" ">
<path fill="none" stroke="#63b8ff" d="M846.74,-230.98C872.37,-222.16 912.63,-208.31 941.41,-198.41"/>
<polygon fill="#63b8ff" stroke="#63b8ff" points="942.75,-201.65 951.06,-195.08 940.47,-195.03 942.75,-201.65"/>
</a>
</g>
</g>
<!-- Node14 -->
<g id="Node000014" class="node">
<title>Node14</title>
<g id="a_Node000014"><a xlink:title=" ">
<polygon fill="#e0e0e0" stroke="#999999" points="1181.5,-140 1062.5,-140 1062.5,-121 1181.5,-121 1181.5,-140"/>
<text text-anchor="middle" x="1122" y="-128" font-family="Helvetica,sans-Serif" font-size="10.00">interface/param.pb.h</text>
</a>
</g>
</g>
<!-- Node4&#45;&gt;Node14 -->
<g id="edge40_Node000004_Node000014" class="edge">
<title>Node4&#45;&gt;Node14</title>
<g id="a_edge40_Node000004_Node000014"><a xlink:title=" ">
<path fill="none" stroke="#63b8ff" d="M851.59,-236.43C892.04,-231.47 966.29,-219.66 1025,-195 1054.64,-182.55 1085.05,-160.92 1103.73,-146.41"/>
<polygon fill="#63b8ff" stroke="#63b8ff" points="1106.01,-149.07 1111.68,-140.12 1101.67,-143.58 1106.01,-149.07"/>
</a>
</g>
</g>
<!-- Node16 -->
<g id="Node000016" class="node">
<title>Node16</title>
<g id="a_Node000016"><a xlink:href="IParamDescriptor_8h.html" target="_top" xlink:title="Interface class for ParamDescriptor.">
<polygon fill="white" stroke="#666666" points="1249.5,-195 1140.5,-195 1140.5,-176 1249.5,-176 1249.5,-195"/>
<text text-anchor="middle" x="1195" y="-183" font-family="Helvetica,sans-Serif" font-size="10.00">IParamDescriptor.h</text>
</a>
</g>
</g>
<!-- Node4&#45;&gt;Node16 -->
<g id="edge16_Node000004_Node000016" class="edge">
<title>Node4&#45;&gt;Node16</title>
<g id="a_edge16_Node000004_Node000016"><a xlink:title=" ">
<path fill="none" stroke="#63b8ff" d="M851.58,-235.3C911.48,-226.79 1048.36,-207.34 1130.07,-195.73"/>
<polygon fill="#63b8ff" stroke="#63b8ff" points="1130.83,-199.15 1140.24,-194.28 1129.84,-192.22 1130.83,-199.15"/>
</a>
</g>
</g>
<!-- Node24 -->
<g id="Node000024" class="node">
<title>Node24</title>
<g id="a_Node000024"><a xlink:href="Path_8h.html" target="_top" xlink:title="Handles Path objects used to uniquely identify and access OIDs.">
<polygon fill="white" stroke="#666666" points="651.5,-195 604.5,-195 604.5,-176 651.5,-176 651.5,-195"/>
<text text-anchor="middle" x="628" y="-183" font-family="Helvetica,sans-Serif" font-size="10.00">Path.h</text>
</a>
</g>
</g>
<!-- Node4&#45;&gt;Node24 -->
<g id="edge31_Node000004_Node000024" class="edge">
<title>Node4&#45;&gt;Node24</title>
<g id="a_edge31_Node000004_Node000024"><a xlink:title=" ">
<path fill="none" stroke="#63b8ff" d="M792.11,-231.33C756.75,-221.67 698.04,-205.64 661.27,-195.59"/>
<polygon fill="#63b8ff" stroke="#63b8ff" points="662.08,-192.18 651.51,-192.92 660.24,-198.94 662.08,-192.18"/>
</a>
</g>
</g>
<!-- Node29 -->
<g id="Node000029" class="node">
<title>Node29</title>
<g id="a_Node000029"><a xlink:href="Status_8h.html" target="_top" xlink:title="Communicates failure status using gRPC&#39;s codes.">
<polygon fill="white" stroke="#666666" points="850,-195 794,-195 794,-176 850,-176 850,-195"/>
<text text-anchor="middle" x="822" y="-183" font-family="Helvetica,sans-Serif" font-size="10.00">Status.h</text>
</a>
</g>
</g>
<!-- Node4&#45;&gt;Node29 -->
<g id="edge37_Node000004_Node000029" class="edge">
<title>Node4&#45;&gt;Node29</title>
<g id="a_edge37_Node000004_Node000029"><a xlink:title=" ">
<path fill="none" stroke="#63b8ff" d="M822,-230.75C822,-223.8 822,-213.85 822,-205.13"/>
<polygon fill="#63b8ff" stroke="#63b8ff" points="825.5,-205.09 822,-195.09 818.5,-205.09 825.5,-205.09"/>
</a>
</g>
</g>
<!-- Node6 -->
<g id="Node000006" class="node">
<title>Node6</title>
<g id="a_Node000006"><a xlink:href="EnumDecorator_8h.html" target="_top" xlink:title="Provides an enum with useful extra functionality.">
<polygon fill="white" stroke="#666666" points="191,-85 47,-85 47,-66 191,-66 191,-85"/>
<text text-anchor="middle" x="119" y="-73" font-family="Helvetica,sans-Serif" font-size="10.00">patterns/EnumDecorator.h</text>
</a>
</g>
</g>
<!-- Node5&#45;&gt;Node6 -->
<g id="edge5_Node000005_Node000006" class="edge">
<title>Node5&#45;&gt;Node6</title>
<g id="a_edge5_Node000005_Node000006"><a xlink:title=" ">
<path fill="none" stroke="#63b8ff" d="M181.95,-120.98C170.54,-112.92 153.17,-100.65 139.57,-91.03"/>
<polygon fill="#63b8ff" stroke="#63b8ff" points="141.46,-88.08 131.27,-85.17 137.42,-93.8 141.46,-88.08"/>
</a>
</g>
</g>
<!-- Node8 -->
<g id="Node000008" class="node">
<title>Node8</title>
<g id="a_Node000008"><a xlink:title=" ">
<polygon fill="#e0e0e0" stroke="#999999" points="50,-24.5 0,-24.5 0,-5.5 50,-5.5 50,-24.5"/>
<text text-anchor="middle" x="25" y="-12.5" font-family="Helvetica,sans-Serif" font-size="10.00">cstdint</text>
</a>
</g>
</g>
<!-- Node5&#45;&gt;Node8 -->
<g id="edge12_Node000005_Node000008" class="edge">
<title>Node5&#45;&gt;Node8</title>
<g id="a_edge12_Node000005_Node000008"><a xlink:title=" ">
<path fill="none" stroke="#63b8ff" d="M164.25,-129.8C128.82,-128.43 70.36,-120.47 38,-85 25.82,-71.65 23.39,-50.63 23.5,-35.3"/>
<polygon fill="#63b8ff" stroke="#63b8ff" points="27.01,-35.04 23.96,-24.9 20.02,-34.73 27.01,-35.04"/>
</a>
</g>
</g>
<!-- Node12 -->
<g id="Node000012" class="node">
<title>Node12</title>
<g id="a_Node000012"><a xlink:title=" ">
<polygon fill="#e0e0e0" stroke="#999999" points="328.5,-85 209.5,-85 209.5,-66 328.5,-66 328.5,-85"/>
<text text-anchor="middle" x="269" y="-73" font-family="Helvetica,sans-Serif" font-size="10.00">interface/device.pb.h</text>
</a>
</g>
</g>
<!-- Node5&#45;&gt;Node12 -->
<g id="edge11_Node000005_Node000012" class="edge">
<title>Node5&#45;&gt;Node12</title>
<g id="a_edge11_Node000005_Node000012"><a xlink:title=" ">
<path fill="none" stroke="#63b8ff" d="M206.05,-120.98C217.46,-112.92 234.83,-100.65 248.43,-91.03"/>
<polygon fill="#63b8ff" stroke="#63b8ff" points="250.58,-93.8 256.73,-85.17 246.54,-88.08 250.58,-93.8"/>
</a>
</g>
</g>
<!-- Node7 -->
<g id="Node000007" class="node">
<title>Node7</title>
<g id="a_Node000007"><a xlink:href="ReflectionMacros_8h.html" target="_top" xlink:title="adapted from https://github.com/tapika/TestCppReflect">
<polygon fill="white" stroke="#666666" points="271,-24.5 161,-24.5 161,-5.5 271,-5.5 271,-24.5"/>
<text text-anchor="middle" x="216" y="-12.5" font-family="Helvetica,sans-Serif" font-size="10.00">ReflectionMacros.h</text>
</a>
</g>
</g>
<!-- Node6&#45;&gt;Node7 -->
<g id="edge6_Node000006_Node000007" class="edge">
<title>Node6&#45;&gt;Node7</title>
<g id="a_edge6_Node000006_Node000007"><a xlink:title=" ">
<path fill="none" stroke="#63b8ff" d="M133.31,-65.87C149,-56.41 174.4,-41.09 192.91,-29.92"/>
<polygon fill="#63b8ff" stroke="#63b8ff" points="194.87,-32.83 201.63,-24.67 191.26,-26.83 194.87,-32.83"/>
</a>
</g>
</g>
<!-- Node6&#45;&gt;Node8 -->
<g id="edge7_Node000006_Node000008" class="edge">
<title>Node6&#45;&gt;Node8</title>
<g id="a_edge7_Node000006_Node000008"><a xlink:title=" ">
<path fill="none" stroke="#63b8ff" d="M105.13,-65.87C90,-56.45 65.54,-41.23 47.62,-30.08"/>
<polygon fill="#63b8ff" stroke="#63b8ff" points="49.27,-26.98 38.93,-24.67 45.57,-32.92 49.27,-26.98"/>
</a>
</g>
</g>
<!-- Node6&#45;&gt;Node9 -->
<g id="edge8_Node000006_Node000009" class="edge">
<title>Node6&#45;&gt;Node9</title>
<g id="a_edge8_Node000006_Node000009"><a xlink:title=" ">
<path fill="none" stroke="#63b8ff" d="M191.4,-66.69C194.31,-66.44 197.18,-66.21 200,-66 605.59,-35.67 1095.51,-21.49 1260.03,-17.35"/>
<polygon fill="#63b8ff" stroke="#63b8ff" points="1260.48,-20.84 1270.39,-17.09 1260.3,-13.84 1260.48,-20.84"/>
</a>
</g>
</g>
<!-- Node6&#45;&gt;Node10 -->
<g id="edge9_Node000006_Node000010" class="edge">
<title>Node6&#45;&gt;Node10</title>
<g id="a_edge9_Node000006_Node000010"><a xlink:title=" ">
<path fill="none" stroke="#63b8ff" d="M191.42,-66.87C194.32,-66.57 197.19,-66.28 200,-66 385.31,-47.4 607.78,-26.6 689.69,-18.99"/>
<polygon fill="#63b8ff" stroke="#63b8ff" points="690.23,-22.46 699.86,-18.05 689.58,-15.49 690.23,-22.46"/>
</a>
</g>
</g>
<!-- Node11 -->
<g id="Node000011" class="node">
<title>Node11</title>
<g id="a_Node000011"><a xlink:title=" ">
<polygon fill="#e0e0e0" stroke="#999999" points="142.5,-24.5 73.5,-24.5 73.5,-5.5 142.5,-5.5 142.5,-24.5"/>
<text text-anchor="middle" x="108" y="-12.5" font-family="Helvetica,sans-Serif" font-size="10.00">type_traits</text>
</a>
</g>
</g>
<!-- Node6&#45;&gt;Node11 -->
<g id="edge10_Node000006_Node000011" class="edge">
<title>Node6&#45;&gt;Node11</title>
<g id="a_edge10_Node000006_Node000011"><a xlink:title=" ">
<path fill="none" stroke="#63b8ff" d="M117.38,-65.87C115.83,-57.66 113.46,-45.04 111.49,-34.55"/>
<polygon fill="#63b8ff" stroke="#63b8ff" points="114.92,-33.85 109.63,-24.67 108.04,-35.14 114.92,-33.85"/>
</a>
</g>
</g>
<!-- Node13&#45;&gt;Node14 -->
<g id="edge14_Node000013_Node000014" class="edge">
<title>Node13&#45;&gt;Node14</title>
<g id="a_edge14_Node000013_Node000014"><a xlink:title=" ">
<path fill="none" stroke="#63b8ff" d="M999.46,-175.98C1023.58,-167.23 1061.37,-153.51 1088.6,-143.62"/>
<polygon fill="#63b8ff" stroke="#63b8ff" points="1089.91,-146.87 1098.12,-140.17 1087.52,-140.29 1089.91,-146.87"/>
</a>
</g>
</g>
<!-- Node15 -->
<g id="Node000015" class="node">
<title>Node15</title>
<g id="a_Node000015"><a xlink:title=" ">
<polygon fill="#e0e0e0" stroke="#999999" points="1044,-140 908,-140 908,-121 1044,-121 1044,-140"/>
<text text-anchor="middle" x="976" y="-128" font-family="Helvetica,sans-Serif" font-size="10.00">interface/constraint.pb.h</text>
</a>
</g>
</g>
<!-- Node13&#45;&gt;Node15 -->
<g id="edge15_Node000013_Node000015" class="edge">
<title>Node13&#45;&gt;Node15</title>
<g id="a_edge15_Node000013_Node000015"><a xlink:title=" ">
<path fill="none" stroke="#63b8ff" d="M976,-175.75C976,-168.8 976,-158.85 976,-150.13"/>
<polygon fill="#63b8ff" stroke="#63b8ff" points="979.5,-150.09 976,-140.09 972.5,-150.09 979.5,-150.09"/>
</a>
</g>
</g>
<!-- Node16&#45;&gt;Node14 -->
<g id="edge30_Node000016_Node000014" class="edge">
<title>Node16&#45;&gt;Node14</title>
<g id="a_edge30_Node000016_Node000014"><a xlink:title=" ">
<path fill="none" stroke="#63b8ff" d="M1183.27,-175.98C1172.27,-168 1155.58,-155.88 1142.4,-146.31"/>
<polygon fill="#63b8ff" stroke="#63b8ff" points="1144.09,-143.21 1133.94,-140.17 1139.98,-148.88 1144.09,-143.21"/>
</a>
</g>
</g>
<!-- Node17 -->
<g id="Node000017" class="node">
<title>Node17</title>
<g id="a_Node000017"><a xlink:href="Tags_8h.html" target="_top" xlink:title="Tags to differentiate collections with the same type for template specialization.">
<polygon fill="white" stroke="#666666" points="1246.5,-140 1199.5,-140 1199.5,-121 1246.5,-121 1246.5,-140"/>
<text text-anchor="middle" x="1223" y="-128" font-family="Helvetica,sans-Serif" font-size="10.00">Tags.h</text>
</a>
</g>
</g>
<!-- Node16&#45;&gt;Node17 -->
<g id="edge17_Node000016_Node000017" class="edge">
<title>Node16&#45;&gt;Node17</title>
<g id="a_edge17_Node000016_Node000017"><a xlink:title=" ">
<path fill="none" stroke="#63b8ff" d="M1199.62,-175.75C1203.46,-168.49 1209.02,-157.95 1213.76,-148.98"/>
<polygon fill="#63b8ff" stroke="#63b8ff" points="1216.89,-150.57 1218.46,-140.09 1210.7,-147.3 1216.89,-150.57"/>
</a>
</g>
</g>
<!-- Node19 -->
<g id="Node000019" class="node">
<title>Node19</title>
<g id="a_Node000019"><a xlink:href="PolyglotText_8h.html" target="_top" xlink:title="Polyglot Text serialization and deserialization to protobuf.">
<polygon fill="white" stroke="#666666" points="1351,-140 1265,-140 1265,-121 1351,-121 1351,-140"/>
<text text-anchor="middle" x="1308" y="-128" font-family="Helvetica,sans-Serif" font-size="10.00">PolyglotText.h</text>
</a>
</g>
</g>
<!-- Node16&#45;&gt;Node19 -->
<g id="edge20_Node000016_Node000019" class="edge">
<title>Node16&#45;&gt;Node19</title>
<g id="a_edge20_Node000016_Node000019"><a xlink:title=" ">
<path fill="none" stroke="#63b8ff" d="M1213.16,-175.98C1231.25,-167.5 1259.28,-154.35 1280.19,-144.54"/>
<polygon fill="#63b8ff" stroke="#63b8ff" points="1281.95,-147.59 1289.51,-140.17 1278.97,-141.25 1281.95,-147.59"/>
</a>
</g>
</g>
<!-- Node17&#45;&gt;Node10 -->
<g id="edge19_Node000017_Node000010" class="edge">
<title>Node17&#45;&gt;Node10</title>
<g id="a_edge19_Node000017_Node000010"><a xlink:title=" ">
<path fill="none" stroke="#63b8ff" d="M1199.26,-123.08C1196.48,-122.36 1193.68,-121.66 1191,-121 1027.28,-80.95 829.92,-38.73 753.95,-22.7"/>
<polygon fill="#63b8ff" stroke="#63b8ff" points="754.56,-19.25 744.05,-20.61 753.11,-26.1 754.56,-19.25"/>
</a>
</g>
</g>
<!-- Node18 -->
<g id="Node000018" class="node">
<title>Node18</title>
<g id="a_Node000018"><a xlink:title=" ">
<polygon fill="#e0e0e0" stroke="#999999" points="1112.5,-85 1047.5,-85 1047.5,-66 1112.5,-66 1112.5,-85"/>
<text text-anchor="middle" x="1080" y="-73" font-family="Helvetica,sans-Serif" font-size="10.00">functional</text>
</a>
</g>
</g>
<!-- Node17&#45;&gt;Node18 -->
<g id="edge18_Node000017_Node000018" class="edge">
<title>Node17&#45;&gt;Node18</title>
<g id="a_edge18_Node000017_Node000018"><a xlink:title=" ">
<path fill="none" stroke="#63b8ff" d="M1200.02,-120.98C1176.5,-112.27 1139.71,-98.63 1113.06,-88.75"/>
<polygon fill="#63b8ff" stroke="#63b8ff" points="1113.99,-85.36 1103.39,-85.17 1111.55,-91.93 1113.99,-85.36"/>
</a>
</g>
</g>
<!-- Node19&#45;&gt;Node9 -->
<g id="edge28_Node000019_Node000009" class="edge">
<title>Node19&#45;&gt;Node9</title>
<g id="a_edge28_Node000019_Node000009"><a xlink:title=" ">
<path fill="none" stroke="#63b8ff" d="M1308.68,-120.97C1310.12,-102.73 1313.55,-59.57 1315.52,-34.64"/>
<polygon fill="#63b8ff" stroke="#63b8ff" points="1319.01,-34.88 1316.32,-24.63 1312.04,-34.32 1319.01,-34.88"/>
</a>
</g>
</g>
<!-- Node19&#45;&gt;Node10 -->
<g id="edge27_Node000019_Node000010" class="edge">
<title>Node19&#45;&gt;Node10</title>
<g id="a_edge27_Node000019_Node000010"><a xlink:title=" ">
<path fill="none" stroke="#63b8ff" d="M1273.64,-120.96C1243.27,-113 1198.03,-100.1 1160,-85 1142.45,-78.03 1140.07,-71.47 1122,-66 989.75,-25.96 823.57,-17.94 754.46,-16.37"/>
<polygon fill="#63b8ff" stroke="#63b8ff" points="754.29,-12.86 744.22,-16.17 754.15,-19.86 754.29,-12.86"/>
</a>
</g>
</g>
<!-- Node20 -->
<g id="Node000020" class="node">
<title>Node20</title>
<g id="a_Node000020"><a xlink:href="IPolyglotText_8h.html" target="_top" xlink:title="Catena&#39;s multi&#45;language text interface.">
<polygon fill="white" stroke="#666666" points="1496.5,-85 1407.5,-85 1407.5,-66 1496.5,-66 1496.5,-85"/>
<text text-anchor="middle" x="1452" y="-73" font-family="Helvetica,sans-Serif" font-size="10.00">IPolyglotText.h</text>
</a>
</g>
</g>
<!-- Node19&#45;&gt;Node20 -->
<g id="edge21_Node000019_Node000020" class="edge">
<title>Node19&#45;&gt;Node20</title>
<g id="a_edge21_Node000019_Node000020"><a xlink:title=" ">
<path fill="none" stroke="#63b8ff" d="M1331.14,-120.98C1354.82,-112.27 1391.87,-98.63 1418.71,-88.75"/>
<polygon fill="#63b8ff" stroke="#63b8ff" points="1420.27,-91.91 1428.44,-85.17 1417.85,-85.34 1420.27,-91.91"/>
</a>
</g>
</g>
<!-- Node22 -->
<g id="Node000022" class="node">
<title>Node22</title>
<g id="a_Node000022"><a xlink:title=" ">
<polygon fill="#e0e0e0" stroke="#999999" points="1623.5,-24.5 1540.5,-24.5 1540.5,-5.5 1623.5,-5.5 1623.5,-24.5"/>
<text text-anchor="middle" x="1582" y="-12.5" font-family="Helvetica,sans-Serif" font-size="10.00">initializer_list</text>
</a>
</g>
</g>
<!-- Node19&#45;&gt;Node22 -->
<g id="edge29_Node000019_Node000022" class="edge">
<title>Node19&#45;&gt;Node22</title>
<g id="a_edge29_Node000019_Node000022"><a xlink:title=" ">
<path fill="none" stroke="#63b8ff" d="M1351.11,-126.21C1392.76,-121.6 1456.6,-110.66 1506,-85 1531.09,-71.97 1554.26,-48.59 1568.27,-32.7"/>
<polygon fill="#63b8ff" stroke="#63b8ff" points="1571.22,-34.63 1575.06,-24.75 1565.9,-30.08 1571.22,-34.63"/>
</a>
</g>
</g>
<!-- Node23 -->
<g id="Node000023" class="node">
<title>Node23</title>
<g id="a_Node000023"><a xlink:title=" ">
<polygon fill="#e0e0e0" stroke="#999999" points="1301,-85 1169,-85 1169,-66 1301,-66 1301,-85"/>
<text text-anchor="middle" x="1235" y="-73" font-family="Helvetica,sans-Serif" font-size="10.00">interface/language.pb.h</text>
</a>
</g>
</g>
<!-- Node19&#45;&gt;Node23 -->
<g id="edge26_Node000019_Node000023" class="edge">
<title>Node19&#45;&gt;Node23</title>
<g id="a_edge26_Node000019_Node000023"><a xlink:title=" ">
<path fill="none" stroke="#63b8ff" d="M1296.27,-120.98C1285.27,-113 1268.58,-100.88 1255.4,-91.31"/>
<polygon fill="#63b8ff" stroke="#63b8ff" points="1257.09,-88.21 1246.94,-85.17 1252.98,-93.88 1257.09,-88.21"/>
</a>
</g>
</g>
<!-- Node20&#45;&gt;Node9 -->
<g id="edge23_Node000020_Node000009" class="edge">
<title>Node20&#45;&gt;Node9</title>
<g id="a_edge23_Node000020_Node000009"><a xlink:title=" ">
<path fill="none" stroke="#63b8ff" d="M1432.37,-65.99C1409.67,-56.16 1372.1,-39.88 1346.03,-28.58"/>
<polygon fill="#63b8ff" stroke="#63b8ff" points="1347.22,-25.28 1336.65,-24.52 1344.44,-31.7 1347.22,-25.28"/>
</a>
</g>
</g>
<!-- Node20&#45;&gt;Node10 -->
<g id="edge24_Node000020_Node000010" class="edge">
<title>Node20&#45;&gt;Node10</title>
<g id="a_edge24_Node000020_Node000010"><a xlink:title=" ">
<path fill="none" stroke="#63b8ff" d="M1407.43,-70.93C1272.65,-60.13 871.41,-27.97 754.38,-18.59"/>
<polygon fill="#63b8ff" stroke="#63b8ff" points="754.51,-15.09 744.27,-17.78 753.95,-22.07 754.51,-15.09"/>
</a>
</g>
</g>
<!-- Node21 -->
<g id="Node000021" class="node">
<title>Node21</title>
<g id="a_Node000021"><a xlink:title=" ">
<polygon fill="#e0e0e0" stroke="#999999" points="1522.5,-30 1381.5,-30 1381.5,0 1522.5,0 1522.5,-30"/>
<text text-anchor="start" x="1389.5" y="-18" font-family="Helvetica,sans-Serif" font-size="10.00">google/protobuf/message</text>
<text text-anchor="middle" x="1452" y="-7" font-family="Helvetica,sans-Serif" font-size="10.00">_lite.h</text>
</a>
</g>
</g>
<!-- Node20&#45;&gt;Node21 -->
<g id="edge22_Node000020_Node000021" class="edge">
<title>Node20&#45;&gt;Node21</title>
<g id="a_edge22_Node000020_Node000021"><a xlink:title=" ">
<path fill="none" stroke="#63b8ff" d="M1452,-65.87C1452,-59.11 1452,-49.35 1452,-40.26"/>
<polygon fill="#63b8ff" stroke="#63b8ff" points="1455.5,-40.11 1452,-30.11 1448.5,-40.11 1455.5,-40.11"/>
</a>
</g>
</g>
<!-- Node20&#45;&gt;Node22 -->
<g id="edge25_Node000020_Node000022" class="edge">
<title>Node20&#45;&gt;Node22</title>
<g id="a_edge25_Node000020_Node000022"><a xlink:title=" ">
<path fill="none" stroke="#63b8ff" d="M1470.9,-65.99C1492.66,-56.2 1528.62,-40.02 1553.71,-28.73"/>
<polygon fill="#63b8ff" stroke="#63b8ff" points="1555.39,-31.81 1563.07,-24.52 1552.52,-25.43 1555.39,-31.81"/>
</a>
</g>
</g>
<!-- Node24&#45;&gt;Node10 -->
<g id="edge33_Node000024_Node000010" class="edge">
<title>Node24&#45;&gt;Node10</title>
<g id="a_edge33_Node000024_Node000010"><a xlink:title=" ">
<path fill="none" stroke="#63b8ff" d="M651.5,-176.78C668.6,-169.89 690.8,-158.07 703,-140 724.65,-107.92 725.4,-60.63 723.83,-34.7"/>
<polygon fill="#63b8ff" stroke="#63b8ff" points="727.32,-34.41 723.04,-24.71 720.34,-34.96 727.32,-34.41"/>
</a>
</g>
</g>
<!-- Node25 -->
<g id="Node000025" class="node">
<title>Node25</title>
<g id="a_Node000025"><a xlink:title=" ">
<polygon fill="#e0e0e0" stroke="#999999" points="483,-140 423,-140 423,-121 483,-121 483,-140"/>
<text text-anchor="middle" x="453" y="-128" font-family="Helvetica,sans-Serif" font-size="10.00">iostream</text>
</a>
</g>
</g>
<!-- Node24&#45;&gt;Node25 -->
<g id="edge32_Node000024_Node000025" class="edge">
<title>Node24&#45;&gt;Node25</title>
<g id="a_edge32_Node000024_Node000025"><a xlink:title=" ">
<path fill="none" stroke="#63b8ff" d="M604.4,-177.35C575.27,-168.53 525.38,-153.42 490.87,-142.97"/>
<polygon fill="#63b8ff" stroke="#63b8ff" points="491.72,-139.57 481.14,-140.02 489.69,-146.27 491.72,-139.57"/>
</a>
</g>
</g>
<!-- Node26 -->
<g id="Node000026" class="node">
<title>Node26</title>
<g id="a_Node000026"><a xlink:title=" ">
<polygon fill="#e0e0e0" stroke="#999999" points="548.5,-140 501.5,-140 501.5,-121 548.5,-121 548.5,-140"/>
<text text-anchor="middle" x="525" y="-128" font-family="Helvetica,sans-Serif" font-size="10.00">vector</text>
</a>
</g>
</g>
<!-- Node24&#45;&gt;Node26 -->
<g id="edge34_Node000024_Node000026" class="edge">
<title>Node24&#45;&gt;Node26</title>
<g id="a_edge34_Node000024_Node000026"><a xlink:title=" ">
<path fill="none" stroke="#63b8ff" d="M611.45,-175.98C595.11,-167.57 569.87,-154.59 550.87,-144.81"/>
<polygon fill="#63b8ff" stroke="#63b8ff" points="552.34,-141.63 541.85,-140.17 549.14,-147.86 552.34,-141.63"/>
</a>
</g>
</g>
<!-- Node27 -->
<g id="Node000027" class="node">
<title>Node27</title>
<g id="a_Node000027"><a xlink:title=" ">
<polygon fill="#e0e0e0" stroke="#999999" points="617.5,-140 566.5,-140 566.5,-121 617.5,-121 617.5,-140"/>
<text text-anchor="middle" x="592" y="-128" font-family="Helvetica,sans-Serif" font-size="10.00">variant</text>
</a>
</g>
</g>
<!-- Node24&#45;&gt;Node27 -->
<g id="edge35_Node000024_Node000027" class="edge">
<title>Node24&#45;&gt;Node27</title>
<g id="a_edge35_Node000024_Node000027"><a xlink:title=" ">
<path fill="none" stroke="#63b8ff" d="M622.06,-175.75C617.02,-168.34 609.66,-157.5 603.49,-148.41"/>
<polygon fill="#63b8ff" stroke="#63b8ff" points="606.35,-146.39 597.83,-140.09 600.56,-150.33 606.35,-146.39"/>
</a>
</g>
</g>
<!-- Node28 -->
<g id="Node000028" class="node">
<title>Node28</title>
<g id="a_Node000028"><a xlink:title=" ">
<polygon fill="#e0e0e0" stroke="#999999" points="694,-140 636,-140 636,-121 694,-121 694,-140"/>
<text text-anchor="middle" x="665" y="-128" font-family="Helvetica,sans-Serif" font-size="10.00">memory</text>
</a>
</g>
</g>
<!-- Node24&#45;&gt;Node28 -->
<g id="edge36_Node000024_Node000028" class="edge">
<title>Node24&#45;&gt;Node28</title>
<g id="a_edge36_Node000024_Node000028"><a xlink:title=" ">
<path fill="none" stroke="#63b8ff" d="M634.11,-175.75C639.28,-168.34 646.85,-157.5 653.19,-148.41"/>
<polygon fill="#63b8ff" stroke="#63b8ff" points="656.15,-150.29 659,-140.09 650.41,-146.29 656.15,-150.29"/>
</a>
</g>
</g>
<!-- Node30 -->
<g id="Node000030" class="node">
<title>Node30</title>
<g id="a_Node000030"><a xlink:title=" ">
<polygon fill="#e0e0e0" stroke="#999999" points="890,-140 834,-140 834,-121 890,-121 890,-140"/>
<text text-anchor="middle" x="862" y="-128" font-family="Helvetica,sans-Serif" font-size="10.00">sstream</text>
</a>
</g>
</g>
<!-- Node29&#45;&gt;Node30 -->
<g id="edge38_Node000029_Node000030" class="edge">
<title>Node29&#45;&gt;Node30</title>
<g id="a_edge38_Node000029_Node000030"><a xlink:title=" ">
<path fill="none" stroke="#63b8ff" d="M828.61,-175.75C834.26,-168.26 842.54,-157.28 849.45,-148.13"/>
<polygon fill="#63b8ff" stroke="#63b8ff" points="852.29,-150.18 855.52,-140.09 846.7,-145.96 852.29,-150.18"/>
</a>
</g>
</g>
<!-- Node31 -->
<g id="Node000031" class="node">
<title>Node31</title>
<g id="a_Node000031"><a xlink:title=" ">
<polygon fill="#e0e0e0" stroke="#999999" points="815.5,-140 750.5,-140 750.5,-121 815.5,-121 815.5,-140"/>
<text text-anchor="middle" x="783" y="-128" font-family="Helvetica,sans-Serif" font-size="10.00">stdexcept</text>
</a>
</g>
</g>
<!-- Node29&#45;&gt;Node31 -->
<g id="edge39_Node000029_Node000031" class="edge">
<title>Node29&#45;&gt;Node31</title>
<g id="a_edge39_Node000029_Node000031"><a xlink:title=" ">
<path fill="none" stroke="#63b8ff" d="M815.56,-175.75C810.11,-168.34 802.14,-157.5 795.44,-148.41"/>
<polygon fill="#63b8ff" stroke="#63b8ff" points="798.07,-146.07 789.32,-140.09 792.43,-150.22 798.07,-146.07"/>
</a>
</g>
</g>
</g>
</svg>
