<?xml version="1.0" encoding="UTF-8" standalone="no"?>
<!DOCTYPE svg PUBLIC "-//W3C//DTD SVG 1.1//EN"
 "http://www.w3.org/Graphics/SVG/1.1/DTD/svg11.dtd">
<!-- Generated by graphviz version 2.43.0 (0)
 -->
<!-- Title: /home/runner/work/Catena/Catena/sdks/cpp/connections/gRPC/include/PeerManager.h Pages: 1 -->
<!--zoomable 324 -->

<svg id="main" version="1.1" xmlns="http://www.w3.org/2000/svg" xmlns:xlink="http://www.w3.org/1999/xlink" xml:space="preserve" onload="init(evt)">
<style type="text/css"><![CDATA[
.node, .edge {opacity: 0.7;}
.node.selected, .edge.selected {opacity: 1;}
.edge:hover path { stroke: red; }
.edge:hover polygon { stroke: red; fill: red; }
]]></style>

<defs>
  <circle id="rim" cx="0" cy="0" r="7"/>
  <circle id="rim2" cx="0" cy="0" r="3.5"/>
  <g id="zoomPlus">
    <use xlink:href="#rim" fill="#404040"><set attributeName="fill" to="#808080" begin="zoomplus.mouseover" end="zoomplus.mouseout"/></use>
    <path d="M-4,0h8M0,-4v8" fill="none" stroke="white" stroke-width="1.5" pointer-events="none"/>
  </g>
  <g id="zoomMin">
    <use xlink:href="#rim" fill="#404040"><set attributeName="fill" to="#808080" begin="zoomminus.mouseover" end="zoomminus.mouseout"/></use>
    <path d="M-4,0h8" fill="none" stroke="white" stroke-width="1.5" pointer-events="none"/>
  </g>
  <g id="arrowUp" transform="translate(30 24)">
    <use xlink:href="#rim"/>
    <path pointer-events="none" fill="none" stroke="white" stroke-width="1.5" d="M0,-3.0v7 M-2.5,-0.5L0,-3.0L2.5,-0.5"/>
  </g>
  <g id="arrowRight" transform="rotate(90) translate(36 -43)">
    <use xlink:href="#rim"/>
    <path pointer-events="none" fill="none" stroke="white" stroke-width="1.5" d="M0,-3.0v7 M-2.5,-0.5L0,-3.0L2.5,-0.5"/>
  </g>
  <g id="arrowDown" transform="rotate(180) translate(-30 -48)">
    <use xlink:href="#rim"/>
    <path pointer-events="none" fill="none" stroke="white" stroke-width="1.5" d="M0,-3.0v7 M-2.5,-0.5L0,-3.0L2.5,-0.5"/>
  </g>
  <g id="arrowLeft" transform="rotate(270) translate(-36 17)">
    <use xlink:href="#rim"/>
    <path pointer-events="none" fill="none" stroke="white" stroke-width="1.5" d="M0,-3.0v7 M-2.5,-0.5L0,-3.0L2.5,-0.5"/>
  </g>
  <g id="resetDef">
    <use xlink:href="#rim2" fill="#404040"><set attributeName="fill" to="#808080" begin="reset.mouseover" end="reset.mouseout"/></use>
  </g>
</defs>
<script type="application/ecmascript">
var viewWidth = 1343;
var viewHeight = 324;
var sectionId = 'dynsection-0';
</script>
<script type="application/ecmascript" xlink:href="svg.min.js"/>
<svg id="graph" class="graph">
<g id="viewport">
<title>/home/runner/work/Catena/Catena/sdks/cpp/connections/gRPC/include/PeerManager.h</title>
<!-- Node1 -->
<g id="Node000001" class="node">
<title>Node1</title>
<g id="a_Node000001"><a xlink:title="Handles Connections to Peers.">
<polygon fill="#999999" stroke="#666666" points="378,-316 217,-316 217,-275 378,-275 378,-316"/>
<text text-anchor="start" x="225" y="-304" font-family="Helvetica,sans-Serif" font-size="10.00">/home/runner/work/Catena</text>
<text text-anchor="start" x="225" y="-293" font-family="Helvetica,sans-Serif" font-size="10.00">/Catena/sdks/cpp/connections</text>
<text text-anchor="middle" x="297.5" y="-282" font-family="Helvetica,sans-Serif" font-size="10.00">/gRPC/include/PeerManager.h</text>
</a>
</g>
</g>
<!-- Node2 -->
<g id="Node000002" class="node">
<title>Node2</title>
<g id="a_Node000002"><a xlink:href="Singleton_8h.html" target="_top" xlink:title="Singleton wrapper class definition.">
<polygon fill="white" stroke="#666666" points="115,-239 0,-239 0,-220 115,-220 115,-239"/>
<text text-anchor="middle" x="57.5" y="-227" font-family="Helvetica,sans-Serif" font-size="10.00">patterns/Singleton.h</text>
</a>
</g>
</g>
<!-- Node1&#45;&gt;Node2 -->
<g id="edge1_Node000001_Node000002" class="edge">
<title>Node1&#45;&gt;Node2</title>
<g id="a_edge1_Node000001_Node000002"><a xlink:title=" ">
<path fill="none" stroke="#63b8ff" d="M224.19,-274.95C183.16,-264.01 133.51,-250.77 99.12,-241.6"/>
<polygon fill="#63b8ff" stroke="#63b8ff" points="99.97,-238.2 89.41,-239.01 98.17,-244.97 99.97,-238.2"/>
</a>
</g>
</g>
<!-- Node3 -->
<g id="Node000003" class="node">
<title>Node3</title>
<g id="a_Node000003"><a xlink:href="PeerInfo_8h.html" target="_top" xlink:title="Holds information about connected Peers.">
<polygon fill="white" stroke="#666666" points="545.5,-239 479.5,-239 479.5,-220 545.5,-220 545.5,-239"/>
<text text-anchor="middle" x="512.5" y="-227" font-family="Helvetica,sans-Serif" font-size="10.00">PeerInfo.h</text>
</a>
</g>
</g>
<!-- Node1&#45;&gt;Node3 -->
<g id="edge2_Node000001_Node000003" class="edge">
<title>Node1&#45;&gt;Node3</title>
<g id="a_edge2_Node000001_Node000003"><a xlink:title=" ">
<path fill="none" stroke="#63b8ff" d="M363.18,-274.95C399.46,-264.15 443.27,-251.11 474.02,-241.95"/>
<polygon fill="#63b8ff" stroke="#63b8ff" points="475.33,-245.22 483.92,-239.01 473.34,-238.51 475.33,-245.22"/>
</a>
</g>
</g>
<!-- Node9 -->
<g id="Node000009" class="node">
<title>Node9</title>
<g id="a_Node000009"><a xlink:title=" ">
<polygon fill="#e0e0e0" stroke="#999999" points="310,-19 217,-19 217,0 310,0 310,-19"/>
<text text-anchor="middle" x="263.5" y="-7" font-family="Helvetica,sans-Serif" font-size="10.00">unordered_map</text>
</a>
</g>
</g>
<!-- Node1&#45;&gt;Node9 -->
<g id="edge28_Node000001_Node000009" class="edge">
<title>Node1&#45;&gt;Node9</title>
<g id="a_edge28_Node000001_Node000009"><a xlink:title=" ">
<path fill="none" stroke="#63b8ff" d="M237.08,-274.98C193.93,-256.82 143.5,-225 143.5,-175.5 143.5,-175.5 143.5,-175.5 143.5,-118.5 143.5,-89.04 143,-77.08 162.5,-55 176.21,-39.47 196.37,-29.11 215.07,-22.34"/>
<polygon fill="#63b8ff" stroke="#63b8ff" points="216.31,-25.62 224.68,-19.11 214.08,-18.98 216.31,-25.62"/>
</a>
</g>
</g>
<!-- Node10 -->
<g id="Node000010" class="node">
<title>Node10</title>
<g id="a_Node000010"><a xlink:title=" ">
<polygon fill="#e0e0e0" stroke="#999999" points="1220.5,-19 1176.5,-19 1176.5,0 1220.5,0 1220.5,-19"/>
<text text-anchor="middle" x="1198.5" y="-7" font-family="Helvetica,sans-Serif" font-size="10.00">string</text>
</a>
</g>
</g>
<!-- Node1&#45;&gt;Node10 -->
<g id="edge29_Node000001_Node000010" class="edge">
<title>Node1&#45;&gt;Node10</title>
<g id="a_edge29_Node000001_Node000010"><a xlink:title=" ">
<path fill="none" stroke="#63b8ff" d="M378.01,-293.69C621.66,-290.17 1334.5,-271.66 1334.5,-175.5 1334.5,-175.5 1334.5,-175.5 1334.5,-118.5 1334.5,-65.55 1270.5,-34.42 1230.31,-20.1"/>
<polygon fill="#63b8ff" stroke="#63b8ff" points="1231.25,-16.72 1220.65,-16.81 1228.99,-23.35 1231.25,-16.72"/>
</a>
</g>
</g>
<!-- Node4 -->
<g id="Node000004" class="node">
<title>Node4</title>
<g id="a_Node000004"><a xlink:href="IParam_8h.html" target="_top" xlink:title="Interface for parameters.">
<polygon fill="white" stroke="#666666" points="603,-184 544,-184 544,-165 603,-165 603,-184"/>
<text text-anchor="middle" x="573.5" y="-172" font-family="Helvetica,sans-Serif" font-size="10.00">IParam.h</text>
</a>
</g>
</g>
<!-- Node3&#45;&gt;Node4 -->
<g id="edge3_Node000003_Node000004" class="edge">
<title>Node3&#45;&gt;Node4</title>
<g id="a_edge3_Node000003_Node000004"><a xlink:title=" ">
<path fill="none" stroke="#63b8ff" d="M522.3,-219.98C531.32,-212.15 544.91,-200.34 555.82,-190.86"/>
<polygon fill="#63b8ff" stroke="#63b8ff" points="558.27,-193.37 563.52,-184.17 553.68,-188.09 558.27,-193.37"/>
</a>
</g>
</g>
<!-- Node3&#45;&gt;Node10 -->
<g id="edge27_Node000003_Node000010" class="edge">
<title>Node3&#45;&gt;Node10</title>
<g id="a_edge27_Node000003_Node000010"><a xlink:title=" ">
<path fill="none" stroke="#63b8ff" d="M545.66,-228.65C646.53,-228.06 957.2,-218.59 1193.5,-129 1240.02,-111.36 1302.61,-97.96 1277.5,-55 1267.34,-37.62 1247.61,-26.5 1230.42,-19.72"/>
<polygon fill="#63b8ff" stroke="#63b8ff" points="1231.27,-16.31 1220.67,-16.22 1228.9,-22.89 1231.27,-16.31"/>
</a>
</g>
</g>
<!-- Node24 -->
<g id="Node000024" class="node">
<title>Node24</title>
<g id="a_Node000024"><a xlink:title=" ">
<polygon fill="#e0e0e0" stroke="#999999" points="525.5,-184 379.5,-184 379.5,-165 525.5,-165 525.5,-184"/>
<text text-anchor="middle" x="452.5" y="-172" font-family="Helvetica,sans-Serif" font-size="10.00">interface/service.grpc.pb.h</text>
</a>
</g>
</g>
<!-- Node3&#45;&gt;Node24 -->
<g id="edge26_Node000003_Node000024" class="edge">
<title>Node3&#45;&gt;Node24</title>
<g id="a_edge26_Node000003_Node000024"><a xlink:title=" ">
<path fill="none" stroke="#63b8ff" d="M502.86,-219.98C493.99,-212.15 480.63,-200.34 469.89,-190.86"/>
<polygon fill="#63b8ff" stroke="#63b8ff" points="472.13,-188.17 462.32,-184.17 467.49,-193.41 472.13,-188.17"/>
</a>
</g>
</g>
<!-- Node5 -->
<g id="Node000005" class="node">
<title>Node5</title>
<g id="a_Node000005"><a xlink:href="Enums_8h.html" target="_top" xlink:title="tools for using EnumDecorators.">
<polygon fill="white" stroke="#666666" points="603,-129 544,-129 544,-110 603,-110 603,-129"/>
<text text-anchor="middle" x="573.5" y="-117" font-family="Helvetica,sans-Serif" font-size="10.00">Enums.h</text>
</a>
</g>
</g>
<!-- Node4&#45;&gt;Node5 -->
<g id="edge4_Node000004_Node000005" class="edge">
<title>Node4&#45;&gt;Node5</title>
<g id="a_edge4_Node000004_Node000005"><a xlink:title=" ">
<path fill="none" stroke="#63b8ff" d="M573.5,-164.75C573.5,-157.8 573.5,-147.85 573.5,-139.13"/>
<polygon fill="#63b8ff" stroke="#63b8ff" points="577,-139.09 573.5,-129.09 570,-139.09 577,-139.09"/>
</a>
</g>
</g>
<!-- Node13 -->
<g id="Node000013" class="node">
<title>Node13</title>
<g id="a_Node000013"><a xlink:href="IConstraint_8h.html" target="_top" xlink:title="Interface for constraints.">
<polygon fill="white" stroke="#666666" points="425,-129 346,-129 346,-110 425,-110 425,-129"/>
<text text-anchor="middle" x="385.5" y="-117" font-family="Helvetica,sans-Serif" font-size="10.00">IConstraint.h</text>
</a>
</g>
</g>
<!-- Node4&#45;&gt;Node13 -->
<g id="edge13_Node000004_Node000013" class="edge">
<title>Node4&#45;&gt;Node13</title>
<g id="a_edge13_Node000004_Node000013"><a xlink:title=" ">
<path fill="none" stroke="#63b8ff" d="M543.71,-165.1C511.86,-156.12 461.17,-141.83 425.77,-131.85"/>
<polygon fill="#63b8ff" stroke="#63b8ff" points="426.35,-128.38 415.77,-129.03 424.45,-135.12 426.35,-128.38"/>
</a>
</g>
</g>
<!-- Node14 -->
<g id="Node000014" class="node">
<title>Node14</title>
<g id="a_Node000014"><a xlink:title=" ">
<polygon fill="#e0e0e0" stroke="#999999" points="445,-74 326,-74 326,-55 445,-55 445,-74"/>
<text text-anchor="middle" x="385.5" y="-62" font-family="Helvetica,sans-Serif" font-size="10.00">interface/param.pb.h</text>
</a>
</g>
</g>
<!-- Node4&#45;&gt;Node14 -->
<g id="edge25_Node000004_Node000014" class="edge">
<title>Node4&#45;&gt;Node14</title>
<g id="a_edge25_Node000004_Node000014"><a xlink:title=" ">
<path fill="none" stroke="#63b8ff" d="M558.43,-164.84C525.9,-146.16 448.86,-101.9 409.52,-79.3"/>
<polygon fill="#63b8ff" stroke="#63b8ff" points="410.79,-75.99 400.38,-74.05 407.31,-82.06 410.79,-75.99"/>
</a>
</g>
</g>
<!-- Node16 -->
<g id="Node000016" class="node">
<title>Node16</title>
<g id="a_Node000016"><a xlink:href="Path_8h.html" target="_top" xlink:title="Handles Path objects used to uniquely identify and access OIDs.">
<polygon fill="white" stroke="#666666" points="961,-129 914,-129 914,-110 961,-110 961,-129"/>
<text text-anchor="middle" x="937.5" y="-117" font-family="Helvetica,sans-Serif" font-size="10.00">Path.h</text>
</a>
</g>
</g>
<!-- Node4&#45;&gt;Node16 -->
<g id="edge16_Node000004_Node000016" class="edge">
<title>Node4&#45;&gt;Node16</title>
<g id="a_edge16_Node000004_Node000016"><a xlink:title=" ">
<path fill="none" stroke="#63b8ff" d="M603.29,-169.16C670.31,-159.4 832.64,-135.77 903.48,-125.45"/>
<polygon fill="#63b8ff" stroke="#63b8ff" points="904.25,-128.88 913.65,-123.97 903.25,-121.95 904.25,-128.88"/>
</a>
</g>
</g>
<!-- Node21 -->
<g id="Node000021" class="node">
<title>Node21</title>
<g id="a_Node000021"><a xlink:href="Status_8h.html" target="_top" xlink:title="Communicates failure status using gRPC&#39;s codes.">
<polygon fill="white" stroke="#666666" points="1184.5,-129 1128.5,-129 1128.5,-110 1184.5,-110 1184.5,-129"/>
<text text-anchor="middle" x="1156.5" y="-117" font-family="Helvetica,sans-Serif" font-size="10.00">Status.h</text>
</a>
</g>
</g>
<!-- Node4&#45;&gt;Node21 -->
<g id="edge22_Node000004_Node000021" class="edge">
<title>Node4&#45;&gt;Node21</title>
<g id="a_edge22_Node000004_Node000021"><a xlink:title=" ">
<path fill="none" stroke="#63b8ff" d="M603.21,-170.8C700.45,-161.96 1009.14,-133.9 1118.03,-124"/>
<polygon fill="#63b8ff" stroke="#63b8ff" points="1118.58,-127.46 1128.22,-123.07 1117.95,-120.49 1118.58,-127.46"/>
</a>
</g>
</g>
<!-- Node6 -->
<g id="Node000006" class="node">
<title>Node6</title>
<g id="a_Node000006"><a xlink:href="EnumDecorator_8h.html" target="_top" xlink:title="Provides an enum with useful extra functionality.">
<polygon fill="white" stroke="#666666" points="645.5,-74 501.5,-74 501.5,-55 645.5,-55 645.5,-74"/>
<text text-anchor="middle" x="573.5" y="-62" font-family="Helvetica,sans-Serif" font-size="10.00">patterns/EnumDecorator.h</text>
</a>
</g>
</g>
<!-- Node5&#45;&gt;Node6 -->
<g id="edge5_Node000005_Node000006" class="edge">
<title>Node5&#45;&gt;Node6</title>
<g id="a_edge5_Node000005_Node000006"><a xlink:title=" ">
<path fill="none" stroke="#63b8ff" d="M573.5,-109.75C573.5,-102.8 573.5,-92.85 573.5,-84.13"/>
<polygon fill="#63b8ff" stroke="#63b8ff" points="577,-84.09 573.5,-74.09 570,-84.09 577,-84.09"/>
</a>
</g>
</g>
<!-- Node8 -->
<g id="Node000008" class="node">
<title>Node8</title>
<g id="a_Node000008"><a xlink:title=" ">
<polygon fill="#e0e0e0" stroke="#999999" points="498.5,-19 448.5,-19 448.5,0 498.5,0 498.5,-19"/>
<text text-anchor="middle" x="473.5" y="-7" font-family="Helvetica,sans-Serif" font-size="10.00">cstdint</text>
</a>
</g>
</g>
<!-- Node5&#45;&gt;Node8 -->
<g id="edge12_Node000005_Node000008" class="edge">
<title>Node5&#45;&gt;Node8</title>
<g id="a_edge12_Node000005_Node000008"><a xlink:title=" ">
<path fill="none" stroke="#63b8ff" d="M546.99,-109.98C529.19,-102.98 506.52,-91.35 492.5,-74 482.22,-61.27 477.5,-43.09 475.33,-29.45"/>
<polygon fill="#63b8ff" stroke="#63b8ff" points="478.77,-28.75 474.05,-19.27 471.82,-29.63 478.77,-28.75"/>
</a>
</g>
</g>
<!-- Node12 -->
<g id="Node000012" class="node">
<title>Node12</title>
<g id="a_Node000012"><a xlink:title=" ">
<polygon fill="#e0e0e0" stroke="#999999" points="783,-74 664,-74 664,-55 783,-55 783,-74"/>
<text text-anchor="middle" x="723.5" y="-62" font-family="Helvetica,sans-Serif" font-size="10.00">interface/device.pb.h</text>
</a>
</g>
</g>
<!-- Node5&#45;&gt;Node12 -->
<g id="edge11_Node000005_Node000012" class="edge">
<title>Node5&#45;&gt;Node12</title>
<g id="a_edge11_Node000005_Node000012"><a xlink:title=" ">
<path fill="none" stroke="#63b8ff" d="M597.6,-109.98C622.38,-101.23 661.2,-87.51 689.19,-77.62"/>
<polygon fill="#63b8ff" stroke="#63b8ff" points="690.7,-80.8 698.96,-74.17 688.37,-74.2 690.7,-80.8"/>
</a>
</g>
</g>
<!-- Node7 -->
<g id="Node000007" class="node">
<title>Node7</title>
<g id="a_Node000007"><a xlink:href="ReflectionMacros_8h.html" target="_top" xlink:title="adapted from https://github.com/tapika/TestCppReflect">
<polygon fill="white" stroke="#666666" points="627.5,-19 517.5,-19 517.5,0 627.5,0 627.5,-19"/>
<text text-anchor="middle" x="572.5" y="-7" font-family="Helvetica,sans-Serif" font-size="10.00">ReflectionMacros.h</text>
</a>
</g>
</g>
<!-- Node6&#45;&gt;Node7 -->
<g id="edge6_Node000006_Node000007" class="edge">
<title>Node6&#45;&gt;Node7</title>
<g id="a_edge6_Node000006_Node000007"><a xlink:title=" ">
<path fill="none" stroke="#63b8ff" d="M573.33,-54.75C573.2,-47.8 573.02,-37.85 572.85,-29.13"/>
<polygon fill="#63b8ff" stroke="#63b8ff" points="576.35,-29.02 572.66,-19.09 569.35,-29.15 576.35,-29.02"/>
</a>
</g>
</g>
<!-- Node6&#45;&gt;Node8 -->
<g id="edge7_Node000006_Node000008" class="edge">
<title>Node6&#45;&gt;Node8</title>
<g id="a_edge7_Node000006_Node000008"><a xlink:title=" ">
<path fill="none" stroke="#63b8ff" d="M557.43,-54.98C541.64,-46.61 517.28,-33.7 498.87,-23.95"/>
<polygon fill="#63b8ff" stroke="#63b8ff" points="500.33,-20.76 489.86,-19.17 497.06,-26.95 500.33,-20.76"/>
</a>
</g>
</g>
<!-- Node6&#45;&gt;Node9 -->
<g id="edge8_Node000006_Node000009" class="edge">
<title>Node6&#45;&gt;Node9</title>
<g id="a_edge8_Node000006_Node000009"><a xlink:title=" ">
<path fill="none" stroke="#63b8ff" d="M523.69,-54.98C468.15,-45.49 378.49,-30.16 320.27,-20.21"/>
<polygon fill="#63b8ff" stroke="#63b8ff" points="320.59,-16.71 310.14,-18.47 319.41,-23.61 320.59,-16.71"/>
</a>
</g>
</g>
<!-- Node6&#45;&gt;Node10 -->
<g id="edge9_Node000006_Node000010" class="edge">
<title>Node6&#45;&gt;Node10</title>
<g id="a_edge9_Node000006_Node000010"><a xlink:title=" ">
<path fill="none" stroke="#63b8ff" d="M645.92,-55.82C648.81,-55.54 651.68,-55.26 654.5,-55 848.61,-36.88 1082.07,-19.14 1166.27,-12.88"/>
<polygon fill="#63b8ff" stroke="#63b8ff" points="1166.75,-16.35 1176.46,-12.12 1166.23,-9.37 1166.75,-16.35"/>
</a>
</g>
</g>
<!-- Node11 -->
<g id="Node000011" class="node">
<title>Node11</title>
<g id="a_Node000011"><a xlink:title=" ">
<polygon fill="#e0e0e0" stroke="#999999" points="715,-19 646,-19 646,0 715,0 715,-19"/>
<text text-anchor="middle" x="680.5" y="-7" font-family="Helvetica,sans-Serif" font-size="10.00">type_traits</text>
</a>
</g>
</g>
<!-- Node6&#45;&gt;Node11 -->
<g id="edge10_Node000006_Node000011" class="edge">
<title>Node6&#45;&gt;Node11</title>
<g id="a_edge10_Node000006_Node000011"><a xlink:title=" ">
<path fill="none" stroke="#63b8ff" d="M590.69,-54.98C607.75,-46.54 634.13,-33.47 653.9,-23.68"/>
<polygon fill="#63b8ff" stroke="#63b8ff" points="655.59,-26.75 663,-19.17 652.48,-20.47 655.59,-26.75"/>
</a>
</g>
</g>
<!-- Node13&#45;&gt;Node14 -->
<g id="edge14_Node000013_Node000014" class="edge">
<title>Node13&#45;&gt;Node14</title>
<g id="a_edge14_Node000013_Node000014"><a xlink:title=" ">
<path fill="none" stroke="#63b8ff" d="M385.5,-109.75C385.5,-102.8 385.5,-92.85 385.5,-84.13"/>
<polygon fill="#63b8ff" stroke="#63b8ff" points="389,-84.09 385.5,-74.09 382,-84.09 389,-84.09"/>
</a>
</g>
</g>
<!-- Node15 -->
<g id="Node000015" class="node">
<title>Node15</title>
<g id="a_Node000015"><a xlink:title=" ">
<polygon fill="#e0e0e0" stroke="#999999" points="307.5,-74 171.5,-74 171.5,-55 307.5,-55 307.5,-74"/>
<text text-anchor="middle" x="239.5" y="-62" font-family="Helvetica,sans-Serif" font-size="10.00">interface/constraint.pb.h</text>
</a>
</g>
</g>
<!-- Node13&#45;&gt;Node15 -->
<g id="edge15_Node000013_Node000015" class="edge">
<title>Node13&#45;&gt;Node15</title>
<g id="a_edge15_Node000013_Node000015"><a xlink:title=" ">
<path fill="none" stroke="#63b8ff" d="M362.04,-109.98C337.92,-101.23 300.13,-87.51 272.9,-77.62"/>
<polygon fill="#63b8ff" stroke="#63b8ff" points="273.98,-74.29 263.38,-74.17 271.59,-80.87 273.98,-74.29"/>
</a>
</g>
</g>
<!-- Node16&#45;&gt;Node10 -->
<g id="edge18_Node000016_Node000010" class="edge">
<title>Node16&#45;&gt;Node10</title>
<g id="a_edge18_Node000016_Node000010"><a xlink:title=" ">
<path fill="none" stroke="#63b8ff" d="M961.2,-112.72C990.16,-105.3 1040.38,-91.31 1081.5,-74 1099.78,-66.31 1146.12,-40.39 1174.69,-24.15"/>
<polygon fill="#63b8ff" stroke="#63b8ff" points="1176.68,-27.04 1183.64,-19.05 1173.22,-20.96 1176.68,-27.04"/>
</a>
</g>
</g>
<!-- Node17 -->
<g id="Node000017" class="node">
<title>Node17</title>
<g id="a_Node000017"><a xlink:title=" ">
<polygon fill="#e0e0e0" stroke="#999999" points="861.5,-74 801.5,-74 801.5,-55 861.5,-55 861.5,-74"/>
<text text-anchor="middle" x="831.5" y="-62" font-family="Helvetica,sans-Serif" font-size="10.00">iostream</text>
</a>
</g>
</g>
<!-- Node16&#45;&gt;Node17 -->
<g id="edge17_Node000016_Node000017" class="edge">
<title>Node16&#45;&gt;Node17</title>
<g id="a_edge17_Node000016_Node000017"><a xlink:title=" ">
<path fill="none" stroke="#63b8ff" d="M920.47,-109.98C903.57,-101.54 877.44,-88.47 857.86,-78.68"/>
<polygon fill="#63b8ff" stroke="#63b8ff" points="859.35,-75.51 848.84,-74.17 856.22,-81.77 859.35,-75.51"/>
</a>
</g>
</g>
<!-- Node18 -->
<g id="Node000018" class="node">
<title>Node18</title>
<g id="a_Node000018"><a xlink:title=" ">
<polygon fill="#e0e0e0" stroke="#999999" points="927,-74 880,-74 880,-55 927,-55 927,-74"/>
<text text-anchor="middle" x="903.5" y="-62" font-family="Helvetica,sans-Serif" font-size="10.00">vector</text>
</a>
</g>
</g>
<!-- Node16&#45;&gt;Node18 -->
<g id="edge19_Node000016_Node000018" class="edge">
<title>Node16&#45;&gt;Node18</title>
<g id="a_edge19_Node000016_Node000018"><a xlink:title=" ">
<path fill="none" stroke="#63b8ff" d="M931.89,-109.75C927.18,-102.42 920.33,-91.73 914.53,-82.7"/>
<polygon fill="#63b8ff" stroke="#63b8ff" points="917.36,-80.62 909.01,-74.09 911.46,-84.4 917.36,-80.62"/>
</a>
</g>
</g>
<!-- Node19 -->
<g id="Node000019" class="node">
<title>Node19</title>
<g id="a_Node000019"><a xlink:title=" ">
<polygon fill="#e0e0e0" stroke="#999999" points="996,-74 945,-74 945,-55 996,-55 996,-74"/>
<text text-anchor="middle" x="970.5" y="-62" font-family="Helvetica,sans-Serif" font-size="10.00">variant</text>
</a>
</g>
</g>
<!-- Node16&#45;&gt;Node19 -->
<g id="edge20_Node000016_Node000019" class="edge">
<title>Node16&#45;&gt;Node19</title>
<g id="a_edge20_Node000016_Node000019"><a xlink:title=" ">
<path fill="none" stroke="#63b8ff" d="M942.95,-109.75C947.51,-102.42 954.17,-91.73 959.79,-82.7"/>
<polygon fill="#63b8ff" stroke="#63b8ff" points="962.84,-84.43 965.15,-74.09 956.9,-80.73 962.84,-84.43"/>
</a>
</g>
</g>
<!-- Node20 -->
<g id="Node000020" class="node">
<title>Node20</title>
<g id="a_Node000020"><a xlink:title=" ">
<polygon fill="#e0e0e0" stroke="#999999" points="1072.5,-74 1014.5,-74 1014.5,-55 1072.5,-55 1072.5,-74"/>
<text text-anchor="middle" x="1043.5" y="-62" font-family="Helvetica,sans-Serif" font-size="10.00">memory</text>
</a>
</g>
</g>
<!-- Node16&#45;&gt;Node20 -->
<g id="edge21_Node000016_Node000020" class="edge">
<title>Node16&#45;&gt;Node20</title>
<g id="a_edge21_Node000016_Node000020"><a xlink:title=" ">
<path fill="none" stroke="#63b8ff" d="M954.53,-109.98C971.43,-101.54 997.56,-88.47 1017.14,-78.68"/>
<polygon fill="#63b8ff" stroke="#63b8ff" points="1018.78,-81.77 1026.16,-74.17 1015.65,-75.51 1018.78,-81.77"/>
</a>
</g>
</g>
<!-- Node22 -->
<g id="Node000022" class="node">
<title>Node22</title>
<g id="a_Node000022"><a xlink:title=" ">
<polygon fill="#e0e0e0" stroke="#999999" points="1184.5,-74 1128.5,-74 1128.5,-55 1184.5,-55 1184.5,-74"/>
<text text-anchor="middle" x="1156.5" y="-62" font-family="Helvetica,sans-Serif" font-size="10.00">sstream</text>
</a>
</g>
</g>
<!-- Node21&#45;&gt;Node22 -->
<g id="edge23_Node000021_Node000022" class="edge">
<title>Node21&#45;&gt;Node22</title>
<g id="a_edge23_Node000021_Node000022"><a xlink:title=" ">
<path fill="none" stroke="#63b8ff" d="M1156.5,-109.75C1156.5,-102.8 1156.5,-92.85 1156.5,-84.13"/>
<polygon fill="#63b8ff" stroke="#63b8ff" points="1160,-84.09 1156.5,-74.09 1153,-84.09 1160,-84.09"/>
</a>
</g>
</g>
<!-- Node23 -->
<g id="Node000023" class="node">
<title>Node23</title>
<g id="a_Node000023"><a xlink:title=" ">
<polygon fill="#e0e0e0" stroke="#999999" points="1268,-74 1203,-74 1203,-55 1268,-55 1268,-74"/>
<text text-anchor="middle" x="1235.5" y="-62" font-family="Helvetica,sans-Serif" font-size="10.00">stdexcept</text>
</a>
</g>
</g>
<!-- Node21&#45;&gt;Node23 -->
<g id="edge24_Node000021_Node000023" class="edge">
<title>Node21&#45;&gt;Node23</title>
<g id="a_edge24_Node000021_Node000023"><a xlink:title=" ">
<path fill="none" stroke="#63b8ff" d="M1169.19,-109.98C1181.33,-101.84 1199.86,-89.41 1214.25,-79.76"/>
<polygon fill="#63b8ff" stroke="#63b8ff" points="1216.22,-82.65 1222.58,-74.17 1212.32,-76.84 1216.22,-82.65"/>
</a>
</g>
</g>
</g>
</svg>

<g id="navigator" transform="translate(0 0)" fill="#404254">
  <rect fill="#f2f5e9" fill-opacity="0.5" stroke="#606060" stroke-width=".5" x="0" y="0" width="60" height="60"/>
  <use id="zoomplus" xlink:href="#zoomPlus" x="17" y="9" onmousedown="handleZoom(evt,'in')"/>
  <use id="zoomminus" xlink:href="#zoomMin" x="42" y="9" onmousedown="handleZoom(evt,'out')"/>
  <use id="reset" xlink:href="#resetDef" x="30" y="36" onmousedown="handleReset()"/>
   <use id="arrowup" xlink:href="#arrowUp" x="0" y="0" onmousedown="handlePan(0,-1)"/>
  <use id="arrowright" xlink:href="#arrowRight" x="0" y="0" onmousedown="handlePan(1,0)"/>
  <use id="arrowdown" xlink:href="#arrowDown" x="0" y="0" onmousedown="handlePan(0,1)"/>
  <use id="arrowleft" xlink:href="#arrowLeft" x="0" y="0" onmousedown="handlePan(-1,0)"/>
</g>
<svg viewBox="0 0 15 15" width="100%" height="30px" preserveAspectRatio="xMaxYMin meet">
 <g id="arrow_out" transform="scale(0.3 0.3)">
  <a xlink:href="PeerManager_8h__incl_org.svg" target="_base">
   <rect id="button" ry="5" rx="5" y="6" x="6" height="38" width="38"
        fill="#f2f5e9" fill-opacity="0.5" stroke="#606060" stroke-width="1.0"/>
   <path id="arrow"
     d="M 11.500037,31.436501 C 11.940474,20.09759 22.043105,11.32322 32.158766,21.979434 L 37.068811,17.246167 C 37.068811,17.246167 37.088388,32 37.088388,32 L 22.160133,31.978069 C 22.160133,31.978069 26.997745,27.140456 26.997745,27.140456 C 18.528582,18.264221 13.291696,25.230495 11.500037,31.436501 z"
     style="fill:#404040;"/>
  </a>
 </g>
</svg>

<style type='text/css'>
<![CDATA[
[data-mouse-over-selected='false'] { opacity: 0.7; }
[data-mouse-over-selected='true']  { opacity: 1.0; }
]]>
</style>
<script type="application/ecmascript"><![CDATA[
document.addEventListener('DOMContentLoaded', (event) => {
  highlightEdges();
  highlightAdjacentNodes();
});
]]></script>
</svg>
