<?xml version="1.0" encoding="UTF-8" standalone="no"?>
<!DOCTYPE svg PUBLIC "-//W3C//DTD SVG 1.1//EN"
 "http://www.w3.org/Graphics/SVG/1.1/DTD/svg11.dtd">
<!-- Generated by graphviz version 2.43.0 (0)
 -->
<!-- Title: /home/runner/work/Catena/Catena/sdks/cpp/lite/include/PolyglotText.h Pages: 1 -->
<svg width="367pt" height="362pt"
 viewBox="0.00 0.00 366.56 362.00" xmlns="http://www.w3.org/2000/svg" xmlns:xlink="http://www.w3.org/1999/xlink">
<g id="graph0" class="graph" transform="scale(1 1) rotate(0) translate(4 358)">
<title>/home/runner/work/Catena/Catena/sdks/cpp/lite/include/PolyglotText.h</title>
<polygon fill="white" stroke="transparent" points="-4,4 -4,-358 362.56,-358 362.56,4 -4,4"/>
<!-- Node1 -->
<g id="node1" class="node">
<title>Node1</title>
<g id="a_node1"><a xlink:title="Polyglot Text serialization and deserialization to protobuf.">
<polygon fill="#bfbfbf" stroke="black" points="175,-312.5 175,-353.5 332,-353.5 332,-312.5 175,-312.5"/>
<text text-anchor="start" x="183" y="-341.5" font-family="Helvetica,sans-Serif" font-size="10.00">/home/runner/work/Catena</text>
<text text-anchor="start" x="183" y="-330.5" font-family="Helvetica,sans-Serif" font-size="10.00">/Catena/sdks/cpp/lite/include</text>
<text text-anchor="middle" x="253.5" y="-319.5" font-family="Helvetica,sans-Serif" font-size="10.00">/PolyglotText.h</text>
</a>
</g>
</g>
<!-- Node2 -->
<g id="node2" class="node">
<title>Node2</title>
<g id="a_node2"><a xlink:href="NamedChoiceConstraint_8h.html" target="_top" xlink:title="A constraint that checks if a value is within some named choices.">
<polygon fill="white" stroke="black" points="0,-234.5 0,-275.5 157,-275.5 157,-234.5 0,-234.5"/>
<text text-anchor="start" x="8" y="-263.5" font-family="Helvetica,sans-Serif" font-size="10.00">/home/runner/work/Catena</text>
<text text-anchor="start" x="8" y="-252.5" font-family="Helvetica,sans-Serif" font-size="10.00">/Catena/sdks/cpp/lite/include</text>
<text text-anchor="middle" x="78.5" y="-241.5" font-family="Helvetica,sans-Serif" font-size="10.00">/NamedChoiceConstraint.h</text>
</a>
</g>
</g>
<!-- Node1&#45;&gt;Node2 -->
<g id="edge1" class="edge">
<title>Node1&#45;&gt;Node2</title>
<path fill="none" stroke="midnightblue" d="M198.99,-308.33C174.71,-297.78 146.46,-285.51 123.41,-275.51"/>
<polygon fill="midnightblue" stroke="midnightblue" points="197.87,-311.65 208.43,-312.43 200.65,-305.23 197.87,-311.65"/>
</g>
<!-- Node3 -->
<g id="node3" class="node">
<title>Node3</title>
<g id="a_node3"><a xlink:href="ParamDescriptor_8h_source.html" target="_top" xlink:title=" ">
<polygon fill="white" stroke="black" points="175,-234.5 175,-275.5 332,-275.5 332,-234.5 175,-234.5"/>
<text text-anchor="start" x="183" y="-263.5" font-family="Helvetica,sans-Serif" font-size="10.00">/home/runner/work/Catena</text>
<text text-anchor="start" x="183" y="-252.5" font-family="Helvetica,sans-Serif" font-size="10.00">/Catena/sdks/cpp/lite/include</text>
<text text-anchor="middle" x="253.5" y="-241.5" font-family="Helvetica,sans-Serif" font-size="10.00">/ParamDescriptor.h</text>
</a>
</g>
</g>
<!-- Node1&#45;&gt;Node3 -->
<g id="edge2" class="edge">
<title>Node1&#45;&gt;Node3</title>
<path fill="none" stroke="midnightblue" d="M253.5,-302.3C253.5,-293.3 253.5,-283.65 253.5,-275.51"/>
<polygon fill="midnightblue" stroke="midnightblue" points="250,-302.43 253.5,-312.43 257,-302.43 250,-302.43"/>
</g>
<!-- Node5 -->
<g id="node5" class="node">
<title>Node5</title>
<g id="a_node5"><a xlink:href="ParamWithValue_8h.html" target="_top" xlink:title="Interface for acessing parameter values.">
<polygon fill="white" stroke="black" points="190,-0.5 190,-41.5 347,-41.5 347,-0.5 190,-0.5"/>
<text text-anchor="start" x="198" y="-29.5" font-family="Helvetica,sans-Serif" font-size="10.00">/home/runner/work/Catena</text>
<text text-anchor="start" x="198" y="-18.5" font-family="Helvetica,sans-Serif" font-size="10.00">/Catena/sdks/cpp/lite/include</text>
<text text-anchor="middle" x="268.5" y="-7.5" font-family="Helvetica,sans-Serif" font-size="10.00">/ParamWithValue.h</text>
</a>
</g>
</g>
<!-- Node1&#45;&gt;Node5 -->
<g id="edge8" class="edge">
<title>Node1&#45;&gt;Node5</title>
<path fill="none" stroke="midnightblue" d="M311.01,-307.13C323.2,-299.04 334.49,-288.77 341.5,-276 362.1,-238.48 371.98,-181.96 322.5,-78 315.88,-64.1 304.45,-51.47 293.8,-41.74"/>
<polygon fill="midnightblue" stroke="midnightblue" points="309.15,-304.16 302.46,-312.38 312.81,-310.12 309.15,-304.16"/>
</g>
<!-- Node4 -->
<g id="node4" class="node">
<title>Node4</title>
<g id="a_node4"><a xlink:href="AuthzInfo_8h.html" target="_top" xlink:title="Class for handling authorization information.">
<polygon fill="white" stroke="black" points="137,-156.5 137,-197.5 294,-197.5 294,-156.5 137,-156.5"/>
<text text-anchor="start" x="145" y="-185.5" font-family="Helvetica,sans-Serif" font-size="10.00">/home/runner/work/Catena</text>
<text text-anchor="start" x="145" y="-174.5" font-family="Helvetica,sans-Serif" font-size="10.00">/Catena/sdks/cpp/lite/include</text>
<text text-anchor="middle" x="215.5" y="-163.5" font-family="Helvetica,sans-Serif" font-size="10.00">/AuthzInfo.h</text>
</a>
</g>
</g>
<!-- Node3&#45;&gt;Node4 -->
<g id="edge3" class="edge">
<title>Node3&#45;&gt;Node4</title>
<path fill="none" stroke="midnightblue" d="M239.23,-225.47C234.57,-216.14 229.5,-206.01 225.25,-197.51"/>
<polygon fill="midnightblue" stroke="midnightblue" points="236.11,-227.05 243.71,-234.43 242.37,-223.92 236.11,-227.05"/>
</g>
<!-- Node3&#45;&gt;Node5 -->
<g id="edge7" class="edge">
<title>Node3&#45;&gt;Node5</title>
<path fill="none" stroke="midnightblue" d="M283.93,-227.07C291.45,-218.6 298.5,-208.65 302.5,-198 321.26,-148.07 316.87,-129.36 302.5,-78 298.85,-64.97 291.25,-51.95 284.16,-41.75"/>
<polygon fill="midnightblue" stroke="midnightblue" points="281.31,-224.74 276.96,-234.41 286.39,-229.56 281.31,-224.74"/>
</g>
<!-- Node4&#45;&gt;Node5 -->
<g id="edge4" class="edge">
<title>Node4&#45;&gt;Node5</title>
<path fill="none" stroke="midnightblue" d="M157.99,-151.13C145.8,-143.04 134.51,-132.77 127.5,-120 118.52,-103.64 117.02,-93.44 127.5,-78 141.92,-56.75 165.81,-43.57 189.87,-35.38"/>
<polygon fill="midnightblue" stroke="midnightblue" points="156.19,-154.12 166.54,-156.38 159.85,-148.16 156.19,-154.12"/>
</g>
<!-- Node6 -->
<g id="node6" class="node">
<title>Node6</title>
<g id="a_node6"><a xlink:href="StructInfo_8h.html" target="_top" xlink:title="Structured data serialization and deserialization to protobuf.">
<polygon fill="white" stroke="black" points="137,-78.5 137,-119.5 294,-119.5 294,-78.5 137,-78.5"/>
<text text-anchor="start" x="145" y="-107.5" font-family="Helvetica,sans-Serif" font-size="10.00">/home/runner/work/Catena</text>
<text text-anchor="start" x="145" y="-96.5" font-family="Helvetica,sans-Serif" font-size="10.00">/Catena/sdks/cpp/lite/include</text>
<text text-anchor="middle" x="215.5" y="-85.5" font-family="Helvetica,sans-Serif" font-size="10.00">/StructInfo.h</text>
</a>
</g>
</g>
<!-- Node4&#45;&gt;Node6 -->
<g id="edge5" class="edge">
<title>Node4&#45;&gt;Node6</title>
<path fill="none" stroke="midnightblue" d="M215.5,-146.3C215.5,-137.3 215.5,-127.65 215.5,-119.51"/>
<polygon fill="midnightblue" stroke="midnightblue" points="212,-146.43 215.5,-156.43 219,-146.43 212,-146.43"/>
</g>
<!-- Node6&#45;&gt;Node5 -->
<g id="edge6" class="edge">
<title>Node6&#45;&gt;Node5</title>
<path fill="none" stroke="midnightblue" d="M234.99,-70.05C241.61,-60.57 248.84,-50.18 254.9,-41.51"/>
<polygon fill="midnightblue" stroke="midnightblue" points="232,-68.22 229.15,-78.43 237.74,-72.23 232,-68.22"/>
</g>
</g>
</svg>
