<?xml version="1.0" encoding="UTF-8" standalone="no"?>
<!DOCTYPE svg PUBLIC "-//W3C//DTD SVG 1.1//EN"
 "http://www.w3.org/Graphics/SVG/1.1/DTD/svg11.dtd">
<!-- Generated by graphviz version 2.43.0 (0)
 -->
<!-- Title: /home/runner/work/Catena/Catena/sdks/cpp/common/include/RangeConstraint.h Pages: 1 -->
<!--zoomable 434 -->

<svg id="main" version="1.1" xmlns="http://www.w3.org/2000/svg" xmlns:xlink="http://www.w3.org/1999/xlink" xml:space="preserve" onload="init(evt)">
<style type="text/css"><![CDATA[
.node, .edge {opacity: 0.7;}
.node.selected, .edge.selected {opacity: 1;}
.edge:hover path { stroke: red; }
.edge:hover polygon { stroke: red; fill: red; }
]]></style>

<defs>
  <circle id="rim" cx="0" cy="0" r="7"/>
  <circle id="rim2" cx="0" cy="0" r="3.5"/>
  <g id="zoomPlus">
    <use xlink:href="#rim" fill="#404040"><set attributeName="fill" to="#808080" begin="zoomplus.mouseover" end="zoomplus.mouseout"/></use>
    <path d="M-4,0h8M0,-4v8" fill="none" stroke="white" stroke-width="1.5" pointer-events="none"/>
  </g>
  <g id="zoomMin">
    <use xlink:href="#rim" fill="#404040"><set attributeName="fill" to="#808080" begin="zoomminus.mouseover" end="zoomminus.mouseout"/></use>
    <path d="M-4,0h8" fill="none" stroke="white" stroke-width="1.5" pointer-events="none"/>
  </g>
  <g id="arrowUp" transform="translate(30 24)">
    <use xlink:href="#rim"/>
    <path pointer-events="none" fill="none" stroke="white" stroke-width="1.5" d="M0,-3.0v7 M-2.5,-0.5L0,-3.0L2.5,-0.5"/>
  </g>
  <g id="arrowRight" transform="rotate(90) translate(36 -43)">
    <use xlink:href="#rim"/>
    <path pointer-events="none" fill="none" stroke="white" stroke-width="1.5" d="M0,-3.0v7 M-2.5,-0.5L0,-3.0L2.5,-0.5"/>
  </g>
  <g id="arrowDown" transform="rotate(180) translate(-30 -48)">
    <use xlink:href="#rim"/>
    <path pointer-events="none" fill="none" stroke="white" stroke-width="1.5" d="M0,-3.0v7 M-2.5,-0.5L0,-3.0L2.5,-0.5"/>
  </g>
  <g id="arrowLeft" transform="rotate(270) translate(-36 17)">
    <use xlink:href="#rim"/>
    <path pointer-events="none" fill="none" stroke="white" stroke-width="1.5" d="M0,-3.0v7 M-2.5,-0.5L0,-3.0L2.5,-0.5"/>
  </g>
  <g id="resetDef">
    <use xlink:href="#rim2" fill="#404040"><set attributeName="fill" to="#808080" begin="reset.mouseover" end="reset.mouseout"/></use>
  </g>
</defs>
<script type="application/ecmascript">
var viewWidth = 1419;
var viewHeight = 434;
var sectionId = 'dynsection-0';
</script>
<script type="application/ecmascript" xlink:href="svg.min.js"/>
<svg id="graph" class="graph">
<g id="viewport">
<title>/home/runner/work/Catena/Catena/sdks/cpp/common/include/RangeConstraint.h</title>
<!-- Node1 -->
<g id="Node000001" class="node">
<title>Node1</title>
<g id="a_Node000001"><a xlink:title="A constraint that checks if a value is within a range.">
<polygon fill="#999999" stroke="#666666" points="531,-426 383,-426 383,-385 531,-385 531,-426"/>
<text text-anchor="start" x="391" y="-414" font-family="Helvetica,sans-Serif" font-size="10.00">/home/runner/work/Catena</text>
<text text-anchor="start" x="391" y="-403" font-family="Helvetica,sans-Serif" font-size="10.00">/Catena/sdks/cpp/common</text>
<text text-anchor="middle" x="457" y="-392" font-family="Helvetica,sans-Serif" font-size="10.00">/include/RangeConstraint.h</text>
</a>
</g>
</g>
<!-- Node2 -->
<g id="Node000002" class="node">
<title>Node2</title>
<g id="a_Node000002"><a xlink:href="IConstraint_8h.html" target="_top" xlink:title="Interface for constraints.">
<polygon fill="white" stroke="#666666" points="505.5,-184 426.5,-184 426.5,-165 505.5,-165 505.5,-184"/>
<text text-anchor="middle" x="466" y="-172" font-family="Helvetica,sans-Serif" font-size="10.00">IConstraint.h</text>
</a>
</g>
</g>
<!-- Node1&#45;&gt;Node2 -->
<g id="edge1_Node000001_Node000002" class="edge">
<title>Node1&#45;&gt;Node2</title>
<g id="a_edge1_Node000001_Node000002"><a xlink:title=" ">
<path fill="none" stroke="#63b8ff" d="M457.77,-384.98C459.47,-341.58 463.56,-237.56 465.25,-194.58"/>
<polygon fill="#63b8ff" stroke="#63b8ff" points="468.75,-194.52 465.65,-184.39 461.76,-194.25 468.75,-194.52"/>
</a>
</g>
</g>
<!-- Node5 -->
<g id="Node000005" class="node">
<title>Node5</title>
<g id="a_Node000005"><a xlink:href="Tags_8h.html" target="_top" xlink:title="Tags to differentiate collections with the same type for template specialization.">
<polygon fill="white" stroke="#666666" points="162.5,-129 115.5,-129 115.5,-110 162.5,-110 162.5,-129"/>
<text text-anchor="middle" x="139" y="-117" font-family="Helvetica,sans-Serif" font-size="10.00">Tags.h</text>
</a>
</g>
</g>
<!-- Node1&#45;&gt;Node5 -->
<g id="edge4_Node000001_Node000005" class="edge">
<title>Node1&#45;&gt;Node5</title>
<g id="a_edge4_Node000001_Node000005"><a xlink:title=" ">
<path fill="none" stroke="#63b8ff" d="M382.85,-399.99C256.03,-390.23 11,-361.53 11,-285.5 11,-285.5 11,-285.5 11,-228.5 11,-178.99 67.63,-147.56 105.56,-132.06"/>
<polygon fill="#63b8ff" stroke="#63b8ff" points="107.18,-135.19 115.22,-128.29 104.64,-128.67 107.18,-135.19"/>
</a>
</g>
</g>
<!-- Node8 -->
<g id="Node000008" class="node">
<title>Node8</title>
<g id="a_Node000008"><a xlink:href="IDevice_8h.html" target="_top" xlink:title="Interface for device.">
<polygon fill="white" stroke="#666666" points="890,-349 828,-349 828,-330 890,-330 890,-349"/>
<text text-anchor="middle" x="859" y="-337" font-family="Helvetica,sans-Serif" font-size="10.00">IDevice.h</text>
</a>
</g>
</g>
<!-- Node1&#45;&gt;Node8 -->
<g id="edge7_Node000001_Node000008" class="edge">
<title>Node1&#45;&gt;Node8</title>
<g id="a_edge7_Node000001_Node000008"><a xlink:title=" ">
<path fill="none" stroke="#63b8ff" d="M531.2,-392.69C615.4,-379.28 749.78,-357.89 817.34,-347.13"/>
<polygon fill="#63b8ff" stroke="#63b8ff" points="818.27,-350.53 827.59,-345.5 817.17,-343.62 818.27,-350.53"/>
</a>
</g>
</g>
<!-- Node37 -->
<g id="Node000037" class="node">
<title>Node37</title>
<g id="a_Node000037"><a xlink:title=" ">
<polygon fill="#e0e0e0" stroke="#999999" points="955.5,-349 908.5,-349 908.5,-330 955.5,-330 955.5,-349"/>
<text text-anchor="middle" x="932" y="-337" font-family="Helvetica,sans-Serif" font-size="10.00">cmath</text>
</a>
</g>
</g>
<!-- Node1&#45;&gt;Node37 -->
<g id="edge56_Node000001_Node000037" class="edge">
<title>Node1&#45;&gt;Node37</title>
<g id="a_edge56_Node000001_Node000037"><a xlink:title=" ">
<path fill="none" stroke="#63b8ff" d="M531.36,-398.08C617.41,-389.99 763.46,-374.25 898.2,-348.91"/>
<polygon fill="#63b8ff" stroke="#63b8ff" points="899.12,-352.3 908.29,-346.99 897.81,-345.42 899.12,-352.3"/>
</a>
</g>
</g>
<!-- Node3 -->
<g id="Node000003" class="node">
<title>Node3</title>
<g id="a_Node000003"><a xlink:title=" ">
<polygon fill="#e0e0e0" stroke="#999999" points="404.5,-129 285.5,-129 285.5,-110 404.5,-110 404.5,-129"/>
<text text-anchor="middle" x="345" y="-117" font-family="Helvetica,sans-Serif" font-size="10.00">interface/param.pb.h</text>
</a>
</g>
</g>
<!-- Node2&#45;&gt;Node3 -->
<g id="edge2_Node000002_Node000003" class="edge">
<title>Node2&#45;&gt;Node3</title>
<g id="a_edge2_Node000002_Node000003"><a xlink:title=" ">
<path fill="none" stroke="#63b8ff" d="M446.56,-164.98C427.01,-156.42 396.62,-143.11 374.18,-133.28"/>
<polygon fill="#63b8ff" stroke="#63b8ff" points="375.36,-129.98 364.79,-129.17 372.55,-136.39 375.36,-129.98"/>
</a>
</g>
</g>
<!-- Node4 -->
<g id="Node000004" class="node">
<title>Node4</title>
<g id="a_Node000004"><a xlink:title=" ">
<polygon fill="#e0e0e0" stroke="#999999" points="559,-129 423,-129 423,-110 559,-110 559,-129"/>
<text text-anchor="middle" x="491" y="-117" font-family="Helvetica,sans-Serif" font-size="10.00">interface/constraint.pb.h</text>
</a>
</g>
</g>
<!-- Node2&#45;&gt;Node4 -->
<g id="edge3_Node000002_Node000004" class="edge">
<title>Node2&#45;&gt;Node4</title>
<g id="a_edge3_Node000002_Node000004"><a xlink:title=" ">
<path fill="none" stroke="#63b8ff" d="M470.13,-164.75C473.51,-157.57 478.42,-147.18 482.62,-138.27"/>
<polygon fill="#63b8ff" stroke="#63b8ff" points="485.85,-139.63 486.95,-129.09 479.52,-136.64 485.85,-139.63"/>
</a>
</g>
</g>
<!-- Node6 -->
<g id="Node000006" class="node">
<title>Node6</title>
<g id="a_Node000006"><a xlink:title=" ">
<polygon fill="#e0e0e0" stroke="#999999" points="181.5,-74 116.5,-74 116.5,-55 181.5,-55 181.5,-74"/>
<text text-anchor="middle" x="149" y="-62" font-family="Helvetica,sans-Serif" font-size="10.00">functional</text>
</a>
</g>
</g>
<!-- Node5&#45;&gt;Node6 -->
<g id="edge5_Node000005_Node000006" class="edge">
<title>Node5&#45;&gt;Node6</title>
<g id="a_edge5_Node000005_Node000006"><a xlink:title=" ">
<path fill="none" stroke="#63b8ff" d="M140.65,-109.75C141.96,-102.8 143.84,-92.85 145.48,-84.13"/>
<polygon fill="#63b8ff" stroke="#63b8ff" points="148.96,-84.56 147.38,-74.09 142.09,-83.27 148.96,-84.56"/>
</a>
</g>
</g>
<!-- Node7 -->
<g id="Node000007" class="node">
<title>Node7</title>
<g id="a_Node000007"><a xlink:title=" ">
<polygon fill="#e0e0e0" stroke="#999999" points="679,-19 635,-19 635,0 679,0 679,-19"/>
<text text-anchor="middle" x="657" y="-7" font-family="Helvetica,sans-Serif" font-size="10.00">string</text>
</a>
</g>
</g>
<!-- Node5&#45;&gt;Node7 -->
<g id="edge6_Node000005_Node000007" class="edge">
<title>Node5&#45;&gt;Node7</title>
<g id="a_edge6_Node000005_Node000007"><a xlink:title=" ">
<path fill="none" stroke="#63b8ff" d="M162.73,-112.1C165.84,-111.34 168.99,-110.62 172,-110 272.89,-89.13 301.26,-99.8 401,-74 424.82,-67.84 429.37,-61.86 453,-55 512.76,-37.65 584.1,-23.56 624.62,-16.16"/>
<polygon fill="#63b8ff" stroke="#63b8ff" points="625.5,-19.56 634.72,-14.34 624.25,-12.67 625.5,-19.56"/>
</a>
</g>
</g>
<!-- Node8&#45;&gt;Node7 -->
<g id="edge52_Node000008_Node000007" class="edge">
<title>Node8&#45;&gt;Node7</title>
<g id="a_edge52_Node000008_Node000007"><a xlink:title=" ">
<path fill="none" stroke="#63b8ff" d="M890.29,-331.75C893.56,-331.12 896.85,-330.53 900,-330 1014.11,-310.94 1411,-346.19 1411,-230.5 1411,-230.5 1411,-230.5 1411,-118.5 1411,-44.47 834.15,-17.32 689.56,-11.68"/>
<polygon fill="#63b8ff" stroke="#63b8ff" points="689.28,-8.16 679.16,-11.28 689.02,-15.16 689.28,-8.16"/>
</a>
</g>
</g>
<!-- Node9 -->
<g id="Node000009" class="node">
<title>Node9</title>
<g id="a_Node000009"><a xlink:href="Authorization_8h.html" target="_top" xlink:title="Class for handling authorization information.">
<polygon fill="white" stroke="#666666" points="673.5,-294 582.5,-294 582.5,-275 673.5,-275 673.5,-294"/>
<text text-anchor="middle" x="628" y="-282" font-family="Helvetica,sans-Serif" font-size="10.00">Authorization.h</text>
</a>
</g>
</g>
<!-- Node8&#45;&gt;Node9 -->
<g id="edge8_Node000008_Node000009" class="edge">
<title>Node8&#45;&gt;Node9</title>
<g id="a_edge8_Node000008_Node000009"><a xlink:title=" ">
<path fill="none" stroke="#63b8ff" d="M827.85,-331.35C788.58,-322.34 720.7,-306.77 675.09,-296.3"/>
<polygon fill="#63b8ff" stroke="#63b8ff" points="675.67,-292.85 665.14,-294.02 674.1,-299.67 675.67,-292.85"/>
</a>
</g>
</g>
<!-- Node16 -->
<g id="Node000016" class="node">
<title>Node16</title>
<g id="a_Node000016"><a xlink:title=" ">
<polygon fill="#e0e0e0" stroke="#999999" points="896.5,-129 777.5,-129 777.5,-110 896.5,-110 896.5,-129"/>
<text text-anchor="middle" x="837" y="-117" font-family="Helvetica,sans-Serif" font-size="10.00">interface/device.pb.h</text>
</a>
</g>
</g>
<!-- Node8&#45;&gt;Node16 -->
<g id="edge51_Node000008_Node000016" class="edge">
<title>Node8&#45;&gt;Node16</title>
<g id="a_edge51_Node000008_Node000016"><a xlink:title=" ">
<path fill="none" stroke="#63b8ff" d="M857.74,-329.98C856.45,-321.04 854.42,-306.55 853,-294 846.62,-237.79 841.02,-171.1 838.47,-139.25"/>
<polygon fill="#63b8ff" stroke="#63b8ff" points="841.95,-138.87 837.67,-129.18 834.97,-139.42 841.95,-138.87"/>
</a>
</g>
</g>
<!-- Node17 -->
<g id="Node000017" class="node">
<title>Node17</title>
<g id="a_Node000017"><a xlink:href="IParam_8h.html" target="_top" xlink:title="Interface for parameters.">
<polygon fill="white" stroke="#666666" points="569.5,-239 510.5,-239 510.5,-220 569.5,-220 569.5,-239"/>
<text text-anchor="middle" x="540" y="-227" font-family="Helvetica,sans-Serif" font-size="10.00">IParam.h</text>
</a>
</g>
</g>
<!-- Node8&#45;&gt;Node17 -->
<g id="edge45_Node000008_Node000017" class="edge">
<title>Node8&#45;&gt;Node17</title>
<g id="a_edge45_Node000008_Node000017"><a xlink:title=" ">
<path fill="none" stroke="#63b8ff" d="M827.97,-337.1C762.81,-333.62 614.44,-322.69 574,-294 558.88,-283.28 549.87,-263.68 544.97,-249.09"/>
<polygon fill="#63b8ff" stroke="#63b8ff" points="548.21,-247.7 541.98,-239.13 541.5,-249.71 548.21,-247.7"/>
</a>
</g>
</g>
<!-- Node23 -->
<g id="Node000023" class="node">
<title>Node23</title>
<g id="a_Node000023"><a xlink:href="Path_8h.html" target="_top" xlink:title="Handles Path objects used to uniquely identify and access OIDs.">
<polygon fill="white" stroke="#666666" points="1042.5,-184 995.5,-184 995.5,-165 1042.5,-165 1042.5,-184"/>
<text text-anchor="middle" x="1019" y="-172" font-family="Helvetica,sans-Serif" font-size="10.00">Path.h</text>
</a>
</g>
</g>
<!-- Node8&#45;&gt;Node23 -->
<g id="edge44_Node000008_Node000023" class="edge">
<title>Node8&#45;&gt;Node23</title>
<g id="a_edge44_Node000008_Node000023"><a xlink:title=" ">
<path fill="none" stroke="#63b8ff" d="M858.04,-329.78C856.2,-308.24 854.53,-251.99 883,-220 908.97,-190.82 954.34,-180.7 985.48,-177.23"/>
<polygon fill="#63b8ff" stroke="#63b8ff" points="985.82,-180.71 995.45,-176.29 985.17,-173.74 985.82,-180.71"/>
</a>
</g>
</g>
<!-- Node25 -->
<g id="Node000025" class="node">
<title>Node25</title>
<g id="a_Node000025"><a xlink:title=" ">
<polygon fill="#e0e0e0" stroke="#999999" points="1224.5,-129 1177.5,-129 1177.5,-110 1224.5,-110 1224.5,-129"/>
<text text-anchor="middle" x="1201" y="-117" font-family="Helvetica,sans-Serif" font-size="10.00">vector</text>
</a>
</g>
</g>
<!-- Node8&#45;&gt;Node25 -->
<g id="edge53_Node000008_Node000025" class="edge">
<title>Node8&#45;&gt;Node25</title>
<g id="a_edge53_Node000008_Node000025"><a xlink:title=" ">
<path fill="none" stroke="#63b8ff" d="M890.3,-331.78C893.57,-331.15 896.85,-330.54 900,-330 957.92,-320.03 1118.72,-333.76 1162,-294 1205.9,-253.66 1205.76,-175.46 1203.04,-139.47"/>
<polygon fill="#63b8ff" stroke="#63b8ff" points="1206.52,-139.01 1202.12,-129.37 1199.55,-139.64 1206.52,-139.01"/>
</a>
</g>
</g>
<!-- Node28 -->
<g id="Node000028" class="node">
<title>Node28</title>
<g id="a_Node000028"><a xlink:href="Status_8h.html" target="_top" xlink:title="Communicates failure status using gRPC&#39;s codes.">
<polygon fill="white" stroke="#666666" points="1287,-184 1231,-184 1231,-165 1287,-165 1287,-184"/>
<text text-anchor="middle" x="1259" y="-172" font-family="Helvetica,sans-Serif" font-size="10.00">Status.h</text>
</a>
</g>
</g>
<!-- Node8&#45;&gt;Node28 -->
<g id="edge49_Node000008_Node000028" class="edge">
<title>Node8&#45;&gt;Node28</title>
<g id="a_edge49_Node000008_Node000028"><a xlink:title=" ">
<path fill="none" stroke="#63b8ff" d="M864.65,-329.7C873.92,-315.97 893.68,-289.52 917,-275 1015.91,-213.42 1154.49,-188.59 1220.76,-179.77"/>
<polygon fill="#63b8ff" stroke="#63b8ff" points="1221.29,-183.23 1230.76,-178.49 1220.4,-176.28 1221.29,-183.23"/>
</a>
</g>
</g>
<!-- Node33 -->
<g id="Node000033" class="node">
<title>Node33</title>
<g id="a_Node000033"><a xlink:href="ILanguagePack_8h.html" target="_top" xlink:title="Interface for language packs.">
<polygon fill="white" stroke="#666666" points="98,-74 0,-74 0,-55 98,-55 98,-74"/>
<text text-anchor="middle" x="49" y="-62" font-family="Helvetica,sans-Serif" font-size="10.00">ILanguagePack.h</text>
</a>
</g>
</g>
<!-- Node8&#45;&gt;Node33 -->
<g id="edge46_Node000008_Node000033" class="edge">
<title>Node8&#45;&gt;Node33</title>
<g id="a_edge46_Node000008_Node000033"><a xlink:title=" ">
<path fill="none" stroke="#63b8ff" d="M827.74,-337.69C678.88,-333.41 49,-310.57 49,-230.5 49,-230.5 49,-230.5 49,-173.5 49,-142.19 49,-105.77 49,-84.23"/>
<polygon fill="#63b8ff" stroke="#63b8ff" points="52.5,-84.18 49,-74.18 45.5,-84.18 52.5,-84.18"/>
</a>
</g>
</g>
<!-- Node34 -->
<g id="Node000034" class="node">
<title>Node34</title>
<g id="a_Node000034"><a xlink:title=" ">
<polygon fill="#e0e0e0" stroke="#999999" points="1006.5,-294 925.5,-294 925.5,-275 1006.5,-275 1006.5,-294"/>
<text text-anchor="middle" x="966" y="-282" font-family="Helvetica,sans-Serif" font-size="10.00">vdk/signals.h</text>
</a>
</g>
</g>
<!-- Node8&#45;&gt;Node34 -->
<g id="edge50_Node000008_Node000034" class="edge">
<title>Node8&#45;&gt;Node34</title>
<g id="a_edge50_Node000008_Node000034"><a xlink:title=" ">
<path fill="none" stroke="#63b8ff" d="M876.19,-329.98C893.25,-321.54 919.63,-308.47 939.4,-298.68"/>
<polygon fill="#63b8ff" stroke="#63b8ff" points="941.09,-301.75 948.5,-294.17 937.98,-295.47 941.09,-301.75"/>
</a>
</g>
</g>
<!-- Node35 -->
<g id="Node000035" class="node">
<title>Node35</title>
<g id="a_Node000035"><a xlink:title=" ">
<polygon fill="#e0e0e0" stroke="#999999" points="1087,-294 1025,-294 1025,-275 1087,-275 1087,-294"/>
<text text-anchor="middle" x="1056" y="-282" font-family="Helvetica,sans-Serif" font-size="10.00">coroutine</text>
</a>
</g>
</g>
<!-- Node8&#45;&gt;Node35 -->
<g id="edge54_Node000008_Node000035" class="edge">
<title>Node8&#45;&gt;Node35</title>
<g id="a_edge54_Node000008_Node000035"><a xlink:title=" ">
<path fill="none" stroke="#63b8ff" d="M890.22,-330.1C923.93,-321.03 977.8,-306.54 1014.93,-296.55"/>
<polygon fill="#63b8ff" stroke="#63b8ff" points="1016.18,-299.84 1024.93,-293.86 1014.36,-293.08 1016.18,-299.84"/>
</a>
</g>
</g>
<!-- Node36 -->
<g id="Node000036" class="node">
<title>Node36</title>
<g id="a_Node000036"><a xlink:title=" ">
<polygon fill="#e0e0e0" stroke="#999999" points="1153,-294 1105,-294 1105,-275 1153,-275 1153,-294"/>
<text text-anchor="middle" x="1129" y="-282" font-family="Helvetica,sans-Serif" font-size="10.00">mutex</text>
</a>
</g>
</g>
<!-- Node8&#45;&gt;Node36 -->
<g id="edge55_Node000008_Node000036" class="edge">
<title>Node8&#45;&gt;Node36</title>
<g id="a_edge55_Node000008_Node000036"><a xlink:title=" ">
<path fill="none" stroke="#63b8ff" d="M890.32,-331.93C893.59,-331.27 896.86,-330.61 900,-330 983.87,-313.61 1007.84,-313.08 1095.1,-294.07"/>
<polygon fill="#63b8ff" stroke="#63b8ff" points="1095.88,-297.48 1104.9,-291.92 1094.38,-290.65 1095.88,-297.48"/>
</a>
</g>
</g>
<!-- Node9&#45;&gt;Node6 -->
<g id="edge42_Node000009_Node000006" class="edge">
<title>Node9&#45;&gt;Node6</title>
<g id="a_edge42_Node000009_Node000006"><a xlink:title=" ">
<path fill="none" stroke="#63b8ff" d="M582.19,-277.06C465.69,-259.63 163.33,-207.53 106,-129 94.03,-112.61 111.56,-93.22 127.7,-80.22"/>
<polygon fill="#63b8ff" stroke="#63b8ff" points="129.99,-82.88 135.86,-74.05 125.77,-77.3 129.99,-82.88"/>
</a>
</g>
</g>
<!-- Node10 -->
<g id="Node000010" class="node">
<title>Node10</title>
<g id="a_Node000010"><a xlink:href="Enums_8h.html" target="_top" xlink:title="tools for using EnumDecorators.">
<polygon fill="white" stroke="#666666" points="775.5,-184 716.5,-184 716.5,-165 775.5,-165 775.5,-184"/>
<text text-anchor="middle" x="746" y="-172" font-family="Helvetica,sans-Serif" font-size="10.00">Enums.h</text>
</a>
</g>
</g>
<!-- Node9&#45;&gt;Node10 -->
<g id="edge9_Node000009_Node000010" class="edge">
<title>Node9&#45;&gt;Node10</title>
<g id="a_edge9_Node000009_Node000010"><a xlink:title=" ">
<path fill="none" stroke="#63b8ff" d="M665.58,-274.86C686.35,-268.27 711.1,-257.14 727,-239 737.78,-226.69 742.45,-208.47 744.47,-194.7"/>
<polygon fill="#63b8ff" stroke="#63b8ff" points="747.98,-194.73 745.61,-184.4 741.03,-193.95 747.98,-194.73"/>
</a>
</g>
</g>
<!-- Node9&#45;&gt;Node17 -->
<g id="edge18_Node000009_Node000017" class="edge">
<title>Node9&#45;&gt;Node17</title>
<g id="a_edge18_Node000009_Node000017"><a xlink:title=" ">
<path fill="none" stroke="#63b8ff" d="M613.86,-274.98C600.21,-266.77 579.31,-254.18 563.22,-244.49"/>
<polygon fill="#63b8ff" stroke="#63b8ff" points="564.77,-241.33 554.4,-239.17 561.16,-247.33 564.77,-241.33"/>
</a>
</g>
</g>
<!-- Node18 -->
<g id="Node000018" class="node">
<title>Node18</title>
<g id="a_Node000018"><a xlink:href="IParamDescriptor_8h.html" target="_top" xlink:title="Interface class for ParamDescriptor.">
<polygon fill="white" stroke="#666666" points="399.5,-184 290.5,-184 290.5,-165 399.5,-165 399.5,-184"/>
<text text-anchor="middle" x="345" y="-172" font-family="Helvetica,sans-Serif" font-size="10.00">IParamDescriptor.h</text>
</a>
</g>
</g>
<!-- Node9&#45;&gt;Node18 -->
<g id="edge40_Node000009_Node000018" class="edge">
<title>Node9&#45;&gt;Node18</title>
<g id="a_edge40_Node000009_Node000018"><a xlink:title=" ">
<path fill="none" stroke="#63b8ff" d="M602.78,-274.96C577.25,-266.24 536.71,-252.14 502,-239 457.34,-222.09 406.15,-201.08 374.69,-187.97"/>
<polygon fill="#63b8ff" stroke="#63b8ff" points="375.79,-184.64 365.21,-184.01 373.09,-191.1 375.79,-184.64"/>
</a>
</g>
</g>
<!-- Node31 -->
<g id="Node000031" class="node">
<title>Node31</title>
<g id="a_Node000031"><a xlink:title=" ">
<polygon fill="#e0e0e0" stroke="#999999" points="668,-239 588,-239 588,-220 668,-220 668,-239"/>
<text text-anchor="middle" x="628" y="-227" font-family="Helvetica,sans-Serif" font-size="10.00">jwt&#45;cpp/jwt.h</text>
</a>
</g>
</g>
<!-- Node9&#45;&gt;Node31 -->
<g id="edge41_Node000009_Node000031" class="edge">
<title>Node9&#45;&gt;Node31</title>
<g id="a_edge41_Node000009_Node000031"><a xlink:title=" ">
<path fill="none" stroke="#63b8ff" d="M628,-274.75C628,-267.8 628,-257.85 628,-249.13"/>
<polygon fill="#63b8ff" stroke="#63b8ff" points="631.5,-249.09 628,-239.09 624.5,-249.09 631.5,-249.09"/>
</a>
</g>
</g>
<!-- Node32 -->
<g id="Node000032" class="node">
<title>Node32</title>
<g id="a_Node000032"><a xlink:title=" ">
<polygon fill="#e0e0e0" stroke="#999999" points="718,-239 686,-239 686,-220 718,-220 718,-239"/>
<text text-anchor="middle" x="702" y="-227" font-family="Helvetica,sans-Serif" font-size="10.00">set</text>
</a>
</g>
</g>
<!-- Node9&#45;&gt;Node32 -->
<g id="edge43_Node000009_Node000032" class="edge">
<title>Node9&#45;&gt;Node32</title>
<g id="a_edge43_Node000009_Node000032"><a xlink:title=" ">
<path fill="none" stroke="#63b8ff" d="M639.89,-274.98C651.15,-266.92 668.29,-254.65 681.71,-245.03"/>
<polygon fill="#63b8ff" stroke="#63b8ff" points="683.8,-247.84 689.89,-239.17 679.73,-242.15 683.8,-247.84"/>
</a>
</g>
</g>
<!-- Node11 -->
<g id="Node000011" class="node">
<title>Node11</title>
<g id="a_Node000011"><a xlink:href="EnumDecorator_8h.html" target="_top" xlink:title="Provides an enum with useful extra functionality.">
<polygon fill="white" stroke="#666666" points="721,-129 577,-129 577,-110 721,-110 721,-129"/>
<text text-anchor="middle" x="649" y="-117" font-family="Helvetica,sans-Serif" font-size="10.00">patterns/EnumDecorator.h</text>
</a>
</g>
</g>
<!-- Node10&#45;&gt;Node11 -->
<g id="edge10_Node000010_Node000011" class="edge">
<title>Node10&#45;&gt;Node11</title>
<g id="a_edge10_Node000010_Node000011"><a xlink:title=" ">
<path fill="none" stroke="#63b8ff" d="M730.42,-164.98C715.23,-156.69 691.9,-143.94 674.1,-134.22"/>
<polygon fill="#63b8ff" stroke="#63b8ff" points="675.32,-130.89 664.87,-129.17 671.97,-137.04 675.32,-130.89"/>
</a>
</g>
</g>
<!-- Node13 -->
<g id="Node000013" class="node">
<title>Node13</title>
<g id="a_Node000013"><a xlink:title=" ">
<polygon fill="#e0e0e0" stroke="#999999" points="771,-74 721,-74 721,-55 771,-55 771,-74"/>
<text text-anchor="middle" x="746" y="-62" font-family="Helvetica,sans-Serif" font-size="10.00">cstdint</text>
</a>
</g>
</g>
<!-- Node10&#45;&gt;Node13 -->
<g id="edge17_Node000010_Node000013" class="edge">
<title>Node10&#45;&gt;Node13</title>
<g id="a_edge17_Node000010_Node000013"><a xlink:title=" ">
<path fill="none" stroke="#63b8ff" d="M746,-164.66C746,-147.17 746,-107.8 746,-84.27"/>
<polygon fill="#63b8ff" stroke="#63b8ff" points="749.5,-84.16 746,-74.16 742.5,-84.16 749.5,-84.16"/>
</a>
</g>
</g>
<!-- Node10&#45;&gt;Node16 -->
<g id="edge16_Node000010_Node000016" class="edge">
<title>Node10&#45;&gt;Node16</title>
<g id="a_edge16_Node000010_Node000016"><a xlink:title=" ">
<path fill="none" stroke="#63b8ff" d="M760.62,-164.98C774.86,-156.69 796.75,-143.94 813.45,-134.22"/>
<polygon fill="#63b8ff" stroke="#63b8ff" points="815.23,-137.23 822.11,-129.17 811.71,-131.18 815.23,-137.23"/>
</a>
</g>
</g>
<!-- Node11&#45;&gt;Node7 -->
<g id="edge14_Node000011_Node000007" class="edge">
<title>Node11&#45;&gt;Node7</title>
<g id="a_edge14_Node000011_Node000007"><a xlink:title=" ">
<path fill="none" stroke="#63b8ff" d="M654.32,-109.68C659.23,-100.97 666.19,-87.09 669,-74 672.27,-58.74 668.45,-41.33 664.27,-28.59"/>
<polygon fill="#63b8ff" stroke="#63b8ff" points="667.54,-27.35 660.83,-19.15 660.97,-29.75 667.54,-27.35"/>
</a>
</g>
</g>
<!-- Node12 -->
<g id="Node000012" class="node">
<title>Node12</title>
<g id="a_Node000012"><a xlink:href="ReflectionMacros_8h.html" target="_top" xlink:title="adapted from https://github.com/tapika/TestCppReflect">
<polygon fill="white" stroke="#666666" points="572,-74 462,-74 462,-55 572,-55 572,-74"/>
<text text-anchor="middle" x="517" y="-62" font-family="Helvetica,sans-Serif" font-size="10.00">ReflectionMacros.h</text>
</a>
</g>
</g>
<!-- Node11&#45;&gt;Node12 -->
<g id="edge11_Node000011_Node000012" class="edge">
<title>Node11&#45;&gt;Node12</title>
<g id="a_edge11_Node000011_Node000012"><a xlink:title=" ">
<path fill="none" stroke="#63b8ff" d="M627.79,-109.98C606.27,-101.34 572.72,-87.87 548.17,-78.02"/>
<polygon fill="#63b8ff" stroke="#63b8ff" points="549.18,-74.65 538.59,-74.17 546.57,-81.14 549.18,-74.65"/>
</a>
</g>
</g>
<!-- Node11&#45;&gt;Node13 -->
<g id="edge12_Node000011_Node000013" class="edge">
<title>Node11&#45;&gt;Node13</title>
<g id="a_edge12_Node000011_Node000013"><a xlink:title=" ">
<path fill="none" stroke="#63b8ff" d="M664.58,-109.98C679.77,-101.69 703.1,-88.94 720.9,-79.22"/>
<polygon fill="#63b8ff" stroke="#63b8ff" points="723.03,-82.04 730.13,-74.17 719.68,-75.89 723.03,-82.04"/>
</a>
</g>
</g>
<!-- Node14 -->
<g id="Node000014" class="node">
<title>Node14</title>
<g id="a_Node000014"><a xlink:title=" ">
<polygon fill="#e0e0e0" stroke="#999999" points="262.5,-19 169.5,-19 169.5,0 262.5,0 262.5,-19"/>
<text text-anchor="middle" x="216" y="-7" font-family="Helvetica,sans-Serif" font-size="10.00">unordered_map</text>
</a>
</g>
</g>
<!-- Node11&#45;&gt;Node14 -->
<g id="edge13_Node000011_Node000014" class="edge">
<title>Node11&#45;&gt;Node14</title>
<g id="a_edge13_Node000011_Node000014"><a xlink:title=" ">
<path fill="none" stroke="#63b8ff" d="M576.69,-110.47C476.66,-99.21 306.83,-79.49 294,-74 268.8,-63.23 245.19,-41.8 230.68,-26.83"/>
<polygon fill="#63b8ff" stroke="#63b8ff" points="233,-24.18 223.61,-19.28 227.89,-28.97 233,-24.18"/>
</a>
</g>
</g>
<!-- Node15 -->
<g id="Node000015" class="node">
<title>Node15</title>
<g id="a_Node000015"><a xlink:title=" ">
<polygon fill="#e0e0e0" stroke="#999999" points="659.5,-74 590.5,-74 590.5,-55 659.5,-55 659.5,-74"/>
<text text-anchor="middle" x="625" y="-62" font-family="Helvetica,sans-Serif" font-size="10.00">type_traits</text>
</a>
</g>
</g>
<!-- Node11&#45;&gt;Node15 -->
<g id="edge15_Node000011_Node000015" class="edge">
<title>Node11&#45;&gt;Node15</title>
<g id="a_edge15_Node000011_Node000015"><a xlink:title=" ">
<path fill="none" stroke="#63b8ff" d="M645.04,-109.75C641.79,-102.57 637.08,-92.18 633.05,-83.27"/>
<polygon fill="#63b8ff" stroke="#63b8ff" points="636.2,-81.75 628.89,-74.09 629.83,-84.64 636.2,-81.75"/>
</a>
</g>
</g>
<!-- Node17&#45;&gt;Node2 -->
<g id="edge20_Node000017_Node000002" class="edge">
<title>Node17&#45;&gt;Node2</title>
<g id="a_edge20_Node000017_Node000002"><a xlink:title=" ">
<path fill="none" stroke="#63b8ff" d="M528.11,-219.98C516.85,-211.92 499.71,-199.65 486.29,-190.03"/>
<polygon fill="#63b8ff" stroke="#63b8ff" points="488.27,-187.15 478.11,-184.17 484.2,-192.84 488.27,-187.15"/>
</a>
</g>
</g>
<!-- Node17&#45;&gt;Node3 -->
<g id="edge39_Node000017_Node000003" class="edge">
<title>Node17&#45;&gt;Node3</title>
<g id="a_edge39_Node000017_Node000003"><a xlink:title=" ">
<path fill="none" stroke="#63b8ff" d="M539.05,-219.69C537.09,-205.94 531.3,-179.47 515,-165 499.03,-150.83 449.71,-138.85 408.28,-130.91"/>
<polygon fill="#63b8ff" stroke="#63b8ff" points="408.69,-127.42 398.21,-129.02 407.4,-134.3 408.69,-127.42"/>
</a>
</g>
</g>
<!-- Node17&#45;&gt;Node10 -->
<g id="edge19_Node000017_Node000010" class="edge">
<title>Node17&#45;&gt;Node10</title>
<g id="a_edge19_Node000017_Node000010"><a xlink:title=" ">
<path fill="none" stroke="#63b8ff" d="M569.51,-220.91C605.51,-211.64 666.5,-195.95 706.51,-185.66"/>
<polygon fill="#63b8ff" stroke="#63b8ff" points="707.39,-189.05 716.21,-183.17 705.65,-182.27 707.39,-189.05"/>
</a>
</g>
</g>
<!-- Node17&#45;&gt;Node18 -->
<g id="edge21_Node000017_Node000018" class="edge">
<title>Node17&#45;&gt;Node18</title>
<g id="a_edge21_Node000017_Node000018"><a xlink:title=" ">
<path fill="none" stroke="#63b8ff" d="M510.38,-220.45C477.37,-211.48 423.74,-196.9 386.54,-186.79"/>
<polygon fill="#63b8ff" stroke="#63b8ff" points="387.08,-183.31 376.51,-184.07 385.25,-190.07 387.08,-183.31"/>
</a>
</g>
</g>
<!-- Node17&#45;&gt;Node23 -->
<g id="edge30_Node000017_Node000023" class="edge">
<title>Node17&#45;&gt;Node23</title>
<g id="a_edge30_Node000017_Node000023"><a xlink:title=" ">
<path fill="none" stroke="#63b8ff" d="M569.74,-221.65C572.86,-221.04 575.99,-220.48 579,-220 729.32,-196.1 910.7,-182.53 984.88,-177.62"/>
<polygon fill="#63b8ff" stroke="#63b8ff" points="985.28,-181.1 995.03,-176.96 984.82,-174.12 985.28,-181.1"/>
</a>
</g>
</g>
<!-- Node17&#45;&gt;Node28 -->
<g id="edge36_Node000017_Node000028" class="edge">
<title>Node17&#45;&gt;Node28</title>
<g id="a_edge36_Node000017_Node000028"><a xlink:title=" ">
<path fill="none" stroke="#63b8ff" d="M569.73,-221.54C572.85,-220.96 575.98,-220.43 579,-220 704.5,-202.32 1096.24,-183.06 1220.66,-177.25"/>
<polygon fill="#63b8ff" stroke="#63b8ff" points="1221.02,-180.74 1230.85,-176.78 1220.7,-173.75 1221.02,-180.74"/>
</a>
</g>
</g>
<!-- Node18&#45;&gt;Node3 -->
<g id="edge29_Node000018_Node000003" class="edge">
<title>Node18&#45;&gt;Node3</title>
<g id="a_edge29_Node000018_Node000003"><a xlink:title=" ">
<path fill="none" stroke="#63b8ff" d="M345,-164.75C345,-157.8 345,-147.85 345,-139.13"/>
<polygon fill="#63b8ff" stroke="#63b8ff" points="348.5,-139.09 345,-129.09 341.5,-139.09 348.5,-139.09"/>
</a>
</g>
</g>
<!-- Node18&#45;&gt;Node5 -->
<g id="edge22_Node000018_Node000005" class="edge">
<title>Node18&#45;&gt;Node5</title>
<g id="a_edge22_Node000018_Node000005"><a xlink:title=" ">
<path fill="none" stroke="#63b8ff" d="M311.83,-164.97C278.98,-156.52 226.97,-143.15 172.61,-129.16"/>
<polygon fill="#63b8ff" stroke="#63b8ff" points="173.35,-125.73 162.79,-126.63 171.6,-132.51 173.35,-125.73"/>
</a>
</g>
</g>
<!-- Node19 -->
<g id="Node000019" class="node">
<title>Node19</title>
<g id="a_Node000019"><a xlink:href="PolyglotText_8h.html" target="_top" xlink:title="Polyglot Text serialization and deserialization to protobuf.">
<polygon fill="white" stroke="#666666" points="267,-129 181,-129 181,-110 267,-110 267,-129"/>
<text text-anchor="middle" x="224" y="-117" font-family="Helvetica,sans-Serif" font-size="10.00">PolyglotText.h</text>
</a>
</g>
</g>
<!-- Node18&#45;&gt;Node19 -->
<g id="edge23_Node000018_Node000019" class="edge">
<title>Node18&#45;&gt;Node19</title>
<g id="a_edge23_Node000018_Node000019"><a xlink:title=" ">
<path fill="none" stroke="#63b8ff" d="M325.56,-164.98C306.01,-156.42 275.62,-143.11 253.18,-133.28"/>
<polygon fill="#63b8ff" stroke="#63b8ff" points="254.36,-129.98 243.79,-129.17 251.55,-136.39 254.36,-129.98"/>
</a>
</g>
</g>
<!-- Node20 -->
<g id="Node000020" class="node">
<title>Node20</title>
<g id="a_Node000020"><a xlink:href="IPolyglotText_8h.html" target="_top" xlink:title="Catena&#39;s multi&#45;language text interface.">
<polygon fill="white" stroke="#666666" points="391.5,-74 302.5,-74 302.5,-55 391.5,-55 391.5,-74"/>
<text text-anchor="middle" x="347" y="-62" font-family="Helvetica,sans-Serif" font-size="10.00">IPolyglotText.h</text>
</a>
</g>
</g>
<!-- Node19&#45;&gt;Node20 -->
<g id="edge24_Node000019_Node000020" class="edge">
<title>Node19&#45;&gt;Node20</title>
<g id="a_edge24_Node000019_Node000020"><a xlink:title=" ">
<path fill="none" stroke="#63b8ff" d="M243.76,-109.98C263.73,-101.38 294.8,-87.99 317.65,-78.15"/>
<polygon fill="#63b8ff" stroke="#63b8ff" points="319.08,-81.34 326.88,-74.17 316.31,-74.91 319.08,-81.34"/>
</a>
</g>
</g>
<!-- Node20&#45;&gt;Node7 -->
<g id="edge27_Node000020_Node000007" class="edge">
<title>Node20&#45;&gt;Node7</title>
<g id="a_edge27_Node000020_Node000007"><a xlink:title=" ">
<path fill="none" stroke="#63b8ff" d="M391.75,-55.85C455.07,-45.02 569.29,-25.49 624.88,-15.99"/>
<polygon fill="#63b8ff" stroke="#63b8ff" points="625.6,-19.42 634.86,-14.28 624.42,-12.52 625.6,-19.42"/>
</a>
</g>
</g>
<!-- Node20&#45;&gt;Node14 -->
<g id="edge26_Node000020_Node000014" class="edge">
<title>Node20&#45;&gt;Node14</title>
<g id="a_edge26_Node000020_Node000014"><a xlink:title=" ">
<path fill="none" stroke="#63b8ff" d="M325.95,-54.98C304.59,-46.34 271.3,-32.87 246.94,-23.02"/>
<polygon fill="#63b8ff" stroke="#63b8ff" points="248.01,-19.68 237.43,-19.17 245.39,-26.17 248.01,-19.68"/>
</a>
</g>
</g>
<!-- Node21 -->
<g id="Node000021" class="node">
<title>Node21</title>
<g id="a_Node000021"><a xlink:title=" ">
<polygon fill="#e0e0e0" stroke="#999999" points="413,-19 281,-19 281,0 413,0 413,-19"/>
<text text-anchor="middle" x="347" y="-7" font-family="Helvetica,sans-Serif" font-size="10.00">interface/language.pb.h</text>
</a>
</g>
</g>
<!-- Node20&#45;&gt;Node21 -->
<g id="edge25_Node000020_Node000021" class="edge">
<title>Node20&#45;&gt;Node21</title>
<g id="a_edge25_Node000020_Node000021"><a xlink:title=" ">
<path fill="none" stroke="#63b8ff" d="M347,-54.75C347,-47.8 347,-37.85 347,-29.13"/>
<polygon fill="#63b8ff" stroke="#63b8ff" points="350.5,-29.09 347,-19.09 343.5,-29.09 350.5,-29.09"/>
</a>
</g>
</g>
<!-- Node22 -->
<g id="Node000022" class="node">
<title>Node22</title>
<g id="a_Node000022"><a xlink:title=" ">
<polygon fill="#e0e0e0" stroke="#999999" points="514.5,-19 431.5,-19 431.5,0 514.5,0 514.5,-19"/>
<text text-anchor="middle" x="473" y="-7" font-family="Helvetica,sans-Serif" font-size="10.00">initializer_list</text>
</a>
</g>
</g>
<!-- Node20&#45;&gt;Node22 -->
<g id="edge28_Node000020_Node000022" class="edge">
<title>Node20&#45;&gt;Node22</title>
<g id="a_edge28_Node000020_Node000022"><a xlink:title=" ">
<path fill="none" stroke="#63b8ff" d="M367.24,-54.98C387.7,-46.38 419.53,-32.99 442.93,-23.15"/>
<polygon fill="#63b8ff" stroke="#63b8ff" points="444.53,-26.27 452.39,-19.17 441.81,-19.82 444.53,-26.27"/>
</a>
</g>
</g>
<!-- Node23&#45;&gt;Node7 -->
<g id="edge32_Node000023_Node000007" class="edge">
<title>Node23&#45;&gt;Node7</title>
<g id="a_edge32_Node000023_Node000007"><a xlink:title=" ">
<path fill="none" stroke="#63b8ff" d="M1042.63,-169.55C1082.56,-161.87 1156.58,-142.75 1130,-110 1074,-40.99 786.87,-18.06 689.41,-12.2"/>
<polygon fill="#63b8ff" stroke="#63b8ff" points="689.46,-8.7 679.27,-11.61 689.05,-15.69 689.46,-8.7"/>
</a>
</g>
</g>
<!-- Node24 -->
<g id="Node000024" class="node">
<title>Node24</title>
<g id="a_Node000024"><a xlink:title=" ">
<polygon fill="#e0e0e0" stroke="#999999" points="975,-129 915,-129 915,-110 975,-110 975,-129"/>
<text text-anchor="middle" x="945" y="-117" font-family="Helvetica,sans-Serif" font-size="10.00">iostream</text>
</a>
</g>
</g>
<!-- Node23&#45;&gt;Node24 -->
<g id="edge31_Node000023_Node000024" class="edge">
<title>Node23&#45;&gt;Node24</title>
<g id="a_edge31_Node000023_Node000024"><a xlink:title=" ">
<path fill="none" stroke="#63b8ff" d="M1007.11,-164.98C995.85,-156.92 978.71,-144.65 965.29,-135.03"/>
<polygon fill="#63b8ff" stroke="#63b8ff" points="967.27,-132.15 957.11,-129.17 963.2,-137.84 967.27,-132.15"/>
</a>
</g>
</g>
<!-- Node23&#45;&gt;Node25 -->
<g id="edge33_Node000023_Node000025" class="edge">
<title>Node23&#45;&gt;Node25</title>
<g id="a_edge33_Node000023_Node000025"><a xlink:title=" ">
<path fill="none" stroke="#63b8ff" d="M1042.79,-166.57C1074.76,-157.26 1131.74,-140.67 1167.89,-130.14"/>
<polygon fill="#63b8ff" stroke="#63b8ff" points="1168.87,-133.5 1177.49,-127.35 1166.91,-126.78 1168.87,-133.5"/>
</a>
</g>
</g>
<!-- Node26 -->
<g id="Node000026" class="node">
<title>Node26</title>
<g id="a_Node000026"><a xlink:title=" ">
<polygon fill="#e0e0e0" stroke="#999999" points="1044.5,-129 993.5,-129 993.5,-110 1044.5,-110 1044.5,-129"/>
<text text-anchor="middle" x="1019" y="-117" font-family="Helvetica,sans-Serif" font-size="10.00">variant</text>
</a>
</g>
</g>
<!-- Node23&#45;&gt;Node26 -->
<g id="edge34_Node000023_Node000026" class="edge">
<title>Node23&#45;&gt;Node26</title>
<g id="a_edge34_Node000023_Node000026"><a xlink:title=" ">
<path fill="none" stroke="#63b8ff" d="M1019,-164.75C1019,-157.8 1019,-147.85 1019,-139.13"/>
<polygon fill="#63b8ff" stroke="#63b8ff" points="1022.5,-139.09 1019,-129.09 1015.5,-139.09 1022.5,-139.09"/>
</a>
</g>
</g>
<!-- Node27 -->
<g id="Node000027" class="node">
<title>Node27</title>
<g id="a_Node000027"><a xlink:title=" ">
<polygon fill="#e0e0e0" stroke="#999999" points="1121,-129 1063,-129 1063,-110 1121,-110 1121,-129"/>
<text text-anchor="middle" x="1092" y="-117" font-family="Helvetica,sans-Serif" font-size="10.00">memory</text>
</a>
</g>
</g>
<!-- Node23&#45;&gt;Node27 -->
<g id="edge35_Node000023_Node000027" class="edge">
<title>Node23&#45;&gt;Node27</title>
<g id="a_edge35_Node000023_Node000027"><a xlink:title=" ">
<path fill="none" stroke="#63b8ff" d="M1030.73,-164.98C1041.73,-157 1058.42,-144.88 1071.6,-135.31"/>
<polygon fill="#63b8ff" stroke="#63b8ff" points="1074.02,-137.88 1080.06,-129.17 1069.91,-132.21 1074.02,-137.88"/>
</a>
</g>
</g>
<!-- Node29 -->
<g id="Node000029" class="node">
<title>Node29</title>
<g id="a_Node000029"><a xlink:title=" ">
<polygon fill="#e0e0e0" stroke="#999999" points="1299,-129 1243,-129 1243,-110 1299,-110 1299,-129"/>
<text text-anchor="middle" x="1271" y="-117" font-family="Helvetica,sans-Serif" font-size="10.00">sstream</text>
</a>
</g>
</g>
<!-- Node28&#45;&gt;Node29 -->
<g id="edge37_Node000028_Node000029" class="edge">
<title>Node28&#45;&gt;Node29</title>
<g id="a_edge37_Node000028_Node000029"><a xlink:title=" ">
<path fill="none" stroke="#63b8ff" d="M1260.98,-164.75C1262.57,-157.72 1264.86,-147.62 1266.85,-138.84"/>
<polygon fill="#63b8ff" stroke="#63b8ff" points="1270.26,-139.62 1269.06,-129.09 1263.43,-138.07 1270.26,-139.62"/>
</a>
</g>
</g>
<!-- Node30 -->
<g id="Node000030" class="node">
<title>Node30</title>
<g id="a_Node000030"><a xlink:title=" ">
<polygon fill="#e0e0e0" stroke="#999999" points="1382.5,-129 1317.5,-129 1317.5,-110 1382.5,-110 1382.5,-129"/>
<text text-anchor="middle" x="1350" y="-117" font-family="Helvetica,sans-Serif" font-size="10.00">stdexcept</text>
</a>
</g>
</g>
<!-- Node28&#45;&gt;Node30 -->
<g id="edge38_Node000028_Node000030" class="edge">
<title>Node28&#45;&gt;Node30</title>
<g id="a_edge38_Node000028_Node000030"><a xlink:title=" ">
<path fill="none" stroke="#63b8ff" d="M1273.62,-164.98C1287.86,-156.69 1309.75,-143.94 1326.45,-134.22"/>
<polygon fill="#63b8ff" stroke="#63b8ff" points="1328.23,-137.23 1335.11,-129.17 1324.71,-131.18 1328.23,-137.23"/>
</a>
</g>
</g>
<!-- Node33&#45;&gt;Node7 -->
<g id="edge47_Node000033_Node000007" class="edge">
<title>Node33&#45;&gt;Node7</title>
<g id="a_edge47_Node000033_Node000007"><a xlink:title=" ">
<path fill="none" stroke="#63b8ff" d="M98.02,-56.09C101.06,-55.7 104.07,-55.33 107,-55 208.59,-43.46 523.12,-20.23 624.88,-12.82"/>
<polygon fill="#63b8ff" stroke="#63b8ff" points="625.15,-16.31 634.87,-12.1 624.64,-9.33 625.15,-16.31"/>
</a>
</g>
</g>
<!-- Node33&#45;&gt;Node14 -->
<g id="edge48_Node000033_Node000014" class="edge">
<title>Node33&#45;&gt;Node14</title>
<g id="a_edge48_Node000033_Node000014"><a xlink:title=" ">
<path fill="none" stroke="#63b8ff" d="M75.83,-54.98C103.87,-46.09 148.05,-32.07 179.3,-22.15"/>
<polygon fill="#63b8ff" stroke="#63b8ff" points="180.49,-25.44 188.96,-19.08 178.37,-18.77 180.49,-25.44"/>
</a>
</g>
</g>
</g>
</svg>

<g id="navigator" transform="translate(0 0)" fill="#404254">
  <rect fill="#f2f5e9" fill-opacity="0.5" stroke="#606060" stroke-width=".5" x="0" y="0" width="60" height="60"/>
  <use id="zoomplus" xlink:href="#zoomPlus" x="17" y="9" onmousedown="handleZoom(evt,'in')"/>
  <use id="zoomminus" xlink:href="#zoomMin" x="42" y="9" onmousedown="handleZoom(evt,'out')"/>
  <use id="reset" xlink:href="#resetDef" x="30" y="36" onmousedown="handleReset()"/>
   <use id="arrowup" xlink:href="#arrowUp" x="0" y="0" onmousedown="handlePan(0,-1)"/>
  <use id="arrowright" xlink:href="#arrowRight" x="0" y="0" onmousedown="handlePan(1,0)"/>
  <use id="arrowdown" xlink:href="#arrowDown" x="0" y="0" onmousedown="handlePan(0,1)"/>
  <use id="arrowleft" xlink:href="#arrowLeft" x="0" y="0" onmousedown="handlePan(-1,0)"/>
</g>
<svg viewBox="0 0 15 15" width="100%" height="30px" preserveAspectRatio="xMaxYMin meet">
 <g id="arrow_out" transform="scale(0.3 0.3)">
  <a xlink:href="RangeConstraint_8h__incl_org.svg" target="_base">
   <rect id="button" ry="5" rx="5" y="6" x="6" height="38" width="38"
        fill="#f2f5e9" fill-opacity="0.5" stroke="#606060" stroke-width="1.0"/>
   <path id="arrow"
     d="M 11.500037,31.436501 C 11.940474,20.09759 22.043105,11.32322 32.158766,21.979434 L 37.068811,17.246167 C 37.068811,17.246167 37.088388,32 37.088388,32 L 22.160133,31.978069 C 22.160133,31.978069 26.997745,27.140456 26.997745,27.140456 C 18.528582,18.264221 13.291696,25.230495 11.500037,31.436501 z"
     style="fill:#404040;"/>
  </a>
 </g>
</svg>

<style type='text/css'>
<![CDATA[
[data-mouse-over-selected='false'] { opacity: 0.7; }
[data-mouse-over-selected='true']  { opacity: 1.0; }
]]>
</style>
<script type="application/ecmascript"><![CDATA[
document.addEventListener('DOMContentLoaded', (event) => {
  highlightEdges();
  highlightAdjacentNodes();
});
]]></script>
</svg>
