<?xml version="1.0" encoding="UTF-8" standalone="no"?>
<!DOCTYPE svg PUBLIC "-//W3C//DTD SVG 1.1//EN"
 "http://www.w3.org/Graphics/SVG/1.1/DTD/svg11.dtd">
<!-- Generated by graphviz version 2.43.0 (0)
 -->
<!-- Title: /home/runner/work/Catena/Catena/sdks/cpp/common/include/RangeConstraint.h Pages: 1 -->
<svg width="1363pt" height="434pt"
 viewBox="0.00 0.00 1363.27 434.00" xmlns="http://www.w3.org/2000/svg" xmlns:xlink="http://www.w3.org/1999/xlink">
<g id="graph0" class="graph" transform="scale(1 1) rotate(0) translate(4 430)">
<title>/home/runner/work/Catena/Catena/sdks/cpp/common/include/RangeConstraint.h</title>
<!-- Node1 -->
<g id="Node000001" class="node">
<title>Node1</title>
<g id="a_Node000001"><a xlink:title="A constraint that checks if a value is within a range.">
<polygon fill="#999999" stroke="#666666" points="816.77,-426 668.77,-426 668.77,-385 816.77,-385 816.77,-426"/>
<text text-anchor="start" x="676.77" y="-414" font-family="Helvetica,sans-Serif" font-size="10.00">/home/runner/work/Catena</text>
<text text-anchor="start" x="676.77" y="-403" font-family="Helvetica,sans-Serif" font-size="10.00">/Catena/sdks/cpp/common</text>
<text text-anchor="middle" x="742.77" y="-392" font-family="Helvetica,sans-Serif" font-size="10.00">/include/RangeConstraint.h</text>
</a>
</g>
</g>
<!-- Node2 -->
<g id="Node000002" class="node">
<title>Node2</title>
<g id="a_Node000002"><a xlink:href="IConstraint_8h.html" target="_top" xlink:title="Interface for constraints.">
<polygon fill="white" stroke="#666666" points="743.27,-184 664.27,-184 664.27,-165 743.27,-165 743.27,-184"/>
<text text-anchor="middle" x="703.77" y="-172" font-family="Helvetica,sans-Serif" font-size="10.00">IConstraint.h</text>
</a>
</g>
</g>
<!-- Node1&#45;&gt;Node2 -->
<g id="edge1_Node000001_Node000002" class="edge">
<title>Node1&#45;&gt;Node2</title>
<g id="a_edge1_Node000001_Node000002"><a xlink:title=" ">
<path fill="none" stroke="#63b8ff" d="M739.19,-384.99C737.26,-374.36 734.85,-360.96 732.77,-349 723,-292.72 712.02,-226.07 706.82,-194.24"/>
<polygon fill="#63b8ff" stroke="#63b8ff" points="710.24,-193.48 705.18,-184.17 703.33,-194.61 710.24,-193.48"/>
</a>
</g>
</g>
<!-- Node5 -->
<g id="Node000005" class="node">
<title>Node5</title>
<g id="a_Node000005"><a xlink:href="Tags_8h.html" target="_top" xlink:title="Tags to differentiate collections with the same type for template specialization.">
<polygon fill="white" stroke="#666666" points="387.27,-129 340.27,-129 340.27,-110 387.27,-110 387.27,-129"/>
<text text-anchor="middle" x="363.77" y="-117" font-family="Helvetica,sans-Serif" font-size="10.00">Tags.h</text>
</a>
</g>
</g>
<!-- Node1&#45;&gt;Node5 -->
<g id="edge4_Node000001_Node000005" class="edge">
<title>Node1&#45;&gt;Node5</title>
<g id="a_edge4_Node000001_Node000005"><a xlink:title=" ">
<path fill="none" stroke="#63b8ff" d="M688.81,-384.97C640.36,-365.97 568.64,-334.13 513.77,-294 486.62,-274.14 484.06,-264.2 461.77,-239 430.4,-203.54 395.46,-160.34 376.96,-137.14"/>
<polygon fill="#63b8ff" stroke="#63b8ff" points="379.67,-134.94 370.71,-129.29 374.19,-139.29 379.67,-134.94"/>
</a>
</g>
</g>
<!-- Node8 -->
<g id="Node000008" class="node">
<title>Node8</title>
<g id="a_Node000008"><a xlink:href="IDevice_8h.html" target="_top" xlink:title="Interface for device.">
<polygon fill="white" stroke="#666666" points="803.77,-349 741.77,-349 741.77,-330 803.77,-330 803.77,-349"/>
<text text-anchor="middle" x="772.77" y="-337" font-family="Helvetica,sans-Serif" font-size="10.00">IDevice.h</text>
</a>
</g>
</g>
<!-- Node1&#45;&gt;Node8 -->
<g id="edge7_Node000001_Node000008" class="edge">
<title>Node1&#45;&gt;Node8</title>
<g id="a_edge7_Node000001_Node000008"><a xlink:title=" ">
<path fill="none" stroke="#63b8ff" d="M751.93,-384.95C755.9,-376.48 760.52,-366.64 764.39,-358.37"/>
<polygon fill="#63b8ff" stroke="#63b8ff" points="767.59,-359.8 768.66,-349.26 761.25,-356.83 767.59,-359.8"/>
</a>
</g>
</g>
<!-- Node36 -->
<g id="Node000036" class="node">
<title>Node36</title>
<g id="a_Node000036"><a xlink:title=" ">
<polygon fill="#e0e0e0" stroke="#999999" points="869.27,-349 822.27,-349 822.27,-330 869.27,-330 869.27,-349"/>
<text text-anchor="middle" x="845.77" y="-337" font-family="Helvetica,sans-Serif" font-size="10.00">cmath</text>
</a>
</g>
</g>
<!-- Node1&#45;&gt;Node36 -->
<g id="edge56_Node000001_Node000036" class="edge">
<title>Node1&#45;&gt;Node36</title>
<g id="a_edge56_Node000001_Node000036"><a xlink:title=" ">
<path fill="none" stroke="#63b8ff" d="M774.23,-384.95C790.05,-375.12 808.86,-363.43 823.22,-354.51"/>
<polygon fill="#63b8ff" stroke="#63b8ff" points="825.29,-357.34 831.94,-349.09 821.6,-351.4 825.29,-357.34"/>
</a>
</g>
</g>
<!-- Node3 -->
<g id="Node000003" class="node">
<title>Node3</title>
<g id="a_Node000003"><a xlink:title=" ">
<polygon fill="#e0e0e0" stroke="#999999" points="667.27,-129 548.27,-129 548.27,-110 667.27,-110 667.27,-129"/>
<text text-anchor="middle" x="607.77" y="-117" font-family="Helvetica,sans-Serif" font-size="10.00">interface/param.pb.h</text>
</a>
</g>
</g>
<!-- Node2&#45;&gt;Node3 -->
<g id="edge2_Node000002_Node000003" class="edge">
<title>Node2&#45;&gt;Node3</title>
<g id="a_edge2_Node000002_Node000003"><a xlink:title=" ">
<path fill="none" stroke="#63b8ff" d="M688.34,-164.98C673.32,-156.69 650.23,-143.94 632.61,-134.22"/>
<polygon fill="#63b8ff" stroke="#63b8ff" points="633.92,-130.94 623.47,-129.17 630.54,-137.07 633.92,-130.94"/>
</a>
</g>
</g>
<!-- Node4 -->
<g id="Node000004" class="node">
<title>Node4</title>
<g id="a_Node000004"><a xlink:title=" ">
<polygon fill="#e0e0e0" stroke="#999999" points="821.77,-129 685.77,-129 685.77,-110 821.77,-110 821.77,-129"/>
<text text-anchor="middle" x="753.77" y="-117" font-family="Helvetica,sans-Serif" font-size="10.00">interface/constraint.pb.h</text>
</a>
</g>
</g>
<!-- Node2&#45;&gt;Node4 -->
<g id="edge3_Node000002_Node000004" class="edge">
<title>Node2&#45;&gt;Node4</title>
<g id="a_edge3_Node000002_Node000004"><a xlink:title=" ">
<path fill="none" stroke="#63b8ff" d="M712.03,-164.75C719.23,-157.11 729.88,-145.82 738.61,-136.56"/>
<polygon fill="#63b8ff" stroke="#63b8ff" points="741.35,-138.76 745.67,-129.09 736.26,-133.96 741.35,-138.76"/>
</a>
</g>
</g>
<!-- Node6 -->
<g id="Node000006" class="node">
<title>Node6</title>
<g id="a_Node000006"><a xlink:title=" ">
<polygon fill="#e0e0e0" stroke="#999999" points="448.27,-74 383.27,-74 383.27,-55 448.27,-55 448.27,-74"/>
<text text-anchor="middle" x="415.77" y="-62" font-family="Helvetica,sans-Serif" font-size="10.00">functional</text>
</a>
</g>
</g>
<!-- Node5&#45;&gt;Node6 -->
<g id="edge5_Node000005_Node000006" class="edge">
<title>Node5&#45;&gt;Node6</title>
<g id="a_edge5_Node000005_Node000006"><a xlink:title=" ">
<path fill="none" stroke="#63b8ff" d="M372.36,-109.75C379.93,-102.03 391.15,-90.6 400.28,-81.28"/>
<polygon fill="#63b8ff" stroke="#63b8ff" points="402.84,-83.68 407.34,-74.09 397.84,-78.78 402.84,-83.68"/>
</a>
</g>
</g>
<!-- Node7 -->
<g id="Node000007" class="node">
<title>Node7</title>
<g id="a_Node000007"><a xlink:title=" ">
<polygon fill="#e0e0e0" stroke="#999999" points="420.77,-19 376.77,-19 376.77,0 420.77,0 420.77,-19"/>
<text text-anchor="middle" x="398.77" y="-7" font-family="Helvetica,sans-Serif" font-size="10.00">string</text>
</a>
</g>
</g>
<!-- Node5&#45;&gt;Node7 -->
<g id="edge6_Node000005_Node000007" class="edge">
<title>Node5&#45;&gt;Node7</title>
<g id="a_edge6_Node000005_Node000007"><a xlink:title=" ">
<path fill="none" stroke="#63b8ff" d="M364.4,-109.65C365.48,-97.17 368.26,-73.82 374.77,-55 377.99,-45.68 383.01,-35.97 387.62,-28.01"/>
<polygon fill="#63b8ff" stroke="#63b8ff" points="390.71,-29.67 392.9,-19.31 384.72,-26.04 390.71,-29.67"/>
</a>
</g>
</g>
<!-- Node8&#45;&gt;Node7 -->
<g id="edge52_Node000008_Node000007" class="edge">
<title>Node8&#45;&gt;Node7</title>
<g id="a_edge52_Node000008_Node000007"><a xlink:title=" ">
<path fill="none" stroke="#63b8ff" d="M741.74,-337.72C674.35,-335.44 509.97,-326.7 376.77,-294 200.72,-250.78 100.55,-282.28 3.77,-129 -37.07,-64.32 265.49,-25.05 366.62,-13.84"/>
<polygon fill="#63b8ff" stroke="#63b8ff" points="367.01,-17.32 376.57,-12.76 366.25,-10.36 367.01,-17.32"/>
</a>
</g>
</g>
<!-- Node9 -->
<g id="Node000009" class="node">
<title>Node9</title>
<g id="a_Node000009"><a xlink:href="Authorization_8h.html" target="_top" xlink:title="Class for handling authorization information.">
<polygon fill="white" stroke="#666666" points="613.27,-294 522.27,-294 522.27,-275 613.27,-275 613.27,-294"/>
<text text-anchor="middle" x="567.77" y="-282" font-family="Helvetica,sans-Serif" font-size="10.00">Authorization.h</text>
</a>
</g>
</g>
<!-- Node8&#45;&gt;Node9 -->
<g id="edge8_Node000008_Node000009" class="edge">
<title>Node8&#45;&gt;Node9</title>
<g id="a_edge8_Node000008_Node000009"><a xlink:title=" ">
<path fill="none" stroke="#63b8ff" d="M741.63,-330.45C706.7,-321.42 649.82,-306.71 610.69,-296.6"/>
<polygon fill="#63b8ff" stroke="#63b8ff" points="611.46,-293.18 600.9,-294.07 609.71,-299.96 611.46,-293.18"/>
</a>
</g>
</g>
<!-- Node10 -->
<g id="Node000010" class="node">
<title>Node10</title>
<g id="a_Node000010"><a xlink:href="Path_8h.html" target="_top" xlink:title="Handles Path objects used to uniquely identify and access OIDs.">
<polygon fill="white" stroke="#666666" points="277.27,-184 230.27,-184 230.27,-165 277.27,-165 277.27,-184"/>
<text text-anchor="middle" x="253.77" y="-172" font-family="Helvetica,sans-Serif" font-size="10.00">Path.h</text>
</a>
</g>
</g>
<!-- Node8&#45;&gt;Node10 -->
<g id="edge44_Node000008_Node000010" class="edge">
<title>Node8&#45;&gt;Node10</title>
<g id="a_edge44_Node000008_Node000010"><a xlink:title=" ">
<path fill="none" stroke="#63b8ff" d="M741.55,-336.03C668.96,-329.28 484.62,-306.3 347.77,-239 319.98,-225.33 290.86,-204.49 272.53,-190.45"/>
<polygon fill="#63b8ff" stroke="#63b8ff" points="274.49,-187.55 264.45,-184.17 270.19,-193.07 274.49,-187.55"/>
</a>
</g>
</g>
<!-- Node12 -->
<g id="Node000012" class="node">
<title>Node12</title>
<g id="a_Node000012"><a xlink:title=" ">
<polygon fill="#e0e0e0" stroke="#999999" points="60.27,-129 13.27,-129 13.27,-110 60.27,-110 60.27,-129"/>
<text text-anchor="middle" x="36.77" y="-117" font-family="Helvetica,sans-Serif" font-size="10.00">vector</text>
</a>
</g>
</g>
<!-- Node8&#45;&gt;Node12 -->
<g id="edge53_Node000008_Node000012" class="edge">
<title>Node8&#45;&gt;Node12</title>
<g id="a_edge53_Node000008_Node000012"><a xlink:title=" ">
<path fill="none" stroke="#63b8ff" d="M741.72,-337.23C681.88,-334.17 546.89,-324.23 437.77,-294 288.58,-252.68 122.41,-166.98 61.15,-133.91"/>
<polygon fill="#63b8ff" stroke="#63b8ff" points="62.7,-130.77 52.24,-129.08 59.36,-136.92 62.7,-130.77"/>
</a>
</g>
</g>
<!-- Node21 -->
<g id="Node000021" class="node">
<title>Node21</title>
<g id="a_Node000021"><a xlink:title=" ">
<polygon fill="#e0e0e0" stroke="#999999" points="1159.27,-129 1040.27,-129 1040.27,-110 1159.27,-110 1159.27,-129"/>
<text text-anchor="middle" x="1099.77" y="-117" font-family="Helvetica,sans-Serif" font-size="10.00">interface/device.pb.h</text>
</a>
</g>
</g>
<!-- Node8&#45;&gt;Node21 -->
<g id="edge51_Node000008_Node000021" class="edge">
<title>Node8&#45;&gt;Node21</title>
<g id="a_edge51_Node000008_Node000021"><a xlink:title=" ">
<path fill="none" stroke="#63b8ff" d="M804.07,-331.8C807.34,-331.16 810.62,-330.55 813.77,-330 870.15,-320.19 1027.57,-333.72 1068.77,-294 1111.31,-252.99 1107.31,-175.13 1102.78,-139.35"/>
<polygon fill="#63b8ff" stroke="#63b8ff" points="1106.22,-138.71 1101.35,-129.31 1099.29,-139.7 1106.22,-138.71"/>
</a>
</g>
</g>
<!-- Node22 -->
<g id="Node000022" class="node">
<title>Node22</title>
<g id="a_Node000022"><a xlink:href="IParam_8h.html" target="_top" xlink:title="Interface for parameters.">
<polygon fill="white" stroke="#666666" points="685.27,-239 626.27,-239 626.27,-220 685.27,-220 685.27,-239"/>
<text text-anchor="middle" x="655.77" y="-227" font-family="Helvetica,sans-Serif" font-size="10.00">IParam.h</text>
</a>
</g>
</g>
<!-- Node8&#45;&gt;Node22 -->
<g id="edge45_Node000008_Node000022" class="edge">
<title>Node8&#45;&gt;Node22</title>
<g id="a_edge45_Node000008_Node000022"><a xlink:title=" ">
<path fill="none" stroke="#63b8ff" d="M763.19,-329.66C743.38,-311.38 697.67,-269.18 672.74,-246.17"/>
<polygon fill="#63b8ff" stroke="#63b8ff" points="674.87,-243.37 665.15,-239.16 670.12,-248.51 674.87,-243.37"/>
</a>
</g>
</g>
<!-- Node28 -->
<g id="Node000028" class="node">
<title>Node28</title>
<g id="a_Node000028"><a xlink:href="Status_8h.html" target="_top" xlink:title="Communicates failure status using gRPC&#39;s codes.">
<polygon fill="white" stroke="#666666" points="1248.77,-184 1192.77,-184 1192.77,-165 1248.77,-165 1248.77,-184"/>
<text text-anchor="middle" x="1220.77" y="-172" font-family="Helvetica,sans-Serif" font-size="10.00">Status.h</text>
</a>
</g>
</g>
<!-- Node8&#45;&gt;Node28 -->
<g id="edge49_Node000008_Node000028" class="edge">
<title>Node8&#45;&gt;Node28</title>
<g id="a_edge49_Node000008_Node000028"><a xlink:title=" ">
<path fill="none" stroke="#63b8ff" d="M804.06,-331.74C807.33,-331.12 810.61,-330.52 813.77,-330 941.47,-308.84 986.54,-350.97 1102.77,-294 1150.81,-270.45 1190.83,-219.41 1209.48,-192.65"/>
<polygon fill="#63b8ff" stroke="#63b8ff" points="1212.44,-194.52 1215.17,-184.28 1206.65,-190.59 1212.44,-194.52"/>
</a>
</g>
</g>
<!-- Node32 -->
<g id="Node000032" class="node">
<title>Node32</title>
<g id="a_Node000032"><a xlink:href="ILanguagePack_8h.html" target="_top" xlink:title="Interface for language packs.">
<polygon fill="white" stroke="#666666" points="1128.77,-74 1030.77,-74 1030.77,-55 1128.77,-55 1128.77,-74"/>
<text text-anchor="middle" x="1079.77" y="-62" font-family="Helvetica,sans-Serif" font-size="10.00">ILanguagePack.h</text>
</a>
</g>
</g>
<!-- Node8&#45;&gt;Node32 -->
<g id="edge46_Node000008_Node000032" class="edge">
<title>Node8&#45;&gt;Node32</title>
<g id="a_edge46_Node000008_Node000032"><a xlink:title=" ">
<path fill="none" stroke="#63b8ff" d="M777.68,-329.98C785.75,-316.63 803.01,-290.69 823.77,-275 956.59,-174.6 1076.8,-267.79 1168.77,-129 1184.33,-105.51 1151.93,-87.92 1121.95,-77.27"/>
<polygon fill="#63b8ff" stroke="#63b8ff" points="1122.95,-73.92 1112.36,-74.06 1120.73,-80.56 1122.95,-73.92"/>
</a>
</g>
</g>
<!-- Node33 -->
<g id="Node000033" class="node">
<title>Node33</title>
<g id="a_Node000033"><a xlink:title=" ">
<polygon fill="#e0e0e0" stroke="#999999" points="913.27,-294 832.27,-294 832.27,-275 913.27,-275 913.27,-294"/>
<text text-anchor="middle" x="872.77" y="-282" font-family="Helvetica,sans-Serif" font-size="10.00">vdk/signals.h</text>
</a>
</g>
</g>
<!-- Node8&#45;&gt;Node33 -->
<g id="edge50_Node000008_Node000033" class="edge">
<title>Node8&#45;&gt;Node33</title>
<g id="a_edge50_Node000008_Node000033"><a xlink:title=" ">
<path fill="none" stroke="#63b8ff" d="M788.84,-329.98C804.63,-321.61 828.99,-308.7 847.4,-298.95"/>
<polygon fill="#63b8ff" stroke="#63b8ff" points="849.21,-301.95 856.41,-294.17 845.94,-295.76 849.21,-301.95"/>
</a>
</g>
</g>
<!-- Node34 -->
<g id="Node000034" class="node">
<title>Node34</title>
<g id="a_Node000034"><a xlink:title=" ">
<polygon fill="#e0e0e0" stroke="#999999" points="993.77,-294 931.77,-294 931.77,-275 993.77,-275 993.77,-294"/>
<text text-anchor="middle" x="962.77" y="-282" font-family="Helvetica,sans-Serif" font-size="10.00">coroutine</text>
</a>
</g>
</g>
<!-- Node8&#45;&gt;Node34 -->
<g id="edge54_Node000008_Node000034" class="edge">
<title>Node8&#45;&gt;Node34</title>
<g id="a_edge54_Node000008_Node000034"><a xlink:title=" ">
<path fill="none" stroke="#63b8ff" d="M803.3,-329.98C835.47,-321.01 886.33,-306.82 921.94,-296.89"/>
<polygon fill="#63b8ff" stroke="#63b8ff" points="923.31,-300.14 932,-294.08 921.43,-293.4 923.31,-300.14"/>
</a>
</g>
</g>
<!-- Node35 -->
<g id="Node000035" class="node">
<title>Node35</title>
<g id="a_Node000035"><a xlink:title=" ">
<polygon fill="#e0e0e0" stroke="#999999" points="1059.77,-294 1011.77,-294 1011.77,-275 1059.77,-275 1059.77,-294"/>
<text text-anchor="middle" x="1035.77" y="-282" font-family="Helvetica,sans-Serif" font-size="10.00">mutex</text>
</a>
</g>
</g>
<!-- Node8&#45;&gt;Node35 -->
<g id="edge55_Node000008_Node000035" class="edge">
<title>Node8&#45;&gt;Node35</title>
<g id="a_edge55_Node000008_Node000035"><a xlink:title=" ">
<path fill="none" stroke="#63b8ff" d="M804.1,-331.95C807.36,-331.28 810.63,-330.62 813.77,-330 894.52,-313.94 917.63,-312.74 1001.67,-294.13"/>
<polygon fill="#63b8ff" stroke="#63b8ff" points="1002.66,-297.49 1011.66,-291.9 1001.14,-290.66 1002.66,-297.49"/>
</a>
</g>
</g>
<!-- Node9&#45;&gt;Node6 -->
<g id="edge43_Node000009_Node000006" class="edge">
<title>Node9&#45;&gt;Node6</title>
<g id="a_edge43_Node000009_Node000006"><a xlink:title=" ">
<path fill="none" stroke="#63b8ff" d="M548.41,-274.8C518.95,-260.46 463.49,-228.92 436.77,-184 418.14,-152.69 415.15,-109.05 415.13,-84.41"/>
<polygon fill="#63b8ff" stroke="#63b8ff" points="418.63,-84.31 415.3,-74.25 411.63,-84.19 418.63,-84.31"/>
</a>
</g>
</g>
<!-- Node9&#45;&gt;Node10 -->
<g id="edge9_Node000009_Node000010" class="edge">
<title>Node9&#45;&gt;Node10</title>
<g id="a_edge9_Node000009_Node000010"><a xlink:title=" ">
<path fill="none" stroke="#63b8ff" d="M529.72,-274.95C495.77,-266.92 444.9,-253.95 401.77,-239 358.57,-224.03 310.18,-202.28 280.85,-188.51"/>
<polygon fill="#63b8ff" stroke="#63b8ff" points="282.2,-185.28 271.67,-184.17 279.21,-191.61 282.2,-185.28"/>
</a>
</g>
</g>
<!-- Node15 -->
<g id="Node000015" class="node">
<title>Node15</title>
<g id="a_Node000015"><a xlink:href="Enums_8h.html" target="_top" xlink:title="tools for using EnumDecorators.">
<polygon fill="white" stroke="#666666" points="941.27,-184 882.27,-184 882.27,-165 941.27,-165 941.27,-184"/>
<text text-anchor="middle" x="911.77" y="-172" font-family="Helvetica,sans-Serif" font-size="10.00">Enums.h</text>
</a>
</g>
</g>
<!-- Node9&#45;&gt;Node15 -->
<g id="edge15_Node000009_Node000015" class="edge">
<title>Node9&#45;&gt;Node15</title>
<g id="a_edge15_Node000009_Node000015"><a xlink:title=" ">
<path fill="none" stroke="#63b8ff" d="M595.05,-274.94C656.39,-255.68 805.27,-208.94 874.82,-187.1"/>
<polygon fill="#63b8ff" stroke="#63b8ff" points="875.99,-190.4 884.49,-184.07 873.9,-183.72 875.99,-190.4"/>
</a>
</g>
</g>
<!-- Node9&#45;&gt;Node22 -->
<g id="edge24_Node000009_Node000022" class="edge">
<title>Node9&#45;&gt;Node22</title>
<g id="a_edge24_Node000009_Node000022"><a xlink:title=" ">
<path fill="none" stroke="#63b8ff" d="M581.91,-274.98C595.55,-266.77 616.46,-254.18 632.55,-244.49"/>
<polygon fill="#63b8ff" stroke="#63b8ff" points="634.61,-247.33 641.37,-239.17 631,-241.33 634.61,-247.33"/>
</a>
</g>
</g>
<!-- Node23 -->
<g id="Node000023" class="node">
<title>Node23</title>
<g id="a_Node000023"><a xlink:href="IParamDescriptor_8h.html" target="_top" xlink:title="Interface class for ParamDescriptor.">
<polygon fill="white" stroke="#666666" points="554.27,-184 445.27,-184 445.27,-165 554.27,-165 554.27,-184"/>
<text text-anchor="middle" x="499.77" y="-172" font-family="Helvetica,sans-Serif" font-size="10.00">IParamDescriptor.h</text>
</a>
</g>
</g>
<!-- Node9&#45;&gt;Node23 -->
<g id="edge41_Node000009_Node000023" class="edge">
<title>Node9&#45;&gt;Node23</title>
<g id="a_edge41_Node000009_Node000023"><a xlink:title=" ">
<path fill="none" stroke="#63b8ff" d="M554.69,-274.75C543.61,-266.7 528.08,-253.78 518.77,-239 510.14,-225.31 505.26,-207.5 502.61,-194.22"/>
<polygon fill="#63b8ff" stroke="#63b8ff" points="506.05,-193.58 500.88,-184.33 499.16,-194.79 506.05,-193.58"/>
</a>
</g>
</g>
<!-- Node31 -->
<g id="Node000031" class="node">
<title>Node31</title>
<g id="a_Node000031"><a xlink:title=" ">
<polygon fill="#e0e0e0" stroke="#999999" points="607.77,-239 527.77,-239 527.77,-220 607.77,-220 607.77,-239"/>
<text text-anchor="middle" x="567.77" y="-227" font-family="Helvetica,sans-Serif" font-size="10.00">jwt&#45;cpp/jwt.h</text>
</a>
</g>
</g>
<!-- Node9&#45;&gt;Node31 -->
<g id="edge42_Node000009_Node000031" class="edge">
<title>Node9&#45;&gt;Node31</title>
<g id="a_edge42_Node000009_Node000031"><a xlink:title=" ">
<path fill="none" stroke="#63b8ff" d="M567.77,-274.75C567.77,-267.8 567.77,-257.85 567.77,-249.13"/>
<polygon fill="#63b8ff" stroke="#63b8ff" points="571.27,-249.09 567.77,-239.09 564.27,-249.09 571.27,-249.09"/>
</a>
</g>
</g>
<!-- Node10&#45;&gt;Node7 -->
<g id="edge11_Node000010_Node000007" class="edge">
<title>Node10&#45;&gt;Node7</title>
<g id="a_edge11_Node000010_Node000007"><a xlink:title=" ">
<path fill="none" stroke="#63b8ff" d="M261.56,-164.74C284.77,-138.65 353.69,-61.17 384.09,-27"/>
<polygon fill="#63b8ff" stroke="#63b8ff" points="386.9,-29.1 390.93,-19.31 381.67,-24.45 386.9,-29.1"/>
</a>
</g>
</g>
<!-- Node11 -->
<g id="Node000011" class="node">
<title>Node11</title>
<g id="a_Node000011"><a xlink:title=" ">
<polygon fill="#e0e0e0" stroke="#999999" points="283.77,-129 223.77,-129 223.77,-110 283.77,-110 283.77,-129"/>
<text text-anchor="middle" x="253.77" y="-117" font-family="Helvetica,sans-Serif" font-size="10.00">iostream</text>
</a>
</g>
</g>
<!-- Node10&#45;&gt;Node11 -->
<g id="edge10_Node000010_Node000011" class="edge">
<title>Node10&#45;&gt;Node11</title>
<g id="a_edge10_Node000010_Node000011"><a xlink:title=" ">
<path fill="none" stroke="#63b8ff" d="M253.77,-164.75C253.77,-157.8 253.77,-147.85 253.77,-139.13"/>
<polygon fill="#63b8ff" stroke="#63b8ff" points="257.27,-139.09 253.77,-129.09 250.27,-139.09 257.27,-139.09"/>
</a>
</g>
</g>
<!-- Node10&#45;&gt;Node12 -->
<g id="edge12_Node000010_Node000012" class="edge">
<title>Node10&#45;&gt;Node12</title>
<g id="a_edge12_Node000010_Node000012"><a xlink:title=" ">
<path fill="none" stroke="#63b8ff" d="M230.07,-167.99C196.62,-160.17 133.42,-145.24 70.59,-129.42"/>
<polygon fill="#63b8ff" stroke="#63b8ff" points="71.07,-125.93 60.52,-126.88 69.36,-132.72 71.07,-125.93"/>
</a>
</g>
</g>
<!-- Node13 -->
<g id="Node000013" class="node">
<title>Node13</title>
<g id="a_Node000013"><a xlink:title=" ">
<polygon fill="#e0e0e0" stroke="#999999" points="129.27,-129 78.27,-129 78.27,-110 129.27,-110 129.27,-129"/>
<text text-anchor="middle" x="103.77" y="-117" font-family="Helvetica,sans-Serif" font-size="10.00">variant</text>
</a>
</g>
</g>
<!-- Node10&#45;&gt;Node13 -->
<g id="edge13_Node000010_Node000013" class="edge">
<title>Node10&#45;&gt;Node13</title>
<g id="a_edge13_Node000010_Node000013"><a xlink:title=" ">
<path fill="none" stroke="#63b8ff" d="M230,-165.1C205.02,-156.28 165.53,-142.32 137.37,-132.37"/>
<polygon fill="#63b8ff" stroke="#63b8ff" points="138.52,-129.07 127.92,-129.03 136.19,-135.67 138.52,-129.07"/>
</a>
</g>
</g>
<!-- Node14 -->
<g id="Node000014" class="node">
<title>Node14</title>
<g id="a_Node000014"><a xlink:title=" ">
<polygon fill="#e0e0e0" stroke="#999999" points="205.77,-129 147.77,-129 147.77,-110 205.77,-110 205.77,-129"/>
<text text-anchor="middle" x="176.77" y="-117" font-family="Helvetica,sans-Serif" font-size="10.00">memory</text>
</a>
</g>
</g>
<!-- Node10&#45;&gt;Node14 -->
<g id="edge14_Node000010_Node000014" class="edge">
<title>Node10&#45;&gt;Node14</title>
<g id="a_edge14_Node000010_Node000014"><a xlink:title=" ">
<path fill="none" stroke="#63b8ff" d="M241.4,-164.98C229.68,-156.92 211.85,-144.65 197.88,-135.03"/>
<polygon fill="#63b8ff" stroke="#63b8ff" points="199.59,-131.96 189.37,-129.17 195.62,-137.72 199.59,-131.96"/>
</a>
</g>
</g>
<!-- Node16 -->
<g id="Node000016" class="node">
<title>Node16</title>
<g id="a_Node000016"><a xlink:href="EnumDecorator_8h.html" target="_top" xlink:title="Provides an enum with useful extra functionality.">
<polygon fill="white" stroke="#666666" points="983.77,-129 839.77,-129 839.77,-110 983.77,-110 983.77,-129"/>
<text text-anchor="middle" x="911.77" y="-117" font-family="Helvetica,sans-Serif" font-size="10.00">patterns/EnumDecorator.h</text>
</a>
</g>
</g>
<!-- Node15&#45;&gt;Node16 -->
<g id="edge16_Node000015_Node000016" class="edge">
<title>Node15&#45;&gt;Node16</title>
<g id="a_edge16_Node000015_Node000016"><a xlink:title=" ">
<path fill="none" stroke="#63b8ff" d="M911.77,-164.75C911.77,-157.8 911.77,-147.85 911.77,-139.13"/>
<polygon fill="#63b8ff" stroke="#63b8ff" points="915.27,-139.09 911.77,-129.09 908.27,-139.09 915.27,-139.09"/>
</a>
</g>
</g>
<!-- Node18 -->
<g id="Node000018" class="node">
<title>Node18</title>
<g id="a_Node000018"><a xlink:title=" ">
<polygon fill="#e0e0e0" stroke="#999999" points="1012.77,-74 962.77,-74 962.77,-55 1012.77,-55 1012.77,-74"/>
<text text-anchor="middle" x="987.77" y="-62" font-family="Helvetica,sans-Serif" font-size="10.00">cstdint</text>
</a>
</g>
</g>
<!-- Node15&#45;&gt;Node18 -->
<g id="edge23_Node000015_Node000018" class="edge">
<title>Node15&#45;&gt;Node18</title>
<g id="a_edge23_Node000015_Node000018"><a xlink:title=" ">
<path fill="none" stroke="#63b8ff" d="M941.56,-165.57C959.82,-159 981.74,-147.64 992.77,-129 1000.86,-115.33 998.3,-97.02 994.49,-83.57"/>
<polygon fill="#63b8ff" stroke="#63b8ff" points="997.8,-82.42 991.35,-74.01 991.15,-84.6 997.8,-82.42"/>
</a>
</g>
</g>
<!-- Node15&#45;&gt;Node21 -->
<g id="edge22_Node000015_Node000021" class="edge">
<title>Node15&#45;&gt;Node21</title>
<g id="a_edge22_Node000015_Node000021"><a xlink:title=" ">
<path fill="none" stroke="#63b8ff" d="M941.56,-165.1C973.41,-156.12 1024.1,-141.83 1059.5,-131.85"/>
<polygon fill="#63b8ff" stroke="#63b8ff" points="1060.82,-135.12 1069.5,-129.03 1058.92,-128.38 1060.82,-135.12"/>
</a>
</g>
</g>
<!-- Node16&#45;&gt;Node7 -->
<g id="edge20_Node000016_Node000007" class="edge">
<title>Node16&#45;&gt;Node7</title>
<g id="a_edge20_Node000016_Node000007"><a xlink:title=" ">
<path fill="none" stroke="#63b8ff" d="M839.43,-110.85C721.05,-98.31 498.77,-74.71 496.77,-74 465.92,-63.06 435.01,-40.67 416.38,-25.61"/>
<polygon fill="#63b8ff" stroke="#63b8ff" points="418.44,-22.77 408.5,-19.09 413.97,-28.16 418.44,-22.77"/>
</a>
</g>
</g>
<!-- Node17 -->
<g id="Node000017" class="node">
<title>Node17</title>
<g id="a_Node000017"><a xlink:href="ReflectionMacros_8h.html" target="_top" xlink:title="adapted from https://github.com/tapika/TestCppReflect">
<polygon fill="white" stroke="#666666" points="906.77,-74 796.77,-74 796.77,-55 906.77,-55 906.77,-74"/>
<text text-anchor="middle" x="851.77" y="-62" font-family="Helvetica,sans-Serif" font-size="10.00">ReflectionMacros.h</text>
</a>
</g>
</g>
<!-- Node16&#45;&gt;Node17 -->
<g id="edge17_Node000016_Node000017" class="edge">
<title>Node16&#45;&gt;Node17</title>
<g id="a_edge17_Node000016_Node000017"><a xlink:title=" ">
<path fill="none" stroke="#63b8ff" d="M902.13,-109.98C893.26,-102.15 879.89,-90.34 869.16,-80.86"/>
<polygon fill="#63b8ff" stroke="#63b8ff" points="871.4,-78.17 861.58,-74.17 866.76,-83.41 871.4,-78.17"/>
</a>
</g>
</g>
<!-- Node16&#45;&gt;Node18 -->
<g id="edge18_Node000016_Node000018" class="edge">
<title>Node16&#45;&gt;Node18</title>
<g id="a_edge18_Node000016_Node000018"><a xlink:title=" ">
<path fill="none" stroke="#63b8ff" d="M923.98,-109.98C935.54,-101.92 953.14,-89.65 966.93,-80.03"/>
<polygon fill="#63b8ff" stroke="#63b8ff" points="969.14,-82.76 975.34,-74.17 965.13,-77.02 969.14,-82.76"/>
</a>
</g>
</g>
<!-- Node19 -->
<g id="Node000019" class="node">
<title>Node19</title>
<g id="a_Node000019"><a xlink:title=" ">
<polygon fill="#e0e0e0" stroke="#999999" points="981.27,-19 888.27,-19 888.27,0 981.27,0 981.27,-19"/>
<text text-anchor="middle" x="934.77" y="-7" font-family="Helvetica,sans-Serif" font-size="10.00">unordered_map</text>
</a>
</g>
</g>
<!-- Node16&#45;&gt;Node19 -->
<g id="edge19_Node000016_Node000019" class="edge">
<title>Node16&#45;&gt;Node19</title>
<g id="a_edge19_Node000016_Node000019"><a xlink:title=" ">
<path fill="none" stroke="#63b8ff" d="M913.65,-109.66C917.39,-92.09 925.84,-52.45 930.84,-28.95"/>
<polygon fill="#63b8ff" stroke="#63b8ff" points="934.27,-29.67 932.93,-19.16 927.42,-28.21 934.27,-29.67"/>
</a>
</g>
</g>
<!-- Node20 -->
<g id="Node000020" class="node">
<title>Node20</title>
<g id="a_Node000020"><a xlink:title=" ">
<polygon fill="#e0e0e0" stroke="#999999" points="778.27,-74 709.27,-74 709.27,-55 778.27,-55 778.27,-74"/>
<text text-anchor="middle" x="743.77" y="-62" font-family="Helvetica,sans-Serif" font-size="10.00">type_traits</text>
</a>
</g>
</g>
<!-- Node16&#45;&gt;Node20 -->
<g id="edge21_Node000016_Node000020" class="edge">
<title>Node16&#45;&gt;Node20</title>
<g id="a_edge21_Node000016_Node000020"><a xlink:title=" ">
<path fill="none" stroke="#63b8ff" d="M884.78,-109.98C856.57,-101.09 812.13,-87.07 780.69,-77.15"/>
<polygon fill="#63b8ff" stroke="#63b8ff" points="781.56,-73.75 770.97,-74.08 779.46,-80.43 781.56,-73.75"/>
</a>
</g>
</g>
<!-- Node22&#45;&gt;Node2 -->
<g id="edge26_Node000022_Node000002" class="edge">
<title>Node22&#45;&gt;Node2</title>
<g id="a_edge26_Node000022_Node000002"><a xlink:title=" ">
<path fill="none" stroke="#63b8ff" d="M663.7,-219.75C670.62,-212.11 680.83,-200.82 689.22,-191.56"/>
<polygon fill="#63b8ff" stroke="#63b8ff" points="691.87,-193.85 695.99,-184.09 686.68,-189.15 691.87,-193.85"/>
</a>
</g>
</g>
<!-- Node22&#45;&gt;Node3 -->
<g id="edge40_Node000022_Node000003" class="edge">
<title>Node22&#45;&gt;Node3</title>
<g id="a_edge40_Node000022_Node000003"><a xlink:title=" ">
<path fill="none" stroke="#63b8ff" d="M651.84,-219.66C643.96,-201.93 626.09,-161.73 615.69,-138.32"/>
<polygon fill="#63b8ff" stroke="#63b8ff" points="618.88,-136.87 611.62,-129.16 612.48,-139.72 618.88,-136.87"/>
</a>
</g>
</g>
<!-- Node22&#45;&gt;Node10 -->
<g id="edge36_Node000022_Node000010" class="edge">
<title>Node22&#45;&gt;Node10</title>
<g id="a_edge36_Node000022_Node000010"><a xlink:title=" ">
<path fill="none" stroke="#63b8ff" d="M626.01,-221.72C622.9,-221.1 619.78,-220.51 616.77,-220 496.4,-199.55 352.05,-184.71 287.66,-178.6"/>
<polygon fill="#63b8ff" stroke="#63b8ff" points="287.95,-175.11 277.66,-177.66 287.29,-182.08 287.95,-175.11"/>
</a>
</g>
</g>
<!-- Node22&#45;&gt;Node15 -->
<g id="edge25_Node000022_Node000015" class="edge">
<title>Node22&#45;&gt;Node15</title>
<g id="a_edge25_Node000022_Node000015"><a xlink:title=" ">
<path fill="none" stroke="#63b8ff" d="M685.39,-222.37C731.53,-212.81 820.64,-194.37 872.23,-183.69"/>
<polygon fill="#63b8ff" stroke="#63b8ff" points="872.94,-187.11 882.02,-181.66 871.52,-180.26 872.94,-187.11"/>
</a>
</g>
</g>
<!-- Node22&#45;&gt;Node23 -->
<g id="edge27_Node000022_Node000023" class="edge">
<title>Node22&#45;&gt;Node23</title>
<g id="a_edge27_Node000022_Node000023"><a xlink:title=" ">
<path fill="none" stroke="#63b8ff" d="M630.7,-219.98C604.74,-211.16 563.96,-197.31 534.81,-187.41"/>
<polygon fill="#63b8ff" stroke="#63b8ff" points="535.62,-183.99 525.03,-184.08 533.37,-190.61 535.62,-183.99"/>
</a>
</g>
</g>
<!-- Node22&#45;&gt;Node28 -->
<g id="edge37_Node000022_Node000028" class="edge">
<title>Node22&#45;&gt;Node28</title>
<g id="a_edge37_Node000022_Node000028"><a xlink:title=" ">
<path fill="none" stroke="#63b8ff" d="M685.35,-225.73C780.07,-216.84 1075.89,-189.09 1182.22,-179.12"/>
<polygon fill="#63b8ff" stroke="#63b8ff" points="1182.86,-182.57 1192.49,-178.15 1182.21,-175.6 1182.86,-182.57"/>
</a>
</g>
</g>
<!-- Node23&#45;&gt;Node3 -->
<g id="edge35_Node000023_Node000003" class="edge">
<title>Node23&#45;&gt;Node3</title>
<g id="a_edge35_Node000023_Node000003"><a xlink:title=" ">
<path fill="none" stroke="#63b8ff" d="M517.12,-164.98C534.34,-156.54 560.97,-143.47 580.92,-133.68"/>
<polygon fill="#63b8ff" stroke="#63b8ff" points="582.67,-136.72 590.1,-129.17 579.58,-130.43 582.67,-136.72"/>
</a>
</g>
</g>
<!-- Node23&#45;&gt;Node5 -->
<g id="edge28_Node000023_Node000005" class="edge">
<title>Node23&#45;&gt;Node5</title>
<g id="a_edge28_Node000023_Node000005"><a xlink:title=" ">
<path fill="none" stroke="#63b8ff" d="M477.92,-164.98C455.65,-156.3 420.87,-142.75 395.55,-132.88"/>
<polygon fill="#63b8ff" stroke="#63b8ff" points="396.61,-129.54 386.02,-129.17 394.06,-136.06 396.61,-129.54"/>
</a>
</g>
</g>
<!-- Node24 -->
<g id="Node000024" class="node">
<title>Node24</title>
<g id="a_Node000024"><a xlink:href="PolyglotText_8h.html" target="_top" xlink:title="Polyglot Text serialization and deserialization to protobuf.">
<polygon fill="white" stroke="#666666" points="529.77,-129 443.77,-129 443.77,-110 529.77,-110 529.77,-129"/>
<text text-anchor="middle" x="486.77" y="-117" font-family="Helvetica,sans-Serif" font-size="10.00">PolyglotText.h</text>
</a>
</g>
</g>
<!-- Node23&#45;&gt;Node24 -->
<g id="edge29_Node000023_Node000024" class="edge">
<title>Node23&#45;&gt;Node24</title>
<g id="a_edge29_Node000023_Node000024"><a xlink:title=" ">
<path fill="none" stroke="#63b8ff" d="M497.62,-164.75C495.9,-157.72 493.42,-147.62 491.27,-138.84"/>
<polygon fill="#63b8ff" stroke="#63b8ff" points="494.66,-137.97 488.88,-129.09 487.86,-139.63 494.66,-137.97"/>
</a>
</g>
</g>
<!-- Node25 -->
<g id="Node000025" class="node">
<title>Node25</title>
<g id="a_Node000025"><a xlink:href="IPolyglotText_8h.html" target="_top" xlink:title="Catena&#39;s multi&#45;language text interface.">
<polygon fill="white" stroke="#666666" points="594.27,-74 505.27,-74 505.27,-55 594.27,-55 594.27,-74"/>
<text text-anchor="middle" x="549.77" y="-62" font-family="Helvetica,sans-Serif" font-size="10.00">IPolyglotText.h</text>
</a>
</g>
</g>
<!-- Node24&#45;&gt;Node25 -->
<g id="edge30_Node000024_Node000025" class="edge">
<title>Node24&#45;&gt;Node25</title>
<g id="a_edge30_Node000024_Node000025"><a xlink:title=" ">
<path fill="none" stroke="#63b8ff" d="M496.89,-109.98C506.2,-102.15 520.24,-90.34 531.51,-80.86"/>
<polygon fill="#63b8ff" stroke="#63b8ff" points="534.06,-83.29 539.46,-74.17 529.56,-77.93 534.06,-83.29"/>
</a>
</g>
</g>
<!-- Node25&#45;&gt;Node7 -->
<g id="edge33_Node000025_Node000007" class="edge">
<title>Node25&#45;&gt;Node7</title>
<g id="a_edge33_Node000025_Node000007"><a xlink:title=" ">
<path fill="none" stroke="#63b8ff" d="M525.51,-54.98C499.71,-45.93 458.78,-31.56 430.45,-21.62"/>
<polygon fill="#63b8ff" stroke="#63b8ff" points="431.6,-18.31 421,-18.3 429.28,-24.92 431.6,-18.31"/>
</a>
</g>
</g>
<!-- Node25&#45;&gt;Node19 -->
<g id="edge32_Node000025_Node000019" class="edge">
<title>Node25&#45;&gt;Node19</title>
<g id="a_edge32_Node000025_Node000019"><a xlink:title=" ">
<path fill="none" stroke="#63b8ff" d="M594.31,-57.37C664.59,-47.69 801.12,-28.9 878.22,-18.28"/>
<polygon fill="#63b8ff" stroke="#63b8ff" points="878.81,-21.74 888.24,-16.91 877.85,-14.8 878.81,-21.74"/>
</a>
</g>
</g>
<!-- Node26 -->
<g id="Node000026" class="node">
<title>Node26</title>
<g id="a_Node000026"><a xlink:title=" ">
<polygon fill="#e0e0e0" stroke="#999999" points="592.77,-19 460.77,-19 460.77,0 592.77,0 592.77,-19"/>
<text text-anchor="middle" x="526.77" y="-7" font-family="Helvetica,sans-Serif" font-size="10.00">interface/language.pb.h</text>
</a>
</g>
</g>
<!-- Node25&#45;&gt;Node26 -->
<g id="edge31_Node000025_Node000026" class="edge">
<title>Node25&#45;&gt;Node26</title>
<g id="a_edge31_Node000025_Node000026"><a xlink:title=" ">
<path fill="none" stroke="#63b8ff" d="M545.97,-54.75C542.86,-47.57 538.35,-37.18 534.48,-28.27"/>
<polygon fill="#63b8ff" stroke="#63b8ff" points="537.69,-26.87 530.5,-19.09 531.27,-29.66 537.69,-26.87"/>
</a>
</g>
</g>
<!-- Node27 -->
<g id="Node000027" class="node">
<title>Node27</title>
<g id="a_Node000027"><a xlink:title=" ">
<polygon fill="#e0e0e0" stroke="#999999" points="694.27,-19 611.27,-19 611.27,0 694.27,0 694.27,-19"/>
<text text-anchor="middle" x="652.77" y="-7" font-family="Helvetica,sans-Serif" font-size="10.00">initializer_list</text>
</a>
</g>
</g>
<!-- Node25&#45;&gt;Node27 -->
<g id="edge34_Node000025_Node000027" class="edge">
<title>Node25&#45;&gt;Node27</title>
<g id="a_edge34_Node000025_Node000027"><a xlink:title=" ">
<path fill="none" stroke="#63b8ff" d="M566.32,-54.98C582.66,-46.57 607.9,-33.59 626.9,-23.81"/>
<polygon fill="#63b8ff" stroke="#63b8ff" points="628.63,-26.86 635.92,-19.17 625.43,-20.63 628.63,-26.86"/>
</a>
</g>
</g>
<!-- Node29 -->
<g id="Node000029" class="node">
<title>Node29</title>
<g id="a_Node000029"><a xlink:title=" ">
<polygon fill="#e0e0e0" stroke="#999999" points="1271.77,-129 1215.77,-129 1215.77,-110 1271.77,-110 1271.77,-129"/>
<text text-anchor="middle" x="1243.77" y="-117" font-family="Helvetica,sans-Serif" font-size="10.00">sstream</text>
</a>
</g>
</g>
<!-- Node28&#45;&gt;Node29 -->
<g id="edge38_Node000028_Node000029" class="edge">
<title>Node28&#45;&gt;Node29</title>
<g id="a_edge38_Node000028_Node000029"><a xlink:title=" ">
<path fill="none" stroke="#63b8ff" d="M1224.57,-164.75C1227.68,-157.57 1232.19,-147.18 1236.06,-138.27"/>
<polygon fill="#63b8ff" stroke="#63b8ff" points="1239.27,-139.66 1240.04,-129.09 1232.85,-136.87 1239.27,-139.66"/>
</a>
</g>
</g>
<!-- Node30 -->
<g id="Node000030" class="node">
<title>Node30</title>
<g id="a_Node000030"><a xlink:title=" ">
<polygon fill="#e0e0e0" stroke="#999999" points="1355.27,-129 1290.27,-129 1290.27,-110 1355.27,-110 1355.27,-129"/>
<text text-anchor="middle" x="1322.77" y="-117" font-family="Helvetica,sans-Serif" font-size="10.00">stdexcept</text>
</a>
</g>
</g>
<!-- Node28&#45;&gt;Node30 -->
<g id="edge39_Node000028_Node000030" class="edge">
<title>Node28&#45;&gt;Node30</title>
<g id="a_edge39_Node000028_Node000030"><a xlink:title=" ">
<path fill="none" stroke="#63b8ff" d="M1237.16,-164.98C1253.34,-156.57 1278.34,-143.59 1297.15,-133.81"/>
<polygon fill="#63b8ff" stroke="#63b8ff" points="1298.82,-136.89 1306.08,-129.17 1295.6,-130.68 1298.82,-136.89"/>
</a>
</g>
</g>
<!-- Node32&#45;&gt;Node7 -->
<g id="edge47_Node000032_Node000007" class="edge">
<title>Node32&#45;&gt;Node7</title>
<g id="a_edge47_Node000032_Node000007"><a xlink:title=" ">
<path fill="none" stroke="#63b8ff" d="M1030.76,-56.03C1027.72,-55.65 1024.7,-55.31 1021.77,-55 769.31,-28.57 704.04,-47.13 451.77,-19 445.08,-18.25 437.95,-17.25 431.16,-16.2"/>
<polygon fill="#63b8ff" stroke="#63b8ff" points="431.31,-12.68 420.88,-14.53 430.19,-19.59 431.31,-12.68"/>
</a>
</g>
</g>
<!-- Node32&#45;&gt;Node19 -->
<g id="edge48_Node000032_Node000019" class="edge">
<title>Node32&#45;&gt;Node19</title>
<g id="a_edge48_Node000032_Node000019"><a xlink:title=" ">
<path fill="none" stroke="#63b8ff" d="M1056.47,-54.98C1032.52,-46.23 994.99,-32.51 967.94,-22.62"/>
<polygon fill="#63b8ff" stroke="#63b8ff" points="969.08,-19.32 958.49,-19.17 966.68,-25.89 969.08,-19.32"/>
</a>
</g>
</g>
</g>
</svg>
