<?xml version="1.0" encoding="UTF-8" standalone="no"?>
<!DOCTYPE svg PUBLIC "-//W3C//DTD SVG 1.1//EN"
 "http://www.w3.org/Graphics/SVG/1.1/DTD/svg11.dtd">
<!-- Generated by graphviz version 2.43.0 (0)
 -->
<!-- Title: /home/runner/work/Catena/Catena/sdks/cpp/common/include/RangeConstraint.h Pages: 1 -->
<!--zoomable 445 -->

<svg id="main" version="1.1" xmlns="http://www.w3.org/2000/svg" xmlns:xlink="http://www.w3.org/1999/xlink" xml:space="preserve" onload="init(evt)">
<style type="text/css"><![CDATA[
.node, .edge {opacity: 0.7;}
.node.selected, .edge.selected {opacity: 1;}
.edge:hover path { stroke: red; }
.edge:hover polygon { stroke: red; fill: red; }
]]></style>

<defs>
  <circle id="rim" cx="0" cy="0" r="7"/>
  <circle id="rim2" cx="0" cy="0" r="3.5"/>
  <g id="zoomPlus">
    <use xlink:href="#rim" fill="#404040"><set attributeName="fill" to="#808080" begin="zoomplus.mouseover" end="zoomplus.mouseout"/></use>
    <path d="M-4,0h8M0,-4v8" fill="none" stroke="white" stroke-width="1.5" pointer-events="none"/>
  </g>
  <g id="zoomMin">
    <use xlink:href="#rim" fill="#404040"><set attributeName="fill" to="#808080" begin="zoomminus.mouseover" end="zoomminus.mouseout"/></use>
    <path d="M-4,0h8" fill="none" stroke="white" stroke-width="1.5" pointer-events="none"/>
  </g>
  <g id="arrowUp" transform="translate(30 24)">
    <use xlink:href="#rim"/>
    <path pointer-events="none" fill="none" stroke="white" stroke-width="1.5" d="M0,-3.0v7 M-2.5,-0.5L0,-3.0L2.5,-0.5"/>
  </g>
  <g id="arrowRight" transform="rotate(90) translate(36 -43)">
    <use xlink:href="#rim"/>
    <path pointer-events="none" fill="none" stroke="white" stroke-width="1.5" d="M0,-3.0v7 M-2.5,-0.5L0,-3.0L2.5,-0.5"/>
  </g>
  <g id="arrowDown" transform="rotate(180) translate(-30 -48)">
    <use xlink:href="#rim"/>
    <path pointer-events="none" fill="none" stroke="white" stroke-width="1.5" d="M0,-3.0v7 M-2.5,-0.5L0,-3.0L2.5,-0.5"/>
  </g>
  <g id="arrowLeft" transform="rotate(270) translate(-36 17)">
    <use xlink:href="#rim"/>
    <path pointer-events="none" fill="none" stroke="white" stroke-width="1.5" d="M0,-3.0v7 M-2.5,-0.5L0,-3.0L2.5,-0.5"/>
  </g>
  <g id="resetDef">
    <use xlink:href="#rim2" fill="#404040"><set attributeName="fill" to="#808080" begin="reset.mouseover" end="reset.mouseout"/></use>
  </g>
</defs>
<script type="application/ecmascript">
var viewWidth = 1433;
var viewHeight = 445;
var sectionId = 'dynsection-0';
</script>
<script type="application/ecmascript" xlink:href="svg.min.js"/>
<svg id="graph" class="graph">
<g id="viewport">
<title>/home/runner/work/Catena/Catena/sdks/cpp/common/include/RangeConstraint.h</title>
<!-- Node1 -->
<g id="Node000001" class="node">
<title>Node1</title>
<g id="a_Node000001"><a xlink:title="A constraint that checks if a value is within a range.">
<polygon fill="#999999" stroke="#666666" points="858,-437 710,-437 710,-396 858,-396 858,-437"/>
<text text-anchor="start" x="718" y="-425" font-family="Helvetica,sans-Serif" font-size="10.00">/home/runner/work/Catena</text>
<text text-anchor="start" x="718" y="-414" font-family="Helvetica,sans-Serif" font-size="10.00">/Catena/sdks/cpp/common</text>
<text text-anchor="middle" x="784" y="-403" font-family="Helvetica,sans-Serif" font-size="10.00">/include/RangeConstraint.h</text>
</a>
</g>
</g>
<!-- Node2 -->
<g id="Node000002" class="node">
<title>Node2</title>
<g id="a_Node000002"><a xlink:href="IConstraint_8h.html" target="_top" xlink:title="Interface for constraints.">
<polygon fill="white" stroke="#666666" points="297.5,-195 218.5,-195 218.5,-176 297.5,-176 297.5,-195"/>
<text text-anchor="middle" x="258" y="-183" font-family="Helvetica,sans-Serif" font-size="10.00">IConstraint.h</text>
</a>
</g>
</g>
<!-- Node1&#45;&gt;Node2 -->
<g id="edge1_Node000001_Node000002" class="edge">
<title>Node1&#45;&gt;Node2</title>
<g id="a_edge1_Node000001_Node000002"><a xlink:title=" ">
<path fill="none" stroke="#63b8ff" d="M739.15,-395.98C634.02,-350.2 373.97,-236.99 286.92,-199.09"/>
<polygon fill="#63b8ff" stroke="#63b8ff" points="288.21,-195.83 277.64,-195.05 285.41,-202.25 288.21,-195.83"/>
</a>
</g>
</g>
<!-- Node5 -->
<g id="Node000005" class="node">
<title>Node5</title>
<g id="a_Node000005"><a xlink:href="IParam_8h.html" target="_top" xlink:title="Interface for parameters.">
<polygon fill="white" stroke="#666666" points="720.5,-250 661.5,-250 661.5,-231 720.5,-231 720.5,-250"/>
<text text-anchor="middle" x="691" y="-238" font-family="Helvetica,sans-Serif" font-size="10.00">IParam.h</text>
</a>
</g>
</g>
<!-- Node1&#45;&gt;Node5 -->
<g id="edge4_Node000001_Node000005" class="edge">
<title>Node1&#45;&gt;Node5</title>
<g id="a_edge4_Node000001_Node000005"><a xlink:title=" ">
<path fill="none" stroke="#63b8ff" d="M773.51,-395.88C755.26,-361.73 717.93,-291.89 700.44,-259.16"/>
<polygon fill="#63b8ff" stroke="#63b8ff" points="703.49,-257.44 695.69,-250.27 697.32,-260.74 703.49,-257.44"/>
</a>
</g>
</g>
<!-- Node15 -->
<g id="Node000015" class="node">
<title>Node15</title>
<g id="a_Node000015"><a xlink:href="Tags_8h.html" target="_top" xlink:title="Tags to differentiate collections with the same type for template specialization.">
<polygon fill="white" stroke="#666666" points="1370.5,-140 1323.5,-140 1323.5,-121 1370.5,-121 1370.5,-140"/>
<text text-anchor="middle" x="1347" y="-128" font-family="Helvetica,sans-Serif" font-size="10.00">Tags.h</text>
</a>
</g>
</g>
<!-- Node1&#45;&gt;Node15 -->
<g id="edge39_Node000001_Node000015" class="edge">
<title>Node1&#45;&gt;Node15</title>
<g id="a_edge39_Node000001_Node000015"><a xlink:title=" ">
<path fill="none" stroke="#63b8ff" d="M858.15,-415.22C1011.44,-412.63 1349,-395.68 1349,-296.5 1349,-296.5 1349,-296.5 1349,-239.5 1349,-208.18 1348.15,-171.77 1347.56,-150.23"/>
<polygon fill="#63b8ff" stroke="#63b8ff" points="1351.05,-150.07 1347.27,-140.18 1344.06,-150.27 1351.05,-150.07"/>
</a>
</g>
</g>
<!-- Node19 -->
<g id="Node000019" class="node">
<title>Node19</title>
<g id="a_Node000019"><a xlink:title=" ">
<polygon fill="#e0e0e0" stroke="#999999" points="321.5,-30 180.5,-30 180.5,0 321.5,0 321.5,-30"/>
<text text-anchor="start" x="188.5" y="-18" font-family="Helvetica,sans-Serif" font-size="10.00">google/protobuf/message</text>
<text text-anchor="middle" x="251" y="-7" font-family="Helvetica,sans-Serif" font-size="10.00">_lite.h</text>
</a>
</g>
</g>
<!-- Node1&#45;&gt;Node19 -->
<g id="edge60_Node000001_Node000019" class="edge">
<title>Node1&#45;&gt;Node19</title>
<g id="a_edge60_Node000001_Node000019"><a xlink:title=" ">
<path fill="none" stroke="#63b8ff" d="M709.89,-411.98C514.46,-401.7 0,-367.87 0,-296.5 0,-296.5 0,-296.5 0,-129.5 0,-53.45 96.85,-28.09 170.23,-19.78"/>
<polygon fill="#63b8ff" stroke="#63b8ff" points="170.83,-23.24 180.41,-18.72 170.11,-16.28 170.83,-23.24"/>
</a>
</g>
</g>
<!-- Node30 -->
<g id="Node000030" class="node">
<title>Node30</title>
<g id="a_Node000030"><a xlink:href="IDevice_8h.html" target="_top" xlink:title="Interface for device.">
<polygon fill="white" stroke="#666666" points="967,-360 905,-360 905,-341 967,-341 967,-360"/>
<text text-anchor="middle" x="936" y="-348" font-family="Helvetica,sans-Serif" font-size="10.00">IDevice.h</text>
</a>
</g>
</g>
<!-- Node1&#45;&gt;Node30 -->
<g id="edge40_Node000001_Node000030" class="edge">
<title>Node1&#45;&gt;Node30</title>
<g id="a_edge40_Node000001_Node000030"><a xlink:title=" ">
<path fill="none" stroke="#63b8ff" d="M830.43,-395.95C855.11,-385.56 884.72,-373.09 906.3,-364.01"/>
<polygon fill="#63b8ff" stroke="#63b8ff" points="907.74,-367.2 915.59,-360.09 905.02,-360.75 907.74,-367.2"/>
</a>
</g>
</g>
<!-- Node37 -->
<g id="Node000037" class="node">
<title>Node37</title>
<g id="a_Node000037"><a xlink:title=" ">
<polygon fill="#e0e0e0" stroke="#999999" points="1424.5,-360 1377.5,-360 1377.5,-341 1424.5,-341 1424.5,-360"/>
<text text-anchor="middle" x="1401" y="-348" font-family="Helvetica,sans-Serif" font-size="10.00">cmath</text>
</a>
</g>
</g>
<!-- Node1&#45;&gt;Node37 -->
<g id="edge61_Node000001_Node000037" class="edge">
<title>Node1&#45;&gt;Node37</title>
<g id="a_edge61_Node000001_Node000037"><a xlink:title=" ">
<path fill="none" stroke="#63b8ff" d="M858.41,-411.34C968.98,-404.49 1182.99,-388.65 1363,-360 1364.46,-359.77 1365.95,-359.51 1367.45,-359.24"/>
<polygon fill="#63b8ff" stroke="#63b8ff" points="1368.25,-362.65 1377.37,-357.26 1366.88,-355.79 1368.25,-362.65"/>
</a>
</g>
</g>
<!-- Node3 -->
<g id="Node000003" class="node">
<title>Node3</title>
<g id="a_Node000003"><a xlink:title=" ">
<polygon fill="#e0e0e0" stroke="#999999" points="301.5,-140 182.5,-140 182.5,-121 301.5,-121 301.5,-140"/>
<text text-anchor="middle" x="242" y="-128" font-family="Helvetica,sans-Serif" font-size="10.00">interface/param.pb.h</text>
</a>
</g>
</g>
<!-- Node2&#45;&gt;Node3 -->
<g id="edge2_Node000002_Node000003" class="edge">
<title>Node2&#45;&gt;Node3</title>
<g id="a_edge2_Node000002_Node000003"><a xlink:title=" ">
<path fill="none" stroke="#63b8ff" d="M255.36,-175.75C253.24,-168.72 250.19,-158.62 247.54,-149.84"/>
<polygon fill="#63b8ff" stroke="#63b8ff" points="250.83,-148.65 244.59,-140.09 244.13,-150.67 250.83,-148.65"/>
</a>
</g>
</g>
<!-- Node4 -->
<g id="Node000004" class="node">
<title>Node4</title>
<g id="a_Node000004"><a xlink:title=" ">
<polygon fill="#e0e0e0" stroke="#999999" points="164,-140 28,-140 28,-121 164,-121 164,-140"/>
<text text-anchor="middle" x="96" y="-128" font-family="Helvetica,sans-Serif" font-size="10.00">interface/constraint.pb.h</text>
</a>
</g>
</g>
<!-- Node2&#45;&gt;Node4 -->
<g id="edge3_Node000002_Node000004" class="edge">
<title>Node2&#45;&gt;Node4</title>
<g id="a_edge3_Node000002_Node000004"><a xlink:title=" ">
<path fill="none" stroke="#63b8ff" d="M231.97,-175.98C204.89,-167.13 162.29,-153.19 131.99,-143.28"/>
<polygon fill="#63b8ff" stroke="#63b8ff" points="132.82,-139.87 122.23,-140.08 130.65,-146.52 132.82,-139.87"/>
</a>
</g>
</g>
<!-- Node5&#45;&gt;Node2 -->
<g id="edge14_Node000005_Node000002" class="edge">
<title>Node5&#45;&gt;Node2</title>
<g id="a_edge14_Node000005_Node000002"><a xlink:title=" ">
<path fill="none" stroke="#63b8ff" d="M661.24,-235.86C588.01,-226.89 398.49,-203.7 307.79,-192.59"/>
<polygon fill="#63b8ff" stroke="#63b8ff" points="308.11,-189.11 297.76,-191.37 307.26,-196.06 308.11,-189.11"/>
</a>
</g>
</g>
<!-- Node5&#45;&gt;Node3 -->
<g id="edge38_Node000005_Node000003" class="edge">
<title>Node5&#45;&gt;Node3</title>
<g id="a_edge38_Node000005_Node000003"><a xlink:title=" ">
<path fill="none" stroke="#63b8ff" d="M661.38,-233.47C621.44,-225.24 548.17,-209.83 486,-195 414.25,-177.88 331.24,-155.79 282.87,-142.68"/>
<polygon fill="#63b8ff" stroke="#63b8ff" points="283.66,-139.27 273.1,-140.03 281.83,-146.03 283.66,-139.27"/>
</a>
</g>
</g>
<!-- Node6 -->
<g id="Node000006" class="node">
<title>Node6</title>
<g id="a_Node000006"><a xlink:href="Enums_8h.html" target="_top" xlink:title="tools for using EnumDecorators.">
<polygon fill="white" stroke="#666666" points="720.5,-195 661.5,-195 661.5,-176 720.5,-176 720.5,-195"/>
<text text-anchor="middle" x="691" y="-183" font-family="Helvetica,sans-Serif" font-size="10.00">Enums.h</text>
</a>
</g>
</g>
<!-- Node5&#45;&gt;Node6 -->
<g id="edge5_Node000005_Node000006" class="edge">
<title>Node5&#45;&gt;Node6</title>
<g id="a_edge5_Node000005_Node000006"><a xlink:title=" ">
<path fill="none" stroke="#63b8ff" d="M691,-230.75C691,-223.8 691,-213.85 691,-205.13"/>
<polygon fill="#63b8ff" stroke="#63b8ff" points="694.5,-205.09 691,-195.09 687.5,-205.09 694.5,-205.09"/>
</a>
</g>
</g>
<!-- Node14 -->
<g id="Node000014" class="node">
<title>Node14</title>
<g id="a_Node000014"><a xlink:href="IParamDescriptor_8h.html" target="_top" xlink:title="Interface class for ParamDescriptor.">
<polygon fill="white" stroke="#666666" points="988.5,-195 879.5,-195 879.5,-176 988.5,-176 988.5,-195"/>
<text text-anchor="middle" x="934" y="-183" font-family="Helvetica,sans-Serif" font-size="10.00">IParamDescriptor.h</text>
</a>
</g>
</g>
<!-- Node5&#45;&gt;Node14 -->
<g id="edge15_Node000005_Node000014" class="edge">
<title>Node5&#45;&gt;Node14</title>
<g id="a_edge15_Node000005_Node000014"><a xlink:title=" ">
<path fill="none" stroke="#63b8ff" d="M720.8,-233C761.7,-224.08 835.76,-207.93 884.92,-197.21"/>
<polygon fill="#63b8ff" stroke="#63b8ff" points="885.68,-200.62 894.7,-195.07 884.19,-193.78 885.68,-200.62"/>
</a>
</g>
</g>
<!-- Node22 -->
<g id="Node000022" class="node">
<title>Node22</title>
<g id="a_Node000022"><a xlink:href="Path_8h.html" target="_top" xlink:title="Handles Path objects used to uniquely identify and access OIDs.">
<polygon fill="white" stroke="#666666" points="1076.5,-195 1029.5,-195 1029.5,-176 1076.5,-176 1076.5,-195"/>
<text text-anchor="middle" x="1053" y="-183" font-family="Helvetica,sans-Serif" font-size="10.00">Path.h</text>
</a>
</g>
</g>
<!-- Node5&#45;&gt;Node22 -->
<g id="edge29_Node000005_Node000022" class="edge">
<title>Node5&#45;&gt;Node22</title>
<g id="a_edge29_Node000005_Node000022"><a xlink:title=" ">
<path fill="none" stroke="#63b8ff" d="M720.65,-235.3C775.45,-227.51 896.27,-210.23 998,-195 1004.93,-193.96 1012.36,-192.83 1019.43,-191.74"/>
<polygon fill="#63b8ff" stroke="#63b8ff" points="1020.11,-195.18 1029.45,-190.19 1019.04,-188.26 1020.11,-195.18"/>
</a>
</g>
</g>
<!-- Node27 -->
<g id="Node000027" class="node">
<title>Node27</title>
<g id="a_Node000027"><a xlink:href="Status_8h.html" target="_top" xlink:title="Communicates failure status using gRPC&#39;s codes.">
<polygon fill="white" stroke="#666666" points="551,-195 495,-195 495,-176 551,-176 551,-195"/>
<text text-anchor="middle" x="523" y="-183" font-family="Helvetica,sans-Serif" font-size="10.00">Status.h</text>
</a>
</g>
</g>
<!-- Node5&#45;&gt;Node27 -->
<g id="edge35_Node000005_Node000027" class="edge">
<title>Node5&#45;&gt;Node27</title>
<g id="a_edge35_Node000005_Node000027"><a xlink:title=" ">
<path fill="none" stroke="#63b8ff" d="M664.01,-230.98C635.8,-222.09 591.36,-208.07 559.92,-198.15"/>
<polygon fill="#63b8ff" stroke="#63b8ff" points="560.79,-194.75 550.2,-195.08 558.69,-201.43 560.79,-194.75"/>
</a>
</g>
</g>
<!-- Node7 -->
<g id="Node000007" class="node">
<title>Node7</title>
<g id="a_Node000007"><a xlink:href="EnumDecorator_8h.html" target="_top" xlink:title="Provides an enum with useful extra functionality.">
<polygon fill="white" stroke="#666666" points="621,-140 477,-140 477,-121 621,-121 621,-140"/>
<text text-anchor="middle" x="549" y="-128" font-family="Helvetica,sans-Serif" font-size="10.00">patterns/EnumDecorator.h</text>
</a>
</g>
</g>
<!-- Node6&#45;&gt;Node7 -->
<g id="edge6_Node000006_Node000007" class="edge">
<title>Node6&#45;&gt;Node7</title>
<g id="a_edge6_Node000006_Node000007"><a xlink:title=" ">
<path fill="none" stroke="#63b8ff" d="M668.19,-175.98C644.83,-167.27 608.3,-153.63 581.83,-143.75"/>
<polygon fill="#63b8ff" stroke="#63b8ff" points="582.82,-140.39 572.23,-140.17 580.37,-146.95 582.82,-140.39"/>
</a>
</g>
</g>
<!-- Node9 -->
<g id="Node000009" class="node">
<title>Node9</title>
<g id="a_Node000009"><a xlink:title=" ">
<polygon fill="#e0e0e0" stroke="#999999" points="607,-85 557,-85 557,-66 607,-66 607,-85"/>
<text text-anchor="middle" x="582" y="-73" font-family="Helvetica,sans-Serif" font-size="10.00">cstdint</text>
</a>
</g>
</g>
<!-- Node6&#45;&gt;Node9 -->
<g id="edge13_Node000006_Node000009" class="edge">
<title>Node6&#45;&gt;Node9</title>
<g id="a_edge13_Node000006_Node000009"><a xlink:title=" ">
<path fill="none" stroke="#63b8ff" d="M682.87,-175.72C671.32,-163.32 649.41,-140.07 630,-121 619.97,-111.14 608.42,-100.42 599.16,-91.97"/>
<polygon fill="#63b8ff" stroke="#63b8ff" points="601.47,-89.34 591.72,-85.2 596.77,-94.52 601.47,-89.34"/>
</a>
</g>
</g>
<!-- Node13 -->
<g id="Node000013" class="node">
<title>Node13</title>
<g id="a_Node000013"><a xlink:title=" ">
<polygon fill="#e0e0e0" stroke="#999999" points="796.5,-140 677.5,-140 677.5,-121 796.5,-121 796.5,-140"/>
<text text-anchor="middle" x="737" y="-128" font-family="Helvetica,sans-Serif" font-size="10.00">interface/device.pb.h</text>
</a>
</g>
</g>
<!-- Node6&#45;&gt;Node13 -->
<g id="edge12_Node000006_Node000013" class="edge">
<title>Node6&#45;&gt;Node13</title>
<g id="a_edge12_Node000006_Node000013"><a xlink:title=" ">
<path fill="none" stroke="#63b8ff" d="M698.6,-175.75C705.16,-168.18 714.82,-157.05 722.81,-147.84"/>
<polygon fill="#63b8ff" stroke="#63b8ff" points="725.63,-149.94 729.55,-140.09 720.35,-145.35 725.63,-149.94"/>
</a>
</g>
</g>
<!-- Node8 -->
<g id="Node000008" class="node">
<title>Node8</title>
<g id="a_Node000008"><a xlink:href="ReflectionMacros_8h.html" target="_top" xlink:title="adapted from https://github.com/tapika/TestCppReflect">
<polygon fill="white" stroke="#666666" points="539,-85 429,-85 429,-66 539,-66 539,-85"/>
<text text-anchor="middle" x="484" y="-73" font-family="Helvetica,sans-Serif" font-size="10.00">ReflectionMacros.h</text>
</a>
</g>
</g>
<!-- Node7&#45;&gt;Node8 -->
<g id="edge7_Node000007_Node000008" class="edge">
<title>Node7&#45;&gt;Node8</title>
<g id="a_edge7_Node000007_Node000008"><a xlink:title=" ">
<path fill="none" stroke="#63b8ff" d="M538.56,-120.98C528.85,-113.07 514.18,-101.11 502.5,-91.58"/>
<polygon fill="#63b8ff" stroke="#63b8ff" points="504.6,-88.78 494.63,-85.17 500.17,-94.2 504.6,-88.78"/>
</a>
</g>
</g>
<!-- Node7&#45;&gt;Node9 -->
<g id="edge8_Node000007_Node000009" class="edge">
<title>Node7&#45;&gt;Node9</title>
<g id="a_edge8_Node000007_Node000009"><a xlink:title=" ">
<path fill="none" stroke="#63b8ff" d="M554.45,-120.75C559.01,-113.42 565.67,-102.73 571.29,-93.7"/>
<polygon fill="#63b8ff" stroke="#63b8ff" points="574.34,-95.43 576.65,-85.09 568.4,-91.73 574.34,-95.43"/>
</a>
</g>
</g>
<!-- Node10 -->
<g id="Node000010" class="node">
<title>Node10</title>
<g id="a_Node000010"><a xlink:title=" ">
<polygon fill="#e0e0e0" stroke="#999999" points="718.5,-24.5 625.5,-24.5 625.5,-5.5 718.5,-5.5 718.5,-24.5"/>
<text text-anchor="middle" x="672" y="-12.5" font-family="Helvetica,sans-Serif" font-size="10.00">unordered_map</text>
</a>
</g>
</g>
<!-- Node7&#45;&gt;Node10 -->
<g id="edge9_Node000007_Node000010" class="edge">
<title>Node7&#45;&gt;Node10</title>
<g id="a_edge9_Node000007_Node000010"><a xlink:title=" ">
<path fill="none" stroke="#63b8ff" d="M488.09,-121C427.43,-111.91 341.92,-97.16 332,-85 326.66,-78.46 326.48,-72.39 332,-66 367.88,-24.46 527.86,-16.8 614.99,-15.78"/>
<polygon fill="#63b8ff" stroke="#63b8ff" points="615.27,-19.28 625.24,-15.69 615.21,-12.28 615.27,-19.28"/>
</a>
</g>
</g>
<!-- Node11 -->
<g id="Node000011" class="node">
<title>Node11</title>
<g id="a_Node000011"><a xlink:title=" ">
<polygon fill="#e0e0e0" stroke="#999999" points="1144,-24.5 1100,-24.5 1100,-5.5 1144,-5.5 1144,-24.5"/>
<text text-anchor="middle" x="1122" y="-12.5" font-family="Helvetica,sans-Serif" font-size="10.00">string</text>
</a>
</g>
</g>
<!-- Node7&#45;&gt;Node11 -->
<g id="edge10_Node000007_Node000011" class="edge">
<title>Node7&#45;&gt;Node11</title>
<g id="a_edge10_Node000007_Node000011"><a xlink:title=" ">
<path fill="none" stroke="#63b8ff" d="M621.15,-122.64C687.94,-115.6 789.79,-103.1 877,-85 918.14,-76.46 1033.35,-42.53 1089.89,-25.65"/>
<polygon fill="#63b8ff" stroke="#63b8ff" points="1091.15,-28.92 1099.73,-22.7 1089.14,-22.22 1091.15,-28.92"/>
</a>
</g>
</g>
<!-- Node12 -->
<g id="Node000012" class="node">
<title>Node12</title>
<g id="a_Node000012"><a xlink:title=" ">
<polygon fill="#e0e0e0" stroke="#999999" points="410.5,-85 341.5,-85 341.5,-66 410.5,-66 410.5,-85"/>
<text text-anchor="middle" x="376" y="-73" font-family="Helvetica,sans-Serif" font-size="10.00">type_traits</text>
</a>
</g>
</g>
<!-- Node7&#45;&gt;Node12 -->
<g id="edge11_Node000007_Node000012" class="edge">
<title>Node7&#45;&gt;Node12</title>
<g id="a_edge11_Node000007_Node000012"><a xlink:title=" ">
<path fill="none" stroke="#63b8ff" d="M521.2,-120.98C492.03,-112.05 446,-97.94 413.6,-88.02"/>
<polygon fill="#63b8ff" stroke="#63b8ff" points="414.6,-84.66 404.01,-85.08 412.55,-91.36 414.6,-84.66"/>
</a>
</g>
</g>
<!-- Node14&#45;&gt;Node15 -->
<g id="edge16_Node000014_Node000015" class="edge">
<title>Node14&#45;&gt;Node15</title>
<g id="a_edge16_Node000014_Node000015"><a xlink:title=" ">
<path fill="none" stroke="#63b8ff" d="M988.84,-177.46C1075.46,-166.35 1241.4,-145.05 1312.87,-135.88"/>
<polygon fill="#63b8ff" stroke="#63b8ff" points="1313.64,-139.31 1323.11,-134.57 1312.75,-132.37 1313.64,-139.31"/>
</a>
</g>
</g>
<!-- Node17 -->
<g id="Node000017" class="node">
<title>Node17</title>
<g id="a_Node000017"><a xlink:href="PolyglotText_8h.html" target="_top" xlink:title="Polyglot Text serialization and deserialization to protobuf.">
<polygon fill="white" stroke="#666666" points="939,-140 853,-140 853,-121 939,-121 939,-140"/>
<text text-anchor="middle" x="896" y="-128" font-family="Helvetica,sans-Serif" font-size="10.00">PolyglotText.h</text>
</a>
</g>
</g>
<!-- Node14&#45;&gt;Node17 -->
<g id="edge19_Node000014_Node000017" class="edge">
<title>Node14&#45;&gt;Node17</title>
<g id="a_edge19_Node000014_Node000017"><a xlink:title=" ">
<path fill="none" stroke="#63b8ff" d="M927.73,-175.75C922.41,-168.34 914.64,-157.5 908.12,-148.41"/>
<polygon fill="#63b8ff" stroke="#63b8ff" points="910.83,-146.18 902.16,-140.09 905.14,-150.26 910.83,-146.18"/>
</a>
</g>
</g>
<!-- Node15&#45;&gt;Node11 -->
<g id="edge18_Node000015_Node000011" class="edge">
<title>Node15&#45;&gt;Node11</title>
<g id="a_edge18_Node000015_Node000011"><a xlink:title=" ">
<path fill="none" stroke="#63b8ff" d="M1347.76,-120.77C1348.43,-107.13 1347.57,-80.8 1333,-66 1308.29,-40.9 1206.98,-25.78 1154.25,-19.46"/>
<polygon fill="#63b8ff" stroke="#63b8ff" points="1154.42,-15.96 1144.08,-18.28 1153.61,-22.91 1154.42,-15.96"/>
</a>
</g>
</g>
<!-- Node16 -->
<g id="Node000016" class="node">
<title>Node16</title>
<g id="a_Node000016"><a xlink:title=" ">
<polygon fill="#e0e0e0" stroke="#999999" points="1323.5,-85 1258.5,-85 1258.5,-66 1323.5,-66 1323.5,-85"/>
<text text-anchor="middle" x="1291" y="-73" font-family="Helvetica,sans-Serif" font-size="10.00">functional</text>
</a>
</g>
</g>
<!-- Node15&#45;&gt;Node16 -->
<g id="edge17_Node000015_Node000016" class="edge">
<title>Node15&#45;&gt;Node16</title>
<g id="a_edge17_Node000015_Node000016"><a xlink:title=" ">
<path fill="none" stroke="#63b8ff" d="M1338,-120.98C1329.81,-113.23 1317.49,-101.58 1307.53,-92.14"/>
<polygon fill="#63b8ff" stroke="#63b8ff" points="1309.83,-89.5 1300.16,-85.17 1305.02,-94.59 1309.83,-89.5"/>
</a>
</g>
</g>
<!-- Node17&#45;&gt;Node10 -->
<g id="edge27_Node000017_Node000010" class="edge">
<title>Node17&#45;&gt;Node10</title>
<g id="a_edge27_Node000017_Node000010"><a xlink:title=" ">
<path fill="none" stroke="#63b8ff" d="M852.77,-124.52C786.87,-116.5 667.54,-100.06 655,-85 642.84,-70.39 651.47,-48.38 660.27,-33.17"/>
<polygon fill="#63b8ff" stroke="#63b8ff" points="663.24,-35.03 665.59,-24.7 657.31,-31.31 663.24,-35.03"/>
</a>
</g>
</g>
<!-- Node17&#45;&gt;Node11 -->
<g id="edge26_Node000017_Node000011" class="edge">
<title>Node17&#45;&gt;Node11</title>
<g id="a_edge26_Node000017_Node000011"><a xlink:title=" ">
<path fill="none" stroke="#63b8ff" d="M939.11,-122.67C996.21,-113.26 1091.14,-96.2 1103,-85 1116.66,-72.09 1120.81,-50.34 1121.92,-34.71"/>
<polygon fill="#63b8ff" stroke="#63b8ff" points="1125.42,-34.74 1122.28,-24.62 1118.43,-34.49 1125.42,-34.74"/>
</a>
</g>
</g>
<!-- Node18 -->
<g id="Node000018" class="node">
<title>Node18</title>
<g id="a_Node000018"><a xlink:href="IPolyglotText_8h.html" target="_top" xlink:title="Catena&#39;s multi&#45;language text interface.">
<polygon fill="white" stroke="#666666" points="752.5,-85 663.5,-85 663.5,-66 752.5,-66 752.5,-85"/>
<text text-anchor="middle" x="708" y="-73" font-family="Helvetica,sans-Serif" font-size="10.00">IPolyglotText.h</text>
</a>
</g>
</g>
<!-- Node17&#45;&gt;Node18 -->
<g id="edge20_Node000017_Node000018" class="edge">
<title>Node17&#45;&gt;Node18</title>
<g id="a_edge20_Node000017_Node000018"><a xlink:title=" ">
<path fill="none" stroke="#63b8ff" d="M865.79,-120.98C833.96,-112.01 783.64,-97.82 748.4,-87.89"/>
<polygon fill="#63b8ff" stroke="#63b8ff" points="749.02,-84.43 738.44,-85.08 747.12,-91.16 749.02,-84.43"/>
</a>
</g>
</g>
<!-- Node20 -->
<g id="Node000020" class="node">
<title>Node20</title>
<g id="a_Node000020"><a xlink:title=" ">
<polygon fill="#e0e0e0" stroke="#999999" points="878.5,-24.5 795.5,-24.5 795.5,-5.5 878.5,-5.5 878.5,-24.5"/>
<text text-anchor="middle" x="837" y="-12.5" font-family="Helvetica,sans-Serif" font-size="10.00">initializer_list</text>
</a>
</g>
</g>
<!-- Node17&#45;&gt;Node20 -->
<g id="edge28_Node000017_Node000020" class="edge">
<title>Node17&#45;&gt;Node20</title>
<g id="a_edge28_Node000017_Node000020"><a xlink:title=" ">
<path fill="none" stroke="#63b8ff" d="M894.51,-120.88C892.1,-108.29 886.62,-84.35 877,-66 870.6,-53.79 861.01,-41.67 852.83,-32.43"/>
<polygon fill="#63b8ff" stroke="#63b8ff" points="855.18,-29.82 845.84,-24.82 850.03,-34.55 855.18,-29.82"/>
</a>
</g>
</g>
<!-- Node21 -->
<g id="Node000021" class="node">
<title>Node21</title>
<g id="a_Node000021"><a xlink:title=" ">
<polygon fill="#e0e0e0" stroke="#999999" points="1094,-85 962,-85 962,-66 1094,-66 1094,-85"/>
<text text-anchor="middle" x="1028" y="-73" font-family="Helvetica,sans-Serif" font-size="10.00">interface/language.pb.h</text>
</a>
</g>
</g>
<!-- Node17&#45;&gt;Node21 -->
<g id="edge25_Node000017_Node000021" class="edge">
<title>Node17&#45;&gt;Node21</title>
<g id="a_edge25_Node000017_Node000021"><a xlink:title=" ">
<path fill="none" stroke="#63b8ff" d="M917.21,-120.98C938.73,-112.34 972.28,-98.87 996.83,-89.02"/>
<polygon fill="#63b8ff" stroke="#63b8ff" points="998.43,-92.14 1006.41,-85.17 995.82,-85.65 998.43,-92.14"/>
</a>
</g>
</g>
<!-- Node18&#45;&gt;Node10 -->
<g id="edge22_Node000018_Node000010" class="edge">
<title>Node18&#45;&gt;Node10</title>
<g id="a_edge22_Node000018_Node000010"><a xlink:title=" ">
<path fill="none" stroke="#63b8ff" d="M702.69,-65.87C697.42,-57.31 689.21,-43.97 682.61,-33.24"/>
<polygon fill="#63b8ff" stroke="#63b8ff" points="685.56,-31.35 677.33,-24.67 679.59,-35.02 685.56,-31.35"/>
</a>
</g>
</g>
<!-- Node18&#45;&gt;Node11 -->
<g id="edge23_Node000018_Node000011" class="edge">
<title>Node18&#45;&gt;Node11</title>
<g id="a_edge23_Node000018_Node000011"><a xlink:title=" ">
<path fill="none" stroke="#63b8ff" d="M752.52,-67.29C755.39,-66.85 758.24,-66.41 761,-66 881.97,-47.92 1026.1,-28.64 1089.43,-20.27"/>
<polygon fill="#63b8ff" stroke="#63b8ff" points="1090.13,-23.71 1099.59,-18.93 1089.21,-16.77 1090.13,-23.71"/>
</a>
</g>
</g>
<!-- Node18&#45;&gt;Node19 -->
<g id="edge21_Node000018_Node000019" class="edge">
<title>Node18&#45;&gt;Node19</title>
<g id="a_edge21_Node000018_Node000019"><a xlink:title=" ">
<path fill="none" stroke="#63b8ff" d="M663.35,-68.78C586.56,-58.95 428.45,-38.72 331.87,-26.35"/>
<polygon fill="#63b8ff" stroke="#63b8ff" points="332.22,-22.87 321.85,-25.07 331.33,-29.81 332.22,-22.87"/>
</a>
</g>
</g>
<!-- Node18&#45;&gt;Node20 -->
<g id="edge24_Node000018_Node000020" class="edge">
<title>Node18&#45;&gt;Node20</title>
<g id="a_edge24_Node000018_Node000020"><a xlink:title=" ">
<path fill="none" stroke="#63b8ff" d="M726.76,-65.99C748.35,-56.2 784.03,-40.02 808.93,-28.73"/>
<polygon fill="#63b8ff" stroke="#63b8ff" points="810.56,-31.83 818.22,-24.52 807.67,-25.46 810.56,-31.83"/>
</a>
</g>
</g>
<!-- Node22&#45;&gt;Node11 -->
<g id="edge31_Node000022_Node000011" class="edge">
<title>Node22&#45;&gt;Node11</title>
<g id="a_edge31_Node000022_Node000011"><a xlink:title=" ">
<path fill="none" stroke="#63b8ff" d="M1031.84,-175.88C1006.69,-164.39 970.14,-142.94 987,-121 1024.83,-71.76 1084.17,-134.24 1122,-85 1132.92,-70.78 1131.07,-49.6 1127.65,-34.46"/>
<polygon fill="#63b8ff" stroke="#63b8ff" points="1131.01,-33.45 1125.04,-24.69 1124.24,-35.26 1131.01,-33.45"/>
</a>
</g>
</g>
<!-- Node23 -->
<g id="Node000023" class="node">
<title>Node23</title>
<g id="a_Node000023"><a xlink:title=" ">
<polygon fill="#e0e0e0" stroke="#999999" points="1201,-140 1141,-140 1141,-121 1201,-121 1201,-140"/>
<text text-anchor="middle" x="1171" y="-128" font-family="Helvetica,sans-Serif" font-size="10.00">iostream</text>
</a>
</g>
</g>
<!-- Node22&#45;&gt;Node23 -->
<g id="edge30_Node000022_Node000023" class="edge">
<title>Node22&#45;&gt;Node23</title>
<g id="a_edge30_Node000022_Node000023"><a xlink:title=" ">
<path fill="none" stroke="#63b8ff" d="M1071.96,-175.98C1091.03,-167.42 1120.66,-154.11 1142.55,-144.28"/>
<polygon fill="#63b8ff" stroke="#63b8ff" points="1144.01,-147.46 1151.7,-140.17 1141.14,-141.07 1144.01,-147.46"/>
</a>
</g>
</g>
<!-- Node24 -->
<g id="Node000024" class="node">
<title>Node24</title>
<g id="a_Node000024"><a xlink:title=" ">
<polygon fill="#e0e0e0" stroke="#999999" points="1266.5,-140 1219.5,-140 1219.5,-121 1266.5,-121 1266.5,-140"/>
<text text-anchor="middle" x="1243" y="-128" font-family="Helvetica,sans-Serif" font-size="10.00">vector</text>
</a>
</g>
</g>
<!-- Node22&#45;&gt;Node24 -->
<g id="edge32_Node000022_Node000024" class="edge">
<title>Node22&#45;&gt;Node24</title>
<g id="a_edge32_Node000022_Node000024"><a xlink:title=" ">
<path fill="none" stroke="#63b8ff" d="M1076.68,-177.89C1110.05,-168.59 1171.09,-151.56 1209.22,-140.92"/>
<polygon fill="#63b8ff" stroke="#63b8ff" points="1210.63,-144.16 1219.32,-138.11 1208.75,-137.42 1210.63,-144.16"/>
</a>
</g>
</g>
<!-- Node25 -->
<g id="Node000025" class="node">
<title>Node25</title>
<g id="a_Node000025"><a xlink:title=" ">
<polygon fill="#e0e0e0" stroke="#999999" points="1046.5,-140 995.5,-140 995.5,-121 1046.5,-121 1046.5,-140"/>
<text text-anchor="middle" x="1021" y="-128" font-family="Helvetica,sans-Serif" font-size="10.00">variant</text>
</a>
</g>
</g>
<!-- Node22&#45;&gt;Node25 -->
<g id="edge33_Node000022_Node000025" class="edge">
<title>Node22&#45;&gt;Node25</title>
<g id="a_edge33_Node000022_Node000025"><a xlink:title=" ">
<path fill="none" stroke="#63b8ff" d="M1047.72,-175.75C1043.29,-168.42 1036.84,-157.73 1031.38,-148.7"/>
<polygon fill="#63b8ff" stroke="#63b8ff" points="1034.35,-146.84 1026.19,-140.09 1028.36,-150.46 1034.35,-146.84"/>
</a>
</g>
</g>
<!-- Node26 -->
<g id="Node000026" class="node">
<title>Node26</title>
<g id="a_Node000026"><a xlink:title=" ">
<polygon fill="#e0e0e0" stroke="#999999" points="1123,-140 1065,-140 1065,-121 1123,-121 1123,-140"/>
<text text-anchor="middle" x="1094" y="-128" font-family="Helvetica,sans-Serif" font-size="10.00">memory</text>
</a>
</g>
</g>
<!-- Node22&#45;&gt;Node26 -->
<g id="edge34_Node000022_Node000026" class="edge">
<title>Node22&#45;&gt;Node26</title>
<g id="a_edge34_Node000022_Node000026"><a xlink:title=" ">
<path fill="none" stroke="#63b8ff" d="M1059.77,-175.75C1065.56,-168.26 1074.06,-157.28 1081.14,-148.13"/>
<polygon fill="#63b8ff" stroke="#63b8ff" points="1084.01,-150.14 1087.36,-140.09 1078.47,-145.86 1084.01,-150.14"/>
</a>
</g>
</g>
<!-- Node28 -->
<g id="Node000028" class="node">
<title>Node28</title>
<g id="a_Node000028"><a xlink:title=" ">
<polygon fill="#e0e0e0" stroke="#999999" points="459,-140 403,-140 403,-121 459,-121 459,-140"/>
<text text-anchor="middle" x="431" y="-128" font-family="Helvetica,sans-Serif" font-size="10.00">sstream</text>
</a>
</g>
</g>
<!-- Node27&#45;&gt;Node28 -->
<g id="edge36_Node000027_Node000028" class="edge">
<title>Node27&#45;&gt;Node28</title>
<g id="a_edge36_Node000027_Node000028"><a xlink:title=" ">
<path fill="none" stroke="#63b8ff" d="M508.22,-175.98C493.82,-167.69 471.69,-154.94 454.81,-145.22"/>
<polygon fill="#63b8ff" stroke="#63b8ff" points="456.46,-142.13 446.05,-140.17 452.97,-148.19 456.46,-142.13"/>
</a>
</g>
</g>
<!-- Node29 -->
<g id="Node000029" class="node">
<title>Node29</title>
<g id="a_Node000029"><a xlink:title=" ">
<polygon fill="#e0e0e0" stroke="#999999" points="384.5,-140 319.5,-140 319.5,-121 384.5,-121 384.5,-140"/>
<text text-anchor="middle" x="352" y="-128" font-family="Helvetica,sans-Serif" font-size="10.00">stdexcept</text>
</a>
</g>
</g>
<!-- Node27&#45;&gt;Node29 -->
<g id="edge37_Node000027_Node000029" class="edge">
<title>Node27&#45;&gt;Node29</title>
<g id="a_edge37_Node000027_Node000029"><a xlink:title=" ">
<path fill="none" stroke="#63b8ff" d="M495.53,-175.98C466.82,-167.09 421.58,-153.07 389.58,-143.15"/>
<polygon fill="#63b8ff" stroke="#63b8ff" points="390.28,-139.7 379.69,-140.08 388.2,-146.39 390.28,-139.7"/>
</a>
</g>
</g>
<!-- Node30&#45;&gt;Node5 -->
<g id="edge49_Node000030_Node000005" class="edge">
<title>Node30&#45;&gt;Node5</title>
<g id="a_edge49_Node000030_Node000005"><a xlink:title=" ">
<path fill="none" stroke="#63b8ff" d="M904.96,-344.76C871.17,-338.77 816.18,-326.54 773,-305 747.99,-292.52 723.15,-271.82 707.48,-257.47"/>
<polygon fill="#63b8ff" stroke="#63b8ff" points="709.46,-254.52 699.78,-250.23 704.67,-259.63 709.46,-254.52"/>
</a>
</g>
</g>
<!-- Node30&#45;&gt;Node11 -->
<g id="edge56_Node000030_Node000011" class="edge">
<title>Node30&#45;&gt;Node11</title>
<g id="a_edge56_Node000030_Node000011"><a xlink:title=" ">
<path fill="none" stroke="#63b8ff" d="M967.18,-348.24C1038.12,-344.9 1209.17,-333.99 1258,-305 1336.42,-258.44 1351.45,-226.62 1380,-140 1391.01,-106.6 1379.84,-87.48 1352,-66 1321.3,-42.32 1209.73,-26.27 1154.05,-19.55"/>
<polygon fill="#63b8ff" stroke="#63b8ff" points="1154.36,-16.07 1144.02,-18.37 1153.54,-23.02 1154.36,-16.07"/>
</a>
</g>
</g>
<!-- Node30&#45;&gt;Node13 -->
<g id="edge55_Node000030_Node000013" class="edge">
<title>Node30&#45;&gt;Node13</title>
<g id="a_edge55_Node000030_Node000013"><a xlink:title=" ">
<path fill="none" stroke="#63b8ff" d="M904.86,-345.56C877.09,-340.54 836.92,-329.38 811,-305 765.14,-261.86 746.42,-185.66 739.95,-150.39"/>
<polygon fill="#63b8ff" stroke="#63b8ff" points="743.33,-149.37 738.2,-140.1 736.43,-150.55 743.33,-149.37"/>
</a>
</g>
</g>
<!-- Node30&#45;&gt;Node22 -->
<g id="edge48_Node000030_Node000022" class="edge">
<title>Node30&#45;&gt;Node22</title>
<g id="a_edge48_Node000030_Node000022"><a xlink:title=" ">
<path fill="none" stroke="#63b8ff" d="M942.29,-340.74C960.94,-314.76 1016.16,-237.83 1040.84,-203.44"/>
<polygon fill="#63b8ff" stroke="#63b8ff" points="1043.69,-205.47 1046.68,-195.31 1038,-201.39 1043.69,-205.47"/>
</a>
</g>
</g>
<!-- Node30&#45;&gt;Node24 -->
<g id="edge57_Node000030_Node000024" class="edge">
<title>Node30&#45;&gt;Node24</title>
<g id="a_edge57_Node000030_Node000024"><a xlink:title=" ">
<path fill="none" stroke="#63b8ff" d="M967.19,-349.73C1037.03,-349.53 1202.66,-344.76 1238,-305 1276.66,-261.51 1259.84,-184.91 1249.24,-149.9"/>
<polygon fill="#63b8ff" stroke="#63b8ff" points="1252.48,-148.54 1246.1,-140.09 1245.82,-150.68 1252.48,-148.54"/>
</a>
</g>
</g>
<!-- Node30&#45;&gt;Node27 -->
<g id="edge53_Node000030_Node000027" class="edge">
<title>Node30&#45;&gt;Node27</title>
<g id="a_edge53_Node000030_Node000027"><a xlink:title=" ">
<path fill="none" stroke="#63b8ff" d="M904.85,-345.22C865.35,-339.18 795.56,-326.42 739,-305 663.4,-276.38 581.71,-225.43 544.12,-200.73"/>
<polygon fill="#63b8ff" stroke="#63b8ff" points="545.81,-197.65 535.54,-195.04 541.94,-203.48 545.81,-197.65"/>
</a>
</g>
</g>
<!-- Node31 -->
<g id="Node000031" class="node">
<title>Node31</title>
<g id="a_Node000031"><a xlink:href="Authorization_8h.html" target="_top" xlink:title="Class for handling authorization information.">
<polygon fill="white" stroke="#666666" points="944.5,-305 853.5,-305 853.5,-286 944.5,-286 944.5,-305"/>
<text text-anchor="middle" x="899" y="-293" font-family="Helvetica,sans-Serif" font-size="10.00">Authorization.h</text>
</a>
</g>
</g>
<!-- Node30&#45;&gt;Node31 -->
<g id="edge41_Node000030_Node000031" class="edge">
<title>Node30&#45;&gt;Node31</title>
<g id="a_edge41_Node000030_Node000031"><a xlink:title=" ">
<path fill="none" stroke="#63b8ff" d="M929.89,-340.75C924.72,-333.34 917.15,-322.5 910.81,-313.41"/>
<polygon fill="#63b8ff" stroke="#63b8ff" points="913.59,-311.29 905,-305.09 907.85,-315.29 913.59,-311.29"/>
</a>
</g>
</g>
<!-- Node33 -->
<g id="Node000033" class="node">
<title>Node33</title>
<g id="a_Node000033"><a xlink:href="ILanguagePack_8h.html" target="_top" xlink:title="Interface for language packs.">
<polygon fill="white" stroke="#666666" points="868,-85 770,-85 770,-66 868,-66 868,-85"/>
<text text-anchor="middle" x="819" y="-73" font-family="Helvetica,sans-Serif" font-size="10.00">ILanguagePack.h</text>
</a>
</g>
</g>
<!-- Node30&#45;&gt;Node33 -->
<g id="edge50_Node000030_Node000033" class="edge">
<title>Node30&#45;&gt;Node33</title>
<g id="a_edge50_Node000030_Node000033"><a xlink:title=" ">
<path fill="none" stroke="#63b8ff" d="M904.61,-341.13C884.95,-334.39 860.49,-323 845,-305 825.7,-282.57 825,-271.09 825,-241.5 825,-241.5 825,-241.5 825,-184.5 825,-153.14 822.45,-116.74 820.67,-95.22"/>
<polygon fill="#63b8ff" stroke="#63b8ff" points="824.15,-94.83 819.81,-85.17 817.18,-95.43 824.15,-94.83"/>
</a>
</g>
</g>
<!-- Node34 -->
<g id="Node000034" class="node">
<title>Node34</title>
<g id="a_Node000034"><a xlink:title=" ">
<polygon fill="#e0e0e0" stroke="#999999" points="1082.5,-305 1001.5,-305 1001.5,-286 1082.5,-286 1082.5,-305"/>
<text text-anchor="middle" x="1042" y="-293" font-family="Helvetica,sans-Serif" font-size="10.00">vdk/signals.h</text>
</a>
</g>
</g>
<!-- Node30&#45;&gt;Node34 -->
<g id="edge54_Node000030_Node000034" class="edge">
<title>Node30&#45;&gt;Node34</title>
<g id="a_edge54_Node000030_Node000034"><a xlink:title=" ">
<path fill="none" stroke="#63b8ff" d="M953.03,-340.98C969.93,-332.54 996.06,-319.47 1015.64,-309.68"/>
<polygon fill="#63b8ff" stroke="#63b8ff" points="1017.28,-312.77 1024.66,-305.17 1014.15,-306.51 1017.28,-312.77"/>
</a>
</g>
</g>
<!-- Node35 -->
<g id="Node000035" class="node">
<title>Node35</title>
<g id="a_Node000035"><a xlink:title=" ">
<polygon fill="#e0e0e0" stroke="#999999" points="1163,-305 1101,-305 1101,-286 1163,-286 1163,-305"/>
<text text-anchor="middle" x="1132" y="-293" font-family="Helvetica,sans-Serif" font-size="10.00">coroutine</text>
</a>
</g>
</g>
<!-- Node30&#45;&gt;Node35 -->
<g id="edge58_Node000030_Node000035" class="edge">
<title>Node30&#45;&gt;Node35</title>
<g id="a_edge58_Node000030_Node000035"><a xlink:title=" ">
<path fill="none" stroke="#63b8ff" d="M967.06,-341.1C1000.5,-332.06 1053.88,-317.62 1090.81,-307.64"/>
<polygon fill="#63b8ff" stroke="#63b8ff" points="1092.02,-310.94 1100.76,-304.95 1090.2,-304.18 1092.02,-310.94"/>
</a>
</g>
</g>
<!-- Node36 -->
<g id="Node000036" class="node">
<title>Node36</title>
<g id="a_Node000036"><a xlink:title=" ">
<polygon fill="#e0e0e0" stroke="#999999" points="1229,-305 1181,-305 1181,-286 1229,-286 1229,-305"/>
<text text-anchor="middle" x="1205" y="-293" font-family="Helvetica,sans-Serif" font-size="10.00">mutex</text>
</a>
</g>
</g>
<!-- Node30&#45;&gt;Node36 -->
<g id="edge59_Node000030_Node000036" class="edge">
<title>Node30&#45;&gt;Node36</title>
<g id="a_edge59_Node000030_Node000036"><a xlink:title=" ">
<path fill="none" stroke="#63b8ff" d="M967.06,-344.31C1010.46,-336.92 1091.91,-322.52 1170.79,-305.15"/>
<polygon fill="#63b8ff" stroke="#63b8ff" points="1171.89,-308.49 1180.89,-302.9 1170.37,-301.66 1171.89,-308.49"/>
</a>
</g>
</g>
<!-- Node31&#45;&gt;Node5 -->
<g id="edge44_Node000031_Node000005" class="edge">
<title>Node31&#45;&gt;Node5</title>
<g id="a_edge44_Node000031_Node000005"><a xlink:title=" ">
<path fill="none" stroke="#63b8ff" d="M865.58,-285.98C828.71,-276.59 769.44,-261.49 730.35,-251.53"/>
<polygon fill="#63b8ff" stroke="#63b8ff" points="731.19,-248.13 720.63,-249.05 729.46,-254.91 731.19,-248.13"/>
</a>
</g>
</g>
<!-- Node31&#45;&gt;Node6 -->
<g id="edge43_Node000031_Node000006" class="edge">
<title>Node31&#45;&gt;Node6</title>
<g id="a_edge43_Node000031_Node000006"><a xlink:title=" ">
<path fill="none" stroke="#63b8ff" d="M882.33,-285.84C846.03,-267 759.65,-222.14 716.47,-199.73"/>
<polygon fill="#63b8ff" stroke="#63b8ff" points="717.95,-196.55 707.46,-195.05 714.72,-202.76 717.95,-196.55"/>
</a>
</g>
</g>
<!-- Node31&#45;&gt;Node14 -->
<g id="edge45_Node000031_Node000014" class="edge">
<title>Node31&#45;&gt;Node14</title>
<g id="a_edge45_Node000031_Node000014"><a xlink:title=" ">
<path fill="none" stroke="#63b8ff" d="M911.49,-285.93C921.87,-277.99 935.88,-265.14 942,-250 947.86,-235.51 944.86,-217.78 940.98,-204.74"/>
<polygon fill="#63b8ff" stroke="#63b8ff" points="944.22,-203.4 937.68,-195.06 937.59,-205.66 944.22,-203.4"/>
</a>
</g>
</g>
<!-- Node31&#45;&gt;Node16 -->
<g id="edge47_Node000031_Node000016" class="edge">
<title>Node31&#45;&gt;Node16</title>
<g id="a_edge47_Node000031_Node000016"><a xlink:title=" ">
<path fill="none" stroke="#63b8ff" d="M944.79,-289.23C1024.63,-277.51 1189.06,-241.79 1276,-140 1286.46,-127.75 1289.93,-109.52 1290.94,-95.73"/>
<polygon fill="#63b8ff" stroke="#63b8ff" points="1294.45,-95.54 1291.32,-85.42 1287.46,-95.29 1294.45,-95.54"/>
</a>
</g>
</g>
<!-- Node31&#45;&gt;Node22 -->
<g id="edge42_Node000031_Node000022" class="edge">
<title>Node31&#45;&gt;Node22</title>
<g id="a_edge42_Node000031_Node000022"><a xlink:title=" ">
<path fill="none" stroke="#63b8ff" d="M911.34,-285.84C937.7,-267.36 999.73,-223.86 1032.26,-201.05"/>
<polygon fill="#63b8ff" stroke="#63b8ff" points="1034.42,-203.8 1040.6,-195.2 1030.4,-198.07 1034.42,-203.8"/>
</a>
</g>
</g>
<!-- Node32 -->
<g id="Node000032" class="node">
<title>Node32</title>
<g id="a_Node000032"><a xlink:title=" ">
<polygon fill="#e0e0e0" stroke="#999999" points="933,-250 853,-250 853,-231 933,-231 933,-250"/>
<text text-anchor="middle" x="893" y="-238" font-family="Helvetica,sans-Serif" font-size="10.00">jwt&#45;cpp/jwt.h</text>
</a>
</g>
</g>
<!-- Node31&#45;&gt;Node32 -->
<g id="edge46_Node000031_Node000032" class="edge">
<title>Node31&#45;&gt;Node32</title>
<g id="a_edge46_Node000031_Node000032"><a xlink:title=" ">
<path fill="none" stroke="#63b8ff" d="M898.01,-285.75C897.22,-278.8 896.1,-268.85 895.11,-260.13"/>
<polygon fill="#63b8ff" stroke="#63b8ff" points="898.58,-259.63 893.97,-250.09 891.62,-260.42 898.58,-259.63"/>
</a>
</g>
</g>
<!-- Node33&#45;&gt;Node10 -->
<g id="edge52_Node000033_Node000010" class="edge">
<title>Node33&#45;&gt;Node10</title>
<g id="a_edge52_Node000033_Node000010"><a xlink:title=" ">
<path fill="none" stroke="#63b8ff" d="M797.62,-65.99C772.69,-56.07 731.28,-39.59 702.86,-28.28"/>
<polygon fill="#63b8ff" stroke="#63b8ff" points="703.99,-24.96 693.4,-24.52 701.4,-31.47 703.99,-24.96"/>
</a>
</g>
</g>
<!-- Node33&#45;&gt;Node11 -->
<g id="edge51_Node000033_Node000011" class="edge">
<title>Node33&#45;&gt;Node11</title>
<g id="a_edge51_Node000033_Node000011"><a xlink:title=" ">
<path fill="none" stroke="#63b8ff" d="M863.06,-65.99C924.61,-54.11 1034.9,-32.82 1089.52,-22.27"/>
<polygon fill="#63b8ff" stroke="#63b8ff" points="1090.52,-25.64 1099.67,-20.31 1089.19,-18.77 1090.52,-25.64"/>
</a>
</g>
</g>
</g>
</svg>

<g id="navigator" transform="translate(0 0)" fill="#404254">
  <rect fill="#f2f5e9" fill-opacity="0.5" stroke="#606060" stroke-width=".5" x="0" y="0" width="60" height="60"/>
  <use id="zoomplus" xlink:href="#zoomPlus" x="17" y="9" onmousedown="handleZoom(evt,'in')"/>
  <use id="zoomminus" xlink:href="#zoomMin" x="42" y="9" onmousedown="handleZoom(evt,'out')"/>
  <use id="reset" xlink:href="#resetDef" x="30" y="36" onmousedown="handleReset()"/>
   <use id="arrowup" xlink:href="#arrowUp" x="0" y="0" onmousedown="handlePan(0,-1)"/>
  <use id="arrowright" xlink:href="#arrowRight" x="0" y="0" onmousedown="handlePan(1,0)"/>
  <use id="arrowdown" xlink:href="#arrowDown" x="0" y="0" onmousedown="handlePan(0,1)"/>
  <use id="arrowleft" xlink:href="#arrowLeft" x="0" y="0" onmousedown="handlePan(-1,0)"/>
</g>
<svg viewBox="0 0 15 15" width="100%" height="30px" preserveAspectRatio="xMaxYMin meet">
 <g id="arrow_out" transform="scale(0.3 0.3)">
  <a xlink:href="RangeConstraint_8h__incl_org.svg" target="_base">
   <rect id="button" ry="5" rx="5" y="6" x="6" height="38" width="38"
        fill="#f2f5e9" fill-opacity="0.5" stroke="#606060" stroke-width="1.0"/>
   <path id="arrow"
     d="M 11.500037,31.436501 C 11.940474,20.09759 22.043105,11.32322 32.158766,21.979434 L 37.068811,17.246167 C 37.068811,17.246167 37.088388,32 37.088388,32 L 22.160133,31.978069 C 22.160133,31.978069 26.997745,27.140456 26.997745,27.140456 C 18.528582,18.264221 13.291696,25.230495 11.500037,31.436501 z"
     style="fill:#404040;"/>
  </a>
 </g>
</svg>

<style type='text/css'>
<![CDATA[
[data-mouse-over-selected='false'] { opacity: 0.7; }
[data-mouse-over-selected='true']  { opacity: 1.0; }
]]>
</style>
<script type="application/ecmascript"><![CDATA[
document.addEventListener('DOMContentLoaded', (event) => {
  highlightEdges();
  highlightAdjacentNodes();
});
]]></script>
</svg>
