<?xml version="1.0" encoding="UTF-8" standalone="no"?>
<!DOCTYPE svg PUBLIC "-//W3C//DTD SVG 1.1//EN"
 "http://www.w3.org/Graphics/SVG/1.1/DTD/svg11.dtd">
<!-- Generated by graphviz version 2.43.0 (0)
 -->
<!-- Title: /home/runner/work/Catena/Catena/sdks/cpp/full/include/Reflect.h Pages: 1 -->
<svg width="917pt" height="162pt"
 viewBox="0.00 0.00 916.50 162.00" xmlns="http://www.w3.org/2000/svg" xmlns:xlink="http://www.w3.org/1999/xlink">
<g id="graph0" class="graph" transform="scale(1 1) rotate(0) translate(4 158)">
<title>/home/runner/work/Catena/Catena/sdks/cpp/full/include/Reflect.h</title>
<polygon fill="white" stroke="transparent" points="-4,4 -4,-158 912.5,-158 912.5,4 -4,4"/>
<!-- Node1 -->
<g id="node1" class="node">
<title>Node1</title>
<g id="a_node1"><a xlink:title="adapted from https://github.com/tapika/TestCppReflect">
<polygon fill="#bfbfbf" stroke="black" points="604.5,-112.5 604.5,-153.5 761.5,-153.5 761.5,-112.5 604.5,-112.5"/>
<text text-anchor="start" x="612.5" y="-141.5" font-family="Helvetica,sans-Serif" font-size="10.00">/home/runner/work/Catena</text>
<text text-anchor="start" x="612.5" y="-130.5" font-family="Helvetica,sans-Serif" font-size="10.00">/Catena/sdks/cpp/full/include</text>
<text text-anchor="middle" x="683" y="-119.5" font-family="Helvetica,sans-Serif" font-size="10.00">/Reflect.h</text>
</a>
</g>
</g>
<!-- Node2 -->
<g id="node2" class="node">
<title>Node2</title>
<g id="a_node2"><a xlink:href="ReflectionMacros_8h_source.html" target="_top" xlink:title=" ">
<polygon fill="white" stroke="black" points="351,-56.5 351,-75.5 461,-75.5 461,-56.5 351,-56.5"/>
<text text-anchor="middle" x="406" y="-63.5" font-family="Helvetica,sans-Serif" font-size="10.00">ReflectionMacros.h</text>
</a>
</g>
</g>
<!-- Node1&#45;&gt;Node2 -->
<g id="edge1" class="edge">
<title>Node1&#45;&gt;Node2</title>
<path fill="none" stroke="midnightblue" d="M604.36,-113.55C555.16,-102 493.47,-87.53 452.06,-77.81"/>
<polygon fill="midnightblue" stroke="midnightblue" points="452.79,-74.38 442.25,-75.51 451.19,-81.2 452.79,-74.38"/>
</g>
<!-- Node3 -->
<g id="node3" class="node">
<title>Node3</title>
<g id="a_node3"><a xlink:href="TypeTraits_8h.html" target="_top" xlink:title="TypeTraits for providing compile time type information for structs and std::variant objects.">
<polygon fill="white" stroke="black" points="517,-56.5 517,-75.5 591,-75.5 591,-56.5 517,-56.5"/>
<text text-anchor="middle" x="554" y="-63.5" font-family="Helvetica,sans-Serif" font-size="10.00">TypeTraits.h</text>
</a>
</g>
</g>
<!-- Node1&#45;&gt;Node3 -->
<g id="edge2" class="edge">
<title>Node1&#45;&gt;Node3</title>
<path fill="none" stroke="midnightblue" d="M644.3,-112.5C623.57,-102.05 598.58,-89.46 580.15,-80.18"/>
<polygon fill="midnightblue" stroke="midnightblue" points="581.68,-77.03 571.17,-75.65 578.53,-83.28 581.68,-77.03"/>
</g>
<!-- Node7 -->
<g id="node7" class="node">
<title>Node7</title>
<g id="a_node7"><a xlink:title=" ">
<polygon fill="white" stroke="#bfbfbf" points="0,-0.5 0,-19.5 58,-19.5 58,-0.5 0,-0.5"/>
<text text-anchor="middle" x="29" y="-7.5" font-family="Helvetica,sans-Serif" font-size="10.00">memory</text>
</a>
</g>
</g>
<!-- Node1&#45;&gt;Node7 -->
<g id="edge15" class="edge">
<title>Node1&#45;&gt;Node7</title>
<path fill="none" stroke="midnightblue" d="M612.16,-112.41C579.91,-102.71 541.54,-90.06 508,-76 490.4,-68.62 488.31,-61.4 470,-56 300.64,-6.05 246.46,-47.25 68.33,-19.97"/>
<polygon fill="midnightblue" stroke="midnightblue" points="68.8,-16.5 58.37,-18.4 67.7,-23.42 68.8,-16.5"/>
</g>
<!-- Node9 -->
<g id="node9" class="node">
<title>Node9</title>
<g id="a_node9"><a xlink:title=" ">
<polygon fill="white" stroke="#bfbfbf" points="688,-0.5 688,-19.5 732,-19.5 732,-0.5 688,-0.5"/>
<text text-anchor="middle" x="710" y="-7.5" font-family="Helvetica,sans-Serif" font-size="10.00">string</text>
</a>
</g>
</g>
<!-- Node1&#45;&gt;Node9 -->
<g id="edge16" class="edge">
<title>Node1&#45;&gt;Node9</title>
<path fill="none" stroke="midnightblue" d="M682.22,-112.3C682.11,-96.75 683.03,-74.66 688,-56 690.54,-46.44 695.17,-36.49 699.53,-28.39"/>
<polygon fill="midnightblue" stroke="midnightblue" points="702.64,-29.99 704.55,-19.57 696.56,-26.53 702.64,-29.99"/>
</g>
<!-- Node12 -->
<g id="node12" class="node">
<title>Node12</title>
<g id="a_node12"><a xlink:title=" ">
<polygon fill="white" stroke="#bfbfbf" points="750.5,-0.5 750.5,-19.5 797.5,-19.5 797.5,-0.5 750.5,-0.5"/>
<text text-anchor="middle" x="774" y="-7.5" font-family="Helvetica,sans-Serif" font-size="10.00">vector</text>
</a>
</g>
</g>
<!-- Node1&#45;&gt;Node12 -->
<g id="edge17" class="edge">
<title>Node1&#45;&gt;Node12</title>
<path fill="none" stroke="midnightblue" d="M692.1,-112.25C699.93,-96.28 712.13,-73.64 726,-56 734.52,-45.17 745.67,-34.55 755.08,-26.35"/>
<polygon fill="midnightblue" stroke="midnightblue" points="757.42,-28.95 762.79,-19.82 752.9,-23.61 757.42,-28.95"/>
</g>
<!-- Node14 -->
<g id="node14" class="node">
<title>Node14</title>
<g id="a_node14"><a xlink:title=" ">
<polygon fill="white" stroke="#bfbfbf" points="815.5,-0.5 815.5,-19.5 908.5,-19.5 908.5,-0.5 815.5,-0.5"/>
<text text-anchor="middle" x="862" y="-7.5" font-family="Helvetica,sans-Serif" font-size="10.00">unordered_map</text>
</a>
</g>
</g>
<!-- Node1&#45;&gt;Node14 -->
<g id="edge18" class="edge">
<title>Node1&#45;&gt;Node14</title>
<path fill="none" stroke="midnightblue" d="M699.4,-112.18C713.97,-95.52 736.55,-71.95 760,-56 780.49,-42.06 806.01,-30.81 826.39,-23.04"/>
<polygon fill="midnightblue" stroke="midnightblue" points="827.77,-26.26 835.94,-19.51 825.34,-19.7 827.77,-26.26"/>
</g>
<!-- Node15 -->
<g id="node15" class="node">
<title>Node15</title>
<g id="a_node15"><a xlink:title=" ">
<polygon fill="white" stroke="#bfbfbf" points="768.5,-56.5 768.5,-75.5 833.5,-75.5 833.5,-56.5 768.5,-56.5"/>
<text text-anchor="middle" x="801" y="-63.5" font-family="Helvetica,sans-Serif" font-size="10.00">TypeList.h</text>
</a>
</g>
</g>
<!-- Node1&#45;&gt;Node15 -->
<g id="edge14" class="edge">
<title>Node1&#45;&gt;Node15</title>
<path fill="none" stroke="midnightblue" d="M718.4,-112.5C737.02,-102.24 759.38,-89.93 776.14,-80.69"/>
<polygon fill="midnightblue" stroke="midnightblue" points="778.22,-83.54 785.29,-75.65 774.84,-77.41 778.22,-83.54"/>
</g>
<!-- Node16 -->
<g id="node16" class="node">
<title>Node16</title>
<g id="a_node16"><a xlink:title=" ">
<polygon fill="white" stroke="#bfbfbf" points="851.5,-56.5 851.5,-75.5 902.5,-75.5 902.5,-56.5 851.5,-56.5"/>
<text text-anchor="middle" x="877" y="-63.5" font-family="Helvetica,sans-Serif" font-size="10.00">variant</text>
</a>
</g>
</g>
<!-- Node1&#45;&gt;Node16 -->
<g id="edge19" class="edge">
<title>Node1&#45;&gt;Node16</title>
<path fill="none" stroke="midnightblue" d="M741.21,-112.5C773.91,-101.54 813.66,-88.22 841.67,-78.84"/>
<polygon fill="midnightblue" stroke="midnightblue" points="843.06,-82.06 851.43,-75.57 840.84,-75.43 843.06,-82.06"/>
</g>
<!-- Node4 -->
<g id="node4" class="node">
<title>Node4</title>
<g id="a_node4"><a xlink:title=" ">
<polygon fill="white" stroke="#bfbfbf" points="234.5,-0.5 234.5,-19.5 353.5,-19.5 353.5,-0.5 234.5,-0.5"/>
<text text-anchor="middle" x="294" y="-7.5" font-family="Helvetica,sans-Serif" font-size="10.00">interface/device.pb.h</text>
</a>
</g>
</g>
<!-- Node3&#45;&gt;Node4 -->
<g id="edge3" class="edge">
<title>Node3&#45;&gt;Node4</title>
<path fill="none" stroke="midnightblue" d="M516.75,-57.26C471.69,-47.9 395.61,-32.1 345.1,-21.61"/>
<polygon fill="midnightblue" stroke="midnightblue" points="345.55,-18.13 335.04,-19.52 344.12,-24.98 345.55,-18.13"/>
</g>
<!-- Node5 -->
<g id="node5" class="node">
<title>Node5</title>
<g id="a_node5"><a xlink:title=" ">
<polygon fill="white" stroke="#bfbfbf" points="372,-0.5 372,-19.5 436,-19.5 436,-0.5 372,-0.5"/>
<text text-anchor="middle" x="404" y="-7.5" font-family="Helvetica,sans-Serif" font-size="10.00">algorithm</text>
</a>
</g>
</g>
<!-- Node3&#45;&gt;Node5 -->
<g id="edge4" class="edge">
<title>Node3&#45;&gt;Node5</title>
<path fill="none" stroke="midnightblue" d="M530.23,-56.44C505.11,-47.4 465.29,-33.06 437.1,-22.92"/>
<polygon fill="midnightblue" stroke="midnightblue" points="438.25,-19.61 427.66,-19.52 435.88,-26.2 438.25,-19.61"/>
</g>
<!-- Node6 -->
<g id="node6" class="node">
<title>Node6</title>
<g id="a_node6"><a xlink:title=" ">
<polygon fill="white" stroke="#bfbfbf" points="454.5,-0.5 454.5,-19.5 507.5,-19.5 507.5,-0.5 454.5,-0.5"/>
<text text-anchor="middle" x="481" y="-7.5" font-family="Helvetica,sans-Serif" font-size="10.00">cstddef</text>
</a>
</g>
</g>
<!-- Node3&#45;&gt;Node6 -->
<g id="edge5" class="edge">
<title>Node3&#45;&gt;Node6</title>
<path fill="none" stroke="midnightblue" d="M542.27,-56.32C531.16,-48.11 514.26,-35.6 501.02,-25.81"/>
<polygon fill="midnightblue" stroke="midnightblue" points="503.06,-22.97 492.94,-19.83 498.9,-28.59 503.06,-22.97"/>
</g>
<!-- Node3&#45;&gt;Node7 -->
<g id="edge6" class="edge">
<title>Node3&#45;&gt;Node7</title>
<path fill="none" stroke="midnightblue" d="M516.74,-58.02C512.12,-57.27 507.46,-56.58 503,-56 313.46,-31.5 260.82,-49.84 68.53,-20.02"/>
<polygon fill="midnightblue" stroke="midnightblue" points="68.79,-16.52 58.37,-18.42 67.71,-23.43 68.79,-16.52"/>
</g>
<!-- Node8 -->
<g id="node8" class="node">
<title>Node8</title>
<g id="a_node8"><a xlink:title=" ">
<polygon fill="white" stroke="#bfbfbf" points="526,-0.5 526,-19.5 582,-19.5 582,-0.5 526,-0.5"/>
<text text-anchor="middle" x="554" y="-7.5" font-family="Helvetica,sans-Serif" font-size="10.00">sstream</text>
</a>
</g>
</g>
<!-- Node3&#45;&gt;Node8 -->
<g id="edge7" class="edge">
<title>Node3&#45;&gt;Node8</title>
<path fill="none" stroke="midnightblue" d="M554,-56.08C554,-49.01 554,-38.86 554,-29.99"/>
<polygon fill="midnightblue" stroke="midnightblue" points="557.5,-29.75 554,-19.75 550.5,-29.75 557.5,-29.75"/>
</g>
<!-- Node3&#45;&gt;Node9 -->
<g id="edge8" class="edge">
<title>Node3&#45;&gt;Node9</title>
<path fill="none" stroke="midnightblue" d="M578.72,-56.44C605.62,-47.13 648.71,-32.22 678.13,-22.03"/>
<polygon fill="midnightblue" stroke="midnightblue" points="679.61,-25.22 687.92,-18.64 677.32,-18.61 679.61,-25.22"/>
</g>
<!-- Node10 -->
<g id="node10" class="node">
<title>Node10</title>
<g id="a_node10"><a xlink:title=" ">
<polygon fill="white" stroke="#bfbfbf" points="600.5,-0.5 600.5,-19.5 669.5,-19.5 669.5,-0.5 600.5,-0.5"/>
<text text-anchor="middle" x="635" y="-7.5" font-family="Helvetica,sans-Serif" font-size="10.00">type_traits</text>
</a>
</g>
</g>
<!-- Node3&#45;&gt;Node10 -->
<g id="edge9" class="edge">
<title>Node3&#45;&gt;Node10</title>
<path fill="none" stroke="midnightblue" d="M567.01,-56.32C579.53,-47.98 598.68,-35.21 613.47,-25.35"/>
<polygon fill="midnightblue" stroke="midnightblue" points="615.64,-28.11 622.02,-19.65 611.76,-22.29 615.64,-28.11"/>
</g>
<!-- Node11 -->
<g id="node11" class="node">
<title>Node11</title>
<g id="a_node11"><a xlink:title=" ">
<polygon fill="white" stroke="#bfbfbf" points="76.5,-0.5 76.5,-19.5 133.5,-19.5 133.5,-0.5 76.5,-0.5"/>
<text text-anchor="middle" x="105" y="-7.5" font-family="Helvetica,sans-Serif" font-size="10.00">typeinfo</text>
</a>
</g>
</g>
<!-- Node3&#45;&gt;Node11 -->
<g id="edge10" class="edge">
<title>Node3&#45;&gt;Node11</title>
<path fill="none" stroke="midnightblue" d="M516.73,-58.09C512.11,-57.33 507.45,-56.61 503,-56 346.55,-34.43 302.73,-46.6 143.74,-20.09"/>
<polygon fill="midnightblue" stroke="midnightblue" points="144.05,-16.59 133.6,-18.37 142.88,-23.49 144.05,-16.59"/>
</g>
<!-- Node3&#45;&gt;Node12 -->
<g id="edge11" class="edge">
<title>Node3&#45;&gt;Node12</title>
<path fill="none" stroke="midnightblue" d="M590.98,-56.45C626.7,-48.11 682.56,-34.87 740.21,-20.14"/>
<polygon fill="midnightblue" stroke="midnightblue" points="741.41,-23.45 750.23,-17.57 739.67,-16.67 741.41,-23.45"/>
</g>
<!-- Node13 -->
<g id="node13" class="node">
<title>Node13</title>
<g id="a_node13"><a xlink:title=" ">
<polygon fill="white" stroke="#bfbfbf" points="151.5,-0.5 151.5,-19.5 216.5,-19.5 216.5,-0.5 151.5,-0.5"/>
<text text-anchor="middle" x="184" y="-7.5" font-family="Helvetica,sans-Serif" font-size="10.00">functional</text>
</a>
</g>
</g>
<!-- Node3&#45;&gt;Node13 -->
<g id="edge12" class="edge">
<title>Node3&#45;&gt;Node13</title>
<path fill="none" stroke="midnightblue" d="M516.99,-58.26C512.28,-57.47 507.53,-56.69 503,-56 383.09,-37.67 349.5,-41.17 226.79,-20.19"/>
<polygon fill="midnightblue" stroke="midnightblue" points="227.07,-16.69 216.62,-18.43 225.88,-23.58 227.07,-16.69"/>
</g>
<!-- Node3&#45;&gt;Node14 -->
<g id="edge13" class="edge">
<title>Node3&#45;&gt;Node14</title>
<path fill="none" stroke="midnightblue" d="M591.15,-58.49C644.43,-49.15 742.96,-31.87 805.35,-20.93"/>
<polygon fill="midnightblue" stroke="midnightblue" points="806.17,-24.34 815.42,-19.17 804.97,-17.45 806.17,-24.34"/>
</g>
</g>
</svg>
