<?xml version="1.0" encoding="UTF-8" standalone="no"?>
<!DOCTYPE svg PUBLIC "-//W3C//DTD SVG 1.1//EN"
 "http://www.w3.org/Graphics/SVG/1.1/DTD/svg11.dtd">
<!-- Generated by graphviz version 2.43.0 (0)
 -->
<!-- Title: /home/runner/work/Catena/Catena/sdks/cpp/connections/REST/include/interface/IServiceImpl.h Pages: 1 -->
<!--zoomable 434 -->

<svg id="main" version="1.1" xmlns="http://www.w3.org/2000/svg" xmlns:xlink="http://www.w3.org/1999/xlink" xml:space="preserve" onload="init(evt)">
<style type="text/css"><![CDATA[
.node, .edge {opacity: 0.7;}
.node.selected, .edge.selected {opacity: 1;}
.edge:hover path { stroke: red; }
.edge:hover polygon { stroke: red; fill: red; }
]]></style>

<defs>
  <circle id="rim" cx="0" cy="0" r="7"/>
  <circle id="rim2" cx="0" cy="0" r="3.5"/>
  <g id="zoomPlus">
    <use xlink:href="#rim" fill="#404040"><set attributeName="fill" to="#808080" begin="zoomplus.mouseover" end="zoomplus.mouseout"/></use>
    <path d="M-4,0h8M0,-4v8" fill="none" stroke="white" stroke-width="1.5" pointer-events="none"/>
  </g>
  <g id="zoomMin">
    <use xlink:href="#rim" fill="#404040"><set attributeName="fill" to="#808080" begin="zoomminus.mouseover" end="zoomminus.mouseout"/></use>
    <path d="M-4,0h8" fill="none" stroke="white" stroke-width="1.5" pointer-events="none"/>
  </g>
  <g id="arrowUp" transform="translate(30 24)">
    <use xlink:href="#rim"/>
    <path pointer-events="none" fill="none" stroke="white" stroke-width="1.5" d="M0,-3.0v7 M-2.5,-0.5L0,-3.0L2.5,-0.5"/>
  </g>
  <g id="arrowRight" transform="rotate(90) translate(36 -43)">
    <use xlink:href="#rim"/>
    <path pointer-events="none" fill="none" stroke="white" stroke-width="1.5" d="M0,-3.0v7 M-2.5,-0.5L0,-3.0L2.5,-0.5"/>
  </g>
  <g id="arrowDown" transform="rotate(180) translate(-30 -48)">
    <use xlink:href="#rim"/>
    <path pointer-events="none" fill="none" stroke="white" stroke-width="1.5" d="M0,-3.0v7 M-2.5,-0.5L0,-3.0L2.5,-0.5"/>
  </g>
  <g id="arrowLeft" transform="rotate(270) translate(-36 17)">
    <use xlink:href="#rim"/>
    <path pointer-events="none" fill="none" stroke="white" stroke-width="1.5" d="M0,-3.0v7 M-2.5,-0.5L0,-3.0L2.5,-0.5"/>
  </g>
  <g id="resetDef">
    <use xlink:href="#rim2" fill="#404040"><set attributeName="fill" to="#808080" begin="reset.mouseover" end="reset.mouseout"/></use>
  </g>
</defs>
<script type="application/ecmascript">
var viewWidth = 1708;
var viewHeight = 434;
var sectionId = 'dynsection-0';
</script>
<script type="application/ecmascript" xlink:href="svg.min.js"/>
<svg id="graph" class="graph">
<g id="viewport">
<title>/home/runner/work/Catena/Catena/sdks/cpp/connections/REST/include/interface/IServiceImpl.h</title>
<!-- Node1 -->
<g id="Node000001" class="node">
<title>Node1</title>
<g id="a_Node000001"><a xlink:title="Interface for the REST API implementation.">
<polygon fill="#999999" stroke="#666666" points="1462.97,-426 1260.97,-426 1260.97,-385 1462.97,-385 1462.97,-426"/>
<text text-anchor="start" x="1268.97" y="-414" font-family="Helvetica,sans-Serif" font-size="10.00">/home/runner/work/Catena</text>
<text text-anchor="start" x="1268.97" y="-403" font-family="Helvetica,sans-Serif" font-size="10.00">/Catena/sdks/cpp/connections</text>
<text text-anchor="middle" x="1361.97" y="-392" font-family="Helvetica,sans-Serif" font-size="10.00">/REST/include/interface/IServiceImpl.h</text>
</a>
</g>
</g>
<!-- Node2 -->
<g id="Node000002" class="node">
<title>Node2</title>
<g id="a_Node000002"><a xlink:href="Status_8h.html" target="_top" xlink:title="Communicates failure status using gRPC&#39;s codes.">
<polygon fill="white" stroke="#666666" points="342.97,-184 286.97,-184 286.97,-165 342.97,-165 342.97,-184"/>
<text text-anchor="middle" x="314.97" y="-172" font-family="Helvetica,sans-Serif" font-size="10.00">Status.h</text>
</a>
</g>
</g>
<!-- Node1&#45;&gt;Node2 -->
<g id="edge1_Node000001_Node000002" class="edge">
<title>Node1&#45;&gt;Node2</title>
<g id="a_edge1_Node000001_Node000002"><a xlink:title=" ">
<path fill="none" stroke="#63b8ff" d="M1260.95,-401.02C1092.92,-394.49 763.35,-378.35 650.97,-349 594.59,-334.28 584.01,-320.2 531.97,-294 460.75,-258.15 378.63,-211.93 338.93,-189.27"/>
<polygon fill="#63b8ff" stroke="#63b8ff" points="340.2,-185.97 329.78,-184.04 336.72,-192.04 340.2,-185.97"/>
</a>
</g>
</g>
<!-- Node5 -->
<g id="Node000005" class="node">
<title>Node5</title>
<g id="a_Node000005"><a xlink:title=" ">
<polygon fill="#e0e0e0" stroke="#999999" points="1333.47,-294 1252.47,-294 1252.47,-275 1333.47,-275 1333.47,-294"/>
<text text-anchor="middle" x="1292.97" y="-282" font-family="Helvetica,sans-Serif" font-size="10.00">vdk/signals.h</text>
</a>
</g>
</g>
<!-- Node1&#45;&gt;Node5 -->
<g id="edge4_Node000001_Node000005" class="edge">
<title>Node1&#45;&gt;Node5</title>
<g id="a_edge4_Node000001_Node000005"><a xlink:title=" ">
<path fill="none" stroke="#63b8ff" d="M1350.57,-384.85C1337.36,-362.07 1315.79,-324.85 1303.13,-303.02"/>
<polygon fill="#63b8ff" stroke="#63b8ff" points="1306.04,-301.07 1298,-294.18 1299.99,-304.58 1306.04,-301.07"/>
</a>
</g>
</g>
<!-- Node6 -->
<g id="Node000006" class="node">
<title>Node6</title>
<g id="a_Node000006"><a xlink:href="IParam_8h.html" target="_top" xlink:title="Interface for parameters.">
<polygon fill="white" stroke="#666666" points="568.47,-239 509.47,-239 509.47,-220 568.47,-220 568.47,-239"/>
<text text-anchor="middle" x="538.97" y="-227" font-family="Helvetica,sans-Serif" font-size="10.00">IParam.h</text>
</a>
</g>
</g>
<!-- Node1&#45;&gt;Node6 -->
<g id="edge5_Node000001_Node000006" class="edge">
<title>Node1&#45;&gt;Node6</title>
<g id="a_edge5_Node000001_Node000006"><a xlink:title=" ">
<path fill="none" stroke="#63b8ff" d="M1260.94,-397.71C1053.59,-382.81 595.23,-344.5 545.97,-294 534.72,-282.47 533.98,-263.6 535.45,-249.41"/>
<polygon fill="#63b8ff" stroke="#63b8ff" points="538.95,-249.68 536.94,-239.28 532.02,-248.66 538.95,-249.68"/>
</a>
</g>
</g>
<!-- Node12 -->
<g id="Node000012" class="node">
<title>Node12</title>
<g id="a_Node000012"><a xlink:title=" ">
<polygon fill="#e0e0e0" stroke="#999999" points="983.97,-19 939.97,-19 939.97,0 983.97,0 983.97,-19"/>
<text text-anchor="middle" x="961.97" y="-7" font-family="Helvetica,sans-Serif" font-size="10.00">string</text>
</a>
</g>
</g>
<!-- Node1&#45;&gt;Node12 -->
<g id="edge59_Node000001_Node000012" class="edge">
<title>Node1&#45;&gt;Node12</title>
<g id="a_edge59_Node000001_Node000012"><a xlink:title=" ">
<path fill="none" stroke="#63b8ff" d="M1372.35,-384.9C1383.6,-361.8 1399.97,-321.93 1399.97,-285.5 1399.97,-285.5 1399.97,-285.5 1399.97,-118.5 1399.97,-34.91 1095.41,-15.63 994.22,-11.53"/>
<polygon fill="#63b8ff" stroke="#63b8ff" points="994.12,-8.02 983.99,-11.14 993.85,-15.02 994.12,-8.02"/>
</a>
</g>
</g>
<!-- Node26 -->
<g id="Node000026" class="node">
<title>Node26</title>
<g id="a_Node000026"><a xlink:title=" ">
<polygon fill="#e0e0e0" stroke="#999999" points="1371.97,-129 1311.97,-129 1311.97,-110 1371.97,-110 1371.97,-129"/>
<text text-anchor="middle" x="1341.97" y="-117" font-family="Helvetica,sans-Serif" font-size="10.00">iostream</text>
</a>
</g>
</g>
<!-- Node1&#45;&gt;Node26 -->
<g id="edge60_Node000001_Node000026" class="edge">
<title>Node1&#45;&gt;Node26</title>
<g id="a_edge60_Node000001_Node000026"><a xlink:title=" ">
<path fill="none" stroke="#63b8ff" d="M1361.97,-384.71C1361.97,-361.09 1361.97,-320.41 1361.97,-285.5 1361.97,-285.5 1361.97,-285.5 1361.97,-228.5 1361.97,-196.51 1353.38,-160.07 1347.46,-138.75"/>
<polygon fill="#63b8ff" stroke="#63b8ff" points="1350.8,-137.71 1344.67,-129.08 1344.08,-139.66 1350.8,-137.71"/>
</a>
</g>
</g>
<!-- Node30 -->
<g id="Node000030" class="node">
<title>Node30</title>
<g id="a_Node000030"><a xlink:href="IDevice_8h.html" target="_top" xlink:title="Interface for device.">
<polygon fill="white" stroke="#666666" points="1041.97,-349 979.97,-349 979.97,-330 1041.97,-330 1041.97,-349"/>
<text text-anchor="middle" x="1010.97" y="-337" font-family="Helvetica,sans-Serif" font-size="10.00">IDevice.h</text>
</a>
</g>
</g>
<!-- Node1&#45;&gt;Node30 -->
<g id="edge37_Node000001_Node000030" class="edge">
<title>Node1&#45;&gt;Node30</title>
<g id="a_edge37_Node000001_Node000030"><a xlink:title=" ">
<path fill="none" stroke="#63b8ff" d="M1260.92,-386.07C1191.57,-373.43 1103.19,-357.31 1052.25,-348.03"/>
<polygon fill="#63b8ff" stroke="#63b8ff" points="1052.73,-344.56 1042.27,-346.21 1051.48,-351.44 1052.73,-344.56"/>
</a>
</g>
</g>
<!-- Node36 -->
<g id="Node000036" class="node">
<title>Node36</title>
<g id="a_Node000036"><a xlink:title=" ">
<polygon fill="#e0e0e0" stroke="#999999" points="1515.97,-349 1427.97,-349 1427.97,-330 1515.97,-330 1515.97,-349"/>
<text text-anchor="middle" x="1471.97" y="-337" font-family="Helvetica,sans-Serif" font-size="10.00">boost/asio.hpp</text>
</a>
</g>
</g>
<!-- Node1&#45;&gt;Node36 -->
<g id="edge57_Node000001_Node000036" class="edge">
<title>Node1&#45;&gt;Node36</title>
<g id="a_edge57_Node000001_Node000036"><a xlink:title=" ">
<path fill="none" stroke="#63b8ff" d="M1395.57,-384.95C1412.63,-375.03 1432.94,-363.21 1448.33,-354.25"/>
<polygon fill="#63b8ff" stroke="#63b8ff" points="1450.32,-357.15 1457.2,-349.09 1446.8,-351.1 1450.32,-357.15"/>
</a>
</g>
</g>
<!-- Node37 -->
<g id="Node000037" class="node">
<title>Node37</title>
<g id="a_Node000037"><a xlink:title=" ">
<polygon fill="#e0e0e0" stroke="#999999" points="1637.97,-349 1533.97,-349 1533.97,-330 1637.97,-330 1637.97,-349"/>
<text text-anchor="middle" x="1585.97" y="-337" font-family="Helvetica,sans-Serif" font-size="10.00">boost/asio/ssl.hpp</text>
</a>
</g>
</g>
<!-- Node1&#45;&gt;Node37 -->
<g id="edge58_Node000001_Node000037" class="edge">
<title>Node1&#45;&gt;Node37</title>
<g id="a_edge58_Node000001_Node000037"><a xlink:title=" ">
<path fill="none" stroke="#63b8ff" d="M1430.39,-384.95C1468.36,-374.1 1514.23,-361 1546.29,-351.84"/>
<polygon fill="#63b8ff" stroke="#63b8ff" points="1547.54,-355.12 1556.19,-349.01 1545.61,-348.39 1547.54,-355.12"/>
</a>
</g>
</g>
<!-- Node38 -->
<g id="Node000038" class="node">
<title>Node38</title>
<g id="a_Node000038"><a xlink:title=" ">
<polygon fill="#e0e0e0" stroke="#999999" points="1699.97,-349 1655.97,-349 1655.97,-330 1699.97,-330 1699.97,-349"/>
<text text-anchor="middle" x="1677.97" y="-337" font-family="Helvetica,sans-Serif" font-size="10.00">regex</text>
</a>
</g>
</g>
<!-- Node1&#45;&gt;Node38 -->
<g id="edge61_Node000001_Node000038" class="edge">
<title>Node1&#45;&gt;Node38</title>
<g id="a_edge61_Node000001_Node000038"><a xlink:title=" ">
<path fill="none" stroke="#63b8ff" d="M1463.27,-386.69C1515.33,-377.08 1579.97,-364.44 1645.93,-349.11"/>
<polygon fill="#63b8ff" stroke="#63b8ff" points="1646.73,-352.52 1655.67,-346.83 1645.13,-345.7 1646.73,-352.52"/>
</a>
</g>
</g>
<!-- Node3 -->
<g id="Node000003" class="node">
<title>Node3</title>
<g id="a_Node000003"><a xlink:title=" ">
<polygon fill="#e0e0e0" stroke="#999999" points="84.97,-129 28.97,-129 28.97,-110 84.97,-110 84.97,-129"/>
<text text-anchor="middle" x="56.97" y="-117" font-family="Helvetica,sans-Serif" font-size="10.00">sstream</text>
</a>
</g>
</g>
<!-- Node2&#45;&gt;Node3 -->
<g id="edge2_Node000002_Node000003" class="edge">
<title>Node2&#45;&gt;Node3</title>
<g id="a_edge2_Node000002_Node000003"><a xlink:title=" ">
<path fill="none" stroke="#63b8ff" d="M286.66,-168.05C246.38,-160.25 169.96,-145.24 95.28,-129.24"/>
<polygon fill="#63b8ff" stroke="#63b8ff" points="95.75,-125.76 85.23,-127.08 94.27,-132.6 95.75,-125.76"/>
</a>
</g>
</g>
<!-- Node4 -->
<g id="Node000004" class="node">
<title>Node4</title>
<g id="a_Node000004"><a xlink:title=" ">
<polygon fill="#e0e0e0" stroke="#999999" points="168.47,-129 103.47,-129 103.47,-110 168.47,-110 168.47,-129"/>
<text text-anchor="middle" x="135.97" y="-117" font-family="Helvetica,sans-Serif" font-size="10.00">stdexcept</text>
</a>
</g>
</g>
<!-- Node2&#45;&gt;Node4 -->
<g id="edge3_Node000002_Node000004" class="edge">
<title>Node2&#45;&gt;Node4</title>
<g id="a_edge3_Node000002_Node000004"><a xlink:title=" ">
<path fill="none" stroke="#63b8ff" d="M286.61,-165.1C256.41,-156.16 208.43,-141.95 174.75,-131.98"/>
<polygon fill="#63b8ff" stroke="#63b8ff" points="175.37,-128.52 164.79,-129.03 173.39,-135.23 175.37,-128.52"/>
</a>
</g>
</g>
<!-- Node6&#45;&gt;Node2 -->
<g id="edge35_Node000006_Node000002" class="edge">
<title>Node6&#45;&gt;Node2</title>
<g id="a_edge35_Node000006_Node000002"><a xlink:title=" ">
<path fill="none" stroke="#63b8ff" d="M509.22,-221.46C468.92,-211.93 396.96,-194.9 352.84,-184.46"/>
<polygon fill="#63b8ff" stroke="#63b8ff" points="353.61,-181.05 343.07,-182.15 352,-187.86 353.61,-181.05"/>
</a>
</g>
</g>
<!-- Node7 -->
<g id="Node000007" class="node">
<title>Node7</title>
<g id="a_Node000007"><a xlink:href="Enums_8h.html" target="_top" xlink:title="tools for using EnumDecorators.">
<polygon fill="white" stroke="#666666" points="800.47,-184 741.47,-184 741.47,-165 800.47,-165 800.47,-184"/>
<text text-anchor="middle" x="770.97" y="-172" font-family="Helvetica,sans-Serif" font-size="10.00">Enums.h</text>
</a>
</g>
</g>
<!-- Node6&#45;&gt;Node7 -->
<g id="edge6_Node000006_Node000007" class="edge">
<title>Node6&#45;&gt;Node7</title>
<g id="a_edge6_Node000006_Node000007"><a xlink:title=" ">
<path fill="none" stroke="#63b8ff" d="M568.82,-221.68C610.24,-212.22 685.21,-195.09 731.3,-184.56"/>
<polygon fill="#63b8ff" stroke="#63b8ff" points="732.26,-187.93 741.23,-182.29 730.7,-181.11 732.26,-187.93"/>
</a>
</g>
</g>
<!-- Node15 -->
<g id="Node000015" class="node">
<title>Node15</title>
<g id="a_Node000015"><a xlink:href="IConstraint_8h.html" target="_top" xlink:title="Interface for constraints.">
<polygon fill="white" stroke="#666666" points="440.47,-184 361.47,-184 361.47,-165 440.47,-165 440.47,-184"/>
<text text-anchor="middle" x="400.97" y="-172" font-family="Helvetica,sans-Serif" font-size="10.00">IConstraint.h</text>
</a>
</g>
</g>
<!-- Node6&#45;&gt;Node15 -->
<g id="edge15_Node000006_Node000015" class="edge">
<title>Node6&#45;&gt;Node15</title>
<g id="a_edge15_Node000006_Node000015"><a xlink:title=" ">
<path fill="none" stroke="#63b8ff" d="M516.8,-219.98C494.2,-211.3 458.91,-197.75 433.22,-187.88"/>
<polygon fill="#63b8ff" stroke="#63b8ff" points="434.13,-184.49 423.54,-184.17 431.62,-191.02 434.13,-184.49"/>
</a>
</g>
</g>
<!-- Node16 -->
<g id="Node000016" class="node">
<title>Node16</title>
<g id="a_Node000016"><a xlink:title=" ">
<polygon fill="#e0e0e0" stroke="#999999" points="460.47,-129 341.47,-129 341.47,-110 460.47,-110 460.47,-129"/>
<text text-anchor="middle" x="400.97" y="-117" font-family="Helvetica,sans-Serif" font-size="10.00">interface/param.pb.h</text>
</a>
</g>
</g>
<!-- Node6&#45;&gt;Node16 -->
<g id="edge36_Node000006_Node000016" class="edge">
<title>Node6&#45;&gt;Node16</title>
<g id="a_edge36_Node000006_Node000016"><a xlink:title=" ">
<path fill="none" stroke="#63b8ff" d="M527.68,-219.66C504.11,-201.22 449.45,-158.45 420.22,-135.57"/>
<polygon fill="#63b8ff" stroke="#63b8ff" points="422.06,-132.57 412.03,-129.16 417.75,-138.08 422.06,-132.57"/>
</a>
</g>
</g>
<!-- Node18 -->
<g id="Node000018" class="node">
<title>Node18</title>
<g id="a_Node000018"><a xlink:href="IParamDescriptor_8h.html" target="_top" xlink:title="Interface class for ParamDescriptor.">
<polygon fill="white" stroke="#666666" points="606.47,-184 497.47,-184 497.47,-165 606.47,-165 606.47,-184"/>
<text text-anchor="middle" x="551.97" y="-172" font-family="Helvetica,sans-Serif" font-size="10.00">IParamDescriptor.h</text>
</a>
</g>
</g>
<!-- Node6&#45;&gt;Node18 -->
<g id="edge18_Node000006_Node000018" class="edge">
<title>Node6&#45;&gt;Node18</title>
<g id="a_edge18_Node000006_Node000018"><a xlink:title=" ">
<path fill="none" stroke="#63b8ff" d="M541.12,-219.75C542.84,-212.72 545.32,-202.62 547.47,-193.84"/>
<polygon fill="#63b8ff" stroke="#63b8ff" points="550.88,-194.63 549.86,-184.09 544.08,-192.97 550.88,-194.63"/>
</a>
</g>
</g>
<!-- Node25 -->
<g id="Node000025" class="node">
<title>Node25</title>
<g id="a_Node000025"><a xlink:href="Path_8h.html" target="_top" xlink:title="Handles Path objects used to uniquely identify and access OIDs.">
<polygon fill="white" stroke="#666666" points="1077.47,-184 1030.47,-184 1030.47,-165 1077.47,-165 1077.47,-184"/>
<text text-anchor="middle" x="1053.97" y="-172" font-family="Helvetica,sans-Serif" font-size="10.00">Path.h</text>
</a>
</g>
</g>
<!-- Node6&#45;&gt;Node25 -->
<g id="edge29_Node000006_Node000025" class="edge">
<title>Node6&#45;&gt;Node25</title>
<g id="a_edge29_Node000006_Node000025"><a xlink:title=" ">
<path fill="none" stroke="#63b8ff" d="M568.58,-225.17C582.89,-223.58 600.32,-221.66 615.97,-220 766.65,-204.03 946.63,-186.11 1020.16,-178.83"/>
<polygon fill="#63b8ff" stroke="#63b8ff" points="1020.61,-182.31 1030.22,-177.84 1019.93,-175.34 1020.61,-182.31"/>
</a>
</g>
</g>
<!-- Node8 -->
<g id="Node000008" class="node">
<title>Node8</title>
<g id="a_Node000008"><a xlink:href="EnumDecorator_8h.html" target="_top" xlink:title="Provides an enum with useful extra functionality.">
<polygon fill="white" stroke="#666666" points="830.97,-129 686.97,-129 686.97,-110 830.97,-110 830.97,-129"/>
<text text-anchor="middle" x="758.97" y="-117" font-family="Helvetica,sans-Serif" font-size="10.00">patterns/EnumDecorator.h</text>
</a>
</g>
</g>
<!-- Node7&#45;&gt;Node8 -->
<g id="edge7_Node000007_Node000008" class="edge">
<title>Node7&#45;&gt;Node8</title>
<g id="a_edge7_Node000007_Node000008"><a xlink:title=" ">
<path fill="none" stroke="#63b8ff" d="M768.99,-164.75C767.4,-157.72 765.11,-147.62 763.12,-138.84"/>
<polygon fill="#63b8ff" stroke="#63b8ff" points="766.54,-138.07 760.91,-129.09 759.71,-139.62 766.54,-138.07"/>
</a>
</g>
</g>
<!-- Node10 -->
<g id="Node000010" class="node">
<title>Node10</title>
<g id="a_Node000010"><a xlink:title=" ">
<polygon fill="#e0e0e0" stroke="#999999" points="1039.97,-74 989.97,-74 989.97,-55 1039.97,-55 1039.97,-74"/>
<text text-anchor="middle" x="1014.97" y="-62" font-family="Helvetica,sans-Serif" font-size="10.00">cstdint</text>
</a>
</g>
</g>
<!-- Node7&#45;&gt;Node10 -->
<g id="edge14_Node000007_Node000010" class="edge">
<title>Node7&#45;&gt;Node10</title>
<g id="a_edge14_Node000007_Node000010"><a xlink:title=" ">
<path fill="none" stroke="#63b8ff" d="M783.46,-164.95C803.09,-151.79 842.69,-126.37 878.97,-110 912.25,-94.98 952.13,-82.54 980.08,-74.67"/>
<polygon fill="#63b8ff" stroke="#63b8ff" points="981.09,-78.02 989.8,-71.98 979.22,-71.27 981.09,-78.02"/>
</a>
</g>
</g>
<!-- Node14 -->
<g id="Node000014" class="node">
<title>Node14</title>
<g id="a_Node000014"><a xlink:title=" ">
<polygon fill="#e0e0e0" stroke="#999999" points="1006.47,-129 887.47,-129 887.47,-110 1006.47,-110 1006.47,-129"/>
<text text-anchor="middle" x="946.97" y="-117" font-family="Helvetica,sans-Serif" font-size="10.00">interface/device.pb.h</text>
</a>
</g>
</g>
<!-- Node7&#45;&gt;Node14 -->
<g id="edge13_Node000007_Node000014" class="edge">
<title>Node7&#45;&gt;Node14</title>
<g id="a_edge13_Node000007_Node000014"><a xlink:title=" ">
<path fill="none" stroke="#63b8ff" d="M799.25,-164.98C828.92,-156.05 875.76,-141.94 908.72,-132.02"/>
<polygon fill="#63b8ff" stroke="#63b8ff" points="909.9,-135.32 918.47,-129.08 907.89,-128.61 909.9,-135.32"/>
</a>
</g>
</g>
<!-- Node9 -->
<g id="Node000009" class="node">
<title>Node9</title>
<g id="a_Node000009"><a xlink:href="ReflectionMacros_8h.html" target="_top" xlink:title="adapted from https://github.com/tapika/TestCppReflect">
<polygon fill="white" stroke="#666666" points="933.97,-74 823.97,-74 823.97,-55 933.97,-55 933.97,-74"/>
<text text-anchor="middle" x="878.97" y="-62" font-family="Helvetica,sans-Serif" font-size="10.00">ReflectionMacros.h</text>
</a>
</g>
</g>
<!-- Node8&#45;&gt;Node9 -->
<g id="edge8_Node000008_Node000009" class="edge">
<title>Node8&#45;&gt;Node9</title>
<g id="a_edge8_Node000008_Node000009"><a xlink:title=" ">
<path fill="none" stroke="#63b8ff" d="M778.25,-109.98C797.64,-101.42 827.78,-88.11 850.03,-78.28"/>
<polygon fill="#63b8ff" stroke="#63b8ff" points="851.6,-81.41 859.34,-74.17 848.78,-75.01 851.6,-81.41"/>
</a>
</g>
</g>
<!-- Node8&#45;&gt;Node10 -->
<g id="edge9_Node000008_Node000010" class="edge">
<title>Node8&#45;&gt;Node10</title>
<g id="a_edge9_Node000008_Node000010"><a xlink:title=" ">
<path fill="none" stroke="#63b8ff" d="M801.41,-109.96C845.18,-101.11 915.39,-86.81 975.97,-74 977.23,-73.73 978.51,-73.46 979.8,-73.19"/>
<polygon fill="#63b8ff" stroke="#63b8ff" points="980.76,-76.56 989.8,-71.03 979.29,-69.72 980.76,-76.56"/>
</a>
</g>
</g>
<!-- Node11 -->
<g id="Node000011" class="node">
<title>Node11</title>
<g id="a_Node000011"><a xlink:title=" ">
<polygon fill="#e0e0e0" stroke="#999999" points="575.47,-19 482.47,-19 482.47,0 575.47,0 575.47,-19"/>
<text text-anchor="middle" x="528.97" y="-7" font-family="Helvetica,sans-Serif" font-size="10.00">unordered_map</text>
</a>
</g>
</g>
<!-- Node8&#45;&gt;Node11 -->
<g id="edge10_Node000008_Node000011" class="edge">
<title>Node8&#45;&gt;Node11</title>
<g id="a_edge10_Node000008_Node000011"><a xlink:title=" ">
<path fill="none" stroke="#63b8ff" d="M751.75,-109.72C740,-96.01 715.41,-69.58 688.97,-55 656.96,-37.35 617.41,-26.26 585.65,-19.57"/>
<polygon fill="#63b8ff" stroke="#63b8ff" points="586.12,-16.1 575.63,-17.55 584.74,-22.96 586.12,-16.1"/>
</a>
</g>
</g>
<!-- Node8&#45;&gt;Node12 -->
<g id="edge11_Node000008_Node000012" class="edge">
<title>Node8&#45;&gt;Node12</title>
<g id="a_edge11_Node000008_Node000012"><a xlink:title=" ">
<path fill="none" stroke="#63b8ff" d="M822.52,-109.98C868.55,-102.57 925.62,-90.45 942.97,-74 955.09,-62.51 959.58,-43.63 961.19,-29.43"/>
<polygon fill="#63b8ff" stroke="#63b8ff" points="964.69,-29.52 961.95,-19.29 957.71,-29 964.69,-29.52"/>
</a>
</g>
</g>
<!-- Node13 -->
<g id="Node000013" class="node">
<title>Node13</title>
<g id="a_Node000013"><a xlink:title=" ">
<polygon fill="#e0e0e0" stroke="#999999" points="805.47,-74 736.47,-74 736.47,-55 805.47,-55 805.47,-74"/>
<text text-anchor="middle" x="770.97" y="-62" font-family="Helvetica,sans-Serif" font-size="10.00">type_traits</text>
</a>
</g>
</g>
<!-- Node8&#45;&gt;Node13 -->
<g id="edge12_Node000008_Node000013" class="edge">
<title>Node8&#45;&gt;Node13</title>
<g id="a_edge12_Node000008_Node000013"><a xlink:title=" ">
<path fill="none" stroke="#63b8ff" d="M760.95,-109.75C762.54,-102.72 764.83,-92.62 766.82,-83.84"/>
<polygon fill="#63b8ff" stroke="#63b8ff" points="770.23,-84.62 769.02,-74.09 763.4,-83.07 770.23,-84.62"/>
</a>
</g>
</g>
<!-- Node15&#45;&gt;Node16 -->
<g id="edge16_Node000015_Node000016" class="edge">
<title>Node15&#45;&gt;Node16</title>
<g id="a_edge16_Node000015_Node000016"><a xlink:title=" ">
<path fill="none" stroke="#63b8ff" d="M400.97,-164.75C400.97,-157.8 400.97,-147.85 400.97,-139.13"/>
<polygon fill="#63b8ff" stroke="#63b8ff" points="404.47,-139.09 400.97,-129.09 397.47,-139.09 404.47,-139.09"/>
</a>
</g>
</g>
<!-- Node17 -->
<g id="Node000017" class="node">
<title>Node17</title>
<g id="a_Node000017"><a xlink:title=" ">
<polygon fill="#e0e0e0" stroke="#999999" points="322.97,-129 186.97,-129 186.97,-110 322.97,-110 322.97,-129"/>
<text text-anchor="middle" x="254.97" y="-117" font-family="Helvetica,sans-Serif" font-size="10.00">interface/constraint.pb.h</text>
</a>
</g>
</g>
<!-- Node15&#45;&gt;Node17 -->
<g id="edge17_Node000015_Node000017" class="edge">
<title>Node15&#45;&gt;Node17</title>
<g id="a_edge17_Node000015_Node000017"><a xlink:title=" ">
<path fill="none" stroke="#63b8ff" d="M377.51,-164.98C353.39,-156.23 315.6,-142.51 288.37,-132.62"/>
<polygon fill="#63b8ff" stroke="#63b8ff" points="289.45,-129.29 278.85,-129.17 287.06,-135.87 289.45,-129.29"/>
</a>
</g>
</g>
<!-- Node18&#45;&gt;Node16 -->
<g id="edge28_Node000018_Node000016" class="edge">
<title>Node18&#45;&gt;Node16</title>
<g id="a_edge28_Node000018_Node000016"><a xlink:title=" ">
<path fill="none" stroke="#63b8ff" d="M527.71,-164.98C502.65,-156.19 463.34,-142.39 435.14,-132.49"/>
<polygon fill="#63b8ff" stroke="#63b8ff" points="436.27,-129.18 425.67,-129.17 433.95,-135.78 436.27,-129.18"/>
</a>
</g>
</g>
<!-- Node19 -->
<g id="Node000019" class="node">
<title>Node19</title>
<g id="a_Node000019"><a xlink:href="Tags_8h.html" target="_top" xlink:title="Tags to differentiate collections with the same type for template specialization.">
<polygon fill="white" stroke="#666666" points="630.47,-129 583.47,-129 583.47,-110 630.47,-110 630.47,-129"/>
<text text-anchor="middle" x="606.97" y="-117" font-family="Helvetica,sans-Serif" font-size="10.00">Tags.h</text>
</a>
</g>
</g>
<!-- Node18&#45;&gt;Node19 -->
<g id="edge19_Node000018_Node000019" class="edge">
<title>Node18&#45;&gt;Node19</title>
<g id="a_edge19_Node000018_Node000019"><a xlink:title=" ">
<path fill="none" stroke="#63b8ff" d="M561.05,-164.75C569.06,-157.03 580.93,-145.6 590.59,-136.28"/>
<polygon fill="#63b8ff" stroke="#63b8ff" points="593.28,-138.55 598.06,-129.09 588.43,-133.51 593.28,-138.55"/>
</a>
</g>
</g>
<!-- Node21 -->
<g id="Node000021" class="node">
<title>Node21</title>
<g id="a_Node000021"><a xlink:href="PolyglotText_8h.html" target="_top" xlink:title="Polyglot Text serialization and deserialization to protobuf.">
<polygon fill="white" stroke="#666666" points="564.97,-129 478.97,-129 478.97,-110 564.97,-110 564.97,-129"/>
<text text-anchor="middle" x="521.97" y="-117" font-family="Helvetica,sans-Serif" font-size="10.00">PolyglotText.h</text>
</a>
</g>
</g>
<!-- Node18&#45;&gt;Node21 -->
<g id="edge22_Node000018_Node000021" class="edge">
<title>Node18&#45;&gt;Node21</title>
<g id="a_edge22_Node000018_Node000021"><a xlink:title=" ">
<path fill="none" stroke="#63b8ff" d="M547.01,-164.75C542.91,-157.49 536.94,-146.95 531.86,-137.98"/>
<polygon fill="#63b8ff" stroke="#63b8ff" points="534.8,-136.07 526.83,-129.09 528.71,-139.52 534.8,-136.07"/>
</a>
</g>
</g>
<!-- Node19&#45;&gt;Node12 -->
<g id="edge21_Node000019_Node000012" class="edge">
<title>Node19&#45;&gt;Node12</title>
<g id="a_edge21_Node000019_Node000012"><a xlink:title=" ">
<path fill="none" stroke="#63b8ff" d="M603.59,-109.87C598.93,-96.36 592.54,-70.21 605.97,-55 627.24,-30.9 845.73,-16.73 929.51,-12.15"/>
<polygon fill="#63b8ff" stroke="#63b8ff" points="929.93,-15.63 939.73,-11.6 929.55,-8.64 929.93,-15.63"/>
</a>
</g>
</g>
<!-- Node20 -->
<g id="Node000020" class="node">
<title>Node20</title>
<g id="a_Node000020"><a xlink:title=" ">
<polygon fill="#e0e0e0" stroke="#999999" points="679.47,-74 614.47,-74 614.47,-55 679.47,-55 679.47,-74"/>
<text text-anchor="middle" x="646.97" y="-62" font-family="Helvetica,sans-Serif" font-size="10.00">functional</text>
</a>
</g>
</g>
<!-- Node19&#45;&gt;Node20 -->
<g id="edge20_Node000019_Node000020" class="edge">
<title>Node19&#45;&gt;Node20</title>
<g id="a_edge20_Node000019_Node000020"><a xlink:title=" ">
<path fill="none" stroke="#63b8ff" d="M613.57,-109.75C619.22,-102.26 627.51,-91.28 634.42,-82.13"/>
<polygon fill="#63b8ff" stroke="#63b8ff" points="637.26,-84.18 640.49,-74.09 631.67,-79.96 637.26,-84.18"/>
</a>
</g>
</g>
<!-- Node22 -->
<g id="Node000022" class="node">
<title>Node22</title>
<g id="a_Node000022"><a xlink:href="IPolyglotText_8h.html" target="_top" xlink:title="Catena&#39;s multi&#45;language text interface.">
<polygon fill="white" stroke="#666666" points="442.47,-74 353.47,-74 353.47,-55 442.47,-55 442.47,-74"/>
<text text-anchor="middle" x="397.97" y="-62" font-family="Helvetica,sans-Serif" font-size="10.00">IPolyglotText.h</text>
</a>
</g>
</g>
<!-- Node21&#45;&gt;Node22 -->
<g id="edge23_Node000021_Node000022" class="edge">
<title>Node21&#45;&gt;Node22</title>
<g id="a_edge23_Node000021_Node000022"><a xlink:title=" ">
<path fill="none" stroke="#63b8ff" d="M502.05,-109.98C481.92,-101.38 450.59,-87.99 427.56,-78.15"/>
<polygon fill="#63b8ff" stroke="#63b8ff" points="428.82,-74.88 418.25,-74.17 426.07,-81.32 428.82,-74.88"/>
</a>
</g>
</g>
<!-- Node22&#45;&gt;Node11 -->
<g id="edge25_Node000022_Node000011" class="edge">
<title>Node22&#45;&gt;Node11</title>
<g id="a_edge25_Node000022_Node000011"><a xlink:title=" ">
<path fill="none" stroke="#63b8ff" d="M419.02,-54.98C440.37,-46.34 473.67,-32.87 498.03,-23.02"/>
<polygon fill="#63b8ff" stroke="#63b8ff" points="499.58,-26.17 507.54,-19.17 496.96,-19.68 499.58,-26.17"/>
</a>
</g>
</g>
<!-- Node22&#45;&gt;Node12 -->
<g id="edge26_Node000022_Node000012" class="edge">
<title>Node22&#45;&gt;Node12</title>
<g id="a_edge26_Node000022_Node000012"><a xlink:title=" ">
<path fill="none" stroke="#63b8ff" d="M442.76,-56.08C445.53,-55.7 448.29,-55.33 450.97,-55 631.34,-32.71 848.89,-17.68 929.7,-12.5"/>
<polygon fill="#63b8ff" stroke="#63b8ff" points="929.99,-15.99 939.75,-11.86 929.54,-9 929.99,-15.99"/>
</a>
</g>
</g>
<!-- Node23 -->
<g id="Node000023" class="node">
<title>Node23</title>
<g id="a_Node000023"><a xlink:title=" ">
<polygon fill="#e0e0e0" stroke="#999999" points="463.97,-19 331.97,-19 331.97,0 463.97,0 463.97,-19"/>
<text text-anchor="middle" x="397.97" y="-7" font-family="Helvetica,sans-Serif" font-size="10.00">interface/language.pb.h</text>
</a>
</g>
</g>
<!-- Node22&#45;&gt;Node23 -->
<g id="edge24_Node000022_Node000023" class="edge">
<title>Node22&#45;&gt;Node23</title>
<g id="a_edge24_Node000022_Node000023"><a xlink:title=" ">
<path fill="none" stroke="#63b8ff" d="M397.97,-54.75C397.97,-47.8 397.97,-37.85 397.97,-29.13"/>
<polygon fill="#63b8ff" stroke="#63b8ff" points="401.47,-29.09 397.97,-19.09 394.47,-29.09 401.47,-29.09"/>
</a>
</g>
</g>
<!-- Node24 -->
<g id="Node000024" class="node">
<title>Node24</title>
<g id="a_Node000024"><a xlink:title=" ">
<polygon fill="#e0e0e0" stroke="#999999" points="313.47,-19 230.47,-19 230.47,0 313.47,0 313.47,-19"/>
<text text-anchor="middle" x="271.97" y="-7" font-family="Helvetica,sans-Serif" font-size="10.00">initializer_list</text>
</a>
</g>
</g>
<!-- Node22&#45;&gt;Node24 -->
<g id="edge27_Node000022_Node000024" class="edge">
<title>Node22&#45;&gt;Node24</title>
<g id="a_edge27_Node000022_Node000024"><a xlink:title=" ">
<path fill="none" stroke="#63b8ff" d="M377.72,-54.98C357.27,-46.38 325.44,-32.99 302.04,-23.15"/>
<polygon fill="#63b8ff" stroke="#63b8ff" points="303.16,-19.82 292.58,-19.17 300.44,-26.27 303.16,-19.82"/>
</a>
</g>
</g>
<!-- Node25&#45;&gt;Node12 -->
<g id="edge31_Node000025_Node000012" class="edge">
<title>Node25&#45;&gt;Node12</title>
<g id="a_edge31_Node000025_Node000012"><a xlink:title=" ">
<path fill="none" stroke="#63b8ff" d="M1065.41,-164.63C1079.08,-152.88 1099.25,-131.14 1091.97,-110 1076.63,-65.49 1026.71,-36.92 993.39,-22.3"/>
<polygon fill="#63b8ff" stroke="#63b8ff" points="994.63,-19.02 984.05,-18.38 991.92,-25.48 994.63,-19.02"/>
</a>
</g>
</g>
<!-- Node25&#45;&gt;Node26 -->
<g id="edge30_Node000025_Node000026" class="edge">
<title>Node25&#45;&gt;Node26</title>
<g id="a_edge30_Node000025_Node000026"><a xlink:title=" ">
<path fill="none" stroke="#63b8ff" d="M1077.54,-169.16C1126.68,-160.12 1240.6,-139.15 1301.64,-127.92"/>
<polygon fill="#63b8ff" stroke="#63b8ff" points="1302.48,-131.33 1311.68,-126.07 1301.21,-124.44 1302.48,-131.33"/>
</a>
</g>
</g>
<!-- Node27 -->
<g id="Node000027" class="node">
<title>Node27</title>
<g id="a_Node000027"><a xlink:title=" ">
<polygon fill="#e0e0e0" stroke="#999999" points="1255.47,-129 1208.47,-129 1208.47,-110 1255.47,-110 1255.47,-129"/>
<text text-anchor="middle" x="1231.97" y="-117" font-family="Helvetica,sans-Serif" font-size="10.00">vector</text>
</a>
</g>
</g>
<!-- Node25&#45;&gt;Node27 -->
<g id="edge32_Node000025_Node000027" class="edge">
<title>Node25&#45;&gt;Node27</title>
<g id="a_edge32_Node000025_Node000027"><a xlink:title=" ">
<path fill="none" stroke="#63b8ff" d="M1077.61,-166.46C1108.59,-157.24 1163.14,-140.99 1198.4,-130.5"/>
<polygon fill="#63b8ff" stroke="#63b8ff" points="1199.65,-133.78 1208.23,-127.57 1197.65,-127.07 1199.65,-133.78"/>
</a>
</g>
</g>
<!-- Node28 -->
<g id="Node000028" class="node">
<title>Node28</title>
<g id="a_Node000028"><a xlink:title=" ">
<polygon fill="#e0e0e0" stroke="#999999" points="1190.47,-129 1139.47,-129 1139.47,-110 1190.47,-110 1190.47,-129"/>
<text text-anchor="middle" x="1164.97" y="-117" font-family="Helvetica,sans-Serif" font-size="10.00">variant</text>
</a>
</g>
</g>
<!-- Node25&#45;&gt;Node28 -->
<g id="edge33_Node000025_Node000028" class="edge">
<title>Node25&#45;&gt;Node28</title>
<g id="a_edge33_Node000025_Node000028"><a xlink:title=" ">
<path fill="none" stroke="#63b8ff" d="M1071.8,-164.98C1089.58,-156.5 1117.12,-143.35 1137.65,-133.54"/>
<polygon fill="#63b8ff" stroke="#63b8ff" points="1139.29,-136.64 1146.81,-129.17 1136.28,-130.32 1139.29,-136.64"/>
</a>
</g>
</g>
<!-- Node29 -->
<g id="Node000029" class="node">
<title>Node29</title>
<g id="a_Node000029"><a xlink:title=" ">
<polygon fill="#e0e0e0" stroke="#999999" points="1082.97,-129 1024.97,-129 1024.97,-110 1082.97,-110 1082.97,-129"/>
<text text-anchor="middle" x="1053.97" y="-117" font-family="Helvetica,sans-Serif" font-size="10.00">memory</text>
</a>
</g>
</g>
<!-- Node25&#45;&gt;Node29 -->
<g id="edge34_Node000025_Node000029" class="edge">
<title>Node25&#45;&gt;Node29</title>
<g id="a_edge34_Node000025_Node000029"><a xlink:title=" ">
<path fill="none" stroke="#63b8ff" d="M1053.97,-164.75C1053.97,-157.8 1053.97,-147.85 1053.97,-139.13"/>
<polygon fill="#63b8ff" stroke="#63b8ff" points="1057.47,-139.09 1053.97,-129.09 1050.47,-139.09 1057.47,-139.09"/>
</a>
</g>
</g>
<!-- Node30&#45;&gt;Node2 -->
<g id="edge50_Node000030_Node000002" class="edge">
<title>Node30&#45;&gt;Node2</title>
<g id="a_edge50_Node000030_Node000002"><a xlink:title=" ">
<path fill="none" stroke="#63b8ff" d="M979.8,-336.93C920.38,-333.37 787.19,-322.64 678.97,-294 657.19,-288.24 653.32,-282.2 631.97,-275 574.35,-255.57 558.09,-256.88 499.97,-239 446.27,-222.48 384.71,-200.79 347.88,-187.51"/>
<polygon fill="#63b8ff" stroke="#63b8ff" points="348.77,-184.11 338.17,-184 346.39,-190.7 348.77,-184.11"/>
</a>
</g>
</g>
<!-- Node30&#45;&gt;Node5 -->
<g id="edge51_Node000030_Node000005" class="edge">
<title>Node30&#45;&gt;Node5</title>
<g id="a_edge51_Node000030_Node000005"><a xlink:title=" ">
<path fill="none" stroke="#63b8ff" d="M1042.23,-332.63C1090.52,-323.55 1183.77,-306.02 1241.94,-295.09"/>
<polygon fill="#63b8ff" stroke="#63b8ff" points="1242.84,-298.48 1252.02,-293.2 1241.54,-291.6 1242.84,-298.48"/>
</a>
</g>
</g>
<!-- Node30&#45;&gt;Node6 -->
<g id="edge46_Node000030_Node000006" class="edge">
<title>Node30&#45;&gt;Node6</title>
<g id="a_edge46_Node000030_Node000006"><a xlink:title=" ">
<path fill="none" stroke="#63b8ff" d="M979.67,-337.2C883.88,-332.97 599.2,-318.44 565.97,-294 551.67,-283.48 544.87,-263.85 541.69,-249.19"/>
<polygon fill="#63b8ff" stroke="#63b8ff" points="545.11,-248.41 539.89,-239.19 538.22,-249.65 545.11,-248.41"/>
</a>
</g>
</g>
<!-- Node30&#45;&gt;Node12 -->
<g id="edge53_Node000030_Node000012" class="edge">
<title>Node30&#45;&gt;Node12</title>
<g id="a_edge53_Node000030_Node000012"><a xlink:title=" ">
<path fill="none" stroke="#63b8ff" d="M1036.33,-329.99C1114.02,-302.56 1339.07,-212.33 1264.97,-110 1201.58,-22.46 1058.68,-10.57 994.39,-9.86"/>
<polygon fill="#63b8ff" stroke="#63b8ff" points="994.06,-6.36 984.05,-9.83 994.04,-13.36 994.06,-6.36"/>
</a>
</g>
</g>
<!-- Node30&#45;&gt;Node14 -->
<g id="edge52_Node000030_Node000014" class="edge">
<title>Node30&#45;&gt;Node14</title>
<g id="a_edge52_Node000030_Node000014"><a xlink:title=" ">
<path fill="none" stroke="#63b8ff" d="M1008.46,-329.95C999.02,-297.81 965.53,-183.72 952.35,-138.83"/>
<polygon fill="#63b8ff" stroke="#63b8ff" points="955.7,-137.83 949.53,-129.22 948.99,-139.8 955.7,-137.83"/>
</a>
</g>
</g>
<!-- Node30&#45;&gt;Node25 -->
<g id="edge45_Node000030_Node000025" class="edge">
<title>Node30&#45;&gt;Node25</title>
<g id="a_edge45_Node000030_Node000025"><a xlink:title=" ">
<path fill="none" stroke="#63b8ff" d="M1013.28,-329.74C1020.02,-304.2 1039.74,-229.43 1049.03,-194.23"/>
<polygon fill="#63b8ff" stroke="#63b8ff" points="1052.48,-194.87 1051.65,-184.31 1045.71,-193.08 1052.48,-194.87"/>
</a>
</g>
</g>
<!-- Node30&#45;&gt;Node27 -->
<g id="edge54_Node000030_Node000027" class="edge">
<title>Node30&#45;&gt;Node27</title>
<g id="a_edge54_Node000030_Node000027"><a xlink:title=" ">
<path fill="none" stroke="#63b8ff" d="M1019.63,-329.95C1052.84,-297.2 1172.32,-179.34 1215.91,-136.34"/>
<polygon fill="#63b8ff" stroke="#63b8ff" points="1218.46,-138.74 1223.12,-129.22 1213.55,-133.75 1218.46,-138.74"/>
</a>
</g>
</g>
<!-- Node31 -->
<g id="Node000031" class="node">
<title>Node31</title>
<g id="a_Node000031"><a xlink:href="Authorization_8h.html" target="_top" xlink:title="Class for handling authorization information.">
<polygon fill="white" stroke="#666666" points="778.47,-294 687.47,-294 687.47,-275 778.47,-275 778.47,-294"/>
<text text-anchor="middle" x="732.97" y="-282" font-family="Helvetica,sans-Serif" font-size="10.00">Authorization.h</text>
</a>
</g>
</g>
<!-- Node30&#45;&gt;Node31 -->
<g id="edge38_Node000030_Node000031" class="edge">
<title>Node30&#45;&gt;Node31</title>
<g id="a_edge38_Node000030_Node000031"><a xlink:title=" ">
<path fill="none" stroke="#63b8ff" d="M979.89,-332.57C933.37,-323.71 844.99,-306.86 787.56,-295.91"/>
<polygon fill="#63b8ff" stroke="#63b8ff" points="788.04,-292.44 777.56,-294 786.73,-299.31 788.04,-292.44"/>
</a>
</g>
</g>
<!-- Node33 -->
<g id="Node000033" class="node">
<title>Node33</title>
<g id="a_Node000033"><a xlink:href="ILanguagePack_8h.html" target="_top" xlink:title="Interface for language packs.">
<polygon fill="white" stroke="#666666" points="557.97,-74 459.97,-74 459.97,-55 557.97,-55 557.97,-74"/>
<text text-anchor="middle" x="508.97" y="-62" font-family="Helvetica,sans-Serif" font-size="10.00">ILanguagePack.h</text>
</a>
</g>
</g>
<!-- Node30&#45;&gt;Node33 -->
<g id="edge47_Node000030_Node000033" class="edge">
<title>Node30&#45;&gt;Node33</title>
<g id="a_edge47_Node000030_Node000033"><a xlink:title=" ">
<path fill="none" stroke="#63b8ff" d="M979.91,-338.52C810.04,-338.22 0.97,-331.51 0.97,-230.5 0.97,-230.5 0.97,-230.5 0.97,-173.5 0.97,-144.04 -2.91,-128.56 19.97,-110 55.46,-81.2 370.18,-79.58 449.64,-73.83"/>
<polygon fill="#63b8ff" stroke="#63b8ff" points="450.3,-77.28 459.95,-72.9 449.68,-70.31 450.3,-77.28"/>
</a>
</g>
</g>
<!-- Node34 -->
<g id="Node000034" class="node">
<title>Node34</title>
<g id="a_Node000034"><a xlink:title=" ">
<polygon fill="#e0e0e0" stroke="#999999" points="1233.97,-294 1171.97,-294 1171.97,-275 1233.97,-275 1233.97,-294"/>
<text text-anchor="middle" x="1202.97" y="-282" font-family="Helvetica,sans-Serif" font-size="10.00">coroutine</text>
</a>
</g>
</g>
<!-- Node30&#45;&gt;Node34 -->
<g id="edge55_Node000030_Node000034" class="edge">
<title>Node30&#45;&gt;Node34</title>
<g id="a_edge55_Node000030_Node000034"><a xlink:title=" ">
<path fill="none" stroke="#63b8ff" d="M1041.82,-329.98C1074.47,-320.97 1126.16,-306.7 1162.17,-296.76"/>
<polygon fill="#63b8ff" stroke="#63b8ff" points="1163.17,-300.12 1171.88,-294.08 1161.31,-293.37 1163.17,-300.12"/>
</a>
</g>
</g>
<!-- Node35 -->
<g id="Node000035" class="node">
<title>Node35</title>
<g id="a_Node000035"><a xlink:title=" ">
<polygon fill="#e0e0e0" stroke="#999999" points="622.97,-294 574.97,-294 574.97,-275 622.97,-275 622.97,-294"/>
<text text-anchor="middle" x="598.97" y="-282" font-family="Helvetica,sans-Serif" font-size="10.00">mutex</text>
</a>
</g>
</g>
<!-- Node30&#45;&gt;Node35 -->
<g id="edge56_Node000030_Node000035" class="edge">
<title>Node30&#45;&gt;Node35</title>
<g id="a_edge56_Node000030_Node000035"><a xlink:title=" ">
<path fill="none" stroke="#63b8ff" d="M979.78,-335.87C915.42,-330.2 763.3,-315.59 636.97,-294 635.69,-293.78 634.4,-293.55 633.09,-293.31"/>
<polygon fill="#63b8ff" stroke="#63b8ff" points="633.51,-289.82 623.02,-291.27 632.13,-296.68 633.51,-289.82"/>
</a>
</g>
</g>
<!-- Node31&#45;&gt;Node6 -->
<g id="edge41_Node000031_Node000006" class="edge">
<title>Node31&#45;&gt;Node6</title>
<g id="a_edge41_Node000031_Node000006"><a xlink:title=" ">
<path fill="none" stroke="#63b8ff" d="M701.8,-274.98C668.22,-265.81 614.71,-251.19 578.27,-241.24"/>
<polygon fill="#63b8ff" stroke="#63b8ff" points="579.04,-237.82 568.47,-238.56 577.2,-244.57 579.04,-237.82"/>
</a>
</g>
</g>
<!-- Node31&#45;&gt;Node7 -->
<g id="edge40_Node000031_Node000007" class="edge">
<title>Node31&#45;&gt;Node7</title>
<g id="a_edge40_Node000031_Node000007"><a xlink:title=" ">
<path fill="none" stroke="#63b8ff" d="M736.08,-274.66C742.29,-257.01 756.34,-217.09 764.59,-193.64"/>
<polygon fill="#63b8ff" stroke="#63b8ff" points="767.9,-194.75 767.92,-184.16 761.3,-192.43 767.9,-194.75"/>
</a>
</g>
</g>
<!-- Node31&#45;&gt;Node18 -->
<g id="edge42_Node000031_Node000018" class="edge">
<title>Node31&#45;&gt;Node18</title>
<g id="a_edge42_Node000031_Node000018"><a xlink:title=" ">
<path fill="none" stroke="#63b8ff" d="M699.97,-274.98C675.54,-267.75 642.09,-255.83 615.97,-239 595.92,-226.08 577.06,-206.04 565.08,-191.94"/>
<polygon fill="#63b8ff" stroke="#63b8ff" points="567.63,-189.52 558.56,-184.04 562.23,-193.98 567.63,-189.52"/>
</a>
</g>
</g>
<!-- Node31&#45;&gt;Node20 -->
<g id="edge44_Node000031_Node000020" class="edge">
<title>Node31&#45;&gt;Node20</title>
<g id="a_edge44_Node000031_Node000020"><a xlink:title=" ">
<path fill="none" stroke="#63b8ff" d="M730.71,-274.77C727.43,-262.42 720.99,-239.24 713.97,-220 695.49,-169.37 668.88,-111.53 655.43,-83.13"/>
<polygon fill="#63b8ff" stroke="#63b8ff" points="658.57,-81.59 651.11,-74.07 652.25,-84.6 658.57,-81.59"/>
</a>
</g>
</g>
<!-- Node31&#45;&gt;Node25 -->
<g id="edge39_Node000031_Node000025" class="edge">
<title>Node31&#45;&gt;Node25</title>
<g id="a_edge39_Node000031_Node000025"><a xlink:title=" ">
<path fill="none" stroke="#63b8ff" d="M758.43,-274.94C816,-255.57 956.19,-208.4 1020.6,-186.73"/>
<polygon fill="#63b8ff" stroke="#63b8ff" points="1021.9,-189.98 1030.26,-183.48 1019.67,-183.35 1021.9,-189.98"/>
</a>
</g>
</g>
<!-- Node32 -->
<g id="Node000032" class="node">
<title>Node32</title>
<g id="a_Node000032"><a xlink:title=" ">
<polygon fill="#e0e0e0" stroke="#999999" points="704.97,-239 624.97,-239 624.97,-220 704.97,-220 704.97,-239"/>
<text text-anchor="middle" x="664.97" y="-227" font-family="Helvetica,sans-Serif" font-size="10.00">jwt&#45;cpp/jwt.h</text>
</a>
</g>
</g>
<!-- Node31&#45;&gt;Node32 -->
<g id="edge43_Node000031_Node000032" class="edge">
<title>Node31&#45;&gt;Node32</title>
<g id="a_edge43_Node000031_Node000032"><a xlink:title=" ">
<path fill="none" stroke="#63b8ff" d="M722.04,-274.98C711.89,-267.07 696.55,-255.11 684.32,-245.58"/>
<polygon fill="#63b8ff" stroke="#63b8ff" points="686.13,-242.56 676.09,-239.17 681.83,-248.08 686.13,-242.56"/>
</a>
</g>
</g>
<!-- Node33&#45;&gt;Node11 -->
<g id="edge49_Node000033_Node000011" class="edge">
<title>Node33&#45;&gt;Node11</title>
<g id="a_edge49_Node000033_Node000011"><a xlink:title=" ">
<path fill="none" stroke="#63b8ff" d="M512.27,-54.75C514.95,-47.65 518.82,-37.4 522.16,-28.56"/>
<polygon fill="#63b8ff" stroke="#63b8ff" points="525.47,-29.68 525.73,-19.09 518.92,-27.21 525.47,-29.68"/>
</a>
</g>
</g>
<!-- Node33&#45;&gt;Node12 -->
<g id="edge48_Node000033_Node000012" class="edge">
<title>Node33&#45;&gt;Node12</title>
<g id="a_edge48_Node000033_Node000012"><a xlink:title=" ">
<path fill="none" stroke="#63b8ff" d="M558.14,-56.77C562.81,-56.16 567.48,-55.56 571.97,-55 704.57,-38.49 862.85,-21.16 929.67,-13.96"/>
<polygon fill="#63b8ff" stroke="#63b8ff" points="930.39,-17.4 939.96,-12.85 929.64,-10.44 930.39,-17.4"/>
</a>
</g>
</g>
</g>
</svg>

<g id="navigator" transform="translate(0 0)" fill="#404254">
  <rect fill="#f2f5e9" fill-opacity="0.5" stroke="#606060" stroke-width=".5" x="0" y="0" width="60" height="60"/>
  <use id="zoomplus" xlink:href="#zoomPlus" x="17" y="9" onmousedown="handleZoom(evt,'in')"/>
  <use id="zoomminus" xlink:href="#zoomMin" x="42" y="9" onmousedown="handleZoom(evt,'out')"/>
  <use id="reset" xlink:href="#resetDef" x="30" y="36" onmousedown="handleReset()"/>
   <use id="arrowup" xlink:href="#arrowUp" x="0" y="0" onmousedown="handlePan(0,-1)"/>
  <use id="arrowright" xlink:href="#arrowRight" x="0" y="0" onmousedown="handlePan(1,0)"/>
  <use id="arrowdown" xlink:href="#arrowDown" x="0" y="0" onmousedown="handlePan(0,1)"/>
  <use id="arrowleft" xlink:href="#arrowLeft" x="0" y="0" onmousedown="handlePan(-1,0)"/>
</g>
<svg viewBox="0 0 15 15" width="100%" height="30px" preserveAspectRatio="xMaxYMin meet">
 <g id="arrow_out" transform="scale(0.3 0.3)">
  <a xlink:href="REST_2include_2interface_2IServiceImpl_8h__incl_org.svg" target="_base">
   <rect id="button" ry="5" rx="5" y="6" x="6" height="38" width="38"
        fill="#f2f5e9" fill-opacity="0.5" stroke="#606060" stroke-width="1.0"/>
   <path id="arrow"
     d="M 11.500037,31.436501 C 11.940474,20.09759 22.043105,11.32322 32.158766,21.979434 L 37.068811,17.246167 C 37.068811,17.246167 37.088388,32 37.088388,32 L 22.160133,31.978069 C 22.160133,31.978069 26.997745,27.140456 26.997745,27.140456 C 18.528582,18.264221 13.291696,25.230495 11.500037,31.436501 z"
     style="fill:#404040;"/>
  </a>
 </g>
</svg>

<style type='text/css'>
<![CDATA[
[data-mouse-over-selected='false'] { opacity: 0.7; }
[data-mouse-over-selected='true']  { opacity: 1.0; }
]]>
</style>
<script type="application/ecmascript"><![CDATA[
document.addEventListener('DOMContentLoaded', (event) => {
  highlightEdges();
  highlightAdjacentNodes();
});
]]></script>
</svg>
