<?xml version="1.0" encoding="UTF-8" standalone="no"?>
<!DOCTYPE svg PUBLIC "-//W3C//DTD SVG 1.1//EN"
 "http://www.w3.org/Graphics/SVG/1.1/DTD/svg11.dtd">
<!-- Generated by graphviz version 2.43.0 (0)
 -->
<!-- Title: /home/runner/work/Catena/Catena/sdks/cpp/connections/REST/include/SocketWriter.h Pages: 1 -->
<svg width="605pt" height="170pt"
 viewBox="0.00 0.00 604.50 170.00" xmlns="http://www.w3.org/2000/svg" xmlns:xlink="http://www.w3.org/1999/xlink">
<g id="graph0" class="graph" transform="scale(1 1) rotate(0) translate(4 166)">
<title>/home/runner/work/Catena/Catena/sdks/cpp/connections/REST/include/SocketWriter.h</title>
<!-- Node1 -->
<g id="Node000001" class="node">
<title>Node1</title>
<g id="a_Node000001"><a xlink:title="Helper class used to write to a socket using boost.">
<polygon fill="#999999" stroke="#666666" points="368.5,-162 207.5,-162 207.5,-121 368.5,-121 368.5,-162"/>
<text text-anchor="start" x="215.5" y="-150" font-family="Helvetica,sans-Serif" font-size="10.00">/home/runner/work/Catena</text>
<text text-anchor="start" x="215.5" y="-139" font-family="Helvetica,sans-Serif" font-size="10.00">/Catena/sdks/cpp/connections</text>
<text text-anchor="middle" x="288" y="-128" font-family="Helvetica,sans-Serif" font-size="10.00">/REST/include/SocketWriter.h</text>
</a>
</g>
</g>
<!-- Node2 -->
<g id="Node000002" class="node">
<title>Node2</title>
<g id="a_Node000002"><a xlink:title=" ">
<polygon fill="#e0e0e0" stroke="#999999" points="88,-79.5 0,-79.5 0,-60.5 88,-60.5 88,-79.5"/>
<text text-anchor="middle" x="44" y="-67.5" font-family="Helvetica,sans-Serif" font-size="10.00">boost/asio.hpp</text>
</a>
</g>
</g>
<!-- Node1&#45;&gt;Node2 -->
<g id="edge1_Node000001_Node000002" class="edge">
<title>Node1&#45;&gt;Node2</title>
<g id="a_edge1_Node000001_Node000002"><a xlink:title=" ">
<path fill="none" stroke="#63b8ff" d="M219.38,-120.96C175.58,-108.48 120.33,-92.74 83.68,-82.3"/>
<polygon fill="#63b8ff" stroke="#63b8ff" points="84.43,-78.88 73.85,-79.5 82.51,-85.61 84.43,-78.88"/>
</a>
</g>
</g>
<!-- Node3 -->
<g id="Node000003" class="node">
<title>Node3</title>
<g id="a_Node000003"><a xlink:title=" ">
<polygon fill="#e0e0e0" stroke="#999999" points="210,-79.5 106,-79.5 106,-60.5 210,-60.5 210,-79.5"/>
<text text-anchor="middle" x="158" y="-67.5" font-family="Helvetica,sans-Serif" font-size="10.00">boost/asio/ssl.hpp</text>
</a>
</g>
</g>
<!-- Node1&#45;&gt;Node3 -->
<g id="edge2_Node000001_Node000003" class="edge">
<title>Node1&#45;&gt;Node3</title>
<g id="a_edge2_Node000001_Node000003"><a xlink:title=" ">
<path fill="none" stroke="#63b8ff" d="M251.44,-120.96C229.5,-109.22 202.17,-94.61 182.75,-84.23"/>
<polygon fill="#63b8ff" stroke="#63b8ff" points="184.37,-81.13 173.91,-79.5 181.07,-87.3 184.37,-81.13"/>
</a>
</g>
</g>
<!-- Node4 -->
<g id="Node000004" class="node">
<title>Node4</title>
<g id="a_Node000004"><a xlink:title=" ">
<polygon fill="#e0e0e0" stroke="#999999" points="347.5,-79.5 228.5,-79.5 228.5,-60.5 347.5,-60.5 347.5,-79.5"/>
<text text-anchor="middle" x="288" y="-67.5" font-family="Helvetica,sans-Serif" font-size="10.00">interface/device.pb.h</text>
</a>
</g>
</g>
<!-- Node1&#45;&gt;Node4 -->
<g id="edge3_Node000001_Node000004" class="edge">
<title>Node1&#45;&gt;Node4</title>
<g id="a_edge3_Node000001_Node000004"><a xlink:title=" ">
<path fill="none" stroke="#63b8ff" d="M288,-120.77C288,-111.08 288,-99.46 288,-89.88"/>
<polygon fill="#63b8ff" stroke="#63b8ff" points="291.5,-89.82 288,-79.82 284.5,-89.82 291.5,-89.82"/>
</a>
</g>
</g>
<!-- Node5 -->
<g id="Node000005" class="node">
<title>Node5</title>
<g id="a_Node000005"><a xlink:title=" ">
<polygon fill="#e0e0e0" stroke="#999999" points="478.5,-85 365.5,-85 365.5,-55 478.5,-55 478.5,-85"/>
<text text-anchor="start" x="373.5" y="-73" font-family="Helvetica,sans-Serif" font-size="10.00">google/protobuf/util</text>
<text text-anchor="middle" x="422" y="-62" font-family="Helvetica,sans-Serif" font-size="10.00">/json_util.h</text>
</a>
</g>
</g>
<!-- Node1&#45;&gt;Node5 -->
<g id="edge4_Node000001_Node000005" class="edge">
<title>Node1&#45;&gt;Node5</title>
<g id="a_edge4_Node000001_Node000005"><a xlink:title=" ">
<path fill="none" stroke="#63b8ff" d="M325.68,-120.96C344.49,-111.2 367.14,-99.46 385.74,-89.81"/>
<polygon fill="#63b8ff" stroke="#63b8ff" points="387.52,-92.82 394.79,-85.11 384.3,-86.61 387.52,-92.82"/>
</a>
</g>
</g>
<!-- Node6 -->
<g id="Node000006" class="node">
<title>Node6</title>
<g id="a_Node000006"><a xlink:href="Status_8h.html" target="_top" xlink:title="Communicates failure status using gRPC&#39;s codes.">
<polygon fill="white" stroke="#666666" points="553,-79.5 497,-79.5 497,-60.5 553,-60.5 553,-79.5"/>
<text text-anchor="middle" x="525" y="-67.5" font-family="Helvetica,sans-Serif" font-size="10.00">Status.h</text>
</a>
</g>
</g>
<!-- Node1&#45;&gt;Node6 -->
<g id="edge5_Node000001_Node000006" class="edge">
<title>Node1&#45;&gt;Node6</title>
<g id="a_edge5_Node000001_Node000006"><a xlink:title=" ">
<path fill="none" stroke="#63b8ff" d="M364.94,-120.9C402.32,-110.94 447.76,-98.17 488,-85 489.86,-84.39 491.77,-83.74 493.68,-83.08"/>
<polygon fill="#63b8ff" stroke="#63b8ff" points="495,-86.32 503.2,-79.62 492.61,-79.74 495,-86.32"/>
</a>
</g>
</g>
<!-- Node7 -->
<g id="Node000007" class="node">
<title>Node7</title>
<g id="a_Node000007"><a xlink:title=" ">
<polygon fill="#e0e0e0" stroke="#999999" points="513,-19 457,-19 457,0 513,0 513,-19"/>
<text text-anchor="middle" x="485" y="-7" font-family="Helvetica,sans-Serif" font-size="10.00">sstream</text>
</a>
</g>
</g>
<!-- Node6&#45;&gt;Node7 -->
<g id="edge6_Node000006_Node000007" class="edge">
<title>Node6&#45;&gt;Node7</title>
<g id="a_edge6_Node000006_Node000007"><a xlink:title=" ">
<path fill="none" stroke="#63b8ff" d="M519.1,-60.37C513.25,-51.81 504.13,-38.47 496.79,-27.74"/>
<polygon fill="#63b8ff" stroke="#63b8ff" points="499.46,-25.45 490.93,-19.17 493.68,-29.4 499.46,-25.45"/>
</a>
</g>
</g>
<!-- Node8 -->
<g id="Node000008" class="node">
<title>Node8</title>
<g id="a_Node000008"><a xlink:title=" ">
<polygon fill="#e0e0e0" stroke="#999999" points="596.5,-19 531.5,-19 531.5,0 596.5,0 596.5,-19"/>
<text text-anchor="middle" x="564" y="-7" font-family="Helvetica,sans-Serif" font-size="10.00">stdexcept</text>
</a>
</g>
</g>
<!-- Node6&#45;&gt;Node8 -->
<g id="edge7_Node000006_Node000008" class="edge">
<title>Node6&#45;&gt;Node8</title>
<g id="a_edge7_Node000006_Node000008"><a xlink:title=" ">
<path fill="none" stroke="#63b8ff" d="M530.75,-60.37C536.46,-51.81 545.35,-38.47 552.51,-27.74"/>
<polygon fill="#63b8ff" stroke="#63b8ff" points="555.59,-29.43 558.22,-19.17 549.76,-25.55 555.59,-29.43"/>
</a>
</g>
</g>
</g>
</svg>
