<?xml version="1.0" encoding="UTF-8" standalone="no"?>
<!DOCTYPE svg PUBLIC "-//W3C//DTD SVG 1.1//EN"
 "http://www.w3.org/Graphics/SVG/1.1/DTD/svg11.dtd">
<!-- Generated by graphviz version 2.43.0 (0)
 -->
<!-- Title: /home/runner/work/Catena/Catena/sdks/cpp/connections/REST/include/SocketWriter.h Pages: 1 -->
<!--zoomable 225 -->

<svg id="main" version="1.1" xmlns="http://www.w3.org/2000/svg" xmlns:xlink="http://www.w3.org/1999/xlink" xml:space="preserve" onload="init(evt)">
<style type="text/css"><![CDATA[
.node, .edge {opacity: 0.7;}
.node.selected, .edge.selected {opacity: 1;}
.edge:hover path { stroke: red; }
.edge:hover polygon { stroke: red; fill: red; }
]]></style>

<defs>
  <circle id="rim" cx="0" cy="0" r="7"/>
  <circle id="rim2" cx="0" cy="0" r="3.5"/>
  <g id="zoomPlus">
    <use xlink:href="#rim" fill="#404040"><set attributeName="fill" to="#808080" begin="zoomplus.mouseover" end="zoomplus.mouseout"/></use>
    <path d="M-4,0h8M0,-4v8" fill="none" stroke="white" stroke-width="1.5" pointer-events="none"/>
  </g>
  <g id="zoomMin">
    <use xlink:href="#rim" fill="#404040"><set attributeName="fill" to="#808080" begin="zoomminus.mouseover" end="zoomminus.mouseout"/></use>
    <path d="M-4,0h8" fill="none" stroke="white" stroke-width="1.5" pointer-events="none"/>
  </g>
  <g id="arrowUp" transform="translate(30 24)">
    <use xlink:href="#rim"/>
    <path pointer-events="none" fill="none" stroke="white" stroke-width="1.5" d="M0,-3.0v7 M-2.5,-0.5L0,-3.0L2.5,-0.5"/>
  </g>
  <g id="arrowRight" transform="rotate(90) translate(36 -43)">
    <use xlink:href="#rim"/>
    <path pointer-events="none" fill="none" stroke="white" stroke-width="1.5" d="M0,-3.0v7 M-2.5,-0.5L0,-3.0L2.5,-0.5"/>
  </g>
  <g id="arrowDown" transform="rotate(180) translate(-30 -48)">
    <use xlink:href="#rim"/>
    <path pointer-events="none" fill="none" stroke="white" stroke-width="1.5" d="M0,-3.0v7 M-2.5,-0.5L0,-3.0L2.5,-0.5"/>
  </g>
  <g id="arrowLeft" transform="rotate(270) translate(-36 17)">
    <use xlink:href="#rim"/>
    <path pointer-events="none" fill="none" stroke="white" stroke-width="1.5" d="M0,-3.0v7 M-2.5,-0.5L0,-3.0L2.5,-0.5"/>
  </g>
  <g id="resetDef">
    <use xlink:href="#rim2" fill="#404040"><set attributeName="fill" to="#808080" begin="reset.mouseover" end="reset.mouseout"/></use>
  </g>
</defs>
<script type="application/ecmascript">
var viewWidth = 605;
var viewHeight = 225;
var sectionId = 'dynsection-0';
</script>
<script type="application/ecmascript" xlink:href="svg.min.js"/>
<svg id="graph" class="graph">
<g id="viewport">
<title>/home/runner/work/Catena/Catena/sdks/cpp/connections/REST/include/SocketWriter.h</title>
<!-- Node1 -->
<g id="Node000001" class="node">
<title>Node1</title>
<g id="a_Node000001"><a xlink:title="Helper class used to write to a socket using boost.">
<polygon fill="#999999" stroke="#666666" points="368.5,-217 207.5,-217 207.5,-176 368.5,-176 368.5,-217"/>
<text text-anchor="start" x="215.5" y="-205" font-family="Helvetica,sans-Serif" font-size="10.00">/home/runner/work/Catena</text>
<text text-anchor="start" x="215.5" y="-194" font-family="Helvetica,sans-Serif" font-size="10.00">/Catena/sdks/cpp/connections</text>
<text text-anchor="middle" x="288" y="-183" font-family="Helvetica,sans-Serif" font-size="10.00">/REST/include/SocketWriter.h</text>
</a>
</g>
</g>
<!-- Node2 -->
<g id="Node000002" class="node">
<title>Node2</title>
<g id="a_Node000002"><a xlink:href="ISocketWriter_8h.html" target="_top" xlink:title="Interface for the SocketWriter class.">
<polygon fill="white" stroke="#666666" points="356.5,-140 219.5,-140 219.5,-121 356.5,-121 356.5,-140"/>
<text text-anchor="middle" x="288" y="-128" font-family="Helvetica,sans-Serif" font-size="10.00">interface/ISocketWriter.h</text>
</a>
</g>
</g>
<!-- Node1&#45;&gt;Node2 -->
<g id="edge1_Node000001_Node000002" class="edge">
<title>Node1&#45;&gt;Node2</title>
<g id="a_edge1_Node000001_Node000002"><a xlink:title=" ">
<path fill="none" stroke="#63b8ff" d="M288,-175.95C288,-167.85 288,-158.5 288,-150.47"/>
<polygon fill="#63b8ff" stroke="#63b8ff" points="291.5,-150.26 288,-140.26 284.5,-150.26 291.5,-150.26"/>
</a>
</g>
</g>
<!-- Node3 -->
<g id="Node000003" class="node">
<title>Node3</title>
<g id="a_Node000003"><a xlink:title=" ">
<polygon fill="#e0e0e0" stroke="#999999" points="88,-79.5 0,-79.5 0,-60.5 88,-60.5 88,-79.5"/>
<text text-anchor="middle" x="44" y="-67.5" font-family="Helvetica,sans-Serif" font-size="10.00">boost/asio.hpp</text>
</a>
</g>
</g>
<!-- Node2&#45;&gt;Node3 -->
<g id="edge2_Node000002_Node000003" class="edge">
<title>Node2&#45;&gt;Node3</title>
<g id="a_edge2_Node000002_Node000003"><a xlink:title=" ">
<path fill="none" stroke="#63b8ff" d="M249.87,-120.96C211.26,-112.24 149.87,-98.14 97,-85 93.21,-84.06 89.28,-83.06 85.34,-82.05"/>
<polygon fill="#63b8ff" stroke="#63b8ff" points="86.19,-78.65 75.63,-79.52 84.43,-85.42 86.19,-78.65"/>
</a>
</g>
</g>
<!-- Node4 -->
<g id="Node000004" class="node">
<title>Node4</title>
<g id="a_Node000004"><a xlink:title=" ">
<polygon fill="#e0e0e0" stroke="#999999" points="210,-79.5 106,-79.5 106,-60.5 210,-60.5 210,-79.5"/>
<text text-anchor="middle" x="158" y="-67.5" font-family="Helvetica,sans-Serif" font-size="10.00">boost/asio/ssl.hpp</text>
</a>
</g>
</g>
<!-- Node2&#45;&gt;Node4 -->
<g id="edge3_Node000002_Node000004" class="edge">
<title>Node2&#45;&gt;Node4</title>
<g id="a_edge3_Node000002_Node000004"><a xlink:title=" ">
<path fill="none" stroke="#63b8ff" d="M269.1,-120.99C247.34,-111.2 211.38,-95.02 186.29,-83.73"/>
<polygon fill="#63b8ff" stroke="#63b8ff" points="187.48,-80.43 176.93,-79.52 184.61,-86.81 187.48,-80.43"/>
</a>
</g>
</g>
<!-- Node5 -->
<g id="Node000005" class="node">
<title>Node5</title>
<g id="a_Node000005"><a xlink:title=" ">
<polygon fill="#e0e0e0" stroke="#999999" points="347.5,-79.5 228.5,-79.5 228.5,-60.5 347.5,-60.5 347.5,-79.5"/>
<text text-anchor="middle" x="288" y="-67.5" font-family="Helvetica,sans-Serif" font-size="10.00">interface/device.pb.h</text>
</a>
</g>
</g>
<!-- Node2&#45;&gt;Node5 -->
<g id="edge4_Node000002_Node000005" class="edge">
<title>Node2&#45;&gt;Node5</title>
<g id="a_edge4_Node000002_Node000005"><a xlink:title=" ">
<path fill="none" stroke="#63b8ff" d="M288,-120.87C288,-112.75 288,-100.31 288,-89.89"/>
<polygon fill="#63b8ff" stroke="#63b8ff" points="291.5,-89.67 288,-79.67 284.5,-89.67 291.5,-89.67"/>
</a>
</g>
</g>
<!-- Node6 -->
<g id="Node000006" class="node">
<title>Node6</title>
<g id="a_Node000006"><a xlink:title=" ">
<polygon fill="#e0e0e0" stroke="#999999" points="478.5,-85 365.5,-85 365.5,-55 478.5,-55 478.5,-85"/>
<text text-anchor="start" x="373.5" y="-73" font-family="Helvetica,sans-Serif" font-size="10.00">google/protobuf/util</text>
<text text-anchor="middle" x="422" y="-62" font-family="Helvetica,sans-Serif" font-size="10.00">/json_util.h</text>
</a>
</g>
</g>
<!-- Node2&#45;&gt;Node6 -->
<g id="edge5_Node000002_Node000006" class="edge">
<title>Node2&#45;&gt;Node6</title>
<g id="a_edge5_Node000002_Node000006"><a xlink:title=" ">
<path fill="none" stroke="#63b8ff" d="M307.48,-120.99C326.52,-112.68 356.09,-99.78 380.41,-89.16"/>
<polygon fill="#63b8ff" stroke="#63b8ff" points="382.02,-92.27 389.78,-85.06 379.22,-85.86 382.02,-92.27"/>
</a>
</g>
</g>
<!-- Node7 -->
<g id="Node000007" class="node">
<title>Node7</title>
<g id="a_Node000007"><a xlink:href="Status_8h.html" target="_top" xlink:title="Communicates failure status using gRPC&#39;s codes.">
<polygon fill="white" stroke="#666666" points="553,-79.5 497,-79.5 497,-60.5 553,-60.5 553,-79.5"/>
<text text-anchor="middle" x="525" y="-67.5" font-family="Helvetica,sans-Serif" font-size="10.00">Status.h</text>
</a>
</g>
</g>
<!-- Node2&#45;&gt;Node7 -->
<g id="edge6_Node000002_Node000007" class="edge">
<title>Node2&#45;&gt;Node7</title>
<g id="a_edge6_Node000002_Node000007"><a xlink:title=" ">
<path fill="none" stroke="#63b8ff" d="M335.36,-120.94C376.2,-113.1 436.54,-100.38 488,-85 490.14,-84.36 492.33,-83.66 494.53,-82.92"/>
<polygon fill="#63b8ff" stroke="#63b8ff" points="495.8,-86.18 504.05,-79.52 493.45,-79.59 495.8,-86.18"/>
</a>
</g>
</g>
<!-- Node8 -->
<g id="Node000008" class="node">
<title>Node8</title>
<g id="a_Node000008"><a xlink:title=" ">
<polygon fill="#e0e0e0" stroke="#999999" points="513,-19 457,-19 457,0 513,0 513,-19"/>
<text text-anchor="middle" x="485" y="-7" font-family="Helvetica,sans-Serif" font-size="10.00">sstream</text>
</a>
</g>
</g>
<!-- Node7&#45;&gt;Node8 -->
<g id="edge7_Node000007_Node000008" class="edge">
<title>Node7&#45;&gt;Node8</title>
<g id="a_edge7_Node000007_Node000008"><a xlink:title=" ">
<path fill="none" stroke="#63b8ff" d="M519.1,-60.37C513.25,-51.81 504.13,-38.47 496.79,-27.74"/>
<polygon fill="#63b8ff" stroke="#63b8ff" points="499.46,-25.45 490.93,-19.17 493.68,-29.4 499.46,-25.45"/>
</a>
</g>
</g>
<!-- Node9 -->
<g id="Node000009" class="node">
<title>Node9</title>
<g id="a_Node000009"><a xlink:title=" ">
<polygon fill="#e0e0e0" stroke="#999999" points="596.5,-19 531.5,-19 531.5,0 596.5,0 596.5,-19"/>
<text text-anchor="middle" x="564" y="-7" font-family="Helvetica,sans-Serif" font-size="10.00">stdexcept</text>
</a>
</g>
</g>
<!-- Node7&#45;&gt;Node9 -->
<g id="edge8_Node000007_Node000009" class="edge">
<title>Node7&#45;&gt;Node9</title>
<g id="a_edge8_Node000007_Node000009"><a xlink:title=" ">
<path fill="none" stroke="#63b8ff" d="M530.75,-60.37C536.46,-51.81 545.35,-38.47 552.51,-27.74"/>
<polygon fill="#63b8ff" stroke="#63b8ff" points="555.59,-29.43 558.22,-19.17 549.76,-25.55 555.59,-29.43"/>
</a>
</g>
</g>
</g>
</svg>

<g id="navigator" transform="translate(0 0)" fill="#404254">
  <rect fill="#f2f5e9" fill-opacity="0.5" stroke="#606060" stroke-width=".5" x="0" y="0" width="60" height="60"/>
  <use id="zoomplus" xlink:href="#zoomPlus" x="17" y="9" onmousedown="handleZoom(evt,'in')"/>
  <use id="zoomminus" xlink:href="#zoomMin" x="42" y="9" onmousedown="handleZoom(evt,'out')"/>
  <use id="reset" xlink:href="#resetDef" x="30" y="36" onmousedown="handleReset()"/>
   <use id="arrowup" xlink:href="#arrowUp" x="0" y="0" onmousedown="handlePan(0,-1)"/>
  <use id="arrowright" xlink:href="#arrowRight" x="0" y="0" onmousedown="handlePan(1,0)"/>
  <use id="arrowdown" xlink:href="#arrowDown" x="0" y="0" onmousedown="handlePan(0,1)"/>
  <use id="arrowleft" xlink:href="#arrowLeft" x="0" y="0" onmousedown="handlePan(-1,0)"/>
</g>
<svg viewBox="0 0 15 15" width="100%" height="30px" preserveAspectRatio="xMaxYMin meet">
 <g id="arrow_out" transform="scale(0.3 0.3)">
  <a xlink:href="SocketWriter_8h__incl_org.svg" target="_base">
   <rect id="button" ry="5" rx="5" y="6" x="6" height="38" width="38"
        fill="#f2f5e9" fill-opacity="0.5" stroke="#606060" stroke-width="1.0"/>
   <path id="arrow"
     d="M 11.500037,31.436501 C 11.940474,20.09759 22.043105,11.32322 32.158766,21.979434 L 37.068811,17.246167 C 37.068811,17.246167 37.088388,32 37.088388,32 L 22.160133,31.978069 C 22.160133,31.978069 26.997745,27.140456 26.997745,27.140456 C 18.528582,18.264221 13.291696,25.230495 11.500037,31.436501 z"
     style="fill:#404040;"/>
  </a>
 </g>
</svg>

<style type='text/css'>
<![CDATA[
[data-mouse-over-selected='false'] { opacity: 0.7; }
[data-mouse-over-selected='true']  { opacity: 1.0; }
]]>
</style>
<script type="application/ecmascript"><![CDATA[
document.addEventListener('DOMContentLoaded', (event) => {
  highlightEdges();
  highlightAdjacentNodes();
});
]]></script>
</svg>
