<?xml version="1.0" encoding="UTF-8" standalone="no"?>
<!DOCTYPE svg PUBLIC "-//W3C//DTD SVG 1.1//EN"
 "http://www.w3.org/Graphics/SVG/1.1/DTD/svg11.dtd">
<!-- Generated by graphviz version 2.43.0 (0)
 -->
<!-- Title: /home/runner/work/Catena/Catena/sdks/cpp/common/include/meta/Streamable.h Pages: 1 -->
<svg width="363pt" height="206pt"
 viewBox="0.00 0.00 362.50 206.00" xmlns="http://www.w3.org/2000/svg" xmlns:xlink="http://www.w3.org/1999/xlink">
<g id="graph0" class="graph" transform="scale(1 1) rotate(0) translate(4 202)">
<title>/home/runner/work/Catena/Catena/sdks/cpp/common/include/meta/Streamable.h</title>
<polygon fill="white" stroke="transparent" points="-4,4 -4,-202 358.5,-202 358.5,4 -4,4"/>
<!-- Node1 -->
<g id="node1" class="node">
<title>Node1</title>
<g id="a_node1"><a xlink:title="Meta programming to test if an object is streamable.">
<polygon fill="#bfbfbf" stroke="black" points="94.5,-156.5 94.5,-197.5 246.5,-197.5 246.5,-156.5 94.5,-156.5"/>
<text text-anchor="start" x="102.5" y="-185.5" font-family="Helvetica,sans-Serif" font-size="10.00">/home/runner/work/Catena</text>
<text text-anchor="start" x="102.5" y="-174.5" font-family="Helvetica,sans-Serif" font-size="10.00">/Catena/sdks/cpp/common</text>
<text text-anchor="middle" x="170.5" y="-163.5" font-family="Helvetica,sans-Serif" font-size="10.00">/include/meta/Streamable.h</text>
</a>
</g>
</g>
<!-- Node2 -->
<g id="node2" class="node">
<title>Node2</title>
<g id="a_node2"><a xlink:href="Functory_8h.html" target="_top" xlink:title="Provides tools to create maps of functions.">
<polygon fill="white" stroke="black" points="3,-78.5 3,-119.5 154,-119.5 154,-78.5 3,-78.5"/>
<text text-anchor="start" x="11" y="-107.5" font-family="Helvetica,sans-Serif" font-size="10.00">/home/runner/work/Catena</text>
<text text-anchor="start" x="11" y="-96.5" font-family="Helvetica,sans-Serif" font-size="10.00">/Catena/sdks/cpp/common</text>
<text text-anchor="middle" x="78.5" y="-85.5" font-family="Helvetica,sans-Serif" font-size="10.00">/include/patterns/Functory.h</text>
</a>
</g>
</g>
<!-- Node1&#45;&gt;Node2 -->
<g id="edge1" class="edge">
<title>Node1&#45;&gt;Node2</title>
<path fill="none" stroke="midnightblue" d="M138.76,-149.78C126.73,-139.84 113.26,-128.72 102.11,-119.51"/>
<polygon fill="midnightblue" stroke="midnightblue" points="136.87,-152.76 146.81,-156.43 141.33,-147.36 136.87,-152.76"/>
</g>
<!-- Node4 -->
<g id="node4" class="node">
<title>Node4</title>
<g id="a_node4"><a xlink:href="GenericFactory_8h.html" target="_top" xlink:title="Defines tools to create objects based on values that are only known at runtime.">
<polygon fill="white" stroke="black" points="172.5,-78.5 172.5,-119.5 354.5,-119.5 354.5,-78.5 172.5,-78.5"/>
<text text-anchor="start" x="180.5" y="-107.5" font-family="Helvetica,sans-Serif" font-size="10.00">/home/runner/work/Catena</text>
<text text-anchor="start" x="180.5" y="-96.5" font-family="Helvetica,sans-Serif" font-size="10.00">/Catena/sdks/cpp/common</text>
<text text-anchor="middle" x="263.5" y="-85.5" font-family="Helvetica,sans-Serif" font-size="10.00">/include/patterns/GenericFactory.h</text>
</a>
</g>
</g>
<!-- Node1&#45;&gt;Node4 -->
<g id="edge3" class="edge">
<title>Node1&#45;&gt;Node4</title>
<path fill="none" stroke="midnightblue" d="M202.24,-150.06C214.48,-140.06 228.25,-128.8 239.63,-119.51"/>
<polygon fill="midnightblue" stroke="midnightblue" points="199.98,-147.39 194.45,-156.43 204.41,-152.81 199.98,-147.39"/>
</g>
<!-- Node3 -->
<g id="node3" class="node">
<title>Node3</title>
<g id="a_node3"><a xlink:href="ParamAccessor_8h.html" target="_top" xlink:title="Convenient access to Params in the DeviceModel.">
<polygon fill="white" stroke="black" points="0,-0.5 0,-41.5 157,-41.5 157,-0.5 0,-0.5"/>
<text text-anchor="start" x="8" y="-29.5" font-family="Helvetica,sans-Serif" font-size="10.00">/home/runner/work/Catena</text>
<text text-anchor="start" x="8" y="-18.5" font-family="Helvetica,sans-Serif" font-size="10.00">/Catena/sdks/cpp/full/include</text>
<text text-anchor="middle" x="78.5" y="-7.5" font-family="Helvetica,sans-Serif" font-size="10.00">/ParamAccessor.h</text>
</a>
</g>
</g>
<!-- Node2&#45;&gt;Node3 -->
<g id="edge2" class="edge">
<title>Node2&#45;&gt;Node3</title>
<path fill="none" stroke="midnightblue" d="M78.5,-68.3C78.5,-59.3 78.5,-49.65 78.5,-41.51"/>
<polygon fill="midnightblue" stroke="midnightblue" points="75,-68.43 78.5,-78.43 82,-68.43 75,-68.43"/>
</g>
<!-- Node5 -->
<g id="node5" class="node">
<title>Node5</title>
<g id="a_node5"><a xlink:href="ArrayAccessor_8h.html" target="_top" xlink:title="API for accessing arrays.">
<polygon fill="white" stroke="black" points="185,-0.5 185,-41.5 342,-41.5 342,-0.5 185,-0.5"/>
<text text-anchor="start" x="193" y="-29.5" font-family="Helvetica,sans-Serif" font-size="10.00">/home/runner/work/Catena</text>
<text text-anchor="start" x="193" y="-18.5" font-family="Helvetica,sans-Serif" font-size="10.00">/Catena/sdks/cpp/full/include</text>
<text text-anchor="middle" x="263.5" y="-7.5" font-family="Helvetica,sans-Serif" font-size="10.00">/ArrayAccessor.h</text>
</a>
</g>
</g>
<!-- Node4&#45;&gt;Node5 -->
<g id="edge4" class="edge">
<title>Node4&#45;&gt;Node5</title>
<path fill="none" stroke="midnightblue" d="M263.5,-68.3C263.5,-59.3 263.5,-49.65 263.5,-41.51"/>
<polygon fill="midnightblue" stroke="midnightblue" points="260,-68.43 263.5,-78.43 267,-68.43 260,-68.43"/>
</g>
</g>
</svg>
