<?xml version="1.0" encoding="UTF-8" standalone="no"?>
<!DOCTYPE svg PUBLIC "-//W3C//DTD SVG 1.1//EN"
 "http://www.w3.org/Graphics/SVG/1.1/DTD/svg11.dtd">
<!-- Generated by graphviz version 2.43.0 (0)
 -->
<!-- Title: /home/runner/work/Catena/Catena/sdks/cpp/common/include/StructInfo.h Pages: 1 -->
<svg width="1572pt" height="379pt"
 viewBox="0.00 0.00 1571.50 379.00" xmlns="http://www.w3.org/2000/svg" xmlns:xlink="http://www.w3.org/1999/xlink">
<g id="graph0" class="graph" transform="scale(1 1) rotate(0) translate(4 375)">
<title>/home/runner/work/Catena/Catena/sdks/cpp/common/include/StructInfo.h</title>
<!-- Node1 -->
<g id="Node000001" class="node">
<title>Node1</title>
<g id="a_Node000001"><a xlink:title="Structured data serialization and deserialization to protobuf.">
<polygon fill="#999999" stroke="#666666" points="967,-371 821,-371 821,-330 967,-330 967,-371"/>
<text text-anchor="start" x="829" y="-359" font-family="Helvetica,sans-Serif" font-size="10.00">/home/runner/work/Catena</text>
<text text-anchor="start" x="829" y="-348" font-family="Helvetica,sans-Serif" font-size="10.00">/Catena/sdks/cpp/common</text>
<text text-anchor="middle" x="894" y="-337" font-family="Helvetica,sans-Serif" font-size="10.00">/include/StructInfo.h</text>
</a>
</g>
</g>
<!-- Node2 -->
<g id="Node000002" class="node">
<title>Node2</title>
<g id="a_Node000002"><a xlink:href="Typelist_8h.html" target="_top" xlink:title="Type list meta programming.">
<polygon fill="white" stroke="#666666" points="92,-294 0,-294 0,-275 92,-275 92,-294"/>
<text text-anchor="middle" x="46" y="-282" font-family="Helvetica,sans-Serif" font-size="10.00">meta/Typelist.h</text>
</a>
</g>
</g>
<!-- Node1&#45;&gt;Node2 -->
<g id="edge1_Node000001_Node000002" class="edge">
<title>Node1&#45;&gt;Node2</title>
<g id="a_edge1_Node000001_Node000002"><a xlink:title=" ">
<path fill="none" stroke="#63b8ff" d="M820.79,-346.07C681.4,-339.15 368.36,-321.79 106,-294 104.73,-293.87 103.46,-293.73 102.17,-293.58"/>
<polygon fill="#63b8ff" stroke="#63b8ff" points="102.49,-290.09 92.15,-292.37 101.66,-297.04 102.49,-290.09"/>
</a>
</g>
</g>
<!-- Node3 -->
<g id="Node000003" class="node">
<title>Node3</title>
<g id="a_Node000003"><a xlink:href="IsVector_8h.html" target="_top" xlink:title="Checks if a type is a vector.">
<polygon fill="white" stroke="#666666" points="118,-184 26,-184 26,-165 118,-165 118,-184"/>
<text text-anchor="middle" x="72" y="-172" font-family="Helvetica,sans-Serif" font-size="10.00">meta/IsVector.h</text>
</a>
</g>
</g>
<!-- Node1&#45;&gt;Node3 -->
<g id="edge2_Node000001_Node000003" class="edge">
<title>Node1&#45;&gt;Node3</title>
<g id="a_edge2_Node000001_Node000003"><a xlink:title=" ">
<path fill="none" stroke="#63b8ff" d="M820.77,-347.86C643.33,-343.37 200.79,-328.77 144,-294 106.65,-271.13 86.02,-220.92 77.21,-193.78"/>
<polygon fill="#63b8ff" stroke="#63b8ff" points="80.5,-192.55 74.23,-184 73.8,-194.59 80.5,-192.55"/>
</a>
</g>
</g>
<!-- Node4 -->
<g id="Node000004" class="node">
<title>Node4</title>
<g id="a_Node000004"><a xlink:title=" ">
<polygon fill="#e0e0e0" stroke="#999999" points="95.5,-129 48.5,-129 48.5,-110 95.5,-110 95.5,-129"/>
<text text-anchor="middle" x="72" y="-117" font-family="Helvetica,sans-Serif" font-size="10.00">vector</text>
</a>
</g>
</g>
<!-- Node1&#45;&gt;Node4 -->
<g id="edge51_Node000001_Node000004" class="edge">
<title>Node1&#45;&gt;Node4</title>
<g id="a_edge51_Node000001_Node000004"><a xlink:title=" ">
<path fill="none" stroke="#63b8ff" d="M820.8,-340.86C688.23,-323.44 401.33,-277.52 177,-184 145.48,-170.86 112.27,-149.28 91.84,-134.98"/>
<polygon fill="#63b8ff" stroke="#63b8ff" points="93.84,-132.11 83.66,-129.16 89.78,-137.81 93.84,-132.11"/>
</a>
</g>
</g>
<!-- Node6 -->
<g id="Node000006" class="node">
<title>Node6</title>
<g id="a_Node000006"><a xlink:href="Variant_8h.html" target="_top" xlink:title="Meta programming to test if an object is a std::variant.">
<polygon fill="white" stroke="#666666" points="275.5,-184 186.5,-184 186.5,-165 275.5,-165 275.5,-184"/>
<text text-anchor="middle" x="231" y="-172" font-family="Helvetica,sans-Serif" font-size="10.00">meta/Variant.h</text>
</a>
</g>
</g>
<!-- Node1&#45;&gt;Node6 -->
<g id="edge5_Node000001_Node000006" class="edge">
<title>Node1&#45;&gt;Node6</title>
<g id="a_edge5_Node000001_Node000006"><a xlink:title=" ">
<path fill="none" stroke="#63b8ff" d="M820.83,-330.3C681.88,-293.83 383.81,-215.6 273.34,-186.61"/>
<polygon fill="#63b8ff" stroke="#63b8ff" points="274.11,-183.2 263.55,-184.04 272.33,-189.97 274.11,-183.2"/>
</a>
</g>
</g>
<!-- Node8 -->
<g id="Node000008" class="node">
<title>Node8</title>
<g id="a_Node000008"><a xlink:href="Authorization_8h.html" target="_top" xlink:title="Class for handling authorization information.">
<polygon fill="white" stroke="#666666" points="939.5,-294 848.5,-294 848.5,-275 939.5,-275 939.5,-294"/>
<text text-anchor="middle" x="894" y="-282" font-family="Helvetica,sans-Serif" font-size="10.00">Authorization.h</text>
</a>
</g>
</g>
<!-- Node1&#45;&gt;Node8 -->
<g id="edge8_Node000001_Node000008" class="edge">
<title>Node1&#45;&gt;Node8</title>
<g id="a_edge8_Node000001_Node000008"><a xlink:title=" ">
<path fill="none" stroke="#63b8ff" d="M894,-329.95C894,-321.85 894,-312.5 894,-304.47"/>
<polygon fill="#63b8ff" stroke="#63b8ff" points="897.5,-304.26 894,-294.26 890.5,-304.26 897.5,-304.26"/>
</a>
</g>
</g>
<!-- Node11 -->
<g id="Node000011" class="node">
<title>Node11</title>
<g id="a_Node000011"><a xlink:title=" ">
<polygon fill="#e0e0e0" stroke="#999999" points="1199,-19 1155,-19 1155,0 1199,0 1199,-19"/>
<text text-anchor="middle" x="1177" y="-7" font-family="Helvetica,sans-Serif" font-size="10.00">string</text>
</a>
</g>
</g>
<!-- Node1&#45;&gt;Node11 -->
<g id="edge49_Node000001_Node000011" class="edge">
<title>Node1&#45;&gt;Node11</title>
<g id="a_edge49_Node000001_Node000011"><a xlink:title=" ">
<path fill="none" stroke="#63b8ff" d="M967.28,-348.04C1111.65,-343.16 1419,-322.03 1419,-230.5 1419,-230.5 1419,-230.5 1419,-118.5 1419,-86.9 1412.04,-74.29 1387,-55 1372.99,-44.21 1264.36,-24.96 1209.08,-15.73"/>
<polygon fill="#63b8ff" stroke="#63b8ff" points="1209.54,-12.26 1199.1,-14.07 1208.39,-19.16 1209.54,-12.26"/>
</a>
</g>
</g>
<!-- Node21 -->
<g id="Node000021" class="node">
<title>Node21</title>
<g id="a_Node000021"><a xlink:title=" ">
<polygon fill="#e0e0e0" stroke="#999999" points="1183.5,-129 1064.5,-129 1064.5,-110 1183.5,-110 1183.5,-129"/>
<text text-anchor="middle" x="1124" y="-117" font-family="Helvetica,sans-Serif" font-size="10.00">interface/param.pb.h</text>
</a>
</g>
</g>
<!-- Node1&#45;&gt;Node21 -->
<g id="edge48_Node000001_Node000021" class="edge">
<title>Node1&#45;&gt;Node21</title>
<g id="a_edge48_Node000001_Node000021"><a xlink:title=" ">
<path fill="none" stroke="#63b8ff" d="M967.22,-331.52C1038.3,-309.73 1142.26,-265.38 1190,-184 1202.09,-163.39 1177.24,-145.09 1154.65,-133.5"/>
<polygon fill="#63b8ff" stroke="#63b8ff" points="1156.07,-130.3 1145.55,-129.1 1153.03,-136.6 1156.07,-130.3"/>
</a>
</g>
</g>
<!-- Node34 -->
<g id="Node000034" class="node">
<title>Node34</title>
<g id="a_Node000034"><a xlink:title=" ">
<polygon fill="#e0e0e0" stroke="#999999" points="1500.5,-294 1447.5,-294 1447.5,-275 1500.5,-275 1500.5,-294"/>
<text text-anchor="middle" x="1474" y="-282" font-family="Helvetica,sans-Serif" font-size="10.00">cstddef</text>
</a>
</g>
</g>
<!-- Node1&#45;&gt;Node34 -->
<g id="edge50_Node000001_Node000034" class="edge">
<title>Node1&#45;&gt;Node34</title>
<g id="a_edge50_Node000001_Node000034"><a xlink:title=" ">
<path fill="none" stroke="#63b8ff" d="M967.1,-344.35C1071.03,-336.48 1267.29,-319.64 1433,-294 1434.29,-293.8 1435.61,-293.59 1436.93,-293.36"/>
<polygon fill="#63b8ff" stroke="#63b8ff" points="1437.97,-296.73 1447.16,-291.47 1436.7,-289.85 1437.97,-296.73"/>
</a>
</g>
</g>
<!-- Node35 -->
<g id="Node000035" class="node">
<title>Node35</title>
<g id="a_Node000035"><a xlink:title=" ">
<polygon fill="#e0e0e0" stroke="#999999" points="1563.5,-294 1518.5,-294 1518.5,-275 1563.5,-275 1563.5,-294"/>
<text text-anchor="middle" x="1541" y="-282" font-family="Helvetica,sans-Serif" font-size="10.00">utility</text>
</a>
</g>
</g>
<!-- Node1&#45;&gt;Node35 -->
<g id="edge52_Node000001_Node000035" class="edge">
<title>Node1&#45;&gt;Node35</title>
<g id="a_edge52_Node000001_Node000035"><a xlink:title=" ">
<path fill="none" stroke="#63b8ff" d="M967.11,-347.12C1081.12,-342.47 1308.14,-329.52 1508.31,-294.01"/>
<polygon fill="#63b8ff" stroke="#63b8ff" points="1509.2,-297.4 1518.42,-292.19 1507.96,-290.51 1509.2,-297.4"/>
</a>
</g>
</g>
<!-- Node3&#45;&gt;Node4 -->
<g id="edge3_Node000003_Node000004" class="edge">
<title>Node3&#45;&gt;Node4</title>
<g id="a_edge3_Node000003_Node000004"><a xlink:title=" ">
<path fill="none" stroke="#63b8ff" d="M72,-164.75C72,-157.8 72,-147.85 72,-139.13"/>
<polygon fill="#63b8ff" stroke="#63b8ff" points="75.5,-139.09 72,-129.09 68.5,-139.09 75.5,-139.09"/>
</a>
</g>
</g>
<!-- Node5 -->
<g id="Node000005" class="node">
<title>Node5</title>
<g id="a_Node000005"><a xlink:title=" ">
<polygon fill="#e0e0e0" stroke="#999999" points="158.5,-74 89.5,-74 89.5,-55 158.5,-55 158.5,-74"/>
<text text-anchor="middle" x="124" y="-62" font-family="Helvetica,sans-Serif" font-size="10.00">type_traits</text>
</a>
</g>
</g>
<!-- Node3&#45;&gt;Node5 -->
<g id="edge4_Node000003_Node000005" class="edge">
<title>Node3&#45;&gt;Node5</title>
<g id="a_edge4_Node000003_Node000005"><a xlink:title=" ">
<path fill="none" stroke="#63b8ff" d="M61.49,-164.68C47.98,-152.23 27.55,-128.92 39,-110 48.14,-94.89 64.29,-84.67 80.07,-77.87"/>
<polygon fill="#63b8ff" stroke="#63b8ff" points="81.74,-80.97 89.78,-74.07 79.19,-74.46 81.74,-80.97"/>
</a>
</g>
</g>
<!-- Node6&#45;&gt;Node5 -->
<g id="edge6_Node000006_Node000005" class="edge">
<title>Node6&#45;&gt;Node5</title>
<g id="a_edge6_Node000006_Node000005"><a xlink:title=" ">
<path fill="none" stroke="#63b8ff" d="M200.55,-164.95C181.49,-158.13 157.83,-146.73 143,-129 132.5,-116.45 127.8,-98.25 125.7,-84.55"/>
<polygon fill="#63b8ff" stroke="#63b8ff" points="129.14,-83.84 124.48,-74.32 122.19,-84.67 129.14,-83.84"/>
</a>
</g>
</g>
<!-- Node7 -->
<g id="Node000007" class="node">
<title>Node7</title>
<g id="a_Node000007"><a xlink:title=" ">
<polygon fill="#e0e0e0" stroke="#999999" points="203.5,-129 152.5,-129 152.5,-110 203.5,-110 203.5,-129"/>
<text text-anchor="middle" x="178" y="-117" font-family="Helvetica,sans-Serif" font-size="10.00">variant</text>
</a>
</g>
</g>
<!-- Node6&#45;&gt;Node7 -->
<g id="edge7_Node000006_Node000007" class="edge">
<title>Node6&#45;&gt;Node7</title>
<g id="a_edge7_Node000006_Node000007"><a xlink:title=" ">
<path fill="none" stroke="#63b8ff" d="M222.25,-164.75C214.53,-157.03 203.1,-145.6 193.78,-136.28"/>
<polygon fill="#63b8ff" stroke="#63b8ff" points="196.14,-133.69 186.59,-129.09 191.19,-138.64 196.14,-133.69"/>
</a>
</g>
</g>
<!-- Node9 -->
<g id="Node000009" class="node">
<title>Node9</title>
<g id="a_Node000009"><a xlink:href="Path_8h.html" target="_top" xlink:title="Handles Path objects used to uniquely identify and access OIDs.">
<polygon fill="white" stroke="#666666" points="352.5,-184 305.5,-184 305.5,-165 352.5,-165 352.5,-184"/>
<text text-anchor="middle" x="329" y="-172" font-family="Helvetica,sans-Serif" font-size="10.00">Path.h</text>
</a>
</g>
</g>
<!-- Node8&#45;&gt;Node9 -->
<g id="edge9_Node000008_Node000009" class="edge">
<title>Node8&#45;&gt;Node9</title>
<g id="a_edge9_Node000008_Node000009"><a xlink:title=" ">
<path fill="none" stroke="#63b8ff" d="M849.19,-274.94C739.52,-253.97 459.5,-200.45 362.6,-181.92"/>
<polygon fill="#63b8ff" stroke="#63b8ff" points="363.24,-178.48 352.76,-180.04 361.92,-185.36 363.24,-178.48"/>
</a>
</g>
</g>
<!-- Node13 -->
<g id="Node000013" class="node">
<title>Node13</title>
<g id="a_Node000013"><a xlink:href="Enums_8h.html" target="_top" xlink:title="tools for using EnumDecorators.">
<polygon fill="white" stroke="#666666" points="703.5,-184 644.5,-184 644.5,-165 703.5,-165 703.5,-184"/>
<text text-anchor="middle" x="674" y="-172" font-family="Helvetica,sans-Serif" font-size="10.00">Enums.h</text>
</a>
</g>
</g>
<!-- Node8&#45;&gt;Node13 -->
<g id="edge15_Node000008_Node000013" class="edge">
<title>Node8&#45;&gt;Node13</title>
<g id="a_edge15_Node000008_Node000013"><a xlink:title=" ">
<path fill="none" stroke="#63b8ff" d="M875.78,-274.9C857,-266 826.89,-251.66 801,-239 765.85,-221.81 725.47,-201.52 699.85,-188.59"/>
<polygon fill="#63b8ff" stroke="#63b8ff" points="701.3,-185.4 690.8,-184.02 698.15,-191.65 701.3,-185.4"/>
</a>
</g>
</g>
<!-- Node19 -->
<g id="Node000019" class="node">
<title>Node19</title>
<g id="a_Node000019"><a xlink:href="IParam_8h.html" target="_top" xlink:title="Interface for parameters.">
<polygon fill="white" stroke="#666666" points="967.5,-239 908.5,-239 908.5,-220 967.5,-220 967.5,-239"/>
<text text-anchor="middle" x="938" y="-227" font-family="Helvetica,sans-Serif" font-size="10.00">IParam.h</text>
</a>
</g>
</g>
<!-- Node8&#45;&gt;Node19 -->
<g id="edge24_Node000008_Node000019" class="edge">
<title>Node8&#45;&gt;Node19</title>
<g id="a_edge24_Node000008_Node000019"><a xlink:title=" ">
<path fill="none" stroke="#63b8ff" d="M901.27,-274.75C907.54,-267.18 916.79,-256.05 924.43,-246.84"/>
<polygon fill="#63b8ff" stroke="#63b8ff" points="927.17,-249.02 930.87,-239.09 921.79,-244.55 927.17,-249.02"/>
</a>
</g>
</g>
<!-- Node23 -->
<g id="Node000023" class="node">
<title>Node23</title>
<g id="a_Node000023"><a xlink:href="IParamDescriptor_8h.html" target="_top" xlink:title="Interface class for ParamDescriptor.">
<polygon fill="white" stroke="#666666" points="1180.5,-184 1071.5,-184 1071.5,-165 1180.5,-165 1180.5,-184"/>
<text text-anchor="middle" x="1126" y="-172" font-family="Helvetica,sans-Serif" font-size="10.00">IParamDescriptor.h</text>
</a>
</g>
</g>
<!-- Node8&#45;&gt;Node23 -->
<g id="edge45_Node000008_Node000023" class="edge">
<title>Node8&#45;&gt;Node23</title>
<g id="a_edge45_Node000008_Node000023"><a xlink:title=" ">
<path fill="none" stroke="#63b8ff" d="M912.59,-274.84C953.33,-255.88 1050.65,-210.58 1098.49,-188.31"/>
<polygon fill="#63b8ff" stroke="#63b8ff" points="1100.05,-191.44 1107.64,-184.05 1097.1,-185.09 1100.05,-191.44"/>
</a>
</g>
</g>
<!-- Node25 -->
<g id="Node000025" class="node">
<title>Node25</title>
<g id="a_Node000025"><a xlink:title=" ">
<polygon fill="#e0e0e0" stroke="#999999" points="1270.5,-74 1205.5,-74 1205.5,-55 1270.5,-55 1270.5,-74"/>
<text text-anchor="middle" x="1238" y="-62" font-family="Helvetica,sans-Serif" font-size="10.00">functional</text>
</a>
</g>
</g>
<!-- Node8&#45;&gt;Node25 -->
<g id="edge47_Node000008_Node000025" class="edge">
<title>Node8&#45;&gt;Node25</title>
<g id="a_edge47_Node000008_Node000025"><a xlink:title=" ">
<path fill="none" stroke="#63b8ff" d="M933.67,-274.93C992.25,-261.25 1104.23,-231.1 1190,-184 1224.07,-165.29 1241.26,-164.08 1258,-129 1265.21,-113.89 1257.86,-95.55 1250.12,-82.47"/>
<polygon fill="#63b8ff" stroke="#63b8ff" points="1253,-80.48 1244.61,-74 1247.13,-84.29 1253,-80.48"/>
</a>
</g>
</g>
<!-- Node33 -->
<g id="Node000033" class="node">
<title>Node33</title>
<g id="a_Node000033"><a xlink:title=" ">
<polygon fill="#e0e0e0" stroke="#999999" points="890,-239 810,-239 810,-220 890,-220 890,-239"/>
<text text-anchor="middle" x="850" y="-227" font-family="Helvetica,sans-Serif" font-size="10.00">jwt&#45;cpp/jwt.h</text>
</a>
</g>
</g>
<!-- Node8&#45;&gt;Node33 -->
<g id="edge46_Node000008_Node000033" class="edge">
<title>Node8&#45;&gt;Node33</title>
<g id="a_edge46_Node000008_Node000033"><a xlink:title=" ">
<path fill="none" stroke="#63b8ff" d="M886.73,-274.75C880.46,-267.18 871.21,-256.05 863.57,-246.84"/>
<polygon fill="#63b8ff" stroke="#63b8ff" points="866.21,-244.55 857.13,-239.09 860.83,-249.02 866.21,-244.55"/>
</a>
</g>
</g>
<!-- Node9&#45;&gt;Node4 -->
<g id="edge12_Node000009_Node000004" class="edge">
<title>Node9&#45;&gt;Node4</title>
<g id="a_edge12_Node000009_Node000004"><a xlink:title=" ">
<path fill="none" stroke="#63b8ff" d="M305.28,-168.61C259.38,-159.14 158.29,-138.3 105.54,-127.42"/>
<polygon fill="#63b8ff" stroke="#63b8ff" points="106.16,-123.97 95.66,-125.38 104.75,-130.83 106.16,-123.97"/>
</a>
</g>
</g>
<!-- Node9&#45;&gt;Node7 -->
<g id="edge13_Node000009_Node000007" class="edge">
<title>Node9&#45;&gt;Node7</title>
<g id="a_edge13_Node000009_Node000007"><a xlink:title=" ">
<path fill="none" stroke="#63b8ff" d="M305.41,-165.22C280.33,-156.42 240.44,-142.42 211.98,-132.43"/>
<polygon fill="#63b8ff" stroke="#63b8ff" points="213.02,-129.08 202.43,-129.07 210.71,-135.69 213.02,-129.08"/>
</a>
</g>
</g>
<!-- Node10 -->
<g id="Node000010" class="node">
<title>Node10</title>
<g id="a_Node000010"><a xlink:title=" ">
<polygon fill="#e0e0e0" stroke="#999999" points="282,-129 222,-129 222,-110 282,-110 282,-129"/>
<text text-anchor="middle" x="252" y="-117" font-family="Helvetica,sans-Serif" font-size="10.00">iostream</text>
</a>
</g>
</g>
<!-- Node9&#45;&gt;Node10 -->
<g id="edge10_Node000009_Node000010" class="edge">
<title>Node9&#45;&gt;Node10</title>
<g id="a_edge10_Node000009_Node000010"><a xlink:title=" ">
<path fill="none" stroke="#63b8ff" d="M316.63,-164.98C304.91,-156.92 287.08,-144.65 273.11,-135.03"/>
<polygon fill="#63b8ff" stroke="#63b8ff" points="274.82,-131.96 264.6,-129.17 270.85,-137.72 274.82,-131.96"/>
</a>
</g>
</g>
<!-- Node9&#45;&gt;Node11 -->
<g id="edge11_Node000009_Node000011" class="edge">
<title>Node9&#45;&gt;Node11</title>
<g id="a_edge11_Node000009_Node000011"><a xlink:title=" ">
<path fill="none" stroke="#63b8ff" d="M336.73,-164.76C360.1,-138.45 429.26,-61.34 443,-55 507.26,-25.32 1011,-13.67 1144.58,-11.08"/>
<polygon fill="#63b8ff" stroke="#63b8ff" points="1145.02,-14.57 1154.95,-10.89 1144.88,-7.58 1145.02,-14.57"/>
</a>
</g>
</g>
<!-- Node12 -->
<g id="Node000012" class="node">
<title>Node12</title>
<g id="a_Node000012"><a xlink:title=" ">
<polygon fill="#e0e0e0" stroke="#999999" points="358,-129 300,-129 300,-110 358,-110 358,-129"/>
<text text-anchor="middle" x="329" y="-117" font-family="Helvetica,sans-Serif" font-size="10.00">memory</text>
</a>
</g>
</g>
<!-- Node9&#45;&gt;Node12 -->
<g id="edge14_Node000009_Node000012" class="edge">
<title>Node9&#45;&gt;Node12</title>
<g id="a_edge14_Node000009_Node000012"><a xlink:title=" ">
<path fill="none" stroke="#63b8ff" d="M329,-164.75C329,-157.8 329,-147.85 329,-139.13"/>
<polygon fill="#63b8ff" stroke="#63b8ff" points="332.5,-139.09 329,-129.09 325.5,-139.09 332.5,-139.09"/>
</a>
</g>
</g>
<!-- Node14 -->
<g id="Node000014" class="node">
<title>Node14</title>
<g id="a_Node000014"><a xlink:href="EnumDecorator_8h.html" target="_top" xlink:title="Provides an enum with useful extra functionality.">
<polygon fill="white" stroke="#666666" points="558,-129 414,-129 414,-110 558,-110 558,-129"/>
<text text-anchor="middle" x="486" y="-117" font-family="Helvetica,sans-Serif" font-size="10.00">patterns/EnumDecorator.h</text>
</a>
</g>
</g>
<!-- Node13&#45;&gt;Node14 -->
<g id="edge16_Node000013_Node000014" class="edge">
<title>Node13&#45;&gt;Node14</title>
<g id="a_edge16_Node000013_Node000014"><a xlink:title=" ">
<path fill="none" stroke="#63b8ff" d="M644.21,-165.1C612.36,-156.12 561.67,-141.83 526.27,-131.85"/>
<polygon fill="#63b8ff" stroke="#63b8ff" points="526.85,-128.38 516.27,-129.03 524.95,-135.12 526.85,-128.38"/>
</a>
</g>
</g>
<!-- Node16 -->
<g id="Node000016" class="node">
<title>Node16</title>
<g id="a_Node000016"><a xlink:title=" ">
<polygon fill="#e0e0e0" stroke="#999999" points="668,-74 618,-74 618,-55 668,-55 668,-74"/>
<text text-anchor="middle" x="643" y="-62" font-family="Helvetica,sans-Serif" font-size="10.00">cstdint</text>
</a>
</g>
</g>
<!-- Node13&#45;&gt;Node16 -->
<g id="edge23_Node000013_Node000016" class="edge">
<title>Node13&#45;&gt;Node16</title>
<g id="a_edge23_Node000013_Node000016"><a xlink:title=" ">
<path fill="none" stroke="#63b8ff" d="M650.22,-164.92C634.57,-157.89 615.33,-146.25 606,-129 596.97,-112.3 610.94,-93.56 624.22,-80.79"/>
<polygon fill="#63b8ff" stroke="#63b8ff" points="626.66,-83.31 631.78,-74.03 621.99,-78.09 626.66,-83.31"/>
</a>
</g>
</g>
<!-- Node18 -->
<g id="Node000018" class="node">
<title>Node18</title>
<g id="a_Node000018"><a xlink:title=" ">
<polygon fill="#e0e0e0" stroke="#999999" points="733.5,-129 614.5,-129 614.5,-110 733.5,-110 733.5,-129"/>
<text text-anchor="middle" x="674" y="-117" font-family="Helvetica,sans-Serif" font-size="10.00">interface/device.pb.h</text>
</a>
</g>
</g>
<!-- Node13&#45;&gt;Node18 -->
<g id="edge22_Node000013_Node000018" class="edge">
<title>Node13&#45;&gt;Node18</title>
<g id="a_edge22_Node000013_Node000018"><a xlink:title=" ">
<path fill="none" stroke="#63b8ff" d="M674,-164.75C674,-157.8 674,-147.85 674,-139.13"/>
<polygon fill="#63b8ff" stroke="#63b8ff" points="677.5,-139.09 674,-129.09 670.5,-139.09 677.5,-139.09"/>
</a>
</g>
</g>
<!-- Node14&#45;&gt;Node5 -->
<g id="edge21_Node000014_Node000005" class="edge">
<title>Node14&#45;&gt;Node5</title>
<g id="a_edge21_Node000014_Node000005"><a xlink:title=" ">
<path fill="none" stroke="#63b8ff" d="M427.84,-109.98C355.56,-99.4 233.79,-81.57 168.51,-72.02"/>
<polygon fill="#63b8ff" stroke="#63b8ff" points="168.94,-68.54 158.54,-70.56 167.93,-75.47 168.94,-68.54"/>
</a>
</g>
</g>
<!-- Node14&#45;&gt;Node11 -->
<g id="edge20_Node000014_Node000011" class="edge">
<title>Node14&#45;&gt;Node11</title>
<g id="a_edge20_Node000014_Node000011"><a xlink:title=" ">
<path fill="none" stroke="#63b8ff" d="M502.64,-109.8C535.57,-92.6 606.17,-55.81 609,-55 710.87,-25.99 1039.84,-14.38 1144.62,-11.35"/>
<polygon fill="#63b8ff" stroke="#63b8ff" points="1144.99,-14.84 1154.88,-11.06 1144.79,-7.85 1144.99,-14.84"/>
</a>
</g>
</g>
<!-- Node15 -->
<g id="Node000015" class="node">
<title>Node15</title>
<g id="a_Node000015"><a xlink:href="ReflectionMacros_8h.html" target="_top" xlink:title="adapted from https://github.com/tapika/TestCppReflect">
<polygon fill="white" stroke="#666666" points="562,-74 452,-74 452,-55 562,-55 562,-74"/>
<text text-anchor="middle" x="507" y="-62" font-family="Helvetica,sans-Serif" font-size="10.00">ReflectionMacros.h</text>
</a>
</g>
</g>
<!-- Node14&#45;&gt;Node15 -->
<g id="edge17_Node000014_Node000015" class="edge">
<title>Node14&#45;&gt;Node15</title>
<g id="a_edge17_Node000014_Node000015"><a xlink:title=" ">
<path fill="none" stroke="#63b8ff" d="M489.47,-109.75C492.28,-102.65 496.34,-92.4 499.85,-83.56"/>
<polygon fill="#63b8ff" stroke="#63b8ff" points="503.17,-84.68 503.6,-74.09 496.66,-82.1 503.17,-84.68"/>
</a>
</g>
</g>
<!-- Node14&#45;&gt;Node16 -->
<g id="edge18_Node000014_Node000016" class="edge">
<title>Node14&#45;&gt;Node16</title>
<g id="a_edge18_Node000014_Node000016"><a xlink:title=" ">
<path fill="none" stroke="#63b8ff" d="M511.22,-109.98C537.43,-101.14 578.64,-87.23 607.99,-77.32"/>
<polygon fill="#63b8ff" stroke="#63b8ff" points="609.48,-80.51 617.84,-73.99 607.24,-73.88 609.48,-80.51"/>
</a>
</g>
</g>
<!-- Node17 -->
<g id="Node000017" class="node">
<title>Node17</title>
<g id="a_Node000017"><a xlink:title=" ">
<polygon fill="#e0e0e0" stroke="#999999" points="810.5,-19 717.5,-19 717.5,0 810.5,0 810.5,-19"/>
<text text-anchor="middle" x="764" y="-7" font-family="Helvetica,sans-Serif" font-size="10.00">unordered_map</text>
</a>
</g>
</g>
<!-- Node14&#45;&gt;Node17 -->
<g id="edge19_Node000014_Node000017" class="edge">
<title>Node14&#45;&gt;Node17</title>
<g id="a_edge19_Node000014_Node000017"><a xlink:title=" ">
<path fill="none" stroke="#63b8ff" d="M472.72,-109.81C454.91,-97.12 427.26,-73.07 443,-55 476.61,-16.41 624.54,-10.19 707.35,-9.83"/>
<polygon fill="#63b8ff" stroke="#63b8ff" points="707.37,-13.33 717.36,-9.81 707.35,-6.33 707.37,-13.33"/>
</a>
</g>
</g>
<!-- Node19&#45;&gt;Node9 -->
<g id="edge40_Node000019_Node000009" class="edge">
<title>Node19&#45;&gt;Node9</title>
<g id="a_edge40_Node000019_Node000009"><a xlink:title=" ">
<path fill="none" stroke="#63b8ff" d="M908.27,-221.58C905.15,-220.99 902.02,-220.44 899,-220 697.03,-190.25 451.68,-179.58 363.01,-176.53"/>
<polygon fill="#63b8ff" stroke="#63b8ff" points="362.86,-173.03 352.75,-176.19 362.63,-180.02 362.86,-173.03"/>
</a>
</g>
</g>
<!-- Node19&#45;&gt;Node13 -->
<g id="edge25_Node000019_Node000013" class="edge">
<title>Node19&#45;&gt;Node13</title>
<g id="a_edge25_Node000019_Node000013"><a xlink:title=" ">
<path fill="none" stroke="#63b8ff" d="M908.2,-221.94C905.1,-221.28 901.99,-220.62 899,-220 834.08,-206.51 758.41,-191.74 713.45,-183.06"/>
<polygon fill="#63b8ff" stroke="#63b8ff" points="714,-179.61 703.52,-181.15 712.68,-186.48 714,-179.61"/>
</a>
</g>
</g>
<!-- Node20 -->
<g id="Node000020" class="node">
<title>Node20</title>
<g id="a_Node000020"><a xlink:href="IConstraint_8h.html" target="_top" xlink:title="Interface for constraints.">
<polygon fill="white" stroke="#666666" points="1014.5,-184 935.5,-184 935.5,-165 1014.5,-165 1014.5,-184"/>
<text text-anchor="middle" x="975" y="-172" font-family="Helvetica,sans-Serif" font-size="10.00">IConstraint.h</text>
</a>
</g>
</g>
<!-- Node19&#45;&gt;Node20 -->
<g id="edge26_Node000019_Node000020" class="edge">
<title>Node19&#45;&gt;Node20</title>
<g id="a_edge26_Node000019_Node000020"><a xlink:title=" ">
<path fill="none" stroke="#63b8ff" d="M944.11,-219.75C949.28,-212.34 956.85,-201.5 963.19,-192.41"/>
<polygon fill="#63b8ff" stroke="#63b8ff" points="966.15,-194.29 969,-184.09 960.41,-190.29 966.15,-194.29"/>
</a>
</g>
</g>
<!-- Node19&#45;&gt;Node21 -->
<g id="edge44_Node000019_Node000021" class="edge">
<title>Node19&#45;&gt;Node21</title>
<g id="a_edge44_Node000019_Node000021"><a xlink:title=" ">
<path fill="none" stroke="#63b8ff" d="M955.7,-219.91C973.26,-211.26 1000.83,-197.32 1024,-184 1051.83,-168 1082.9,-147.91 1102.91,-134.66"/>
<polygon fill="#63b8ff" stroke="#63b8ff" points="1104.89,-137.54 1111.28,-129.09 1101.01,-131.72 1104.89,-137.54"/>
</a>
</g>
</g>
<!-- Node19&#45;&gt;Node23 -->
<g id="edge29_Node000019_Node000023" class="edge">
<title>Node19&#45;&gt;Node23</title>
<g id="a_edge29_Node000019_Node000023"><a xlink:title=" ">
<path fill="none" stroke="#63b8ff" d="M967.79,-220.1C999.64,-211.12 1050.33,-196.83 1085.73,-186.85"/>
<polygon fill="#63b8ff" stroke="#63b8ff" points="1087.05,-190.12 1095.73,-184.03 1085.15,-183.38 1087.05,-190.12"/>
</a>
</g>
</g>
<!-- Node30 -->
<g id="Node000030" class="node">
<title>Node30</title>
<g id="a_Node000030"><a xlink:href="Status_8h.html" target="_top" xlink:title="Communicates failure status using gRPC&#39;s codes.">
<polygon fill="white" stroke="#666666" points="887,-184 831,-184 831,-165 887,-165 887,-184"/>
<text text-anchor="middle" x="859" y="-172" font-family="Helvetica,sans-Serif" font-size="10.00">Status.h</text>
</a>
</g>
</g>
<!-- Node19&#45;&gt;Node30 -->
<g id="edge41_Node000019_Node000030" class="edge">
<title>Node19&#45;&gt;Node30</title>
<g id="a_edge41_Node000019_Node000030"><a xlink:title=" ">
<path fill="none" stroke="#63b8ff" d="M925.31,-219.98C913.17,-211.84 894.64,-199.41 880.25,-189.76"/>
<polygon fill="#63b8ff" stroke="#63b8ff" points="882.18,-186.84 871.92,-184.17 878.28,-192.65 882.18,-186.84"/>
</a>
</g>
</g>
<!-- Node20&#45;&gt;Node21 -->
<g id="edge27_Node000020_Node000021" class="edge">
<title>Node20&#45;&gt;Node21</title>
<g id="a_edge27_Node000020_Node000021"><a xlink:title=" ">
<path fill="none" stroke="#63b8ff" d="M998.94,-164.98C1023.56,-156.23 1062.12,-142.51 1089.92,-132.62"/>
<polygon fill="#63b8ff" stroke="#63b8ff" points="1091.38,-135.82 1099.62,-129.17 1089.03,-129.22 1091.38,-135.82"/>
</a>
</g>
</g>
<!-- Node22 -->
<g id="Node000022" class="node">
<title>Node22</title>
<g id="a_Node000022"><a xlink:title=" ">
<polygon fill="#e0e0e0" stroke="#999999" points="1046,-129 910,-129 910,-110 1046,-110 1046,-129"/>
<text text-anchor="middle" x="978" y="-117" font-family="Helvetica,sans-Serif" font-size="10.00">interface/constraint.pb.h</text>
</a>
</g>
</g>
<!-- Node20&#45;&gt;Node22 -->
<g id="edge28_Node000020_Node000022" class="edge">
<title>Node20&#45;&gt;Node22</title>
<g id="a_edge28_Node000020_Node000022"><a xlink:title=" ">
<path fill="none" stroke="#63b8ff" d="M975.5,-164.75C975.89,-157.8 976.45,-147.85 976.95,-139.13"/>
<polygon fill="#63b8ff" stroke="#63b8ff" points="980.44,-139.27 977.51,-129.09 973.45,-138.88 980.44,-139.27"/>
</a>
</g>
</g>
<!-- Node23&#45;&gt;Node21 -->
<g id="edge39_Node000023_Node000021" class="edge">
<title>Node23&#45;&gt;Node21</title>
<g id="a_edge39_Node000023_Node000021"><a xlink:title=" ">
<path fill="none" stroke="#63b8ff" d="M1125.67,-164.75C1125.41,-157.8 1125.03,-147.85 1124.7,-139.13"/>
<polygon fill="#63b8ff" stroke="#63b8ff" points="1128.2,-138.95 1124.32,-129.09 1121.2,-139.21 1128.2,-138.95"/>
</a>
</g>
</g>
<!-- Node24 -->
<g id="Node000024" class="node">
<title>Node24</title>
<g id="a_Node000024"><a xlink:href="Tags_8h.html" target="_top" xlink:title="Tags to differentiate collections with the same type for template specialization.">
<polygon fill="white" stroke="#666666" points="1248.5,-129 1201.5,-129 1201.5,-110 1248.5,-110 1248.5,-129"/>
<text text-anchor="middle" x="1225" y="-117" font-family="Helvetica,sans-Serif" font-size="10.00">Tags.h</text>
</a>
</g>
</g>
<!-- Node23&#45;&gt;Node24 -->
<g id="edge30_Node000023_Node000024" class="edge">
<title>Node23&#45;&gt;Node24</title>
<g id="a_edge30_Node000023_Node000024"><a xlink:title=" ">
<path fill="none" stroke="#63b8ff" d="M1141.91,-164.98C1157.55,-156.61 1181.66,-143.7 1199.88,-133.95"/>
<polygon fill="#63b8ff" stroke="#63b8ff" points="1201.64,-136.98 1208.8,-129.17 1198.34,-130.8 1201.64,-136.98"/>
</a>
</g>
</g>
<!-- Node26 -->
<g id="Node000026" class="node">
<title>Node26</title>
<g id="a_Node000026"><a xlink:href="PolyglotText_8h.html" target="_top" xlink:title="Polyglot Text serialization and deserialization to protobuf.">
<polygon fill="white" stroke="#666666" points="1391,-129 1305,-129 1305,-110 1391,-110 1391,-129"/>
<text text-anchor="middle" x="1348" y="-117" font-family="Helvetica,sans-Serif" font-size="10.00">PolyglotText.h</text>
</a>
</g>
</g>
<!-- Node23&#45;&gt;Node26 -->
<g id="edge33_Node000023_Node000026" class="edge">
<title>Node23&#45;&gt;Node26</title>
<g id="a_edge33_Node000023_Node000026"><a xlink:title=" ">
<path fill="none" stroke="#63b8ff" d="M1161.67,-164.98C1199.83,-155.87 1260.47,-141.4 1302.15,-131.45"/>
<polygon fill="#63b8ff" stroke="#63b8ff" points="1303.14,-134.81 1312.05,-129.08 1301.51,-128 1303.14,-134.81"/>
</a>
</g>
</g>
<!-- Node24&#45;&gt;Node11 -->
<g id="edge32_Node000024_Node000011" class="edge">
<title>Node24&#45;&gt;Node11</title>
<g id="a_edge32_Node000024_Node000011"><a xlink:title=" ">
<path fill="none" stroke="#63b8ff" d="M1218.49,-109.68C1212.3,-100.97 1203.06,-87.09 1197,-74 1190.32,-59.56 1185.04,-42.29 1181.59,-29.4"/>
<polygon fill="#63b8ff" stroke="#63b8ff" points="1184.9,-28.22 1179.03,-19.39 1178.11,-29.95 1184.9,-28.22"/>
</a>
</g>
</g>
<!-- Node24&#45;&gt;Node25 -->
<g id="edge31_Node000024_Node000025" class="edge">
<title>Node24&#45;&gt;Node25</title>
<g id="a_edge31_Node000024_Node000025"><a xlink:title=" ">
<path fill="none" stroke="#63b8ff" d="M1227.15,-109.75C1228.87,-102.72 1231.35,-92.62 1233.5,-83.84"/>
<polygon fill="#63b8ff" stroke="#63b8ff" points="1236.91,-84.63 1235.89,-74.09 1230.11,-82.97 1236.91,-84.63"/>
</a>
</g>
</g>
<!-- Node27 -->
<g id="Node000027" class="node">
<title>Node27</title>
<g id="a_Node000027"><a xlink:href="IPolyglotText_8h.html" target="_top" xlink:title="Catena&#39;s multi&#45;language text interface.">
<polygon fill="white" stroke="#666666" points="1377.5,-74 1288.5,-74 1288.5,-55 1377.5,-55 1377.5,-74"/>
<text text-anchor="middle" x="1333" y="-62" font-family="Helvetica,sans-Serif" font-size="10.00">IPolyglotText.h</text>
</a>
</g>
</g>
<!-- Node26&#45;&gt;Node27 -->
<g id="edge34_Node000026_Node000027" class="edge">
<title>Node26&#45;&gt;Node27</title>
<g id="a_edge34_Node000026_Node000027"><a xlink:title=" ">
<path fill="none" stroke="#63b8ff" d="M1345.52,-109.75C1343.54,-102.72 1340.68,-92.62 1338.19,-83.84"/>
<polygon fill="#63b8ff" stroke="#63b8ff" points="1341.52,-82.76 1335.43,-74.09 1334.79,-84.66 1341.52,-82.76"/>
</a>
</g>
</g>
<!-- Node27&#45;&gt;Node11 -->
<g id="edge37_Node000027_Node000011" class="edge">
<title>Node27&#45;&gt;Node11</title>
<g id="a_edge37_Node000027_Node000011"><a xlink:title=" ">
<path fill="none" stroke="#63b8ff" d="M1307.94,-54.98C1281.12,-45.88 1238.51,-31.4 1209.23,-21.45"/>
<polygon fill="#63b8ff" stroke="#63b8ff" points="1210.06,-18.04 1199.47,-18.13 1207.81,-24.67 1210.06,-18.04"/>
</a>
</g>
</g>
<!-- Node27&#45;&gt;Node17 -->
<g id="edge36_Node000027_Node000017" class="edge">
<title>Node27&#45;&gt;Node17</title>
<g id="a_edge36_Node000027_Node000017"><a xlink:title=" ">
<path fill="none" stroke="#63b8ff" d="M1288.21,-56.08C1285.44,-55.69 1282.68,-55.33 1280,-55 1113.6,-34.51 915.86,-20.26 820.71,-14.03"/>
<polygon fill="#63b8ff" stroke="#63b8ff" points="820.93,-10.54 810.72,-13.38 820.48,-17.52 820.93,-10.54"/>
</a>
</g>
</g>
<!-- Node28 -->
<g id="Node000028" class="node">
<title>Node28</title>
<g id="a_Node000028"><a xlink:title=" ">
<polygon fill="#e0e0e0" stroke="#999999" points="1374,-19 1242,-19 1242,0 1374,0 1374,-19"/>
<text text-anchor="middle" x="1308" y="-7" font-family="Helvetica,sans-Serif" font-size="10.00">interface/language.pb.h</text>
</a>
</g>
</g>
<!-- Node27&#45;&gt;Node28 -->
<g id="edge35_Node000027_Node000028" class="edge">
<title>Node27&#45;&gt;Node28</title>
<g id="a_edge35_Node000027_Node000028"><a xlink:title=" ">
<path fill="none" stroke="#63b8ff" d="M1328.87,-54.75C1325.49,-47.57 1320.58,-37.18 1316.38,-28.27"/>
<polygon fill="#63b8ff" stroke="#63b8ff" points="1319.48,-26.64 1312.05,-19.09 1313.15,-29.63 1319.48,-26.64"/>
</a>
</g>
</g>
<!-- Node29 -->
<g id="Node000029" class="node">
<title>Node29</title>
<g id="a_Node000029"><a xlink:title=" ">
<polygon fill="#e0e0e0" stroke="#999999" points="1475.5,-19 1392.5,-19 1392.5,0 1475.5,0 1475.5,-19"/>
<text text-anchor="middle" x="1434" y="-7" font-family="Helvetica,sans-Serif" font-size="10.00">initializer_list</text>
</a>
</g>
</g>
<!-- Node27&#45;&gt;Node29 -->
<g id="edge38_Node000027_Node000029" class="edge">
<title>Node27&#45;&gt;Node29</title>
<g id="a_edge38_Node000027_Node000029"><a xlink:title=" ">
<path fill="none" stroke="#63b8ff" d="M1349.23,-54.98C1365.18,-46.61 1389.78,-33.7 1408.38,-23.95"/>
<polygon fill="#63b8ff" stroke="#63b8ff" points="1410.25,-26.92 1417.48,-19.17 1407,-20.72 1410.25,-26.92"/>
</a>
</g>
</g>
<!-- Node31 -->
<g id="Node000031" class="node">
<title>Node31</title>
<g id="a_Node000031"><a xlink:title=" ">
<polygon fill="#e0e0e0" stroke="#999999" points="808,-129 752,-129 752,-110 808,-110 808,-129"/>
<text text-anchor="middle" x="780" y="-117" font-family="Helvetica,sans-Serif" font-size="10.00">sstream</text>
</a>
</g>
</g>
<!-- Node30&#45;&gt;Node31 -->
<g id="edge42_Node000030_Node000031" class="edge">
<title>Node30&#45;&gt;Node31</title>
<g id="a_edge42_Node000030_Node000031"><a xlink:title=" ">
<path fill="none" stroke="#63b8ff" d="M846.31,-164.98C834.17,-156.84 815.64,-144.41 801.25,-134.76"/>
<polygon fill="#63b8ff" stroke="#63b8ff" points="803.18,-131.84 792.92,-129.17 799.28,-137.65 803.18,-131.84"/>
</a>
</g>
</g>
<!-- Node32 -->
<g id="Node000032" class="node">
<title>Node32</title>
<g id="a_Node000032"><a xlink:title=" ">
<polygon fill="#e0e0e0" stroke="#999999" points="891.5,-129 826.5,-129 826.5,-110 891.5,-110 891.5,-129"/>
<text text-anchor="middle" x="859" y="-117" font-family="Helvetica,sans-Serif" font-size="10.00">stdexcept</text>
</a>
</g>
</g>
<!-- Node30&#45;&gt;Node32 -->
<g id="edge43_Node000030_Node000032" class="edge">
<title>Node30&#45;&gt;Node32</title>
<g id="a_edge43_Node000030_Node000032"><a xlink:title=" ">
<path fill="none" stroke="#63b8ff" d="M859,-164.75C859,-157.8 859,-147.85 859,-139.13"/>
<polygon fill="#63b8ff" stroke="#63b8ff" points="862.5,-139.09 859,-129.09 855.5,-139.09 862.5,-139.09"/>
</a>
</g>
</g>
</g>
</svg>
