<?xml version="1.0" encoding="UTF-8" standalone="no"?>
<!DOCTYPE svg PUBLIC "-//W3C//DTD SVG 1.1//EN"
 "http://www.w3.org/Graphics/SVG/1.1/DTD/svg11.dtd">
<!-- Generated by graphviz version 2.43.0 (0)
 -->
<!-- Title: /home/runner/work/Catena/Catena/sdks/cpp/common/include/StructInfo.h Pages: 1 -->
<svg width="1778pt" height="390pt"
 viewBox="0.00 0.00 1777.50 390.00" xmlns="http://www.w3.org/2000/svg" xmlns:xlink="http://www.w3.org/1999/xlink">
<g id="graph0" class="graph" transform="scale(1 1) rotate(0) translate(4 386)">
<title>/home/runner/work/Catena/Catena/sdks/cpp/common/include/StructInfo.h</title>
<!-- Node1 -->
<g id="Node000001" class="node">
<title>Node1</title>
<g id="a_Node000001"><a xlink:title="Structured data serialization and deserialization to protobuf.">
<polygon fill="#999999" stroke="#666666" points="969,-382 823,-382 823,-341 969,-341 969,-382"/>
<text text-anchor="start" x="831" y="-370" font-family="Helvetica,sans-Serif" font-size="10.00">/home/runner/work/Catena</text>
<text text-anchor="start" x="831" y="-359" font-family="Helvetica,sans-Serif" font-size="10.00">/Catena/sdks/cpp/common</text>
<text text-anchor="middle" x="896" y="-348" font-family="Helvetica,sans-Serif" font-size="10.00">/include/StructInfo.h</text>
</a>
</g>
</g>
<!-- Node2 -->
<g id="Node000002" class="node">
<title>Node2</title>
<g id="a_Node000002"><a xlink:href="Typelist_8h.html" target="_top" xlink:title="Type list meta programming.">
<polygon fill="white" stroke="#666666" points="92,-305 0,-305 0,-286 92,-286 92,-305"/>
<text text-anchor="middle" x="46" y="-293" font-family="Helvetica,sans-Serif" font-size="10.00">meta/Typelist.h</text>
</a>
</g>
</g>
<!-- Node1&#45;&gt;Node2 -->
<g id="edge1_Node000001_Node000002" class="edge">
<title>Node1&#45;&gt;Node2</title>
<g id="a_edge1_Node000001_Node000002"><a xlink:title=" ">
<path fill="none" stroke="#63b8ff" d="M822.88,-357.09C683.26,-350.2 369.2,-332.85 106,-305 104.73,-304.87 103.46,-304.73 102.17,-304.58"/>
<polygon fill="#63b8ff" stroke="#63b8ff" points="102.49,-301.09 92.15,-303.37 101.66,-308.04 102.49,-301.09"/>
</a>
</g>
</g>
<!-- Node3 -->
<g id="Node000003" class="node">
<title>Node3</title>
<g id="a_Node000003"><a xlink:href="IsVector_8h.html" target="_top" xlink:title="Checks if a type is a vector.">
<polygon fill="white" stroke="#666666" points="278,-195 186,-195 186,-176 278,-176 278,-195"/>
<text text-anchor="middle" x="232" y="-183" font-family="Helvetica,sans-Serif" font-size="10.00">meta/IsVector.h</text>
</a>
</g>
</g>
<!-- Node1&#45;&gt;Node3 -->
<g id="edge2_Node000001_Node000003" class="edge">
<title>Node1&#45;&gt;Node3</title>
<g id="a_edge2_Node000001_Node000003"><a xlink:title=" ">
<path fill="none" stroke="#63b8ff" d="M822.82,-342.76C735.54,-321.44 585.33,-284.25 457,-250 391.56,-232.53 315.82,-210.86 271.03,-197.88"/>
<polygon fill="#63b8ff" stroke="#63b8ff" points="271.99,-194.51 261.41,-195.09 270.04,-201.24 271.99,-194.51"/>
</a>
</g>
</g>
<!-- Node4 -->
<g id="Node000004" class="node">
<title>Node4</title>
<g id="a_Node000004"><a xlink:title=" ">
<polygon fill="#e0e0e0" stroke="#999999" points="195.5,-85 148.5,-85 148.5,-66 195.5,-66 195.5,-85"/>
<text text-anchor="middle" x="172" y="-73" font-family="Helvetica,sans-Serif" font-size="10.00">vector</text>
</a>
</g>
</g>
<!-- Node1&#45;&gt;Node4 -->
<g id="edge62_Node000001_Node000004" class="edge">
<title>Node1&#45;&gt;Node4</title>
<g id="a_edge62_Node000001_Node000004"><a xlink:title=" ">
<path fill="none" stroke="#63b8ff" d="M822.88,-356.32C636.45,-344.71 158,-308.38 158,-241.5 158,-241.5 158,-241.5 158,-184.5 158,-152.93 163.96,-116.59 168.1,-95.14"/>
<polygon fill="#63b8ff" stroke="#63b8ff" points="171.57,-95.62 170.11,-85.13 164.71,-94.24 171.57,-95.62"/>
</a>
</g>
</g>
<!-- Node6 -->
<g id="Node000006" class="node">
<title>Node6</title>
<g id="a_Node000006"><a xlink:href="Variant_8h.html" target="_top" xlink:title="Meta programming to test if an object is a std::variant.">
<polygon fill="white" stroke="#666666" points="91.5,-140 2.5,-140 2.5,-121 91.5,-121 91.5,-140"/>
<text text-anchor="middle" x="47" y="-128" font-family="Helvetica,sans-Serif" font-size="10.00">meta/Variant.h</text>
</a>
</g>
</g>
<!-- Node1&#45;&gt;Node6 -->
<g id="edge5_Node000001_Node000006" class="edge">
<title>Node1&#45;&gt;Node6</title>
<g id="a_edge5_Node000001_Node000006"><a xlink:title=" ">
<path fill="none" stroke="#63b8ff" d="M822.82,-359.01C644.95,-354.84 200.34,-340.9 144,-305 87.29,-268.87 60.72,-187.23 51.25,-150.29"/>
<polygon fill="#63b8ff" stroke="#63b8ff" points="54.61,-149.25 48.85,-140.36 47.8,-150.9 54.61,-149.25"/>
</a>
</g>
</g>
<!-- Node8 -->
<g id="Node000008" class="node">
<title>Node8</title>
<g id="a_Node000008"><a xlink:href="Authorization_8h.html" target="_top" xlink:title="Class for handling authorization information.">
<polygon fill="white" stroke="#666666" points="941.5,-305 850.5,-305 850.5,-286 941.5,-286 941.5,-305"/>
<text text-anchor="middle" x="896" y="-293" font-family="Helvetica,sans-Serif" font-size="10.00">Authorization.h</text>
</a>
</g>
</g>
<!-- Node1&#45;&gt;Node8 -->
<g id="edge8_Node000001_Node000008" class="edge">
<title>Node1&#45;&gt;Node8</title>
<g id="a_edge8_Node000001_Node000008"><a xlink:title=" ">
<path fill="none" stroke="#63b8ff" d="M896,-340.95C896,-332.85 896,-323.5 896,-315.47"/>
<polygon fill="#63b8ff" stroke="#63b8ff" points="899.5,-315.26 896,-305.26 892.5,-315.26 899.5,-315.26"/>
</a>
</g>
</g>
<!-- Node11 -->
<g id="Node000011" class="node">
<title>Node11</title>
<g id="a_Node000011"><a xlink:title=" ">
<polygon fill="#e0e0e0" stroke="#999999" points="1302,-24.5 1258,-24.5 1258,-5.5 1302,-5.5 1302,-24.5"/>
<text text-anchor="middle" x="1280" y="-12.5" font-family="Helvetica,sans-Serif" font-size="10.00">string</text>
</a>
</g>
</g>
<!-- Node1&#45;&gt;Node11 -->
<g id="edge60_Node000001_Node000011" class="edge">
<title>Node1&#45;&gt;Node11</title>
<g id="a_edge60_Node000001_Node000011"><a xlink:title=" ">
<path fill="none" stroke="#63b8ff" d="M969.1,-359.57C1117.04,-355.71 1438,-336.39 1438,-241.5 1438,-241.5 1438,-241.5 1438,-184.5 1438,-152.06 1422.6,-146.06 1402,-121 1371.53,-83.92 1327.03,-49.33 1301.04,-30.58"/>
<polygon fill="#63b8ff" stroke="#63b8ff" points="1302.85,-27.58 1292.67,-24.63 1298.8,-33.28 1302.85,-27.58"/>
</a>
</g>
</g>
<!-- Node21 -->
<g id="Node000021" class="node">
<title>Node21</title>
<g id="a_Node000021"><a xlink:title=" ">
<polygon fill="#e0e0e0" stroke="#999999" points="1213.5,-85 1094.5,-85 1094.5,-66 1213.5,-66 1213.5,-85"/>
<text text-anchor="middle" x="1154" y="-73" font-family="Helvetica,sans-Serif" font-size="10.00">interface/param.pb.h</text>
</a>
</g>
</g>
<!-- Node1&#45;&gt;Node21 -->
<g id="edge59_Node000001_Node000021" class="edge">
<title>Node1&#45;&gt;Node21</title>
<g id="a_edge59_Node000001_Node000021"><a xlink:title=" ">
<path fill="none" stroke="#63b8ff" d="M969.02,-358.35C1108.7,-352.23 1400,-328.99 1400,-241.5 1400,-241.5 1400,-241.5 1400,-184.5 1400,-155.04 1402.82,-140.79 1381,-121 1358.27,-100.38 1281.78,-88.52 1223.82,-82.31"/>
<polygon fill="#63b8ff" stroke="#63b8ff" points="1223.9,-78.8 1213.6,-81.25 1223.18,-85.76 1223.9,-78.8"/>
</a>
</g>
</g>
<!-- Node36 -->
<g id="Node000036" class="node">
<title>Node36</title>
<g id="a_Node000036"><a xlink:title=" ">
<polygon fill="#e0e0e0" stroke="#999999" points="1519.5,-305 1466.5,-305 1466.5,-286 1519.5,-286 1519.5,-305"/>
<text text-anchor="middle" x="1493" y="-293" font-family="Helvetica,sans-Serif" font-size="10.00">cstddef</text>
</a>
</g>
</g>
<!-- Node1&#45;&gt;Node36 -->
<g id="edge61_Node000001_Node000036" class="edge">
<title>Node1&#45;&gt;Node36</title>
<g id="a_edge61_Node000001_Node000036"><a xlink:title=" ">
<path fill="none" stroke="#63b8ff" d="M969.17,-355.66C1075.78,-348.04 1279.88,-331.36 1452,-305 1453.29,-304.8 1454.61,-304.59 1455.93,-304.37"/>
<polygon fill="#63b8ff" stroke="#63b8ff" points="1456.97,-307.74 1466.17,-302.48 1455.7,-300.85 1456.97,-307.74"/>
</a>
</g>
</g>
<!-- Node37 -->
<g id="Node000037" class="node">
<title>Node37</title>
<g id="a_Node000037"><a xlink:title=" ">
<polygon fill="#e0e0e0" stroke="#999999" points="1582.5,-305 1537.5,-305 1537.5,-286 1582.5,-286 1582.5,-305"/>
<text text-anchor="middle" x="1560" y="-293" font-family="Helvetica,sans-Serif" font-size="10.00">utility</text>
</a>
</g>
</g>
<!-- Node1&#45;&gt;Node37 -->
<g id="edge63_Node000001_Node000037" class="edge">
<title>Node1&#45;&gt;Node37</title>
<g id="a_edge63_Node000001_Node000037"><a xlink:title=" ">
<path fill="none" stroke="#63b8ff" d="M969.19,-358.36C1085.74,-354.01 1320.67,-341.41 1527.29,-305"/>
<polygon fill="#63b8ff" stroke="#63b8ff" points="1528.19,-308.4 1537.42,-303.2 1526.96,-301.51 1528.19,-308.4"/>
</a>
</g>
</g>
<!-- Node3&#45;&gt;Node4 -->
<g id="edge3_Node000003_Node000004" class="edge">
<title>Node3&#45;&gt;Node4</title>
<g id="a_edge3_Node000003_Node000004"><a xlink:title=" ">
<path fill="none" stroke="#63b8ff" d="M227.09,-175.66C217.2,-157.85 194.7,-117.37 181.73,-94.01"/>
<polygon fill="#63b8ff" stroke="#63b8ff" points="184.73,-92.2 176.81,-85.16 178.61,-95.6 184.73,-92.2"/>
</a>
</g>
</g>
<!-- Node5 -->
<g id="Node000005" class="node">
<title>Node5</title>
<g id="a_Node000005"><a xlink:title=" ">
<polygon fill="#e0e0e0" stroke="#999999" points="264.5,-24.5 195.5,-24.5 195.5,-5.5 264.5,-5.5 264.5,-24.5"/>
<text text-anchor="middle" x="230" y="-12.5" font-family="Helvetica,sans-Serif" font-size="10.00">type_traits</text>
</a>
</g>
</g>
<!-- Node3&#45;&gt;Node5 -->
<g id="edge4_Node000003_Node000005" class="edge">
<title>Node3&#45;&gt;Node5</title>
<g id="a_edge4_Node000003_Node000005"><a xlink:title=" ">
<path fill="none" stroke="#63b8ff" d="M219.25,-175.92C197.82,-160.63 155.32,-126.35 139,-85 128.24,-57.74 160.24,-38.96 189.2,-27.95"/>
<polygon fill="#63b8ff" stroke="#63b8ff" points="190.6,-31.17 198.85,-24.52 188.25,-24.58 190.6,-31.17"/>
</a>
</g>
</g>
<!-- Node6&#45;&gt;Node5 -->
<g id="edge6_Node000006_Node000005" class="edge">
<title>Node6&#45;&gt;Node5</title>
<g id="a_edge6_Node000006_Node000005"><a xlink:title=" ">
<path fill="none" stroke="#63b8ff" d="M40.57,-120.74C31.73,-107.53 18.28,-82.32 31,-66 49.74,-41.97 132.32,-27.73 185.03,-20.92"/>
<polygon fill="#63b8ff" stroke="#63b8ff" points="185.66,-24.37 195.15,-19.66 184.79,-17.42 185.66,-24.37"/>
</a>
</g>
</g>
<!-- Node7 -->
<g id="Node000007" class="node">
<title>Node7</title>
<g id="a_Node000007"><a xlink:title=" ">
<polygon fill="#e0e0e0" stroke="#999999" points="91.5,-85 40.5,-85 40.5,-66 91.5,-66 91.5,-85"/>
<text text-anchor="middle" x="66" y="-73" font-family="Helvetica,sans-Serif" font-size="10.00">variant</text>
</a>
</g>
</g>
<!-- Node6&#45;&gt;Node7 -->
<g id="edge7_Node000006_Node000007" class="edge">
<title>Node6&#45;&gt;Node7</title>
<g id="a_edge7_Node000006_Node000007"><a xlink:title=" ">
<path fill="none" stroke="#63b8ff" d="M50.14,-120.75C52.68,-113.65 56.36,-103.4 59.53,-94.56"/>
<polygon fill="#63b8ff" stroke="#63b8ff" points="62.84,-95.68 62.92,-85.09 56.25,-93.32 62.84,-95.68"/>
</a>
</g>
</g>
<!-- Node9 -->
<g id="Node000009" class="node">
<title>Node9</title>
<g id="a_Node000009"><a xlink:href="Path_8h.html" target="_top" xlink:title="Handles Path objects used to uniquely identify and access OIDs.">
<polygon fill="white" stroke="#666666" points="353.5,-140 306.5,-140 306.5,-121 353.5,-121 353.5,-140"/>
<text text-anchor="middle" x="330" y="-128" font-family="Helvetica,sans-Serif" font-size="10.00">Path.h</text>
</a>
</g>
</g>
<!-- Node8&#45;&gt;Node9 -->
<g id="edge9_Node000008_Node000009" class="edge">
<title>Node8&#45;&gt;Node9</title>
<g id="a_edge9_Node000008_Node000009"><a xlink:title=" ">
<path fill="none" stroke="#63b8ff" d="M850.41,-290.7C737.12,-280.52 446.33,-249.62 368,-195 352.23,-184 341.91,-164.16 336.06,-149.57"/>
<polygon fill="#63b8ff" stroke="#63b8ff" points="339.31,-148.26 332.57,-140.08 332.73,-150.67 339.31,-148.26"/>
</a>
</g>
</g>
<!-- Node13 -->
<g id="Node000013" class="node">
<title>Node13</title>
<g id="a_Node000013"><a xlink:href="Enums_8h.html" target="_top" xlink:title="tools for using EnumDecorators.">
<polygon fill="white" stroke="#666666" points="733.5,-140 674.5,-140 674.5,-121 733.5,-121 733.5,-140"/>
<text text-anchor="middle" x="704" y="-128" font-family="Helvetica,sans-Serif" font-size="10.00">Enums.h</text>
</a>
</g>
</g>
<!-- Node8&#45;&gt;Node13 -->
<g id="edge15_Node000008_Node000013" class="edge">
<title>Node8&#45;&gt;Node13</title>
<g id="a_edge15_Node000008_Node000013"><a xlink:title=" ">
<path fill="none" stroke="#63b8ff" d="M885.95,-285.97C855.25,-259.9 762.37,-181.06 722.5,-147.21"/>
<polygon fill="#63b8ff" stroke="#63b8ff" points="724.31,-144.15 714.42,-140.34 719.78,-149.48 724.31,-144.15"/>
</a>
</g>
</g>
<!-- Node19 -->
<g id="Node000019" class="node">
<title>Node19</title>
<g id="a_Node000019"><a xlink:href="IParam_8h.html" target="_top" xlink:title="Interface for parameters.">
<polygon fill="white" stroke="#666666" points="925.5,-195 866.5,-195 866.5,-176 925.5,-176 925.5,-195"/>
<text text-anchor="middle" x="896" y="-183" font-family="Helvetica,sans-Serif" font-size="10.00">IParam.h</text>
</a>
</g>
</g>
<!-- Node8&#45;&gt;Node19 -->
<g id="edge24_Node000008_Node000019" class="edge">
<title>Node8&#45;&gt;Node19</title>
<g id="a_edge24_Node000008_Node000019"><a xlink:title=" ">
<path fill="none" stroke="#63b8ff" d="M896,-285.66C896,-268.17 896,-228.8 896,-205.27"/>
<polygon fill="#63b8ff" stroke="#63b8ff" points="899.5,-205.16 896,-195.16 892.5,-205.16 899.5,-205.16"/>
</a>
</g>
</g>
<!-- Node26 -->
<g id="Node000026" class="node">
<title>Node26</title>
<g id="a_Node000026"><a xlink:href="ParamDescriptor_8h.html" target="_top" xlink:title="Interface for accessing parameter descriptions.">
<polygon fill="white" stroke="#666666" points="1090,-250 984,-250 984,-231 1090,-231 1090,-250"/>
<text text-anchor="middle" x="1037" y="-238" font-family="Helvetica,sans-Serif" font-size="10.00">ParamDescriptor.h</text>
</a>
</g>
</g>
<!-- Node8&#45;&gt;Node26 -->
<g id="edge34_Node000008_Node000026" class="edge">
<title>Node8&#45;&gt;Node26</title>
<g id="a_edge34_Node000008_Node000026"><a xlink:title=" ">
<path fill="none" stroke="#63b8ff" d="M918.65,-285.98C941.85,-277.27 978.12,-263.63 1004.4,-253.75"/>
<polygon fill="#63b8ff" stroke="#63b8ff" points="1005.8,-256.97 1013.93,-250.17 1003.34,-250.41 1005.8,-256.97"/>
</a>
</g>
</g>
<!-- Node28 -->
<g id="Node000028" class="node">
<title>Node28</title>
<g id="a_Node000028"><a xlink:title=" ">
<polygon fill="#e0e0e0" stroke="#999999" points="1371.5,-140 1306.5,-140 1306.5,-121 1371.5,-121 1371.5,-140"/>
<text text-anchor="middle" x="1339" y="-128" font-family="Helvetica,sans-Serif" font-size="10.00">functional</text>
</a>
</g>
</g>
<!-- Node8&#45;&gt;Node28 -->
<g id="edge58_Node000008_Node000028" class="edge">
<title>Node8&#45;&gt;Node28</title>
<g id="a_edge58_Node000008_Node000028"><a xlink:title=" ">
<path fill="none" stroke="#63b8ff" d="M941.67,-290.06C1040.92,-279.49 1271.66,-249.51 1325,-195 1336.46,-183.29 1339.43,-164.43 1339.84,-150.31"/>
<polygon fill="#63b8ff" stroke="#63b8ff" points="1343.34,-150.19 1339.75,-140.22 1336.34,-150.25 1343.34,-150.19"/>
</a>
</g>
</g>
<!-- Node9&#45;&gt;Node4 -->
<g id="edge12_Node000009_Node000004" class="edge">
<title>Node9&#45;&gt;Node4</title>
<g id="a_edge12_Node000009_Node000004"><a xlink:title=" ">
<path fill="none" stroke="#63b8ff" d="M306.35,-121.57C279.51,-112.56 235.54,-97.81 205.26,-87.66"/>
<polygon fill="#63b8ff" stroke="#63b8ff" points="206.15,-84.26 195.56,-84.4 203.93,-90.9 206.15,-84.26"/>
</a>
</g>
</g>
<!-- Node9&#45;&gt;Node7 -->
<g id="edge13_Node000009_Node000007" class="edge">
<title>Node9&#45;&gt;Node7</title>
<g id="a_edge13_Node000009_Node000007"><a xlink:title=" ">
<path fill="none" stroke="#63b8ff" d="M306.11,-124.7C259.48,-115.34 156.17,-94.6 101.51,-83.63"/>
<polygon fill="#63b8ff" stroke="#63b8ff" points="102.07,-80.17 91.58,-81.63 100.69,-87.03 102.07,-80.17"/>
</a>
</g>
</g>
<!-- Node10 -->
<g id="Node000010" class="node">
<title>Node10</title>
<g id="a_Node000010"><a xlink:title=" ">
<polygon fill="#e0e0e0" stroke="#999999" points="274,-85 214,-85 214,-66 274,-66 274,-85"/>
<text text-anchor="middle" x="244" y="-73" font-family="Helvetica,sans-Serif" font-size="10.00">iostream</text>
</a>
</g>
</g>
<!-- Node9&#45;&gt;Node10 -->
<g id="edge10_Node000009_Node000010" class="edge">
<title>Node9&#45;&gt;Node10</title>
<g id="a_edge10_Node000009_Node000010"><a xlink:title=" ">
<path fill="none" stroke="#63b8ff" d="M316.18,-120.98C302.85,-112.77 282.42,-100.18 266.69,-90.49"/>
<polygon fill="#63b8ff" stroke="#63b8ff" points="268.42,-87.44 258.07,-85.17 264.75,-93.4 268.42,-87.44"/>
</a>
</g>
</g>
<!-- Node9&#45;&gt;Node11 -->
<g id="edge11_Node000009_Node000011" class="edge">
<title>Node9&#45;&gt;Node11</title>
<g id="a_edge11_Node000009_Node000011"><a xlink:title=" ">
<path fill="none" stroke="#63b8ff" d="M353.75,-127.85C401.04,-124.05 509.93,-112.82 597,-85 615.37,-79.13 617.39,-71.06 636,-66 753.28,-34.12 1133.65,-20.38 1247.51,-16.92"/>
<polygon fill="#63b8ff" stroke="#63b8ff" points="1247.79,-20.41 1257.68,-16.61 1247.58,-13.41 1247.79,-20.41"/>
</a>
</g>
</g>
<!-- Node12 -->
<g id="Node000012" class="node">
<title>Node12</title>
<g id="a_Node000012"><a xlink:title=" ">
<polygon fill="#e0e0e0" stroke="#999999" points="350,-85 292,-85 292,-66 350,-66 350,-85"/>
<text text-anchor="middle" x="321" y="-73" font-family="Helvetica,sans-Serif" font-size="10.00">memory</text>
</a>
</g>
</g>
<!-- Node9&#45;&gt;Node12 -->
<g id="edge14_Node000009_Node000012" class="edge">
<title>Node9&#45;&gt;Node12</title>
<g id="a_edge14_Node000009_Node000012"><a xlink:title=" ">
<path fill="none" stroke="#63b8ff" d="M328.51,-120.75C327.33,-113.8 325.64,-103.85 324.16,-95.13"/>
<polygon fill="#63b8ff" stroke="#63b8ff" points="327.58,-94.36 322.46,-85.09 320.68,-95.53 327.58,-94.36"/>
</a>
</g>
</g>
<!-- Node14 -->
<g id="Node000014" class="node">
<title>Node14</title>
<g id="a_Node000014"><a xlink:href="EnumDecorator_8h.html" target="_top" xlink:title="Provides an enum with useful extra functionality.">
<polygon fill="white" stroke="#666666" points="588,-85 444,-85 444,-66 588,-66 588,-85"/>
<text text-anchor="middle" x="516" y="-73" font-family="Helvetica,sans-Serif" font-size="10.00">patterns/EnumDecorator.h</text>
</a>
</g>
</g>
<!-- Node13&#45;&gt;Node14 -->
<g id="edge16_Node000013_Node000014" class="edge">
<title>Node13&#45;&gt;Node14</title>
<g id="a_edge16_Node000013_Node000014"><a xlink:title=" ">
<path fill="none" stroke="#63b8ff" d="M674.21,-121.1C642.36,-112.12 591.67,-97.83 556.27,-87.85"/>
<polygon fill="#63b8ff" stroke="#63b8ff" points="556.85,-84.38 546.27,-85.03 554.95,-91.12 556.85,-84.38"/>
</a>
</g>
</g>
<!-- Node16 -->
<g id="Node000016" class="node">
<title>Node16</title>
<g id="a_Node000016"><a xlink:title=" ">
<polygon fill="#e0e0e0" stroke="#999999" points="442,-24.5 392,-24.5 392,-5.5 442,-5.5 442,-24.5"/>
<text text-anchor="middle" x="417" y="-12.5" font-family="Helvetica,sans-Serif" font-size="10.00">cstdint</text>
</a>
</g>
</g>
<!-- Node13&#45;&gt;Node16 -->
<g id="edge23_Node000013_Node000016" class="edge">
<title>Node13&#45;&gt;Node16</title>
<g id="a_edge23_Node000013_Node000016"><a xlink:title=" ">
<path fill="none" stroke="#63b8ff" d="M674.16,-128.55C611.6,-125.93 469.61,-116.59 435,-85 421.17,-72.37 417.4,-50.58 416.63,-34.85"/>
<polygon fill="#63b8ff" stroke="#63b8ff" points="420.13,-34.65 416.5,-24.7 413.13,-34.74 420.13,-34.65"/>
</a>
</g>
</g>
<!-- Node18 -->
<g id="Node000018" class="node">
<title>Node18</title>
<g id="a_Node000018"><a xlink:title=" ">
<polygon fill="#e0e0e0" stroke="#999999" points="763.5,-85 644.5,-85 644.5,-66 763.5,-66 763.5,-85"/>
<text text-anchor="middle" x="704" y="-73" font-family="Helvetica,sans-Serif" font-size="10.00">interface/device.pb.h</text>
</a>
</g>
</g>
<!-- Node13&#45;&gt;Node18 -->
<g id="edge22_Node000013_Node000018" class="edge">
<title>Node13&#45;&gt;Node18</title>
<g id="a_edge22_Node000013_Node000018"><a xlink:title=" ">
<path fill="none" stroke="#63b8ff" d="M704,-120.75C704,-113.8 704,-103.85 704,-95.13"/>
<polygon fill="#63b8ff" stroke="#63b8ff" points="707.5,-95.09 704,-85.09 700.5,-95.09 707.5,-95.09"/>
</a>
</g>
</g>
<!-- Node14&#45;&gt;Node5 -->
<g id="edge21_Node000014_Node000005" class="edge">
<title>Node14&#45;&gt;Node5</title>
<g id="a_edge21_Node000014_Node000005"><a xlink:title=" ">
<path fill="none" stroke="#63b8ff" d="M474.41,-65.99C421.29,-55.13 329.69,-36.39 274.99,-25.2"/>
<polygon fill="#63b8ff" stroke="#63b8ff" points="275.39,-21.71 264.89,-23.14 273.99,-28.57 275.39,-21.71"/>
</a>
</g>
</g>
<!-- Node14&#45;&gt;Node11 -->
<g id="edge20_Node000014_Node000011" class="edge">
<title>Node14&#45;&gt;Node11</title>
<g id="a_edge20_Node000014_Node000011"><a xlink:title=" ">
<path fill="none" stroke="#63b8ff" d="M588.25,-67.23C592.9,-66.8 597.52,-66.39 602,-66 850.22,-44.58 1150.07,-24.49 1247.64,-18.1"/>
<polygon fill="#63b8ff" stroke="#63b8ff" points="1247.99,-21.58 1257.74,-17.44 1247.54,-14.6 1247.99,-21.58"/>
</a>
</g>
</g>
<!-- Node15 -->
<g id="Node000015" class="node">
<title>Node15</title>
<g id="a_Node000015"><a xlink:href="ReflectionMacros_8h.html" target="_top" xlink:title="adapted from https://github.com/tapika/TestCppReflect">
<polygon fill="white" stroke="#666666" points="571,-24.5 461,-24.5 461,-5.5 571,-5.5 571,-24.5"/>
<text text-anchor="middle" x="516" y="-12.5" font-family="Helvetica,sans-Serif" font-size="10.00">ReflectionMacros.h</text>
</a>
</g>
</g>
<!-- Node14&#45;&gt;Node15 -->
<g id="edge17_Node000014_Node000015" class="edge">
<title>Node14&#45;&gt;Node15</title>
<g id="a_edge17_Node000014_Node000015"><a xlink:title=" ">
<path fill="none" stroke="#63b8ff" d="M516,-65.87C516,-57.75 516,-45.31 516,-34.89"/>
<polygon fill="#63b8ff" stroke="#63b8ff" points="519.5,-34.67 516,-24.67 512.5,-34.67 519.5,-34.67"/>
</a>
</g>
</g>
<!-- Node14&#45;&gt;Node16 -->
<g id="edge18_Node000014_Node000016" class="edge">
<title>Node14&#45;&gt;Node16</title>
<g id="a_edge18_Node000014_Node000016"><a xlink:title=" ">
<path fill="none" stroke="#63b8ff" d="M501.39,-65.87C485.31,-56.36 459.22,-40.95 440.3,-29.77"/>
<polygon fill="#63b8ff" stroke="#63b8ff" points="442.06,-26.74 431.67,-24.67 438.5,-32.77 442.06,-26.74"/>
</a>
</g>
</g>
<!-- Node17 -->
<g id="Node000017" class="node">
<title>Node17</title>
<g id="a_Node000017"><a xlink:title=" ">
<polygon fill="#e0e0e0" stroke="#999999" points="1461.5,-24.5 1368.5,-24.5 1368.5,-5.5 1461.5,-5.5 1461.5,-24.5"/>
<text text-anchor="middle" x="1415" y="-12.5" font-family="Helvetica,sans-Serif" font-size="10.00">unordered_map</text>
</a>
</g>
</g>
<!-- Node14&#45;&gt;Node17 -->
<g id="edge19_Node000014_Node000017" class="edge">
<title>Node14&#45;&gt;Node17</title>
<g id="a_edge19_Node000014_Node000017"><a xlink:title=" ">
<path fill="none" stroke="#63b8ff" d="M588.01,-69.19C603.82,-68.09 620.47,-66.96 636,-66 935.85,-47.39 1011.89,-58.06 1311,-30 1326.47,-28.55 1343.19,-26.51 1358.59,-24.44"/>
<polygon fill="#63b8ff" stroke="#63b8ff" points="1359.07,-27.9 1368.5,-23.07 1358.11,-20.97 1359.07,-27.9"/>
</a>
</g>
</g>
<!-- Node19&#45;&gt;Node9 -->
<g id="edge29_Node000019_Node000009" class="edge">
<title>Node19&#45;&gt;Node9</title>
<g id="a_edge29_Node000019_Node000009"><a xlink:title=" ">
<path fill="none" stroke="#63b8ff" d="M866.37,-181.73C769.93,-172.69 465.39,-144.18 363.54,-134.64"/>
<polygon fill="#63b8ff" stroke="#63b8ff" points="363.79,-131.15 353.51,-133.7 363.14,-138.12 363.79,-131.15"/>
</a>
</g>
</g>
<!-- Node19&#45;&gt;Node13 -->
<g id="edge25_Node000019_Node000013" class="edge">
<title>Node19&#45;&gt;Node13</title>
<g id="a_edge25_Node000019_Node000013"><a xlink:title=" ">
<path fill="none" stroke="#63b8ff" d="M866.42,-176.33C833.44,-167.23 779.95,-152.46 743.43,-142.38"/>
<polygon fill="#63b8ff" stroke="#63b8ff" points="744.18,-138.96 733.61,-139.67 742.32,-145.71 744.18,-138.96"/>
</a>
</g>
</g>
<!-- Node20 -->
<g id="Node000020" class="node">
<title>Node20</title>
<g id="a_Node000020"><a xlink:href="IConstraint_8h.html" target="_top" xlink:title="Interface for constraints.">
<polygon fill="white" stroke="#666666" points="1015.5,-140 936.5,-140 936.5,-121 1015.5,-121 1015.5,-140"/>
<text text-anchor="middle" x="976" y="-128" font-family="Helvetica,sans-Serif" font-size="10.00">IConstraint.h</text>
</a>
</g>
</g>
<!-- Node19&#45;&gt;Node20 -->
<g id="edge26_Node000019_Node000020" class="edge">
<title>Node19&#45;&gt;Node20</title>
<g id="a_edge26_Node000019_Node000020"><a xlink:title=" ">
<path fill="none" stroke="#63b8ff" d="M908.85,-175.98C921.14,-167.84 939.91,-155.41 954.48,-145.76"/>
<polygon fill="#63b8ff" stroke="#63b8ff" points="956.51,-148.61 962.91,-140.17 952.64,-142.78 956.51,-148.61"/>
</a>
</g>
</g>
<!-- Node19&#45;&gt;Node21 -->
<g id="edge33_Node000019_Node000021" class="edge">
<title>Node19&#45;&gt;Node21</title>
<g id="a_edge33_Node000019_Node000021"><a xlink:title=" ">
<path fill="none" stroke="#63b8ff" d="M924.06,-175.94C950.45,-167.63 990.89,-154.21 1025,-140 1061.98,-124.59 1103.3,-103.54 1128.98,-89.99"/>
<polygon fill="#63b8ff" stroke="#63b8ff" points="1130.82,-92.97 1138.01,-85.18 1127.54,-86.79 1130.82,-92.97"/>
</a>
</g>
</g>
<!-- Node23 -->
<g id="Node000023" class="node">
<title>Node23</title>
<g id="a_Node000023"><a xlink:href="Status_8h.html" target="_top" xlink:title="Communicates failure status using gRPC&#39;s codes.">
<polygon fill="white" stroke="#666666" points="917,-140 861,-140 861,-121 917,-121 917,-140"/>
<text text-anchor="middle" x="889" y="-128" font-family="Helvetica,sans-Serif" font-size="10.00">Status.h</text>
</a>
</g>
</g>
<!-- Node19&#45;&gt;Node23 -->
<g id="edge30_Node000019_Node000023" class="edge">
<title>Node19&#45;&gt;Node23</title>
<g id="a_edge30_Node000019_Node000023"><a xlink:title=" ">
<path fill="none" stroke="#63b8ff" d="M894.84,-175.75C893.93,-168.8 892.61,-158.85 891.46,-150.13"/>
<polygon fill="#63b8ff" stroke="#63b8ff" points="894.91,-149.54 890.13,-140.09 887.97,-150.46 894.91,-149.54"/>
</a>
</g>
</g>
<!-- Node20&#45;&gt;Node21 -->
<g id="edge27_Node000020_Node000021" class="edge">
<title>Node20&#45;&gt;Node21</title>
<g id="a_edge27_Node000020_Node000021"><a xlink:title=" ">
<path fill="none" stroke="#63b8ff" d="M1004.6,-120.98C1034.61,-112.05 1081.98,-97.94 1115.32,-88.02"/>
<polygon fill="#63b8ff" stroke="#63b8ff" points="1116.59,-91.29 1125.18,-85.08 1114.59,-84.58 1116.59,-91.29"/>
</a>
</g>
</g>
<!-- Node22 -->
<g id="Node000022" class="node">
<title>Node22</title>
<g id="a_Node000022"><a xlink:title=" ">
<polygon fill="#e0e0e0" stroke="#999999" points="1076,-85 940,-85 940,-66 1076,-66 1076,-85"/>
<text text-anchor="middle" x="1008" y="-73" font-family="Helvetica,sans-Serif" font-size="10.00">interface/constraint.pb.h</text>
</a>
</g>
</g>
<!-- Node20&#45;&gt;Node22 -->
<g id="edge28_Node000020_Node000022" class="edge">
<title>Node20&#45;&gt;Node22</title>
<g id="a_edge28_Node000020_Node000022"><a xlink:title=" ">
<path fill="none" stroke="#63b8ff" d="M981.28,-120.75C985.71,-113.42 992.16,-102.73 997.62,-93.7"/>
<polygon fill="#63b8ff" stroke="#63b8ff" points="1000.64,-95.46 1002.81,-85.09 994.65,-91.84 1000.64,-95.46"/>
</a>
</g>
</g>
<!-- Node24 -->
<g id="Node000024" class="node">
<title>Node24</title>
<g id="a_Node000024"><a xlink:title=" ">
<polygon fill="#e0e0e0" stroke="#999999" points="838,-85 782,-85 782,-66 838,-66 838,-85"/>
<text text-anchor="middle" x="810" y="-73" font-family="Helvetica,sans-Serif" font-size="10.00">sstream</text>
</a>
</g>
</g>
<!-- Node23&#45;&gt;Node24 -->
<g id="edge31_Node000023_Node000024" class="edge">
<title>Node23&#45;&gt;Node24</title>
<g id="a_edge31_Node000023_Node000024"><a xlink:title=" ">
<path fill="none" stroke="#63b8ff" d="M876.31,-120.98C864.17,-112.84 845.64,-100.41 831.25,-90.76"/>
<polygon fill="#63b8ff" stroke="#63b8ff" points="833.18,-87.84 822.92,-85.17 829.28,-93.65 833.18,-87.84"/>
</a>
</g>
</g>
<!-- Node25 -->
<g id="Node000025" class="node">
<title>Node25</title>
<g id="a_Node000025"><a xlink:title=" ">
<polygon fill="#e0e0e0" stroke="#999999" points="921.5,-85 856.5,-85 856.5,-66 921.5,-66 921.5,-85"/>
<text text-anchor="middle" x="889" y="-73" font-family="Helvetica,sans-Serif" font-size="10.00">stdexcept</text>
</a>
</g>
</g>
<!-- Node23&#45;&gt;Node25 -->
<g id="edge32_Node000023_Node000025" class="edge">
<title>Node23&#45;&gt;Node25</title>
<g id="a_edge32_Node000023_Node000025"><a xlink:title=" ">
<path fill="none" stroke="#63b8ff" d="M889,-120.75C889,-113.8 889,-103.85 889,-95.13"/>
<polygon fill="#63b8ff" stroke="#63b8ff" points="892.5,-95.09 889,-85.09 885.5,-95.09 892.5,-95.09"/>
</a>
</g>
</g>
<!-- Node26&#45;&gt;Node3 -->
<g id="edge50_Node000026_Node000003" class="edge">
<title>Node26&#45;&gt;Node3</title>
<g id="a_edge50_Node000026_Node000003"><a xlink:title=" ">
<path fill="none" stroke="#63b8ff" d="M983.58,-237.8C861.07,-233.56 550.49,-220.99 292,-195 290.73,-194.87 289.45,-194.74 288.16,-194.6"/>
<polygon fill="#63b8ff" stroke="#63b8ff" points="288.48,-191.11 278.14,-193.42 287.67,-198.06 288.48,-191.11"/>
</a>
</g>
</g>
<!-- Node26&#45;&gt;Node4 -->
<g id="edge52_Node000026_Node000004" class="edge">
<title>Node26&#45;&gt;Node4</title>
<g id="a_edge52_Node000026_Node000004"><a xlink:title=" ">
<path fill="none" stroke="#63b8ff" d="M984,-239.2C846.75,-237.9 482.5,-231.06 368,-195 295.93,-172.3 222.86,-118.01 189.99,-91.53"/>
<polygon fill="#63b8ff" stroke="#63b8ff" points="192.12,-88.76 182.16,-85.14 187.69,-94.18 192.12,-88.76"/>
</a>
</g>
</g>
<!-- Node26&#45;&gt;Node5 -->
<g id="edge55_Node000026_Node000005" class="edge">
<title>Node26&#45;&gt;Node5</title>
<g id="a_edge55_Node000026_Node000005"><a xlink:title=" ">
<path fill="none" stroke="#63b8ff" d="M1002.68,-230.99C966.64,-222.05 908.33,-207.56 858,-195 662.84,-146.29 611.29,-144.02 419,-85 362.53,-67.67 298.2,-43.13 261.03,-28.46"/>
<polygon fill="#63b8ff" stroke="#63b8ff" points="261.88,-25.04 251.29,-24.6 259.3,-31.54 261.88,-25.04"/>
</a>
</g>
</g>
<!-- Node26&#45;&gt;Node11 -->
<g id="edge53_Node000026_Node000011" class="edge">
<title>Node26&#45;&gt;Node11</title>
<g id="a_edge53_Node000026_Node000011"><a xlink:title=" ">
<path fill="none" stroke="#63b8ff" d="M1048.97,-230.8C1079.51,-208.35 1162.23,-145.93 1223,-85 1239.72,-68.24 1256.73,-46.98 1267.76,-32.52"/>
<polygon fill="#63b8ff" stroke="#63b8ff" points="1270.58,-34.59 1273.8,-24.5 1264.99,-30.38 1270.58,-34.59"/>
</a>
</g>
</g>
<!-- Node26&#45;&gt;Node17 -->
<g id="edge54_Node000026_Node000017" class="edge">
<title>Node26&#45;&gt;Node17</title>
<g id="a_edge54_Node000026_Node000017"><a xlink:title=" ">
<path fill="none" stroke="#63b8ff" d="M1090.03,-234.17C1128.31,-228.59 1180.22,-217.35 1221,-195 1262.62,-172.19 1263.22,-153.3 1298,-121 1332.91,-88.58 1374.61,-51.55 1397.61,-31.27"/>
<polygon fill="#63b8ff" stroke="#63b8ff" points="1400,-33.84 1405.19,-24.6 1395.37,-28.58 1400,-33.84"/>
</a>
</g>
</g>
<!-- Node26&#45;&gt;Node19 -->
<g id="edge38_Node000026_Node000019" class="edge">
<title>Node26&#45;&gt;Node19</title>
<g id="a_edge38_Node000026_Node000019"><a xlink:title=" ">
<path fill="none" stroke="#63b8ff" d="M1014.35,-230.98C991.15,-222.27 954.88,-208.63 928.6,-198.75"/>
<polygon fill="#63b8ff" stroke="#63b8ff" points="929.66,-195.41 919.07,-195.17 927.2,-201.97 929.66,-195.41"/>
</a>
</g>
</g>
<!-- Node26&#45;&gt;Node20 -->
<g id="edge39_Node000026_Node000020" class="edge">
<title>Node26&#45;&gt;Node20</title>
<g id="a_edge39_Node000026_Node000020"><a xlink:title=" ">
<path fill="none" stroke="#63b8ff" d="M1035.71,-230.78C1033.54,-218.04 1028.36,-193.94 1018,-176 1011.8,-165.26 1002.53,-155.07 994.27,-147.15"/>
<polygon fill="#63b8ff" stroke="#63b8ff" points="996.53,-144.48 986.79,-140.32 991.81,-149.65 996.53,-144.48"/>
</a>
</g>
</g>
<!-- Node26&#45;&gt;Node21 -->
<g id="edge51_Node000026_Node000021" class="edge">
<title>Node26&#45;&gt;Node21</title>
<g id="a_edge51_Node000026_Node000021"><a xlink:title=" ">
<path fill="none" stroke="#63b8ff" d="M1043.29,-230.74C1061.94,-204.76 1117.16,-127.83 1141.84,-93.44"/>
<polygon fill="#63b8ff" stroke="#63b8ff" points="1144.69,-95.47 1147.68,-85.31 1139,-91.39 1144.69,-95.47"/>
</a>
</g>
</g>
<!-- Node27 -->
<g id="Node000027" class="node">
<title>Node27</title>
<g id="a_Node000027"><a xlink:href="Tags_8h.html" target="_top" xlink:title="Tags to differentiate collections with the same type for template specialization.">
<polygon fill="white" stroke="#666666" points="1315.5,-195 1268.5,-195 1268.5,-176 1315.5,-176 1315.5,-195"/>
<text text-anchor="middle" x="1292" y="-183" font-family="Helvetica,sans-Serif" font-size="10.00">Tags.h</text>
</a>
</g>
</g>
<!-- Node26&#45;&gt;Node27 -->
<g id="edge35_Node000026_Node000027" class="edge">
<title>Node26&#45;&gt;Node27</title>
<g id="a_edge35_Node000026_Node000027"><a xlink:title=" ">
<path fill="none" stroke="#63b8ff" d="M1079.87,-230.94C1123.67,-222.14 1193.65,-207.94 1254,-195 1255.45,-194.69 1256.92,-194.37 1258.41,-194.05"/>
<polygon fill="#63b8ff" stroke="#63b8ff" points="1259.28,-197.44 1268.3,-191.87 1257.78,-190.6 1259.28,-197.44"/>
</a>
</g>
</g>
<!-- Node29 -->
<g id="Node000029" class="node">
<title>Node29</title>
<g id="a_Node000029"><a xlink:href="PolyglotText_8h.html" target="_top" xlink:title="Polyglot Text serialization and deserialization to protobuf.">
<polygon fill="white" stroke="#666666" points="1588,-140 1502,-140 1502,-121 1588,-121 1588,-140"/>
<text text-anchor="middle" x="1545" y="-128" font-family="Helvetica,sans-Serif" font-size="10.00">PolyglotText.h</text>
</a>
</g>
</g>
<!-- Node26&#45;&gt;Node29 -->
<g id="edge40_Node000026_Node000029" class="edge">
<title>Node26&#45;&gt;Node29</title>
<g id="a_edge40_Node000026_Node000029"><a xlink:title=" ">
<path fill="none" stroke="#63b8ff" d="M1090.19,-233.35C1148.28,-226.15 1243.85,-212.9 1325,-195 1391.13,-180.41 1466.66,-157.12 1509.8,-143.17"/>
<polygon fill="#63b8ff" stroke="#63b8ff" points="1511.11,-146.43 1519.53,-140 1508.94,-139.77 1511.11,-146.43"/>
</a>
</g>
</g>
<!-- Node34 -->
<g id="Node000034" class="node">
<title>Node34</title>
<g id="a_Node000034"><a xlink:title=" ">
<polygon fill="#e0e0e0" stroke="#999999" points="1212,-195 1148,-195 1148,-176 1212,-176 1212,-195"/>
<text text-anchor="middle" x="1180" y="-183" font-family="Helvetica,sans-Serif" font-size="10.00">algorithm</text>
</a>
</g>
</g>
<!-- Node26&#45;&gt;Node34 -->
<g id="edge56_Node000026_Node000034" class="edge">
<title>Node26&#45;&gt;Node34</title>
<g id="a_edge56_Node000026_Node000034"><a xlink:title=" ">
<path fill="none" stroke="#63b8ff" d="M1059.98,-230.98C1083.5,-222.27 1120.29,-208.63 1146.94,-198.75"/>
<polygon fill="#63b8ff" stroke="#63b8ff" points="1148.45,-201.93 1156.61,-195.17 1146.01,-195.36 1148.45,-201.93"/>
</a>
</g>
</g>
<!-- Node35 -->
<g id="Node000035" class="node">
<title>Node35</title>
<g id="a_Node000035"><a xlink:title=" ">
<polygon fill="#e0e0e0" stroke="#999999" points="1009,-195 957,-195 957,-176 1009,-176 1009,-195"/>
<text text-anchor="middle" x="983" y="-183" font-family="Helvetica,sans-Serif" font-size="10.00">cassert</text>
</a>
</g>
</g>
<!-- Node26&#45;&gt;Node35 -->
<g id="edge57_Node000026_Node000035" class="edge">
<title>Node26&#45;&gt;Node35</title>
<g id="a_edge57_Node000026_Node000035"><a xlink:title=" ">
<path fill="none" stroke="#63b8ff" d="M1028.08,-230.75C1020.22,-223.03 1008.57,-211.6 999.08,-202.28"/>
<polygon fill="#63b8ff" stroke="#63b8ff" points="1001.34,-199.6 991.75,-195.09 996.44,-204.59 1001.34,-199.6"/>
</a>
</g>
</g>
<!-- Node27&#45;&gt;Node11 -->
<g id="edge37_Node000027_Node000011" class="edge">
<title>Node27&#45;&gt;Node11</title>
<g id="a_edge37_Node000027_Node000011"><a xlink:title=" ">
<path fill="none" stroke="#63b8ff" d="M1291.39,-175.91C1289.54,-149.89 1283.95,-71.47 1281.35,-35.01"/>
<polygon fill="#63b8ff" stroke="#63b8ff" points="1284.83,-34.5 1280.62,-24.77 1277.84,-35 1284.83,-34.5"/>
</a>
</g>
</g>
<!-- Node27&#45;&gt;Node28 -->
<g id="edge36_Node000027_Node000028" class="edge">
<title>Node27&#45;&gt;Node28</title>
<g id="a_edge36_Node000027_Node000028"><a xlink:title=" ">
<path fill="none" stroke="#63b8ff" d="M1299.76,-175.75C1306.47,-168.18 1316.34,-157.05 1324.51,-147.84"/>
<polygon fill="#63b8ff" stroke="#63b8ff" points="1327.37,-149.89 1331.38,-140.09 1322.13,-145.25 1327.37,-149.89"/>
</a>
</g>
</g>
<!-- Node29&#45;&gt;Node11 -->
<g id="edge47_Node000029_Node000011" class="edge">
<title>Node29&#45;&gt;Node11</title>
<g id="a_edge47_Node000029_Node000011"><a xlink:title=" ">
<path fill="none" stroke="#63b8ff" d="M1515.42,-120.95C1488.35,-112.8 1447.39,-99.61 1413,-85 1373.55,-68.24 1329.79,-44.47 1303.61,-29.66"/>
<polygon fill="#63b8ff" stroke="#63b8ff" points="1305.22,-26.55 1294.8,-24.63 1301.75,-32.63 1305.22,-26.55"/>
</a>
</g>
</g>
<!-- Node29&#45;&gt;Node17 -->
<g id="edge48_Node000029_Node000017" class="edge">
<title>Node29&#45;&gt;Node17</title>
<g id="a_edge48_Node000029_Node000017"><a xlink:title=" ">
<path fill="none" stroke="#63b8ff" d="M1551.69,-120.9C1560.93,-107.89 1575.16,-82.94 1563,-66 1542.38,-37.27 1504.37,-24.84 1472.04,-19.55"/>
<polygon fill="#63b8ff" stroke="#63b8ff" points="1472.16,-16.03 1461.77,-18.07 1471.17,-22.96 1472.16,-16.03"/>
</a>
</g>
</g>
<!-- Node30 -->
<g id="Node000030" class="node">
<title>Node30</title>
<g id="a_Node000030"><a xlink:href="IPolyglotText_8h.html" target="_top" xlink:title="Catena&#39;s multi&#45;language text interface.">
<polygon fill="white" stroke="#666666" points="1699.5,-85 1610.5,-85 1610.5,-66 1699.5,-66 1699.5,-85"/>
<text text-anchor="middle" x="1655" y="-73" font-family="Helvetica,sans-Serif" font-size="10.00">IPolyglotText.h</text>
</a>
</g>
</g>
<!-- Node29&#45;&gt;Node30 -->
<g id="edge41_Node000029_Node000030" class="edge">
<title>Node29&#45;&gt;Node30</title>
<g id="a_edge41_Node000029_Node000030"><a xlink:title=" ">
<path fill="none" stroke="#63b8ff" d="M1562.67,-120.98C1580.29,-112.5 1607.58,-99.35 1627.93,-89.54"/>
<polygon fill="#63b8ff" stroke="#63b8ff" points="1629.52,-92.66 1637.01,-85.17 1626.48,-86.36 1629.52,-92.66"/>
</a>
</g>
</g>
<!-- Node32 -->
<g id="Node000032" class="node">
<title>Node32</title>
<g id="a_Node000032"><a xlink:title=" ">
<polygon fill="#e0e0e0" stroke="#999999" points="1769.5,-24.5 1686.5,-24.5 1686.5,-5.5 1769.5,-5.5 1769.5,-24.5"/>
<text text-anchor="middle" x="1728" y="-12.5" font-family="Helvetica,sans-Serif" font-size="10.00">initializer_list</text>
</a>
</g>
</g>
<!-- Node29&#45;&gt;Node32 -->
<g id="edge49_Node000029_Node000032" class="edge">
<title>Node29&#45;&gt;Node32</title>
<g id="a_edge49_Node000029_Node000032"><a xlink:title=" ">
<path fill="none" stroke="#63b8ff" d="M1588.12,-129.13C1625.03,-126.47 1677.13,-116.75 1709,-85 1722.32,-71.73 1726.53,-50.05 1727.75,-34.53"/>
<polygon fill="#63b8ff" stroke="#63b8ff" points="1731.24,-34.68 1728.19,-24.53 1724.25,-34.36 1731.24,-34.68"/>
</a>
</g>
</g>
<!-- Node33 -->
<g id="Node000033" class="node">
<title>Node33</title>
<g id="a_Node000033"><a xlink:title=" ">
<polygon fill="#e0e0e0" stroke="#999999" points="1554,-85 1422,-85 1422,-66 1554,-66 1554,-85"/>
<text text-anchor="middle" x="1488" y="-73" font-family="Helvetica,sans-Serif" font-size="10.00">interface/language.pb.h</text>
</a>
</g>
</g>
<!-- Node29&#45;&gt;Node33 -->
<g id="edge46_Node000029_Node000033" class="edge">
<title>Node29&#45;&gt;Node33</title>
<g id="a_edge46_Node000029_Node000033"><a xlink:title=" ">
<path fill="none" stroke="#63b8ff" d="M1535.84,-120.98C1527.5,-113.23 1514.97,-101.58 1504.82,-92.14"/>
<polygon fill="#63b8ff" stroke="#63b8ff" points="1507.03,-89.42 1497.32,-85.17 1502.26,-94.54 1507.03,-89.42"/>
</a>
</g>
</g>
<!-- Node30&#45;&gt;Node11 -->
<g id="edge44_Node000030_Node000011" class="edge">
<title>Node30&#45;&gt;Node11</title>
<g id="a_edge44_Node000030_Node000011"><a xlink:title=" ">
<path fill="none" stroke="#63b8ff" d="M1610.47,-68.12C1552.67,-59.75 1448.69,-44.45 1360,-30 1344.21,-27.43 1326.7,-24.39 1312.1,-21.8"/>
<polygon fill="#63b8ff" stroke="#63b8ff" points="1312.51,-18.31 1302.05,-20 1311.28,-25.2 1312.51,-18.31"/>
</a>
</g>
</g>
<!-- Node30&#45;&gt;Node17 -->
<g id="edge43_Node000030_Node000017" class="edge">
<title>Node30&#45;&gt;Node17</title>
<g id="a_edge43_Node000030_Node000017"><a xlink:title=" ">
<path fill="none" stroke="#63b8ff" d="M1620.1,-65.99C1577.71,-55.66 1506.13,-38.21 1459.73,-26.9"/>
<polygon fill="#63b8ff" stroke="#63b8ff" points="1460.48,-23.48 1449.94,-24.52 1458.83,-30.29 1460.48,-23.48"/>
</a>
</g>
</g>
<!-- Node31 -->
<g id="Node000031" class="node">
<title>Node31</title>
<g id="a_Node000031"><a xlink:title=" ">
<polygon fill="#e0e0e0" stroke="#999999" points="1668.5,-30 1527.5,-30 1527.5,0 1668.5,0 1668.5,-30"/>
<text text-anchor="start" x="1535.5" y="-18" font-family="Helvetica,sans-Serif" font-size="10.00">google/protobuf/message</text>
<text text-anchor="middle" x="1598" y="-7" font-family="Helvetica,sans-Serif" font-size="10.00">_lite.h</text>
</a>
</g>
</g>
<!-- Node30&#45;&gt;Node31 -->
<g id="edge42_Node000030_Node000031" class="edge">
<title>Node30&#45;&gt;Node31</title>
<g id="a_edge42_Node000030_Node000031"><a xlink:title=" ">
<path fill="none" stroke="#63b8ff" d="M1646.59,-65.87C1639.28,-58.37 1628.4,-47.2 1618.78,-37.33"/>
<polygon fill="#63b8ff" stroke="#63b8ff" points="1621.24,-34.83 1611.75,-30.11 1616.22,-39.72 1621.24,-34.83"/>
</a>
</g>
</g>
<!-- Node30&#45;&gt;Node32 -->
<g id="edge45_Node000030_Node000032" class="edge">
<title>Node30&#45;&gt;Node32</title>
<g id="a_edge45_Node000030_Node000032"><a xlink:title=" ">
<path fill="none" stroke="#63b8ff" d="M1665.77,-65.87C1677.2,-56.71 1695.48,-42.06 1709.28,-31.01"/>
<polygon fill="#63b8ff" stroke="#63b8ff" points="1711.57,-33.65 1717.18,-24.67 1707.19,-28.19 1711.57,-33.65"/>
</a>
</g>
</g>
</g>
</svg>
