<?xml version="1.0" encoding="UTF-8" standalone="no"?>
<!DOCTYPE svg PUBLIC "-//W3C//DTD SVG 1.1//EN"
 "http://www.w3.org/Graphics/SVG/1.1/DTD/svg11.dtd">
<!-- Generated by graphviz version 2.43.0 (0)
 -->
<!-- Title: /home/runner/work/Catena/Catena/sdks/cpp/common/include/SubscriptionManager.h Pages: 1 -->
<svg width="1433pt" height="544pt"
 viewBox="0.00 0.00 1432.99 544.00" xmlns="http://www.w3.org/2000/svg" xmlns:xlink="http://www.w3.org/1999/xlink">
<g id="graph0" class="graph" transform="scale(1 1) rotate(0) translate(4 540)">
<title>/home/runner/work/Catena/Catena/sdks/cpp/common/include/SubscriptionManager.h</title>
<!-- Node1 -->
<g id="Node000001" class="node">
<title>Node1</title>
<g id="a_Node000001"><a xlink:title="Centralized manager for parameter subscriptions in Catena.">
<polygon fill="#999999" stroke="#666666" points="1079.49,-536 910.49,-536 910.49,-495 1079.49,-495 1079.49,-536"/>
<text text-anchor="start" x="918.49" y="-524" font-family="Helvetica,sans-Serif" font-size="10.00">/home/runner/work/Catena</text>
<text text-anchor="start" x="918.49" y="-513" font-family="Helvetica,sans-Serif" font-size="10.00">/Catena/sdks/cpp/common</text>
<text text-anchor="middle" x="994.99" y="-502" font-family="Helvetica,sans-Serif" font-size="10.00">/include/SubscriptionManager.h</text>
</a>
</g>
</g>
<!-- Node2 -->
<g id="Node000002" class="node">
<title>Node2</title>
<g id="a_Node000002"><a xlink:href="IDevice_8h.html" target="_top" xlink:title="Interface for device.">
<polygon fill="white" stroke="#666666" points="722.99,-349 660.99,-349 660.99,-330 722.99,-330 722.99,-349"/>
<text text-anchor="middle" x="691.99" y="-337" font-family="Helvetica,sans-Serif" font-size="10.00">IDevice.h</text>
</a>
</g>
</g>
<!-- Node1&#45;&gt;Node2 -->
<g id="edge1_Node000001_Node000002" class="edge">
<title>Node1&#45;&gt;Node2</title>
<g id="a_edge1_Node000001_Node000002"><a xlink:title=" ">
<path fill="none" stroke="#63b8ff" d="M960.82,-494.88C898.77,-459.24 769.06,-384.76 715.7,-354.11"/>
<polygon fill="#63b8ff" stroke="#63b8ff" points="717.36,-351.03 706.94,-349.09 713.87,-357.1 717.36,-351.03"/>
</a>
</g>
</g>
<!-- Node3 -->
<g id="Node000003" class="node">
<title>Node3</title>
<g id="a_Node000003"><a xlink:href="Authorization_8h.html" target="_top" xlink:title="Class for handling authorization information.">
<polygon fill="white" stroke="#666666" points="1064.49,-294 973.49,-294 973.49,-275 1064.49,-275 1064.49,-294"/>
<text text-anchor="middle" x="1018.99" y="-282" font-family="Helvetica,sans-Serif" font-size="10.00">Authorization.h</text>
</a>
</g>
</g>
<!-- Node1&#45;&gt;Node3 -->
<g id="edge68_Node000001_Node000003" class="edge">
<title>Node1&#45;&gt;Node3</title>
<g id="a_edge68_Node000001_Node000003"><a xlink:title=" ">
<path fill="none" stroke="#63b8ff" d="M1021.52,-494.78C1033.62,-484.93 1047.53,-472.29 1057.99,-459 1091.92,-415.89 1101.58,-402.44 1113.99,-349 1115.9,-340.77 1118.52,-337.13 1113.99,-330 1104.11,-314.45 1087.2,-304.25 1070.37,-297.58"/>
<polygon fill="#63b8ff" stroke="#63b8ff" points="1071.11,-294.13 1060.52,-294.06 1068.75,-300.72 1071.11,-294.13"/>
</a>
</g>
</g>
<!-- Node6 -->
<g id="Node000006" class="node">
<title>Node6</title>
<g id="a_Node000006"><a xlink:title=" ">
<polygon fill="#e0e0e0" stroke="#999999" points="907.99,-19 863.99,-19 863.99,0 907.99,0 907.99,-19"/>
<text text-anchor="middle" x="885.99" y="-7" font-family="Helvetica,sans-Serif" font-size="10.00">string</text>
</a>
</g>
</g>
<!-- Node1&#45;&gt;Node6 -->
<g id="edge70_Node000001_Node000006" class="edge">
<title>Node1&#45;&gt;Node6</title>
<g id="a_edge70_Node000001_Node000006"><a xlink:title=" ">
<path fill="none" stroke="#63b8ff" d="M1079.69,-508.3C1204.96,-496.77 1424.99,-466.42 1424.99,-395.5 1424.99,-395.5 1424.99,-395.5 1424.99,-118.5 1424.99,-86.06 1416.27,-72.55 1388.99,-55 1349.47,-29.58 1023.3,-15.52 918.37,-11.63"/>
<polygon fill="#63b8ff" stroke="#63b8ff" points="918.21,-8.12 908.09,-11.25 917.95,-15.12 918.21,-8.12"/>
</a>
</g>
</g>
<!-- Node17 -->
<g id="Node000017" class="node">
<title>Node17</title>
<g id="a_Node000017"><a xlink:href="IParam_8h.html" target="_top" xlink:title="Interface for parameters.">
<polygon fill="white" stroke="#666666" points="674.49,-239 615.49,-239 615.49,-220 674.49,-220 674.49,-239"/>
<text text-anchor="middle" x="644.99" y="-227" font-family="Helvetica,sans-Serif" font-size="10.00">IParam.h</text>
</a>
</g>
</g>
<!-- Node1&#45;&gt;Node17 -->
<g id="edge54_Node000001_Node000017" class="edge">
<title>Node1&#45;&gt;Node17</title>
<g id="a_edge54_Node000001_Node000017"><a xlink:title=" ">
<path fill="none" stroke="#63b8ff" d="M910.13,-509.97C712.07,-498.27 235.99,-463.11 235.99,-395.5 235.99,-395.5 235.99,-395.5 235.99,-338.5 235.99,-262.62 502.51,-238.87 605.26,-232.53"/>
<polygon fill="#63b8ff" stroke="#63b8ff" points="605.47,-236.03 615.25,-231.94 605.06,-229.04 605.47,-236.03"/>
</a>
</g>
</g>
<!-- Node36 -->
<g id="Node000036" class="node">
<title>Node36</title>
<g id="a_Node000036"><a xlink:href="ParamVisitor_8h.html" target="_top" xlink:title="Implements Catena ParamVisitor.">
<polygon fill="white" stroke="#666666" points="602.49,-459 515.49,-459 515.49,-440 602.49,-440 602.49,-459"/>
<text text-anchor="middle" x="558.99" y="-447" font-family="Helvetica,sans-Serif" font-size="10.00">ParamVisitor.h</text>
</a>
</g>
</g>
<!-- Node1&#45;&gt;Node36 -->
<g id="edge55_Node000001_Node000036" class="edge">
<title>Node1&#45;&gt;Node36</title>
<g id="a_edge55_Node000001_Node000036"><a xlink:title=" ">
<path fill="none" stroke="#63b8ff" d="M910.41,-502.08C822.31,-489.15 686.97,-469.29 612.58,-458.37"/>
<polygon fill="#63b8ff" stroke="#63b8ff" points="612.9,-454.88 602.49,-456.89 611.88,-461.8 612.9,-454.88"/>
</a>
</g>
</g>
<!-- Node38 -->
<g id="Node000038" class="node">
<title>Node38</title>
<g id="a_Node000038"><a xlink:href="ISubscriptionManager_8h.html" target="_top" xlink:title="Interface for managing parameter subscriptions in Catena.">
<polygon fill="white" stroke="#666666" points="1060.49,-404 929.49,-404 929.49,-385 1060.49,-385 1060.49,-404"/>
<text text-anchor="middle" x="994.99" y="-392" font-family="Helvetica,sans-Serif" font-size="10.00">ISubscriptionManager.h</text>
</a>
</g>
</g>
<!-- Node1&#45;&gt;Node38 -->
<g id="edge62_Node000001_Node000038" class="edge">
<title>Node1&#45;&gt;Node38</title>
<g id="a_edge62_Node000001_Node000038"><a xlink:title=" ">
<path fill="none" stroke="#63b8ff" d="M994.99,-494.85C994.99,-472.48 994.99,-436.19 994.99,-414.21"/>
<polygon fill="#63b8ff" stroke="#63b8ff" points="998.49,-414.18 994.99,-404.18 991.49,-414.18 998.49,-414.18"/>
</a>
</g>
</g>
<!-- Node39 -->
<g id="Node000039" class="node">
<title>Node39</title>
<g id="a_Node000039"><a xlink:title=" ">
<polygon fill="#e0e0e0" stroke="#999999" points="1104.99,-349 1072.99,-349 1072.99,-330 1104.99,-330 1104.99,-349"/>
<text text-anchor="middle" x="1088.99" y="-337" font-family="Helvetica,sans-Serif" font-size="10.00">set</text>
</a>
</g>
</g>
<!-- Node1&#45;&gt;Node39 -->
<g id="edge69_Node000001_Node000039" class="edge">
<title>Node1&#45;&gt;Node39</title>
<g id="a_edge69_Node000001_Node000039"><a xlink:title=" ">
<path fill="none" stroke="#63b8ff" d="M1010.74,-494.78C1027.16,-473.45 1052.7,-437.93 1068.99,-404 1075.95,-389.49 1081.26,-371.99 1084.65,-359.03"/>
<polygon fill="#63b8ff" stroke="#63b8ff" points="1088.13,-359.56 1087.13,-349.01 1081.33,-357.87 1088.13,-359.56"/>
</a>
</g>
</g>
<!-- Node2&#45;&gt;Node3 -->
<g id="edge2_Node000002_Node000003" class="edge">
<title>Node2&#45;&gt;Node3</title>
<g id="a_edge2_Node000002_Node000003"><a xlink:title=" ">
<path fill="none" stroke="#63b8ff" d="M723.05,-333.47C778.17,-324.53 893.8,-305.79 963.08,-294.56"/>
<polygon fill="#63b8ff" stroke="#63b8ff" points="964.06,-297.95 973.37,-292.89 962.94,-291.04 964.06,-297.95"/>
</a>
</g>
</g>
<!-- Node4 -->
<g id="Node000004" class="node">
<title>Node4</title>
<g id="a_Node000004"><a xlink:href="Path_8h.html" target="_top" xlink:title="Handles Path objects used to uniquely identify and access OIDs.">
<polygon fill="white" stroke="#666666" points="338.49,-184 291.49,-184 291.49,-165 338.49,-165 338.49,-184"/>
<text text-anchor="middle" x="314.99" y="-172" font-family="Helvetica,sans-Serif" font-size="10.00">Path.h</text>
</a>
</g>
</g>
<!-- Node2&#45;&gt;Node4 -->
<g id="edge42_Node000002_Node000004" class="edge">
<title>Node2&#45;&gt;Node4</title>
<g id="a_edge42_Node000002_Node000004"><a xlink:title=" ">
<path fill="none" stroke="#63b8ff" d="M672.25,-329.97C610.05,-303.07 417.88,-219.98 344.18,-188.12"/>
<polygon fill="#63b8ff" stroke="#63b8ff" points="345.56,-184.9 334.99,-184.15 342.78,-191.33 345.56,-184.9"/>
</a>
</g>
</g>
<!-- Node2&#45;&gt;Node6 -->
<g id="edge50_Node000002_Node000006" class="edge">
<title>Node2&#45;&gt;Node6</title>
<g id="a_edge50_Node000002_Node000006"><a xlink:title=" ">
<path fill="none" stroke="#63b8ff" d="M723.02,-335.26C772.06,-329.54 864.35,-316.1 887.99,-294 909.51,-273.88 906.99,-259.96 906.99,-230.5 906.99,-230.5 906.99,-230.5 906.99,-173.5 906.99,-120.88 896.09,-59.47 890,-29.25"/>
<polygon fill="#63b8ff" stroke="#63b8ff" points="893.39,-28.36 887.93,-19.28 886.53,-29.79 893.39,-28.36"/>
</a>
</g>
</g>
<!-- Node7 -->
<g id="Node000007" class="node">
<title>Node7</title>
<g id="a_Node000007"><a xlink:title=" ">
<polygon fill="#e0e0e0" stroke="#999999" points="62.49,-129 15.49,-129 15.49,-110 62.49,-110 62.49,-129"/>
<text text-anchor="middle" x="38.99" y="-117" font-family="Helvetica,sans-Serif" font-size="10.00">vector</text>
</a>
</g>
</g>
<!-- Node2&#45;&gt;Node7 -->
<g id="edge51_Node000002_Node000007" class="edge">
<title>Node2&#45;&gt;Node7</title>
<g id="a_edge51_Node000002_Node000007"><a xlink:title=" ">
<path fill="none" stroke="#63b8ff" d="M663.5,-329.96C634.39,-321.17 587.93,-306.98 547.99,-294 367.68,-235.42 153.16,-160.61 72.15,-132.17"/>
<polygon fill="#63b8ff" stroke="#63b8ff" points="73.1,-128.8 62.5,-128.78 70.78,-135.4 73.1,-128.8"/>
</a>
</g>
</g>
<!-- Node16 -->
<g id="Node000016" class="node">
<title>Node16</title>
<g id="a_Node000016"><a xlink:title=" ">
<polygon fill="#e0e0e0" stroke="#999999" points="1358.49,-129 1239.49,-129 1239.49,-110 1358.49,-110 1358.49,-129"/>
<text text-anchor="middle" x="1298.99" y="-117" font-family="Helvetica,sans-Serif" font-size="10.00">interface/device.pb.h</text>
</a>
</g>
</g>
<!-- Node2&#45;&gt;Node16 -->
<g id="edge49_Node000002_Node000016" class="edge">
<title>Node2&#45;&gt;Node16</title>
<g id="a_edge49_Node000002_Node000016"><a xlink:title=" ">
<path fill="none" stroke="#63b8ff" d="M723.06,-339.17C789.26,-339.69 948.36,-336.02 1072.99,-294 1166.72,-262.4 1251.92,-174.3 1284.72,-137.25"/>
<polygon fill="#63b8ff" stroke="#63b8ff" points="1287.65,-139.22 1291.58,-129.38 1282.37,-134.63 1287.65,-139.22"/>
</a>
</g>
</g>
<!-- Node2&#45;&gt;Node17 -->
<g id="edge43_Node000002_Node000017" class="edge">
<title>Node2&#45;&gt;Node17</title>
<g id="a_edge43_Node000002_Node000017"><a xlink:title=" ">
<path fill="none" stroke="#63b8ff" d="M676.56,-329.8C664.64,-322.11 649.03,-309.69 641.99,-294 635.64,-279.84 637.17,-262.08 639.84,-248.94"/>
<polygon fill="#63b8ff" stroke="#63b8ff" points="643.25,-249.72 642.2,-239.17 636.45,-248.07 643.25,-249.72"/>
</a>
</g>
</g>
<!-- Node28 -->
<g id="Node000028" class="node">
<title>Node28</title>
<g id="a_Node000028"><a xlink:href="Status_8h.html" target="_top" xlink:title="Communicates failure status using gRPC&#39;s codes.">
<polygon fill="white" stroke="#666666" points="534.99,-184 478.99,-184 478.99,-165 534.99,-165 534.99,-184"/>
<text text-anchor="middle" x="506.99" y="-172" font-family="Helvetica,sans-Serif" font-size="10.00">Status.h</text>
</a>
</g>
</g>
<!-- Node2&#45;&gt;Node28 -->
<g id="edge47_Node000002_Node000028" class="edge">
<title>Node2&#45;&gt;Node28</title>
<g id="a_edge47_Node000002_Node000028"><a xlink:title=" ">
<path fill="none" stroke="#63b8ff" d="M680.18,-329.96C668.27,-321.22 649.49,-307.12 633.99,-294 592.61,-258.96 546.71,-214.69 523.05,-191.43"/>
<polygon fill="#63b8ff" stroke="#63b8ff" points="525.23,-188.67 515.65,-184.13 520.31,-193.65 525.23,-188.67"/>
</a>
</g>
</g>
<!-- Node32 -->
<g id="Node000032" class="node">
<title>Node32</title>
<g id="a_Node000032"><a xlink:href="ILanguagePack_8h.html" target="_top" xlink:title="Interface for language packs.">
<polygon fill="white" stroke="#666666" points="543.99,-74 445.99,-74 445.99,-55 543.99,-55 543.99,-74"/>
<text text-anchor="middle" x="494.99" y="-62" font-family="Helvetica,sans-Serif" font-size="10.00">ILanguagePack.h</text>
</a>
</g>
</g>
<!-- Node2&#45;&gt;Node32 -->
<g id="edge44_Node000002_Node000032" class="edge">
<title>Node2&#45;&gt;Node32</title>
<g id="a_edge44_Node000002_Node000032"><a xlink:title=" ">
<path fill="none" stroke="#63b8ff" d="M660.79,-333.9C537.58,-315.03 87.67,-239.35 5.99,-129 -49.72,-53.74 317.71,-83.09 435.67,-73.88"/>
<polygon fill="#63b8ff" stroke="#63b8ff" points="436.35,-77.33 445.97,-72.9 435.68,-70.37 436.35,-77.33"/>
</a>
</g>
</g>
<!-- Node33 -->
<g id="Node000033" class="node">
<title>Node33</title>
<g id="a_Node000033"><a xlink:title=" ">
<polygon fill="#e0e0e0" stroke="#999999" points="732.49,-294 651.49,-294 651.49,-275 732.49,-275 732.49,-294"/>
<text text-anchor="middle" x="691.99" y="-282" font-family="Helvetica,sans-Serif" font-size="10.00">vdk/signals.h</text>
</a>
</g>
</g>
<!-- Node2&#45;&gt;Node33 -->
<g id="edge48_Node000002_Node000033" class="edge">
<title>Node2&#45;&gt;Node33</title>
<g id="a_edge48_Node000002_Node000033"><a xlink:title=" ">
<path fill="none" stroke="#63b8ff" d="M691.99,-329.75C691.99,-322.8 691.99,-312.85 691.99,-304.13"/>
<polygon fill="#63b8ff" stroke="#63b8ff" points="695.49,-304.09 691.99,-294.09 688.49,-304.09 695.49,-304.09"/>
</a>
</g>
</g>
<!-- Node34 -->
<g id="Node000034" class="node">
<title>Node34</title>
<g id="a_Node000034"><a xlink:title=" ">
<polygon fill="#e0e0e0" stroke="#999999" points="812.99,-294 750.99,-294 750.99,-275 812.99,-275 812.99,-294"/>
<text text-anchor="middle" x="781.99" y="-282" font-family="Helvetica,sans-Serif" font-size="10.00">coroutine</text>
</a>
</g>
</g>
<!-- Node2&#45;&gt;Node34 -->
<g id="edge52_Node000002_Node000034" class="edge">
<title>Node2&#45;&gt;Node34</title>
<g id="a_edge52_Node000002_Node000034"><a xlink:title=" ">
<path fill="none" stroke="#63b8ff" d="M706.45,-329.98C720.41,-321.77 741.78,-309.18 758.24,-299.49"/>
<polygon fill="#63b8ff" stroke="#63b8ff" points="760.43,-302.26 767.27,-294.17 756.87,-296.23 760.43,-302.26"/>
</a>
</g>
</g>
<!-- Node35 -->
<g id="Node000035" class="node">
<title>Node35</title>
<g id="a_Node000035"><a xlink:title=" ">
<polygon fill="#e0e0e0" stroke="#999999" points="878.99,-294 830.99,-294 830.99,-275 878.99,-275 878.99,-294"/>
<text text-anchor="middle" x="854.99" y="-282" font-family="Helvetica,sans-Serif" font-size="10.00">mutex</text>
</a>
</g>
</g>
<!-- Node2&#45;&gt;Node35 -->
<g id="edge53_Node000002_Node000035" class="edge">
<title>Node2&#45;&gt;Node35</title>
<g id="a_edge53_Node000002_Node000035"><a xlink:title=" ">
<path fill="none" stroke="#63b8ff" d="M718.18,-329.98C746.07,-320.91 790.34,-306.52 820.92,-296.58"/>
<polygon fill="#63b8ff" stroke="#63b8ff" points="822.3,-299.81 830.73,-293.39 820.14,-293.15 822.3,-299.81"/>
</a>
</g>
</g>
<!-- Node3&#45;&gt;Node4 -->
<g id="edge3_Node000003_Node000004" class="edge">
<title>Node3&#45;&gt;Node4</title>
<g id="a_edge3_Node000003_Node000004"><a xlink:title=" ">
<path fill="none" stroke="#63b8ff" d="M973.22,-280.34C896.78,-274.66 738.46,-261.22 605.99,-239 568.67,-232.74 559.94,-228.18 522.99,-220 461.63,-206.41 389.93,-191.22 348.75,-182.57"/>
<polygon fill="#63b8ff" stroke="#63b8ff" points="349.23,-179.09 338.72,-180.46 347.79,-185.94 349.23,-179.09"/>
</a>
</g>
</g>
<!-- Node10 -->
<g id="Node000010" class="node">
<title>Node10</title>
<g id="a_Node000010"><a xlink:href="Enums_8h.html" target="_top" xlink:title="tools for using EnumDecorators.">
<polygon fill="white" stroke="#666666" points="1140.49,-184 1081.49,-184 1081.49,-165 1140.49,-165 1140.49,-184"/>
<text text-anchor="middle" x="1110.99" y="-172" font-family="Helvetica,sans-Serif" font-size="10.00">Enums.h</text>
</a>
</g>
</g>
<!-- Node3&#45;&gt;Node10 -->
<g id="edge9_Node000003_Node000010" class="edge">
<title>Node3&#45;&gt;Node10</title>
<g id="a_edge9_Node000003_Node000010"><a xlink:title=" ">
<path fill="none" stroke="#63b8ff" d="M1025.35,-274.63C1034.42,-262.13 1051.78,-238.75 1067.99,-220 1076.51,-210.14 1086.6,-199.64 1094.87,-191.32"/>
<polygon fill="#63b8ff" stroke="#63b8ff" points="1097.51,-193.63 1102.13,-184.09 1092.57,-188.67 1097.51,-193.63"/>
</a>
</g>
</g>
<!-- Node3&#45;&gt;Node17 -->
<g id="edge18_Node000003_Node000017" class="edge">
<title>Node3&#45;&gt;Node17</title>
<g id="a_edge18_Node000003_Node000017"><a xlink:title=" ">
<path fill="none" stroke="#63b8ff" d="M973.13,-277C899.1,-266.51 754.53,-246.02 684.66,-236.12"/>
<polygon fill="#63b8ff" stroke="#63b8ff" points="684.91,-232.62 674.51,-234.68 683.92,-239.55 684.91,-232.62"/>
</a>
</g>
</g>
<!-- Node21 -->
<g id="Node000021" class="node">
<title>Node21</title>
<g id="a_Node000021"><a xlink:href="IParamDescriptor_8h.html" target="_top" xlink:title="Interface class for ParamDescriptor.">
<polygon fill="white" stroke="#666666" points="878.49,-184 769.49,-184 769.49,-165 878.49,-165 878.49,-184"/>
<text text-anchor="middle" x="823.99" y="-172" font-family="Helvetica,sans-Serif" font-size="10.00">IParamDescriptor.h</text>
</a>
</g>
</g>
<!-- Node3&#45;&gt;Node21 -->
<g id="edge39_Node000003_Node000021" class="edge">
<title>Node3&#45;&gt;Node21</title>
<g id="a_edge39_Node000003_Node000021"><a xlink:title=" ">
<path fill="none" stroke="#63b8ff" d="M1003.36,-274.84C969.48,-256.08 889.03,-211.52 848.39,-189.01"/>
<polygon fill="#63b8ff" stroke="#63b8ff" points="849.87,-185.83 839.42,-184.05 846.47,-191.95 849.87,-185.83"/>
</a>
</g>
</g>
<!-- Node23 -->
<g id="Node000023" class="node">
<title>Node23</title>
<g id="a_Node000023"><a xlink:title=" ">
<polygon fill="#e0e0e0" stroke="#999999" points="998.49,-74 933.49,-74 933.49,-55 998.49,-55 998.49,-74"/>
<text text-anchor="middle" x="965.99" y="-62" font-family="Helvetica,sans-Serif" font-size="10.00">functional</text>
</a>
</g>
</g>
<!-- Node3&#45;&gt;Node23 -->
<g id="edge41_Node000003_Node000023" class="edge">
<title>Node3&#45;&gt;Node23</title>
<g id="a_edge41_Node000003_Node000023"><a xlink:title=" ">
<path fill="none" stroke="#63b8ff" d="M1018.67,-274.94C1017.47,-249.23 1012.21,-170.78 990.99,-110 987.71,-100.6 982.49,-90.88 977.67,-82.94"/>
<polygon fill="#63b8ff" stroke="#63b8ff" points="980.47,-80.81 972.15,-74.26 974.57,-84.57 980.47,-80.81"/>
</a>
</g>
</g>
<!-- Node31 -->
<g id="Node000031" class="node">
<title>Node31</title>
<g id="a_Node000031"><a xlink:title=" ">
<polygon fill="#e0e0e0" stroke="#999999" points="1156.99,-239 1076.99,-239 1076.99,-220 1156.99,-220 1156.99,-239"/>
<text text-anchor="middle" x="1116.99" y="-227" font-family="Helvetica,sans-Serif" font-size="10.00">jwt&#45;cpp/jwt.h</text>
</a>
</g>
</g>
<!-- Node3&#45;&gt;Node31 -->
<g id="edge40_Node000003_Node000031" class="edge">
<title>Node3&#45;&gt;Node31</title>
<g id="a_edge40_Node000003_Node000031"><a xlink:title=" ">
<path fill="none" stroke="#63b8ff" d="M1034.74,-274.98C1050.22,-266.61 1074.08,-253.7 1092.13,-243.95"/>
<polygon fill="#63b8ff" stroke="#63b8ff" points="1093.83,-247.01 1100.96,-239.17 1090.5,-240.85 1093.83,-247.01"/>
</a>
</g>
</g>
<!-- Node5 -->
<g id="Node000005" class="node">
<title>Node5</title>
<g id="a_Node000005"><a xlink:title=" ">
<polygon fill="#e0e0e0" stroke="#999999" points="140.99,-129 80.99,-129 80.99,-110 140.99,-110 140.99,-129"/>
<text text-anchor="middle" x="110.99" y="-117" font-family="Helvetica,sans-Serif" font-size="10.00">iostream</text>
</a>
</g>
</g>
<!-- Node4&#45;&gt;Node5 -->
<g id="edge4_Node000004_Node000005" class="edge">
<title>Node4&#45;&gt;Node5</title>
<g id="a_edge4_Node000004_Node000005"><a xlink:title=" ">
<path fill="none" stroke="#63b8ff" d="M291.19,-167.32C256.82,-158.39 192.84,-141.76 151.09,-130.92"/>
<polygon fill="#63b8ff" stroke="#63b8ff" points="151.81,-127.49 141.25,-128.36 150.05,-134.26 151.81,-127.49"/>
</a>
</g>
</g>
<!-- Node4&#45;&gt;Node6 -->
<g id="edge5_Node000004_Node000006" class="edge">
<title>Node4&#45;&gt;Node6</title>
<g id="a_edge5_Node000004_Node000006"><a xlink:title=" ">
<path fill="none" stroke="#63b8ff" d="M314.88,-164.58C315.23,-150.67 318.09,-123.99 333.99,-110 371.02,-77.42 504.43,-82.62 552.99,-74 663.69,-54.35 794.6,-28.67 853.92,-16.9"/>
<polygon fill="#63b8ff" stroke="#63b8ff" points="854.69,-20.31 863.81,-14.93 853.32,-13.45 854.69,-20.31"/>
</a>
</g>
</g>
<!-- Node4&#45;&gt;Node7 -->
<g id="edge6_Node000004_Node000007" class="edge">
<title>Node4&#45;&gt;Node7</title>
<g id="a_edge6_Node000004_Node000007"><a xlink:title=" ">
<path fill="none" stroke="#63b8ff" d="M291.31,-168.03C286.58,-166.98 281.63,-165.93 276.99,-165 189.37,-147.52 164.12,-148.46 72.69,-129"/>
<polygon fill="#63b8ff" stroke="#63b8ff" points="73.24,-125.54 62.73,-126.85 71.77,-132.38 73.24,-125.54"/>
</a>
</g>
</g>
<!-- Node8 -->
<g id="Node000008" class="node">
<title>Node8</title>
<g id="a_Node000008"><a xlink:title=" ">
<polygon fill="#e0e0e0" stroke="#999999" points="210.49,-129 159.49,-129 159.49,-110 210.49,-110 210.49,-129"/>
<text text-anchor="middle" x="184.99" y="-117" font-family="Helvetica,sans-Serif" font-size="10.00">variant</text>
</a>
</g>
</g>
<!-- Node4&#45;&gt;Node8 -->
<g id="edge7_Node000004_Node000008" class="edge">
<title>Node4&#45;&gt;Node8</title>
<g id="a_edge7_Node000004_Node000008"><a xlink:title=" ">
<path fill="none" stroke="#63b8ff" d="M294.1,-164.98C272.91,-156.34 239.86,-142.87 215.69,-133.02"/>
<polygon fill="#63b8ff" stroke="#63b8ff" points="216.84,-129.7 206.26,-129.17 214.2,-136.19 216.84,-129.7"/>
</a>
</g>
</g>
<!-- Node9 -->
<g id="Node000009" class="node">
<title>Node9</title>
<g id="a_Node000009"><a xlink:title=" ">
<polygon fill="#e0e0e0" stroke="#999999" points="286.99,-129 228.99,-129 228.99,-110 286.99,-110 286.99,-129"/>
<text text-anchor="middle" x="257.99" y="-117" font-family="Helvetica,sans-Serif" font-size="10.00">memory</text>
</a>
</g>
</g>
<!-- Node4&#45;&gt;Node9 -->
<g id="edge8_Node000004_Node000009" class="edge">
<title>Node4&#45;&gt;Node9</title>
<g id="a_edge8_Node000004_Node000009"><a xlink:title=" ">
<path fill="none" stroke="#63b8ff" d="M305.83,-164.98C297.49,-157.23 284.96,-145.58 274.81,-136.14"/>
<polygon fill="#63b8ff" stroke="#63b8ff" points="277.02,-133.42 267.32,-129.17 272.26,-138.54 277.02,-133.42"/>
</a>
</g>
</g>
<!-- Node11 -->
<g id="Node000011" class="node">
<title>Node11</title>
<g id="a_Node000011"><a xlink:href="EnumDecorator_8h.html" target="_top" xlink:title="Provides an enum with useful extra functionality.">
<polygon fill="white" stroke="#666666" points="1182.99,-129 1038.99,-129 1038.99,-110 1182.99,-110 1182.99,-129"/>
<text text-anchor="middle" x="1110.99" y="-117" font-family="Helvetica,sans-Serif" font-size="10.00">patterns/EnumDecorator.h</text>
</a>
</g>
</g>
<!-- Node10&#45;&gt;Node11 -->
<g id="edge10_Node000010_Node000011" class="edge">
<title>Node10&#45;&gt;Node11</title>
<g id="a_edge10_Node000010_Node000011"><a xlink:title=" ">
<path fill="none" stroke="#63b8ff" d="M1110.99,-164.75C1110.99,-157.8 1110.99,-147.85 1110.99,-139.13"/>
<polygon fill="#63b8ff" stroke="#63b8ff" points="1114.49,-139.09 1110.99,-129.09 1107.49,-139.09 1114.49,-139.09"/>
</a>
</g>
</g>
<!-- Node13 -->
<g id="Node000013" class="node">
<title>Node13</title>
<g id="a_Node000013"><a xlink:title=" ">
<polygon fill="#e0e0e0" stroke="#999999" points="1358.99,-74 1308.99,-74 1308.99,-55 1358.99,-55 1358.99,-74"/>
<text text-anchor="middle" x="1333.99" y="-62" font-family="Helvetica,sans-Serif" font-size="10.00">cstdint</text>
</a>
</g>
</g>
<!-- Node10&#45;&gt;Node13 -->
<g id="edge17_Node000010_Node000013" class="edge">
<title>Node10&#45;&gt;Node13</title>
<g id="a_edge17_Node000010_Node000013"><a xlink:title=" ">
<path fill="none" stroke="#63b8ff" d="M1126.18,-164.85C1148.59,-152.22 1191.99,-128.23 1229.99,-110 1254.3,-98.34 1282.44,-86.39 1303.31,-77.82"/>
<polygon fill="#63b8ff" stroke="#63b8ff" points="1304.7,-81.03 1312.64,-74.01 1302.06,-74.55 1304.7,-81.03"/>
</a>
</g>
</g>
<!-- Node10&#45;&gt;Node16 -->
<g id="edge16_Node000010_Node000016" class="edge">
<title>Node10&#45;&gt;Node16</title>
<g id="a_edge16_Node000010_Node000016"><a xlink:title=" ">
<path fill="none" stroke="#63b8ff" d="M1140.78,-165.1C1172.63,-156.12 1223.32,-141.83 1258.72,-131.85"/>
<polygon fill="#63b8ff" stroke="#63b8ff" points="1260.04,-135.12 1268.72,-129.03 1258.14,-128.38 1260.04,-135.12"/>
</a>
</g>
</g>
<!-- Node11&#45;&gt;Node6 -->
<g id="edge14_Node000011_Node000006" class="edge">
<title>Node11&#45;&gt;Node6</title>
<g id="a_edge14_Node000011_Node000006"><a xlink:title=" ">
<path fill="none" stroke="#63b8ff" d="M1103.75,-109.74C1091.99,-96.07 1067.37,-69.69 1040.99,-55 1001.59,-33.06 950.41,-21.11 917.87,-15.27"/>
<polygon fill="#63b8ff" stroke="#63b8ff" points="918.45,-11.82 908,-13.58 917.27,-18.72 918.45,-11.82"/>
</a>
</g>
</g>
<!-- Node12 -->
<g id="Node000012" class="node">
<title>Node12</title>
<g id="a_Node000012"><a xlink:href="ReflectionMacros_8h.html" target="_top" xlink:title="adapted from https://github.com/tapika/TestCppReflect">
<polygon fill="white" stroke="#666666" points="1202.99,-74 1092.99,-74 1092.99,-55 1202.99,-55 1202.99,-74"/>
<text text-anchor="middle" x="1147.99" y="-62" font-family="Helvetica,sans-Serif" font-size="10.00">ReflectionMacros.h</text>
</a>
</g>
</g>
<!-- Node11&#45;&gt;Node12 -->
<g id="edge11_Node000011_Node000012" class="edge">
<title>Node11&#45;&gt;Node12</title>
<g id="a_edge11_Node000011_Node000012"><a xlink:title=" ">
<path fill="none" stroke="#63b8ff" d="M1117.1,-109.75C1122.27,-102.34 1129.84,-91.5 1136.18,-82.41"/>
<polygon fill="#63b8ff" stroke="#63b8ff" points="1139.14,-84.29 1141.99,-74.09 1133.4,-80.29 1139.14,-84.29"/>
</a>
</g>
</g>
<!-- Node11&#45;&gt;Node13 -->
<g id="edge12_Node000011_Node000013" class="edge">
<title>Node11&#45;&gt;Node13</title>
<g id="a_edge12_Node000011_Node000013"><a xlink:title=" ">
<path fill="none" stroke="#63b8ff" d="M1147.97,-109.95C1184.08,-101.57 1240.86,-88.29 1299.03,-74.21"/>
<polygon fill="#63b8ff" stroke="#63b8ff" points="1299.86,-77.61 1308.75,-71.85 1298.21,-70.81 1299.86,-77.61"/>
</a>
</g>
</g>
<!-- Node14 -->
<g id="Node000014" class="node">
<title>Node14</title>
<g id="a_Node000014"><a xlink:title=" ">
<polygon fill="#e0e0e0" stroke="#999999" points="541.49,-19 448.49,-19 448.49,0 541.49,0 541.49,-19"/>
<text text-anchor="middle" x="494.99" y="-7" font-family="Helvetica,sans-Serif" font-size="10.00">unordered_map</text>
</a>
</g>
</g>
<!-- Node11&#45;&gt;Node14 -->
<g id="edge13_Node000011_Node000014" class="edge">
<title>Node11&#45;&gt;Node14</title>
<g id="a_edge13_Node000011_Node000014"><a xlink:title=" ">
<path fill="none" stroke="#63b8ff" d="M1097.76,-109.95C1072,-93.38 1016.79,-58.22 1006.99,-55 923.78,-27.66 667.08,-16.08 551.92,-12.17"/>
<polygon fill="#63b8ff" stroke="#63b8ff" points="552,-8.67 541.89,-11.84 551.77,-15.67 552,-8.67"/>
</a>
</g>
</g>
<!-- Node15 -->
<g id="Node000015" class="node">
<title>Node15</title>
<g id="a_Node000015"><a xlink:title=" ">
<polygon fill="#e0e0e0" stroke="#999999" points="1290.49,-74 1221.49,-74 1221.49,-55 1290.49,-55 1290.49,-74"/>
<text text-anchor="middle" x="1255.99" y="-62" font-family="Helvetica,sans-Serif" font-size="10.00">type_traits</text>
</a>
</g>
</g>
<!-- Node11&#45;&gt;Node15 -->
<g id="edge15_Node000011_Node000015" class="edge">
<title>Node11&#45;&gt;Node15</title>
<g id="a_edge15_Node000011_Node000015"><a xlink:title=" ">
<path fill="none" stroke="#63b8ff" d="M1134.29,-109.98C1158.24,-101.23 1195.77,-87.51 1222.82,-77.62"/>
<polygon fill="#63b8ff" stroke="#63b8ff" points="1224.08,-80.89 1232.27,-74.17 1221.68,-74.32 1224.08,-80.89"/>
</a>
</g>
</g>
<!-- Node17&#45;&gt;Node4 -->
<g id="edge34_Node000017_Node000004" class="edge">
<title>Node17&#45;&gt;Node4</title>
<g id="a_edge34_Node000017_Node000004"><a xlink:title=" ">
<path fill="none" stroke="#63b8ff" d="M615.41,-223.75C554.12,-213.91 413.57,-191.33 348.8,-180.93"/>
<polygon fill="#63b8ff" stroke="#63b8ff" points="349.15,-177.44 338.72,-179.31 348.04,-184.35 349.15,-177.44"/>
</a>
</g>
</g>
<!-- Node17&#45;&gt;Node10 -->
<g id="edge19_Node000017_Node000010" class="edge">
<title>Node17&#45;&gt;Node10</title>
<g id="a_edge19_Node000017_Node000010"><a xlink:title=" ">
<path fill="none" stroke="#63b8ff" d="M674.49,-225.14C755.21,-215.96 979.75,-190.43 1071.34,-180.01"/>
<polygon fill="#63b8ff" stroke="#63b8ff" points="1071.77,-183.48 1081.32,-178.88 1070.98,-176.53 1071.77,-183.48"/>
</a>
</g>
</g>
<!-- Node18 -->
<g id="Node000018" class="node">
<title>Node18</title>
<g id="a_Node000018"><a xlink:href="IConstraint_8h.html" target="_top" xlink:title="Interface for constraints.">
<polygon fill="white" stroke="#666666" points="684.49,-184 605.49,-184 605.49,-165 684.49,-165 684.49,-184"/>
<text text-anchor="middle" x="644.99" y="-172" font-family="Helvetica,sans-Serif" font-size="10.00">IConstraint.h</text>
</a>
</g>
</g>
<!-- Node17&#45;&gt;Node18 -->
<g id="edge20_Node000017_Node000018" class="edge">
<title>Node17&#45;&gt;Node18</title>
<g id="a_edge20_Node000017_Node000018"><a xlink:title=" ">
<path fill="none" stroke="#63b8ff" d="M644.99,-219.75C644.99,-212.8 644.99,-202.85 644.99,-194.13"/>
<polygon fill="#63b8ff" stroke="#63b8ff" points="648.49,-194.09 644.99,-184.09 641.49,-194.09 648.49,-194.09"/>
</a>
</g>
</g>
<!-- Node19 -->
<g id="Node000019" class="node">
<title>Node19</title>
<g id="a_Node000019"><a xlink:title=" ">
<polygon fill="#e0e0e0" stroke="#999999" points="774.49,-129 655.49,-129 655.49,-110 774.49,-110 774.49,-129"/>
<text text-anchor="middle" x="714.99" y="-117" font-family="Helvetica,sans-Serif" font-size="10.00">interface/param.pb.h</text>
</a>
</g>
</g>
<!-- Node17&#45;&gt;Node19 -->
<g id="edge38_Node000017_Node000019" class="edge">
<title>Node17&#45;&gt;Node19</title>
<g id="a_edge38_Node000017_Node000019"><a xlink:title=" ">
<path fill="none" stroke="#63b8ff" d="M657.22,-219.91C668,-211.78 683.42,-198.65 692.99,-184 701.96,-170.26 707.71,-152.46 711.08,-139.2"/>
<polygon fill="#63b8ff" stroke="#63b8ff" points="714.52,-139.85 713.36,-129.32 707.7,-138.27 714.52,-139.85"/>
</a>
</g>
</g>
<!-- Node17&#45;&gt;Node21 -->
<g id="edge23_Node000017_Node000021" class="edge">
<title>Node17&#45;&gt;Node21</title>
<g id="a_edge23_Node000017_Node000021"><a xlink:title=" ">
<path fill="none" stroke="#63b8ff" d="M673.75,-219.98C703.93,-211.05 751.56,-196.94 785.09,-187.02"/>
<polygon fill="#63b8ff" stroke="#63b8ff" points="786.41,-190.28 795.01,-184.08 784.42,-183.57 786.41,-190.28"/>
</a>
</g>
</g>
<!-- Node17&#45;&gt;Node28 -->
<g id="edge35_Node000017_Node000028" class="edge">
<title>Node17&#45;&gt;Node28</title>
<g id="a_edge35_Node000017_Node000028"><a xlink:title=" ">
<path fill="none" stroke="#63b8ff" d="M622.82,-219.98C600.22,-211.3 564.93,-197.75 539.24,-187.88"/>
<polygon fill="#63b8ff" stroke="#63b8ff" points="540.16,-184.49 529.57,-184.17 537.65,-191.02 540.16,-184.49"/>
</a>
</g>
</g>
<!-- Node18&#45;&gt;Node19 -->
<g id="edge21_Node000018_Node000019" class="edge">
<title>Node18&#45;&gt;Node19</title>
<g id="a_edge21_Node000018_Node000019"><a xlink:title=" ">
<path fill="none" stroke="#63b8ff" d="M656.24,-164.98C666.79,-157 682.79,-144.88 695.43,-135.31"/>
<polygon fill="#63b8ff" stroke="#63b8ff" points="697.68,-138 703.54,-129.17 693.45,-132.42 697.68,-138"/>
</a>
</g>
</g>
<!-- Node20 -->
<g id="Node000020" class="node">
<title>Node20</title>
<g id="a_Node000020"><a xlink:title=" ">
<polygon fill="#e0e0e0" stroke="#999999" points="636.99,-129 500.99,-129 500.99,-110 636.99,-110 636.99,-129"/>
<text text-anchor="middle" x="568.99" y="-117" font-family="Helvetica,sans-Serif" font-size="10.00">interface/constraint.pb.h</text>
</a>
</g>
</g>
<!-- Node18&#45;&gt;Node20 -->
<g id="edge22_Node000018_Node000020" class="edge">
<title>Node18&#45;&gt;Node20</title>
<g id="a_edge22_Node000018_Node000020"><a xlink:title=" ">
<path fill="none" stroke="#63b8ff" d="M632.78,-164.98C621.21,-156.92 603.62,-144.65 589.83,-135.03"/>
<polygon fill="#63b8ff" stroke="#63b8ff" points="591.63,-132.02 581.42,-129.17 587.62,-137.76 591.63,-132.02"/>
</a>
</g>
</g>
<!-- Node21&#45;&gt;Node19 -->
<g id="edge33_Node000021_Node000019" class="edge">
<title>Node21&#45;&gt;Node19</title>
<g id="a_edge33_Node000021_Node000019"><a xlink:title=" ">
<path fill="none" stroke="#63b8ff" d="M806.48,-164.98C789.02,-156.5 761.98,-143.35 741.82,-133.54"/>
<polygon fill="#63b8ff" stroke="#63b8ff" points="743.35,-130.4 732.82,-129.17 740.28,-136.69 743.35,-130.4"/>
</a>
</g>
</g>
<!-- Node22 -->
<g id="Node000022" class="node">
<title>Node22</title>
<g id="a_Node000022"><a xlink:href="Tags_8h.html" target="_top" xlink:title="Tags to differentiate collections with the same type for template specialization.">
<polygon fill="white" stroke="#666666" points="982.49,-129 935.49,-129 935.49,-110 982.49,-110 982.49,-129"/>
<text text-anchor="middle" x="958.99" y="-117" font-family="Helvetica,sans-Serif" font-size="10.00">Tags.h</text>
</a>
</g>
</g>
<!-- Node21&#45;&gt;Node22 -->
<g id="edge24_Node000021_Node000022" class="edge">
<title>Node21&#45;&gt;Node22</title>
<g id="a_edge24_Node000021_Node000022"><a xlink:title=" ">
<path fill="none" stroke="#63b8ff" d="M845.68,-164.98C867.79,-156.3 902.31,-142.75 927.44,-132.88"/>
<polygon fill="#63b8ff" stroke="#63b8ff" points="928.88,-136.08 936.91,-129.17 926.32,-129.57 928.88,-136.08"/>
</a>
</g>
</g>
<!-- Node24 -->
<g id="Node000024" class="node">
<title>Node24</title>
<g id="a_Node000024"><a xlink:href="PolyglotText_8h.html" target="_top" xlink:title="Polyglot Text serialization and deserialization to protobuf.">
<polygon fill="white" stroke="#666666" points="878.99,-129 792.99,-129 792.99,-110 878.99,-110 878.99,-129"/>
<text text-anchor="middle" x="835.99" y="-117" font-family="Helvetica,sans-Serif" font-size="10.00">PolyglotText.h</text>
</a>
</g>
</g>
<!-- Node21&#45;&gt;Node24 -->
<g id="edge27_Node000021_Node000024" class="edge">
<title>Node21&#45;&gt;Node24</title>
<g id="a_edge27_Node000021_Node000024"><a xlink:title=" ">
<path fill="none" stroke="#63b8ff" d="M825.97,-164.75C827.56,-157.72 829.85,-147.62 831.84,-138.84"/>
<polygon fill="#63b8ff" stroke="#63b8ff" points="835.25,-139.62 834.05,-129.09 828.42,-138.07 835.25,-139.62"/>
</a>
</g>
</g>
<!-- Node22&#45;&gt;Node6 -->
<g id="edge26_Node000022_Node000006" class="edge">
<title>Node22&#45;&gt;Node6</title>
<g id="a_edge26_Node000022_Node000006"><a xlink:title=" ">
<path fill="none" stroke="#63b8ff" d="M951.68,-109.88C944.35,-101.1 932.91,-86.95 923.99,-74 913.66,-58.99 903.11,-41.12 895.76,-28.16"/>
<polygon fill="#63b8ff" stroke="#63b8ff" points="898.76,-26.36 890.81,-19.35 892.65,-29.78 898.76,-26.36"/>
</a>
</g>
</g>
<!-- Node22&#45;&gt;Node23 -->
<g id="edge25_Node000022_Node000023" class="edge">
<title>Node22&#45;&gt;Node23</title>
<g id="a_edge25_Node000022_Node000023"><a xlink:title=" ">
<path fill="none" stroke="#63b8ff" d="M960.15,-109.75C961.06,-102.8 962.38,-92.85 963.53,-84.13"/>
<polygon fill="#63b8ff" stroke="#63b8ff" points="967.02,-84.46 964.86,-74.09 960.08,-83.54 967.02,-84.46"/>
</a>
</g>
</g>
<!-- Node25 -->
<g id="Node000025" class="node">
<title>Node25</title>
<g id="a_Node000025"><a xlink:href="IPolyglotText_8h.html" target="_top" xlink:title="Catena&#39;s multi&#45;language text interface.">
<polygon fill="white" stroke="#666666" points="428.49,-74 339.49,-74 339.49,-55 428.49,-55 428.49,-74"/>
<text text-anchor="middle" x="383.99" y="-62" font-family="Helvetica,sans-Serif" font-size="10.00">IPolyglotText.h</text>
</a>
</g>
</g>
<!-- Node24&#45;&gt;Node25 -->
<g id="edge28_Node000024_Node000025" class="edge">
<title>Node24&#45;&gt;Node25</title>
<g id="a_edge28_Node000024_Node000025"><a xlink:title=" ">
<path fill="none" stroke="#63b8ff" d="M792.92,-111.39C789.56,-110.9 786.22,-110.43 782.99,-110 633.01,-90.19 592.01,-94.07 438.76,-74.17"/>
<polygon fill="#63b8ff" stroke="#63b8ff" points="438.87,-70.65 428.5,-72.82 437.96,-77.59 438.87,-70.65"/>
</a>
</g>
</g>
<!-- Node25&#45;&gt;Node6 -->
<g id="edge31_Node000025_Node000006" class="edge">
<title>Node25&#45;&gt;Node6</title>
<g id="a_edge31_Node000025_Node000006"><a xlink:title=" ">
<path fill="none" stroke="#63b8ff" d="M428.5,-56.16C431.37,-55.75 434.22,-55.36 436.99,-55 592.85,-34.8 780.19,-18.93 853.94,-13.01"/>
<polygon fill="#63b8ff" stroke="#63b8ff" points="854.29,-16.49 863.98,-12.21 853.73,-9.51 854.29,-16.49"/>
</a>
</g>
</g>
<!-- Node25&#45;&gt;Node14 -->
<g id="edge30_Node000025_Node000014" class="edge">
<title>Node25&#45;&gt;Node14</title>
<g id="a_edge30_Node000025_Node000014"><a xlink:title=" ">
<path fill="none" stroke="#63b8ff" d="M401.82,-54.98C419.6,-46.5 447.14,-33.35 467.67,-23.54"/>
<polygon fill="#63b8ff" stroke="#63b8ff" points="469.32,-26.64 476.83,-19.17 466.3,-20.32 469.32,-26.64"/>
</a>
</g>
</g>
<!-- Node26 -->
<g id="Node000026" class="node">
<title>Node26</title>
<g id="a_Node000026"><a xlink:title=" ">
<polygon fill="#e0e0e0" stroke="#999999" points="326.99,-19 194.99,-19 194.99,0 326.99,0 326.99,-19"/>
<text text-anchor="middle" x="260.99" y="-7" font-family="Helvetica,sans-Serif" font-size="10.00">interface/language.pb.h</text>
</a>
</g>
</g>
<!-- Node25&#45;&gt;Node26 -->
<g id="edge29_Node000025_Node000026" class="edge">
<title>Node25&#45;&gt;Node26</title>
<g id="a_edge29_Node000025_Node000026"><a xlink:title=" ">
<path fill="none" stroke="#63b8ff" d="M364.23,-54.98C344.26,-46.38 313.19,-32.99 290.34,-23.15"/>
<polygon fill="#63b8ff" stroke="#63b8ff" points="291.68,-19.91 281.11,-19.17 288.91,-26.34 291.68,-19.91"/>
</a>
</g>
</g>
<!-- Node27 -->
<g id="Node000027" class="node">
<title>Node27</title>
<g id="a_Node000027"><a xlink:title=" ">
<polygon fill="#e0e0e0" stroke="#999999" points="428.49,-19 345.49,-19 345.49,0 428.49,0 428.49,-19"/>
<text text-anchor="middle" x="386.99" y="-7" font-family="Helvetica,sans-Serif" font-size="10.00">initializer_list</text>
</a>
</g>
</g>
<!-- Node25&#45;&gt;Node27 -->
<g id="edge32_Node000025_Node000027" class="edge">
<title>Node25&#45;&gt;Node27</title>
<g id="a_edge32_Node000025_Node000027"><a xlink:title=" ">
<path fill="none" stroke="#63b8ff" d="M384.49,-54.75C384.88,-47.8 385.44,-37.85 385.94,-29.13"/>
<polygon fill="#63b8ff" stroke="#63b8ff" points="389.43,-29.27 386.5,-19.09 382.44,-28.88 389.43,-29.27"/>
</a>
</g>
</g>
<!-- Node29 -->
<g id="Node000029" class="node">
<title>Node29</title>
<g id="a_Node000029"><a xlink:title=" ">
<polygon fill="#e0e0e0" stroke="#999999" points="482.99,-129 426.99,-129 426.99,-110 482.99,-110 482.99,-129"/>
<text text-anchor="middle" x="454.99" y="-117" font-family="Helvetica,sans-Serif" font-size="10.00">sstream</text>
</a>
</g>
</g>
<!-- Node28&#45;&gt;Node29 -->
<g id="edge36_Node000028_Node000029" class="edge">
<title>Node28&#45;&gt;Node29</title>
<g id="a_edge36_Node000028_Node000029"><a xlink:title=" ">
<path fill="none" stroke="#63b8ff" d="M498.4,-164.75C490.83,-157.03 479.61,-145.6 470.48,-136.28"/>
<polygon fill="#63b8ff" stroke="#63b8ff" points="472.92,-133.78 463.42,-129.09 467.92,-138.68 472.92,-133.78"/>
</a>
</g>
</g>
<!-- Node30 -->
<g id="Node000030" class="node">
<title>Node30</title>
<g id="a_Node000030"><a xlink:title=" ">
<polygon fill="#e0e0e0" stroke="#999999" points="408.49,-129 343.49,-129 343.49,-110 408.49,-110 408.49,-129"/>
<text text-anchor="middle" x="375.99" y="-117" font-family="Helvetica,sans-Serif" font-size="10.00">stdexcept</text>
</a>
</g>
</g>
<!-- Node28&#45;&gt;Node30 -->
<g id="edge37_Node000028_Node000030" class="edge">
<title>Node28&#45;&gt;Node30</title>
<g id="a_edge37_Node000028_Node000030"><a xlink:title=" ">
<path fill="none" stroke="#63b8ff" d="M485.94,-164.98C464.58,-156.34 431.29,-142.87 406.93,-133.02"/>
<polygon fill="#63b8ff" stroke="#63b8ff" points="408,-129.68 397.42,-129.17 405.38,-136.17 408,-129.68"/>
</a>
</g>
</g>
<!-- Node32&#45;&gt;Node6 -->
<g id="edge45_Node000032_Node000006" class="edge">
<title>Node32&#45;&gt;Node6</title>
<g id="a_edge45_Node000032_Node000006"><a xlink:title=" ">
<path fill="none" stroke="#63b8ff" d="M544.12,-56.84C625.3,-45.84 785.29,-24.15 853.71,-14.88"/>
<polygon fill="#63b8ff" stroke="#63b8ff" points="854.44,-18.31 863.88,-13.5 853.5,-11.37 854.44,-18.31"/>
</a>
</g>
</g>
<!-- Node32&#45;&gt;Node14 -->
<g id="edge46_Node000032_Node000014" class="edge">
<title>Node32&#45;&gt;Node14</title>
<g id="a_edge46_Node000032_Node000014"><a xlink:title=" ">
<path fill="none" stroke="#63b8ff" d="M494.99,-54.75C494.99,-47.8 494.99,-37.85 494.99,-29.13"/>
<polygon fill="#63b8ff" stroke="#63b8ff" points="498.49,-29.09 494.99,-19.09 491.49,-29.09 498.49,-29.09"/>
</a>
</g>
</g>
<!-- Node36&#45;&gt;Node2 -->
<g id="edge61_Node000036_Node000002" class="edge">
<title>Node36&#45;&gt;Node2</title>
<g id="a_edge61_Node000036_Node000002"><a xlink:title=" ">
<path fill="none" stroke="#63b8ff" d="M569.87,-439.66C592.59,-421.22 645.26,-378.45 673.43,-355.57"/>
<polygon fill="#63b8ff" stroke="#63b8ff" points="675.77,-358.18 681.33,-349.16 671.36,-352.75 675.77,-358.18"/>
</a>
</g>
</g>
<!-- Node36&#45;&gt;Node4 -->
<g id="edge60_Node000036_Node000004" class="edge">
<title>Node36&#45;&gt;Node4</title>
<g id="a_edge60_Node000036_Node000004"><a xlink:title=" ">
<path fill="none" stroke="#63b8ff" d="M515.45,-444.72C419.43,-435.18 197.99,-406.08 197.99,-340.5 197.99,-340.5 197.99,-340.5 197.99,-283.5 197.99,-236.75 249.04,-204.64 283.7,-188.23"/>
<polygon fill="#63b8ff" stroke="#63b8ff" points="285.32,-191.33 292.98,-184.01 282.43,-184.96 285.32,-191.33"/>
</a>
</g>
</g>
<!-- Node37 -->
<g id="Node000037" class="node">
<title>Node37</title>
<g id="a_Node000037"><a xlink:href="IParamVisitor_8h.html" target="_top" xlink:title="Implements Catena IParamVisitor.">
<polygon fill="white" stroke="#666666" points="542.99,-404 452.99,-404 452.99,-385 542.99,-385 542.99,-404"/>
<text text-anchor="middle" x="497.99" y="-392" font-family="Helvetica,sans-Serif" font-size="10.00">IParamVisitor.h</text>
</a>
</g>
</g>
<!-- Node36&#45;&gt;Node37 -->
<g id="edge56_Node000036_Node000037" class="edge">
<title>Node36&#45;&gt;Node37</title>
<g id="a_edge56_Node000036_Node000037"><a xlink:title=" ">
<path fill="none" stroke="#63b8ff" d="M549.19,-439.98C540.17,-432.15 526.58,-420.34 515.67,-410.86"/>
<polygon fill="#63b8ff" stroke="#63b8ff" points="517.81,-408.09 507.97,-404.17 513.22,-413.37 517.81,-408.09"/>
</a>
</g>
</g>
<!-- Node37&#45;&gt;Node2 -->
<g id="edge59_Node000037_Node000002" class="edge">
<title>Node37&#45;&gt;Node2</title>
<g id="a_edge59_Node000037_Node000002"><a xlink:title=" ">
<path fill="none" stroke="#63b8ff" d="M529.16,-384.98C562.25,-375.94 614.7,-361.62 651.09,-351.67"/>
<polygon fill="#63b8ff" stroke="#63b8ff" points="652.17,-355.01 660.9,-348.99 650.33,-348.25 652.17,-355.01"/>
</a>
</g>
</g>
<!-- Node37&#45;&gt;Node4 -->
<g id="edge58_Node000037_Node000004" class="edge">
<title>Node37&#45;&gt;Node4</title>
<g id="a_edge58_Node000037_Node000004"><a xlink:title=" ">
<path fill="none" stroke="#63b8ff" d="M490.82,-384.95C463.43,-352.33 365.21,-235.32 328.74,-191.88"/>
<polygon fill="#63b8ff" stroke="#63b8ff" points="331.42,-189.63 322.31,-184.22 326.06,-194.13 331.42,-189.63"/>
</a>
</g>
</g>
<!-- Node37&#45;&gt;Node17 -->
<g id="edge57_Node000037_Node000017" class="edge">
<title>Node37&#45;&gt;Node17</title>
<g id="a_edge57_Node000037_Node000017"><a xlink:title=" ">
<path fill="none" stroke="#63b8ff" d="M505.89,-384.74C529.42,-358.65 599.29,-281.17 630.11,-247"/>
<polygon fill="#63b8ff" stroke="#63b8ff" points="632.95,-249.08 637.05,-239.31 627.75,-244.39 632.95,-249.08"/>
</a>
</g>
</g>
<!-- Node38&#45;&gt;Node2 -->
<g id="edge65_Node000038_Node000002" class="edge">
<title>Node38&#45;&gt;Node2</title>
<g id="a_edge65_Node000038_Node000002"><a xlink:title=" ">
<path fill="none" stroke="#63b8ff" d="M946.31,-384.98C887.37,-374.68 789.14,-357.49 733.58,-347.78"/>
<polygon fill="#63b8ff" stroke="#63b8ff" points="733.85,-344.27 723.4,-345.99 732.64,-351.16 733.85,-344.27"/>
</a>
</g>
</g>
<!-- Node38&#45;&gt;Node3 -->
<g id="edge67_Node000038_Node000003" class="edge">
<title>Node38&#45;&gt;Node3</title>
<g id="a_edge67_Node000038_Node000003"><a xlink:title=" ">
<path fill="none" stroke="#63b8ff" d="M996.95,-384.66C1000.86,-367.09 1009.67,-327.45 1014.89,-303.95"/>
<polygon fill="#63b8ff" stroke="#63b8ff" points="1018.31,-304.68 1017.07,-294.16 1011.48,-303.16 1018.31,-304.68"/>
</a>
</g>
</g>
<!-- Node38&#45;&gt;Node6 -->
<g id="edge64_Node000038_Node000006" class="edge">
<title>Node38&#45;&gt;Node6</title>
<g id="a_edge64_Node000038_Node000006"><a xlink:title=" ">
<path fill="none" stroke="#63b8ff" d="M1003.52,-384.81C1016.18,-372.12 1040.91,-348.06 1063.99,-330 1207.47,-217.71 1490.75,-189.62 1367.99,-55 1337.71,-21.79 1021.44,-13.01 918.31,-11.02"/>
<polygon fill="#63b8ff" stroke="#63b8ff" points="918.25,-7.52 908.18,-10.83 918.12,-14.52 918.25,-7.52"/>
</a>
</g>
</g>
<!-- Node38&#45;&gt;Node17 -->
<g id="edge66_Node000038_Node000017" class="edge">
<title>Node38&#45;&gt;Node17</title>
<g id="a_edge66_Node000038_Node000017"><a xlink:title=" ">
<path fill="none" stroke="#63b8ff" d="M990.05,-384.89C976.76,-362.6 937.86,-302.81 887.99,-275 823.3,-238.92 735.29,-231.27 684.87,-230.11"/>
<polygon fill="#63b8ff" stroke="#63b8ff" points="684.76,-226.61 674.71,-229.95 684.65,-233.61 684.76,-226.61"/>
</a>
</g>
</g>
<!-- Node38&#45;&gt;Node39 -->
<g id="edge63_Node000038_Node000039" class="edge">
<title>Node38&#45;&gt;Node39</title>
<g id="a_edge63_Node000038_Node000039"><a xlink:title=" ">
<path fill="none" stroke="#63b8ff" d="M1010.09,-384.98C1024.81,-376.69 1047.42,-363.94 1064.67,-354.22"/>
<polygon fill="#63b8ff" stroke="#63b8ff" points="1066.62,-357.13 1073.61,-349.17 1063.18,-351.03 1066.62,-357.13"/>
</a>
</g>
</g>
</g>
</svg>
