<?xml version="1.0" encoding="UTF-8" standalone="no"?>
<!DOCTYPE svg PUBLIC "-//W3C//DTD SVG 1.1//EN"
 "http://www.w3.org/Graphics/SVG/1.1/DTD/svg11.dtd">
<!-- Generated by graphviz version 2.43.0 (0)
 -->
<!-- Title: /home/runner/work/Catena/Catena/sdks/cpp/common/include/SubscriptionManager.h Pages: 1 -->
<!--zoomable 445 -->

<svg id="main" version="1.1" xmlns="http://www.w3.org/2000/svg" xmlns:xlink="http://www.w3.org/1999/xlink" xml:space="preserve" onload="init(evt)">
<style type="text/css"><![CDATA[
.node, .edge {opacity: 0.7;}
.node.selected, .edge.selected {opacity: 1;}
.edge:hover path { stroke: red; }
.edge:hover polygon { stroke: red; fill: red; }
]]></style>

<defs>
  <circle id="rim" cx="0" cy="0" r="7"/>
  <circle id="rim2" cx="0" cy="0" r="3.5"/>
  <g id="zoomPlus">
    <use xlink:href="#rim" fill="#404040"><set attributeName="fill" to="#808080" begin="zoomplus.mouseover" end="zoomplus.mouseout"/></use>
    <path d="M-4,0h8M0,-4v8" fill="none" stroke="white" stroke-width="1.5" pointer-events="none"/>
  </g>
  <g id="zoomMin">
    <use xlink:href="#rim" fill="#404040"><set attributeName="fill" to="#808080" begin="zoomminus.mouseover" end="zoomminus.mouseout"/></use>
    <path d="M-4,0h8" fill="none" stroke="white" stroke-width="1.5" pointer-events="none"/>
  </g>
  <g id="arrowUp" transform="translate(30 24)">
    <use xlink:href="#rim"/>
    <path pointer-events="none" fill="none" stroke="white" stroke-width="1.5" d="M0,-3.0v7 M-2.5,-0.5L0,-3.0L2.5,-0.5"/>
  </g>
  <g id="arrowRight" transform="rotate(90) translate(36 -43)">
    <use xlink:href="#rim"/>
    <path pointer-events="none" fill="none" stroke="white" stroke-width="1.5" d="M0,-3.0v7 M-2.5,-0.5L0,-3.0L2.5,-0.5"/>
  </g>
  <g id="arrowDown" transform="rotate(180) translate(-30 -48)">
    <use xlink:href="#rim"/>
    <path pointer-events="none" fill="none" stroke="white" stroke-width="1.5" d="M0,-3.0v7 M-2.5,-0.5L0,-3.0L2.5,-0.5"/>
  </g>
  <g id="arrowLeft" transform="rotate(270) translate(-36 17)">
    <use xlink:href="#rim"/>
    <path pointer-events="none" fill="none" stroke="white" stroke-width="1.5" d="M0,-3.0v7 M-2.5,-0.5L0,-3.0L2.5,-0.5"/>
  </g>
  <g id="resetDef">
    <use xlink:href="#rim2" fill="#404040"><set attributeName="fill" to="#808080" begin="reset.mouseover" end="reset.mouseout"/></use>
  </g>
</defs>
<script type="application/ecmascript">
var viewWidth = 5439;
var viewHeight = 445;
var sectionId = 'dynsection-1';
</script>
<script type="application/ecmascript" xlink:href="svg.min.js"/>
<svg id="graph" class="graph">
<g id="viewport">
<title>/home/runner/work/Catena/Catena/sdks/cpp/common/include/SubscriptionManager.h</title>
<!-- Node1 -->
<g id="Node000001" class="node">
<title>Node1</title>
<g id="a_Node000001"><a xlink:title="Centralized manager for parameter subscriptions in Catena.">
<polygon fill="#999999" stroke="#666666" points="2901,-437 2732,-437 2732,-396 2901,-396 2901,-437"/>
<text text-anchor="start" x="2740" y="-425" font-family="Helvetica,sans-Serif" font-size="10.00">/home/runner/work/Catena</text>
<text text-anchor="start" x="2740" y="-414" font-family="Helvetica,sans-Serif" font-size="10.00">/Catena/sdks/cpp/common</text>
<text text-anchor="middle" x="2816.5" y="-403" font-family="Helvetica,sans-Serif" font-size="10.00">/include/SubscriptionManager.h</text>
</a>
</g>
</g>
<!-- Node2 -->
<g id="Node000002" class="node">
<title>Node2</title>
<g id="a_Node000002"><a xlink:href="connections_2REST_2include_2controllers_2Connect_8h.html" target="_top" xlink:title="Implements REST Connect RPC.">
<polygon fill="white" stroke="#666666" points="2935,-123.5 2746,-123.5 2746,-82.5 2935,-82.5 2935,-123.5"/>
<text text-anchor="start" x="2754" y="-111.5" font-family="Helvetica,sans-Serif" font-size="10.00">/home/runner/work/Catena</text>
<text text-anchor="start" x="2754" y="-100.5" font-family="Helvetica,sans-Serif" font-size="10.00">/Catena/sdks/cpp/connections</text>
<text text-anchor="middle" x="2840.5" y="-89.5" font-family="Helvetica,sans-Serif" font-size="10.00">/REST/include/controllers/Connect.h</text>
</a>
</g>
</g>
<!-- Node1&#45;&gt;Node2 -->
<g id="edge1_Node000001_Node000002" class="edge">
<title>Node1&#45;&gt;Node2</title>
<g id="a_edge1_Node000001_Node000002"><a xlink:title=" ">
<path fill="none" stroke="#63b8ff" d="M2818.82,-385.42C2823.69,-322.15 2834.89,-176.79 2838.97,-123.79"/>
<polygon fill="#63b8ff" stroke="#63b8ff" points="2815.32,-385.3 2818.04,-395.54 2822.3,-385.84 2815.32,-385.3"/>
</a>
</g>
</g>
<!-- Node3 -->
<g id="Node000003" class="node">
<title>Node3</title>
<g id="a_Node000003"><a xlink:href="ISocketReader_8h.html" target="_top" xlink:title="Interface for the SocketReader class.">
<polygon fill="white" stroke="#666666" points="1718.5,-360 1508.5,-360 1508.5,-319 1718.5,-319 1718.5,-360"/>
<text text-anchor="start" x="1516.5" y="-348" font-family="Helvetica,sans-Serif" font-size="10.00">/home/runner/work/Catena</text>
<text text-anchor="start" x="1516.5" y="-337" font-family="Helvetica,sans-Serif" font-size="10.00">/Catena/sdks/cpp/connections</text>
<text text-anchor="middle" x="1613.5" y="-326" font-family="Helvetica,sans-Serif" font-size="10.00">/REST/include/interface/ISocketReader.h</text>
</a>
</g>
</g>
<!-- Node1&#45;&gt;Node3 -->
<g id="edge2_Node000001_Node000003" class="edge">
<title>Node1&#45;&gt;Node3</title>
<g id="a_edge2_Node000001_Node000003"><a xlink:title=" ">
<path fill="none" stroke="#63b8ff" d="M2721.61,-409.58C2500.03,-395.77 1949.91,-361.47 1718.61,-347.05"/>
<polygon fill="#63b8ff" stroke="#63b8ff" points="2721.71,-413.1 2731.91,-410.23 2722.14,-406.11 2721.71,-413.1"/>
</a>
</g>
</g>
<!-- Node19 -->
<g id="Node000019" class="node">
<title>Node19</title>
<g id="a_Node000019"><a xlink:href="gRPC_2include_2ServiceImpl_8h.html" target="_top" xlink:title="Implements Catena gRPC request handlers.">
<polygon fill="white" stroke="#666666" points="4208,-360 4047,-360 4047,-319 4208,-319 4208,-360"/>
<text text-anchor="start" x="4055" y="-348" font-family="Helvetica,sans-Serif" font-size="10.00">/home/runner/work/Catena</text>
<text text-anchor="start" x="4055" y="-337" font-family="Helvetica,sans-Serif" font-size="10.00">/Catena/sdks/cpp/connections</text>
<text text-anchor="middle" x="4127.5" y="-326" font-family="Helvetica,sans-Serif" font-size="10.00">/gRPC/include/ServiceImpl.h</text>
</a>
</g>
</g>
<!-- Node1&#45;&gt;Node19 -->
<g id="edge32_Node000001_Node000019" class="edge">
<title>Node1&#45;&gt;Node19</title>
<g id="a_edge32_Node000001_Node000019"><a xlink:title=" ">
<path fill="none" stroke="#63b8ff" d="M2911.01,-410.09C3157.48,-395.99 3816.59,-358.29 4046.8,-345.12"/>
<polygon fill="#63b8ff" stroke="#63b8ff" points="2910.79,-406.6 2901.01,-410.67 2911.19,-413.59 2910.79,-406.6"/>
</a>
</g>
</g>
<!-- Node3&#45;&gt;Node2 -->
<g id="edge22_Node000003_Node000002" class="edge">
<title>Node3&#45;&gt;Node2</title>
<g id="a_edge22_Node000003_Node000002"><a xlink:title=" ">
<path fill="none" stroke="#63b8ff" d="M1728.88,-320.77C1795.26,-310.32 1880.18,-296.53 1955.5,-283 2303.72,-220.43 2390.87,-204.58 2736.5,-129 2744.39,-127.27 2752.6,-125.41 2760.8,-123.51"/>
<polygon fill="#63b8ff" stroke="#63b8ff" points="1728.15,-317.34 1718.81,-322.35 1729.23,-324.26 1728.15,-317.34"/>
</a>
</g>
</g>
<!-- Node4 -->
<g id="Node000004" class="node">
<title>Node4</title>
<g id="a_Node000004"><a xlink:href="SocketReader_8h.html" target="_top" xlink:title="Helper class used to read from a socket using boost.">
<polygon fill="white" stroke="#666666" points="1485,-283 1324,-283 1324,-242 1485,-242 1485,-283"/>
<text text-anchor="start" x="1332" y="-271" font-family="Helvetica,sans-Serif" font-size="10.00">/home/runner/work/Catena</text>
<text text-anchor="start" x="1332" y="-260" font-family="Helvetica,sans-Serif" font-size="10.00">/Catena/sdks/cpp/connections</text>
<text text-anchor="middle" x="1404.5" y="-249" font-family="Helvetica,sans-Serif" font-size="10.00">/REST/include/SocketReader.h</text>
</a>
</g>
</g>
<!-- Node3&#45;&gt;Node4 -->
<g id="edge3_Node000003_Node000004" class="edge">
<title>Node3&#45;&gt;Node4</title>
<g id="a_edge3_Node000003_Node000004"><a xlink:title=" ">
<path fill="none" stroke="#63b8ff" d="M1549.52,-315.54C1520.55,-305.15 1486.68,-292.99 1458.96,-283.04"/>
<polygon fill="#63b8ff" stroke="#63b8ff" points="1548.54,-318.91 1559.13,-318.99 1550.9,-312.32 1548.54,-318.91"/>
</a>
</g>
</g>
<!-- Node7 -->
<g id="Node000007" class="node">
<title>Node7</title>
<g id="a_Node000007"><a xlink:href="REST_2include_2controllers_2AddLanguage_8h.html" target="_top" xlink:title="Implements REST AddLanguage RPC.">
<polygon fill="white" stroke="#666666" points="2015,-123.5 1800,-123.5 1800,-82.5 2015,-82.5 2015,-123.5"/>
<text text-anchor="start" x="1808" y="-111.5" font-family="Helvetica,sans-Serif" font-size="10.00">/home/runner/work/Catena</text>
<text text-anchor="start" x="1808" y="-100.5" font-family="Helvetica,sans-Serif" font-size="10.00">/Catena/sdks/cpp/connections</text>
<text text-anchor="middle" x="1907.5" y="-89.5" font-family="Helvetica,sans-Serif" font-size="10.00">/REST/include/controllers/AddLanguage.h</text>
</a>
</g>
</g>
<!-- Node3&#45;&gt;Node7 -->
<g id="edge20_Node000003_Node000007" class="edge">
<title>Node3&#45;&gt;Node7</title>
<g id="a_edge20_Node000003_Node000007"><a xlink:title=" ">
<path fill="none" stroke="#63b8ff" d="M1645.98,-312.59C1705.28,-265.3 1829.82,-165.96 1882.8,-123.7"/>
<polygon fill="#63b8ff" stroke="#63b8ff" points="1643.7,-309.94 1638.06,-318.91 1648.06,-315.41 1643.7,-309.94"/>
</a>
</g>
</g>
<!-- Node8 -->
<g id="Node000008" class="node">
<title>Node8</title>
<g id="a_Node000008"><a xlink:href="REST_2include_2controllers_2BasicParamInfoRequest_8h.html" target="_top" xlink:title="Implements REST BasicParamInfoRequest controller.">
<polygon fill="white" stroke="#666666" points="2230,-129 2033,-129 2033,-77 2230,-77 2230,-129"/>
<text text-anchor="start" x="2041" y="-117" font-family="Helvetica,sans-Serif" font-size="10.00">/home/runner/work/Catena</text>
<text text-anchor="start" x="2041" y="-106" font-family="Helvetica,sans-Serif" font-size="10.00">/Catena/sdks/cpp/connections</text>
<text text-anchor="start" x="2041" y="-95" font-family="Helvetica,sans-Serif" font-size="10.00">/REST/include/controllers/BasicParam</text>
<text text-anchor="middle" x="2131.5" y="-84" font-family="Helvetica,sans-Serif" font-size="10.00">InfoRequest.h</text>
</a>
</g>
</g>
<!-- Node3&#45;&gt;Node8 -->
<g id="edge21_Node000003_Node000008" class="edge">
<title>Node3&#45;&gt;Node8</title>
<g id="a_edge21_Node000003_Node000008"><a xlink:title=" ">
<path fill="none" stroke="#63b8ff" d="M1665.93,-314.77C1764.25,-270.25 1975.46,-174.64 2076.05,-129.1"/>
<polygon fill="#63b8ff" stroke="#63b8ff" points="1664.44,-311.6 1656.77,-318.91 1667.33,-317.97 1664.44,-311.6"/>
</a>
</g>
</g>
<!-- Node9 -->
<g id="Node000009" class="node">
<title>Node9</title>
<g id="a_Node000009"><a xlink:href="REST_2include_2controllers_2DeviceRequest_8h.html" target="_top" xlink:title="Implements REST DeviceRequest RPC.">
<polygon fill="white" stroke="#666666" points="2471,-123.5 2248,-123.5 2248,-82.5 2471,-82.5 2471,-123.5"/>
<text text-anchor="start" x="2256" y="-111.5" font-family="Helvetica,sans-Serif" font-size="10.00">/home/runner/work/Catena</text>
<text text-anchor="start" x="2256" y="-100.5" font-family="Helvetica,sans-Serif" font-size="10.00">/Catena/sdks/cpp/connections</text>
<text text-anchor="middle" x="2359.5" y="-89.5" font-family="Helvetica,sans-Serif" font-size="10.00">/REST/include/controllers/DeviceRequest.h</text>
</a>
</g>
</g>
<!-- Node3&#45;&gt;Node9 -->
<g id="edge23_Node000003_Node000009" class="edge">
<title>Node3&#45;&gt;Node9</title>
<g id="a_edge23_Node000003_Node000009"><a xlink:title=" ">
<path fill="none" stroke="#63b8ff" d="M1687.99,-315.99C1720.96,-305.98 1760.19,-293.99 1795.5,-283 1978.93,-225.93 2195.32,-156.72 2298.65,-123.56"/>
<polygon fill="#63b8ff" stroke="#63b8ff" points="1686.97,-312.65 1678.41,-318.9 1689,-319.34 1686.97,-312.65"/>
</a>
</g>
</g>
<!-- Node10 -->
<g id="Node000010" class="node">
<title>Node10</title>
<g id="a_Node000010"><a xlink:href="REST_2include_2controllers_2ExecuteCommand_8h.html" target="_top" xlink:title="Implements the ExecuteCommand REST API.">
<polygon fill="white" stroke="#666666" points="2727.5,-123.5 2489.5,-123.5 2489.5,-82.5 2727.5,-82.5 2727.5,-123.5"/>
<text text-anchor="start" x="2497.5" y="-111.5" font-family="Helvetica,sans-Serif" font-size="10.00">/home/runner/work/Catena</text>
<text text-anchor="start" x="2497.5" y="-100.5" font-family="Helvetica,sans-Serif" font-size="10.00">/Catena/sdks/cpp/connections</text>
<text text-anchor="middle" x="2608.5" y="-89.5" font-family="Helvetica,sans-Serif" font-size="10.00">/REST/include/controllers/ExecuteCommand.h</text>
</a>
</g>
</g>
<!-- Node3&#45;&gt;Node10 -->
<g id="edge24_Node000003_Node000010" class="edge">
<title>Node3&#45;&gt;Node10</title>
<g id="a_edge24_Node000003_Node000010"><a xlink:title=" ">
<path fill="none" stroke="#63b8ff" d="M1723.67,-316.88C1769.31,-307.36 1822.67,-295.51 1870.5,-283 1982.98,-253.59 2009.92,-241.91 2120.5,-206 2174.1,-188.59 2185.75,-178.36 2240.5,-165 2344.86,-139.53 2373.64,-147.22 2479.5,-129 2489.39,-127.3 2499.69,-125.44 2509.97,-123.54"/>
<polygon fill="#63b8ff" stroke="#63b8ff" points="1722.83,-313.48 1713.75,-318.94 1724.25,-320.34 1722.83,-313.48"/>
</a>
</g>
</g>
<!-- Node11 -->
<g id="Node000011" class="node">
<title>Node11</title>
<g id="a_Node000011"><a xlink:href="REST_2include_2controllers_2GetParam_8h_source.html" target="_top" xlink:title=" ">
<polygon fill="white" stroke="#666666" points="197,-123.5 0,-123.5 0,-82.5 197,-82.5 197,-123.5"/>
<text text-anchor="start" x="8" y="-111.5" font-family="Helvetica,sans-Serif" font-size="10.00">/home/runner/work/Catena</text>
<text text-anchor="start" x="8" y="-100.5" font-family="Helvetica,sans-Serif" font-size="10.00">/Catena/sdks/cpp/connections</text>
<text text-anchor="middle" x="98.5" y="-89.5" font-family="Helvetica,sans-Serif" font-size="10.00">/REST/include/controllers/GetParam.h</text>
</a>
</g>
</g>
<!-- Node3&#45;&gt;Node11 -->
<g id="edge25_Node000003_Node000011" class="edge">
<title>Node3&#45;&gt;Node11</title>
<g id="a_edge25_Node000003_Node000011"><a xlink:title=" ">
<path fill="none" stroke="#63b8ff" d="M1498.05,-338.41C1332.34,-336.61 1017.99,-327 754.5,-283 528.31,-245.23 267.68,-161.72 155.11,-123.63"/>
<polygon fill="#63b8ff" stroke="#63b8ff" points="1498.22,-341.91 1508.26,-338.51 1498.29,-334.91 1498.22,-341.91"/>
</a>
</g>
</g>
<!-- Node12 -->
<g id="Node000012" class="node">
<title>Node12</title>
<g id="a_Node000012"><a xlink:href="REST_2include_2controllers_2GetPopulatedSlots_8h.html" target="_top" xlink:title="Implements REST GetPopulatedSlots RPC.">
<polygon fill="white" stroke="#666666" points="421.5,-129 215.5,-129 215.5,-77 421.5,-77 421.5,-129"/>
<text text-anchor="start" x="223.5" y="-117" font-family="Helvetica,sans-Serif" font-size="10.00">/home/runner/work/Catena</text>
<text text-anchor="start" x="223.5" y="-106" font-family="Helvetica,sans-Serif" font-size="10.00">/Catena/sdks/cpp/connections</text>
<text text-anchor="start" x="223.5" y="-95" font-family="Helvetica,sans-Serif" font-size="10.00">/REST/include/controllers/GetPopulated</text>
<text text-anchor="middle" x="318.5" y="-84" font-family="Helvetica,sans-Serif" font-size="10.00">Slots.h</text>
</a>
</g>
</g>
<!-- Node3&#45;&gt;Node12 -->
<g id="edge26_Node000003_Node000012" class="edge">
<title>Node3&#45;&gt;Node12</title>
<g id="a_edge26_Node000003_Node000012"><a xlink:title=" ">
<path fill="none" stroke="#63b8ff" d="M1498.21,-336.37C1361.13,-332.19 1125.93,-319.79 927.5,-283 727.04,-245.84 498.27,-168.91 386.79,-129.09"/>
<polygon fill="#63b8ff" stroke="#63b8ff" points="1498.22,-339.87 1508.32,-336.67 1498.42,-332.88 1498.22,-339.87"/>
</a>
</g>
</g>
<!-- Node13 -->
<g id="Node000013" class="node">
<title>Node13</title>
<g id="a_Node000013"><a xlink:href="REST_2include_2controllers_2GetValue_8h.html" target="_top" xlink:title="Implements REST GetValue RPC.">
<polygon fill="white" stroke="#666666" points="633.5,-123.5 439.5,-123.5 439.5,-82.5 633.5,-82.5 633.5,-123.5"/>
<text text-anchor="start" x="447.5" y="-111.5" font-family="Helvetica,sans-Serif" font-size="10.00">/home/runner/work/Catena</text>
<text text-anchor="start" x="447.5" y="-100.5" font-family="Helvetica,sans-Serif" font-size="10.00">/Catena/sdks/cpp/connections</text>
<text text-anchor="middle" x="536.5" y="-89.5" font-family="Helvetica,sans-Serif" font-size="10.00">/REST/include/controllers/GetValue.h</text>
</a>
</g>
</g>
<!-- Node3&#45;&gt;Node13 -->
<g id="edge27_Node000003_Node000013" class="edge">
<title>Node3&#45;&gt;Node13</title>
<g id="a_edge27_Node000003_Node000013"><a xlink:title=" ">
<path fill="none" stroke="#63b8ff" d="M1498.08,-333.42C1390.17,-327.01 1225.03,-312.97 1084.5,-283 895.09,-242.6 678.93,-161.01 584.67,-123.57"/>
<polygon fill="#63b8ff" stroke="#63b8ff" points="1498.15,-336.93 1508.34,-334.01 1498.56,-329.94 1498.15,-336.93"/>
</a>
</g>
</g>
<!-- Node14 -->
<g id="Node000014" class="node">
<title>Node14</title>
<g id="a_Node000014"><a xlink:href="REST_2include_2controllers_2LanguagePackRequest_8h.html" target="_top" xlink:title="Implements REST LanguagePackRequest RPC.">
<polygon fill="white" stroke="#666666" points="861.5,-129 651.5,-129 651.5,-77 861.5,-77 861.5,-129"/>
<text text-anchor="start" x="659.5" y="-117" font-family="Helvetica,sans-Serif" font-size="10.00">/home/runner/work/Catena</text>
<text text-anchor="start" x="659.5" y="-106" font-family="Helvetica,sans-Serif" font-size="10.00">/Catena/sdks/cpp/connections</text>
<text text-anchor="start" x="659.5" y="-95" font-family="Helvetica,sans-Serif" font-size="10.00">/REST/include/controllers/LanguagePack</text>
<text text-anchor="middle" x="756.5" y="-84" font-family="Helvetica,sans-Serif" font-size="10.00">Request.h</text>
</a>
</g>
</g>
<!-- Node3&#45;&gt;Node14 -->
<g id="edge28_Node000003_Node000014" class="edge">
<title>Node3&#45;&gt;Node14</title>
<g id="a_edge28_Node000003_Node000014"><a xlink:title=" ">
<path fill="none" stroke="#63b8ff" d="M1498.33,-329.44C1418.56,-321.46 1310.43,-307.21 1217.5,-283 1064.63,-243.18 893.35,-168.13 809.11,-129.06"/>
<polygon fill="#63b8ff" stroke="#63b8ff" points="1498.11,-332.94 1508.4,-330.44 1498.79,-325.97 1498.11,-332.94"/>
</a>
</g>
</g>
<!-- Node15 -->
<g id="Node000015" class="node">
<title>Node15</title>
<g id="a_Node000015"><a xlink:href="REST_2include_2controllers_2ListLanguages_8h_source.html" target="_top" xlink:title=" ">
<polygon fill="white" stroke="#666666" points="1099,-123.5 880,-123.5 880,-82.5 1099,-82.5 1099,-123.5"/>
<text text-anchor="start" x="888" y="-111.5" font-family="Helvetica,sans-Serif" font-size="10.00">/home/runner/work/Catena</text>
<text text-anchor="start" x="888" y="-100.5" font-family="Helvetica,sans-Serif" font-size="10.00">/Catena/sdks/cpp/connections</text>
<text text-anchor="middle" x="989.5" y="-89.5" font-family="Helvetica,sans-Serif" font-size="10.00">/REST/include/controllers/ListLanguages.h</text>
</a>
</g>
</g>
<!-- Node3&#45;&gt;Node15 -->
<g id="edge29_Node000003_Node000015" class="edge">
<title>Node3&#45;&gt;Node15</title>
<g id="a_edge29_Node000003_Node000015"><a xlink:title=" ">
<path fill="none" stroke="#63b8ff" d="M1498.22,-325.88C1441.72,-317.5 1373.36,-304.05 1314.5,-283 1197.44,-241.13 1072.16,-160.65 1017.59,-123.58"/>
<polygon fill="#63b8ff" stroke="#63b8ff" points="1497.86,-329.36 1508.26,-327.33 1498.86,-322.44 1497.86,-329.36"/>
</a>
</g>
</g>
<!-- Node16 -->
<g id="Node000016" class="node">
<title>Node16</title>
<g id="a_Node000016"><a xlink:href="REST_2include_2controllers_2MultiSetValue_8h.html" target="_top" xlink:title="Implements REST MultiSetValue RPC.">
<polygon fill="white" stroke="#666666" points="1513,-123.5 1296,-123.5 1296,-82.5 1513,-82.5 1513,-123.5"/>
<text text-anchor="start" x="1304" y="-111.5" font-family="Helvetica,sans-Serif" font-size="10.00">/home/runner/work/Catena</text>
<text text-anchor="start" x="1304" y="-100.5" font-family="Helvetica,sans-Serif" font-size="10.00">/Catena/sdks/cpp/connections</text>
<text text-anchor="middle" x="1404.5" y="-89.5" font-family="Helvetica,sans-Serif" font-size="10.00">/REST/include/controllers/MultiSetValue.h</text>
</a>
</g>
</g>
<!-- Node3&#45;&gt;Node16 -->
<g id="edge30_Node000003_Node000016" class="edge">
<title>Node3&#45;&gt;Node16</title>
<g id="a_edge30_Node000003_Node000016"><a xlink:title=" ">
<path fill="none" stroke="#63b8ff" d="M1601.08,-309.78C1584,-272.82 1550.33,-208.23 1506.5,-165 1489.39,-148.12 1466.73,-133.97 1447.11,-123.56"/>
<polygon fill="#63b8ff" stroke="#63b8ff" points="1597.94,-311.33 1605.26,-318.99 1604.31,-308.44 1597.94,-311.33"/>
</a>
</g>
</g>
<!-- Node18 -->
<g id="Node000018" class="node">
<title>Node18</title>
<g id="a_Node000018"><a xlink:href="REST_2include_2controllers_2UpdateSubscriptions_8h.html" target="_top" xlink:title="Implements Catena REST UpdateSubscriptions.">
<polygon fill="white" stroke="#666666" points="1781.5,-123.5 1531.5,-123.5 1531.5,-82.5 1781.5,-82.5 1781.5,-123.5"/>
<text text-anchor="start" x="1539.5" y="-111.5" font-family="Helvetica,sans-Serif" font-size="10.00">/home/runner/work/Catena</text>
<text text-anchor="start" x="1539.5" y="-100.5" font-family="Helvetica,sans-Serif" font-size="10.00">/Catena/sdks/cpp/connections</text>
<text text-anchor="middle" x="1656.5" y="-89.5" font-family="Helvetica,sans-Serif" font-size="10.00">/REST/include/controllers/UpdateSubscriptions.h</text>
</a>
</g>
</g>
<!-- Node3&#45;&gt;Node18 -->
<g id="edge31_Node000003_Node000018" class="edge">
<title>Node3&#45;&gt;Node18</title>
<g id="a_edge31_Node000003_Node000018"><a xlink:title=" ">
<path fill="none" stroke="#63b8ff" d="M1618.91,-309.02C1627.81,-260.46 1645.33,-164.92 1652.89,-123.7"/>
<polygon fill="#63b8ff" stroke="#63b8ff" points="1615.45,-308.44 1617.09,-318.91 1622.34,-309.71 1615.45,-308.44"/>
</a>
</g>
</g>
<!-- Node5 -->
<g id="Node000005" class="node">
<title>Node5</title>
<g id="a_Node000005"><a xlink:href="REST_2include_2ServiceImpl_8h_source.html" target="_top" xlink:title=" ">
<polygon fill="white" stroke="#666666" points="1278,-123.5 1117,-123.5 1117,-82.5 1278,-82.5 1278,-123.5"/>
<text text-anchor="start" x="1125" y="-111.5" font-family="Helvetica,sans-Serif" font-size="10.00">/home/runner/work/Catena</text>
<text text-anchor="start" x="1125" y="-100.5" font-family="Helvetica,sans-Serif" font-size="10.00">/Catena/sdks/cpp/connections</text>
<text text-anchor="middle" x="1197.5" y="-89.5" font-family="Helvetica,sans-Serif" font-size="10.00">/REST/include/ServiceImpl.h</text>
</a>
</g>
</g>
<!-- Node4&#45;&gt;Node5 -->
<g id="edge4_Node000004_Node000005" class="edge">
<title>Node4&#45;&gt;Node5</title>
<g id="a_edge4_Node000004_Node000005"><a xlink:title=" ">
<path fill="none" stroke="#63b8ff" d="M1353.14,-237.06C1336.4,-228.19 1318.12,-217.5 1302.5,-206 1268.53,-180.99 1234.46,-145.53 1214.71,-123.68"/>
<polygon fill="#63b8ff" stroke="#63b8ff" points="1351.76,-240.29 1362.25,-241.79 1354.99,-234.08 1351.76,-240.29"/>
</a>
</g>
</g>
<!-- Node6 -->
<g id="Node000006" class="node">
<title>Node6</title>
<g id="a_Node000006"><a xlink:href="ICallData_8h.html" target="_top" xlink:title="Interface class for REST RPCs.">
<polygon fill="white" stroke="#666666" points="1497.5,-206 1311.5,-206 1311.5,-165 1497.5,-165 1497.5,-206"/>
<text text-anchor="start" x="1319.5" y="-194" font-family="Helvetica,sans-Serif" font-size="10.00">/home/runner/work/Catena</text>
<text text-anchor="start" x="1319.5" y="-183" font-family="Helvetica,sans-Serif" font-size="10.00">/Catena/sdks/cpp/connections</text>
<text text-anchor="middle" x="1404.5" y="-172" font-family="Helvetica,sans-Serif" font-size="10.00">/REST/include/interface/ICallData.h</text>
</a>
</g>
</g>
<!-- Node4&#45;&gt;Node6 -->
<g id="edge5_Node000004_Node000006" class="edge">
<title>Node4&#45;&gt;Node6</title>
<g id="a_edge5_Node000004_Node000006"><a xlink:title=" ">
<path fill="none" stroke="#63b8ff" d="M1404.5,-231.69C1404.5,-223.08 1404.5,-213.9 1404.5,-206.07"/>
<polygon fill="#63b8ff" stroke="#63b8ff" points="1401,-231.79 1404.5,-241.79 1408,-231.79 1401,-231.79"/>
</a>
</g>
</g>
<!-- Node6&#45;&gt;Node2 -->
<g id="edge9_Node000006_Node000002" class="edge">
<title>Node6&#45;&gt;Node2</title>
<g id="a_edge9_Node000006_Node000002"><a xlink:title=" ">
<path fill="none" stroke="#63b8ff" d="M1507.73,-182.79C1777.63,-177.91 2499.72,-162.07 2736.5,-129 2746.43,-127.61 2756.8,-125.7 2766.98,-123.54"/>
<polygon fill="#63b8ff" stroke="#63b8ff" points="1507.48,-179.3 1497.54,-182.97 1507.61,-186.29 1507.48,-179.3"/>
</a>
</g>
</g>
<!-- Node6&#45;&gt;Node5 -->
<g id="edge6_Node000006_Node000005" class="edge">
<title>Node6&#45;&gt;Node5</title>
<g id="a_edge6_Node000006_Node000005"><a xlink:title=" ">
<path fill="none" stroke="#63b8ff" d="M1344.8,-161.29C1314.06,-149.33 1277,-134.92 1247.74,-123.54"/>
<polygon fill="#63b8ff" stroke="#63b8ff" points="1343.54,-164.55 1354.13,-164.91 1346.08,-158.02 1343.54,-164.55"/>
</a>
</g>
</g>
<!-- Node6&#45;&gt;Node7 -->
<g id="edge7_Node000006_Node000007" class="edge">
<title>Node6&#45;&gt;Node7</title>
<g id="a_edge7_Node000006_Node000007"><a xlink:title=" ">
<path fill="none" stroke="#63b8ff" d="M1507.9,-171.57C1585.8,-161.35 1695.14,-146.02 1790.5,-129 1799.8,-127.34 1809.5,-125.48 1819.15,-123.54"/>
<polygon fill="#63b8ff" stroke="#63b8ff" points="1507.06,-168.15 1497.6,-172.91 1507.97,-175.09 1507.06,-168.15"/>
</a>
</g>
</g>
<!-- Node6&#45;&gt;Node8 -->
<g id="edge8_Node000006_Node000008" class="edge">
<title>Node6&#45;&gt;Node8</title>
<g id="a_edge8_Node000006_Node000008"><a xlink:title=" ">
<path fill="none" stroke="#63b8ff" d="M1507.73,-179.61C1631.05,-172.76 1843.31,-157.79 2023.5,-129 2026.54,-128.51 2029.62,-127.99 2032.73,-127.44"/>
<polygon fill="#63b8ff" stroke="#63b8ff" points="1507.34,-176.13 1497.54,-180.17 1507.72,-183.12 1507.34,-176.13"/>
</a>
</g>
</g>
<!-- Node6&#45;&gt;Node9 -->
<g id="edge10_Node000006_Node000009" class="edge">
<title>Node6&#45;&gt;Node9</title>
<g id="a_edge10_Node000006_Node000009"><a xlink:title=" ">
<path fill="none" stroke="#63b8ff" d="M1507.98,-182.18C1666.08,-177.6 1976.97,-164.55 2238.5,-129 2249.45,-127.51 2260.89,-125.61 2272.18,-123.52"/>
<polygon fill="#63b8ff" stroke="#63b8ff" points="1507.69,-178.68 1497.79,-182.47 1507.89,-185.68 1507.69,-178.68"/>
</a>
</g>
</g>
<!-- Node6&#45;&gt;Node10 -->
<g id="edge11_Node000006_Node000010" class="edge">
<title>Node6&#45;&gt;Node10</title>
<g id="a_edge11_Node000006_Node000010"><a xlink:title=" ">
<path fill="none" stroke="#63b8ff" d="M1507.71,-183.96C1699.72,-181.9 2124.58,-172.34 2479.5,-129 2491.39,-127.55 2503.83,-125.64 2516.09,-123.53"/>
<polygon fill="#63b8ff" stroke="#63b8ff" points="1507.59,-180.46 1497.62,-184.06 1507.66,-187.46 1507.59,-180.46"/>
</a>
</g>
</g>
<!-- Node6&#45;&gt;Node11 -->
<g id="edge12_Node000006_Node000011" class="edge">
<title>Node6&#45;&gt;Node11</title>
<g id="a_edge12_Node000006_Node000011"><a xlink:title=" ">
<path fill="none" stroke="#63b8ff" d="M1301.15,-182.12C1050.7,-175.96 416.55,-157.93 206.5,-129 196.3,-127.59 185.65,-125.69 175.17,-123.54"/>
<polygon fill="#63b8ff" stroke="#63b8ff" points="1301.25,-185.62 1311.34,-182.37 1301.42,-178.62 1301.25,-185.62"/>
</a>
</g>
</g>
<!-- Node6&#45;&gt;Node12 -->
<g id="edge13_Node000006_Node000012" class="edge">
<title>Node6&#45;&gt;Node12</title>
<g id="a_edge13_Node000006_Node000012"><a xlink:title=" ">
<path fill="none" stroke="#63b8ff" d="M1301.18,-184.12C1122.74,-182.23 745.63,-172.85 430.5,-129 427.54,-128.59 424.54,-128.14 421.52,-127.66"/>
<polygon fill="#63b8ff" stroke="#63b8ff" points="1301.31,-187.62 1311.35,-184.22 1301.38,-180.62 1301.31,-187.62"/>
</a>
</g>
</g>
<!-- Node6&#45;&gt;Node13 -->
<g id="edge14_Node000006_Node000013" class="edge">
<title>Node6&#45;&gt;Node13</title>
<g id="a_edge14_Node000006_Node000013"><a xlink:title=" ">
<path fill="none" stroke="#63b8ff" d="M1300.94,-182.17C1153.8,-177.67 876.17,-164.83 642.5,-129 632.88,-127.52 622.83,-125.63 612.93,-123.55"/>
<polygon fill="#63b8ff" stroke="#63b8ff" points="1301.2,-185.68 1311.3,-182.48 1301.41,-178.68 1301.2,-185.68"/>
</a>
</g>
</g>
<!-- Node6&#45;&gt;Node14 -->
<g id="edge15_Node000006_Node000014" class="edge">
<title>Node6&#45;&gt;Node14</title>
<g id="a_edge15_Node000006_Node000014"><a xlink:title=" ">
<path fill="none" stroke="#63b8ff" d="M1301.24,-177.23C1193.35,-168.82 1019.37,-152.98 870.5,-129 867.6,-128.53 864.66,-128.04 861.7,-127.52"/>
<polygon fill="#63b8ff" stroke="#63b8ff" points="1301.23,-180.74 1311.47,-178.02 1301.77,-173.76 1301.23,-180.74"/>
</a>
</g>
</g>
<!-- Node6&#45;&gt;Node15 -->
<g id="edge16_Node000006_Node000015" class="edge">
<title>Node6&#45;&gt;Node15</title>
<g id="a_edge16_Node000006_Node000015"><a xlink:title=" ">
<path fill="none" stroke="#63b8ff" d="M1301.29,-165.84C1244.12,-155.35 1171.8,-141.82 1107.5,-129 1098.77,-127.26 1089.69,-125.41 1080.61,-123.53"/>
<polygon fill="#63b8ff" stroke="#63b8ff" points="1300.95,-169.34 1311.42,-167.7 1302.21,-162.45 1300.95,-169.34"/>
</a>
</g>
</g>
<!-- Node6&#45;&gt;Node16 -->
<g id="edge17_Node000006_Node000016" class="edge">
<title>Node6&#45;&gt;Node16</title>
<g id="a_edge17_Node000006_Node000016"><a xlink:title=" ">
<path fill="none" stroke="#63b8ff" d="M1404.5,-154.37C1404.5,-144.1 1404.5,-132.9 1404.5,-123.67"/>
<polygon fill="#63b8ff" stroke="#63b8ff" points="1401,-154.6 1404.5,-164.6 1408,-154.6 1401,-154.6"/>
</a>
</g>
</g>
<!-- Node6&#45;&gt;Node18 -->
<g id="edge19_Node000006_Node000018" class="edge">
<title>Node6&#45;&gt;Node18</title>
<g id="a_edge19_Node000006_Node000018"><a xlink:title=" ">
<path fill="none" stroke="#63b8ff" d="M1475.72,-161.75C1513.43,-149.7 1559.26,-135.06 1595.34,-123.54"/>
<polygon fill="#63b8ff" stroke="#63b8ff" points="1474.28,-158.53 1465.82,-164.91 1476.41,-165.2 1474.28,-158.53"/>
</a>
</g>
</g>
<!-- Node17 -->
<g id="Node000017" class="node">
<title>Node17</title>
<g id="a_Node000017"><a xlink:href="REST_2include_2controllers_2SetValue_8h.html" target="_top" xlink:title="Implements REST SetValue RPC.">
<polygon fill="white" stroke="#666666" points="1500.5,-41 1308.5,-41 1308.5,0 1500.5,0 1500.5,-41"/>
<text text-anchor="start" x="1316.5" y="-29" font-family="Helvetica,sans-Serif" font-size="10.00">/home/runner/work/Catena</text>
<text text-anchor="start" x="1316.5" y="-18" font-family="Helvetica,sans-Serif" font-size="10.00">/Catena/sdks/cpp/connections</text>
<text text-anchor="middle" x="1404.5" y="-7" font-family="Helvetica,sans-Serif" font-size="10.00">/REST/include/controllers/SetValue.h</text>
</a>
</g>
</g>
<!-- Node16&#45;&gt;Node17 -->
<g id="edge18_Node000016_Node000017" class="edge">
<title>Node16&#45;&gt;Node17</title>
<g id="a_edge18_Node000016_Node000017"><a xlink:title=" ">
<path fill="none" stroke="#63b8ff" d="M1404.5,-71.87C1404.5,-61.6 1404.5,-50.4 1404.5,-41.17"/>
<polygon fill="#63b8ff" stroke="#63b8ff" points="1401,-72.1 1404.5,-82.1 1408,-72.1 1401,-72.1"/>
</a>
</g>
</g>
<!-- Node20 -->
<g id="Node000020" class="node">
<title>Node20</title>
<g id="a_Node000020"><a xlink:href="gRPC_2include_2AddLanguage_8h.html" target="_top" xlink:title="Implements Catena gRPC AddLanguage.">
<polygon fill="white" stroke="#666666" points="3006,-283 2845,-283 2845,-242 3006,-242 3006,-283"/>
<text text-anchor="start" x="2853" y="-271" font-family="Helvetica,sans-Serif" font-size="10.00">/home/runner/work/Catena</text>
<text text-anchor="start" x="2853" y="-260" font-family="Helvetica,sans-Serif" font-size="10.00">/Catena/sdks/cpp/connections</text>
<text text-anchor="middle" x="2925.5" y="-249" font-family="Helvetica,sans-Serif" font-size="10.00">/gRPC/include/AddLanguage.h</text>
</a>
</g>
</g>
<!-- Node19&#45;&gt;Node20 -->
<g id="edge33_Node000019_Node000020" class="edge">
<title>Node19&#45;&gt;Node20</title>
<g id="a_edge33_Node000019_Node000020"><a xlink:title=" ">
<path fill="none" stroke="#63b8ff" d="M4036.53,-339.05C3846.03,-339.1 3391.58,-333.36 3014.5,-283 3011.83,-282.64 3009.13,-282.25 3006.41,-281.82"/>
<polygon fill="#63b8ff" stroke="#63b8ff" points="4036.78,-342.55 4046.77,-339.05 4036.77,-335.55 4036.78,-342.55"/>
</a>
</g>
</g>
<!-- Node21 -->
<g id="Node000021" class="node">
<title>Node21</title>
<g id="a_Node000021"><a xlink:href="gRPC_2include_2BasicParamInfoRequest_8h_source.html" target="_top" xlink:title=" ">
<polygon fill="white" stroke="#666666" points="3235,-283 3024,-283 3024,-242 3235,-242 3235,-283"/>
<text text-anchor="start" x="3032" y="-271" font-family="Helvetica,sans-Serif" font-size="10.00">/home/runner/work/Catena</text>
<text text-anchor="start" x="3032" y="-260" font-family="Helvetica,sans-Serif" font-size="10.00">/Catena/sdks/cpp/connections</text>
<text text-anchor="middle" x="3129.5" y="-249" font-family="Helvetica,sans-Serif" font-size="10.00">/gRPC/include/BasicParamInfoRequest.h</text>
</a>
</g>
</g>
<!-- Node19&#45;&gt;Node21 -->
<g id="edge34_Node000019_Node000021" class="edge">
<title>Node19&#45;&gt;Node21</title>
<g id="a_edge34_Node000019_Node000021"><a xlink:title=" ">
<path fill="none" stroke="#63b8ff" d="M4036.49,-335.99C3875.9,-330.84 3531.95,-316.63 3243.5,-283 3240.71,-282.67 3237.88,-282.33 3235.03,-281.96"/>
<polygon fill="#63b8ff" stroke="#63b8ff" points="4036.69,-339.5 4046.8,-336.31 4036.91,-332.5 4036.69,-339.5"/>
</a>
</g>
</g>
<!-- Node22 -->
<g id="Node000022" class="node">
<title>Node22</title>
<g id="a_Node000022"><a xlink:href="connections_2gRPC_2include_2Connect_8h.html" target="_top" xlink:title="Implements Catena gRPC Connect.">
<polygon fill="white" stroke="#666666" points="3414,-283 3253,-283 3253,-242 3414,-242 3414,-283"/>
<text text-anchor="start" x="3261" y="-271" font-family="Helvetica,sans-Serif" font-size="10.00">/home/runner/work/Catena</text>
<text text-anchor="start" x="3261" y="-260" font-family="Helvetica,sans-Serif" font-size="10.00">/Catena/sdks/cpp/connections</text>
<text text-anchor="middle" x="3333.5" y="-249" font-family="Helvetica,sans-Serif" font-size="10.00">/gRPC/include/Connect.h</text>
</a>
</g>
</g>
<!-- Node19&#45;&gt;Node22 -->
<g id="edge35_Node000019_Node000022" class="edge">
<title>Node19&#45;&gt;Node22</title>
<g id="a_edge35_Node000019_Node000022"><a xlink:title=" ">
<path fill="none" stroke="#63b8ff" d="M4036.47,-335.32C3901.71,-329.72 3641.47,-315.45 3422.5,-283 3419.84,-282.61 3417.14,-282.18 3414.42,-281.72"/>
<polygon fill="#63b8ff" stroke="#63b8ff" points="4036.61,-338.83 4046.74,-335.74 4036.89,-331.84 4036.61,-338.83"/>
</a>
</g>
</g>
<!-- Node23 -->
<g id="Node000023" class="node">
<title>Node23</title>
<g id="a_Node000023"><a xlink:href="gRPC_2include_2DeviceRequest_8h.html" target="_top" xlink:title="Implements Catena gRPC DeviceRequest.">
<polygon fill="white" stroke="#666666" points="3601,-283 3432,-283 3432,-242 3601,-242 3601,-283"/>
<text text-anchor="start" x="3440" y="-271" font-family="Helvetica,sans-Serif" font-size="10.00">/home/runner/work/Catena</text>
<text text-anchor="start" x="3440" y="-260" font-family="Helvetica,sans-Serif" font-size="10.00">/Catena/sdks/cpp/connections</text>
<text text-anchor="middle" x="3516.5" y="-249" font-family="Helvetica,sans-Serif" font-size="10.00">/gRPC/include/DeviceRequest.h</text>
</a>
</g>
</g>
<!-- Node19&#45;&gt;Node23 -->
<g id="edge36_Node000019_Node000023" class="edge">
<title>Node19&#45;&gt;Node23</title>
<g id="a_edge36_Node000019_Node000023"><a xlink:title=" ">
<path fill="none" stroke="#63b8ff" d="M4036.48,-331.43C3932.93,-322.77 3758.95,-306.31 3610.5,-283 3607.45,-282.52 3604.36,-282.01 3601.23,-281.47"/>
<polygon fill="#63b8ff" stroke="#63b8ff" points="4036.33,-334.93 4046.58,-332.27 4036.91,-327.96 4036.33,-334.93"/>
</a>
</g>
</g>
<!-- Node24 -->
<g id="Node000024" class="node">
<title>Node24</title>
<g id="a_Node000024"><a xlink:href="gRPC_2include_2ExecuteCommand_8h.html" target="_top" xlink:title="Implements Catena gRPC ExecuteCommand.">
<polygon fill="white" stroke="#666666" points="3803.5,-283 3619.5,-283 3619.5,-242 3803.5,-242 3803.5,-283"/>
<text text-anchor="start" x="3627.5" y="-271" font-family="Helvetica,sans-Serif" font-size="10.00">/home/runner/work/Catena</text>
<text text-anchor="start" x="3627.5" y="-260" font-family="Helvetica,sans-Serif" font-size="10.00">/Catena/sdks/cpp/connections</text>
<text text-anchor="middle" x="3711.5" y="-249" font-family="Helvetica,sans-Serif" font-size="10.00">/gRPC/include/ExecuteCommand.h</text>
</a>
</g>
</g>
<!-- Node19&#45;&gt;Node24 -->
<g id="edge37_Node000019_Node000024" class="edge">
<title>Node19&#45;&gt;Node24</title>
<g id="a_edge37_Node000019_Node000024"><a xlink:title=" ">
<path fill="none" stroke="#63b8ff" d="M4036.93,-322.95C3973.94,-312.03 3888.05,-296.95 3812.5,-283 3809.6,-282.47 3806.66,-281.92 3803.69,-281.36"/>
<polygon fill="#63b8ff" stroke="#63b8ff" points="4036.39,-326.4 4046.84,-324.66 4037.58,-319.51 4036.39,-326.4"/>
</a>
</g>
</g>
<!-- Node25 -->
<g id="Node000025" class="node">
<title>Node25</title>
<g id="a_Node000025"><a xlink:href="ExternalObjectRequest_8h.html" target="_top" xlink:title="Implements Catena gRPC ExternalObjectRequest.">
<polygon fill="white" stroke="#666666" points="4029,-283 3822,-283 3822,-242 4029,-242 4029,-283"/>
<text text-anchor="start" x="3830" y="-271" font-family="Helvetica,sans-Serif" font-size="10.00">/home/runner/work/Catena</text>
<text text-anchor="start" x="3830" y="-260" font-family="Helvetica,sans-Serif" font-size="10.00">/Catena/sdks/cpp/connections</text>
<text text-anchor="middle" x="3925.5" y="-249" font-family="Helvetica,sans-Serif" font-size="10.00">/gRPC/include/ExternalObjectRequest.h</text>
</a>
</g>
</g>
<!-- Node19&#45;&gt;Node25 -->
<g id="edge38_Node000019_Node000025" class="edge">
<title>Node19&#45;&gt;Node25</title>
<g id="a_edge38_Node000019_Node000025"><a xlink:title=" ">
<path fill="none" stroke="#63b8ff" d="M4065.29,-315.4C4037.38,-305.04 4004.81,-292.95 3978.13,-283.04"/>
<polygon fill="#63b8ff" stroke="#63b8ff" points="4064.36,-318.79 4074.95,-318.99 4066.8,-312.23 4064.36,-318.79"/>
</a>
</g>
</g>
<!-- Node26 -->
<g id="Node000026" class="node">
<title>Node26</title>
<g id="a_Node000026"><a xlink:href="gRPC_2include_2GetParam_8h.html" target="_top" xlink:title="Implements Catena gRPC GetParam.">
<polygon fill="white" stroke="#666666" points="4208,-283 4047,-283 4047,-242 4208,-242 4208,-283"/>
<text text-anchor="start" x="4055" y="-271" font-family="Helvetica,sans-Serif" font-size="10.00">/home/runner/work/Catena</text>
<text text-anchor="start" x="4055" y="-260" font-family="Helvetica,sans-Serif" font-size="10.00">/Catena/sdks/cpp/connections</text>
<text text-anchor="middle" x="4127.5" y="-249" font-family="Helvetica,sans-Serif" font-size="10.00">/gRPC/include/GetParam.h</text>
</a>
</g>
</g>
<!-- Node19&#45;&gt;Node26 -->
<g id="edge39_Node000019_Node000026" class="edge">
<title>Node19&#45;&gt;Node26</title>
<g id="a_edge39_Node000019_Node000026"><a xlink:title=" ">
<path fill="none" stroke="#63b8ff" d="M4127.5,-308.69C4127.5,-300.08 4127.5,-290.9 4127.5,-283.07"/>
<polygon fill="#63b8ff" stroke="#63b8ff" points="4124,-308.79 4127.5,-318.79 4131,-308.79 4124,-308.79"/>
</a>
</g>
</g>
<!-- Node27 -->
<g id="Node000027" class="node">
<title>Node27</title>
<g id="a_Node000027"><a xlink:href="gRPC_2include_2GetPopulatedSlots_8h.html" target="_top" xlink:title="Implements Catena gRPC GetPopulatedSlots.">
<polygon fill="white" stroke="#666666" points="4411,-283 4226,-283 4226,-242 4411,-242 4411,-283"/>
<text text-anchor="start" x="4234" y="-271" font-family="Helvetica,sans-Serif" font-size="10.00">/home/runner/work/Catena</text>
<text text-anchor="start" x="4234" y="-260" font-family="Helvetica,sans-Serif" font-size="10.00">/Catena/sdks/cpp/connections</text>
<text text-anchor="middle" x="4318.5" y="-249" font-family="Helvetica,sans-Serif" font-size="10.00">/gRPC/include/GetPopulatedSlots.h</text>
</a>
</g>
</g>
<!-- Node19&#45;&gt;Node27 -->
<g id="edge40_Node000019_Node000027" class="edge">
<title>Node19&#45;&gt;Node27</title>
<g id="a_edge40_Node000019_Node000027"><a xlink:title=" ">
<path fill="none" stroke="#63b8ff" d="M4186.67,-315.27C4212.98,-304.94 4243.62,-292.9 4268.73,-283.04"/>
<polygon fill="#63b8ff" stroke="#63b8ff" points="4185.21,-312.08 4177.18,-318.99 4187.77,-318.59 4185.21,-312.08"/>
</a>
</g>
</g>
<!-- Node28 -->
<g id="Node000028" class="node">
<title>Node28</title>
<g id="a_Node000028"><a xlink:href="gRPC_2include_2GetValue_8h.html" target="_top" xlink:title="Implements Catena gRPC GetValue.">
<polygon fill="white" stroke="#666666" points="4590,-283 4429,-283 4429,-242 4590,-242 4590,-283"/>
<text text-anchor="start" x="4437" y="-271" font-family="Helvetica,sans-Serif" font-size="10.00">/home/runner/work/Catena</text>
<text text-anchor="start" x="4437" y="-260" font-family="Helvetica,sans-Serif" font-size="10.00">/Catena/sdks/cpp/connections</text>
<text text-anchor="middle" x="4509.5" y="-249" font-family="Helvetica,sans-Serif" font-size="10.00">/gRPC/include/GetValue.h</text>
</a>
</g>
</g>
<!-- Node19&#45;&gt;Node28 -->
<g id="edge41_Node000019_Node000028" class="edge">
<title>Node19&#45;&gt;Node28</title>
<g id="a_edge41_Node000019_Node000028"><a xlink:title=" ">
<path fill="none" stroke="#63b8ff" d="M4218.35,-321.85C4276.04,-311.12 4352.24,-296.68 4419.5,-283 4422.48,-282.39 4425.51,-281.77 4428.57,-281.14"/>
<polygon fill="#63b8ff" stroke="#63b8ff" points="4217.36,-318.47 4208.17,-323.74 4218.64,-325.36 4217.36,-318.47"/>
</a>
</g>
</g>
<!-- Node29 -->
<g id="Node000029" class="node">
<title>Node29</title>
<g id="a_Node000029"><a xlink:href="gRPC_2include_2LanguagePackRequest_8h.html" target="_top" xlink:title="Implements Catena gRPC LanguagePackRequest.">
<polygon fill="white" stroke="#666666" points="4813,-283 4608,-283 4608,-242 4813,-242 4813,-283"/>
<text text-anchor="start" x="4616" y="-271" font-family="Helvetica,sans-Serif" font-size="10.00">/home/runner/work/Catena</text>
<text text-anchor="start" x="4616" y="-260" font-family="Helvetica,sans-Serif" font-size="10.00">/Catena/sdks/cpp/connections</text>
<text text-anchor="middle" x="4710.5" y="-249" font-family="Helvetica,sans-Serif" font-size="10.00">/gRPC/include/LanguagePackRequest.h</text>
</a>
</g>
</g>
<!-- Node19&#45;&gt;Node29 -->
<g id="edge42_Node000019_Node000029" class="edge">
<title>Node19&#45;&gt;Node29</title>
<g id="a_edge42_Node000019_Node000029"><a xlink:title=" ">
<path fill="none" stroke="#63b8ff" d="M4218.25,-329.31C4313.24,-319.33 4466.63,-302.23 4598.5,-283 4601.62,-282.54 4604.8,-282.07 4608,-281.58"/>
<polygon fill="#63b8ff" stroke="#63b8ff" points="4217.68,-325.85 4208.1,-330.37 4218.41,-332.81 4217.68,-325.85"/>
</a>
</g>
</g>
<!-- Node30 -->
<g id="Node000030" class="node">
<title>Node30</title>
<g id="a_Node000030"><a xlink:href="gRPC_2include_2ListLanguages_8h.html" target="_top" xlink:title="Implements Catena gRPC ListLanguages.">
<polygon fill="white" stroke="#666666" points="4996,-283 4831,-283 4831,-242 4996,-242 4996,-283"/>
<text text-anchor="start" x="4839" y="-271" font-family="Helvetica,sans-Serif" font-size="10.00">/home/runner/work/Catena</text>
<text text-anchor="start" x="4839" y="-260" font-family="Helvetica,sans-Serif" font-size="10.00">/Catena/sdks/cpp/connections</text>
<text text-anchor="middle" x="4913.5" y="-249" font-family="Helvetica,sans-Serif" font-size="10.00">/gRPC/include/ListLanguages.h</text>
</a>
</g>
</g>
<!-- Node19&#45;&gt;Node30 -->
<g id="edge43_Node000019_Node000030" class="edge">
<title>Node19&#45;&gt;Node30</title>
<g id="a_edge43_Node000019_Node000030"><a xlink:title=" ">
<path fill="none" stroke="#63b8ff" d="M4218.16,-334.99C4351.08,-328.99 4606.42,-314.26 4821.5,-283 4824.57,-282.55 4827.69,-282.07 4830.84,-281.55"/>
<polygon fill="#63b8ff" stroke="#63b8ff" points="4217.86,-331.5 4208.02,-335.44 4218.17,-338.49 4217.86,-331.5"/>
</a>
</g>
</g>
<!-- Node31 -->
<g id="Node000031" class="node">
<title>Node31</title>
<g id="a_Node000031"><a xlink:href="gRPC_2include_2MultiSetValue_8h.html" target="_top" xlink:title="Generic CallData class for the SetValue and MultiSetValue RPCs.">
<polygon fill="white" stroke="#666666" points="5216,-283 5053,-283 5053,-242 5216,-242 5216,-283"/>
<text text-anchor="start" x="5061" y="-271" font-family="Helvetica,sans-Serif" font-size="10.00">/home/runner/work/Catena</text>
<text text-anchor="start" x="5061" y="-260" font-family="Helvetica,sans-Serif" font-size="10.00">/Catena/sdks/cpp/connections</text>
<text text-anchor="middle" x="5134.5" y="-249" font-family="Helvetica,sans-Serif" font-size="10.00">/gRPC/include/MultiSetValue.h</text>
</a>
</g>
</g>
<!-- Node19&#45;&gt;Node31 -->
<g id="edge44_Node000019_Node000031" class="edge">
<title>Node19&#45;&gt;Node31</title>
<g id="a_edge44_Node000019_Node000031"><a xlink:title=" ">
<path fill="none" stroke="#63b8ff" d="M4218.36,-337.16C4382.69,-333.79 4739.97,-322.22 5038.5,-283 5043.22,-282.38 5048.06,-281.66 5052.93,-280.88"/>
<polygon fill="#63b8ff" stroke="#63b8ff" points="4218.22,-333.66 4208.29,-337.36 4218.36,-340.66 4218.22,-333.66"/>
</a>
</g>
</g>
<!-- Node32 -->
<g id="Node000032" class="node">
<title>Node32</title>
<g id="a_Node000032"><a xlink:href="gRPC_2include_2SetValue_8h.html" target="_top" xlink:title="Implements Catena gRPC SetValue.">
<polygon fill="white" stroke="#666666" points="5160,-206 4999,-206 4999,-165 5160,-165 5160,-206"/>
<text text-anchor="start" x="5007" y="-194" font-family="Helvetica,sans-Serif" font-size="10.00">/home/runner/work/Catena</text>
<text text-anchor="start" x="5007" y="-183" font-family="Helvetica,sans-Serif" font-size="10.00">/Catena/sdks/cpp/connections</text>
<text text-anchor="middle" x="5079.5" y="-172" font-family="Helvetica,sans-Serif" font-size="10.00">/gRPC/include/SetValue.h</text>
</a>
</g>
</g>
<!-- Node19&#45;&gt;Node32 -->
<g id="edge46_Node000019_Node000032" class="edge">
<title>Node19&#45;&gt;Node32</title>
<g id="a_edge46_Node000019_Node000032"><a xlink:title=" ">
<path fill="none" stroke="#63b8ff" d="M4218.42,-336.95C4428.79,-332.78 4936.34,-319.06 5004.5,-283 5021,-274.27 5050.26,-231.93 5066.94,-206.32"/>
<polygon fill="#63b8ff" stroke="#63b8ff" points="4218.26,-333.46 4208.33,-337.15 4218.4,-340.46 4218.26,-333.46"/>
</a>
</g>
</g>
<!-- Node33 -->
<g id="Node000033" class="node">
<title>Node33</title>
<g id="a_Node000033"><a xlink:href="gRPC_2include_2UpdateSubscriptions_8h.html" target="_top" xlink:title="Implements Catena gRPC UpdateSubscriptions.">
<polygon fill="white" stroke="#666666" points="5430.5,-283 5234.5,-283 5234.5,-242 5430.5,-242 5430.5,-283"/>
<text text-anchor="start" x="5242.5" y="-271" font-family="Helvetica,sans-Serif" font-size="10.00">/home/runner/work/Catena</text>
<text text-anchor="start" x="5242.5" y="-260" font-family="Helvetica,sans-Serif" font-size="10.00">/Catena/sdks/cpp/connections</text>
<text text-anchor="middle" x="5332.5" y="-249" font-family="Helvetica,sans-Serif" font-size="10.00">/gRPC/include/UpdateSubscriptions.h</text>
</a>
</g>
</g>
<!-- Node19&#45;&gt;Node33 -->
<g id="edge47_Node000019_Node000033" class="edge">
<title>Node19&#45;&gt;Node33</title>
<g id="a_edge47_Node000019_Node000033"><a xlink:title=" ">
<path fill="none" stroke="#63b8ff" d="M4218.17,-337.89C4406.48,-335.75 4853.39,-326.13 5225.5,-283 5228.41,-282.66 5231.35,-282.3 5234.33,-281.9"/>
<polygon fill="#63b8ff" stroke="#63b8ff" points="4218,-334.39 4208.04,-338 4218.08,-341.39 4218,-334.39"/>
</a>
</g>
</g>
<!-- Node31&#45;&gt;Node32 -->
<g id="edge45_Node000031_Node000032" class="edge">
<title>Node31&#45;&gt;Node32</title>
<g id="a_edge45_Node000031_Node000032"><a xlink:title=" ">
<path fill="none" stroke="#63b8ff" d="M5114.09,-233.67C5107.37,-224.5 5100.03,-214.5 5093.85,-206.07"/>
<polygon fill="#63b8ff" stroke="#63b8ff" points="5111.31,-235.8 5120.05,-241.79 5116.96,-231.66 5111.31,-235.8"/>
</a>
</g>
</g>
</g>
</svg>

<g id="navigator" transform="translate(0 0)" fill="#404254">
  <rect fill="#f2f5e9" fill-opacity="0.5" stroke="#606060" stroke-width=".5" x="0" y="0" width="60" height="60"/>
  <use id="zoomplus" xlink:href="#zoomPlus" x="17" y="9" onmousedown="handleZoom(evt,'in')"/>
  <use id="zoomminus" xlink:href="#zoomMin" x="42" y="9" onmousedown="handleZoom(evt,'out')"/>
  <use id="reset" xlink:href="#resetDef" x="30" y="36" onmousedown="handleReset()"/>
   <use id="arrowup" xlink:href="#arrowUp" x="0" y="0" onmousedown="handlePan(0,-1)"/>
  <use id="arrowright" xlink:href="#arrowRight" x="0" y="0" onmousedown="handlePan(1,0)"/>
  <use id="arrowdown" xlink:href="#arrowDown" x="0" y="0" onmousedown="handlePan(0,1)"/>
  <use id="arrowleft" xlink:href="#arrowLeft" x="0" y="0" onmousedown="handlePan(-1,0)"/>
</g>
<svg viewBox="0 0 15 15" width="100%" height="30px" preserveAspectRatio="xMaxYMin meet">
 <g id="arrow_out" transform="scale(0.3 0.3)">
  <a xlink:href="SubscriptionManager_8h__dep__incl_org.svg" target="_base">
   <rect id="button" ry="5" rx="5" y="6" x="6" height="38" width="38"
        fill="#f2f5e9" fill-opacity="0.5" stroke="#606060" stroke-width="1.0"/>
   <path id="arrow"
     d="M 11.500037,31.436501 C 11.940474,20.09759 22.043105,11.32322 32.158766,21.979434 L 37.068811,17.246167 C 37.068811,17.246167 37.088388,32 37.088388,32 L 22.160133,31.978069 C 22.160133,31.978069 26.997745,27.140456 26.997745,27.140456 C 18.528582,18.264221 13.291696,25.230495 11.500037,31.436501 z"
     style="fill:#404040;"/>
  </a>
 </g>
</svg>

<style type='text/css'>
<![CDATA[
[data-mouse-over-selected='false'] { opacity: 0.7; }
[data-mouse-over-selected='true']  { opacity: 1.0; }
]]>
</style>
<script type="application/ecmascript"><![CDATA[
document.addEventListener('DOMContentLoaded', (event) => {
  highlightEdges();
  highlightAdjacentNodes();
});
]]></script>
</svg>
