<?xml version="1.0" encoding="UTF-8" standalone="no"?>
<!DOCTYPE svg PUBLIC "-//W3C//DTD SVG 1.1//EN"
 "http://www.w3.org/Graphics/SVG/1.1/DTD/svg11.dtd">
<!-- Generated by graphviz version 2.43.0 (0)
 -->
<!-- Title: /home/runner/work/Catena/Catena/sdks/cpp/common/include/Tags.h Pages: 1 -->
<svg width="933pt" height="440pt"
 viewBox="0.00 0.00 932.50 440.00" xmlns="http://www.w3.org/2000/svg" xmlns:xlink="http://www.w3.org/1999/xlink">
<g id="graph0" class="graph" transform="scale(1 1) rotate(0) translate(4 436)">
<title>/home/runner/work/Catena/Catena/sdks/cpp/common/include/Tags.h</title>
<polygon fill="white" stroke="transparent" points="-4,4 -4,-436 928.5,-436 928.5,4 -4,4"/>
<!-- Node1 -->
<g id="node1" class="node">
<title>Node1</title>
<g id="a_node1"><a xlink:title="Tags to differentiate collections with the same type for template specialization.">
<polygon fill="#bfbfbf" stroke="black" points="481.5,-390.5 481.5,-431.5 627.5,-431.5 627.5,-390.5 481.5,-390.5"/>
<text text-anchor="start" x="489.5" y="-419.5" font-family="Helvetica,sans-Serif" font-size="10.00">/home/runner/work/Catena</text>
<text text-anchor="start" x="489.5" y="-408.5" font-family="Helvetica,sans-Serif" font-size="10.00">/Catena/sdks/cpp/common</text>
<text text-anchor="middle" x="554.5" y="-397.5" font-family="Helvetica,sans-Serif" font-size="10.00">/include/Tags.h</text>
</a>
</g>
</g>
<!-- Node2 -->
<g id="node2" class="node">
<title>Node2</title>
<g id="a_node2"><a xlink:href="Device_8h.html" target="_top" xlink:title="Device class definition.">
<polygon fill="white" stroke="black" points="389,-312.5 389,-353.5 546,-353.5 546,-312.5 389,-312.5"/>
<text text-anchor="start" x="397" y="-341.5" font-family="Helvetica,sans-Serif" font-size="10.00">/home/runner/work/Catena</text>
<text text-anchor="start" x="397" y="-330.5" font-family="Helvetica,sans-Serif" font-size="10.00">/Catena/sdks/cpp/lite/include</text>
<text text-anchor="middle" x="467.5" y="-319.5" font-family="Helvetica,sans-Serif" font-size="10.00">/Device.h</text>
</a>
</g>
</g>
<!-- Node1&#45;&gt;Node2 -->
<g id="edge1" class="edge">
<title>Node1&#45;&gt;Node2</title>
<path fill="none" stroke="midnightblue" d="M524.48,-383.78C513.11,-373.84 500.37,-362.72 489.83,-353.51"/>
<polygon fill="midnightblue" stroke="midnightblue" points="522.26,-386.49 532.1,-390.43 526.87,-381.21 522.26,-386.49"/>
</g>
<!-- Node4 -->
<g id="node4" class="node">
<title>Node4</title>
<g id="a_node4"><a xlink:href="NamedChoiceConstraint_8h.html" target="_top" xlink:title="A constraint that checks if a value is within some named choices.">
<polygon fill="white" stroke="black" points="0,-234.5 0,-275.5 157,-275.5 157,-234.5 0,-234.5"/>
<text text-anchor="start" x="8" y="-263.5" font-family="Helvetica,sans-Serif" font-size="10.00">/home/runner/work/Catena</text>
<text text-anchor="start" x="8" y="-252.5" font-family="Helvetica,sans-Serif" font-size="10.00">/Catena/sdks/cpp/lite/include</text>
<text text-anchor="middle" x="78.5" y="-241.5" font-family="Helvetica,sans-Serif" font-size="10.00">/NamedChoiceConstraint.h</text>
</a>
</g>
</g>
<!-- Node1&#45;&gt;Node4 -->
<g id="edge13" class="edge">
<title>Node1&#45;&gt;Node4</title>
<path fill="none" stroke="midnightblue" d="M471.39,-394.12C424.76,-384.34 365.82,-370.52 314.5,-354 244.61,-331.5 166.45,-297.14 119.92,-275.65"/>
<polygon fill="midnightblue" stroke="midnightblue" points="470.95,-397.61 481.45,-396.21 472.37,-390.75 470.95,-397.61"/>
</g>
<!-- Node5 -->
<g id="node5" class="node">
<title>Node5</title>
<g id="a_node5"><a xlink:href="ParamDescriptor_8h_source.html" target="_top" xlink:title=" ">
<polygon fill="white" stroke="black" points="175,-234.5 175,-275.5 332,-275.5 332,-234.5 175,-234.5"/>
<text text-anchor="start" x="183" y="-263.5" font-family="Helvetica,sans-Serif" font-size="10.00">/home/runner/work/Catena</text>
<text text-anchor="start" x="183" y="-252.5" font-family="Helvetica,sans-Serif" font-size="10.00">/Catena/sdks/cpp/lite/include</text>
<text text-anchor="middle" x="253.5" y="-241.5" font-family="Helvetica,sans-Serif" font-size="10.00">/ParamDescriptor.h</text>
</a>
</g>
</g>
<!-- Node1&#45;&gt;Node5 -->
<g id="edge14" class="edge">
<title>Node1&#45;&gt;Node5</title>
<path fill="none" stroke="midnightblue" d="M471.13,-389.82C441.3,-380.94 408.02,-369.04 379.5,-354 338.81,-332.54 297.91,-297.7 274.18,-275.86"/>
<polygon fill="midnightblue" stroke="midnightblue" points="470.53,-393.29 481.11,-392.72 472.48,-386.57 470.53,-393.29"/>
</g>
<!-- Node7 -->
<g id="node7" class="node">
<title>Node7</title>
<g id="a_node7"><a xlink:href="ParamWithValue_8h.html" target="_top" xlink:title="Interface for acessing parameter values.">
<polygon fill="white" stroke="black" points="244,-0.5 244,-41.5 401,-41.5 401,-0.5 244,-0.5"/>
<text text-anchor="start" x="252" y="-29.5" font-family="Helvetica,sans-Serif" font-size="10.00">/home/runner/work/Catena</text>
<text text-anchor="start" x="252" y="-18.5" font-family="Helvetica,sans-Serif" font-size="10.00">/Catena/sdks/cpp/lite/include</text>
<text text-anchor="middle" x="322.5" y="-7.5" font-family="Helvetica,sans-Serif" font-size="10.00">/ParamWithValue.h</text>
</a>
</g>
</g>
<!-- Node1&#45;&gt;Node7 -->
<g id="edge15" class="edge">
<title>Node1&#45;&gt;Node7</title>
<path fill="none" stroke="midnightblue" d="M637.61,-392.84C746.7,-367.88 924.5,-317.74 924.5,-256 924.5,-256 924.5,-256 924.5,-176 924.5,-69.2 564.38,-35.48 401.2,-25.69"/>
<polygon fill="midnightblue" stroke="midnightblue" points="636.58,-389.49 627.6,-395.1 638.13,-396.31 636.58,-389.49"/>
</g>
<!-- Node9 -->
<g id="node9" class="node">
<title>Node9</title>
<g id="a_node9"><a xlink:href="PicklistConstraint_8h.html" target="_top" xlink:title="A constraint that checks if a value is in a list of strings.">
<polygon fill="white" stroke="black" points="564,-234.5 564,-275.5 721,-275.5 721,-234.5 564,-234.5"/>
<text text-anchor="start" x="572" y="-263.5" font-family="Helvetica,sans-Serif" font-size="10.00">/home/runner/work/Catena</text>
<text text-anchor="start" x="572" y="-252.5" font-family="Helvetica,sans-Serif" font-size="10.00">/Catena/sdks/cpp/lite/include</text>
<text text-anchor="middle" x="642.5" y="-241.5" font-family="Helvetica,sans-Serif" font-size="10.00">/PicklistConstraint.h</text>
</a>
</g>
</g>
<!-- Node1&#45;&gt;Node9 -->
<g id="edge16" class="edge">
<title>Node1&#45;&gt;Node9</title>
<path fill="none" stroke="midnightblue" d="M570.75,-381.56C588.3,-350.85 615.81,-302.71 631.17,-275.83"/>
<polygon fill="midnightblue" stroke="midnightblue" points="567.57,-380.08 565.65,-390.5 573.65,-383.55 567.57,-380.08"/>
</g>
<!-- Node10 -->
<g id="node10" class="node">
<title>Node10</title>
<g id="a_node10"><a xlink:href="RangeConstraint_8h.html" target="_top" xlink:title="A constraint that checks if a value is within a range.">
<polygon fill="white" stroke="black" points="739,-234.5 739,-275.5 896,-275.5 896,-234.5 739,-234.5"/>
<text text-anchor="start" x="747" y="-263.5" font-family="Helvetica,sans-Serif" font-size="10.00">/home/runner/work/Catena</text>
<text text-anchor="start" x="747" y="-252.5" font-family="Helvetica,sans-Serif" font-size="10.00">/Catena/sdks/cpp/lite/include</text>
<text text-anchor="middle" x="817.5" y="-241.5" font-family="Helvetica,sans-Serif" font-size="10.00">/RangeConstraint.h</text>
</a>
</g>
</g>
<!-- Node1&#45;&gt;Node10 -->
<g id="edge17" class="edge">
<title>Node1&#45;&gt;Node10</title>
<path fill="none" stroke="midnightblue" d="M596.47,-385.42C648.54,-354.93 736.27,-303.56 784.05,-275.59"/>
<polygon fill="midnightblue" stroke="midnightblue" points="594.67,-382.42 587.81,-390.5 598.21,-388.46 594.67,-382.42"/>
</g>
<!-- Node3 -->
<g id="node3" class="node">
<title>Node3</title>
<g id="a_node3"><a xlink:href="LanguagePack_8h.html" target="_top" xlink:title="multi language support in 2 classes: LanguagePack and LanguagePacks">
<polygon fill="white" stroke="black" points="389,-234.5 389,-275.5 546,-275.5 546,-234.5 389,-234.5"/>
<text text-anchor="start" x="397" y="-263.5" font-family="Helvetica,sans-Serif" font-size="10.00">/home/runner/work/Catena</text>
<text text-anchor="start" x="397" y="-252.5" font-family="Helvetica,sans-Serif" font-size="10.00">/Catena/sdks/cpp/lite/include</text>
<text text-anchor="middle" x="467.5" y="-241.5" font-family="Helvetica,sans-Serif" font-size="10.00">/LanguagePack.h</text>
</a>
</g>
</g>
<!-- Node2&#45;&gt;Node3 -->
<g id="edge2" class="edge">
<title>Node2&#45;&gt;Node3</title>
<path fill="none" stroke="midnightblue" d="M467.5,-302.3C467.5,-293.3 467.5,-283.65 467.5,-275.51"/>
<polygon fill="midnightblue" stroke="midnightblue" points="464,-302.43 467.5,-312.43 471,-302.43 464,-302.43"/>
</g>
<!-- Node2&#45;&gt;Node4 -->
<g id="edge3" class="edge">
<title>Node2&#45;&gt;Node4</title>
<path fill="none" stroke="midnightblue" d="M378.92,-316.6C318.63,-305.87 237.09,-290.86 165.5,-276 162.77,-275.43 159.99,-274.85 157.19,-274.25"/>
<polygon fill="midnightblue" stroke="midnightblue" points="378.33,-320.05 388.79,-318.35 379.55,-313.16 378.33,-320.05"/>
</g>
<!-- Node2&#45;&gt;Node5 -->
<g id="edge4" class="edge">
<title>Node2&#45;&gt;Node5</title>
<path fill="none" stroke="midnightblue" d="M402.81,-309.03C372.69,-298.33 337.23,-285.73 308.42,-275.51"/>
<polygon fill="midnightblue" stroke="midnightblue" points="401.79,-312.38 412.39,-312.43 404.14,-305.78 401.79,-312.38"/>
</g>
<!-- Node2&#45;&gt;Node7 -->
<g id="edge10" class="edge">
<title>Node2&#45;&gt;Node7</title>
<path fill="none" stroke="midnightblue" d="M413.31,-306.96C400.53,-298.75 388.14,-288.45 379.5,-276 328.22,-202.09 358.48,-165.48 337.5,-78 334.59,-65.86 330.98,-52.35 328.03,-41.63"/>
<polygon fill="midnightblue" stroke="midnightblue" points="411.8,-310.14 422.17,-312.32 415.42,-304.15 411.8,-310.14"/>
</g>
<!-- Node2&#45;&gt;Node9 -->
<g id="edge11" class="edge">
<title>Node2&#45;&gt;Node9</title>
<path fill="none" stroke="midnightblue" d="M522.01,-308.33C546.29,-297.78 574.54,-285.51 597.59,-275.51"/>
<polygon fill="midnightblue" stroke="midnightblue" points="520.35,-305.23 512.57,-312.43 523.13,-311.65 520.35,-305.23"/>
</g>
<!-- Node2&#45;&gt;Node10 -->
<g id="edge12" class="edge">
<title>Node2&#45;&gt;Node10</title>
<path fill="none" stroke="midnightblue" d="M556.13,-313.5C607.16,-302.76 672.49,-288.84 730.5,-276 733.22,-275.4 735.99,-274.78 738.79,-274.15"/>
<polygon fill="midnightblue" stroke="midnightblue" points="555.18,-310.12 546.12,-315.61 556.62,-316.97 555.18,-310.12"/>
</g>
<!-- Node6 -->
<g id="node6" class="node">
<title>Node6</title>
<g id="a_node6"><a xlink:href="AuthzInfo_8h.html" target="_top" xlink:title="Class for handling authorization information.">
<polygon fill="white" stroke="black" points="137,-156.5 137,-197.5 294,-197.5 294,-156.5 137,-156.5"/>
<text text-anchor="start" x="145" y="-185.5" font-family="Helvetica,sans-Serif" font-size="10.00">/home/runner/work/Catena</text>
<text text-anchor="start" x="145" y="-174.5" font-family="Helvetica,sans-Serif" font-size="10.00">/Catena/sdks/cpp/lite/include</text>
<text text-anchor="middle" x="215.5" y="-163.5" font-family="Helvetica,sans-Serif" font-size="10.00">/AuthzInfo.h</text>
</a>
</g>
</g>
<!-- Node5&#45;&gt;Node6 -->
<g id="edge5" class="edge">
<title>Node5&#45;&gt;Node6</title>
<path fill="none" stroke="midnightblue" d="M239.23,-225.47C234.57,-216.14 229.5,-206.01 225.25,-197.51"/>
<polygon fill="midnightblue" stroke="midnightblue" points="236.11,-227.05 243.71,-234.43 242.37,-223.92 236.11,-227.05"/>
</g>
<!-- Node5&#45;&gt;Node7 -->
<g id="edge9" class="edge">
<title>Node5&#45;&gt;Node7</title>
<path fill="none" stroke="midnightblue" d="M282.97,-226.97C290.55,-218.45 297.86,-208.49 302.5,-198 325.8,-145.26 325.7,-75.36 323.98,-41.73"/>
<polygon fill="midnightblue" stroke="midnightblue" points="280.31,-224.69 276,-234.37 285.4,-229.49 280.31,-224.69"/>
</g>
<!-- Node6&#45;&gt;Node7 -->
<g id="edge6" class="edge">
<title>Node6&#45;&gt;Node7</title>
<path fill="none" stroke="midnightblue" d="M241.08,-148.81C248.96,-139.91 257.41,-129.79 264.5,-120 283.17,-94.22 301.29,-62.1 312.18,-41.82"/>
<polygon fill="midnightblue" stroke="midnightblue" points="238.45,-146.5 234.36,-156.27 243.65,-151.18 238.45,-146.5"/>
</g>
<!-- Node8 -->
<g id="node8" class="node">
<title>Node8</title>
<g id="a_node8"><a xlink:href="StructInfo_8h.html" target="_top" xlink:title="Structured data serialization and deserialization to protobuf.">
<polygon fill="white" stroke="black" points="99,-78.5 99,-119.5 256,-119.5 256,-78.5 99,-78.5"/>
<text text-anchor="start" x="107" y="-107.5" font-family="Helvetica,sans-Serif" font-size="10.00">/home/runner/work/Catena</text>
<text text-anchor="start" x="107" y="-96.5" font-family="Helvetica,sans-Serif" font-size="10.00">/Catena/sdks/cpp/lite/include</text>
<text text-anchor="middle" x="177.5" y="-85.5" font-family="Helvetica,sans-Serif" font-size="10.00">/StructInfo.h</text>
</a>
</g>
</g>
<!-- Node6&#45;&gt;Node8 -->
<g id="edge7" class="edge">
<title>Node6&#45;&gt;Node8</title>
<path fill="none" stroke="midnightblue" d="M201.23,-147.47C196.57,-138.14 191.5,-128.01 187.25,-119.51"/>
<polygon fill="midnightblue" stroke="midnightblue" points="198.11,-149.05 205.71,-156.43 204.37,-145.92 198.11,-149.05"/>
</g>
<!-- Node8&#45;&gt;Node7 -->
<g id="edge8" class="edge">
<title>Node8&#45;&gt;Node7</title>
<path fill="none" stroke="midnightblue" d="M223.73,-73.77C243.61,-63.35 266.53,-51.34 285.29,-41.51"/>
<polygon fill="midnightblue" stroke="midnightblue" points="222.07,-70.69 214.84,-78.43 225.32,-76.89 222.07,-70.69"/>
</g>
</g>
</svg>
