<?xml version="1.0" encoding="UTF-8" standalone="no"?>
<!DOCTYPE svg PUBLIC "-//W3C//DTD SVG 1.1//EN"
 "http://www.w3.org/Graphics/SVG/1.1/DTD/svg11.dtd">
<!-- Generated by graphviz version 2.43.0 (0)
 -->
<!-- Title: /home/runner/work/Catena/Catena/sdks/cpp/common/include/Tags.h Pages: 1 -->
<svg width="1128pt" height="440pt"
 viewBox="0.00 0.00 1127.50 440.00" xmlns="http://www.w3.org/2000/svg" xmlns:xlink="http://www.w3.org/1999/xlink">
<g id="graph0" class="graph" transform="scale(1 1) rotate(0) translate(4 436)">
<title>/home/runner/work/Catena/Catena/sdks/cpp/common/include/Tags.h</title>
<polygon fill="white" stroke="transparent" points="-4,4 -4,-436 1123.5,-436 1123.5,4 -4,4"/>
<!-- Node1 -->
<g id="node1" class="node">
<title>Node1</title>
<g id="a_node1"><a xlink:title="Tags to differentiate collections with the same type for template specialization.">
<polygon fill="#bfbfbf" stroke="black" points="713.5,-390.5 713.5,-431.5 859.5,-431.5 859.5,-390.5 713.5,-390.5"/>
<text text-anchor="start" x="721.5" y="-419.5" font-family="Helvetica,sans-Serif" font-size="10.00">/home/runner/work/Catena</text>
<text text-anchor="start" x="721.5" y="-408.5" font-family="Helvetica,sans-Serif" font-size="10.00">/Catena/sdks/cpp/common</text>
<text text-anchor="middle" x="786.5" y="-397.5" font-family="Helvetica,sans-Serif" font-size="10.00">/include/Tags.h</text>
</a>
</g>
</g>
<!-- Node2 -->
<g id="node2" class="node">
<title>Node2</title>
<g id="a_node2"><a xlink:href="Device_8h.html" target="_top" xlink:title="Device class definition.">
<polygon fill="white" stroke="black" points="506.5,-312.5 506.5,-353.5 652.5,-353.5 652.5,-312.5 506.5,-312.5"/>
<text text-anchor="start" x="514.5" y="-341.5" font-family="Helvetica,sans-Serif" font-size="10.00">/home/runner/work/Catena</text>
<text text-anchor="start" x="514.5" y="-330.5" font-family="Helvetica,sans-Serif" font-size="10.00">/Catena/sdks/cpp/common</text>
<text text-anchor="middle" x="579.5" y="-319.5" font-family="Helvetica,sans-Serif" font-size="10.00">/include/Device.h</text>
</a>
</g>
</g>
<!-- Node1&#45;&gt;Node2 -->
<g id="edge1" class="edge">
<title>Node1&#45;&gt;Node2</title>
<path fill="none" stroke="midnightblue" d="M723.55,-386.89C694.49,-376.22 660.37,-363.69 632.63,-353.51"/>
<polygon fill="midnightblue" stroke="midnightblue" points="722.6,-390.27 733.19,-390.43 725.01,-383.7 722.6,-390.27"/>
</g>
<!-- Node6 -->
<g id="node6" class="node">
<title>Node6</title>
<g id="a_node6"><a xlink:href="NamedChoiceConstraint_8h.html" target="_top" xlink:title="A constraint that checks if a value is within some named choices.">
<polygon fill="white" stroke="black" points="0,-234.5 0,-275.5 185,-275.5 185,-234.5 0,-234.5"/>
<text text-anchor="start" x="8" y="-263.5" font-family="Helvetica,sans-Serif" font-size="10.00">/home/runner/work/Catena</text>
<text text-anchor="start" x="8" y="-252.5" font-family="Helvetica,sans-Serif" font-size="10.00">/Catena/sdks/cpp/common</text>
<text text-anchor="middle" x="92.5" y="-241.5" font-family="Helvetica,sans-Serif" font-size="10.00">/include/NamedChoiceConstraint.h</text>
</a>
</g>
</g>
<!-- Node1&#45;&gt;Node6 -->
<g id="edge16" class="edge">
<title>Node1&#45;&gt;Node6</title>
<path fill="none" stroke="midnightblue" d="M703.08,-394.89C645.24,-384.15 566.51,-369.03 497.5,-354 382.46,-328.95 250,-296.14 168.77,-275.56"/>
<polygon fill="midnightblue" stroke="midnightblue" points="702.79,-398.39 713.26,-396.77 704.07,-391.51 702.79,-398.39"/>
</g>
<!-- Node7 -->
<g id="node7" class="node">
<title>Node7</title>
<g id="a_node7"><a xlink:href="ParamDescriptor_8h_source.html" target="_top" xlink:title=" ">
<polygon fill="white" stroke="black" points="608,-234.5 608,-275.5 755,-275.5 755,-234.5 608,-234.5"/>
<text text-anchor="start" x="616" y="-263.5" font-family="Helvetica,sans-Serif" font-size="10.00">/home/runner/work/Catena</text>
<text text-anchor="start" x="616" y="-252.5" font-family="Helvetica,sans-Serif" font-size="10.00">/Catena/sdks/cpp/common</text>
<text text-anchor="middle" x="681.5" y="-241.5" font-family="Helvetica,sans-Serif" font-size="10.00">/include/ParamDescriptor.h</text>
</a>
</g>
</g>
<!-- Node1&#45;&gt;Node7 -->
<g id="edge17" class="edge">
<title>Node1&#45;&gt;Node7</title>
<path fill="none" stroke="midnightblue" d="M767.38,-381.96C746.45,-351.26 713.42,-302.82 695.02,-275.83"/>
<polygon fill="midnightblue" stroke="midnightblue" points="764.68,-384.21 773.2,-390.5 770.46,-380.26 764.68,-384.21"/>
</g>
<!-- Node9 -->
<g id="node9" class="node">
<title>Node9</title>
<g id="a_node9"><a xlink:href="ParamWithValue_8h.html" target="_top" xlink:title="Interface for acessing parameter values.">
<polygon fill="white" stroke="black" points="658,-0.5 658,-41.5 805,-41.5 805,-0.5 658,-0.5"/>
<text text-anchor="start" x="666" y="-29.5" font-family="Helvetica,sans-Serif" font-size="10.00">/home/runner/work/Catena</text>
<text text-anchor="start" x="666" y="-18.5" font-family="Helvetica,sans-Serif" font-size="10.00">/Catena/sdks/cpp/common</text>
<text text-anchor="middle" x="731.5" y="-7.5" font-family="Helvetica,sans-Serif" font-size="10.00">/include/ParamWithValue.h</text>
</a>
</g>
</g>
<!-- Node1&#45;&gt;Node9 -->
<g id="edge18" class="edge">
<title>Node1&#45;&gt;Node9</title>
<path fill="none" stroke="midnightblue" d="M869.55,-406.62C968.17,-397.63 1119.5,-365.92 1119.5,-256 1119.5,-256 1119.5,-256 1119.5,-176 1119.5,-109.14 917.97,-58.66 805.39,-35.68"/>
<polygon fill="midnightblue" stroke="midnightblue" points="869.25,-403.13 859.58,-407.46 869.84,-410.1 869.25,-403.13"/>
</g>
<!-- Node11 -->
<g id="node11" class="node">
<title>Node11</title>
<g id="a_node11"><a xlink:href="PicklistConstraint_8h.html" target="_top" xlink:title="A constraint that checks if a value is in a list of strings.">
<polygon fill="white" stroke="black" points="773.5,-234.5 773.5,-275.5 925.5,-275.5 925.5,-234.5 773.5,-234.5"/>
<text text-anchor="start" x="781.5" y="-263.5" font-family="Helvetica,sans-Serif" font-size="10.00">/home/runner/work/Catena</text>
<text text-anchor="start" x="781.5" y="-252.5" font-family="Helvetica,sans-Serif" font-size="10.00">/Catena/sdks/cpp/common</text>
<text text-anchor="middle" x="849.5" y="-241.5" font-family="Helvetica,sans-Serif" font-size="10.00">/include/PicklistConstraint.h</text>
</a>
</g>
</g>
<!-- Node1&#45;&gt;Node11 -->
<g id="edge19" class="edge">
<title>Node1&#45;&gt;Node11</title>
<path fill="none" stroke="midnightblue" d="M798.3,-381.17C810.87,-350.43 830.44,-302.59 841.39,-275.83"/>
<polygon fill="midnightblue" stroke="midnightblue" points="795.03,-379.92 794.48,-390.5 801.5,-382.57 795.03,-379.92"/>
</g>
<!-- Node12 -->
<g id="node12" class="node">
<title>Node12</title>
<g id="a_node12"><a xlink:href="RangeConstraint_8h.html" target="_top" xlink:title="A constraint that checks if a value is within a range.">
<polygon fill="white" stroke="black" points="943.5,-234.5 943.5,-275.5 1091.5,-275.5 1091.5,-234.5 943.5,-234.5"/>
<text text-anchor="start" x="951.5" y="-263.5" font-family="Helvetica,sans-Serif" font-size="10.00">/home/runner/work/Catena</text>
<text text-anchor="start" x="951.5" y="-252.5" font-family="Helvetica,sans-Serif" font-size="10.00">/Catena/sdks/cpp/common</text>
<text text-anchor="middle" x="1017.5" y="-241.5" font-family="Helvetica,sans-Serif" font-size="10.00">/include/RangeConstraint.h</text>
</a>
</g>
</g>
<!-- Node1&#45;&gt;Node12 -->
<g id="edge20" class="edge">
<title>Node1&#45;&gt;Node12</title>
<path fill="none" stroke="midnightblue" d="M824.22,-384.85C870.06,-354.3 946.42,-303.39 988.12,-275.59"/>
<polygon fill="midnightblue" stroke="midnightblue" points="822.14,-382.04 815.76,-390.5 826.02,-387.86 822.14,-382.04"/>
</g>
<!-- Node3 -->
<g id="node3" class="node">
<title>Node3</title>
<g id="a_node3"><a xlink:href="LanguagePack_8h.html" target="_top" xlink:title="multi language support in 2 classes: LanguagePack and LanguagePacks">
<polygon fill="white" stroke="black" points="203.5,-234.5 203.5,-275.5 349.5,-275.5 349.5,-234.5 203.5,-234.5"/>
<text text-anchor="start" x="211.5" y="-263.5" font-family="Helvetica,sans-Serif" font-size="10.00">/home/runner/work/Catena</text>
<text text-anchor="start" x="211.5" y="-252.5" font-family="Helvetica,sans-Serif" font-size="10.00">/Catena/sdks/cpp/common</text>
<text text-anchor="middle" x="276.5" y="-241.5" font-family="Helvetica,sans-Serif" font-size="10.00">/include/LanguagePack.h</text>
</a>
</g>
</g>
<!-- Node2&#45;&gt;Node3 -->
<g id="edge2" class="edge">
<title>Node2&#45;&gt;Node3</title>
<path fill="none" stroke="midnightblue" d="M496.23,-311.11C450.34,-299.6 393.89,-285.44 349.7,-274.36"/>
<polygon fill="midnightblue" stroke="midnightblue" points="495.6,-314.56 506.15,-313.6 497.3,-307.77 495.6,-314.56"/>
</g>
<!-- Node4 -->
<g id="node4" class="node">
<title>Node4</title>
<g id="a_node4"><a xlink:href="Menu_8h.html" target="_top" xlink:title="Menus support.">
<polygon fill="white" stroke="black" points="405.5,-234.5 405.5,-275.5 551.5,-275.5 551.5,-234.5 405.5,-234.5"/>
<text text-anchor="start" x="413.5" y="-263.5" font-family="Helvetica,sans-Serif" font-size="10.00">/home/runner/work/Catena</text>
<text text-anchor="start" x="413.5" y="-252.5" font-family="Helvetica,sans-Serif" font-size="10.00">/Catena/sdks/cpp/common</text>
<text text-anchor="middle" x="478.5" y="-241.5" font-family="Helvetica,sans-Serif" font-size="10.00">/include/Menu.h</text>
</a>
</g>
</g>
<!-- Node2&#45;&gt;Node4 -->
<g id="edge3" class="edge">
<title>Node2&#45;&gt;Node4</title>
<path fill="none" stroke="midnightblue" d="M545.41,-306.35C532.02,-296.27 516.9,-284.89 504.42,-275.51"/>
<polygon fill="midnightblue" stroke="midnightblue" points="543.4,-309.21 553.49,-312.43 547.6,-303.62 543.4,-309.21"/>
</g>
<!-- Node5 -->
<g id="node5" class="node">
<title>Node5</title>
<g id="a_node5"><a xlink:href="MenuGroup_8h.html" target="_top" xlink:title="MenuGroups support.">
<polygon fill="white" stroke="black" points="456.5,-156.5 456.5,-197.5 602.5,-197.5 602.5,-156.5 456.5,-156.5"/>
<text text-anchor="start" x="464.5" y="-185.5" font-family="Helvetica,sans-Serif" font-size="10.00">/home/runner/work/Catena</text>
<text text-anchor="start" x="464.5" y="-174.5" font-family="Helvetica,sans-Serif" font-size="10.00">/Catena/sdks/cpp/common</text>
<text text-anchor="middle" x="529.5" y="-163.5" font-family="Helvetica,sans-Serif" font-size="10.00">/include/MenuGroup.h</text>
</a>
</g>
</g>
<!-- Node2&#45;&gt;Node5 -->
<g id="edge5" class="edge">
<title>Node2&#45;&gt;Node5</title>
<path fill="none" stroke="midnightblue" d="M576.22,-302.4C573.44,-282.61 568.58,-256.23 560.5,-234 555.91,-221.36 548.73,-208.16 542.44,-197.75"/>
<polygon fill="midnightblue" stroke="midnightblue" points="572.76,-302.9 577.53,-312.36 579.7,-301.99 572.76,-302.9"/>
</g>
<!-- Node2&#45;&gt;Node6 -->
<g id="edge6" class="edge">
<title>Node2&#45;&gt;Node6</title>
<path fill="none" stroke="midnightblue" d="M495.98,-321.06C417.87,-310.54 298.05,-293.67 194.5,-276 191.39,-275.47 188.22,-274.92 185.03,-274.35"/>
<polygon fill="midnightblue" stroke="midnightblue" points="495.86,-324.57 506.24,-322.44 496.8,-317.64 495.86,-324.57"/>
</g>
<!-- Node2&#45;&gt;Node7 -->
<g id="edge7" class="edge">
<title>Node2&#45;&gt;Node7</title>
<path fill="none" stroke="midnightblue" d="M613.92,-306.35C627.45,-296.27 642.72,-284.89 655.32,-275.51"/>
<polygon fill="midnightblue" stroke="midnightblue" points="611.7,-303.65 605.77,-312.43 615.88,-309.26 611.7,-303.65"/>
</g>
<!-- Node2&#45;&gt;Node9 -->
<g id="edge13" class="edge">
<title>Node2&#45;&gt;Node9</title>
<path fill="none" stroke="midnightblue" d="M495.82,-327.89C459.2,-321.41 419.44,-307.01 396.5,-276 385.4,-260.99 391.17,-251.89 396.5,-234 430.3,-120.54 569.91,-63.84 657.88,-38.85"/>
<polygon fill="midnightblue" stroke="midnightblue" points="495.62,-331.4 506.04,-329.51 496.72,-324.49 495.62,-331.4"/>
</g>
<!-- Node2&#45;&gt;Node11 -->
<g id="edge14" class="edge">
<title>Node2&#45;&gt;Node11</title>
<path fill="none" stroke="midnightblue" d="M658.66,-309.72C697.19,-298.87 743.08,-285.96 780.2,-275.51"/>
<polygon fill="midnightblue" stroke="midnightblue" points="657.71,-306.35 649.03,-312.43 659.61,-313.09 657.71,-306.35"/>
</g>
<!-- Node2&#45;&gt;Node12 -->
<g id="edge15" class="edge">
<title>Node2&#45;&gt;Node12</title>
<path fill="none" stroke="midnightblue" d="M662.49,-320.82C734.65,-310.65 841.86,-294.44 934.5,-276 937.41,-275.42 940.37,-274.81 943.35,-274.18"/>
<polygon fill="midnightblue" stroke="midnightblue" points="661.97,-317.36 652.55,-322.22 662.94,-324.3 661.97,-317.36"/>
</g>
<!-- Node4&#45;&gt;Node5 -->
<g id="edge4" class="edge">
<title>Node4&#45;&gt;Node5</title>
<path fill="none" stroke="midnightblue" d="M497.26,-226.05C503.62,-216.57 510.59,-206.18 516.41,-197.51"/>
<polygon fill="midnightblue" stroke="midnightblue" points="494.3,-224.17 491.63,-234.43 500.11,-228.07 494.3,-224.17"/>
</g>
<!-- Node8 -->
<g id="node8" class="node">
<title>Node8</title>
<g id="a_node8"><a xlink:href="AuthzInfo_8h.html" target="_top" xlink:title="Class for handling authorization information.">
<polygon fill="white" stroke="black" points="658.5,-156.5 658.5,-197.5 804.5,-197.5 804.5,-156.5 658.5,-156.5"/>
<text text-anchor="start" x="666.5" y="-185.5" font-family="Helvetica,sans-Serif" font-size="10.00">/home/runner/work/Catena</text>
<text text-anchor="start" x="666.5" y="-174.5" font-family="Helvetica,sans-Serif" font-size="10.00">/Catena/sdks/cpp/common</text>
<text text-anchor="middle" x="731.5" y="-163.5" font-family="Helvetica,sans-Serif" font-size="10.00">/include/AuthzInfo.h</text>
</a>
</g>
</g>
<!-- Node7&#45;&gt;Node8 -->
<g id="edge8" class="edge">
<title>Node7&#45;&gt;Node8</title>
<path fill="none" stroke="midnightblue" d="M699.89,-226.05C706.13,-216.57 712.96,-206.18 718.67,-197.51"/>
<polygon fill="midnightblue" stroke="midnightblue" points="696.95,-224.15 694.38,-234.43 702.8,-228 696.95,-224.15"/>
</g>
<!-- Node7&#45;&gt;Node9 -->
<g id="edge12" class="edge">
<title>Node7&#45;&gt;Node9</title>
<path fill="none" stroke="midnightblue" d="M661.53,-225.64C656.61,-217.14 652.03,-207.54 649.5,-198 635.81,-146.45 624.6,-125.16 649.5,-78 657.71,-62.45 672.4,-50.4 687.09,-41.53"/>
<polygon fill="midnightblue" stroke="midnightblue" points="658.69,-227.7 666.92,-234.37 664.65,-224.03 658.69,-227.7"/>
</g>
<!-- Node8&#45;&gt;Node9 -->
<g id="edge9" class="edge">
<title>Node8&#45;&gt;Node9</title>
<path fill="none" stroke="midnightblue" d="M784.47,-150.9C796.09,-142.76 806.89,-132.51 813.5,-120 822.22,-103.49 822.22,-94.51 813.5,-78 805.29,-62.45 790.6,-50.4 775.91,-41.53"/>
<polygon fill="midnightblue" stroke="midnightblue" points="782.39,-148.08 775.91,-156.47 786.2,-153.95 782.39,-148.08"/>
</g>
<!-- Node10 -->
<g id="node10" class="node">
<title>Node10</title>
<g id="a_node10"><a xlink:href="StructInfo_8h.html" target="_top" xlink:title="Structured data serialization and deserialization to protobuf.">
<polygon fill="white" stroke="black" points="658.5,-78.5 658.5,-119.5 804.5,-119.5 804.5,-78.5 658.5,-78.5"/>
<text text-anchor="start" x="666.5" y="-107.5" font-family="Helvetica,sans-Serif" font-size="10.00">/home/runner/work/Catena</text>
<text text-anchor="start" x="666.5" y="-96.5" font-family="Helvetica,sans-Serif" font-size="10.00">/Catena/sdks/cpp/common</text>
<text text-anchor="middle" x="731.5" y="-85.5" font-family="Helvetica,sans-Serif" font-size="10.00">/include/StructInfo.h</text>
</a>
</g>
</g>
<!-- Node8&#45;&gt;Node10 -->
<g id="edge10" class="edge">
<title>Node8&#45;&gt;Node10</title>
<path fill="none" stroke="midnightblue" d="M731.5,-146.3C731.5,-137.3 731.5,-127.65 731.5,-119.51"/>
<polygon fill="midnightblue" stroke="midnightblue" points="728,-146.43 731.5,-156.43 735,-146.43 728,-146.43"/>
</g>
<!-- Node10&#45;&gt;Node9 -->
<g id="edge11" class="edge">
<title>Node10&#45;&gt;Node9</title>
<path fill="none" stroke="midnightblue" d="M731.5,-68.3C731.5,-59.3 731.5,-49.65 731.5,-41.51"/>
<polygon fill="midnightblue" stroke="midnightblue" points="728,-68.43 731.5,-78.43 735,-68.43 728,-68.43"/>
</g>
</g>
</svg>
