<?xml version="1.0" encoding="UTF-8" standalone="no"?>
<!DOCTYPE svg PUBLIC "-//W3C//DTD SVG 1.1//EN"
 "http://www.w3.org/Graphics/SVG/1.1/DTD/svg11.dtd">
<!-- Generated by graphviz version 2.43.0 (0)
 -->
<!-- Title: /home/runner/work/Catena/Catena/sdks/cpp/common/include/Tags.h Pages: 1 -->
<svg width="925pt" height="440pt"
 viewBox="0.00 0.00 924.50 440.00" xmlns="http://www.w3.org/2000/svg" xmlns:xlink="http://www.w3.org/1999/xlink">
<g id="graph0" class="graph" transform="scale(1 1) rotate(0) translate(4 436)">
<title>/home/runner/work/Catena/Catena/sdks/cpp/common/include/Tags.h</title>
<polygon fill="white" stroke="transparent" points="-4,4 -4,-436 920.5,-436 920.5,4 -4,4"/>
<!-- Node1 -->
<g id="node1" class="node">
<title>Node1</title>
<g id="a_node1"><a xlink:title="Tags to differentiate collections with the same type for template specialization.">
<polygon fill="#bfbfbf" stroke="black" points="489.5,-390.5 489.5,-431.5 635.5,-431.5 635.5,-390.5 489.5,-390.5"/>
<text text-anchor="start" x="497.5" y="-419.5" font-family="Helvetica,sans-Serif" font-size="10.00">/home/runner/work/Catena</text>
<text text-anchor="start" x="497.5" y="-408.5" font-family="Helvetica,sans-Serif" font-size="10.00">/Catena/sdks/cpp/common</text>
<text text-anchor="middle" x="562.5" y="-397.5" font-family="Helvetica,sans-Serif" font-size="10.00">/include/Tags.h</text>
</a>
</g>
</g>
<!-- Node2 -->
<g id="node2" class="node">
<title>Node2</title>
<g id="a_node2"><a xlink:href="Device_8h.html" target="_top" xlink:title="Device class definition.">
<polygon fill="white" stroke="black" points="406.5,-312.5 406.5,-353.5 552.5,-353.5 552.5,-312.5 406.5,-312.5"/>
<text text-anchor="start" x="414.5" y="-341.5" font-family="Helvetica,sans-Serif" font-size="10.00">/home/runner/work/Catena</text>
<text text-anchor="start" x="414.5" y="-330.5" font-family="Helvetica,sans-Serif" font-size="10.00">/Catena/sdks/cpp/common</text>
<text text-anchor="middle" x="479.5" y="-319.5" font-family="Helvetica,sans-Serif" font-size="10.00">/include/Device.h</text>
</a>
</g>
</g>
<!-- Node1&#45;&gt;Node2 -->
<g id="edge1" class="edge">
<title>Node1&#45;&gt;Node2</title>
<path fill="none" stroke="midnightblue" d="M533.55,-383.49C522.78,-373.63 510.76,-362.63 500.8,-353.51"/>
<polygon fill="midnightblue" stroke="midnightblue" points="531.39,-386.26 541.13,-390.43 536.11,-381.09 531.39,-386.26"/>
</g>
<!-- Node4 -->
<g id="node4" class="node">
<title>Node4</title>
<g id="a_node4"><a xlink:href="NamedChoiceConstraint_8h.html" target="_top" xlink:title="A constraint that checks if a value is within some named choices.">
<polygon fill="white" stroke="black" points="0,-234.5 0,-275.5 185,-275.5 185,-234.5 0,-234.5"/>
<text text-anchor="start" x="8" y="-263.5" font-family="Helvetica,sans-Serif" font-size="10.00">/home/runner/work/Catena</text>
<text text-anchor="start" x="8" y="-252.5" font-family="Helvetica,sans-Serif" font-size="10.00">/Catena/sdks/cpp/common</text>
<text text-anchor="middle" x="92.5" y="-241.5" font-family="Helvetica,sans-Serif" font-size="10.00">/include/NamedChoiceConstraint.h</text>
</a>
</g>
</g>
<!-- Node1&#45;&gt;Node4 -->
<g id="edge13" class="edge">
<title>Node1&#45;&gt;Node4</title>
<path fill="none" stroke="midnightblue" d="M479.38,-392.61C435.81,-382.74 381.81,-369.3 334.5,-354 263.34,-330.98 183.38,-296.93 135.52,-275.62"/>
<polygon fill="midnightblue" stroke="midnightblue" points="478.84,-396.08 489.36,-394.85 480.37,-389.25 478.84,-396.08"/>
</g>
<!-- Node5 -->
<g id="node5" class="node">
<title>Node5</title>
<g id="a_node5"><a xlink:href="ParamDescriptor_8h_source.html" target="_top" xlink:title=" ">
<polygon fill="white" stroke="black" points="203,-234.5 203,-275.5 350,-275.5 350,-234.5 203,-234.5"/>
<text text-anchor="start" x="211" y="-263.5" font-family="Helvetica,sans-Serif" font-size="10.00">/home/runner/work/Catena</text>
<text text-anchor="start" x="211" y="-252.5" font-family="Helvetica,sans-Serif" font-size="10.00">/Catena/sdks/cpp/common</text>
<text text-anchor="middle" x="276.5" y="-241.5" font-family="Helvetica,sans-Serif" font-size="10.00">/include/ParamDescriptor.h</text>
</a>
</g>
</g>
<!-- Node1&#45;&gt;Node5 -->
<g id="edge14" class="edge">
<title>Node1&#45;&gt;Node5</title>
<path fill="none" stroke="midnightblue" d="M479.29,-388.08C452.33,-379.34 422.86,-367.99 397.5,-354 358.21,-332.33 318.99,-297.56 296.28,-275.79"/>
<polygon fill="midnightblue" stroke="midnightblue" points="478.51,-391.51 489.1,-391.18 480.62,-384.83 478.51,-391.51"/>
</g>
<!-- Node7 -->
<g id="node7" class="node">
<title>Node7</title>
<g id="a_node7"><a xlink:href="ParamWithValue_8h.html" target="_top" xlink:title="Interface for acessing parameter values.">
<polygon fill="white" stroke="black" points="267,-0.5 267,-41.5 414,-41.5 414,-0.5 267,-0.5"/>
<text text-anchor="start" x="275" y="-29.5" font-family="Helvetica,sans-Serif" font-size="10.00">/home/runner/work/Catena</text>
<text text-anchor="start" x="275" y="-18.5" font-family="Helvetica,sans-Serif" font-size="10.00">/Catena/sdks/cpp/common</text>
<text text-anchor="middle" x="340.5" y="-7.5" font-family="Helvetica,sans-Serif" font-size="10.00">/include/ParamWithValue.h</text>
</a>
</g>
</g>
<!-- Node1&#45;&gt;Node7 -->
<g id="edge15" class="edge">
<title>Node1&#45;&gt;Node7</title>
<path fill="none" stroke="midnightblue" d="M646.09,-408.75C750.76,-402.24 916.5,-373.4 916.5,-256 916.5,-256 916.5,-256 916.5,-176 916.5,-73.13 569.32,-37.17 414.04,-26.23"/>
<polygon fill="midnightblue" stroke="midnightblue" points="645.64,-405.27 635.85,-409.33 646.03,-412.26 645.64,-405.27"/>
</g>
<!-- Node9 -->
<g id="node9" class="node">
<title>Node9</title>
<g id="a_node9"><a xlink:href="PicklistConstraint_8h.html" target="_top" xlink:title="A constraint that checks if a value is in a list of strings.">
<polygon fill="white" stroke="black" points="570.5,-234.5 570.5,-275.5 722.5,-275.5 722.5,-234.5 570.5,-234.5"/>
<text text-anchor="start" x="578.5" y="-263.5" font-family="Helvetica,sans-Serif" font-size="10.00">/home/runner/work/Catena</text>
<text text-anchor="start" x="578.5" y="-252.5" font-family="Helvetica,sans-Serif" font-size="10.00">/Catena/sdks/cpp/common</text>
<text text-anchor="middle" x="646.5" y="-241.5" font-family="Helvetica,sans-Serif" font-size="10.00">/include/PicklistConstraint.h</text>
</a>
</g>
</g>
<!-- Node1&#45;&gt;Node9 -->
<g id="edge16" class="edge">
<title>Node1&#45;&gt;Node9</title>
<path fill="none" stroke="midnightblue" d="M578.01,-381.56C594.77,-350.85 621.02,-302.71 635.68,-275.83"/>
<polygon fill="midnightblue" stroke="midnightblue" points="574.85,-380.04 573.14,-390.5 581,-383.39 574.85,-380.04"/>
</g>
<!-- Node10 -->
<g id="node10" class="node">
<title>Node10</title>
<g id="a_node10"><a xlink:href="RangeConstraint_8h.html" target="_top" xlink:title="A constraint that checks if a value is within a range.">
<polygon fill="white" stroke="black" points="740.5,-234.5 740.5,-275.5 888.5,-275.5 888.5,-234.5 740.5,-234.5"/>
<text text-anchor="start" x="748.5" y="-263.5" font-family="Helvetica,sans-Serif" font-size="10.00">/home/runner/work/Catena</text>
<text text-anchor="start" x="748.5" y="-252.5" font-family="Helvetica,sans-Serif" font-size="10.00">/Catena/sdks/cpp/common</text>
<text text-anchor="middle" x="814.5" y="-241.5" font-family="Helvetica,sans-Serif" font-size="10.00">/include/RangeConstraint.h</text>
</a>
</g>
</g>
<!-- Node1&#45;&gt;Node10 -->
<g id="edge17" class="edge">
<title>Node1&#45;&gt;Node10</title>
<path fill="none" stroke="midnightblue" d="M603.03,-385.23C652.96,-354.72 736.77,-303.5 782.45,-275.59"/>
<polygon fill="midnightblue" stroke="midnightblue" points="601.12,-382.29 594.42,-390.5 604.77,-388.27 601.12,-382.29"/>
</g>
<!-- Node3 -->
<g id="node3" class="node">
<title>Node3</title>
<g id="a_node3"><a xlink:href="LanguagePack_8h.html" target="_top" xlink:title="multi language support in 2 classes: LanguagePack and LanguagePacks">
<polygon fill="white" stroke="black" points="406.5,-234.5 406.5,-275.5 552.5,-275.5 552.5,-234.5 406.5,-234.5"/>
<text text-anchor="start" x="414.5" y="-263.5" font-family="Helvetica,sans-Serif" font-size="10.00">/home/runner/work/Catena</text>
<text text-anchor="start" x="414.5" y="-252.5" font-family="Helvetica,sans-Serif" font-size="10.00">/Catena/sdks/cpp/common</text>
<text text-anchor="middle" x="479.5" y="-241.5" font-family="Helvetica,sans-Serif" font-size="10.00">/include/LanguagePack.h</text>
</a>
</g>
</g>
<!-- Node2&#45;&gt;Node3 -->
<g id="edge2" class="edge">
<title>Node2&#45;&gt;Node3</title>
<path fill="none" stroke="midnightblue" d="M479.5,-302.3C479.5,-293.3 479.5,-283.65 479.5,-275.51"/>
<polygon fill="midnightblue" stroke="midnightblue" points="476,-302.43 479.5,-312.43 483,-302.43 476,-302.43"/>
</g>
<!-- Node2&#45;&gt;Node4 -->
<g id="edge3" class="edge">
<title>Node2&#45;&gt;Node4</title>
<path fill="none" stroke="midnightblue" d="M396.26,-315.75C339.19,-304.6 261.76,-289.44 193.5,-276 190.78,-275.46 188.02,-274.92 185.24,-274.37"/>
<polygon fill="midnightblue" stroke="midnightblue" points="395.83,-319.23 406.31,-317.71 397.17,-312.36 395.83,-319.23"/>
</g>
<!-- Node2&#45;&gt;Node5 -->
<g id="edge4" class="edge">
<title>Node2&#45;&gt;Node5</title>
<path fill="none" stroke="midnightblue" d="M417.76,-308.89C389.27,-298.22 355.8,-285.69 328.6,-275.51"/>
<polygon fill="midnightblue" stroke="midnightblue" points="416.63,-312.2 427.22,-312.43 419.08,-305.64 416.63,-312.2"/>
</g>
<!-- Node2&#45;&gt;Node7 -->
<g id="edge10" class="edge">
<title>Node2&#45;&gt;Node7</title>
<path fill="none" stroke="midnightblue" d="M430.02,-307.04C417.75,-298.71 405.76,-288.33 397.5,-276 347.43,-201.27 376.48,-165.48 355.5,-78 352.59,-65.86 348.98,-52.35 346.03,-41.63"/>
<polygon fill="midnightblue" stroke="midnightblue" points="428.2,-310.04 438.51,-312.49 431.98,-304.15 428.2,-310.04"/>
</g>
<!-- Node2&#45;&gt;Node9 -->
<g id="edge11" class="edge">
<title>Node2&#45;&gt;Node9</title>
<path fill="none" stroke="midnightblue" d="M531.82,-308.19C554.92,-297.67 581.75,-285.47 603.64,-275.51"/>
<polygon fill="midnightblue" stroke="midnightblue" points="530.16,-305.1 522.51,-312.43 533.06,-311.47 530.16,-305.1"/>
</g>
<!-- Node2&#45;&gt;Node10 -->
<g id="edge12" class="edge">
<title>Node2&#45;&gt;Node10</title>
<path fill="none" stroke="midnightblue" d="M562.59,-313.93C611.75,-303.13 675.23,-289.03 731.5,-276 734.39,-275.33 737.33,-274.64 740.3,-273.95"/>
<polygon fill="midnightblue" stroke="midnightblue" points="561.65,-310.55 552.63,-316.11 563.15,-317.38 561.65,-310.55"/>
</g>
<!-- Node6 -->
<g id="node6" class="node">
<title>Node6</title>
<g id="a_node6"><a xlink:href="AuthzInfo_8h.html" target="_top" xlink:title="Class for handling authorization information.">
<polygon fill="white" stroke="black" points="166.5,-156.5 166.5,-197.5 312.5,-197.5 312.5,-156.5 166.5,-156.5"/>
<text text-anchor="start" x="174.5" y="-185.5" font-family="Helvetica,sans-Serif" font-size="10.00">/home/runner/work/Catena</text>
<text text-anchor="start" x="174.5" y="-174.5" font-family="Helvetica,sans-Serif" font-size="10.00">/Catena/sdks/cpp/common</text>
<text text-anchor="middle" x="239.5" y="-163.5" font-family="Helvetica,sans-Serif" font-size="10.00">/include/AuthzInfo.h</text>
</a>
</g>
</g>
<!-- Node5&#45;&gt;Node6 -->
<g id="edge5" class="edge">
<title>Node5&#45;&gt;Node6</title>
<path fill="none" stroke="midnightblue" d="M262.47,-225.17C257.97,-215.93 253.09,-205.92 249,-197.51"/>
<polygon fill="midnightblue" stroke="midnightblue" points="259.45,-226.97 266.97,-234.43 265.74,-223.9 259.45,-226.97"/>
</g>
<!-- Node5&#45;&gt;Node7 -->
<g id="edge9" class="edge">
<title>Node5&#45;&gt;Node7</title>
<path fill="none" stroke="midnightblue" d="M303.63,-226.6C310.58,-218.08 317.27,-208.22 321.5,-198 343.53,-144.75 343.48,-75.09 341.88,-41.62"/>
<polygon fill="midnightblue" stroke="midnightblue" points="300.84,-224.47 296.96,-234.33 306.14,-229.04 300.84,-224.47"/>
</g>
<!-- Node6&#45;&gt;Node7 -->
<g id="edge6" class="edge">
<title>Node6&#45;&gt;Node7</title>
<path fill="none" stroke="midnightblue" d="M262.35,-148.49C269.4,-139.59 277.01,-129.56 283.5,-120 301.3,-93.78 319.25,-61.78 330.13,-41.64"/>
<polygon fill="midnightblue" stroke="midnightblue" points="259.62,-146.3 256.08,-156.29 265.07,-150.69 259.62,-146.3"/>
</g>
<!-- Node8 -->
<g id="node8" class="node">
<title>Node8</title>
<g id="a_node8"><a xlink:href="StructInfo_8h.html" target="_top" xlink:title="Structured data serialization and deserialization to protobuf.">
<polygon fill="white" stroke="black" points="128.5,-78.5 128.5,-119.5 274.5,-119.5 274.5,-78.5 128.5,-78.5"/>
<text text-anchor="start" x="136.5" y="-107.5" font-family="Helvetica,sans-Serif" font-size="10.00">/home/runner/work/Catena</text>
<text text-anchor="start" x="136.5" y="-96.5" font-family="Helvetica,sans-Serif" font-size="10.00">/Catena/sdks/cpp/common</text>
<text text-anchor="middle" x="201.5" y="-85.5" font-family="Helvetica,sans-Serif" font-size="10.00">/include/StructInfo.h</text>
</a>
</g>
</g>
<!-- Node6&#45;&gt;Node8 -->
<g id="edge7" class="edge">
<title>Node6&#45;&gt;Node8</title>
<path fill="none" stroke="midnightblue" d="M225.23,-147.47C220.57,-138.14 215.5,-128.01 211.25,-119.51"/>
<polygon fill="midnightblue" stroke="midnightblue" points="222.11,-149.05 229.71,-156.43 228.37,-145.92 222.11,-149.05"/>
</g>
<!-- Node8&#45;&gt;Node7 -->
<g id="edge8" class="edge">
<title>Node8&#45;&gt;Node7</title>
<path fill="none" stroke="midnightblue" d="M246.08,-73.63C265.07,-63.24 286.93,-51.29 304.83,-41.51"/>
<polygon fill="midnightblue" stroke="midnightblue" points="244.39,-70.56 237.3,-78.43 247.75,-76.7 244.39,-70.56"/>
</g>
</g>
</svg>
