<?xml version="1.0" encoding="UTF-8" standalone="no"?>
<!DOCTYPE svg PUBLIC "-//W3C//DTD SVG 1.1//EN"
 "http://www.w3.org/Graphics/SVG/1.1/DTD/svg11.dtd">
<!-- Generated by graphviz version 2.43.0 (0)
 -->
<!-- Title: /home/runner/work/Catena/Catena/sdks/cpp/common/include/rpc/TimeNow.h Pages: 1 -->
<svg width="5025pt" height="302pt"
 viewBox="0.00 0.00 5024.50 302.00" xmlns="http://www.w3.org/2000/svg" xmlns:xlink="http://www.w3.org/1999/xlink">
<g id="graph0" class="graph" transform="scale(1 1) rotate(0) translate(4 298)">
<title>/home/runner/work/Catena/Catena/sdks/cpp/common/include/rpc/TimeNow.h</title>
<!-- Node1 -->
<g id="Node000001" class="node">
<title>Node1</title>
<g id="a_Node000001"><a xlink:title="Contains a function which returns the current time as a string.">
<polygon fill="#999999" stroke="#666666" points="1546,-294 1400,-294 1400,-253 1546,-253 1546,-294"/>
<text text-anchor="start" x="1408" y="-282" font-family="Helvetica,sans-Serif" font-size="10.00">/home/runner/work/Catena</text>
<text text-anchor="start" x="1408" y="-271" font-family="Helvetica,sans-Serif" font-size="10.00">/Catena/sdks/cpp/common</text>
<text text-anchor="middle" x="1473" y="-260" font-family="Helvetica,sans-Serif" font-size="10.00">/include/rpc/TimeNow.h</text>
</a>
</g>
</g>
<!-- Node2 -->
<g id="Node000002" class="node">
<title>Node2</title>
<g id="a_Node000002"><a xlink:href="AssetRequest_8h.html" target="_top" xlink:title="Implements REST AssetRequest controller.">
<polygon fill="white" stroke="#666666" points="216,-211.5 0,-211.5 0,-170.5 216,-170.5 216,-211.5"/>
<text text-anchor="start" x="8" y="-199.5" font-family="Helvetica,sans-Serif" font-size="10.00">/home/runner/work/Catena</text>
<text text-anchor="start" x="8" y="-188.5" font-family="Helvetica,sans-Serif" font-size="10.00">/Catena/sdks/cpp/connections</text>
<text text-anchor="middle" x="108" y="-177.5" font-family="Helvetica,sans-Serif" font-size="10.00">/REST/include/controllers/AssetRequest.h</text>
</a>
</g>
</g>
<!-- Node1&#45;&gt;Node2 -->
<g id="edge1_Node000001_Node000002" class="edge">
<title>Node1&#45;&gt;Node2</title>
<g id="a_edge1_Node000001_Node000002"><a xlink:title=" ">
<path fill="none" stroke="#63b8ff" d="M1389.7,-270.6C1148.31,-264.81 451.26,-246 225,-217 213.98,-215.59 202.45,-213.67 191.12,-211.53"/>
<polygon fill="#63b8ff" stroke="#63b8ff" points="1389.73,-274.1 1399.81,-270.84 1389.9,-267.11 1389.73,-274.1"/>
</a>
</g>
</g>
<!-- Node3 -->
<g id="Node000003" class="node">
<title>Node3</title>
<g id="a_Node000003"><a xlink:href="REST_2include_2controllers_2BasicParamInfoRequest_8h.html" target="_top" xlink:title="Implements REST BasicParamInfoRequest controller.">
<polygon fill="white" stroke="#666666" points="431.5,-217 234.5,-217 234.5,-165 431.5,-165 431.5,-217"/>
<text text-anchor="start" x="242.5" y="-205" font-family="Helvetica,sans-Serif" font-size="10.00">/home/runner/work/Catena</text>
<text text-anchor="start" x="242.5" y="-194" font-family="Helvetica,sans-Serif" font-size="10.00">/Catena/sdks/cpp/connections</text>
<text text-anchor="start" x="242.5" y="-183" font-family="Helvetica,sans-Serif" font-size="10.00">/REST/include/controllers/BasicParam</text>
<text text-anchor="middle" x="333" y="-172" font-family="Helvetica,sans-Serif" font-size="10.00">InfoRequest.h</text>
</a>
</g>
</g>
<!-- Node1&#45;&gt;Node3 -->
<g id="edge2_Node000001_Node000003" class="edge">
<title>Node1&#45;&gt;Node3</title>
<g id="a_edge2_Node000001_Node000003"><a xlink:title=" ">
<path fill="none" stroke="#63b8ff" d="M1389.7,-272.97C1213.49,-272.89 790.4,-266.95 440,-217 437.26,-216.61 434.49,-216.18 431.7,-215.73"/>
<polygon fill="#63b8ff" stroke="#63b8ff" points="1389.93,-276.47 1399.93,-272.97 1389.93,-269.47 1389.93,-276.47"/>
</a>
</g>
</g>
<!-- Node4 -->
<g id="Node000004" class="node">
<title>Node4</title>
<g id="a_Node000004"><a xlink:href="connections_2REST_2include_2controllers_2Connect_8h.html" target="_top" xlink:title="Implements REST Connect controller.">
<polygon fill="white" stroke="#666666" points="638.5,-211.5 449.5,-211.5 449.5,-170.5 638.5,-170.5 638.5,-211.5"/>
<text text-anchor="start" x="457.5" y="-199.5" font-family="Helvetica,sans-Serif" font-size="10.00">/home/runner/work/Catena</text>
<text text-anchor="start" x="457.5" y="-188.5" font-family="Helvetica,sans-Serif" font-size="10.00">/Catena/sdks/cpp/connections</text>
<text text-anchor="middle" x="544" y="-177.5" font-family="Helvetica,sans-Serif" font-size="10.00">/REST/include/controllers/Connect.h</text>
</a>
</g>
</g>
<!-- Node1&#45;&gt;Node4 -->
<g id="edge3_Node000001_Node000004" class="edge">
<title>Node1&#45;&gt;Node4</title>
<g id="a_edge3_Node000001_Node000004"><a xlink:title=" ">
<path fill="none" stroke="#63b8ff" d="M1389.87,-271.6C1240.36,-268.95 916.57,-258.46 647,-217 637.54,-215.55 627.68,-213.65 617.96,-211.55"/>
<polygon fill="#63b8ff" stroke="#63b8ff" points="1389.84,-275.1 1399.89,-271.77 1389.96,-268.1 1389.84,-275.1"/>
</a>
</g>
</g>
<!-- Node5 -->
<g id="Node000005" class="node">
<title>Node5</title>
<g id="a_Node000005"><a xlink:href="REST_2include_2controllers_2DeviceRequest_8h.html" target="_top" xlink:title="Implements REST DeviceRequest controller.">
<polygon fill="white" stroke="#666666" points="879.5,-211.5 656.5,-211.5 656.5,-170.5 879.5,-170.5 879.5,-211.5"/>
<text text-anchor="start" x="664.5" y="-199.5" font-family="Helvetica,sans-Serif" font-size="10.00">/home/runner/work/Catena</text>
<text text-anchor="start" x="664.5" y="-188.5" font-family="Helvetica,sans-Serif" font-size="10.00">/Catena/sdks/cpp/connections</text>
<text text-anchor="middle" x="768" y="-177.5" font-family="Helvetica,sans-Serif" font-size="10.00">/REST/include/controllers/DeviceRequest.h</text>
</a>
</g>
</g>
<!-- Node1&#45;&gt;Node5 -->
<g id="edge4_Node000001_Node000005" class="edge">
<title>Node1&#45;&gt;Node5</title>
<g id="a_edge4_Node000001_Node000005"><a xlink:title=" ">
<path fill="none" stroke="#63b8ff" d="M1389.83,-267.46C1276.25,-259.92 1066.44,-243.68 889,-217 878.61,-215.44 867.76,-213.56 857.01,-211.54"/>
<polygon fill="#63b8ff" stroke="#63b8ff" points="1389.64,-270.95 1399.85,-268.12 1390.1,-263.97 1389.64,-270.95"/>
</a>
</g>
</g>
<!-- Node6 -->
<g id="Node000006" class="node">
<title>Node6</title>
<g id="a_Node000006"><a xlink:href="REST_2include_2controllers_2ExecuteCommand_8h.html" target="_top" xlink:title="Implements REST ExecuteCommand controller.">
<polygon fill="white" stroke="#666666" points="1136,-211.5 898,-211.5 898,-170.5 1136,-170.5 1136,-211.5"/>
<text text-anchor="start" x="906" y="-199.5" font-family="Helvetica,sans-Serif" font-size="10.00">/home/runner/work/Catena</text>
<text text-anchor="start" x="906" y="-188.5" font-family="Helvetica,sans-Serif" font-size="10.00">/Catena/sdks/cpp/connections</text>
<text text-anchor="middle" x="1017" y="-177.5" font-family="Helvetica,sans-Serif" font-size="10.00">/REST/include/controllers/ExecuteCommand.h</text>
</a>
</g>
</g>
<!-- Node1&#45;&gt;Node6 -->
<g id="edge5_Node000001_Node000006" class="edge">
<title>Node1&#45;&gt;Node6</title>
<g id="a_edge5_Node000001_Node000006"><a xlink:title=" ">
<path fill="none" stroke="#63b8ff" d="M1389.97,-259.05C1323.6,-248.15 1228.23,-232.17 1145,-217 1135.53,-215.27 1125.68,-213.43 1115.83,-211.56"/>
<polygon fill="#63b8ff" stroke="#63b8ff" points="1389.52,-262.52 1399.95,-260.68 1390.65,-255.61 1389.52,-262.52"/>
</a>
</g>
</g>
<!-- Node7 -->
<g id="Node000007" class="node">
<title>Node7</title>
<g id="a_Node000007"><a xlink:href="REST_2include_2controllers_2GetParam_8h.html" target="_top" xlink:title="Implements REST GetParam controller.">
<polygon fill="white" stroke="#666666" points="1351.5,-211.5 1154.5,-211.5 1154.5,-170.5 1351.5,-170.5 1351.5,-211.5"/>
<text text-anchor="start" x="1162.5" y="-199.5" font-family="Helvetica,sans-Serif" font-size="10.00">/home/runner/work/Catena</text>
<text text-anchor="start" x="1162.5" y="-188.5" font-family="Helvetica,sans-Serif" font-size="10.00">/Catena/sdks/cpp/connections</text>
<text text-anchor="middle" x="1253" y="-177.5" font-family="Helvetica,sans-Serif" font-size="10.00">/REST/include/controllers/GetParam.h</text>
</a>
</g>
</g>
<!-- Node1&#45;&gt;Node7 -->
<g id="edge6_Node000001_Node000007" class="edge">
<title>Node1&#45;&gt;Node7</title>
<g id="a_edge6_Node000001_Node000007"><a xlink:title=" ">
<path fill="none" stroke="#63b8ff" d="M1409.98,-249.44C1377.22,-237.45 1337.63,-222.97 1306.4,-211.54"/>
<polygon fill="#63b8ff" stroke="#63b8ff" points="1408.87,-252.76 1419.46,-252.91 1411.27,-246.19 1408.87,-252.76"/>
</a>
</g>
</g>
<!-- Node8 -->
<g id="Node000008" class="node">
<title>Node8</title>
<g id="a_Node000008"><a xlink:href="REST_2include_2controllers_2GetPopulatedSlots_8h.html" target="_top" xlink:title="Implements REST GetPopulatedSlots controller.">
<polygon fill="white" stroke="#666666" points="1576,-217 1370,-217 1370,-165 1576,-165 1576,-217"/>
<text text-anchor="start" x="1378" y="-205" font-family="Helvetica,sans-Serif" font-size="10.00">/home/runner/work/Catena</text>
<text text-anchor="start" x="1378" y="-194" font-family="Helvetica,sans-Serif" font-size="10.00">/Catena/sdks/cpp/connections</text>
<text text-anchor="start" x="1378" y="-183" font-family="Helvetica,sans-Serif" font-size="10.00">/REST/include/controllers/GetPopulated</text>
<text text-anchor="middle" x="1473" y="-172" font-family="Helvetica,sans-Serif" font-size="10.00">Slots.h</text>
</a>
</g>
</g>
<!-- Node1&#45;&gt;Node8 -->
<g id="edge7_Node000001_Node000008" class="edge">
<title>Node1&#45;&gt;Node8</title>
<g id="a_edge7_Node000001_Node000008"><a xlink:title=" ">
<path fill="none" stroke="#63b8ff" d="M1473,-242.49C1473,-234.15 1473,-225.19 1473,-217.16"/>
<polygon fill="#63b8ff" stroke="#63b8ff" points="1469.5,-242.6 1473,-252.6 1476.5,-242.6 1469.5,-242.6"/>
</a>
</g>
</g>
<!-- Node9 -->
<g id="Node000009" class="node">
<title>Node9</title>
<g id="a_Node000009"><a xlink:href="REST_2include_2controllers_2GetValue_8h.html" target="_top" xlink:title="Implements REST GetValue controller.">
<polygon fill="white" stroke="#666666" points="1788,-211.5 1594,-211.5 1594,-170.5 1788,-170.5 1788,-211.5"/>
<text text-anchor="start" x="1602" y="-199.5" font-family="Helvetica,sans-Serif" font-size="10.00">/home/runner/work/Catena</text>
<text text-anchor="start" x="1602" y="-188.5" font-family="Helvetica,sans-Serif" font-size="10.00">/Catena/sdks/cpp/connections</text>
<text text-anchor="middle" x="1691" y="-177.5" font-family="Helvetica,sans-Serif" font-size="10.00">/REST/include/controllers/GetValue.h</text>
</a>
</g>
</g>
<!-- Node1&#45;&gt;Node9 -->
<g id="edge8_Node000001_Node000009" class="edge">
<title>Node1&#45;&gt;Node9</title>
<g id="a_edge8_Node000001_Node000009"><a xlink:title=" ">
<path fill="none" stroke="#63b8ff" d="M1535.45,-249.44C1567.91,-237.45 1607.14,-222.97 1638.09,-211.54"/>
<polygon fill="#63b8ff" stroke="#63b8ff" points="1534.22,-246.16 1526.05,-252.91 1536.64,-252.73 1534.22,-246.16"/>
</a>
</g>
</g>
<!-- Node10 -->
<g id="Node000010" class="node">
<title>Node10</title>
<g id="a_Node000010"><a xlink:href="connections_2REST_2include_2controllers_2LanguagePack_8h.html" target="_top" xlink:title="Implements REST LanguagePack controller.">
<polygon fill="white" stroke="#666666" points="2025.5,-211.5 1806.5,-211.5 1806.5,-170.5 2025.5,-170.5 2025.5,-211.5"/>
<text text-anchor="start" x="1814.5" y="-199.5" font-family="Helvetica,sans-Serif" font-size="10.00">/home/runner/work/Catena</text>
<text text-anchor="start" x="1814.5" y="-188.5" font-family="Helvetica,sans-Serif" font-size="10.00">/Catena/sdks/cpp/connections</text>
<text text-anchor="middle" x="1916" y="-177.5" font-family="Helvetica,sans-Serif" font-size="10.00">/REST/include/controllers/LanguagePack.h</text>
</a>
</g>
</g>
<!-- Node1&#45;&gt;Node10 -->
<g id="edge9_Node000001_Node000010" class="edge">
<title>Node1&#45;&gt;Node10</title>
<g id="a_edge9_Node000001_Node000010"><a xlink:title=" ">
<path fill="none" stroke="#63b8ff" d="M1556.44,-259.09C1621.96,-248.34 1715.45,-232.54 1797,-217 1806.02,-215.28 1815.41,-213.42 1824.79,-211.53"/>
<polygon fill="#63b8ff" stroke="#63b8ff" points="1555.47,-255.7 1546.17,-260.77 1556.6,-262.61 1555.47,-255.7"/>
</a>
</g>
</g>
<!-- Node11 -->
<g id="Node000011" class="node">
<title>Node11</title>
<g id="a_Node000011"><a xlink:href="Languages_8h.html" target="_top" xlink:title="Implements REST Languages controller.">
<polygon fill="white" stroke="#666666" points="2246,-211.5 2044,-211.5 2044,-170.5 2246,-170.5 2246,-211.5"/>
<text text-anchor="start" x="2052" y="-199.5" font-family="Helvetica,sans-Serif" font-size="10.00">/home/runner/work/Catena</text>
<text text-anchor="start" x="2052" y="-188.5" font-family="Helvetica,sans-Serif" font-size="10.00">/Catena/sdks/cpp/connections</text>
<text text-anchor="middle" x="2145" y="-177.5" font-family="Helvetica,sans-Serif" font-size="10.00">/REST/include/controllers/Languages.h</text>
</a>
</g>
</g>
<!-- Node1&#45;&gt;Node11 -->
<g id="edge10_Node000001_Node000011" class="edge">
<title>Node1&#45;&gt;Node11</title>
<g id="a_edge10_Node000001_Node000011"><a xlink:title=" ">
<path fill="none" stroke="#63b8ff" d="M1556.47,-267.46C1666.43,-260.08 1865.58,-244.19 2034,-217 2043.65,-215.44 2053.72,-213.55 2063.69,-211.52"/>
<polygon fill="#63b8ff" stroke="#63b8ff" points="1556.18,-263.97 1546.44,-268.12 1556.65,-270.95 1556.18,-263.97"/>
</a>
</g>
</g>
<!-- Node12 -->
<g id="Node000012" class="node">
<title>Node12</title>
<g id="a_Node000012"><a xlink:href="REST_2include_2controllers_2MultiSetValue_8h.html" target="_top" xlink:title="Implements REST MultiSetValue controller.">
<polygon fill="white" stroke="#666666" points="2481.5,-211.5 2264.5,-211.5 2264.5,-170.5 2481.5,-170.5 2481.5,-211.5"/>
<text text-anchor="start" x="2272.5" y="-199.5" font-family="Helvetica,sans-Serif" font-size="10.00">/home/runner/work/Catena</text>
<text text-anchor="start" x="2272.5" y="-188.5" font-family="Helvetica,sans-Serif" font-size="10.00">/Catena/sdks/cpp/connections</text>
<text text-anchor="middle" x="2373" y="-177.5" font-family="Helvetica,sans-Serif" font-size="10.00">/REST/include/controllers/MultiSetValue.h</text>
</a>
</g>
</g>
<!-- Node1&#45;&gt;Node12 -->
<g id="edge11_Node000001_Node000012" class="edge">
<title>Node1&#45;&gt;Node12</title>
<g id="a_edge11_Node000001_Node000012"><a xlink:title=" ">
<path fill="none" stroke="#63b8ff" d="M1556.17,-270.36C1699.48,-265.84 2001.96,-252.61 2255,-217 2265.58,-215.51 2276.62,-213.62 2287.53,-211.56"/>
<polygon fill="#63b8ff" stroke="#63b8ff" points="1556.01,-266.87 1546.13,-270.67 1556.23,-273.86 1556.01,-266.87"/>
</a>
</g>
</g>
<!-- Node14 -->
<g id="Node000014" class="node">
<title>Node14</title>
<g id="a_Node000014"><a xlink:href="Subscriptions_8h.html" target="_top" xlink:title="Implements Catena REST Subscriptions.">
<polygon fill="white" stroke="#666666" points="2714.5,-211.5 2499.5,-211.5 2499.5,-170.5 2714.5,-170.5 2714.5,-211.5"/>
<text text-anchor="start" x="2507.5" y="-199.5" font-family="Helvetica,sans-Serif" font-size="10.00">/home/runner/work/Catena</text>
<text text-anchor="start" x="2507.5" y="-188.5" font-family="Helvetica,sans-Serif" font-size="10.00">/Catena/sdks/cpp/connections</text>
<text text-anchor="middle" x="2607" y="-177.5" font-family="Helvetica,sans-Serif" font-size="10.00">/REST/include/controllers/Subscriptions.h</text>
</a>
</g>
</g>
<!-- Node1&#45;&gt;Node14 -->
<g id="edge13_Node000001_Node000014" class="edge">
<title>Node1&#45;&gt;Node14</title>
<g id="a_edge13_Node000001_Node000014"><a xlink:title=" ">
<path fill="none" stroke="#63b8ff" d="M1556.24,-272.34C1730.35,-271.05 2145.44,-262.93 2490,-217 2500.81,-215.56 2512.11,-213.66 2523.23,-211.55"/>
<polygon fill="#63b8ff" stroke="#63b8ff" points="1556.1,-268.84 1546.12,-272.41 1556.15,-275.84 1556.1,-268.84"/>
</a>
</g>
</g>
<!-- Node15 -->
<g id="Node000015" class="node">
<title>Node15</title>
<g id="a_Node000015"><a xlink:href="CallData_8h.html" target="_top" xlink:title="Base class for gRPC CallData classes which defines getJWSToken_().">
<polygon fill="white" stroke="#666666" points="3474.5,-211.5 3313.5,-211.5 3313.5,-170.5 3474.5,-170.5 3474.5,-211.5"/>
<text text-anchor="start" x="3321.5" y="-199.5" font-family="Helvetica,sans-Serif" font-size="10.00">/home/runner/work/Catena</text>
<text text-anchor="start" x="3321.5" y="-188.5" font-family="Helvetica,sans-Serif" font-size="10.00">/Catena/sdks/cpp/connections</text>
<text text-anchor="middle" x="3394" y="-177.5" font-family="Helvetica,sans-Serif" font-size="10.00">/gRPC/include/CallData.h</text>
</a>
</g>
</g>
<!-- Node1&#45;&gt;Node15 -->
<g id="edge14_Node000001_Node000015" class="edge">
<title>Node1&#45;&gt;Node15</title>
<g id="a_edge14_Node000001_Node000015"><a xlink:title=" ">
<path fill="none" stroke="#63b8ff" d="M1556.28,-269.01C1873.11,-255.73 3001.15,-208.46 3313.38,-195.38"/>
<polygon fill="#63b8ff" stroke="#63b8ff" points="1556.1,-265.51 1546.25,-269.43 1556.39,-272.51 1556.1,-265.51"/>
</a>
</g>
</g>
<!-- Node13 -->
<g id="Node000013" class="node">
<title>Node13</title>
<g id="a_Node000013"><a xlink:href="REST_2include_2controllers_2SetValue_8h.html" target="_top" xlink:title="Implements REST SetValue controller.">
<polygon fill="white" stroke="#666666" points="2000,-123.5 1808,-123.5 1808,-82.5 2000,-82.5 2000,-123.5"/>
<text text-anchor="start" x="1816" y="-111.5" font-family="Helvetica,sans-Serif" font-size="10.00">/home/runner/work/Catena</text>
<text text-anchor="start" x="1816" y="-100.5" font-family="Helvetica,sans-Serif" font-size="10.00">/Catena/sdks/cpp/connections</text>
<text text-anchor="middle" x="1904" y="-89.5" font-family="Helvetica,sans-Serif" font-size="10.00">/REST/include/controllers/SetValue.h</text>
</a>
</g>
</g>
<!-- Node12&#45;&gt;Node13 -->
<g id="edge12_Node000012_Node000013" class="edge">
<title>Node12&#45;&gt;Node13</title>
<g id="a_edge12_Node000012_Node000013"><a xlink:title=" ">
<path fill="none" stroke="#63b8ff" d="M2273.85,-168.52C2267.48,-167.29 2261.16,-166.1 2255,-165 2146.23,-145.54 2117.52,-149.82 2009,-129 2000.44,-127.36 1991.53,-125.49 1982.67,-123.53"/>
<polygon fill="#63b8ff" stroke="#63b8ff" points="2273.39,-172 2283.88,-170.49 2274.75,-165.13 2273.39,-172"/>
</a>
</g>
</g>
<!-- Node16 -->
<g id="Node000016" class="node">
<title>Node16</title>
<g id="a_Node000016"><a xlink:href="AddLanguage_8h.html" target="_top" xlink:title="Implements Catena gRPC AddLanguage.">
<polygon fill="white" stroke="#666666" points="2234,-123.5 2018,-123.5 2018,-82.5 2234,-82.5 2234,-123.5"/>
<text text-anchor="start" x="2026" y="-111.5" font-family="Helvetica,sans-Serif" font-size="10.00">/home/runner/work/Catena</text>
<text text-anchor="start" x="2026" y="-100.5" font-family="Helvetica,sans-Serif" font-size="10.00">/Catena/sdks/cpp/connections</text>
<text text-anchor="middle" x="2126" y="-89.5" font-family="Helvetica,sans-Serif" font-size="10.00">/gRPC/include/controllers/AddLanguage.h</text>
</a>
</g>
</g>
<!-- Node15&#45;&gt;Node16 -->
<g id="edge15_Node000015_Node000016" class="edge">
<title>Node15&#45;&gt;Node16</title>
<g id="a_edge15_Node000015_Node000016"><a xlink:title=" ">
<path fill="none" stroke="#63b8ff" d="M3303.02,-187.03C3068.48,-179.09 2447.39,-156.08 2243,-129 2232.09,-127.55 2220.68,-125.64 2209.45,-123.5"/>
<polygon fill="#63b8ff" stroke="#63b8ff" points="3303.11,-190.54 3313.22,-187.38 3303.35,-183.54 3303.11,-190.54"/>
</a>
</g>
</g>
<!-- Node18 -->
<g id="Node000018" class="node">
<title>Node18</title>
<g id="a_Node000018"><a xlink:href="gRPC_2include_2controllers_2BasicParamInfoRequest_8h.html" target="_top" xlink:title="Implements Catena gRPC BasicParamInfoRequest.">
<polygon fill="white" stroke="#666666" points="2450,-129 2252,-129 2252,-77 2450,-77 2450,-129"/>
<text text-anchor="start" x="2260" y="-117" font-family="Helvetica,sans-Serif" font-size="10.00">/home/runner/work/Catena</text>
<text text-anchor="start" x="2260" y="-106" font-family="Helvetica,sans-Serif" font-size="10.00">/Catena/sdks/cpp/connections</text>
<text text-anchor="start" x="2260" y="-95" font-family="Helvetica,sans-Serif" font-size="10.00">/gRPC/include/controllers/BasicParam</text>
<text text-anchor="middle" x="2351" y="-84" font-family="Helvetica,sans-Serif" font-size="10.00">InfoRequest.h</text>
</a>
</g>
</g>
<!-- Node15&#45;&gt;Node18 -->
<g id="edge17_Node000015_Node000018" class="edge">
<title>Node15&#45;&gt;Node18</title>
<g id="a_edge17_Node000015_Node000018"><a xlink:title=" ">
<path fill="none" stroke="#63b8ff" d="M3303.48,-188.96C3135.94,-185.97 2766.54,-174.32 2459,-129 2456.05,-128.57 2453.06,-128.09 2450.05,-127.58"/>
<polygon fill="#63b8ff" stroke="#63b8ff" points="3303.43,-192.46 3313.49,-189.14 3303.55,-185.47 3303.43,-192.46"/>
</a>
</g>
</g>
<!-- Node19 -->
<g id="Node000019" class="node">
<title>Node19</title>
<g id="a_Node000019"><a xlink:href="connections_2gRPC_2include_2controllers_2Connect_8h.html" target="_top" xlink:title="Implements Catena gRPC Connect.">
<polygon fill="white" stroke="#666666" points="2658,-123.5 2468,-123.5 2468,-82.5 2658,-82.5 2658,-123.5"/>
<text text-anchor="start" x="2476" y="-111.5" font-family="Helvetica,sans-Serif" font-size="10.00">/home/runner/work/Catena</text>
<text text-anchor="start" x="2476" y="-100.5" font-family="Helvetica,sans-Serif" font-size="10.00">/Catena/sdks/cpp/connections</text>
<text text-anchor="middle" x="2563" y="-89.5" font-family="Helvetica,sans-Serif" font-size="10.00">/gRPC/include/controllers/Connect.h</text>
</a>
</g>
</g>
<!-- Node15&#45;&gt;Node19 -->
<g id="edge19_Node000015_Node000019" class="edge">
<title>Node15&#45;&gt;Node19</title>
<g id="a_edge19_Node000015_Node000019"><a xlink:title=" ">
<path fill="none" stroke="#63b8ff" d="M3303.25,-186.82C3165.13,-180.99 2894.21,-165.62 2667,-129 2657.65,-127.49 2647.9,-125.59 2638.27,-123.52"/>
<polygon fill="#63b8ff" stroke="#63b8ff" points="3303.23,-190.32 3313.37,-187.24 3303.52,-183.33 3303.23,-190.32"/>
</a>
</g>
</g>
<!-- Node20 -->
<g id="Node000020" class="node">
<title>Node20</title>
<g id="a_Node000020"><a xlink:href="gRPC_2include_2controllers_2DeviceRequest_8h.html" target="_top" xlink:title="Implements Catena gRPC DeviceRequest.">
<polygon fill="white" stroke="#666666" points="2900,-123.5 2676,-123.5 2676,-82.5 2900,-82.5 2900,-123.5"/>
<text text-anchor="start" x="2684" y="-111.5" font-family="Helvetica,sans-Serif" font-size="10.00">/home/runner/work/Catena</text>
<text text-anchor="start" x="2684" y="-100.5" font-family="Helvetica,sans-Serif" font-size="10.00">/Catena/sdks/cpp/connections</text>
<text text-anchor="middle" x="2788" y="-89.5" font-family="Helvetica,sans-Serif" font-size="10.00">/gRPC/include/controllers/DeviceRequest.h</text>
</a>
</g>
</g>
<!-- Node15&#45;&gt;Node20 -->
<g id="edge21_Node000015_Node000020" class="edge">
<title>Node15&#45;&gt;Node20</title>
<g id="a_edge21_Node000015_Node000020"><a xlink:title=" ">
<path fill="none" stroke="#63b8ff" d="M3303.35,-180.75C3205.68,-170.29 3045.85,-151.71 2909,-129 2899.16,-127.37 2888.9,-125.5 2878.7,-123.54"/>
<polygon fill="#63b8ff" stroke="#63b8ff" points="3303.16,-184.25 3313.48,-181.83 3303.91,-177.29 3303.16,-184.25"/>
</a>
</g>
</g>
<!-- Node21 -->
<g id="Node000021" class="node">
<title>Node21</title>
<g id="a_Node000021"><a xlink:href="gRPC_2include_2controllers_2ExecuteCommand_8h.html" target="_top" xlink:title="Implements Catena gRPC ExecuteCommand.">
<polygon fill="white" stroke="#666666" points="3157.5,-123.5 2918.5,-123.5 2918.5,-82.5 3157.5,-82.5 3157.5,-123.5"/>
<text text-anchor="start" x="2926.5" y="-111.5" font-family="Helvetica,sans-Serif" font-size="10.00">/home/runner/work/Catena</text>
<text text-anchor="start" x="2926.5" y="-100.5" font-family="Helvetica,sans-Serif" font-size="10.00">/Catena/sdks/cpp/connections</text>
<text text-anchor="middle" x="3038" y="-89.5" font-family="Helvetica,sans-Serif" font-size="10.00">/gRPC/include/controllers/ExecuteCommand.h</text>
</a>
</g>
</g>
<!-- Node15&#45;&gt;Node21 -->
<g id="edge23_Node000015_Node000021" class="edge">
<title>Node15&#45;&gt;Node21</title>
<g id="a_edge23_Node000015_Node000021"><a xlink:title=" ">
<path fill="none" stroke="#63b8ff" d="M3303.15,-168.05C3246.27,-154.31 3173.63,-136.77 3118.77,-123.51"/>
<polygon fill="#63b8ff" stroke="#63b8ff" points="3302.68,-171.54 3313.22,-170.49 3304.32,-164.73 3302.68,-171.54"/>
</a>
</g>
</g>
<!-- Node22 -->
<g id="Node000022" class="node">
<title>Node22</title>
<g id="a_Node000022"><a xlink:href="ExternalObjectRequest_8h.html" target="_top" xlink:title="Implements Catena gRPC ExternalObjectRequest.">
<polygon fill="white" stroke="#666666" points="3388.5,-129 3175.5,-129 3175.5,-77 3388.5,-77 3388.5,-129"/>
<text text-anchor="start" x="3183.5" y="-117" font-family="Helvetica,sans-Serif" font-size="10.00">/home/runner/work/Catena</text>
<text text-anchor="start" x="3183.5" y="-106" font-family="Helvetica,sans-Serif" font-size="10.00">/Catena/sdks/cpp/connections</text>
<text text-anchor="start" x="3183.5" y="-95" font-family="Helvetica,sans-Serif" font-size="10.00">/gRPC/include/controllers/ExternalObject</text>
<text text-anchor="middle" x="3282" y="-84" font-family="Helvetica,sans-Serif" font-size="10.00">Request.h</text>
</a>
</g>
</g>
<!-- Node15&#45;&gt;Node22 -->
<g id="edge25_Node000015_Node000022" class="edge">
<title>Node15&#45;&gt;Node22</title>
<g id="a_edge25_Node000015_Node000022"><a xlink:title=" ">
<path fill="none" stroke="#63b8ff" d="M3360.43,-164.22C3346.04,-153.17 3329.29,-140.31 3314.97,-129.32"/>
<polygon fill="#63b8ff" stroke="#63b8ff" points="3358.52,-167.17 3368.59,-170.49 3362.79,-161.62 3358.52,-167.17"/>
</a>
</g>
</g>
<!-- Node23 -->
<g id="Node000023" class="node">
<title>Node23</title>
<g id="a_Node000023"><a xlink:href="gRPC_2include_2controllers_2GetParam_8h.html" target="_top" xlink:title="Implements Catena gRPC GetParam.">
<polygon fill="white" stroke="#666666" points="3605,-123.5 3407,-123.5 3407,-82.5 3605,-82.5 3605,-123.5"/>
<text text-anchor="start" x="3415" y="-111.5" font-family="Helvetica,sans-Serif" font-size="10.00">/home/runner/work/Catena</text>
<text text-anchor="start" x="3415" y="-100.5" font-family="Helvetica,sans-Serif" font-size="10.00">/Catena/sdks/cpp/connections</text>
<text text-anchor="middle" x="3506" y="-89.5" font-family="Helvetica,sans-Serif" font-size="10.00">/gRPC/include/controllers/GetParam.h</text>
</a>
</g>
</g>
<!-- Node15&#45;&gt;Node23 -->
<g id="edge27_Node000015_Node000023" class="edge">
<title>Node15&#45;&gt;Node23</title>
<g id="a_edge27_Node000015_Node000023"><a xlink:title=" ">
<path fill="none" stroke="#63b8ff" d="M3427.43,-164.33C3444.36,-151.33 3464.6,-135.79 3480.3,-123.74"/>
<polygon fill="#63b8ff" stroke="#63b8ff" points="3425.21,-161.62 3419.41,-170.49 3429.48,-167.17 3425.21,-161.62"/>
</a>
</g>
</g>
<!-- Node24 -->
<g id="Node000024" class="node">
<title>Node24</title>
<g id="a_Node000024"><a xlink:href="gRPC_2include_2controllers_2GetPopulatedSlots_8h.html" target="_top" xlink:title="Implements Catena gRPC GetPopulatedSlots.">
<polygon fill="white" stroke="#666666" points="3830.5,-129 3623.5,-129 3623.5,-77 3830.5,-77 3830.5,-129"/>
<text text-anchor="start" x="3631.5" y="-117" font-family="Helvetica,sans-Serif" font-size="10.00">/home/runner/work/Catena</text>
<text text-anchor="start" x="3631.5" y="-106" font-family="Helvetica,sans-Serif" font-size="10.00">/Catena/sdks/cpp/connections</text>
<text text-anchor="start" x="3631.5" y="-95" font-family="Helvetica,sans-Serif" font-size="10.00">/gRPC/include/controllers/GetPopulated</text>
<text text-anchor="middle" x="3727" y="-84" font-family="Helvetica,sans-Serif" font-size="10.00">Slots.h</text>
</a>
</g>
</g>
<!-- Node15&#45;&gt;Node24 -->
<g id="edge29_Node000015_Node000024" class="edge">
<title>Node15&#45;&gt;Node24</title>
<g id="a_edge29_Node000015_Node000024"><a xlink:title=" ">
<path fill="none" stroke="#63b8ff" d="M3479.49,-167.92C3525.45,-156.05 3582.28,-141.37 3629.9,-129.08"/>
<polygon fill="#63b8ff" stroke="#63b8ff" points="3478.37,-164.6 3469.56,-170.49 3480.12,-171.37 3478.37,-164.6"/>
</a>
</g>
</g>
<!-- Node25 -->
<g id="Node000025" class="node">
<title>Node25</title>
<g id="a_Node000025"><a xlink:href="gRPC_2include_2controllers_2GetValue_8h.html" target="_top" xlink:title="Implements Catena gRPC GetValue.">
<polygon fill="white" stroke="#666666" points="4043,-123.5 3849,-123.5 3849,-82.5 4043,-82.5 4043,-123.5"/>
<text text-anchor="start" x="3857" y="-111.5" font-family="Helvetica,sans-Serif" font-size="10.00">/home/runner/work/Catena</text>
<text text-anchor="start" x="3857" y="-100.5" font-family="Helvetica,sans-Serif" font-size="10.00">/Catena/sdks/cpp/connections</text>
<text text-anchor="middle" x="3946" y="-89.5" font-family="Helvetica,sans-Serif" font-size="10.00">/gRPC/include/controllers/GetValue.h</text>
</a>
</g>
</g>
<!-- Node15&#45;&gt;Node25 -->
<g id="edge31_Node000015_Node000025" class="edge">
<title>Node15&#45;&gt;Node25</title>
<g id="a_edge31_Node000015_Node000025"><a xlink:title=" ">
<path fill="none" stroke="#63b8ff" d="M3484.48,-180.2C3574.87,-169.8 3717.62,-151.75 3840,-129 3848.74,-127.38 3857.84,-125.51 3866.88,-123.53"/>
<polygon fill="#63b8ff" stroke="#63b8ff" points="3484.07,-176.72 3474.54,-181.34 3484.87,-183.68 3484.07,-176.72"/>
</a>
</g>
</g>
<!-- Node26 -->
<g id="Node000026" class="node">
<title>Node26</title>
<g id="a_Node000026"><a xlink:href="LanguagePackRequest_8h.html" target="_top" xlink:title="Implements Catena gRPC LanguagePackRequest.">
<polygon fill="white" stroke="#666666" points="4272.5,-129 4061.5,-129 4061.5,-77 4272.5,-77 4272.5,-129"/>
<text text-anchor="start" x="4069.5" y="-117" font-family="Helvetica,sans-Serif" font-size="10.00">/home/runner/work/Catena</text>
<text text-anchor="start" x="4069.5" y="-106" font-family="Helvetica,sans-Serif" font-size="10.00">/Catena/sdks/cpp/connections</text>
<text text-anchor="start" x="4069.5" y="-95" font-family="Helvetica,sans-Serif" font-size="10.00">/gRPC/include/controllers/LanguagePack</text>
<text text-anchor="middle" x="4167" y="-84" font-family="Helvetica,sans-Serif" font-size="10.00">Request.h</text>
</a>
</g>
</g>
<!-- Node15&#45;&gt;Node26 -->
<g id="edge33_Node000015_Node000026" class="edge">
<title>Node15&#45;&gt;Node26</title>
<g id="a_edge33_Node000015_Node000026"><a xlink:title=" ">
<path fill="none" stroke="#63b8ff" d="M3484.76,-185.09C3612.07,-177.4 3850.67,-160.1 4052,-129 4055.03,-128.53 4058.1,-128.03 4061.19,-127.51"/>
<polygon fill="#63b8ff" stroke="#63b8ff" points="3484.43,-181.6 3474.66,-185.69 3484.85,-188.59 3484.43,-181.6"/>
</a>
</g>
</g>
<!-- Node27 -->
<g id="Node000027" class="node">
<title>Node27</title>
<g id="a_Node000027"><a xlink:href="ListLanguages_8h.html" target="_top" xlink:title="Implements Catena gRPC ListLanguages.">
<polygon fill="white" stroke="#666666" points="4511,-123.5 4291,-123.5 4291,-82.5 4511,-82.5 4511,-123.5"/>
<text text-anchor="start" x="4299" y="-111.5" font-family="Helvetica,sans-Serif" font-size="10.00">/home/runner/work/Catena</text>
<text text-anchor="start" x="4299" y="-100.5" font-family="Helvetica,sans-Serif" font-size="10.00">/Catena/sdks/cpp/connections</text>
<text text-anchor="middle" x="4401" y="-89.5" font-family="Helvetica,sans-Serif" font-size="10.00">/gRPC/include/controllers/ListLanguages.h</text>
</a>
</g>
</g>
<!-- Node15&#45;&gt;Node27 -->
<g id="edge35_Node000015_Node000027" class="edge">
<title>Node15&#45;&gt;Node27</title>
<g id="a_edge35_Node000015_Node000027"><a xlink:title=" ">
<path fill="none" stroke="#63b8ff" d="M3484.94,-187.91C3646.2,-183.27 3992.56,-169.15 4282,-129 4292.77,-127.51 4304.02,-125.6 4315.13,-123.51"/>
<polygon fill="#63b8ff" stroke="#63b8ff" points="3484.48,-184.42 3474.59,-188.2 3484.68,-191.41 3484.48,-184.42"/>
</a>
</g>
</g>
<!-- Node28 -->
<g id="Node000028" class="node">
<title>Node28</title>
<g id="a_Node000028"><a xlink:href="gRPC_2include_2controllers_2MultiSetValue_8h.html" target="_top" xlink:title="Generic CallData class for the SetValue and MultiSetValue RPCs.">
<polygon fill="white" stroke="#666666" points="4747,-123.5 4529,-123.5 4529,-82.5 4747,-82.5 4747,-123.5"/>
<text text-anchor="start" x="4537" y="-111.5" font-family="Helvetica,sans-Serif" font-size="10.00">/home/runner/work/Catena</text>
<text text-anchor="start" x="4537" y="-100.5" font-family="Helvetica,sans-Serif" font-size="10.00">/Catena/sdks/cpp/connections</text>
<text text-anchor="middle" x="4638" y="-89.5" font-family="Helvetica,sans-Serif" font-size="10.00">/gRPC/include/controllers/MultiSetValue.h</text>
</a>
</g>
</g>
<!-- Node15&#45;&gt;Node28 -->
<g id="edge37_Node000015_Node000028" class="edge">
<title>Node15&#45;&gt;Node28</title>
<g id="a_edge37_Node000015_Node000028"><a xlink:title=" ">
<path fill="none" stroke="#63b8ff" d="M3484.64,-189.83C3676.51,-188.43 4137.46,-179.58 4520,-129 4530.9,-127.56 4542.29,-125.66 4553.51,-123.55"/>
<polygon fill="#63b8ff" stroke="#63b8ff" points="3484.58,-186.33 3474.61,-189.9 3484.63,-193.33 3484.58,-186.33"/>
</a>
</g>
</g>
<!-- Node29 -->
<g id="Node000029" class="node">
<title>Node29</title>
<g id="a_Node000029"><a xlink:href="UpdateSubscriptions_8h.html" target="_top" xlink:title="Implements Catena gRPC UpdateSubscriptions.">
<polygon fill="white" stroke="#666666" points="5016.5,-123.5 4765.5,-123.5 4765.5,-82.5 5016.5,-82.5 5016.5,-123.5"/>
<text text-anchor="start" x="4773.5" y="-111.5" font-family="Helvetica,sans-Serif" font-size="10.00">/home/runner/work/Catena</text>
<text text-anchor="start" x="4773.5" y="-100.5" font-family="Helvetica,sans-Serif" font-size="10.00">/Catena/sdks/cpp/connections</text>
<text text-anchor="middle" x="4891" y="-89.5" font-family="Helvetica,sans-Serif" font-size="10.00">/gRPC/include/controllers/UpdateSubscriptions.h</text>
</a>
</g>
</g>
<!-- Node15&#45;&gt;Node29 -->
<g id="edge39_Node000015_Node000029" class="edge">
<title>Node15&#45;&gt;Node29</title>
<g id="a_edge39_Node000015_Node000029"><a xlink:title=" ">
<path fill="none" stroke="#63b8ff" d="M3484.68,-190.26C3703.85,-189.95 4279.43,-183.53 4756,-129 4768.55,-127.56 4781.69,-125.65 4794.64,-123.52"/>
<polygon fill="#63b8ff" stroke="#63b8ff" points="3484.51,-186.76 3474.52,-190.27 3484.52,-193.76 3484.51,-186.76"/>
</a>
</g>
</g>
<!-- Node17 -->
<g id="Node000017" class="node">
<title>Node17</title>
<g id="a_Node000017"><a xlink:href="gRPC_2include_2ServiceImpl_8h.html" target="_top" xlink:title="Implements Catena gRPC request handlers.">
<polygon fill="white" stroke="#666666" points="3586.5,-41 3425.5,-41 3425.5,0 3586.5,0 3586.5,-41"/>
<text text-anchor="start" x="3433.5" y="-29" font-family="Helvetica,sans-Serif" font-size="10.00">/home/runner/work/Catena</text>
<text text-anchor="start" x="3433.5" y="-18" font-family="Helvetica,sans-Serif" font-size="10.00">/Catena/sdks/cpp/connections</text>
<text text-anchor="middle" x="3506" y="-7" font-family="Helvetica,sans-Serif" font-size="10.00">/gRPC/include/ServiceImpl.h</text>
</a>
</g>
</g>
<!-- Node16&#45;&gt;Node17 -->
<g id="edge16_Node000016_Node000017" class="edge">
<title>Node16&#45;&gt;Node17</title>
<g id="a_edge16_Node000016_Node000017"><a xlink:title=" ">
<path fill="none" stroke="#63b8ff" d="M2218.98,-80.67C2227.07,-79.26 2235.16,-78 2243,-77 2473.09,-47.57 3184.27,-28.9 3425.22,-23.29"/>
<polygon fill="#63b8ff" stroke="#63b8ff" points="2218.33,-77.23 2209.12,-82.47 2219.58,-84.12 2218.33,-77.23"/>
</a>
</g>
</g>
<!-- Node18&#45;&gt;Node17 -->
<g id="edge18_Node000018_Node000017" class="edge">
<title>Node18&#45;&gt;Node17</title>
<g id="a_edge18_Node000018_Node000017"><a xlink:title=" ">
<path fill="none" stroke="#63b8ff" d="M2459.99,-76.97C2824.57,-26.4 3250.8,-20.95 3425.42,-21"/>
<polygon fill="#63b8ff" stroke="#63b8ff" points="2459.46,-73.51 2450.04,-78.37 2460.43,-80.45 2459.46,-73.51"/>
</a>
</g>
</g>
<!-- Node19&#45;&gt;Node17 -->
<g id="edge20_Node000019_Node000017" class="edge">
<title>Node19&#45;&gt;Node17</title>
<g id="a_edge20_Node000019_Node000017"><a xlink:title=" ">
<path fill="none" stroke="#63b8ff" d="M2647.83,-80.36C2654.29,-79.1 2660.74,-77.95 2667,-77 2943.19,-34.98 3275.31,-24.77 3425.4,-22.29"/>
<polygon fill="#63b8ff" stroke="#63b8ff" points="2646.78,-77.01 2637.68,-82.44 2648.18,-83.86 2646.78,-77.01"/>
</a>
</g>
</g>
<!-- Node20&#45;&gt;Node17 -->
<g id="edge22_Node000020_Node000017" class="edge">
<title>Node20&#45;&gt;Node17</title>
<g id="a_edge22_Node000020_Node000017"><a xlink:title=" ">
<path fill="none" stroke="#63b8ff" d="M2887.1,-80.6C2894.49,-79.29 2901.85,-78.07 2909,-77 3092.51,-49.6 3309.91,-33.45 3425.03,-26.17"/>
<polygon fill="#63b8ff" stroke="#63b8ff" points="2886.22,-77.2 2877.01,-82.44 2887.47,-84.09 2886.22,-77.2"/>
</a>
</g>
</g>
<!-- Node21&#45;&gt;Node17 -->
<g id="edge24_Node000021_Node000017" class="edge">
<title>Node21&#45;&gt;Node17</title>
<g id="a_edge24_Node000021_Node000017"><a xlink:title=" ">
<path fill="none" stroke="#63b8ff" d="M3146.74,-80.52C3153.25,-79.31 3159.71,-78.13 3166,-77 3254.45,-61.15 3356.2,-44.78 3425.16,-33.97"/>
<polygon fill="#63b8ff" stroke="#63b8ff" points="3145.66,-77.16 3136.48,-82.45 3146.95,-84.04 3145.66,-77.16"/>
</a>
</g>
</g>
<!-- Node22&#45;&gt;Node17 -->
<g id="edge26_Node000022_Node000017" class="edge">
<title>Node22&#45;&gt;Node17</title>
<g id="a_edge26_Node000022_Node000017"><a xlink:title=" ">
<path fill="none" stroke="#63b8ff" d="M3361.24,-73.52C3391.18,-62.76 3424.55,-50.77 3451.69,-41.02"/>
<polygon fill="#63b8ff" stroke="#63b8ff" points="3359.87,-70.29 3351.65,-76.97 3362.24,-76.88 3359.87,-70.29"/>
</a>
</g>
</g>
<!-- Node23&#45;&gt;Node17 -->
<g id="edge28_Node000023_Node000017" class="edge">
<title>Node23&#45;&gt;Node17</title>
<g id="a_edge28_Node000023_Node000017"><a xlink:title=" ">
<path fill="none" stroke="#63b8ff" d="M3506,-71.87C3506,-61.6 3506,-50.4 3506,-41.17"/>
<polygon fill="#63b8ff" stroke="#63b8ff" points="3502.5,-72.1 3506,-82.1 3509.5,-72.1 3502.5,-72.1"/>
</a>
</g>
</g>
<!-- Node24&#45;&gt;Node17 -->
<g id="edge30_Node000024_Node000017" class="edge">
<title>Node24&#45;&gt;Node17</title>
<g id="a_edge30_Node000024_Node000017"><a xlink:title=" ">
<path fill="none" stroke="#63b8ff" d="M3648.83,-73.52C3619.28,-62.76 3586.36,-50.77 3559.58,-41.02"/>
<polygon fill="#63b8ff" stroke="#63b8ff" points="3647.69,-76.84 3658.29,-76.97 3650.09,-70.26 3647.69,-76.84"/>
</a>
</g>
</g>
<!-- Node25&#45;&gt;Node17 -->
<g id="edge32_Node000025_Node000017" class="edge">
<title>Node25&#45;&gt;Node17</title>
<g id="a_edge32_Node000025_Node000017"><a xlink:title=" ">
<path fill="none" stroke="#63b8ff" d="M3855.55,-80.24C3850.29,-79.11 3845.08,-78.02 3840,-77 3753.84,-59.7 3654.41,-43.68 3586.59,-33.34"/>
<polygon fill="#63b8ff" stroke="#63b8ff" points="3855.16,-83.74 3865.68,-82.46 3856.66,-76.9 3855.16,-83.74"/>
</a>
</g>
</g>
<!-- Node26&#45;&gt;Node17 -->
<g id="edge34_Node000026_Node000017" class="edge">
<title>Node26&#45;&gt;Node17</title>
<g id="a_edge34_Node000026_Node000017"><a xlink:title=" ">
<path fill="none" stroke="#63b8ff" d="M4051.55,-77.01C3880.44,-50.27 3691.72,-34.44 3586.85,-26.86"/>
<polygon fill="#63b8ff" stroke="#63b8ff" points="4051.07,-80.48 4061.49,-78.58 4052.16,-73.56 4051.07,-80.48"/>
</a>
</g>
</g>
<!-- Node27&#45;&gt;Node17 -->
<g id="edge36_Node000027_Node000017" class="edge">
<title>Node27&#45;&gt;Node17</title>
<g id="a_edge36_Node000027_Node000017"><a xlink:title=" ">
<path fill="none" stroke="#63b8ff" d="M4304.72,-80.62C4297.06,-79.27 4289.41,-78.04 4282,-77 4029.7,-41.64 3727.91,-28.26 3586.53,-23.66"/>
<polygon fill="#63b8ff" stroke="#63b8ff" points="4304.33,-84.11 4314.8,-82.46 4305.59,-77.22 4304.33,-84.11"/>
</a>
</g>
</g>
<!-- Node28&#45;&gt;Node17 -->
<g id="edge38_Node000028_Node000017" class="edge">
<title>Node28&#45;&gt;Node17</title>
<g id="a_edge38_Node000028_Node000017"><a xlink:title=" ">
<path fill="none" stroke="#63b8ff" d="M4543.49,-80.64C4535.57,-79.26 4527.66,-78.02 4520,-77 4174.81,-31.26 3758.72,-23.06 3586.58,-21.71"/>
<polygon fill="#63b8ff" stroke="#63b8ff" points="4543.05,-84.12 4553.51,-82.46 4544.3,-77.23 4543.05,-84.12"/>
</a>
</g>
</g>
<!-- Node29&#45;&gt;Node17 -->
<g id="edge40_Node000029_Node000017" class="edge">
<title>Node29&#45;&gt;Node17</title>
<g id="a_edge40_Node000029_Node000017"><a xlink:title=" ">
<path fill="none" stroke="#63b8ff" d="M4784.6,-80.88C4774.96,-79.39 4765.32,-78.06 4756,-77 4316.8,-26.83 3785.98,-21.35 3586.74,-21.21"/>
<polygon fill="#63b8ff" stroke="#63b8ff" points="4784.21,-84.36 4794.64,-82.48 4785.32,-77.45 4784.21,-84.36"/>
</a>
</g>
</g>
</g>
</svg>
