<?xml version="1.0" encoding="UTF-8" standalone="no"?>
<!DOCTYPE svg PUBLIC "-//W3C//DTD SVG 1.1//EN"
 "http://www.w3.org/Graphics/SVG/1.1/DTD/svg11.dtd">
<!-- Generated by graphviz version 2.43.0 (0)
 -->
<!-- Title: /home/runner/work/Catena/Catena/sdks/cpp/common/include/rpc/TimeNow.h Pages: 1 -->
<svg width="5043pt" height="302pt"
 viewBox="0.00 0.00 5042.50 302.00" xmlns="http://www.w3.org/2000/svg" xmlns:xlink="http://www.w3.org/1999/xlink">
<g id="graph0" class="graph" transform="scale(1 1) rotate(0) translate(4 298)">
<title>/home/runner/work/Catena/Catena/sdks/cpp/common/include/rpc/TimeNow.h</title>
<!-- Node1 -->
<g id="Node000001" class="node">
<title>Node1</title>
<g id="a_Node000001"><a xlink:title="Contains a function which returns the current time as a string.">
<polygon fill="#999999" stroke="#666666" points="1546,-294 1400,-294 1400,-253 1546,-253 1546,-294"/>
<text text-anchor="start" x="1408" y="-282" font-family="Helvetica,sans-Serif" font-size="10.00">/home/runner/work/Catena</text>
<text text-anchor="start" x="1408" y="-271" font-family="Helvetica,sans-Serif" font-size="10.00">/Catena/sdks/cpp/common</text>
<text text-anchor="middle" x="1473" y="-260" font-family="Helvetica,sans-Serif" font-size="10.00">/include/rpc/TimeNow.h</text>
</a>
</g>
</g>
<!-- Node2 -->
<g id="Node000002" class="node">
<title>Node2</title>
<g id="a_Node000002"><a xlink:href="AssetRequest_8h.html" target="_top" xlink:title="Implements REST AssetRequest controller.">
<polygon fill="white" stroke="#666666" points="216,-211.5 0,-211.5 0,-170.5 216,-170.5 216,-211.5"/>
<text text-anchor="start" x="8" y="-199.5" font-family="Helvetica,sans-Serif" font-size="10.00">/home/runner/work/Catena</text>
<text text-anchor="start" x="8" y="-188.5" font-family="Helvetica,sans-Serif" font-size="10.00">/Catena/sdks/cpp/connections</text>
<text text-anchor="middle" x="108" y="-177.5" font-family="Helvetica,sans-Serif" font-size="10.00">/REST/include/controllers/AssetRequest.h</text>
</a>
</g>
</g>
<!-- Node1&#45;&gt;Node2 -->
<g id="edge1_Node000001_Node000002" class="edge">
<title>Node1&#45;&gt;Node2</title>
<g id="a_edge1_Node000001_Node000002"><a xlink:title=" ">
<path fill="none" stroke="#63b8ff" d="M1389.7,-270.6C1148.31,-264.81 451.26,-246 225,-217 213.98,-215.59 202.45,-213.67 191.12,-211.53"/>
<polygon fill="#63b8ff" stroke="#63b8ff" points="1389.73,-274.1 1399.81,-270.84 1389.9,-267.11 1389.73,-274.1"/>
</a>
</g>
</g>
<!-- Node3 -->
<g id="Node000003" class="node">
<title>Node3</title>
<g id="a_Node000003"><a xlink:href="REST_2include_2controllers_2BasicParamInfoRequest_8h.html" target="_top" xlink:title="Implements REST BasicParamInfoRequest controller.">
<polygon fill="white" stroke="#666666" points="431.5,-217 234.5,-217 234.5,-165 431.5,-165 431.5,-217"/>
<text text-anchor="start" x="242.5" y="-205" font-family="Helvetica,sans-Serif" font-size="10.00">/home/runner/work/Catena</text>
<text text-anchor="start" x="242.5" y="-194" font-family="Helvetica,sans-Serif" font-size="10.00">/Catena/sdks/cpp/connections</text>
<text text-anchor="start" x="242.5" y="-183" font-family="Helvetica,sans-Serif" font-size="10.00">/REST/include/controllers/BasicParam</text>
<text text-anchor="middle" x="333" y="-172" font-family="Helvetica,sans-Serif" font-size="10.00">InfoRequest.h</text>
</a>
</g>
</g>
<!-- Node1&#45;&gt;Node3 -->
<g id="edge2_Node000001_Node000003" class="edge">
<title>Node1&#45;&gt;Node3</title>
<g id="a_edge2_Node000001_Node000003"><a xlink:title=" ">
<path fill="none" stroke="#63b8ff" d="M1389.7,-272.97C1213.49,-272.89 790.4,-266.95 440,-217 437.26,-216.61 434.49,-216.18 431.7,-215.73"/>
<polygon fill="#63b8ff" stroke="#63b8ff" points="1389.93,-276.47 1399.93,-272.97 1389.93,-269.47 1389.93,-276.47"/>
</a>
</g>
</g>
<!-- Node4 -->
<g id="Node000004" class="node">
<title>Node4</title>
<g id="a_Node000004"><a xlink:href="connections_2REST_2include_2controllers_2Connect_8h.html" target="_top" xlink:title="Implements REST Connect controller.">
<polygon fill="white" stroke="#666666" points="638.5,-211.5 449.5,-211.5 449.5,-170.5 638.5,-170.5 638.5,-211.5"/>
<text text-anchor="start" x="457.5" y="-199.5" font-family="Helvetica,sans-Serif" font-size="10.00">/home/runner/work/Catena</text>
<text text-anchor="start" x="457.5" y="-188.5" font-family="Helvetica,sans-Serif" font-size="10.00">/Catena/sdks/cpp/connections</text>
<text text-anchor="middle" x="544" y="-177.5" font-family="Helvetica,sans-Serif" font-size="10.00">/REST/include/controllers/Connect.h</text>
</a>
</g>
</g>
<!-- Node1&#45;&gt;Node4 -->
<g id="edge3_Node000001_Node000004" class="edge">
<title>Node1&#45;&gt;Node4</title>
<g id="a_edge3_Node000001_Node000004"><a xlink:title=" ">
<path fill="none" stroke="#63b8ff" d="M1389.87,-271.6C1240.36,-268.95 916.57,-258.46 647,-217 637.54,-215.55 627.68,-213.65 617.96,-211.55"/>
<polygon fill="#63b8ff" stroke="#63b8ff" points="1389.84,-275.1 1399.89,-271.77 1389.96,-268.1 1389.84,-275.1"/>
</a>
</g>
</g>
<!-- Node5 -->
<g id="Node000005" class="node">
<title>Node5</title>
<g id="a_Node000005"><a xlink:href="REST_2include_2controllers_2DeviceRequest_8h.html" target="_top" xlink:title="Implements REST DeviceRequest controller.">
<polygon fill="white" stroke="#666666" points="879.5,-211.5 656.5,-211.5 656.5,-170.5 879.5,-170.5 879.5,-211.5"/>
<text text-anchor="start" x="664.5" y="-199.5" font-family="Helvetica,sans-Serif" font-size="10.00">/home/runner/work/Catena</text>
<text text-anchor="start" x="664.5" y="-188.5" font-family="Helvetica,sans-Serif" font-size="10.00">/Catena/sdks/cpp/connections</text>
<text text-anchor="middle" x="768" y="-177.5" font-family="Helvetica,sans-Serif" font-size="10.00">/REST/include/controllers/DeviceRequest.h</text>
</a>
</g>
</g>
<!-- Node1&#45;&gt;Node5 -->
<g id="edge4_Node000001_Node000005" class="edge">
<title>Node1&#45;&gt;Node5</title>
<g id="a_edge4_Node000001_Node000005"><a xlink:title=" ">
<path fill="none" stroke="#63b8ff" d="M1389.83,-267.46C1276.25,-259.92 1066.44,-243.68 889,-217 878.61,-215.44 867.76,-213.56 857.01,-211.54"/>
<polygon fill="#63b8ff" stroke="#63b8ff" points="1389.64,-270.95 1399.85,-268.12 1390.1,-263.97 1389.64,-270.95"/>
</a>
</g>
</g>
<!-- Node6 -->
<g id="Node000006" class="node">
<title>Node6</title>
<g id="a_Node000006"><a xlink:href="REST_2include_2controllers_2ExecuteCommand_8h.html" target="_top" xlink:title="Implements REST ExecuteCommand controller.">
<polygon fill="white" stroke="#666666" points="1136,-211.5 898,-211.5 898,-170.5 1136,-170.5 1136,-211.5"/>
<text text-anchor="start" x="906" y="-199.5" font-family="Helvetica,sans-Serif" font-size="10.00">/home/runner/work/Catena</text>
<text text-anchor="start" x="906" y="-188.5" font-family="Helvetica,sans-Serif" font-size="10.00">/Catena/sdks/cpp/connections</text>
<text text-anchor="middle" x="1017" y="-177.5" font-family="Helvetica,sans-Serif" font-size="10.00">/REST/include/controllers/ExecuteCommand.h</text>
</a>
</g>
</g>
<!-- Node1&#45;&gt;Node6 -->
<g id="edge5_Node000001_Node000006" class="edge">
<title>Node1&#45;&gt;Node6</title>
<g id="a_edge5_Node000001_Node000006"><a xlink:title=" ">
<path fill="none" stroke="#63b8ff" d="M1389.97,-259.05C1323.6,-248.15 1228.23,-232.17 1145,-217 1135.53,-215.27 1125.68,-213.43 1115.83,-211.56"/>
<polygon fill="#63b8ff" stroke="#63b8ff" points="1389.52,-262.52 1399.95,-260.68 1390.65,-255.61 1389.52,-262.52"/>
</a>
</g>
</g>
<!-- Node7 -->
<g id="Node000007" class="node">
<title>Node7</title>
<g id="a_Node000007"><a xlink:href="REST_2include_2controllers_2GetParam_8h.html" target="_top" xlink:title="Implements REST GetParam controller.">
<polygon fill="white" stroke="#666666" points="1351.5,-211.5 1154.5,-211.5 1154.5,-170.5 1351.5,-170.5 1351.5,-211.5"/>
<text text-anchor="start" x="1162.5" y="-199.5" font-family="Helvetica,sans-Serif" font-size="10.00">/home/runner/work/Catena</text>
<text text-anchor="start" x="1162.5" y="-188.5" font-family="Helvetica,sans-Serif" font-size="10.00">/Catena/sdks/cpp/connections</text>
<text text-anchor="middle" x="1253" y="-177.5" font-family="Helvetica,sans-Serif" font-size="10.00">/REST/include/controllers/GetParam.h</text>
</a>
</g>
</g>
<!-- Node1&#45;&gt;Node7 -->
<g id="edge6_Node000001_Node000007" class="edge">
<title>Node1&#45;&gt;Node7</title>
<g id="a_edge6_Node000001_Node000007"><a xlink:title=" ">
<path fill="none" stroke="#63b8ff" d="M1409.98,-249.44C1377.22,-237.45 1337.63,-222.97 1306.4,-211.54"/>
<polygon fill="#63b8ff" stroke="#63b8ff" points="1408.87,-252.76 1419.46,-252.91 1411.27,-246.19 1408.87,-252.76"/>
</a>
</g>
</g>
<!-- Node8 -->
<g id="Node000008" class="node">
<title>Node8</title>
<g id="a_Node000008"><a xlink:href="REST_2include_2controllers_2GetPopulatedSlots_8h.html" target="_top" xlink:title="Implements REST GetPopulatedSlots controller.">
<polygon fill="white" stroke="#666666" points="1576,-217 1370,-217 1370,-165 1576,-165 1576,-217"/>
<text text-anchor="start" x="1378" y="-205" font-family="Helvetica,sans-Serif" font-size="10.00">/home/runner/work/Catena</text>
<text text-anchor="start" x="1378" y="-194" font-family="Helvetica,sans-Serif" font-size="10.00">/Catena/sdks/cpp/connections</text>
<text text-anchor="start" x="1378" y="-183" font-family="Helvetica,sans-Serif" font-size="10.00">/REST/include/controllers/GetPopulated</text>
<text text-anchor="middle" x="1473" y="-172" font-family="Helvetica,sans-Serif" font-size="10.00">Slots.h</text>
</a>
</g>
</g>
<!-- Node1&#45;&gt;Node8 -->
<g id="edge7_Node000001_Node000008" class="edge">
<title>Node1&#45;&gt;Node8</title>
<g id="a_edge7_Node000001_Node000008"><a xlink:title=" ">
<path fill="none" stroke="#63b8ff" d="M1473,-242.49C1473,-234.15 1473,-225.19 1473,-217.16"/>
<polygon fill="#63b8ff" stroke="#63b8ff" points="1469.5,-242.6 1473,-252.6 1476.5,-242.6 1469.5,-242.6"/>
</a>
</g>
</g>
<!-- Node9 -->
<g id="Node000009" class="node">
<title>Node9</title>
<g id="a_Node000009"><a xlink:href="REST_2include_2controllers_2GetValue_8h.html" target="_top" xlink:title="Implements REST GetValue controller.">
<polygon fill="white" stroke="#666666" points="1788,-211.5 1594,-211.5 1594,-170.5 1788,-170.5 1788,-211.5"/>
<text text-anchor="start" x="1602" y="-199.5" font-family="Helvetica,sans-Serif" font-size="10.00">/home/runner/work/Catena</text>
<text text-anchor="start" x="1602" y="-188.5" font-family="Helvetica,sans-Serif" font-size="10.00">/Catena/sdks/cpp/connections</text>
<text text-anchor="middle" x="1691" y="-177.5" font-family="Helvetica,sans-Serif" font-size="10.00">/REST/include/controllers/GetValue.h</text>
</a>
</g>
</g>
<!-- Node1&#45;&gt;Node9 -->
<g id="edge8_Node000001_Node000009" class="edge">
<title>Node1&#45;&gt;Node9</title>
<g id="a_edge8_Node000001_Node000009"><a xlink:title=" ">
<path fill="none" stroke="#63b8ff" d="M1535.45,-249.44C1567.91,-237.45 1607.14,-222.97 1638.09,-211.54"/>
<polygon fill="#63b8ff" stroke="#63b8ff" points="1534.22,-246.16 1526.05,-252.91 1536.64,-252.73 1534.22,-246.16"/>
</a>
</g>
</g>
<!-- Node10 -->
<g id="Node000010" class="node">
<title>Node10</title>
<g id="a_Node000010"><a xlink:href="connections_2REST_2include_2controllers_2LanguagePack_8h.html" target="_top" xlink:title="Implements REST LanguagePack controller.">
<polygon fill="white" stroke="#666666" points="2025.5,-211.5 1806.5,-211.5 1806.5,-170.5 2025.5,-170.5 2025.5,-211.5"/>
<text text-anchor="start" x="1814.5" y="-199.5" font-family="Helvetica,sans-Serif" font-size="10.00">/home/runner/work/Catena</text>
<text text-anchor="start" x="1814.5" y="-188.5" font-family="Helvetica,sans-Serif" font-size="10.00">/Catena/sdks/cpp/connections</text>
<text text-anchor="middle" x="1916" y="-177.5" font-family="Helvetica,sans-Serif" font-size="10.00">/REST/include/controllers/LanguagePack.h</text>
</a>
</g>
</g>
<!-- Node1&#45;&gt;Node10 -->
<g id="edge9_Node000001_Node000010" class="edge">
<title>Node1&#45;&gt;Node10</title>
<g id="a_edge9_Node000001_Node000010"><a xlink:title=" ">
<path fill="none" stroke="#63b8ff" d="M1556.44,-259.09C1621.96,-248.34 1715.45,-232.54 1797,-217 1806.02,-215.28 1815.41,-213.42 1824.79,-211.53"/>
<polygon fill="#63b8ff" stroke="#63b8ff" points="1555.47,-255.7 1546.17,-260.77 1556.6,-262.61 1555.47,-255.7"/>
</a>
</g>
</g>
<!-- Node11 -->
<g id="Node000011" class="node">
<title>Node11</title>
<g id="a_Node000011"><a xlink:href="Languages_8h.html" target="_top" xlink:title="Implements REST Languages controller.">
<polygon fill="white" stroke="#666666" points="2246,-211.5 2044,-211.5 2044,-170.5 2246,-170.5 2246,-211.5"/>
<text text-anchor="start" x="2052" y="-199.5" font-family="Helvetica,sans-Serif" font-size="10.00">/home/runner/work/Catena</text>
<text text-anchor="start" x="2052" y="-188.5" font-family="Helvetica,sans-Serif" font-size="10.00">/Catena/sdks/cpp/connections</text>
<text text-anchor="middle" x="2145" y="-177.5" font-family="Helvetica,sans-Serif" font-size="10.00">/REST/include/controllers/Languages.h</text>
</a>
</g>
</g>
<!-- Node1&#45;&gt;Node11 -->
<g id="edge10_Node000001_Node000011" class="edge">
<title>Node1&#45;&gt;Node11</title>
<g id="a_edge10_Node000001_Node000011"><a xlink:title=" ">
<path fill="none" stroke="#63b8ff" d="M1556.47,-267.46C1666.43,-260.08 1865.58,-244.19 2034,-217 2043.65,-215.44 2053.72,-213.55 2063.69,-211.52"/>
<polygon fill="#63b8ff" stroke="#63b8ff" points="1556.18,-263.97 1546.44,-268.12 1556.65,-270.95 1556.18,-263.97"/>
</a>
</g>
</g>
<!-- Node12 -->
<g id="Node000012" class="node">
<title>Node12</title>
<g id="a_Node000012"><a xlink:href="REST_2include_2controllers_2MultiSetValue_8h.html" target="_top" xlink:title="Implements REST MultiSetValue controller.">
<polygon fill="white" stroke="#666666" points="2481.5,-211.5 2264.5,-211.5 2264.5,-170.5 2481.5,-170.5 2481.5,-211.5"/>
<text text-anchor="start" x="2272.5" y="-199.5" font-family="Helvetica,sans-Serif" font-size="10.00">/home/runner/work/Catena</text>
<text text-anchor="start" x="2272.5" y="-188.5" font-family="Helvetica,sans-Serif" font-size="10.00">/Catena/sdks/cpp/connections</text>
<text text-anchor="middle" x="2373" y="-177.5" font-family="Helvetica,sans-Serif" font-size="10.00">/REST/include/controllers/MultiSetValue.h</text>
</a>
</g>
</g>
<!-- Node1&#45;&gt;Node12 -->
<g id="edge11_Node000001_Node000012" class="edge">
<title>Node1&#45;&gt;Node12</title>
<g id="a_edge11_Node000001_Node000012"><a xlink:title=" ">
<path fill="none" stroke="#63b8ff" d="M1556.17,-270.36C1699.48,-265.84 2001.96,-252.61 2255,-217 2265.58,-215.51 2276.62,-213.62 2287.53,-211.56"/>
<polygon fill="#63b8ff" stroke="#63b8ff" points="1556.01,-266.87 1546.13,-270.67 1556.23,-273.86 1556.01,-266.87"/>
</a>
</g>
</g>
<!-- Node14 -->
<g id="Node000014" class="node">
<title>Node14</title>
<g id="a_Node000014"><a xlink:href="REST_2include_2controllers_2UpdateSubscriptions_8h.html" target="_top" xlink:title="Implements Catena REST UpdateSubscriptions.">
<polygon fill="white" stroke="#666666" points="2750,-211.5 2500,-211.5 2500,-170.5 2750,-170.5 2750,-211.5"/>
<text text-anchor="start" x="2508" y="-199.5" font-family="Helvetica,sans-Serif" font-size="10.00">/home/runner/work/Catena</text>
<text text-anchor="start" x="2508" y="-188.5" font-family="Helvetica,sans-Serif" font-size="10.00">/Catena/sdks/cpp/connections</text>
<text text-anchor="middle" x="2625" y="-177.5" font-family="Helvetica,sans-Serif" font-size="10.00">/REST/include/controllers/UpdateSubscriptions.h</text>
</a>
</g>
</g>
<!-- Node1&#45;&gt;Node14 -->
<g id="edge13_Node000001_Node000014" class="edge">
<title>Node1&#45;&gt;Node14</title>
<g id="a_edge13_Node000001_Node000014"><a xlink:title=" ">
<path fill="none" stroke="#63b8ff" d="M1556.14,-271.58C1730.08,-268.85 2144.84,-258.2 2490,-217 2502.31,-215.53 2515.18,-213.63 2527.89,-211.53"/>
<polygon fill="#63b8ff" stroke="#63b8ff" points="1555.98,-268.08 1546.04,-271.73 1556.09,-275.08 1555.98,-268.08"/>
</a>
</g>
</g>
<!-- Node15 -->
<g id="Node000015" class="node">
<title>Node15</title>
<g id="a_Node000015"><a xlink:href="CallData_8h.html" target="_top" xlink:title="Base class for gRPC CallData classes which defines getJWSToken_().">
<polygon fill="white" stroke="#666666" points="3492.5,-211.5 3331.5,-211.5 3331.5,-170.5 3492.5,-170.5 3492.5,-211.5"/>
<text text-anchor="start" x="3339.5" y="-199.5" font-family="Helvetica,sans-Serif" font-size="10.00">/home/runner/work/Catena</text>
<text text-anchor="start" x="3339.5" y="-188.5" font-family="Helvetica,sans-Serif" font-size="10.00">/Catena/sdks/cpp/connections</text>
<text text-anchor="middle" x="3412" y="-177.5" font-family="Helvetica,sans-Serif" font-size="10.00">/gRPC/include/CallData.h</text>
</a>
</g>
</g>
<!-- Node1&#45;&gt;Node15 -->
<g id="edge14_Node000001_Node000015" class="edge">
<title>Node1&#45;&gt;Node15</title>
<g id="a_edge14_Node000001_Node000015"><a xlink:title=" ">
<path fill="none" stroke="#63b8ff" d="M1556.15,-269.05C1874.91,-255.81 3016.82,-208.41 3331.31,-195.35"/>
<polygon fill="#63b8ff" stroke="#63b8ff" points="1555.9,-265.56 1546.06,-269.47 1556.19,-272.55 1555.9,-265.56"/>
</a>
</g>
</g>
<!-- Node13 -->
<g id="Node000013" class="node">
<title>Node13</title>
<g id="a_Node000013"><a xlink:href="REST_2include_2controllers_2SetValue_8h.html" target="_top" xlink:title="Implements REST SetValue controller.">
<polygon fill="white" stroke="#666666" points="2018,-123.5 1826,-123.5 1826,-82.5 2018,-82.5 2018,-123.5"/>
<text text-anchor="start" x="1834" y="-111.5" font-family="Helvetica,sans-Serif" font-size="10.00">/home/runner/work/Catena</text>
<text text-anchor="start" x="1834" y="-100.5" font-family="Helvetica,sans-Serif" font-size="10.00">/Catena/sdks/cpp/connections</text>
<text text-anchor="middle" x="1922" y="-89.5" font-family="Helvetica,sans-Serif" font-size="10.00">/REST/include/controllers/SetValue.h</text>
</a>
</g>
</g>
<!-- Node12&#45;&gt;Node13 -->
<g id="edge12_Node000012_Node000013" class="edge">
<title>Node12&#45;&gt;Node13</title>
<g id="a_edge12_Node000012_Node000013"><a xlink:title=" ">
<path fill="none" stroke="#63b8ff" d="M2272.97,-168.43C2266.9,-167.24 2260.87,-166.08 2255,-165 2154.12,-146.36 2127.64,-148.9 2027,-129 2018.64,-127.35 2009.93,-125.49 2001.26,-123.56"/>
<polygon fill="#63b8ff" stroke="#63b8ff" points="2272.73,-171.95 2283.22,-170.47 2274.1,-165.09 2272.73,-171.95"/>
</a>
</g>
</g>
<!-- Node16 -->
<g id="Node000016" class="node">
<title>Node16</title>
<g id="a_Node000016"><a xlink:href="AddLanguage_8h.html" target="_top" xlink:title="Implements Catena gRPC AddLanguage.">
<polygon fill="white" stroke="#666666" points="2252,-123.5 2036,-123.5 2036,-82.5 2252,-82.5 2252,-123.5"/>
<text text-anchor="start" x="2044" y="-111.5" font-family="Helvetica,sans-Serif" font-size="10.00">/home/runner/work/Catena</text>
<text text-anchor="start" x="2044" y="-100.5" font-family="Helvetica,sans-Serif" font-size="10.00">/Catena/sdks/cpp/connections</text>
<text text-anchor="middle" x="2144" y="-89.5" font-family="Helvetica,sans-Serif" font-size="10.00">/gRPC/include/controllers/AddLanguage.h</text>
</a>
</g>
</g>
<!-- Node15&#45;&gt;Node16 -->
<g id="edge15_Node000015_Node000016" class="edge">
<title>Node15&#45;&gt;Node16</title>
<g id="a_edge15_Node000015_Node000016"><a xlink:title=" ">
<path fill="none" stroke="#63b8ff" d="M3321.02,-187.03C3086.48,-179.09 2465.39,-156.08 2261,-129 2250.09,-127.55 2238.68,-125.64 2227.45,-123.5"/>
<polygon fill="#63b8ff" stroke="#63b8ff" points="3321.11,-190.54 3331.22,-187.38 3321.35,-183.54 3321.11,-190.54"/>
</a>
</g>
</g>
<!-- Node18 -->
<g id="Node000018" class="node">
<title>Node18</title>
<g id="a_Node000018"><a xlink:href="gRPC_2include_2controllers_2BasicParamInfoRequest_8h.html" target="_top" xlink:title="Implements Catena gRPC BasicParamInfoRequest.">
<polygon fill="white" stroke="#666666" points="2468,-129 2270,-129 2270,-77 2468,-77 2468,-129"/>
<text text-anchor="start" x="2278" y="-117" font-family="Helvetica,sans-Serif" font-size="10.00">/home/runner/work/Catena</text>
<text text-anchor="start" x="2278" y="-106" font-family="Helvetica,sans-Serif" font-size="10.00">/Catena/sdks/cpp/connections</text>
<text text-anchor="start" x="2278" y="-95" font-family="Helvetica,sans-Serif" font-size="10.00">/gRPC/include/controllers/BasicParam</text>
<text text-anchor="middle" x="2369" y="-84" font-family="Helvetica,sans-Serif" font-size="10.00">InfoRequest.h</text>
</a>
</g>
</g>
<!-- Node15&#45;&gt;Node18 -->
<g id="edge17_Node000015_Node000018" class="edge">
<title>Node15&#45;&gt;Node18</title>
<g id="a_edge17_Node000015_Node000018"><a xlink:title=" ">
<path fill="none" stroke="#63b8ff" d="M3321.48,-188.96C3153.94,-185.97 2784.54,-174.32 2477,-129 2474.05,-128.57 2471.06,-128.09 2468.05,-127.58"/>
<polygon fill="#63b8ff" stroke="#63b8ff" points="3321.43,-192.46 3331.49,-189.14 3321.55,-185.47 3321.43,-192.46"/>
</a>
</g>
</g>
<!-- Node19 -->
<g id="Node000019" class="node">
<title>Node19</title>
<g id="a_Node000019"><a xlink:href="connections_2gRPC_2include_2controllers_2Connect_8h.html" target="_top" xlink:title="Implements Catena gRPC Connect.">
<polygon fill="white" stroke="#666666" points="2676,-123.5 2486,-123.5 2486,-82.5 2676,-82.5 2676,-123.5"/>
<text text-anchor="start" x="2494" y="-111.5" font-family="Helvetica,sans-Serif" font-size="10.00">/home/runner/work/Catena</text>
<text text-anchor="start" x="2494" y="-100.5" font-family="Helvetica,sans-Serif" font-size="10.00">/Catena/sdks/cpp/connections</text>
<text text-anchor="middle" x="2581" y="-89.5" font-family="Helvetica,sans-Serif" font-size="10.00">/gRPC/include/controllers/Connect.h</text>
</a>
</g>
</g>
<!-- Node15&#45;&gt;Node19 -->
<g id="edge19_Node000015_Node000019" class="edge">
<title>Node15&#45;&gt;Node19</title>
<g id="a_edge19_Node000015_Node000019"><a xlink:title=" ">
<path fill="none" stroke="#63b8ff" d="M3321.25,-186.82C3183.13,-180.99 2912.21,-165.62 2685,-129 2675.65,-127.49 2665.9,-125.59 2656.27,-123.52"/>
<polygon fill="#63b8ff" stroke="#63b8ff" points="3321.23,-190.32 3331.37,-187.24 3321.52,-183.33 3321.23,-190.32"/>
</a>
</g>
</g>
<!-- Node20 -->
<g id="Node000020" class="node">
<title>Node20</title>
<g id="a_Node000020"><a xlink:href="gRPC_2include_2controllers_2DeviceRequest_8h.html" target="_top" xlink:title="Implements Catena gRPC DeviceRequest.">
<polygon fill="white" stroke="#666666" points="2918,-123.5 2694,-123.5 2694,-82.5 2918,-82.5 2918,-123.5"/>
<text text-anchor="start" x="2702" y="-111.5" font-family="Helvetica,sans-Serif" font-size="10.00">/home/runner/work/Catena</text>
<text text-anchor="start" x="2702" y="-100.5" font-family="Helvetica,sans-Serif" font-size="10.00">/Catena/sdks/cpp/connections</text>
<text text-anchor="middle" x="2806" y="-89.5" font-family="Helvetica,sans-Serif" font-size="10.00">/gRPC/include/controllers/DeviceRequest.h</text>
</a>
</g>
</g>
<!-- Node15&#45;&gt;Node20 -->
<g id="edge21_Node000015_Node000020" class="edge">
<title>Node15&#45;&gt;Node20</title>
<g id="a_edge21_Node000015_Node000020"><a xlink:title=" ">
<path fill="none" stroke="#63b8ff" d="M3321.35,-180.75C3223.68,-170.29 3063.85,-151.71 2927,-129 2917.16,-127.37 2906.9,-125.5 2896.7,-123.54"/>
<polygon fill="#63b8ff" stroke="#63b8ff" points="3321.16,-184.25 3331.48,-181.83 3321.91,-177.29 3321.16,-184.25"/>
</a>
</g>
</g>
<!-- Node21 -->
<g id="Node000021" class="node">
<title>Node21</title>
<g id="a_Node000021"><a xlink:href="gRPC_2include_2controllers_2ExecuteCommand_8h.html" target="_top" xlink:title="Implements Catena gRPC ExecuteCommand.">
<polygon fill="white" stroke="#666666" points="3175.5,-123.5 2936.5,-123.5 2936.5,-82.5 3175.5,-82.5 3175.5,-123.5"/>
<text text-anchor="start" x="2944.5" y="-111.5" font-family="Helvetica,sans-Serif" font-size="10.00">/home/runner/work/Catena</text>
<text text-anchor="start" x="2944.5" y="-100.5" font-family="Helvetica,sans-Serif" font-size="10.00">/Catena/sdks/cpp/connections</text>
<text text-anchor="middle" x="3056" y="-89.5" font-family="Helvetica,sans-Serif" font-size="10.00">/gRPC/include/controllers/ExecuteCommand.h</text>
</a>
</g>
</g>
<!-- Node15&#45;&gt;Node21 -->
<g id="edge23_Node000015_Node000021" class="edge">
<title>Node15&#45;&gt;Node21</title>
<g id="a_edge23_Node000015_Node000021"><a xlink:title=" ">
<path fill="none" stroke="#63b8ff" d="M3321.15,-168.05C3264.27,-154.31 3191.63,-136.77 3136.77,-123.51"/>
<polygon fill="#63b8ff" stroke="#63b8ff" points="3320.68,-171.54 3331.22,-170.49 3322.32,-164.73 3320.68,-171.54"/>
</a>
</g>
</g>
<!-- Node22 -->
<g id="Node000022" class="node">
<title>Node22</title>
<g id="a_Node000022"><a xlink:href="ExternalObjectRequest_8h.html" target="_top" xlink:title="Implements Catena gRPC ExternalObjectRequest.">
<polygon fill="white" stroke="#666666" points="3406.5,-129 3193.5,-129 3193.5,-77 3406.5,-77 3406.5,-129"/>
<text text-anchor="start" x="3201.5" y="-117" font-family="Helvetica,sans-Serif" font-size="10.00">/home/runner/work/Catena</text>
<text text-anchor="start" x="3201.5" y="-106" font-family="Helvetica,sans-Serif" font-size="10.00">/Catena/sdks/cpp/connections</text>
<text text-anchor="start" x="3201.5" y="-95" font-family="Helvetica,sans-Serif" font-size="10.00">/gRPC/include/controllers/ExternalObject</text>
<text text-anchor="middle" x="3300" y="-84" font-family="Helvetica,sans-Serif" font-size="10.00">Request.h</text>
</a>
</g>
</g>
<!-- Node15&#45;&gt;Node22 -->
<g id="edge25_Node000015_Node000022" class="edge">
<title>Node15&#45;&gt;Node22</title>
<g id="a_edge25_Node000015_Node000022"><a xlink:title=" ">
<path fill="none" stroke="#63b8ff" d="M3378.43,-164.22C3364.04,-153.17 3347.29,-140.31 3332.97,-129.32"/>
<polygon fill="#63b8ff" stroke="#63b8ff" points="3376.52,-167.17 3386.59,-170.49 3380.79,-161.62 3376.52,-167.17"/>
</a>
</g>
</g>
<!-- Node23 -->
<g id="Node000023" class="node">
<title>Node23</title>
<g id="a_Node000023"><a xlink:href="gRPC_2include_2controllers_2GetParam_8h.html" target="_top" xlink:title="Implements Catena gRPC GetParam.">
<polygon fill="white" stroke="#666666" points="3623,-123.5 3425,-123.5 3425,-82.5 3623,-82.5 3623,-123.5"/>
<text text-anchor="start" x="3433" y="-111.5" font-family="Helvetica,sans-Serif" font-size="10.00">/home/runner/work/Catena</text>
<text text-anchor="start" x="3433" y="-100.5" font-family="Helvetica,sans-Serif" font-size="10.00">/Catena/sdks/cpp/connections</text>
<text text-anchor="middle" x="3524" y="-89.5" font-family="Helvetica,sans-Serif" font-size="10.00">/gRPC/include/controllers/GetParam.h</text>
</a>
</g>
</g>
<!-- Node15&#45;&gt;Node23 -->
<g id="edge27_Node000015_Node000023" class="edge">
<title>Node15&#45;&gt;Node23</title>
<g id="a_edge27_Node000015_Node000023"><a xlink:title=" ">
<path fill="none" stroke="#63b8ff" d="M3445.43,-164.33C3462.36,-151.33 3482.6,-135.79 3498.3,-123.74"/>
<polygon fill="#63b8ff" stroke="#63b8ff" points="3443.21,-161.62 3437.41,-170.49 3447.48,-167.17 3443.21,-161.62"/>
</a>
</g>
</g>
<!-- Node24 -->
<g id="Node000024" class="node">
<title>Node24</title>
<g id="a_Node000024"><a xlink:href="gRPC_2include_2controllers_2GetPopulatedSlots_8h.html" target="_top" xlink:title="Implements Catena gRPC GetPopulatedSlots.">
<polygon fill="white" stroke="#666666" points="3848.5,-129 3641.5,-129 3641.5,-77 3848.5,-77 3848.5,-129"/>
<text text-anchor="start" x="3649.5" y="-117" font-family="Helvetica,sans-Serif" font-size="10.00">/home/runner/work/Catena</text>
<text text-anchor="start" x="3649.5" y="-106" font-family="Helvetica,sans-Serif" font-size="10.00">/Catena/sdks/cpp/connections</text>
<text text-anchor="start" x="3649.5" y="-95" font-family="Helvetica,sans-Serif" font-size="10.00">/gRPC/include/controllers/GetPopulated</text>
<text text-anchor="middle" x="3745" y="-84" font-family="Helvetica,sans-Serif" font-size="10.00">Slots.h</text>
</a>
</g>
</g>
<!-- Node15&#45;&gt;Node24 -->
<g id="edge29_Node000015_Node000024" class="edge">
<title>Node15&#45;&gt;Node24</title>
<g id="a_edge29_Node000015_Node000024"><a xlink:title=" ">
<path fill="none" stroke="#63b8ff" d="M3497.49,-167.92C3543.45,-156.05 3600.28,-141.37 3647.9,-129.08"/>
<polygon fill="#63b8ff" stroke="#63b8ff" points="3496.37,-164.6 3487.56,-170.49 3498.12,-171.37 3496.37,-164.6"/>
</a>
</g>
</g>
<!-- Node25 -->
<g id="Node000025" class="node">
<title>Node25</title>
<g id="a_Node000025"><a xlink:href="gRPC_2include_2controllers_2GetValue_8h.html" target="_top" xlink:title="Implements Catena gRPC GetValue.">
<polygon fill="white" stroke="#666666" points="4061,-123.5 3867,-123.5 3867,-82.5 4061,-82.5 4061,-123.5"/>
<text text-anchor="start" x="3875" y="-111.5" font-family="Helvetica,sans-Serif" font-size="10.00">/home/runner/work/Catena</text>
<text text-anchor="start" x="3875" y="-100.5" font-family="Helvetica,sans-Serif" font-size="10.00">/Catena/sdks/cpp/connections</text>
<text text-anchor="middle" x="3964" y="-89.5" font-family="Helvetica,sans-Serif" font-size="10.00">/gRPC/include/controllers/GetValue.h</text>
</a>
</g>
</g>
<!-- Node15&#45;&gt;Node25 -->
<g id="edge31_Node000015_Node000025" class="edge">
<title>Node15&#45;&gt;Node25</title>
<g id="a_edge31_Node000015_Node000025"><a xlink:title=" ">
<path fill="none" stroke="#63b8ff" d="M3502.48,-180.2C3592.87,-169.8 3735.62,-151.75 3858,-129 3866.74,-127.38 3875.84,-125.51 3884.88,-123.53"/>
<polygon fill="#63b8ff" stroke="#63b8ff" points="3502.07,-176.72 3492.54,-181.34 3502.87,-183.68 3502.07,-176.72"/>
</a>
</g>
</g>
<!-- Node26 -->
<g id="Node000026" class="node">
<title>Node26</title>
<g id="a_Node000026"><a xlink:href="LanguagePackRequest_8h.html" target="_top" xlink:title="Implements Catena gRPC LanguagePackRequest.">
<polygon fill="white" stroke="#666666" points="4290.5,-129 4079.5,-129 4079.5,-77 4290.5,-77 4290.5,-129"/>
<text text-anchor="start" x="4087.5" y="-117" font-family="Helvetica,sans-Serif" font-size="10.00">/home/runner/work/Catena</text>
<text text-anchor="start" x="4087.5" y="-106" font-family="Helvetica,sans-Serif" font-size="10.00">/Catena/sdks/cpp/connections</text>
<text text-anchor="start" x="4087.5" y="-95" font-family="Helvetica,sans-Serif" font-size="10.00">/gRPC/include/controllers/LanguagePack</text>
<text text-anchor="middle" x="4185" y="-84" font-family="Helvetica,sans-Serif" font-size="10.00">Request.h</text>
</a>
</g>
</g>
<!-- Node15&#45;&gt;Node26 -->
<g id="edge33_Node000015_Node000026" class="edge">
<title>Node15&#45;&gt;Node26</title>
<g id="a_edge33_Node000015_Node000026"><a xlink:title=" ">
<path fill="none" stroke="#63b8ff" d="M3502.76,-185.09C3630.07,-177.4 3868.67,-160.1 4070,-129 4073.03,-128.53 4076.1,-128.03 4079.19,-127.51"/>
<polygon fill="#63b8ff" stroke="#63b8ff" points="3502.43,-181.6 3492.66,-185.69 3502.85,-188.59 3502.43,-181.6"/>
</a>
</g>
</g>
<!-- Node27 -->
<g id="Node000027" class="node">
<title>Node27</title>
<g id="a_Node000027"><a xlink:href="ListLanguages_8h.html" target="_top" xlink:title="Implements Catena gRPC ListLanguages.">
<polygon fill="white" stroke="#666666" points="4529,-123.5 4309,-123.5 4309,-82.5 4529,-82.5 4529,-123.5"/>
<text text-anchor="start" x="4317" y="-111.5" font-family="Helvetica,sans-Serif" font-size="10.00">/home/runner/work/Catena</text>
<text text-anchor="start" x="4317" y="-100.5" font-family="Helvetica,sans-Serif" font-size="10.00">/Catena/sdks/cpp/connections</text>
<text text-anchor="middle" x="4419" y="-89.5" font-family="Helvetica,sans-Serif" font-size="10.00">/gRPC/include/controllers/ListLanguages.h</text>
</a>
</g>
</g>
<!-- Node15&#45;&gt;Node27 -->
<g id="edge35_Node000015_Node000027" class="edge">
<title>Node15&#45;&gt;Node27</title>
<g id="a_edge35_Node000015_Node000027"><a xlink:title=" ">
<path fill="none" stroke="#63b8ff" d="M3502.94,-187.91C3664.2,-183.27 4010.56,-169.15 4300,-129 4310.77,-127.51 4322.02,-125.6 4333.13,-123.51"/>
<polygon fill="#63b8ff" stroke="#63b8ff" points="3502.48,-184.42 3492.59,-188.2 3502.68,-191.41 3502.48,-184.42"/>
</a>
</g>
</g>
<!-- Node28 -->
<g id="Node000028" class="node">
<title>Node28</title>
<g id="a_Node000028"><a xlink:href="gRPC_2include_2controllers_2MultiSetValue_8h.html" target="_top" xlink:title="Generic CallData class for the SetValue and MultiSetValue RPCs.">
<polygon fill="white" stroke="#666666" points="4765,-123.5 4547,-123.5 4547,-82.5 4765,-82.5 4765,-123.5"/>
<text text-anchor="start" x="4555" y="-111.5" font-family="Helvetica,sans-Serif" font-size="10.00">/home/runner/work/Catena</text>
<text text-anchor="start" x="4555" y="-100.5" font-family="Helvetica,sans-Serif" font-size="10.00">/Catena/sdks/cpp/connections</text>
<text text-anchor="middle" x="4656" y="-89.5" font-family="Helvetica,sans-Serif" font-size="10.00">/gRPC/include/controllers/MultiSetValue.h</text>
</a>
</g>
</g>
<!-- Node15&#45;&gt;Node28 -->
<g id="edge37_Node000015_Node000028" class="edge">
<title>Node15&#45;&gt;Node28</title>
<g id="a_edge37_Node000015_Node000028"><a xlink:title=" ">
<path fill="none" stroke="#63b8ff" d="M3502.64,-189.83C3694.51,-188.43 4155.46,-179.58 4538,-129 4548.9,-127.56 4560.29,-125.66 4571.51,-123.55"/>
<polygon fill="#63b8ff" stroke="#63b8ff" points="3502.58,-186.33 3492.61,-189.9 3502.63,-193.33 3502.58,-186.33"/>
</a>
</g>
</g>
<!-- Node29 -->
<g id="Node000029" class="node">
<title>Node29</title>
<g id="a_Node000029"><a xlink:href="gRPC_2include_2controllers_2UpdateSubscriptions_8h.html" target="_top" xlink:title="Implements Catena gRPC UpdateSubscriptions.">
<polygon fill="white" stroke="#666666" points="5034.5,-123.5 4783.5,-123.5 4783.5,-82.5 5034.5,-82.5 5034.5,-123.5"/>
<text text-anchor="start" x="4791.5" y="-111.5" font-family="Helvetica,sans-Serif" font-size="10.00">/home/runner/work/Catena</text>
<text text-anchor="start" x="4791.5" y="-100.5" font-family="Helvetica,sans-Serif" font-size="10.00">/Catena/sdks/cpp/connections</text>
<text text-anchor="middle" x="4909" y="-89.5" font-family="Helvetica,sans-Serif" font-size="10.00">/gRPC/include/controllers/UpdateSubscriptions.h</text>
</a>
</g>
</g>
<!-- Node15&#45;&gt;Node29 -->
<g id="edge39_Node000015_Node000029" class="edge">
<title>Node15&#45;&gt;Node29</title>
<g id="a_edge39_Node000015_Node000029"><a xlink:title=" ">
<path fill="none" stroke="#63b8ff" d="M3502.68,-190.26C3721.85,-189.95 4297.43,-183.53 4774,-129 4786.55,-127.56 4799.69,-125.65 4812.64,-123.52"/>
<polygon fill="#63b8ff" stroke="#63b8ff" points="3502.51,-186.76 3492.52,-190.27 3502.52,-193.76 3502.51,-186.76"/>
</a>
</g>
</g>
<!-- Node17 -->
<g id="Node000017" class="node">
<title>Node17</title>
<g id="a_Node000017"><a xlink:href="gRPC_2include_2ServiceImpl_8h.html" target="_top" xlink:title="Implements Catena gRPC request handlers.">
<polygon fill="white" stroke="#666666" points="3604.5,-41 3443.5,-41 3443.5,0 3604.5,0 3604.5,-41"/>
<text text-anchor="start" x="3451.5" y="-29" font-family="Helvetica,sans-Serif" font-size="10.00">/home/runner/work/Catena</text>
<text text-anchor="start" x="3451.5" y="-18" font-family="Helvetica,sans-Serif" font-size="10.00">/Catena/sdks/cpp/connections</text>
<text text-anchor="middle" x="3524" y="-7" font-family="Helvetica,sans-Serif" font-size="10.00">/gRPC/include/ServiceImpl.h</text>
</a>
</g>
</g>
<!-- Node16&#45;&gt;Node17 -->
<g id="edge16_Node000016_Node000017" class="edge">
<title>Node16&#45;&gt;Node17</title>
<g id="a_edge16_Node000016_Node000017"><a xlink:title=" ">
<path fill="none" stroke="#63b8ff" d="M2236.98,-80.67C2245.07,-79.26 2253.16,-78 2261,-77 2491.09,-47.57 3202.27,-28.9 3443.22,-23.29"/>
<polygon fill="#63b8ff" stroke="#63b8ff" points="2236.33,-77.23 2227.12,-82.47 2237.58,-84.12 2236.33,-77.23"/>
</a>
</g>
</g>
<!-- Node18&#45;&gt;Node17 -->
<g id="edge18_Node000018_Node000017" class="edge">
<title>Node18&#45;&gt;Node17</title>
<g id="a_edge18_Node000018_Node000017"><a xlink:title=" ">
<path fill="none" stroke="#63b8ff" d="M2477.99,-76.97C2842.57,-26.4 3268.8,-20.95 3443.42,-21"/>
<polygon fill="#63b8ff" stroke="#63b8ff" points="2477.46,-73.51 2468.04,-78.37 2478.43,-80.45 2477.46,-73.51"/>
</a>
</g>
</g>
<!-- Node19&#45;&gt;Node17 -->
<g id="edge20_Node000019_Node000017" class="edge">
<title>Node19&#45;&gt;Node17</title>
<g id="a_edge20_Node000019_Node000017"><a xlink:title=" ">
<path fill="none" stroke="#63b8ff" d="M2665.83,-80.36C2672.29,-79.1 2678.74,-77.95 2685,-77 2961.19,-34.98 3293.31,-24.77 3443.4,-22.29"/>
<polygon fill="#63b8ff" stroke="#63b8ff" points="2664.78,-77.01 2655.68,-82.44 2666.18,-83.86 2664.78,-77.01"/>
</a>
</g>
</g>
<!-- Node20&#45;&gt;Node17 -->
<g id="edge22_Node000020_Node000017" class="edge">
<title>Node20&#45;&gt;Node17</title>
<g id="a_edge22_Node000020_Node000017"><a xlink:title=" ">
<path fill="none" stroke="#63b8ff" d="M2905.1,-80.6C2912.49,-79.29 2919.85,-78.07 2927,-77 3110.51,-49.6 3327.91,-33.45 3443.03,-26.17"/>
<polygon fill="#63b8ff" stroke="#63b8ff" points="2904.22,-77.2 2895.01,-82.44 2905.47,-84.09 2904.22,-77.2"/>
</a>
</g>
</g>
<!-- Node21&#45;&gt;Node17 -->
<g id="edge24_Node000021_Node000017" class="edge">
<title>Node21&#45;&gt;Node17</title>
<g id="a_edge24_Node000021_Node000017"><a xlink:title=" ">
<path fill="none" stroke="#63b8ff" d="M3164.74,-80.52C3171.25,-79.31 3177.71,-78.13 3184,-77 3272.45,-61.15 3374.2,-44.78 3443.16,-33.97"/>
<polygon fill="#63b8ff" stroke="#63b8ff" points="3163.66,-77.16 3154.48,-82.45 3164.95,-84.04 3163.66,-77.16"/>
</a>
</g>
</g>
<!-- Node22&#45;&gt;Node17 -->
<g id="edge26_Node000022_Node000017" class="edge">
<title>Node22&#45;&gt;Node17</title>
<g id="a_edge26_Node000022_Node000017"><a xlink:title=" ">
<path fill="none" stroke="#63b8ff" d="M3379.24,-73.52C3409.18,-62.76 3442.55,-50.77 3469.69,-41.02"/>
<polygon fill="#63b8ff" stroke="#63b8ff" points="3377.87,-70.29 3369.65,-76.97 3380.24,-76.88 3377.87,-70.29"/>
</a>
</g>
</g>
<!-- Node23&#45;&gt;Node17 -->
<g id="edge28_Node000023_Node000017" class="edge">
<title>Node23&#45;&gt;Node17</title>
<g id="a_edge28_Node000023_Node000017"><a xlink:title=" ">
<path fill="none" stroke="#63b8ff" d="M3524,-71.87C3524,-61.6 3524,-50.4 3524,-41.17"/>
<polygon fill="#63b8ff" stroke="#63b8ff" points="3520.5,-72.1 3524,-82.1 3527.5,-72.1 3520.5,-72.1"/>
</a>
</g>
</g>
<!-- Node24&#45;&gt;Node17 -->
<g id="edge30_Node000024_Node000017" class="edge">
<title>Node24&#45;&gt;Node17</title>
<g id="a_edge30_Node000024_Node000017"><a xlink:title=" ">
<path fill="none" stroke="#63b8ff" d="M3666.83,-73.52C3637.28,-62.76 3604.36,-50.77 3577.58,-41.02"/>
<polygon fill="#63b8ff" stroke="#63b8ff" points="3665.69,-76.84 3676.29,-76.97 3668.09,-70.26 3665.69,-76.84"/>
</a>
</g>
</g>
<!-- Node25&#45;&gt;Node17 -->
<g id="edge32_Node000025_Node000017" class="edge">
<title>Node25&#45;&gt;Node17</title>
<g id="a_edge32_Node000025_Node000017"><a xlink:title=" ">
<path fill="none" stroke="#63b8ff" d="M3873.55,-80.24C3868.29,-79.11 3863.08,-78.02 3858,-77 3771.84,-59.7 3672.41,-43.68 3604.59,-33.34"/>
<polygon fill="#63b8ff" stroke="#63b8ff" points="3873.16,-83.74 3883.68,-82.46 3874.66,-76.9 3873.16,-83.74"/>
</a>
</g>
</g>
<!-- Node26&#45;&gt;Node17 -->
<g id="edge34_Node000026_Node000017" class="edge">
<title>Node26&#45;&gt;Node17</title>
<g id="a_edge34_Node000026_Node000017"><a xlink:title=" ">
<path fill="none" stroke="#63b8ff" d="M4069.55,-77.01C3898.44,-50.27 3709.72,-34.44 3604.85,-26.86"/>
<polygon fill="#63b8ff" stroke="#63b8ff" points="4069.07,-80.48 4079.49,-78.58 4070.16,-73.56 4069.07,-80.48"/>
</a>
</g>
</g>
<!-- Node27&#45;&gt;Node17 -->
<g id="edge36_Node000027_Node000017" class="edge">
<title>Node27&#45;&gt;Node17</title>
<g id="a_edge36_Node000027_Node000017"><a xlink:title=" ">
<path fill="none" stroke="#63b8ff" d="M4322.72,-80.62C4315.06,-79.27 4307.41,-78.04 4300,-77 4047.7,-41.64 3745.91,-28.26 3604.53,-23.66"/>
<polygon fill="#63b8ff" stroke="#63b8ff" points="4322.33,-84.11 4332.8,-82.46 4323.59,-77.22 4322.33,-84.11"/>
</a>
</g>
</g>
<!-- Node28&#45;&gt;Node17 -->
<g id="edge38_Node000028_Node000017" class="edge">
<title>Node28&#45;&gt;Node17</title>
<g id="a_edge38_Node000028_Node000017"><a xlink:title=" ">
<path fill="none" stroke="#63b8ff" d="M4561.49,-80.64C4553.57,-79.26 4545.66,-78.02 4538,-77 4192.81,-31.26 3776.72,-23.06 3604.58,-21.71"/>
<polygon fill="#63b8ff" stroke="#63b8ff" points="4561.05,-84.12 4571.51,-82.46 4562.3,-77.23 4561.05,-84.12"/>
</a>
</g>
</g>
<!-- Node29&#45;&gt;Node17 -->
<g id="edge40_Node000029_Node000017" class="edge">
<title>Node29&#45;&gt;Node17</title>
<g id="a_edge40_Node000029_Node000017"><a xlink:title=" ">
<path fill="none" stroke="#63b8ff" d="M4802.6,-80.88C4792.96,-79.39 4783.32,-78.06 4774,-77 4334.8,-26.83 3803.98,-21.35 3604.74,-21.21"/>
<polygon fill="#63b8ff" stroke="#63b8ff" points="4802.21,-84.36 4812.64,-82.48 4803.32,-77.45 4802.21,-84.36"/>
</a>
</g>
</g>
</g>
</svg>
