<?xml version="1.0" encoding="UTF-8" standalone="no"?>
<!DOCTYPE svg PUBLIC "-//W3C//DTD SVG 1.1//EN"
 "http://www.w3.org/Graphics/SVG/1.1/DTD/svg11.dtd">
<!-- Generated by graphviz version 2.43.0 (0)
 -->
<!-- Title: /home/runner/work/Catena/Catena/sdks/cpp/common/include/utils.h Pages: 1 -->
<!--zoomable 291 -->

<svg id="main" version="1.1" xmlns="http://www.w3.org/2000/svg" xmlns:xlink="http://www.w3.org/1999/xlink" xml:space="preserve" onload="init(evt)">
<style type="text/css"><![CDATA[
.node, .edge {opacity: 0.7;}
.node.selected, .edge.selected {opacity: 1;}
.edge:hover path { stroke: red; }
.edge:hover polygon { stroke: red; fill: red; }
]]></style>

<defs>
  <circle id="rim" cx="0" cy="0" r="7"/>
  <circle id="rim2" cx="0" cy="0" r="3.5"/>
  <g id="zoomPlus">
    <use xlink:href="#rim" fill="#404040"><set attributeName="fill" to="#808080" begin="zoomplus.mouseover" end="zoomplus.mouseout"/></use>
    <path d="M-4,0h8M0,-4v8" fill="none" stroke="white" stroke-width="1.5" pointer-events="none"/>
  </g>
  <g id="zoomMin">
    <use xlink:href="#rim" fill="#404040"><set attributeName="fill" to="#808080" begin="zoomminus.mouseover" end="zoomminus.mouseout"/></use>
    <path d="M-4,0h8" fill="none" stroke="white" stroke-width="1.5" pointer-events="none"/>
  </g>
  <g id="arrowUp" transform="translate(30 24)">
    <use xlink:href="#rim"/>
    <path pointer-events="none" fill="none" stroke="white" stroke-width="1.5" d="M0,-3.0v7 M-2.5,-0.5L0,-3.0L2.5,-0.5"/>
  </g>
  <g id="arrowRight" transform="rotate(90) translate(36 -43)">
    <use xlink:href="#rim"/>
    <path pointer-events="none" fill="none" stroke="white" stroke-width="1.5" d="M0,-3.0v7 M-2.5,-0.5L0,-3.0L2.5,-0.5"/>
  </g>
  <g id="arrowDown" transform="rotate(180) translate(-30 -48)">
    <use xlink:href="#rim"/>
    <path pointer-events="none" fill="none" stroke="white" stroke-width="1.5" d="M0,-3.0v7 M-2.5,-0.5L0,-3.0L2.5,-0.5"/>
  </g>
  <g id="arrowLeft" transform="rotate(270) translate(-36 17)">
    <use xlink:href="#rim"/>
    <path pointer-events="none" fill="none" stroke="white" stroke-width="1.5" d="M0,-3.0v7 M-2.5,-0.5L0,-3.0L2.5,-0.5"/>
  </g>
  <g id="resetDef">
    <use xlink:href="#rim2" fill="#404040"><set attributeName="fill" to="#808080" begin="reset.mouseover" end="reset.mouseout"/></use>
  </g>
</defs>
<script type="application/ecmascript">
var viewWidth = 2975;
var viewHeight = 291;
var sectionId = 'dynsection-1';
</script>
<script type="application/ecmascript" xlink:href="svg.min.js"/>
<svg id="graph" class="graph">
<g id="viewport">
<title>/home/runner/work/Catena/Catena/sdks/cpp/common/include/utils.h</title>
<!-- Node1 -->
<g id="Node000001" class="node">
<title>Node1</title>
<g id="a_Node000001"><a xlink:title="Utility functions.">
<polygon fill="#999999" stroke="#666666" points="1635.86,-283 1489.86,-283 1489.86,-242 1635.86,-242 1635.86,-283"/>
<text text-anchor="start" x="1497.86" y="-271" font-family="Helvetica,sans-Serif" font-size="10.00">/home/runner/work/Catena</text>
<text text-anchor="start" x="1497.86" y="-260" font-family="Helvetica,sans-Serif" font-size="10.00">/Catena/sdks/cpp/common</text>
<text text-anchor="middle" x="1562.86" y="-249" font-family="Helvetica,sans-Serif" font-size="10.00">/include/utils.h</text>
</a>
</g>
</g>
<!-- Node2 -->
<g id="Node000002" class="node">
<title>Node2</title>
<g id="a_Node000002"><a xlink:href="SocketReader_8h.html" target="_top" xlink:title="Helper class used to read from a socket using boost.">
<polygon fill="white" stroke="#666666" points="191.36,-206 30.36,-206 30.36,-165 191.36,-165 191.36,-206"/>
<text text-anchor="start" x="38.36" y="-194" font-family="Helvetica,sans-Serif" font-size="10.00">/home/runner/work/Catena</text>
<text text-anchor="start" x="38.36" y="-183" font-family="Helvetica,sans-Serif" font-size="10.00">/Catena/sdks/cpp/connections</text>
<text text-anchor="middle" x="110.86" y="-172" font-family="Helvetica,sans-Serif" font-size="10.00">/REST/include/SocketReader.h</text>
</a>
</g>
</g>
<!-- Node1&#45;&gt;Node2 -->
<g id="edge1_Node000001_Node000002" class="edge">
<title>Node1&#45;&gt;Node2</title>
<g id="a_edge1_Node000001_Node000002"><a xlink:title=" ">
<path fill="none" stroke="#63b8ff" d="M1479.33,-257.19C1222.18,-243.9 444.52,-203.73 191.42,-190.66"/>
<polygon fill="#63b8ff" stroke="#63b8ff" points="1479.19,-260.68 1489.36,-257.7 1479.55,-253.69 1479.19,-260.68"/>
</a>
</g>
</g>
<!-- Node5 -->
<g id="Node000005" class="node">
<title>Node5</title>
<g id="a_Node000005"><a xlink:href="SocketWriter_8h.html" target="_top" xlink:title="Helper class used to write to a socket using boost.">
<polygon fill="white" stroke="#666666" points="1643.36,-206 1482.36,-206 1482.36,-165 1643.36,-165 1643.36,-206"/>
<text text-anchor="start" x="1490.36" y="-194" font-family="Helvetica,sans-Serif" font-size="10.00">/home/runner/work/Catena</text>
<text text-anchor="start" x="1490.36" y="-183" font-family="Helvetica,sans-Serif" font-size="10.00">/Catena/sdks/cpp/connections</text>
<text text-anchor="middle" x="1562.86" y="-172" font-family="Helvetica,sans-Serif" font-size="10.00">/REST/include/SocketWriter.h</text>
</a>
</g>
</g>
<!-- Node1&#45;&gt;Node5 -->
<g id="edge5_Node000001_Node000005" class="edge">
<title>Node1&#45;&gt;Node5</title>
<g id="a_edge5_Node000001_Node000005"><a xlink:title=" ">
<path fill="none" stroke="#63b8ff" d="M1562.86,-231.69C1562.86,-223.08 1562.86,-213.9 1562.86,-206.07"/>
<polygon fill="#63b8ff" stroke="#63b8ff" points="1559.36,-231.79 1562.86,-241.79 1566.36,-231.79 1559.36,-231.79"/>
</a>
</g>
</g>
<!-- Node6 -->
<g id="Node000006" class="node">
<title>Node6</title>
<g id="a_Node000006"><a xlink:href="AssetRequest_8h.html" target="_top" xlink:title="Implements REST AssetRequest controller.">
<polygon fill="white" stroke="#666666" points="437.86,-123.5 221.86,-123.5 221.86,-82.5 437.86,-82.5 437.86,-123.5"/>
<text text-anchor="start" x="229.86" y="-111.5" font-family="Helvetica,sans-Serif" font-size="10.00">/home/runner/work/Catena</text>
<text text-anchor="start" x="229.86" y="-100.5" font-family="Helvetica,sans-Serif" font-size="10.00">/Catena/sdks/cpp/connections</text>
<text text-anchor="middle" x="329.86" y="-89.5" font-family="Helvetica,sans-Serif" font-size="10.00">/REST/include/controllers/AssetRequest.h</text>
</a>
</g>
</g>
<!-- Node1&#45;&gt;Node6 -->
<g id="edge21_Node000001_Node000006" class="edge">
<title>Node1&#45;&gt;Node6</title>
<g id="a_edge21_Node000001_Node000006"><a xlink:title=" ">
<path fill="none" stroke="#63b8ff" d="M1479.5,-258.89C1341.09,-253.74 1055.34,-239.73 815.86,-206 649.96,-182.63 610.77,-163.61 446.86,-129 438.52,-127.24 429.86,-125.4 421.18,-123.56"/>
<polygon fill="#63b8ff" stroke="#63b8ff" points="1479.5,-262.39 1489.62,-259.26 1479.75,-255.39 1479.5,-262.39"/>
</a>
</g>
</g>
<!-- Node7 -->
<g id="Node000007" class="node">
<title>Node7</title>
<g id="a_Node000007"><a xlink:href="connections_2REST_2include_2controllers_2Connect_8h.html" target="_top" xlink:title="Implements REST Connect controller.">
<polygon fill="white" stroke="#666666" points="645.36,-123.5 456.36,-123.5 456.36,-82.5 645.36,-82.5 645.36,-123.5"/>
<text text-anchor="start" x="464.36" y="-111.5" font-family="Helvetica,sans-Serif" font-size="10.00">/home/runner/work/Catena</text>
<text text-anchor="start" x="464.36" y="-100.5" font-family="Helvetica,sans-Serif" font-size="10.00">/Catena/sdks/cpp/connections</text>
<text text-anchor="middle" x="550.86" y="-89.5" font-family="Helvetica,sans-Serif" font-size="10.00">/REST/include/controllers/Connect.h</text>
</a>
</g>
</g>
<!-- Node1&#45;&gt;Node7 -->
<g id="edge22_Node000001_Node000007" class="edge">
<title>Node1&#45;&gt;Node7</title>
<g id="a_edge22_Node000001_Node000007"><a xlink:title=" ">
<path fill="none" stroke="#63b8ff" d="M1479.43,-255.08C1375.62,-246.54 1193.05,-229.71 1037.86,-206 865.79,-179.71 823.8,-166.65 653.86,-129 646.04,-127.27 637.91,-125.4 629.79,-123.5"/>
<polygon fill="#63b8ff" stroke="#63b8ff" points="1479.29,-258.58 1489.54,-255.91 1479.86,-251.6 1479.29,-258.58"/>
</a>
</g>
</g>
<!-- Node8 -->
<g id="Node000008" class="node">
<title>Node8</title>
<g id="a_Node000008"><a xlink:href="REST_2include_2controllers_2DeviceRequest_8h.html" target="_top" xlink:title="Implements REST DeviceRequest controller.">
<polygon fill="white" stroke="#666666" points="886.36,-123.5 663.36,-123.5 663.36,-82.5 886.36,-82.5 886.36,-123.5"/>
<text text-anchor="start" x="671.36" y="-111.5" font-family="Helvetica,sans-Serif" font-size="10.00">/home/runner/work/Catena</text>
<text text-anchor="start" x="671.36" y="-100.5" font-family="Helvetica,sans-Serif" font-size="10.00">/Catena/sdks/cpp/connections</text>
<text text-anchor="middle" x="774.86" y="-89.5" font-family="Helvetica,sans-Serif" font-size="10.00">/REST/include/controllers/DeviceRequest.h</text>
</a>
</g>
</g>
<!-- Node1&#45;&gt;Node8 -->
<g id="edge23_Node000001_Node000008" class="edge">
<title>Node1&#45;&gt;Node8</title>
<g id="a_edge23_Node000001_Node000008"><a xlink:title=" ">
<path fill="none" stroke="#63b8ff" d="M1479.49,-248.98C1411.78,-238.49 1313.91,-222.61 1228.86,-206 1097.44,-180.34 945.88,-145.15 855.35,-123.53"/>
<polygon fill="#63b8ff" stroke="#63b8ff" points="1479.25,-252.49 1489.67,-250.55 1480.32,-245.57 1479.25,-252.49"/>
</a>
</g>
</g>
<!-- Node10 -->
<g id="Node000010" class="node">
<title>Node10</title>
<g id="a_Node000010"><a xlink:href="REST_2include_2controllers_2GetParam_8h.html" target="_top" xlink:title="Implements REST GetParam controller.">
<polygon fill="white" stroke="#666666" points="1101.36,-123.5 904.36,-123.5 904.36,-82.5 1101.36,-82.5 1101.36,-123.5"/>
<text text-anchor="start" x="912.36" y="-111.5" font-family="Helvetica,sans-Serif" font-size="10.00">/home/runner/work/Catena</text>
<text text-anchor="start" x="912.36" y="-100.5" font-family="Helvetica,sans-Serif" font-size="10.00">/Catena/sdks/cpp/connections</text>
<text text-anchor="middle" x="1002.86" y="-89.5" font-family="Helvetica,sans-Serif" font-size="10.00">/REST/include/controllers/GetParam.h</text>
</a>
</g>
</g>
<!-- Node1&#45;&gt;Node10 -->
<g id="edge24_Node000001_Node000010" class="edge">
<title>Node1&#45;&gt;Node10</title>
<g id="a_edge24_Node000001_Node000010"><a xlink:title=" ">
<path fill="none" stroke="#63b8ff" d="M1483.64,-239.22C1373.72,-208.31 1176.73,-152.9 1072.29,-123.53"/>
<polygon fill="#63b8ff" stroke="#63b8ff" points="1482.77,-242.61 1493.35,-241.95 1484.67,-235.87 1482.77,-242.61"/>
</a>
</g>
</g>
<!-- Node11 -->
<g id="Node000011" class="node">
<title>Node11</title>
<g id="a_Node000011"><a xlink:href="REST_2include_2controllers_2GetPopulatedSlots_8h.html" target="_top" xlink:title="Implements REST GetPopulatedSlots controller.">
<polygon fill="white" stroke="#666666" points="2061.86,-129 1855.86,-129 1855.86,-77 2061.86,-77 2061.86,-129"/>
<text text-anchor="start" x="1863.86" y="-117" font-family="Helvetica,sans-Serif" font-size="10.00">/home/runner/work/Catena</text>
<text text-anchor="start" x="1863.86" y="-106" font-family="Helvetica,sans-Serif" font-size="10.00">/Catena/sdks/cpp/connections</text>
<text text-anchor="start" x="1863.86" y="-95" font-family="Helvetica,sans-Serif" font-size="10.00">/REST/include/controllers/GetPopulated</text>
<text text-anchor="middle" x="1958.86" y="-84" font-family="Helvetica,sans-Serif" font-size="10.00">Slots.h</text>
</a>
</g>
</g>
<!-- Node1&#45;&gt;Node11 -->
<g id="edge25_Node000001_Node000011" class="edge">
<title>Node1&#45;&gt;Node11</title>
<g id="a_edge25_Node000001_Node000011"><a xlink:title=" ">
<path fill="none" stroke="#63b8ff" d="M1621.79,-238.06C1695.28,-208.83 1820.42,-159.06 1895.79,-129.08"/>
<polygon fill="#63b8ff" stroke="#63b8ff" points="1620.21,-234.92 1612.21,-241.87 1622.79,-241.43 1620.21,-234.92"/>
</a>
</g>
</g>
<!-- Node12 -->
<g id="Node000012" class="node">
<title>Node12</title>
<g id="a_Node000012"><a xlink:href="REST_2include_2controllers_2GetValue_8h.html" target="_top" xlink:title="Implements REST GetValue controller.">
<polygon fill="white" stroke="#666666" points="2273.86,-123.5 2079.86,-123.5 2079.86,-82.5 2273.86,-82.5 2273.86,-123.5"/>
<text text-anchor="start" x="2087.86" y="-111.5" font-family="Helvetica,sans-Serif" font-size="10.00">/home/runner/work/Catena</text>
<text text-anchor="start" x="2087.86" y="-100.5" font-family="Helvetica,sans-Serif" font-size="10.00">/Catena/sdks/cpp/connections</text>
<text text-anchor="middle" x="2176.86" y="-89.5" font-family="Helvetica,sans-Serif" font-size="10.00">/REST/include/controllers/GetValue.h</text>
</a>
</g>
</g>
<!-- Node1&#45;&gt;Node12 -->
<g id="edge26_Node000001_Node000012" class="edge">
<title>Node1&#45;&gt;Node12</title>
<g id="a_edge26_Node000001_Node000012"><a xlink:title=" ">
<path fill="none" stroke="#63b8ff" d="M1645.86,-240.21C1765.61,-209.49 1985.11,-153.19 2100.83,-123.5"/>
<polygon fill="#63b8ff" stroke="#63b8ff" points="1644.82,-236.86 1636,-242.74 1646.56,-243.64 1644.82,-236.86"/>
</a>
</g>
</g>
<!-- Node13 -->
<g id="Node000013" class="node">
<title>Node13</title>
<g id="a_Node000013"><a xlink:href="connections_2REST_2include_2controllers_2LanguagePack_8h.html" target="_top" xlink:title="Implements REST LanguagePack controller.">
<polygon fill="white" stroke="#666666" points="2511.36,-123.5 2292.36,-123.5 2292.36,-82.5 2511.36,-82.5 2511.36,-123.5"/>
<text text-anchor="start" x="2300.36" y="-111.5" font-family="Helvetica,sans-Serif" font-size="10.00">/home/runner/work/Catena</text>
<text text-anchor="start" x="2300.36" y="-100.5" font-family="Helvetica,sans-Serif" font-size="10.00">/Catena/sdks/cpp/connections</text>
<text text-anchor="middle" x="2401.86" y="-89.5" font-family="Helvetica,sans-Serif" font-size="10.00">/REST/include/controllers/LanguagePack.h</text>
</a>
</g>
</g>
<!-- Node1&#45;&gt;Node13 -->
<g id="edge27_Node000001_Node000013" class="edge">
<title>Node1&#45;&gt;Node13</title>
<g id="a_edge27_Node000001_Node000013"><a xlink:title=" ">
<path fill="none" stroke="#63b8ff" d="M1646.28,-246.98C1780.58,-223.41 2052.95,-174.84 2282.86,-129 2291.65,-127.25 2300.81,-125.38 2309.97,-123.5"/>
<polygon fill="#63b8ff" stroke="#63b8ff" points="1645.31,-243.59 1636.07,-248.77 1646.52,-250.49 1645.31,-243.59"/>
</a>
</g>
</g>
<!-- Node14 -->
<g id="Node000014" class="node">
<title>Node14</title>
<g id="a_Node000014"><a xlink:href="Languages_8h.html" target="_top" xlink:title="Implements REST Languages controller.">
<polygon fill="white" stroke="#666666" points="2731.86,-123.5 2529.86,-123.5 2529.86,-82.5 2731.86,-82.5 2731.86,-123.5"/>
<text text-anchor="start" x="2537.86" y="-111.5" font-family="Helvetica,sans-Serif" font-size="10.00">/home/runner/work/Catena</text>
<text text-anchor="start" x="2537.86" y="-100.5" font-family="Helvetica,sans-Serif" font-size="10.00">/Catena/sdks/cpp/connections</text>
<text text-anchor="middle" x="2630.86" y="-89.5" font-family="Helvetica,sans-Serif" font-size="10.00">/REST/include/controllers/Languages.h</text>
</a>
</g>
</g>
<!-- Node1&#45;&gt;Node14 -->
<g id="edge28_Node000001_Node000014" class="edge">
<title>Node1&#45;&gt;Node14</title>
<g id="a_edge28_Node000001_Node000014"><a xlink:title=" ">
<path fill="none" stroke="#63b8ff" d="M1646.14,-252.71C1812.95,-234.51 2199.6,-189.29 2520.86,-129 2529.71,-127.34 2538.93,-125.47 2548.11,-123.51"/>
<polygon fill="#63b8ff" stroke="#63b8ff" points="1645.51,-249.26 1635.95,-253.82 1646.27,-256.22 1645.51,-249.26"/>
</a>
</g>
</g>
<!-- Node15 -->
<g id="Node000015" class="node">
<title>Node15</title>
<g id="a_Node000015"><a xlink:href="REST_2include_2controllers_2MultiSetValue_8h.html" target="_top" xlink:title="Implements REST MultiSetValue controller.">
<polygon fill="white" stroke="#666666" points="2967.36,-123.5 2750.36,-123.5 2750.36,-82.5 2967.36,-82.5 2967.36,-123.5"/>
<text text-anchor="start" x="2758.36" y="-111.5" font-family="Helvetica,sans-Serif" font-size="10.00">/home/runner/work/Catena</text>
<text text-anchor="start" x="2758.36" y="-100.5" font-family="Helvetica,sans-Serif" font-size="10.00">/Catena/sdks/cpp/connections</text>
<text text-anchor="middle" x="2858.86" y="-89.5" font-family="Helvetica,sans-Serif" font-size="10.00">/REST/include/controllers/MultiSetValue.h</text>
</a>
</g>
</g>
<!-- Node1&#45;&gt;Node15 -->
<g id="edge29_Node000001_Node000015" class="edge">
<title>Node1&#45;&gt;Node15</title>
<g id="a_edge29_Node000001_Node000015"><a xlink:title=" ">
<path fill="none" stroke="#63b8ff" d="M1646.11,-255.64C1839.42,-241.28 2333.31,-200.2 2740.86,-129 2750.34,-127.34 2760.23,-125.47 2770.07,-123.52"/>
<polygon fill="#63b8ff" stroke="#63b8ff" points="1645.73,-252.16 1636.02,-256.39 1646.25,-259.14 1645.73,-252.16"/>
</a>
</g>
</g>
<!-- Node3 -->
<g id="Node000003" class="node">
<title>Node3</title>
<g id="a_Node000003"><a xlink:href="REST_2include_2ServiceImpl_8h.html" target="_top" xlink:title="Implements REST API.">
<polygon fill="white" stroke="#666666" points="191.36,-41 30.36,-41 30.36,0 191.36,0 191.36,-41"/>
<text text-anchor="start" x="38.36" y="-29" font-family="Helvetica,sans-Serif" font-size="10.00">/home/runner/work/Catena</text>
<text text-anchor="start" x="38.36" y="-18" font-family="Helvetica,sans-Serif" font-size="10.00">/Catena/sdks/cpp/connections</text>
<text text-anchor="middle" x="110.86" y="-7" font-family="Helvetica,sans-Serif" font-size="10.00">/REST/include/ServiceImpl.h</text>
</a>
</g>
</g>
<!-- Node2&#45;&gt;Node3 -->
<g id="edge2_Node000002_Node000003" class="edge">
<title>Node2&#45;&gt;Node3</title>
<g id="a_edge2_Node000002_Node000003"><a xlink:title=" ">
<path fill="none" stroke="#63b8ff" d="M41.82,-160.14C28.68,-152.27 16.63,-142.08 8.86,-129 -2.95,-109.13 -2.95,-96.87 8.86,-77 18.33,-61.06 34.17,-49.4 50.57,-41.02"/>
<polygon fill="#63b8ff" stroke="#63b8ff" points="40.13,-163.2 50.57,-164.98 43.52,-157.08 40.13,-163.2"/>
</a>
</g>
</g>
<!-- Node4 -->
<g id="Node000004" class="node">
<title>Node4</title>
<g id="a_Node000004"><a xlink:href="REST_2include_2interface_2ICallData_8h.html" target="_top" xlink:title="Interface class for REST controllers.">
<polygon fill="white" stroke="#666666" points="203.86,-123.5 17.86,-123.5 17.86,-82.5 203.86,-82.5 203.86,-123.5"/>
<text text-anchor="start" x="25.86" y="-111.5" font-family="Helvetica,sans-Serif" font-size="10.00">/home/runner/work/Catena</text>
<text text-anchor="start" x="25.86" y="-100.5" font-family="Helvetica,sans-Serif" font-size="10.00">/Catena/sdks/cpp/connections</text>
<text text-anchor="middle" x="110.86" y="-89.5" font-family="Helvetica,sans-Serif" font-size="10.00">/REST/include/interface/ICallData.h</text>
</a>
</g>
</g>
<!-- Node2&#45;&gt;Node4 -->
<g id="edge3_Node000002_Node000004" class="edge">
<title>Node2&#45;&gt;Node4</title>
<g id="a_edge3_Node000002_Node000004"><a xlink:title=" ">
<path fill="none" stroke="#63b8ff" d="M110.86,-154.37C110.86,-144.1 110.86,-132.9 110.86,-123.67"/>
<polygon fill="#63b8ff" stroke="#63b8ff" points="107.36,-154.6 110.86,-164.6 114.36,-154.6 107.36,-154.6"/>
</a>
</g>
</g>
<!-- Node4&#45;&gt;Node3 -->
<g id="edge4_Node000004_Node000003" class="edge">
<title>Node4&#45;&gt;Node3</title>
<g id="a_edge4_Node000004_Node000003"><a xlink:title=" ">
<path fill="none" stroke="#63b8ff" d="M110.86,-71.87C110.86,-61.6 110.86,-50.4 110.86,-41.17"/>
<polygon fill="#63b8ff" stroke="#63b8ff" points="107.36,-72.1 110.86,-82.1 114.36,-72.1 107.36,-72.1"/>
</a>
</g>
</g>
<!-- Node5&#45;&gt;Node3 -->
<g id="edge6_Node000005_Node000003" class="edge">
<title>Node5&#45;&gt;Node3</title>
<g id="a_edge6_Node000005_Node000003"><a xlink:title=" ">
<path fill="none" stroke="#63b8ff" d="M1653.54,-169.57C1719.11,-157.85 1797.89,-141.48 1807.86,-129 1822.28,-110.94 1823.93,-93.61 1807.86,-77 1751.06,-18.32 520.74,-19.65 191.36,-21.06"/>
<polygon fill="#63b8ff" stroke="#63b8ff" points="1652.79,-166.15 1643.55,-171.34 1654.01,-173.04 1652.79,-166.15"/>
</a>
</g>
</g>
<!-- Node5&#45;&gt;Node4 -->
<g id="edge20_Node000005_Node000004" class="edge">
<title>Node5&#45;&gt;Node4</title>
<g id="a_edge20_Node000005_Node000004"><a xlink:title=" ">
<path fill="none" stroke="#63b8ff" d="M1472.1,-183.13C1210.3,-178.79 456.95,-163.58 212.86,-129 203.11,-127.62 192.93,-125.71 182.95,-123.55"/>
<polygon fill="#63b8ff" stroke="#63b8ff" points="1472.27,-186.63 1482.32,-183.29 1472.38,-179.63 1472.27,-186.63"/>
</a>
</g>
</g>
<!-- Node5&#45;&gt;Node6 -->
<g id="edge7_Node000005_Node000006" class="edge">
<title>Node5&#45;&gt;Node6</title>
<g id="a_edge7_Node000005_Node000006"><a xlink:title=" ">
<path fill="none" stroke="#63b8ff" d="M1472.02,-184.91C1281.25,-184.7 825.31,-178.52 446.86,-129 435.94,-127.57 424.53,-125.66 413.3,-123.53"/>
<polygon fill="#63b8ff" stroke="#63b8ff" points="1472.27,-188.41 1482.27,-184.92 1472.28,-181.41 1472.27,-188.41"/>
</a>
</g>
</g>
<!-- Node5&#45;&gt;Node7 -->
<g id="edge8_Node000005_Node000007" class="edge">
<title>Node5&#45;&gt;Node7</title>
<g id="a_edge8_Node000005_Node000007"><a xlink:title=" ">
<path fill="none" stroke="#63b8ff" d="M1472.04,-184.26C1307.82,-182.65 950.94,-173.76 653.86,-129 644.3,-127.56 634.34,-125.66 624.53,-123.55"/>
<polygon fill="#63b8ff" stroke="#63b8ff" points="1472.07,-187.76 1482.1,-184.35 1472.13,-180.76 1472.07,-187.76"/>
</a>
</g>
</g>
<!-- Node5&#45;&gt;Node8 -->
<g id="edge9_Node000005_Node000008" class="edge">
<title>Node5&#45;&gt;Node8</title>
<g id="a_edge9_Node000005_Node000008"><a xlink:title=" ">
<path fill="none" stroke="#63b8ff" d="M1472.08,-180.49C1343.2,-173.99 1100.05,-158.78 894.86,-129 884.33,-127.47 873.33,-125.59 862.46,-123.54"/>
<polygon fill="#63b8ff" stroke="#63b8ff" points="1472.13,-184 1482.29,-181 1472.48,-177 1472.13,-184"/>
</a>
</g>
</g>
<!-- Node9 -->
<g id="Node000009" class="node">
<title>Node9</title>
<g id="a_Node000009"><a xlink:href="REST_2include_2controllers_2ExecuteCommand_8h.html" target="_top" xlink:title="Implements REST ExecuteCommand controller.">
<polygon fill="white" stroke="#666666" points="1357.86,-123.5 1119.86,-123.5 1119.86,-82.5 1357.86,-82.5 1357.86,-123.5"/>
<text text-anchor="start" x="1127.86" y="-111.5" font-family="Helvetica,sans-Serif" font-size="10.00">/home/runner/work/Catena</text>
<text text-anchor="start" x="1127.86" y="-100.5" font-family="Helvetica,sans-Serif" font-size="10.00">/Catena/sdks/cpp/connections</text>
<text text-anchor="middle" x="1238.86" y="-89.5" font-family="Helvetica,sans-Serif" font-size="10.00">/REST/include/controllers/ExecuteCommand.h</text>
</a>
</g>
</g>
<!-- Node5&#45;&gt;Node9 -->
<g id="edge10_Node000005_Node000009" class="edge">
<title>Node5&#45;&gt;Node9</title>
<g id="a_edge10_Node000005_Node000009"><a xlink:title=" ">
<path fill="none" stroke="#63b8ff" d="M1474.05,-162.44C1425.07,-150.27 1364.77,-135.28 1317.49,-123.54"/>
<polygon fill="#63b8ff" stroke="#63b8ff" points="1473.46,-165.9 1484.01,-164.91 1475.15,-159.1 1473.46,-165.9"/>
</a>
</g>
</g>
<!-- Node5&#45;&gt;Node10 -->
<g id="edge11_Node000005_Node000010" class="edge">
<title>Node5&#45;&gt;Node10</title>
<g id="a_edge11_Node000005_Node000010"><a xlink:title=" ">
<path fill="none" stroke="#63b8ff" d="M1471.98,-176.18C1380.41,-167.13 1235.24,-150.97 1110.86,-129 1101.76,-127.39 1092.28,-125.51 1082.87,-123.51"/>
<polygon fill="#63b8ff" stroke="#63b8ff" points="1471.76,-179.68 1482.05,-177.17 1472.44,-172.71 1471.76,-179.68"/>
</a>
</g>
</g>
<!-- Node5&#45;&gt;Node11 -->
<g id="edge12_Node000005_Node000011" class="edge">
<title>Node5&#45;&gt;Node11</title>
<g id="a_edge12_Node000005_Node000011"><a xlink:title=" ">
<path fill="none" stroke="#63b8ff" d="M1653.5,-166.81C1708.11,-156.06 1779.02,-141.96 1841.86,-129 1846.43,-128.06 1851.11,-127.08 1855.83,-126.1"/>
<polygon fill="#63b8ff" stroke="#63b8ff" points="1652.63,-163.41 1643.5,-168.77 1653.98,-170.28 1652.63,-163.41"/>
</a>
</g>
</g>
<!-- Node5&#45;&gt;Node12 -->
<g id="edge13_Node000005_Node000012" class="edge">
<title>Node5&#45;&gt;Node12</title>
<g id="a_edge13_Node000005_Node000012"><a xlink:title=" ">
<path fill="none" stroke="#63b8ff" d="M1654.06,-177.93C1756.1,-169.79 1926.09,-153.88 2070.86,-129 2079.99,-127.43 2089.51,-125.55 2098.93,-123.52"/>
<polygon fill="#63b8ff" stroke="#63b8ff" points="1653.48,-174.47 1643.79,-178.74 1654.03,-181.44 1653.48,-174.47"/>
</a>
</g>
</g>
<!-- Node5&#45;&gt;Node13 -->
<g id="edge14_Node000005_Node000013" class="edge">
<title>Node5&#45;&gt;Node13</title>
<g id="a_edge14_Node000005_Node000013"><a xlink:title=" ">
<path fill="none" stroke="#63b8ff" d="M1653.43,-181.3C1790.32,-175.62 2057.8,-161.17 2282.86,-129 2293.41,-127.49 2304.43,-125.6 2315.32,-123.55"/>
<polygon fill="#63b8ff" stroke="#63b8ff" points="1653.25,-177.81 1643.41,-181.71 1653.54,-184.8 1653.25,-177.81"/>
</a>
</g>
</g>
<!-- Node5&#45;&gt;Node14 -->
<g id="edge15_Node000005_Node000014" class="edge">
<title>Node5&#45;&gt;Node14</title>
<g id="a_edge15_Node000005_Node000014"><a xlink:title=" ">
<path fill="none" stroke="#63b8ff" d="M1653.61,-184.23C1824.3,-182.63 2204.43,-173.81 2520.86,-129 2531.04,-127.56 2541.67,-125.66 2552.14,-123.54"/>
<polygon fill="#63b8ff" stroke="#63b8ff" points="1653.38,-180.73 1643.41,-184.32 1653.44,-187.73 1653.38,-180.73"/>
</a>
</g>
</g>
<!-- Node5&#45;&gt;Node15 -->
<g id="edge16_Node000005_Node000015" class="edge">
<title>Node5&#45;&gt;Node15</title>
<g id="a_edge16_Node000005_Node000015"><a xlink:title=" ">
<path fill="none" stroke="#63b8ff" d="M1653.66,-185.21C1851.9,-185.66 2337.92,-180.83 2740.86,-129 2751.86,-127.58 2763.37,-125.68 2774.7,-123.56"/>
<polygon fill="#63b8ff" stroke="#63b8ff" points="1653.6,-181.71 1643.59,-185.18 1653.58,-188.71 1653.6,-181.71"/>
</a>
</g>
</g>
<!-- Node17 -->
<g id="Node000017" class="node">
<title>Node17</title>
<g id="a_Node000017"><a xlink:href="REST_2include_2controllers_2ParamInfoRequest_8h.html" target="_top" xlink:title="Implements REST ParamInfoRequest controller.">
<polygon fill="white" stroke="#666666" points="1565.86,-129 1375.86,-129 1375.86,-77 1565.86,-77 1565.86,-129"/>
<text text-anchor="start" x="1383.86" y="-117" font-family="Helvetica,sans-Serif" font-size="10.00">/home/runner/work/Catena</text>
<text text-anchor="start" x="1383.86" y="-106" font-family="Helvetica,sans-Serif" font-size="10.00">/Catena/sdks/cpp/connections</text>
<text text-anchor="start" x="1383.86" y="-95" font-family="Helvetica,sans-Serif" font-size="10.00">/REST/include/controllers/ParamInfo</text>
<text text-anchor="middle" x="1470.86" y="-84" font-family="Helvetica,sans-Serif" font-size="10.00">Request.h</text>
</a>
</g>
</g>
<!-- Node5&#45;&gt;Node17 -->
<g id="edge18_Node000005_Node000017" class="edge">
<title>Node5&#45;&gt;Node17</title>
<g id="a_edge18_Node000005_Node000017"><a xlink:title=" ">
<path fill="none" stroke="#63b8ff" d="M1532.33,-157.79C1521.78,-148.56 1510.01,-138.26 1499.6,-129.16"/>
<polygon fill="#63b8ff" stroke="#63b8ff" points="1530.28,-160.65 1540.11,-164.6 1534.89,-155.38 1530.28,-160.65"/>
</a>
</g>
</g>
<!-- Node18 -->
<g id="Node000018" class="node">
<title>Node18</title>
<g id="a_Node000018"><a xlink:href="Subscriptions_8h.html" target="_top" xlink:title="Implements Catena REST Subscriptions.">
<polygon fill="white" stroke="#666666" points="1799.36,-123.5 1584.36,-123.5 1584.36,-82.5 1799.36,-82.5 1799.36,-123.5"/>
<text text-anchor="start" x="1592.36" y="-111.5" font-family="Helvetica,sans-Serif" font-size="10.00">/home/runner/work/Catena</text>
<text text-anchor="start" x="1592.36" y="-100.5" font-family="Helvetica,sans-Serif" font-size="10.00">/Catena/sdks/cpp/connections</text>
<text text-anchor="middle" x="1691.86" y="-89.5" font-family="Helvetica,sans-Serif" font-size="10.00">/REST/include/controllers/Subscriptions.h</text>
</a>
</g>
</g>
<!-- Node5&#45;&gt;Node18 -->
<g id="edge19_Node000005_Node000018" class="edge">
<title>Node5&#45;&gt;Node18</title>
<g id="a_edge19_Node000005_Node000018"><a xlink:title=" ">
<path fill="none" stroke="#63b8ff" d="M1602.91,-159.51C1621.34,-148 1642.9,-134.55 1660.18,-123.77"/>
<polygon fill="#63b8ff" stroke="#63b8ff" points="1601.04,-156.54 1594.41,-164.81 1604.75,-162.48 1601.04,-156.54"/>
</a>
</g>
</g>
<!-- Node16 -->
<g id="Node000016" class="node">
<title>Node16</title>
<g id="a_Node000016"><a xlink:href="REST_2include_2controllers_2SetValue_8h.html" target="_top" xlink:title="Implements REST SetValue controller.">
<polygon fill="white" stroke="#666666" points="2954.86,-41 2762.86,-41 2762.86,0 2954.86,0 2954.86,-41"/>
<text text-anchor="start" x="2770.86" y="-29" font-family="Helvetica,sans-Serif" font-size="10.00">/home/runner/work/Catena</text>
<text text-anchor="start" x="2770.86" y="-18" font-family="Helvetica,sans-Serif" font-size="10.00">/Catena/sdks/cpp/connections</text>
<text text-anchor="middle" x="2858.86" y="-7" font-family="Helvetica,sans-Serif" font-size="10.00">/REST/include/controllers/SetValue.h</text>
</a>
</g>
</g>
<!-- Node15&#45;&gt;Node16 -->
<g id="edge17_Node000015_Node000016" class="edge">
<title>Node15&#45;&gt;Node16</title>
<g id="a_edge17_Node000015_Node000016"><a xlink:title=" ">
<path fill="none" stroke="#63b8ff" d="M2858.86,-71.87C2858.86,-61.6 2858.86,-50.4 2858.86,-41.17"/>
<polygon fill="#63b8ff" stroke="#63b8ff" points="2855.36,-72.1 2858.86,-82.1 2862.36,-72.1 2855.36,-72.1"/>
</a>
</g>
</g>
</g>
</svg>

<g id="navigator" transform="translate(0 0)" fill="#404254">
  <rect fill="#f2f5e9" fill-opacity="0.5" stroke="#606060" stroke-width=".5" x="0" y="0" width="60" height="60"/>
  <use id="zoomplus" xlink:href="#zoomPlus" x="17" y="9" onmousedown="handleZoom(evt,'in')"/>
  <use id="zoomminus" xlink:href="#zoomMin" x="42" y="9" onmousedown="handleZoom(evt,'out')"/>
  <use id="reset" xlink:href="#resetDef" x="30" y="36" onmousedown="handleReset()"/>
   <use id="arrowup" xlink:href="#arrowUp" x="0" y="0" onmousedown="handlePan(0,-1)"/>
  <use id="arrowright" xlink:href="#arrowRight" x="0" y="0" onmousedown="handlePan(1,0)"/>
  <use id="arrowdown" xlink:href="#arrowDown" x="0" y="0" onmousedown="handlePan(0,1)"/>
  <use id="arrowleft" xlink:href="#arrowLeft" x="0" y="0" onmousedown="handlePan(-1,0)"/>
</g>
<svg viewBox="0 0 15 15" width="100%" height="30px" preserveAspectRatio="xMaxYMin meet">
 <g id="arrow_out" transform="scale(0.3 0.3)">
  <a xlink:href="utils_8h__dep__incl_org.svg" target="_base">
   <rect id="button" ry="5" rx="5" y="6" x="6" height="38" width="38"
        fill="#f2f5e9" fill-opacity="0.5" stroke="#606060" stroke-width="1.0"/>
   <path id="arrow"
     d="M 11.500037,31.436501 C 11.940474,20.09759 22.043105,11.32322 32.158766,21.979434 L 37.068811,17.246167 C 37.068811,17.246167 37.088388,32 37.088388,32 L 22.160133,31.978069 C 22.160133,31.978069 26.997745,27.140456 26.997745,27.140456 C 18.528582,18.264221 13.291696,25.230495 11.500037,31.436501 z"
     style="fill:#404040;"/>
  </a>
 </g>
</svg>

<style type='text/css'>
<![CDATA[
[data-mouse-over-selected='false'] { opacity: 0.7; }
[data-mouse-over-selected='true']  { opacity: 1.0; }
]]>
</style>
<script type="application/ecmascript"><![CDATA[
document.addEventListener('DOMContentLoaded', (event) => {
  highlightEdges();
  highlightAdjacentNodes();
});
]]></script>
</svg>
