<?xml version="1.0" encoding="UTF-8" standalone="no"?>
<!DOCTYPE svg PUBLIC "-//W3C//DTD SVG 1.1//EN"
 "http://www.w3.org/Graphics/SVG/1.1/DTD/svg11.dtd">
<!-- Generated by graphviz version 2.43.0 (0)
 -->
<!-- Title: /home/runner/work/Catena/Catena/sdks/cpp/common/include/utils.h Pages: 1 -->
<svg width="3259pt" height="291pt"
 viewBox="0.00 0.00 3259.36 291.00" xmlns="http://www.w3.org/2000/svg" xmlns:xlink="http://www.w3.org/1999/xlink">
<g id="graph0" class="graph" transform="scale(1 1) rotate(0) translate(4 287)">
<title>/home/runner/work/Catena/Catena/sdks/cpp/common/include/utils.h</title>
<!-- Node1 -->
<g id="Node000001" class="node">
<title>Node1</title>
<g id="a_Node000001"><a xlink:title="Utility functions.">
<polygon fill="#999999" stroke="#666666" points="1730.86,-283 1584.86,-283 1584.86,-242 1730.86,-242 1730.86,-283"/>
<text text-anchor="start" x="1592.86" y="-271" font-family="Helvetica,sans-Serif" font-size="10.00">/home/runner/work/Catena</text>
<text text-anchor="start" x="1592.86" y="-260" font-family="Helvetica,sans-Serif" font-size="10.00">/Catena/sdks/cpp/common</text>
<text text-anchor="middle" x="1657.86" y="-249" font-family="Helvetica,sans-Serif" font-size="10.00">/include/utils.h</text>
</a>
</g>
</g>
<!-- Node2 -->
<g id="Node000002" class="node">
<title>Node2</title>
<g id="a_Node000002"><a xlink:href="SocketReader_8h.html" target="_top" xlink:title="Helper class used to read from a socket using boost.">
<polygon fill="white" stroke="#666666" points="191.36,-206 30.36,-206 30.36,-165 191.36,-165 191.36,-206"/>
<text text-anchor="start" x="38.36" y="-194" font-family="Helvetica,sans-Serif" font-size="10.00">/home/runner/work/Catena</text>
<text text-anchor="start" x="38.36" y="-183" font-family="Helvetica,sans-Serif" font-size="10.00">/Catena/sdks/cpp/connections</text>
<text text-anchor="middle" x="110.86" y="-172" font-family="Helvetica,sans-Serif" font-size="10.00">/REST/include/SocketReader.h</text>
</a>
</g>
</g>
<!-- Node1&#45;&gt;Node2 -->
<g id="edge1_Node000001_Node000002" class="edge">
<title>Node1&#45;&gt;Node2</title>
<g id="a_edge1_Node000001_Node000002"><a xlink:title=" ">
<path fill="none" stroke="#63b8ff" d="M1574.6,-257.85C1380.6,-249.28 883.35,-227.04 467.86,-206 373.01,-201.2 264.01,-195.17 191.66,-191.1"/>
<polygon fill="#63b8ff" stroke="#63b8ff" points="1574.58,-261.35 1584.72,-258.29 1574.89,-254.35 1574.58,-261.35"/>
</a>
</g>
</g>
<!-- Node5 -->
<g id="Node000005" class="node">
<title>Node5</title>
<g id="a_Node000005"><a xlink:href="SocketWriter_8h.html" target="_top" xlink:title="Helper class used to write to a socket using boost.">
<polygon fill="white" stroke="#666666" points="1684.36,-206 1523.36,-206 1523.36,-165 1684.36,-165 1684.36,-206"/>
<text text-anchor="start" x="1531.36" y="-194" font-family="Helvetica,sans-Serif" font-size="10.00">/home/runner/work/Catena</text>
<text text-anchor="start" x="1531.36" y="-183" font-family="Helvetica,sans-Serif" font-size="10.00">/Catena/sdks/cpp/connections</text>
<text text-anchor="middle" x="1603.86" y="-172" font-family="Helvetica,sans-Serif" font-size="10.00">/REST/include/SocketWriter.h</text>
</a>
</g>
</g>
<!-- Node1&#45;&gt;Node5 -->
<g id="edge5_Node000001_Node000005" class="edge">
<title>Node1&#45;&gt;Node5</title>
<g id="a_edge5_Node000001_Node000005"><a xlink:title=" ">
<path fill="none" stroke="#63b8ff" d="M1637.82,-233.67C1631.22,-224.5 1624.01,-214.5 1617.95,-206.07"/>
<polygon fill="#63b8ff" stroke="#63b8ff" points="1634.98,-235.72 1643.67,-241.79 1640.67,-231.63 1634.98,-235.72"/>
</a>
</g>
</g>
<!-- Node6 -->
<g id="Node000006" class="node">
<title>Node6</title>
<g id="a_Node000006"><a xlink:href="REST_2include_2controllers_2AddLanguage_8h.html" target="_top" xlink:title="Implements REST AddLanguage controller.">
<polygon fill="white" stroke="#666666" points="437.36,-123.5 222.36,-123.5 222.36,-82.5 437.36,-82.5 437.36,-123.5"/>
<text text-anchor="start" x="230.36" y="-111.5" font-family="Helvetica,sans-Serif" font-size="10.00">/home/runner/work/Catena</text>
<text text-anchor="start" x="230.36" y="-100.5" font-family="Helvetica,sans-Serif" font-size="10.00">/Catena/sdks/cpp/connections</text>
<text text-anchor="middle" x="329.86" y="-89.5" font-family="Helvetica,sans-Serif" font-size="10.00">/REST/include/controllers/AddLanguage.h</text>
</a>
</g>
</g>
<!-- Node1&#45;&gt;Node6 -->
<g id="edge22_Node000001_Node000006" class="edge">
<title>Node1&#45;&gt;Node6</title>
<g id="a_edge22_Node000001_Node000006"><a xlink:title=" ">
<path fill="none" stroke="#63b8ff" d="M1574.4,-259.3C1426.04,-254.62 1106.88,-241.08 839.86,-206 663.38,-182.82 621.22,-164.71 446.86,-129 438.31,-127.25 429.42,-125.4 420.52,-123.53"/>
<polygon fill="#63b8ff" stroke="#63b8ff" points="1574.68,-262.81 1584.78,-259.62 1574.89,-255.81 1574.68,-262.81"/>
</a>
</g>
</g>
<!-- Node7 -->
<g id="Node000007" class="node">
<title>Node7</title>
<g id="a_Node000007"><a xlink:href="AssetRequest_8h.html" target="_top" xlink:title="Implements REST AssetRequest controller.">
<polygon fill="white" stroke="#666666" points="671.86,-123.5 455.86,-123.5 455.86,-82.5 671.86,-82.5 671.86,-123.5"/>
<text text-anchor="start" x="463.86" y="-111.5" font-family="Helvetica,sans-Serif" font-size="10.00">/home/runner/work/Catena</text>
<text text-anchor="start" x="463.86" y="-100.5" font-family="Helvetica,sans-Serif" font-size="10.00">/Catena/sdks/cpp/connections</text>
<text text-anchor="middle" x="563.86" y="-89.5" font-family="Helvetica,sans-Serif" font-size="10.00">/REST/include/controllers/AssetRequest.h</text>
</a>
</g>
</g>
<!-- Node1&#45;&gt;Node7 -->
<g id="edge23_Node000001_Node000007" class="edge">
<title>Node1&#45;&gt;Node7</title>
<g id="a_edge23_Node000001_Node000007"><a xlink:title=" ">
<path fill="none" stroke="#63b8ff" d="M1574.34,-256.67C1458.11,-249.28 1241.18,-233.12 1057.86,-206 888.68,-180.98 848.25,-163.98 680.86,-129 672.42,-127.24 663.64,-125.39 654.86,-123.53"/>
<polygon fill="#63b8ff" stroke="#63b8ff" points="1574.38,-260.18 1584.58,-257.31 1574.82,-253.19 1574.38,-260.18"/>
</a>
</g>
</g>
<!-- Node9 -->
<g id="Node000009" class="node">
<title>Node9</title>
<g id="a_Node000009"><a xlink:href="connections_2REST_2include_2controllers_2Connect_8h.html" target="_top" xlink:title="Implements REST Connect controller.">
<polygon fill="white" stroke="#666666" points="879.36,-123.5 690.36,-123.5 690.36,-82.5 879.36,-82.5 879.36,-123.5"/>
<text text-anchor="start" x="698.36" y="-111.5" font-family="Helvetica,sans-Serif" font-size="10.00">/home/runner/work/Catena</text>
<text text-anchor="start" x="698.36" y="-100.5" font-family="Helvetica,sans-Serif" font-size="10.00">/Catena/sdks/cpp/connections</text>
<text text-anchor="middle" x="784.86" y="-89.5" font-family="Helvetica,sans-Serif" font-size="10.00">/REST/include/controllers/Connect.h</text>
</a>
</g>
</g>
<!-- Node1&#45;&gt;Node9 -->
<g id="edge24_Node000001_Node000009" class="edge">
<title>Node1&#45;&gt;Node9</title>
<g id="a_edge24_Node000001_Node000009"><a xlink:title=" ">
<path fill="none" stroke="#63b8ff" d="M1574.35,-249.81C1499.87,-239.16 1387.92,-222.61 1290.86,-206 1111.12,-175.25 1066.07,-167.63 887.86,-129 879.94,-127.28 871.71,-125.42 863.49,-123.51"/>
<polygon fill="#63b8ff" stroke="#63b8ff" points="1574.21,-253.33 1584.61,-251.27 1575.2,-246.4 1574.21,-253.33"/>
</a>
</g>
</g>
<!-- Node10 -->
<g id="Node000010" class="node">
<title>Node10</title>
<g id="a_Node000010"><a xlink:href="REST_2include_2controllers_2DeviceRequest_8h.html" target="_top" xlink:title="Implements REST DeviceRequest controller.">
<polygon fill="white" stroke="#666666" points="1120.36,-123.5 897.36,-123.5 897.36,-82.5 1120.36,-82.5 1120.36,-123.5"/>
<text text-anchor="start" x="905.36" y="-111.5" font-family="Helvetica,sans-Serif" font-size="10.00">/home/runner/work/Catena</text>
<text text-anchor="start" x="905.36" y="-100.5" font-family="Helvetica,sans-Serif" font-size="10.00">/Catena/sdks/cpp/connections</text>
<text text-anchor="middle" x="1008.86" y="-89.5" font-family="Helvetica,sans-Serif" font-size="10.00">/REST/include/controllers/DeviceRequest.h</text>
</a>
</g>
</g>
<!-- Node1&#45;&gt;Node10 -->
<g id="edge25_Node000001_Node000010" class="edge">
<title>Node1&#45;&gt;Node10</title>
<g id="a_edge25_Node000001_Node000010"><a xlink:title=" ">
<path fill="none" stroke="#63b8ff" d="M1577.64,-239.32C1503.46,-219.07 1390.03,-188.75 1290.86,-165 1228.87,-150.15 1158.83,-134.99 1104.06,-123.5"/>
<polygon fill="#63b8ff" stroke="#63b8ff" points="1576.82,-242.72 1587.39,-241.98 1578.67,-235.97 1576.82,-242.72"/>
</a>
</g>
</g>
<!-- Node12 -->
<g id="Node000012" class="node">
<title>Node12</title>
<g id="a_Node000012"><a xlink:href="REST_2include_2controllers_2GetParam_8h.html" target="_top" xlink:title="Implements REST GetParam controller.">
<polygon fill="white" stroke="#666666" points="2114.36,-123.5 1917.36,-123.5 1917.36,-82.5 2114.36,-82.5 2114.36,-123.5"/>
<text text-anchor="start" x="1925.36" y="-111.5" font-family="Helvetica,sans-Serif" font-size="10.00">/home/runner/work/Catena</text>
<text text-anchor="start" x="1925.36" y="-100.5" font-family="Helvetica,sans-Serif" font-size="10.00">/Catena/sdks/cpp/connections</text>
<text text-anchor="middle" x="2015.86" y="-89.5" font-family="Helvetica,sans-Serif" font-size="10.00">/REST/include/controllers/GetParam.h</text>
</a>
</g>
</g>
<!-- Node1&#45;&gt;Node12 -->
<g id="edge26_Node000001_Node000012" class="edge">
<title>Node1&#45;&gt;Node12</title>
<g id="a_edge26_Node000001_Node000012"><a xlink:title=" ">
<path fill="none" stroke="#63b8ff" d="M1711.69,-237.82C1782.54,-206.65 1905.76,-152.44 1971.52,-123.5"/>
<polygon fill="#63b8ff" stroke="#63b8ff" points="1710.22,-234.64 1702.47,-241.87 1713.04,-241.05 1710.22,-234.64"/>
</a>
</g>
</g>
<!-- Node13 -->
<g id="Node000013" class="node">
<title>Node13</title>
<g id="a_Node000013"><a xlink:href="REST_2include_2controllers_2GetPopulatedSlots_8h.html" target="_top" xlink:title="Implements REST GetPopulatedSlots controller.">
<polygon fill="white" stroke="#666666" points="2338.86,-129 2132.86,-129 2132.86,-77 2338.86,-77 2338.86,-129"/>
<text text-anchor="start" x="2140.86" y="-117" font-family="Helvetica,sans-Serif" font-size="10.00">/home/runner/work/Catena</text>
<text text-anchor="start" x="2140.86" y="-106" font-family="Helvetica,sans-Serif" font-size="10.00">/Catena/sdks/cpp/connections</text>
<text text-anchor="start" x="2140.86" y="-95" font-family="Helvetica,sans-Serif" font-size="10.00">/REST/include/controllers/GetPopulated</text>
<text text-anchor="middle" x="2235.86" y="-84" font-family="Helvetica,sans-Serif" font-size="10.00">Slots.h</text>
</a>
</g>
</g>
<!-- Node1&#45;&gt;Node13 -->
<g id="edge27_Node000001_Node000013" class="edge">
<title>Node1&#45;&gt;Node13</title>
<g id="a_edge27_Node000001_Node000013"><a xlink:title=" ">
<path fill="none" stroke="#63b8ff" d="M1739.34,-239.3C1845.91,-210.26 2032.11,-159.52 2143.7,-129.11"/>
<polygon fill="#63b8ff" stroke="#63b8ff" points="1738.33,-235.94 1729.6,-241.95 1740.17,-242.7 1738.33,-235.94"/>
</a>
</g>
</g>
<!-- Node14 -->
<g id="Node000014" class="node">
<title>Node14</title>
<g id="a_Node000014"><a xlink:href="REST_2include_2controllers_2GetValue_8h.html" target="_top" xlink:title="Implements REST GetValue controller.">
<polygon fill="white" stroke="#666666" points="2550.86,-123.5 2356.86,-123.5 2356.86,-82.5 2550.86,-82.5 2550.86,-123.5"/>
<text text-anchor="start" x="2364.86" y="-111.5" font-family="Helvetica,sans-Serif" font-size="10.00">/home/runner/work/Catena</text>
<text text-anchor="start" x="2364.86" y="-100.5" font-family="Helvetica,sans-Serif" font-size="10.00">/Catena/sdks/cpp/connections</text>
<text text-anchor="middle" x="2453.86" y="-89.5" font-family="Helvetica,sans-Serif" font-size="10.00">/REST/include/controllers/GetValue.h</text>
</a>
</g>
</g>
<!-- Node1&#45;&gt;Node14 -->
<g id="edge28_Node000001_Node000014" class="edge">
<title>Node1&#45;&gt;Node14</title>
<g id="a_edge28_Node000001_Node000014"><a xlink:title=" ">
<path fill="none" stroke="#63b8ff" d="M1740.98,-246.78C1870.86,-223.49 2129.65,-175.98 2347.86,-129 2355.9,-127.27 2364.26,-125.4 2372.62,-123.5"/>
<polygon fill="#63b8ff" stroke="#63b8ff" points="1740.32,-243.34 1731.09,-248.55 1741.56,-250.23 1740.32,-243.34"/>
</a>
</g>
</g>
<!-- Node15 -->
<g id="Node000015" class="node">
<title>Node15</title>
<g id="a_Node000015"><a xlink:href="REST_2include_2controllers_2LanguagePackRequest_8h.html" target="_top" xlink:title="Implements REST LanguagePackRequest controller.">
<polygon fill="white" stroke="#666666" points="2778.86,-129 2568.86,-129 2568.86,-77 2778.86,-77 2778.86,-129"/>
<text text-anchor="start" x="2576.86" y="-117" font-family="Helvetica,sans-Serif" font-size="10.00">/home/runner/work/Catena</text>
<text text-anchor="start" x="2576.86" y="-106" font-family="Helvetica,sans-Serif" font-size="10.00">/Catena/sdks/cpp/connections</text>
<text text-anchor="start" x="2576.86" y="-95" font-family="Helvetica,sans-Serif" font-size="10.00">/REST/include/controllers/LanguagePack</text>
<text text-anchor="middle" x="2673.86" y="-84" font-family="Helvetica,sans-Serif" font-size="10.00">Request.h</text>
</a>
</g>
</g>
<!-- Node1&#45;&gt;Node15 -->
<g id="edge29_Node000001_Node000015" class="edge">
<title>Node1&#45;&gt;Node15</title>
<g id="a_edge29_Node000001_Node000015"><a xlink:title=" ">
<path fill="none" stroke="#63b8ff" d="M1741.2,-251.62C1900.79,-232.19 2260.29,-185.88 2559.86,-129 2562.74,-128.45 2565.67,-127.89 2568.62,-127.31"/>
<polygon fill="#63b8ff" stroke="#63b8ff" points="1740.49,-248.18 1730.98,-252.86 1741.33,-255.13 1740.49,-248.18"/>
</a>
</g>
</g>
<!-- Node16 -->
<g id="Node000016" class="node">
<title>Node16</title>
<g id="a_Node000016"><a xlink:href="REST_2include_2controllers_2ListLanguages_8h.html" target="_top" xlink:title="Implements REST ListLanguages controller.">
<polygon fill="white" stroke="#666666" points="3016.36,-123.5 2797.36,-123.5 2797.36,-82.5 3016.36,-82.5 3016.36,-123.5"/>
<text text-anchor="start" x="2805.36" y="-111.5" font-family="Helvetica,sans-Serif" font-size="10.00">/home/runner/work/Catena</text>
<text text-anchor="start" x="2805.36" y="-100.5" font-family="Helvetica,sans-Serif" font-size="10.00">/Catena/sdks/cpp/connections</text>
<text text-anchor="middle" x="2906.86" y="-89.5" font-family="Helvetica,sans-Serif" font-size="10.00">/REST/include/controllers/ListLanguages.h</text>
</a>
</g>
</g>
<!-- Node1&#45;&gt;Node16 -->
<g id="edge30_Node000001_Node000016" class="edge">
<title>Node1&#45;&gt;Node16</title>
<g id="a_edge30_Node000001_Node000016"><a xlink:title=" ">
<path fill="none" stroke="#63b8ff" d="M1741.04,-254.93C1928.71,-239.41 2398.99,-196.64 2787.86,-129 2797.42,-127.34 2807.39,-125.46 2817.32,-123.51"/>
<polygon fill="#63b8ff" stroke="#63b8ff" points="1740.65,-251.45 1730.97,-255.76 1741.22,-258.43 1740.65,-251.45"/>
</a>
</g>
</g>
<!-- Node17 -->
<g id="Node000017" class="node">
<title>Node17</title>
<g id="a_Node000017"><a xlink:href="REST_2include_2controllers_2MultiSetValue_8h.html" target="_top" xlink:title="Implements REST MultiSetValue controller.">
<polygon fill="white" stroke="#666666" points="3251.36,-123.5 3034.36,-123.5 3034.36,-82.5 3251.36,-82.5 3251.36,-123.5"/>
<text text-anchor="start" x="3042.36" y="-111.5" font-family="Helvetica,sans-Serif" font-size="10.00">/home/runner/work/Catena</text>
<text text-anchor="start" x="3042.36" y="-100.5" font-family="Helvetica,sans-Serif" font-size="10.00">/Catena/sdks/cpp/connections</text>
<text text-anchor="middle" x="3142.86" y="-89.5" font-family="Helvetica,sans-Serif" font-size="10.00">/REST/include/controllers/MultiSetValue.h</text>
</a>
</g>
</g>
<!-- Node1&#45;&gt;Node17 -->
<g id="edge31_Node000001_Node000017" class="edge">
<title>Node1&#45;&gt;Node17</title>
<g id="a_edge31_Node000001_Node000017"><a xlink:title=" ">
<path fill="none" stroke="#63b8ff" d="M1741.24,-257.59C1955.67,-246.63 2543.27,-210.92 3025.86,-129 3035.48,-127.37 3045.51,-125.49 3055.48,-123.51"/>
<polygon fill="#63b8ff" stroke="#63b8ff" points="1740.82,-254.11 1731.01,-258.11 1741.17,-261.1 1740.82,-254.11"/>
</a>
</g>
</g>
<!-- Node3 -->
<g id="Node000003" class="node">
<title>Node3</title>
<g id="a_Node000003"><a xlink:href="REST_2include_2ServiceImpl_8h.html" target="_top" xlink:title="Implements REST API.">
<polygon fill="white" stroke="#666666" points="191.36,-41 30.36,-41 30.36,0 191.36,0 191.36,-41"/>
<text text-anchor="start" x="38.36" y="-29" font-family="Helvetica,sans-Serif" font-size="10.00">/home/runner/work/Catena</text>
<text text-anchor="start" x="38.36" y="-18" font-family="Helvetica,sans-Serif" font-size="10.00">/Catena/sdks/cpp/connections</text>
<text text-anchor="middle" x="110.86" y="-7" font-family="Helvetica,sans-Serif" font-size="10.00">/REST/include/ServiceImpl.h</text>
</a>
</g>
</g>
<!-- Node2&#45;&gt;Node3 -->
<g id="edge2_Node000002_Node000003" class="edge">
<title>Node2&#45;&gt;Node3</title>
<g id="a_edge2_Node000002_Node000003"><a xlink:title=" ">
<path fill="none" stroke="#63b8ff" d="M41.82,-160.14C28.68,-152.27 16.63,-142.08 8.86,-129 -2.95,-109.13 -2.95,-96.87 8.86,-77 18.33,-61.06 34.17,-49.4 50.57,-41.02"/>
<polygon fill="#63b8ff" stroke="#63b8ff" points="40.13,-163.2 50.57,-164.98 43.52,-157.08 40.13,-163.2"/>
</a>
</g>
</g>
<!-- Node4 -->
<g id="Node000004" class="node">
<title>Node4</title>
<g id="a_Node000004"><a xlink:href="REST_2include_2interface_2ICallData_8h.html" target="_top" xlink:title="Interface class for REST controllers.">
<polygon fill="white" stroke="#666666" points="203.86,-123.5 17.86,-123.5 17.86,-82.5 203.86,-82.5 203.86,-123.5"/>
<text text-anchor="start" x="25.86" y="-111.5" font-family="Helvetica,sans-Serif" font-size="10.00">/home/runner/work/Catena</text>
<text text-anchor="start" x="25.86" y="-100.5" font-family="Helvetica,sans-Serif" font-size="10.00">/Catena/sdks/cpp/connections</text>
<text text-anchor="middle" x="110.86" y="-89.5" font-family="Helvetica,sans-Serif" font-size="10.00">/REST/include/interface/ICallData.h</text>
</a>
</g>
</g>
<!-- Node2&#45;&gt;Node4 -->
<g id="edge3_Node000002_Node000004" class="edge">
<title>Node2&#45;&gt;Node4</title>
<g id="a_edge3_Node000002_Node000004"><a xlink:title=" ">
<path fill="none" stroke="#63b8ff" d="M110.86,-154.37C110.86,-144.1 110.86,-132.9 110.86,-123.67"/>
<polygon fill="#63b8ff" stroke="#63b8ff" points="107.36,-154.6 110.86,-164.6 114.36,-154.6 107.36,-154.6"/>
</a>
</g>
</g>
<!-- Node4&#45;&gt;Node3 -->
<g id="edge4_Node000004_Node000003" class="edge">
<title>Node4&#45;&gt;Node3</title>
<g id="a_edge4_Node000004_Node000003"><a xlink:title=" ">
<path fill="none" stroke="#63b8ff" d="M110.86,-71.87C110.86,-61.6 110.86,-50.4 110.86,-41.17"/>
<polygon fill="#63b8ff" stroke="#63b8ff" points="107.36,-72.1 110.86,-82.1 114.36,-72.1 107.36,-72.1"/>
</a>
</g>
</g>
<!-- Node5&#45;&gt;Node3 -->
<g id="edge6_Node000005_Node000003" class="edge">
<title>Node5&#45;&gt;Node3</title>
<g id="a_edge6_Node000005_Node000003"><a xlink:title=" ">
<path fill="none" stroke="#63b8ff" d="M1512.95,-176.73C1393.95,-165.98 1197.01,-145.97 1167.86,-129 1142.89,-114.47 1154.33,-90.62 1128.86,-77 1047.15,-33.33 418.14,-23.97 191.73,-22.01"/>
<polygon fill="#63b8ff" stroke="#63b8ff" points="1512.87,-180.24 1523.15,-177.65 1513.5,-173.26 1512.87,-180.24"/>
</a>
</g>
</g>
<!-- Node5&#45;&gt;Node4 -->
<g id="edge21_Node000005_Node000004" class="edge">
<title>Node5&#45;&gt;Node4</title>
<g id="a_edge21_Node000005_Node000004"><a xlink:title=" ">
<path fill="none" stroke="#63b8ff" d="M1513.1,-183.25C1245.93,-179.21 465.23,-164.6 212.86,-129 203.02,-127.61 192.74,-125.68 182.67,-123.5"/>
<polygon fill="#63b8ff" stroke="#63b8ff" points="1513.1,-186.75 1523.15,-183.4 1513.2,-179.76 1513.1,-186.75"/>
</a>
</g>
</g>
<!-- Node5&#45;&gt;Node6 -->
<g id="edge7_Node000005_Node000006" class="edge">
<title>Node5&#45;&gt;Node6</title>
<g id="a_edge7_Node000005_Node000006"><a xlink:title=" ">
<path fill="none" stroke="#63b8ff" d="M1512.91,-185.15C1317.11,-185.44 841.38,-180.27 446.86,-129 435.94,-127.58 424.53,-125.68 413.29,-123.55"/>
<polygon fill="#63b8ff" stroke="#63b8ff" points="1513.16,-188.65 1523.15,-185.13 1513.15,-181.65 1513.16,-188.65"/>
</a>
</g>
</g>
<!-- Node5&#45;&gt;Node7 -->
<g id="edge8_Node000005_Node000007" class="edge">
<title>Node5&#45;&gt;Node7</title>
<g id="a_edge8_Node000005_Node000007"><a xlink:title=" ">
<path fill="none" stroke="#63b8ff" d="M1513.05,-183.56C1347.07,-180.84 983.89,-170.25 680.86,-129 670.15,-127.54 658.97,-125.65 647.95,-123.55"/>
<polygon fill="#63b8ff" stroke="#63b8ff" points="1513.16,-187.06 1523.21,-183.72 1513.27,-180.06 1513.16,-187.06"/>
</a>
</g>
</g>
<!-- Node8 -->
<g id="Node000008" class="node">
<title>Node8</title>
<g id="a_Node000008"><a xlink:href="REST_2include_2controllers_2BasicParamInfoRequest_8h.html" target="_top" xlink:title="Implements REST BasicParamInfoRequest controller.">
<polygon fill="white" stroke="#666666" points="1374.36,-129 1177.36,-129 1177.36,-77 1374.36,-77 1374.36,-129"/>
<text text-anchor="start" x="1185.36" y="-117" font-family="Helvetica,sans-Serif" font-size="10.00">/home/runner/work/Catena</text>
<text text-anchor="start" x="1185.36" y="-106" font-family="Helvetica,sans-Serif" font-size="10.00">/Catena/sdks/cpp/connections</text>
<text text-anchor="start" x="1185.36" y="-95" font-family="Helvetica,sans-Serif" font-size="10.00">/REST/include/controllers/BasicParam</text>
<text text-anchor="middle" x="1275.86" y="-84" font-family="Helvetica,sans-Serif" font-size="10.00">InfoRequest.h</text>
</a>
</g>
</g>
<!-- Node5&#45;&gt;Node8 -->
<g id="edge9_Node000005_Node000008" class="edge">
<title>Node5&#45;&gt;Node8</title>
<g id="a_edge9_Node000005_Node000008"><a xlink:title=" ">
<path fill="none" stroke="#63b8ff" d="M1514.1,-162.47C1470.86,-151.86 1418.89,-139.1 1374.54,-128.22"/>
<polygon fill="#63b8ff" stroke="#63b8ff" points="1513.49,-165.93 1524.04,-164.91 1515.16,-159.13 1513.49,-165.93"/>
</a>
</g>
</g>
<!-- Node5&#45;&gt;Node9 -->
<g id="edge10_Node000005_Node000009" class="edge">
<title>Node5&#45;&gt;Node9</title>
<g id="a_edge10_Node000005_Node000009"><a xlink:title=" ">
<path fill="none" stroke="#63b8ff" d="M1513.09,-178.28C1334.18,-165.91 948.06,-138.58 887.86,-129 878.5,-127.51 868.73,-125.61 859.11,-123.52"/>
<polygon fill="#63b8ff" stroke="#63b8ff" points="1513.05,-181.79 1523.27,-178.99 1513.53,-174.81 1513.05,-181.79"/>
</a>
</g>
</g>
<!-- Node5&#45;&gt;Node10 -->
<g id="edge11_Node000005_Node000010" class="edge">
<title>Node5&#45;&gt;Node10</title>
<g id="a_edge11_Node000005_Node000010"><a xlink:title=" ">
<path fill="none" stroke="#63b8ff" d="M1512.83,-172.88C1491.82,-170.24 1469.57,-167.49 1448.86,-165 1309.39,-148.23 1273.64,-150.69 1134.86,-129 1124.5,-127.38 1113.7,-125.52 1102.97,-123.55"/>
<polygon fill="#63b8ff" stroke="#63b8ff" points="1512.67,-176.39 1523.03,-174.16 1513.54,-169.44 1512.67,-176.39"/>
</a>
</g>
</g>
<!-- Node11 -->
<g id="Node000011" class="node">
<title>Node11</title>
<g id="a_Node000011"><a xlink:href="REST_2include_2controllers_2ExecuteCommand_8h.html" target="_top" xlink:title="Implements REST ExecuteCommand controller.">
<polygon fill="white" stroke="#666666" points="1630.86,-123.5 1392.86,-123.5 1392.86,-82.5 1630.86,-82.5 1630.86,-123.5"/>
<text text-anchor="start" x="1400.86" y="-111.5" font-family="Helvetica,sans-Serif" font-size="10.00">/home/runner/work/Catena</text>
<text text-anchor="start" x="1400.86" y="-100.5" font-family="Helvetica,sans-Serif" font-size="10.00">/Catena/sdks/cpp/connections</text>
<text text-anchor="middle" x="1511.86" y="-89.5" font-family="Helvetica,sans-Serif" font-size="10.00">/REST/include/controllers/ExecuteCommand.h</text>
</a>
</g>
</g>
<!-- Node5&#45;&gt;Node11 -->
<g id="edge12_Node000005_Node000011" class="edge">
<title>Node5&#45;&gt;Node11</title>
<g id="a_edge12_Node000005_Node000011"><a xlink:title=" ">
<path fill="none" stroke="#63b8ff" d="M1573.44,-157.89C1560.68,-146.72 1546.1,-133.97 1534.34,-123.67"/>
<polygon fill="#63b8ff" stroke="#63b8ff" points="1571.28,-160.65 1581.11,-164.6 1575.89,-155.38 1571.28,-160.65"/>
</a>
</g>
</g>
<!-- Node5&#45;&gt;Node12 -->
<g id="edge13_Node000005_Node000012" class="edge">
<title>Node5&#45;&gt;Node12</title>
<g id="a_edge13_Node000005_Node000012"><a xlink:title=" ">
<path fill="none" stroke="#63b8ff" d="M1694.3,-169.13C1754.87,-158.56 1836.32,-143.8 1907.86,-129 1916.15,-127.28 1924.78,-125.42 1933.39,-123.51"/>
<polygon fill="#63b8ff" stroke="#63b8ff" points="1693.63,-165.7 1684.38,-170.86 1694.83,-172.59 1693.63,-165.7"/>
</a>
</g>
</g>
<!-- Node5&#45;&gt;Node13 -->
<g id="edge14_Node000005_Node000013" class="edge">
<title>Node5&#45;&gt;Node13</title>
<g id="a_edge14_Node000005_Node000013"><a xlink:title=" ">
<path fill="none" stroke="#63b8ff" d="M1694.84,-177.85C1798.78,-169.55 1973.78,-153.38 2122.86,-129 2126.13,-128.46 2129.45,-127.89 2132.79,-127.3"/>
<polygon fill="#63b8ff" stroke="#63b8ff" points="1694.38,-174.38 1684.69,-178.66 1694.94,-181.36 1694.38,-174.38"/>
</a>
</g>
</g>
<!-- Node5&#45;&gt;Node14 -->
<g id="edge15_Node000005_Node000014" class="edge">
<title>Node5&#45;&gt;Node14</title>
<g id="a_edge15_Node000005_Node000014"><a xlink:title=" ">
<path fill="none" stroke="#63b8ff" d="M1694.72,-182.32C1835.42,-177.91 2114.16,-165.05 2347.86,-129 2357.48,-127.52 2367.52,-125.62 2377.42,-123.53"/>
<polygon fill="#63b8ff" stroke="#63b8ff" points="1694.31,-178.83 1684.42,-182.63 1694.52,-185.83 1694.31,-178.83"/>
</a>
</g>
</g>
<!-- Node5&#45;&gt;Node15 -->
<g id="edge16_Node000005_Node000015" class="edge">
<title>Node5&#45;&gt;Node15</title>
<g id="a_edge16_Node000005_Node000015"><a xlink:title=" ">
<path fill="none" stroke="#63b8ff" d="M1694.72,-183.99C1865.15,-181.98 2244.12,-172.51 2559.86,-129 2562.77,-128.6 2565.71,-128.16 2568.68,-127.7"/>
<polygon fill="#63b8ff" stroke="#63b8ff" points="1694.49,-180.49 1684.53,-184.1 1694.57,-187.49 1694.49,-180.49"/>
</a>
</g>
</g>
<!-- Node5&#45;&gt;Node16 -->
<g id="edge17_Node000005_Node000016" class="edge">
<title>Node5&#45;&gt;Node16</title>
<g id="a_edge17_Node000005_Node000016"><a xlink:title=" ">
<path fill="none" stroke="#63b8ff" d="M1694.75,-185.19C1893.74,-185.6 2382.57,-180.73 2787.86,-129 2798.95,-127.58 2810.56,-125.68 2821.98,-123.56"/>
<polygon fill="#63b8ff" stroke="#63b8ff" points="1694.64,-181.69 1684.64,-185.16 1694.63,-188.69 1694.64,-181.69"/>
</a>
</g>
</g>
<!-- Node5&#45;&gt;Node17 -->
<g id="edge18_Node000005_Node000017" class="edge">
<title>Node5&#45;&gt;Node17</title>
<g id="a_edge18_Node000005_Node000017"><a xlink:title=" ">
<path fill="none" stroke="#63b8ff" d="M1694.68,-182.99C1965.84,-178.17 2766.73,-161.5 3025.86,-129 3036.98,-127.6 3048.62,-125.69 3060.06,-123.53"/>
<polygon fill="#63b8ff" stroke="#63b8ff" points="1694.42,-179.5 1684.48,-183.17 1694.54,-186.5 1694.42,-179.5"/>
</a>
</g>
</g>
<!-- Node19 -->
<g id="Node000019" class="node">
<title>Node19</title>
<g id="a_Node000019"><a xlink:href="REST_2include_2controllers_2UpdateSubscriptions_8h.html" target="_top" xlink:title="Implements Catena REST UpdateSubscriptions.">
<polygon fill="white" stroke="#666666" points="1898.86,-123.5 1648.86,-123.5 1648.86,-82.5 1898.86,-82.5 1898.86,-123.5"/>
<text text-anchor="start" x="1656.86" y="-111.5" font-family="Helvetica,sans-Serif" font-size="10.00">/home/runner/work/Catena</text>
<text text-anchor="start" x="1656.86" y="-100.5" font-family="Helvetica,sans-Serif" font-size="10.00">/Catena/sdks/cpp/connections</text>
<text text-anchor="middle" x="1773.86" y="-89.5" font-family="Helvetica,sans-Serif" font-size="10.00">/REST/include/controllers/UpdateSubscriptions.h</text>
</a>
</g>
</g>
<!-- Node5&#45;&gt;Node19 -->
<g id="edge20_Node000005_Node000019" class="edge">
<title>Node5&#45;&gt;Node19</title>
<g id="a_edge20_Node000005_Node000019"><a xlink:title=" ">
<path fill="none" stroke="#63b8ff" d="M1654.7,-160.42C1679.51,-148.67 1708.98,-134.72 1732.4,-123.63"/>
<polygon fill="#63b8ff" stroke="#63b8ff" points="1652.98,-157.36 1645.44,-164.81 1655.98,-163.69 1652.98,-157.36"/>
</a>
</g>
</g>
<!-- Node18 -->
<g id="Node000018" class="node">
<title>Node18</title>
<g id="a_Node000018"><a xlink:href="REST_2include_2controllers_2SetValue_8h.html" target="_top" xlink:title="Implements REST SetValue controller.">
<polygon fill="white" stroke="#666666" points="3238.86,-41 3046.86,-41 3046.86,0 3238.86,0 3238.86,-41"/>
<text text-anchor="start" x="3054.86" y="-29" font-family="Helvetica,sans-Serif" font-size="10.00">/home/runner/work/Catena</text>
<text text-anchor="start" x="3054.86" y="-18" font-family="Helvetica,sans-Serif" font-size="10.00">/Catena/sdks/cpp/connections</text>
<text text-anchor="middle" x="3142.86" y="-7" font-family="Helvetica,sans-Serif" font-size="10.00">/REST/include/controllers/SetValue.h</text>
</a>
</g>
</g>
<!-- Node17&#45;&gt;Node18 -->
<g id="edge19_Node000017_Node000018" class="edge">
<title>Node17&#45;&gt;Node18</title>
<g id="a_edge19_Node000017_Node000018"><a xlink:title=" ">
<path fill="none" stroke="#63b8ff" d="M3142.86,-71.87C3142.86,-61.6 3142.86,-50.4 3142.86,-41.17"/>
<polygon fill="#63b8ff" stroke="#63b8ff" points="3139.36,-72.1 3142.86,-82.1 3146.36,-72.1 3139.36,-72.1"/>
</a>
</g>
</g>
</g>
</svg>
