<?xml version="1.0" encoding="UTF-8" standalone="no"?>
<!DOCTYPE svg PUBLIC "-//W3C//DTD SVG 1.1//EN"
 "http://www.w3.org/Graphics/SVG/1.1/DTD/svg11.dtd">
<!-- Generated by graphviz version 2.43.0 (0)
 -->
<!-- Title: /home/runner/work/Catena/Catena/sdks/cpp/common/include/utils.h Pages: 1 -->
<svg width="1343pt" height="214pt"
 viewBox="0.00 0.00 1343.00 214.00" xmlns="http://www.w3.org/2000/svg" xmlns:xlink="http://www.w3.org/1999/xlink">
<g id="graph0" class="graph" transform="scale(1 1) rotate(0) translate(4 210)">
<title>/home/runner/work/Catena/Catena/sdks/cpp/common/include/utils.h</title>
<!-- Node1 -->
<g id="Node000001" class="node">
<title>Node1</title>
<g id="a_Node000001"><a xlink:title="Utility functions.">
<polygon fill="#999999" stroke="#666666" points="740.5,-206 594.5,-206 594.5,-165 740.5,-165 740.5,-206"/>
<text text-anchor="start" x="602.5" y="-194" font-family="Helvetica,sans-Serif" font-size="10.00">/home/runner/work/Catena</text>
<text text-anchor="start" x="602.5" y="-183" font-family="Helvetica,sans-Serif" font-size="10.00">/Catena/sdks/cpp/common</text>
<text text-anchor="middle" x="667.5" y="-172" font-family="Helvetica,sans-Serif" font-size="10.00">/include/utils.h</text>
</a>
</g>
</g>
<!-- Node2 -->
<g id="Node000002" class="node">
<title>Node2</title>
<g id="a_Node000002"><a xlink:href="REST_2include_2controllers_2AddLanguage_8h.html" target="_top" xlink:title="Implements REST AddLanguage RPC.">
<polygon fill="white" stroke="#666666" points="215,-123.5 0,-123.5 0,-82.5 215,-82.5 215,-123.5"/>
<text text-anchor="start" x="8" y="-111.5" font-family="Helvetica,sans-Serif" font-size="10.00">/home/runner/work/Catena</text>
<text text-anchor="start" x="8" y="-100.5" font-family="Helvetica,sans-Serif" font-size="10.00">/Catena/sdks/cpp/connections</text>
<text text-anchor="middle" x="107.5" y="-89.5" font-family="Helvetica,sans-Serif" font-size="10.00">/REST/include/controllers/AddLanguage.h</text>
</a>
</g>
</g>
<!-- Node1&#45;&gt;Node2 -->
<g id="edge1_Node000001_Node000002" class="edge">
<title>Node1&#45;&gt;Node2</title>
<g id="a_edge1_Node000001_Node000002"><a xlink:title=" ">
<path fill="none" stroke="#63b8ff" d="M584.25,-176.23C494.98,-166.85 349.23,-150.1 224.5,-129 214.87,-127.37 204.84,-125.5 194.87,-123.53"/>
<polygon fill="#63b8ff" stroke="#63b8ff" points="584.01,-179.72 594.32,-177.28 584.73,-172.76 584.01,-179.72"/>
</a>
</g>
</g>
<!-- Node3 -->
<g id="Node000003" class="node">
<title>Node3</title>
<g id="a_Node000003"><a xlink:href="connections_2REST_2include_2controllers_2Connect_8h.html" target="_top" xlink:title="Implements REST Connect RPC.">
<polygon fill="white" stroke="#666666" points="422,-123.5 233,-123.5 233,-82.5 422,-82.5 422,-123.5"/>
<text text-anchor="start" x="241" y="-111.5" font-family="Helvetica,sans-Serif" font-size="10.00">/home/runner/work/Catena</text>
<text text-anchor="start" x="241" y="-100.5" font-family="Helvetica,sans-Serif" font-size="10.00">/Catena/sdks/cpp/connections</text>
<text text-anchor="middle" x="327.5" y="-89.5" font-family="Helvetica,sans-Serif" font-size="10.00">/REST/include/controllers/Connect.h</text>
</a>
</g>
</g>
<!-- Node1&#45;&gt;Node3 -->
<g id="edge2_Node000001_Node000003" class="edge">
<title>Node1&#45;&gt;Node3</title>
<g id="a_edge2_Node000001_Node000003"><a xlink:title=" ">
<path fill="none" stroke="#63b8ff" d="M584.62,-165.12C539.36,-154.5 482.33,-141.09 431.5,-129 424.09,-127.24 416.39,-125.4 408.68,-123.55"/>
<polygon fill="#63b8ff" stroke="#63b8ff" points="583.86,-168.53 594.39,-167.4 585.45,-161.71 583.86,-168.53"/>
</a>
</g>
</g>
<!-- Node4 -->
<g id="Node000004" class="node">
<title>Node4</title>
<g id="a_Node000004"><a xlink:href="REST_2include_2controllers_2DeviceRequest_8h.html" target="_top" xlink:title="Implements REST DeviceRequest RPC.">
<polygon fill="white" stroke="#666666" points="663,-123.5 440,-123.5 440,-82.5 663,-82.5 663,-123.5"/>
<text text-anchor="start" x="448" y="-111.5" font-family="Helvetica,sans-Serif" font-size="10.00">/home/runner/work/Catena</text>
<text text-anchor="start" x="448" y="-100.5" font-family="Helvetica,sans-Serif" font-size="10.00">/Catena/sdks/cpp/connections</text>
<text text-anchor="middle" x="551.5" y="-89.5" font-family="Helvetica,sans-Serif" font-size="10.00">/REST/include/controllers/DeviceRequest.h</text>
</a>
</g>
</g>
<!-- Node1&#45;&gt;Node4 -->
<g id="edge3_Node000001_Node000004" class="edge">
<title>Node1&#45;&gt;Node4</title>
<g id="a_edge3_Node000001_Node000004"><a xlink:title=" ">
<path fill="none" stroke="#63b8ff" d="M630.81,-159.04C614.38,-147.64 595.31,-134.4 579.99,-123.77"/>
<polygon fill="#63b8ff" stroke="#63b8ff" points="628.91,-161.98 639.12,-164.81 632.9,-156.23 628.91,-161.98"/>
</a>
</g>
</g>
<!-- Node5 -->
<g id="Node000005" class="node">
<title>Node5</title>
<g id="a_Node000005"><a xlink:href="REST_2include_2controllers_2GetPopulatedSlots_8h.html" target="_top" xlink:title="Implements REST GetPopulatedSlots RPC.">
<polygon fill="white" stroke="#666666" points="887.5,-129 681.5,-129 681.5,-77 887.5,-77 887.5,-129"/>
<text text-anchor="start" x="689.5" y="-117" font-family="Helvetica,sans-Serif" font-size="10.00">/home/runner/work/Catena</text>
<text text-anchor="start" x="689.5" y="-106" font-family="Helvetica,sans-Serif" font-size="10.00">/Catena/sdks/cpp/connections</text>
<text text-anchor="start" x="689.5" y="-95" font-family="Helvetica,sans-Serif" font-size="10.00">/REST/include/controllers/GetPopulated</text>
<text text-anchor="middle" x="784.5" y="-84" font-family="Helvetica,sans-Serif" font-size="10.00">Slots.h</text>
</a>
</g>
</g>
<!-- Node1&#45;&gt;Node5 -->
<g id="edge4_Node000001_Node000005" class="edge">
<title>Node1&#45;&gt;Node5</title>
<g id="a_edge4_Node000001_Node000005"><a xlink:title=" ">
<path fill="none" stroke="#63b8ff" d="M704.45,-159.08C718.27,-149.57 733.96,-138.77 747.76,-129.28"/>
<polygon fill="#63b8ff" stroke="#63b8ff" points="702.38,-156.26 696.12,-164.81 706.34,-162.02 702.38,-156.26"/>
</a>
</g>
</g>
<!-- Node6 -->
<g id="Node000006" class="node">
<title>Node6</title>
<g id="a_Node000006"><a xlink:href="REST_2include_2controllers_2GetValue_8h.html" target="_top" xlink:title="Implements REST GetValue RPC.">
<polygon fill="white" stroke="#666666" points="1099.5,-123.5 905.5,-123.5 905.5,-82.5 1099.5,-82.5 1099.5,-123.5"/>
<text text-anchor="start" x="913.5" y="-111.5" font-family="Helvetica,sans-Serif" font-size="10.00">/home/runner/work/Catena</text>
<text text-anchor="start" x="913.5" y="-100.5" font-family="Helvetica,sans-Serif" font-size="10.00">/Catena/sdks/cpp/connections</text>
<text text-anchor="middle" x="1002.5" y="-89.5" font-family="Helvetica,sans-Serif" font-size="10.00">/REST/include/controllers/GetValue.h</text>
</a>
</g>
</g>
<!-- Node1&#45;&gt;Node6 -->
<g id="edge5_Node000001_Node000006" class="edge">
<title>Node1&#45;&gt;Node6</title>
<g id="a_edge5_Node000001_Node000006"><a xlink:title=" ">
<path fill="none" stroke="#63b8ff" d="M750.49,-164.56C802.62,-152.03 869.55,-135.95 921.33,-123.5"/>
<polygon fill="#63b8ff" stroke="#63b8ff" points="749.51,-161.19 740.6,-166.93 751.14,-168 749.51,-161.19"/>
</a>
</g>
</g>
<!-- Node7 -->
<g id="Node000007" class="node">
<title>Node7</title>
<g id="a_Node000007"><a xlink:href="REST_2include_2controllers_2MultiSetValue_8h.html" target="_top" xlink:title="Implements REST MultiSetValue RPC.">
<polygon fill="white" stroke="#666666" points="1335,-123.5 1118,-123.5 1118,-82.5 1335,-82.5 1335,-123.5"/>
<text text-anchor="start" x="1126" y="-111.5" font-family="Helvetica,sans-Serif" font-size="10.00">/home/runner/work/Catena</text>
<text text-anchor="start" x="1126" y="-100.5" font-family="Helvetica,sans-Serif" font-size="10.00">/Catena/sdks/cpp/connections</text>
<text text-anchor="middle" x="1226.5" y="-89.5" font-family="Helvetica,sans-Serif" font-size="10.00">/REST/include/controllers/MultiSetValue.h</text>
</a>
</g>
</g>
<!-- Node1&#45;&gt;Node7 -->
<g id="edge6_Node000001_Node000007" class="edge">
<title>Node1&#45;&gt;Node7</title>
<g id="a_edge6_Node000001_Node000007"><a xlink:title=" ">
<path fill="none" stroke="#63b8ff" d="M750.76,-176.12C839.65,-166.68 984.49,-149.9 1108.5,-129 1118.21,-127.36 1128.32,-125.49 1138.38,-123.51"/>
<polygon fill="#63b8ff" stroke="#63b8ff" points="750.31,-172.65 740.73,-177.18 751.05,-179.61 750.31,-172.65"/>
</a>
</g>
</g>
<!-- Node8 -->
<g id="Node000008" class="node">
<title>Node8</title>
<g id="a_Node000008"><a xlink:href="REST_2include_2controllers_2SetValue_8h.html" target="_top" xlink:title="Implements REST SetValue RPC.">
<polygon fill="white" stroke="#666666" points="1322.5,-41 1130.5,-41 1130.5,0 1322.5,0 1322.5,-41"/>
<text text-anchor="start" x="1138.5" y="-29" font-family="Helvetica,sans-Serif" font-size="10.00">/home/runner/work/Catena</text>
<text text-anchor="start" x="1138.5" y="-18" font-family="Helvetica,sans-Serif" font-size="10.00">/Catena/sdks/cpp/connections</text>
<text text-anchor="middle" x="1226.5" y="-7" font-family="Helvetica,sans-Serif" font-size="10.00">/REST/include/controllers/SetValue.h</text>
</a>
</g>
</g>
<!-- Node7&#45;&gt;Node8 -->
<g id="edge7_Node000007_Node000008" class="edge">
<title>Node7&#45;&gt;Node8</title>
<g id="a_edge7_Node000007_Node000008"><a xlink:title=" ">
<path fill="none" stroke="#63b8ff" d="M1226.5,-71.87C1226.5,-61.6 1226.5,-50.4 1226.5,-41.17"/>
<polygon fill="#63b8ff" stroke="#63b8ff" points="1223,-72.1 1226.5,-82.1 1230,-72.1 1223,-72.1"/>
</a>
</g>
</g>
</g>
</svg>
