<?xml version="1.0" encoding="UTF-8" standalone="no"?>
<!DOCTYPE svg PUBLIC "-//W3C//DTD SVG 1.1//EN"
 "http://www.w3.org/Graphics/SVG/1.1/DTD/svg11.dtd">
<!-- Generated by graphviz version 2.43.0 (0)
 -->
<!-- Title: /home/runner/work/Catena/Catena/sdks/cpp/common/include/utils.h Pages: 1 -->
<!--zoomable 291 -->

<svg id="main" version="1.1" xmlns="http://www.w3.org/2000/svg" xmlns:xlink="http://www.w3.org/1999/xlink" xml:space="preserve" onload="init(evt)">
<style type="text/css"><![CDATA[
.node, .edge {opacity: 0.7;}
.node.selected, .edge.selected {opacity: 1;}
.edge:hover path { stroke: red; }
.edge:hover polygon { stroke: red; fill: red; }
]]></style>

<defs>
  <circle id="rim" cx="0" cy="0" r="7"/>
  <circle id="rim2" cx="0" cy="0" r="3.5"/>
  <g id="zoomPlus">
    <use xlink:href="#rim" fill="#404040"><set attributeName="fill" to="#808080" begin="zoomplus.mouseover" end="zoomplus.mouseout"/></use>
    <path d="M-4,0h8M0,-4v8" fill="none" stroke="white" stroke-width="1.5" pointer-events="none"/>
  </g>
  <g id="zoomMin">
    <use xlink:href="#rim" fill="#404040"><set attributeName="fill" to="#808080" begin="zoomminus.mouseover" end="zoomminus.mouseout"/></use>
    <path d="M-4,0h8" fill="none" stroke="white" stroke-width="1.5" pointer-events="none"/>
  </g>
  <g id="arrowUp" transform="translate(30 24)">
    <use xlink:href="#rim"/>
    <path pointer-events="none" fill="none" stroke="white" stroke-width="1.5" d="M0,-3.0v7 M-2.5,-0.5L0,-3.0L2.5,-0.5"/>
  </g>
  <g id="arrowRight" transform="rotate(90) translate(36 -43)">
    <use xlink:href="#rim"/>
    <path pointer-events="none" fill="none" stroke="white" stroke-width="1.5" d="M0,-3.0v7 M-2.5,-0.5L0,-3.0L2.5,-0.5"/>
  </g>
  <g id="arrowDown" transform="rotate(180) translate(-30 -48)">
    <use xlink:href="#rim"/>
    <path pointer-events="none" fill="none" stroke="white" stroke-width="1.5" d="M0,-3.0v7 M-2.5,-0.5L0,-3.0L2.5,-0.5"/>
  </g>
  <g id="arrowLeft" transform="rotate(270) translate(-36 17)">
    <use xlink:href="#rim"/>
    <path pointer-events="none" fill="none" stroke="white" stroke-width="1.5" d="M0,-3.0v7 M-2.5,-0.5L0,-3.0L2.5,-0.5"/>
  </g>
  <g id="resetDef">
    <use xlink:href="#rim2" fill="#404040"><set attributeName="fill" to="#808080" begin="reset.mouseover" end="reset.mouseout"/></use>
  </g>
</defs>
<script type="application/ecmascript">
var viewWidth = 2983;
var viewHeight = 291;
var sectionId = 'dynsection-1';
</script>
<script type="application/ecmascript" xlink:href="svg.min.js"/>
<svg id="graph" class="graph">
<g id="viewport">
<title>/home/runner/work/Catena/Catena/sdks/cpp/common/include/utils.h</title>
<!-- Node1 -->
<g id="Node000001" class="node">
<title>Node1</title>
<g id="a_Node000001"><a xlink:title="Utility functions.">
<polygon fill="#999999" stroke="#666666" points="1819.86,-283 1673.86,-283 1673.86,-242 1819.86,-242 1819.86,-283"/>
<text text-anchor="start" x="1681.86" y="-271" font-family="Helvetica,sans-Serif" font-size="10.00">/home/runner/work/Catena</text>
<text text-anchor="start" x="1681.86" y="-260" font-family="Helvetica,sans-Serif" font-size="10.00">/Catena/sdks/cpp/common</text>
<text text-anchor="middle" x="1746.86" y="-249" font-family="Helvetica,sans-Serif" font-size="10.00">/include/utils.h</text>
</a>
</g>
</g>
<!-- Node2 -->
<g id="Node000002" class="node">
<title>Node2</title>
<g id="a_Node000002"><a xlink:href="SocketReader_8h.html" target="_top" xlink:title="Helper class used to read from a socket using boost.">
<polygon fill="white" stroke="#666666" points="191.36,-206 30.36,-206 30.36,-165 191.36,-165 191.36,-206"/>
<text text-anchor="start" x="38.36" y="-194" font-family="Helvetica,sans-Serif" font-size="10.00">/home/runner/work/Catena</text>
<text text-anchor="start" x="38.36" y="-183" font-family="Helvetica,sans-Serif" font-size="10.00">/Catena/sdks/cpp/connections</text>
<text text-anchor="middle" x="110.86" y="-172" font-family="Helvetica,sans-Serif" font-size="10.00">/REST/include/SocketReader.h</text>
</a>
</g>
</g>
<!-- Node1&#45;&gt;Node2 -->
<g id="edge1_Node000001_Node000002" class="edge">
<title>Node1&#45;&gt;Node2</title>
<g id="a_edge1_Node000001_Node000002"><a xlink:title=" ">
<path fill="none" stroke="#63b8ff" d="M1663.52,-258.32C1458.11,-250.38 911.04,-228.73 454.86,-206 364.64,-201.51 261.17,-195.53 191.47,-191.38"/>
<polygon fill="#63b8ff" stroke="#63b8ff" points="1663.5,-261.82 1673.63,-258.71 1663.77,-254.82 1663.5,-261.82"/>
</a>
</g>
</g>
<!-- Node5 -->
<g id="Node000005" class="node">
<title>Node5</title>
<g id="a_Node000005"><a xlink:href="SocketWriter_8h.html" target="_top" xlink:title="Helper class used to write to a socket using boost.">
<polygon fill="white" stroke="#666666" points="1700.36,-206 1539.36,-206 1539.36,-165 1700.36,-165 1700.36,-206"/>
<text text-anchor="start" x="1547.36" y="-194" font-family="Helvetica,sans-Serif" font-size="10.00">/home/runner/work/Catena</text>
<text text-anchor="start" x="1547.36" y="-183" font-family="Helvetica,sans-Serif" font-size="10.00">/Catena/sdks/cpp/connections</text>
<text text-anchor="middle" x="1619.86" y="-172" font-family="Helvetica,sans-Serif" font-size="10.00">/REST/include/SocketWriter.h</text>
</a>
</g>
</g>
<!-- Node1&#45;&gt;Node5 -->
<g id="edge5_Node000001_Node000005" class="edge">
<title>Node1&#45;&gt;Node5</title>
<g id="a_edge5_Node000001_Node000005"><a xlink:title=" ">
<path fill="none" stroke="#63b8ff" d="M1704.77,-236.64C1687.99,-226.74 1668.96,-215.5 1653.17,-206.17"/>
<polygon fill="#63b8ff" stroke="#63b8ff" points="1703.43,-239.92 1713.82,-241.99 1706.99,-233.89 1703.43,-239.92"/>
</a>
</g>
</g>
<!-- Node6 -->
<g id="Node000006" class="node">
<title>Node6</title>
<g id="a_Node000006"><a xlink:href="AssetRequest_8h.html" target="_top" xlink:title="Implements REST AssetRequest controller.">
<polygon fill="white" stroke="#666666" points="437.86,-123.5 221.86,-123.5 221.86,-82.5 437.86,-82.5 437.86,-123.5"/>
<text text-anchor="start" x="229.86" y="-111.5" font-family="Helvetica,sans-Serif" font-size="10.00">/home/runner/work/Catena</text>
<text text-anchor="start" x="229.86" y="-100.5" font-family="Helvetica,sans-Serif" font-size="10.00">/Catena/sdks/cpp/connections</text>
<text text-anchor="middle" x="329.86" y="-89.5" font-family="Helvetica,sans-Serif" font-size="10.00">/REST/include/controllers/AssetRequest.h</text>
</a>
</g>
</g>
<!-- Node1&#45;&gt;Node6 -->
<g id="edge21_Node000001_Node000006" class="edge">
<title>Node1&#45;&gt;Node6</title>
<g id="a_edge21_Node000001_Node000006"><a xlink:title=" ">
<path fill="none" stroke="#63b8ff" d="M1663.33,-260.16C1502.51,-256.76 1138.99,-245.06 835.86,-206 683.43,-186.36 508.14,-147.26 409.03,-123.58"/>
<polygon fill="#63b8ff" stroke="#63b8ff" points="1663.55,-263.67 1673.62,-260.38 1663.7,-256.67 1663.55,-263.67"/>
</a>
</g>
</g>
<!-- Node8 -->
<g id="Node000008" class="node">
<title>Node8</title>
<g id="a_Node000008"><a xlink:href="connections_2REST_2include_2controllers_2Connect_8h.html" target="_top" xlink:title="Implements REST Connect controller.">
<polygon fill="white" stroke="#666666" points="645.36,-123.5 456.36,-123.5 456.36,-82.5 645.36,-82.5 645.36,-123.5"/>
<text text-anchor="start" x="464.36" y="-111.5" font-family="Helvetica,sans-Serif" font-size="10.00">/home/runner/work/Catena</text>
<text text-anchor="start" x="464.36" y="-100.5" font-family="Helvetica,sans-Serif" font-size="10.00">/Catena/sdks/cpp/connections</text>
<text text-anchor="middle" x="550.86" y="-89.5" font-family="Helvetica,sans-Serif" font-size="10.00">/REST/include/controllers/Connect.h</text>
</a>
</g>
</g>
<!-- Node1&#45;&gt;Node8 -->
<g id="edge22_Node000001_Node000008" class="edge">
<title>Node1&#45;&gt;Node8</title>
<g id="a_edge22_Node000001_Node000008"><a xlink:title=" ">
<path fill="none" stroke="#63b8ff" d="M1663.37,-256.6C1540.03,-248.85 1302.02,-231.92 1100.86,-206 900.92,-180.24 851.25,-169.91 653.86,-129 645.75,-127.32 637.31,-125.46 628.9,-123.53"/>
<polygon fill="#63b8ff" stroke="#63b8ff" points="1663.3,-260.1 1673.5,-257.23 1663.73,-253.12 1663.3,-260.1"/>
</a>
</g>
</g>
<!-- Node9 -->
<g id="Node000009" class="node">
<title>Node9</title>
<g id="a_Node000009"><a xlink:href="REST_2include_2controllers_2DeviceRequest_8h.html" target="_top" xlink:title="Implements REST DeviceRequest controller.">
<polygon fill="white" stroke="#666666" points="886.36,-123.5 663.36,-123.5 663.36,-82.5 886.36,-82.5 886.36,-123.5"/>
<text text-anchor="start" x="671.36" y="-111.5" font-family="Helvetica,sans-Serif" font-size="10.00">/home/runner/work/Catena</text>
<text text-anchor="start" x="671.36" y="-100.5" font-family="Helvetica,sans-Serif" font-size="10.00">/Catena/sdks/cpp/connections</text>
<text text-anchor="middle" x="774.86" y="-89.5" font-family="Helvetica,sans-Serif" font-size="10.00">/REST/include/controllers/DeviceRequest.h</text>
</a>
</g>
</g>
<!-- Node1&#45;&gt;Node9 -->
<g id="edge23_Node000001_Node000009" class="edge">
<title>Node1&#45;&gt;Node9</title>
<g id="a_edge23_Node000001_Node000009"><a xlink:title=" ">
<path fill="none" stroke="#63b8ff" d="M1663.46,-249.97C1510.64,-228.53 1175.6,-180.04 894.86,-129 885.54,-127.31 875.83,-125.45 866.16,-123.53"/>
<polygon fill="#63b8ff" stroke="#63b8ff" points="1663.32,-253.49 1673.7,-251.41 1664.29,-246.56 1663.32,-253.49"/>
</a>
</g>
</g>
<!-- Node11 -->
<g id="Node000011" class="node">
<title>Node11</title>
<g id="a_Node000011"><a xlink:href="REST_2include_2controllers_2GetParam_8h.html" target="_top" xlink:title="Implements REST GetParam controller.">
<polygon fill="white" stroke="#666666" points="1845.36,-123.5 1648.36,-123.5 1648.36,-82.5 1845.36,-82.5 1845.36,-123.5"/>
<text text-anchor="start" x="1656.36" y="-111.5" font-family="Helvetica,sans-Serif" font-size="10.00">/home/runner/work/Catena</text>
<text text-anchor="start" x="1656.36" y="-100.5" font-family="Helvetica,sans-Serif" font-size="10.00">/Catena/sdks/cpp/connections</text>
<text text-anchor="middle" x="1746.86" y="-89.5" font-family="Helvetica,sans-Serif" font-size="10.00">/REST/include/controllers/GetParam.h</text>
</a>
</g>
</g>
<!-- Node1&#45;&gt;Node11 -->
<g id="edge24_Node000001_Node000011" class="edge">
<title>Node1&#45;&gt;Node11</title>
<g id="a_edge24_Node000001_Node000011"><a xlink:title=" ">
<path fill="none" stroke="#63b8ff" d="M1746.86,-231.47C1746.86,-199.87 1746.86,-151.01 1746.86,-123.88"/>
<polygon fill="#63b8ff" stroke="#63b8ff" points="1743.36,-231.87 1746.86,-241.87 1750.36,-231.87 1743.36,-231.87"/>
</a>
</g>
</g>
<!-- Node12 -->
<g id="Node000012" class="node">
<title>Node12</title>
<g id="a_Node000012"><a xlink:href="REST_2include_2controllers_2GetPopulatedSlots_8h.html" target="_top" xlink:title="Implements REST GetPopulatedSlots controller.">
<polygon fill="white" stroke="#666666" points="2069.86,-129 1863.86,-129 1863.86,-77 2069.86,-77 2069.86,-129"/>
<text text-anchor="start" x="1871.86" y="-117" font-family="Helvetica,sans-Serif" font-size="10.00">/home/runner/work/Catena</text>
<text text-anchor="start" x="1871.86" y="-106" font-family="Helvetica,sans-Serif" font-size="10.00">/Catena/sdks/cpp/connections</text>
<text text-anchor="start" x="1871.86" y="-95" font-family="Helvetica,sans-Serif" font-size="10.00">/REST/include/controllers/GetPopulated</text>
<text text-anchor="middle" x="1966.86" y="-84" font-family="Helvetica,sans-Serif" font-size="10.00">Slots.h</text>
</a>
</g>
</g>
<!-- Node1&#45;&gt;Node12 -->
<g id="edge25_Node000001_Node000012" class="edge">
<title>Node1&#45;&gt;Node12</title>
<g id="a_edge25_Node000001_Node000012"><a xlink:title=" ">
<path fill="none" stroke="#63b8ff" d="M1782.65,-235.88C1823.81,-206.4 1890.97,-158.33 1931.82,-129.08"/>
<polygon fill="#63b8ff" stroke="#63b8ff" points="1780.37,-233.2 1774.27,-241.87 1784.44,-238.9 1780.37,-233.2"/>
</a>
</g>
</g>
<!-- Node13 -->
<g id="Node000013" class="node">
<title>Node13</title>
<g id="a_Node000013"><a xlink:href="REST_2include_2controllers_2GetValue_8h.html" target="_top" xlink:title="Implements REST GetValue controller.">
<polygon fill="white" stroke="#666666" points="2281.86,-123.5 2087.86,-123.5 2087.86,-82.5 2281.86,-82.5 2281.86,-123.5"/>
<text text-anchor="start" x="2095.86" y="-111.5" font-family="Helvetica,sans-Serif" font-size="10.00">/home/runner/work/Catena</text>
<text text-anchor="start" x="2095.86" y="-100.5" font-family="Helvetica,sans-Serif" font-size="10.00">/Catena/sdks/cpp/connections</text>
<text text-anchor="middle" x="2184.86" y="-89.5" font-family="Helvetica,sans-Serif" font-size="10.00">/REST/include/controllers/GetValue.h</text>
</a>
</g>
</g>
<!-- Node1&#45;&gt;Node13 -->
<g id="edge26_Node000001_Node000013" class="edge">
<title>Node1&#45;&gt;Node13</title>
<g id="a_edge26_Node000001_Node000013"><a xlink:title=" ">
<path fill="none" stroke="#63b8ff" d="M1810.87,-238.48C1897.24,-207.42 2049.58,-152.64 2130.61,-123.5"/>
<polygon fill="#63b8ff" stroke="#63b8ff" points="1809.67,-235.19 1801.44,-241.87 1812.04,-241.78 1809.67,-235.19"/>
</a>
</g>
</g>
<!-- Node14 -->
<g id="Node000014" class="node">
<title>Node14</title>
<g id="a_Node000014"><a xlink:href="connections_2REST_2include_2controllers_2LanguagePack_8h.html" target="_top" xlink:title="Implements REST LanguagePack controller.">
<polygon fill="white" stroke="#666666" points="2519.36,-123.5 2300.36,-123.5 2300.36,-82.5 2519.36,-82.5 2519.36,-123.5"/>
<text text-anchor="start" x="2308.36" y="-111.5" font-family="Helvetica,sans-Serif" font-size="10.00">/home/runner/work/Catena</text>
<text text-anchor="start" x="2308.36" y="-100.5" font-family="Helvetica,sans-Serif" font-size="10.00">/Catena/sdks/cpp/connections</text>
<text text-anchor="middle" x="2409.86" y="-89.5" font-family="Helvetica,sans-Serif" font-size="10.00">/REST/include/controllers/LanguagePack.h</text>
</a>
</g>
</g>
<!-- Node1&#45;&gt;Node14 -->
<g id="edge27_Node000001_Node000014" class="edge">
<title>Node1&#45;&gt;Node14</title>
<g id="a_edge27_Node000001_Node000014"><a xlink:title=" ">
<path fill="none" stroke="#63b8ff" d="M1829.76,-241.81C1957.37,-211.49 2200.48,-153.74 2327.67,-123.52"/>
<polygon fill="#63b8ff" stroke="#63b8ff" points="1828.94,-238.4 1820.02,-244.12 1830.56,-245.21 1828.94,-238.4"/>
</a>
</g>
</g>
<!-- Node15 -->
<g id="Node000015" class="node">
<title>Node15</title>
<g id="a_Node000015"><a xlink:href="Languages_8h.html" target="_top" xlink:title="Implements REST Languages controller.">
<polygon fill="white" stroke="#666666" points="2739.86,-123.5 2537.86,-123.5 2537.86,-82.5 2739.86,-82.5 2739.86,-123.5"/>
<text text-anchor="start" x="2545.86" y="-111.5" font-family="Helvetica,sans-Serif" font-size="10.00">/home/runner/work/Catena</text>
<text text-anchor="start" x="2545.86" y="-100.5" font-family="Helvetica,sans-Serif" font-size="10.00">/Catena/sdks/cpp/connections</text>
<text text-anchor="middle" x="2638.86" y="-89.5" font-family="Helvetica,sans-Serif" font-size="10.00">/REST/include/controllers/Languages.h</text>
</a>
</g>
</g>
<!-- Node1&#45;&gt;Node15 -->
<g id="edge28_Node000001_Node000015" class="edge">
<title>Node1&#45;&gt;Node15</title>
<g id="a_edge28_Node000001_Node000015"><a xlink:title=" ">
<path fill="none" stroke="#63b8ff" d="M1829.92,-249.07C1973.08,-227.28 2275.35,-179.66 2528.86,-129 2537.31,-127.31 2546.1,-125.46 2554.87,-123.56"/>
<polygon fill="#63b8ff" stroke="#63b8ff" points="1829.25,-245.63 1819.89,-250.59 1830.3,-252.55 1829.25,-245.63"/>
</a>
</g>
</g>
<!-- Node16 -->
<g id="Node000016" class="node">
<title>Node16</title>
<g id="a_Node000016"><a xlink:href="REST_2include_2controllers_2MultiSetValue_8h.html" target="_top" xlink:title="Implements REST MultiSetValue controller.">
<polygon fill="white" stroke="#666666" points="2975.36,-123.5 2758.36,-123.5 2758.36,-82.5 2975.36,-82.5 2975.36,-123.5"/>
<text text-anchor="start" x="2766.36" y="-111.5" font-family="Helvetica,sans-Serif" font-size="10.00">/home/runner/work/Catena</text>
<text text-anchor="start" x="2766.36" y="-100.5" font-family="Helvetica,sans-Serif" font-size="10.00">/Catena/sdks/cpp/connections</text>
<text text-anchor="middle" x="2866.86" y="-89.5" font-family="Helvetica,sans-Serif" font-size="10.00">/REST/include/controllers/MultiSetValue.h</text>
</a>
</g>
</g>
<!-- Node1&#45;&gt;Node16 -->
<g id="edge29_Node000001_Node000016" class="edge">
<title>Node1&#45;&gt;Node16</title>
<g id="a_edge29_Node000001_Node000016"><a xlink:title=" ">
<path fill="none" stroke="#63b8ff" d="M1830.16,-253.18C2002.46,-235.37 2410.25,-190.18 2748.86,-129 2758.13,-127.32 2767.79,-125.47 2777.41,-123.54"/>
<polygon fill="#63b8ff" stroke="#63b8ff" points="1829.73,-249.7 1820.14,-254.21 1830.45,-256.67 1829.73,-249.7"/>
</a>
</g>
</g>
<!-- Node3 -->
<g id="Node000003" class="node">
<title>Node3</title>
<g id="a_Node000003"><a xlink:href="REST_2include_2ServiceImpl_8h.html" target="_top" xlink:title="Implements REST API.">
<polygon fill="white" stroke="#666666" points="191.36,-41 30.36,-41 30.36,0 191.36,0 191.36,-41"/>
<text text-anchor="start" x="38.36" y="-29" font-family="Helvetica,sans-Serif" font-size="10.00">/home/runner/work/Catena</text>
<text text-anchor="start" x="38.36" y="-18" font-family="Helvetica,sans-Serif" font-size="10.00">/Catena/sdks/cpp/connections</text>
<text text-anchor="middle" x="110.86" y="-7" font-family="Helvetica,sans-Serif" font-size="10.00">/REST/include/ServiceImpl.h</text>
</a>
</g>
</g>
<!-- Node2&#45;&gt;Node3 -->
<g id="edge2_Node000002_Node000003" class="edge">
<title>Node2&#45;&gt;Node3</title>
<g id="a_edge2_Node000002_Node000003"><a xlink:title=" ">
<path fill="none" stroke="#63b8ff" d="M41.82,-160.14C28.68,-152.27 16.63,-142.08 8.86,-129 -2.95,-109.13 -2.95,-96.87 8.86,-77 18.33,-61.06 34.17,-49.4 50.57,-41.02"/>
<polygon fill="#63b8ff" stroke="#63b8ff" points="40.13,-163.2 50.57,-164.98 43.52,-157.08 40.13,-163.2"/>
</a>
</g>
</g>
<!-- Node4 -->
<g id="Node000004" class="node">
<title>Node4</title>
<g id="a_Node000004"><a xlink:href="REST_2include_2interface_2ICallData_8h.html" target="_top" xlink:title="Interface class for REST controllers.">
<polygon fill="white" stroke="#666666" points="203.86,-123.5 17.86,-123.5 17.86,-82.5 203.86,-82.5 203.86,-123.5"/>
<text text-anchor="start" x="25.86" y="-111.5" font-family="Helvetica,sans-Serif" font-size="10.00">/home/runner/work/Catena</text>
<text text-anchor="start" x="25.86" y="-100.5" font-family="Helvetica,sans-Serif" font-size="10.00">/Catena/sdks/cpp/connections</text>
<text text-anchor="middle" x="110.86" y="-89.5" font-family="Helvetica,sans-Serif" font-size="10.00">/REST/include/interface/ICallData.h</text>
</a>
</g>
</g>
<!-- Node2&#45;&gt;Node4 -->
<g id="edge3_Node000002_Node000004" class="edge">
<title>Node2&#45;&gt;Node4</title>
<g id="a_edge3_Node000002_Node000004"><a xlink:title=" ">
<path fill="none" stroke="#63b8ff" d="M110.86,-154.37C110.86,-144.1 110.86,-132.9 110.86,-123.67"/>
<polygon fill="#63b8ff" stroke="#63b8ff" points="107.36,-154.6 110.86,-164.6 114.36,-154.6 107.36,-154.6"/>
</a>
</g>
</g>
<!-- Node4&#45;&gt;Node3 -->
<g id="edge4_Node000004_Node000003" class="edge">
<title>Node4&#45;&gt;Node3</title>
<g id="a_edge4_Node000004_Node000003"><a xlink:title=" ">
<path fill="none" stroke="#63b8ff" d="M110.86,-71.87C110.86,-61.6 110.86,-50.4 110.86,-41.17"/>
<polygon fill="#63b8ff" stroke="#63b8ff" points="107.36,-72.1 110.86,-82.1 114.36,-72.1 107.36,-72.1"/>
</a>
</g>
</g>
<!-- Node5&#45;&gt;Node3 -->
<g id="edge6_Node000005_Node000003" class="edge">
<title>Node5&#45;&gt;Node3</title>
<g id="a_edge6_Node000005_Node000003"><a xlink:title=" ">
<path fill="none" stroke="#63b8ff" d="M1623.47,-154.72C1624.63,-129.93 1621.61,-95.78 1599.86,-77 1546.23,-30.72 494.07,-23 191.56,-21.74"/>
<polygon fill="#63b8ff" stroke="#63b8ff" points="1619.97,-154.47 1622.75,-164.69 1626.96,-154.97 1619.97,-154.47"/>
</a>
</g>
</g>
<!-- Node5&#45;&gt;Node4 -->
<g id="edge20_Node000005_Node000004" class="edge">
<title>Node5&#45;&gt;Node4</title>
<g id="a_edge20_Node000005_Node000004"><a xlink:title=" ">
<path fill="none" stroke="#63b8ff" d="M1529,-183.3C1259.66,-179.37 468.44,-164.99 212.86,-129 203.02,-127.61 192.74,-125.69 182.67,-123.51"/>
<polygon fill="#63b8ff" stroke="#63b8ff" points="1529.08,-186.8 1539.13,-183.45 1529.18,-179.8 1529.08,-186.8"/>
</a>
</g>
</g>
<!-- Node5&#45;&gt;Node6 -->
<g id="edge7_Node000005_Node000006" class="edge">
<title>Node5&#45;&gt;Node6</title>
<g id="a_edge7_Node000005_Node000006"><a xlink:title=" ">
<path fill="none" stroke="#63b8ff" d="M1529.06,-185.23C1331.42,-185.73 847.79,-180.97 446.86,-129 435.94,-127.58 424.53,-125.68 413.29,-123.56"/>
<polygon fill="#63b8ff" stroke="#63b8ff" points="1529.12,-188.73 1539.11,-185.2 1529.1,-181.73 1529.12,-188.73"/>
</a>
</g>
</g>
<!-- Node7 -->
<g id="Node000007" class="node">
<title>Node7</title>
<g id="a_Node000007"><a xlink:href="REST_2include_2controllers_2BasicParamInfoRequest_8h.html" target="_top" xlink:title="Implements REST BasicParamInfoRequest controller.">
<polygon fill="white" stroke="#666666" points="1101.36,-129 904.36,-129 904.36,-77 1101.36,-77 1101.36,-129"/>
<text text-anchor="start" x="912.36" y="-117" font-family="Helvetica,sans-Serif" font-size="10.00">/home/runner/work/Catena</text>
<text text-anchor="start" x="912.36" y="-106" font-family="Helvetica,sans-Serif" font-size="10.00">/Catena/sdks/cpp/connections</text>
<text text-anchor="start" x="912.36" y="-95" font-family="Helvetica,sans-Serif" font-size="10.00">/REST/include/controllers/BasicParam</text>
<text text-anchor="middle" x="1002.86" y="-84" font-family="Helvetica,sans-Serif" font-size="10.00">InfoRequest.h</text>
</a>
</g>
</g>
<!-- Node5&#45;&gt;Node7 -->
<g id="edge8_Node000005_Node000007" class="edge">
<title>Node5&#45;&gt;Node7</title>
<g id="a_edge8_Node000005_Node000007"><a xlink:title=" ">
<path fill="none" stroke="#63b8ff" d="M1529.25,-177.89C1427.11,-169.68 1256.31,-153.68 1110.86,-129 1107.82,-128.48 1104.74,-127.94 1101.64,-127.36"/>
<polygon fill="#63b8ff" stroke="#63b8ff" points="1528.98,-181.38 1539.22,-178.69 1529.53,-174.4 1528.98,-181.38"/>
</a>
</g>
</g>
<!-- Node5&#45;&gt;Node8 -->
<g id="edge9_Node000005_Node000008" class="edge">
<title>Node5&#45;&gt;Node8</title>
<g id="a_edge9_Node000005_Node000008"><a xlink:title=" ">
<path fill="none" stroke="#63b8ff" d="M1529.08,-181.38C1322.25,-173.94 821.03,-153.88 653.86,-129 644.21,-127.56 634.14,-125.65 624.24,-123.52"/>
<polygon fill="#63b8ff" stroke="#63b8ff" points="1529.18,-184.89 1539.3,-181.75 1529.43,-177.89 1529.18,-184.89"/>
</a>
</g>
</g>
<!-- Node5&#45;&gt;Node9 -->
<g id="edge10_Node000005_Node000009" class="edge">
<title>Node5&#45;&gt;Node9</title>
<g id="a_edge10_Node000005_Node000009"><a xlink:title=" ">
<path fill="none" stroke="#63b8ff" d="M1529.09,-176.68C1486,-173.03 1433.78,-168.68 1386.86,-165 1168.28,-147.86 1111.99,-159.43 894.86,-129 884.11,-127.49 872.88,-125.6 861.79,-123.52"/>
<polygon fill="#63b8ff" stroke="#63b8ff" points="1529.01,-180.19 1539.27,-177.55 1529.6,-173.21 1529.01,-180.19"/>
</a>
</g>
</g>
<!-- Node10 -->
<g id="Node000010" class="node">
<title>Node10</title>
<g id="a_Node000010"><a xlink:href="REST_2include_2controllers_2ExecuteCommand_8h.html" target="_top" xlink:title="Implements REST ExecuteCommand controller.">
<polygon fill="white" stroke="#666666" points="1357.86,-123.5 1119.86,-123.5 1119.86,-82.5 1357.86,-82.5 1357.86,-123.5"/>
<text text-anchor="start" x="1127.86" y="-111.5" font-family="Helvetica,sans-Serif" font-size="10.00">/home/runner/work/Catena</text>
<text text-anchor="start" x="1127.86" y="-100.5" font-family="Helvetica,sans-Serif" font-size="10.00">/Catena/sdks/cpp/connections</text>
<text text-anchor="middle" x="1238.86" y="-89.5" font-family="Helvetica,sans-Serif" font-size="10.00">/REST/include/controllers/ExecuteCommand.h</text>
</a>
</g>
</g>
<!-- Node5&#45;&gt;Node10 -->
<g id="edge11_Node000005_Node000010" class="edge">
<title>Node5&#45;&gt;Node10</title>
<g id="a_edge11_Node000005_Node000010"><a xlink:title=" ">
<path fill="none" stroke="#63b8ff" d="M1529.25,-165.36C1469.47,-152.73 1391.4,-136.23 1331.26,-123.52"/>
<polygon fill="#63b8ff" stroke="#63b8ff" points="1528.55,-168.79 1539.06,-167.43 1529.99,-161.94 1528.55,-168.79"/>
</a>
</g>
</g>
<!-- Node5&#45;&gt;Node11 -->
<g id="edge12_Node000005_Node000011" class="edge">
<title>Node5&#45;&gt;Node11</title>
<g id="a_edge12_Node000005_Node000011"><a xlink:title=" ">
<path fill="none" stroke="#63b8ff" d="M1659.53,-159.35C1677.62,-147.88 1698.74,-134.5 1715.67,-123.77"/>
<polygon fill="#63b8ff" stroke="#63b8ff" points="1657.5,-156.5 1650.92,-164.81 1661.24,-162.41 1657.5,-156.5"/>
</a>
</g>
</g>
<!-- Node5&#45;&gt;Node12 -->
<g id="edge13_Node000005_Node000012" class="edge">
<title>Node5&#45;&gt;Node12</title>
<g id="a_edge13_Node000005_Node000012"><a xlink:title=" ">
<path fill="none" stroke="#63b8ff" d="M1710.62,-163.44C1757.56,-152.55 1815.05,-139.22 1863.67,-127.94"/>
<polygon fill="#63b8ff" stroke="#63b8ff" points="1709.72,-160.06 1700.77,-165.73 1711.31,-166.88 1709.72,-160.06"/>
</a>
</g>
</g>
<!-- Node5&#45;&gt;Node13 -->
<g id="edge14_Node000005_Node000013" class="edge">
<title>Node5&#45;&gt;Node13</title>
<g id="a_edge14_Node000005_Node000013"><a xlink:title=" ">
<path fill="none" stroke="#63b8ff" d="M1710.9,-176.51C1803.83,-167.64 1952.03,-151.55 2078.86,-129 2087.79,-127.41 2097.1,-125.54 2106.33,-123.55"/>
<polygon fill="#63b8ff" stroke="#63b8ff" points="1710.31,-173.05 1700.69,-177.47 1710.97,-180.01 1710.31,-173.05"/>
</a>
</g>
</g>
<!-- Node5&#45;&gt;Node14 -->
<g id="edge15_Node000005_Node000014" class="edge">
<title>Node5&#45;&gt;Node14</title>
<g id="a_edge15_Node000005_Node000014"><a xlink:title=" ">
<path fill="none" stroke="#63b8ff" d="M1710.79,-180.58C1840.18,-174.18 2084.62,-159.07 2290.86,-129 2301.3,-127.48 2312.2,-125.6 2322.99,-123.55"/>
<polygon fill="#63b8ff" stroke="#63b8ff" points="1710.35,-177.09 1700.53,-181.08 1710.69,-184.08 1710.35,-177.09"/>
</a>
</g>
</g>
<!-- Node5&#45;&gt;Node15 -->
<g id="edge16_Node000005_Node000015" class="edge">
<title>Node5&#45;&gt;Node15</title>
<g id="a_edge16_Node000005_Node000015"><a xlink:title=" ">
<path fill="none" stroke="#63b8ff" d="M1710.61,-183.83C1874.73,-181.53 2231.45,-171.59 2528.86,-129 2539.03,-127.54 2549.66,-125.63 2560.13,-123.51"/>
<polygon fill="#63b8ff" stroke="#63b8ff" points="1710.51,-180.33 1700.55,-183.96 1710.6,-187.33 1710.51,-180.33"/>
</a>
</g>
</g>
<!-- Node5&#45;&gt;Node16 -->
<g id="edge17_Node000005_Node000016" class="edge">
<title>Node5&#45;&gt;Node16</title>
<g id="a_edge17_Node000005_Node000016"><a xlink:title=" ">
<path fill="none" stroke="#63b8ff" d="M1710.74,-184.94C1903.11,-184.79 2365.27,-178.74 2748.86,-129 2759.86,-127.57 2771.37,-125.67 2782.7,-123.54"/>
<polygon fill="#63b8ff" stroke="#63b8ff" points="1710.67,-181.44 1700.67,-184.94 1710.67,-188.44 1710.67,-181.44"/>
</a>
</g>
</g>
<!-- Node18 -->
<g id="Node000018" class="node">
<title>Node18</title>
<g id="a_Node000018"><a xlink:href="Subscriptions_8h.html" target="_top" xlink:title="Implements Catena REST Subscriptions.">
<polygon fill="white" stroke="#666666" points="1591.36,-123.5 1376.36,-123.5 1376.36,-82.5 1591.36,-82.5 1591.36,-123.5"/>
<text text-anchor="start" x="1384.36" y="-111.5" font-family="Helvetica,sans-Serif" font-size="10.00">/home/runner/work/Catena</text>
<text text-anchor="start" x="1384.36" y="-100.5" font-family="Helvetica,sans-Serif" font-size="10.00">/Catena/sdks/cpp/connections</text>
<text text-anchor="middle" x="1483.86" y="-89.5" font-family="Helvetica,sans-Serif" font-size="10.00">/REST/include/controllers/Subscriptions.h</text>
</a>
</g>
</g>
<!-- Node5&#45;&gt;Node18 -->
<g id="edge19_Node000005_Node000018" class="edge">
<title>Node5&#45;&gt;Node18</title>
<g id="a_edge19_Node000005_Node000018"><a xlink:title=" ">
<path fill="none" stroke="#63b8ff" d="M1577.9,-159.66C1558.4,-148.13 1535.55,-134.6 1517.25,-123.77"/>
<polygon fill="#63b8ff" stroke="#63b8ff" points="1576.2,-162.73 1586.59,-164.81 1579.76,-156.7 1576.2,-162.73"/>
</a>
</g>
</g>
<!-- Node17 -->
<g id="Node000017" class="node">
<title>Node17</title>
<g id="a_Node000017"><a xlink:href="REST_2include_2controllers_2SetValue_8h.html" target="_top" xlink:title="Implements REST SetValue controller.">
<polygon fill="white" stroke="#666666" points="2962.86,-41 2770.86,-41 2770.86,0 2962.86,0 2962.86,-41"/>
<text text-anchor="start" x="2778.86" y="-29" font-family="Helvetica,sans-Serif" font-size="10.00">/home/runner/work/Catena</text>
<text text-anchor="start" x="2778.86" y="-18" font-family="Helvetica,sans-Serif" font-size="10.00">/Catena/sdks/cpp/connections</text>
<text text-anchor="middle" x="2866.86" y="-7" font-family="Helvetica,sans-Serif" font-size="10.00">/REST/include/controllers/SetValue.h</text>
</a>
</g>
</g>
<!-- Node16&#45;&gt;Node17 -->
<g id="edge18_Node000016_Node000017" class="edge">
<title>Node16&#45;&gt;Node17</title>
<g id="a_edge18_Node000016_Node000017"><a xlink:title=" ">
<path fill="none" stroke="#63b8ff" d="M2866.86,-71.87C2866.86,-61.6 2866.86,-50.4 2866.86,-41.17"/>
<polygon fill="#63b8ff" stroke="#63b8ff" points="2863.36,-72.1 2866.86,-82.1 2870.36,-72.1 2863.36,-72.1"/>
</a>
</g>
</g>
</g>
</svg>

<g id="navigator" transform="translate(0 0)" fill="#404254">
  <rect fill="#f2f5e9" fill-opacity="0.5" stroke="#606060" stroke-width=".5" x="0" y="0" width="60" height="60"/>
  <use id="zoomplus" xlink:href="#zoomPlus" x="17" y="9" onmousedown="handleZoom(evt,'in')"/>
  <use id="zoomminus" xlink:href="#zoomMin" x="42" y="9" onmousedown="handleZoom(evt,'out')"/>
  <use id="reset" xlink:href="#resetDef" x="30" y="36" onmousedown="handleReset()"/>
   <use id="arrowup" xlink:href="#arrowUp" x="0" y="0" onmousedown="handlePan(0,-1)"/>
  <use id="arrowright" xlink:href="#arrowRight" x="0" y="0" onmousedown="handlePan(1,0)"/>
  <use id="arrowdown" xlink:href="#arrowDown" x="0" y="0" onmousedown="handlePan(0,1)"/>
  <use id="arrowleft" xlink:href="#arrowLeft" x="0" y="0" onmousedown="handlePan(-1,0)"/>
</g>
<svg viewBox="0 0 15 15" width="100%" height="30px" preserveAspectRatio="xMaxYMin meet">
 <g id="arrow_out" transform="scale(0.3 0.3)">
  <a xlink:href="utils_8h__dep__incl_org.svg" target="_base">
   <rect id="button" ry="5" rx="5" y="6" x="6" height="38" width="38"
        fill="#f2f5e9" fill-opacity="0.5" stroke="#606060" stroke-width="1.0"/>
   <path id="arrow"
     d="M 11.500037,31.436501 C 11.940474,20.09759 22.043105,11.32322 32.158766,21.979434 L 37.068811,17.246167 C 37.068811,17.246167 37.088388,32 37.088388,32 L 22.160133,31.978069 C 22.160133,31.978069 26.997745,27.140456 26.997745,27.140456 C 18.528582,18.264221 13.291696,25.230495 11.500037,31.436501 z"
     style="fill:#404040;"/>
  </a>
 </g>
</svg>

<style type='text/css'>
<![CDATA[
[data-mouse-over-selected='false'] { opacity: 0.7; }
[data-mouse-over-selected='true']  { opacity: 1.0; }
]]>
</style>
<script type="application/ecmascript"><![CDATA[
document.addEventListener('DOMContentLoaded', (event) => {
  highlightEdges();
  highlightAdjacentNodes();
});
]]></script>
</svg>
